<svg width="46" height="61" viewBox="0 0 46 61" fill="none" xmlns="http://www.w3.org/2000/svg">
<path d="M43.4229 7.21805H33.5969L28.4188 2.07293C28.3362 1.99031 28.2519 1.92588 28.1693 1.86144C27.3514 1.18071 26.0726 0.694946 25.0597 0.694946H2.57586C1.15988 0.694946 0 1.85152 0 3.26751V51.2077C0 52.622 1.15988 53.7802 2.57586 53.7802H5.52018V57.7308C5.52018 59.1467 6.67841 60.305 8.09605 60.305H43.4229C44.8405 60.305 45.9988 59.1467 45.9988 57.7308V9.78234C45.9988 8.36636 44.8405 7.21805 43.4229 7.21805ZM27.6356 4.24068L36.8915 13.4206H28.1148C27.8471 13.4206 27.6273 13.2009 27.6273 12.9348V4.24068H27.6356ZM2.08845 51.2077V3.26751C2.08845 2.99984 2.30985 2.78009 2.57586 2.78009H25.0597C25.2167 2.78009 25.3918 2.80818 25.5752 2.85279C25.5571 2.98167 25.5472 3.12046 25.5472 3.25759V12.9249C25.5472 14.3393 26.707 15.4975 28.123 15.4975H37.9027C38.0498 15.4975 38.1885 15.4892 38.3075 15.4711C38.3538 15.6545 38.3819 15.8279 38.3819 15.9849V51.1978C38.3819 51.4638 38.1605 51.6852 37.8944 51.6852H2.57586C2.30985 51.6934 2.08845 51.4737 2.08845 51.2077ZM43.9103 57.7308C43.9103 57.9984 43.6906 58.2182 43.4229 58.2182H8.09605C7.82838 58.2182 7.60863 57.9984 7.60863 57.7308V53.7802H37.9027C39.3203 53.7802 40.4786 52.622 40.4786 51.2077V15.9948C40.4786 14.9836 39.9912 13.7246 39.3104 12.9068C39.246 12.8241 39.1733 12.7415 39.0808 12.649L35.7052 9.30484H43.4229C43.6906 9.30484 43.9103 9.52459 43.9103 9.79061V57.7308ZM32.5312 23.2994H7.94899C7.45167 23.2994 7.05678 22.8946 7.05678 22.4089C7.05678 21.9215 7.46158 21.5167 7.94899 21.5167H32.5312C33.0269 21.5167 33.4235 21.9215 33.4235 22.4089C33.4235 22.8946 33.0269 23.2994 32.5312 23.2994ZM32.5312 29.8242H7.94899C7.45167 29.8242 7.05678 29.4194 7.05678 28.932C7.05678 28.4462 7.46158 28.0414 7.94899 28.0414H32.5312C33.0269 28.0414 33.4235 28.4462 33.4235 28.932C33.4235 29.4194 33.0269 29.8242 32.5312 29.8242ZM32.5312 36.339H7.94899C7.45167 36.339 7.05678 35.9342 7.05678 35.4468C7.05678 34.961 7.46158 34.5562 7.94899 34.5562H32.5312C33.0269 34.5562 33.4235 34.961 33.4235 35.4468C33.4235 35.9342 33.0269 36.339 32.5312 36.339ZM18.492 42.8638H7.94899C7.45167 42.8638 7.05678 42.459 7.05678 41.9716C7.05678 41.4759 7.46158 41.081 7.94899 41.081H18.492C18.9877 41.081 19.3842 41.4841 19.3842 41.9716C19.3842 42.459 18.9877 42.8638 18.492 42.8638Z" fill="white"/>
</svg>
