<svg width="69" height="61" viewBox="0 0 69 61" fill="none" xmlns="http://www.w3.org/2000/svg">
<mask id="mask0_345_1242" style="mask-type:luminance" maskUnits="userSpaceOnUse" x="0" y="0" width="69" height="61">
<path d="M0.572266 0H68.4265V61H0.572266V0Z" fill="white"/>
</mask>
<g mask="url(#mask0_345_1242)">
<path d="M68.396 11.8505L65.4897 8.94418L62.5958 11.8505L61.6289 10.8836L60.155 12.3368L59.1687 11.3643L60.1342 10.3974L59.1687 9.42351L47.5129 21.0765L48.4799 22.0421L58.2156 12.3368L59.1687 13.3037L57.2279 15.2431L46.5115 25.9692V4.11916H43.083C43.065 3.84013 43.0194 3.56662 42.949 3.29588C42.8785 3.02514 42.7832 2.76406 42.663 2.51128C42.5429 2.25987 42.4006 2.0209 42.2348 1.79574C42.0705 1.5692 41.8854 1.362 41.6809 1.17138C41.4779 0.980752 41.2568 0.810847 41.0206 0.661662C40.7844 0.512478 40.5372 0.385395 40.2761 0.283175C40.0164 0.180956 39.7498 0.103601 39.4749 0.05111C39.2 4.4331e-07 38.9238 -0.0262451 38.6433 -0.0262451C38.3643 -0.0262451 38.088 4.4331e-07 37.8132 0.05111C37.5383 0.103601 37.2717 0.180956 37.0106 0.283175C36.7509 0.385395 36.5037 0.512478 36.2674 0.661662C36.0312 0.810847 35.8102 0.980752 35.6058 1.17138C35.4027 1.362 35.2176 1.5692 35.0519 1.79574C34.8875 2.0209 34.7452 2.25987 34.625 2.51128C34.5049 2.76406 34.4095 3.02514 34.3391 3.29588C34.2686 3.56662 34.2231 3.84013 34.2051 4.11916H32.7851C32.7657 3.84013 32.7215 3.56662 32.6511 3.29588C32.5793 3.02514 32.4839 2.76406 32.3652 2.51128C32.245 2.25987 32.1027 2.0209 31.9369 1.79574C31.7726 1.5692 31.5875 1.362 31.383 1.17138C31.1786 0.980752 30.959 0.810847 30.7227 0.661662C30.4865 0.512478 30.2379 0.385395 29.9782 0.283175C29.7185 0.180956 29.4519 0.103601 29.177 0.05111C28.9021 4.4331e-07 28.6259 -0.0262451 28.3455 -0.0262451C28.0664 -0.0262451 27.7888 4.4331e-07 27.5153 0.05111C27.2404 0.103601 26.9724 0.180956 26.7127 0.283175C26.453 0.385395 26.2044 0.512478 25.9682 0.661662C25.732 0.810847 25.5123 0.980752 25.3079 1.17138C25.1034 1.362 24.9197 1.5692 24.754 1.79574C24.5896 2.0209 24.4473 2.25987 24.3271 2.51128C24.207 2.76406 24.1116 3.02514 24.0412 3.29588C23.9707 3.56662 23.9252 3.84013 23.9058 4.11916H22.501C22.4817 3.84013 22.4375 3.56662 22.3656 3.29588C22.2952 3.02514 22.1999 2.76406 22.0797 2.51128C21.9609 2.25987 21.8172 2.0209 21.6529 1.79574C21.4885 1.5692 21.3034 1.362 21.0989 1.17138C20.8945 0.980752 20.6749 0.810847 20.4387 0.661662C20.2025 0.512478 19.9538 0.385395 19.6941 0.283175C19.4344 0.180956 19.1664 0.103601 18.8929 0.05111C18.6181 4.4331e-07 18.3404 -0.0262451 18.0614 -0.0262451C17.7823 -0.0262451 17.5047 4.4331e-07 17.2298 0.05111C16.9563 0.103601 16.6883 0.180956 16.4286 0.283175C16.1689 0.385395 15.9203 0.512478 15.6841 0.661662C15.4479 0.810847 15.2282 0.980752 15.0238 1.17138C14.8194 1.362 14.6356 1.5692 14.4699 1.79574C14.3055 2.0209 14.1618 2.25987 14.0431 2.51128C13.9229 2.76406 13.8276 3.02514 13.7571 3.29588C13.6853 3.56662 13.6411 3.84013 13.6217 4.11916H12.2169C12.1976 3.84013 12.152 3.56662 12.0815 3.29588C12.0111 3.02514 11.9158 2.76406 11.7956 2.51128C11.6754 2.25987 11.5332 2.0209 11.3688 1.79574C11.203 1.5692 11.0193 1.362 10.8149 1.17138C10.6104 0.980752 10.3908 0.810847 10.1546 0.661662C9.91837 0.512478 9.66973 0.385395 9.41004 0.283175C9.15034 0.180956 8.88237 0.103601 8.60748 0.05111C8.33397 4.4331e-07 8.05632 -0.0262451 7.77729 -0.0262451C7.49826 -0.0262451 7.22061 4.4331e-07 6.94573 0.05111C6.67222 0.103601 6.40424 0.180956 6.14455 0.283175C5.88486 0.385395 5.63621 0.512478 5.40001 0.661662C5.1638 0.810847 4.94416 0.980752 4.73972 1.17138C4.53529 1.362 4.35019 1.5692 4.18581 1.79574C4.02005 2.0209 3.87777 2.25987 3.75759 2.51128C3.6388 2.76406 3.54348 3.02514 3.47165 3.29588C3.40121 3.56662 3.357 3.84013 3.33766 4.11916H0.595703V55.5244H1.96599V58.2649H3.33766V61.0069H43.7888V58.2649H45.1605V55.5244H46.5322V35.6469L62.0888 20.0888L66.4497 15.7293L65.4828 14.7361L68.396 11.8505ZM38.5991 1.3772C38.787 1.37858 38.9735 1.39515 39.1572 1.42969C39.3423 1.46422 39.5219 1.51533 39.6959 1.58302C39.8714 1.6507 40.0385 1.73358 40.1987 1.83166C40.359 1.92973 40.5082 2.04162 40.6477 2.16594C40.7872 2.29164 40.9143 2.4284 41.0289 2.57758C41.1436 2.72539 41.2444 2.88424 41.3301 3.05C41.4157 3.21714 41.4848 3.39119 41.5386 3.57077C41.5925 3.75034 41.6298 3.93268 41.6505 4.11916H35.5478C35.5685 3.93268 35.6058 3.75034 35.6597 3.57077C35.7135 3.39119 35.784 3.21714 35.8696 3.05C35.9553 2.88424 36.0547 2.72539 36.1694 2.57758C36.284 2.4284 36.4111 2.29164 36.5506 2.16594C36.6901 2.04162 36.8393 1.92973 36.9996 1.83166C37.1598 1.73358 37.3269 1.6507 37.5024 1.58302C37.6778 1.51533 37.8574 1.46422 38.0411 1.42969C38.2262 1.39515 38.4113 1.37858 38.5991 1.3772ZM28.3151 1.3772C28.5029 1.37858 28.688 1.39515 28.8731 1.42969C29.0568 1.46422 29.2364 1.51533 29.4118 1.58302C29.5873 1.6507 29.7544 1.73358 29.9147 1.83166C30.0749 1.92973 30.2241 2.04162 30.3636 2.16594C30.5031 2.29164 30.6302 2.4284 30.7448 2.57758C30.8595 2.72539 30.959 2.88424 31.0446 3.05C31.1302 3.21714 31.2007 3.39119 31.2546 3.57077C31.3084 3.75034 31.3457 3.93268 31.3664 4.11916H25.2637C25.2844 3.93268 25.3217 3.75034 25.3756 3.57077C25.4294 3.39119 25.4999 3.21714 25.5855 3.05C25.6712 2.88424 25.7706 2.72539 25.8853 2.57758C25.9999 2.4284 26.127 2.29164 26.2665 2.16594C26.4061 2.04162 26.5552 1.92973 26.7155 1.83166C26.8757 1.73358 27.0428 1.6507 27.2183 1.58302C27.3923 1.51533 27.5719 1.46422 27.757 1.42969C27.9407 1.39515 28.1272 1.37858 28.3151 1.3772ZM18.031 1.3772C18.2188 1.37858 18.4039 1.39515 18.589 1.42969C18.7728 1.46422 18.9523 1.51533 19.1278 1.58302C19.3032 1.6507 19.4703 1.73358 19.6306 1.83166C19.7908 1.92973 19.94 2.04162 20.0795 2.16594C20.219 2.29164 20.3461 2.4284 20.4608 2.57758C20.5754 2.72539 20.6749 2.88424 20.7605 3.05C20.8462 3.21714 20.9166 3.39119 20.9705 3.57077C21.0243 3.75034 21.0616 3.93268 21.081 4.11916H14.9796C15.0003 3.93268 15.0376 3.75034 15.0915 3.57077C15.1454 3.39119 15.2144 3.21714 15.3001 3.05C15.3857 2.88424 15.4866 2.72539 15.6012 2.57758C15.7145 2.4284 15.8416 2.29164 15.9811 2.16594C16.1206 2.04162 16.2712 1.92973 16.4314 1.83166C16.5902 1.73358 16.7588 1.6507 16.9328 1.58302C17.1082 1.51533 17.2878 1.46422 17.4729 1.42969C17.6566 1.39515 17.8431 1.37858 18.031 1.3772ZM7.74552 1.3772C7.93338 1.37858 8.11987 1.39515 8.30358 1.42969C8.48868 1.46422 8.66826 1.51533 8.84369 1.58302C9.01912 1.6507 9.18626 1.73358 9.3465 1.83166C9.50535 1.92973 9.65592 2.04162 9.79543 2.16594C9.93495 2.29164 10.062 2.4284 10.1767 2.57758C10.29 2.72539 10.3908 2.88424 10.4764 3.05C10.5621 3.21714 10.6311 3.39119 10.685 3.57077C10.7389 3.75034 10.7762 3.93268 10.7969 4.11916H4.72315C4.74249 3.93406 4.77978 3.75172 4.83366 3.57353C4.88615 3.39534 4.95521 3.22267 5.04086 3.05691C5.12512 2.88976 5.22458 2.73367 5.33785 2.58587C5.45112 2.43669 5.57682 2.30131 5.71495 2.17561C5.85309 2.04991 6.00089 1.93802 6.15974 1.83995C6.31722 1.74187 6.48298 1.65899 6.65703 1.58992C6.83107 1.52224 7.00927 1.46975 7.1916 1.43521C7.37532 1.3993 7.56042 1.37996 7.74552 1.3772ZM42.3702 59.6366H4.66099V58.2649H42.3702V59.6366ZM43.7419 56.8947H3.28932V55.5244H43.7419V56.8947ZM45.1122 54.1527H1.91903V5.48945H10.6809C10.5856 5.76433 10.4543 6.02126 10.2872 6.25885C10.12 6.49645 9.92251 6.70641 9.69597 6.88875C9.46943 7.07108 9.22079 7.2175 8.95281 7.32939C8.68483 7.44128 8.4058 7.51311 8.1171 7.54626L8.26767 8.91655C8.49559 8.89169 8.71937 8.84887 8.94038 8.78809C9.1614 8.72731 9.37688 8.65134 9.58547 8.55741C9.79543 8.46347 9.99573 8.35435 10.1877 8.23003C10.3811 8.10571 10.5621 7.96757 10.7334 7.81424C10.9033 7.6623 11.0621 7.49792 11.2072 7.32111C11.3536 7.14291 11.4834 6.95643 11.6008 6.7589C11.7169 6.56137 11.8177 6.35693 11.9034 6.1442C11.9876 5.93148 12.0553 5.71322 12.1064 5.48945H20.965C20.871 5.76433 20.7398 6.02126 20.5713 6.25885C20.4041 6.49645 20.208 6.70641 19.9801 6.88875C19.7535 7.07108 19.5063 7.2175 19.2369 7.32939C18.9689 7.44128 18.6899 7.51311 18.4012 7.54626L18.5517 8.91655C18.7797 8.89169 19.0034 8.84887 19.2245 8.78809C19.4455 8.72731 19.661 8.65134 19.8695 8.55741C20.0795 8.46347 20.2798 8.35435 20.4718 8.23003C20.6652 8.10571 20.8462 7.96757 21.0174 7.81424C21.1887 7.6623 21.3462 7.49792 21.4926 7.32111C21.6377 7.14291 21.7689 6.95643 21.8849 6.7589C22.001 6.56137 22.1018 6.35693 22.1874 6.1442C22.2717 5.93148 22.3394 5.71322 22.3905 5.48945H31.249C31.1551 5.76433 31.0239 6.02126 30.8567 6.25885C30.6896 6.49645 30.4921 6.70641 30.2655 6.88875C30.0376 7.07108 29.7903 7.2175 29.521 7.32939C29.253 7.44128 28.974 7.51311 28.6853 7.54626L28.8358 8.91655C29.0638 8.89169 29.2875 8.84887 29.5085 8.78809C29.7309 8.72731 29.945 8.65134 30.155 8.55741C30.3636 8.46347 30.5639 8.35435 30.7573 8.23003C30.9493 8.10571 31.1302 7.96757 31.3015 7.81424C31.4728 7.6623 31.6303 7.49792 31.7767 7.32111C31.9217 7.14291 32.053 6.95643 32.169 6.7589C32.2864 6.56137 32.3873 6.35693 32.4715 6.1442C32.5558 5.93148 32.6248 5.71322 32.676 5.48945H41.5345C41.4392 5.76433 41.308 6.02126 41.1408 6.25885C40.9737 6.49645 40.7761 6.70641 40.5496 6.88875C40.3217 7.07108 40.0744 7.2175 39.8064 7.32939C39.5371 7.44128 39.258 7.51311 38.9693 7.54626L39.1199 8.91655C39.3478 8.89169 39.573 8.84887 39.794 8.78809C40.015 8.72731 40.2291 8.65134 40.4391 8.55741C40.6477 8.46347 40.8493 8.35435 41.0414 8.23003C41.2334 8.10571 41.4157 7.96757 41.5856 7.81424C41.7569 7.6623 41.9157 7.49792 42.0608 7.32111C42.2058 7.14291 42.3371 6.95643 42.4531 6.7589C42.5705 6.56137 42.6713 6.35693 42.7556 6.1442C42.8412 5.93148 42.9089 5.71322 42.96 5.48945H45.1398V27.3409L38.2151 34.2628H4.00209V35.6331H36.8435L34.4855 38.0394L32.3458 40.0962L32.2367 41.0825H4.00209V42.4527H32.1138L31.8941 44.4543L30.5777 45.7776L31.5446 46.7432L32.8265 45.4627L37.2275 44.9751L39.2843 42.8368L45.1191 37.0047L45.1122 54.1527ZM35.4248 38.9925L36.3987 38.0394L39.2843 40.925L38.3187 41.8919L35.4248 38.9925ZM37.3656 42.8368L36.5423 43.6669L33.2727 44.0302L33.6553 40.7813L34.4855 39.958L37.3656 42.8368ZM37.3656 37.0255L38.3395 36.0516L41.2458 38.9579L40.2719 39.958L37.3656 37.0255ZM42.2127 38.0394L39.2843 35.1123L58.2156 16.21L59.6687 17.6632L61.1219 19.115L42.2127 38.0394ZM62.0957 18.1632L60.6426 16.7101L59.1687 15.2431L61.5957 12.8175L64.502 15.7224L62.0957 18.1632ZM63.5489 12.8299L65.4897 10.8905L66.4566 11.8574L64.5159 13.7899L63.5489 12.8299Z" fill="white"/>
</g>
<path d="M4.00195 13.7015H43.0828V15.0718H4.00195V13.7015Z" fill="white"/>
<path d="M4.00195 20.5543H43.0828V21.926H4.00195V20.5543Z" fill="white"/>
<path d="M4.00195 27.4086H43.0828V28.7802H4.00195V27.4086Z" fill="white"/>
<path d="M4.00195 47.9712H43.0828V49.3415H4.00195V47.9712Z" fill="white"/>
</svg>
