<svg width="54" height="63" viewBox="0 0 54 63" fill="none" xmlns="http://www.w3.org/2000/svg">
<path fill-rule="evenodd" clip-rule="evenodd" d="M38.3902 50.7465C38.2426 50.7465 38.1315 50.7101 38.0222 50.6354L32.2635 47.3143C32.1159 47.2413 32.0065 47.0556 31.9319 46.8715C31.8954 46.6875 31.8954 46.5035 32.0065 46.3177L45.3294 23.2882C45.5135 22.9184 45.9926 22.809 46.326 22.9931L52.0465 26.3143C52.2305 26.4254 52.3416 26.5729 52.4145 26.757C52.4527 26.9427 52.4145 27.1632 52.3416 27.3108L39.0187 50.3785C38.8711 50.599 38.6489 50.7465 38.3902 50.7465ZM33.6663 46.4288L38.1315 49.0122L50.6801 27.2379L46.2513 24.6545L33.6663 46.4288Z" fill="white"/>
<path fill-rule="evenodd" clip-rule="evenodd" d="M51.6761 27.6806C51.565 27.6806 51.4556 27.6442 51.3081 27.606C50.9747 27.3855 50.8653 26.9428 51.0494 26.573L52.2664 24.4688C52.7108 23.6945 52.0824 22.4393 50.8653 21.7379C49.6831 21.0365 48.2803 21.1112 47.8011 21.8855L46.5841 23.9896C46.3983 24.3594 45.9556 24.4688 45.5876 24.2848C45.2178 24.0626 45.1067 23.6199 45.3289 23.2518L46.5459 21.1476C47.3949 19.6337 49.6831 19.3386 51.6032 20.4462C53.5581 21.5539 54.407 23.6945 53.5216 25.2067L52.341 27.3108C52.1935 27.5695 51.9348 27.6806 51.6761 27.6806Z" fill="white"/>
<path fill-rule="evenodd" clip-rule="evenodd" d="M32.8905 53.625C32.7794 53.625 32.6319 53.5885 32.5208 53.5521C32.3003 53.4045 32.1527 53.1823 32.1527 52.9236L31.9305 46.724C31.894 46.3177 32.2256 45.9861 32.6319 45.9496C33.0381 45.9496 33.3697 46.2812 33.3697 46.6875L33.5919 51.7066L38.0208 49.3437C38.3888 49.1597 38.8315 49.3073 39.0537 49.6771C39.2378 50.0087 39.0902 50.4878 38.7221 50.6736L33.2221 53.5521C33.111 53.5885 33.0017 53.625 32.8905 53.625Z" fill="white"/>
<path fill-rule="evenodd" clip-rule="evenodd" d="M35.5099 49.0868C35.3988 49.0868 35.2512 49.0486 35.1418 48.9757C34.8085 48.7917 34.6609 48.3472 34.8832 47.9792L48.1696 24.9115C48.3901 24.5799 48.8328 24.4323 49.2026 24.6545C49.5342 24.8385 49.6818 25.3177 49.4613 25.651L36.1384 48.717C36.0273 48.9392 35.7686 49.0868 35.5099 49.0868Z" fill="white"/>
<mask id="mask0_345_1243" style="mask-type:luminance" maskUnits="userSpaceOnUse" x="0" y="0" width="49" height="63">
<path d="M0.128906 0H48.1289V63H0.128906V0Z" fill="white"/>
</mask>
<g mask="url(#mask0_345_1243)">
<path fill-rule="evenodd" clip-rule="evenodd" d="M47.1743 63H1.15169C0.745443 63 0.412109 62.6684 0.412109 62.2622V0.737847C0.412109 0.331597 0.745443 0 1.15169 0H31.1187C31.3409 0 31.525 0.0746529 31.6725 0.222222L47.7281 16.276C47.8375 16.4236 47.9121 16.6076 47.9121 16.7934V21.5174C47.9121 21.9219 47.5805 22.2552 47.1743 22.2552C46.768 22.2552 46.4364 21.9219 46.4364 21.5174V17.0885L30.8236 1.47569H1.88954V61.5243H46.4364V34.7656C46.4364 34.3611 46.768 34.0278 47.1743 34.0278C47.5805 34.0278 47.9121 34.3611 47.9121 34.7656V62.2622C47.9121 62.6684 47.5805 63 47.1743 63Z" fill="white"/>
</g>
<path fill-rule="evenodd" clip-rule="evenodd" d="M26.579 16.3125H9.12066C8.71615 16.3125 8.38281 15.9809 8.38281 15.5746V7.19616C8.38281 6.79165 8.71615 6.45831 9.12066 6.45831H26.579C26.9835 6.45831 27.3168 6.79165 27.3168 7.19616V15.5746C27.3168 15.9809 26.9835 16.3125 26.579 16.3125ZM9.86024 14.8368H25.8394V7.93574H9.86024V14.8368Z" fill="white"/>
<path fill-rule="evenodd" clip-rule="evenodd" d="M39.0547 26.868H9.30816C8.86545 26.868 8.57031 26.5364 8.57031 26.1302C8.57031 25.7239 8.86545 25.3923 9.30816 25.3923H39.0547C39.4609 25.3923 39.7925 25.7239 39.7925 26.1302C39.7925 26.5364 39.4609 26.868 39.0547 26.868Z" fill="white"/>
<path fill-rule="evenodd" clip-rule="evenodd" d="M39.0547 33.5851H9.30816C8.86545 33.5851 8.57031 33.2535 8.57031 32.8472C8.57031 32.441 8.86545 32.1094 9.30816 32.1094H39.0547C39.4609 32.1094 39.7925 32.441 39.7925 32.8472C39.7925 33.2535 39.4609 33.5851 39.0547 33.5851Z" fill="white"/>
<path fill-rule="evenodd" clip-rule="evenodd" d="M36.803 40.2656H9.30816C8.86545 40.2656 8.57031 39.934 8.57031 39.5278C8.57031 39.1215 8.86545 38.7899 9.30816 38.7899H36.803C37.2092 38.7899 37.5408 39.1215 37.5408 39.5278C37.5408 39.934 37.2092 40.2656 36.803 40.2656Z" fill="white"/>
<path fill-rule="evenodd" clip-rule="evenodd" d="M32.928 46.9462H9.30816C8.86545 46.9462 8.57031 46.6128 8.57031 46.2066C8.57031 45.8021 8.86545 45.4688 9.30816 45.4688H32.928C33.3342 45.4688 33.6658 45.8021 33.6658 46.2066C33.6658 46.6128 33.3342 46.9462 32.928 46.9462Z" fill="white"/>
<path fill-rule="evenodd" clip-rule="evenodd" d="M39.0547 53.625H9.30816C8.86545 53.625 8.57031 53.2934 8.57031 52.8871C8.57031 52.4809 8.86545 52.1493 9.30816 52.1493H39.0547C39.4609 52.1493 39.7925 52.4809 39.7925 52.8871C39.7925 53.2934 39.4609 53.625 39.0547 53.625Z" fill="white"/>
</svg>
