<svg width="57" height="63" viewBox="0 0 57 63" fill="none" xmlns="http://www.w3.org/2000/svg">
<mask id="mask0_345_1244" style="mask-type:luminance" maskUnits="userSpaceOnUse" x="0" y="0" width="46" height="56">
<path d="M0 0.779419H45.3175V55.1921H0V0.779419Z" fill="white"/>
</mask>
<g mask="url(#mask0_345_1244)">
<path d="M37.4986 52.8075H2.24781V3.03107H42.6496V14.5494C42.6496 15.1701 43.1508 15.6752 43.7715 15.6752C44.3903 15.6752 44.8935 15.172 44.8935 14.5494V1.90526C44.8935 1.2826 44.3903 0.777527 43.7715 0.777527H1.12586C0.505121 0.777527 0.00390625 1.2826 0.00390625 1.90526V53.9352C0.00390625 54.5579 0.505121 55.061 1.12586 55.061H37.4986C38.1174 55.061 38.6206 54.5579 38.6206 53.9352C38.6206 53.3126 38.1174 52.8075 37.4986 52.8075Z" fill="white"/>
</g>
<path d="M16.8152 9.62776C16.8152 9.00702 16.314 8.50195 15.6933 8.50195H8.79578C8.17504 8.50195 7.67383 9.00702 7.67383 9.62776V16.5542C7.67383 17.1768 8.17504 17.6819 8.79578 17.6819H15.6933C16.3121 17.6819 16.8152 17.1768 16.8152 16.5542V9.62776ZM14.5713 15.4284H9.91773V10.7555H14.5713V15.4284Z" fill="white"/>
<path d="M37.2191 11.1892C37.2191 10.5666 36.7159 10.0634 36.0971 10.0634H19.9696C19.3488 10.0634 18.8457 10.5666 18.8457 11.1892C18.8457 11.8119 19.3488 12.317 19.9696 12.317H36.0971C36.7159 12.317 37.2191 11.8119 37.2191 11.1892Z" fill="white"/>
<path d="M19.9696 16.6081H28.0334C28.6522 16.6081 29.1553 16.1049 29.1553 15.4823C29.1553 14.8596 28.6522 14.3546 28.0334 14.3546H19.9696C19.3488 14.3546 18.8457 14.8596 18.8457 15.4823C18.8457 16.1049 19.3488 16.6081 19.9696 16.6081Z" fill="white"/>
<path d="M16.8152 24.456C16.8152 23.8353 16.314 23.3302 15.6933 23.3302H8.79578C8.17504 23.3302 7.67383 23.8353 7.67383 24.456V31.3824C7.67383 32.0051 8.17504 32.5101 8.79578 32.5101H15.6933C16.3121 32.5101 16.8152 32.0051 16.8152 31.3824V24.456ZM14.5713 30.2566H9.91773V25.5837H14.5713V30.2566Z" fill="white"/>
<path d="M28.8758 24.8917H19.9696C19.3488 24.8917 18.8457 25.3948 18.8457 26.0175C18.8457 26.6401 19.3488 27.1452 19.9696 27.1452H28.8758C29.4965 27.1452 29.9977 26.6401 29.9977 26.0175C29.9977 25.3948 29.4965 24.8917 28.8758 24.8917Z" fill="white"/>
<path d="M19.9696 31.4364H28.0334C28.6522 31.4364 29.1553 30.9333 29.1553 30.3106C29.1553 29.6879 28.6522 29.1829 28.0334 29.1829H19.9696C19.3488 29.1829 18.8457 29.6879 18.8457 30.3106C18.8457 30.9333 19.3488 31.4364 19.9696 31.4364Z" fill="white"/>
<path d="M15.6933 38.1584H8.79578C8.17504 38.1584 7.67383 38.6635 7.67383 39.2862V46.2107C7.67383 46.8333 8.17504 47.3384 8.79578 47.3384H15.6933C16.3121 47.3384 16.8152 46.8333 16.8152 46.2107V39.2862C16.8152 38.6635 16.3121 38.1584 15.6933 38.1584ZM14.5713 45.0849H9.91773V40.412H14.5713V45.0849Z" fill="white"/>
<path d="M34.954 40.8457C34.954 40.2231 34.4508 39.7199 33.832 39.7199H19.9696C19.3488 39.7199 18.8457 40.2231 18.8457 40.8457C18.8457 41.4684 19.3488 41.9734 19.9696 41.9734H33.832C34.4508 41.9734 34.954 41.4684 34.954 40.8457Z" fill="white"/>
<path d="M19.4423 45.9042C18.8235 45.9042 18.3203 46.4092 18.3203 47.0319C18.3203 47.6526 18.8235 48.1577 19.4423 48.1577H27.506C28.1268 48.1577 28.6299 47.6526 28.6299 47.0319C28.6299 46.4092 28.1268 45.9042 27.506 45.9042H19.4423Z" fill="white"/>
<mask id="mask1_345_1244" style="mask-type:luminance" maskUnits="userSpaceOnUse" x="30" y="16" width="27" height="47">
<path d="M30.5137 16.2052H57.0009V62.2206H30.5137V16.2052Z" fill="white"/>
</mask>
<g mask="url(#mask1_345_1244)">
<path d="M55.9603 24.4637C55.2933 22.881 54.3391 21.4603 53.1246 20.2419C51.9101 19.0217 50.4971 18.0636 48.9202 17.3946C47.2893 16.7026 45.5563 16.3498 43.7712 16.3498C41.9861 16.3498 40.253 16.7026 38.6202 17.3946C37.0452 18.0636 35.6303 19.0217 34.4158 20.2419C33.2013 21.4603 32.2471 22.881 31.582 24.4637C30.8919 26.1023 30.541 27.8411 30.541 29.6339C30.541 31.4267 30.8919 33.1675 31.582 34.8061C32.2471 36.3868 33.2013 37.8076 34.4158 39.0278C35.6303 40.2462 37.0452 41.2043 38.6202 41.8732C39.3643 42.1893 40.1296 42.4342 40.9104 42.6077V44.599C40.0641 44.8554 39.4472 45.6458 39.4472 46.5769V57.8774C39.4472 60.2716 41.3865 62.2206 43.7712 62.2206C46.1558 62.2206 48.0951 60.2716 48.0951 57.8774V46.5769C48.0951 45.6458 47.4763 44.8554 46.63 44.599V42.6077C47.4127 42.4342 48.1761 42.1893 48.9202 41.8732C50.4971 41.2043 51.9101 40.2462 53.1246 39.0278C54.341 37.8076 55.2933 36.3868 55.9603 34.8061C56.6505 33.1675 56.9994 31.4267 56.9994 29.6339C56.9994 27.8411 56.6505 26.1023 55.9603 24.4637ZM44.3861 44.5123H43.1543V42.9643L43.7268 42.9855C43.7557 42.9874 43.7847 42.9874 43.8155 42.9855L44.3861 42.9643V44.5123ZM45.8512 57.8774C45.8512 59.0302 44.9182 59.967 43.7712 59.967C42.6241 59.967 41.6911 59.0302 41.6911 57.8774V46.7658H45.8512V57.8774ZM51.5381 37.4336C49.4638 39.5175 46.7052 40.6645 43.7712 40.6645C40.8371 40.6645 38.0785 39.5175 36.0023 37.4336C33.9281 35.3497 32.7849 32.5814 32.7849 29.6339C32.7849 26.6883 33.9281 23.9181 36.0023 21.8342C38.0785 19.7523 40.8371 18.6033 43.7712 18.6033C46.7052 18.6033 49.4638 19.7523 51.5381 21.8342C53.6142 23.9181 54.7555 26.6883 54.7555 29.6339C54.7555 32.5814 53.6123 35.3497 51.5381 37.4336Z" fill="white"/>
</g>
<path d="M48.0846 25.5934L41.0792 32.6297L38.2897 29.8287C37.8521 29.3892 37.1408 29.3892 36.7032 29.8287C36.2656 30.2682 36.2656 30.9815 36.7032 31.423L40.285 35.0182C40.5047 35.2399 40.792 35.3498 41.0792 35.3498C41.3664 35.3498 41.6537 35.2399 41.8715 35.0182L49.6712 27.1877C50.1107 26.7482 50.1107 26.0349 49.6712 25.5934C49.2336 25.1539 48.5242 25.1539 48.0846 25.5934Z" fill="white"/>
</svg>
