<svg width="525" height="448" viewBox="0 0 525 448" fill="none" xmlns="http://www.w3.org/2000/svg">
<path d="M469.335 307.116C494.138 275.62 525 236.411 525 189.27C525 161.756 516.349 136.975 499.285 115.614C484.793 97.482 464.517 82.3122 439.014 70.5244C427.65 65.2714 415.963 60.9839 404.319 57.4983C400.468 52.9435 396.076 48.6178 391.136 44.5213C370.823 27.7096 340.952 14.9726 304.755 7.68494C274.689 1.63556 241.448 -0.502727 211.164 1.67374C153.862 5.79212 72.4939 31.1897 29.2576 77.2174C7.32614 100.564 -2.35291 126.562 0.482064 154.49C2.76951 177.03 11.9497 198.254 24.1595 217.264C23.9709 222.714 24.1534 228.201 24.7071 233.721C27.7367 263.537 40.3785 293.768 62.2734 323.584C79.3076 346.767 101.452 369.164 128.098 390.149C149.221 406.786 169.254 419.43 189.348 428.818C216.055 441.299 242.592 447.621 268.198 447.621C289.704 447.621 310.57 443.192 330.233 434.448C333.305 433.084 336.322 431.638 339.291 430.149C344.274 432.833 349.153 434.938 353.971 436.493C360.365 438.55 366.607 439.575 372.66 439.575C379.924 439.575 386.914 438.091 393.582 435.135C415.994 425.169 431.866 406.252 447.476 386.102C448.584 384.678 449.727 383.227 450.883 381.754C461.371 368.439 473.253 353.345 473.253 336.566C473.253 327.473 470.533 319.378 465.186 312.374C466.542 310.667 467.917 308.921 469.335 307.116ZM3.25011 154.272C0.482065 127.031 9.94818 101.65 31.3869 78.8266C74.1061 33.3444 154.641 8.24133 211.389 4.16659C218.921 3.62111 226.775 3.34291 234.835 3.34291C288.998 3.34291 352.505 15.9381 389.25 46.3596C393.01 49.4688 396.441 52.7253 399.55 56.1182C359.215 44.7722 319.97 42.7157 296.913 42.7157C287.848 42.7157 278.93 43.0267 270.4 43.6376C235.669 46.1359 197.184 54.94 162.051 68.4352C120.378 84.445 85.8779 106.172 62.3099 131.264C39.4233 155.619 26.5504 183.406 24.4029 212.6C13.4584 194.774 5.36113 175.077 3.25011 154.272ZM402.604 59.6202C415.288 74.9155 421.712 92.8455 421.712 113.148C421.712 148.621 396.124 181.121 373.548 209.791C370.95 213.086 368.493 216.201 366.059 219.342C332.21 263.019 297.85 304.001 249.728 325.395C203.56 345.921 152.244 333.173 92.8619 286.404C73.8323 271.414 46.5229 246.867 26.9519 216.642C28.1686 186.565 40.9382 157.894 64.4331 132.873C87.7273 108.075 121.863 86.5833 163.14 70.7371C198.011 57.3455 236.174 48.6015 270.613 46.1305C279.076 45.5195 287.915 45.214 296.907 45.214C320.529 45.214 361.271 47.3796 402.604 59.6202ZM329.004 432.222C309.731 440.791 289.284 445.133 268.204 445.133C243.048 445.133 216.95 438.904 190.638 426.609C170.751 417.319 150.888 404.779 129.936 388.278C103.478 367.441 81.4977 345.218 64.6035 322.22C42.9579 292.753 30.4683 262.905 27.4812 233.503C27.0675 229.445 26.8728 225.408 26.8728 221.388C46.4317 250.315 72.5791 273.743 91.0368 288.28C117.446 309.08 141.811 322.897 165.537 330.539C179.353 334.984 192.822 337.205 205.883 337.205C221.549 337.205 236.618 334.014 250.969 327.631C299.687 305.976 334.297 264.727 368.353 220.766C370.78 217.641 373.232 214.526 375.823 211.237C398.637 182.261 424.499 149.417 424.499 113.154C424.499 93.5546 418.677 76.0937 407.148 61.0057C417.435 64.2404 427.723 68.1133 437.755 72.7499C462.862 84.3578 482.81 99.2712 497.04 117.081C513.757 138 522.238 162.296 522.238 189.281C522.238 235.636 491.65 274.48 467.078 305.687C465.843 307.252 464.65 308.774 463.476 310.269C461.791 308.338 459.911 306.494 457.8 304.748C438.065 288.417 402.001 283.06 375.026 285.002C348.703 286.895 311.313 298.574 291.419 319.744C281.272 330.55 276.788 342.594 278.108 355.533C280.87 382.752 305.369 405.782 319.72 417.09C325.542 421.678 331.145 425.513 336.614 428.66C334.096 429.882 331.565 431.082 329.004 432.222ZM461.779 312.396C461.098 313.28 460.416 314.147 459.741 315.014C426.622 357.758 390.102 401.391 339.364 427.274C333.603 424.045 327.665 420.025 321.539 415.197C307.492 404.135 283.535 381.65 280.858 355.293C279.617 343.036 283.882 331.613 293.536 321.331C312.907 300.712 349.469 289.317 375.233 287.468C378.658 287.228 382.236 287.097 385.904 287.097C410.476 287.097 439.263 292.797 455.902 306.565C458.117 308.403 460.069 310.351 461.779 312.396ZM470.479 336.572C470.479 352.565 458.865 367.31 448.62 380.325C447.458 381.803 446.308 383.254 445.201 384.689C429.797 404.566 414.169 423.211 392.353 432.909C377.058 439.706 360.468 438.353 342.071 428.742C392.614 402.537 429.013 359.051 462.028 316.438C462.509 315.811 462.996 315.189 463.488 314.562C468.13 320.977 470.479 328.346 470.479 336.572Z" fill="white"/>
</svg>
