<svg width="136" height="107" viewBox="0 0 136 107" fill="none" xmlns="http://www.w3.org/2000/svg">
<mask id="mask0_325_527" style="mask-type:luminance" maskUnits="userSpaceOnUse" x="0" y="0" width="136" height="107">
<path d="M0 0H135.872V106.547H0V0Z" fill="white"/>
</mask>
<g mask="url(#mask0_325_527)">
<path d="M135.495 23.8732C135.337 22.8907 134.696 22.1219 134.184 21.2997C134.148 21.2437 134.041 21.2004 133.97 21.2004C133.621 21.208 133.527 21.0579 133.647 20.7371C133.721 20.5437 133.634 20.3069 133.497 20.2484C132.832 19.9709 132.888 19.2047 132.443 18.777C131.985 18.3341 131.641 17.7486 131.134 17.3872C130.602 17.0079 130.261 16.4428 129.666 16.1271C129.228 15.898 128.884 15.4576 128.599 15.0707C128.39 14.7882 128.461 14.2485 128.51 13.8361C128.563 13.4008 128.703 12.9834 128.698 12.5277C128.691 11.8913 129.235 11.5146 129.541 11.0233C129.569 10.9749 129.696 10.9418 129.691 10.924C129.556 10.3767 130.159 10.2265 130.279 9.81923C130.284 9.80396 130.31 9.79123 130.307 9.78105C130.185 9.36358 130.684 9.09884 130.574 8.68137C130.541 8.549 130.625 8.42172 130.714 8.32245C131.02 7.97116 131.012 7.53332 131.032 7.11076C131.045 6.8002 130.702 6.61183 130.394 6.76457C129.541 7.18967 128.724 7.69369 128.131 8.44972C127.833 8.82901 127.464 9.1243 127.156 9.48831C126.433 10.3385 125.722 11.1913 125.02 12.0542C124.75 12.3877 124.798 12.8357 124.462 13.1132C124.226 13.3066 124.088 13.4416 123.806 13.1055C123.589 12.8459 123.146 12.9375 122.81 12.8943C121.184 12.6703 119.552 12.6244 117.936 13.0037C117.398 12.7161 116.889 13.0445 116.375 13.047C116.014 13.0495 115.678 13.0546 115.354 13.1845C115.146 13.2659 114.965 13.1819 114.789 13.1539C114.637 13.131 114.395 12.9579 114.387 12.8383C114.364 12.4819 114.15 12.7364 114.066 12.6855C113.916 12.5888 113.99 12.347 113.921 12.1815C113.858 12.0313 113.771 11.8837 113.667 11.7615C113.216 11.2397 112.819 10.6414 112.279 10.2367C111.704 9.80396 111.383 9.17521 110.867 8.72464C110.083 8.04753 109.403 7.24568 108.57 6.64493C107.779 6.07218 107.125 5.33396 106.29 4.83249C105.549 4.38447 104.941 3.74554 104.151 3.3688C104.001 3.29752 103.889 3.12442 103.78 3.40443C103.68 3.64881 103.53 3.48589 103.53 3.38152C103.533 2.70186 102.932 2.55931 102.532 2.28439C102.227 2.07565 101.904 1.81601 101.565 1.71928C101.003 1.56145 100.577 1.18726 100.084 0.935245C99.544 0.65778 98.9457 0.52032 98.4417 0.17667C98.3348 0.105394 98.2304 0.138486 98.1133 0.146123C97.8792 0.161396 97.6857 0.17667 97.533 -0.14407C97.4108 -0.403717 96.9959 -0.472447 96.67 -0.51063C96.6013 -0.518266 96.5198 -0.429173 96.4486 -0.51063C95.9064 -1.13684 95.0943 -1.19029 94.3867 -1.42194C94.155 -1.49831 93.8521 -1.29975 93.7426 -1.70704C93.7197 -1.79105 93.5339 -1.82159 93.4244 -1.77068C93.2513 -1.68922 93.1852 -1.7885 93.0451 -1.86996C92.8186 -1.99978 92.4953 -2.03796 92.228 -1.99723C91.9684 -1.95905 91.752 -2.01505 91.5204 -2.07869C91.4414 -2.1016 91.3574 -2.18306 91.2938 -2.16779C90.3138 -1.94123 89.3846 -2.55471 88.397 -2.32561C88.1602 -2.27215 87.9388 -2.54962 87.6562 -2.56998C87.1675 -2.60562 86.6813 -2.53944 86.19 -2.65144C85.9303 -2.70999 85.635 -2.50635 85.3474 -2.68199C85.2456 -2.74308 85.1183 -2.66672 85.0928 -2.52416C85.0419 -2.22379 84.8306 -2.40961 84.7721 -2.46053C84.3088 -2.84236 83.8226 -2.94418 83.2829 -2.64381C83.1837 -2.58526 83.0997 -2.53689 83.092 -2.70999C83.0895 -2.78127 83.0691 -2.82709 83.0029 -2.86781C82.6084 -3.1071 82.2749 -2.65399 81.9338 -2.75581C81.524 -2.878 81.2083 -2.90854 80.9639 -2.49871C80.8978 -2.38925 80.801 -2.26452 80.6916 -2.22124C80.4166 -2.11178 80.381 -2.35107 80.3836 -2.51653C80.3861 -2.6489 80.5439 -2.8169 80.3301 -2.88054C80.185 -2.92382 80.0068 -2.93145 79.8566 -2.81181C79.7166 -2.69726 79.5562 -2.3918 79.4061 -2.81181C79.3984 -2.83727 79.3093 -2.86272 79.2737 -2.84745C78.9606 -2.7329 78.6678 -2.65653 78.3318 -2.81945C78.1689 -2.89836 78.0315 -2.65144 77.8125 -2.61071C77.502 -2.55217 77.3111 -2.77108 77.0565 -2.72272C76.7409 -2.66162 76.5041 -2.53689 76.4634 -2.16524C76.4405 -1.9616 76.3158 -1.80123 75.9645 -1.80123C76.2648 -1.9616 76.2572 -2.10415 76.1554 -2.34598C76.023 -2.66926 75.7837 -2.56489 75.6259 -2.52162C75.2746 -2.42998 74.8648 -2.47325 74.595 -2.1576C74.5237 -2.07615 74.4371 -2.0176 74.3353 -2.07615C73.6989 -2.44016 73.116 -1.96923 72.5025 -1.95905C72.2072 -1.95396 71.9349 -1.80377 71.6116 -1.84705C71.2908 -1.89032 71.133 -1.53649 70.881 -1.38885C70.6926 -1.27939 70.5552 -1.11138 70.4686 -1.45758C70.4483 -1.54158 70.4126 -1.64849 70.3159 -1.56958C70.0511 -1.35066 70.0995 -1.60267 70.1606 -1.68668C70.3897 -2.00233 70.2166 -2.13215 69.9646 -2.30525C69.6922 -2.48853 69.2798 -2.66417 69.71 -3.12237C69.8679 -3.28783 69.7126 -3.51439 69.5802 -3.69767C69.2467 -4.15332 68.9311 -4.6217 68.6078 -5.08499C68.59 -5.11045 68.5773 -5.16136 68.5544 -5.16391C67.89 -5.253 67.7652 -6.00139 67.2001 -6.2534C66.4288 -6.5996 65.7033 -7.01962 64.8149 -6.74979C64.6673 -6.70397 64.5247 -6.76761 64.3847 -6.82361C63.8782 -7.01452 63.3665 -7.2589 62.8676 -6.79815C62.7989 -6.73451 62.7225 -6.73197 62.6487 -6.79561C62.3127 -7.08835 61.9181 -7.06544 61.5414 -6.94579C60.9151 -6.74979 60.2737 -6.63524 59.6576 -6.34504C59.2376 -6.14649 58.7005 -6.07012 58.2372 -5.88684C57.3768 -5.54574 56.6412 -4.97808 55.8673 -4.47915C55.6637 -4.34933 55.3277 -3.84531 55.152 -4.5377C54.6938 -4.53515 54.7778 -4.7948 54.8898 -5.06972C54.9 -5.09518 54.8898 -5.15372 54.872 -5.16136C54.396 -5.37264 54.4978 -6.01667 54.0498 -6.25849C53.8589 -6.36032 53.7698 -6.54614 53.7214 -6.78033C53.645 -7.14944 53.5254 -7.51091 52.9908 -7.4269C52.8406 -7.40399 52.7286 -7.59491 52.7006 -7.77565C52.637 -8.19566 51.9752 -8.70223 51.5679 -8.59022C51.3591 -8.53422 51.3108 -8.68695 51.1886 -8.74041C50.8933 -8.86769 50.8169 -8.48076 50.6107 -8.4884C50.346 -8.49604 50.5853 -8.94151 50.2442 -8.97715C50.0634 -8.99497 49.9082 -8.92878 49.7783 -8.87023C49.4016 -8.69459 48.9994 -8.88296 48.6201 -8.72259C48.1543 -8.52149 47.6401 -8.41458 47.2201 -8.12948C46.0644 -7.34799 44.8781 -6.61742 43.8243 -5.6832C43.025 -4.97553 42.2129 -4.2806 41.4289 -3.55257C40.3267 -2.52671 39.3492 -1.39139 38.3157 -0.30444C37.6462 0.398134 36.9844 1.1058 36.3276 1.8211C35.5741 2.64077 34.9097 3.54189 34.2683 4.44047C33.5784 5.41033 32.9599 6.44128 32.438 7.53587C32.1376 8.16717 31.8245 8.82138 31.5751 9.4654C31.4274 9.84469 31.1678 10.2265 31.1423 10.6414C31.094 11.4611 30.5925 11.983 30.0579 12.4972C28.7851 13.719 27.6015 15.0223 26.3847 16.2951C25.2265 17.5043 24.2261 18.828 23.2995 20.2C22.6936 21.0935 22.0827 22.0048 21.6907 23.0358C21.5303 23.4583 21.2198 23.8172 21.0212 24.2271C20.759 24.7616 20.5426 25.3166 20.311 25.8639C20.0335 26.5104 19.8579 27.1723 19.7408 27.8723C19.6619 28.3534 19.2444 28.7734 19.1655 29.2978C19.0738 29.9037 18.6869 30.4357 18.7531 31.0924C18.7887 31.431 18.6513 31.7085 18.1982 31.6346C17.8291 31.571 17.4472 31.6805 17.073 31.5201C16.8058 31.4055 16.5767 31.6066 16.3399 31.823C16.261 31.4437 16.0395 31.3877 15.7163 31.3979C15.1919 31.4157 14.6624 31.151 14.1227 31.4539C14.0846 31.4768 13.6365 31.2172 13.3387 31.1714C12.9314 31.1128 12.5343 31.0644 12.1194 31.1357C11.8394 31.1815 11.6103 30.8786 11.2997 30.9423C11.2081 30.9601 11.1037 30.9066 11.007 30.9092C10.615 30.9143 10.2917 31.0899 9.81821 30.9092C9.09782 30.6342 8.33924 31.0797 7.70031 31.4743C6.39953 32.2787 5.59768 33.5998 4.526 34.6384C3.62742 35.5115 3.19976 36.6596 2.56337 37.6803C2.27573 38.1385 2.13572 38.7011 1.98808 39.2357C1.82516 39.8161 1.63425 40.3837 1.41787 40.9514C1.13277 41.6947 0.93931 42.4634 0.84767 43.2704C0.761121 44.0442 0.422562 44.8079 0.493838 45.5868C0.57275 46.4447 0.112004 47.2058 0.203644 48.0433C0.254556 48.4989 0.239282 48.947 0 49.3593C0 49.3924 0 49.4255 0 49.4586C0.241828 49.5528 0.498929 49.6368 0.175643 49.9499C0.124732 50.0008 0.106913 50.1816 0.150188 50.2223C0.4582 50.5201 0.402197 50.958 0.590569 51.3016C0.64148 51.3983 0.697482 51.4518 0.806941 51.4696C1.01313 51.5027 1.00804 51.6122 0.868034 51.7267C0.750939 51.8234 0.750939 51.9736 0.832397 52.0271C1.33132 52.3427 1.08441 53.2566 1.88371 53.3202C1.91171 53.3228 1.9499 53.3915 1.95244 53.4322C1.99826 54.2544 2.56083 54.6617 3.15903 55.1148C3.41359 55.3058 3.71651 55.5145 3.93288 55.7792C4.57182 56.5684 5.43985 57.0953 6.2697 57.612C6.9901 58.0601 7.65194 58.6455 8.43088 58.9535C9.27346 59.2845 10.0524 59.8827 11.0426 59.7808C11.4041 59.7427 11.6688 60.1678 12.0099 60.0761C12.6565 59.903 13.2165 60.2441 13.8122 60.3281C14.2729 60.3918 14.3569 59.9158 14.6217 59.9514C14.8584 59.9819 15.0213 60.4478 15.365 60.0889C15.4973 59.9489 15.4668 60.0965 15.4846 60.1601C15.5203 60.2823 15.6195 60.2976 15.7214 60.2849C16.3272 60.2009 17.0629 60.4478 17.5109 60.0583C17.9156 59.7045 18.0098 59.8012 18.2465 60.1143C18.3153 60.2034 18.4807 60.1983 18.5596 60.0965C18.8269 59.7503 19.0535 59.9107 19.3946 60.0278C19.7561 60.155 20.1379 60.2747 20.5095 60.3689C21.5889 60.6438 22.3194 61.2853 22.8362 62.222C23.0246 62.5657 23.4013 62.7413 23.5922 63.0952C23.6533 63.2072 23.778 63.2708 23.8009 63.4414C23.8569 63.8308 24.0886 64.0523 24.5341 63.9734C24.3304 64.7218 24.9235 65.1265 25.1959 65.6636C25.2366 65.7425 25.3206 65.7578 25.4123 65.74C25.5217 65.7171 25.5828 65.46 25.7254 65.6534C25.8043 65.7629 25.6694 65.8622 25.6236 65.964C25.5065 66.2338 25.7814 66.6106 26.2498 66.7964C26.3567 66.8397 26.5451 66.7862 26.293 66.9313C26.2014 66.9848 26.237 67.0917 26.293 67.1451C26.7309 67.5677 26.96 68.1532 27.4335 68.5503C27.6498 68.7336 27.8458 68.8787 28.1768 68.7183C27.8153 69.0365 28.1309 69.2732 28.2709 69.426C29.363 70.6045 30.4932 71.7373 31.7354 72.7759C32.4686 73.3894 33.2653 73.9036 33.9984 74.5094C35.2381 75.5302 36.5389 76.4873 37.9593 77.2561C38.3284 77.4572 38.6135 77.7677 39.0234 77.9307C39.2779 78.0299 39.0946 78.4499 38.9928 78.6841C38.3641 80.1504 37.5622 81.5097 36.5745 82.7825C36.1036 83.3909 35.5996 84.0374 35.4087 84.8597C35.317 85.2619 35.009 85.6055 35.1796 86.0663C35.2025 86.1248 35.1058 86.2419 35.0472 86.3183C34.5737 86.9394 34.5992 87.67 35.0752 88.2911C35.345 88.6474 35.3807 89.1387 35.8007 89.4238C36.9436 90.2028 37.9644 91.1599 39.1812 91.8192C39.7336 92.117 40.342 92.3436 40.9173 92.5931C41.7013 92.9342 42.4853 93.2574 43.2999 93.5095C44.1476 93.7691 44.9901 94.0593 45.8556 94.2426C46.4284 94.3648 47.0393 94.3062 47.6299 94.3571C47.8895 94.3775 47.9634 94.0084 47.9939 94.0593C48.1339 94.2858 48.2968 94.2629 48.503 94.2273C49.45 94.0669 50.4249 94.1611 51.3668 93.9193C51.9217 93.7742 52.3494 94.1178 52.7286 94.4437C53.1741 94.8306 53.5636 95.2506 54.2382 95.2328C54.4647 95.2252 54.7294 95.4059 54.9204 95.5688C55.2564 95.8615 55.656 96.0066 56.0633 96.1288C56.9695 96.4012 57.8859 96.643 58.7972 96.8976C58.8278 96.9052 58.866 96.9027 58.8914 96.9205C59.1969 97.1012 59.5202 96.6939 59.7773 96.9027C60.0827 97.1445 60.3933 96.9867 60.686 97.0452C61.1341 97.1343 61.5872 97.1445 62.025 97.2311C62.944 97.4118 63.8451 97.6383 64.7971 97.5085C65.0059 97.4805 65.2655 97.4983 65.4386 97.6994C66.0673 97.6994 66.6961 97.6994 67.3223 97.6994C67.4623 97.5569 67.6303 97.5289 67.8238 97.5467C68.562 97.6205 69.2824 97.5696 69.9748 97.254C70.2752 97.1165 70.6188 97.2361 70.9446 97.1292C71.3519 96.9943 71.7516 96.8085 72.225 96.89C72.4465 96.9256 72.7367 96.8314 72.9149 96.5768C73.0396 96.3987 73.2942 96.3401 73.4927 96.3528C74.3048 96.4012 74.9233 96.0143 75.4834 95.5077C75.7557 95.2608 76.1045 95.159 76.3819 94.9095C77.3314 94.0517 77.7947 92.9062 78.3318 91.8039C78.6169 91.2159 78.8995 90.6228 79.1413 90.0144C79.3984 89.3627 79.7039 88.7187 79.7421 87.9983C79.7523 87.7565 79.8337 87.4969 79.6275 87.2932C79.5333 87.2016 79.5995 87.1481 79.6199 87.0539C79.7573 86.4354 80.1214 85.8244 79.7141 85.1728C79.5944 84.9793 79.7192 84.8113 79.8312 84.6331C80.1163 84.1851 80.0679 83.8033 79.7472 83.5971C79.9814 83.4163 80.1035 82.4796 79.849 82.2963C79.3806 81.9577 79.7523 81.5606 79.6988 81.2017C79.6759 81.0566 79.8795 81.0846 79.9788 81.1075C80.521 81.2246 81.0785 81.0439 81.6309 81.3112C81.9338 81.4588 82.3564 81.3901 82.7407 81.2832C83.4102 81.0999 84.1255 81.2806 84.8026 81.1075C85.3703 80.9624 85.9303 80.8071 86.5565 81.0413C85.9685 81.5301 86.2689 82.169 86.3122 82.729C86.3503 83.2203 86.3452 83.7192 86.4038 84.1927C86.4954 84.9284 86.2485 85.6691 86.5082 86.387C86.5234 86.4303 86.5387 86.499 86.5158 86.5295C86.1212 87.0921 86.4165 87.6852 86.4445 88.2605C86.4623 88.7009 86.6685 89.0573 87.0962 89.2329C87.3736 89.3475 87.6129 89.5155 87.842 89.6988C88.6006 90.3071 89.4737 90.4242 90.4207 90.4701C91.1309 90.5032 91.8335 90.5159 92.5411 90.4879C92.788 90.4777 93.0222 90.4981 93.2564 90.3708C93.6688 90.1544 94.1194 90.3504 94.5547 90.3173C95.079 90.2791 95.5627 90.3224 95.8249 89.714C95.9904 89.9355 95.5754 90.0399 95.8122 90.1544C96.0489 90.269 96.3544 90.2282 96.4842 90.0068C96.8202 89.434 96.8329 89.7446 97.0111 90.1137C97.3624 90.8468 97.9657 91.3992 98.6785 91.7759C98.9839 91.9363 99.2869 92.1374 99.5516 92.3232C100.142 92.7382 100.812 92.7789 101.453 92.9138C102.036 93.0385 102.644 93.092 103.243 93.1302C104.07 93.1862 104.89 93.3185 105.717 93.3542C105.882 93.3618 106.111 93.3873 106.101 93.1047C106.099 93.0029 106.137 92.9825 106.206 93.0283C106.799 93.4025 107.344 92.9418 107.909 92.9393C108.581 92.9367 109.131 92.4709 109.803 92.5065C109.904 92.5116 110.014 92.4225 110.116 92.369C110.385 92.229 110.625 91.9872 110.976 92.1145C111.012 92.1272 111.073 92.0941 111.114 92.0687C111.808 91.6105 112.59 91.3966 113.374 91.1523C113.674 91.0581 114.135 90.9359 114.313 90.5261C114.374 90.3861 114.474 90.4599 114.555 90.5108C114.751 90.6381 114.942 90.5795 115.118 90.4802C115.622 90.2002 116.093 89.8311 116.63 89.6402C116.989 89.5129 117.391 89.4875 117.742 89.2966C118.345 88.9656 119.005 88.734 119.639 88.5176C120.407 88.258 121.072 87.8176 121.749 87.4409C122.604 86.9674 123.549 86.6339 124.302 85.9135C124.77 85.4655 125.18 84.9386 125.743 84.5466C126.178 84.2411 126.366 83.5665 126.631 83.0396C127.005 82.2937 127.352 81.5326 127.703 80.7766C127.823 80.5246 127.896 80.2624 127.935 79.9773C128.008 79.3944 128.12 78.814 128.258 78.2412C128.337 77.9128 128.314 77.587 128.332 77.2586C128.342 77.0575 128.334 76.8615 128.108 76.7546C127.993 76.6986 127.919 76.579 127.998 76.467C128.24 76.1233 128.029 75.7924 127.879 75.5582C127.527 75.0134 127.217 74.4382 126.82 73.9138C126.585 73.6058 126.173 73.3028 126.209 72.8065C126.214 72.7428 126.109 72.6079 126.084 72.613C125.445 72.7734 125.829 72.3355 125.806 72.1446C125.753 71.7144 125.371 71.4217 124.824 71.4573C125.216 71.1289 125.071 70.9533 124.793 70.6453C124.595 70.4264 124.623 69.986 124.378 69.6907C124.047 69.2885 123.943 68.6954 123.342 68.5223C123.228 68.4917 123.162 68.3517 123.182 68.2372C123.299 67.5957 122.78 67.2011 122.589 66.6793C122.492 66.412 122.309 66.2618 121.988 66.3662C121.629 66.4833 121.647 66.2033 121.749 66.048C122.1 65.5007 121.807 65.0883 121.52 64.6632C121.336 64.3883 121.163 64.1057 120.97 63.841C120.845 63.6654 120.751 63.3523 120.377 63.7901C120.667 63.1283 120.306 62.8559 119.997 62.5962C119.712 62.3569 119.649 62.1864 119.847 61.8147C120.44 60.7151 120.985 59.5874 121.499 58.447C122.057 57.2047 122.617 55.9549 123.067 54.6694C123.465 53.5417 123.724 52.3682 123.78 51.1591C123.826 50.1739 123.963 49.1939 123.989 48.2113C123.997 47.8066 124.019 47.4247 124.134 47.0378C124.195 46.8342 124.185 46.572 123.864 46.5771C123.696 46.5796 123.676 46.4981 123.676 46.3861C123.678 46.1876 123.816 46.3225 123.877 46.3276C124.2 46.3429 124.322 46.2258 124.177 45.9152C124.073 45.6937 124.175 45.5105 124.236 45.3043C124.343 44.9275 124.691 44.5101 124.149 44.1715C124.119 44.1511 124.101 44.0722 124.114 44.0315C124.195 43.7362 124.513 43.5071 124.126 43.1176C123.961 42.9547 124.31 42.4711 124.442 42.1351C124.679 41.5369 124.508 40.9005 124.551 40.2819C124.59 39.755 124.595 39.2255 124.564 38.6986C124.546 38.4084 124.755 38.0342 124.325 37.8382C124.251 37.8051 124.31 37.688 124.35 37.6142C124.399 37.5251 124.457 37.4131 124.317 37.38C124.256 37.3672 124.17 37.4741 124.093 37.5276C124.055 37.0567 124.483 36.7079 124.411 36.2243C124.361 35.8755 124.427 35.4988 123.999 35.3181C123.885 35.2697 123.872 35.145 123.989 35.033C124.259 34.7809 124.165 34.4526 124.149 34.1446C124.142 33.9918 124.058 33.8162 123.9 33.8187C123.398 33.8264 123.564 33.5998 123.648 33.3045C123.811 32.747 123.943 32.1972 123.538 31.6296C123.403 31.4412 123.498 31.0339 123.452 30.7284C123.426 30.5604 123.386 30.3313 123.233 30.3186C122.752 30.2728 122.966 30.0106 123.019 29.7815C123.095 29.4506 123.146 29.1222 122.729 28.9644C122.642 28.9313 122.637 28.8727 122.67 28.8091C122.851 28.4756 122.759 28.2185 122.477 27.9894C122.411 27.936 122.365 27.8061 122.38 27.7221C122.528 26.821 122.07 26.1312 121.594 25.4489C121.555 25.398 121.504 25.3649 121.504 25.2886C121.492 24.2958 120.886 23.5067 120.56 22.6208C120.377 22.1244 119.962 21.7223 119.842 21.175C119.817 21.063 119.664 21.0426 119.557 20.9993C119.3 20.9 119.109 20.6506 119.15 20.4367C119.213 20.1007 118.903 19.864 119.005 19.5407C119.035 19.444 118.946 19.276 118.816 19.2963C118.246 19.3854 118.391 18.9425 118.325 18.6625C118.297 18.5403 118.379 18.413 118.295 18.2807C117.956 17.7461 117.951 17.7232 118.488 17.5068C118.648 17.4406 118.832 17.4712 118.888 17.2523C118.9 17.1988 118.946 17.1784 118.992 17.2319C119.402 17.713 119.888 17.4839 120.364 17.3872C120.476 17.3643 120.611 17.3312 120.708 17.3719C121.555 17.7385 122.482 17.7232 123.368 17.8988C123.722 17.9701 123.801 18.0567 123.729 18.4767C123.579 19.3549 123.482 20.2535 123.592 21.1597C123.643 21.5848 123.579 22.0252 123.584 22.4579C123.61 24.6725 123.943 26.8414 124.625 28.9516C125.071 30.3313 125.743 31.599 126.537 32.8056C126.822 33.2383 127.196 33.5845 127.644 33.8518C127.856 33.9791 128.069 34.1064 128.263 34.2617C129.414 35.1781 130.719 35.2926 131.972 34.674C132.588 34.3711 133.168 33.7729 133.512 33.1238C134.148 31.9147 134.713 30.6673 135.258 29.4124C135.622 28.5749 135.614 27.6508 135.732 26.7574C135.752 26.5944 135.8 26.4366 135.836 26.2788C135.836 25.9479 135.836 25.617 135.836 25.2886C135.665 24.8304 135.574 24.3594 135.495 23.8732ZM18.0353 47.9389C18.16 48.807 17.7553 49.591 17.8393 50.4488C17.9182 51.2787 17.3709 51.9584 16.989 52.6558C16.5028 53.5493 15.6755 54.0279 14.7693 54.3995C14.5249 54.5014 14.2907 54.621 14.054 54.7356C13.1911 55.1581 12.3307 55.1327 11.399 54.8985C10.8008 54.7483 10.2408 54.4937 9.7062 54.2595C8.95781 53.9286 8.37488 53.2413 7.65194 52.8264C6.90355 52.3962 6.54208 51.5791 5.80132 51.1667C5.73768 51.131 5.70968 51.0369 5.66641 50.9681C5.30748 50.403 5.02747 49.7692 4.77801 49.1786C4.49291 48.4989 4.08816 47.804 4.04234 47.0174C4.00925 46.46 4.16962 45.9228 4.17217 45.3628C4.17726 44.2657 4.44454 43.194 4.47254 42.0867C4.49545 41.1168 4.83401 40.1495 5.08093 39.1949C5.24639 38.5407 5.51367 37.9145 5.69695 37.2654C6.0457 36.0257 7.02064 35.5904 8.1356 35.3384C8.43597 35.2697 8.75671 35.2901 9.06727 35.2671C9.79784 35.2035 10.5386 35.3715 11.1979 35.5421C11.8292 35.7075 12.5929 35.6286 13.1249 36.2192C13.606 36.7538 14.2373 37.1381 14.7413 37.6625C15.225 38.1665 15.589 38.78 16.1592 39.1949C16.3526 39.3375 16.2686 39.5488 16.3526 39.7219C16.7727 40.6128 17.3734 41.4452 17.5694 42.4125C17.7909 43.5097 18.1371 44.5813 18.1473 45.7345C18.1549 46.4829 17.936 47.2211 18.0353 47.9389ZM36.7706 6.5151C37.4884 5.43833 38.2699 4.40738 39.0539 3.37898C39.7438 2.47276 40.6271 1.7651 41.4009 0.947973C41.4238 0.922517 41.4467 0.894516 41.4773 0.884334C42.2537 0.614505 42.5795 -0.151707 43.1624 -0.62518C43.7963 -1.14193 44.4327 -1.66377 45.1276 -2.10924C45.6902 -2.46816 46.1993 -2.91109 46.7695 -3.25219C47.1259 -3.46602 47.5484 -3.56784 47.9455 -3.7053C48.3477 -3.84276 48.7703 -3.89367 49.1649 -4.0795C49.4881 -4.23223 49.8114 -4.03877 50.0405 -3.79949C50.2798 -3.55002 50.4504 -3.23947 50.682 -2.98236C51.102 -2.51398 51.2726 -1.87759 51.7613 -1.44739C51.9981 -1.23611 51.6875 -1.09865 51.5679 -0.994286C50.8398 -0.35026 50.0787 0.255582 49.3583 0.90979C48.3503 1.82619 47.2786 2.68404 46.4208 3.75827C46.1611 4.0841 45.764 4.23938 45.4433 4.47357C45.288 4.58812 44.8018 4.29792 44.5752 4.70521C44.0737 4.23174 43.5952 4.60084 43.1599 4.79431C42.4548 5.10741 41.7166 5.31869 41.0191 5.6598C40.5278 5.89908 39.9474 6.04163 39.4154 6.24527C38.4761 6.6042 37.6386 7.16676 36.7502 7.63006C36.5949 7.70897 36.46 7.84897 36.2411 7.82352C36.3022 7.33477 36.5134 6.90203 36.7706 6.5151ZM52.0999 82.7672C52.0668 82.9149 52.049 83.0574 52.0592 83.2076C52.0821 83.6225 52.0922 84.0171 51.9548 84.4396C51.769 85.0175 51.769 85.6462 51.8021 86.2597C51.8173 86.5652 51.5831 86.8248 51.578 87.1048C51.5704 87.7209 51.4431 88.3191 51.3948 88.9275C51.3871 89.0064 51.3871 89.0955 51.4177 89.1667C51.5857 89.5893 51.4635 89.7828 50.9646 89.8439C50.8347 89.8617 50.7024 89.8515 50.5726 89.8515C50.4555 89.8515 50.3409 89.8515 50.1678 89.8515C49.226 89.8948 48.2205 90.045 47.2226 89.9202C46.6499 89.8464 46.0975 89.5995 45.5374 89.4213C44.9621 89.238 44.3487 89.1438 43.8039 88.9555C43.3177 88.7874 42.7755 88.6474 42.3071 88.3547C41.9431 88.1231 41.5027 87.9678 41.1005 87.8583C40.5609 87.7107 40.2478 87.2474 39.7463 87.1048C38.8477 86.8503 38.639 85.9873 38.1681 85.356C38.0891 85.2517 38.0713 85.1422 38.1121 85.0302C38.3132 84.4906 38.5244 83.9534 38.8426 83.4672C39.4434 82.5534 40.1129 81.6828 40.4871 80.6366C40.5125 80.5602 40.5329 80.4762 40.5787 80.41C40.8511 80.0384 40.9173 79.2594 41.2431 79.2722C41.8413 79.2951 42.414 79.7151 43.0148 79.9238C44.1883 80.3311 45.3363 80.797 46.6142 80.881C47.2353 80.9217 47.8641 81.1864 48.503 81.2653C49.3405 81.3672 50.1856 81.469 51.0257 81.4537C51.8581 81.4384 52.273 81.9934 52.0999 82.7672ZM95.5245 86.1299C95.2216 86.1706 94.939 86.2954 94.6107 86.2139C94.4223 86.1681 94.1881 86.2037 94.0023 86.3488C93.8521 86.4634 93.6714 86.5219 93.4983 86.387C93.1444 86.1095 92.8822 86.7408 92.7168 86.5575C92.3629 86.1681 92.2 86.4481 91.9735 86.6365C91.8996 86.6975 91.7826 86.7994 91.7367 86.6594C91.5738 86.1553 91.1614 86.5015 90.884 86.3997C90.8152 86.3768 90.7236 86.4583 90.6091 86.4303C89.9167 86.2521 89.6672 85.8932 89.7919 85.1702C89.8657 84.7324 89.9396 84.3047 89.6519 83.9127C89.5908 83.8262 89.6647 83.76 89.6952 83.6862C90.1585 82.6094 89.7792 81.5326 89.741 80.4558C89.4966 80.4482 89.4305 80.6493 89.2115 80.7257C89.153 80.4355 89.2421 80.2547 89.5068 80.1504C89.8428 80.018 90.2247 79.9518 90.5072 79.7456C91.3294 79.1449 92.3986 79.1194 93.2208 78.5365C93.5033 78.3379 93.6408 78.3787 93.8139 78.7325C94.155 79.43 94.2721 80.2573 94.9034 80.8046C94.9365 80.8326 94.9594 80.8937 94.9569 80.937C94.8932 81.7694 95.2649 82.5305 95.4532 83.3018C95.6442 84.0858 95.6365 84.8826 95.8402 85.6513C95.9114 85.911 95.83 86.0917 95.5245 86.1299ZM118.468 30.8837C118.582 31.2095 118.608 31.5557 118.737 31.8816C118.819 32.0852 118.918 32.1641 119.175 32.0776C118.916 32.4467 118.852 32.7394 119.252 32.9583C119.348 33.0092 119.394 33.1111 119.387 33.2078C119.297 34.1904 119.791 35.0762 119.865 36.0257C119.992 37.6625 120.356 39.2764 120.336 40.9285C120.334 41.0812 120.339 41.2288 120.433 41.3536C120.659 41.6514 120.662 41.9594 120.491 42.2776C120.468 42.3209 120.42 42.3794 120.433 42.41C120.748 43.1762 120.153 43.9475 120.453 44.7188C120.532 44.9224 120.374 45.1235 120.349 45.3348C120.255 46.1316 120.476 46.9283 120.308 47.72C120.064 48.891 119.982 50.0823 119.901 51.2736C119.893 51.3805 119.842 51.5052 119.768 51.5867C119.035 52.4013 118.979 53.4271 118.87 54.4326C118.715 55.876 118.343 57.2327 117.48 58.4342C116.803 59.3812 116.347 60.4911 115.522 61.3209C114.957 61.8886 114.876 62.6573 114.535 63.309C114.374 63.6145 114.036 64.3323 114.718 64.7141C114.759 64.737 114.769 64.8312 114.777 64.8949C114.825 65.3378 115.113 65.6407 115.324 66.0047C115.701 66.6589 116.296 67.1273 116.632 67.7917C117.18 68.871 117.994 69.7722 118.638 70.7853C118.992 71.3402 119.616 71.6355 119.896 72.2515C120.122 72.7505 120.532 73.1526 120.728 73.6745C120.82 73.9214 121.044 74.0792 121.242 74.1887C121.54 74.3516 121.68 74.6087 121.871 74.8556C122.495 75.6626 122.953 76.579 123.612 77.3681C124.111 77.9612 124.409 78.6943 124.633 79.4453C124.679 79.598 124.633 79.738 124.623 79.8831C124.597 80.2675 124.457 80.6595 124.717 81.0235C124.763 81.0871 124.798 81.1915 124.679 81.2221C124.383 81.2933 124.429 81.5453 124.427 81.7337C124.422 82.0315 124.246 82.2428 124.032 82.309C122.976 82.6425 122.143 83.4316 121.069 83.7269C120.962 83.7549 120.812 83.8236 120.784 83.9076C120.647 84.3378 120.115 84.4269 119.944 84.3836C119.348 84.2258 118.989 84.6738 118.552 84.8266C117.195 85.3 115.889 85.9237 114.578 86.5194C113.786 86.8783 112.936 87.0768 112.17 87.5325C111.814 87.7438 111.343 87.8074 110.94 88.0492C110.721 88.1816 110.309 88.0263 110.014 88.1943C109.479 88.4947 108.876 88.482 108.298 88.5864C108.069 88.6271 107.817 88.6169 107.855 88.9707C107.865 89.0624 107.776 89.1184 107.685 89.1056C107.603 89.0955 107.598 89.0242 107.603 88.9529C107.631 88.622 107.466 88.7187 107.326 88.8409C107.008 89.1184 106.687 89.0624 106.353 88.8816C106.341 88.874 106.315 88.8562 106.313 88.8613C105.775 89.3755 105.2 88.5762 104.658 88.9122C104.63 88.9275 104.584 88.9555 104.569 88.9453C104.139 88.6653 103.729 88.6856 103.337 89.0191C103.322 89.0293 103.258 89.0165 103.248 88.9962C102.912 88.3878 102.275 88.6118 101.776 88.482C101.204 88.3343 100.794 87.9271 100.504 87.5249C100.303 87.2474 100.346 86.7179 100.18 86.3234C99.8469 85.5342 99.7425 84.6967 99.6687 83.8542C99.6534 83.7091 99.633 83.5589 99.5872 83.4189C99.4854 83.1134 99.3276 82.8232 99.4727 82.4796C99.5134 82.3854 99.5185 82.1817 99.2996 82.2352C99.1392 82.2759 99.1545 82.2326 99.2385 82.1461C99.4523 81.9297 99.4039 81.6981 99.2945 81.4613C99.0832 81.0082 99.2894 80.3922 98.7446 80.0689C98.9534 79.7507 98.4774 79.5038 98.6759 79.1118C98.7828 78.9005 98.5105 78.4754 98.3654 78.1674C98.065 77.5285 97.729 76.9073 97.421 76.271C97.3573 76.136 97.2784 76.0571 97.146 76.0164C97.0824 75.9986 97.0239 75.968 96.9628 75.9426C97.3268 75.5658 96.7184 75.5353 96.7133 75.2476C96.7057 74.8404 96.1507 74.6698 95.8198 74.9371C95.7383 75.0033 95.6594 75.0796 95.5703 74.9854C95.4762 74.8862 95.6034 74.8531 95.6518 74.7971C95.7511 74.6774 95.7358 74.5476 95.6493 74.4356C95.5398 74.288 95.4278 74.3465 95.3209 74.456C95.2929 74.484 95.214 74.5018 95.186 74.484C94.2976 73.924 93.5161 74.5603 92.7702 74.8073C91.2454 75.3087 89.769 75.9222 88.1628 76.2022C87.4271 76.3295 86.6711 76.3371 85.9481 76.5535C85.6834 76.6324 85.383 76.6019 85.2456 76.9252C85.1972 77.0423 85.019 77.0321 85.0012 76.9633C84.8841 76.4848 84.5099 76.7572 84.3495 76.8081C84.0899 76.8895 83.8124 76.9175 83.5528 77.0041C83.344 77.0753 83.0488 76.8895 82.7687 76.915C82.5269 76.9379 82.3004 76.9201 82.0509 77.0168C81.7887 77.1212 81.5214 76.8157 81.1956 76.8844C81.0403 76.9175 80.9232 76.8946 80.8698 77.0753C80.7705 77.4037 80.5083 77.3834 80.241 77.3808C80.2003 77.167 80.5516 77.0499 80.3326 76.8361C80.1392 76.6477 79.9254 76.7521 79.7268 76.8132C79.4748 76.8895 79.2304 77.0372 79.0191 76.7368C78.9682 76.663 78.8664 76.6604 78.79 76.6935C78.5075 76.8259 78.3497 76.7724 78.1587 76.4822C77.9856 76.2251 77.6496 76.3626 77.4154 76.5179C76.639 77.0321 75.939 77.643 75.4681 78.4449C75.2212 78.8623 75.1499 79.3893 75.127 79.8856C75.1015 80.466 75.2339 81.0795 75.3637 81.5988C75.519 82.2021 75.1321 83.0039 75.8626 83.4494C75.9212 83.4851 75.9747 83.5462 75.9365 83.6123C75.547 84.2564 75.9874 84.8367 76.0587 85.4451C76.1325 86.0612 76.1299 86.6874 76.1707 87.3085C76.2445 88.4362 76.0561 89.5537 75.9976 90.6763C75.9772 91.0352 76.0077 91.5723 75.3917 91.6817C75.1575 91.725 75.1652 92.1094 75.0252 92.2214C74.8953 92.3258 74.7171 91.8981 74.4575 91.9363C74.2055 91.9719 74.0069 92.1221 73.8466 92.3232C73.6047 92.6312 73.3578 92.9214 73.0142 92.4225C72.9836 92.3767 72.892 92.3309 72.8436 92.3436C72.1283 92.5116 71.3214 92.336 70.7155 92.924C70.5552 93.0793 70.3642 93.5502 70.1097 92.9393C70.0028 92.6847 69.682 92.868 69.4784 92.924C69.2315 92.9927 69.0329 93.0385 68.7453 93.0131C68.2642 92.9698 67.7016 92.8934 67.2561 93.064C66.831 93.2269 66.5179 93.0411 66.1615 93.0054C65.7441 92.9673 65.3419 92.8782 65.0211 93.2524C64.96 93.3211 64.8557 93.3669 64.7615 93.2651C64.2371 92.6872 64.204 92.6821 63.5269 93.0767C63.5142 93.0818 63.4938 93.0818 63.4251 93.092C63.5803 92.812 63.4531 92.7509 63.2011 92.7382C62.6181 92.7025 62.0454 92.5549 61.4497 92.728C61.297 92.7738 61.0552 92.4938 60.8108 92.5752C60.4366 92.6974 60.0929 92.7662 59.7926 92.4021C59.7289 92.3232 59.5329 92.2952 59.4184 92.3232C58.7667 92.4734 58.1379 92.2316 57.6288 91.9694C57.2165 91.753 56.6946 91.7938 56.3611 91.4068C56.2517 91.2795 56.0506 91.2108 55.8775 91.1701C54.8618 90.941 54.7982 90.3097 54.8822 89.5868C55.0324 88.3063 55.1673 87.0183 55.2716 85.7353C55.3658 84.5822 55.5389 83.4367 55.5797 82.2759C55.6128 81.3824 55.6637 80.4915 55.6509 79.598C55.6458 79.3485 55.6484 79.0863 55.4753 78.8954C55.1113 78.4958 55.1316 77.8874 54.6785 77.531C54.5207 77.4088 54.3934 77.3223 54.2025 77.3452C53.9225 77.3783 53.7087 77.2688 53.5992 77.0143C53.4821 76.7393 53.3243 76.6579 53.0621 76.8182C52.9832 76.8666 52.9374 76.9226 52.8177 76.8259C52.4003 76.4899 51.8631 76.7801 51.4024 76.6019C51.326 76.5739 51.2115 76.663 51.1249 76.579C50.7406 76.2175 50.3969 76.383 50.0176 76.7266C50.0049 76.5102 50.1144 76.3371 49.9158 76.2608C49.7045 76.1793 49.5976 76.3855 49.3609 76.5102C49.5798 76.1742 49.3609 76.1793 49.1878 76.1411C49.0478 76.1131 48.9027 76.0164 48.7728 76.1589C48.7219 76.215 48.7245 76.271 48.783 76.3295C48.8365 76.3804 49.035 76.36 48.9052 76.5102C48.7881 76.6477 48.6557 76.5179 48.6277 76.4364C48.3503 75.6269 47.6579 75.7618 47.0699 75.8C46.7415 75.8204 46.6804 75.5378 46.4462 75.4793C45.8251 75.324 45.2218 75.1025 44.5956 74.9676C44.1858 74.8785 43.8166 74.7487 43.4959 74.4763C43.305 74.3109 43.1243 74.3287 42.9588 74.6622C42.9766 73.8552 42.2919 73.9214 41.8922 73.6643C40.7925 72.9566 39.6063 72.3992 38.5219 71.6533C37.7099 71.0907 36.8673 70.5613 36.1265 69.9198C35.3705 69.263 34.4566 68.8074 33.8152 67.9928C33.4741 67.5601 32.9522 67.2597 32.5602 66.8448C32.3947 66.6691 32.2318 66.7709 32.0638 66.8346C31.8118 66.9262 31.8016 67.0993 31.9518 67.3539C31.4987 67.1222 31.7049 66.832 31.8169 66.6182C31.9976 66.2669 31.9518 66.0938 31.5674 65.9487C31.015 65.74 30.6256 65.3429 30.511 64.7447C30.4754 64.5538 30.3914 64.4494 30.2208 64.3908C30.1572 64.3705 30.063 64.3501 30.0452 64.3068C29.8135 63.6781 29.4292 64.0396 29.0982 64.2177C29.0753 64.1236 29.0524 64.0752 29.0626 64.0676C29.4521 63.7646 29.419 63.7799 29.2433 63.3726C29.0346 62.8839 28.5586 62.5784 28.4186 62.0438C28.3295 61.7053 28.0164 61.9751 27.7924 61.8809C28.2633 61.326 27.6855 61.1529 27.3978 60.9493C27.2324 60.8296 27.1789 60.7583 27.1814 60.5827C27.1891 60.262 27.1 60.0456 26.7131 60.206C26.6138 60.2467 26.4789 60.2467 26.4967 60.1067C26.5654 59.4957 26.1225 59.1063 25.8679 58.6404C25.7177 58.3655 25.4657 58.1491 25.1017 58.1873C24.9694 58.2001 24.8446 58.1593 24.8421 58.027C24.8319 57.7164 24.5901 57.528 24.3915 57.5C23.9613 57.4389 23.8748 56.968 23.5031 56.8713C23.4598 56.8611 23.3962 56.8127 23.3962 56.7822C23.3937 56.0363 22.6962 56.0669 22.2787 55.7971C22.0878 55.6723 21.8714 55.596 21.706 55.4229C21.3292 55.0283 21.2248 55.0639 21.0925 55.5323C20.3924 55.4559 19.7077 55.349 19.0051 55.4203C19.9266 54.0788 20.5299 52.5566 21.1968 51.0598C21.6958 49.9448 22.294 48.8655 22.462 47.6513C22.6096 46.5643 22.8107 45.4723 22.742 44.3624C22.7318 44.202 22.7725 44.0366 22.8005 43.8762C22.854 43.5733 22.8515 43.2576 22.6656 43.0209C22.4518 42.7511 22.4034 42.55 22.6733 42.3031C22.7725 42.2114 22.7954 42.0409 22.7267 41.9314C22.5027 41.5801 22.7242 41.0379 22.1718 40.7885C22.0343 40.7248 22.1183 40.1852 22.0878 39.867C22.0751 39.7321 22.4085 39.3706 21.8816 39.5233C21.795 39.5488 21.818 39.4419 21.8205 39.3808C21.8536 38.8207 21.7441 38.3269 21.1867 38.0418C21.0772 37.9858 21.1536 37.8967 21.1816 37.8305C21.2274 37.7262 21.1994 37.5658 21.1561 37.5531C20.6623 37.4258 20.9016 36.5807 20.2397 36.6188C20.2168 36.6214 20.1735 36.4839 20.1583 36.4076C20.143 36.3286 20.1837 36.2065 20.1404 36.1657C19.5931 35.6617 19.9292 35.2773 20.255 34.8293C20.6928 34.2337 20.8965 33.5158 21.1485 32.8234C21.2808 32.467 21.5379 32.1768 21.6907 31.8077C22.0649 30.8964 22.1718 29.9546 22.3296 29C22.6122 27.2843 23.0729 25.622 23.997 24.0922C24.6817 22.9543 25.4276 21.8521 26.2065 20.788C26.7792 20.004 27.38 19.2022 28.1488 18.5505C28.8488 17.9574 29.4699 17.2624 30.0834 16.5777C30.5645 16.038 31.2136 15.7504 31.7736 15.3329C31.9213 15.226 32.0867 15.1598 32.1325 14.9613C32.1555 14.8645 32.2013 14.7856 32.3056 14.7398C33.2271 14.3274 33.9832 13.6299 34.8767 13.2023C35.48 12.9095 35.9738 12.4284 36.6204 12.2528C36.9436 12.1637 37.132 11.904 37.4197 11.7869C38.303 11.428 39.2117 11.12 40.0518 10.6796C40.7874 10.2927 41.5867 10.0636 42.2995 9.61813C42.7399 9.34576 43.333 9.33049 43.8243 9.1243C44.2316 8.95374 44.6007 8.77046 45.0665 8.71701C45.3771 8.67882 45.7284 8.48791 46.072 8.39372C46.1917 8.36063 46.2807 8.29699 46.3164 8.17226C46.4971 7.52314 47.075 7.21767 47.4975 6.76711C48.0346 6.19945 48.6812 5.73871 49.1521 5.12014C49.6791 4.43029 50.3715 3.94918 51.0053 3.38661C51.6035 2.85459 52.2017 2.32512 52.8356 1.83637C53.1614 1.58691 53.4923 1.34253 53.7418 1.01416C53.9429 0.746874 54.2891 0.802876 54.5538 0.61196C54.9484 0.321767 55.3251 -0.0447939 55.8291 -0.179708C55.8749 -0.192436 55.9182 -0.222983 55.9564 -0.248438C57.5474 -1.29975 59.3471 -1.84196 61.1875 -2.13979C61.8595 -2.24924 62.6359 -2.4478 63.3665 -2.11433C63.7433 -1.94123 64.176 -2.11942 64.5884 -2.06851C64.9855 -2.0176 65.2375 -1.90814 65.2884 -1.47794C65.3062 -1.34048 65.3851 -1.18775 65.4819 -1.08593C66.0495 -0.485175 66.1539 0.288674 66.3601 1.04216C66.579 1.84146 66.7088 2.65859 66.8132 3.46553C66.8768 3.97718 66.8285 4.53721 66.831 5.07177C66.8387 6.01617 66.803 6.97076 66.7012 7.89225C66.6197 8.61518 66.7394 9.35085 66.4925 10.0967C66.2914 10.7 66.2659 11.4535 66.4085 12.1357C66.4568 12.3572 66.4212 12.5353 66.3805 12.7441C66.0368 14.5489 65.459 16.3028 65.1484 18.1152C65.0084 18.9298 65.3113 19.7291 66.0444 20.1007C66.3652 20.2636 66.7597 20.4317 67.1747 20.368C67.615 20.3018 67.7729 19.9455 67.9612 19.6222C68.9209 17.9828 69.514 16.2137 69.8297 14.3401C70.1377 12.4997 70.3464 10.6542 70.4712 8.78828C70.5653 7.42387 70.713 6.04672 70.8632 4.67976C70.9548 3.85245 70.7512 3.01751 70.9166 2.18766C70.9548 1.99929 70.9803 1.81855 71.161 1.73455C71.3697 1.63782 71.385 1.87201 71.4817 1.96365C71.6778 2.14947 71.8992 2.13166 72.1283 2.06802C72.4949 1.96365 72.8513 1.86437 73.2407 1.9891C73.5386 2.08584 73.8618 1.92037 74.0706 1.7931C74.4168 1.57927 74.6993 1.80328 74.9717 1.75746C75.5648 1.65818 76.1936 1.99674 76.751 1.59963C76.7765 1.58182 76.7765 1.48254 76.835 1.55891C77.2347 2.07311 77.81 1.8211 78.2758 1.81855C80.3352 1.81092 82.3818 2.00438 84.431 2.14947C85.1361 2.19784 85.8514 2.27166 86.5591 2.29712C87.2031 2.32257 87.8929 2.17238 88.5039 2.37857C90.0261 2.88769 91.6833 2.75786 93.1622 3.37134C94.1499 3.77863 95.2063 4.03828 96.1024 4.65939C96.5886 4.99541 97.1969 4.97759 97.7264 5.21941C98.6072 5.62161 99.325 6.27327 100.191 6.69329C101.135 7.14894 101.947 7.82097 102.848 8.35045C103.296 8.61519 103.632 9.08611 104.057 9.42467C105.333 10.4505 106.506 11.5884 107.652 12.7568C108.766 13.8972 109.747 15.1471 110.742 16.3919C111.424 17.2472 112.02 18.1636 112.717 19.0087C113.109 19.4822 113.346 20.1644 113.738 20.6938C114.237 21.3684 114.479 22.1779 114.95 22.855C115.66 23.8783 116.004 25.0977 116.737 26.1057C116.663 26.8923 117.353 27.3632 117.544 28.076C117.796 29.0178 118.144 29.952 118.468 30.8837ZM131.575 29.9877C131.572 30.1939 131.544 30.4255 131.3 30.5273C131.038 30.6342 130.875 30.4815 130.696 30.3186C130.012 29.6924 129.803 28.804 129.431 28.0098C129.136 27.3785 128.909 26.709 128.701 26.0421C128.581 25.6551 128.563 25.2377 128.5 24.8355C128.372 24.0438 128.176 23.2623 128.136 22.4579C128.131 22.3459 128.092 22.2059 128.227 22.1499C128.365 22.0939 128.441 22.2237 128.5 22.3103C129.536 23.9038 130.791 25.3751 131.361 27.2359C131.463 27.5745 131.641 27.9003 131.623 28.3662C131.501 28.8422 131.577 29.4149 131.575 29.9877ZM101.96 14.0194C101.629 14.0499 101.479 14.0958 101.713 13.7165C101.759 13.6427 101.657 13.5663 101.583 13.5307C100.926 13.2252 100.415 12.6677 99.7832 12.3673C99.045 12.0135 98.3883 11.5528 97.6908 11.1531C97.0417 10.7815 96.3696 10.448 95.6874 10.1502C94.7659 9.74541 93.8826 9.22103 92.9051 9.00211C92.4699 8.90538 92.1873 8.57191 91.7622 8.51845C91.1869 8.44718 90.6778 8.1468 90.1254 8.01443C89.2421 7.80061 88.3817 7.30677 87.422 7.68606C87.338 7.71915 87.2769 7.64787 87.2158 7.58678C86.9485 7.30931 86.19 7.12094 85.8845 7.28641C85.6274 7.42387 85.3958 7.71406 85.2405 7.18713C85.215 7.09549 85.0419 7.10313 84.9223 7.10567C84.2986 7.1184 83.6571 7.03694 83.0538 7.15658C82.3716 7.2915 81.5749 7.00385 81.0047 7.63769C80.9359 7.71406 80.8443 7.60969 80.7578 7.55369C80.3708 7.29913 79.7217 7.53332 79.6657 7.98134C79.3602 7.5766 79.0319 7.56642 78.818 7.92279C78.7595 8.02207 78.678 8.12644 78.6118 8.04244C78.3395 7.68606 78.2809 8.02971 78.1384 8.15953C77.838 8.43445 77.5223 8.69155 77.4154 9.11666C77.3849 9.2363 77.2652 9.27194 77.1532 9.31776C76.6772 9.51122 76.2394 9.87523 76.1019 10.3029C75.9645 10.7229 75.5877 11.1378 75.7939 11.6622C75.8677 11.8429 75.8321 12.0644 75.6463 12.1993C75.4452 12.347 75.3943 12.5557 75.4197 12.7695C75.5165 13.6274 74.9182 14.4547 75.323 15.3253C75.3561 15.394 75.2899 15.5111 75.2644 15.6053C75.071 16.2875 75.407 16.9392 76.0943 17.0842C76.3285 17.1326 76.4354 17.237 76.5347 17.405C76.7027 17.6901 76.9114 17.8097 77.2271 17.6188C77.4918 17.4584 77.9042 17.7257 78.09 17.3261C78.23 17.7054 78.5457 17.5272 78.7671 17.4966C79.5002 17.3974 80.1723 17.6977 80.8061 17.9141C82.4989 18.4945 84.1943 19.0596 85.8998 19.5942C86.6329 19.8233 87.4042 20.0091 88.0966 20.2815C88.8093 20.5615 89.5628 20.7498 90.2501 21.0884C90.6498 21.2844 91.0902 21.3455 91.4822 21.511C92.2331 21.8266 92.9408 22.211 93.7426 22.4223C94.3357 22.5801 94.9085 22.9187 95.4354 23.1987C96.0184 23.5067 96.6777 23.6238 97.2351 24.0031C97.5584 24.222 98.0319 24.2424 98.3221 24.5885C98.3577 24.6293 98.4315 24.6395 98.4875 24.6649C98.6301 24.3314 99.1061 24.3162 99.2105 23.998C99.5287 23.0179 99.936 22.0888 100.458 21.1953C100.628 20.9026 100.791 20.5768 100.865 20.1898C100.939 19.808 100.901 19.3905 101.069 18.9985C101.4 18.2247 101.341 17.3286 101.759 16.57C101.766 16.5573 101.761 16.537 101.761 16.5217C101.779 16.1169 102.097 15.7758 102 15.338C101.967 15.1853 102.161 15.1649 102.278 15.114C102.459 15.0376 102.713 14.9434 102.558 14.7016C102.395 14.4471 102.385 13.9812 101.96 14.0194ZM98.4035 19.0214C98.1388 19.1971 97.925 18.9883 97.6882 18.917C97.2886 18.8 96.9526 18.5403 96.5682 18.413C96.2958 18.3239 96.082 18.6192 95.7943 18.7694C96.0438 18.4487 95.8707 18.3188 95.6365 18.1407C95.2649 17.8606 94.8016 17.7232 94.4477 17.4864C93.9946 17.181 93.4855 17.0944 93.0426 16.8373C92.7982 16.6973 92.5666 16.6566 92.2942 16.6617C91.9506 16.6693 91.8182 16.2773 91.4745 16.2009C91.1691 16.1322 90.9094 15.8573 90.553 16.0558C90.4792 16.0991 90.3978 16.0609 90.3316 15.9973C89.8785 15.5518 89.2955 15.4373 88.7126 15.2489C88.3181 15.1216 87.9769 15.1165 87.6028 15.0707C87.3406 15.0402 86.9333 14.9282 86.6482 14.6456C86.4292 14.4267 86.0169 14.4292 85.6758 14.3681C85.3601 14.3147 85.0623 14.4598 84.739 14.3605C84.5379 14.2969 84.3495 14.3223 84.3801 14.0321C84.3903 13.9354 84.2935 13.9125 84.207 13.8947C83.4815 13.7292 82.756 13.5637 82.0305 13.3906C81.8931 13.3576 81.7887 13.3652 81.6691 13.4594C81.3509 13.7012 80.9665 13.6401 80.7399 13.3372C80.5185 13.0419 80.3046 13.2659 80.1748 13.4034C79.8744 13.7165 79.6199 13.7979 79.3271 13.4161C79.289 13.3703 79.2177 13.3066 79.1719 13.3117C78.5711 13.3906 78.7824 12.9885 78.8002 12.7008C78.8104 12.5532 78.8333 12.403 78.8206 12.2579C78.8028 12.0899 78.5533 11.9117 78.8588 11.7615C79.0853 11.6495 79.2431 11.3593 79.5766 11.6826C79.8872 11.983 80.3276 11.7259 80.7094 11.7335C81.916 11.7564 83.0971 11.9066 84.2884 12.1306C85.2761 12.3139 86.2154 12.767 87.2642 12.6855C87.5315 12.6652 87.8166 12.9477 88.1017 13.0623C88.9188 13.3932 89.7461 13.6859 90.604 13.915C90.9807 14.0169 91.3549 14.3758 91.7826 14.4496C92.6124 14.5972 93.2335 15.1649 93.9895 15.4475C95.135 15.8726 96.1609 16.5319 97.2606 17.041C97.7213 17.2548 98.1286 17.5806 98.6326 17.713C98.7039 17.7308 98.7726 17.797 98.821 17.8581C98.8796 17.9319 98.5232 18.9425 98.4035 19.0214ZM42.5591 26.3119C42.5871 27.689 42.2333 28.8243 41.6529 29.8986C41.4391 30.2957 40.4896 30.6317 40.095 30.4204C39.4256 30.064 38.7077 29.6949 38.4353 28.9465C38.1324 28.1141 37.6997 27.2716 38.0306 26.3272C38.0611 26.2432 38.051 26.1286 38.0204 26.0421C37.6844 25.0875 38.2266 23.8122 39.1456 23.2776C39.5503 23.0434 39.9907 22.9339 40.4132 22.771C40.8816 22.5903 41.686 23.0154 41.91 23.5678C42.2893 24.4893 42.6024 25.4337 42.5591 26.3119ZM33.9144 26.9559C33.889 28.053 33.4181 29.0076 32.8784 29.9138C32.4457 30.6393 31.654 30.7641 30.8649 30.3262C30.1139 29.9113 29.7575 29.3029 29.6252 28.4069C29.4317 27.0756 29.7448 25.8562 30.1139 24.6293C30.3456 23.8554 31.402 23.1249 32.1936 23.1019C32.802 23.0867 33.5046 23.438 33.497 23.9827C33.4868 24.6165 33.9603 25.1257 33.7795 25.8155C33.7108 26.0802 33.9221 26.5588 33.9144 26.9559ZM14.1966 46.6331C14.334 47.776 14.0082 48.7764 13.4558 49.7361C13.2369 50.1205 12.8856 50.2172 12.4656 50.039C11.2946 49.5452 10.8186 48.5728 10.671 47.3942C10.5666 46.5567 10.4571 45.7141 10.4419 44.8741C10.4241 43.9169 10.5819 42.9853 11.3405 42.2776C11.4703 42.1529 11.595 42.0205 11.7146 41.883C12.2034 41.3205 12.6921 41.3663 13.2165 41.9136C13.6518 42.3692 13.6747 42.9242 13.7816 43.4664C13.9242 44.5253 14.0718 45.5766 14.1966 46.6331ZM9.17164 45.1999C9.22764 45.8694 9.37783 46.5465 9.29637 47.2389C9.22255 47.8676 8.92217 48.3971 8.65743 48.9342C8.49706 49.2601 7.7614 49.1939 7.53484 48.8528C7.35666 48.588 7.1301 48.3869 6.901 48.1706C6.31552 47.6156 6.33589 46.8062 6.07115 46.1392C6.27479 45.4901 5.97951 44.9148 5.94387 44.3166C5.89805 43.5377 6.05842 42.8453 6.65408 42.3158C6.985 42.0205 7.16829 41.5292 7.72576 41.519C8.1636 41.5089 8.61161 41.822 8.72616 42.2496C8.98581 43.2169 9.08763 44.2148 9.17164 45.1999Z" fill="#39BB9C"/>
</g>
</svg>
