<svg width="76" height="66" viewBox="0 0 76 66" fill="none" xmlns="http://www.w3.org/2000/svg">
<mask id="mask0_344_1092" style="mask-type:luminance" maskUnits="userSpaceOnUse" x="0" y="0" width="76" height="66">
<path d="M0.521484 0.500732H76V65.7696H0.521484V0.500732Z" fill="white"/>
</mask>
<g mask="url(#mask0_344_1092)">
<path d="M56.5985 22.9652C56.0115 22.9637 55.437 23.0537 54.878 23.2338C54.3174 23.414 53.7988 23.6748 53.3205 24.018L46.7942 28.667V27.1779C46.7942 26.9481 46.7833 26.7199 46.76 26.49C46.7383 26.2618 46.7041 26.0335 46.6591 25.8084C46.6156 25.5832 46.5597 25.3596 46.4929 25.1407C46.4262 24.9202 46.3485 24.7043 46.2616 24.4916C46.173 24.2789 46.0752 24.0708 45.9665 23.8689C45.8594 23.6655 45.7414 23.4683 45.614 23.2773C45.4867 23.0863 45.3501 22.9015 45.2041 22.7245C45.0597 22.546 44.9044 22.3767 44.7429 22.2137C44.5814 22.0506 44.4106 21.8969 44.2336 21.7509C44.0566 21.605 43.8718 21.4683 43.6824 21.3394C43.4914 21.2121 43.2942 21.0941 43.0923 20.9854C42.8904 20.8767 42.6824 20.7789 42.4712 20.6919C42.2585 20.6034 42.0426 20.5258 41.8237 20.459C41.6047 20.3922 41.3827 20.3363 41.1575 20.2913C40.9324 20.2463 40.7057 20.2137 40.4774 20.1904C40.2492 20.1686 40.0209 20.1562 39.7911 20.1562H39.4681C39.7523 19.9078 40.024 19.6453 40.2802 19.3674C40.538 19.091 40.7802 18.8022 41.0085 18.5009C41.2367 18.1997 41.4495 17.8876 41.6467 17.5646C41.8439 17.2432 42.024 16.9109 42.187 16.5693C42.3501 16.2292 42.496 15.8798 42.6249 15.5242C42.7538 15.1686 42.8625 14.8068 42.9557 14.4404C43.0473 14.0739 43.1203 13.7028 43.1746 13.3286C43.229 12.9544 43.2647 12.5786 43.2818 12.1997C43.2988 11.8224 43.2957 11.4435 43.274 11.0662C43.2538 10.6888 43.2134 10.3131 43.1529 9.93885C43.0939 9.56618 43.0162 9.19662 42.92 8.83016C42.8237 8.46525 42.7088 8.105 42.5752 7.75097C42.4432 7.39693 42.2926 7.05066 42.1249 6.7106C41.9572 6.37209 41.774 6.0429 41.5721 5.72302C41.3718 5.4016 41.1544 5.09259 40.9231 4.79446C40.6901 4.49632 40.4448 4.21061 40.1839 3.93732C39.9231 3.66403 39.6482 3.40471 39.3625 3.15782C39.0752 2.91248 38.7756 2.68266 38.4666 2.46682C38.156 2.25099 37.8361 2.05223 37.5054 1.869C37.1746 1.68732 36.8361 1.52118 36.4898 1.37211C36.142 1.22304 35.7895 1.09261 35.4293 0.980804C35.069 0.867451 34.7041 0.772731 34.3346 0.696644C33.965 0.620557 33.5923 0.564657 33.2166 0.525837C32.8408 0.48857 32.465 0.468384 32.0877 0.468384C31.7104 0.468384 31.333 0.48857 30.9588 0.525837C30.583 0.564657 30.2104 0.620557 29.8408 0.696644C29.4712 0.772731 29.1063 0.867451 28.7461 0.980804C28.3858 1.09261 28.0318 1.22304 27.6855 1.37211C27.3377 1.52118 26.9992 1.68732 26.67 1.869C26.3393 2.05223 26.0194 2.25099 25.7088 2.46682C25.3983 2.68266 25.1001 2.91248 24.8129 3.15782C24.5256 3.40471 24.2523 3.66403 23.9914 3.93732C23.7306 4.21061 23.4837 4.49632 23.2523 4.79446C23.0194 5.09259 22.8036 5.4016 22.6017 5.72302C22.4014 6.0429 22.2166 6.37209 22.0489 6.7106C21.8812 7.05066 21.7321 7.39693 21.5986 7.75097C21.4666 8.105 21.3517 8.46525 21.2554 8.83016C21.1576 9.19662 21.08 9.56618 21.021 9.93885C20.962 10.3131 20.9216 10.6888 20.8998 11.0662C20.8781 11.4435 20.8765 11.8224 20.8936 12.1997C20.9092 12.5786 20.9449 12.9544 20.9992 13.3286C21.0551 13.7028 21.1281 14.0739 21.2197 14.4404C21.3113 14.8068 21.4216 15.1686 21.5505 15.5242C21.6778 15.8798 21.8237 16.2292 21.9868 16.5693C22.1514 16.9109 22.3315 17.2432 22.5272 17.5646C22.7244 17.8876 22.9371 18.1997 23.1654 18.5009C23.3936 18.8022 23.6359 19.091 23.8936 19.3674C24.1514 19.6453 24.4216 19.9078 24.7057 20.1562H18.0241C18.2057 19.9543 18.3766 19.7432 18.538 19.5242C18.6995 19.3053 18.8502 19.0786 18.9884 18.8441C19.1281 18.6112 19.2554 18.3705 19.3719 18.1252C19.4868 17.8783 19.5908 17.6283 19.6825 17.3721C19.7741 17.1143 19.8533 16.855 19.92 16.591C19.9868 16.327 20.0396 16.0599 20.08 15.7913C20.1219 15.5227 20.1498 15.2525 20.1638 14.9808C20.1778 14.7075 20.1793 14.4357 20.1685 14.164C20.1561 13.8923 20.1312 13.6221 20.0939 13.3519C20.0567 13.0817 20.0054 12.8146 19.9418 12.5506C19.8781 12.2867 19.802 12.0258 19.7135 11.768C19.6234 11.5103 19.5225 11.2587 19.4092 11.0103C19.2958 10.7634 19.1716 10.5227 19.0349 10.2867C18.8983 10.0522 18.7508 9.82394 18.5924 9.60345C18.4325 9.3814 18.2648 9.16867 18.0846 8.96525C17.9061 8.76028 17.7166 8.56463 17.5194 8.3783C17.3207 8.19196 17.1141 8.0165 16.8999 7.85035C16.684 7.6842 16.462 7.52892 16.2322 7.38451C16.0008 7.2401 15.7648 7.10656 15.5225 6.98544C15.2787 6.86433 15.0303 6.75408 14.7772 6.6578C14.5241 6.55998 14.2663 6.47458 14.0039 6.40315C13.743 6.33017 13.4775 6.27116 13.2104 6.22458C12.9433 6.17799 12.6732 6.14538 12.403 6.12364C12.1328 6.10346 11.861 6.09725 11.5893 6.10191C11.3176 6.10812 11.0474 6.12675 10.7788 6.15936C10.5086 6.19197 10.2415 6.237 9.97596 6.29445C9.71043 6.35346 9.44801 6.42489 9.19025 6.50718C8.93249 6.59103 8.67783 6.68731 8.42938 6.796C8.17938 6.9047 7.93715 7.02426 7.69957 7.15625C7.46199 7.28824 7.23063 7.43109 7.00703 7.58482C6.78343 7.7401 6.56759 7.9047 6.36107 8.08016C6.15299 8.25563 5.95424 8.44041 5.7648 8.63451C5.5738 8.8286 5.39368 9.03202 5.22442 9.24475C5.05362 9.45749 4.89368 9.67643 4.74616 9.90469C4.5971 10.1314 4.4589 10.3659 4.33312 10.6065C4.20579 10.8488 4.09244 11.0941 3.98996 11.3472C3.88747 11.5988 3.79741 11.855 3.71977 12.1159C3.64213 12.3767 3.57691 12.6407 3.52412 12.9078C3.47288 13.1749 3.4325 13.445 3.40766 13.7152C3.38126 13.987 3.36729 14.2572 3.36884 14.5304C3.36884 14.8022 3.38126 15.0739 3.40766 15.3441C3.43406 15.6158 3.47288 15.8845 3.52567 16.1516C3.57847 16.4186 3.64368 16.6826 3.72132 16.9435C3.79896 17.2044 3.88902 17.4606 3.99151 17.7137C4.09399 17.9652 4.2089 18.2121 4.33623 18.4528C4.462 18.6935 4.6002 18.9279 4.74927 19.1547C4.89834 19.3829 5.05828 19.6019 5.22908 19.8146C5.39834 20.0258 5.57846 20.2292 5.76945 20.4233C5.39989 20.5227 5.04119 20.65 4.69337 20.8084C4.34555 20.9652 4.01325 21.15 3.69493 21.3627C3.3766 21.5755 3.07847 21.8115 2.79897 22.0723C2.51946 22.3332 2.26325 22.6158 2.03034 22.9186C1.79742 23.223 1.58934 23.5428 1.40922 23.8798C1.22754 24.2168 1.07537 24.5661 0.951146 24.9279C0.828476 25.2913 0.733756 25.6608 0.670091 26.0382C0.606427 26.4155 0.573818 26.7959 0.572266 27.1779V46.8393C0.572266 47.0692 0.583135 47.299 0.606427 47.5288C0.628166 47.757 0.662328 47.9838 0.707358 48.2105C0.752389 48.4356 0.808289 48.6577 0.873507 48.8782C0.940277 49.0987 1.01792 49.3145 1.10487 49.5272C1.19338 49.74 1.29121 49.9465 1.3999 50.1499C1.50705 50.3533 1.62506 50.5505 1.75239 50.7415C1.87971 50.9325 2.01636 51.1173 2.16232 51.2943C2.30828 51.4729 2.46201 51.6421 2.6235 51.8052C2.78654 51.9682 2.9558 52.1219 3.13282 52.2679C3.30983 52.4139 3.49462 52.5505 3.68561 52.6778C3.87505 52.8067 4.07225 52.9247 4.27412 53.0319C4.47753 53.1406 4.68405 53.2399 4.89523 53.3269C5.10796 53.4154 5.3238 53.4931 5.54275 53.5598C5.76169 53.6266 5.98529 53.6825 6.20889 53.7275C6.43405 53.771 6.66075 53.8052 6.88902 53.8285C7.11728 53.8502 7.34709 53.8611 7.57535 53.8611H39.7911C40.0209 53.8611 40.2492 53.8502 40.4774 53.8285C40.7057 53.8052 40.9324 53.771 41.1575 53.7275C41.3827 53.6825 41.6047 53.6266 41.8237 53.5598C42.0426 53.4931 42.2585 53.4154 42.4712 53.3269C42.6824 53.2399 42.8904 53.1406 43.0923 53.0319C43.2942 52.9247 43.4914 52.8067 43.6824 52.6778C43.8718 52.5505 44.0566 52.4139 44.2336 52.2679C44.4106 52.1219 44.5814 51.9682 44.7429 51.8052C44.9044 51.6421 45.0597 51.4729 45.2041 51.2943C45.3501 51.1173 45.4867 50.9325 45.614 50.7415C45.7414 50.5505 45.8594 50.3533 45.9665 50.1499C46.0752 49.9465 46.173 49.74 46.2616 49.5272C46.3485 49.3145 46.4262 49.0987 46.4929 48.8782C46.5597 48.6577 46.6156 48.4356 46.6591 48.2105C46.7041 47.9838 46.7383 47.757 46.76 47.5288C46.7833 47.299 46.7942 47.0692 46.7942 46.8393V45.3518L53.2786 49.9993C53.6979 50.3083 54.1513 50.5536 54.6373 50.7369C55.1233 50.9185 55.6264 51.0319 56.1451 51.0738C56.6621 51.1157 57.1761 51.0862 57.6854 50.9853C58.1963 50.8844 58.6823 50.7151 59.1451 50.4791C59.6078 50.2415 60.0301 49.9465 60.4106 49.5909C60.791 49.2369 61.1171 48.8362 61.3873 48.3921C61.6575 47.9465 61.8609 47.4729 61.9991 46.9698C62.1373 46.4682 62.2056 45.9558 62.2009 45.4356V28.5832C62.2009 28.2136 62.1652 27.8487 62.0938 27.4869C62.0224 27.1251 61.9152 26.7742 61.7755 26.4326C61.6342 26.0925 61.4618 25.768 61.2568 25.4621C61.0534 25.1546 60.8205 24.872 60.5596 24.6112C60.3003 24.3503 60.0177 24.1174 59.7118 23.9124C59.4059 23.7074 59.0829 23.5335 58.7429 23.3938C58.4028 23.2525 58.0519 23.1453 57.6916 23.0739C57.3314 23.0009 56.9665 22.9652 56.5985 22.9652ZM23.684 11.7308C23.684 11.4544 23.6964 11.1795 23.7244 10.9047C23.7508 10.6298 23.7911 10.3566 23.8455 10.0864C23.8983 9.81618 23.965 9.5491 24.0458 9.28512C24.125 9.02115 24.2182 8.76028 24.3237 8.50562C24.4278 8.25097 24.5458 8.00252 24.6762 7.75873C24.8051 7.51494 24.9464 7.27892 25.1001 7.04911C25.2523 6.81929 25.4169 6.5988 25.5908 6.38451C25.7663 6.17178 25.9495 5.96681 26.1452 5.77271C26.3393 5.57706 26.5427 5.39228 26.7554 5.21682C26.9681 5.04135 27.1902 4.87831 27.4185 4.72458C27.6467 4.57085 27.8827 4.42955 28.125 4.29912C28.3688 4.16868 28.6172 4.05067 28.8719 3.94508C29.125 3.83949 29.3843 3.74788 29.6483 3.66713C29.9107 3.58639 30.1778 3.51962 30.4479 3.46682C30.7181 3.41247 30.9899 3.3721 31.2632 3.34415C31.538 3.31775 31.8113 3.30378 32.0877 3.30378C32.3625 3.30378 32.6374 3.31775 32.9107 3.34415C33.1855 3.3721 33.4573 3.41247 33.7274 3.46682C33.9961 3.51962 34.2631 3.58639 34.5271 3.66713C34.7895 3.74788 35.0489 3.83949 35.3035 3.94508C35.5582 4.05067 35.8066 4.16868 36.0489 4.29912C36.2911 4.42955 36.5271 4.57085 36.7569 4.72458C36.9852 4.87831 37.2057 5.04135 37.4184 5.21682C37.6311 5.39228 37.8346 5.57706 38.0302 5.77271C38.2243 5.96681 38.4091 6.17178 38.583 6.38451C38.7585 6.5988 38.9215 6.81929 39.0752 7.04911C39.2274 7.27892 39.3687 7.51494 39.4992 7.75873C39.628 8.00252 39.7461 8.25097 39.8516 8.50562C39.9572 8.76028 40.0488 9.02115 40.1296 9.28512C40.2088 9.5491 40.2756 9.81618 40.3299 10.0864C40.3827 10.3566 40.4231 10.6298 40.451 10.9047C40.4774 11.1795 40.4914 11.4544 40.4914 11.7308C40.4914 12.0072 40.4774 12.282 40.451 12.5569C40.4231 12.8317 40.3827 13.1034 40.3299 13.3736C40.2756 13.6454 40.2088 13.9124 40.1296 14.1764C40.0488 14.4404 39.9572 14.6997 39.8516 14.9544C39.7461 15.2106 39.628 15.459 39.4992 15.7028C39.3687 15.9466 39.2274 16.1826 39.0752 16.4124C38.9215 16.6407 38.7585 16.8627 38.583 17.0755C38.4091 17.2898 38.2243 17.4932 38.0302 17.6888C37.8346 17.8845 37.6311 18.0693 37.4184 18.2447C37.2057 18.4186 36.9852 18.5832 36.7569 18.737C36.5271 18.8907 36.2911 19.032 36.0489 19.1624C35.8066 19.2913 35.5582 19.4093 35.3035 19.5149C35.0489 19.6205 34.7895 19.7137 34.5271 19.7944C34.2631 19.8736 33.9961 19.9404 33.7274 19.9947C33.4573 20.0491 33.1855 20.0894 32.9107 20.1158C32.6374 20.1438 32.3625 20.1562 32.0877 20.1562C31.8113 20.1562 31.538 20.1438 31.2632 20.1158C30.9899 20.0894 30.7181 20.0491 30.4479 19.9947C30.1778 19.9404 29.9107 19.8736 29.6483 19.7944C29.3843 19.7137 29.125 19.6205 28.8719 19.5149C28.6172 19.4093 28.3688 19.2913 28.125 19.1624C27.8827 19.032 27.6467 18.8907 27.4185 18.737C27.1902 18.5832 26.9681 18.4186 26.7554 18.2447C26.5427 18.0693 26.3393 17.8845 26.1452 17.6888C25.9495 17.4932 25.7663 17.2898 25.5908 17.0755C25.4169 16.8627 25.2523 16.6407 25.1001 16.4124C24.9464 16.1826 24.8051 15.9466 24.6762 15.7028C24.5458 15.459 24.4278 15.2106 24.3237 14.9544C24.2182 14.6997 24.125 14.4404 24.0458 14.1764C23.965 13.9124 23.8983 13.6454 23.8455 13.3736C23.7911 13.1034 23.7508 12.8317 23.7244 12.5569C23.6964 12.282 23.684 12.0072 23.684 11.7308ZM11.7772 8.92177C12.1452 8.92177 12.5101 8.95749 12.8704 9.02891C13.2322 9.1019 13.5815 9.20749 13.9216 9.34879C14.2617 9.49009 14.5846 9.66401 14.8905 9.86897C15.1964 10.0739 15.479 10.3069 15.7399 10.5677C15.9992 10.8286 16.2322 11.1112 16.4356 11.4187C16.6405 11.7246 16.8129 12.0491 16.9542 12.3892C17.094 12.7308 17.2011 13.0817 17.2725 13.4435C17.344 13.8053 17.3797 14.1702 17.3797 14.5398C17.3797 14.9078 17.344 15.2727 17.2725 15.6345C17.2011 15.9963 17.094 16.3488 16.9542 16.6888C16.8129 17.0304 16.6405 17.3534 16.4356 17.6609C16.2322 17.9668 15.9992 18.2509 15.7399 18.5118C15.479 18.7727 15.1964 19.0056 14.8905 19.2106C14.5846 19.4155 14.2617 19.5879 13.9216 19.7292C13.5815 19.8705 13.2322 19.9761 12.8704 20.0491C12.5101 20.1205 12.1452 20.1562 11.7772 20.1562C11.4092 20.1562 11.0458 20.1205 10.684 20.0491C10.3238 19.9761 9.97286 19.8705 9.63435 19.7292C9.29429 19.5879 8.97131 19.4155 8.66541 19.2106C8.35951 19.0056 8.0769 18.7727 7.81603 18.5118C7.55672 18.2509 7.3238 17.9668 7.11883 17.6609C6.91541 17.3534 6.74305 17.0304 6.60175 16.6888C6.46044 16.3488 6.35486 15.9963 6.28343 15.6345C6.21045 15.2727 6.17473 14.9078 6.17473 14.5398C6.17473 14.1702 6.21045 13.8053 6.28343 13.4435C6.35486 13.0817 6.46044 12.7308 6.60175 12.3892C6.74305 12.0491 6.91541 11.7246 7.11883 11.4187C7.3238 11.1112 7.55672 10.8286 7.81603 10.5677C8.0769 10.3069 8.35951 10.0739 8.66541 9.86897C8.97131 9.66401 9.29429 9.49009 9.63435 9.34879C9.97286 9.20749 10.3238 9.1019 10.684 9.02891C11.0458 8.95749 11.4092 8.92177 11.7772 8.92177ZM43.9929 46.8393C43.9929 47.1157 43.9665 47.3906 43.9122 47.6623C43.8578 47.9325 43.7786 48.1965 43.6731 48.4527C43.5675 48.7074 43.4386 48.9511 43.2849 49.181C43.1311 49.4108 42.9572 49.6235 42.7616 49.8192C42.5675 50.0148 42.3547 50.1887 42.1249 50.3424C41.8967 50.4962 41.6544 50.6266 41.3982 50.7322C41.1436 50.8378 40.8811 50.9185 40.611 50.9713C40.3408 51.0257 40.0675 51.0536 39.7911 51.0536H7.57535C7.3005 51.0536 7.02721 51.0257 6.75548 50.9713C6.48529 50.9185 6.22287 50.8378 5.96821 50.7322C5.71355 50.6266 5.47132 50.4962 5.24151 50.3424C5.01169 50.1887 4.79896 50.0148 4.60486 49.8192C4.40921 49.6235 4.2353 49.4108 4.08157 49.181C3.9294 48.9511 3.79896 48.7074 3.69337 48.4527C3.58778 48.1965 3.50859 47.9325 3.45424 47.6623C3.40145 47.3906 3.3735 47.1157 3.3735 46.8393V27.1779C3.3735 26.9015 3.40145 26.6282 3.45424 26.3565C3.50859 26.0848 3.58778 25.8223 3.69337 25.5661C3.79896 25.3115 3.9294 25.0677 4.08157 24.8379C4.2353 24.6081 4.40921 24.3953 4.60486 24.1997C4.79896 24.004 5.01169 23.8286 5.24151 23.6748C5.47132 23.5211 5.71355 23.3922 5.96821 23.2866C6.22287 23.181 6.48529 23.1003 6.75548 23.0459C7.02721 22.9932 7.3005 22.9652 7.57535 22.9652H39.7911C40.0675 22.9652 40.3408 22.9932 40.611 23.0459C40.8811 23.1003 41.1436 23.181 41.3982 23.2866C41.6544 23.3922 41.8967 23.5211 42.1249 23.6748C42.3547 23.8286 42.5675 24.004 42.7616 24.1997C42.9572 24.3953 43.1311 24.6081 43.2849 24.8379C43.4386 25.0677 43.5675 25.3115 43.6731 25.5661C43.7786 25.8223 43.8578 26.0848 43.9122 26.3565C43.9665 26.6282 43.9929 26.9015 43.9929 27.1779V46.8393ZM59.3997 45.4356C59.4075 45.7012 59.378 45.962 59.3128 46.2182C59.246 46.4744 59.1466 46.7167 59.0115 46.9449C58.878 47.1732 58.7149 47.3782 58.5224 47.5614C58.3298 47.7431 58.1156 47.8937 57.8811 48.0148C57.6451 48.1359 57.3982 48.2229 57.1389 48.2741C56.8795 48.3238 56.6171 48.3378 56.3547 48.3145C56.0907 48.2912 55.8361 48.2322 55.5892 48.1375C55.3423 48.0412 55.114 47.9139 54.9044 47.7524L46.7942 41.9108V32.0801L54.9044 26.2804C55.114 26.1205 55.3423 25.9916 55.5876 25.8969C55.8345 25.8006 56.0876 25.7416 56.3516 25.7183C56.614 25.695 56.8749 25.7074 57.1326 25.7587C57.392 25.8084 57.6388 25.8938 57.8733 26.0149C58.1093 26.1344 58.3221 26.2851 58.5146 26.4667C58.7072 26.6469 58.8718 26.8503 59.0069 27.0785C59.1419 27.3053 59.2429 27.5475 59.3097 27.8021C59.3764 28.0584 59.4059 28.3192 59.3997 28.5832V45.4356Z" fill="white"/>
</g>
</svg>
