<svg width="84" height="61" viewBox="0 0 84 61" fill="none" xmlns="http://www.w3.org/2000/svg">
<mask id="mask0_345_1259" style="mask-type:luminance" maskUnits="userSpaceOnUse" x="9" y="0" width="33" height="61">
<path d="M9.97266 0.848755H41.1339V60.4216H9.97266V0.848755Z" fill="white"/>
</mask>
<g mask="url(#mask0_345_1259)">
<path d="M11.0055 50.2065C13.4686 50.3545 18.0535 50.8175 23.2614 52.2567C28.4692 53.6959 34.2905 56.1089 39.2525 60.1162C39.5317 60.3406 39.9088 60.3835 40.231 60.2284C40.5533 60.0756 40.7561 59.751 40.7561 59.3954V10.9877C40.7561 10.6965 40.6201 10.4244 40.3886 10.2478C39.0472 9.23582 35.8323 7.02809 30.8965 5.00653C25.9608 2.98496 19.3018 1.15195 11.089 0.894183C10.8384 0.887023 10.5974 0.980106 10.4184 1.15434C10.2393 1.32857 10.1367 1.56724 10.1367 1.81785V49.2828C10.1367 49.7697 10.5186 50.1755 11.0055 50.2065ZM38.9088 11.4531V57.5314C34.0422 53.9966 28.6196 51.8199 23.7506 50.4738C18.9342 49.1444 14.6596 48.6241 11.9841 48.4188V2.78448C19.5118 3.1401 25.629 4.849 30.1996 6.7202C34.5435 8.49832 37.4887 10.422 38.9088 11.4531Z" fill="white"/>
</g>
<mask id="mask1_345_1259" style="mask-type:luminance" maskUnits="userSpaceOnUse" x="41" y="0" width="33" height="61">
<path d="M41 0.848755H73.5147V60.4216H41V0.848755Z" fill="white"/>
</mask>
<g mask="url(#mask1_345_1259)">
<path d="M42.0245 60.226C42.3582 60.3811 42.7541 60.3358 43.043 60.1138C48.2206 56.1065 54.2972 53.6935 59.7312 52.2567C65.1653 50.8175 69.9493 50.3545 72.5194 50.2065C73.0275 50.1755 73.4235 49.7697 73.4235 49.2828V1.81785C73.4235 1.56724 73.3189 1.32857 73.1321 1.15434C72.9453 0.980106 72.6913 0.887023 72.4323 0.894183C63.8254 1.14956 56.8722 2.98258 51.7296 5.00175C46.5844 7.02332 43.2497 9.23105 41.8576 10.2478C41.616 10.422 41.4766 10.6941 41.4766 10.9829V59.393C41.4766 59.7487 41.6882 60.0732 42.0245 60.226ZM52.4592 6.71543C57.2184 4.84662 63.6063 3.1401 71.4984 2.78448V48.4188C68.7066 48.6217 64.2438 49.142 59.2207 50.4714C54.1403 51.8175 48.4821 53.9942 43.4016 57.529V11.4483C44.876 10.4149 47.9317 8.49354 52.4592 6.71543Z" fill="white"/>
</g>
<mask id="mask2_345_1259" style="mask-type:luminance" maskUnits="userSpaceOnUse" x="0" y="11" width="34" height="50">
<path d="M0.3125 11.9235H33.1898V60.1928H0.3125V11.9235Z" fill="white"/>
</mask>
<g mask="url(#mask2_345_1259)">
<path d="M31.971 59.9252C32.4221 60.0302 32.878 59.7844 33.0427 59.35C33.2073 58.918 33.0259 58.4311 32.6178 58.2092C27.1474 55.2424 21.3262 53.7483 16.8463 52.987C14.6051 52.6075 12.6981 52.4094 11.3401 52.3091C10.6599 52.2566 10.1181 52.2304 9.73619 52.2161C9.54764 52.2089 9.39728 52.2041 9.29226 52.2017C9.23975 52.2017 9.19679 52.1994 9.16815 52.1994C9.13474 52.1994 9.12042 52.1994 9.1061 52.1994H8.07741V13.2049C8.07741 12.7228 7.71224 12.3242 7.2349 12.2812C6.51172 12.2192 5.7408 12.1953 4.96511 12.1953C3.61899 12.1953 2.26094 12.2693 1.15827 12.3576C0.678538 12.3982 0.308594 12.7968 0.308594 13.2813V56.9346C0.308594 57.1996 0.420771 57.4502 0.618869 57.6244C0.814582 57.801 1.07712 57.8846 1.33966 57.8535C4.38514 57.4955 7.39242 57.3428 10.309 57.3428C18.6626 57.3428 26.2786 58.603 31.971 59.9252ZM6.23247 14.0737V53.1254C6.23247 53.3689 6.33032 53.6075 6.50217 53.7794C6.67401 53.9512 6.9103 54.0491 7.15375 54.0491H9.1061C9.16815 54.0515 9.97009 54.0586 11.2947 54.1613C13.2829 54.314 16.4548 54.6744 20.0994 55.5312C21.2235 55.7938 22.393 56.1041 23.5864 56.4692C19.5361 55.8869 15.0443 55.493 10.309 55.493C7.65735 55.493 4.92692 55.6172 2.15593 55.9036V14.1405C3.03186 14.0856 4.00803 14.045 4.96511 14.045C5.39472 14.045 5.81956 14.0546 6.23247 14.0737Z" fill="white"/>
</g>
<mask id="mask3_345_1259" style="mask-type:luminance" maskUnits="userSpaceOnUse" x="50" y="11" width="34" height="50">
<path d="M50.2969 11.9235H83.2553V60.1928H50.2969V11.9235Z" fill="white"/>
</mask>
<g mask="url(#mask3_345_1259)">
<path d="M82.4096 12.3576C81.3069 12.2693 79.9488 12.1953 78.6003 12.1953C77.8247 12.1953 77.0537 12.2192 76.3329 12.2812C75.8556 12.3242 75.4904 12.7228 75.4904 13.2025V52.197L74.4617 52.1994H74.4641C74.4498 52.1994 74.4331 52.1994 74.4021 52.1994C73.9295 52.2065 70.7098 52.2805 66.2824 53.0657C61.855 53.851 56.2199 55.3427 50.9238 58.2139C50.5156 58.4359 50.3366 58.9228 50.4989 59.3548C50.6636 59.7892 51.1195 60.035 51.5706 59.93C57.2629 58.6053 64.8862 57.3428 73.2517 57.3428C76.1706 57.3428 79.1803 57.4955 82.2282 57.8535C82.4907 57.8846 82.7509 57.801 82.949 57.6244C83.1447 57.4502 83.2569 57.1996 83.2569 56.9346V13.2813C83.2569 12.7968 82.8893 12.3982 82.4096 12.3576ZM59.9886 56.4668C62.5018 55.7007 64.91 55.1732 67.0151 54.8152C69.1918 54.4453 71.0463 54.2543 72.3614 54.1541C73.0178 54.1064 73.5405 54.0801 73.9009 54.0658C74.0799 54.0586 74.2207 54.0538 74.3162 54.0515C74.3639 54.0515 74.4021 54.0515 74.4259 54.0515L74.457 54.0491H74.4641L76.4141 54.0467C76.9225 54.0467 77.3354 53.6338 77.3354 53.123V14.0737C77.7459 14.0546 78.1707 14.045 78.6003 14.045C79.5574 14.045 80.536 14.0856 81.4119 14.1405V55.9036C78.6385 55.6172 75.9081 55.493 73.2517 55.493C68.5212 55.493 64.0341 55.8869 59.9886 56.4668Z" fill="white"/>
</g>
</svg>
