<svg width="54" height="55" viewBox="0 0 54 55" fill="none" xmlns="http://www.w3.org/2000/svg">
<mask id="mask0_345_1257" style="mask-type:luminance" maskUnits="userSpaceOnUse" x="0" y="0" width="38" height="55">
<path d="M0.789062 0.39624H37.8759V54.5469H0.789062V0.39624Z" fill="white"/>
</mask>
<g mask="url(#mask0_345_1257)">
<path d="M32.9491 54.53H5.6303C5.32514 54.5284 5.02307 54.4992 4.72409 54.4391C4.4251 54.3789 4.13536 54.2896 3.85332 54.1724C3.57283 54.0553 3.30467 53.912 3.05191 53.7424C2.79762 53.5729 2.56336 53.3803 2.34914 53.1645C2.13337 52.9487 1.94073 52.7145 1.7712 52.4602C1.60167 52.2059 1.45988 51.9393 1.34275 51.6572C1.22562 51.3752 1.13777 51.0839 1.07767 50.7849C1.0191 50.4859 0.989822 50.1839 0.988281 49.8787V5.06447C0.989822 4.75932 1.0191 4.45725 1.07767 4.15672C1.13777 3.85773 1.22562 3.56799 1.34275 3.28596C1.45988 3.00392 1.60167 2.73576 1.7712 2.483C1.94073 2.22871 2.13337 1.99445 2.34914 1.77869C2.56336 1.56138 2.79762 1.36874 3.05191 1.19921C3.30467 1.02968 3.57283 0.886348 3.85332 0.769219C4.13536 0.65209 4.4251 0.564243 4.72409 0.504137C5.02307 0.444032 5.32514 0.413208 5.6303 0.413208H32.9491C33.2543 0.413208 33.5564 0.444032 33.8554 0.504137C34.1543 0.562702 34.4456 0.65209 34.7261 0.769219C35.0082 0.886348 35.2763 1.02968 35.5291 1.19921C35.7834 1.36874 36.0176 1.56138 36.2334 1.77715C36.4491 1.99291 36.6418 2.22717 36.8113 2.48146C36.9809 2.73576 37.1242 3.00238 37.2413 3.28441C37.3569 3.56645 37.4463 3.85773 37.5064 4.15672C37.565 4.45571 37.5958 4.75778 37.5958 5.06447V24.7776C37.5958 24.8516 37.5819 24.924 37.5526 24.9934C37.5249 25.0627 37.4833 25.1228 37.4309 25.1752C37.3785 25.2292 37.3168 25.2693 37.249 25.2985C37.1797 25.3263 37.1072 25.3417 37.0333 25.3417C36.9577 25.3417 36.8868 25.3263 36.8175 25.2985C36.7481 25.2693 36.688 25.2292 36.6341 25.1752C36.5817 25.1228 36.5416 25.0627 36.5123 24.9934C36.4846 24.924 36.4692 24.8516 36.4692 24.7776V5.06447C36.4692 4.83175 36.4461 4.60366 36.4014 4.37711C36.3567 4.15055 36.2889 3.93017 36.201 3.71594C36.1116 3.50326 36.0037 3.29983 35.8758 3.10718C35.7464 2.91453 35.6015 2.7373 35.4381 2.57393C35.2748 2.41057 35.096 2.26416 34.9049 2.13624C34.7122 2.00678 34.5088 1.8989 34.2961 1.80951C34.0819 1.72166 33.8631 1.65385 33.6365 1.60916C33.41 1.56292 33.1803 1.54135 32.9491 1.54135H5.6303C5.39912 1.54135 5.16949 1.56446 4.94447 1.60916C4.71792 1.65539 4.49753 1.72166 4.28485 1.81105C4.07063 1.8989 3.86874 2.00832 3.67763 2.13624C3.48498 2.2657 3.30775 2.41057 3.14438 2.57547C2.98102 2.73884 2.83615 2.91607 2.70823 3.10872C2.57877 3.30137 2.47089 3.50326 2.38304 3.71748C2.2952 3.93017 2.22738 4.15055 2.18269 4.37711C2.138 4.60366 2.11488 4.83329 2.11488 5.06447V49.8787C2.11488 50.1099 2.138 50.338 2.18269 50.5645C2.22738 50.7926 2.2952 51.0115 2.38304 51.2257C2.47089 51.4384 2.57877 51.6418 2.70823 51.8345C2.83615 52.0256 2.98102 52.2044 3.14438 52.3677C3.30775 52.5311 3.48498 52.6775 3.67763 52.8054C3.86874 52.9349 4.07063 53.0428 4.28485 53.1321C4.49753 53.22 4.71792 53.2878 4.94447 53.3325C5.16949 53.3787 5.39912 53.4018 5.6303 53.4018H32.9491C33.1803 53.4018 33.41 53.3787 33.6365 53.334C33.8631 53.2878 34.0819 53.2215 34.2961 53.1321C34.5088 53.0443 34.7122 52.9349 34.9049 52.807C35.096 52.679 35.2748 52.5326 35.4381 52.3693C35.6015 52.2059 35.7464 52.0271 35.8758 51.8345C36.0037 51.6434 36.1116 51.4399 36.201 51.2257C36.2889 51.013 36.3567 50.7926 36.4014 50.5661C36.4461 50.3395 36.4692 50.1099 36.4692 49.8787V47.5901C36.4692 47.5146 36.4846 47.4421 36.5123 47.3743C36.5416 47.305 36.5817 47.2433 36.6341 47.1909C36.688 47.1385 36.7481 47.0969 36.8175 47.0692C36.8868 47.0399 36.9577 47.026 37.0333 47.026C37.1072 47.026 37.1797 47.0399 37.249 47.0692C37.3168 47.0969 37.3785 47.1385 37.4309 47.1909C37.4833 47.2433 37.5249 47.305 37.5526 47.3743C37.5819 47.4421 37.5958 47.5146 37.5958 47.5901V49.8787C37.5958 50.1839 37.565 50.4859 37.5064 50.7849C37.4463 51.0855 37.3569 51.3752 37.2413 51.6572C37.1242 51.9393 36.9809 52.2074 36.8113 52.4617C36.6418 52.7145 36.4491 52.9503 36.2334 53.166C36.0176 53.3818 35.7834 53.5745 35.5291 53.744C35.2763 53.9135 35.0082 54.0568 34.7261 54.174C34.4456 54.2911 34.1543 54.3789 33.8554 54.4391C33.5564 54.4992 33.2543 54.5284 32.9491 54.53Z" fill="white"/>
</g>
<path d="M33.4556 46.3387H5.12112C5.04715 46.3387 4.97471 46.3248 4.90536 46.2956C4.83755 46.2678 4.7759 46.2262 4.7235 46.1738C4.6711 46.1214 4.62949 46.0598 4.60175 45.9919C4.57246 45.9226 4.55859 45.8502 4.55859 45.7762V9.16714C4.55859 9.09317 4.57246 9.02073 4.60175 8.95138C4.62949 8.88357 4.6711 8.82192 4.7235 8.76952C4.7759 8.71558 4.83755 8.67551 4.90536 8.64623C4.97471 8.61849 5.04715 8.60461 5.12112 8.60461H33.4556C33.5311 8.60461 33.602 8.61849 33.6714 8.64623C33.7407 8.67551 33.8008 8.71558 33.8548 8.76952C33.9072 8.82192 33.9472 8.88357 33.9765 8.95138C34.0043 9.02073 34.0197 9.09317 34.0197 9.16714V25.9397C34.0197 26.0137 34.0043 26.0861 33.9765 26.1555C33.9472 26.2249 33.9072 26.285 33.8548 26.3389C33.8008 26.3913 33.7407 26.4314 33.6714 26.4607C33.602 26.4884 33.5311 26.5038 33.4556 26.5038C33.3816 26.5038 33.3092 26.4884 33.2398 26.4607C33.172 26.4314 33.1104 26.3913 33.058 26.3389C33.0056 26.285 32.964 26.2249 32.9362 26.1555C32.9069 26.0861 32.8931 26.0137 32.8931 25.9397V9.73121H5.68519V45.2121H32.8931V42.0558C32.8931 41.9803 32.9069 41.9078 32.9362 41.84C32.964 41.7707 33.0056 41.709 33.058 41.6566C33.1104 41.6042 33.172 41.5626 33.2398 41.5349C33.3092 41.5056 33.3816 41.4917 33.4556 41.4917C33.5311 41.4917 33.602 41.5056 33.6714 41.5349C33.7407 41.5626 33.8008 41.6042 33.8548 41.6566C33.9072 41.709 33.9472 41.7707 33.9765 41.84C34.0043 41.9078 34.0197 41.9803 34.0197 42.0558V45.7762C34.0197 45.8502 34.0043 45.9226 33.9765 45.9919C33.9472 46.0598 33.9072 46.1214 33.8548 46.1738C33.8008 46.2262 33.7407 46.2678 33.6714 46.2956C33.602 46.3248 33.5311 46.3387 33.4556 46.3387Z" fill="white"/>
<path d="M23.2399 5.63636H15.3414C15.2659 5.63636 15.1935 5.62249 15.1256 5.59321C15.0563 5.56547 14.9946 5.52386 14.9422 5.47146C14.8898 5.41906 14.8482 5.35741 14.8205 5.28806C14.7912 5.22025 14.7773 5.14781 14.7773 5.07229C14.7773 4.99832 14.7912 4.92588 14.8205 4.85653C14.8482 4.78872 14.8898 4.72707 14.9422 4.67467C14.9946 4.62073 15.0563 4.58066 15.1256 4.55138C15.1935 4.52364 15.2659 4.50977 15.3414 4.50977H23.2399C23.3154 4.50977 23.3863 4.52364 23.4557 4.55138C23.525 4.58066 23.5867 4.62073 23.6391 4.67467C23.6915 4.72707 23.7316 4.78872 23.7608 4.85653C23.7901 4.92588 23.804 4.99832 23.804 5.07229C23.804 5.14781 23.7901 5.22025 23.7608 5.28806C23.7316 5.35741 23.6915 5.41906 23.6391 5.47146C23.5867 5.52386 23.525 5.56547 23.4557 5.59321C23.3863 5.62249 23.3154 5.63636 23.2399 5.63636Z" fill="white"/>
<path d="M19.9344 52.4062C19.7679 52.4077 19.603 52.3908 19.4412 52.36C19.2778 52.3276 19.1191 52.2798 18.965 52.2166C18.8109 52.1535 18.6645 52.0749 18.5258 51.9824C18.387 51.8899 18.2591 51.7851 18.1405 51.668C18.0233 51.5509 17.9185 51.4229 17.8245 51.2842C17.732 51.1471 17.6534 51.0007 17.5903 50.8465C17.5255 50.6924 17.4778 50.5337 17.4438 50.3703C17.4115 50.2085 17.3945 50.042 17.3945 49.8756C17.3945 49.7092 17.4099 49.5442 17.4423 49.3809C17.4747 49.2175 17.5224 49.0588 17.5856 48.9047C17.6488 48.7505 17.7259 48.6041 17.8184 48.4654C17.9108 48.3267 18.0156 48.1988 18.1328 48.0801C18.2499 47.963 18.3778 47.8567 18.5165 47.7642C18.6537 47.6717 18.8001 47.5931 18.9542 47.5284C19.1068 47.4652 19.2655 47.4159 19.4289 47.3835C19.5922 47.3512 19.7572 47.3342 19.9236 47.3342C20.09 47.3327 20.2549 47.3496 20.4183 47.3804C20.5801 47.4128 20.7389 47.4606 20.893 47.5238C21.0471 47.5885 21.1935 47.6656 21.3322 47.758C21.4709 47.8505 21.5989 47.9553 21.7175 48.0724C21.8347 48.1896 21.9395 48.3175 22.0335 48.4562C22.1259 48.5949 22.2045 48.7398 22.2677 48.8939C22.3325 49.048 22.3802 49.2067 22.4141 49.3701C22.4465 49.5335 22.4635 49.6984 22.4635 49.8648C22.4635 50.0313 22.4465 50.1962 22.4141 50.3595C22.3818 50.5214 22.334 50.6801 22.2708 50.8342C22.2061 50.9883 22.129 51.1347 22.0365 51.2719C21.9441 51.4106 21.8393 51.5385 21.7221 51.6572C21.605 51.7743 21.4771 51.8807 21.3399 51.9731C21.2012 52.0656 21.0564 52.1442 20.9022 52.2089C20.7497 52.2737 20.5909 52.3214 20.4291 52.3553C20.2657 52.3893 20.1008 52.4062 19.9344 52.4062ZM19.9344 48.4608C19.7479 48.4608 19.5676 48.4947 19.395 48.5656C19.2224 48.6365 19.0682 48.7382 18.9357 48.8708C18.8032 49.0033 18.7014 49.1543 18.629 49.3285C18.5581 49.5011 18.5211 49.6814 18.5211 49.8679C18.5211 50.0559 18.5566 50.2347 18.6275 50.4088C18.6984 50.5815 18.8016 50.734 18.9326 50.8666C19.0652 50.9991 19.2177 51.1008 19.3904 51.1717C19.563 51.2442 19.7433 51.2796 19.9313 51.2796C20.1178 51.2796 20.2981 51.2426 20.4707 51.1717C20.6433 51.0993 20.7944 50.9976 20.9269 50.8635C21.0594 50.731 21.1612 50.5784 21.2321 50.4058C21.3029 50.2316 21.3369 50.0513 21.3369 49.8648C21.3369 49.6783 21.2999 49.4996 21.229 49.3285C21.1565 49.1574 21.0564 49.0048 20.9254 48.8738C20.7928 48.7428 20.6418 48.6411 20.4707 48.5687C20.2996 48.4978 20.1209 48.4623 19.9344 48.4608Z" fill="white"/>
<mask id="mask1_345_1257" style="mask-type:luminance" maskUnits="userSpaceOnUse" x="0" y="8" width="2" height="9">
<path d="M0.441406 8.16541H1.57879V16.4508H0.441406V8.16541Z" fill="white"/>
</mask>
<g mask="url(#mask1_345_1257)">
<path d="M1.00003 16.1672C0.926052 16.1672 0.853617 16.1533 0.784264 16.1256C0.714911 16.0963 0.654805 16.0562 0.602406 16.0023C0.548464 15.9499 0.508394 15.8882 0.479112 15.8204C0.45137 15.7511 0.4375 15.6786 0.4375 15.6046V9.05003C0.4375 8.97451 0.45137 8.90208 0.479112 8.83427C0.508394 8.76491 0.548464 8.70327 0.602406 8.65087C0.654805 8.59847 0.714911 8.55686 0.784264 8.52911C0.853617 8.49983 0.926052 8.48596 1.00003 8.48596C1.074 8.48596 1.14644 8.49983 1.21579 8.52911C1.28515 8.55686 1.34525 8.59847 1.39765 8.65087C1.45159 8.70327 1.49166 8.76491 1.52095 8.83427C1.54869 8.90208 1.56256 8.97451 1.56256 9.05003V15.6046C1.56256 15.6786 1.54869 15.7511 1.52095 15.8204C1.49166 15.8882 1.45159 15.9499 1.39765 16.0023C1.34525 16.0562 1.28515 16.0963 1.21579 16.1256C1.14644 16.1533 1.074 16.1672 1.00003 16.1672Z" fill="white"/>
</g>
<mask id="mask2_345_1257" style="mask-type:luminance" maskUnits="userSpaceOnUse" x="0" y="18" width="2" height="8">
<path d="M0.441406 18.0289H1.57879V25.9197H0.441406V18.0289Z" fill="white"/>
</mask>
<g mask="url(#mask2_345_1257)">
<path d="M1.00003 25.8211C0.926052 25.8211 0.853617 25.8072 0.784264 25.7779C0.714911 25.7502 0.654805 25.7086 0.602406 25.6562C0.548464 25.6038 0.508394 25.5421 0.479112 25.4728C0.45137 25.4049 0.4375 25.3325 0.4375 25.257V18.7024C0.4375 18.6284 0.45137 18.556 0.479112 18.4866C0.508394 18.4173 0.548464 18.3572 0.602406 18.3048C0.654805 18.2508 0.714911 18.2107 0.784264 18.1815C0.853617 18.1537 0.926052 18.1383 1.00003 18.1383C1.074 18.1383 1.14644 18.1537 1.21579 18.1815C1.28515 18.2107 1.34525 18.2508 1.39765 18.3048C1.45159 18.3572 1.49166 18.4173 1.52095 18.4866C1.54869 18.556 1.56256 18.6284 1.56256 18.7024V25.257C1.56256 25.3325 1.54869 25.4049 1.52095 25.4728C1.49166 25.5421 1.45159 25.6038 1.39765 25.6562C1.34525 25.7086 1.28515 25.7502 1.21579 25.7779C1.14644 25.8072 1.074 25.8211 1.00003 25.8211Z" fill="white"/>
</g>
<path d="M37.2238 44.2551C37.1452 44.2551 37.0696 44.2397 36.9988 44.2088L33.5003 42.6908C32.0855 42.0743 30.7616 41.3022 29.5287 40.3729L24.3257 36.4459C24.1315 36.3011 23.9635 36.13 23.8217 35.9343C23.6784 35.7385 23.5674 35.5259 23.4873 35.2978C23.4071 35.0681 23.3609 34.8323 23.3501 34.5904C23.3393 34.3484 23.364 34.1095 23.4241 33.8753C23.4796 33.641 23.5705 33.4206 23.6953 33.2141C23.7801 33.0708 23.8787 32.9367 23.9928 32.8134C24.1053 32.6901 24.2286 32.5791 24.3642 32.482C24.4998 32.3834 24.6432 32.3002 24.7957 32.2308C24.9483 32.163 25.1055 32.1106 25.2689 32.0736C25.4322 32.0366 25.5972 32.0166 25.7636 32.0135C25.93 32.0104 26.0965 32.0243 26.2599 32.0551C26.4248 32.0875 26.5835 32.1337 26.7392 32.1969C26.8933 32.2601 27.0397 32.3387 27.1784 32.4327L29.2852 33.8475L23.9265 24.8517C23.8448 24.7145 23.7786 24.5712 23.7262 24.4217C23.6722 24.2707 23.6352 24.1166 23.6121 23.9594C23.589 23.8022 23.5813 23.6434 23.589 23.4847C23.5982 23.3259 23.6214 23.1687 23.6599 23.0146C23.6984 22.859 23.7524 22.711 23.8202 22.5661C23.888 22.4228 23.9697 22.2856 24.0637 22.1577C24.1592 22.0298 24.264 21.9127 24.3827 21.8048C24.4998 21.6985 24.6262 21.6029 24.7634 21.5212C24.7927 21.5043 24.8235 21.4889 24.8543 21.4765C25.1995 21.2854 25.5694 21.1868 25.9624 21.1791C26.1766 21.176 26.3878 21.2022 26.5958 21.2546C26.8023 21.307 27.0012 21.3856 27.1876 21.4889C27.3757 21.5921 27.5467 21.7185 27.7024 21.8664C27.8565 22.0144 27.9906 22.1793 28.1031 22.3627L30.6214 26.5901C30.7 26.4345 30.794 26.2881 30.9034 26.1524C31.0144 26.0168 31.1361 25.8951 31.2733 25.7856C31.4089 25.6762 31.5553 25.5838 31.711 25.5067C31.8666 25.4281 32.03 25.368 32.1995 25.3264C32.3675 25.2832 32.5401 25.2601 32.7143 25.2539C32.8884 25.2478 33.0611 25.2616 33.2321 25.2925C33.4032 25.3248 33.5696 25.3742 33.7299 25.442C33.8917 25.5098 34.0428 25.593 34.1861 25.6932C34.2385 25.556 34.3032 25.4219 34.3803 25.2956C34.4574 25.1692 34.5437 25.0505 34.6423 24.9395C34.7409 24.8286 34.8488 24.7284 34.9659 24.6359C35.0831 24.545 35.2064 24.4664 35.3389 24.397C35.4699 24.3292 35.6071 24.2738 35.7489 24.2306C35.8907 24.1874 36.034 24.1566 36.1819 24.1397C36.3283 24.1227 36.4763 24.1196 36.6242 24.1289C36.7722 24.1397 36.9171 24.1628 37.0619 24.1998C37.5058 24.3092 37.8849 24.5296 38.2009 24.8609C38.2933 24.659 38.4105 24.4741 38.5538 24.3061C38.6971 24.1366 38.859 23.9902 39.0424 23.8653C39.2258 23.742 39.4215 23.6434 39.6311 23.5741C39.8407 23.5032 40.0564 23.4616 40.2768 23.4508C40.4988 23.4384 40.7161 23.4569 40.9318 23.5062C41.1476 23.554 41.3526 23.6311 41.5483 23.7359C41.7425 23.8407 41.9197 23.9701 42.08 24.1227C42.2387 24.2768 42.3744 24.4479 42.4869 24.639L44.9697 28.8017C45.6679 29.973 46.0716 31.2383 46.1826 32.5976L46.3259 34.3207C46.423 35.5058 46.776 36.6093 47.3832 37.6311C47.4217 37.6958 47.4464 37.7652 47.4572 37.8392C47.4679 37.9131 47.4633 37.9856 47.4448 38.058C47.4279 38.1304 47.3955 38.1967 47.3508 38.2568C47.3061 38.3169 47.2522 38.3662 47.1875 38.4048L37.512 44.1765C37.4226 44.2289 37.327 44.2551 37.2238 44.2551ZM25.8098 33.1417C25.7112 33.1417 25.6141 33.1525 25.517 33.174C25.1425 33.2573 24.8574 33.4638 24.6617 33.7936C24.5969 33.903 24.5492 34.0201 24.5199 34.145C24.4505 34.407 24.4613 34.6643 24.5507 34.9202C24.6385 35.176 24.7911 35.3841 25.0069 35.5474L30.2083 39.4728C31.3704 40.3482 32.6172 41.0756 33.9519 41.6567L37.1837 43.0591L46.1425 37.7143C45.6108 36.6756 45.298 35.5752 45.2024 34.4116L45.0591 32.6886C44.962 31.5034 44.6106 30.3999 44.0018 29.3781L41.519 25.217C41.3356 24.9041 41.069 24.7053 40.7191 24.6174C40.3724 24.528 40.0472 24.5758 39.7405 24.7623C39.4292 24.9457 39.2304 25.2123 39.1425 25.5637C39.0562 25.8874 39.0917 26.1956 39.2489 26.4915L39.2951 26.5824C39.329 26.6472 39.349 26.715 39.3552 26.7889C39.3614 26.8614 39.3552 26.9323 39.3336 27.0032C39.3121 27.0725 39.2797 27.1357 39.2335 27.1927C39.1872 27.2498 39.1333 27.2975 39.0686 27.333C39.0054 27.3684 38.9376 27.39 38.8651 27.3993C38.7927 27.4085 38.7202 27.4039 38.6494 27.3854C38.58 27.3669 38.5153 27.3345 38.4567 27.2914C38.3981 27.2467 38.3504 27.1943 38.3118 27.1311L37.5721 25.892C37.3964 25.5776 37.1328 25.3803 36.7845 25.2956C36.6165 25.2524 36.447 25.2432 36.2759 25.2663C36.1049 25.2909 35.9461 25.3464 35.7966 25.4343C35.6471 25.5221 35.5208 25.6346 35.4175 25.7733C35.3127 25.9105 35.2387 26.0631 35.1956 26.231C35.1062 26.5824 35.154 26.9138 35.3389 27.2251C35.3759 27.2883 35.399 27.3576 35.4098 27.4316C35.4191 27.5041 35.416 27.5765 35.3959 27.6489C35.3774 27.7214 35.3466 27.7861 35.3019 27.8462C35.2572 27.9048 35.2033 27.9541 35.1401 27.9911C35.0754 28.0296 35.0076 28.0543 34.9336 28.065C34.8611 28.0758 34.7887 28.0712 34.7163 28.0543C34.6438 28.0358 34.5776 28.0049 34.519 27.9618C34.4589 27.9171 34.4096 27.8631 34.3711 27.8L33.9041 27.0186C33.8162 26.8691 33.7037 26.7427 33.565 26.6395C33.4263 26.5362 33.2737 26.4622 33.1057 26.4206C32.9378 26.3775 32.7682 26.3698 32.5972 26.3944C32.4261 26.4206 32.2674 26.4776 32.1194 26.567C31.8142 26.752 31.617 27.017 31.5291 27.3638C31.4382 27.7059 31.4829 28.0281 31.6632 28.3332L31.6709 28.3486C31.7094 28.4118 31.7341 28.4812 31.7449 28.5551C31.7572 28.6291 31.7526 28.7015 31.7341 28.774C31.7172 28.8464 31.6848 28.9127 31.6416 28.9728C31.5969 29.0329 31.5415 29.0822 31.4783 29.1207C31.4135 29.1593 31.3457 29.1839 31.2718 29.1947C31.1978 29.2055 31.1238 29.2024 31.0514 29.1839C30.9789 29.167 30.9142 29.1346 30.8541 29.0899C30.794 29.0468 30.7447 28.9913 30.7061 28.9281L30.6938 28.9081L27.1368 22.9422C27.0489 22.7942 26.9364 22.6679 26.7977 22.5646C26.6606 22.4613 26.508 22.3889 26.34 22.3473C26.1735 22.3041 26.0056 22.2964 25.8345 22.3211C25.6634 22.3457 25.5047 22.4028 25.3567 22.4922C25.3352 22.506 25.3105 22.5184 25.2874 22.5291C25.1487 22.6216 25.0331 22.7372 24.9406 22.8759C24.8466 23.0131 24.7819 23.1626 24.7464 23.3244C24.7094 23.4878 24.7048 23.6511 24.731 23.8145C24.7572 23.9794 24.8112 24.1335 24.8959 24.2768L31.5353 35.4257C31.6031 35.5397 31.6278 35.6615 31.6093 35.7925C31.5908 35.9219 31.5353 36.0329 31.4382 36.1238C31.3426 36.2148 31.2301 36.2656 31.0976 36.2764C30.9666 36.2872 30.8464 36.2564 30.737 36.1824L26.5511 33.3682C26.3277 33.2172 26.0811 33.1417 25.8098 33.1417Z" fill="white"/>
<mask id="mask3_345_1257" style="mask-type:luminance" maskUnits="userSpaceOnUse" x="34" y="36" width="20" height="18">
<path d="M34.7207 36.1777H54.0008V53.9321H34.7207V36.1777Z" fill="white"/>
</mask>
<g mask="url(#mask3_345_1257)">
<path d="M40.2404 53.5406C40.1942 53.5406 40.1479 53.5345 40.1032 53.5237C39.9522 53.4852 39.8366 53.3989 39.7565 53.2648L34.8863 45.0873C34.8478 45.0241 34.8232 44.9548 34.8124 44.8808C34.8016 44.8068 34.8062 44.7328 34.8247 44.6604C34.8432 44.588 34.874 44.5217 34.9187 44.4616C34.9634 44.403 35.0189 44.3537 35.0821 44.3152L48.2267 36.4721C48.3608 36.392 48.5026 36.3704 48.6537 36.409C48.8031 36.4475 48.9187 36.5338 48.9989 36.6679L53.869 44.8438C53.9075 44.9085 53.9322 44.9779 53.943 45.0519C53.9538 45.1258 53.9491 45.1983 53.9306 45.2707C53.9121 45.3431 53.8813 45.4094 53.8366 45.4695C53.7919 45.5296 53.738 45.5789 53.6733 45.6175L40.5286 53.459C40.4407 53.5129 40.3436 53.5391 40.2404 53.5406ZM36.1424 44.9948L40.4361 52.2029L52.6129 44.9378L48.3208 37.7313L36.1424 44.9948Z" fill="white"/>
</g>
<path d="M32.5791 31.5466C32.3664 31.5466 32.2046 31.4556 32.0952 31.2722L30.6988 28.9281C30.6603 28.8634 30.6357 28.794 30.6249 28.7201C30.6141 28.6461 30.6187 28.5736 30.6372 28.5012C30.6542 28.4288 30.6865 28.3625 30.7312 28.3024C30.7759 28.2423 30.8298 28.193 30.8946 28.1544C30.9593 28.1175 31.0271 28.0928 31.1011 28.082C31.1751 28.0712 31.249 28.0743 31.3215 28.0928C31.3939 28.1113 31.4602 28.1437 31.5188 28.1884C31.5789 28.233 31.6282 28.287 31.6667 28.3517L33.063 30.6958C33.1015 30.759 33.1262 30.8284 33.137 30.9024C33.1478 30.9763 33.1432 31.0503 33.1247 31.1227C33.1062 31.1952 33.0753 31.2615 33.0306 31.3216C32.986 31.3801 32.932 31.4294 32.8673 31.468C32.7779 31.5204 32.6823 31.5466 32.5791 31.5466Z" fill="white"/>
<path d="M35.7866 29.6339C35.5724 29.6339 35.4105 29.543 35.3011 29.3596L33.9048 27.0139C33.8678 26.9492 33.8432 26.8814 33.8324 26.8074C33.8216 26.7334 33.8247 26.6594 33.8432 26.587C33.8617 26.5146 33.894 26.4483 33.9387 26.3882C33.9834 26.3281 34.0374 26.2788 34.1021 26.2418C34.1653 26.2032 34.2346 26.1786 34.3086 26.1678C34.3826 26.157 34.455 26.1616 34.5274 26.1786C34.5999 26.1971 34.6662 26.2294 34.7263 26.2741C34.7864 26.3188 34.8357 26.3728 34.8742 26.4375L36.269 28.7816C36.3075 28.8464 36.3322 28.9157 36.3429 28.9897C36.3537 29.0637 36.3491 29.1361 36.3306 29.2085C36.3121 29.281 36.2813 29.3472 36.2366 29.4073C36.1919 29.4674 36.138 29.5168 36.0732 29.5553C35.9854 29.6077 35.8898 29.6339 35.7866 29.6339Z" fill="white"/>
<path d="M39.6881 28.8925C39.4754 28.8925 39.3151 28.8016 39.2057 28.6182L38.3118 27.1264C38.2764 27.0632 38.2533 26.9938 38.244 26.9214C38.2332 26.8489 38.2378 26.7765 38.2563 26.7041C38.2764 26.6332 38.3072 26.5684 38.3519 26.5099C38.395 26.4513 38.449 26.402 38.5122 26.365C38.5754 26.3265 38.6432 26.3018 38.7156 26.291C38.788 26.2802 38.8605 26.2818 38.9329 26.3003C39.0038 26.3172 39.0701 26.3465 39.1302 26.3897C39.1888 26.4328 39.2396 26.4852 39.2781 26.5469L40.172 28.0387C40.209 28.1035 40.2337 28.1728 40.2445 28.2468C40.2568 28.3208 40.2522 28.3932 40.2337 28.4656C40.2167 28.5381 40.1844 28.6043 40.1397 28.6644C40.0965 28.7245 40.041 28.7739 39.9778 28.8124C39.8884 28.8663 39.7929 28.8925 39.6881 28.8925Z" fill="white"/>
<path d="M38.7514 27.3206C38.5372 27.3206 38.3769 27.2297 38.2675 27.0463L37.8067 26.2741C37.7697 26.2094 37.745 26.1401 37.7342 26.0661C37.7235 25.9921 37.7281 25.9197 37.7466 25.8472C37.7651 25.7748 37.7959 25.7085 37.8406 25.6484C37.8853 25.5883 37.9392 25.5406 38.004 25.502C38.0671 25.4635 38.1365 25.4388 38.2105 25.428C38.2844 25.4173 38.3569 25.4219 38.4293 25.4388C38.5018 25.4573 38.568 25.4897 38.6281 25.5344C38.6882 25.5791 38.7376 25.633 38.7745 25.6962L39.2354 26.4683C39.2878 26.5562 39.314 26.6502 39.314 26.7519C39.3155 26.8536 39.2908 26.9476 39.2415 27.0355C39.1907 27.1233 39.1213 27.1927 39.035 27.2435C38.9472 27.2959 38.8531 27.3206 38.7514 27.3206Z" fill="white"/>
<path d="M47.3718 43.3273C47.1899 43.3273 47.0142 43.2995 46.8432 43.241C46.6705 43.1839 46.5133 43.0992 46.3685 42.9898C46.2252 42.8803 46.1019 42.7509 46.0001 42.5998C45.9 42.4503 45.8244 42.2885 45.7767 42.1128C45.7289 41.9387 45.7089 41.7614 45.7196 41.5796C45.7289 41.3993 45.769 41.2251 45.8352 41.0571C45.903 40.8876 45.9955 40.735 46.1126 40.5979C46.2313 40.4591 46.3669 40.3451 46.5226 40.2511C46.632 40.1864 46.7476 40.134 46.8694 40.0954C46.9896 40.0569 47.1144 40.0322 47.2408 40.023C47.3672 40.0122 47.4935 40.0168 47.6199 40.0369C47.7463 40.0554 47.868 40.0893 47.9867 40.137C48.1038 40.1848 48.2148 40.2449 48.3196 40.3174C48.4244 40.3913 48.5184 40.4746 48.6032 40.5701C48.6879 40.6657 48.7604 40.7689 48.822 40.8799C48.8821 40.9924 48.9299 41.1095 48.9638 41.2328C48.9977 41.3546 49.0178 41.4794 49.0224 41.6073C49.027 41.7352 49.0178 41.8616 48.9946 41.9865C48.97 42.1113 48.9315 42.2315 48.8806 42.3486C48.8282 42.4642 48.7635 42.5736 48.6864 42.6754C48.6093 42.7755 48.5215 42.868 48.4229 42.9481C48.3258 43.0298 48.2194 43.0992 48.1054 43.1547C47.9913 43.2117 47.8727 43.2548 47.7478 43.2841C47.6245 43.3134 47.4982 43.3273 47.3718 43.3273ZM47.3718 41.1465C47.2747 41.1465 47.1853 41.1712 47.1021 41.2205C47.0312 41.2621 46.9742 41.3176 46.9295 41.3854C46.8848 41.4547 46.857 41.5287 46.8478 41.6104C46.8385 41.6921 46.8462 41.7707 46.874 41.8477C46.9002 41.9248 46.9433 41.9926 47.0019 42.0496C47.0605 42.1067 47.1283 42.1483 47.2053 42.1745C47.2824 42.1991 47.3625 42.2068 47.4427 42.1961C47.5244 42.1837 47.5983 42.1544 47.6661 42.1097C47.734 42.0635 47.7879 42.0049 47.828 41.9341C47.868 41.8616 47.8912 41.7861 47.8958 41.7044C47.9004 41.6227 47.8865 41.5441 47.8542 41.4686C47.8218 41.3931 47.7756 41.3284 47.7139 41.276C47.6523 41.222 47.5814 41.185 47.5028 41.165C47.4581 41.1527 47.4134 41.1465 47.3687 41.1465H47.3718Z" fill="white"/>
<path d="M21.5179 27.7876H9.90823C9.83426 27.7876 9.76182 27.7737 9.69401 27.7444C9.62466 27.7167 9.56301 27.6751 9.51061 27.6227C9.45821 27.5703 9.4166 27.5086 9.38886 27.4393C9.35957 27.3699 9.3457 27.299 9.3457 27.2235C9.3457 27.1495 9.35957 27.0771 9.38886 27.0077C9.4166 26.9384 9.45821 26.8783 9.51061 26.8259C9.56301 26.7719 9.62466 26.7319 9.69401 26.7026C9.76182 26.6748 9.83426 26.6594 9.90823 26.6594H21.5179C21.5934 26.6594 21.6643 26.6748 21.7337 26.7026C21.803 26.7319 21.8631 26.7719 21.9171 26.8259C21.9695 26.8783 22.0095 26.9384 22.0388 27.0077C22.0666 27.0771 22.082 27.1495 22.082 27.2235C22.082 27.299 22.0666 27.3699 22.0388 27.4393C22.0095 27.5086 21.9695 27.5703 21.9171 27.6227C21.8631 27.6751 21.803 27.7167 21.7337 27.7444C21.6643 27.7737 21.5934 27.7876 21.5179 27.7876Z" fill="white"/>
<path d="M12.4943 30.3751C12.3387 30.3751 12.2061 30.3196 12.0967 30.2102L9.51061 27.621C9.45821 27.5686 9.4166 27.5085 9.38886 27.4392C9.35957 27.3698 9.3457 27.2974 9.3457 27.2234C9.3457 27.1479 9.35957 27.077 9.38886 27.0077C9.4166 26.9383 9.45821 26.8782 9.51061 26.8243L12.0998 24.2366C12.1537 24.1858 12.2138 24.1457 12.2832 24.118C12.351 24.0918 12.4219 24.0779 12.4959 24.0779C12.5698 24.0794 12.6407 24.0933 12.7085 24.1226C12.7779 24.1503 12.838 24.1919 12.8889 24.2428C12.9413 24.2952 12.9829 24.3553 13.0106 24.4246C13.0399 24.4925 13.0538 24.5634 13.0538 24.6373C13.0553 24.7113 13.0414 24.7822 13.0137 24.8516C12.9875 24.9194 12.9474 24.981 12.8966 25.0334L10.7066 27.2234L12.8935 29.4119C12.9752 29.4936 13.026 29.5891 13.0476 29.7016C13.0707 29.8126 13.0599 29.922 13.0168 30.0268C12.9721 30.1316 12.9027 30.2164 12.8087 30.2796C12.7147 30.3428 12.6099 30.3751 12.4959 30.3751H12.4943Z" fill="white"/>
<path d="M41.0235 19.7272C40.9495 19.7272 40.8771 19.7133 40.8077 19.684C40.7383 19.6563 40.6782 19.6147 40.6258 19.5623C40.5719 19.5099 40.5318 19.4482 40.5025 19.3789C40.4748 19.3111 40.4609 19.2386 40.4609 19.1631V14.6182C40.4609 14.5442 40.4748 14.4718 40.5025 14.4024C40.5318 14.3331 40.5719 14.273 40.6258 14.2206C40.6782 14.1666 40.7383 14.1266 40.8077 14.0973C40.8771 14.0695 40.9495 14.0557 41.0235 14.0557C41.099 14.0557 41.1699 14.0695 41.2392 14.0973C41.3086 14.1266 41.3687 14.1666 41.4211 14.2206C41.475 14.273 41.5151 14.3331 41.5444 14.4024C41.5721 14.4718 41.5875 14.5442 41.5875 14.6182V19.1662C41.586 19.2417 41.5721 19.3126 41.5428 19.382C41.5151 19.4498 41.4735 19.5114 41.4211 19.5638C41.3687 19.6162 41.307 19.6563 41.2392 19.6856C41.1699 19.7133 41.0974 19.7272 41.0235 19.7272Z" fill="white"/>
<path d="M50.0365 24.2012H45.4962C45.4207 24.2012 45.3498 24.1873 45.2805 24.158C45.2111 24.1303 45.151 24.0887 45.0986 24.0363C45.0447 23.9839 45.0046 23.9222 44.9753 23.8544C44.9476 23.7851 44.9322 23.7126 44.9337 23.6387C44.9322 23.5631 44.9476 23.4907 44.9753 23.4229C45.0046 23.3535 45.0447 23.2919 45.0986 23.2395C45.151 23.1871 45.2111 23.1455 45.2805 23.1177C45.3498 23.0885 45.4207 23.0746 45.4962 23.0746H50.0381C50.1136 23.0746 50.186 23.0885 50.2538 23.1177C50.3232 23.1455 50.3848 23.1871 50.4372 23.2395C50.4896 23.2919 50.5312 23.3535 50.559 23.4229C50.5883 23.4907 50.6021 23.5631 50.6021 23.6387C50.6021 23.7126 50.5883 23.7851 50.559 23.8544C50.5312 23.9222 50.4896 23.9839 50.4372 24.0363C50.3848 24.0887 50.3232 24.1303 50.2538 24.158C50.186 24.1873 50.1136 24.2012 50.0381 24.2012H50.0365Z" fill="white"/>
<path d="M43.2578 21.965C43.1453 21.965 43.0405 21.9326 42.945 21.8694C42.851 21.8063 42.7816 21.7215 42.7385 21.6167C42.6953 21.5104 42.6845 21.4025 42.7061 21.29C42.7292 21.179 42.7801 21.0834 42.8602 21.0018L46.0705 17.7884C46.1229 17.7376 46.1845 17.6975 46.2523 17.6713C46.3217 17.6435 46.3926 17.6297 46.4666 17.6312C46.5405 17.6312 46.6114 17.6466 46.6792 17.6744C46.7471 17.7037 46.8072 17.7437 46.8596 17.7961C46.912 17.8485 46.952 17.9086 46.9813 17.9764C47.0091 18.0443 47.0245 18.1151 47.0245 18.1891C47.026 18.2631 47.0121 18.334 46.9844 18.4033C46.9582 18.4727 46.9181 18.5328 46.8673 18.5867L43.657 21.7986C43.5476 21.9095 43.4135 21.965 43.2578 21.965Z" fill="white"/>
</svg>
