<svg width="52" height="59" viewBox="0 0 52 59" fill="none" xmlns="http://www.w3.org/2000/svg">
<path d="M43.7092 19.2357L39.9471 20.3523C37.6783 21.026 36.2325 21.5062 36.297 21.5656C36.3564 21.6199 37.8073 22.3445 39.5229 23.1811L42.6011 25.6587L51.1826 22.2885C51.1826 22.2512 50.3596 21.8965 49.3618 21.4994C48.3623 21.1024 46.6806 20.4338 45.6268 20.0095L43.7092 19.2357Z" fill="white"/>
<mask id="mask0_345_1258" style="mask-type:luminance" maskUnits="userSpaceOnUse" x="0" y="4" width="52" height="55">
<path d="M0.521484 4.62671H52V58.632H0.521484V4.62671Z" fill="white"/>
</mask>
<g mask="url(#mask0_345_1258)">
<path d="M29.4066 4.80823C29.3421 4.81502 29.2776 4.83538 29.2148 4.85574L0.775706 14.3349C0.719707 14.435 0.643344 14.8643 0.592436 14.9695C0.572073 15.0374 0.568679 15.0781 0.563588 15.1138C0.553406 15.1833 0.544922 15.2207 0.544922 15.2478V15.3446C0.548316 15.3819 0.55171 15.3938 0.555104 15.4107C0.558498 15.4464 0.568679 15.4803 0.57377 15.5159C0.583951 15.5906 0.600921 15.6822 0.621284 15.8044L5.59333 43.5054C5.63576 43.7378 5.76472 43.9601 5.94969 44.1095L6.25684 44.3589C12.0621 48.8609 17.4176 53.6734 23.2314 58.2094C23.3145 58.2739 23.3773 58.3299 23.435 58.3723C23.4622 58.3943 23.4842 58.4062 23.5216 58.43C23.5385 58.4419 23.5538 58.4622 23.5979 58.4877C23.62 58.4996 23.6573 58.5114 23.7133 58.5352C23.7693 58.5606 23.8066 58.6217 24.1274 58.6133V58.6217H24.1477V58.6133C24.1715 58.6082 24.4294 58.5793 24.5414 58.5267C24.6602 58.4707 24.745 58.3977 24.8112 58.335L51.7468 43.5817C51.9725 43.2898 51.9267 43.2355 51.9403 43.1778C51.9539 43.1201 51.9556 43.0913 51.959 43.0625C51.9657 43.0048 51.9657 42.964 51.9691 42.9182C51.9742 42.83 51.9742 42.7332 51.9776 42.6111L51.2853 23.0945L51.2462 22.2681L50.693 22.375L42.619 25.5228C42.5087 25.085 42.4934 25.0205 42.6037 24.8118L46.1571 20.3302C46.1333 20.2674 49.2897 18.7622 49.2676 18.6977C48.9791 17.8 50.1619 17.8662 50.1483 16.8905L49.4356 11.5502L29.8019 4.84556C29.673 4.80823 29.5406 4.80314 29.4066 4.81671V4.80823Z" fill="white"/>
</g>
<mask id="mask1_345_1258" style="mask-type:luminance" maskUnits="userSpaceOnUse" x="22" y="0" width="13" height="7">
<path d="M22.9531 0.311279H34.248V6.7987H22.9531V0.311279Z" fill="white"/>
</mask>
<g mask="url(#mask1_345_1258)">
<path d="M29.5133 0.313015C29.4794 0.314712 29.4471 0.319803 29.4166 0.331682L23.4824 2.51056C23.35 2.55807 23.272 2.6514 23.2516 2.79055C23.2295 2.92801 23.2737 3.04 23.3857 3.12655L27.4023 6.31511C27.5024 6.39147 27.6111 6.41014 27.7298 6.3728L33.5588 4.48071C33.6929 4.43998 33.7744 4.35344 33.8049 4.21768C33.8354 4.08193 33.7981 3.96823 33.6946 3.8749L29.7831 0.397862C29.7051 0.329985 29.6151 0.301137 29.5133 0.311318V0.313015Z" fill="white"/>
</g>
<path d="M14.4752 10.4744L15.0199 16.3306L9.22656 12.4395L9.62704 7.00415L14.4752 10.4744Z" fill="white"/>
<path d="M24.3101 6.91919L14.4746 10.4726L15.0193 16.3304L24.865 12.777L24.3101 6.91919Z" fill="white"/>
<path d="M25.004 14.8491L25.5335 20.5135L18.5947 18.7775L18.0703 13.108L25.004 14.8491Z" fill="white"/>
<path d="M25.0039 14.8492L25.5334 20.5136L32.6452 15.8113L32.1158 10.1401L25.0039 14.8492Z" fill="white"/>
<path d="M23.281 2.88721L27.6354 6.03504L28.1292 11.1462L22.3867 7.45538L23.281 2.88721Z" fill="white"/>
<path d="M27.6348 6.03344L28.1286 11.1446L32.1045 8.9454L33.7726 4.12268L27.6348 6.03344Z" fill="white"/>
<path d="M34.7905 4.74033C34.7651 4.74542 34.7396 4.75051 34.7142 4.7607L28.5678 7.00745C28.4219 7.06175 28.3388 7.16527 28.3218 7.31969C28.3031 7.47581 28.3608 7.59459 28.4915 7.67944L33.6926 11.1276C33.8063 11.2006 33.9251 11.2108 34.049 11.1565L40.9284 8.37179C41.0726 8.30731 41.149 8.19531 41.1524 8.0375C41.1575 7.87798 41.0879 7.76259 40.9471 7.68962L35.0128 4.77936C34.9433 4.74373 34.8686 4.73185 34.7905 4.74203V4.74033Z" fill="white"/>
<path d="M20.207 4.79797C20.1832 4.80137 20.1611 4.80137 20.1391 4.80646L9.98457 6.54583C9.6333 6.60861 9.49415 7.14824 9.77415 7.37054L14.1862 10.8391C14.3101 10.9392 14.4883 10.9698 14.6376 10.9155L24.4069 8.39889C24.5834 8.33441 24.7107 8.15283 24.7123 7.96617C24.7157 7.77781 24.5919 7.59454 24.4171 7.52496L20.3902 4.83531C20.3325 4.81155 20.2697 4.79797 20.207 4.79797Z" fill="white"/>
<path d="M40.784 8.02063L41.2727 13.3168L34.395 16.0981L33.9062 10.8104L40.7823 8.02063H40.784Z" fill="white"/>
<path d="M42.0278 6.55615C41.9684 6.55785 41.9141 6.57482 41.8632 6.60367L35.554 10.4371C35.4929 10.4727 35.4454 10.5236 35.4148 10.5881C35.386 10.6526 35.3758 10.7188 35.3877 10.79C35.3996 10.8596 35.4301 10.9207 35.4793 10.9733C35.5302 11.0242 35.5896 11.0564 35.6592 11.07L42.2298 12.5311C42.318 12.5498 42.4028 12.5379 42.4809 12.4921L49.8219 8.32267C49.883 8.28534 49.9288 8.23443 49.9593 8.16825C49.9882 8.10207 49.995 8.03419 49.9814 7.96292C49.9678 7.89165 49.9339 7.83056 49.883 7.78135C49.8304 7.73044 49.7676 7.69989 49.6963 7.68971L42.0957 6.56633C42.0736 6.56124 42.0499 6.55785 42.0278 6.55615Z" fill="white"/>
<path d="M42.3027 12.1883L49.6641 7.90177C49.7778 7.91365 49.8643 7.78977 49.9543 7.95268L50.18 17.9171C50.1884 18.2752 50.2156 18.5179 49.7998 18.7028L43.1818 22.9333L42.3027 12.1883Z" fill="white"/>
<mask id="mask2_345_1258" style="mask-type:luminance" maskUnits="userSpaceOnUse" x="23" y="0" width="11" height="7">
<path d="M23.3887 0.311279H33.8147V6.36428H23.3887V0.311279Z" fill="white"/>
</mask>
<g mask="url(#mask2_345_1258)">
<path d="M29.5368 0.672729L23.6094 2.84821L27.6243 6.03338L33.4567 4.14807L29.5368 0.672729Z" fill="#39BB9C"/>
</g>
<path d="M1.56677 15.2648C1.5532 15.2835 1.91974 17.386 2.37791 19.9382C3.10081 23.9532 3.23826 24.6048 3.41135 24.7389C3.64892 24.9221 7.91334 27.0959 8.02195 27.0874C8.06268 27.084 7.7708 24.9951 7.37372 22.4463C6.97833 19.8958 6.62706 17.7508 6.59312 17.6796C6.53373 17.5557 1.61938 15.1952 1.56677 15.2648Z" fill="#39BB9C"/>
<path d="M7.39844 17.9647L7.42219 18.3194C7.43407 18.5145 7.76837 20.6713 8.16206 23.1149L8.87987 27.5576L11.5746 28.9236C13.0561 29.6753 14.2728 30.2828 14.2795 30.2744C14.2863 30.2659 14.0165 28.0955 13.6805 25.4499L13.0696 20.6357L7.39844 17.9647Z" fill="#39BB9C"/>
<path d="M41.1293 16.1405C40.4811 16.3017 31.2904 19.7584 31.1767 19.8891C31.1428 19.9281 31.2904 21.5656 31.5076 23.5307C31.7248 25.4958 31.9573 27.6916 32.0235 28.4111C32.0897 29.1323 32.1864 29.7127 32.2356 29.7042C32.2848 29.6974 34.462 28.8099 37.0719 27.734C39.6818 26.6582 41.8369 25.752 41.859 25.7215C41.932 25.6264 41.2498 16.1982 41.1649 16.1354C41.1599 16.132 41.1497 16.132 41.1293 16.1405Z" fill="#39BB9C"/>
<path d="M13.7676 20.9717L14.4192 25.7774C14.9062 29.3851 15.1048 30.612 15.2168 30.7087C15.3966 30.8649 20.9151 33.6852 21.0288 33.6784C21.0729 33.675 20.8574 31.9187 20.552 29.7737C20.2448 27.6288 19.958 25.4041 19.9139 24.8322L19.8375 23.7903L19.5389 23.7241C19.376 23.6885 18.1491 23.1183 16.8153 22.4582C15.4798 21.7964 14.2512 21.1923 14.0798 21.1142L13.7676 20.9717Z" fill="#39BB9C"/>
<path d="M30.2933 20.2369C29.7978 20.3031 20.8244 23.8039 20.7225 23.9685C20.6377 24.1077 20.7735 25.2769 21.3097 29.0084C21.6915 31.6828 22.0411 33.8668 22.0852 33.86C22.1293 33.8549 24.2335 32.9979 26.7654 31.9594C29.2972 30.9192 31.4014 30.0215 31.4404 29.9672C31.4778 29.9112 31.286 27.9241 31.0145 25.5501C30.743 23.176 30.5122 21.0039 30.502 20.7223C30.4868 20.2827 30.4579 20.2149 30.295 20.2369H30.2933Z" fill="#39BB9C"/>
<path d="M3.49239 25.7197C3.42791 25.8045 4.82789 33.753 4.9874 34.2078C5.08243 34.4793 5.51006 34.7966 7.37161 35.9692L9.64042 37.3997L9.45546 35.92C9.35364 35.1072 9.02613 32.9962 8.72917 31.228L8.18614 28.0122L5.86472 26.8295C4.58862 26.1795 3.52124 25.6806 3.49239 25.7197Z" fill="#39BB9C"/>
<path d="M9.03149 28.4789C9.02131 28.5009 9.33863 30.6289 9.74081 33.2049C10.3042 36.821 10.5044 37.9122 10.6249 38.0021C10.7115 38.0666 11.8942 38.8234 13.2552 39.6787L15.7293 41.2365L15.4663 38.932C15.3221 37.6644 15.0353 35.4007 14.8283 33.9023L14.4515 31.1804L11.75 29.8076C10.2635 29.0541 9.04167 28.4568 9.03149 28.4789Z" fill="#39BB9C"/>
<path d="M50.6112 22.9774C50.4856 22.9944 42.7051 26.1626 42.6627 26.2135C42.639 26.2424 43.316 36.2679 43.3636 36.6124C43.3805 36.7244 43.4467 36.7804 43.518 36.7431C43.5876 36.7057 45.2166 35.9981 47.1393 35.1717C49.0619 34.3436 50.6893 33.6207 50.7588 33.563C50.842 33.4934 50.859 31.866 50.8064 28.5604C50.7622 25.8673 50.7266 23.5069 50.73 23.3117C50.7334 23.0809 50.6944 22.9673 50.6112 22.9774Z" fill="#39BB9C"/>
<path d="M41.9171 26.5105L37.1368 28.4739C34.5083 29.5531 32.3362 30.461 32.3141 30.4898C32.27 30.5492 33.1371 38.7217 33.3425 40.1794L33.468 41.0906L38.0226 39.1205C40.529 38.0344 42.6027 37.1147 42.6315 37.0757C42.6842 37.0078 42.075 27.6797 41.9697 26.8991L41.9171 26.5105Z" fill="#39BB9C"/>
<path d="M15.2145 31.5911C15.1874 31.5945 15.4979 33.9006 15.9035 36.7176L16.6451 41.8372L19.591 43.6818L22.5369 45.5281L22.4062 44.1485C22.3366 43.39 22.0193 40.9226 21.702 38.664L21.1284 34.559L18.1961 33.0708C16.5823 32.2529 15.2417 31.586 15.2145 31.5911Z" fill="#39BB9C"/>
<path d="M31.5463 30.8361C31.4971 30.8004 22.2029 34.5693 22.1622 34.6423C22.1554 34.6542 22.4626 37.0774 22.841 40.025C23.5215 45.3127 23.5317 45.384 23.7285 45.3008C23.8388 45.2533 25.9091 44.359 28.3289 43.312L32.7274 41.4097L32.6341 40.2762C32.4644 38.3077 31.6091 30.8836 31.5463 30.8361Z" fill="#39BB9C"/>
<path d="M5.23218 35.6179C5.22709 35.6179 5.22879 35.623 5.22879 35.6247C5.22539 35.7079 5.52915 37.4761 5.90587 39.5532L6.59313 43.3272L6.90028 43.58L9.1657 45.4382L11.1257 47.0401L10.8728 45.0326C10.7337 43.9262 10.4384 41.9696 10.2127 40.685L9.80375 38.3517L7.52136 36.9127C6.23168 36.1016 5.29157 35.5704 5.23048 35.6179H5.23218Z" fill="#39BB9C"/>
<path d="M10.7285 38.9337L10.9797 40.931C11.1188 42.0323 11.4209 44.0313 11.6534 45.3736L12.0776 47.8138L14.6162 49.8909L17.1565 51.9646L17.0242 50.5663C16.9512 49.7959 16.6746 47.6051 16.4082 45.6926L15.9229 42.2139L13.3265 40.5747L10.7285 38.9337Z" fill="#39BB9C"/>
<path d="M50.6886 34.5014C50.3526 34.5727 49.4294 34.9579 47.1284 35.9557C45.1056 36.833 43.4426 37.5593 43.4358 37.5712C43.429 37.5831 43.5478 39.3784 43.7022 41.5607C43.8567 43.743 43.9924 45.8132 44.0043 46.1645C44.0281 46.7584 44.0416 46.7958 44.2198 46.6957C44.325 46.6363 45.8625 45.7946 47.6358 44.8273C49.4091 43.8618 50.8973 43.0235 50.9431 42.9624C51.0313 42.8504 50.9499 34.8119 50.8583 34.5235C50.8481 34.4912 50.8006 34.4776 50.6886 34.5014Z" fill="#39BB9C"/>
<path d="M42.6861 37.9208C42.6131 37.8953 33.6024 41.7898 33.5464 41.873C33.526 41.9035 33.7245 43.8228 33.9876 46.1391C34.2506 48.4537 34.4882 50.6988 34.5153 51.1264C34.5425 51.554 34.5917 51.9002 34.6256 51.8951C34.6596 51.89 36.6365 50.8226 39.0173 49.5245L43.3479 47.164L43.3564 46.8213C43.3683 46.173 42.7472 37.9445 42.6861 37.9208Z" fill="#39BB9C"/>
<path d="M16.7486 42.7604C16.696 42.7485 16.9726 44.9851 17.3646 47.7291L18.079 52.7215L21.0639 55.1651C22.7049 56.5108 24.0777 57.6104 24.1133 57.6087C24.1473 57.6087 23.9403 55.7319 23.6518 53.441C23.3633 51.1484 23.0375 48.6488 22.9272 47.8852L22.7235 46.4954L19.7827 44.6406C18.1656 43.6191 16.8012 42.7723 16.7469 42.7604H16.7486Z" fill="#39BB9C"/>
<path d="M32.8139 42.2106C32.7731 42.18 30.0614 43.3356 23.8302 46.0406C23.6622 46.1135 23.7013 46.4699 24.4327 51.5828C24.8654 54.5999 25.2557 57.0232 25.3032 56.996L29.6864 54.6084L33.9831 52.2717L33.8948 51.6269C33.8439 51.2739 33.5911 49.0204 33.3331 46.6175C33.0752 44.2146 32.841 42.2309 32.8139 42.2106Z" fill="#39BB9C"/>
<path d="M10.2603 11.871L6.55249 13.0317C4.51446 13.6697 2.82431 14.2212 2.79715 14.2552C2.7717 14.2908 2.8277 14.3519 2.92273 14.3909C3.01606 14.43 3.98841 14.8949 5.07954 15.4244C6.17068 15.9521 7.13624 16.3747 7.22448 16.3679C7.31272 16.3594 9.01306 15.7739 11.0036 15.0646C12.9924 14.3553 14.652 13.7427 14.6876 13.7003C14.7233 13.6596 13.7424 13.2268 12.5071 12.7449L10.2603 11.871Z" fill="#39BB9C"/>
<path d="M23.4158 17.011L19.4008 18.6248C17.1897 19.5123 15.3858 20.2657 15.3926 20.298C15.413 20.3845 20.3375 22.7382 20.4614 22.7212C20.5208 22.7127 22.5367 21.9627 24.9413 21.0548C27.3459 20.1452 29.3245 19.385 29.3398 19.3646C29.3551 19.3443 28.0297 18.8081 26.3922 18.17L23.4158 17.011Z" fill="#39BB9C"/>
<path d="M15.6621 14.1466C15.545 14.1924 13.843 14.8016 11.8813 15.4973C9.91962 16.1948 8.2685 16.7853 8.2125 16.8125C8.1582 16.8379 9.52763 17.5371 11.2568 18.3618L14.3962 19.8602L17.4812 18.6231L21.469 17.0263C21.9628 16.8277 22.3243 16.636 22.2734 16.597C22.2225 16.5596 20.7631 15.9725 19.0288 15.2954C16.8771 14.4554 15.8097 14.0906 15.6621 14.1466Z" fill="#39BB9C"/>
<path d="M25.0784 9.23218L18.0684 13.108L25.0004 14.8457L32.1157 10.14L25.0784 9.23387V9.23218Z" fill="#39BB9C"/>
<path d="M34.8531 5.11548L28.7051 7.36393L33.9079 10.8104L40.7856 8.02404L34.8531 5.11548Z" fill="#39BB9C"/>
<path d="M20.2175 5.27319L10.0664 7.00238L14.4751 10.4726L24.2783 8.22588L20.2175 5.27319Z" fill="#39BB9C"/>
<path d="M42.0468 6.90221L35.7324 10.7322L42.3047 12.1899L49.6457 8.02728L42.0468 6.90051V6.90221Z" fill="#39BB9C"/>
<path d="M34.0293 12.7668L29.2779 14.664C26.6629 15.7076 24.5298 16.5917 24.5332 16.6257C24.5383 16.6596 25.8721 17.2026 27.4944 17.8356L30.442 18.9861L35.3801 17.1297C38.0952 16.1064 40.3318 15.2461 40.3521 15.2206C40.3708 15.1935 38.9572 14.6301 37.2094 13.9683L34.0293 12.7651V12.7668Z" fill="#39BB9C"/>
<path d="M49.6869 8.91321L42.4512 13.1064L43.1859 22.4362L49.8159 18.2108L49.6869 8.91321Z" fill="#39BB9C"/>
</svg>
