<svg width="71" height="110" viewBox="0 0 71 110" fill="none" xmlns="http://www.w3.org/2000/svg">
<mask id="mask0_325_665" style="mask-type:luminance" maskUnits="userSpaceOnUse" x="0" y="0" width="71" height="110">
<path d="M0 0H70.8418V109.431H0V0Z" fill="white"/>
</mask>
<g mask="url(#mask0_325_665)">
<path d="M63.3287 91.0284C63.3287 90.8715 63.0819 90.7007 63.0404 90.4053C62.9817 90.0223 62.9646 89.6508 62.9622 89.2677C62.9573 88.7047 63.1821 88.0517 62.3757 87.7609C62.366 87.7586 62.3757 87.7102 62.3757 87.6686C62.6079 87.5625 63.0844 87.521 62.5566 87.1564C62.493 87.1102 62.537 86.9995 62.5785 86.9141C62.7081 86.6603 62.6299 86.598 62.3342 86.6418C62.1583 86.6672 61.9164 86.6349 61.7893 86.5311C61.6305 86.4018 61.9408 86.418 61.9457 86.3095C61.9457 86.2818 61.953 86.2426 61.9384 86.2288C61.6842 85.9749 61.7429 85.5596 61.435 85.345C61.1271 85.1327 61.0856 84.7381 60.763 84.5351C60.5358 84.392 60.1644 84.3597 60.2035 83.9697C60.2059 83.9467 60.1351 83.9167 60.1008 83.889C59.3825 83.3006 58.6567 82.7145 57.8357 82.2599C57.2273 81.923 56.6971 81.3876 55.8907 81.473C55.8149 81.4823 55.7734 81.3992 55.7245 81.3415C55.4851 81.0531 55.1186 80.8708 54.7887 80.9723C54.4417 81.0784 54.2731 80.5546 53.9554 80.8523C53.9506 80.8131 53.9335 80.7739 53.9383 80.7369C53.9726 80.5339 53.8162 80.527 53.6793 80.5223C53.4203 80.5154 53.1173 80.4923 52.9292 80.4C52.5627 80.2154 52.5798 80.4162 52.5382 80.7C52.3354 80.1647 52.0007 80.0493 51.4924 80.167C51.3043 80.2085 50.9499 80.2247 50.8595 80.1531C50.4099 79.7839 50.0214 79.987 49.6134 80.1739C49.562 80.1993 49.4741 80.2639 49.4643 80.2154C49.3788 79.7701 49.0123 80.1831 48.7997 80.0193C48.6677 79.9201 48.5065 80.0931 48.6042 80.2754C48.3379 80.3516 48.4698 79.9708 48.2719 80.0424C47.8247 80.2085 47.2676 79.8947 46.8889 80.3331C46.8766 80.347 46.796 80.3354 46.7765 80.3124C46.625 80.1324 46.4295 80.2362 46.2609 80.2524C44.6213 80.4254 42.9817 80.6285 41.3397 80.7785C40.9072 80.8177 40.5113 80.9608 40.0959 81.0323C39.7783 81.0877 39.3751 80.9585 39.1527 81.2215C38.9279 81.4892 38.383 80.9354 38.3611 81.5423C38.3195 81.5376 38.256 81.5492 38.2413 81.5284C38.0776 81.3161 37.8846 81.4684 37.6989 81.473C37.2761 81.4869 36.917 81.7061 36.5089 81.7753C35.7074 81.9091 34.9719 82.253 34.1876 82.4583C33.562 82.6245 32.9976 83.0121 32.3427 83.1667C32.0935 83.2244 31.876 83.4229 31.6317 83.4505C31.3849 83.4759 31.1527 83.4159 31.0306 83.7021C30.9841 83.8128 30.8449 83.8174 30.7691 83.709C30.5565 83.4044 30.2829 83.5175 30.1118 83.6905C29.9261 83.882 29.7453 83.9582 29.4863 83.9374C28.9951 83.8959 28.6555 84.212 28.3354 84.4682C28.0886 84.6643 27.8516 84.4428 27.6194 84.602C27.1405 84.932 26.6934 85.3012 26.1876 85.6011C25.6256 85.9311 25.2004 86.4134 24.7557 86.8726C23.7978 87.8625 22.7935 88.8178 21.9237 89.8815C21.3592 90.5738 20.8852 91.3191 20.3989 92.0598C20.0275 92.6252 20.0128 93.2782 19.661 93.8204C19.6488 93.8366 19.6781 93.8735 19.6805 93.9035C19.7294 94.4111 19.6659 94.9326 19.8711 95.4265C19.9322 95.5741 19.8662 95.7449 19.7587 95.8764C19.6903 95.9572 19.6414 96.0287 19.6512 96.1464C19.6854 96.5687 19.7001 96.9909 19.7245 97.4132C19.7343 97.5863 19.81 97.7432 19.8613 97.907C19.9542 98.207 20.0495 97.8678 20.1595 97.9393C20.0519 98.1562 19.8369 98.3847 19.8589 98.5877C19.986 99.7184 19.9811 100.874 20.6017 101.917C21.1613 102.864 21.5767 103.902 22.6127 104.516C22.6469 104.536 22.6567 104.62 22.6518 104.67C22.6274 104.938 22.8033 105.099 22.9988 105.24C23.2993 105.457 23.6341 105.637 23.9151 105.875C24.2352 106.142 24.592 106.355 24.9267 106.597C25.2297 106.816 25.6818 106.729 25.8943 107.082C25.9285 107.144 25.9945 107.059 26.0458 107.04C26.2071 106.975 26.3146 107.042 26.4515 107.139C26.8888 107.446 27.3165 107.797 27.81 107.995C28.46 108.256 29.1588 108.441 29.8552 108.561C30.3904 108.655 30.9279 108.923 31.4997 108.706C31.8809 109.071 32.394 108.985 32.8583 109.05C33.413 109.124 33.9725 109.168 34.5272 109.228C35.1112 109.288 35.6928 109.352 36.2743 109.414C37.7453 109.414 39.2163 109.414 40.6873 109.414C41.1662 109.262 41.6744 109.117 42.1631 109.17C42.9451 109.251 43.6781 108.981 44.4429 109.008C44.8363 109.022 45.2224 108.886 45.5987 108.884C46.1607 108.881 46.6738 108.722 47.209 108.644C47.7196 108.568 48.157 108.166 48.719 108.344C48.7459 108.351 48.7972 108.302 48.829 108.275C49.1222 108.009 49.5058 107.912 49.8724 107.79C50.6421 107.534 51.3531 107.183 52.0373 106.747C52.3354 106.556 52.6531 106.096 53.1662 106.429C53.2468 106.479 53.3079 106.392 53.3177 106.316C53.3421 106.11 53.5107 106.022 53.6744 105.953C54.041 105.799 54.3317 105.54 54.7154 105.383C55.1454 105.206 55.5853 104.899 55.9811 104.608C56.6848 104.089 57.5059 103.72 58.168 103.17C58.6787 102.746 59.1332 102.224 59.5071 101.666C59.8467 101.158 59.8076 100.427 60.5113 100.131C60.5285 100.122 60.5456 100.074 60.5382 100.055C60.4087 99.8061 60.4942 99.7599 60.7581 99.813C60.8583 99.8338 60.9634 99.7276 60.9903 99.6307C61.0953 99.2615 60.9805 98.8 61.4961 98.6108C61.5059 98.6062 61.5132 98.5439 61.4985 98.53C61.3299 98.357 61.457 98.3062 61.6109 98.2231C61.8504 98.0916 62.0581 97.9324 61.7624 97.6532C61.7233 97.6163 61.7136 97.4755 61.7404 97.4594C62.1314 97.2286 62.041 96.8109 62.1974 96.4971C62.5737 95.7426 62.7838 94.9465 63.055 94.1643C63.1381 93.922 63.2016 93.712 62.8986 93.5274C62.7154 93.4189 62.7398 93.1951 62.9084 93.0359C63.011 92.9413 63.1234 92.8582 63.2456 92.7567C62.8278 92.6228 62.7691 92.5421 63.0037 92.2421C63.2969 91.8706 63.3336 91.4345 63.3287 91.0284ZM31.9151 104.954C31.8882 105.042 31.8198 105.125 31.7196 105.099C31.4386 105.028 31.2138 105.162 30.9719 105.247C30.9304 105.261 30.8571 105.286 30.8424 105.27C30.5077 104.908 29.9872 105.125 29.584 104.892C29.2541 104.703 28.8094 104.661 28.46 105.005C28.2816 104.772 28.7361 104.592 28.416 104.389C28.0153 104.135 27.9224 104.624 27.6488 104.656C27.529 104.541 27.6366 104.444 27.6512 104.338C27.6928 104.008 27.705 103.703 27.2138 103.634C26.8913 103.586 26.7593 103.143 26.3513 103.196C26.3415 103.198 26.2975 103.094 26.3048 103.048C26.3268 102.947 26.427 102.951 26.4881 102.99C26.8204 103.207 27.2285 103.223 27.5901 103.38C28.3256 103.699 29.0709 104.031 29.8919 104.137C30.1387 104.17 30.3733 103.858 30.6323 104.135C30.9426 104.465 31.4899 104.451 31.7856 104.816C31.8223 104.862 31.942 104.853 31.9151 104.954ZM46.84 105.016C46.8278 105.074 46.6445 105.111 46.6445 104.926C46.6445 104.899 46.5712 104.839 46.5565 104.846C46.1607 105.019 45.6549 104.733 45.3152 105.102C45.176 105.254 45.0978 105.3 45.0074 105.076C44.9609 104.956 44.8461 104.956 44.7361 104.979C43.7929 105.183 42.818 105.097 41.8724 105.256C41.7282 105.282 41.4814 105.185 41.4399 105.455C41.4301 105.526 41.3348 105.499 41.2835 105.483C40.6579 105.277 40.0324 105.429 39.402 105.441C39.0159 105.448 38.6372 105.316 38.3317 105.644C38.3146 105.66 38.2706 105.669 38.2462 105.662C37.2053 105.316 36.1228 105.453 35.055 105.418C34.8937 105.413 34.818 105.39 34.8204 105.247C34.8253 105.093 34.7129 104.998 34.6494 104.913C35.4044 104.913 36.1863 105.012 36.9145 104.876C37.3226 104.797 37.672 104.776 38.0581 104.848C38.2658 104.885 38.4319 104.62 38.6983 104.795C38.8009 104.862 38.8058 104.615 38.84 104.495C38.9035 104.557 39.0135 104.668 39.0184 104.666C39.3922 104.354 39.6976 104.892 40.052 104.737C40.4625 104.557 40.895 104.74 41.3299 104.663C41.8113 104.58 42.3049 104.416 42.7789 104.423C43.2896 104.43 43.7954 104.375 44.2914 104.329C45.0391 104.26 45.8357 104.37 46.5199 103.93C46.7374 103.791 46.9597 103.814 46.9744 104.144C46.9793 104.308 46.9548 104.446 47.1063 104.61C47.2554 104.772 46.8791 104.832 46.84 105.016ZM51.661 102.564C51.4215 102.693 51.5315 102.896 51.5071 103.062C51.4484 103.459 51.1992 103.676 50.8009 103.752C50.5248 103.805 50.2829 103.897 50.1827 104.195C49.8821 103.999 49.9774 103.369 49.3788 103.65C49.3763 103.454 49.501 103.51 49.5767 103.484C49.7355 103.433 49.9774 103.45 49.7746 103.168C49.6744 103.027 49.7771 102.801 49.9139 102.753C50.427 102.57 50.9011 102.27 51.4631 102.236C51.7025 102.22 51.6928 102.547 51.661 102.564ZM53.6329 97.2586C53.5132 97.3209 53.3812 97.404 53.3226 97.5101C53.22 97.697 53.1247 97.7893 52.9023 97.6716C52.8143 97.6255 52.697 97.6647 52.6506 97.7316C52.311 98.1839 51.6952 98.0524 51.2603 98.3385C50.8058 98.6385 50.2804 98.89 49.7477 99.0261C48.7117 99.2892 47.8027 99.8961 46.7105 99.9907C46.1118 100.041 45.5107 100.088 44.9096 100.152C44.267 100.219 43.6268 100.302 42.9866 100.388C42.7984 100.411 42.6396 100.736 42.5663 100.653C42.3488 100.406 42.0996 100.544 41.8748 100.521C41.2786 100.459 40.6922 100.572 40.1082 100.685C39.9005 100.724 39.7343 100.886 39.4753 100.738C39.3091 100.644 39.1845 100.9 38.9768 101.066C38.9231 100.708 38.7496 100.801 38.493 100.791C37.6622 100.764 36.8412 100.888 36.0129 100.858C35.8956 100.856 35.7441 100.759 35.7147 100.997C35.6928 101.181 35.5706 101.133 35.4802 101.008C35.3018 100.764 35.2798 100.759 35.1039 101.015C35.0061 101.156 34.84 101.285 34.7618 101.105C34.5541 100.618 34.0801 100.817 33.738 100.708C33.5523 100.648 33.3275 100.623 33.1173 100.6C32.9707 100.581 32.7826 100.484 32.6628 100.681C32.5749 100.821 32.4063 100.761 32.333 100.713C31.7709 100.33 31.1161 100.397 30.4832 100.314C30.2242 100.279 29.9628 100.071 29.6915 99.9584C29.2053 99.7576 28.7092 99.5984 28.1668 99.6146C28.1277 99.6146 28.0617 99.5961 28.0471 99.5684C27.7954 99.0769 27.2212 99.1854 26.8082 99.0169C26.5883 98.9292 26.471 98.77 26.2853 98.6708C25.7453 98.3916 25.215 98.0732 24.7337 97.727C24.4502 97.5217 23.9298 97.3763 23.9053 97.1478C23.8687 96.781 23.6097 96.5779 23.5022 96.2825C23.2651 95.6341 23.1356 94.9719 23.4679 94.3304C23.617 94.0443 23.3726 93.8689 23.3873 93.6335C23.3971 93.4974 23.2896 93.3543 23.4264 93.1882C23.6097 93.352 23.5779 93.682 23.9395 93.7004C24.1301 93.7097 24.2376 93.7397 24.2328 93.532C24.2279 93.2436 24.3012 93.0105 24.5675 92.819C24.7312 92.7013 24.7654 92.4706 24.8094 92.2675C24.9243 91.7091 25.2175 91.1437 25.6451 90.8484C26.0727 90.553 26.4734 90.1677 26.9964 89.9831C27.3409 89.8608 27.529 89.54 27.8442 89.3647C28.0177 89.2654 28.0471 88.9793 27.9322 88.6378C28.245 88.9401 28.3647 88.7786 28.5773 88.6447C29.0953 88.3194 29.6915 88.1071 30.2218 87.7979C31.0061 87.3387 31.9102 87.1725 32.741 86.8218C33.1857 86.6326 33.7477 86.5841 34.2438 86.4388C35.3385 86.1134 36.4771 86.0049 37.5816 85.758C38.559 85.5411 39.5584 85.5204 40.5333 85.315C41.088 85.1996 41.6842 85.2735 42.256 85.2273C42.6909 85.1904 43.1528 85.2735 43.5559 85.0243C43.6268 84.9804 43.749 84.932 43.8101 84.962C44.3085 85.195 44.807 85.0012 45.2884 84.9389C46.0092 84.8489 46.73 84.782 47.4557 84.7451C49.3372 84.6458 51.1674 84.8466 52.9854 85.3381C54.0727 85.6334 55.1234 85.9542 56.074 86.538C56.7435 86.9487 57.3079 87.4656 57.8528 88.0148C58.2804 88.4463 58.4099 89.0555 58.8058 89.4523C59.1577 89.81 58.9744 90.1354 59.0624 90.4676C59.1601 90.8438 58.84 91.3145 59.358 91.6029C59.4582 91.6606 59.3556 91.8291 59.314 91.9283C58.9133 92.8882 58.3928 93.7951 57.8235 94.6696C57.5498 95.0872 57.0343 95.3411 56.5798 95.6087C55.6097 96.1787 54.6347 96.7417 53.6329 97.2586ZM60.0911 96.0126C59.6854 96.5987 59.6512 97.2909 59.3702 97.907C59.1503 98.387 59.0404 98.89 58.5468 99.2384C58.2218 99.4669 58.2169 99.9653 57.8333 100.196C57.7771 100.231 57.7502 100.346 57.6989 100.355C56.7337 100.498 56.0788 101.191 55.2603 101.592C54.8547 101.791 54.4784 102.012 53.9677 101.971C54.2462 101.638 54.3366 101.274 54.1778 100.879C54.1485 100.805 54.1607 100.794 54.2242 100.759C54.7789 100.448 55.2138 99.9722 55.8785 99.7992C56.1448 99.7299 56.3892 99.4484 56.5895 99.243C57.0611 98.7631 57.8479 98.5808 58.0654 97.8655C58.647 97.6601 58.8889 97.0994 59.2847 96.7187C59.6635 96.3564 60.0422 95.8949 60.2401 95.3688C60.2646 95.3042 60.3085 95.2442 60.3843 95.108C60.4136 95.5118 60.2401 95.7956 60.0911 96.0126ZM36.5651 26.9146C36.4185 27.0715 36.311 27.2561 36.0666 27.0023C35.9298 26.8638 35.7734 26.9769 35.6903 27.1084C35.5804 27.2884 35.3971 27.4015 35.2676 27.5561C35.0061 27.8699 34.5125 28.0407 34.5565 28.5552C34.5639 28.6291 34.4661 28.7098 34.3611 28.7052C34.0263 28.6845 34.0556 28.9037 34.0385 29.1113C34.0116 29.4205 34.0165 29.739 33.7404 29.9859C33.6378 30.0805 33.5865 30.2397 33.6182 30.3897C33.672 30.6343 33.5254 30.8373 33.4912 31.0566C33.435 31.4142 33.0196 31.7557 33.5058 32.238C33.2151 32.1457 32.9976 31.998 33.0245 32.3303C33.0587 32.7526 32.7288 33.0641 32.6286 33.4587C32.4576 34.1278 32.1717 34.7832 31.9664 35.4616C31.8516 35.84 32.3305 35.7315 32.2108 35.9992C32.1815 36.0684 32.4307 35.96 32.5504 35.93C32.6188 35.9138 32.6897 35.8977 32.7581 35.8838C32.4258 36.1146 32.5529 36.5507 32.2743 36.7861C32.113 36.9245 32.1179 37.0768 32.2303 37.2522C32.3623 37.4506 32.5333 37.4206 32.7972 37.2545C32.6897 37.4991 32.6042 37.6122 32.7337 37.7875C33.066 38.2259 33.154 38.8097 33.6402 39.1651C33.6915 39.202 33.7111 39.292 33.7257 39.3612C33.821 39.7789 34.0776 40.0535 34.5199 40.1504C34.6518 40.1781 34.6103 40.2542 34.5932 40.305C34.5174 40.4942 34.6592 40.5911 34.7593 40.718C35.5437 41.7172 36.57 42.4764 37.5352 43.3024C38.2389 43.9047 39.0623 44.3408 39.8296 44.8485C40.8168 45.5038 41.821 46.1476 42.8913 46.6875C43.3995 46.946 43.8809 47.2552 44.355 47.5667C44.8265 47.8782 45.4105 47.8344 45.9237 48.0836C46.6567 48.4389 47.49 48.6235 48.2988 48.8174C49.1906 49.0319 50.1069 49.1704 51.0013 49.3642C51.6586 49.5073 52.3623 49.3388 52.9781 49.6827C53.0856 49.745 53.2762 49.7773 53.3763 49.7265C53.7429 49.5488 54.1412 49.685 54.4588 49.7288C55.2236 49.8303 55.9982 49.9457 56.763 50.0957C57.1711 50.1742 57.7404 50.4903 58.0972 49.8834C58.1314 50.1257 58.2413 50.3241 58.5101 50.2249C59.0257 50.0334 59.5462 50.2411 60.0764 50.1488C60.4283 50.0865 60.9536 50.2965 61.2151 50.1072C61.5889 49.8373 61.8968 49.9942 62.2413 49.9596C62.5248 49.9319 62.7814 49.738 63.0966 49.8903C63.2187 49.948 63.2554 49.7773 63.3434 49.738C63.5388 49.6527 63.5828 49.2281 63.8296 49.4173C63.9738 49.5281 63.683 49.7888 63.5315 49.9573C63.5242 49.9665 63.5486 50.0034 63.5633 50.0426C63.8369 50.0242 64.0324 49.8926 64.1888 49.678C64.5358 49.1935 64.741 48.6304 65.1467 48.1759C65.501 47.7836 65.7453 47.3221 66.0605 46.9021C66.5395 46.2583 66.9158 45.5476 67.3385 44.8669C67.6684 44.3316 68.03 43.817 68.3012 43.2471C68.5724 42.684 68.9072 42.1487 69.2444 41.6157C69.5596 41.1149 69.6647 40.5681 69.65 39.9427C69.782 40.0812 69.6574 40.2635 69.8308 40.275C69.975 40.2819 70.0019 40.1296 70.0581 40.0304C70.1607 39.8481 70.0825 39.6612 69.9506 39.5643C69.7331 39.4051 69.8357 39.3151 69.9188 39.1397C70.1485 38.6482 70.5077 38.1798 70.3366 37.5845C70.2365 37.2337 70.7789 36.9753 70.5126 36.5922C70.5101 36.5876 70.5517 36.553 70.5786 36.5392C71.0355 36.2761 70.6861 36.1769 70.4662 36.0615C70.0654 35.8538 69.7258 35.6254 69.9652 35.1154C70.0239 34.9931 69.8895 34.9816 69.8186 34.9493C69.242 34.6862 69.22 34.6724 69.4179 34.1025C69.4912 33.8925 69.4912 33.7033 69.3006 33.6133C69.022 33.4817 68.9585 33.1195 68.6067 33.0825C68.5138 33.0733 68.5065 32.9879 68.526 32.9118C68.5847 32.6603 68.377 32.5657 68.2255 32.4249C67.9567 32.1757 67.6048 32.0534 67.3092 31.8457C66.3391 31.1742 65.3177 30.5697 64.2988 29.9605C63.7001 29.6051 63.0282 29.3767 62.4637 28.9706C62.2413 28.8114 61.9261 28.7791 61.7526 28.5437C61.6134 28.3522 61.4154 28.7098 61.2786 28.486C61.1344 28.2553 60.9072 28.1237 60.6409 28.0337C60.0813 27.8468 59.5535 27.6415 59.055 27.2884C58.4832 26.8846 57.6964 26.7877 57.0709 26.49C56.3892 26.1624 55.7074 25.8808 54.9939 25.627C54.5541 25.4701 54.0801 25.3547 53.6476 25.2624C53.3055 25.1909 52.9096 24.7986 52.482 25.1309C52.4307 25.1724 52.3012 25.1309 52.2817 25.0132C52.2597 24.8702 52.1521 24.884 52.0324 24.8425C51.6073 24.6925 51.1528 24.6625 50.7398 24.554C50.0947 24.3856 49.4448 24.3741 48.8046 24.2494C48.4307 24.1779 48.0031 24.1295 47.7539 24.6579C47.7905 24.2264 47.5144 24.1571 47.2383 24.1479C46.8791 24.1341 46.5174 24.0995 46.1558 24.2079C45.9799 24.261 45.7966 24.2171 45.782 24.464C45.7771 24.5287 45.6818 24.5817 45.5987 24.5563C45.5132 24.5287 45.5107 24.4433 45.5107 24.3717C45.5083 24.2679 45.5962 24.0925 45.3788 24.1433C45.132 24.201 44.7752 24.021 44.6628 24.4179C44.6311 24.5217 44.5236 24.501 44.4356 24.4456C44.0153 24.1871 43.7367 24.1987 43.4289 24.5102C43.2896 24.6486 43.1576 24.651 43.0477 24.5217C42.7569 24.1825 42.6445 24.3256 42.5614 24.6556C42.5248 24.8056 42.4075 24.9002 42.234 24.914C42.1705 24.5194 42.1705 24.5194 41.8333 24.7432C41.8015 24.764 41.7282 24.7894 41.7184 24.7779C41.4716 24.4963 41.3372 24.7248 41.1857 24.8794C41.0953 24.9717 41.0538 24.8955 40.9732 24.8425C40.5993 24.6002 39.8809 24.8771 39.8394 25.2901C39.7465 24.8909 39.5877 25.0617 39.4264 25.2209C39.1943 25.4493 39.0135 25.7839 38.581 25.454C38.4368 25.3432 38.212 25.4286 38.0336 25.5555C37.4814 25.9501 37.0196 26.4277 36.5651 26.9146ZM46.7618 40.2012C46.5517 40.9119 46.0898 41.4703 45.6329 42.0356C45.4301 42.2848 45.3421 42.594 45.1051 42.8363C44.8608 43.0855 44.6433 43.0509 44.4454 42.8732C44.03 42.4948 43.4655 42.3933 42.9988 42.1118C42.9622 42.0887 42.9084 42.0818 42.8791 42.0541C42.2731 41.4841 41.413 41.2672 40.7923 40.725C40.4893 40.4619 40.1619 40.2312 39.8565 39.975C39.7148 39.8527 39.4264 40.0443 39.3702 39.6797C39.3336 39.4558 39.2969 39.2805 39.4191 39.0913C39.8345 38.4475 40.157 37.7437 40.7703 37.2268C40.9267 37.0953 41.0294 36.9476 41.0758 36.7584C41.0953 36.673 41.11 36.5853 41.2615 36.5784C41.3177 36.6107 41.4008 36.6476 41.4716 36.7007C42.2902 37.3237 43.2407 37.7552 44.0959 38.3275C44.9243 38.8836 45.7991 39.3774 46.6543 39.8989C46.7765 39.9727 46.8131 40.0281 46.7618 40.2012ZM48.3403 43.0278C47.9933 43.4317 47.7563 43.9162 47.4704 44.3639C47.4142 44.087 47.2652 43.9739 47.0013 43.9024C46.7936 43.847 46.7227 43.697 46.8669 43.4709C47.3482 42.7233 47.7954 41.9572 48.1693 41.1565C48.2817 40.9165 48.4038 40.7803 48.7166 40.9534C48.9634 41.0919 49.259 41.1495 49.5523 41.1588C49.8626 41.168 49.8724 41.3134 49.6818 41.4657C49.1271 41.9064 48.785 42.5064 48.3403 43.0278ZM53.7649 42.9125C53.2639 43.6024 52.7239 44.2647 52.2768 44.9869C52.1668 45.1646 51.9225 45.13 51.7685 45.0723C51.4851 44.9661 51.2847 45.0146 51.1161 45.3007C51.0795 44.9638 50.4955 44.6592 50.1778 44.8392C49.8455 45.0284 49.804 44.7031 49.6256 44.6477C49.501 44.6085 49.6207 44.3823 49.694 44.2739C49.9725 43.8655 50.1802 43.4247 50.5297 43.044C50.7667 42.7879 51.0281 42.5248 51.2212 42.2341C51.358 42.0287 51.4704 42.0333 51.6634 42.0979C52.0935 42.2387 52.526 42.3771 52.9634 42.4994C53.1344 42.5479 53.3153 42.6171 53.4985 42.5433C53.6231 42.4925 53.76 42.4833 53.8308 42.5894C53.8968 42.691 53.8284 42.8248 53.7649 42.9125ZM64.9145 45.0261C64.7459 45.2477 64.6604 45.5176 64.438 45.7115C64.2523 45.8707 64.1448 46.0853 63.7954 45.9307C63.5388 45.8199 63.4631 46.1637 63.3043 46.2999C63.2261 46.3645 63.1772 46.4937 63.055 46.4337C62.928 46.3714 62.9793 46.263 63.0526 46.1776C63.1088 46.1107 63.121 46.053 63.0306 46.0022C62.9402 46.3022 62.4051 45.7092 62.4246 46.2791C62.4295 46.4499 62.2291 46.5145 61.7869 46.5652C61.7966 46.406 62.1192 46.3668 61.9823 46.2007C61.8822 46.0737 61.6891 46.0622 61.5205 46.0599C61.1858 46.053 60.8461 46.0322 60.5138 46.0599C60.0666 46.0968 59.6415 45.8684 59.1845 45.9953C58.8156 46.0991 58.3831 45.7068 58.0312 46.1037C58.0165 46.1222 57.9188 46.1153 57.909 46.0968C57.5938 45.5615 57.0196 45.7438 56.5944 45.7738C56.1668 45.8038 55.8125 45.6099 55.4044 45.633C55.1528 45.6445 54.9133 45.5176 54.6176 45.5407C54.2658 45.5684 54.4075 45.2154 54.4808 45.0515C54.6592 44.6385 54.8913 44.2462 55.1039 43.847C55.1723 43.7178 55.2529 43.5955 55.3214 43.4663C55.3605 43.3878 55.3898 43.2771 55.4826 43.2701C55.9249 43.2286 56.3721 43.3578 56.8168 43.254C57.1173 43.7316 57.6427 43.5009 58.0605 43.5793C58.9793 43.7524 59.9225 43.7778 60.8534 43.7478C61.8308 43.7178 62.8376 43.7362 63.7734 43.4224C64.5187 43.1732 65.3226 43.0648 66.0141 42.7117C66.3122 42.5594 66.6787 42.4856 66.8864 42.181C66.9182 42.2087 66.9524 42.2364 66.9842 42.2618C66.2951 43.1848 65.6085 44.1078 64.9145 45.0261ZM38.686 28.2829C38.8082 28.0868 39.3165 28.0545 39.6561 28.0384C40.2254 28.013 40.7923 28.013 41.3641 27.9599C42.0752 27.8953 42.8033 28.1607 43.5144 28.043C44.2792 27.9137 44.9829 28.2991 45.76 28.1583C46.2193 28.0753 46.7154 28.3822 47.2163 28.4491C50.1509 28.8483 52.9365 29.7021 55.6073 30.925C56.7581 31.4511 57.9164 31.9611 59.0428 32.5357C60.961 33.514 62.8473 34.5432 64.6751 35.6715C65.3495 36.0892 65.694 36.7515 66.234 37.2591C66.6274 37.6306 66.6592 38.1706 67.099 38.5236C66.8205 38.6413 66.5688 38.7198 66.3538 38.8305C65.9359 39.0451 65.5938 39.3428 65.044 39.1697C64.9121 39.1305 64.6433 39.2874 64.4087 39.2989C64.2279 39.3082 64.0104 39.3428 63.876 39.5112C63.8272 39.5712 63.8638 39.7143 63.7294 39.6935C63.5315 39.6635 63.7734 39.4789 63.5462 39.3751C63.4875 39.4558 63.4313 39.6151 63.3263 39.652C63.2114 39.6935 63.077 39.8897 62.8864 39.5828C62.6861 39.262 62.2413 39.5528 61.9188 39.6128C61.7526 39.6451 61.6402 39.7674 61.5278 39.5574C61.501 39.5089 61.4179 39.472 61.369 39.5181C61.176 39.7027 61.0098 39.5643 60.8021 39.532C60.1741 39.4351 59.5266 39.3382 58.9011 39.3359C58.1534 39.3312 57.479 38.9943 56.7533 39.0382C56.1839 39.0728 55.793 38.699 55.2945 38.5882C54.9304 38.5075 54.581 38.3413 54.1974 38.4429C54.0654 38.4798 54.0385 38.4336 54.0165 38.3298C53.9921 38.219 53.8895 38.1521 53.7844 38.1452C52.8974 38.0898 52.1839 37.5891 51.3776 37.326C51.0624 37.2222 50.7667 37.0607 50.449 36.9753C49.3495 36.673 48.46 35.9877 47.4509 35.5285C46.989 35.3185 46.6176 34.9493 46.0556 34.8639C45.8357 34.8316 45.5938 34.4786 45.3177 34.3101C44.7703 33.9732 44.245 33.5994 43.6903 33.2694C43.358 33.0733 43.3042 32.8472 43.5828 32.4318C43.1625 32.6856 42.8278 32.8887 42.6543 32.3764C41.9823 32.3626 41.7429 31.758 41.2664 31.4788C41.2517 31.4719 41.2419 31.4534 41.2297 31.4534C40.8998 31.4627 40.8608 31.105 40.6506 31.0219C40.3134 30.8927 40.245 30.5928 40.0349 30.3943C39.81 30.1797 39.4826 30.0713 39.3116 29.7828C39.1967 29.5913 39.1161 29.379 39.0037 29.1875C38.7911 28.8321 38.4099 28.7075 38.1509 28.4168C38.3782 28.4722 38.493 28.5945 38.686 28.2829ZM37.4814 33.4864C37.9163 33.8717 38.3977 34.2017 38.7618 34.6655C38.9744 34.9378 39.529 35.0162 39.4924 35.4016C39.4582 35.7315 39.2065 36.0731 38.9695 36.343C38.6738 36.6799 38.5272 37.0976 38.2438 37.4276C38.0434 37.6652 38.1558 38.016 37.8308 38.2144C37.5181 37.8867 37.132 37.6422 36.6335 37.596C36.5358 37.5868 36.4551 37.4829 36.5138 37.4022C36.6604 37.2014 36.7312 37.0399 36.4625 36.8668C36.2108 36.703 36.052 36.8645 35.8516 37.0145C35.7221 36.613 35.898 36.2369 35.6292 35.93C35.3165 35.5769 35.0184 35.2147 34.7398 34.8362C34.6201 34.6747 34.5394 35.037 34.2584 35.0393C34.8009 33.8117 35.5779 32.7064 35.771 31.4004C35.9591 31.4119 36.0129 31.5111 36.0617 31.6196C36.3867 32.3418 36.8901 32.9602 37.4814 33.4864ZM0.403783 22.3435C0.0201541 22.4496 0.149659 22.6273 0.274278 22.8488C0.533289 23.3103 0.809404 23.7672 1.04887 24.231C1.25901 24.6417 1.77214 24.7986 1.87721 25.2624C1.88699 25.3086 2.03115 25.3386 2.11912 25.3594C2.21197 25.3801 2.28772 25.417 2.34881 25.4886C2.7471 25.9685 3.19914 26.4 3.75137 26.7208C4.31093 27.0438 4.81185 27.4499 5.4496 27.6761C6.01649 27.8745 6.5394 28.1283 7.15028 27.8768C7.26512 27.8307 7.37752 27.8076 7.50703 27.8399C7.80758 27.9161 8.02749 27.7822 8.20831 27.5699C8.38424 27.7684 8.57728 27.8353 8.88027 27.8238C9.49115 27.8007 10.0556 27.563 10.6909 27.6045C11.1747 27.6369 11.7147 27.4384 12.1912 27.4246C13.5669 27.3853 14.9035 27.1684 16.2425 26.9192C16.6604 26.8431 17.0684 26.7139 17.4863 26.6354C17.7208 26.5892 17.9799 26.6169 18.0556 26.3193C18.0703 26.257 18.1191 26.2431 18.1949 26.2754C18.3561 26.34 19.1087 26.1785 19.2578 26.1093C19.6243 25.9408 19.8784 25.3617 20.4282 25.8185C20.5235 25.897 20.6188 25.7539 20.6897 25.6916C20.9976 25.4193 21.3617 25.2463 21.7673 25.1517C22.405 25.0063 22.923 24.6094 23.5388 24.4156C24.372 24.1525 25.0464 23.6149 25.8039 23.2226C26.0507 23.0934 26.3488 23.1119 26.5565 22.9273C27.0721 22.4704 27.7734 22.3158 28.3549 21.9535C28.6848 21.7504 29.0855 21.5658 29.3934 21.3351C29.8577 20.9866 30.5101 20.8297 30.7618 20.2413C30.7716 20.2183 30.8082 20.1836 30.8278 20.1883C31.1918 20.2413 31.3067 19.8837 31.5681 19.7568C31.9591 19.5652 32.2621 19.1891 32.5993 18.8891C33.3201 18.2407 33.9066 17.4908 34.4954 16.7478C34.8937 16.2424 35.2261 15.6863 35.6146 15.181C36.592 13.9142 37.0342 12.3935 37.8919 11.076C37.9457 10.9929 38.019 10.8637 37.9872 10.7944C37.7942 10.3791 37.9383 9.94067 37.8553 9.5207C37.8235 9.3661 37.7844 9.19996 37.5914 9.14689C37.3959 9.09382 37.3055 9.23458 37.2004 9.36379C37.2932 9.15843 37.3055 8.94614 37.4399 8.75692C37.8577 8.1662 37.7429 7.65163 37.132 7.22936C37.0245 7.15552 37.0562 7.04938 37.132 7.01476C37.4716 6.85785 37.303 6.71018 37.1271 6.58096C36.7997 6.34328 36.7019 6.04331 36.7923 5.67411C36.8143 5.59104 36.8534 5.49874 36.7215 5.46643C36.6262 5.44567 36.5993 5.68795 36.4722 5.53797C36.3745 5.42028 36.526 5.32798 36.5406 5.21953C36.5553 5.10416 36.4576 5.04186 36.4234 4.95879C36.3036 4.67496 35.9982 4.48575 36.091 4.07732C36.1399 3.86042 35.5706 3.65274 35.8149 3.26047C35.7856 3.24893 35.7587 3.23509 35.7294 3.22816C35.402 3.12663 35.3556 2.90973 35.4802 2.64668C35.5926 2.40439 35.5315 2.28671 35.2651 2.1921C35.1503 2.14826 34.9304 2.17595 34.9182 1.97058C34.8888 1.46293 34.6787 1.57369 34.4735 1.81828C34.0972 1.59907 34.5981 0.952973 33.8968 0.899902C33.8748 0.897594 33.8528 0.828369 33.8381 0.786834C33.8015 0.692227 33.7819 0.567622 33.6427 0.58839C33.5132 0.60685 33.5205 0.731454 33.4961 0.830677C33.3421 1.39371 33.0318 1.52062 32.7166 1.10065C32.4796 0.78222 32.1961 0.62531 31.8662 0.436095C31.0965 -2.15545e-05 30.3562 -2.19643e-05 29.5913 0.383023C29.4716 0.443017 29.3177 0.503013 29.3103 0.359948C29.3006 0.0922781 29.1222 0.16381 28.9707 0.133813C28.6897 0.0807405 28.4405 0.23765 28.1643 0.20996C27.1894 0.110738 26.2315 0.32072 25.281 0.438402C24.3207 0.558392 23.3849 0.858366 22.4417 1.08681C22.3464 1.10988 22.2315 1.13527 22.2022 1.26218C22.1387 1.546 22.1265 1.55754 21.9139 1.40755C21.8235 1.34525 21.7673 1.2691 21.6427 1.3291C21.1588 1.56215 20.5504 1.57831 20.223 2.07903C20.1717 2.15749 20.0373 2.27978 19.9811 2.13441C19.8736 1.86674 19.7489 2.06288 19.639 2.09288C19.3897 2.15518 19.314 2.42285 19.0745 2.54745C19.0941 2.44131 19.1478 2.33286 19.1161 2.29824C19.0232 2.20594 18.9206 2.28901 18.8302 2.33516C17.8479 2.83358 16.8778 3.34815 15.8858 3.8235C13.8308 4.81111 11.9517 6.03408 10.2022 7.44396C9.92609 7.66779 9.6793 7.92853 9.38852 8.1339C8.5895 8.69001 7.86622 9.3361 7.17471 9.99835C6.01894 11.1083 4.90715 12.2666 3.84178 13.455C3.14539 14.2326 2.51252 15.0656 1.98472 15.9609C1.63042 16.5586 1.38118 17.1931 1.14172 17.8369C0.924248 18.4161 0.374461 18.8822 0.489305 19.5745C0.503967 19.6598 0.416 19.6829 0.354913 19.7268C0.000605479 19.9783 0.276721 20.3382 0.193642 20.6405C0.142329 20.8274 0.264503 20.8897 0.46487 20.862C0.533288 20.8528 0.552836 20.9359 0.516184 20.9936C0.244955 21.402 0.60415 21.3905 0.877821 21.4412C0.582158 21.6051 0.330478 21.7758 0.264504 22.0989C0.428218 22.1658 0.455096 21.9304 0.60415 22.0019C0.655463 22.1773 0.545506 22.3042 0.403783 22.3435ZM17.5229 23.3403C17.3397 23.3172 17.1515 23.3472 16.9902 23.4349C16.7508 23.5687 16.5871 23.7095 16.2205 23.5895C15.876 23.4787 15.9713 23.8433 16.0886 24.0672C15.143 23.8918 14.2486 23.7995 13.3421 24.021C13.1784 24.0602 13.0244 24.0395 12.9389 24.2264C12.8876 24.3348 12.697 24.3948 12.6262 24.3117C12.3867 24.0348 12.1521 24.2079 11.9395 24.3025C11.8076 24.3579 11.7465 24.3902 11.5901 24.321C11.4288 24.2518 11.1307 24.231 11.0232 24.3233C10.6738 24.621 10.3537 24.8056 9.85278 24.6371C9.75993 24.6071 9.64509 24.6717 9.53513 24.531C9.39585 24.3533 9.21259 24.4317 9.08797 24.5886C9.01711 24.6763 9.01466 24.8102 8.89738 24.8655C8.67257 24.8009 8.97557 24.4987 8.72144 24.501C8.45999 24.5033 8.15944 24.3971 7.93708 24.6256C7.71472 24.854 7.573 24.9578 7.30422 24.6094C7.18937 24.4617 6.88638 24.291 6.6347 24.2056C6.35125 24.1133 6.146 23.9241 5.87721 23.7972C6.03604 23.6841 6.18754 23.6264 6.36103 23.6241C6.43433 23.6218 6.54673 23.6287 6.5785 23.5895C6.79108 23.3195 6.98168 23.0472 7.41662 23.2826C7.4606 23.308 7.60477 23.1257 7.61698 23.3703C7.62187 23.4857 7.80025 23.4741 7.88821 23.4211C8.10324 23.2964 8.41356 23.3818 8.57239 23.1211C8.64325 23.0034 8.75077 23.1511 8.84118 23.1695C9.04154 23.2134 9.23214 23.2872 9.07819 22.9619C9.00245 22.805 9.15394 22.7819 9.25413 22.8165C9.65486 22.948 10.0703 22.5742 10.471 22.8673C10.5663 22.9388 10.6982 22.8442 10.7935 22.7611C10.8962 22.6757 11.0037 22.5673 11.1503 22.5927C11.3091 22.6204 11.5021 22.7634 11.5754 22.5373C11.6341 22.3504 11.4386 22.2442 11.2627 22.1635C11.3751 22.0966 11.4704 22.1058 11.5412 22.1635C11.9664 22.4958 11.9664 22.4958 12.2181 22.0043C12.3476 22.5627 12.5602 22.3573 12.9243 22.205C13.3445 22.0296 13.8308 21.905 14.2999 21.8612C14.6958 21.8243 14.8717 21.4505 15.2554 21.4135C15.2969 21.4089 15.1454 21.0397 15.3995 20.8759C15.4508 20.9659 15.3262 21.2174 15.6512 21.1066C16.1546 20.9359 16.6921 20.8505 17.215 20.7328C17.4056 20.689 17.5742 20.6313 17.606 20.9451C17.6158 21.049 17.6304 21.5381 18.0996 21.2959C18.2144 21.2382 18.2462 21.4574 18.1998 21.5174C17.887 21.9073 18.08 22.2812 18.2047 22.6619C18.3488 23.1026 18.0312 23.4095 17.5229 23.3403ZM23.1747 21.6651C22.6616 21.4781 22.2926 21.5912 21.9505 21.8358C21.8748 21.8889 21.7428 21.875 21.6378 21.8889C21.4985 21.9073 21.391 21.8243 21.3152 21.7481C21.2126 21.6397 21.3323 21.5381 21.4032 21.4551C21.6036 21.2128 21.6842 21.0074 21.2444 20.952C21.0489 20.929 21.0025 20.7836 21.0562 20.6751C21.3079 20.1583 20.912 20.2159 20.4698 20.1813C20.8925 19.939 20.7581 19.6391 20.7215 19.3806C20.6799 19.0991 20.8045 18.933 21.0244 18.8107C21.2639 18.6768 21.5547 18.6792 21.7526 18.4115C21.8455 18.2869 22.0385 18.5545 22.0605 18.7045C22.1509 19.3691 22.5028 19.9529 22.6665 20.5944C22.7178 20.7951 22.9475 20.7767 23.1772 20.779C23.033 21.049 22.9621 21.3028 23.1747 21.6651ZM28.2792 18.783C27.7661 19.053 27.2505 19.3206 26.7984 19.5537C26.3635 19.5675 26.2829 19.2676 26.1289 19.0737C26.0409 18.9607 26.0287 18.7968 25.8235 18.8199C25.8088 18.8199 25.7795 18.813 25.7795 18.8107C25.777 18.2823 24.7606 18.2061 25.1271 17.5093C25.1491 17.4677 25.1246 17.3962 25.1051 17.3431C24.9243 16.8978 25.1026 16.6647 25.5816 16.5793C25.8772 16.5263 26.0825 16.3094 26.2951 16.1317C26.4197 16.0278 26.5858 15.8225 26.6763 15.9263C26.8082 16.0809 27.0843 16.1478 27.0672 16.4201C27.055 16.6001 27.0183 16.7916 27.3604 16.7755C27.5486 16.7685 27.5608 16.9878 27.5046 17.1539C27.4044 17.4516 27.4997 17.6754 27.7563 17.8738C28.0128 18.0746 28.0202 18.4484 28.3134 18.6376C28.3623 18.6699 28.3452 18.7507 28.2792 18.783ZM33.7355 9.76068C33.8259 9.52763 33.9286 9.30611 34.1094 9.14227C34.7202 9.28072 34.4246 9.76068 34.4686 10.0907C34.5077 10.3883 34.5516 10.6675 34.7105 10.9237C34.752 10.9929 34.7887 11.046 34.7545 11.1198C34.5834 11.519 34.8424 11.7336 35.1967 11.939C34.8693 12.0266 34.7667 12.2066 34.7618 12.4881C34.752 13.1527 34.3146 13.6465 33.9701 14.1795C33.5009 14.9041 32.8998 15.5317 32.333 16.1824C32.091 16.4617 31.8809 16.8862 31.3849 16.404C31.2603 16.2817 30.9084 16.3324 30.6934 16.4847C30.6201 16.3232 30.7105 16.2517 30.7716 16.1732C30.9328 15.9655 31.077 15.8225 30.7154 15.5963C30.5174 15.4717 30.1705 15.2156 30.3439 14.8233C30.3904 14.7172 30.2706 14.5833 30.1362 14.5857C29.9408 14.588 29.7526 14.5049 29.7746 14.3526C29.8113 14.1103 29.8308 13.8034 30.1216 13.6857C30.7178 13.4458 31.1185 13.005 31.551 12.5712C31.8198 12.3035 32.1424 12.0959 32.3867 11.7751C32.8852 11.129 33.435 10.5222 33.7355 9.76068ZM2.88393 19.9783C3.16493 19.8029 3.39707 19.5145 3.23335 19.2537C2.73243 18.4576 3.32376 17.9015 3.67074 17.327C4.08858 16.6393 4.58705 15.9817 5.13195 15.3794C5.48626 14.9872 5.92608 14.6641 6.2755 14.2511C6.80819 13.6188 7.47038 13.0835 8.18388 12.6543C8.59927 12.4051 8.81185 11.9413 9.32987 11.8097C9.50336 11.7682 9.68663 11.5375 9.79414 11.4013C10.1778 10.9075 10.8619 10.8175 11.2382 10.3352C11.4068 10.1183 11.7587 10.1507 11.9786 9.93605C12.5773 9.35226 13.4447 9.14227 14.1045 8.66001C14.5663 8.32311 15.2089 8.29081 15.5583 7.81316C15.9517 7.93315 16.1375 7.58933 16.4062 7.45088C16.9169 7.18552 17.474 7.01246 17.9945 6.76325C18.3122 6.61095 18.7202 6.52788 19.0916 6.41712C20.0715 6.11946 21.0098 5.71103 22.0092 5.46643C22.4441 5.36029 22.9524 5.31414 23.2896 5.09493C23.6927 4.83418 24.1252 4.94263 24.5186 4.83649C24.9634 4.71419 25.4814 4.63343 25.9701 4.59651C26.6274 4.54805 27.2651 4.42575 27.9127 4.33345C28.0593 4.31038 28.1961 4.23423 28.3525 4.31038C28.4111 4.34038 28.5333 4.3473 28.57 4.31269C29.066 3.83042 29.6647 4.22269 30.2071 4.14655C30.4734 4.10963 30.7984 4.02656 30.9206 4.51575C31.011 4.87341 31.5779 4.95417 31.9542 5.07647C32.2108 5.15954 32.1448 4.79957 32.2328 4.62189C32.4185 4.77188 32.6213 4.87572 32.4234 5.12031C32.3769 5.178 32.3305 5.27491 32.4038 5.31645C33.0049 5.65565 32.2328 6.19099 32.6115 6.55557C32.4307 7.21782 32.2523 7.88008 32.0691 8.54002C31.9078 9.1192 31.5437 9.5507 31.0135 9.8876C30.2315 10.3837 29.5278 10.9998 28.6726 11.3782C27.7221 11.7959 26.8888 12.3866 25.9945 12.8873C25.4912 13.1665 24.8998 13.3488 24.57 13.868C24.5406 13.9165 24.3843 13.9419 24.3183 13.9119C24.1301 13.8357 23.964 13.9073 23.8418 13.9926C23.1405 14.4864 22.2242 14.6987 21.7111 15.4417C21.6817 15.4833 21.6133 15.5363 21.5718 15.5294C20.8998 15.4233 20.4673 15.8779 19.9395 16.1271C19.1039 16.5193 18.3855 17.0939 17.5425 17.4793C16.9145 17.7677 16.1985 17.9061 15.6781 18.393C15.2309 18.2523 14.9841 18.5892 14.6762 18.7761C14.5858 18.8291 14.493 18.8914 14.4319 18.9699C14.3439 19.0899 14.2877 19.2283 14.0874 19.1937C13.8674 19.1522 13.997 18.9491 13.8821 18.8176C13.6817 19.1083 13.2639 18.9999 13.044 19.2699C12.9634 19.3668 12.8681 19.2976 12.8363 19.2053C12.7703 19.0137 12.5309 19.0714 12.4991 19.1014C12.1057 19.4752 11.5779 19.286 11.1283 19.4083C10.6494 19.5352 10.1582 19.6229 9.67441 19.736C9.29078 19.826 9 19.9621 8.79231 20.2829C8.70923 20.4075 8.54307 20.4259 8.37936 20.3705C8.35492 20.2275 8.62615 20.1929 8.51863 20.0452C8.40379 19.8929 8.23275 19.9783 8.09347 20.006C7.52657 20.126 6.96701 20.3221 6.39524 20.3613C5.9774 20.3913 5.5449 20.3405 5.12462 20.4213C4.86561 20.4721 4.5846 20.4582 4.41356 20.7213C4.3427 20.8297 4.14966 20.8113 4.10324 20.7051C3.92486 20.3059 3.6463 20.5159 3.39218 20.5828C3.26512 20.6151 3.13073 20.7328 3.02077 20.5875C2.89859 20.4259 2.78863 20.2459 2.71289 20.0613C2.67868 19.976 2.82773 20.0129 2.88393 19.9783ZM17.3079 76.798C17.3861 76.9711 17.6182 76.8211 17.7722 76.8696C18.0483 76.9549 18.3122 76.8326 18.5785 76.8326C18.8986 76.8303 19.055 76.5327 19.3433 76.5281C19.9786 76.5211 20.5748 76.3089 21.1808 76.1819C21.65 76.085 22.1314 75.8958 22.6005 75.7251C22.8693 75.6258 23.1527 75.4689 23.3384 75.3282C23.5755 75.1505 23.8223 75.0282 24.0764 74.9705C24.6139 74.8459 25.0929 74.6336 25.5767 74.3867C25.9774 74.1813 26.4075 74.0083 26.8473 73.8583C27.2725 73.7175 27.7001 73.4453 28.0886 73.1614C28.7825 72.6538 29.518 72.2084 30.1558 71.6177C30.6152 71.1931 30.9841 70.7016 31.4411 70.2794C32.0202 69.7463 32.614 69.2133 33.0587 68.5603C33.154 68.4195 33.3128 68.3018 33.4692 68.2211C33.6549 68.1219 33.7624 67.9788 33.8626 67.8127C34.0654 67.4734 34.2804 67.1481 34.5468 66.8435C34.9597 66.3728 35.3604 65.8767 35.6708 65.3436C36.4429 64.0122 37.0684 62.6139 37.6989 61.2201C38.1338 60.2556 38.1216 59.2057 38.19 58.1766C38.1973 58.0796 38.234 57.932 38.1265 57.8973C37.7257 57.7658 37.8504 57.5789 38.0092 57.3435C38.1118 57.1936 37.9457 56.2429 37.8259 56.2244C37.2248 56.1275 37.4765 55.7837 37.5718 55.486C37.6011 55.3891 37.6402 55.306 37.5987 55.1976C37.391 54.6392 37.2224 54.0738 36.6873 53.6816C36.5187 53.5593 36.3036 53.4347 36.2206 53.2224C36.0177 52.6824 35.617 52.4401 35.0501 52.5232C34.9377 52.3501 35.336 52.1494 34.9915 52.0755C34.7887 52.034 34.5614 52.1471 34.5541 51.8171C34.5492 51.7133 34.449 51.7571 34.3782 51.8009C34.2609 51.8702 34.2584 52.0386 34.0996 52.0825C34.0067 51.6579 33.3275 51.7317 33.3103 51.2402C33.3103 51.2287 33.2224 51.201 33.1833 51.2125C33.0025 51.2633 32.9365 51.1479 32.8656 51.0325C32.7068 50.7787 32.4893 50.7095 32.1692 50.7464C31.9738 50.7672 31.6903 50.9264 31.5413 50.5987C31.4118 50.3172 31.226 50.308 31.0403 50.571C30.9304 50.7303 30.7691 50.7903 30.537 50.758C30.664 50.488 30.7545 50.1049 30.4124 50.0772C30.0092 50.0426 29.6231 49.9826 29.2346 49.888C29.1295 49.8626 29.0367 49.9019 28.9145 49.8188C28.7361 49.6965 28.4722 49.5373 28.3036 49.9065C28.2157 50.0957 27.8149 50.0911 27.8052 50.038C27.7587 49.7588 27.2627 49.865 27.3384 49.5073C27.3555 49.4196 27.2041 49.4081 27.1136 49.4335C26.945 49.4773 26.7764 49.3919 26.6323 49.4035C26.2829 49.4288 25.7966 49.1404 25.6402 49.7311C25.5498 49.5581 25.6402 49.2419 25.3739 49.2765C24.9707 49.3319 24.5749 49.1773 24.1986 49.2673C23.9542 49.325 23.5535 49.1035 23.4679 49.5558C23.4606 49.5927 23.3336 49.5188 23.2969 49.4588C23.0916 49.1335 22.9597 49.1796 22.8253 49.5119C22.7642 49.6642 22.6176 49.7196 22.4881 49.5419C22.383 49.3965 22.2584 49.4081 22.0898 49.4496C21.8552 49.5073 21.606 49.5073 21.3641 49.535C21.0904 49.565 20.8192 49.5996 20.5846 49.7565C20.4307 49.8603 20.3794 50.3126 20.0446 49.8926C19.986 49.8188 19.7587 49.9434 19.7343 50.1211C19.7245 50.188 19.7221 50.3172 19.639 50.2272C19.3824 49.948 19.1967 50.2088 18.9963 50.278C18.62 50.4049 18.4075 50.7718 17.9041 50.7833C17.4887 50.7903 17.0806 51.1087 16.6677 51.2818C15.9493 51.5817 15.248 51.9325 14.5736 52.2947C13.6598 52.7886 12.7728 53.3493 11.9224 53.9585C10.7642 54.7868 9.70617 55.7075 8.70678 56.7067C7.6683 57.7451 6.67379 58.8203 5.6573 59.8772C4.97801 60.581 4.47954 61.3978 3.92975 62.1801C3.52901 62.7477 3.49969 63.493 3.00611 64.0376C2.92791 64.123 2.86683 64.2753 2.84728 64.4299C2.74221 65.2583 2.60537 66.0843 2.49542 66.9127C2.46365 67.1481 2.44655 67.3512 2.26328 67.5565C2.12889 67.7065 1.66707 67.9811 2.25595 68.1911C2.30482 68.2095 2.27794 68.2534 2.26328 68.2995C2.07513 68.8187 2.14111 69.3379 2.27794 69.8548C2.3317 69.8502 2.3708 69.8571 2.3879 69.8432C2.46609 69.7671 2.51741 69.5963 2.65913 69.7002C2.8033 69.8017 2.6127 69.8548 2.57361 69.9309C2.40256 70.2586 2.18265 70.6047 2.54429 70.9209C2.7471 71.1008 2.84972 71.267 2.79597 71.5277C2.78619 71.5739 2.8766 71.6431 2.92791 71.6939C3.49725 72.2361 4.21075 72.6007 4.79963 73.1453C5.89432 74.1583 7.28467 74.839 8.59683 75.5889C8.9267 75.7781 9.36408 75.7966 9.69884 76.062C9.94808 76.2581 10.3317 76.2719 10.6152 76.4081C11.6659 76.918 12.8216 76.918 13.9359 77.1142C14.0971 77.1419 14.1851 77.0449 14.2877 76.9549C14.4148 76.8442 14.6445 76.7173 14.7324 76.8234C15.0648 77.2111 15.5315 76.9965 15.9151 77.1165C16.3647 77.2549 16.6799 76.9134 17.0562 76.8003C17.2639 76.7357 17.1368 76.4958 17.1466 76.3319C17.1515 76.2604 17.1979 76.1889 17.2883 76.1842C17.4154 76.1796 17.5327 76.2235 17.6182 76.3089C17.6793 76.3688 17.6353 76.4427 17.5791 76.4981C17.4765 76.595 17.237 76.6411 17.3079 76.798ZM24.6653 71.1331C24.2645 71.4839 23.7465 71.6292 23.2676 71.8346C23.0672 71.92 22.9597 71.7169 22.8888 71.5554C22.862 71.4862 22.9695 71.3685 22.8253 71.3454C22.6909 71.3247 22.5956 71.3939 22.5639 71.53C22.5492 71.5969 22.5272 71.6846 22.4343 71.68C22.3366 71.6777 22.3366 71.5854 22.3073 71.5208C22.1582 71.2162 22.3171 70.8147 22.6152 70.6278C23.1185 70.3117 23.661 70.0925 24.2328 69.9194C24.5602 69.8225 24.6775 69.9563 24.7044 70.2263C24.6873 70.487 24.5504 70.7386 24.7239 70.9878C24.7581 71.0362 24.7141 71.0893 24.6653 71.1331ZM34.4515 62.3716C34.5223 62.81 34.4539 63.2046 34.1143 63.523C34.0825 63.553 34.0458 63.5853 34.0287 63.6222C33.2444 65.3852 31.8076 66.6889 30.4612 68.0411C29.8723 68.6318 29.0929 69.0518 28.394 69.5433C28.3061 69.6056 28.0935 69.7048 28.0813 69.6056C28.0471 69.3379 27.5168 69.4856 27.6708 69.1233C27.749 68.9387 27.551 68.9249 27.4899 68.8279C27.3775 68.6526 27.226 68.5026 27.6292 68.3849C28.0862 68.2511 28.5749 68.0826 28.8265 67.6142C29.0025 67.2888 29.4472 67.3535 29.6964 67.1019C29.9921 66.8043 30.3879 66.5897 30.7056 66.3382C31.2651 65.8974 31.8467 65.4359 32.267 64.8383C32.4087 64.6398 32.7459 64.5683 32.8876 64.3699C33.3812 63.6869 34.0874 63.1515 34.4515 62.3716ZM11.4411 68.8072C11.0623 68.7887 10.686 68.731 10.3097 68.6733C9.47893 68.5464 8.69457 68.2626 7.86866 68.1196C7.54124 68.0642 7.292 67.6696 7.10385 67.365C6.96213 67.1412 6.64692 67.035 6.67624 66.6704C6.69334 66.4858 6.3537 66.5712 6.19487 66.5851C5.83323 66.6128 5.59133 66.5551 5.59377 66.1536C5.59377 66.1259 5.58155 66.0866 5.562 66.0751C4.86805 65.6667 5.36652 65.1313 5.41784 64.6652C5.47892 64.1437 5.6182 63.643 5.9774 63.1838C6.38057 62.6692 6.69579 62.0924 7.12828 61.587C7.35553 61.3217 7.67074 61.1855 7.9102 60.934C8.35003 60.4725 8.66524 59.9049 9.2248 59.5426C9.65486 59.2634 10.0922 58.968 10.4637 58.6404C10.9743 58.1904 11.5803 57.865 12.1326 57.4912C12.8387 57.0159 13.5571 56.5013 14.4246 56.2475C14.7667 56.146 15.1576 56.0767 15.3946 55.7491C15.5364 55.5506 15.8345 55.5714 16.0373 55.4814C17.0977 55.0176 18.2291 54.7015 19.3091 54.2723C19.6243 54.1454 20.0128 54.1338 20.2596 53.8569C20.2767 53.8362 20.3256 53.8154 20.3378 53.8223C20.7654 54.1015 21.1955 53.7762 21.6231 53.8292C21.9603 53.8708 22.2902 53.7762 22.6201 53.7231C23.2505 53.6192 23.8785 53.7531 24.5089 53.7577C25.8137 53.7692 27.0794 54.12 28.3745 54.1823C29.0025 54.2123 29.5865 54.4061 30.1827 54.5169C30.7618 54.623 31.3873 54.7984 31.8882 55.156C32.1179 55.3199 32.3207 55.3499 32.5602 55.2299C32.8705 55.073 32.9536 55.2345 33.0074 55.486C33.1124 55.9844 33.3592 56.4759 33.391 56.9559C33.4227 57.4105 33.6524 57.8973 33.369 58.3796C33.1686 58.7211 33.4814 59.1365 33.325 59.4941C32.8216 60.6386 32.2059 61.6863 31.121 62.4823C29.9163 63.3684 28.6824 64.1807 27.2774 64.7414C26.4099 65.0875 25.5498 65.4544 24.7532 65.9159C24.2548 66.2066 23.683 66.1813 23.1845 66.4697C22.2804 66.9981 21.2468 67.2681 20.2328 67.5588C20.2034 67.5681 20.1692 67.5773 20.1497 67.5981C19.7392 68.0273 19.1405 67.9119 18.6323 68.0342C17.7233 68.2557 16.7899 68.3849 15.8662 68.5441C15.6414 68.5834 15.3702 68.5418 15.4557 68.9526C15.2529 68.588 15.0916 68.5557 14.9279 68.8718C14.8131 69.0887 14.7129 69.061 14.6469 68.851C14.62 68.768 14.5883 68.7103 14.5028 68.7241C13.7599 68.8256 12.9682 68.6157 12.2816 69.0379C12.2108 69.0795 12.1668 69.151 12.1155 69.0425C11.9737 68.7449 11.6952 68.8187 11.4411 68.8072ZM15.4191 73.2283C14.6249 73.196 13.8259 73.1384 13.044 73.0484C12.7801 73.0184 12.4795 72.9191 12.179 72.9284C11.9884 72.9353 11.9591 72.5961 11.7538 72.6169C11.9395 72.5592 12.1252 72.5846 12.2963 72.6238C12.6262 72.6999 12.934 72.7045 13.2444 72.5684C13.2835 72.5499 13.3372 72.5338 13.3714 72.5453C14.0874 72.8084 14.7593 72.5084 15.4459 72.4069C15.5315 72.393 15.6732 72.3584 15.6854 72.31C15.7514 72.0538 15.876 72.16 16.0055 72.243C16.3183 72.4438 16.6188 72.4576 16.9072 72.1946C16.9976 72.1115 17.0855 72.0861 17.2321 72.1184C17.606 72.1992 17.9163 72.0954 18.1142 71.6639C18.2755 72.0631 18.5321 72.0054 18.7838 71.9062C18.9988 71.8208 19.2089 71.8438 19.3189 72.0123C19.4484 72.213 19.5877 72.4669 19.5584 72.6792C19.5315 72.8776 19.2163 72.9538 18.9963 72.9653C17.8015 73.0299 16.6237 73.2791 15.4191 73.2283Z" fill="#08AB9B"/>
</g>
</svg>
