<svg width="188" height="188" viewBox="0 0 188 188" fill="none" xmlns="http://www.w3.org/2000/svg">
<path d="M121.644 58.0887C108.331 47.1773 89.1171 38.0845 72.4271 46.7736C70.8859 48.062 62.8498 49.7647 65.9111 52.461C37.5725 61.3888 32.6961 97.7038 44.7274 121.433C52.121 136.95 70.0327 145.271 86.3717 147.595C88.3167 147.827 90.2651 147.939 92.2171 147.939C113.183 147.939 133.97 134.861 140.844 114.671C146.612 94.2879 137.871 71.2645 121.644 58.0887ZM132.092 112.017C126.363 127.826 110.413 138.625 93.7724 139.415C78.9605 139.991 63.2992 133.429 54.0659 121.721C47.2165 110.02 43.295 95.8888 46.4792 82.4321C49.8741 62.7966 71.0193 52.8471 89.6332 52.8471C91.0199 52.8471 92.3997 52.9033 93.7513 53.0157C97.4235 54.3392 97.2339 49.5225 93.6038 49.4523C85.8521 47.7215 77.6651 48.4447 70.1556 50.9373C92.4874 39.3764 117.119 58.6048 127.763 77.7944C132.675 88.2389 135.378 100.713 132.092 112.017ZM120.166 79.5288C121.086 81.1402 119.201 83.1553 117.645 81.909C113.38 77.0186 105.8 79.5498 102.97 84.6966C102.742 85.49 102.096 86.1781 101.285 86.1781C101.145 86.1781 101.004 86.157 100.857 86.1114C96.5739 83.1905 105.905 75.365 109.364 75.2211C113.155 74.6664 118.172 76.0321 120.166 79.5288ZM77.7915 92.7186C78.3567 94.0667 76.503 94.0386 75.6429 94.0351C74.1789 94.0176 72.715 94.1088 71.2755 94.4073C68.5231 95.0076 65.6233 95.8361 63.7029 98.0303C62.7058 98.9958 62.604 100.941 61.0769 100.941C60.9224 100.941 60.7574 100.923 60.5713 100.878C57.9102 99.9332 60.2904 96.2153 61.4279 94.8426C63.4326 92.5957 66.2025 91.0264 69.2147 90.7034C71.9321 90.3594 75.9132 90.4612 77.795 92.7186H77.7915ZM107.338 103.451C107.9 112.073 99.5967 118.171 91.4974 118.171C90.1703 118.171 88.8538 118.01 87.5794 117.666C84.9639 117.301 79.5925 113.885 84.1986 112.056C90.1914 114.991 93.3651 116.058 99.5229 111.929C101.889 110.381 103.237 107.755 103.75 105.038C103.855 103.233 106.327 101.039 107.341 103.451H107.338ZM32.1835 131.028C28.9325 132.232 22.8976 138.225 19.0323 138.225C18.2178 138.225 17.4981 137.958 16.9223 137.326C9.97105 130.652 37.8709 121.268 32.1835 131.028ZM51.4293 149.515C48.9016 152.717 46.6477 156.165 43.6671 158.984C43.5337 160.651 41.8837 161.908 40.2441 161.908C39.9668 161.908 39.6894 161.873 39.4156 161.796C36.5333 161.038 36.3648 157.144 38.7626 155.687C40.8585 152.247 47.5991 144.625 51.8893 145.629C53.5393 146.619 52.4896 148.504 51.4293 149.515ZM133.728 165.861C133.279 165.861 132.787 165.714 132.282 165.363C129.052 162.509 124.741 159.995 123.069 155.88C124.737 148.002 132.433 158.805 134.792 161.248C136.986 162.744 135.785 165.861 133.728 165.861ZM157.155 141.363C154.059 139.896 150.952 138.344 148.08 136.455C143.793 134.517 145.226 128.433 150.092 129.623C154.052 130.329 167.013 140.588 157.155 141.363ZM153.701 57.9272C156.506 56.3579 161.189 52.4785 163.759 56.2175C166.62 61.129 153.957 65.6789 150.39 66.0335C145.201 64.1868 151.106 59.335 153.697 57.9272H153.701ZM120.605 39.1342C121.044 34.4158 125.801 28.3036 130.073 26.3411C133.472 26.0392 133.861 29.9291 131.987 32.0004C130.74 33.8681 125.692 40.6087 122.539 40.6087C121.742 40.6087 121.068 40.1804 120.605 39.1342ZM187.442 94.1053C187.442 95.7378 186.435 97.0579 185.125 97.3142C183.303 97.6512 181.45 97.739 179.617 97.925C176.454 98.2129 173.262 98.4762 170.082 98.4762C167.435 98.4762 164.795 98.2936 162.179 97.7881C161.4 97.6336 160.631 97.4405 159.866 97.2299C157.759 96.6296 156.376 94.4002 158.904 92.9082C160.311 92.1779 161.867 92.0164 163.362 91.6829C168.955 90.4682 174.649 90.1909 180.326 90.4858C181.927 90.556 183.538 90.6332 185.125 90.8965C186.435 91.1458 187.442 92.4869 187.442 94.1053ZM83.019 17.8907C82.4888 12.572 82.4678 2.68924 88.0007 0.393218C91.3745 -0.747772 92.5752 6.72659 92.3259 14.2045C92.0977 21.1698 90.6127 28.1351 88.4711 28.1351C88.1341 28.1351 87.776 27.9595 87.4039 27.5804C87.0809 27.1591 86.9264 26.643 86.8211 26.1129C86.6385 26.1655 86.449 26.2042 86.2313 26.2042C86.1119 26.2042 85.9891 26.1936 85.8627 26.1761C83.0681 25.0772 82.8329 21.2716 83.019 17.8907ZM36.3613 27.6646C35.8522 20.7836 44.3026 24.1363 46.89 27.3943C48.9578 29.3217 56.2426 40.8439 50.6851 40.8439C50.3691 40.8439 50.011 40.8088 49.6073 40.7316C48.3048 39.8083 47.2481 38.5304 46.0509 37.4701C43.5161 38.5479 37.0248 30.0203 36.3613 27.6646ZM32.5626 62.3332C32.1554 62.9405 31.4603 63.2705 30.7511 63.2705C30.4667 63.2705 30.1824 63.2179 29.9085 63.1055C27.7038 62.126 25.3165 62.0312 22.9713 61.617C19.7133 61.1746 16.7643 59.651 13.5836 58.9629C12.4918 58.689 11.277 58.2607 10.5889 57.3304C9.16358 55.5048 10.5609 52.9033 12.7796 52.7032C17.4419 52.4048 22.1252 53.3562 26.2644 55.5469C27.8267 56.4105 37.3583 60.6515 32.5626 62.3332ZM20.3593 95.8888C15.1108 96.2293 9.90434 97.1843 4.63472 97.2194C4.48025 97.2334 4.3328 97.2404 4.18886 97.2404C0.084809 97.2404 -1.19661 91.8163 2.94957 90.391C5.74061 90.1207 8.51058 89.573 11.3262 89.4817C13.373 89.4677 15.4232 89.5765 17.47 89.6853C21.3072 89.9872 25.2638 89.8258 28.9676 91.0089C29.7856 91.202 30.9407 91.9638 30.3052 92.8906C29.259 93.9719 27.5318 94.0702 26.145 94.488C24.8987 96.3347 22.2621 95.5623 20.3593 95.8888ZM89.4647 181.526C89.4822 183.032 89.8789 184.591 89.5454 186.076C89.1452 187.354 87.8848 187.997 86.628 187.997C85.3676 187.997 84.1143 187.358 83.7141 186.076C83.2998 181.674 82.8118 177.226 82.8856 172.784C83.04 169.646 83.2366 166.391 84.5707 163.446C84.9358 162.642 85.9153 161.687 86.9685 162.214C88.4676 163.077 88.5975 166.641 88.917 168.164C89.4261 172.598 89.6718 177.075 89.4647 181.526Z" fill="#FFD04E"/>
</svg>
