<svg width="525" height="498" viewBox="0 0 525 498" fill="none" xmlns="http://www.w3.org/2000/svg">
<path d="M469.335 341.386C494.138 306.279 525 262.575 525 210.029C525 179.361 516.349 151.739 499.285 127.928C484.793 107.718 464.517 90.8088 439.014 77.6695C427.65 71.8142 415.963 67.0352 404.319 63.15C400.468 58.073 396.076 53.2514 391.136 48.6851C370.823 29.946 340.952 15.7487 304.755 7.62553C274.689 0.882589 241.448 -1.50085 211.164 0.92515C153.862 5.5157 72.4939 33.8251 29.2576 85.1299C7.32614 111.153 -2.35291 140.131 0.482064 171.262C2.76951 196.385 11.9497 220.044 24.1595 241.233C23.9709 247.307 24.1534 253.424 24.7071 259.577C27.7367 292.811 40.3785 326.508 62.2734 359.742C79.3076 385.583 101.452 410.548 128.098 433.939C149.221 452.484 169.254 466.578 189.348 477.042C216.055 490.953 242.592 498 268.198 498C289.704 498 310.57 493.063 330.233 483.316C333.305 481.796 336.322 480.185 339.291 478.525C344.274 481.517 349.153 483.864 353.971 485.596C360.365 487.889 366.607 489.032 372.66 489.032C379.924 489.032 386.914 487.378 393.582 484.082C415.994 472.974 431.866 451.888 447.476 429.427C448.584 427.841 449.727 426.223 450.883 424.582C461.371 409.74 473.253 392.916 473.253 374.213C473.253 364.077 470.533 355.054 465.186 347.247C466.542 345.344 467.917 343.399 469.335 341.386ZM3.25011 171.019C0.482065 140.654 9.94818 112.363 31.3869 86.9235C74.1061 36.2268 154.641 8.24571 211.389 3.7038C218.921 3.09578 226.775 2.78569 234.835 2.78569C288.998 2.78569 352.505 16.8249 389.25 50.7342C393.01 54.1999 396.441 57.8298 399.55 61.6117C359.215 48.9648 319.97 46.6726 296.913 46.6726C287.848 46.6726 278.93 47.0192 270.4 47.7002C235.669 50.4849 197.184 60.2983 162.051 75.3408C120.378 93.1862 85.8779 117.404 62.3099 145.373C39.4233 172.521 26.5504 203.493 24.4029 236.034C13.4584 216.164 5.36113 194.209 3.25011 171.019ZM402.604 65.5152C415.288 82.564 421.712 102.55 421.712 125.18C421.712 164.72 396.124 200.946 373.548 232.903C370.95 236.576 368.493 240.047 366.059 243.55C332.21 292.234 297.85 337.914 249.728 361.761C203.56 384.641 152.244 370.431 92.8619 318.3C73.8323 301.591 46.5229 274.23 26.9519 240.54C28.1686 207.014 40.9382 175.056 64.4331 147.166C87.7273 119.526 121.863 95.5696 163.14 77.9066C198.011 62.9797 236.174 53.2331 270.613 50.4788C279.076 49.7978 287.915 49.4573 296.907 49.4573C320.529 49.4573 361.271 51.8712 402.604 65.5152ZM329.004 480.836C309.731 490.388 289.284 495.227 268.204 495.227C243.048 495.227 216.95 488.284 190.638 474.579C170.751 464.224 150.888 450.246 129.936 431.853C103.478 408.627 81.4977 383.856 64.6035 358.222C42.9579 325.377 30.4683 292.106 27.4812 259.334C27.0675 254.81 26.8728 250.311 26.8728 245.83C46.4317 278.073 72.5791 304.187 91.0368 320.391C117.446 343.575 141.811 358.976 165.537 367.495C179.353 372.45 192.822 374.925 205.883 374.925C221.549 374.925 236.618 371.368 250.969 364.254C299.687 340.115 334.297 294.137 368.353 245.137C370.78 241.653 373.232 238.181 375.823 234.514C398.637 202.216 424.499 165.607 424.499 125.186C424.499 103.34 418.677 83.8774 407.148 67.0595C417.435 70.6651 427.723 74.982 437.755 80.1502C462.862 93.0889 482.81 109.712 497.04 129.564C513.757 152.882 522.238 179.963 522.238 210.042C522.238 261.711 491.65 305.008 467.078 339.793C465.843 341.538 464.65 343.234 463.476 344.9C461.791 342.748 459.911 340.693 457.8 338.747C438.065 320.543 402.001 314.572 375.026 316.737C348.703 318.847 311.313 331.865 291.419 355.462C281.272 367.507 276.788 380.932 278.108 395.354C280.87 425.694 305.369 451.365 319.72 463.969C325.542 469.083 331.145 473.357 336.614 476.865C334.096 478.227 331.565 479.565 329.004 480.836ZM461.779 347.272C461.098 348.257 460.416 349.224 459.741 350.19C426.622 397.835 390.102 446.47 339.364 475.321C333.603 471.721 327.665 467.24 321.539 461.859C307.492 449.529 283.535 424.466 280.858 395.086C279.617 381.424 283.882 368.692 293.536 357.231C312.907 334.248 349.469 321.546 375.233 319.485C378.658 319.218 382.236 319.072 385.904 319.072C410.476 319.072 439.263 325.426 455.902 340.772C458.117 342.821 460.069 344.992 461.779 347.272ZM470.479 374.219C470.479 392.046 458.865 408.481 448.62 422.989C447.458 424.636 446.308 426.254 445.201 427.853C429.797 450.009 414.169 470.791 392.353 481.602C377.058 489.178 360.468 487.67 342.071 476.956C392.614 447.747 429.013 399.276 462.028 351.777C462.509 351.078 462.996 350.385 463.488 349.686C468.13 356.836 470.479 365.05 470.479 374.219Z" fill="white"/>
</svg>
