<svg width="118" height="139" viewBox="0 0 118 139" fill="none" xmlns="http://www.w3.org/2000/svg">
<mask id="mask0_345_1256" style="mask-type:luminance" maskUnits="userSpaceOnUse" x="0" y="0" width="118" height="139">
<path d="M0.927734 0H117.246V139H0.927734V0Z" fill="white"/>
</mask>
<g mask="url(#mask0_345_1256)">
<path d="M114.546 99.5671L114.579 99.5823C114.561 98.831 114.461 97.5982 114.373 96.85C114 93.733 113.537 90.6312 113.031 87.5294C112.256 82.804 111.28 78.1361 109.844 73.5652C108.082 67.9644 104.862 63.4268 99.9392 60.1795C99.2001 59.6888 98.4035 59.2678 97.5887 58.7861C97.7492 58.671 97.8582 58.5832 97.9703 58.5105C100.115 57.1232 102.105 55.5359 103.829 53.6397C104.056 53.3913 104.334 53.2974 104.628 53.2095C106.385 52.6673 107.754 51.6283 108.702 50.0471C109.036 49.4989 109.284 48.89 109.678 48.3933C111.02 46.6848 112.177 44.8552 113.198 42.9408C116.151 37.44 117.72 31.6483 116.857 25.3508C116.451 22.3429 115.521 19.5167 114.006 16.8905C113.27 15.6152 112.35 14.4853 111.274 13.3585C112.083 13.2646 112.777 13.1041 113.413 12.7557C114.4 12.2135 114.633 11.2018 114.006 10.2779C113.673 9.78719 113.219 9.46004 112.704 9.19651C111.329 8.49376 109.844 8.42106 108.287 8.46649C108.421 8.03333 108.557 7.65772 108.663 7.26696C109.078 5.77361 109.024 4.29237 108.397 2.86566C107.988 1.94178 107.288 1.28446 106.231 1.22994C105.164 1.17844 104.368 1.69339 103.841 2.62636C103.514 3.20795 103.253 3.8168 103.132 4.48624C103.041 5.03148 102.905 5.56763 102.787 6.12802C102.493 5.88872 102.244 5.66759 101.978 5.47373C96.9556 1.76003 91.1972 0.333321 85.0814 0.0940212C82.7702 -0.0029105 80.4651 0.212157 78.2084 0.669553C69.0241 2.53246 62.1389 7.6244 57.4771 15.7303C55.3537 19.4228 53.7574 23.4031 51.4916 27.0259C50.6253 28.4072 51.4068 29.7188 53.0304 29.8611C53.9906 29.9399 54.8933 29.6188 55.8414 29.4128C55.0872 31.0546 55.2719 32.0451 56.5896 33.2628C56.8016 33.4658 56.8077 33.6596 56.7895 33.902C56.6623 35.4165 56.4896 36.9281 56.423 38.4517C56.3351 40.2601 56.0262 42.0473 55.9535 43.8587C55.8475 46.603 56.6835 49.1233 58.1314 51.4345C60.3699 55.0058 63.502 57.5715 67.1945 59.501C68.7121 60.2916 70.3084 60.9096 71.9109 61.6608C70.787 62.4695 69.7178 63.2329 68.6424 64.0114C68.491 62.9936 68.1487 62.5089 67.243 62.3151C66.6402 62.1878 66.4524 61.8546 66.3343 61.3245C66.1192 60.4007 65.6709 60.0523 64.7318 60.0311C63.9685 60.0099 63.2082 59.9857 62.4449 60.019C61.9451 60.0372 61.733 59.8312 61.624 59.3617C61.2787 57.9016 60.7698 57.5866 59.2794 57.7926C54.9115 58.4105 50.598 59.3132 46.336 60.4734C42.5042 61.5184 38.736 62.7573 35.2374 64.6869C34.4619 65.117 33.747 65.638 32.9928 66.1287C32.9383 65.741 32.914 65.4108 32.8535 65.0837C32.3446 62.4423 31.1814 60.0765 29.7001 57.8744C26.9073 53.7184 23.3966 50.2562 19.4405 47.227C18.8741 46.7909 18.3198 46.3365 17.6594 46.0548C17.4383 45.9609 17.2353 45.9154 17.0475 45.9154C16.5265 45.9154 16.1509 46.2698 16.0297 46.9181C15.948 47.3331 15.948 47.7632 15.9086 48.1842C14.2062 47.2422 13.452 47.5693 13.2975 49.6261C12.9158 49.411 12.5614 49.1778 12.1828 48.996C11.2347 48.5477 10.4471 48.8809 10.0654 49.8533C9.89276 50.3107 9.89276 50.7863 9.83218 51.2618C9.71708 52.213 9.62317 52.2857 8.72353 51.8979C8.17526 51.6617 7.65425 51.3618 7.09386 51.1619C5.74288 50.6772 4.58878 51.4951 4.56758 52.9369C4.55546 53.9274 4.81597 54.8725 5.14917 55.7964C6.98481 60.8611 8.8356 65.9137 10.8742 70.9056C11.0862 71.4206 11.1196 71.8356 10.8257 72.3717C10.1836 73.544 10.232 74.7587 11.0135 75.8825C11.1923 76.1369 11.2801 76.3792 11.2074 76.6731C10.9408 77.7393 11.3134 78.6026 12.0889 79.2993C12.2949 79.4871 12.3494 79.6628 12.3494 79.9112C12.3615 81.5106 13.3248 82.4496 14.6606 83.0312C15.0665 83.2129 15.2331 83.4159 15.3755 83.7885C16.6507 87.2538 17.9199 90.7251 19.4557 94.0874C20.0221 95.3264 20.8521 96.2593 22.0213 96.9621C25.5321 99.0673 29.1852 100.888 32.8868 102.645C32.7383 102.972 32.4385 103.148 32.184 103.347C29.9001 105.15 27.816 107.167 25.8077 109.263C24.6567 110.463 23.6025 111.762 22.3273 112.841C21.2519 113.752 20.0494 113.934 18.7196 113.631C17.2232 113.289 16.2478 112.298 15.4209 111.087C14.4001 109.584 13.3248 108.14 11.8011 107.085C8.4085 104.753 3.80727 105.062 2.01707 109.866C0.902352 112.856 1.07501 115.87 2.05039 118.838C3.45287 123.106 5.8489 126.766 8.94162 129.989C10.7985 131.924 12.7977 133.699 15.2816 134.778C19.0013 136.386 22.1122 135.801 24.6173 132.439C25.4139 131.367 26.1955 130.288 26.9346 129.177C27.2163 128.762 27.3496 128.695 27.6706 129.122C28.4097 130.116 29.1791 131.085 29.9606 132.051C31.451 133.881 32.9383 135.717 34.8103 137.171C36.2188 138.261 37.7546 138.997 39.6235 138.637C40.6595 138.437 41.6076 138.007 42.5496 137.552C42.6829 137.486 42.8102 137.41 42.9374 137.343C43.2706 137.043 43.631 136.756 43.9794 136.459H43.9582C44.2611 136.186 44.5277 135.956 44.773 135.735C45.0335 135.474 45.2819 135.208 45.5212 134.932C45.9362 134.475 46.3784 134.014 46.9116 133.699C47.057 133.611 47.2115 133.545 47.3659 133.484C47.8476 133.169 48.3686 132.936 49.035 132.909C51.6249 132.809 54.1451 132.179 56.6835 131.715C57.5104 131.561 58.3465 131.433 59.1734 131.327C59.3279 131.306 59.4733 131.273 59.6217 131.227L62.5327 130.24C64.2684 129.719 66.0071 129.21 67.7428 128.674C67.9821 128.601 68.0881 128.68 68.1972 128.874C68.3516 129.162 68.5182 129.443 68.7303 129.825C68.906 130.04 69.1059 130.234 69.2998 130.443C69.5936 130.752 69.8329 131.1 70.1055 131.421C70.6083 131.997 71.2414 132.394 71.8291 132.854H71.8442C72.7166 133.405 73.6405 133.854 74.6492 134.06C77.6601 134.678 80.6044 134.375 83.4639 133.269C84.0788 133.036 84.6543 132.963 85.3147 132.987C91.7516 133.296 98.0097 132.418 104.029 130.034C104.089 130.013 104.15 129.995 104.207 129.973C105.304 129.355 106.379 128.728 107.306 127.877C108.918 126.408 110.547 124.869 111.729 123.012C112.737 121.431 113.004 119.529 113.64 117.778C114.246 114.937 114.234 112.056 114.073 109.175C114.052 108.754 114.1 108.427 114.44 108.097C115.288 107.279 115.603 106.249 115.303 105.089C114.821 103.281 114.594 101.439 114.546 99.5671ZM112.601 104.695C112.604 104.711 112.604 104.729 112.604 104.747C112.604 104.765 112.604 104.786 112.604 104.804C112.604 104.823 112.607 104.841 112.607 104.856C112.625 105.123 112.701 105.395 112.737 105.665C112.737 105.668 112.737 105.671 112.737 105.671C112.892 106.77 112.895 106.792 111.883 107.207L111.889 107.2C109.866 108.024 107.727 108.318 105.57 108.427C102.417 108.582 99.2607 108.567 96.1195 108.146C92.9268 107.715 89.7826 107.052 86.6778 106.207C86.4627 106.149 86.3052 106.131 86.3022 105.952V105.949C86.3022 105.94 86.3022 105.934 86.3022 105.928C86.3052 105.865 86.3264 105.78 86.3688 105.674C86.4233 105.537 86.4506 105.407 86.4627 105.277C86.4627 105.271 86.4627 105.268 86.4627 105.262C86.4627 105.247 86.4658 105.232 86.4658 105.216C86.4658 105.18 86.4658 105.141 86.4658 105.101C86.4476 104.502 86.0992 103.911 85.9902 103.241C85.9902 103.241 85.9902 103.235 85.9902 103.232C87.5441 103.629 89.0466 104.065 90.5763 104.353C93.8416 104.974 97.1282 105.392 100.454 105.492C103.647 105.592 106.812 105.477 109.944 104.847C110.641 104.708 111.335 104.553 112.022 104.371C112.383 104.274 112.586 104.265 112.601 104.695ZM106.712 111.247C106.682 113.265 106.255 115.034 105.37 116.53C104.489 118.027 103.153 119.25 101.308 120.171C98.6458 121.504 95.8318 122.14 92.8754 122.234C92.112 122.255 91.3578 122.31 90.5975 122.261C90.3582 122.249 90.2158 122.219 90.2067 121.977C90.2067 121.967 90.2037 121.958 90.2037 121.952C90.2037 121.922 90.2067 121.889 90.2097 121.852C90.2461 121.459 90.2703 121.065 90.2824 120.677C90.2824 120.656 90.2824 120.632 90.2824 120.61C90.2855 120.571 90.2855 120.532 90.2885 120.492C90.2945 120.204 90.2945 119.923 90.2885 119.641C90.2855 119.556 90.2824 119.471 90.2794 119.387C90.137 115.194 88.6013 111.453 85.7478 108.146C85.7357 108.133 85.7357 108.1 85.7115 108.012C85.7115 108.006 85.7085 108.003 85.7085 107.997C88.5528 108.739 91.3063 109.557 94.1234 110.075C96.2256 110.457 98.352 110.645 100.475 110.832C100.887 110.872 101.03 111.032 101.142 111.387C101.578 112.774 101.972 114.174 102.765 115.415H102.771C102.853 115.534 102.926 115.655 103.02 115.764C103.707 116.618 104.395 116.627 104.889 115.77C104.898 115.755 104.907 115.74 104.913 115.724C104.922 115.709 104.931 115.694 104.937 115.679C104.952 115.652 104.971 115.621 104.983 115.588C104.992 115.573 105.001 115.555 105.01 115.534C105.013 115.531 105.013 115.528 105.016 115.521C105.564 114.322 105.752 113.028 105.864 111.723C105.879 111.556 105.885 111.387 105.879 111.22C105.87 111.117 105.885 111.038 105.913 110.975C105.913 110.972 105.916 110.966 105.916 110.963C105.922 110.957 105.925 110.951 105.928 110.941C106.019 110.781 106.225 110.745 106.434 110.729C106.676 110.717 106.731 110.835 106.734 110.975C106.734 110.981 106.734 110.987 106.734 110.993C106.734 111.002 106.734 111.011 106.734 111.02C106.731 111.099 106.715 111.181 106.712 111.247ZM81.7131 123.93C82.855 119.087 82.1099 114.576 79.0293 110.584H79.0232C77.9994 109.257 76.6999 108.291 74.9703 107.991C74.9733 107.988 74.9763 107.988 74.9793 107.985C76.3849 107.431 77.7782 106.861 79.2565 107.731C79.3352 107.776 79.4231 107.824 79.517 107.843C79.7441 107.882 80.0168 107.97 80.1652 107.721C80.1925 107.676 80.2015 107.64 80.2015 107.606V107.6C80.1955 107.437 79.8956 107.413 79.8774 107.24C81.4344 106.837 83.5457 107.382 84.6119 108.494C87.217 111.205 88.5589 114.492 88.9678 118.196C88.9678 118.196 88.9678 118.199 88.9678 118.202C89.1738 120.105 89.095 121.995 88.6194 123.864C88.5468 124.145 88.4407 124.348 88.2832 124.494C88.1257 124.639 87.9167 124.727 87.632 124.775C85.8357 125.075 84.0455 125.03 82.2553 124.754C82.0372 124.721 81.8766 124.685 81.7767 124.591C81.7676 124.585 81.7585 124.575 81.7524 124.566C81.6525 124.454 81.6373 124.263 81.7131 123.93ZM71.2293 106.455C72.2713 106.383 73.3194 106.437 74.3675 106.437C73.4072 106.952 72.45 107.34 71.4413 107.549C71.2626 107.588 70.887 107.782 70.9082 107.388C70.9294 107.073 70.6477 106.489 71.2293 106.455ZM69.945 106.985V106.991C69.8723 107.279 70.0328 107.737 69.739 107.77C69.3725 107.809 69.4452 107.313 69.3573 107.058C69.2846 106.837 69.0453 106.576 69.2725 106.343C69.3573 106.255 69.5936 106.277 69.745 106.31C70.2055 106.416 69.8268 106.785 69.945 106.985ZM68.5576 108.152L68.5637 108.158C68.4031 108.179 68.2486 108.258 68.0821 108.285C67.6822 108.349 67.2339 108.633 66.8583 108.685C66.8341 108.688 66.8098 108.691 66.7826 108.691C66.7583 108.691 66.7341 108.691 66.7099 108.691C66.6977 108.691 66.6856 108.688 66.6735 108.688C66.5887 108.676 66.5099 108.648 66.4403 108.594C66.0919 108.324 66.1525 107.543 65.9798 107.007C65.8526 106.598 65.9041 106.395 66.2555 106.377C66.2888 106.377 66.3252 106.377 66.3645 106.377C66.3888 106.377 66.413 106.38 66.4403 106.383C66.4827 106.386 66.5281 106.389 66.5705 106.392C66.7008 106.398 66.828 106.392 66.9583 106.389C67.0431 106.386 67.1279 106.383 67.2157 106.383H67.2218C67.24 106.383 67.2551 106.38 67.2733 106.38C67.3036 106.377 67.3369 106.374 67.3702 106.374C67.3854 106.37 67.4005 106.37 67.4156 106.37C67.4762 106.367 67.5368 106.364 67.5913 106.364C67.6156 106.364 67.6398 106.367 67.664 106.367C67.6792 106.367 67.6943 106.367 67.7064 106.367C67.7216 106.367 67.7367 106.37 67.7488 106.37C67.767 106.37 67.7852 106.374 67.8034 106.374C68.4577 106.425 68.7121 106.74 68.906 107.543C68.9211 107.612 68.9363 107.679 68.9393 107.743C68.9393 107.752 68.9423 107.761 68.9423 107.773C68.9423 107.791 68.9423 107.809 68.9423 107.828C68.9302 108 68.8302 108.121 68.5576 108.152ZM63.3294 108.418H63.3233L63.3203 108.412C63.187 108.07 63.2415 107.661 63.187 107.288C63.1597 107.097 63.1385 106.949 63.1294 106.834C63.1294 106.813 63.1264 106.795 63.1264 106.776C63.1264 106.752 63.1264 106.728 63.1264 106.704C63.1355 106.41 63.3142 106.404 63.9079 106.395C64.6228 106.383 65.059 106.737 65.2195 107.455C65.3104 107.867 65.3983 108.288 65.4891 108.7C65.4891 108.703 65.4922 108.706 65.4922 108.709C65.5194 108.93 65.4437 109.069 65.2317 109.157C64.744 109.348 64.226 109.748 63.7656 109.748C63.7292 109.748 63.6898 109.745 63.6535 109.739C63.4869 109.715 63.393 109.645 63.3475 109.551C63.3445 109.548 63.3445 109.548 63.3445 109.548C63.2052 109.269 63.4536 108.76 63.3294 108.418ZM57.6377 107.019C57.5619 106.628 57.6468 106.446 58.0496 106.431C58.0739 106.428 58.1011 106.428 58.1314 106.428C59.3219 106.455 60.5093 106.443 61.6906 106.416C61.7118 106.416 61.73 106.416 61.7482 106.416C61.7603 106.416 61.7694 106.416 61.7815 106.419C62.0783 106.431 62.2025 106.555 62.2268 106.892C62.2934 107.815 62.3934 108.733 62.4782 109.651C62.5115 109.987 62.4328 110.236 62.0844 110.396C61.4119 110.717 60.7395 111.047 60.0579 111.384C59.3764 111.717 58.6857 112.062 57.9709 112.417C57.9678 112.417 57.9678 112.417 57.9648 112.42C57.9769 110.554 57.9769 108.773 57.6377 107.019ZM68.6576 67.4403C68.3638 67.4706 68.0669 67.4979 67.7731 67.5251C67.558 67.5463 67.3429 67.5676 67.1309 67.5857C66.9734 67.6009 66.8189 67.616 66.6644 67.6281C66.4433 67.6493 66.2222 67.6675 66.0011 67.6887C65.1075 67.7675 64.2139 67.8432 63.3203 67.9159C56.1807 68.5005 49.0229 68.9064 41.8802 69.4789C41.6106 69.5001 41.3441 69.5244 41.0775 69.5456C40.8079 69.5668 40.5413 69.591 40.2718 69.6122C49.6499 67.7826 59.134 67.407 68.6576 67.4403ZM47.9263 103.702C48.3353 104.586 48.7351 105.477 49.1501 106.355C49.3409 106.764 49.0562 106.87 48.7866 106.952C47.4326 107.367 46.0846 107.261 44.7276 106.952C44.2732 106.849 43.9067 106.673 43.6159 106.401C43.5856 106.374 43.5553 106.343 43.5281 106.313C43.3433 106.113 43.1888 105.871 43.0646 105.571C42.7375 104.789 42.277 104.059 41.9681 103.126C43.8461 103.95 45.6424 104.253 47.4992 103.475C47.6446 103.414 47.7355 103.438 47.8052 103.505C47.8082 103.511 47.8143 103.514 47.8173 103.52C47.8627 103.569 47.896 103.635 47.9263 103.702ZM48.9683 103.426H48.9744C48.8926 103.251 48.8472 103.093 48.8472 102.948C48.8472 102.939 48.8472 102.929 48.8472 102.92C48.8563 102.672 49.0047 102.466 49.35 102.296C49.7286 103.138 50.0982 103.99 50.4859 104.829C50.6677 105.219 50.6253 105.534 50.3708 105.822C50.3617 105.834 50.3526 105.846 50.3405 105.856C50.3012 105.898 50.2557 105.94 50.2042 105.983C50.186 106.001 50.1648 106.016 50.1436 106.034C49.7438 105.144 49.3682 104.28 48.9683 103.426ZM37.6334 74.168C40.5323 81.3833 43.5977 88.526 46.6299 95.6838C47.3054 97.2771 47.9748 98.8856 48.6533 100.479C48.6563 100.482 48.6563 100.485 48.6563 100.485C48.8654 100.976 48.8593 101.394 48.3837 101.818C48.3807 101.821 48.3777 101.824 48.3746 101.827C47.7173 100.276 47.063 98.7402 46.4148 97.2105C45.7635 95.6838 45.1183 94.1632 44.4731 92.6395L44.4853 92.6365L44.4883 92.6335C41.7833 86.236 39.0783 79.8446 36.3733 73.444C36.1249 72.8564 35.8977 72.2536 35.6766 71.6478C35.6433 71.5569 35.5766 71.4448 35.5675 71.3418V71.3388C35.5675 71.3297 35.5675 71.3237 35.5675 71.3146C35.5706 71.2328 35.619 71.1631 35.7584 71.1207C36.0189 71.0389 36.3127 70.9389 36.4672 71.3358C36.8458 72.2869 37.2548 73.2229 37.6334 74.168ZM37.0457 79.5628C35.8038 80.2595 34.5104 80.2111 33.1927 79.8718C31.972 79.5568 30.9754 78.9782 30.5695 77.6454C30.3817 77.0426 30.0424 76.4853 29.6789 75.731C30.6543 76.0794 31.4025 76.4065 32.2234 76.5458V76.5398C33.4472 76.7488 34.5952 76.5549 35.6705 75.9915C36.0643 75.7916 36.1794 75.8825 36.3188 76.2338C36.652 77.0426 36.9943 77.8605 37.3729 78.6511C37.6001 79.1145 37.4335 79.3417 37.0457 79.5628ZM35.6614 74.5709C35.6614 74.589 35.6614 74.6072 35.6614 74.6254C35.6614 74.6314 35.6614 74.6405 35.6614 74.6496C35.6463 74.9646 35.4131 75.1827 35.0162 75.3493V75.3554C33.6198 75.9309 32.2325 75.731 30.8482 75.3009C29.8001 74.9798 29.0004 74.3952 28.6036 73.3108C28.3794 72.6958 28.0372 72.1112 27.6767 71.36C28.0129 71.5357 28.3492 71.6932 28.6824 71.8295C30.203 72.4656 31.6903 72.7049 33.2684 72.2778C33.3442 72.2596 33.4229 72.2354 33.5017 72.2112C33.5471 72.1991 33.5956 72.193 33.635 72.1779C33.6531 72.1718 33.6713 72.1657 33.6925 72.1597C33.7107 72.1536 33.7289 72.1476 33.747 72.1415C33.8228 72.1203 33.8924 72.1082 33.9621 72.0991C34.0106 72.0961 34.056 72.093 34.0984 72.0961C34.4013 72.1052 34.6467 72.2657 34.8315 72.5747C34.8557 72.6171 34.8799 72.6595 34.9011 72.708C34.9102 72.7261 34.9193 72.7473 34.9314 72.7685C35.1313 73.2229 35.3101 73.6924 35.5312 74.1347C35.6099 74.2982 35.6524 74.4436 35.6614 74.5709ZM35.0829 87.6809C33.9954 85.2515 32.8989 82.8252 31.7236 80.2262H31.7266C32.8686 80.6351 33.8288 81.0168 34.8951 80.9835L34.9042 80.9744C34.9557 80.9744 35.0102 80.9714 35.0647 80.9684C35.092 80.9684 35.1192 80.9653 35.1465 80.9653C35.204 80.9623 35.2586 80.9593 35.3131 80.9562C36.0613 80.9078 36.7822 80.7624 37.4214 80.3322C37.5698 80.2323 37.6849 80.1838 37.7758 80.1777C37.7818 80.1777 37.7879 80.1777 37.7909 80.1777C37.9605 80.1747 38.0575 80.3232 38.1695 80.5927C39.2237 83.0918 40.3142 85.5847 41.3804 88.0777C43.2978 92.5396 45.2001 97.0075 47.1145 101.472C47.1176 101.475 47.1176 101.475 47.1176 101.478C47.2599 101.812 47.3508 102.048 47.372 102.224C47.375 102.236 47.375 102.248 47.375 102.257C47.375 102.275 47.3781 102.296 47.375 102.315C47.3629 102.602 47.0873 102.705 46.4178 102.866C44.8154 103.247 43.319 102.954 41.8893 102.163C41.4561 101.921 41.2623 101.53 41.0745 101.115C39.0783 96.6349 37.0882 92.1579 35.0829 87.6809ZM72.659 68.6944C72.6651 68.6944 72.6742 68.6914 72.6802 68.6914C72.6893 68.6914 72.6954 68.6914 72.7045 68.6914C72.7287 68.6883 72.7529 68.6883 72.7772 68.6914C73.1376 68.7065 73.2618 69.0215 73.3648 69.3305C73.9525 71.0389 74.5341 72.7534 75.1035 74.4709C76.1031 77.497 77.0997 80.5261 78.0812 83.5552C78.1629 83.7975 78.3447 84.0883 78.1357 84.3034C78.1327 84.3095 78.1266 84.3155 78.1205 84.3216C78.1145 84.3276 78.1084 84.3337 78.0993 84.3367C78.0539 84.3761 77.9903 84.4125 77.9085 84.4458C76.812 84.882 77.1118 84.9819 76.7665 83.9641V83.9702C75.1974 79.3599 73.5981 74.7587 72.0108 70.1484C71.9623 70.0151 71.923 69.8818 71.8775 69.7394C71.5958 68.8882 71.5595 68.7398 72.2138 68.7065C72.2259 68.7035 72.238 68.7035 72.2531 68.7035C72.3319 68.7004 72.4228 68.6974 72.5227 68.6974C72.5621 68.6944 72.6076 68.6944 72.65 68.6944H72.659ZM88.4771 91.4006C88.4801 91.4491 88.4862 91.5006 88.4892 91.549C88.4953 91.6005 88.4983 91.649 88.5013 91.7005C88.5043 91.752 88.5074 91.8005 88.5104 91.852C88.5134 91.9035 88.5165 91.9519 88.5195 92.0034C88.5225 92.1094 88.5255 92.2185 88.5255 92.3245C88.5255 92.3639 88.5255 92.4033 88.5225 92.4426C88.5225 92.479 88.5225 92.5184 88.5195 92.5547C88.5195 92.6002 88.5195 92.6426 88.5165 92.688C88.5104 92.8122 88.5043 92.9364 88.4953 93.0575C88.4074 94.1329 88.1318 95.2203 87.6774 96.3199C87.2321 97.3983 87.1231 97.3771 85.9902 97.2044C85.7872 97.1711 85.5812 97.1438 85.3601 97.1105C85.3632 97.1075 85.3632 97.1044 85.3632 97.1044C86.0477 95.7807 86.4627 94.4721 86.6081 93.1787C86.6142 93.1272 86.6202 93.0788 86.6233 93.0273C86.6263 93.0242 86.6263 93.0212 86.6263 93.0212C86.6293 92.9697 86.6354 92.9182 86.6384 92.8667C86.6445 92.8152 86.6475 92.7637 86.6505 92.7122C86.6536 92.6607 86.6566 92.6092 86.6596 92.5547C86.6626 92.5153 86.6626 92.476 86.6626 92.4396C86.6657 92.4123 86.6657 92.3851 86.6657 92.3578C86.6687 92.3306 86.6687 92.3033 86.6687 92.276C86.6687 92.2609 86.6687 92.2457 86.6687 92.2306C86.6687 92.1852 86.6717 92.1397 86.6717 92.0913C86.6717 91.9762 86.6687 91.858 86.6626 91.7399C86.6626 91.7096 86.6626 91.6763 86.6596 91.646C86.6566 91.5672 86.6505 91.4854 86.6445 91.4067C86.6323 91.2401 86.6172 91.0735 86.596 90.9099C86.596 90.9069 86.596 90.9038 86.596 90.9038C86.5899 90.8524 86.5809 90.8009 86.5748 90.7494C86.5748 90.7433 86.5718 90.7403 86.5718 90.7342C86.3628 89.2924 85.8236 87.8626 84.9603 86.442V86.4359C85.9084 86.1088 86.4839 86.4844 86.9837 87.2659C87.8379 88.6169 88.3287 89.9981 88.4771 91.4006ZM83.7638 94.563C83.7577 94.5539 83.7486 94.5448 83.7426 94.5358C83.7365 94.5297 83.7305 94.5236 83.7244 94.5176C83.7153 94.5115 83.7062 94.5024 83.7002 94.4964C83.6911 94.4873 83.685 94.4812 83.6759 94.4752C83.3336 94.1904 82.9459 94.5055 82.5885 94.6297C80.2439 95.4536 77.8661 96.1048 75.3489 95.917C75.0702 95.8958 74.7885 95.8564 74.5159 95.8019C74.4765 95.7959 74.4432 95.7777 74.419 95.7565C74.419 95.7535 74.4159 95.7535 74.4159 95.7504C74.316 95.6535 74.3493 95.4536 74.5159 95.4263C74.9218 95.3597 75.3368 95.3021 75.7245 95.1385C76.0971 94.9841 76.4848 94.8599 76.7847 94.5782C76.9331 94.4358 77.1664 94.3025 77.0391 94.0541L77.0422 94.0511L77.0513 94.0329C76.9452 93.8269 76.7332 93.8936 76.5393 93.9269C75.8184 94.0602 75.0945 94.1874 74.3675 94.3146C73.3012 94.5024 72.3077 94.2631 71.3414 93.8421C71.3383 93.8421 71.3383 93.8421 71.3353 93.8391C71.1293 93.7452 70.8083 93.6391 70.8628 93.3847C70.8991 93.2029 71.0748 93.1817 71.2566 93.1817C71.3293 93.1817 71.402 93.1848 71.4686 93.1848C72.6106 93.1484 73.7526 93.0909 74.8279 92.6819C75.2489 92.5214 75.9426 92.3851 75.8245 91.8701C75.8124 91.8156 75.7881 91.7732 75.7609 91.7399C75.7548 91.7369 75.7518 91.7308 75.7457 91.7278C75.7397 91.7217 75.7336 91.7157 75.7275 91.7126C75.5125 91.5369 75.0127 91.7399 74.6825 91.7883C73.4315 91.9852 72.1835 92.0973 70.9294 91.8247C70.4145 91.7096 69.945 91.4824 69.5451 91.125C69.5269 91.1098 69.5057 91.0917 69.4876 91.0765C69.4754 91.0644 69.4633 91.0553 69.4512 91.0432C69.4421 91.0341 69.43 91.025 69.4209 91.0159C69.4058 91.0008 69.3906 90.9856 69.3785 90.9705C69.2998 90.8857 69.2483 90.7827 69.3058 90.6585C69.3846 90.4828 69.6057 90.5555 69.7602 90.5706C70.8749 90.6524 71.9836 90.7706 73.0922 90.5434C73.6738 90.4222 74.2554 90.3011 74.7673 89.9951C74.9278 89.8921 75.155 89.8134 75.1096 89.5922C75.0945 89.5317 75.0702 89.4862 75.0399 89.4499H75.0369C75.0339 89.4438 75.0278 89.4408 75.0248 89.4378C74.9127 89.3348 74.7219 89.3529 74.5734 89.3651C74.1463 89.3832 73.7192 89.4256 73.2982 89.4862C72.2047 89.6407 71.1142 89.6468 70.0449 89.3711C69.8662 89.3257 69.639 89.2863 69.4967 89.1591C69.4845 89.15 69.4754 89.1409 69.4664 89.1318C69.4179 89.0773 69.3846 89.0137 69.3725 88.9289C69.3179 88.5593 69.6118 88.3321 69.9116 88.1655C70.8537 87.6506 71.9109 87.5688 72.9377 87.4082C74.8551 87.1053 76.6999 86.5964 78.4477 85.7604C79.8835 85.0698 79.8774 84.7759 79.623 83.6946C79.5897 83.5431 79.5442 83.3674 79.6563 83.2008C80.0925 83.2341 80.4439 83.428 80.7407 83.7036C80.768 83.7279 80.7922 83.7521 80.8165 83.7763C80.8346 83.7945 80.8528 83.8127 80.871 83.8309C80.8892 83.849 80.9043 83.8672 80.9225 83.8854C80.9588 83.9248 80.9921 83.9641 81.0255 84.0035C81.5949 84.6608 82.0069 85.4181 82.2553 86.2481C82.3098 86.4329 82.3825 86.5813 82.4825 86.6964C82.4915 86.7055 82.5006 86.7176 82.5097 86.7267C82.5188 86.7358 82.5249 86.7418 82.534 86.7509C82.537 86.757 82.543 86.76 82.5491 86.7661C82.6672 86.8721 82.8187 86.9418 83.0156 86.9721C83.3336 87.0236 83.5881 87.1538 83.7971 87.3416C83.8213 87.3598 83.8425 87.381 83.8668 87.4052C83.891 87.4295 83.9152 87.4537 83.9395 87.4779C84.0788 87.6324 84.1969 87.8141 84.2999 88.011C85.5328 90.3768 85.663 92.8364 84.8543 95.3476C84.5998 96.1291 84.3817 96.1503 83.3851 95.6384C83.3821 95.6384 83.3791 95.6353 83.3761 95.6353C83.4972 95.2749 84.1848 95.0658 83.7638 94.563ZM80.353 97.0923C80.3681 96.9257 80.4893 96.8288 80.7468 96.7955H80.7377C81.0921 96.747 81.495 96.2593 81.7737 96.9681C82.7823 99.5096 83.576 102.121 84.412 104.723C84.4514 104.844 84.4756 104.953 84.4787 105.044C84.4817 105.065 84.4817 105.086 84.4817 105.107C84.4696 105.419 84.2272 105.55 83.7456 105.565C83.2307 105.637 83.1761 105.189 83.0701 104.889C82.5612 103.508 82.0887 102.121 81.601 100.733C81.2133 99.6428 80.8407 98.5372 80.4257 97.4498C80.3833 97.3377 80.356 97.2408 80.353 97.159C80.35 97.1499 80.35 97.1378 80.35 97.1287C80.35 97.1166 80.353 97.1044 80.353 97.0923ZM104.068 115.146C103.38 113.686 102.738 112.332 102.057 110.878V110.872H104.716C104.962 110.872 105.022 110.978 105.043 111.214C105.098 111.962 104.595 114.174 104.068 115.146ZM110.52 89.9891V89.9951C111.147 94.2298 111.701 98.4766 112.189 102.739C112.25 103.26 112.083 103.463 111.623 103.575C110.98 103.738 110.338 103.881 109.69 104.008C109.56 104.032 109.432 104.056 109.302 104.08C109.236 104.09 109.172 104.102 109.108 104.114C108.978 104.138 108.848 104.159 108.718 104.18L108.524 104.211C107.482 104.374 106.437 104.492 105.383 104.568C102.532 104.768 99.6787 104.68 96.8405 104.399C93.2086 104.038 89.6221 103.396 86.1235 102.308C85.8145 102.215 85.6358 102.087 85.5328 101.778C85.248 100.876 84.9482 99.9851 84.6119 98.9855C86.2628 99.2945 87.8591 99.449 89.4615 99.4671C92.6815 99.5096 95.859 99.2188 98.9457 98.2434C102.738 97.0439 105.349 94.5418 107.006 90.9644C108.163 88.4654 108.851 85.8392 109.296 83.119C109.884 85.3848 110.178 87.69 110.52 89.9891ZM107.391 39.7482C107.37 39.7694 107.351 39.7906 107.333 39.8118C107.309 39.839 107.285 39.8633 107.264 39.8845C107.255 39.8936 107.245 39.9026 107.239 39.9087C107.227 39.9178 107.218 39.9299 107.209 39.936C106.897 40.2207 106.67 40.1359 105.925 39.8451C105.249 39.5816 104.556 39.5089 103.829 39.5149C107.315 34.5835 109.051 29.1917 108.43 23.1335C108.427 23.1456 108.427 23.1577 108.424 23.1668C108 26.2656 107.679 29.3977 106.594 32.3723C105.879 34.3503 105.028 36.2526 103.768 37.9549C103.656 38.1034 103.544 38.2487 103.429 38.3911C103.398 38.4275 103.371 38.4608 103.341 38.4941C103.314 38.5305 103.283 38.5638 103.253 38.5971C103.199 38.6637 103.141 38.7273 103.083 38.791C103.08 38.794 103.08 38.797 103.077 38.797C103.038 38.8425 102.996 38.8849 102.956 38.9303C102.947 38.9364 102.941 38.9424 102.935 38.9485C102.893 38.9939 102.85 39.0363 102.808 39.0787C102.151 39.733 101.393 40.2661 100.469 40.6357C100.221 38.9333 100.121 37.2188 100.227 35.4892C100.436 32.1118 101.151 28.7949 101.402 25.4174C101.469 24.5481 101.408 23.6696 101.363 22.7851C101.363 22.7972 101.36 22.8063 101.357 22.8184C100.427 28.7646 98.5731 34.5775 98.8457 40.8023C98.8427 40.7993 98.8397 40.7993 98.8367 40.7962C98.0067 40.1541 97.522 39.318 97.0767 38.485C94.9321 34.4563 93.9901 30.1822 94.4232 25.5992C94.6898 22.8245 95.5258 20.1983 96.2195 17.5387C96.2407 17.4508 96.268 17.36 96.2407 17.2115C96.2377 17.2146 96.2377 17.2176 96.2346 17.2206C95.0806 19.4167 93.7659 21.3796 92.2968 23.1092C92.2029 23.2213 92.106 23.3304 92.009 23.4424C91.9606 23.497 91.9151 23.5515 91.8636 23.606C91.7697 23.7151 91.6698 23.8241 91.5728 23.9301C91.4729 24.0361 91.3759 24.1422 91.276 24.2482C91.2275 24.2997 91.1791 24.3512 91.1306 24.3996C91.1276 24.4027 91.1245 24.4057 91.1215 24.4087C91.073 24.4602 91.0246 24.5117 90.9761 24.5602C90.8761 24.6632 90.7731 24.7662 90.6702 24.8661C90.6338 24.9025 90.5975 24.9388 90.5611 24.9752C90.4581 25.0751 90.3551 25.1751 90.2521 25.272C90.1885 25.3356 90.1219 25.3962 90.0583 25.4568C89.9916 25.5174 89.922 25.581 89.8553 25.6416C89.7887 25.7052 89.722 25.7658 89.6524 25.8263C85.4298 29.5946 80.1743 31.8573 73.8949 32.6267C73.8919 32.6267 73.8889 32.6267 73.8858 32.6267C76.3515 31.3878 78.5022 29.8278 80.4408 28.0558C80.456 28.0437 80.4681 28.0315 80.4832 28.0194C80.5408 27.9649 80.6014 27.9104 80.662 27.8559C80.7952 27.7317 80.9285 27.6044 81.0588 27.4802C81.1406 27.4015 81.2193 27.3258 81.3011 27.247C81.4617 27.0895 81.6192 26.932 81.7767 26.7745C81.8554 26.6927 81.9342 26.6139 82.0099 26.5352C82.1674 26.3746 82.3219 26.211 82.4764 26.0475C82.6309 25.8839 82.7823 25.7203 82.9338 25.5537C83.0095 25.4719 83.0822 25.3902 83.158 25.3053C83.2337 25.2236 83.3094 25.1387 83.3821 25.0539C83.5305 24.8873 83.679 24.7177 83.8244 24.5481C84.7058 23.5273 85.5479 22.4671 86.3628 21.3826C87.32 20.1165 88.2408 18.817 89.1556 17.5054C89.1526 17.5084 89.1495 17.5114 89.1465 17.5145L89.1435 17.5175C89.0042 17.6689 88.8648 17.8234 88.7224 17.9749C88.5286 18.19 88.3317 18.405 88.1348 18.6201C87.9106 18.8654 87.6865 19.1108 87.4593 19.3562C87.3472 19.4804 87.2351 19.6045 87.1231 19.7257C87.008 19.8499 86.8959 19.9711 86.7838 20.0922C86.6717 20.2134 86.5597 20.3346 86.4506 20.4527C85.3177 21.6795 84.1697 22.8881 82.9489 24.018C82.5703 24.3693 82.1826 24.7147 81.7858 25.0509C80.9134 25.79 80.0016 26.4806 79.0293 27.1077C74.5734 29.9823 69.7117 31.6574 64.4168 32.0512C62.4994 32.1936 60.6304 32.1269 58.7796 31.5756C58.4676 31.4817 58.1556 31.3969 57.88 31.0849C57.88 31.0819 57.88 31.0819 57.877 31.0788L57.8709 31.0728C59.7671 30.5033 61.5785 29.9157 63.3142 29.1099C66.307 27.7226 68.9908 25.8263 71.7018 23.9786C76.1971 20.9101 80.5711 17.6477 85.3874 15.0669C88.986 13.1374 92.7542 11.6774 96.8496 11.2805C98.458 11.1261 100.066 11.12 101.678 11.3472C102.078 11.4017 102.244 11.6834 102.432 11.9318C103.626 13.5191 104.301 15.3426 104.728 17.2661C104.94 18.2263 105.01 19.1956 105.034 20.168C105.037 20.2407 105.037 20.3103 105.04 20.383C105.04 20.4315 105.043 20.4769 105.043 20.5254C105.043 20.5981 105.046 20.6738 105.046 20.7465C105.052 21.1282 105.052 21.5068 105.055 21.8885V21.8946C105.055 22.0309 105.025 22.2035 105.022 22.3671C105.022 22.3792 105.022 22.3883 105.022 22.4004C105.022 22.4095 105.022 22.4156 105.022 22.4247C105.022 22.4398 105.022 22.458 105.022 22.4731C105.034 22.7154 105.125 22.9184 105.47 22.9275C105.816 22.9335 105.907 22.7457 105.919 22.5155C105.919 22.5004 105.919 22.4852 105.919 22.4701C105.919 22.2974 105.885 22.1096 105.885 21.9582V21.9521C105.885 21.94 105.885 21.9279 105.885 21.9158C105.891 21.7734 105.894 21.631 105.898 21.4887C105.901 21.3463 105.904 21.2039 105.904 21.0616C105.907 20.8556 105.907 20.6466 105.904 20.4376C105.879 18.6231 105.67 16.8269 105.043 15.0881C104.619 13.8977 104.059 12.7769 103.302 11.7561C103.299 11.7501 103.296 11.747 103.292 11.744C103.48 11.5562 103.589 11.7501 103.707 11.8258C108.624 14.8519 110.88 19.4834 111.45 25.0509C111.956 30.0277 110.88 34.6592 108.075 38.8455C107.954 39.0272 107.836 39.1999 107.703 39.3695C107.582 39.521 107.479 39.6452 107.391 39.7482ZM55.9686 24.2785C57.1167 22.0612 58.086 19.7499 59.3279 17.572C60.5486 15.4365 61.9572 13.4312 63.6141 11.6168C64.0079 11.1806 64.5713 10.9928 65.0166 10.6777C68.8242 7.97881 72.8438 5.72817 77.3663 4.44686C79.0505 3.97129 80.7589 3.61688 82.4613 3.24127C82.0826 3.23824 81.707 3.24733 81.3314 3.2655C81.2587 3.26853 81.189 3.27156 81.1163 3.27459C80.8346 3.28974 80.5499 3.31397 80.2682 3.34123C78.3598 3.52601 76.4969 3.96523 74.6674 4.62255C72.1865 5.50402 69.8298 6.66417 67.5883 8.09391C67.5853 8.09694 67.5853 8.09694 67.5822 8.09997C67.5459 7.84553 67.7095 7.77888 67.8276 7.69104C67.8337 7.68801 67.8397 7.68195 67.8488 7.6759L67.8579 7.66681C67.864 7.66378 67.867 7.66075 67.87 7.65772C67.8852 7.64258 67.9003 7.62743 67.9155 7.61531C67.9457 7.58805 67.976 7.56382 68.0094 7.53959C68.0275 7.52444 68.0487 7.50929 68.0699 7.49415C68.1123 7.46083 68.1548 7.43054 68.2002 7.40328C68.2062 7.39722 68.2123 7.39419 68.2184 7.39116C68.2335 7.37904 68.2517 7.36693 68.2699 7.35481C71.8109 4.93758 75.7154 3.46846 79.9441 2.92019C86.6021 2.05689 92.9602 2.98077 98.8972 6.26433C100.636 7.22153 102.278 8.31201 103.398 10.0204C103.553 10.2567 103.741 10.5717 104.056 10.4778C104.125 10.4566 104.18 10.4233 104.225 10.3748C104.228 10.3718 104.235 10.3688 104.238 10.3627C104.371 10.2082 104.386 9.94773 104.395 9.74781C104.468 8.43317 104.601 7.13368 104.971 5.86751C105.065 5.53431 105.164 5.20717 105.313 4.90123C105.322 4.88002 105.334 4.85882 105.343 4.83761C105.358 4.81035 105.373 4.78006 105.389 4.7528C105.449 4.64072 105.519 4.5347 105.598 4.43474C105.737 4.253 105.858 3.99249 106.146 4.05913C106.406 4.11971 106.485 4.39536 106.546 4.61346C106.812 5.55854 106.691 6.50363 106.506 7.44265C106.373 8.1242 106.14 8.76638 105.858 9.39037C105.84 9.42975 105.819 9.47216 105.801 9.51457C105.701 9.72964 105.595 9.9447 105.483 10.1567C105.473 10.1749 105.464 10.1931 105.458 10.2113C105.395 10.3476 105.349 10.493 105.289 10.6323C105.171 10.9201 105.004 11.2896 105.222 11.5017C105.464 11.7379 105.804 11.4896 106.058 11.3472C107.554 10.4778 109.124 10.2416 110.787 10.7717C111.026 10.8534 111.286 10.8928 111.55 11.1685C109.666 11.7985 107.654 11.4683 105.831 12.1317C105.843 12.265 105.898 12.3468 105.964 12.3953C105.967 12.3953 105.967 12.3953 105.97 12.3983C106.055 12.4619 106.161 12.4801 106.246 12.5134C109.018 13.619 110.753 15.797 112.062 18.3444C112.116 18.4444 112.165 18.5444 112.216 18.6473C114.146 22.5246 114.839 26.5715 114.412 30.7456C114.397 30.9153 114.376 31.0849 114.355 31.2545C114.349 31.306 114.343 31.3575 114.337 31.409C114.279 31.8452 114.212 32.2844 114.131 32.7236C114.116 32.8024 114.1 32.8781 114.085 32.9569V32.9599C114.073 33.0175 114.064 33.072 114.052 33.1295C114.006 33.3567 113.958 33.5839 113.906 33.8141C113.137 37.1704 111.668 40.2328 109.938 43.1801C109.811 43.4013 109.638 43.5951 109.411 43.9041C109.245 42.6773 108.609 41.808 107.894 40.984C107.682 40.7417 107.794 40.6266 107.936 40.46C110.199 37.6732 111.529 34.4563 112.077 30.9334C112.304 29.4552 112.425 27.9952 112.416 26.5624C112.416 26.5291 112.416 26.4958 112.413 26.4594C112.413 26.4201 112.413 26.3776 112.413 26.3383C112.413 26.2837 112.41 26.2262 112.41 26.1717C112.407 26.099 112.407 26.0232 112.404 25.9475C112.401 25.8839 112.398 25.8203 112.395 25.7567C112.395 25.7506 112.395 25.7446 112.395 25.7415C112.392 25.681 112.389 25.6204 112.386 25.5598C112.383 25.4871 112.38 25.4144 112.374 25.3447C112.371 25.2872 112.368 25.2296 112.365 25.1721C112.359 25.1084 112.356 25.0448 112.35 24.9812C112.343 24.9176 112.34 24.8601 112.334 24.7965C112.322 24.6662 112.31 24.5359 112.295 24.4027C112.289 24.3391 112.283 24.2754 112.274 24.2118C112.268 24.1482 112.262 24.0846 112.253 24.021C112.231 23.8423 112.204 23.6666 112.177 23.4879C112.174 23.4636 112.171 23.4394 112.168 23.4152C112.159 23.3637 112.15 23.3122 112.144 23.2607C112.131 23.2001 112.122 23.1365 112.11 23.0759C112.11 23.0729 112.11 23.0699 112.11 23.0699C112.098 23.0062 112.089 22.9457 112.077 22.8851C112.065 22.8215 112.053 22.7579 112.041 22.6973C112.028 22.6367 112.016 22.5791 112.004 22.5186C112.004 22.5155 112.004 22.5125 112.004 22.5095C111.989 22.4459 111.977 22.3822 111.962 22.3217C111.938 22.1975 111.907 22.0733 111.877 21.9491C111.865 21.8855 111.85 21.8249 111.835 21.7613C111.816 21.7007 111.801 21.6401 111.786 21.5765C111.738 21.3857 111.683 21.1979 111.629 21.0101C111.61 20.9525 111.595 20.898 111.577 20.8404C111.559 20.7798 111.541 20.7193 111.52 20.6557C111.035 19.132 110.341 17.6599 109.402 16.2543C109.366 16.1968 109.326 16.1423 109.287 16.0847C109.257 16.0393 109.22 15.9878 109.187 15.9423C109.105 15.8212 109.021 15.703 108.933 15.5849C108.812 15.4183 108.684 15.2517 108.557 15.0881C107.748 14.0643 106.861 13.2071 105.888 12.5164C105.885 12.5164 105.885 12.5134 105.885 12.5134H105.882C103.571 10.8716 100.809 10.184 97.6553 10.4172C91.7273 10.8534 86.5354 13.2101 81.5677 16.2604C78.0418 18.4232 74.7279 20.9222 71.1808 23.0608C67.6156 25.2175 63.9079 27.0804 59.8156 28.0315C59.7308 28.0497 59.6369 28.0588 59.5157 28.0315C59.5127 28.0315 59.5097 28.0315 59.5066 28.0315C64.3229 24.6753 68.1669 20.3012 72.1683 16.0968C72.1683 16.0938 72.1683 16.0938 72.1714 16.0908C72.129 16.0453 72.0956 16.006 72.0563 15.9575C71.2687 16.6209 70.4751 17.2661 69.6996 17.9416C67.1339 20.1801 64.8439 22.7185 62.1662 24.8298C60.897 25.8264 59.5884 26.7775 58.0436 27.7135C58.0405 27.7165 58.0405 27.7165 58.0375 27.7165C58.3374 27.041 58.5797 26.517 58.7918 25.9869C62.1329 17.8416 68.2153 12.474 76.0577 8.90269C80.7983 6.74596 85.7751 5.86751 90.964 6.2098C95.0503 6.47637 98.7912 7.82432 102.223 10.0477C102.317 10.1083 102.417 10.1689 102.659 10.3143C102.662 10.3143 102.662 10.3143 102.665 10.3173C102.35 9.67208 101.945 9.34494 101.53 9.02991C98.9972 7.07916 96.0862 6.04926 92.9541 5.63427C83.9576 4.43474 75.9638 7.0004 68.697 12.2317C64.2835 15.4092 60.9636 19.5288 58.3737 24.2785C57.4499 25.9657 55.9504 26.8775 54.0148 27.5014H54.0118L54.0027 27.5075C54.7267 26.3292 55.4143 25.3447 55.9686 24.2785ZM71.8563 58.7952C70.5962 58.3075 69.3573 57.729 68.1305 57.0565H68.1245C64.7985 55.233 61.9511 52.8885 60.0488 49.5201C58.6857 47.1059 58.1981 44.5523 58.5313 41.8201C58.8251 39.4089 58.9008 36.9765 59.0341 34.5563C59.0523 34.1988 59.128 34.011 59.34 33.9716C59.3552 33.9686 59.3703 33.9686 59.3855 33.9656C59.4158 33.9626 59.4521 33.9626 59.4885 33.9656C59.549 33.9716 59.6187 33.9838 59.6944 34.0019C60.2942 34.1413 60.8909 34.2412 61.4846 34.3018C61.5452 34.3079 61.6058 34.3139 61.6634 34.32C61.7845 34.3321 61.9027 34.3412 62.0208 34.3503C62.1965 34.3624 62.3752 34.3715 62.5539 34.3775C63.0689 34.3987 63.5838 34.3927 64.0957 34.3685C64.4229 34.3533 64.75 34.3291 65.0772 34.2988C66.8341 34.1382 68.5788 33.7778 70.3206 33.3991C70.4387 33.3719 70.5387 33.3507 70.6295 33.3416C70.6417 33.3416 70.6538 33.3416 70.6659 33.3386C70.6901 33.3386 70.7144 33.3386 70.7386 33.3386C70.9264 33.3537 71.0566 33.4627 71.1808 33.7929C71.4747 34.5653 72.238 34.7774 72.9922 34.8652C73.1316 34.8834 73.2679 34.8955 73.4072 34.9076C73.5466 34.9198 73.6829 34.9258 73.8222 34.9319C74.1645 34.947 74.5068 34.947 74.8461 34.9319C74.9248 34.9288 75.0036 34.9228 75.0823 34.9198C76.2576 34.8471 77.4208 34.6229 78.5628 34.3442C83.5033 33.1507 87.9046 30.9183 91.5728 27.3288C91.8394 27.0653 92.1272 26.826 92.4816 26.5109C92.4816 26.514 92.4785 26.514 92.4785 26.517C91.9818 31.4454 93.1025 35.9466 95.5804 40.1238C96.2861 41.3263 97.1434 42.4108 98.3308 43.1741C98.6458 43.374 98.6519 43.6103 98.564 43.898C98.452 44.2737 98.4186 44.6493 98.5034 45.0219C98.5852 45.3793 98.8185 45.6277 99.1668 45.6943C99.182 45.6973 99.2001 45.7004 99.2183 45.7004C99.2304 45.7034 99.2456 45.7034 99.2607 45.7034C99.2698 45.7034 99.2759 45.7034 99.285 45.7034C99.3001 45.7034 99.3153 45.7034 99.3334 45.7034C99.5667 45.6822 99.7545 45.5186 99.8817 45.3126C100.26 44.6826 100.603 44.0192 100.99 43.3952C101.726 42.2048 102.729 41.5505 103.859 41.4778C103.895 41.4748 103.932 41.4748 103.968 41.4717C104.035 41.4717 104.104 41.4717 104.174 41.4717C104.232 41.4748 104.292 41.4778 104.35 41.4808H104.353C104.528 41.496 104.71 41.5232 104.889 41.5656C106.07 41.8352 106.767 42.6258 107.161 43.7224C108.082 46.2759 106.491 50.444 103.199 51.1134C102.968 51.1619 102.741 51.1831 102.52 51.1831C101.917 51.1831 101.348 51.0225 100.781 50.7772C100.46 50.6378 100.1 50.3955 99.8272 50.7984C99.5939 51.1407 99.8151 51.4557 99.9665 51.7889C100.121 52.1312 100.73 52.1978 100.575 52.6158C100.454 52.943 100.088 53.1853 99.8211 53.4579C96.2528 57.0293 92.006 59.289 87.0383 60.1917C84.4241 60.6703 81.8676 60.7914 79.3716 60.5673C79.2989 60.5612 79.2231 60.5521 79.1504 60.5461H79.1474C79.002 60.5309 78.8566 60.5158 78.7112 60.5006C77.3481 60.3431 76.0002 60.0826 74.6704 59.7221C74.3644 59.6373 74.0585 59.5495 73.7526 59.4556C73.6102 59.4101 73.4708 59.3677 73.3285 59.3193C73.2588 59.2981 73.1891 59.2738 73.1164 59.2496C72.9771 59.2042 72.8347 59.1557 72.6954 59.1042C72.6257 59.08 72.5561 59.0557 72.4834 59.0315C72.2743 58.9558 72.0653 58.877 71.8563 58.7952ZM85.3056 68.4551C85.2753 68.4581 85.248 68.4611 85.2178 68.4642C85.1299 68.4763 85.0421 68.4854 84.9542 68.4914C84.8967 68.4945 84.8361 68.4975 84.7785 68.5005C84.7482 68.5035 84.7149 68.5035 84.6846 68.5035C84.6604 68.5066 84.6362 68.5066 84.6119 68.5066C84.5756 68.5066 84.5423 68.5066 84.5059 68.5066C84.4544 68.5066 84.4029 68.5066 84.3514 68.5035C84.3211 68.5035 84.2878 68.5035 84.2575 68.5035C84.206 68.5005 84.1576 68.5005 84.1061 68.4975C84.0667 68.4945 84.0243 68.4914 83.9819 68.4884C83.8607 68.4793 83.7395 68.4672 83.6214 68.4551C81.2375 68.1643 79.6987 66.6982 79.2019 64.1598L79.1959 64.1507C79.1504 63.9235 79.1171 63.7478 79.102 63.6146C79.102 63.6085 79.102 63.6024 79.102 63.5964C79.0989 63.5843 79.0989 63.5721 79.0989 63.56C79.0959 63.5267 79.0959 63.4964 79.0989 63.4661C79.0989 63.4601 79.0989 63.454 79.0989 63.448C79.102 63.4358 79.102 63.4237 79.105 63.4116C79.1444 63.1753 79.3776 63.1875 79.9925 63.2329C83.7971 63.5085 87.5047 62.9118 91.1791 61.994C91.3154 61.9607 91.4486 61.9213 91.588 61.894H91.591C91.6183 61.888 91.6425 61.888 91.6698 61.8849C91.7061 61.8849 91.7485 61.8849 91.8 61.8819C91.8091 61.8819 91.8152 61.8819 91.8242 61.8819C91.8303 61.8819 91.8364 61.8819 91.8455 61.8819C91.8485 61.8819 91.8515 61.8819 91.8515 61.8819C91.6092 63.3753 90.7338 65.0322 89.4373 66.3165C88.4044 67.3373 87.1049 68.1249 85.6509 68.3975C85.5358 68.4218 85.4207 68.4399 85.3056 68.4551ZM79.4594 70.7905C79.4533 70.8148 79.4473 70.839 79.4412 70.8632C79.4231 70.9389 79.4049 71.0177 79.3837 71.0995C79.3292 71.0419 79.2746 70.9844 79.2231 70.9268C79.2171 70.9208 79.2141 70.9147 79.208 70.9087C77.6692 69.2124 76.815 67.3343 76.5999 65.2351C76.5939 65.1958 76.5908 65.1564 76.5878 65.117C76.5787 65.0382 76.5727 64.9565 76.5696 64.8777C76.5605 64.7535 76.5545 64.6293 76.5515 64.5051C76.5484 64.4476 76.5484 64.393 76.5454 64.3355V64.3294C76.5454 64.2688 76.5454 64.2113 76.5454 64.1507C76.5454 63.8569 76.5545 63.56 76.5787 63.2601C76.5908 63.0451 76.6514 62.827 76.8907 62.9451C77.2057 63.0996 77.7601 62.8058 77.8207 63.4631C77.8752 64.0507 77.8873 64.6414 78.0145 65.2321C78.2417 66.3226 78.6476 67.3343 79.3564 68.1855C79.838 68.7671 79.9259 69.3244 79.6775 69.9999H79.6714C79.6412 70.0817 79.6139 70.1635 79.5897 70.2483C79.5442 70.4149 79.5048 70.5936 79.4594 70.7905ZM86.3506 70.2877C86.3143 69.8939 86.702 69.8878 86.9444 69.7939C89.1617 68.9094 90.8852 67.4403 92.1211 65.3896C92.7875 64.2931 93.1964 63.1147 93.3358 61.8395C93.3812 61.4306 94.5777 60.6278 94.9503 60.7611C95.1926 60.849 95.1048 61.0762 95.1169 61.2579C95.232 62.9057 94.6716 64.3991 94.0113 65.8531H94.0294C92.5543 69.1306 90.0219 71.2207 86.6505 72.3384C86.5354 72.3808 86.4233 72.399 86.3022 72.4262C86.2628 72.4323 86.2174 72.4202 86.1689 72.4141C86.0689 71.6902 86.4021 71.0117 86.3506 70.2877ZM74.9703 62.933C75.2701 62.7664 75.4458 62.7301 75.5367 62.8149C75.5397 62.8209 75.5428 62.824 75.5458 62.827C75.6215 62.9088 75.6336 63.0875 75.6155 63.354C75.3822 66.3498 76.2788 68.9882 78.2023 71.2812C78.2993 71.3963 78.3992 71.5115 78.5052 71.6205C78.6113 71.7296 78.7173 71.8386 78.8294 71.9416C78.9051 72.0082 78.9808 72.0749 79.0565 72.1385C79.0959 72.1718 79.1353 72.2051 79.1716 72.2384C79.1777 72.2415 79.1807 72.2475 79.1868 72.2506C79.2019 72.2657 79.2201 72.2809 79.2353 72.296C79.2534 72.3111 79.2686 72.3293 79.2867 72.3475C79.2958 72.3566 79.3049 72.3657 79.311 72.3748C79.4715 72.5504 79.5654 72.7564 79.4836 73.0684C79.4867 73.0654 79.4927 73.0624 79.4958 73.0563C80.4257 71.9991 80.4075 70.5997 80.9406 69.3911C82.1553 70.0484 83.4427 70.3422 84.7937 70.2483C85.0421 70.2301 85.1905 70.2665 85.2723 70.3483C85.2753 70.3513 85.2783 70.3543 85.2814 70.3574C85.2814 70.3574 85.2814 70.3574 85.2844 70.3604C85.3813 70.4694 85.3692 70.6572 85.3268 70.9056C85.0057 72.9503 84.6998 74.9858 84.3999 77.0366C84.3393 77.4576 84.3454 77.8938 84.3393 78.3239C84.3393 78.4239 84.2999 78.5632 84.3787 78.639C84.3817 78.642 84.3817 78.642 84.3848 78.645C84.4029 78.6602 84.4302 78.6753 84.4665 78.6844C84.6877 78.7389 84.727 78.5572 84.7876 78.3966C85.0996 77.5454 85.3874 76.667 85.4419 75.7825C85.5328 74.2619 86.1083 73.4713 87.6713 72.923C92.2877 71.2994 94.917 67.8159 95.9741 63.0875C96.0802 62.6059 96.1014 62.0939 96.1135 61.5911C96.1286 61.2185 96.2256 61.1307 96.5739 61.3033C97.4766 61.7456 98.3187 62.2817 99.1123 62.8936C99.7787 63.4086 100.415 63.9447 101.015 64.5021C101.133 64.6111 101.248 64.7202 101.363 64.8323C101.424 64.8928 101.484 64.9504 101.545 65.011C101.602 65.0655 101.66 65.1231 101.717 65.1806C102.117 65.5835 102.502 65.9985 102.868 66.4225C105.11 69.0306 106.7 72.0718 107.509 75.628C107.509 75.6311 107.509 75.6311 107.509 75.6341C107.994 77.7696 107.654 79.89 107.321 82.0073C107.112 83.322 106.812 84.6033 106.422 85.8604C106.031 87.1144 105.546 88.3442 104.977 89.5468C103.047 93.6119 99.8272 95.9231 95.4652 96.6864C93.8598 96.9712 92.2453 97.1832 90.6187 97.2498C90.0916 97.2741 89.5645 97.2801 89.0344 97.271C88.989 97.271 88.9436 97.268 88.8981 97.268C88.8285 97.265 88.7588 97.2589 88.6861 97.2529C88.6861 97.2529 88.6861 97.2529 88.6831 97.2529C88.6437 97.2498 88.6043 97.2468 88.5619 97.2438C88.5316 97.2408 88.4983 97.2408 88.465 97.2377C89.9947 93.5998 89.8281 90.089 87.8652 86.5843C87.9016 86.5874 87.9379 86.5874 87.9773 86.5904C88.0136 86.5904 88.05 86.5934 88.0863 86.5934C88.159 86.5964 88.2347 86.6025 88.3074 86.6025C89.2192 86.6389 90.1098 86.6358 90.9882 86.6025C91.0549 86.5995 91.1185 86.5964 91.1851 86.5934C91.3154 86.5874 91.4486 86.5813 91.5789 86.5752C91.9727 86.554 92.3634 86.5268 92.7542 86.4965C94.1234 86.3905 95.4925 86.236 96.8677 86.0936C97.0555 86.0754 97.2433 86.0209 97.416 85.9603C97.522 85.927 97.6644 85.8604 97.6886 85.7725C97.7492 85.5999 97.5705 85.5332 97.4554 85.4726C96.901 85.1849 96.2952 85.0758 95.6985 84.9213C95.6773 84.9153 95.6531 84.9153 95.6258 84.9153C95.5713 84.9123 95.5077 84.9183 95.4501 84.9153C95.444 84.9153 95.435 84.9153 95.4259 84.9153C95.3168 84.9062 95.2229 84.8608 95.2199 84.6608C95.2199 84.3519 95.438 84.2731 95.6803 84.1974C96.0468 84.0853 96.4134 84.0156 96.7859 83.9793C96.8496 83.9732 96.9101 83.9672 96.9737 83.9611C97.0343 83.9581 97.0979 83.9551 97.1585 83.952C97.4221 83.9399 97.6856 83.9429 97.9491 83.9551C98.0763 83.9611 98.2036 83.9702 98.3308 83.9793C98.458 83.9914 98.5852 84.0035 98.7125 84.0187C98.8185 84.0308 98.9245 84.055 99.0517 84.0611C99.085 84.0611 99.1214 84.0611 99.1577 84.0611C99.1729 84.0611 99.188 84.058 99.2032 84.058C99.2516 84.052 99.3031 84.0429 99.3607 84.0308C98.7337 83.4825 98.043 83.2493 97.3251 83.1523C97.2676 83.1463 97.207 83.1372 97.1494 83.1311C97.0919 83.1251 97.0343 83.119 96.9768 83.116C96.8889 83.1099 96.8011 83.1039 96.7132 83.0978C96.3528 83.0827 95.9863 83.0857 95.6197 83.0857C96.5678 78.1816 97.2948 73.2835 99.5455 68.7489C99.5424 68.7489 99.5424 68.7489 99.5394 68.7519C98.6549 69.0124 98.149 69.4759 97.416 70.6845C96.2074 72.6807 95.5379 74.8919 94.9109 77.1153C94.3172 79.2266 93.884 81.3652 93.6175 83.5431C93.5448 84.1368 93.3206 84.4518 92.7421 84.5064C92.7027 84.5094 92.6633 84.5124 92.6239 84.5124C92.5937 84.5124 92.5634 84.5124 92.5331 84.5124C90.1098 84.4821 87.6804 84.4397 85.2571 84.5397C85.1753 84.5427 85.0936 84.5457 85.0118 84.5488C84.933 84.5518 84.8543 84.5579 84.7725 84.5609H84.7664C84.6392 84.5669 84.5211 84.5669 84.409 84.5639C84.3878 84.5609 84.3635 84.5609 84.3423 84.5579C83.6638 84.5094 83.3276 84.2186 83.0035 83.4825C82.4825 82.289 81.4132 81.5984 80.1167 81.4045C79.6654 81.3379 79.4685 81.1622 79.3352 80.7472C78.0206 76.8488 76.6847 72.9563 75.355 69.0639C75.2217 68.6823 75.0884 68.2976 74.9097 67.9371C74.5704 67.2313 74.0282 66.8194 73.2709 66.7739C73.2467 66.7739 73.2225 66.7709 73.1982 66.7709C73.1437 66.7679 73.0892 66.7679 73.0316 66.7709C72.9771 66.7739 72.9195 66.7769 72.865 66.78C72.8135 66.78 72.762 66.783 72.7105 66.786C72.55 66.7921 72.3895 66.8012 72.2289 66.8194C72.0684 66.8345 71.9109 66.8557 71.7564 66.8921C71.6594 66.9133 71.5686 66.9254 71.4898 66.9284C71.4656 66.9284 71.4444 66.9284 71.4262 66.9284C71.402 66.9284 71.3777 66.9254 71.3565 66.9223C71.0264 66.8799 70.8628 66.6285 70.7749 66.2166C70.7204 65.9682 70.6931 65.8197 70.9476 65.6259L70.9446 65.6229L70.9355 65.6198C72.2107 64.6202 73.5526 63.7236 74.9703 62.933ZM70.7961 70.0211L70.781 70.0242L70.7749 70.0272C72.4107 74.7768 74.0403 79.5356 75.676 84.2852C75.985 85.1909 75.9759 85.1849 75.0157 85.4121C73.3981 85.7998 71.717 85.7786 70.1206 86.2542C68.9363 86.6025 67.8276 87.0993 67.5944 88.4745C67.3944 89.6195 67.2672 90.813 68.2093 91.7762C68.3032 91.8701 68.3638 92.0246 68.391 92.1579C69.0635 95.1052 71.2293 96.4865 73.8798 97.265C74.9733 97.5861 76.085 97.5315 77.1967 97.4074C77.2088 97.4043 77.2239 97.4043 77.2391 97.4043C77.3602 97.3892 77.4844 97.374 77.6086 97.3589C77.6601 97.3528 77.7116 97.3468 77.7631 97.3407C77.8782 97.3256 77.9933 97.3135 78.1054 97.2983C78.1781 97.2892 78.2508 97.2801 78.3235 97.2741C78.4447 97.2589 78.5658 97.2438 78.69 97.2286C78.7657 97.2226 78.8354 97.2014 78.902 97.1953C78.9293 97.1893 78.9566 97.1893 78.9808 97.1893C79.0777 97.1953 79.1626 97.2529 79.2292 97.4437V97.4467C80.1379 100.018 81.08 102.584 82.0402 105.222C82.0372 105.222 82.0311 105.222 82.0251 105.222C81.2072 105.183 80.4075 105.15 79.623 105.11C78.8294 105.074 78.0478 105.032 77.2663 104.983C75.6579 104.883 74.0464 104.795 72.4379 104.762C68.4698 104.689 64.4956 104.68 60.5305 104.708C58.0587 104.729 55.587 104.747 53.1213 104.868C52.0459 104.923 51.534 104.514 51.1251 103.547C48.7684 97.8738 46.3451 92.2336 43.9673 86.5722C41.8893 81.6317 39.8386 76.6822 37.7818 71.7356C37.694 71.5236 37.6152 71.3055 37.5031 71.0117C37.5031 71.0117 37.5031 71.0086 37.5001 71.0056C38.6421 70.9329 39.7265 70.8663 40.8079 70.7936C43.8855 70.5906 46.9722 70.4179 50.0497 70.1756C56.423 69.6667 62.7993 69.3638 69.1786 68.9428C70.3933 68.864 70.3993 68.8822 70.7961 70.0211ZM68.2305 65.8743H68.2365C68.5576 65.8743 68.7575 65.9137 68.8514 66.2741C68.8757 66.371 68.8939 66.4528 68.8999 66.5195C68.9029 66.5286 68.9029 66.5407 68.9029 66.5498C68.906 66.571 68.9029 66.5891 68.9029 66.6043C68.8878 66.7739 68.7515 66.8133 68.4092 66.8042C64.1563 66.7164 59.9095 66.8042 55.6536 66.9981C51.7854 67.1738 47.9324 67.4949 44.1066 68.0583C41.9832 68.3733 39.8659 68.7762 37.7485 69.1366C37.5365 69.176 37.3123 69.1821 37.0912 69.2063C37.0821 69.2093 37.076 69.2093 37.067 69.2093C39.2237 68.3793 41.3956 67.7705 43.6189 67.3343C46.4633 66.7769 49.3288 66.4892 52.2065 66.2287C55.5748 65.9137 58.9462 65.8803 62.3176 65.8864C64.2896 65.8864 66.2585 65.8864 68.2305 65.8743ZM66.1313 64.0901L66.1192 64.0841C66.2918 64.0841 66.4342 64.0992 66.5402 64.1507C66.5493 64.1537 66.5554 64.1568 66.5645 64.1628C66.5675 64.1628 66.5705 64.1659 66.5736 64.1659C66.6977 64.2416 66.7674 64.3718 66.7735 64.6081C66.7795 65.1443 66.3585 64.9019 66.1525 64.908C64.432 64.9655 62.7114 65.0049 60.9909 65.0504C59.2704 65.0958 57.5468 65.1443 55.8263 65.217C52.0217 65.3775 48.2353 65.7925 44.4731 66.4437C42.8495 66.7255 41.2532 67.0859 39.6387 67.4343C40.9412 66.7921 42.3497 66.5225 43.7522 66.2166C47.3599 65.4169 51.0251 65.011 54.6994 64.6596C58.4979 64.2991 62.3116 64.1386 66.1313 64.0901ZM61.212 62.0697C61.3241 62.0606 61.4362 62.0515 61.5483 62.0455C61.7724 62.0303 61.9996 62.0122 62.2237 61.997C62.4479 61.9849 62.6721 61.9697 62.8992 61.9576C63.1234 61.9455 63.3506 61.9304 63.5747 61.9213V61.9273C64.3623 61.888 64.7561 62.3363 64.6894 63.1208C64.6622 63.4631 64.4289 63.3268 64.2775 63.3359C62.4994 63.4358 60.7152 63.5358 58.9402 63.6024C55.9292 63.7175 52.9304 64.0053 49.9437 64.3809C47.1781 64.7293 44.4338 65.2109 41.7288 65.9137C39.4115 66.5164 37.173 67.3464 34.9769 68.3006C34.6952 68.4187 34.4165 68.5278 34.1287 68.6338C36.452 67.2283 38.9571 66.1832 41.5622 65.3654C45.2365 64.2173 49.0168 63.5964 52.8153 63.033C55.6082 62.6149 58.401 62.2817 61.212 62.0697ZM59.3067 59.8645C59.3097 59.8645 59.3128 59.8645 59.3188 59.8645C59.3279 59.8645 59.337 59.8615 59.3491 59.8615C59.3673 59.8615 59.3824 59.8645 59.4006 59.8645C59.9519 59.8948 60.5002 60.5097 60.3881 61.064C60.3366 61.3185 60.0549 61.2852 59.8762 61.3033C58.2041 61.5184 56.529 61.679 54.86 61.9061C49.3015 62.6786 43.7643 63.5752 38.5088 65.6531C36.4793 66.4559 34.5619 67.4888 32.7444 68.7277C32.7474 68.7247 32.7474 68.7216 32.7505 68.7216C33.0443 68.2037 33.5168 67.8886 33.9803 67.5827C37.1396 65.532 40.5928 64.1719 44.1854 63.1208C49.1289 61.6729 54.1633 60.6491 59.2522 59.8706C59.2613 59.8706 59.2704 59.8675 59.2794 59.8675C59.2885 59.8675 59.2976 59.8645 59.3067 59.8645ZM33.3926 70.2968V70.3089C33.6138 70.2301 33.8803 70.0605 34.0348 70.3089C34.0833 70.3846 34.1014 70.4573 34.1014 70.524V70.53C34.0954 70.7299 33.9136 70.8905 33.7349 71.0207C33.1806 71.4145 32.5415 71.6114 31.8872 71.6114C31.8538 71.6114 31.8236 71.6114 31.7902 71.6084C30.1999 71.563 28.7066 71.154 27.4374 70.1362C27.0466 69.8273 26.8437 69.5395 26.8073 69.1821C26.8043 69.1578 26.8013 69.1306 26.8013 69.1063C26.8013 69.0791 26.8013 69.0518 26.8013 69.0246C26.8013 68.9973 26.8043 68.97 26.8073 68.9428C26.8073 68.9246 26.8104 68.9094 26.8104 68.8913C26.8316 68.7095 26.8891 68.5066 26.977 68.2733C28.6521 70.6118 30.7149 71.2479 33.3926 70.2968ZM17.8866 48.5205H17.8927V48.5235C19.4193 49.6958 20.74 50.9135 22.0395 52.1584C24.59 54.6029 26.9012 57.2504 28.7127 60.3068C30.1091 62.6574 30.9633 65.1776 31.2177 67.8977C31.2298 68.0643 31.2177 68.2249 31.2177 68.5611C31.1359 68.3067 31.0572 68.0552 30.9754 67.8038C30.9209 67.6372 30.8664 67.4736 30.8118 67.307C30.7573 67.1435 30.6998 66.9769 30.6452 66.8133C30.5029 66.4074 30.3605 66.0015 30.209 65.6047C30.1515 65.4441 30.0909 65.2866 30.0273 65.1291C29.9667 64.9716 29.9061 64.8141 29.8425 64.6566C29.5457 63.9266 29.2276 63.2147 28.8823 62.518C28.8217 62.3938 28.7581 62.2696 28.6945 62.1454C28.5006 61.7759 28.3007 61.4094 28.0917 61.0489C25.9865 57.4442 23.3148 54.297 20.2645 51.4678C19.5496 50.8044 18.862 50.1138 18.1653 49.4322C18.1562 49.4201 18.1441 49.411 18.135 49.3989C18.0229 49.2838 17.9351 49.1536 17.8957 48.9718C17.8896 48.9567 17.8896 48.9415 17.8866 48.9233C17.8836 48.9082 17.8805 48.8931 17.8775 48.8749C17.8775 48.8719 17.8775 48.8658 17.8775 48.8597C17.8745 48.8446 17.8745 48.8294 17.8745 48.8143C17.8745 48.7961 17.8715 48.778 17.8715 48.7567C17.8715 48.6871 17.8775 48.6083 17.8927 48.5235C17.8896 48.5235 17.8896 48.5205 17.8866 48.5205ZM15.4421 49.929L15.4482 49.9199C17.3989 51.2315 19.0831 52.8582 21.0672 54.1243C21.0732 54.1274 21.0793 54.1304 21.0853 54.1365C20.1827 53.2095 19.2679 52.3008 18.3803 51.3618C18.0956 51.068 17.5201 50.7378 17.511 50.4137V50.4106C17.511 50.4046 17.511 50.3985 17.511 50.3894C17.517 50.3319 17.5382 50.2743 17.5837 50.2168C17.8442 49.8927 18.347 50.6318 18.6742 50.9407C21.4791 53.5852 24.169 56.3326 26.2803 59.5949C27.8372 62 29.058 64.5687 29.994 67.2798L29.997 67.2858C30.0364 67.3949 30.097 67.4949 29.997 67.7099C29.997 67.7099 29.994 67.7129 29.994 67.716C29.3185 66.1681 28.5521 64.7474 27.7433 63.348C26.1076 60.5067 23.8358 58.2167 21.5185 55.9509C19.7162 54.188 17.6867 52.6825 15.8359 50.9801C15.5421 50.7105 15.221 50.4379 15.4421 49.929ZM15.3543 51.6041C16.2569 52.3341 17.1505 53.0763 18.0532 53.8123C20.5038 55.8176 22.7877 57.9804 24.7445 60.4885C24.7475 60.4915 24.7506 60.4946 24.7566 60.5006C24.7748 60.5218 24.799 60.543 24.8202 60.5642C24.8748 60.6218 24.9172 60.6915 24.8778 60.8217C24.8748 60.8187 24.8748 60.8187 24.8717 60.8157C24.7506 60.7036 24.6324 60.5885 24.5143 60.4764C24.4265 60.3916 24.3386 60.3068 24.2508 60.2219C23.9903 59.9645 23.7298 59.71 23.4662 59.4586C23.0573 59.0648 22.6453 58.6741 22.2213 58.3015C22.194 58.2773 22.1667 58.253 22.1395 58.2288L22.0395 58.1409C19.801 56.1993 17.5261 54.297 15.2604 52.3796C15.2058 52.3341 15.1543 52.2857 15.1028 52.2372C15.0786 52.2099 15.0513 52.1857 15.0271 52.1615C15.012 52.1524 14.9999 52.1403 14.9877 52.1282C14.9726 52.116 14.9605 52.1039 14.9484 52.0918C14.9393 52.0857 14.9332 52.0797 14.9272 52.0736C14.912 52.0585 14.8999 52.0464 14.8878 52.0342C14.7454 51.8767 14.7303 51.6829 14.8666 51.5223L14.8605 51.5163C15.0211 51.3285 15.2058 51.4829 15.3543 51.6041ZM11.7981 51.8404C11.8011 51.8192 11.8011 51.801 11.8041 51.7798C11.8314 51.4708 11.9556 51.1376 11.9677 50.7923L11.9738 50.7863C13.7307 52.0464 15.2543 53.4064 16.8385 54.6968C19.7556 57.0686 22.4969 59.6282 25.2504 62.1909C25.2504 62.1939 25.2504 62.1939 25.2534 62.1939C26.9315 63.766 28.0372 65.6289 29.0186 67.6584C29.0216 67.6645 29.0216 67.6705 29.0247 67.6766C28.3037 66.8224 27.5343 66.0136 26.7407 65.226C25.9471 64.4415 25.1292 63.6782 24.3113 62.9179C21.9062 60.6884 19.4496 58.5105 16.8749 56.4598C15.2816 55.1876 13.6973 53.8881 12.1222 52.5795C11.9011 52.3947 11.8163 52.1978 11.8011 51.9888C11.7981 51.9737 11.7981 51.9585 11.7981 51.9434C11.795 51.9101 11.7981 51.8767 11.7981 51.8404ZM10.8197 53.5609C10.8227 53.5579 10.8288 53.5518 10.8318 53.5458C10.8348 53.5427 10.8409 53.5367 10.8439 53.5337C10.85 53.5276 10.856 53.5215 10.8591 53.5185C10.8651 53.5125 10.8712 53.5064 10.8742 53.5034C10.8833 53.4943 10.8893 53.4882 10.8954 53.4822C10.9045 53.4731 10.9105 53.467 10.9196 53.4579C11.0862 53.2913 11.2407 53.1096 11.4679 52.8551C16.7779 57.5018 22.406 61.7426 27.2435 66.8981C27.2617 66.9163 27.2799 66.9345 27.295 66.9526C26.8679 66.5982 26.4287 66.2499 26.0137 65.8743C22.2728 62.4514 18.2925 59.3284 14.2335 56.3053C13.1491 55.5026 12.0677 54.6847 10.953 53.9153C10.7227 53.7548 10.7197 53.676 10.8197 53.5609ZM9.81098 53.9396C10.5258 53.9093 20.7885 61.9395 23.0209 64.2022C23.133 64.3173 23.2239 64.4142 23.2936 64.496C23.3178 64.5233 23.336 64.5506 23.3572 64.5748C18.8529 61.0489 14.179 57.7411 9.80492 53.9396H9.81098ZM12.1495 73.8802C12.1949 73.6924 12.2888 73.4047 12.5766 73.5713C13.1703 73.9135 13.8518 73.8954 14.4788 74.1013C14.5667 74.1286 14.6606 74.1619 14.7454 74.2013C15.2664 74.4285 15.9571 74.6708 15.848 75.3221C15.848 75.3312 15.845 75.3403 15.8419 75.3493C15.8389 75.3675 15.8359 75.3857 15.8298 75.4039C15.8238 75.422 15.8177 75.4372 15.8117 75.4523C15.8026 75.4766 15.7935 75.5008 15.7814 75.519C15.7783 75.5281 15.7723 75.5341 15.7692 75.5402C15.7602 75.5523 15.7511 75.5644 15.742 75.5765C15.6723 75.6644 15.5784 75.7189 15.4694 75.7492C15.4542 75.7552 15.4391 75.7583 15.4239 75.7613C15.3936 75.7704 15.3633 75.7765 15.33 75.7795C15.2361 75.7946 15.1362 75.8007 15.0362 75.8037C15.0029 75.8067 14.9696 75.8067 14.9393 75.8098C14.8393 75.8128 14.7424 75.8158 14.6576 75.8279C14.6273 75.831 14.6 75.837 14.5727 75.8431C13.7731 75.8764 13.1036 75.7038 12.5614 75.1676C12.2009 74.8102 12.0222 74.3831 12.1495 73.8802ZM13.2581 78.0331C13.037 77.8544 12.9915 77.5848 13.0582 77.3183C13.1369 76.982 13.4308 77.1093 13.6458 77.0911C13.8306 77.0759 14.0245 77.0911 14.3183 77.0911C14.6606 77.0759 15.1089 77.0638 15.5542 76.9699C15.8268 76.9124 16.1146 76.8639 16.369 77.0154C16.372 77.0154 16.3751 77.0154 16.3781 77.0184C16.3963 77.0305 16.4175 77.0426 16.4357 77.0578C16.4569 77.0729 16.475 77.0911 16.4962 77.1093C16.7446 77.3304 17.0294 77.5576 16.9627 77.9332C16.9597 77.9544 16.9567 77.9756 16.9506 77.9938C16.9476 78.0028 16.9445 78.0089 16.9415 78.018C16.9021 78.1361 16.8173 78.2149 16.7174 78.2724C16.6416 78.3179 16.5568 78.3512 16.472 78.3815C16.4538 78.3906 16.4387 78.3936 16.4205 78.3997C16.3872 78.4118 16.3539 78.4239 16.3236 78.436C15.5209 78.7238 14.706 78.7995 13.9063 78.4572C13.6701 78.3573 13.458 78.1967 13.2581 78.0331ZM17.3444 80.7018V80.6927C16.9688 81.1228 16.4871 81.3197 15.9389 81.3591C15.9177 81.3591 15.8995 81.3621 15.8783 81.3621C15.8601 81.3621 15.845 81.3621 15.8298 81.3652C15.8086 81.3652 15.7874 81.3621 15.7662 81.3621C15.745 81.3621 15.7268 81.3621 15.7056 81.3591C15.6875 81.3591 15.6663 81.3561 15.6481 81.3561C15.3724 81.3288 15.115 81.241 14.8817 81.1047C14.5606 80.9138 14.2395 80.6351 14.3122 80.2777C14.3425 80.1263 14.4455 80.0778 14.5697 80.0748C14.5788 80.0748 14.5849 80.0748 14.5909 80.0748C14.7363 80.0717 14.9059 80.1172 15.0332 80.1172H15.0483C15.636 80.105 16.163 79.9173 16.7022 79.7446C16.8143 79.7082 16.9324 79.6598 17.0415 79.6477C17.0506 79.6477 17.0566 79.6446 17.0657 79.6446C17.0778 79.6446 17.0899 79.6446 17.1021 79.6446C17.2081 79.6477 17.308 79.6992 17.3929 79.8446C17.5716 80.1384 17.5837 80.4352 17.3444 80.7018ZM23.342 94.9931C22.4878 94.4752 21.9335 93.8391 21.5397 92.9091C20.222 89.7922 18.9862 86.651 17.8048 83.4886C17.7503 83.3401 17.717 83.216 17.7109 83.1008C17.7079 83.0736 17.7079 83.0463 17.7109 83.0191C17.723 82.8252 17.826 82.6556 18.0532 82.4617C18.7287 81.8771 19.1043 81.2379 19.1831 80.5534C19.1861 80.5291 19.1891 80.5049 19.1921 80.4807C19.1921 80.4776 19.1921 80.4776 19.1921 80.4776C19.1952 80.4292 19.1982 80.3807 19.2012 80.3322C19.2012 80.2777 19.2012 80.2232 19.1982 80.1687C19.1982 80.1384 19.1982 80.1081 19.1952 80.0778C19.1921 80.0445 19.1891 80.0142 19.1861 79.9839C19.1376 79.5507 18.9831 79.1054 18.7196 78.645C18.6621 78.542 18.5681 78.4542 18.5681 78.33C18.5681 78.3239 18.5681 78.3209 18.5712 78.3179C18.5712 78.2997 18.5742 78.2815 18.5803 78.2634C18.6287 78.0967 18.656 77.9423 18.6621 77.7908C18.6621 77.7514 18.6621 77.7121 18.6621 77.6727C18.659 77.6545 18.659 77.6333 18.656 77.6121C18.656 77.6091 18.656 77.606 18.656 77.603C18.6075 76.9942 18.2168 76.5034 17.8109 76.0188C17.6927 75.8764 17.5443 75.7765 17.517 75.5553C17.2899 73.7469 16.6568 72.9563 14.9272 72.5595C14.2517 72.405 13.9457 72.09 13.6973 71.4872C11.3801 65.8076 9.25059 60.0463 7.0666 54.3091C7.02419 54.2031 7.00602 54.094 6.91817 53.773C6.91817 53.773 6.9212 53.773 6.9212 53.776C7.60881 54.3455 8.14799 54.7786 8.67506 55.2269C13.8518 59.6555 19.2285 63.8236 24.799 67.7372C25.2504 68.0583 25.4321 68.3248 25.4654 68.8943C25.5109 69.9393 26.0985 70.8329 26.5408 71.7508C31.5812 82.3284 36.2218 93.0848 40.9715 103.79C40.9715 103.793 40.9715 103.796 40.9745 103.796C41.0533 103.984 41.1078 104.177 41.1926 104.426C41.1865 104.423 41.1775 104.417 41.1684 104.414C38.1453 102.896 35.1344 101.406 32.1598 99.864C29.1791 98.3161 26.2379 96.7167 23.3632 94.9841L23.3481 94.9901L23.342 94.9931ZM35.4433 104.22L35.4494 104.226C35.8917 103.89 36.2188 103.862 36.7125 104.105C38.3755 104.907 40.0264 105.759 41.756 106.422C41.8954 106.477 42.0226 106.531 42.0953 106.658C42.8374 107.985 44.146 108.379 45.4818 108.648C47.0661 108.969 48.6412 108.909 50.1224 108.13C50.5253 107.918 50.9585 107.688 51.1644 107.288C51.5067 106.631 52.0277 106.504 52.676 106.522C53.5302 106.543 54.3844 106.543 55.2386 106.522C55.5991 106.516 55.7202 106.67 55.7808 107.013C56.1292 108.948 56.1807 110.893 56.0474 112.847C55.9838 113.759 55.5991 114.228 54.8691 114.289C54.866 114.289 54.86 114.289 54.8569 114.289C54.8327 114.289 54.8115 114.292 54.7873 114.292C54.7085 114.295 54.6237 114.292 54.5359 114.286C54.5207 114.286 54.5025 114.283 54.4874 114.283C54.4056 114.273 54.3208 114.264 54.2299 114.249C53.4242 114.113 52.6154 114.01 51.8066 113.955C51.7218 113.949 51.64 113.943 51.5552 113.94C51.5158 113.937 51.4795 113.934 51.4401 113.934C51.3492 113.928 51.2584 113.925 51.1675 113.922C51.0281 113.916 50.8888 113.913 50.7495 113.913C50.3678 113.907 49.9861 113.913 49.6045 113.934C49.556 113.937 49.5106 113.94 49.4621 113.943C49.3652 113.949 49.2682 113.955 49.1713 113.964C49.1077 113.968 49.0471 113.974 48.9835 113.98C48.9199 113.986 48.8532 113.992 48.7896 113.998C48.6624 114.013 48.5352 114.028 48.408 114.043C48.0869 114.086 47.7658 114.137 47.4447 114.201C44.7488 114.743 42.7253 116.351 41.1472 118.557C40.9594 118.817 40.7897 118.926 40.6019 118.938C40.5898 118.938 40.5777 118.941 40.5656 118.941C40.5504 118.941 40.5323 118.938 40.5141 118.938C40.4989 118.938 40.4808 118.935 40.4626 118.932C40.3535 118.917 40.2384 118.875 40.1052 118.817C38.836 118.269 37.9969 117.224 37.073 116.264C35.5918 114.731 34.056 113.277 31.9326 112.686C31.4631 112.559 30.9966 112.465 30.5332 112.411C30.3665 112.389 30.1969 112.374 30.0303 112.365C29.9879 112.362 29.9485 112.362 29.9061 112.359C29.6486 112.35 29.3912 112.353 29.1367 112.371C29.0671 112.377 28.9944 112.383 28.9247 112.389C28.8066 112.401 28.6915 112.417 28.5763 112.435C27.6858 112.568 26.8164 112.889 25.9804 113.431C25.8713 113.501 25.7653 113.604 25.623 113.616C25.6078 113.619 25.5927 113.619 25.5745 113.616C25.5079 113.613 25.4352 113.592 25.3534 113.537C28.5975 110.248 31.7842 106.979 35.4433 104.22ZM50.9312 117.03C50.6374 117.209 50.3163 117.357 49.9892 117.478C49.6226 117.693 49.2016 117.827 48.8017 117.981C48.7745 117.993 48.7412 117.999 48.7078 118.014C48.6139 118.066 48.514 118.114 48.4201 118.16C48.0808 118.329 47.7264 118.435 47.3659 118.545C46.3633 118.993 45.397 119.347 44.3399 119.562C44.5398 119.193 44.767 118.911 45.0214 118.69C45.0335 118.672 45.0487 118.644 45.0668 118.623C45.3758 118.248 45.7545 117.899 46.1906 117.666C46.5238 117.43 46.8783 117.23 47.2448 117.063C47.6264 116.888 48.0202 116.76 48.4201 116.666C48.7745 116.539 49.1349 116.439 49.4954 116.345C49.8226 116.267 50.1648 116.191 50.4859 116.091C50.7707 116.003 51.0524 115.897 51.3674 115.924C51.6945 115.949 51.8399 116.3 51.6249 116.554V116.545C51.4401 116.766 51.1917 116.909 50.9312 117.03ZM27.289 114.87C27.3708 114.543 27.81 114.495 28.1159 114.422C28.6702 114.295 29.2397 114.234 29.7123 114.155C31.4177 114.301 32.8474 114.852 34.0409 115.97C34.1257 116.049 34.2044 116.121 34.2226 116.227V116.23C34.2226 116.236 34.2256 116.242 34.2256 116.245V116.251C34.2287 116.273 34.2256 116.3 34.2226 116.324C34.0136 117.76 33.8076 119.199 32.914 120.42C32.6323 120.801 32.493 120.78 32.2113 120.398C30.9572 118.699 29.6729 117.009 28.0765 115.6C28.0038 115.543 27.916 115.488 27.8706 115.406C27.7161 115.167 27.2163 115.179 27.289 114.87ZM22.712 115.222C22.712 115.188 22.7271 115.155 22.7665 115.128L22.7604 115.134C23.1603 114.837 23.5692 114.564 23.9963 114.301C24.0024 114.298 24.0084 114.298 24.0145 114.298C24.0751 114.304 24.2174 114.407 24.278 114.482C24.278 114.482 24.278 114.485 24.2811 114.485C24.2992 114.516 24.3083 114.543 24.3083 114.57C24.3053 114.652 24.2144 114.713 24.1629 114.779C23.8903 115.134 23.6147 115.488 23.3299 115.858C23.1603 115.703 23.0028 115.561 22.8483 115.415C22.7877 115.361 22.715 115.291 22.712 115.222ZM8.69626 107.764V107.755C9.57168 107.985 10.3532 108.418 11.0408 109.015C11.7405 109.618 12.3433 110.323 12.931 111.038C13.2642 111.447 13.2369 111.756 13.0249 112.177C12.3766 113.477 11.5133 114.582 10.3532 115.461C10.0594 115.682 9.9382 115.737 9.79886 115.288C9.06279 112.95 8.62357 110.563 8.43576 108.124C8.42364 107.937 8.35397 107.715 8.69626 107.764ZM18.7135 133.43C17.0506 133.302 15.6935 132.478 14.4455 131.5C9.57774 127.683 5.9428 122.964 4.22226 116.93C3.70731 115.119 3.66793 113.265 4.12836 111.42C4.26164 110.893 4.4343 110.369 4.80082 109.821C4.80082 109.821 4.80082 109.821 4.80385 109.821C5.40362 110.666 5.63686 111.568 5.80952 112.465C7.15444 119.683 10.6712 125.666 15.9692 130.652C16.781 131.412 17.5928 132.176 18.4076 132.942C18.4076 132.945 18.4106 132.945 18.4137 132.948C18.4137 132.951 18.4167 132.951 18.4197 132.954C18.4228 132.957 18.4258 132.96 18.4318 132.963C18.4803 133.009 18.5409 133.051 18.5924 133.099C18.6015 133.108 18.6075 133.118 18.6166 133.127C18.6833 133.196 18.7347 133.29 18.7287 133.43H18.7135ZM20.2099 133.124C18.3198 131.112 16.1751 129.365 14.3456 127.28C10.4713 122.864 7.94807 117.821 6.9727 112.011C6.78489 110.911 6.49713 109.833 6.23662 108.748C6.11849 108.252 6.57285 107.688 7.16656 107.731C7.45433 107.782 7.33922 108.091 7.35437 108.285C7.50582 110.402 7.89355 112.48 8.44182 114.522C9.73828 119.362 12.2009 123.549 15.6753 127.132C17.3656 128.874 19.1073 130.564 20.8036 132.3L20.8097 132.306C20.8491 132.345 20.8854 132.382 20.9157 132.418C21.3034 132.851 21.2004 133.015 20.6189 133.23L20.6249 133.236C20.425 133.311 20.3372 133.263 20.2099 133.124ZM24.6324 127.729H24.6173C23.7358 128.868 23.1754 130.24 22.3212 131.427C22.1455 131.67 22.0213 131.93 21.6851 131.582C19.2679 129.056 16.5962 126.778 14.4273 124.018C12.8098 121.967 11.5133 119.729 10.5531 117.303C10.5016 117.172 10.4622 117.054 10.4471 116.945C10.4441 116.927 10.4441 116.909 10.441 116.891C10.441 116.872 10.441 116.857 10.441 116.839C10.441 116.827 10.441 116.815 10.441 116.806C10.4531 116.603 10.5713 116.43 10.853 116.251C12.2343 115.361 13.243 114.107 13.973 112.547C14.2517 112.901 14.4728 113.204 14.7121 113.486C14.7696 113.553 14.7908 113.61 14.7939 113.665V113.668C14.7969 113.786 14.6969 113.883 14.6333 113.986C14.3122 114.543 13.9578 115.085 13.664 115.649C13.5519 115.861 13.452 116.082 13.4308 116.294C13.4308 116.309 13.4277 116.324 13.4277 116.336C13.4247 116.373 13.4247 116.409 13.4308 116.442C13.4489 116.657 13.5671 116.851 13.8579 117.009C14.4728 117.336 14.7727 116.827 15.0544 116.427C15.433 115.876 15.6026 115.212 15.8753 114.564C16.2478 114.737 16.4357 115.134 16.8294 115.267C16.9143 115.297 16.9445 115.349 16.9476 115.412V115.415C16.9506 115.524 16.8658 115.667 16.8385 115.776C16.7143 116.276 16.4962 116.745 16.4205 117.257C16.4114 117.333 16.4023 117.406 16.3993 117.481C16.3993 117.487 16.3993 117.496 16.3993 117.502C16.3963 117.533 16.3963 117.563 16.3963 117.593C16.3963 117.609 16.3963 117.624 16.3963 117.639C16.3963 117.666 16.3963 117.69 16.3993 117.718C16.3993 117.739 16.4023 117.76 16.4023 117.781C16.4054 117.784 16.4054 117.787 16.4054 117.793C16.4084 117.833 16.4144 117.869 16.4205 117.902C16.469 118.205 16.6204 118.445 16.9506 118.545C17.3989 118.678 17.6715 118.369 17.8654 118.036C18.1259 117.578 18.2198 117.063 18.2804 116.533C18.2804 116.524 18.2804 116.518 18.2804 116.509C18.2834 116.491 18.2834 116.476 18.2804 116.457C18.2743 116.379 18.2561 116.285 18.2501 116.2C18.2501 116.179 18.2501 116.158 18.2501 116.139C18.2501 116.13 18.2531 116.124 18.2531 116.115C18.2652 115.991 18.341 115.897 18.5924 115.924C18.9801 115.964 19.4405 115.964 19.5163 116.512C19.5768 116.963 19.6071 117.412 19.6677 117.86C19.695 118.093 19.7344 118.329 19.7949 118.557C19.8767 118.86 20.0827 119.059 20.3977 119.087C20.7521 119.114 20.9702 118.899 21.1126 118.596C21.2035 118.393 21.2489 118.19 21.261 117.99C21.2671 117.917 21.2671 117.845 21.2641 117.775C21.2641 117.748 21.261 117.721 21.261 117.696C21.2307 117.3 21.0975 116.909 20.9702 116.512C20.9309 116.397 20.7521 116.242 20.7552 116.115C20.7582 116.052 20.8097 115.994 20.9521 115.958C21.2459 115.876 21.6124 115.549 21.9274 115.949C22.3545 116.5 22.7604 116.994 22.8331 117.742C22.8362 117.751 22.8362 117.76 22.8362 117.766C22.8392 117.814 22.8422 117.86 22.8453 117.908C22.8453 117.981 22.8453 118.057 22.8422 118.136V118.142C22.8392 118.178 22.8362 118.214 22.8362 118.251C22.8331 118.305 22.8331 118.357 22.8301 118.411C22.8301 118.463 22.8301 118.517 22.8301 118.569C22.8301 118.608 22.8301 118.644 22.8301 118.684C22.8301 118.705 22.8301 118.726 22.8301 118.744C22.8331 118.814 22.8362 118.884 22.8392 118.953C22.8422 119.011 22.8453 119.069 22.8483 119.126C22.8483 119.138 22.8513 119.153 22.8513 119.165C22.8543 119.19 22.8543 119.214 22.8574 119.241C22.8604 119.275 22.8634 119.308 22.8665 119.341C22.8695 119.368 22.8725 119.399 22.8755 119.429C22.8786 119.462 22.8816 119.493 22.8846 119.523L22.8968 119.62C23.1088 121.283 23.8025 122.843 24.6991 124.263C24.7021 124.267 24.7021 124.27 24.7051 124.273C25.52 125.557 25.5805 126.508 24.6324 127.729ZM37.8182 136.407C37.0972 136.095 36.5581 135.741 36.1249 135.274L36.1188 135.28C32.184 131.024 28.5248 126.569 25.9531 121.316C25.5381 120.465 25.0989 119.614 25.0505 118.629C25.0262 118.008 25.1989 117.872 25.7532 118.16C26.8073 118.711 27.6161 119.556 28.3704 120.447C28.5885 120.701 28.8005 120.959 29.0125 121.216C29.2246 121.474 29.4366 121.734 29.6426 121.995C29.7335 122.107 29.8243 122.222 29.9152 122.337C30.0061 122.449 30.097 122.564 30.1848 122.679C30.2757 122.794 30.3635 122.909 30.4514 123.025C30.6301 123.255 30.8058 123.488 30.9815 123.721C33.2442 126.75 35.2283 129.961 36.8125 133.433C36.8731 133.566 36.9337 133.699 36.9943 133.832C37.2275 134.356 37.3941 134.899 37.5758 135.441C37.6607 135.707 37.7152 135.983 37.8273 136.413C37.8242 136.41 37.8212 136.41 37.8182 136.407ZM39.8325 136.219C39.8234 136.356 39.7326 136.456 39.5114 136.519V136.525C39.1843 136.619 39.1116 136.507 39.0238 136.232C36.9064 129.779 33.0806 124.345 28.8308 119.172C27.8372 117.96 26.7134 116.833 25.0929 116.433C25.7078 115.528 25.8986 115.467 26.7498 116.003C28.1159 116.869 29.1791 118.081 30.1545 119.335C33.8137 124.042 37.0397 129.028 39.2964 134.59C39.4842 135.053 39.6447 135.523 39.7992 135.995C39.8144 136.053 39.8265 136.104 39.8325 136.15C39.8325 136.159 39.8325 136.168 39.8325 136.177C39.8356 136.192 39.8325 136.204 39.8325 136.219ZM47.2842 131.094C45.9816 131.388 44.9548 132.118 44.0248 133.042C43.0313 134.026 42.0892 135.071 40.8412 135.895C40.4929 135.026 40.1718 134.175 39.8113 133.336C38.109 129.383 35.8371 125.745 33.5077 122.149C33.2594 121.774 33.1988 121.546 33.5259 121.171C34.5679 119.977 34.9223 118.496 35.1223 116.854C35.5706 117.303 35.9038 117.672 36.2733 117.999C36.552 118.257 36.5732 118.496 36.3915 118.817C36.1188 119.32 35.8583 119.829 35.619 120.347C35.4373 120.747 35.1374 121.195 35.7099 121.531C35.7402 121.546 35.7675 121.562 35.7917 121.574C35.8008 121.58 35.8099 121.583 35.819 121.586C35.8371 121.595 35.8523 121.601 35.8704 121.607C35.8886 121.613 35.9038 121.619 35.9219 121.625C35.9371 121.628 35.9522 121.634 35.9704 121.637C35.9765 121.64 35.9856 121.64 35.9916 121.643H35.9946C36.0007 121.643 36.0098 121.646 36.0159 121.646C36.0249 121.646 36.031 121.649 36.0401 121.649C36.0522 121.649 36.0613 121.652 36.0734 121.652C36.1037 121.655 36.137 121.652 36.1643 121.649C36.1734 121.649 36.1794 121.649 36.1855 121.646C36.1976 121.646 36.2067 121.643 36.2158 121.64C36.2339 121.637 36.2521 121.634 36.2673 121.628C36.3824 121.595 36.4854 121.522 36.5793 121.431C36.6308 121.38 36.6823 121.322 36.7307 121.262C36.7398 121.25 36.7489 121.237 36.758 121.228C36.7852 121.192 36.8125 121.156 36.8398 121.119C36.8549 121.098 36.867 121.08 36.8791 121.062C37.2275 120.58 37.4274 120.032 37.5758 119.441C38.2029 119.971 38.3634 120.568 38.0544 121.231C37.8697 121.637 37.6667 122.046 37.6273 122.504C37.6092 122.74 37.6546 122.937 37.7879 123.082C37.7939 123.091 37.803 123.097 37.8121 123.106C37.8182 123.112 37.8242 123.118 37.8333 123.128C37.8394 123.131 37.8454 123.137 37.8515 123.143C37.8636 123.152 37.8757 123.161 37.8878 123.167C37.8909 123.17 37.8939 123.173 37.8969 123.176C37.9121 123.185 37.9242 123.194 37.9393 123.203C37.9515 123.209 37.9666 123.218 37.9817 123.224C37.9999 123.234 38.0211 123.246 38.0423 123.252C38.1847 123.315 38.3119 123.327 38.4301 123.303C38.4422 123.303 38.4543 123.3 38.4664 123.297C38.5997 123.258 38.7239 123.173 38.839 123.058C38.8481 123.046 38.8602 123.037 38.8693 123.025C39.3236 122.558 39.4236 121.934 39.6387 121.359C39.6993 121.198 39.566 120.822 39.9325 120.95C40.193 121.034 40.5474 121.143 40.4474 121.586C40.3535 122.001 40.2808 122.422 40.1991 122.846C40.1385 123.152 40.1445 123.467 40.2445 123.764C40.3475 124.051 40.5656 124.245 40.8745 124.285C41.1956 124.327 41.4289 124.118 41.5743 123.87C41.8681 123.361 41.8954 122.797 41.8439 122.21C41.8227 121.98 41.4804 121.586 41.9893 121.477C42.5709 121.359 43.0101 121.674 43.0495 122.182C43.0858 122.631 43.0858 123.085 43.1434 123.533C43.21 124.07 43.4523 124.594 44.0672 124.485C44.6397 124.385 44.767 123.836 44.7215 123.294C44.7155 123.252 44.7124 123.209 44.7064 123.167C44.7034 123.134 44.7003 123.1 44.6943 123.07C44.6912 123.046 44.6882 123.025 44.6852 123C44.6791 122.967 44.6731 122.931 44.667 122.897C44.6579 122.852 44.6488 122.81 44.6397 122.767C44.6276 122.697 44.6094 122.628 44.5943 122.558C44.5822 122.513 44.5701 122.47 44.558 122.425C44.5307 122.334 44.5004 122.24 44.4701 122.149C44.4368 122.058 44.4004 121.964 44.3611 121.874C44.3489 121.849 44.3399 121.825 44.3277 121.801C44.3065 121.749 44.2823 121.701 44.2611 121.652C44.5519 121.583 44.8185 121.571 45.0608 121.619C45.079 121.622 45.0941 121.625 45.1092 121.628C45.1274 121.631 45.1426 121.634 45.1577 121.64C45.1577 121.64 45.1577 121.64 45.1607 121.64C45.2546 121.668 45.3455 121.701 45.4334 121.746C45.4485 121.755 45.4637 121.761 45.4758 121.771C45.5485 121.81 45.6181 121.858 45.6848 121.913C45.6969 121.922 45.709 121.934 45.7242 121.946C45.7605 121.98 45.7999 122.016 45.8362 122.055C45.8453 122.064 45.8544 122.073 45.8635 122.083C45.8786 122.101 45.8938 122.116 45.9089 122.134C45.9816 122.219 46.0483 122.313 46.1089 122.416C47.4598 124.654 48.3746 127.026 48.3353 129.692L48.3534 129.713C48.3413 130.803 48.3201 130.852 47.2842 131.094ZM50.9615 128.943C50.9585 129.004 50.9585 129.068 50.9554 129.131C50.9524 129.222 50.9494 129.313 50.9464 129.404C50.9433 129.474 50.9403 129.543 50.9342 129.613C50.9312 129.646 50.9282 129.683 50.9251 129.716C50.907 129.889 50.8767 130.064 50.8252 130.234V130.24C50.7464 130.51 50.6374 130.616 50.3587 130.664C49.3106 130.831 49.3349 130.846 49.3894 129.773C49.5227 127.065 48.62 124.633 47.3175 122.322C47.2236 122.155 47.0782 122.007 47.0327 121.834C47.0297 121.822 47.0237 121.813 47.0206 121.801C47.0146 121.789 47.0115 121.78 47.0055 121.767C46.9328 121.637 46.7662 121.504 46.7207 121.377C46.7177 121.368 46.7147 121.356 46.7147 121.346C46.7117 121.337 46.7117 121.328 46.7117 121.316C46.7117 121.307 46.7117 121.298 46.7117 121.289C46.7147 121.286 46.7147 121.28 46.7177 121.277C46.7177 121.271 46.7177 121.268 46.7207 121.262C46.7207 121.259 46.7238 121.253 46.7268 121.25C46.7298 121.243 46.7298 121.24 46.7329 121.237C46.7389 121.228 46.745 121.219 46.7541 121.21C46.7571 121.204 46.7601 121.201 46.7662 121.195C46.7813 121.177 46.8025 121.162 46.8298 121.143C46.851 121.128 46.8722 121.116 46.8995 121.104C47.2236 120.941 47.5992 120.441 48.0808 121.083C49.7892 123.367 50.8706 125.866 50.9736 128.747C50.9676 128.813 50.9645 128.877 50.9615 128.943ZM64.1624 127.005C60.6486 128.083 57.0955 129.001 53.4847 129.713C53.4817 129.713 53.4787 129.713 53.4757 129.713C53.4635 129.713 53.4514 129.716 53.4423 129.722C53.4363 129.725 53.4302 129.728 53.4242 129.728C53.4211 129.731 53.4181 129.731 53.4181 129.731C52.161 129.958 52.2004 129.958 52.1883 128.701C52.1489 125.92 51.1857 123.449 49.6014 121.195C48.9471 120.271 48.935 120.259 49.9437 119.729C54.3662 117.418 58.6736 114.876 63.1931 112.753C65.9738 111.447 68.8302 110.354 71.8957 109.948C71.9593 109.939 72.0229 109.93 72.0865 109.924C72.1441 109.918 72.2047 109.909 72.2653 109.902C72.2683 109.902 72.2713 109.902 72.2743 109.902C72.2804 109.902 72.2865 109.902 72.2895 109.902C72.338 109.896 72.3834 109.893 72.4319 109.89C72.4894 109.884 72.547 109.878 72.6076 109.875C72.6984 109.869 72.7893 109.863 72.8771 109.86C72.9195 109.857 72.9589 109.854 73.0013 109.854C73.1649 109.845 73.3285 109.842 73.4921 109.839C73.5314 109.839 73.5678 109.839 73.6072 109.839C73.692 109.839 73.7768 109.836 73.8616 109.836C73.9464 109.836 74.0343 109.839 74.1191 109.839C74.2402 109.839 74.3644 109.842 74.4856 109.842C74.6249 109.845 74.7643 109.848 74.9036 109.851C75.1126 109.854 75.3216 109.857 75.5306 109.86C75.5488 109.86 75.567 109.86 75.5882 109.863C75.6609 109.866 75.7336 109.878 75.8002 109.899C75.8517 109.915 75.9002 109.93 75.9487 109.951C76.0002 109.975 76.0486 109.999 76.0941 110.03C76.1365 110.054 76.1758 110.081 76.2152 110.111C76.2243 110.121 76.2364 110.127 76.2455 110.136C76.2576 110.145 76.2728 110.157 76.2849 110.166C76.294 110.175 76.3031 110.181 76.3122 110.19C76.3303 110.205 76.3485 110.224 76.3667 110.239C76.3818 110.251 76.3939 110.263 76.4091 110.278C76.4576 110.323 76.506 110.375 76.5545 110.423C76.5696 110.442 76.5848 110.457 76.5999 110.475C76.6211 110.496 76.6393 110.514 76.6575 110.536C78.4689 112.526 79.5563 114.876 80.044 117.512C80.4318 119.629 80.3318 121.719 79.7775 123.803C79.7744 123.818 79.7684 123.833 79.7654 123.845C79.7563 123.876 79.7472 123.903 79.7381 123.93C79.7351 123.945 79.729 123.958 79.726 123.97C79.7169 123.997 79.7078 124.021 79.6957 124.045C79.6866 124.07 79.6775 124.094 79.6654 124.115C79.6442 124.16 79.6199 124.2 79.5957 124.236C79.5866 124.251 79.5745 124.263 79.5654 124.276C79.5472 124.297 79.5291 124.315 79.5109 124.333C79.4958 124.348 79.4806 124.36 79.4624 124.376C79.4382 124.394 79.414 124.409 79.3837 124.424C79.3655 124.433 79.3443 124.442 79.3261 124.451H79.3231C79.3049 124.46 79.2837 124.466 79.2595 124.472C79.1807 124.494 79.0929 124.503 78.9869 124.503C78.9475 124.503 78.9081 124.503 78.8627 124.5C78.0085 124.445 77.1543 124.485 76.297 124.485C72.0623 124.4 68.1305 125.793 64.1624 127.005ZM73.4466 127.374C74.9551 127.071 76.403 127.214 77.9479 127.208C77.4602 128.144 76.7393 128.695 75.985 129.21C75.7911 129.337 75.6306 129.289 75.4549 129.204C74.6431 128.789 74.0009 128.186 73.4466 127.374ZM72.1168 129.692L72.1229 129.686C71.6776 129.255 71.2808 128.789 70.9537 128.259C70.7689 127.956 70.7083 127.823 71.1627 127.702C71.3626 127.65 71.5443 127.608 71.717 127.599C71.72 127.599 71.7261 127.599 71.7291 127.599C71.7443 127.599 71.7624 127.596 71.7776 127.596C71.8018 127.596 71.823 127.596 71.8442 127.599C71.8563 127.599 71.8715 127.599 71.8836 127.602C71.9018 127.602 71.9169 127.605 71.9351 127.608C72.2016 127.641 72.4349 127.789 72.6439 128.132C72.8771 128.504 73.2285 128.807 73.5678 129.107C73.5708 129.107 73.5708 129.107 73.5738 129.11C73.8858 129.389 74.2433 129.616 74.631 129.904L74.634 129.907C74.0646 130.246 73.6889 130.425 73.3527 130.425C72.965 130.425 72.6348 130.185 72.1168 129.692ZM80.0168 131.876C80.0228 131.876 80.0258 131.876 80.0319 131.876C80.1955 131.561 80.5711 131.494 80.6196 131.04C78.5628 132.151 76.4909 132.606 74.2342 131.627C74.7673 131.461 75.2641 131.339 75.7306 131.161C77.9812 130.288 79.417 128.547 80.5862 126.529C81.1921 125.484 81.1799 125.518 82.3825 125.684C84.0576 125.92 85.7418 125.948 87.4169 125.684C87.6047 125.66 87.7925 125.639 87.9864 125.611C87.9833 125.617 87.9833 125.621 87.9833 125.627C87.7168 127.359 86.7202 128.907 85.2935 130.028C83.8698 131.152 82.0129 131.845 80.0319 131.876C80.0289 131.882 80.0258 131.885 80.0228 131.891L80.0168 131.876ZM107.975 123.352C107.86 123.5 107.745 123.643 107.627 123.782C107.582 123.833 107.539 123.882 107.497 123.933C107.436 124 107.376 124.067 107.315 124.133C107.285 124.167 107.255 124.2 107.221 124.233C107.191 124.267 107.161 124.297 107.13 124.33C107.103 124.36 107.073 124.388 107.046 124.418C107.009 124.454 106.976 124.488 106.943 124.521H106.94C106.909 124.554 106.876 124.585 106.846 124.615C106.818 124.642 106.791 124.669 106.764 124.694C106.694 124.763 106.621 124.83 106.549 124.897C106.518 124.924 106.485 124.951 106.455 124.981C105.001 126.284 103.286 127.214 101.436 127.935C101.351 127.965 101.266 127.998 101.181 128.032C97.9915 129.231 94.6777 129.873 91.2639 130.095C89.7947 130.188 88.3317 130.267 86.7505 130.182C88.3468 128.15 89.407 125.993 89.922 123.582C89.9886 123.273 90.0553 123.118 90.5096 123.112C94.5717 123.1 98.5459 122.703 102.205 120.647C105.898 118.578 107.473 115.388 107.467 111.287C107.467 110.723 107.654 110.545 108.142 110.463C109.057 110.314 109.966 110.142 110.874 109.96C111.147 109.905 111.268 109.948 111.286 110.248C111.55 114.891 110.986 119.335 108.097 123.194L108.103 123.185C108.06 123.243 108.018 123.297 107.975 123.352Z" fill="white"/>
</g>
<path d="M72.6417 47.5357C72.7417 47.6569 72.8083 47.7962 72.7417 47.9234C72.6539 48.084 72.5024 47.9901 72.3691 47.9507C71.9814 47.8356 71.5997 47.7235 71.1938 47.7296C70.9394 47.7296 70.6244 47.6478 70.5123 47.9719C70.4032 48.2657 70.4244 48.5747 70.6516 48.8413C70.9182 49.1502 71.2453 49.3774 71.5725 49.6137C71.7148 49.7136 71.9602 49.7863 71.8602 50.0347C71.7936 50.2013 71.5997 50.2225 71.4331 50.2347C70.2518 50.3498 69.0007 48.7807 69.3824 47.6508C69.6217 46.9269 70.2185 46.7391 70.9727 46.7118C71.5816 46.7784 72.1874 46.9874 72.6357 47.5297L72.6417 47.5357Z" fill="white"/>
<path d="M64.6597 40.7143C65.2474 42.0683 65.2474 43.4284 64.6749 44.7824C64.4416 45.3306 64.0115 45.679 63.4238 45.6941C62.8029 45.7062 62.3697 45.3185 62.1031 44.7672C61.8214 44.2068 61.7215 43.595 61.776 43.0315C61.7427 42.2016 61.8881 41.4594 62.2092 40.7627C62.4424 40.2508 62.8029 39.8782 63.3845 39.8691C63.9721 39.8691 64.4265 40.1569 64.6658 40.7203L64.6597 40.7143Z" fill="white"/>
<path d="M73.5035 53.6212C73.764 54.0483 73.4581 54.3725 73.0855 54.6027C72.9855 54.6633 72.8886 54.7269 72.8401 54.7511C71.8799 55.0661 70.6198 54.4966 70.2623 53.6424C70.1654 53.4062 70.1412 53.1669 70.3411 52.9851C70.5441 52.8003 70.7379 52.9457 70.9166 53.0608C71.1741 53.2335 71.4013 53.4455 71.6739 53.594C71.9738 53.7515 72.2676 53.9696 72.6584 53.7091C72.9007 53.5455 73.2672 53.2214 73.5096 53.6182L73.5035 53.6212Z" fill="white"/>
<path d="M84.3772 43.9857C84.9376 45.3064 85.0315 46.6513 84.4983 48.0053C84.1712 48.8292 83.5411 49.3048 82.8626 49.2836C82.1266 49.2654 81.5328 48.7565 81.2118 47.9174C81.024 47.4146 80.9906 46.8997 80.9785 46.3029C81.0118 45.479 81.1512 44.6157 81.6389 43.8433C81.9478 43.3556 82.3931 43.0012 82.9747 43.0345C83.5957 43.0587 84.1167 43.3738 84.3772 43.9857Z" fill="white"/>
<path d="M87.209 35.0646C87.3336 35.2812 87.4849 35.5452 87.2861 35.7856C87.1051 36.017 86.8173 36.0882 86.5295 36.0289C85.6898 35.839 84.868 35.5897 84.1262 35.118C83.7731 34.8866 83.4023 34.6195 83.5387 34.1122C83.6901 33.5692 84.1677 33.5692 84.7226 33.5425C85.7165 33.6552 86.6334 34.0676 87.203 35.0705L87.209 35.0646Z" fill="white"/>
<path d="M83.6637 108.647C83.6756 108.816 83.5598 108.902 83.4352 108.962C83.2839 109.033 83.1741 108.962 83.0821 108.837C82.5006 108.084 81.9102 107.336 81.3346 106.588C81.2812 106.52 81.2485 106.416 81.2634 106.336C81.2812 106.238 81.382 106.22 81.4859 106.22C81.9814 106.244 83.6696 108.116 83.6637 108.641V108.647Z" fill="white"/>
<path d="M85.5038 116.845C85.5424 117.973 85.581 119.103 85.0439 120.284C84.7828 119.07 84.8095 117.961 84.8214 116.857C84.8214 116.596 84.9075 116.37 85.1893 116.347C85.5543 116.32 85.4979 116.628 85.5038 116.845Z" fill="white"/>
<path d="M104.316 42.7164C105.218 42.7046 106.022 43.5561 105.945 44.4432C105.912 44.7904 105.88 44.9744 105.461 44.6925C104.545 44.0753 103.981 44.1614 103.183 44.9358C102.809 45.2889 102.542 45.7309 102.26 46.1552C102.118 46.3718 102.026 46.7872 101.711 46.6804C101.429 46.5884 101.575 46.1879 101.575 45.9327C101.569 44.3631 102.96 42.7372 104.313 42.7164H104.316Z" fill="white"/>
<path d="M84.2597 110.439C85.0578 111.765 85.3456 113.19 85.1943 114.863C84.7819 114.448 84.7938 114.035 84.6899 113.673C84.4021 112.67 84.1529 111.647 83.8918 110.635C83.8591 110.499 83.7998 110.353 83.9778 110.282C84.1084 110.229 84.1944 110.332 84.2597 110.433V110.439Z" fill="white"/>
<path d="M82.7025 71.8558V71.8499C82.1862 71.8469 81.7323 72.019 81.3911 72.3157C81.3792 72.3276 81.3673 72.3365 81.3584 72.3484C81.3495 72.3543 81.3436 72.3602 81.3347 72.3662C81.3139 72.3899 81.2902 72.4107 81.2694 72.4344C80.946 72.7726 80.7502 73.2414 80.7443 73.7785C80.7324 74.8555 81.5958 75.7397 82.6758 75.7545C83.2544 75.7664 83.7825 75.5083 84.1415 75.1018C84.1534 75.0899 84.1623 75.078 84.1712 75.0662C84.189 75.0484 84.2038 75.0306 84.2187 75.0098C84.4649 74.6953 84.6163 74.3007 84.6192 73.8764C84.6252 72.8349 83.7083 71.8618 82.7025 71.8558ZM83.7143 73.9031C83.7143 73.9239 83.7143 73.9446 83.7143 73.9624C83.7143 73.9773 83.7113 73.9921 83.7113 74.0099C83.7113 74.0158 83.7113 74.0218 83.7113 74.0277C83.6638 74.5974 83.2811 74.9475 82.6877 74.9475C82.0972 74.9475 81.6255 74.4668 81.5928 73.8348C81.5928 73.8289 81.5928 73.8259 81.5928 73.82C81.5899 73.8081 81.5899 73.7963 81.5899 73.7874V73.7725C81.5899 73.7518 81.5899 73.728 81.5899 73.7073C81.6166 73.105 82.0765 72.6629 82.6699 72.6836C83.284 72.7014 83.7232 73.2207 83.7232 73.9031H83.7143Z" fill="white"/>
<path d="M84.1154 124.188C84.0116 125.375 83.4627 126.295 82.5399 126.989C82.3619 127.12 82.1275 127.227 81.9703 127.049C81.7922 126.859 82.0563 126.734 82.1602 126.604C82.807 125.797 83.4627 124.996 84.1154 124.188Z" fill="white"/>
<path d="M98.8727 8.45899C100.083 8.64888 101.255 8.96339 102.222 9.79119C100.057 9.05537 97.8342 8.88031 95.5822 9.05537C92.2799 9.3135 89.1378 10.1858 86.1826 11.696C85.88 11.8474 85.4617 12.2538 85.2065 11.7999C84.9395 11.3192 85.5536 11.2154 85.8147 11.073C88.1498 9.77339 90.651 8.93075 93.3065 8.58361C95.1579 8.34328 97.0094 8.15635 98.8667 8.45306L98.8727 8.45899Z" fill="white"/>
</svg>
