<svg width="135" height="127" viewBox="0 0 135 127" fill="none" xmlns="http://www.w3.org/2000/svg">
<mask id="mask0_344_1229" style="mask-type:luminance" maskUnits="userSpaceOnUse" x="0" y="0" width="135" height="127">
<path d="M0.710938 0.809937H134.679V126.19H0.710938V0.809937Z" fill="white"/>
</mask>
<g mask="url(#mask0_344_1229)">
<path d="M134.491 74.6933C134.524 74.6525 134.632 74.5156 134.794 74.3163C134.585 74.3307 134.458 74.3403 134.305 74.3523C134.456 74.0377 134.585 73.7664 134.714 73.4975C134.669 73.4999 134.627 73.4999 134.583 73.5023C134.564 73.1997 134.526 72.8996 134.531 72.597C134.538 72.3329 134.648 72.0327 134.23 72.0351C134.23 71.7998 134.23 71.5765 134.23 71.4732C133.934 71.3964 133.699 71.334 133.605 71.3099C133.657 70.9594 133.821 70.5728 133.713 70.4623C133.328 70.0661 133.368 69.6747 133.61 69.2113C133.178 69.1921 132.729 69.0336 132.919 68.6566C133.07 68.354 132.912 68.1571 132.99 67.9794C132.774 67.9506 132.586 67.9266 132.374 67.9002C132.729 67.2158 132.771 67.1678 132.273 66.714C131.893 66.3658 131.58 66.0561 131.437 65.5206C131.378 65.3069 131.15 64.829 130.666 65.0211C130.525 65.0763 130.365 65.0812 130.213 65.1076C130.213 64.9179 130.213 64.7258 130.213 64.4496C130.384 64.6129 130.481 64.7066 130.579 64.8002C130.593 64.6057 130.467 64.4424 130.492 64.308C130.57 63.8901 130.318 63.8133 130.027 63.6836C129.877 63.6188 129.788 63.3859 129.696 63.2154C129.569 62.9777 129.503 62.6991 129.346 62.4902C129.149 62.2261 128.885 62.0148 128.622 61.7554C128.145 61.8731 127.774 61.6906 127.424 61.0399C127.798 61.2272 128.087 61.3688 128.373 61.5129C128.409 61.4649 128.444 61.4145 128.479 61.3664C128.235 60.9895 127.76 60.9078 127.377 60.7325C127.495 60.5548 127.593 60.4084 127.647 60.3267C127.448 60.1154 127.283 59.9377 127.079 59.7168C127.048 59.7264 126.91 59.7696 126.759 59.8153C126.844 59.6376 126.907 59.5055 126.971 59.3758C126.919 59.395 126.865 59.4142 126.813 59.4335C126.621 59.2005 126.426 58.97 126.238 58.7443C126.104 58.8163 125.953 58.9364 125.787 58.9676C125.697 58.9868 125.578 58.8572 125.472 58.7923C125.549 58.7371 125.62 58.6627 125.704 58.629C125.979 58.521 125.998 58.3049 125.796 58.1728C125.148 57.755 125 56.9818 124.509 56.4031C124.403 56.4535 124.276 56.5136 124.095 56.6024C124.189 55.6899 123.658 55.3033 122.989 55.1569C122.96 54.8807 123 54.6334 122.906 54.4677C122.711 54.1291 122.451 53.8266 122.204 53.5216C121.974 53.2311 121.734 52.9453 121.48 52.6764C121.438 52.6308 121.311 52.6692 121.222 52.6692C121.422 52.1721 121.382 52.1265 120.841 52.1817C120.672 52.201 120.496 52.1841 120.315 52.1841C120.465 51.2333 119.972 50.5897 119.359 50.6474C119.077 50.3712 118.88 50.1527 118.649 49.9822C118.626 49.9654 118.403 50.2343 118.21 50.4336C118.149 50.4 118.001 50.3184 117.855 50.2391C117.865 50.2031 117.876 50.1695 117.886 50.1335C117.982 50.1287 118.079 50.1239 118.198 50.1167C118.184 50.0206 118.187 49.9318 118.156 49.8573C117.872 49.1538 117.052 49.4395 116.615 48.9977C116.493 48.8728 116.265 48.8584 116.002 48.7672C115.875 48.8848 115.678 49.0673 115.41 49.3171C115.41 49.1322 115.452 48.9905 115.403 48.9017C115.304 48.724 115.158 48.5751 115.031 48.4142C114.808 48.6783 114.599 48.4766 114.39 48.3926C114.228 48.3254 114.078 48.2053 113.911 48.1813C113.251 48.078 112.586 48.0036 111.928 47.9196C111.738 48.0636 111.5 48.2389 111.228 48.443C111.106 48.1405 111.014 47.9148 110.899 47.6338C110.706 47.7611 110.535 47.8715 110.439 47.9364C109.95 47.4729 109.44 47.8691 108.973 47.8043C108.984 47.6722 108.998 47.5402 109.01 47.4081C108.801 47.4081 108.608 47.4081 108.369 47.4081C108.46 47.533 108.526 47.6218 108.592 47.7106C108.564 47.7347 108.536 47.7587 108.507 47.7851C108.392 47.6722 108.275 47.5618 108.148 47.4369C108.136 47.5474 108.127 47.6338 108.12 47.7131C107.741 47.521 107.387 47.3433 107.112 47.204C106.809 47.4177 106.536 47.6122 106.229 47.8307C106.13 47.5546 106.078 47.4033 106.034 47.276C105.597 47.4225 105.195 47.5594 104.807 47.689C104.697 47.5666 104.603 47.4633 104.492 47.3409C104.377 47.4825 104.297 47.581 104.201 47.701C104.107 47.5474 104.034 47.4273 103.919 47.2352C103.536 47.4753 103.184 47.6962 102.838 47.9123C102.881 47.7467 102.923 47.5786 102.968 47.3961C102.613 47.4465 102.34 47.4849 102.066 47.5258C102.091 47.5666 102.115 47.6098 102.141 47.653C101.859 47.8283 101.575 48.0036 101.278 48.1885C101.26 48.018 101.248 47.9051 101.239 47.8115C99.7326 47.7875 98.2902 47.9484 96.9722 48.6928C96.9369 48.5319 96.9087 48.3926 96.8853 48.2917C96.7114 48.3134 96.5657 48.3158 96.4295 48.3518C96.0184 48.4622 95.5743 48.5199 95.2102 48.724C94.8789 48.9089 94.6299 48.9377 94.3362 48.7192C94.3151 48.7048 94.2728 48.724 94.2188 48.7288C94.1342 48.808 94.0379 48.8969 93.9204 49.0049C93.8805 48.8921 93.8499 48.8056 93.817 48.7168C93.6996 48.8344 93.5821 48.9521 93.5163 49.0193C92.7951 48.5439 92.6142 49.3579 92.189 49.6028C92.142 49.4371 92.1067 49.3051 92.0621 49.149C91.5664 49.3867 91.1247 49.6773 90.6407 49.7997C90.2343 49.903 89.9407 50.0518 89.7386 50.4216C89.6893 50.5177 89.5906 50.6257 89.4943 50.6498C89.062 50.765 88.6086 50.8106 88.1904 50.9619C87.8568 51.0844 87.5655 51.4686 87.2507 51.4758C86.567 51.4902 86.0807 51.8864 85.538 52.1769C84.899 52.5179 84.2764 52.8901 83.6515 53.2575C82.9467 53.6729 82.2396 54.0931 81.5418 54.5229C80.5269 55.1497 79.5143 55.7788 78.5135 56.4271C78.1494 56.6624 77.8134 56.9434 77.4822 57.2243C77.1486 57.5053 76.7234 57.755 76.5495 58.1224C76.3522 58.5426 76.2652 58.3241 76.0937 58.1752C72.5721 61.1143 69.518 64.5313 66.5649 68.0611C66.5954 67.6289 66.687 67.2471 66.7716 66.8629C67.0676 65.535 67.0653 64.1567 67.5304 62.8528C67.857 61.9307 67.9698 60.9294 68.3057 60.0122C68.7004 58.9268 68.5571 57.7286 69.0622 56.6792C68.6534 56.0837 69.236 55.6827 69.3418 55.1881C69.3629 55.092 69.3935 54.9215 69.3606 54.9047C69.0434 54.7342 69.2948 54.571 69.3606 54.4221C69.4263 54.2684 69.6002 54.1339 69.6049 53.9851C69.6331 53.0798 70.2416 52.237 69.8798 51.2885C69.8563 51.226 69.9526 51.1156 69.9925 51.0243C70.0583 50.8731 70.1687 50.7242 70.1828 50.5681C70.2416 49.9534 70.2698 49.3363 70.3097 48.7216C70.2745 48.6928 70.2392 48.6663 70.2063 48.6375C70.0184 48.82 69.8304 49.0025 69.6519 49.1802C69.5908 48.7864 69.6777 48.467 70.0842 48.2965C70.1405 48.2749 70.1781 48.1573 70.1922 48.078C70.2674 47.6482 70.3355 47.2184 70.4037 46.7862C70.4319 46.5893 70.4953 46.3852 70.4647 46.1955C70.4342 46.013 70.305 45.8473 70.164 45.5615C70.4131 45.6456 70.4882 45.672 70.5869 45.7056C70.5235 45.4295 70.3731 45.1725 70.4342 44.9925C70.8289 43.8447 70.8829 43.2756 70.6081 42.159C70.5963 42.111 70.594 42.0461 70.6175 42.0077C71.186 41.0328 70.5023 40.0723 70.5564 39.0926C70.5799 38.7012 70.4788 38.2306 70.453 37.7912C70.446 37.6591 70.399 37.4862 70.3073 37.4094C69.8939 37.0708 69.7623 36.5785 69.9761 36.0935C70.0348 35.959 70.0959 35.7957 70.0701 35.6613C69.9526 35.0682 69.7787 34.4895 69.7952 33.8628C69.7999 33.6322 69.5415 33.3945 69.4005 33.1544C69.8868 32.811 69.2854 32.3572 69.4874 31.9946C69.3159 31.961 69.1797 31.9346 69.1068 31.9202C69.1985 31.6488 69.2689 31.4423 69.3418 31.2382C69.222 31.195 69.0998 31.1518 69.0035 31.1181C69.0739 30.9092 69.1468 30.7003 69.229 30.453C69.0152 30.4962 68.8649 30.525 68.7169 30.5563C68.6957 30.5178 68.6746 30.4794 68.6511 30.4386C68.7662 30.3353 68.8837 30.2321 68.9682 30.1577C68.8907 30.1024 68.8014 30.04 68.6863 29.9583C68.8014 29.9007 68.8743 29.8623 68.8931 29.8527C68.7403 29.7014 68.5195 29.5838 68.4772 29.4205C68.4302 29.2308 68.5266 28.9979 68.5853 28.7914C68.7568 28.2006 68.6628 28.0494 67.9016 27.9485C67.9792 27.5163 68.0543 27.0913 68.1295 26.6687C67.756 26.4934 67.3448 26.2076 67.5093 25.7442C67.6831 25.2591 67.4459 24.9254 67.3354 24.5436C67.265 24.3035 67.2156 23.8856 66.7481 24.1498C66.6823 24.1882 66.485 23.9817 66.3229 23.8712C67.023 23.427 66.9549 23.0836 66.3229 22.7138C66.2031 22.1808 66.142 21.7702 66.0128 21.3836C65.8977 21.045 65.7027 20.7328 65.5429 20.4063C65.4513 20.4423 65.2727 20.5071 64.9673 20.62C65.0871 20.2478 65.2445 19.9956 65.2234 19.7579C65.2046 19.5226 65.0073 19.3017 64.8663 19.0328C64.73 19.2176 64.5985 19.3929 64.4622 19.5778C64.4317 19.525 64.3001 19.3809 64.3283 19.3401C64.6666 18.807 64.2367 18.4324 64.0605 18.0314C63.8162 17.4816 63.4966 16.9677 63.1818 16.389C62.759 16.5835 62.9234 16.2209 63.0338 15.9544C62.8905 15.9039 62.7026 15.8631 62.7026 15.8343C62.7449 15.2772 62.2867 15.4501 62.1012 15.3036C61.9837 14.9074 61.8686 14.4944 61.6289 14.1775C61.3094 13.75 60.8936 13.3995 60.5201 13.0153C60.4237 12.9168 60.2898 12.8232 60.2522 12.7007C60.076 12.1388 60.0337 12.1148 59.4159 12.4918C59.578 12.2012 59.6837 12.0116 59.8082 11.7906C59.6438 11.733 59.4746 11.673 59.2914 11.6057C59.2373 10.9982 58.7322 10.7557 58.3187 10.458C58.1331 10.3259 57.7854 10.2058 57.9287 10.7293C57.5223 10.7077 57.3038 10.5516 57.4753 10.1578C57.675 9.69917 57.3955 9.53108 57.0947 9.30296C56.6695 8.9764 56.2537 8.63782 55.8778 8.24162C55.671 8.02071 55.3421 7.91986 55.1143 7.79019C54.8887 7.55007 54.7008 7.31475 54.4729 7.12985C54.4212 7.08903 54.1299 7.2187 54.1205 7.29073C54.0688 7.72055 53.8809 7.50444 53.6835 7.43481C53.7352 7.31715 53.7728 7.2307 53.8104 7.14666C53.5214 7.06262 53.8715 6.4431 53.2606 6.52954C53.0069 6.56316 52.7203 6.0541 52.3961 5.91003C52.1142 5.78276 51.7618 5.80917 51.4399 5.79957C51.36 5.79717 51.2778 5.92203 51.1956 5.98686C51.1697 5.87401 51.158 5.75635 51.1181 5.64829C51.0429 5.44899 50.9865 5.12002 50.8643 5.0888C50.5589 5.01437 50.2629 4.99756 50.0045 4.75984C49.8447 4.61336 49.6004 4.46208 49.4054 4.47649C48.6724 4.53172 48.1556 3.99384 47.5095 3.81855C47.1947 3.73211 46.8305 3.38873 46.612 3.47758C46.2644 3.61925 46.1116 3.5232 45.8791 3.3287C45.7898 3.25426 45.5924 3.27107 45.4562 3.30229C45.1155 3.37913 44.8242 3.42235 44.648 3.00454C44.6128 2.92289 44.3943 2.90609 44.2557 2.89408C44.1899 2.88688 44.0771 2.99973 44.0489 2.97812C43.7271 2.71399 43.3864 2.72599 43.0152 2.83405C42.9307 2.86046 42.7803 2.79083 42.7122 2.71639C42.4279 2.41623 42.2282 2.46186 42.0755 2.83405C42.0591 2.87727 42.052 2.92289 42.0168 3.05976C41.9392 2.76441 41.9017 2.62514 41.85 2.43064C41.5845 2.52909 41.359 2.61314 41.0794 2.71639C41.0465 2.65876 40.969 2.52189 40.8656 2.3394C40.4662 2.40183 39.9776 2.3562 39.6463 2.56751C39.3385 2.76441 39.2093 2.87967 39.0214 2.44265C38.6901 2.7356 38.3965 3.24946 38.0159 2.61794C37.6282 2.70438 37.3675 3.45116 36.9281 2.80283C36.6838 2.95891 36.463 3.10059 36.1576 3.29508C36.1576 3.28308 36.1576 3.41515 36.1576 3.50639C35.9132 3.44876 35.6853 3.38633 35.4551 3.34551C35.2907 3.3167 35.0134 3.24946 34.9688 3.3191C34.6986 3.75372 34.5459 3.50639 34.405 3.23025C33.6461 3.60004 32.6923 3.23505 32.1637 3.9194C31.9711 3.9194 31.7925 3.86418 31.7197 3.92901C31.4425 4.17874 31.1582 4.12111 30.8504 4.03947C30.7447 4.01305 30.5991 4.00105 30.5121 4.05147C30.2725 4.19074 30.0705 4.41406 29.8191 4.52211C29.5019 4.65898 29.1519 4.71661 28.8746 4.79105C28.823 4.54853 28.7971 4.42847 28.7713 4.306C28.5645 4.41406 28.3601 4.52211 28.1205 4.64698C28.0665 4.63257 27.9326 4.55813 27.8151 4.57734C27.6788 4.60135 27.5543 4.76944 27.4275 4.76464C26.8284 4.74303 26.3303 5.21607 25.7219 5.12242C25.6772 5.11522 25.5926 5.14163 25.5856 5.17045C25.4728 5.54744 25.158 5.63148 24.8456 5.73954C24.6318 5.81398 24.4274 5.93164 24.2347 6.0589C23.8212 6.32784 23.4289 6.62799 23.0131 6.88973C22.6019 7.14666 22.165 7.35797 21.7515 7.6125C21.4414 7.8022 21.1595 8.03511 20.8564 8.23442C20.1633 8.68345 19.5502 9.24293 18.7843 9.59591C18.2181 9.85525 17.7318 10.3163 17.2384 10.7221C16.294 11.5001 15.3355 12.2661 14.4451 13.1041C13.3198 14.1607 12.2344 15.2652 11.1701 16.3866C10.2093 17.3999 9.26718 18.4348 8.37444 19.5082C7.58506 20.4567 6.84033 21.4484 6.13788 22.4641C5.44953 23.4582 4.79876 24.4835 4.20203 25.5377C3.67813 26.4646 3.23646 27.4395 2.79244 28.4096C2.52462 28.9955 2.30378 29.603 2.09704 30.2129C1.99837 30.5106 2.08529 30.9236 1.91379 31.1398C1.3664 31.8289 1.56139 32.7006 1.26538 33.4401C1.25363 33.4665 1.28182 33.5074 1.27478 33.541C1.22074 33.8555 1.16436 34.1677 1.10562 34.4991C1.37815 34.6287 1.38284 34.6792 1.15026 34.8665C1.07508 34.9265 1.01165 35.0394 1.0046 35.133C0.971713 35.534 0.985808 35.9422 0.934123 36.3408C0.901233 36.5954 0.788465 36.8379 0.710938 37.0876C0.710938 37.1212 0.710938 37.1548 0.710938 37.1885C0.788465 37.2941 0.931774 37.395 0.934123 37.5006C0.948219 37.9857 0.929425 38.4707 0.901233 38.9558C0.896534 39.0206 0.776719 39.0782 0.710938 39.1407C0.710938 39.1743 0.710938 39.2103 0.710938 39.2439C0.76967 39.2847 0.87774 39.3183 0.884788 39.364C0.957617 39.9979 1.01635 40.6342 1.08213 41.285C1.1949 41.2225 1.27008 41.1793 1.34526 41.1361C1.35465 41.1553 1.36405 41.1721 1.37345 41.1913C1.25363 41.3258 1.13147 41.4602 1.0093 41.5947C1.05864 41.5947 1.10562 41.5971 1.15496 41.5995C1.20195 41.9909 1.27243 42.3823 1.29357 42.7761C1.30767 43.0739 1.33586 43.3116 1.72115 43.2804C1.38049 43.5589 1.38754 43.5565 1.52145 44.0752C1.56844 44.2553 1.60133 44.4522 1.57784 44.6323C1.47447 45.4727 2.03126 45.9602 2.49408 46.5028C1.93963 46.9975 1.89735 47.7995 2.36016 48.1357C2.36016 48.4046 2.30613 48.6519 2.37191 48.8608C2.49642 49.2402 2.78774 49.5812 2.83238 49.963C2.90051 50.5249 2.96864 51.0652 3.22472 51.5742C3.61705 52.3498 3.9765 53.1398 4.37119 53.913C4.55208 54.266 4.81991 54.5782 4.98906 54.936C5.30387 55.6059 5.46362 56.3671 6.11908 56.8257C6.14962 56.8473 6.11439 56.9506 6.14258 56.9962C6.36106 57.3348 6.5819 57.6734 6.82153 57.9975C6.84033 58.0239 7.00478 57.9351 7.19273 57.8679C7.17393 58.084 7.15279 58.3025 7.12694 58.6026C7.64145 59.0493 8.39558 59.4887 8.30865 60.5188C8.48485 60.4996 8.65166 60.4828 8.8537 60.4588C8.57648 60.8646 8.68455 61.2056 9.09333 61.4361C9.25073 61.5273 9.40344 61.6594 9.51386 61.8083C9.61018 61.9379 9.61018 62.1444 9.70885 62.2717C10.0425 62.6919 10.3996 63.0905 10.7473 63.4963C10.9822 63.7725 11.2242 64.039 11.4497 64.32C11.976 64.9707 12.4764 65.643 13.0214 66.277C13.3761 66.6876 13.8155 67.0213 14.1749 67.4296C14.8186 68.1643 15.3872 68.9711 16.0638 69.6699C17.1398 70.7841 18.2674 71.8478 19.3975 72.9068C20.067 73.5335 20.7577 74.1458 21.4907 74.6957C22.4892 75.4473 23.5346 76.1364 24.5636 76.8424C24.9043 77.0777 25.259 77.2866 25.6091 77.5027C26.3444 77.9589 27.0751 78.4272 27.8221 78.8642C28.3014 79.1452 28.8112 79.3733 29.3046 79.6302C29.7134 79.8439 30.0986 80.1177 30.5262 80.2737C31.3438 80.5715 32.1449 80.9293 32.8403 81.4383C33.3783 81.8345 34.0972 81.7697 34.5694 82.3004C34.7597 82.5117 35.1168 82.5669 35.394 82.6918C34.903 83.22 34.4449 83.6259 34.0925 84.1133C33.5522 84.8649 32.5631 85.3235 32.6007 86.4713C32.6171 86.9203 32.5278 87.3718 32.5208 87.8232C32.5114 88.4811 32.556 89.1271 32.6899 89.785C32.7581 90.1188 32.7228 90.4574 32.9789 90.7191C33.188 90.9304 33.4088 91.1225 33.625 91.3242C34.264 91.9245 35.0275 92.3015 35.8216 92.6281C36.181 92.7769 36.5381 92.9786 36.9117 93.0291C37.6259 93.1251 38.3283 93.0747 39.0613 92.9714C39.792 92.8658 40.5273 92.6809 41.272 92.6305C41.7184 92.5993 42.1695 92.5704 42.6088 92.4912C43.1726 92.3879 43.7294 92.2319 44.2651 92.107C44.4859 92.5032 44.7232 92.8202 44.8477 93.1804C44.9793 93.5621 45.1296 93.8215 45.583 93.7134C45.3834 94.3642 45.3927 94.3954 45.7005 94.6163C46.0365 95.7136 46.3113 96.6525 46.6191 97.577C46.6872 97.7811 46.8775 97.942 47.0514 98.1749C46.8141 98.3934 46.8399 98.6768 47.1782 98.9337C47.2158 98.9649 47.1994 99.0634 47.2205 99.1258C47.3286 99.4572 47.4061 99.8077 47.5706 100.108C47.6411 100.235 47.9935 100.209 48.0475 100.331C48.1062 100.468 47.9089 100.708 47.9394 100.879C47.9817 101.095 48.1415 101.287 48.2519 101.491C48.3999 101.433 48.5244 101.385 48.7147 101.311C48.2824 101.938 48.2824 101.892 48.6466 102.461C48.7875 102.68 48.8745 102.934 48.9778 103.174C49.3702 104.084 49.7507 104.997 50.1572 105.9C50.3945 106.43 50.6458 106.959 50.9395 107.458C51.2026 107.91 51.5339 108.318 51.8463 108.762C51.9215 108.757 52.0343 108.748 52.086 108.743C52.0507 108.93 51.9544 109.12 52.0108 109.225C52.2128 109.61 52.4619 109.97 52.6992 110.337C53.1361 111.009 53.4909 111.768 54.0383 112.33C54.7125 113.027 55.5113 113.615 56.3242 114.141C56.8622 114.489 57.5153 114.65 58.1214 114.887C58.1919 114.914 58.2835 114.89 58.3634 114.89C58.7369 114.895 59.1105 114.899 59.4817 114.904C60.3086 114.919 61.1356 114.936 61.9625 114.938C62.026 114.938 62.0894 114.83 62.1528 114.77C62.2351 114.695 62.3666 114.539 62.3925 114.556C62.7425 114.775 62.8271 114.378 63.0338 114.28C63.1349 114.234 63.2147 114.145 63.304 114.076C63.3392 114.112 63.3745 114.148 63.4097 114.184C63.3017 114.333 63.1912 114.479 63.0597 114.659C64.037 114.674 64.7324 114.102 65.55 113.646C65.6204 113.711 65.7872 113.838 65.9165 113.999C66.2266 114.386 66.4967 114.811 66.828 115.178C67.1945 115.586 67.6573 115.908 67.998 116.335C68.3269 116.746 68.8249 116.919 69.1468 117.342C69.3747 117.642 69.7388 117.829 70.0278 118.081C70.8618 118.806 71.6559 119.587 72.5275 120.259C73.7749 121.222 75.0577 122.139 76.3639 123.013C77.1486 123.539 78.0084 123.945 78.8307 124.408C79.2512 124.646 79.6577 124.913 80.0829 125.141C80.4212 125.318 80.7806 125.458 81.1307 125.616C81.4619 125.755 81.7955 126.082 82.108 126.063C82.3946 126.044 82.6624 125.655 82.9538 125.414C83.3672 125.71 83.7525 125.638 84.0838 125.186C84.1754 125.059 84.3516 124.994 84.4902 124.903C84.5654 124.961 84.6406 125.018 84.7158 125.076C84.2036 125.114 84.3211 125.482 84.4385 125.465C84.7933 125.412 85.2678 125.77 85.444 125.304C85.7048 125.354 85.9139 125.431 86.123 125.429C86.4237 125.424 86.7268 125.371 87.0251 125.318C87.4269 125.251 87.8826 125.364 88.1881 124.951C88.2139 124.917 88.3971 124.992 88.5005 125.035C88.5968 125.078 88.6861 125.203 88.7754 125.198C89.1771 125.182 89.5953 125.172 89.7574 124.785C89.9501 124.889 90.1262 125.064 90.2719 125.042C90.622 124.989 90.9603 124.848 91.3033 124.737C91.5217 124.668 91.7473 124.605 91.9587 124.516C92.0879 124.464 92.189 124.336 92.3182 124.298C92.68 124.19 93.0606 124.139 93.4129 124.01C94.2775 123.688 95.0833 123.213 95.9878 122.989C96.3473 122.898 96.695 122.732 97.0262 122.557C97.8085 122.139 98.5909 121.719 99.3497 121.256C99.8665 120.939 100.581 120.922 100.879 120.247C100.891 120.218 100.994 120.242 101.048 120.221C101.175 120.17 101.297 120.103 101.422 120.05C101.535 120.005 101.65 119.968 101.765 119.93C101.889 119.889 102.03 119.88 102.136 119.81C103.21 119.097 104.283 118.381 105.345 117.651C105.571 117.498 105.745 117.147 105.963 117.123C106.588 117.061 106.933 116.607 107.368 116.266C107.725 115.985 108.073 115.661 108.477 115.473C108.926 115.269 109.233 115.058 109.203 114.501C109.198 114.4 109.449 114.189 109.459 114.194C109.792 114.458 109.844 114.167 110.058 113.982C110.631 113.48 111.315 113.113 111.921 112.645C112.28 112.369 112.576 112.004 112.894 111.672C113.046 111.514 113.168 111.214 113.328 111.197C113.927 111.127 114.054 110.488 114.515 110.27C114.686 110.188 114.855 110.071 114.987 109.931C115.229 109.674 115.396 109.24 115.68 109.144C116.284 108.944 116.512 108.368 116.965 108.025C117.51 107.614 117.947 107.052 118.429 106.555C118.541 106.438 118.649 106.315 118.769 106.2C119.244 105.744 119.744 105.309 120.198 104.826C120.714 104.276 121.184 103.679 121.685 103.109C122.094 102.644 122.559 102.223 122.928 101.726C123.555 100.876 124.126 99.983 124.722 99.109C125.148 98.4871 125.575 97.8676 126.057 97.1688C126.071 97.3057 126.059 97.3825 126.085 97.3993C126.16 97.4497 126.282 97.5314 126.332 97.505C126.503 97.4065 126.651 97.2648 126.811 97.14C126.856 96.8398 126.907 96.5013 126.959 96.1651C126.985 96.1963 127.011 96.2275 127.036 96.2587C127.187 96.1459 127.337 96.0354 127.488 95.9226C127.431 95.8961 127.372 95.8697 127.316 95.8433C127.262 95.7064 127.206 95.5672 127.152 95.4303C127.309 95.3775 127.466 95.3246 127.624 95.2694C127.65 95.3126 127.676 95.3559 127.701 95.3991C127.882 95.0389 128.063 94.6811 128.284 94.2465C128.061 94.3089 127.932 94.3449 127.814 94.3786C128.585 92.8586 129.336 91.365 130.102 89.8787C131.113 87.9097 132.045 85.9094 132.705 83.7795C133.208 82.1515 133.979 80.6075 134.167 78.8834C134.202 78.5665 134.049 78.1631 134.193 77.9397C134.484 77.4859 133.979 76.948 134.42 76.5302C134.491 76.463 134.303 76.1076 134.235 75.8867C134.282 75.9083 134.331 75.9275 134.378 75.9491C134.533 75.7642 134.785 75.5937 134.815 75.3896C134.843 75.1999 134.632 74.9742 134.491 74.6933ZM35.1896 77.6324C34.8372 77.4643 34.4848 77.301 34.1301 77.1353C33.9797 77.0657 33.8294 76.9961 33.6508 76.9985C33.484 76.8448 33.3407 76.6455 33.1481 76.547C32.0956 76.0019 31.0219 75.4977 29.9741 74.9478C28.9874 74.4291 28.0054 73.8961 27.0516 73.3174C26.5747 73.0268 26.1682 72.6114 25.7172 72.2704C25.5879 72.172 25.4023 72.148 25.2684 72.0519C25.1275 71.9511 25.0265 71.7902 24.8902 71.6773C24.5448 71.3892 24.1924 71.113 23.779 70.7793C23.7061 70.7721 23.2856 71.3316 23.4172 70.5704C23.4454 70.4071 22.9802 70.0805 22.6912 69.9508C22.118 69.6939 21.7585 69.2641 21.4249 68.7502C21.19 68.39 20.8494 68.0995 20.551 67.7801C20.215 67.42 19.9308 66.9541 19.5196 66.738C19.1249 66.5291 19.0028 66.0921 18.7021 65.9216C18.1218 65.5998 17.9409 65.0091 17.5626 64.5577C17.2102 64.1399 16.7733 63.7941 16.3739 63.4147C16.348 63.4507 16.3199 63.4843 16.2917 63.5204C16.3199 63.3571 16.3457 63.1938 16.3786 63.0017C16.0826 63.1049 15.8923 63.1265 15.8523 62.7375C15.8312 62.5334 15.6808 62.2645 15.5164 62.1853C15.406 62.1348 15.1687 62.363 14.8985 62.5166C15.0019 62.2093 15.2415 61.8659 15.1569 61.6498C15.0536 61.3809 14.6871 61.2152 14.3981 60.975C14.4192 60.5476 14.3276 60.4732 13.8037 60.5812C13.7591 60.0842 13.3574 59.5847 12.8734 59.4551C13.2258 58.7227 12.4458 58.6987 12.185 58.3505C11.9172 57.9903 11.7575 57.3612 11.0879 57.6301C11.25 57.5149 11.499 57.4308 11.5507 57.2796C11.5883 57.1643 11.3722 56.9602 11.2759 56.7945C11.2289 56.7105 11.1795 56.6216 11.1537 56.528C11.055 56.1798 10.8788 55.9565 10.3385 56.151C10.4043 55.87 10.4888 55.6851 10.4724 55.5122C10.4606 55.3946 10.322 55.2289 10.2093 55.1953C10.0425 55.1449 9.84276 55.1737 9.66422 55.2073C9.58669 55.2217 9.52326 55.3298 9.34236 55.3394C9.42223 55.1305 9.48332 54.9095 9.58669 54.715C9.76759 54.3741 9.65717 54.0835 9.29302 53.9995C8.78322 53.8842 9.14032 53.4592 8.99231 53.1614C8.33215 53.2719 8.64931 52.6044 8.43317 52.321C8.19119 51.9968 8.24287 51.9536 7.91867 52.1385C7.72367 51.6415 7.52633 51.1444 7.31489 50.6041C7.33368 50.5921 7.42531 50.5369 7.54512 50.4649C7.41121 50.4649 7.2961 50.4649 7.14104 50.4649C7.15514 50.2031 7.18568 49.9342 7.16453 49.6701C7.15983 49.634 6.90376 49.6172 6.7487 49.6436C6.37751 49.4491 7.34778 48.8056 6.45269 48.7384C6.42919 48.5055 6.79334 48.2005 6.28119 48.0852C6.18486 48.0636 6.10264 47.5858 6.14962 47.3481C6.2295 46.9519 6.07445 46.827 5.71735 46.8222C6.11908 46.2051 5.61868 45.7344 5.56229 45.211C5.53645 44.978 5.52236 44.7427 5.50356 44.5098C5.48711 44.3129 5.54585 44.0224 5.44248 43.9311C5.0055 43.5613 5.12062 43.1723 5.34616 42.7113C5.20285 42.6873 5.09243 42.6657 4.94912 42.6417C5.09948 41.5731 4.89509 40.5406 4.74238 39.436C4.57323 39.5056 4.40643 39.5753 4.12216 39.6953C4.19264 39.4744 4.20438 39.3135 4.28426 39.2055C4.85985 38.4275 4.8434 38.2738 4.10806 37.6759C4.00704 37.5943 3.93891 37.467 3.94126 37.2893C4.04228 37.4022 4.1433 37.515 4.26782 37.6543C4.50745 36.9339 4.59907 36.2784 4.29366 35.6205C4.27956 35.5916 4.25372 35.534 4.25607 35.5316C4.75413 35.2315 4.44167 34.7392 4.4957 34.3502C4.57793 33.7499 4.51919 33.128 4.52859 32.5157C4.52859 32.4364 4.58732 32.3596 4.60847 32.2779C4.77762 31.6248 5.13707 30.9501 5.06894 30.3233C4.97261 29.3989 5.5576 28.7505 5.7197 27.9413C5.88415 27.1105 6.4245 26.3445 6.86382 25.5881C7.20682 24.995 7.6391 24.4571 8.03613 23.8976C8.56943 23.1461 9.08628 22.3825 9.64542 21.6525C10.0025 21.1867 10.4301 20.776 10.8107 20.327C11.1819 19.8924 11.5108 19.4169 11.8984 19.0015C12.2649 18.6101 12.7019 18.2884 13.0848 17.9114C13.8695 17.1334 14.6119 16.3098 15.4271 15.5654C15.9557 15.0803 16.5736 14.6985 17.1609 14.2831C17.9385 13.7284 18.735 13.2002 19.5008 12.6311C20.2268 12.0932 20.9081 11.4929 21.6387 10.9622C21.977 10.7149 22.3952 10.5828 22.7594 10.3691C23.0013 10.2274 23.2128 10.0329 23.4923 9.82163C23.8283 9.90327 24.6365 9.31497 24.6553 8.7819C24.7704 8.9812 24.8456 9.10846 24.9583 9.30296C25.104 9.13488 25.2308 8.986 25.3601 8.83713C25.6208 9.12287 25.8276 9.20932 26.0296 8.75548C26.1142 8.56579 26.335 8.3881 26.5324 8.32326C26.7015 8.26563 27.0516 8.31846 27.1033 8.42652C27.3217 8.91397 27.6131 8.5898 27.8621 8.53697C28.2098 8.46013 28.5504 8.33767 28.8911 8.22961C29.1237 8.15518 29.3516 8.06633 29.5513 7.91505C29.9835 7.83101 30.4205 7.76137 30.8504 7.66052C31.2193 7.57408 31.5811 7.45402 32.0697 7.31234C31.9335 7.19949 31.8137 7.10104 31.7079 7.01459C32.0744 6.77687 32.2224 6.85371 32.3892 7.45162C32.603 7.29554 32.8051 6.89453 33.0776 7.36277C33.726 7.2331 34.3744 7.10584 35.0252 6.97377C35.0651 6.96417 35.1239 6.88973 35.1332 6.89933C35.6078 7.30274 36.026 6.78407 36.4771 6.80568C36.564 6.81049 36.6627 6.61599 36.6861 6.58957C36.9916 6.6496 37.2547 6.75046 37.5131 6.74085C38.4223 6.70003 39.3291 6.57997 40.2383 6.57036C40.633 6.56556 41.0254 6.78407 41.4294 6.8441C41.9181 6.91374 42.4209 6.89453 42.9072 6.97377C43.1116 7.00499 43.2807 7.2355 43.4874 7.29073C44.3473 7.51885 45.2165 7.69654 46.0741 7.93186C46.3254 8.0015 46.5298 8.23682 46.7789 8.32806C47.4508 8.57059 48.1837 8.68345 48.8063 9.01722C50.0209 9.66555 51.2097 10.3835 52.3515 11.1615C53.1056 11.6802 53.7516 12.3645 54.4635 12.9504C54.6209 13.0801 54.8723 13.0801 55.0438 13.1978C55.2176 13.3202 55.3586 13.5027 55.4925 13.6756C55.8355 14.115 56.1621 14.5665 56.5051 15.0059C56.9303 15.551 57.3579 16.0984 57.8042 16.6267C57.9123 16.754 58.1026 16.8116 58.3023 16.9269C58.2624 17.4912 58.8144 18.1011 59.3031 18.0266C59.2914 18.1227 59.2373 18.2451 59.2773 18.3124C59.9045 19.4049 60.5365 20.4951 61.1896 21.5733C61.2883 21.7365 61.4997 21.8278 61.7182 21.9983C61.2718 22.5145 61.9343 22.9011 62.1082 23.3838C62.4747 24.3971 62.9422 25.3696 63.3698 26.3589C63.6259 26.9592 63.9242 27.5451 64.1286 28.1646C64.333 28.7841 64.3706 29.4685 64.6196 30.0664C64.9603 30.89 64.9744 31.8025 65.308 32.5949C65.6439 33.3945 65.5453 34.2277 65.752 35.0225C65.893 35.57 66.0245 36.1199 66.1396 36.6722C66.2454 37.1813 66.3417 37.6951 66.4051 38.2114C66.4451 38.5283 66.3769 38.8621 66.4357 39.1743C66.4873 39.448 66.6494 39.6977 66.7528 39.9619C66.7834 40.0363 66.7904 40.1252 66.7857 40.2044C66.7105 41.2802 66.9736 42.3199 67.1264 43.3692C67.1428 43.4965 67.2509 43.6093 67.2438 43.5997C67.1616 43.9239 67.0653 44.1592 67.0488 44.3993C67.023 44.7595 67.0465 45.1245 67.0676 45.4871C67.077 45.6624 67.1217 45.8377 67.1522 46.013C67.1569 46.0538 67.171 46.097 67.1663 46.1378C67.1498 46.3035 67.1287 46.4692 67.1076 46.6349C67.0982 46.6997 67.1029 46.7742 67.0676 46.8222C66.6166 47.4897 66.8773 48.2509 66.7951 48.9665C66.7105 49.6965 66.6729 50.4336 66.6212 51.1684C66.5719 51.872 66.6494 52.6164 66.4521 53.2719C66.2454 53.9466 66.2007 54.6286 66.1044 55.3081C66.0551 55.6611 66.1021 56.0045 65.8295 56.2974C65.7802 56.3527 65.9235 56.588 65.9846 56.7681C65.4489 57.0514 65.6721 57.5797 65.604 58.0263C65.55 58.3793 65.4607 58.7251 65.3855 59.0733C65.1929 59.9977 65.0049 60.9246 64.8005 61.8467C64.6807 62.3798 64.5139 62.9008 64.4011 63.4339C64.1239 64.7402 63.842 66.0464 63.6071 67.3623C63.4567 68.1883 63.3862 69.0312 63.2852 69.8668C63.2688 69.9941 63.2805 70.1285 63.2923 70.2582C63.3439 70.8249 63.0879 71.125 62.5475 71.2475C62.2351 71.3171 61.9484 71.4996 61.6477 71.6269C60.6892 72.0327 59.7307 72.4361 58.7722 72.8419C58.7111 72.8683 58.6312 72.8948 58.6077 72.9452C58.3634 73.459 57.8113 73.3654 57.4236 73.5935C57.0736 73.8 56.7306 74.0185 56.4205 74.2611C56.1691 74.3331 55.9083 74.3835 55.6663 74.482C55.0626 74.7293 54.4564 74.979 53.8668 75.2624C53.606 75.3872 53.3899 75.6057 53.1361 75.7522C52.9834 75.8387 52.7978 75.8627 52.6334 75.9275C52.2128 76.0932 51.7054 76.1052 51.4869 76.6215C51.4634 76.6743 51.3835 76.7391 51.3342 76.7367C50.4297 76.6959 49.7695 77.2218 49.0694 77.6972C48.8251 77.8629 48.4586 77.8509 48.1462 77.9085C47.7656 77.9782 47.4977 78.1462 47.4672 78.5905C47.4602 78.6841 47.3544 78.7706 47.2934 78.8618C47.2323 78.797 47.1688 78.7321 47.1641 78.7249C46.7789 78.9795 46.4006 79.2268 45.9096 79.551C45.9707 79.3637 45.9777 79.3084 46.0036 79.2652C46.0388 79.21 46.0905 79.1644 46.1351 79.1139C45.7992 78.821 45.7992 78.8186 44.1453 79.551C43.5133 79.8295 42.9659 80.2353 42.5219 80.8596C42.4209 80.6964 42.348 80.5787 42.2681 80.449C42.0943 80.5427 41.7912 80.6123 41.7654 80.7396C41.6338 81.3687 41.1875 81.1142 40.8445 81.131C40.6189 81.1406 40.391 81.1046 40.1326 81.0878C40.2971 80.5523 39.7567 80.425 39.449 80.1657C39.0778 79.8559 38.6478 79.6206 38.2179 79.3373C38.1427 79.4093 38.0488 79.4981 37.9266 79.6158C38.0464 79.7142 38.1427 79.7935 38.2367 79.8727C38.2015 79.9111 38.1662 79.952 38.131 79.9904C38.03 79.8823 37.8232 79.7263 37.8444 79.6758C38.0793 79.1356 37.7269 78.9459 37.3534 78.797C37.001 78.6577 36.6274 78.5737 36.1716 78.4392C36.1693 78.4272 36.1505 78.2711 36.1435 78.2039C35.8944 78.0454 35.7135 77.9253 35.5279 77.8125C35.4199 77.7476 35.3047 77.6876 35.1896 77.6324ZM47.681 87.5687C47.3732 87.5399 47.0302 87.8376 46.7131 88.0081C46.6073 88.0657 46.5298 88.1738 46.3301 88.3659C46.3865 88.0585 46.4124 87.9048 46.4382 87.7656C46.3019 87.7176 46.168 87.6695 46.0412 87.6239C45.9566 87.7368 45.8556 87.8688 45.7545 88.0057C45.6136 87.9529 45.4797 87.9 45.4397 87.8856C45.0568 88.1354 44.7373 88.3419 44.4272 88.546C44.3121 88.4859 44.1006 88.3395 44.0724 88.3707C43.7811 88.6852 43.3629 88.5652 43.0293 88.7165C42.926 88.7645 42.7897 88.7741 42.6746 88.7573C42.0262 88.654 41.0606 88.7309 40.6847 89.3288C40.3159 88.8821 39.8436 88.9014 39.2281 89.3888C38.9955 89.1463 38.0253 89.0863 37.7457 89.288C37.3205 88.995 36.9023 88.7045 36.4818 88.4187C36.4042 88.3635 36.3032 88.2674 36.2351 88.2866C35.6783 88.4259 35.7793 88.1162 35.8357 87.7536C35.878 87.4726 35.8193 87.1749 35.7911 86.8867C35.7817 86.7835 35.6994 86.6874 35.6947 86.5866C35.6571 85.8638 35.8333 85.7678 36.6415 85.4196C37.6235 84.9922 38.6878 85.0186 39.6792 84.692C39.7849 84.6584 39.8906 84.6176 39.987 84.5671C40.5907 84.2454 41.2509 84.1637 41.911 84.0749C41.9721 84.0677 42.0426 84.0365 42.0826 83.9908C42.3339 83.7267 42.5759 83.4554 42.8837 83.1192C42.9189 83.3521 42.9424 83.4986 42.9659 83.6451C43.0035 83.6475 43.0387 83.6523 43.0763 83.6547C43.1069 83.5778 43.1327 83.4962 43.1679 83.4241C43.33 83.0976 43.5579 82.9343 43.9315 83.0712C44.2886 83.2008 44.5728 83.112 44.7185 82.7758C44.8947 82.819 45.092 82.9367 45.2259 82.8839C45.7968 82.6654 46.3489 82.3868 46.9128 82.1467C47.1148 82.0602 47.3403 82.0386 47.5424 81.9522C47.7233 81.873 47.8877 81.7457 48.0287 81.6568C48.313 81.5584 48.6066 81.52 48.8204 81.3663C49.2081 81.083 49.6474 81.0637 50.075 80.9389C50.4814 80.8188 50.7751 80.3674 51.2778 80.4202C51.3224 80.425 51.3671 80.3122 51.4258 80.2809C51.642 80.1681 51.898 80.1129 52.0719 79.9568C52.4243 79.635 52.7626 79.3421 53.2818 79.4669C53.2888 79.4669 53.3452 79.2436 53.3499 79.2268C53.7516 78.881 54.393 79.3781 54.6326 78.6649C54.6491 78.6145 54.7854 78.5497 54.8229 78.5713C55.2129 78.7874 55.3774 78.4392 55.6241 78.2735C55.8144 78.1462 56.0469 78.091 56.2584 77.9974C56.6554 77.8197 57.0548 77.642 57.4495 77.4547C58.0063 77.1858 58.5584 76.9096 59.1105 76.6335C59.578 76.3981 60.0502 76.17 60.513 75.9203C60.9171 75.6994 61.3 75.4353 61.7112 75.2288C61.8145 75.1759 61.9907 75.272 62.1176 75.2984C61.885 75.8603 61.6806 76.3525 61.4786 76.8472C61.3118 77.2554 61.1285 77.6612 60.9899 78.079C60.6822 79.0131 60.3979 79.9568 60.1019 80.8933C60.0737 80.9845 60.0549 81.1166 59.9915 81.1502C59.7095 81.3039 59.4276 81.4743 59.1222 81.556C58.2976 81.7841 57.6421 82.2836 57.0008 82.8238C56.9068 82.9031 56.6977 82.8238 56.5779 82.8887C56.1762 83.1024 55.7885 83.3473 55.3962 83.5778C54.9357 83.8468 54.4776 84.1181 54.0148 84.3822C53.6154 84.608 53.1949 84.8025 52.8119 85.0522C52.6898 85.1338 52.6827 85.3812 52.5676 85.494C52.4384 85.6165 52.1987 85.7894 52.093 85.7413C51.3248 85.3956 50.8244 85.9911 50.2371 86.2528C49.638 86.5217 49.06 86.8411 48.4751 87.1413C48.3905 87.1845 48.2824 87.2277 48.2401 87.3045C48.1086 87.5399 47.9981 87.5999 47.681 87.5687ZM49.941 95.0125C49.7695 94.7676 49.6662 94.5418 49.497 94.4002C49.2997 94.2321 49.2527 94.088 49.2362 93.8167C49.2104 93.3845 49.0201 92.9618 48.912 92.5752C48.6066 92.5993 48.374 92.6185 48.1391 92.6401C48.1321 92.5848 48.1227 92.5272 48.1156 92.472C48.2777 92.4072 48.4375 92.3399 48.6771 92.2415C48.3787 91.8933 48.5314 91.3074 47.9653 91.1249C47.9183 91.1081 47.9065 90.9832 47.876 90.9064C47.9629 90.88 48.0545 90.856 48.1391 90.8199C48.2613 90.7671 48.3787 90.7071 48.4727 90.5894C49.1305 90.6423 49.4336 90.4405 49.7179 89.7298C49.7954 89.5353 49.9716 89.384 50.1031 89.2135C50.1572 89.2591 50.2112 89.3048 50.2629 89.348C50.1666 89.4656 50.0726 89.5809 49.9598 89.7202C50.7821 89.7538 51.4352 89.3168 52.1095 88.9566C52.5558 88.7189 53.014 88.5004 53.4462 88.2386C54.1228 87.8232 54.9287 87.6215 55.462 86.9612C55.5277 86.8795 55.6969 86.8819 55.8214 86.8531C55.906 86.8339 56.0399 86.8627 56.0751 86.8123C56.3899 86.3705 56.9162 86.3681 57.3344 86.1471C57.4612 86.0799 57.5435 85.9238 57.6821 85.7702C57.8771 85.919 58.112 85.9815 58.0697 85.4916C58.3916 85.4364 58.7087 85.3836 59.047 85.3235C58.9131 85.9478 58.7581 86.5722 58.6429 87.2061C58.5795 87.5639 58.5983 87.9385 58.5396 88.2987C58.4785 88.6732 58.3422 89.0334 58.2952 89.4104C58.2624 89.6649 58.2835 89.9075 58.2201 90.1788C58.1002 90.6783 57.9006 90.964 57.433 91.1729C57.0243 91.3578 56.686 91.7036 56.3148 91.9749C56.2372 92.0326 56.148 92.1358 56.0751 92.1262C55.5606 92.071 55.2176 92.3903 54.8464 92.6689C54.7243 92.7577 54.5434 92.7625 54.4001 92.8298C53.801 93.1131 53.2559 93.4709 52.8096 93.98C52.725 94.076 52.6052 94.1384 52.5018 94.2153C52.4736 94.1913 52.4478 94.1673 52.4219 94.1408C52.5136 94.0544 52.6075 93.9656 52.7038 93.8743C52.1071 93.6606 51.8463 93.7566 51.7359 94.0952C51.4258 94.1793 51.1768 94.1985 50.9818 94.3113C50.5942 94.5346 50.2347 94.8108 49.941 95.0125ZM55.3727 103.436C54.9592 103.328 54.9475 103.683 54.6585 103.777C54.8135 103.827 54.8887 103.854 54.9616 103.878C54.7901 104.075 54.6209 104.269 54.4212 104.5C54.2779 104.478 54.0383 104.445 53.7493 104.401C54.0829 103.743 53.5332 103.225 53.223 102.603C53.0609 102.651 52.9106 102.696 52.6592 102.771C52.7391 102.391 52.8025 102.077 52.8777 101.722C52.6099 101.652 52.5558 101.486 52.5347 101.136C52.5089 100.689 52.2363 100.235 51.9826 99.8438C51.9004 99.7117 51.555 99.7573 51.212 99.7021C51.6279 99.4644 51.6631 99.0946 51.4329 98.744C51.01 98.0957 51.0593 97.9852 51.8299 97.7763C51.9309 97.7499 52.0178 97.6514 52.1071 97.5818C52.2786 97.4473 52.4407 97.3009 52.6193 97.1784C53.0046 96.9143 53.4603 96.871 53.8879 96.7342C54.2004 96.6357 54.4259 96.2515 54.7031 95.9826C54.8864 96.3044 55.0649 96.3068 55.3022 96.1267C55.523 95.9586 55.758 95.7929 56.0117 95.6968C56.3077 95.5888 56.639 95.5864 56.9373 95.4855C57.1041 95.4327 57.2239 95.2238 57.3884 95.1734C57.722 95.0749 58.0744 95.0341 58.4573 94.9645C58.4432 95.0917 58.4597 95.2238 58.4245 95.2406C57.6633 95.6176 58.2365 96.3644 57.9828 96.8782C58.5255 97.4329 58.0885 98.1293 58.206 98.756C58.2811 99.1522 58.455 99.4596 58.5913 99.8053C58.6476 99.9542 58.7369 100.091 58.8685 100.204C58.9155 100.454 58.1472 100.655 58.8332 101.032C58.791 101.212 58.751 101.407 58.697 101.599C58.6664 101.707 58.6359 101.854 58.5607 101.899C57.924 102.271 57.4049 102.867 56.6155 102.949C56.491 102.963 56.3711 103.045 56.2513 103.095C55.9553 103.22 55.6194 103.501 55.3727 103.436ZM62.1857 111.13C62.0518 111.194 61.791 111.216 61.7135 111.134C61.3353 110.729 61.2201 110.923 61.1309 111.336C61.1238 111.379 60.9453 111.382 60.8161 111.41C60.9547 111.187 61.051 111.029 61.2131 110.767C60.701 110.767 60.3251 110.772 59.9468 110.76C59.8552 110.757 59.7072 110.64 59.6837 110.666C59.5733 110.793 59.2655 110.32 59.2984 110.801C59.1293 110.748 58.892 110.748 58.8003 110.63C58.4973 110.236 58.0956 110.332 57.6468 110.296C57.6633 109.907 57.4777 109.73 57.1206 109.809C56.9467 109.341 56.7846 108.901 56.599 108.397C56.4369 108.644 56.303 108.846 56.1268 109.117C56.1268 108.555 56.1738 108.145 56.1057 107.758C56.0681 107.537 55.8261 107.36 55.6945 107.148C55.4901 106.815 55.5559 106.757 55.8778 106.606C56.3265 106.392 56.7306 106.085 57.1676 105.844C57.4565 105.686 57.7737 105.583 58.0768 105.446C58.5278 105.244 58.9718 105.021 59.4276 104.831C59.6109 104.757 59.82 104.745 59.8857 104.733C60.1324 105.254 60.3486 105.712 60.5788 106.2C60.6845 106.209 60.8325 106.224 60.8772 106.229C61.1638 107.064 61.1238 108.037 62.2844 108.234C62.1552 109.197 62.9164 109.787 63.2453 110.51C62.8905 110.724 62.5499 110.952 62.1857 111.13ZM68.6511 108.313C69.0223 108.032 69.1139 107.885 68.6793 107.597C68.2329 107.3 67.9204 106.8 67.4976 106.457C67.3542 106.339 67.0512 106.426 66.8233 106.43C66.7199 106.43 66.5719 106.514 66.5249 106.471C66.0668 106.049 65.6204 105.614 65.1858 105.165C64.9415 104.915 64.7371 104.627 64.4928 104.38C64.427 104.315 64.2813 104.332 64.2837 104.25C64.0934 103.933 63.9454 103.575 63.701 103.311C63.3886 102.975 62.9774 102.754 63.0221 102.168C63.0338 102.01 62.7261 101.827 62.477 101.561C62.2304 100.29 61.9578 98.8761 61.6947 97.517C61.5115 97.5266 61.2906 97.5386 61.0463 97.5506C61.152 97.104 61.2272 96.7702 61.3118 96.4388C61.3447 96.3068 61.3776 96.1675 61.441 96.0498C61.6266 95.7209 61.4809 94.8012 61.2765 94.6691C61.2765 94.2825 61.2742 93.9439 61.2765 93.6054C61.2789 93.3821 61.2836 93.1611 61.2977 92.9378C61.3047 92.8202 61.3823 92.6833 61.3447 92.5896C61.0909 91.9629 61.3376 91.3362 61.3188 90.7143C61.2836 89.3576 61.69 88.0585 61.7394 86.721C61.7558 86.2624 61.8169 85.8806 62.0095 85.4484C62.2609 84.8817 62.3032 84.2118 62.416 83.585C62.5475 82.8671 62.6227 82.1395 62.7942 81.4359C62.8717 81.1214 63.1583 80.8668 63.2899 80.5571C63.3557 80.4058 63.2758 80.1969 63.2829 80.012C63.2946 79.7767 63.2876 79.5294 63.3604 79.3108C63.8091 77.971 64.0981 76.583 64.7465 75.3056C65.5734 73.6752 66.4404 72.0807 67.5915 70.6568C67.8194 70.3735 67.9651 70.0181 68.1953 69.7371C68.5148 69.3505 68.879 69.0048 69.2196 68.635C69.4122 68.4261 69.5931 68.2028 69.7858 67.9914C70.7208 66.9613 71.6512 65.9264 72.6026 64.9131C73.0889 64.392 73.587 63.8733 74.1344 63.4219C74.6982 62.9561 75.3419 62.5935 75.9269 62.1516C76.526 61.6954 77.0945 61.196 77.6819 60.7229C77.7782 60.6461 77.9074 60.6149 78.0084 60.5428C78.4078 60.2571 78.7814 59.9257 79.2019 59.6808C79.6718 59.4118 80.2074 59.2606 80.6679 58.9796C81.3045 58.593 81.8966 58.1296 82.5638 57.6589C82.5826 57.6589 82.7517 57.7142 82.841 57.6493C83.2662 57.3396 83.6445 56.953 84.0885 56.6768C84.4456 56.4559 84.8849 56.3767 85.2678 56.1966C85.4863 56.0933 85.7072 55.9421 85.8552 55.7572C86.076 55.4762 86.224 55.5675 86.4261 55.882C86.5717 55.6371 86.6821 55.4498 86.8301 55.1977C86.9547 55.1857 87.2225 55.2169 87.441 55.1256C88.2656 54.7847 89.0761 54.4125 89.8843 54.0355C90.0558 53.9562 90.185 53.7834 90.3541 53.6921C90.5491 53.5865 90.7629 53.512 90.9767 53.4496C91.2469 53.3703 91.5241 53.3175 91.799 53.2503C91.8225 53.2431 91.8319 53.1782 91.853 53.1758C92.3605 53.1014 92.3605 53.1038 92.4004 52.6524C92.7082 52.9189 93.0136 53.2479 93.3566 52.734C93.373 52.7076 93.4952 52.77 93.568 52.77C93.8429 52.77 94.1201 52.7892 94.3903 52.7484C95.0763 52.6476 95.7576 52.5203 96.4365 52.3882C96.4882 52.3762 96.5141 52.225 96.5376 52.1745C96.8383 52.1745 97.1625 52.213 97.4726 52.1673C98.2808 52.0425 99.0842 51.8744 99.89 51.7351C100.116 51.6943 100.374 51.7471 100.571 51.6583C100.881 51.5166 101.154 51.2861 101.382 51.1348C101.563 51.2044 101.777 51.3221 102.004 51.3533C102.091 51.3653 102.206 51.1804 102.338 51.058C102.582 51.0868 102.928 50.9307 103.163 51.2837C103.188 51.3245 103.346 51.2813 103.442 51.2669C103.738 51.226 104.037 51.178 104.335 51.1348C104.366 51.13 104.417 51.1468 104.429 51.13C104.852 50.5369 105.404 51.1588 105.902 50.9787C106.13 50.8947 106.609 51.034 106.56 51.5598C106.604 51.579 106.649 51.5982 106.694 51.6175C106.788 51.4398 106.882 51.2621 106.99 51.0556C107.077 51.1612 107.187 51.2909 107.297 51.423C107.3 51.3773 107.302 51.3317 107.305 51.2861C107.936 51.3317 108.571 51.3653 109.2 51.4398C109.283 51.4494 109.341 51.6703 109.442 51.848C109.534 51.6439 109.628 51.4374 109.745 51.1804C109.957 51.5742 110.227 51.7447 110.643 51.5886C110.732 51.555 110.878 51.6607 110.991 51.7183C111.092 51.7687 111.181 51.8864 111.282 51.896C111.672 51.932 112.071 51.896 112.452 51.9704C112.764 52.0305 113.056 52.2082 113.359 52.3282C113.514 52.3906 113.678 52.4387 113.836 52.4987C113.93 52.5323 114.038 52.5563 114.108 52.6236C114.425 52.9165 114.559 52.9405 114.851 52.7652C115.038 52.9069 115.184 53.087 115.363 53.135C116.244 53.3655 116.831 54.0139 117.51 54.5638C118.372 55.2649 118.75 56.2566 119.279 57.1571C119.591 57.6878 119.768 58.3049 120.085 59.0757C120.118 58.9916 120.167 58.8764 120.214 58.7659C120.357 58.994 119.629 59.5127 120.463 59.6159C120.099 60.2859 120.534 60.8934 120.63 61.5393C120.75 62.3485 120.87 63.1554 121.015 63.9598C121.05 64.1399 121.191 64.3008 121.285 64.4712C121.328 64.452 121.37 64.4352 121.412 64.416C121.306 64.6825 121.201 64.9491 121.081 65.254C121.365 65.1988 121.574 65.158 121.783 65.1172C121.79 65.1748 121.8 65.23 121.809 65.2877C121.645 65.3261 121.48 65.3621 121.276 65.4101C121.436 65.7127 121.09 66.0849 121.494 66.3946C121.605 66.4787 121.431 66.9205 121.431 67.1966C121.422 68.4165 120.905 69.5234 120.719 70.7024C120.642 71.1923 120.524 71.6749 120.435 72.1624C120.404 72.3257 120.409 72.4938 120.393 72.7195C120.132 72.8395 119.951 73.07 119.946 73.5047C119.942 73.8577 119.747 74.2058 119.643 74.5588C119.556 74.859 119.498 75.1687 119.389 75.4617C119.345 75.5841 119.209 75.673 119.108 75.7834C119.354 76.2277 118.974 76.5278 118.828 76.876C118.379 77.9469 117.907 79.0083 117.439 80.072C117.303 80.3818 117.148 80.6819 117.007 80.9869C116.826 81.3879 116.678 81.8105 116.465 82.1923C116.056 82.9175 115.612 83.6211 115.158 84.3126C114.982 84.6656 114.843 85.045 114.623 85.3667C113.89 86.4353 113.128 87.487 112.374 88.5436C111.381 89.9363 110.45 91.3866 109.365 92.7001C108.627 93.5886 107.669 94.2849 106.809 95.0677C106.297 95.5384 105.813 96.0474 105.268 96.4772C104.492 97.0872 103.668 97.6298 102.878 98.2205C102.481 98.5159 102.11 98.8473 101.734 99.169C101.128 99.6853 100.548 100.24 99.9159 100.72C99.4155 101.102 98.8493 101.393 98.3183 101.736C97.7052 102.132 97.092 102.531 96.5 102.961C96.3731 103.052 96.3332 103.27 96.2345 103.472C95.6566 103.131 95.4287 103.753 95.034 103.955C94.8108 104.07 94.6182 104.248 94.395 104.363C93.9768 104.577 93.5375 104.749 93.1287 104.978C93.0042 105.047 92.9431 105.239 92.9337 105.254C92.6095 105.379 92.3863 105.453 92.1725 105.547C91.6674 105.775 91.1693 106.015 90.6642 106.241C90.4082 106.356 90.1028 106.406 89.8937 106.577C89.7292 106.711 89.6799 106.99 89.5648 107.24C89.4379 107.076 89.3087 106.908 89.2147 106.786C88.4324 107.177 87.6853 107.552 87.0204 107.883C86.7338 107.861 86.52 107.811 86.318 107.837C86.0666 107.869 85.8199 108.018 85.5733 108.015C85.2373 108.013 85.0893 108.123 85.0822 108.467C85.0822 108.51 84.9648 108.584 84.9037 108.582C84.8497 108.579 84.7745 108.503 84.7486 108.443C84.704 108.337 84.6923 108.219 84.657 108.063C84.3821 108.313 84.1965 108.748 83.722 108.419C83.6656 108.378 83.386 108.668 83.1793 108.829C83.1581 108.707 83.1394 108.587 83.0971 108.323C82.5262 108.551 81.9835 108.767 81.4455 108.983C81.4408 108.949 81.422 108.834 81.4009 108.719C81.3562 108.724 81.3139 108.714 81.2951 108.733C80.9944 109.007 80.7501 109.151 80.2661 108.973C79.8174 108.81 79.2442 108.988 78.725 109.021C78.5699 109.031 78.4078 109.033 78.2645 109.084C77.9074 109.211 77.5597 109.362 77.1768 109.518C77.1768 109.518 77.1368 109.401 77.0898 109.257C77.0311 109.314 76.9536 109.386 76.8479 109.487C76.7891 109.367 76.7304 109.247 76.6505 109.086C76.5237 109.257 76.4132 109.401 76.2723 109.59C76.1384 109.458 76.0068 109.331 75.8752 109.204C75.8752 109.24 75.8752 109.273 75.8752 109.307C75.5369 109.288 75.201 109.269 74.7875 109.245C74.7805 109.259 74.7429 109.35 74.7123 109.42C74.3411 109.602 74.2284 108.543 73.7538 109.235C73.5447 108.779 73.4672 108.772 73.0654 109.199C72.9597 109.103 72.8517 109.007 72.7131 108.88C72.5932 108.973 72.4664 109.072 72.3372 109.175C71.2494 108.399 69.9972 108.27 68.6511 108.313ZM87.4245 121.921C87.3423 122.041 86.9523 121.94 86.7033 121.873C86.466 121.969 86.2851 122.432 85.9092 121.921C85.8693 122.13 85.8387 122.283 85.8105 122.437C85.7776 122.432 85.7448 122.43 85.7119 122.427C85.6578 122.266 85.6014 122.103 85.5686 122.005C85.2608 122.022 85.0047 122.034 84.657 122.053C84.6547 122.086 84.6406 122.25 84.6241 122.447C84.1449 122.295 83.6374 122.202 83.1934 121.978C82.4933 121.623 81.8472 121.164 81.1612 120.778C80.6256 120.478 80.057 120.242 79.5261 119.94C79.2888 119.805 79.1079 119.575 78.8988 119.392C78.7344 119.246 78.584 119.051 78.3914 118.974C78.0695 118.85 77.7195 118.799 77.3812 118.717C77.4164 118.665 77.508 118.518 77.6372 118.309C77.3859 118.218 77.1486 118.134 76.8878 118.04C76.9042 117.69 76.4555 117.284 76.0279 117.32C75.9222 117.128 75.8799 116.926 75.7672 116.866C75.1164 116.518 74.6231 115.982 74.0874 115.488C73.5447 114.988 72.948 114.544 72.3583 114.1C72.2197 113.997 72.0106 113.994 71.8015 113.937C71.825 113.841 71.8579 113.699 71.8861 113.576C71.5877 113.303 71.3058 113.043 71.0239 112.782C71.0497 112.746 71.0756 112.707 71.0991 112.669C72.1704 112.83 73.2346 113.051 74.3106 113.132C75.356 113.211 76.4109 113.149 77.4728 113.149C77.5456 113.087 77.6701 112.979 77.7993 112.87C78.1564 113.358 78.5464 113.706 79.1432 113.901C79.7751 114.109 80.3531 114.52 80.9239 114.892C81.671 115.38 82.3899 115.915 83.1159 116.436C83.5787 116.77 84.0626 117.08 84.4832 117.464C85.0517 117.985 85.5545 118.581 86.1113 119.114C86.3462 119.337 86.6657 119.464 86.91 119.678C87.105 119.846 87.2225 120.103 87.4081 120.285C87.7064 120.581 88.0494 120.826 88.3384 121.128C88.4841 121.282 88.5475 121.515 88.7073 121.825C88.1646 121.604 87.7793 121.404 87.4245 121.921ZM92.1772 119.748C92.2265 119.704 92.2759 119.659 92.3252 119.616C92.5132 119.841 92.7035 120.069 92.9501 120.367C92.2735 120.456 92.3205 120.017 92.1772 119.748ZM95.1538 119.671C95.1045 119.637 94.9447 119.695 94.8883 119.757C94.5054 120.206 93.9979 120.307 93.4552 120.317C93.3989 120.319 93.3425 120.343 93.2015 120.377C93.3613 120.557 93.474 120.682 93.5844 120.807C93.561 120.845 93.5375 120.883 93.514 120.922C93.3331 120.809 93.1522 120.696 92.9689 120.581C93.0277 120.35 93.077 120.153 93.1146 120.002C92.7622 119.606 92.4215 119.224 92.055 118.813C91.8624 119.042 91.7449 119.181 91.517 119.447C91.517 119.2 91.4865 119.068 91.5217 118.958C91.658 118.533 91.5147 118.208 91.1224 118.045C90.972 117.983 90.8428 117.867 90.6478 117.738C90.6008 117.834 90.5656 117.99 90.4692 118.072C90.3894 118.141 90.239 118.127 90.0746 118.156C90.5303 117.438 90.7042 117.354 89.9054 117.037C89.7034 116.955 89.4661 116.78 89.3886 116.588C89.2006 116.119 88.8294 115.956 88.4253 115.79C88.3502 115.762 88.3032 115.641 88.2656 115.553C88.2327 115.478 88.2656 115.346 88.2186 115.315C87.7558 114.986 87.2836 114.671 86.6704 114.256C86.3932 113.872 85.9069 113.435 85.3172 113.125C85.2561 113.096 85.1222 113.207 85.0259 113.259C84.9178 113.317 84.8144 113.38 84.7087 113.442C84.7228 113.322 84.7322 113.202 84.751 113.084C84.7651 113 84.7956 112.921 84.852 112.722C84.5654 112.705 84.3117 112.69 84.0391 112.674C84.0391 112.577 84.0391 112.385 84.0391 112.232C84.9906 112.095 85.9069 111.982 86.816 111.821C87.5138 111.699 88.0212 111.934 88.3079 112.59C88.4747 112.971 88.6156 113.034 89.1113 112.902C89.1936 113.13 89.2429 113.384 89.3698 113.591C89.9031 114.47 90.5021 115.284 91.3362 115.908C91.9423 116.362 92.4685 116.926 93.0653 117.394C93.763 117.942 94.5054 118.432 95.2149 118.965C95.3676 119.078 95.4592 119.275 95.6096 119.474C95.532 119.572 95.5344 119.932 95.1538 119.671ZM117.475 104.336C116.869 104.942 116.26 105.547 115.633 106.128C115.215 106.519 114.759 106.867 114.329 107.244C113.19 108.241 112.06 109.252 110.913 110.239C110.46 110.63 109.973 110.983 109.494 111.341C108.39 112.167 107.258 112.954 106.118 113.73C105.249 114.323 104.349 114.868 103.508 115.497C103.16 115.757 102.782 115.906 102.416 116.105C101.802 116.436 101.135 116.7 100.581 117.109C100 117.538 99.5517 117.075 99.0466 117.051C98.9832 117.049 98.9315 116.768 98.8023 116.676C98.6989 116.566 98.612 116.429 98.4875 116.35C98.0905 116.098 98.2079 116.619 97.9659 116.71C98.0153 116.47 98.0576 116.251 98.1257 115.908C97.8908 116.09 97.7569 116.194 97.59 116.321C97.59 116.112 97.59 115.934 97.59 115.757C97.5572 115.778 97.5243 115.8 97.4914 115.822C97.3669 115.653 97.24 115.49 97.1225 115.32C96.8547 114.926 96.4107 114.866 95.9972 115.154C95.9267 115.204 95.8234 115.2 95.7247 115.224C95.7881 114.222 95.7881 114.222 95.4592 114.285C95.1162 113.968 94.7709 113.728 94.5336 113.404C94.2939 113.082 93.7207 113.44 93.6079 112.796C93.5586 112.513 93.0136 112.323 92.6377 112.049C92.5695 112.102 92.4168 112.22 92.2406 112.357C92.1208 112.095 91.9705 111.848 92.4403 111.814C92.4239 111.768 92.4168 111.737 92.4004 111.713C92.1843 111.391 91.9611 111.074 91.752 110.75C91.6627 110.611 91.5969 110.457 91.5734 110.412C92.0644 110.133 92.445 109.91 92.8303 109.701C93.0981 109.554 93.3707 109.417 93.6455 109.293C93.8076 109.218 94.0543 109.225 94.1342 109.105C94.4326 108.661 94.9447 108.649 95.3347 108.407C95.7975 108.118 96.211 107.751 96.6644 107.444C96.7654 107.374 96.9698 107.456 97.0709 107.386C97.6582 106.98 98.2267 106.546 98.8046 106.128C98.9949 105.991 99.1946 105.866 99.399 105.758C100.08 105.398 100.59 104.826 101.154 104.315C102.019 103.532 102.956 102.831 103.818 102.046C104.302 101.604 104.697 101.059 105.143 100.569C105.211 100.494 105.329 100.466 105.42 100.41C105.543 100.338 105.672 100.274 105.777 100.18C106.532 99.5124 107.286 98.8425 108.026 98.1557C108.289 97.9132 108.51 97.6202 108.754 97.3561C108.846 97.2576 108.947 97.1112 109.052 97.1016C109.391 97.0703 109.501 96.8182 109.677 96.5829C109.966 96.2011 110.323 95.8721 110.634 95.5432C110.798 95.8313 110.991 96.0762 111.089 96.3548C111.411 97.2648 111.794 97.6586 112.551 98.343C112.995 98.7464 113.5 99.0826 113.96 99.474C114.738 100.132 115.499 100.814 116.274 101.479C116.871 101.993 117.472 102.5 118.083 102.994C118.187 103.081 118.353 103.088 118.6 103.165C118.196 103.587 117.844 103.971 117.475 104.336ZM121.006 100.615C120.841 100.838 120.827 100.819 120.635 100.593C120.606 100.557 120.51 100.591 120.451 100.571C120.39 100.55 120.339 100.502 120.256 100.451C120.482 100.336 120.642 100.257 120.799 100.175C120.679 100.038 120.557 99.9014 120.472 99.8029C120.205 99.9206 120.014 100.005 119.822 100.089C119.803 100.043 119.784 99.9998 119.763 99.9542C119.869 99.8798 119.972 99.8077 120.169 99.6709C119.923 99.6709 119.794 99.6709 119.65 99.6709C119.707 99.4908 119.751 99.3443 119.808 99.1642C119.58 99.1906 119.441 99.2074 119.303 99.2243C119.319 99.109 119.354 98.9913 119.34 98.8785C119.331 98.7992 119.27 98.708 119.206 98.6552C119.086 98.5615 118.95 98.4919 118.8 98.403C118.8 98.5759 118.8 98.7896 118.8 99.085C118.414 99.0586 118.034 99.0297 117.599 98.9985C117.902 98.6648 118.184 98.3526 118.49 98.014C118.13 97.8051 117.775 97.6346 117.465 97.4017C117.306 97.2817 117.268 96.9959 117.108 96.8734C116.897 96.7078 116.568 96.6837 116.38 96.5013C116.016 96.1435 115.682 95.7737 115.132 95.7377C115.085 95.7329 115.048 95.6104 115.006 95.5456C114.945 95.5528 114.883 95.56 114.822 95.5672C114.902 95.4567 114.98 95.3439 115.031 95.2742C114.822 95.0557 114.646 94.7724 114.395 94.6427C114.153 94.5202 113.831 94.5659 113.547 94.5202C113.415 94.501 113.237 94.4842 113.171 94.393C113.089 94.2801 113.103 94.0952 113.046 93.7951C113.291 93.968 113.389 94.0376 113.488 94.1072C113.533 94.0712 113.577 94.0352 113.622 93.9968C113.523 93.8815 113.408 93.7735 113.331 93.6438C113.232 93.4733 113.164 93.2836 113.051 93.0339C112.919 93.0027 112.706 92.9474 112.539 92.9066C113.869 91 115.201 89.0911 116.575 87.1196C116.97 87.72 117.355 88.301 117.747 88.9014C117.813 88.8846 117.942 88.8485 117.945 88.8485C118.034 89.1535 118.076 89.3648 118.156 89.5593C118.299 89.9075 118.464 90.2436 118.642 90.6302C118.736 90.5438 118.793 90.4622 118.87 90.4309C118.934 90.4021 119.028 90.4117 119.093 90.4429C119.122 90.4574 119.129 90.5774 119.105 90.6278C118.922 91.0144 119.07 91.2498 119.399 91.4659C119.547 91.5619 119.613 91.7804 119.737 91.9245C120.16 92.4168 120.595 92.897 121.02 93.3869C121.194 93.5862 121.349 93.8071 121.53 94.0016C121.711 94.1937 121.92 94.357 122.103 94.549C122.253 94.7075 122.375 94.89 122.519 95.0533C122.603 95.147 122.697 95.2334 122.801 95.303C122.862 95.3439 122.979 95.315 123.019 95.3607C123.322 95.7088 123.611 96.069 124.001 96.5445C123.026 97.8724 122.021 99.2483 121.006 100.615ZM128.223 89.0022C127.983 89.4921 127.692 89.9555 127.443 90.4405C127.227 90.8632 127.051 91.3074 126.837 91.7324C126.651 92.0974 126.435 92.448 126.24 92.7938C125.979 92.6929 125.681 92.5776 125.34 92.4432C125.371 92.3519 125.406 92.2319 125.451 92.0974C124.997 91.6412 124.53 91.1681 124.166 90.8007C123.806 90.3637 123.531 90.0275 123.252 89.6986C123.146 89.5713 122.977 89.4777 122.918 89.3336C122.693 88.7933 122.392 88.642 121.786 88.8677C121.894 88.6156 121.988 88.4043 122.082 88.1858C121.844 88.0849 121.631 87.9913 121.504 87.9361C121.379 87.5879 121.276 87.2925 121.166 86.9804C120.975 87.086 120.841 87.1605 120.566 87.3117C120.888 86.673 120.815 86.3296 120.275 86.0895C120.073 86.0007 119.967 85.6789 119.817 85.4604C119.695 85.482 119.561 85.5036 119.427 85.5252C119.42 85.3667 119.429 85.2059 119.406 85.0498C119.378 84.8745 119.375 84.6488 119.27 84.5383C118.431 83.6835 118.447 83.7027 118.999 82.6269C119.53 81.5968 119.993 80.5307 120.505 79.4909C120.63 79.2364 120.834 79.0275 121.041 78.7442C121.173 79.1163 121.511 79.3733 121.267 79.7887C121.252 79.8103 121.255 79.8655 121.274 79.8847C121.539 80.2065 121.809 80.5235 122.119 80.8909C121.936 81.1358 122.044 81.3927 122.387 81.6665C122.589 81.8297 122.632 82.1827 122.817 82.3844C123.792 83.4506 124.725 84.5743 125.801 85.5204C126.484 86.1207 127.069 86.8627 127.889 87.3045C128.141 87.4414 128.394 87.5735 128.737 87.7536C128.582 88.1378 128.427 88.582 128.223 89.0022ZM131.378 79.1884C130.979 79.5798 130.955 80.4802 131.232 80.8284C131.033 81.3879 130.854 81.8633 130.692 82.3436C130.539 82.7902 130.429 83.2513 130.253 83.6859C130.121 84.01 129.865 83.95 129.59 83.5586C129.341 83.6931 129.09 83.8324 128.709 84.0389C129.005 83.6739 129.203 83.429 129.435 83.136C128.784 82.9223 128.735 83.5706 128.418 83.7267C127.964 83.1672 128.669 83.0135 128.688 82.6894C128.359 82.31 128.068 81.9426 127.741 81.6112C127.431 81.2967 126.945 81.4431 126.567 81.2967C126.574 81.2534 126.583 81.2078 126.592 81.1646C126.759 81.1646 126.928 81.1646 127.095 81.1646C127.107 81.1214 127.116 81.0781 127.126 81.0349C126.905 80.9725 126.684 80.9125 126.433 80.8428C126.456 80.7012 126.477 80.5739 126.496 80.4562C126.35 80.3746 126.179 80.329 126.08 80.2161C125.798 79.8847 125.559 79.5173 125.277 79.1884C125.166 79.0587 124.993 78.9915 124.781 78.8498C124.727 78.7201 124.633 78.4824 124.534 78.2327C124.335 78.2879 124.086 78.3576 123.773 78.444C123.738 78.2831 123.691 78.0646 123.635 77.8077C124.184 77.6876 124.25 77.4859 123.797 77.1257C123.578 76.9528 123.461 76.6479 123.261 76.439C123.144 76.3165 122.951 76.2709 122.744 76.1652C122.756 76.1532 122.667 76.2325 122.575 76.3117C122.538 76.1412 122.502 75.9683 122.465 75.7978C122.455 75.8147 122.444 75.8315 122.432 75.8507C122.366 75.745 122.223 75.6201 122.244 75.5409C122.413 74.9142 122.622 74.2995 122.808 73.68C123.09 72.7315 123.369 71.783 123.639 70.8321C123.931 69.8164 124.238 68.8007 124.487 67.7729C124.701 66.8821 124.856 65.9768 125.009 65.0715C125.037 64.8963 124.931 64.697 124.863 64.404C124.922 64.308 125.021 64.1423 125.138 63.9502C125.573 64.6249 125.989 65.2973 126.433 65.948C126.639 66.2505 126.863 66.5963 127.281 66.3778C127.241 66.5219 127.152 66.6708 127.182 66.7884C127.236 66.9877 127.323 67.2254 127.473 67.3407C127.676 67.492 127.92 67.4704 127.889 67.8978C127.866 68.1979 128.157 68.6326 128.43 68.8127C128.794 69.0552 128.878 69.3601 129.005 69.7275C129.238 70.4047 129.56 71.053 129.842 71.7133C129.966 72.0063 130.062 72.3185 130.22 72.5922C130.283 72.7003 130.476 72.7315 130.539 72.7627C130.516 72.9236 130.417 73.1421 130.483 73.2381C130.708 73.5575 130.56 74.1338 131.103 74.2587C130.918 74.7653 131.028 75.7522 131.202 75.8243C131.221 76.2325 131.235 76.5902 131.256 76.9504C131.258 77.0249 131.315 77.1281 131.284 77.1665C130.988 77.5243 131.397 77.5507 131.521 77.7092C131.122 78.1054 131.077 78.5545 131.378 79.1884ZM79.6671 19.7243C80.4423 19.1936 81.2434 18.699 82.0399 18.1995C82.9632 17.6184 83.8794 17.0181 84.8309 16.4898C85.2608 16.2521 85.7753 16.1777 86.2428 16.0048C86.3697 15.9592 86.4636 15.8175 86.6516 15.7551C86.6117 15.8871 86.5694 16.0216 86.4918 16.2785C87.145 16.1513 87.7511 16.0312 88.3666 15.9112C88.3384 16.0648 88.2985 16.2761 88.2327 16.6459C88.4676 16.4971 88.5804 16.401 88.7096 16.3554C88.8177 16.317 88.9445 16.3362 89.062 16.3314C89.0644 16.437 89.0996 16.5595 89.0597 16.6435C88.9187 16.9317 88.7378 17.1982 88.5968 17.484C88.2444 18.2067 87.9414 18.9607 87.542 19.6571C87.2671 20.1373 86.8419 20.4807 86.2898 20.6848C85.8176 20.8601 85.4041 21.2059 84.9554 21.4556C84.4996 21.7101 84.0274 21.9334 83.5716 22.188C83.0994 22.4497 82.6342 22.7258 82.1738 23.0092C81.4408 23.4582 80.7266 23.9409 79.9819 24.3659C79.263 24.7789 78.5206 25.1559 77.7735 25.5185C77.4047 25.6986 76.6035 25.3816 76.2981 25.0142C76.1947 24.8894 76.042 24.7693 75.8917 24.7261C75.3138 24.5604 75.1516 24.0297 75.5557 23.5759C76.2558 22.7883 76.9113 21.9502 77.6701 21.2251C78.2692 20.6512 78.981 20.1949 79.6671 19.7243ZM68.8954 11.3176C69.2877 10.6236 69.6401 9.88406 70.1476 9.28856C71.4585 7.74697 72.8352 6.26301 74.2049 4.77424C74.9449 3.97223 75.7084 3.19183 76.4955 2.44025C76.8408 2.10888 77.259 1.85195 77.6701 1.60222C77.7641 1.54699 77.9614 1.66705 78.1329 1.71267C78.3115 1.66225 78.5417 1.59261 78.7743 1.53979C79.3757 1.40292 79.3757 1.40772 79.8362 0.951484C79.862 1.11717 79.8808 1.26364 79.9255 1.559C80.0406 1.22763 80.1087 1.03793 80.1816 0.824219C80.3883 1.05474 80.5434 1.23003 80.6984 1.40292C81.0626 1.91438 80.7407 2.3562 80.4799 2.84606C80.0288 3.69129 79.6999 4.60856 79.223 5.43458C78.6521 6.42389 77.9215 7.29313 77.0264 8.0135C76.4955 8.43852 76.0232 8.93798 75.5205 9.39901C75.1469 9.74479 74.7429 10.0089 74.2448 10.1842C73.9253 10.2971 73.7045 10.6885 73.4131 10.9238C73.2463 11.0583 73.0279 11.1207 72.8376 11.2263C72.6896 11.308 72.5486 11.4016 72.4076 11.4953C72.3841 11.5121 72.3677 11.5793 72.3583 11.5769C71.677 11.4088 71.5713 12.4222 70.8923 12.3237C70.749 12.3021 70.547 12.5806 70.399 12.7463C70.1922 12.9768 70.0748 12.8712 69.9127 12.6863C69.7247 12.4726 69.4757 12.3189 69.2854 12.1076C69.0857 11.8843 68.6628 11.7306 68.8954 11.3176ZM89.9782 34.756C90.2296 34.7848 90.4317 34.5135 90.7676 34.8136C91.0072 35.0298 91.5335 34.9097 91.9047 34.9385C91.8483 35.2891 91.7966 35.6036 91.7308 35.9974C91.8906 35.935 91.9705 35.9206 92.0292 35.8774C92.2759 35.7021 92.2994 35.217 92.7457 35.3275C93.0324 35.3971 93.3166 35.4788 93.5915 35.5844C93.7419 35.6421 93.8687 35.7621 94.005 35.8558C93.8781 36.0191 93.7513 36.1847 93.5915 36.3912C93.6244 36.4417 93.6902 36.5497 93.756 36.6578C93.7348 36.6914 93.7207 36.7202 93.7019 36.7442C93.4999 37.0228 93.1381 37.2941 93.1287 37.5775C93.1099 38.1946 92.6659 38.6076 92.5625 39.1695C92.5132 39.4288 91.7449 39.5489 91.3103 39.4168C90.7958 39.2559 90.2531 38.9053 89.7738 38.9798C89.1513 39.0734 88.6297 38.7421 88.0447 38.8117C87.9202 38.8261 87.7769 38.6916 87.7205 38.6652C87.3047 38.6652 86.95 38.6916 86.5999 38.6604C85.881 38.5932 85.1433 38.5716 84.4503 38.3867C83.9546 38.2546 83.285 38.5956 83.0524 37.9929C82.8081 38.0697 82.6366 38.1249 82.4627 38.1802C82.4228 38.0001 82.3829 37.82 82.3453 37.6471C82.0798 37.7551 81.7626 37.9352 81.422 38.0097C81.1072 38.0793 80.7078 38.1874 80.6373 37.6231C80.6279 37.5438 80.346 37.407 80.2967 37.443C79.7516 37.856 79.4838 37.2677 79.122 37.0948C78.9669 37.0204 78.9106 36.7274 78.8095 36.5329C78.8706 36.5017 78.9341 36.4681 78.9951 36.4369C79.068 36.5521 79.1408 36.6698 79.1666 36.713C79.2982 36.5617 79.4204 36.4225 79.5425 36.2808C79.6177 36.1943 79.6882 36.0983 79.7728 36.0191C80.0241 35.7789 79.8879 35.2122 80.4235 35.2146C80.4235 35.0394 80.4235 34.8641 80.4235 34.8425C80.8887 34.6744 81.321 34.5183 81.8096 34.343C82.2748 34.8809 82.7212 34.0116 83.3015 34.2469C83.4988 34.4342 83.7807 34.7032 84.018 34.9313C84.1331 34.6504 84.2365 34.403 84.3023 34.2445C84.8191 34.2902 85.2796 34.331 85.8011 34.3766C85.8763 34.5303 86.0032 34.7872 86.13 35.0466C86.1723 35.0249 86.217 35.0033 86.2593 34.9817C86.2076 34.8713 86.1559 34.7584 86.0666 34.5615C86.5012 34.4102 86.9218 34.2614 87.441 34.0789C87.394 34.3598 87.3752 34.4655 87.3587 34.5711C87.6501 34.696 87.9555 33.7235 88.2374 34.6359C88.376 34.5783 88.524 34.5159 88.672 34.4535C89.0291 34.8953 89.5389 34.7032 89.9782 34.756ZM29.8191 36.1871C29.906 35.3755 30.303 34.7056 30.7471 34.0597C30.8857 33.8603 31.0572 33.6634 31.2545 33.5266C31.9053 33.0727 32.5772 32.6501 33.235 32.2059C33.4911 32.033 33.7119 31.8001 33.9821 31.656C34.4308 31.4111 34.8936 31.0845 35.4269 31.4327C35.6384 31.572 35.8451 31.7473 36.0001 31.949C36.2821 32.3188 36.5663 32.6958 36.7731 33.1112C37.0879 33.7379 37.1231 34.4222 37.0174 35.1162C36.9681 35.45 36.8506 35.8102 36.9258 36.1151C37.0221 36.5113 36.961 36.8355 36.813 37.1789C36.7684 37.2845 36.766 37.4118 36.7496 37.5294C36.6368 38.3651 36.517 39.2007 36.4136 40.0387C36.2938 41.0352 36.1834 42.0317 36.0753 43.0282C36.0142 43.5733 35.9626 44.1184 35.9109 44.6611C35.8897 44.9084 35.9203 45.1677 35.8545 45.3983C35.683 45.9866 35.6102 46.5653 35.8028 47.1608C35.8286 47.2424 35.8193 47.3433 35.8052 47.4297C35.737 47.8763 35.6431 48.3206 35.5937 48.7696C35.5702 48.9713 35.5655 49.2186 35.6595 49.3819C35.8756 49.7661 35.582 50.0831 35.5961 50.4144C35.6219 51.0243 35.7394 51.6343 35.8545 52.2346C35.9696 52.8277 36.1223 53.4112 36.2703 53.9971C36.3267 54.2108 36.4348 54.4125 36.4912 54.6262C36.6721 55.3129 36.9493 55.9349 37.4685 56.4319C37.6282 56.5832 37.795 56.7681 37.8585 56.9698C38.1263 57.8126 38.6478 58.4345 39.3644 58.9292C38.9955 59.4214 39.4302 59.6208 39.7191 59.8249C40.1702 60.1418 40.6589 60.4036 41.1287 60.6941C41.2391 60.7613 41.3402 60.843 41.4459 60.9198C41.4788 60.8742 41.514 60.831 41.5469 60.7853C41.4083 60.6701 41.2697 60.5524 41.1193 60.4252C41.7137 60.4036 42.2893 60.3939 42.5947 60.9726C42.8014 60.7829 42.9847 60.6149 43.2102 60.406C43.2102 60.6341 43.2102 60.7589 43.2102 60.9654C43.4475 60.8454 43.6895 60.6269 43.7952 60.6821C44.1993 60.891 44.4577 60.5836 44.7373 60.454C45.0732 60.3003 45.3434 60.0025 45.6653 59.8032C46.1093 59.5319 46.5721 59.287 47.0326 59.0421C47.1782 58.9652 47.3944 58.97 47.4837 58.8572C47.7468 58.533 47.9935 58.1848 48.1931 57.815C48.663 56.9338 49.0976 56.0309 49.5605 55.1449C49.6403 54.9912 49.7883 54.8711 49.9269 54.7078C49.7813 54.3741 49.9739 54.0163 50.324 53.9635C50.3921 53.5865 50.4133 53.2239 50.5307 52.8925C50.6341 52.5924 50.8408 52.3306 51.0076 52.0449C50.9677 52.0401 50.8596 52.0305 50.7751 52.0233C50.7445 51.4326 51.4869 50.9019 50.8267 50.3568C50.8855 50.1311 50.9372 49.939 50.9865 49.7565C50.8079 49.8117 50.6905 49.8501 50.5378 49.8982C50.6717 49.574 50.761 49.3627 50.8855 49.0673C50.62 49.1082 50.4908 49.1298 50.3569 49.1514C50.4955 48.7936 50.6153 48.4814 50.7445 48.1453C50.573 48.1453 50.4696 48.1453 50.4579 48.1453C50.519 47.5738 50.5777 47.0239 50.6341 46.474C50.5801 46.4548 50.526 46.4356 50.472 46.4188C50.3522 46.5989 50.2347 46.7814 50.1149 46.9639C50.0726 46.6445 50.0327 46.1643 50.1736 46.0994C50.7163 45.8521 50.5871 45.3046 50.7422 44.918C50.9043 44.5122 50.7985 44.0031 50.8714 43.5493C51.0147 42.6441 51.1885 41.7436 51.3718 40.8479C51.5057 40.19 51.6326 39.5249 51.8487 38.8957C51.9873 38.4995 52.1565 38.1562 51.8816 37.8344C51.9873 37.6903 52.1118 37.5943 52.14 37.4742C52.3115 36.6866 52.4948 35.9014 52.6099 35.1066C52.6804 34.6167 52.523 34.0717 52.671 33.6226C53.021 32.5709 52.6569 31.5696 52.6099 30.5491C52.6052 30.4554 52.5042 30.3666 52.4995 30.2705C52.4877 30.0448 52.5981 29.6798 52.4971 29.6102C52.039 29.2884 52.281 28.8946 52.2998 28.52C52.3068 28.4048 52.2927 28.2919 52.2857 28.1598C52.1306 28.1598 52.0014 28.1598 51.8557 28.1598C52.086 27.8741 52.4266 27.6123 51.8393 27.365C51.7712 27.3362 51.7453 27.1249 51.7524 27.0024C51.7688 26.6783 51.8135 26.3541 51.8628 25.8907C51.5174 26.078 51.3154 26.1836 51.0687 26.3181C50.6388 25.6385 51.3436 25.0334 51.3741 24.3035C50.6082 24.6516 51.0734 23.7872 50.7093 23.7031C50.6552 23.6887 50.6646 23.3814 50.6341 23.122C50.4508 22.8171 50.2112 22.4161 49.9481 21.9767C49.8753 22.0871 49.7954 22.2096 49.6615 22.4137C49.5957 22.0631 49.4524 21.7726 49.5205 21.5492C49.6638 21.069 49.5276 20.7929 49.0882 20.62C49.1634 20.5791 49.2174 20.5479 49.3537 20.4735C49.0319 20.4231 48.7852 20.3822 48.4774 20.3318C48.5361 20.0557 48.5925 19.7795 48.6513 19.501C48.266 19.501 47.9206 19.501 47.5753 19.501C48.0428 19.1456 48.031 19.0303 47.6058 18.7062C47.4343 18.5765 47.3333 18.3436 47.2182 18.1467C47.0208 17.8129 46.8611 17.4455 46.3607 17.6016C46.06 17.6953 45.7475 17.7577 45.3575 17.8561C45.5971 17.5224 45.7686 17.2823 45.9425 17.0397C45.9119 16.9965 45.8838 16.9509 45.8532 16.9077C45.475 17.2006 45.3035 17.0037 45.1155 16.6988C44.9816 16.4802 44.7631 16.1969 44.554 16.1729C44.251 16.1345 44.103 15.9976 43.9197 15.7959C43.8234 15.6902 43.6167 15.683 43.4569 15.6518C43.2925 15.6206 43.1233 15.6158 42.9095 15.5942C42.8719 15.7431 42.8296 15.9184 42.7991 16.0312C42.1836 16.084 41.9486 15.5558 41.6738 15.2124C41.4318 14.9098 41.2391 14.9435 40.9596 14.9483C40.7857 14.9507 40.6095 14.8642 40.3253 14.7898C40.3253 14.7898 40.1232 14.9411 40.0903 14.9098C39.8014 14.6361 39.4396 14.8594 39.167 14.7562C38.7277 14.5905 38.4904 14.7009 38.2884 15.2772C38.2485 15.0299 38.2461 14.9555 38.225 14.8882C38.1733 14.7177 38.1333 14.42 38.0535 14.408C37.7128 14.3552 37.2688 14.2519 37.0315 14.4176C36.5405 14.761 36.2492 14.4632 35.878 14.2279C35.7441 14.3984 35.6196 14.5617 35.4034 14.8354C35.2953 14.3167 35.1943 13.8173 34.5999 14.1823C34.3321 13.8533 34.1959 14.0838 34.0502 14.3119C34.0291 14.3479 33.9398 14.3672 33.8975 14.3528C33.6085 14.2615 33.329 14.1318 33.0353 14.0622C32.6923 13.9806 32.3164 13.8413 31.9992 13.9181C31.722 13.983 31.5082 14.3119 31.2921 14.5016C31.1183 14.3047 30.9421 14.1078 30.7212 13.8629C30.4933 14.4032 30.148 14.516 29.6123 14.0142C29.7627 14.3095 29.8402 14.4608 29.953 14.6817C29.6993 14.6673 29.5137 14.6553 29.3163 14.6409C29.2858 14.4632 29.2576 14.2999 29.2294 14.139C28.9428 14.1919 28.6374 14.1943 28.3719 14.3047C27.9114 14.4992 27.4674 14.7394 27.0375 14.9939C26.7462 15.1644 26.5136 15.4525 26.2129 15.587C25.6279 15.8511 24.9442 15.9304 24.7163 16.706C24.6858 16.814 24.4814 16.8836 24.3428 16.9389C24.0891 17.0373 23.8025 17.0733 23.5746 17.2126C23.3091 17.3711 23.0742 17.5992 22.8533 17.8225C21.7374 18.9535 20.598 20.0605 19.5337 21.2395C18.8336 22.0151 18.2721 22.9179 17.6049 23.7272C16.7944 24.7069 16.2729 25.8546 15.709 26.976C15.5234 27.3458 15.3472 27.73 15.2415 28.1286C15.0559 28.825 14.976 29.5549 14.7622 30.2393C14.5062 31.0509 14.2266 31.8361 14.6236 32.6765C14.6401 32.7102 14.6283 32.7798 14.6025 32.8086C14.33 33.1088 14.2736 33.3729 14.3911 33.8267C14.5179 34.3166 14.2924 34.8929 14.2924 35.4308C14.2877 36.7923 14.774 37.9857 15.5892 39.047C15.8054 39.328 16.1531 39.5561 16.2447 39.8706C16.5477 40.9032 17.3677 41.4843 18.0748 42.1374C18.6245 42.6441 19.3246 42.9802 19.9684 43.3812C20.5463 43.7414 21.0843 44.3321 21.8549 43.7942C21.8643 43.787 21.9065 43.8303 21.9347 43.8495C21.9676 44.3705 22.0921 44.4642 23.3232 43.8687C23.6427 44.3249 24.5284 44.3946 24.9348 43.9239C25.3929 43.398 26.1635 43.4677 26.6099 42.8265C26.8213 42.524 27.2842 42.2983 27.5073 41.8973C27.5379 41.842 27.5496 41.7412 27.5872 41.7316C28.2074 41.5755 28.2944 40.9656 28.5246 40.5166C29.0579 39.4696 29.5207 38.3867 30.0117 37.3157C29.852 37.114 29.7768 36.9051 29.758 36.689C29.7415 36.5257 29.8003 36.3552 29.8191 36.1871ZM27.9936 31.7281C27.3217 32.8014 26.8237 33.99 26.281 35.145C26.2011 35.3131 26.2927 35.5628 26.3115 35.863C25.6349 36.216 25.7453 36.9892 25.6843 37.7095C25.6655 37.9208 25.5762 38.1345 25.4799 38.3266C25.2802 38.7276 25.4282 38.9125 25.8299 38.9534C25.7406 39.1983 25.6608 39.4168 25.5809 39.6353C25.6702 39.6113 25.7594 39.5849 26.0014 39.5201C25.8205 39.8946 25.6843 40.178 25.5339 40.4901C25.4352 40.4493 25.3413 40.4301 25.2684 40.3797C24.909 40.1348 24.6153 40.0579 24.176 40.3461C23.9058 40.5262 23.4125 40.3725 23.0225 40.3317C22.8416 40.3125 22.6724 40.1828 22.4892 40.154C21.7961 40.0459 21.2981 39.5489 20.8329 39.119C20.2761 38.6076 20.3395 39.0302 20.2526 39.3856C20.0764 39.2319 19.9073 39.083 19.7804 38.9726C19.9519 38.7997 20.1939 38.6652 20.1939 38.5307C20.1939 38.3434 20.0177 38.1489 19.9026 37.9689C19.8579 37.8968 19.7522 37.8632 19.7076 37.7912C19.3011 37.138 18.8689 36.4993 18.5094 35.8198C18.2792 35.3827 18.157 34.8857 17.9855 34.415C17.9526 34.3238 17.9432 34.1605 17.8939 34.1485C17.5673 34.0645 17.7083 33.8315 17.7224 33.6442C17.7717 32.8686 17.8305 32.093 17.8657 31.3174C17.8704 31.219 17.7553 31.1181 17.8305 31.0437C17.9338 30.2225 18.0278 29.4013 18.1429 28.5824C18.1993 28.1982 18.2792 27.8141 18.3732 27.4371C18.5564 26.7047 18.7373 25.9723 19.1978 25.348C19.8203 24.5028 20.3818 23.6095 21.049 22.8051C21.4766 22.2912 22.0499 21.9022 22.5597 21.458C22.7218 21.3163 22.8745 21.1578 23.053 21.045C23.934 20.4807 24.8197 19.9308 25.7031 19.3761C25.7853 19.3233 25.8769 19.2753 25.938 19.2032C26.3632 18.7086 26.9646 18.6005 27.5355 18.4156C27.6506 18.3796 27.7446 18.2788 27.8315 18.2187C28.0124 18.2187 28.2427 18.2331 28.4706 18.2163C28.9592 18.1803 29.4479 18.1227 29.9365 18.0867C30.2678 18.0627 30.599 18.041 30.9303 18.0506C31.6821 18.0723 32.4339 18.1251 33.1857 18.1443C33.6743 18.1563 34.163 18.1227 34.6516 18.1347C34.8114 18.1395 34.9688 18.2307 35.1262 18.2836C35.2037 18.3124 35.2907 18.3892 35.3541 18.37C35.9273 18.2019 36.4536 18.4493 37.0033 18.5189C37.6423 18.5981 38.3189 18.4637 38.9392 18.6029C40.0245 18.8479 41.0958 19.1864 42.146 19.5682C43.0928 19.9116 43.9926 20.4135 44.6081 21.2515C44.9605 21.7269 45.5572 21.9887 45.7052 22.6514C45.7663 22.9203 45.9942 23.1893 46.3912 23.0236C46.3348 23.8376 46.8164 24.3875 47.2605 24.9638C47.385 25.1223 47.4132 25.3552 47.5024 25.5449C47.7186 26.0035 47.9042 26.4862 48.1837 26.904C48.4093 27.2402 48.3318 27.4082 48.0005 27.5739C48.1438 27.8309 49.0413 27.7948 48.3153 28.2943C48.5972 29.3172 48.616 30.3978 49.2997 31.2454C48.9496 31.3799 48.9943 31.6512 49.201 32.0282C49.3091 32.2275 49.2315 32.5253 49.2715 32.7726C49.3208 33.0703 49.403 33.3609 49.4735 33.6634C48.9167 33.7403 49.6826 34.1869 49.4406 34.403C49.6897 34.6744 49.4759 34.9457 49.4594 35.2242C49.4312 35.7141 49.4594 36.2112 49.4923 36.7034C49.5017 36.8283 49.6215 36.9459 49.6991 37.0828C49.255 37.6927 48.9473 38.3795 49.0577 39.2175C49.0859 39.4288 48.959 39.6593 48.8979 39.8802C48.8909 39.909 48.8416 39.9259 48.8345 39.9547C48.7053 40.5814 48.5855 41.2081 48.4516 41.8324C48.3881 42.1302 48.219 42.4303 48.2378 42.7161C48.2707 43.1651 47.7491 43.5301 48.0992 44.0296C48.1814 44.1448 48.0381 44.4282 47.9888 44.6323C47.8736 45.1101 47.7397 45.5856 47.6364 46.0658C47.5377 46.5268 47.4437 46.9807 47.5823 47.4657C47.6411 47.6722 47.4954 47.9316 47.4696 48.1693C47.4531 48.311 47.4414 48.5487 47.5095 48.5871C48.0851 48.9089 47.8501 49.3483 47.5424 49.5716C47.2017 49.8189 47.3638 50.1263 47.3638 50.328C47.3615 50.8731 47.4437 51.4446 47.627 51.956C48.0005 53.003 47.54 53.9178 47.3427 54.8879C47.1923 55.6275 46.7789 56.0381 46.1445 56.3095C45.9965 56.3719 45.8603 56.4944 45.7545 56.6216C45.233 57.2507 44.3661 56.9002 43.7835 57.354C43.7435 57.3852 43.6002 57.3492 43.5579 57.2964C43.3441 57.0442 43.1632 56.7585 42.9424 56.516C42.7615 56.3167 42.5477 56.1702 42.3433 56.5256C42.2916 56.6168 42.1577 56.6576 42.0191 56.7513C42.0638 56.3623 42.0943 56.0789 42.1272 55.7956C42.0872 55.8124 42.0473 55.8292 42.0097 55.846C41.8641 55.5651 41.7184 55.2841 41.5352 54.936C41.1381 54.8543 40.8586 54.3549 40.9572 53.7185C40.6048 53.6297 40.4169 53.2287 40.4756 52.6332C39.8859 52.7412 39.9024 52.4747 40.1397 52.0665C40.1749 52.004 40.1772 51.872 40.1373 51.824C39.6909 51.2957 39.8812 50.6209 39.7285 50.0278C39.5735 49.4275 39.4302 48.8176 39.3691 48.2029C39.3244 47.7539 39.4443 47.2928 39.4466 46.8342C39.4466 46.6373 39.3291 46.4404 39.2798 46.2963C39.3456 45.684 39.4184 45.1053 39.4631 44.5242C39.5312 43.6406 39.644 42.7545 39.6158 41.8733C39.5923 41.1361 39.8836 40.4517 39.8554 39.7362C39.8061 38.3963 40.2078 37.126 40.3581 35.8198C40.431 35.2026 40.4756 34.5807 40.4827 33.9588C40.485 33.6322 40.3605 33.3081 40.3253 32.9767C40.3159 32.8806 40.4639 32.7726 40.4686 32.6669C40.4827 32.1339 40.4756 31.6008 40.4756 31.0509C40.2501 31.0317 40.1068 31.0197 39.94 31.0053C40.0034 30.77 40.0645 30.5443 40.1256 30.3137C39.9118 30.2561 39.7544 30.2129 39.6674 30.1889C39.4513 29.5934 39.254 29.0459 39.0402 28.4552C38.6901 28.6089 38.42 28.7265 38.1098 28.8634C38.091 28.7265 38.0159 28.5416 38.0558 28.3855C38.1803 27.8789 38.037 27.5787 37.5319 27.4058C37.3299 27.3362 37.1278 27.2306 36.9234 27.2209C36.7872 27.2137 36.6462 27.3482 36.4794 27.4347C36.2257 26.8368 35.5773 26.7743 35.0346 26.5342C34.7949 26.4285 34.5577 26.3109 34.3439 26.1644C34.1653 26.0395 33.4676 26.1212 33.2679 26.3157C32.9202 26.6543 32.6195 27.1465 32.206 27.2834C31.1018 27.6556 30.5991 28.6137 29.9248 29.4229C29.2811 30.1937 28.5199 30.8828 27.9936 31.7281ZM52.6522 58.3793C52.0554 58.4129 51.4658 58.3577 50.9419 58.6507C50.7257 58.6627 50.4837 58.6146 50.2958 58.6987C49.8471 58.898 49.4218 59.1549 48.9896 59.395C48.6748 59.5727 48.313 59.7072 48.0592 59.9545C46.8587 61.1263 45.6676 62.3101 44.5094 63.5276C43.7811 64.2935 43.0317 65.0307 42.6464 66.1065C42.4584 66.6348 42.7826 66.5147 43.027 66.6972C42.6158 67.127 42.341 67.5832 42.7122 68.1499C42.9659 68.5389 43.2431 68.9135 43.5062 69.2977C43.5955 69.4226 43.72 69.5426 43.7553 69.6819C43.9127 70.2774 44.2275 70.7625 44.702 71.1227C45.0333 71.3724 45.4186 71.5453 45.7428 71.8022C46.7342 72.5874 47.7985 73.0772 49.0976 73.0508C49.8377 73.0364 50.5307 72.9308 51.1838 72.6018C51.6208 72.3809 52.0366 72.1144 52.4572 71.8574C52.732 71.6869 52.974 71.442 53.2677 71.3292C54.104 71.0122 54.7807 70.4215 55.2153 69.7107C56.1785 68.1331 57.0243 66.4643 57.3908 64.6105C57.4636 64.2383 57.3367 63.8229 57.2897 63.3162C57.6445 62.9753 56.9749 62.5623 57.0853 62.106C57.0971 62.0556 57.0478 61.9764 57.0078 61.9259C56.787 61.6234 56.5356 61.3424 56.343 61.0231C56.1996 60.7829 56.1292 60.4972 56.007 60.1802C55.6429 60.1754 55.3962 59.9833 55.4878 59.6039C55.0955 59.2894 54.7595 59.018 54.447 58.7683C53.9795 59.2149 53.9537 58.593 53.7798 58.5282C53.4227 58.629 53.1079 58.7155 52.7626 58.8115C52.7203 58.6483 52.6851 58.5114 52.6522 58.3793ZM53.8738 67.079C53.8785 67.163 53.8127 67.2927 53.7399 67.3407C53.1479 67.7345 52.5464 68.1139 51.9474 68.4957C51.79 68.5965 51.6326 68.695 51.5151 68.767C50.5613 68.5869 49.7014 68.7166 48.9778 69.509C49.1822 68.6854 49.1705 68.6902 48.3952 68.4333C48.0804 68.3276 47.7914 68.1379 47.5682 68.0251C47.1923 67.4392 46.8352 66.8869 46.457 66.301C46.3513 66.3298 46.2009 66.3706 46.0153 66.421C46.0153 66.1737 45.9589 65.9024 46.0271 65.6719C46.1516 65.2564 46.4734 65.0043 46.9034 64.9731C47.2205 64.9515 47.3944 64.8146 47.5048 64.5073C47.6692 64.051 47.8971 63.6572 48.4257 63.5059C48.7382 63.4171 48.9943 63.1386 49.302 63.0161C49.6638 62.8744 50.0515 62.7424 50.4344 62.7231C51.0288 62.6943 51.6302 62.7496 52.2246 62.8048C52.3679 62.8168 52.5441 62.9296 52.6263 63.0521C53.0609 63.6956 53.4486 64.3512 53.6741 65.1292C53.8621 65.7823 53.8292 66.4282 53.8738 67.079ZM28.5927 66.2722C28.7548 66.4282 28.9146 66.5843 29.1049 66.7692C28.7172 67.2975 28.6209 68.0587 28.0618 68.4333C28.0171 68.6998 28.0171 69.0048 27.8997 69.2497C27.8527 69.3481 27.5449 69.3145 27.31 69.3481C27.31 69.3577 27.31 69.4658 27.31 69.6099C26.5418 69.0792 25.797 68.5918 25.0828 68.0587C24.7492 67.8089 24.4932 67.456 24.1783 67.1774C23.9974 67.0141 23.739 66.9373 23.5699 66.7668C22.2261 65.4029 20.8916 64.0342 19.5713 62.6511C19.381 62.4518 19.3035 62.1468 19.1249 61.9307C18.836 61.5874 18.4624 61.3088 18.2111 60.9414C17.8775 60.4612 17.6449 59.9065 17.3324 59.4094C17.2243 59.2366 16.9589 59.1645 16.8485 58.9916C16.7169 58.7899 16.6746 58.5282 16.6464 58.2689C16.2212 57.9351 16.0285 57.4308 15.7842 56.8978C15.6456 56.5952 15.6503 56.1438 15.1992 55.9349C14.9032 55.798 14.7364 55.3706 14.5085 55.0728C14.9056 54.6958 15.2861 54.3308 15.709 53.9298C15.6808 53.8098 15.6385 53.6153 15.5963 53.4328C16.0896 53.1182 16.5759 52.8061 17.0528 52.5011C17.4076 52.8517 17.2361 53.1062 16.8719 53.3367C16.9166 53.3727 16.9612 53.4112 17.0059 53.4472C17.2267 53.404 17.4475 53.3631 17.7412 53.3079C17.5204 53.9707 18.2252 53.9226 18.4436 54.2852C18.4977 54.3741 18.5963 54.4341 18.6739 54.5085C18.594 54.5277 18.4483 54.5373 18.4436 54.5662C18.4201 54.727 18.4319 54.8927 18.4319 55.044C18.7209 55.044 18.9347 55.044 19.1508 55.044C19.1062 55.2361 19.0615 55.4282 19.0075 55.6587C19.233 55.6899 19.4844 55.7236 19.7898 55.7668C19.7193 56.0741 19.6582 56.3551 19.5948 56.6336C19.6418 56.6672 19.6911 56.6985 19.7381 56.7297C19.7781 56.5952 19.8203 56.4607 19.8603 56.3263C19.912 56.3359 19.9637 56.3479 20.0153 56.3575C20.2291 56.672 20.4453 56.9842 20.652 57.3012C20.6872 57.354 20.7107 57.4356 20.699 57.4933C20.6567 57.6926 20.7225 57.7718 20.9363 57.7526C20.9856 57.7478 21.0349 57.7406 21.0866 57.7406C21.1524 57.7406 21.2182 57.7502 21.3897 57.7622C21.1242 58.1992 21.7844 58.5474 21.4108 59.0252C21.3333 59.1261 21.6528 59.4239 21.8267 59.3038C21.9089 59.0541 21.9606 58.9028 22.0452 58.6459C22.7852 59.7504 23.6145 60.5836 24.4415 61.4697C24.3381 61.8275 24.2206 62.2237 24.1055 62.6199C24.1619 62.6463 24.2159 62.6727 24.2723 62.6991C24.5354 62.4926 24.7962 62.2837 25.0899 62.0508C26.2129 63.2154 27.4157 64.3992 28.682 65.5086C28.7454 65.475 28.8065 65.4437 28.8676 65.4125C28.823 65.6911 28.7783 65.9696 28.7337 66.2458C28.6867 66.2554 28.6397 66.2626 28.5927 66.2722ZM35.8968 71.0794C35.5984 71.5693 35.3846 72.1144 35.1332 72.6354C35.0181 72.8707 34.95 73.1565 34.7761 73.3318C34.6187 73.4903 34.3486 73.5455 34.1207 73.6223C33.8576 73.7112 33.5357 73.6343 33.3806 74.0089C33.3313 74.1314 33.0071 74.2611 32.8943 74.2058C32.3305 73.9273 31.7902 73.5983 31.2545 73.2645C31.1981 73.2285 31.1652 73.0148 31.2099 72.962C31.4894 72.6426 31.2757 72.5322 30.9914 72.4265C31.0431 72.232 31.0901 72.0447 31.1629 71.7614C31.0407 71.8526 30.9984 71.891 30.9514 71.9199C30.8175 72.0063 30.6813 72.0879 30.545 72.1744C30.4769 71.9607 30.2866 71.6509 30.3641 71.5501C30.7518 71.0386 31.036 70.4047 31.6962 70.1525C31.8043 70.1117 31.9335 69.9893 31.9546 69.8836C32.1308 69.0528 32.8145 68.7478 33.4182 68.354C33.6461 68.2076 33.8505 68.0203 34.0831 67.8786C34.1771 67.8186 34.3157 67.8306 34.4331 67.8113C34.4472 67.8522 34.4613 67.8954 34.4778 67.9362C34.365 68.0803 34.2523 68.2244 34.1395 68.366C34.1606 68.3949 34.1818 68.4237 34.2029 68.4525C34.405 68.3516 34.5999 68.1907 34.8114 68.1643C35.0957 68.1307 35.3987 68.1739 35.683 68.2388C35.7535 68.2556 35.7746 68.4837 35.8193 68.6158C35.69 68.6182 35.5608 68.6302 35.4316 68.6206C35.3846 68.6158 35.3423 68.5605 35.2437 68.4909C35.394 68.9423 35.8263 69.0768 36.1552 68.7959C36.1411 69.0672 36.369 69.3097 36.08 69.5426C36.0589 69.5594 36.1435 69.7323 36.1928 69.826C36.2327 69.9028 36.2938 69.9677 36.3478 70.0349C36.2562 70.0517 36.167 70.0685 36.0307 70.0925C36.3126 70.4839 36.0965 70.7529 35.8968 71.0794ZM74.1814 104.08C74.7546 104.221 75.2832 104.36 75.8165 104.471C75.941 104.497 76.0937 104.377 76.2229 104.396C76.6129 104.454 76.9959 104.553 77.3835 104.627C77.454 104.639 77.5926 104.62 77.5949 104.603C77.6607 104.094 78.0507 104.274 78.3326 104.188C78.3491 104.339 78.3608 104.449 78.3726 104.555C80.0124 104.531 83.2357 103.909 83.4941 103.578C83.8207 103.847 84.166 103.779 84.4973 103.611C84.9131 103.402 85.3031 103.141 85.726 102.953C86.3955 102.653 87.2013 102.538 87.7182 102.075C88.0565 101.77 88.3502 101.529 88.766 101.414C88.7801 101.409 88.7895 101.388 88.8036 101.383C89.0268 101.289 89.2828 101.241 89.4637 101.095C89.802 100.819 90.3118 100.797 90.4951 100.264C90.676 99.7405 90.9368 99.6757 91.16 100.021C91.2163 99.9326 91.268 99.7837 91.3174 99.7861C91.8436 99.7981 92.142 99.3731 92.5414 99.145C93.5539 98.5615 94.5641 97.978 95.3418 97.0679C95.3864 97.1328 95.431 97.1952 95.4992 97.2937C95.9455 96.9071 96.3825 96.5229 96.8218 96.1435C97.6582 95.4207 98.6026 94.8756 99.5376 94.2993C100.355 93.7951 101.074 93.1227 101.838 92.5272C102.134 92.2967 102.568 92.1406 102.702 91.8405C102.942 91.3026 103.456 91.1657 103.799 90.8007C103.91 90.6807 103.985 90.5246 104.107 90.4213C104.361 90.2052 104.657 90.0347 104.894 89.8042C105.136 89.5665 105.284 89.2087 105.552 89.0214C106.506 88.3467 107.133 87.3622 107.889 86.5049C108.439 85.8782 108.956 85.2155 109.426 84.5239C109.966 83.7267 110.457 82.8911 110.934 82.053C111.825 80.4922 112.764 78.9579 113.547 77.3418C114.526 75.3224 115.419 73.2525 116.253 71.1635C116.77 69.8692 117.106 68.5005 117.524 67.1558C117.334 67.1558 117.219 67.1558 117.106 67.1558C117.153 67.0526 117.198 66.9469 117.249 66.8461C117.287 66.7764 117.383 66.702 117.371 66.6468C117.287 66.2698 117.179 65.8952 117.08 65.5206C117.05 65.4125 116.96 65.266 117 65.2036C117.294 64.7258 117.08 64.2695 116.979 63.8061C116.967 63.7533 116.953 63.6764 116.918 63.6548C116.563 63.4531 116.389 63.2202 116.504 62.8264C116.692 62.1733 116.253 61.669 116.267 61.1047C116.119 61.1479 116.011 61.1816 115.823 61.2392C115.95 61.0159 116.028 60.8814 116.103 60.7517C115.779 60.4972 115.52 60.149 115.069 60.3747C115.031 60.2619 114.966 60.1514 114.963 60.0362C114.956 59.7264 115.05 59.3878 114.961 59.1093C114.876 58.838 114.62 58.4297 114.43 58.4249C113.857 58.4057 114.042 57.9423 113.951 57.779C113.676 57.5341 113.049 58.1032 113.215 57.2771C113.22 57.2555 113.18 57.2219 113.161 57.1955C112.72 56.6168 112.123 56.2638 111.47 56.0045C111.413 55.9805 111.284 56.0597 111.24 56.127C111.174 56.223 111.153 56.3527 111.073 56.5808C110.913 56.1438 110.873 55.7404 110.655 55.5219C110.429 55.2985 110.032 55.2577 109.706 55.1377C109.68 55.2913 109.654 55.4402 109.63 55.5915C109.532 55.4282 109.546 55.2697 109.527 55.116C109.515 55.0152 109.456 54.9215 109.421 54.8231C109.311 54.8735 109.182 54.9047 109.095 54.984C109.041 55.0344 109.045 55.1545 109.017 55.2769C108.853 55.1761 108.731 55.0992 108.564 54.9936C108.702 54.9528 108.794 54.9263 109.024 54.8567C108.756 54.7222 108.613 54.6238 108.453 54.5782C108.103 54.4749 107.746 54.3813 107.387 54.3164C106.95 54.2396 106.51 54.1556 106.13 54.5349C105.82 54.8471 105.221 54.6838 105.12 54.4173C104.727 54.4605 104.375 54.4965 103.921 54.547C104.041 54.326 104.102 54.2132 104.189 54.0547C103.921 54.1916 103.715 54.3861 103.51 54.3837C102.817 54.3693 102.12 54.1219 101.452 54.5518C101.344 54.6238 101.156 54.5902 101.008 54.5734C100.877 54.559 100.75 54.4917 100.621 54.4629C100.071 54.338 99.7773 54.8231 99.4907 54.9768C99.2346 54.8567 99.0678 54.7222 98.8939 54.7126C98.7647 54.703 98.6261 54.8567 98.4593 54.9552C98.4358 54.9335 98.3395 54.7727 98.262 54.7823C97.8344 54.8327 97.4068 54.9047 96.9886 55.0056C96.7067 55.0728 96.4412 55.2721 96.1617 55.2889C95.6965 55.3153 95.1961 55.0104 94.8742 55.4522C94.3456 55.2145 94.005 55.373 93.7301 55.8028C93.6361 55.6875 93.5469 55.5819 93.3331 55.3225C93.131 55.6347 92.9454 55.9205 92.7481 56.223C92.6565 56.0861 92.6212 56.0573 92.6236 56.0309C92.633 55.9036 92.6541 55.7788 92.68 55.5915C92.0503 55.906 91.261 55.7836 90.824 56.5592C90.5656 56.5256 90.185 56.4031 90.1685 56.9506C89.5601 56.6985 89.3087 56.8137 89.0315 57.4644C88.8365 57.4644 88.5546 57.3756 88.4441 57.4813C88.033 57.8655 87.5608 58.0768 87.0533 58.2953C86.4613 58.5522 85.9327 58.9724 85.3994 59.3542C85.1128 59.5583 84.8708 60.0338 84.6124 60.029C84.1872 60.0242 84.0344 60.3003 83.7901 60.4924C83.5059 60.7157 83.2498 60.9774 82.9702 61.2056C82.1291 61.8851 81.2481 62.5214 80.4423 63.2442C79.6389 63.9694 78.9012 64.7714 78.147 65.5518C77.0029 66.738 75.7954 67.8714 74.7476 69.1416C73.1453 71.077 71.4844 72.9788 70.2392 75.1927C69.8539 75.8795 69.5274 76.5999 69.1773 77.3058C68.9588 77.7524 68.7474 78.2039 68.5312 78.6505C68.2869 79.1524 68.0074 79.6398 67.8006 80.1561C67.5774 80.7108 67.4529 81.3063 67.2227 81.8586C66.7129 83.0808 66.586 83.7987 66.7787 84.728C66.7927 84.7952 66.734 84.8841 66.6964 84.9537C66.5837 85.1506 66.3957 85.3331 66.3605 85.5444C66.2689 86.1183 66.2336 86.7042 66.1843 87.2853C66.1349 87.8712 65.9282 88.4067 66.0151 89.0454C66.142 89.9507 65.9775 90.892 65.9916 91.8165C66.001 92.46 66.1443 93.1011 66.1514 93.7422C66.1584 94.3449 66.1373 94.926 66.6964 95.3247C66.3887 95.6416 66.3699 95.9874 66.5296 96.3596C66.5813 96.4796 66.6941 96.6261 66.6635 96.7174C66.4826 97.2336 66.6213 97.6202 67.077 97.93C66.9783 97.9828 66.8891 98.0308 66.8162 98.0693C66.882 98.2373 66.9666 98.3694 66.9783 98.5087C67.0112 98.8473 66.9854 99.193 67.0277 99.5292C67.0512 99.7141 67.178 99.8798 67.2344 100.062C67.3073 100.305 67.2838 100.622 67.4318 100.79C68.0355 101.477 68.6464 102.173 69.3394 102.761C69.9432 103.273 70.6362 103.695 71.3387 104.053C71.7898 104.284 72.3278 104.384 72.8352 104.43C73.345 104.478 73.977 104.723 74.1814 104.08ZM71.9002 99.6036C71.8508 99.0177 71.5971 98.5615 70.8312 98.8425C70.8571 98.439 70.8806 98.1197 70.9064 97.7427C70.7631 97.7931 70.6433 97.8339 70.5211 97.8772C70.4882 97.5722 70.46 97.2817 70.4178 96.8806C70.446 96.823 70.9229 96.7006 70.4248 96.4364C70.3661 96.4052 70.5094 95.985 70.5681 95.7064C70.4319 95.668 70.2792 95.6224 70.0771 95.5624C70.1805 95.2286 70.2792 94.914 70.3872 94.5659C70.2815 94.5418 70.1875 94.5178 70.1241 94.5034C70.0325 94.2033 70.5822 93.8575 70.0748 93.6774C70.0748 93.2716 70.0748 92.885 70.0748 92.4576C69.7224 92.4792 69.5884 92.4744 69.6707 91.9509C69.8351 90.9184 69.774 89.845 69.7787 88.7885C69.7787 88.6468 69.6143 88.5076 69.5133 88.3491C69.8657 87.427 69.8633 87.403 69.4028 87.4078C69.4663 87.2205 69.5368 87.0548 69.579 86.8819C69.6448 86.5986 70.0254 86.32 69.6002 86.0175C69.5697 85.9959 69.5908 85.8878 69.6049 85.823C69.7623 85.105 69.9314 84.3894 70.0842 83.6715C70.1781 83.2248 70.258 82.7758 70.3308 82.3268C70.3872 81.9786 70.3731 81.6112 70.4718 81.2775C70.7208 80.4466 70.9511 79.599 71.3105 78.8162C71.8508 77.6396 72.4241 76.463 73.1171 75.3752C73.7632 74.3619 74.5831 73.4638 75.3302 72.5178C75.8705 71.8334 76.3381 71.0626 76.9794 70.4983C77.4681 70.0709 77.649 69.3313 78.3726 69.1344C78.5887 69.0768 78.7203 68.7214 78.9153 68.5269C79.2935 68.1499 79.6882 67.7897 80.0805 67.4272C80.494 67.0454 80.9051 66.6564 81.3327 66.2914C81.8449 65.8543 82.3758 65.4389 82.895 65.0115C83.083 64.8554 83.278 64.7018 83.4401 64.5217C83.9475 63.9646 84.6547 63.7413 85.2514 63.3403C85.4722 63.189 85.6296 62.9441 85.726 62.8384C86.0619 62.7351 86.3415 62.7231 86.5271 62.5815C87.3493 61.9523 88.2374 61.4409 89.1466 60.963C89.2406 60.9126 89.2828 60.7637 89.304 60.7301C90.0793 60.5596 90.7582 60.3603 91.0542 59.4887C91.0777 59.6256 91.1012 59.7624 91.1482 60.0266C91.5593 59.9065 91.9681 59.676 92.3652 59.6976C92.8515 59.724 93.1146 59.4983 93.3354 59.1477C93.514 59.3062 93.6479 59.4239 93.7583 59.5247C93.9556 59.2774 94.1271 59.0613 94.2986 58.8452C94.3315 58.8692 94.3668 58.8956 94.3997 58.9196C94.3527 59.018 94.308 59.1165 94.2235 59.2942C94.792 59.2366 95.3206 59.2197 95.8375 59.1213C96.6574 58.9652 97.4843 58.7971 98.2808 58.5474C98.6496 58.4297 99.1336 58.5498 99.392 58.1032C99.4155 58.0624 99.6034 58.0912 99.6997 58.1296C100.109 58.2929 100.412 58.1968 100.729 57.8655C100.797 57.7934 101.018 57.8775 101.262 57.8967C101.281 57.8703 101.363 57.7574 101.391 57.719C101.873 57.767 102.305 57.8102 102.813 57.8606C102.815 57.8558 102.86 57.7574 102.904 57.6589C103.01 57.7742 103.109 57.8847 103.207 57.9951C103.254 57.9687 103.299 57.9423 103.344 57.9159C103.278 57.7574 103.21 57.5965 103.134 57.4188C103.193 57.4428 103.287 57.45 103.32 57.4981C103.63 57.9495 104.081 58.0864 104.549 57.8871C104.697 57.8222 104.88 57.839 105.047 57.8102C105.265 57.7742 105.484 57.7334 105.702 57.6926C105.698 57.6517 105.691 57.6109 105.686 57.5701C105.935 57.755 106.165 57.9807 106.44 58.1176C107.297 58.5498 108.181 58.9292 109.038 59.3662C109.355 59.5271 109.626 59.784 109.917 60.0001C109.94 60.017 109.95 60.0674 109.976 60.0794C110.579 60.3531 110.85 60.9895 111.336 61.4001C111.684 61.693 111.872 62.1805 112.139 62.5743C112.271 62.764 112.454 62.9224 112.56 63.1265C112.67 63.3355 112.71 63.5804 112.783 63.8085C112.978 64.4184 113.328 65.0307 113.326 65.6406C113.323 66.265 113.608 66.8052 113.582 67.4608C113.556 68.1115 113.711 68.8607 113.753 69.5594C113.784 70.0757 113.603 70.6064 113.497 71.1274C113.448 71.37 113.366 71.6053 113.279 71.8382C112.948 72.7267 112.628 73.6199 112.269 74.4964C112.034 75.0703 111.752 75.625 111.475 76.1796C111.068 76.9865 110.666 77.7957 110.225 78.5809C109.832 79.2748 109.365 79.9256 108.968 80.6171C108.456 81.508 107.953 82.4012 107.326 83.22C106.384 84.4543 105.43 85.6693 104.239 86.6706C103.691 87.1317 103.226 87.6983 102.669 88.1498C102.061 88.6468 101.389 89.0646 100.745 89.5185C100.651 89.5857 100.543 89.6457 100.468 89.7322C99.93 90.3421 99.1923 90.6927 98.6144 91.2354C98.3559 91.4779 98.0787 91.5619 97.8109 91.718C97.4185 91.9485 97.1484 92.3927 96.8077 92.7265C96.6997 92.8322 96.5399 92.8874 96.3989 92.9522C96.2039 93.0411 95.9855 93.0891 95.8116 93.2044C95.2102 93.6054 94.6323 94.0424 94.0308 94.441C93.0981 95.0581 92.1467 95.6512 91.214 96.2707C90.9462 96.4484 90.7136 96.6813 90.4481 96.9047C90.4505 96.9071 90.4011 96.8278 90.3212 96.6958C89.9923 96.9743 89.6893 97.2312 89.3345 97.5338C88.921 97.2408 88.7801 97.8243 88.4653 97.9972C88.1387 98.1749 87.8169 98.3598 87.4222 98.5807C87.4081 98.5615 87.3306 98.4751 87.3094 98.4871C86.5835 98.9145 85.8693 99.3563 85.1034 99.8246C85.0846 99.8053 85.0024 99.7117 84.8403 99.534C84.1143 99.8654 83.3625 100.23 82.5943 100.552C82.3241 100.667 81.9929 100.821 81.765 100.442C81.7462 100.41 81.8026 100.329 81.819 100.281C81.6546 100.31 81.4713 100.346 81.2904 100.379C81.2763 100.497 81.2575 100.672 81.2341 100.864C81.0978 100.857 80.9545 100.893 80.9075 100.84C80.299 100.161 80.0265 100.92 79.6295 101.143C79.6013 101.16 79.5707 101.176 79.4815 101.229C79.3969 101.047 79.3123 100.869 79.2042 100.639C79.1244 100.756 79.0539 100.862 78.981 100.968C78.8471 100.891 78.7085 100.811 78.5229 100.706C78.4642 100.92 78.4196 101.085 78.3397 101.378C78.1048 100.699 77.7993 100.444 77.3154 101.236C77.3154 100.948 77.3154 100.828 77.3154 100.696C76.8056 100.879 76.331 101.049 75.8118 101.236C75.7883 100.982 75.7695 100.768 75.7507 100.555C75.3913 100.598 74.9919 100.934 74.6395 100.478C74.2049 100.797 73.9535 100.079 73.4672 100.278C73.2487 100.365 72.8587 99.9878 72.5415 99.8366C72.3536 99.7477 72.1516 99.6949 71.9002 99.6036ZM73.4954 86.3416C73.2135 86.0535 72.9527 85.7197 72.6167 85.518C72.1022 85.2107 72.4429 85.0858 72.6943 84.764C72.5204 84.752 72.3466 84.7376 72.0787 84.7184C72.0787 84.5719 72.0012 84.2958 72.0952 84.1157C72.3794 83.5682 72.7037 83.0351 73.0608 82.5357C73.338 82.1515 73.6904 81.8225 73.9793 81.5032C74.9684 82.0458 75.9199 82.5693 76.8761 83.0904C77.0804 83.2008 77.2543 83.2441 77.3201 83.585C77.3718 83.8612 77.7946 84.0965 78.093 84.2814C78.7884 84.7136 79.5073 85.1026 80.2144 85.5132C80.4235 85.6357 80.6115 85.847 80.83 85.8854C81.1753 85.9502 81.5395 85.9022 81.9623 85.9022C81.9882 85.9815 82.0493 86.1712 82.1033 86.3416C82.5285 86.3873 82.9632 86.4353 83.3954 86.4857C83.4612 86.4929 83.5787 86.5145 83.581 86.5409C83.675 87.2853 84.0086 86.7955 84.3046 86.721C84.5466 86.6586 84.8379 86.6754 85.0799 86.7547C86.0643 87.0716 87.0298 86.6874 88.0025 86.7066C88.2045 86.7114 88.4042 86.7931 88.6462 86.8483C88.8271 86.7547 89.0949 86.601 89.3745 86.4665C89.6117 86.3537 89.8749 86.2864 90.1028 86.1568C90.8968 85.7077 90.9532 84.9273 91.1012 84.1061C91.2492 83.2873 91.0002 82.5765 90.7888 81.8874C90.5703 81.1646 90.0863 80.5115 89.6446 79.8823C89.1677 79.2076 88.6133 78.5881 88.0753 77.9613C87.9296 77.7909 87.7111 77.6876 87.5373 77.5387C87.0933 77.1593 86.6445 76.7847 86.2193 76.3861C85.3195 75.5409 84.4338 74.6813 83.5411 73.8288C83.4824 73.7712 83.4119 73.7136 83.3766 73.6415C83.184 73.2573 82.9913 72.8707 82.8198 72.4745C82.787 72.3977 82.8457 72.2776 82.8833 72.0375C82.5285 71.5909 83.09 71.2355 83.3578 70.9161C84.4902 69.5691 85.5991 68.1739 86.8983 67.0069C87.6125 66.3658 88.3384 65.5398 89.4637 65.4678C89.849 65.4437 90.2085 65.1316 90.5985 65.0235C91.0777 64.8939 91.5781 64.8458 92.0668 64.7594C92.4568 64.6898 92.8468 64.6177 93.3096 64.5337C93.319 64.6777 93.3096 64.7762 93.3331 64.8674C93.3495 64.9275 93.413 64.9731 93.4552 65.0259C93.4764 64.9707 93.4905 64.9131 93.5163 64.8602C93.5516 64.7858 93.6056 64.6513 93.6291 64.6561C93.8711 64.7042 94.1483 64.8867 94.3386 64.8146C94.6088 64.7138 94.7779 64.5961 94.9987 64.8867C95.0645 64.9755 95.2971 65.0067 95.4169 64.9611C95.7411 64.8362 96.0066 64.829 96.2509 65.1244C96.3097 65.194 96.507 65.254 96.5376 65.2204C96.9651 64.7474 97.3998 65.1772 97.7428 65.2949C98.3841 65.5158 98.3888 65.5638 98.8728 65.0403C100.005 63.8181 101.163 62.6175 102.312 61.4121C102.498 61.2176 102.665 60.9798 102.888 60.8574C103.095 60.7445 103.327 60.3843 103.64 60.807C103.703 60.8958 104.095 60.7349 104.387 60.6773C103.947 61.6258 103.503 62.6079 103.036 63.578C102.949 63.7581 102.801 63.9574 102.632 64.039C102.091 64.2983 102.011 64.8506 101.788 65.3093C101.6 65.6935 101.459 66.1041 101.283 66.5435C101.38 66.5291 101.523 66.5099 101.666 66.4883C101.65 66.5243 101.633 66.5627 101.617 66.5987C101.906 66.7212 102.192 66.8413 102.549 66.9901C102.517 67.1054 102.47 67.2735 102.401 67.5112C102.535 67.5328 102.69 67.6096 102.787 67.564C103.379 67.2759 103.485 67.3263 103.555 68.0299C103.642 67.9098 103.71 67.8162 103.835 67.6457C103.856 67.8522 103.867 67.9746 103.884 68.1355C104.455 67.8186 104.34 68.4789 104.589 68.6374C104.861 68.8103 105.164 68.9351 105.444 69.0768C105.174 69.4106 105.235 69.5763 105.94 70.1141C105.728 70.1958 105.557 70.263 105.39 70.3302C105.357 70.5896 105.324 70.8681 105.272 71.2715C105.503 71.5621 105.073 71.867 104.969 72.22C104.92 72.3809 104.824 72.5466 104.704 72.6618C104.631 72.7291 104.438 72.7555 104.356 72.7051C103.633 72.2608 102.928 71.7902 102.209 71.3436C101.643 70.993 101.081 70.6328 100.484 70.3447C100.214 70.2126 99.8642 70.2654 99.5564 70.203C98.6238 70.0133 97.6958 69.7804 96.7584 69.6147C96.016 69.4826 95.2619 69.4202 94.5148 69.3337C94.0708 69.2809 93.6291 69.2257 93.1851 69.1945C92.6189 69.156 92.048 69.0912 91.4865 69.1296C90.7488 69.1801 90.6619 69.2113 90.3823 69.0936C89.997 69.3145 89.7034 69.5258 89.3792 69.6555C88.9704 69.814 88.5099 69.8524 88.1176 70.0397C87.6101 70.2798 87.1473 70.616 86.755 70.8561C86.7597 71.6701 87.6007 71.5645 87.9038 72.0855C88.0306 72.3089 88.3643 72.3977 88.5592 72.5922C88.6744 72.7075 88.7026 72.9092 88.7683 73.07C88.9539 73.1397 89.1983 73.1997 89.4074 73.3222C89.5976 73.4302 89.7457 73.6151 89.9219 73.7544C90.2484 74.0137 90.4176 74.2875 90.1497 74.7101C90.0981 74.7893 90.2014 75.0054 90.286 75.1207C90.3165 75.1615 90.5303 75.1327 90.5985 75.0679C90.9485 74.7341 91.3338 74.7413 91.5429 75.2239C91.7402 75.6874 92.1702 75.8819 92.4262 76.2589C92.6001 76.5182 92.8045 76.7535 93.0746 77.1041C93.42 77.1545 93.6784 77.6996 93.474 78.3287C93.7372 78.5833 94.2728 78.5665 94.301 79.1019C94.3221 79.4909 94.8766 79.8559 94.3268 80.2449C94.6722 80.6435 94.8672 81.0397 94.5665 81.5248C94.55 81.5512 94.5101 81.592 94.5171 81.6016C94.9729 82.3724 94.395 82.9799 94.1483 83.5922C93.6972 84.7208 93.1475 85.811 92.5719 86.8819C92.3064 87.3766 91.8788 87.7824 91.5382 88.2386C91.3385 88.5052 91.2069 88.8389 90.9697 89.0574C90.3988 89.5833 89.8091 90.0972 89.1771 90.5414C88.9422 90.7047 88.571 90.6639 88.2374 90.7215C88.2656 91.2185 87.7534 91.0096 87.5021 91.0601C86.8701 91.1801 86.2193 91.1873 85.5639 91.2426C85.5779 91.1633 85.5897 91.0889 85.6014 91.0072C85.437 91.1033 85.2796 91.2762 85.1222 91.2738C84.5443 91.2666 83.9663 91.2161 83.3907 91.1561C82.7282 91.0889 82.0681 91.0096 81.4102 90.9064C81.1048 90.8584 80.8088 90.7455 80.3859 90.6278C79.0022 92.2583 77.5668 93.9487 76.1243 95.6464C75.6568 95.5239 75.6615 94.6835 74.9261 94.914C75.0177 94.77 75.0671 94.6883 75.1188 94.6067C75.0929 94.5779 75.0765 94.5395 75.0506 94.5346C74.9191 94.5058 74.7875 94.4842 74.6559 94.4602C74.7288 94.369 74.8039 94.2801 74.8744 94.1865C75.9904 92.7001 77.1039 91.2113 78.2387 89.6938C77.6537 89.3168 77.0663 88.8365 76.3991 88.5316C75.4594 88.1017 74.3905 87.4606 73.7632 86.733C73.6598 86.613 73.6034 86.4521 73.4954 86.3416Z" fill="white"/>
</g>
</svg>
