<svg width="117" height="112" viewBox="0 0 117 112" fill="none" xmlns="http://www.w3.org/2000/svg">
<path d="M0.416582 22.9036C-0.0299202 23.3765 0.435786 23.8999 0.313358 24.4112C0.226939 24.7713 0.152521 25.2058 0.385374 25.6307C0.570217 25.9715 0.250944 26.3868 0.404579 26.8237C0.620628 27.4359 0.471794 28.168 1.01192 28.6842C1.06953 28.7394 1.12234 28.8066 1.09114 28.8978C0.990312 29.1835 1.14155 29.4451 1.30478 29.5988C1.75129 30.0189 1.70087 30.8422 2.45465 31.0007C2.47865 31.0055 2.50746 31.0871 2.50266 31.1279C2.44264 31.5576 2.75472 31.8049 2.97077 32.0929C3.84937 33.262 4.92721 34.2246 6.06987 35.132C7.21974 36.0466 8.3648 36.9492 9.6947 37.5998C10.4485 37.9671 11.0894 38.5312 11.8792 38.8457C12.1481 38.9513 12.4913 38.8505 12.6594 39.0137C13.3483 39.6811 14.3254 39.6307 15.1127 40.0604C15.7201 40.3916 16.4546 40.5189 17.1484 40.6557C18.2671 40.8741 19.3857 41.0638 20.5524 41.0326C21.3446 41.0134 22.1535 41.2102 22.9673 41.1622C23.1738 41.1502 23.3826 41.1214 23.5867 41.1406C24.787 41.2582 25.9464 41.023 27.1011 40.7469C27.622 40.6245 28.0589 40.2716 28.5342 40.1132C29.2712 39.8683 29.8521 39.3618 30.5747 39.1121C30.7283 39.0593 30.9924 38.9345 31.0356 38.8265C31.158 38.5192 31.4125 38.4232 31.6549 38.32C32.9056 37.799 33.7938 36.7956 34.7036 35.8762C35.371 35.204 35.9759 34.4359 36.5328 33.6293C37.3082 32.5082 37.9059 31.3152 38.5421 30.1269C38.9766 29.3131 39.3391 28.4681 39.7328 27.6351C40.3521 26.334 40.8706 24.9921 41.4011 23.6526C41.8068 22.63 42.0493 21.5617 42.3086 20.4935C42.5318 19.5789 42.551 18.6475 42.683 17.7257C42.6926 17.6632 42.7022 17.56 42.6686 17.5384C42.371 17.344 42.5606 17.1279 42.6254 16.9143C42.659 16.8086 42.7239 16.6862 42.6998 16.5902C42.5222 15.8436 42.5918 15.073 42.4502 14.3289C42.4046 14.0864 42.5582 13.6783 42.0373 13.7431C41.9437 13.7527 41.9869 13.6255 42.0133 13.5487C42.1573 13.1598 41.8405 12.8285 41.6604 12.6845C41.4156 12.4925 41.5428 12.0003 41.0987 12.0364C41.1131 12.0171 41.1227 11.9955 41.1395 11.9763C41.4252 11.6739 41.0771 11.4626 40.9498 11.4218C40.3785 11.2442 40.5586 10.6536 40.2897 10.308C40.1265 10.0967 40.0784 9.93827 39.8 10.0679C39.4159 10.2431 39.2791 9.94547 39.2695 9.69102C39.2599 9.43656 39.0678 9.27332 39.0462 9.11728C38.9934 8.738 38.8542 8.50754 38.5229 8.35151C38.5013 8.33951 38.5373 8.20027 38.5517 8.12106C38.5661 8.03464 38.5541 7.92421 38.4797 7.90981C38.0692 7.82579 37.9059 7.40089 37.5459 7.25446C37.325 7.16324 37.061 7.10802 37.2938 6.76235C37.3826 6.63032 37.2146 6.48868 37.1138 6.46228C36.7057 6.36385 36.5448 5.96536 36.216 5.75892C35.5366 5.33402 35.0157 4.69067 34.2763 4.32579C34.1251 4.25137 33.8946 4.3954 33.801 4.12414C33.6738 3.76166 33.2873 3.67044 32.9848 3.52881C32.5743 3.33676 32.1254 3.24314 31.7845 2.89266C31.6237 2.72702 31.3933 2.631 31.0812 2.70302C30.8195 2.76543 30.3442 3.03189 30.2698 2.39335C30.253 2.26372 30.0778 2.37174 29.9721 2.37894C29.8065 2.38855 29.5424 2.48457 29.5136 2.26612C29.4728 1.95165 29.444 1.77881 29.0911 1.98525C29.0095 2.03326 28.9207 1.98045 28.9159 1.88203C28.9063 1.67078 28.7239 1.70679 28.6086 1.63957C28.0877 1.3251 27.4756 1.46434 26.9138 1.27949C26.4385 1.12346 25.9368 1.06584 25.6127 0.65775C25.4639 0.468107 25.2887 0.338477 25.0966 0.379287C24.6477 0.475309 24.23 0.52572 23.8531 0.194444C23.8267 0.168038 23.7475 0.170439 23.7115 0.189643C23.2026 0.484911 22.7849 0.120028 22.3336 0C21.4238 0 20.514 0 19.6042 0C19.5562 0.0408098 19.5081 0.115226 19.4553 0.120027C18.5239 0.182441 17.7966 0.799382 16.9228 1.03464C16.3922 1.17867 15.9409 1.63477 15.4488 1.79561C14.2701 2.1773 13.3555 2.96948 12.3089 3.54801C11.7136 3.87449 11.2383 4.381 10.6933 4.77229C9.54107 5.60048 8.54004 6.5799 7.57742 7.60734C7.0469 8.17147 6.49477 8.71399 5.96665 9.27572C5.43853 9.83745 4.8792 10.3776 4.4159 10.9897C3.72934 11.9019 3.134 12.8837 2.46185 13.8056C2.2554 14.0864 2.32742 14.4441 2.10417 14.6866C1.47522 15.3755 1.56404 16.3501 1.12954 17.1279C0.949503 17.452 0.930299 17.8937 0.800669 18.2778C0.534209 19.07 0.339764 19.8813 0.445388 20.7359C0.478996 21.012 0.553413 21.4057 0.40938 21.5569C0.0805049 21.9098 0.253344 22.2123 0.337363 22.5436C0.370971 22.666 0.510203 22.8052 0.416582 22.9036ZM4.8696 19.6413C4.72557 17.9273 5.08325 16.2685 5.57536 14.6529C5.85623 13.7359 6.52358 13.0014 7.19093 12.3268C7.58702 11.9259 7.89429 11.4482 8.3552 11.1049C8.89532 10.704 9.37543 10.2215 9.88435 9.77984C10.9382 8.86763 12.1097 8.11866 13.2427 7.32167C13.5764 7.08882 13.8861 6.81996 14.3374 6.69993C14.695 6.60631 14.9663 6.33745 15.3768 6.5631C15.5448 6.65672 15.6745 6.43107 15.7561 6.31824C16.2866 5.58368 17.0356 5.46605 17.8614 5.50206C19.1961 5.55967 20.5356 5.59328 21.8727 5.66529C22.252 5.6845 22.6265 5.85734 23.0009 5.85254C24.0716 5.84534 25.0654 6.19582 26.0856 6.42387C26.2033 6.45027 26.3065 6.43827 26.4169 6.40466C26.5586 6.35905 26.7242 6.32785 26.8466 6.40706C27.9293 7.11043 29.2016 7.37929 30.3514 7.93141C31.9262 8.68759 33.2801 9.76303 34.3819 11.0713C35.6494 12.5741 36.9529 14.0768 37.8363 15.87C37.9348 16.0693 38.1148 16.2253 38.2516 16.4053C38.4965 16.727 38.6405 16.9887 38.4653 17.4784C38.2996 17.9393 38.3861 18.5394 38.5373 19.0652C38.6069 19.3124 38.7029 19.5285 38.5037 19.7901C38.2852 20.071 38.3981 20.4599 38.4077 20.7719C38.4341 21.5593 38.182 22.2795 38.014 23.0213C37.9732 23.1989 37.9372 23.3765 37.9684 23.547C37.9996 23.7174 38.0068 23.9047 37.9132 24.0151C37.5771 24.416 37.5603 24.9177 37.4066 25.3786C37.181 26.0484 37.0009 26.7541 36.6553 27.3615C36.2664 28.0456 36.0191 28.785 35.6782 29.4859C35.3134 30.2397 34.8645 30.9359 34.4396 31.6512C34.1827 32.0833 33.7962 32.3138 33.4073 32.5778C32.5119 33.1852 31.7029 33.9558 30.6851 34.3326C29.6721 34.7047 28.8079 35.3769 27.6916 35.5761C26.9186 35.713 26.1313 35.6938 25.3775 35.8738C24.7365 36.0274 24.0836 35.929 23.4715 35.893C22.7801 35.8546 22.0743 35.8258 21.3782 35.7538C21.1549 35.7298 20.9245 35.701 20.7132 35.8258C20.6652 35.8546 20.5524 35.8666 20.5356 35.8426C20.2451 35.4129 19.849 35.6433 19.4913 35.677C19.3857 35.6866 19.3185 35.7274 19.2585 35.6001C19.1457 35.3601 18.9416 35.3841 18.7232 35.4273C18.4615 35.4801 18.1902 35.2497 17.931 35.4465C17.8134 35.1896 17.5349 35.1584 17.3284 35.024C17.158 34.9136 16.9828 34.8392 16.7883 34.9856C16.6851 35.0648 16.5747 35.0672 16.4811 34.9712C16.037 34.4959 15.4128 34.2846 14.8391 34.2438C14.2029 34.1982 13.8909 33.6413 13.3147 33.5645C12.681 33.4781 12.2585 32.8827 11.5695 32.8035C11.3703 32.7795 11.0294 32.417 10.7389 32.2298C10.6381 32.1626 10.5685 32.0401 10.4029 32.1457C10.266 32.2298 10.1412 32.1842 10.2156 31.9801C10.2996 31.7425 10.0668 31.5552 9.97797 31.5888C9.56027 31.7401 9.48825 31.3752 9.36103 31.1831C9.13057 30.8398 8.67927 30.7414 8.50883 30.3525C7.96391 30.5038 8.11274 30.0477 7.99751 29.7932C7.86068 29.4907 7.57502 29.2843 7.37337 29.0154C6.90526 28.3841 6.40115 27.784 6.09148 27.0518C6.04107 26.9342 5.97865 26.8669 5.83462 26.8885C5.47934 26.9438 5.47214 26.7205 5.52255 26.4636C5.54895 25.9763 5.23208 25.5802 5.13846 25.1193C4.98483 24.38 4.90321 23.6502 4.84319 22.8964C4.75437 21.7994 4.96082 20.7239 4.8696 19.6413ZM116.562 106.637C116.243 106.412 116.166 106.195 116.567 105.91C116.193 106.015 115.801 105.667 115.585 105.891C115.007 106.493 114.349 106.097 113.794 106.02C113.298 105.953 112.779 106.003 112.297 105.852C112.093 105.79 112.02 106.059 111.812 105.948C111.454 105.763 111.468 105.999 111.54 106.291C111.173 105.708 110.669 106.171 110.232 106.027C110.547 106.505 110.511 106.58 109.939 106.683C109.716 106.724 109.459 106.637 109.313 106.947C109.231 106.712 109.305 106.592 109.425 106.5C109.661 106.32 109.483 106.219 109.37 106.078C109.229 105.898 109.118 105.96 109.027 106.097C108.871 106.332 108.787 106.323 108.693 106.051C108.643 105.905 108.472 105.917 108.352 105.953C108.06 106.042 107.687 105.891 107.486 106.258C107.447 106.325 107.327 106.325 107.315 106.205C107.284 105.943 107.203 105.967 107.015 106.104C106.763 106.284 106.487 106.616 106.19 106.126C106.134 106.032 105.981 106.066 105.873 106.111C105.592 106.224 105.587 106.068 105.585 105.852C105.582 105.353 105.633 104.858 105.604 104.359C105.575 103.857 105.618 103.348 105.661 102.847C105.69 102.506 105.762 102.16 105.695 101.826C105.498 100.866 105.875 99.9012 105.645 98.9434C105.998 98.4657 105.599 97.9184 105.781 97.4239C105.81 97.347 105.796 97.2342 105.693 97.2366C105.179 97.2486 105.441 96.9318 105.515 96.7685C105.798 96.1396 105.736 95.4602 105.849 94.8097C105.909 94.4736 105.453 94.4448 105.479 94.2095C105.513 93.9287 105.853 93.7726 105.832 93.4029C105.796 92.8148 105.741 92.1907 105.801 91.6337C105.945 90.3062 105.887 89.0075 105.736 87.6968C105.729 87.6344 105.709 87.5312 105.738 87.512C106.014 87.3248 105.918 87.0607 105.909 86.8086C105.87 85.7764 105.897 84.7394 105.894 83.7095C105.889 82.7685 105.94 81.8131 105.928 80.8697C105.916 80.0943 105.87 79.3045 105.906 78.5412C105.954 77.5041 106.01 76.4623 105.947 75.4348C105.911 74.8347 106.269 74.1674 105.772 73.6056C105.745 73.5744 105.762 73.4544 105.796 73.4328C106.091 73.2407 106.038 72.9335 105.995 72.6814C105.868 71.9132 106.005 71.1523 106.007 70.3865C106.012 69.6591 105.937 68.9294 105.947 68.2116C105.957 67.513 105.911 66.8073 105.969 66.0967C106.103 64.3923 106.036 62.6711 106.005 60.9571C105.983 59.8457 105.877 58.739 105.986 57.6252C106.01 57.3827 106.089 56.9794 105.952 56.8858C105.645 56.6722 105.805 56.5065 105.899 56.3313C105.995 56.1488 106.005 56 105.863 55.844C105.798 55.7743 105.707 55.6951 105.755 55.5919C106.002 55.071 105.839 54.5117 105.904 53.9715C106.01 53.0809 105.995 52.1687 105.933 51.2733C105.894 50.6828 106.163 49.9962 105.553 49.5161C105.52 49.4897 105.534 49.3385 105.575 49.2905C106.127 48.6615 105.865 47.903 105.909 47.1972C105.923 46.9523 106.012 46.6235 105.577 46.5706C105.46 46.5562 105.505 46.4242 105.558 46.3306C106.151 45.2864 105.769 44.1581 105.829 43.0682C105.381 42.7226 106.058 42.1992 105.635 41.8512C105.868 41.4695 105.774 41.1214 105.556 40.7685C105.493 40.6701 105.594 40.5573 105.616 40.4516C105.729 39.9187 105.673 39.3882 105.491 38.8817C105.431 38.7136 105.419 38.596 105.474 38.428C105.702 37.7366 105.863 37.0333 105.491 36.3371C105.414 36.1931 105.402 36.1043 105.558 36.0226C105.661 35.9722 105.666 35.8738 105.642 35.7706C105.46 35.0144 105.577 34.2366 105.472 33.4709C105.402 32.9715 105.438 32.9667 104.91 32.9787C105.047 32.6187 105.412 32.2178 104.802 31.9681C104.79 31.9633 104.788 31.9033 104.797 31.8745C104.891 31.5984 104.766 31.3224 104.728 31.0655C104.692 30.8134 104.636 30.3837 104.147 30.4798C103.95 30.5182 103.832 30.4894 103.844 30.2037C103.861 29.8244 103.7 29.5075 103.304 29.3203C103.064 29.2051 102.762 29.1595 102.591 28.9842C102.301 28.6842 101.996 28.5545 101.612 28.6794C101.326 28.773 101.228 28.6578 101.177 28.4129C101.165 28.3505 101.151 28.2377 101.127 28.2353C100.565 28.1656 100.116 27.5463 99.4656 27.9016C99.324 27.9784 99.1223 27.9064 99.0695 27.7984C98.9135 27.4791 98.7142 27.5367 98.4766 27.6639C98.2437 27.7888 98.0229 27.8416 97.8476 27.5655C97.7804 27.4551 97.6556 27.4575 97.5428 27.4527C97.1875 27.4335 96.8274 27.4455 96.4769 27.3951C96.1241 27.3447 95.7712 27.6375 95.5335 27.5535C95.0654 27.3903 94.7173 27.3999 94.4029 27.7864C94.1508 27.3783 93.9636 27.3447 93.6611 27.6471C93.493 27.8152 93.3514 27.7551 93.1834 27.6711C92.54 27.3495 91.9063 27.6375 91.2725 27.7215C91.1381 27.7383 91.0205 27.8992 90.826 28.048C90.9677 27.5511 90.7036 27.5319 90.3795 27.4743C89.5393 27.3278 88.896 28.0696 88.0486 27.9424C87.8278 27.9088 87.7293 27.9976 87.7869 27.7191C87.8494 27.4215 87.6501 27.4767 87.4629 27.4743C87.038 27.4671 86.6179 27.4383 86.3754 27.8944C86.3706 27.904 86.2962 27.8776 86.2866 27.8752C86.1642 27.7143 86.5339 27.6255 86.3082 27.4959C86.1738 27.4167 86.0369 27.5247 85.9049 27.5967C85.7177 27.7023 85.6985 28.0168 85.4248 28.0024C85.3168 27.8632 85.552 27.6423 85.348 27.6039C84.9543 27.5343 84.4286 27.3639 84.1837 27.6447C83.8669 28.0072 83.742 27.7479 83.5428 27.6327C83.1611 27.4119 82.9138 27.5127 82.825 27.9184C82.4649 27.5655 81.9536 27.7167 81.5287 27.5679C81.5047 27.5583 81.4423 27.5823 81.4423 27.5919C81.4231 28.204 81.0486 27.7431 80.8878 27.7383C80.5493 27.7263 80.2564 27.796 79.9804 27.9688C79.7883 28.0888 79.7859 28.0984 79.7091 27.8536C79.6731 27.7407 79.5819 27.7383 79.5195 27.7647C78.9985 27.9952 78.2784 27.7623 77.9495 28.4441C77.8967 28.5521 77.8127 28.5617 77.7142 28.4729C77.587 28.3577 77.4742 28.4633 77.359 28.5137C76.8164 28.749 76.3771 29.1499 75.9426 29.5195C75.3281 30.0405 74.764 30.6406 74.2719 31.2767C73.7846 31.9057 72.9444 32.2994 72.8843 33.2356C72.8819 33.2716 72.7883 33.3052 72.7307 33.3292C72.5699 33.4012 72.5339 33.5261 72.4715 33.6917C72.361 33.9966 72.4594 34.2918 72.4018 34.5919C72.217 35.5425 72.3418 36.5147 72.373 37.4654C72.397 38.1591 72.3658 38.8625 72.3754 39.5538C72.3826 40.0796 72.3658 40.6029 72.4402 41.1262C72.469 41.3182 72.4907 41.5079 72.5219 41.6975C72.6251 42.3049 72.337 42.9602 72.7547 43.5316C72.8243 43.6276 72.8219 43.7548 72.7331 43.8484C72.5963 43.9925 72.6563 44.1581 72.6755 44.3117C72.7859 45.2455 72.8315 46.1818 72.8675 47.1204C72.8843 47.5597 72.894 47.9726 72.7931 48.3999C72.5987 49.2353 73.038 50.0634 72.8435 50.9084C72.7787 51.1845 72.7259 51.4654 72.7403 51.763C72.7787 52.5576 72.6707 53.3762 72.8219 54.1468C72.9228 54.6605 72.7907 55.1358 72.8219 55.6279C72.8435 55.9496 72.7571 56.2689 72.9516 56.5713C73.026 56.6866 72.9708 56.7946 72.8771 56.8738C72.7859 56.953 72.7211 57.037 72.7427 57.1667C72.8267 57.6804 72.8843 58.1965 72.8267 58.7198C72.7883 59.0655 72.8915 59.4664 72.8027 59.7425C72.6803 60.1193 72.8579 60.4506 72.7619 60.8251C72.6683 61.19 72.8099 61.6581 72.7643 62.0998C72.6539 63.1752 72.6899 64.2627 72.6995 65.3381C72.7043 66.0943 72.5915 66.8433 72.6539 67.5994C72.7115 68.3052 72.9083 68.999 72.7475 69.7359C72.6635 70.1128 73.0308 70.5401 72.7907 70.9746C72.7667 71.0202 72.8651 71.1427 72.918 71.2195C72.9708 71.3011 73.0476 71.3731 72.9948 71.4811C72.7595 71.9684 72.9588 72.5086 72.8123 73.0127C72.7667 73.1735 72.7931 73.3656 72.8747 73.536C73.1172 74.0449 73.0596 74.6163 72.9276 75.0964C72.8099 75.5261 72.8315 75.951 72.9156 76.3014C73.1004 77.1008 72.9444 77.8954 72.9828 78.6828C73.0068 79.2181 73.05 79.7846 73.014 80.3392C72.9972 80.6056 73.05 81.0881 73.11 81.1385C73.5373 81.4746 73.1916 81.6955 73.0692 81.9571C73.0452 82.0075 73.0428 82.0868 73.0644 82.142C73.242 82.6173 73.0572 83.119 73.17 83.5943C73.2492 83.9232 73.194 84.2328 73.1052 84.5401C73.038 84.7778 73.3909 84.9074 73.2516 85.1163C73.0596 85.3971 73.1916 85.6348 73.2684 85.8964C73.314 86.0621 73.4101 86.2493 73.326 86.4174C73.1268 86.8086 73.2084 87.2527 73.302 87.5888C73.5373 88.4314 73.3236 89.2692 73.3933 90.1046C73.4221 90.4623 73.5925 90.8728 73.4989 91.1512C73.2252 91.9698 73.5349 92.7692 73.4893 93.5758C73.4533 94.1639 73.3717 94.7833 73.4149 95.3954C73.4749 96.2332 73.6237 97.071 73.5541 97.916C73.5493 97.9544 73.5949 98.0336 73.6141 98.0312C73.9286 98.024 73.7485 98.18 73.6981 98.2809C73.4053 98.857 73.2636 99.4571 73.3525 100.108C73.3693 100.228 73.3621 100.341 73.5013 100.372C73.7677 100.432 73.6213 100.6 73.6213 100.749C73.6237 101.017 73.2588 101.135 73.3428 101.392C73.5157 101.935 73.2756 102.451 73.2564 102.979C73.242 103.37 73.2612 103.79 73.1508 104.203C73.0236 104.676 73.0764 105.199 73.0788 105.694C73.0812 106.116 72.9324 106.431 72.5147 106.301C71.9937 106.138 71.492 106.332 70.9759 106.26C70.3782 106.176 69.7972 106.505 69.1611 106.373C68.8874 106.315 68.561 106.313 68.2585 106.306C68.0328 106.299 67.8936 106.193 67.9104 105.895C67.9584 105.084 68.004 104.263 67.9488 103.454C67.9296 103.178 68.1913 102.64 67.5431 102.607C67.6247 102.448 67.7304 102.34 67.788 102.182C67.9392 101.774 67.8936 101.373 67.8624 100.962C67.8168 100.391 68.2345 99.7716 67.6872 99.2459C67.6271 99.1883 67.7016 99.1955 67.7448 99.1835C68.0568 99.0802 67.9056 98.857 67.8096 98.7346C67.6656 98.5473 67.6223 98.4321 67.8168 98.2497C67.9536 98.12 67.956 97.8464 67.884 97.7455C67.5479 97.2798 67.8912 96.8429 67.8888 96.3964C67.8888 96.382 67.8912 96.3652 67.8912 96.3484C67.8528 95.4338 67.8144 94.5216 67.7784 93.607C67.7736 93.523 67.7832 93.4342 67.6848 93.4053C67.3103 93.2997 67.4855 93.1389 67.6295 92.9636C67.8984 92.6348 67.9368 92.2027 67.7928 91.8738C67.6391 91.5305 67.4231 91.2208 67.4063 90.832C67.4015 90.6879 67.3727 90.4623 67.4447 90.4143C67.8936 90.1214 67.7808 89.6773 67.8072 89.2692C67.8648 88.3354 67.5935 87.3896 67.8024 86.4798C68.0064 85.5868 67.3007 84.713 67.8312 83.844C67.8936 83.7431 67.7928 83.6279 67.7328 83.5319C67.5479 83.2222 67.5527 82.7949 67.6415 82.5597C67.8384 82.0508 67.9176 81.6115 67.6488 81.1265C67.5839 81.0065 67.6632 80.8745 67.6632 80.7569C67.6656 80.2167 67.9944 79.655 67.5863 79.1341C67.5287 79.0597 67.5047 78.9997 67.6463 78.9828C67.8528 78.9564 67.7688 78.7812 67.7712 78.6708C67.7808 77.6674 67.7904 76.6639 67.7376 75.6581C67.716 75.2596 67.944 74.8467 67.6223 74.477C68.0784 73.9825 67.5815 73.4424 67.7064 72.9071C67.884 72.1341 67.5791 71.2963 67.7472 70.5401C67.896 69.868 67.4423 69.2462 67.7568 68.6101C67.7832 68.5597 67.74 68.442 67.692 68.3868C67.4495 68.1084 67.5239 67.6283 67.6007 67.4986C68.0953 66.6464 67.5455 65.7822 67.7064 64.9276C67.764 64.6204 67.8144 64.2123 67.764 63.857C67.68 63.2713 67.7064 62.6855 67.6968 62.0974C67.68 61.142 67.8432 60.1674 67.4495 59.2407C67.4327 59.2023 67.4375 59.1375 67.4615 59.1015C67.8936 58.4558 67.6535 57.75 67.6247 57.0682C67.6103 56.6794 67.5215 56.2329 67.5599 55.9064C67.6247 55.3735 67.4231 54.8525 67.5791 54.3292C67.6319 54.1612 67.4831 54.0267 67.3127 53.9139C67.1854 53.8275 66.9622 53.6427 67.1998 53.4458C67.4975 53.1986 67.4639 52.8553 67.3679 52.5936C67.1902 52.1063 67.3607 51.4966 66.8542 51.1221C66.7966 51.0789 66.7822 50.9396 66.7894 50.8484C66.8446 50.0058 66.4677 49.2761 66.1796 48.5271C66.0908 48.2966 66.0188 47.9678 65.6275 48.023C65.5315 48.0374 65.4787 47.9534 65.5243 47.8573C65.6659 47.5645 65.4859 47.406 65.3562 47.1564C65.1714 46.7987 64.8473 46.7003 64.6289 46.4578C64.3864 46.1914 64.1584 45.9681 63.8031 45.8673C63.5414 45.7905 63.2725 45.6848 63.0565 45.5264C62.5212 45.1399 61.837 45.0655 61.2801 45.3872C61.1985 45.4352 61.1409 45.4544 61.0688 45.3848C60.8048 45.1303 60.4399 45.2335 60.1278 45.1303C59.979 45.0799 59.7173 45.0511 59.6861 45.356C59.6765 45.4496 59.6213 45.5024 59.5229 45.4904C59.4293 45.4784 59.3717 45.416 59.3741 45.3272C59.3813 45.0055 59.2252 44.9983 59.014 45.1471C58.9035 45.2263 58.8027 45.2311 58.6947 45.1879C57.8929 44.8567 57.0503 45.2239 56.2389 45.0487C56.0493 45.0079 55.9557 45.1831 55.8308 45.2743C55.7348 45.344 55.7396 45.5408 55.526 45.4832C55.6124 45.0391 55.406 44.9047 54.9907 45.0151C54.945 45.0271 54.8898 45.0295 54.8442 45.0175C54.4241 44.9071 54.016 45.5192 53.5887 45.0391C53.2767 45.3488 52.9118 45.0607 52.5781 45.0823C52.3164 45.1015 52.0524 45.3392 51.8171 45.1927C51.1762 44.7966 50.5304 45.368 49.8967 45.1447C49.8895 45.1423 49.8655 45.1615 49.8607 45.1735C49.7431 45.5624 49.6014 45.392 49.4694 45.1879C49.3782 45.0511 49.2581 45.0703 49.1237 45.0871C48.5164 45.1687 47.8778 44.9911 47.2993 45.3104C47.2705 45.3272 47.1961 45.3152 47.1745 45.2887C46.86 44.9383 46.4399 45.2047 46.0942 45.0967C45.7509 44.9911 45.8542 45.4016 45.6189 45.4472C45.3068 45.5072 45.5205 45.0319 45.2036 45.1111C44.9132 45.1855 44.6515 45.2671 44.4787 45.5432C44.3322 45.1279 43.8305 44.9647 43.4224 45.2599C43.1704 45.4424 42.8607 45.2383 42.6638 45.4856C42.3518 45.0151 41.8885 45.2791 41.5692 45.368C40.9835 45.5336 40.2249 45.32 39.8216 46.0641C39.6031 45.548 39.3271 45.7593 39.0582 45.9777C38.9334 46.0809 38.8158 46.1962 38.7101 46.3162C38.0572 47.0628 37.4835 47.8789 36.7129 48.5151C36.5064 48.6879 36.564 49.0624 36.4056 49.1248C36.0215 49.2713 36.1391 49.4969 36.192 49.7442C36.24 49.9674 36.2904 50.1907 36.1031 50.3875C36.0239 50.4691 36.0167 50.5796 36.0263 50.7044C36.0599 51.1269 36.1632 51.5782 36.0599 51.9719C35.9663 52.3368 36.3432 52.704 35.9951 53.0233C36.3048 53.4434 35.9255 53.8443 35.9591 54.2596C35.9807 54.5549 36.1271 54.8285 36.0095 55.1622C35.9519 55.3302 35.9615 55.7215 36.0215 55.8056C36.3216 56.2329 35.9927 56.6169 36.0071 57.0106C36.0191 57.2867 35.8367 57.63 35.8847 57.9132C36.0407 58.7918 35.9183 59.6776 35.9015 60.5442C35.8823 61.4733 36.0359 62.3855 36.0023 63.3097C35.9855 63.7826 36.264 64.3059 36.1367 64.726C35.9255 65.4318 36.0911 66.0895 36.1415 66.7641C36.1872 67.3354 36.456 67.9235 36.3816 68.4685C36.2232 69.6159 36.5424 70.7082 36.5856 71.8268C36.6289 72.9623 36.9769 74.0689 36.9409 75.2164C36.9385 75.3268 36.9625 75.4516 37.0153 75.5453C37.3106 76.0614 36.9073 76.6831 37.265 77.1896C37.2722 77.1992 37.2338 77.2425 37.2194 77.2713C37.0706 77.6121 37.1378 77.9506 37.169 78.3083C37.2146 78.798 37.2674 79.2901 37.2914 79.7822C37.3058 80.0559 37.1834 80.404 37.4234 80.6584C37.5459 80.7905 37.5219 80.9345 37.433 81.0593C37.0682 81.5562 37.7235 82.0676 37.4066 82.5621C37.7883 82.7925 37.5363 83.1046 37.5051 83.3855C37.4739 83.6879 37.2986 84.024 37.7619 84.1656C37.9588 84.2257 37.7691 84.3025 37.7571 84.3697C37.7115 84.6385 37.4474 84.8714 37.6731 85.1835C37.8411 85.4187 37.8603 85.6708 37.7067 85.9516C37.6227 86.1101 37.5795 86.3741 37.6563 86.5158C37.8675 86.9119 37.5795 87.332 37.8051 87.7377C38.0836 88.2442 37.5699 88.8875 38.002 89.406C38.0116 89.4156 37.9732 89.4828 37.942 89.5045C37.6635 89.6821 37.7979 89.951 37.7595 90.191C37.6755 90.7263 37.954 91.2136 37.8579 91.7634C37.8003 92.1019 37.7619 92.4931 37.8003 92.87C37.8195 93.0453 38.002 93.1605 37.9132 93.3621C37.6491 93.9599 37.9492 94.5984 37.8171 95.2106C37.7955 95.3114 37.8291 95.4482 37.8867 95.537C38.0548 95.8035 38.0188 96.0628 37.9083 96.3292C37.8507 96.4685 37.8795 96.6149 37.8579 96.7517C37.7643 97.3711 38.1052 97.952 37.9852 98.5665C37.9252 98.869 37.8291 99.1859 37.954 99.4763C38.1172 99.8556 38.062 100.223 38.0236 100.605C37.9924 100.931 37.9492 101.255 37.978 101.594C38.038 102.268 38.0212 102.948 38.0452 103.627C38.0668 104.241 38.1412 104.851 38.0644 105.473C38.0308 105.773 38.206 106.09 38.2516 106.404C38.2852 106.644 38.29 106.959 37.954 106.959C37.5123 106.956 37.109 107.489 36.6409 107.052C36.6241 107.036 36.5496 107.093 36.5064 107.086C36.2016 107.04 35.8847 107.086 35.5966 107.115C34.7756 107.199 33.9306 106.923 33.1313 107.288C32.9152 107.386 32.4087 106.961 32.4735 106.728C32.6632 106.063 32.5863 105.346 32.8936 104.705C32.9176 104.652 32.9224 104.534 32.9056 104.527C32.3943 104.318 32.7928 104.107 32.8888 103.884C32.9464 103.754 32.9632 103.605 32.9824 103.461C33.0304 103.094 33.0352 102.712 33.0208 102.355C33.0064 102.014 33.2081 101.579 32.8936 101.313C32.6944 101.142 32.7376 101.034 32.8144 100.869C33.1433 100.175 33.2489 99.4691 32.872 98.7586C32.8288 98.6794 32.8216 98.6361 32.8936 98.6121C33.1985 98.5065 33.0808 98.2737 33.0568 98.0792C32.9824 97.4479 32.9728 96.8213 33.1337 96.1996C33.1649 96.0796 33.1793 95.9379 33.04 95.9163C32.6439 95.8515 32.7712 95.6763 32.9464 95.5082C33.0784 95.3786 33.1049 95.225 33.1001 95.0617C33.0664 94.0847 33.1553 93.1077 33.1505 92.1283C33.1457 91.6025 33.0472 91.0792 33.1409 90.5367C33.2009 90.1862 33.3137 89.7805 33.064 89.406C32.9488 89.238 32.6752 88.9619 33.1313 88.7915C33.2345 88.7531 33.2201 88.5586 33.1505 88.4338C33.0976 88.333 33.0112 88.225 33.0688 88.1169C33.5129 87.3128 33.0856 86.4606 33.2177 85.618C33.3809 84.5617 33.2609 83.4551 33.1937 82.3724C33.1145 81.0617 33.1481 79.7486 33.1073 78.4403C33.076 77.4321 33.0784 76.4071 33.1193 75.394C33.1385 74.8827 32.9032 74.369 33.1241 73.8601C33.1457 73.8073 33.088 73.704 33.0424 73.6392C32.9344 73.4856 32.9656 73.356 33.04 73.1927C33.1121 73.0391 33.1961 72.7822 33.1217 72.6886C32.8216 72.2997 33.2345 71.7956 32.8792 71.4211C32.8216 71.3611 32.836 71.1211 32.9848 71.0322C33.1409 70.941 33.0952 70.8018 33.0784 70.6866C33.0112 70.2256 32.8648 69.8008 32.9608 69.2942C33.0736 68.7013 32.5815 68.2116 32.3367 67.6859C32.2503 67.4962 32.0846 67.297 31.799 67.357C31.6669 67.3858 31.6357 67.3018 31.6237 67.1866C31.5949 66.8769 31.3477 66.7953 31.11 66.8001C30.7907 66.8073 30.6491 66.6656 30.4642 66.4136C30.1426 65.9743 29.6193 65.7438 29.0839 65.751C28.7815 65.7558 28.4622 65.8302 28.1477 65.8374C28.0637 65.6694 28.2677 65.4294 27.9917 65.3237C27.7324 65.2229 27.6052 65.427 27.4492 65.5494C27.3891 65.595 27.4083 65.7774 27.2691 65.6526C27.1875 65.5782 27.1851 65.4822 27.3195 65.4294C27.4011 65.3981 27.4612 65.3453 27.3987 65.2469C26.9018 65.1581 26.4121 65.3069 25.896 65.2325C25.4831 65.1749 25.0054 64.9805 24.5205 65.2181C24.4149 65.2709 24.11 65.5158 23.954 65.3549C23.6323 65.0309 23.277 65.1677 22.9169 65.1509C22.4368 65.1269 21.9927 65.3189 21.491 65.2445C20.7612 65.1341 20.0075 65.1893 19.2657 65.1821C18.9032 65.1797 18.5527 65.2253 18.3295 65.5662C18.1854 65.7822 17.9886 65.7462 17.8134 65.6502C17.6669 65.5686 17.5349 65.535 17.3645 65.5374C16.4042 65.559 15.5352 65.8374 14.7167 66.3392C14.4502 66.5024 14.1717 66.9393 13.8477 66.7208C13.1203 66.2335 12.5057 66.704 12.0088 66.9873C10.8758 67.6331 10.1268 68.7469 9.2506 69.6903C8.58085 70.4105 8.29758 71.3563 8.06473 72.3045C8.01192 72.5206 7.84148 72.715 7.82468 72.9287C7.75746 73.8097 7.35177 74.6163 7.30376 75.4997C7.26775 76.1094 7.01329 76.6831 7.01569 77.3145C7.01569 77.5521 7.22214 77.785 7.0421 78.0418C6.85725 78.3035 6.88846 78.618 6.90767 78.9252C6.93647 79.4077 7.01329 79.8975 6.95568 80.3728C6.91967 80.6896 6.86205 80.9225 7.27255 81.0569C6.90526 81.1145 6.79244 81.3594 6.88846 81.5899C7.16212 82.2404 6.95808 82.9198 6.94847 83.5535C6.93647 84.6289 7.13092 85.7092 6.99168 86.7726C6.93407 87.2263 7.29175 87.5888 7.08771 88.0545C6.94367 88.3858 7.03009 88.7891 7.01569 89.154C6.99649 89.7133 7.0421 90.2726 6.99168 90.82C6.95568 91.192 7.22214 91.3793 7.25334 91.6986C7.30856 92.2555 7.0541 92.7668 7.18613 93.3621C7.30856 93.9143 7.10211 94.5408 7.4766 95.0761C7.4958 95.1073 7.4934 95.1938 7.47179 95.2106C7.13812 95.465 7.34457 95.7531 7.45499 95.9883C7.58942 96.2788 7.57022 96.5333 7.4886 96.8213C7.36137 97.275 7.26055 97.7383 7.61343 98.1536C7.64703 98.192 7.65184 98.2905 7.62543 98.3313C7.27255 98.8498 7.42378 99.4691 7.43339 99.9997C7.45739 101.193 7.27015 102.391 7.4766 103.581C7.4862 103.644 7.4934 103.721 7.46699 103.773C7.24854 104.232 7.17893 104.671 7.54141 105.101C7.62543 105.202 7.58222 105.348 7.55101 105.478C7.43099 105.943 7.15252 106.347 7.0613 106.832C7.01329 107.072 6.72282 107.381 6.43476 107.139C6.08908 106.848 5.89703 107.254 5.65218 107.209C5.38332 107.158 5.36891 106.635 4.94402 106.779C4.92721 106.913 5.19847 107.024 5.02804 107.139C4.90801 107.221 4.79998 107.365 4.53352 107.242C4.0126 107.002 3.40526 107.05 2.83153 107.009C2.55067 106.99 2.229 106.827 2.05376 107.221C2.02735 107.278 1.90972 107.302 1.90012 107.228C1.87852 107.086 1.92893 106.899 1.68647 107.036C1.53284 107.124 1.3792 107.177 1.3912 107.453C1.40321 107.799 1.08393 108.063 0.824675 108.21C0.462192 108.414 -0.0851329 108.394 0.243742 109.057C0.282151 109.136 0.207734 109.273 0.178927 109.381C0.140518 109.535 0.130916 109.667 0.171726 109.84C0.286952 110.317 0.591822 110.502 1.00712 110.716C1.60485 111.025 2.20259 111.184 2.85314 111.196C2.97317 111.198 3.05478 111.167 3.1292 111.297C3.29004 111.585 3.5637 111.635 3.87337 111.657C4.31987 111.69 4.80238 111.52 5.17927 111.623C5.83222 111.806 6.46116 111.662 7.09251 111.726C7.25575 111.743 7.31336 111.493 7.46219 111.575C7.79107 111.76 8.08393 111.794 8.3552 111.479C8.41521 111.407 8.50403 111.407 8.53764 111.513C8.67207 111.904 8.99854 111.866 9.28661 111.813C9.56507 111.765 9.83634 111.748 10.1076 111.782C11.1782 111.918 12.2561 111.81 13.3315 111.904C14.6566 112.019 15.9937 111.873 17.3284 111.94C18.6175 112.007 19.9114 111.945 21.2053 112.01C22.1583 112.058 23.1162 111.928 24.0788 111.986C24.8254 112.031 25.5791 111.844 26.3281 112.024C26.3881 112.038 26.4601 112.046 26.5201 112.029C27.1587 111.842 27.8116 112.002 28.4622 111.95C29.4968 111.866 30.5579 111.988 31.5997 111.892C32.4255 111.813 33.2633 111.762 34.0795 111.772C35.1525 111.784 36.2184 111.698 37.289 111.693C38.2516 111.69 39.2143 111.599 40.1769 111.575C40.8514 111.558 41.5596 111.806 42.1429 111.258C42.1597 111.241 42.2125 111.237 42.2269 111.249C42.8175 111.774 43.4872 111.522 44.1402 111.441C44.2194 111.431 44.301 111.412 44.3754 111.424C44.8219 111.501 45.2756 111.558 45.7173 111.489C46.2311 111.409 46.7424 111.491 47.2513 111.421C47.7122 111.359 48.1611 111.373 48.634 111.407C49.8271 111.493 51.0346 111.323 52.2324 111.347C52.6309 111.357 52.9718 111.105 53.3295 111.189C54.2057 111.397 55.0891 111.304 55.9557 111.241C56.3974 111.208 56.9231 111.558 57.3072 111.061C57.7393 111.496 58.289 111.155 58.7739 111.225C59.5613 111.337 60.4015 111.229 61.2129 111.16C62.3843 111.059 63.5558 111.143 64.7225 111.121C65.8339 111.1 66.9526 111.085 68.0688 111.09C68.5586 111.093 69.0435 110.982 69.5476 111.049C69.8669 111.093 70.2533 111.083 70.4406 110.562C70.4886 110.939 70.6614 110.98 70.8991 110.994C71.9025 111.054 72.9035 110.821 73.9046 110.98C73.9934 110.994 74.1278 110.975 74.183 110.917C74.3703 110.716 74.6247 110.749 74.8192 110.793C75.6474 110.977 76.4876 110.997 77.3206 110.941C78.5112 110.867 79.7331 111.169 80.8974 110.684C80.9334 110.67 80.9934 110.694 81.0342 110.716C81.7136 111.078 82.4025 110.86 83.1011 110.805C83.4852 110.773 83.8909 110.761 84.2773 110.737C84.6806 110.713 85.0647 110.812 85.4656 110.788C86.049 110.754 86.6203 110.471 87.2252 110.704C87.6477 110.865 88.0918 110.689 88.5263 110.701C89.3737 110.723 90.2235 110.742 91.0709 110.737C92.6649 110.728 94.254 110.548 95.8456 110.644C96.4913 110.682 97.0963 110.399 97.7372 110.48C97.826 110.49 97.8621 110.408 97.9029 110.332C98.0709 109.991 98.0733 109.993 98.431 110.072C98.4262 110.226 98.1165 110.281 98.2773 110.471C98.4118 110.629 98.5942 110.701 98.7695 110.488C98.7911 110.461 98.8703 110.452 98.9063 110.468C99.5136 110.793 100.09 110.468 100.68 110.401C100.844 110.384 101.028 110.459 100.928 110.168C100.899 110.084 100.94 109.964 101.052 109.938C101.17 109.909 101.237 109.998 101.261 110.096C101.336 110.399 101.547 110.425 101.789 110.351C102.159 110.236 102.526 110.264 102.894 110.341C103.767 110.524 104.672 110.444 105.508 110.305C106.065 110.212 106.607 110.332 107.167 110.212C107.786 110.077 108.484 110.315 109.097 109.936C109.145 109.907 109.269 109.916 109.301 109.955C109.522 110.226 109.764 110.096 109.942 109.95C110.162 109.767 110.326 109.777 110.549 109.919C110.803 110.08 111.036 110.152 111.214 109.767C111.324 109.535 111.54 109.501 111.636 109.823C111.665 109.916 111.67 110.065 111.795 109.984C112.145 109.753 112.611 109.83 112.959 109.429C112.801 109.849 112.909 110.056 113.218 109.991C113.636 109.907 114.027 109.688 114.474 109.748C114.507 109.753 114.584 109.686 114.579 109.664C114.476 109.163 114.872 109.518 114.992 109.398C114.836 109.549 114.841 109.628 115.055 109.705C115.605 109.902 115.528 109.367 115.677 109.143C115.821 108.93 115.638 108.778 115.235 108.81C115.516 108.685 115.648 108.627 115.78 108.567C116.121 108.409 116.459 107.785 116.281 107.473C116.082 107.122 116.267 107.033 116.512 106.976C116.865 106.892 116.721 106.748 116.562 106.637ZM29.3216 75.3532C29.3672 75.9149 29.4272 76.5175 29.36 77.0552C29.2904 77.6121 29.1992 78.1763 29.276 78.7116C29.372 79.3621 29.2352 79.9911 29.2376 80.6272C29.24 81.4506 29.1632 82.298 29.2352 83.0974C29.3024 83.7984 29.0935 84.4657 29.2184 85.1835C29.3216 85.7716 29.3528 86.4822 29.192 87.1087C29.1151 87.4112 29.2304 87.644 29.2448 87.9081C29.2784 88.5274 29.0191 89.1036 29.0575 89.7253C29.1055 90.5079 28.9951 91.2905 29.0503 92.085C29.0887 92.6348 28.9255 93.2613 29.0191 93.7726C29.1463 94.476 28.6758 95.1818 29.1223 95.8395C28.8631 96.238 29.264 96.7229 28.9471 97.1358C28.8799 97.2222 28.9207 97.4935 28.9567 97.6303C29.0959 98.1632 28.4646 98.6193 28.8367 99.1499C28.5318 99.5964 28.7959 99.9781 28.9519 100.384C29.0023 100.511 28.8847 100.648 28.7623 100.751C28.5222 100.948 28.4382 101.229 28.4358 101.529C28.4334 102.167 28.2942 102.837 28.4046 103.43C28.5126 104.016 28.1741 104.546 28.3926 105.13C28.467 105.326 28.3422 105.703 28.3278 106.006C28.3182 106.258 28.2317 106.496 28.3782 106.757C28.4214 106.834 28.4598 107.204 28.3134 107.206C27.9917 107.213 27.8525 107.696 27.4492 107.468C27.0411 107.237 26.6306 107.235 26.3593 107.957C26.3257 107.261 26.0088 107.415 25.6583 107.365C24.6861 107.228 23.7259 107.384 22.7657 107.381C22.3384 107.379 21.8055 107.172 21.395 107.545C21.1405 107.249 20.814 107.415 20.5116 107.393C20.0291 107.36 19.5514 107.437 19.0664 107.369C18.6223 107.309 19.0928 107.662 18.8672 107.782C18.5695 107.365 18.1254 107.321 17.6285 107.391C17.3236 107.434 17.086 107.552 16.8507 107.744C16.5987 107.95 16.3106 108.092 16.4354 107.513C16.1642 107.533 15.9985 107.921 15.7681 107.523C15.7081 107.422 15.3336 107.372 15.228 107.453C14.9255 107.696 14.5942 107.494 14.3182 107.509C14.0397 107.523 13.6964 107.573 13.3891 107.485C13.0243 107.379 12.6474 107.288 12.4505 107.777C12.4073 107.885 12.2513 107.902 12.2513 107.765C12.2489 107.317 11.9224 107.518 11.7232 107.489C11.5791 107.465 11.4039 107.499 11.3487 107.338C11.3007 107.201 11.3439 107.06 11.4951 106.964C11.7184 106.82 11.6992 106.541 11.6175 106.392C11.3559 105.915 11.5431 105.478 11.656 105.031C11.7208 104.772 11.5815 104.565 11.5479 104.337C11.4903 103.977 11.6127 103.56 11.5263 103.236C11.3607 102.616 11.5455 101.997 11.3799 101.392C11.2022 100.744 11.4639 100.026 11.2743 99.4403C10.9694 98.5017 11.5239 97.6591 11.3367 96.7709C11.2215 96.226 11.4087 95.6307 10.9862 95.1313C10.8302 94.9441 10.9958 94.6344 11.099 94.4376C11.2431 94.1567 11.2671 93.8855 11.2191 93.6022C11.1014 92.882 11.3367 92.1235 10.9814 91.4249C10.9502 91.3649 10.991 91.2689 10.9982 91.1896C11.0246 90.868 11.207 90.5463 10.9262 90.227C10.8542 90.1478 10.955 89.9198 10.9742 89.7589C10.991 89.6149 11.0726 89.4228 11.0078 89.3364C10.6909 88.8971 10.8854 88.4338 10.9382 87.9945C10.9766 87.6872 10.787 87.4592 10.823 87.1351C10.9382 86.0765 11.0222 85.001 10.9334 83.9352C10.8182 82.5693 11.0486 81.1986 10.9094 79.8494C10.8134 78.9468 11.0318 78.0754 10.9478 77.1896C10.9238 76.9352 11.0102 76.6447 10.6717 76.5079C10.5397 76.4527 10.6669 76.3735 10.7077 76.3326C10.9478 76.0878 10.9166 75.7853 10.9454 75.4733C11.0222 74.7003 10.9766 73.9249 11.1638 73.1471C11.3127 72.523 11.4039 71.8556 11.4183 71.1979C11.4255 70.9506 11.5167 70.8402 11.7232 70.7778C11.944 70.7106 12.2321 70.7706 12.3065 70.4441C12.3113 70.4273 12.3377 70.4033 12.3521 70.4057C13.1107 70.5473 13.1059 70.5353 14.1861 70.2425C15.1151 69.9904 16.0802 69.9424 17.0308 69.8392C17.835 69.7551 18.6584 69.7623 19.4601 69.7023C20.0795 69.6543 20.7228 69.6783 21.311 69.6975C22.3336 69.7311 23.3634 69.8152 24.3837 69.7623C25.5071 69.7023 26.5658 69.8848 27.6388 70.18C29.0359 70.5641 29.3312 71.4955 29.3864 72.7414C29.4248 73.6152 29.252 74.4746 29.3216 75.3532ZM64.0191 59.0967C63.5486 59.5936 63.8295 60.1433 63.8967 60.6787C63.9447 61.0556 63.7599 61.3988 63.7503 61.7853C63.7335 62.4191 63.6902 63.0576 63.7431 63.6866C63.7863 64.1931 63.611 64.6732 63.6854 65.1797C63.8247 66.1351 63.7599 67.1169 63.6734 68.0556C63.6086 68.7685 63.623 69.4863 63.611 70.1896C63.6038 70.5665 63.3326 71.0634 63.7503 71.4307C63.8175 71.4907 63.6998 71.5652 63.6446 71.6156C63.4358 71.8028 63.4622 72.1389 63.5534 72.2421C63.8319 72.5662 63.5918 72.8134 63.5822 73.1039C63.5654 73.5768 63.4358 74.0593 63.5222 74.5202C63.6926 75.43 63.503 76.3302 63.5438 77.2353C63.551 77.3601 63.6326 77.4825 63.6302 77.6073C63.6302 77.881 63.9375 78.1883 63.5438 78.4283C63.4694 78.4739 63.5294 78.5772 63.5534 78.654C63.7911 79.4198 63.5534 80.1927 63.5678 80.9633C63.5774 81.5538 63.5006 82.1492 63.5534 82.7349C63.5846 83.0998 63.3494 83.4359 63.4742 83.7743C63.6782 84.3337 63.4478 84.9602 63.7575 85.4979C63.7695 85.5195 63.7743 85.5748 63.7623 85.5844C63.0901 86.0237 63.5366 86.667 63.5534 87.1735C63.5726 87.6872 63.3446 88.2658 63.7094 88.7603C63.7479 88.8107 63.6926 88.9475 63.6566 89.0363C63.3782 89.7085 63.467 90.3639 63.6494 91.0504C63.7383 91.3841 63.6566 91.785 63.5702 92.1379C63.4862 92.4835 63.5654 92.546 63.9495 92.4043C63.4166 92.7092 63.4982 93.0933 63.6446 93.4918C63.7287 93.7222 63.8127 93.9431 63.5774 94.1495C63.5102 94.2095 63.4718 94.3224 63.5174 94.4208C63.9159 95.273 63.527 96.2044 63.7383 97.0326C63.9279 97.7695 63.683 98.4345 63.7359 99.1355C63.7815 99.7308 63.7071 100.365 63.4958 100.96C63.3686 101.315 63.4766 101.694 63.5126 102.05C63.5438 102.352 63.6926 101.896 63.8895 102.088C63.7287 102.232 63.5558 102.355 63.4238 102.511C63.2653 102.698 63.2149 102.916 63.4046 103.128C63.6662 103.423 63.5942 103.769 63.4214 104.03C63.1789 104.397 63.2653 104.782 63.455 105.017C63.8271 105.478 63.4982 105.804 63.359 106.162C63.2221 106.522 62.8092 106.503 62.5716 106.443C62.1899 106.347 62.0627 106.464 61.9883 106.784C61.9642 106.884 61.9186 106.976 61.801 106.976C61.6714 106.973 61.6498 106.86 61.6522 106.764C61.6618 106.488 61.5033 106.46 61.2801 106.464C60.8 106.476 60.3223 106.419 59.9118 106.779C59.6909 106.968 59.6885 106.868 59.4749 106.625C59.3092 106.438 58.9612 106.407 58.6875 106.539C58.5795 106.592 58.4883 106.702 58.409 106.803C58.313 106.92 58.2938 107.098 58.0538 107.04C57.8329 106.988 57.9073 106.822 57.8665 106.7C57.8329 106.604 57.8761 106.455 57.6793 106.503C57.3048 106.594 56.9255 106.486 56.5486 106.508C56.4382 106.515 56.3638 106.568 56.2966 106.63C56.0709 106.836 55.8693 107.153 55.6892 106.572C55.634 106.397 55.3123 106.433 55.2859 106.618C55.2379 106.942 55.1371 106.839 54.9787 106.724C54.5442 106.409 54.3353 106.419 54.0832 106.844C53.9608 107.052 53.8912 106.976 53.8264 106.858C53.6319 106.517 53.3727 106.488 53.0054 106.563C52.6141 106.642 52.2012 106.611 51.7979 106.625C51.5867 106.632 51.3466 106.512 51.2554 106.863C51.2242 106.98 51.0081 106.985 50.8713 106.889C50.4416 106.594 50.1608 106.608 49.8967 107.002C49.7359 107.242 49.635 107.249 49.5726 106.976C49.4982 106.649 49.2629 106.652 49.0325 106.68C48.7564 106.712 48.4756 106.676 48.2115 106.714C47.8538 106.769 47.5105 106.733 47.1577 106.721C46.9104 106.712 46.6464 106.812 46.4759 107.038C46.3511 107.204 46.2503 107.221 46.0894 107.057C45.7341 106.695 44.8171 106.709 44.4306 107.067C44.1954 107.285 43.8833 107.228 43.6073 107.29C43.5808 107.297 43.5112 107.235 43.5136 107.211C43.5616 106.606 43.2184 106.844 42.9399 106.94C42.8847 106.961 42.7887 107.016 42.7767 107.002C42.6638 106.853 42.5246 106.822 42.3494 106.87C42.1957 106.911 42.0373 106.932 41.826 106.976C42.1789 106.616 41.8837 106.212 42.0013 105.819C42.2605 104.969 42.1789 104.078 42.0685 103.207C42.0253 102.856 42.2317 102.417 41.79 102.16C41.766 102.148 41.7876 101.999 41.826 101.939C42.0757 101.577 42.1093 101.217 41.8933 100.821C41.7684 100.59 42.0445 100.413 42.0373 100.18C42.0037 99.2627 42.0613 98.3337 41.9437 97.4263C41.8212 96.4901 42.0493 95.5754 41.9605 94.6488C41.9125 94.1375 42.0901 93.5182 41.9389 93.1341C41.7108 92.546 42.1885 92.0154 41.8573 91.4993C41.8164 91.4369 41.8621 91.3073 41.8909 91.216C42.0925 90.5175 41.9725 89.8045 41.9869 89.0964C42.0061 88.0113 42.0397 86.9239 41.9965 85.8388C41.9821 85.4739 42.1405 85.025 41.7492 84.7322C41.7084 84.701 41.6724 84.701 41.7324 84.6506C42.3254 84.1536 41.9773 83.4815 41.9869 82.9126C41.9989 81.8731 41.8981 80.8241 41.7828 79.787C41.6268 78.3563 41.622 76.9184 41.538 75.4853C41.4948 74.7243 41.3891 73.9609 41.3843 73.1927C41.3819 72.9839 41.4876 72.679 41.1299 72.5902C41.0027 72.559 41.0171 72.463 41.0747 72.3621C41.4684 71.6804 41.1347 71.0274 40.9859 70.3721C40.9522 70.2185 40.8994 70.096 40.9474 69.9184C41.0099 69.6879 41.2691 69.3182 40.7074 69.2774C40.6498 69.2726 40.4841 69.107 40.6786 68.9366C40.8994 68.7469 40.9859 68.5165 40.6186 68.3292C40.3857 68.2116 40.4169 68.046 40.6666 67.8803C40.861 67.7507 40.7842 67.2706 40.5153 67.0881C40.1937 66.8697 40.2273 66.6272 40.4841 66.4376C40.6666 66.3008 40.7122 66.1615 40.6666 65.9839C40.561 65.5806 40.5586 65.1725 40.5826 64.762C40.597 64.5387 40.4649 64.4499 40.3017 64.3587C40.0112 64.1955 39.9416 64.0034 40.1361 63.6842C40.5634 62.9832 40.3233 62.2054 40.3161 61.4588C40.3113 60.9763 40.2417 60.4938 40.2081 60.0113C40.1937 59.8025 40.1985 59.5912 40.016 59.4352C39.9728 59.3968 39.92 59.3104 39.9368 59.2743C40.1049 58.8999 39.9416 58.5278 39.9584 58.1677C40.0136 56.9362 39.8456 55.7191 39.836 54.4949C39.824 53.0569 39.8144 51.6166 39.8144 50.1763C39.8144 49.7322 40.1553 49.5185 40.5826 49.6049C41.1851 49.7274 41.8068 49.6722 42.3854 49.5185C42.7431 49.4225 42.9543 49.677 43.2664 49.6626C44.7283 49.5833 46.1878 49.7346 47.6522 49.7442C48.9677 49.7538 50.2856 49.8066 51.6011 49.785C52.2492 49.773 52.9142 49.8618 53.5479 49.6433C53.764 49.5689 53.8672 49.7874 54.04 49.7826C54.549 49.7682 55.0603 49.8234 55.5692 49.7274C56.1069 49.6217 56.6398 49.821 57.1896 49.7658C57.9073 49.6938 58.6419 49.7634 59.3573 49.7058C59.7774 49.6722 60.195 49.7226 60.6127 49.677C60.7256 49.665 60.8336 49.6842 60.9128 49.5713C61.0328 49.3913 60.7448 49.4129 60.764 49.3049C61.7314 49.4993 62.0915 50.3011 62.466 51.0573C62.9797 52.0991 63.2413 53.2226 63.4982 54.358C63.6998 55.2462 63.5174 56.1728 63.8823 57.0346C63.9663 57.2339 63.8223 57.5219 63.8223 57.7692C63.8223 58.1581 63.6758 58.5686 63.9807 58.9191C64.0167 58.9623 64.0431 59.0703 64.0191 59.0967ZM102.097 92.2123C101.804 92.9396 101.828 93.631 102.034 94.4064C102.133 94.7761 101.998 95.3306 101.938 95.7987C101.878 96.2692 102.003 96.7589 101.787 97.2126C101.768 97.2534 101.761 97.3254 101.785 97.3542C102.248 97.94 101.66 98.5089 101.763 99.0826C101.818 99.3971 101.665 99.7116 101.857 100.031C102.005 100.281 101.677 100.504 101.674 100.78C101.674 100.878 101.602 100.986 101.667 101.092C101.854 101.399 101.751 101.714 101.703 102.031C101.595 102.731 101.448 103.437 101.727 104.136C101.744 104.174 101.739 104.244 101.715 104.273C101.204 104.866 101.765 105.526 101.544 106.164C101.189 106.119 100.805 106.147 100.51 106.493C100.363 106.666 100.2 106.63 100.006 106.481C99.6481 106.203 99.2664 105.847 98.8175 106.385C98.7358 106.481 98.6518 106.337 98.5894 106.277C98.335 106.02 98.0253 106.08 97.73 106.14C97.4564 106.198 97.5572 106.472 97.5284 106.647C97.1827 106.608 97.4228 106.169 97.0867 106.126C96.633 106.066 96.1841 106.133 95.7376 106.162C95.5191 106.176 95.4279 106.532 95.1014 106.551C95.171 106.207 95.0366 105.972 94.6813 106.143C94.3284 106.311 94.0404 106.073 93.7163 106.085C93.3898 106.095 93.1426 106.131 92.9025 106.385C92.5544 106.76 91.8775 106.676 91.563 106.26C91.407 106.054 91.0061 106.116 90.8236 106.385C90.7732 106.46 90.7876 106.592 90.6364 106.529C90.5452 106.493 90.514 106.431 90.5356 106.34C90.646 105.859 90.2619 106.018 90.1419 106.102C89.9042 106.27 89.7242 106.289 89.4961 106.119C89.4505 106.085 89.3281 106.099 89.2729 106.138C89.1985 106.188 89.1385 106.356 89.1024 106.349C88.9824 106.32 89.1529 106.188 89.0592 106.121C88.9824 106.063 88.884 106.075 88.8384 106.133C88.4471 106.608 88.0462 106.251 87.6837 106.121C87.1172 105.915 86.5987 106.051 86.3682 106.592C86.097 105.807 85.5184 106.174 85.0191 106.152C84.6782 106.14 84.3974 106.366 84.0181 106.241C83.5668 106.092 83.802 106.486 83.8404 106.714C83.5572 106.644 83.3219 106.623 83.0771 106.654C82.837 106.683 82.5826 106.644 82.3977 106.455C82.1913 106.241 81.9848 106.073 81.692 106.303C81.5695 106.4 81.5191 106.275 81.4399 106.239C81.0966 106.085 80.8398 106.121 80.7653 106.575C80.5517 106.167 79.9203 106.035 79.5099 106.294C79.3754 106.378 79.2578 106.496 79.1282 106.594C78.8881 106.774 78.6913 106.784 78.5953 106.44C78.576 106.378 78.54 106.267 78.5208 106.27C77.8607 106.332 78.0311 105.593 77.6398 105.36C77.3926 105.214 77.2726 104.861 77.4958 104.537C77.3782 104.395 77.2149 104.652 77.0781 104.457C77.4022 104.141 77.3998 103.802 77.0613 103.478C76.9173 103.336 76.9557 103.176 77.0493 103.032C77.3638 102.551 77.359 101.927 77.2341 101.505C77.1333 101.169 77.2005 100.914 77.2389 100.662C77.3878 99.6348 77.3638 98.5953 77.3134 97.5775C77.2774 96.8117 77.4502 96.0724 77.4046 95.3306C77.3494 94.4304 77.4214 93.535 77.3878 92.6372C77.359 91.8906 77.4646 91.1272 77.4622 90.3711C77.4574 89.4877 77.4934 88.6042 77.395 87.7233C77.3614 87.4088 77.4502 87.0895 77.407 86.7678C77.3902 86.6406 77.443 86.5206 77.2869 86.4414C77.1645 86.3813 77.1477 86.2541 77.2149 86.1485C77.647 85.4763 77.4262 84.7322 77.3014 84.0744C77.1237 83.1598 77.3062 82.2692 77.2461 81.3714C77.2101 80.8409 77.2629 80.3032 77.2509 79.7702C77.2485 79.643 77.3206 79.2373 76.9677 79.5926C76.9245 79.6358 76.8813 79.6142 76.8621 79.5614C76.8453 79.5182 76.8212 79.439 76.8381 79.4246C77.2413 79.1197 77.3638 78.7812 76.9797 78.3731C77.2197 78.1619 77.0733 77.9002 77.0925 77.6529C77.1429 76.9904 77.0085 76.3374 76.9989 75.6773C76.9941 75.214 77.0253 74.7771 77.1069 74.333C77.1141 74.285 77.1309 74.225 77.1093 74.189C76.4708 73.1015 77.4766 71.9372 76.8645 70.8378C76.79 70.7634 76.8068 71.0274 76.6316 70.9242C76.9725 70.2833 76.9701 69.6039 76.79 68.9126C76.7516 68.7613 76.9053 68.6749 76.9029 68.5021C76.8693 66.9897 76.8717 65.475 76.8621 63.9602C76.8621 63.5977 76.8476 63.2353 76.6364 62.916C76.586 62.8368 76.5932 62.7671 76.634 62.6903C76.9797 62.071 76.7468 61.4132 76.7948 60.7795C76.8453 60.1337 76.802 59.4976 76.8308 58.8567C76.8428 58.5974 76.8861 58.3477 76.6124 58.1653C76.4948 58.0861 76.4083 57.8748 76.5524 57.786C77.0253 57.4931 76.8284 57.0274 76.8741 56.6361C76.9149 56.3001 77.0061 55.8704 76.8453 55.6351C76.5356 55.1742 76.8044 54.7397 76.8092 54.3268C76.8188 53.7027 76.8693 53.0665 76.8404 52.44C76.814 51.8278 76.9365 51.1557 76.7924 50.6252C76.6556 50.1283 76.8284 49.7058 76.7708 49.2521C76.7108 48.7671 76.7852 48.2222 76.7756 47.7205C76.7708 47.37 77.0325 46.9091 76.6268 46.5778C76.5884 46.5466 76.6892 46.3426 76.73 46.2226C76.8453 45.8961 76.9029 45.5912 76.7228 45.2431C76.6244 45.0487 76.6964 44.7582 76.718 44.5302C76.7684 43.9997 76.6172 43.5099 76.574 43.0034C76.5284 42.4633 76.5764 41.916 76.4588 41.3807C76.4035 41.1238 76.5092 40.8141 76.2235 40.6245C76.1971 40.6077 76.1803 40.5261 76.1995 40.4997C76.4684 40.1012 76.2619 39.7051 76.2403 39.297C76.2211 38.8937 76.2451 38.5216 75.9186 38.2335C75.8442 38.1663 75.8706 38.1591 75.9234 38.1015C76.2163 37.7966 76.1587 37.3741 76.1011 37.0549C75.9547 36.2195 76.2187 35.3553 75.8778 34.5463C76.1683 34.1118 76.0315 33.6269 76.0483 33.1588C76.0555 33.0147 76.2043 32.9667 76.3051 32.8851C76.8333 32.4602 77.4838 32.153 78.0983 32.1121C78.6529 32.0761 79.2122 31.9105 79.7763 31.9777C79.8099 31.9825 79.8459 31.9873 79.8723 31.9753C80.5853 31.6776 81.3103 31.8889 82.0184 31.9585C82.7794 32.0353 83.5404 31.9921 84.2942 31.9873C85.6265 31.9753 86.9636 32.1049 88.2983 31.9561C88.7904 31.9009 89.2825 32.0041 89.777 32.0113C90.7516 32.0233 91.7262 32.0569 92.7009 32.0377C93.2722 32.0257 93.8507 32.1097 94.4125 32.0377C95.0006 31.9657 95.5743 32.0569 96.1553 32.0353C97.6532 31.9777 99.0623 32.393 100.438 32.9259C100.803 33.0652 101.093 33.3868 101.213 33.8021C101.283 34.0398 101.398 34.2198 101.727 34.155C101.535 34.2966 101.496 34.4239 101.549 34.6543C101.746 35.4945 101.852 36.3419 101.883 37.2157C101.907 37.9215 101.818 38.6368 101.998 39.357C102.094 39.7435 102.262 40.1948 101.95 40.6605C101.691 41.0542 101.881 41.5991 101.857 42.0696C101.842 42.3841 101.828 42.7298 101.84 43.061C101.864 43.6924 101.907 44.3189 101.957 44.9479C102.008 45.5672 101.876 46.201 101.897 46.8275C101.933 47.8693 101.905 48.9184 101.895 49.9554C101.888 50.5412 102.116 51.1413 101.859 51.763C101.665 52.2335 101.95 52.7857 101.873 53.321C101.751 54.1588 101.821 55.0014 101.885 55.8464C101.917 56.2929 101.753 56.7514 101.751 57.2123C101.751 57.3227 101.681 57.4307 101.753 57.5412C102.068 58.0261 101.773 58.535 101.777 59.0271C101.78 59.2767 101.758 59.5072 101.83 59.7593C101.893 59.9681 101.869 60.2106 101.845 60.4338C101.765 61.142 101.806 61.8573 101.761 62.5607C101.725 63.1224 102.087 63.713 101.679 64.2507C101.917 64.6684 101.593 65.1293 101.785 65.5662C101.842 65.6982 101.921 65.9239 101.744 66.1087C101.607 66.2575 101.662 66.488 101.667 66.6752C101.681 67.4458 101.849 68.1996 101.753 68.9918C101.669 69.6711 101.797 70.3745 101.672 71.0682C101.629 71.3179 101.816 71.5435 101.837 71.8268C101.888 72.5518 101.753 73.2551 101.741 73.9657C101.729 74.7339 101.65 75.5021 101.708 76.263C101.741 76.7263 101.813 77.1872 101.806 77.6529C101.801 77.905 101.818 78.1547 101.785 78.4091C101.768 78.5243 101.384 78.9036 101.921 78.9132C101.893 78.966 101.857 79.0165 101.835 79.0717C101.727 79.3549 101.621 79.6262 101.775 79.9455C101.921 80.2551 101.744 80.5936 101.72 80.9057C101.672 81.5538 101.837 82.1684 101.864 82.7997C101.878 83.1814 101.842 83.5679 101.821 83.9352C101.773 84.749 101.845 85.5628 101.78 86.3645C101.734 86.9239 102.149 87.452 101.816 88.0377C101.746 88.1626 101.933 88.5322 101.837 88.8035C101.811 88.8827 101.893 88.9019 101.962 88.9115C102.022 88.9187 102.123 88.7795 102.133 88.9451C102.135 88.9931 102.065 89.0844 102.025 89.0868C101.768 89.0964 101.909 89.25 101.869 89.37C101.713 89.8453 102.229 90.3134 101.816 90.7984C101.684 90.952 101.782 91.3409 101.981 91.5449C102.188 91.7562 102.195 91.9746 102.097 92.2123ZM11.4759 27.3927C11.8432 26.7925 12.3761 26.3364 12.825 25.8107C13.1179 25.4698 13.4348 25.1409 13.7132 24.7905C13.9077 24.5432 14.1645 24.4304 14.383 24.5432C14.6878 24.7016 14.3854 24.9537 14.3398 25.1722C14.527 25.189 14.6086 25.1025 14.6566 24.9393C14.7479 24.62 14.9255 24.5912 15.2424 24.704C15.8281 24.9081 16.4498 24.9921 17.0164 25.2778C17.8902 25.7171 18.8408 25.9715 19.7266 26.406C20.2883 26.6797 21.0109 26.7565 21.6662 26.8981C21.9495 26.9582 21.9711 26.6149 22.1872 26.6149C22.3072 26.6149 22.4704 26.3868 22.5184 26.5669C22.7201 27.3374 23.3562 26.9414 23.7691 27.0062C24.1964 27.0734 24.6693 26.9702 25.123 26.9774C25.4471 26.9846 25.5287 26.8405 25.5359 26.5333C25.5575 25.2586 24.9934 24.524 23.6659 24.1279C23.1714 23.9815 22.6889 23.775 22.1872 23.655C21.6182 23.5182 21.0325 23.4654 20.4564 23.3693C19.4193 23.1965 18.3871 23.0309 17.3669 22.762C16.3106 22.4859 15.4896 21.8498 14.6254 21.2473C14.1501 20.916 13.8068 20.5247 13.5788 20.0014C13.3267 19.4252 13.2907 18.8443 13.4708 18.2466C13.5404 18.0161 13.6868 17.7881 13.6772 17.5624C13.658 17.1207 13.9101 16.835 14.1477 16.5398C15.2472 15.1811 16.3586 13.8296 17.6261 12.6245C18.1446 12.1324 18.6632 11.6067 19.4025 11.4098C19.717 11.3258 19.8658 11.1121 19.6498 10.7833C19.4793 10.5288 19.4193 10.368 19.765 10.1255C20.0147 9.95027 20.3987 9.6238 20.1155 9.15569C20.4804 9.1677 20.7804 9.13649 20.6748 8.67558C20.6412 8.52915 20.7228 8.50994 20.826 8.49314C20.9149 8.48114 21.0469 8.50995 21.0037 8.34671C20.8741 7.8666 21.2797 7.91221 21.5198 7.869C21.719 7.83299 21.9135 7.85219 21.9999 7.63134C22.1175 7.33128 22.3888 7.30967 22.6385 7.29047C23.0802 7.25926 23.2434 7.48971 23.061 7.8954C22.9169 8.21468 22.9457 8.45233 23.1522 8.7452C23.4282 9.13169 23.3946 9.6046 23.1666 9.99108C22.9169 10.4184 23.313 10.7665 23.2218 11.1553C23.2194 11.1674 23.3562 11.2154 23.4306 11.2346C23.9852 11.3834 24.5397 11.5394 25.0966 11.6763C25.7952 11.8443 26.4409 12.2068 27.1659 12.2668C27.5356 12.2956 27.1275 12.5861 27.2259 12.6197C27.4564 12.7469 27.5524 12.6149 27.67 12.5957C27.7492 12.5813 27.8284 12.5621 27.9077 12.5405C28.0205 12.5093 28.2053 12.4877 28.1981 12.6053C28.1693 13.0758 29.4248 12.8285 28.7623 13.5415C28.371 13.9616 28.431 14.5113 28.0877 14.941C27.7516 15.3611 27.586 15.9252 27.3795 16.439C27.2907 16.6574 27.1515 16.703 27.0147 16.5854C26.7218 16.3309 26.3473 16.3549 26.0472 16.3813C25.2118 16.4606 24.4461 16.1749 23.6491 16.0597C22.9001 15.9492 22.1367 15.9324 21.3878 15.8196C20.538 15.69 19.6906 15.7572 18.8792 15.9252C18.4279 16.0165 17.871 16.0837 17.5877 16.6742C17.3332 17.2095 17.3789 17.6416 17.9382 17.8721C18.0726 17.9273 18.207 17.9873 18.3439 18.0305C18.6752 18.1313 19.0496 18.1602 19.3329 18.3354C19.801 18.6283 20.3099 18.2154 20.7108 18.453C21.1693 18.7267 21.7094 18.4722 22.1632 18.7963C22.2952 18.8923 22.6505 18.6523 22.9409 18.6979C24.4581 18.9379 25.8864 19.4396 27.1299 20.3278C27.7108 20.7455 28.3446 21.1272 28.8127 21.701C29.0479 21.9866 29.1583 22.3539 29.2208 22.6756C29.4128 23.6814 29.5424 24.7305 29.2448 25.7219C29.0239 26.4516 28.695 27.1694 28.2365 27.8056C28.1981 27.856 28.1477 27.9064 28.1333 27.964C27.9173 28.9218 27.3699 29.702 26.729 30.4029C26.4049 30.7558 25.9248 30.9407 25.4807 31.1519C24.7918 31.476 24.0356 31.4184 23.3178 31.5816C23.1834 31.6128 23.1234 31.692 23.0802 31.7953C22.8929 32.249 22.6817 32.6859 22.4512 33.118C22.2448 33.5021 22.0815 33.987 21.8991 34.4263C21.8199 34.6207 21.7983 34.9712 21.5462 34.94C21.2629 34.904 20.9653 34.7335 20.7708 34.4863C20.5596 34.215 20.466 33.7973 19.9666 33.9558C19.8682 33.987 19.7698 33.8885 19.7458 33.7997C19.6474 33.4636 19.4937 33.118 19.5081 32.7819C19.5201 32.465 19.5874 32.1794 19.525 31.8337C19.4625 31.4952 19.3497 31.4232 19.0905 31.344C17.7413 30.9359 16.4354 30.4029 15.1271 29.8772C14.8463 29.7644 14.5414 29.6684 14.359 29.3875C14.335 29.3491 14.2822 29.3083 14.2413 29.3083C13.0843 29.2915 12.4289 28.3721 11.5647 27.832C11.3319 27.6879 11.3463 27.6039 11.4759 27.3927Z" fill="white"/>
</svg>
