<svg width="575" height="160" viewBox="0 0 575 160" fill="none" xmlns="http://www.w3.org/2000/svg">
<mask id="mask0_333_430" style="mask-type:luminance" maskUnits="userSpaceOnUse" x="-51" y="-309" width="652" height="635">
<path d="M190.355 -308.911L600.501 -33.5677L359.714 325.104L-50.4316 49.7604L190.355 -308.911Z" fill="white"/>
</mask>
<g mask="url(#mask0_333_430)">
<mask id="mask1_333_430" style="mask-type:luminance" maskUnits="userSpaceOnUse" x="-51" y="-309" width="652" height="635">
<path d="M190.355 -308.911L600.501 -33.5677L359.714 325.104L-50.4316 49.7604L190.355 -308.911Z" fill="white"/>
</mask>
<g mask="url(#mask1_333_430)">
<path d="M14.6107 -44.5053C25.5691 -32.2969 30.2878 -15.1198 27.2462 0.999954C23.5899 20.375 6.89719 33.3958 1.60032 51.9843C-2.10281 64.9948 0.959691 84.2968 16.3087 87.9948C24.2045 89.8958 32.5587 87.0416 40.1316 84.9531C48.0795 82.7656 55.9857 80.3906 64.0118 78.4479C79.5795 74.6823 96.3451 72.4218 111.684 78.375C130.819 85.8073 142.757 103.854 154.251 119.849C163.798 133.141 174.574 146.443 189.454 154.016C202.954 160.885 218.34 160.781 231.152 152.391C263.132 131.453 260.251 87.5833 275.809 56.6093C284.22 39.8593 297.397 24.7968 314.767 17.0729C329.954 10.3177 348.09 9.19267 363.382 16.2552C370.132 19.3698 375.803 24.901 378.527 31.8958C381.106 38.5052 379.902 47.052 372.178 49.4062C365.606 51.4218 358.022 47.3489 354.699 41.6354C350.475 34.3698 352.835 25.0625 356.928 18.3229C365.329 4.49995 381.918 -3.04171 397.767 -2.93233C406.033 -2.88025 414.189 -0.786503 421.324 3.41662C430.231 8.65621 437.314 16.3177 444.725 23.3906C451.053 29.427 457.741 34.9323 465.606 38.8541C472.168 42.125 479.189 44.3645 486.408 45.6041C501.356 48.177 517.121 46.3541 530.986 40.1614C558.902 27.6875 575.371 -2.83338 573.439 -32.9584C572.986 -40.1146 571.454 -47.1094 568.913 -53.8125C568.444 -55.0678 566.574 -54.1511 567.043 -52.9115C578.632 -22.2761 566.882 15.6354 539.106 33.4218C525.376 42.2135 508.663 45.8177 492.491 44.3177C484.335 43.5625 476.303 41.4843 468.835 38.1093C460.095 34.151 452.788 28.2448 445.902 21.651C438.637 14.6927 431.637 7.2135 422.96 1.97912C416.481 -1.92713 409.199 -4.23442 401.658 -4.8438C386.694 -6.04692 370.991 -0.708378 360.553 10.2343C351.522 19.7031 345.064 37.1145 356.731 47.25C360.981 50.9479 367.152 53.1041 372.71 51.4218C378.267 49.7448 381.694 44.8177 381.954 39.2812C382.616 24.8802 368.59 14.8593 356.267 11.4427C341.007 7.2135 324.241 9.69788 310.277 16.927C293.798 25.4635 281.444 40.3958 273.382 56.8645C264.543 74.9166 261.996 94.9323 255.616 113.823C250.152 129.995 240.434 146.615 224.194 153.865C207.814 161.177 190.757 154.552 177.809 143.661C163.22 131.385 153.965 114.568 142.033 99.9739C130.501 85.8698 116.132 74.8073 97.5274 72.9427C81.4545 71.3385 65.4337 75.6979 50.1055 80.0052C41.9389 82.3073 33.5899 85.2812 25.1472 86.302C15.3607 87.4791 7.32428 82.8229 3.97532 73.5C-3.37885 53.0208 12.7305 36.2656 22.1212 19.8385C30.2982 5.55204 32.5639 -10.8125 27.3399 -26.5782C24.9805 -33.7188 21.2045 -40.2657 16.1837 -45.8594C15.2878 -46.8542 13.7097 -45.5053 14.6055 -44.5053H14.6107Z" fill="#0EBE9D"/>
</g>
</g>
</svg>
