<svg width="114" height="120" viewBox="0 0 114 120" fill="none" xmlns="http://www.w3.org/2000/svg">
<path d="M113.645 40.5629C113.918 40.0586 113.695 39.6918 113.363 39.3754C113.186 39.2058 113.127 39.1209 113.278 38.9054C113.354 38.7977 113.535 38.5318 113.235 38.4768C112.771 38.3919 112.641 38.1696 112.815 37.7157C112.698 37.8486 112.593 37.9655 112.448 37.9036C112.263 37.8234 112.43 37.6652 112.407 37.5437C112.384 37.4062 112.453 37.1792 112.244 37.1861C112.004 37.1953 111.958 37.0073 111.825 36.9064C111.616 36.7482 111.515 36.4456 111.148 36.4915C111.013 36.5075 110.807 36.4044 110.772 36.1453C110.754 36.0055 110.562 35.8863 110.431 35.7671C109.924 35.3063 109.181 35.2833 108.718 34.7217C108.365 34.2953 107.721 34.2334 107.276 33.8735C106.46 33.2132 105.376 33.0253 104.558 32.3421C104.2 32.0418 103.751 31.8423 103.329 31.6246C102.705 31.3013 102.148 30.8612 101.522 30.5494C101.08 30.3293 100.619 30.1299 100.266 29.802C99.9016 29.4628 99.4041 29.449 99.0258 29.0937C98.4802 28.5847 97.7765 28.2294 97.1093 27.8672C95.9952 27.2574 94.8581 26.682 93.7188 26.118C93.517 26.0172 93.3978 25.7329 93.0563 25.8613C92.7674 25.9713 92.9256 25.5151 92.6574 25.4395C92.3525 25.3524 92.0063 25.2217 91.7725 25.052C91.1397 24.589 90.3557 24.4996 89.7207 24.0732C89.127 23.6766 88.3979 23.5826 87.7629 23.2547C87.4282 23.0805 87.0614 23.0255 86.7222 22.771C86.4837 22.5922 85.9863 22.4982 85.5851 22.6564C85.5415 22.5257 85.8258 22.5303 85.6905 22.3676C85.4659 22.3538 85.3581 22.5533 85.1931 22.6427C84.8492 22.8306 84.4939 22.6289 84.5328 22.2392C84.5901 21.6661 84.6658 21.0907 84.8492 20.5405C84.9317 20.2906 85.0028 20.0476 84.785 19.8229C84.7208 19.7587 84.6589 19.6968 84.7965 19.6235C85.2573 19.3805 85.2045 18.9059 85.2871 18.4933C85.3673 18.0875 85.1679 17.6886 85.2 17.3081C85.2412 16.8312 85.3192 16.3498 85.3535 15.8684C85.3833 15.4443 85.2206 15.0179 85.3604 14.5846C85.4452 14.3279 85.1747 14.376 85.0762 14.376C84.7208 14.3806 84.6566 14.1192 84.7804 13.9381C85.0968 13.4728 84.7598 13.2252 84.542 12.9065C84.3357 12.6062 83.9024 12.448 83.7947 12.205C83.5585 11.6732 82.9487 11.8543 82.6714 11.4623C82.6347 11.4095 82.4811 11.3362 82.3917 11.2078C82.2885 11.0611 82.2404 10.4857 81.8529 11.0107C81.7956 11.0886 81.7177 11.045 81.6604 10.99C81.6054 10.9373 81.5435 10.8869 81.6054 10.7998C81.6558 10.731 81.7635 10.6966 81.7337 10.582C81.2088 10.5178 81.179 10.488 80.9887 10.0088C80.9176 9.83233 80.7755 9.69936 80.5669 9.78419C80.4018 9.85296 80.3353 9.86671 80.3972 9.6581C80.4339 9.5366 80.3399 9.49304 80.2551 9.46553C79.4092 9.18356 78.6847 8.63107 77.8297 8.36973C77.6829 8.32388 77.4743 8.17258 77.5569 8.52562C77.5821 8.63107 77.5225 8.64712 77.4331 8.6517C77.323 8.654 77.2657 8.61503 77.252 8.50269C77.2382 8.38807 77.2657 8.2253 77.1259 8.19092C76.6192 8.05795 76.147 7.73013 75.5784 7.89977C75.5028 7.9227 75.3721 7.90894 75.324 7.85851C74.8976 7.41606 74.2832 7.54215 73.7743 7.345C73.3479 7.18223 72.855 7.18682 72.4309 6.9782C72.3506 6.93923 72.2865 6.93923 72.2314 7.008C72.0114 7.2831 71.8532 7.0401 71.679 6.89567C71.6629 7.07678 71.8165 7.23037 71.5987 7.37251C71.397 6.66642 70.8812 6.52888 70.2393 6.63433C70.1545 6.64808 70.0651 6.75125 70.0192 6.55409C69.9848 6.4005 69.845 6.52888 69.7602 6.56097C69.6409 6.60453 69.6043 6.68706 69.6662 6.81085C69.7051 6.89109 69.8335 6.96674 69.6868 7.08824C69.4507 6.99196 69.4851 6.74208 69.4002 6.56556C69.3659 6.4922 69.43 6.34548 69.304 6.35006C68.9761 6.35923 68.6964 5.92366 68.3388 6.25149C68.3182 6.26983 68.1898 6.22627 68.1829 6.19418C68.1119 5.93054 67.9422 6.02912 67.7749 6.05663C67.6946 6.06809 67.5846 6.04975 67.5204 6.00161C67.1444 5.72193 66.6745 5.7288 66.2687 5.57062C65.9913 5.46058 65.863 5.71505 65.5764 5.6371C65.1294 5.51102 64.8611 5.15339 64.4531 5.02272C63.8731 4.83932 63.2587 4.76597 62.7291 4.43814C62.6718 4.40376 62.5572 4.38083 62.5182 4.41293C62.2752 4.60549 62.0643 4.66739 61.8786 4.34415C61.858 4.30747 61.7663 4.31435 61.7159 4.28913C61.3674 4.12178 60.9617 4.31664 60.5926 4.07822C60.5009 4.01862 60.1249 3.58076 59.8842 4.04842C59.7856 3.92921 59.9644 3.64724 59.7466 3.73665C59.5082 3.83522 59.295 3.71601 59.2194 3.64495C58.9787 3.41799 58.7013 3.71831 58.4789 3.53032C58.2199 3.31025 57.8897 3.22772 57.5665 3.20938C57.3006 3.19333 56.9109 3.17958 56.7962 3.10622C56.4501 2.88385 56.1429 3.00306 55.8173 3.00306C55.6913 3.00306 55.5629 3.00076 55.4964 2.88155C55.407 2.7165 55.18 2.74859 55.1319 2.70503C54.8178 2.41618 54.4235 2.92511 54.1026 2.5331C53.9421 2.34053 53.4882 2.41389 53.2796 2.23278C52.9449 1.94623 52.6148 2.52622 52.2365 2.1067C51.9889 1.82702 51.3791 2.0448 50.9573 1.81556C50.6868 1.67113 50.3681 1.87745 50.0151 1.69176C49.5795 1.46252 49.0018 1.56568 48.4837 1.60694C48.4104 1.61382 48.3256 1.66425 48.2866 1.57485C48.1169 1.192 47.7272 1.28141 47.4429 1.22639C47.1358 1.16679 46.8377 1.10947 46.542 1.00402C46.2807 0.910029 46.0033 0.987973 45.7121 0.857302C45.2124 0.63264 44.6255 0.777066 44.0868 0.676197C43.72 0.607423 43.3692 0.536356 43.0139 0.717461C42.9749 0.738094 42.8855 0.705999 42.8465 0.66932C42.5646 0.387345 42.1909 0.309402 41.831 0.316279C41.4573 0.323157 41.0882 0.527187 40.7306 0.229165C40.5449 0.0732771 40.3455 0.297939 40.1116 0.268137C39.6531 0.210825 39.1603 0.0824468 38.6949 0.281892C38.5757 0.332326 38.4954 0.476752 38.3739 0.518016C38.1447 0.600546 38.1676 0.426317 38.1791 0.281892C38.1516 0.281892 38.1103 0.268137 38.0942 0.284184C37.8604 0.513432 37.622 0.277307 37.3905 0.272722C36.8151 0.263552 36.2167 -0.00466667 35.7124 0.495092C35.639 0.563866 35.6069 0.522601 35.5313 0.483629C35.1003 0.256675 34.6372 0.226873 34.1581 0.27043C33.6904 0.313986 33.2182 0.366714 32.7505 0.352959C31.9458 0.327742 31.1526 0.451535 30.3572 0.513432C29.7313 0.563866 29.2614 1.08426 28.5805 1.13469C28.2825 1.15762 27.8446 1.46022 27.5626 1.77658C27.3449 2.02188 27.1019 2.24425 26.8703 2.48037C26.0129 3.3538 25.167 4.2364 24.4678 5.24738C24.2065 5.62564 24.0299 6.02682 23.9245 6.48303C23.8465 6.81314 24.0276 7.18911 23.8603 7.42753C23.4568 7.99606 23.5531 8.63107 23.4454 9.24316C23.3949 9.52972 23.7732 9.75668 23.56 9.94237C23.2918 10.1739 23.1955 10.3115 23.5187 10.5384C23.5187 10.5407 23.4706 10.6462 23.427 10.6737C23.1382 10.8433 23.2505 11.0359 23.3789 11.2422C23.5073 11.4462 23.6012 11.719 23.3582 11.8405C23.0831 11.9781 23.1519 12.1179 23.2253 12.3059C23.3353 12.5879 23.4133 12.9111 23.4179 13.1839C23.4247 13.8648 23.3216 14.5479 23.2207 15.2242C23.1244 15.873 23.1955 16.5172 23.0465 17.1866C22.8585 18.0256 22.7209 18.8922 22.5375 19.7427C22.4619 20.0843 22.4252 20.4373 22.3266 20.7651C22.1295 21.4254 21.9988 22.1016 21.7971 22.7527C21.6435 23.257 21.6366 23.7774 21.4738 24.2795C21.3157 24.7609 21.1345 25.2652 21.0887 25.7604C21.0406 26.306 20.8274 26.8081 20.7746 27.3583C20.7334 27.7984 20.5637 28.3096 20.4239 28.7773C20.2932 29.2152 19.7705 29.6668 20.2336 30.2009C20.2428 30.2124 20.2176 30.2789 20.2084 30.2789C19.892 30.288 20.0227 30.5563 19.9585 30.7099C19.5711 31.6223 19.4221 32.6057 19.0897 33.5388C18.8719 34.144 18.7297 34.7882 18.5074 35.4003C18.2758 36.033 18.1177 36.6863 17.8747 37.3168C17.7348 37.679 17.5812 38.0481 17.5079 38.447C17.4001 39.0292 17.3405 39.6367 17.0585 40.1778C16.9829 40.3245 16.8751 40.4643 16.843 40.6202C16.7101 41.2621 16.4969 41.8742 16.2218 42.4634C16.1209 42.6834 16.2699 42.9219 16.114 43.1007C15.8481 43.4056 15.7014 43.8022 15.6303 44.1552C15.5157 44.7375 15.181 45.2074 15.0205 45.7531C14.8532 46.3262 14.546 46.8557 14.4933 47.4632C14.4749 47.6948 14.3832 47.8942 14.2594 48.0891C14.0646 48.3963 13.8858 48.7333 13.927 49.0955C13.9477 49.2697 13.8789 49.3133 13.8239 49.4302C13.7024 49.6869 13.3998 49.9299 13.4892 50.205C13.5625 50.4389 13.5098 50.5191 13.3608 50.6452C13.2553 50.7323 13.2072 50.863 13.1751 50.9982C13.0673 51.4132 12.939 51.8419 12.7602 52.2087C12.3636 53.0202 12.0953 53.8799 11.6942 54.6914C11.2242 55.6428 10.9491 56.6904 10.5938 57.6945C10.3966 58.2562 10 58.7422 9.98397 59.4024C9.97021 59.9068 9.57591 60.3561 9.38563 60.849C9.0303 61.7637 8.59702 62.66 8.12707 63.522C7.80612 64.1066 7.7213 64.7645 7.37972 65.3331C7.10004 65.8007 7.06795 66.4036 6.80202 66.8507C6.42605 67.488 6.38479 68.2422 5.9538 68.8474C5.6512 69.2761 5.63515 69.8332 5.34859 70.3008C4.86488 71.0894 4.49809 71.9514 4.10149 72.7905C3.76908 73.4943 3.51691 74.2416 3.13177 74.9156C2.69391 75.6836 2.38443 76.5157 1.92593 77.2745C1.59352 77.827 1.38032 78.4506 0.999774 78.9778C0.564205 79.5876 0.5046 80.3281 0.259306 81.0044C0.165314 81.2657 0.15156 81.5179 0.137805 81.7884C0.12405 82.0589 0.213456 82.3638 0.0117188 82.6091C0.0117188 82.6687 0.0117188 82.7306 0.0117188 82.7902C0.103418 82.8934 0.463335 82.8865 0.149267 83.1593C0.0667375 83.2304 0.13322 83.3702 0.190532 83.4528C0.325787 83.6614 0.51377 83.8402 0.215749 84.0786C0.14239 84.1382 0.215749 84.3285 0.332665 84.3101C0.740724 84.2482 0.669658 84.4569 0.649026 84.7297C0.632978 84.9543 0.837008 85.1675 1.01353 85.2707C1.72878 85.6902 2.36838 86.2198 3.063 86.6668C3.2143 86.7631 3.37707 86.8502 3.54212 86.9144C3.84015 87.0267 4.10607 87.1895 4.37658 87.3385C4.81674 87.5861 5.24085 87.9368 5.74977 88.0331C6.28851 88.1386 6.72637 88.4022 7.19632 88.6567C7.82217 88.9937 8.51679 89.2 9.20911 89.388C9.47504 89.459 9.72492 89.5943 9.97709 89.7112C10.7313 90.0688 11.5497 90.2522 12.3429 90.454C13.5442 90.7611 14.7019 91.2288 15.9329 91.4283C16.474 91.5154 17.0035 91.7515 17.5445 91.7744C18.4432 91.8111 19.2433 92.2948 20.1167 92.3086C20.5156 92.3132 20.8595 92.4324 21.2285 92.492C21.4532 92.5286 21.5105 92.5974 21.3959 92.8565C21.013 93.723 20.5821 94.5689 20.3138 95.4859C20.2405 95.7335 19.9998 95.9421 19.9608 96.1874C19.8508 96.9141 19.6376 97.6294 19.6697 98.3744C19.672 98.4295 19.7018 98.4891 19.7293 98.5395C19.8485 98.7665 19.8095 98.7481 19.7247 98.9636C19.649 99.1539 19.8393 99.3419 19.9516 99.4634C20.1488 99.6766 20.08 99.2502 20.2795 99.296C20.2588 100.075 20.9443 100.257 21.4463 100.587C21.8865 100.876 22.4573 101.015 22.8401 101.297C23.4683 101.763 24.1239 102.164 24.8392 102.382C25.841 102.687 26.7534 103.23 27.7988 103.418C28.1358 103.477 28.4338 103.732 28.7593 103.874C29.3622 104.138 29.9927 104.339 30.5933 104.576C31.1114 104.782 31.6685 104.917 32.182 105.178C32.7322 105.46 33.3236 105.891 34.0412 105.635C34.0847 105.619 34.1718 105.687 34.2223 105.733C34.8665 106.306 35.6298 106.595 36.4781 106.685C36.595 106.698 36.6592 106.781 36.7348 106.854C36.8563 106.969 36.9893 107.116 37.1543 107.102C37.6151 107.058 37.9292 107.372 38.3097 107.526C38.6834 107.68 39.0846 107.767 39.4583 107.923C40.6733 108.432 41.8745 108.97 43.0895 109.477C43.6741 109.72 44.3344 109.828 44.8502 110.162C45.4852 110.577 46.2096 110.731 46.8607 111.086C47.7731 111.586 48.7726 111.928 49.7194 112.363C50.1641 112.569 50.5492 112.918 51.0054 113.067C52.0439 113.406 52.9128 114.057 53.8917 114.502C54.6276 114.834 55.3543 115.187 56.0879 115.527C56.5922 115.761 57.0232 116.116 57.5344 116.343C58.2015 116.641 58.8526 116.973 59.5036 117.306C59.8315 117.473 60.1593 117.656 60.4711 117.844C60.7164 117.993 60.9502 117.847 61.1955 117.98C61.5852 118.188 61.8122 118.589 62.2363 118.75C62.383 118.805 62.532 118.933 62.6856 118.924C62.9882 118.906 63.1739 119.149 63.4054 119.208C63.8272 119.318 64.2032 119.594 64.6571 119.582C64.8887 119.461 65.0583 119.275 65.2165 119.073C65.3311 118.926 65.432 118.869 65.5374 119.098C65.6681 119.387 66.0372 119.307 66.1931 119.296C66.4407 119.277 66.1151 119.025 66.1679 118.828C66.6034 118.828 66.5988 119.179 66.6882 119.506C66.851 119.318 67.039 119.348 67.2453 119.373C67.4402 119.399 67.7038 119.534 67.8047 119.199C67.8139 119.174 67.8872 119.144 67.9216 119.151C68.5176 119.302 68.8294 118.86 69.1343 118.514C69.9596 117.572 70.4571 116.423 71.0141 115.316C71.9884 113.381 72.6899 111.334 73.4923 109.328C73.9508 108.186 74.4987 107.081 74.9893 105.953C75.5074 104.757 75.998 103.549 76.5184 102.354C76.9608 101.336 77.4422 100.332 77.8824 99.3121C78.3707 98.1842 78.9484 97.0975 79.4481 95.9719C79.847 95.0802 80.356 94.2182 80.8488 93.3608C81.3784 92.4392 81.8392 91.481 82.3642 90.5548C82.7241 89.9221 83.1 89.2917 83.5104 88.6979C83.9001 88.1409 84.2509 87.554 84.6543 87.0038C85.2389 86.206 85.7089 85.3165 86.2774 84.5096C87.121 83.3129 87.8271 82.0245 88.7074 80.8645C89.1843 80.2364 89.6909 79.6174 90.1448 78.9733C90.7523 78.1136 91.3484 77.2379 91.9811 76.4034C92.7903 75.3397 93.5468 74.2278 94.4294 73.2123C94.9544 72.6071 95.3006 71.8597 95.8485 71.2591C96.0984 70.984 96.3368 70.6906 96.6027 70.4315C97.1368 69.9088 97.3386 69.1775 97.8292 68.6182C98.2808 68.1001 98.6384 67.5132 99.1336 67.0066C99.505 66.6329 99.8764 66.2019 100.188 65.7572C100.812 64.8723 101.515 64.0516 102.146 63.1781C102.701 62.4124 103.336 61.7155 103.874 60.9384C104.317 60.2965 104.791 59.6569 105.284 59.0425C106.103 58.0224 106.827 56.938 107.474 55.7941C107.795 55.2278 108.191 54.6891 108.508 54.1252C108.902 53.4168 109.347 52.7451 109.771 52.0574C110.422 50.9982 111.08 49.9391 111.623 48.8181C112.32 47.3761 113.113 45.9777 113.624 44.4486C113.725 44.146 113.732 43.8434 113.661 43.5454C113.608 43.3253 113.755 43.4216 113.835 43.401C113.835 42.6789 113.835 41.9567 113.835 41.2346C113.51 41.0856 113.523 40.783 113.645 40.5629ZM20.8297 88.5099C20.3895 88.5489 20.0594 88.377 19.7109 88.1798C19.5482 88.0904 19.351 88.0171 19.1951 88.1133C18.9842 88.2394 18.8512 88.2234 18.6449 88.0835C18.3721 87.9001 18.0466 87.8979 17.7554 88.1042C17.6523 87.7466 17.3909 87.6594 17.0562 87.8405C16.8178 87.9689 16.4419 87.7328 16.4327 87.7122C16.2012 87.2147 15.6831 87.3683 15.3185 87.2537C14.8234 87.0955 14.3213 86.7837 13.8032 86.8617C13.3241 86.935 13.0421 86.3115 12.5538 86.6026C12.5355 86.6141 12.4644 86.5361 12.4186 86.4994C12.1962 86.3344 11.9784 86.1877 11.8202 86.5705C11.779 86.6714 11.6964 86.7058 11.6025 86.6622C11.4328 86.5843 11.6139 86.5384 11.6185 86.4788C11.6345 86.2381 11.3824 86.0547 11.2678 86.0891C10.784 86.2312 10.4425 85.8851 10.1261 85.7131C9.65844 85.4587 9.19994 85.3784 8.70477 85.3211C8.636 85.3142 8.5443 85.2982 8.50303 85.2523C8.06517 84.7434 7.37972 84.7617 6.86392 84.4752C6.31831 84.1726 5.66495 84.1084 5.19041 83.6545C5.00701 83.478 4.7365 83.3565 4.48433 83.2946C3.8241 83.1295 3.51691 82.5289 3.00798 82.1827C2.93233 82.13 2.95754 82.0566 2.96213 81.981C2.99193 81.3849 2.96901 80.7912 2.96901 80.1974C2.9713 79.7298 3.08592 79.2025 3.41604 78.8495C3.78742 78.4529 3.96852 77.9646 4.23674 77.5198C5.28899 75.7707 6.14408 73.9161 7.07482 72.1004C7.70296 70.8694 8.29442 69.6246 8.87212 68.3729C9.40397 67.2198 9.84184 66.0231 10.3393 64.8516C10.9949 63.3042 11.6598 61.7637 12.3704 60.2415C12.9917 58.9141 13.5258 57.5432 14.0348 56.1655C14.5804 54.6891 15.1948 53.2403 15.7266 51.7593C15.9994 51.0005 16.3662 50.2853 16.584 49.499C16.788 48.7562 17.1984 48.0662 17.4047 47.3188C17.7784 45.9456 18.3905 44.6573 18.7916 43.2909C18.9773 42.6559 19.1997 42.0117 19.4771 41.3974C19.9425 40.3703 20.2038 39.2722 20.5408 38.2017C20.9901 36.7597 21.3959 35.3063 21.8292 33.862C22.0882 33.0023 22.3885 32.1564 22.6178 31.2899C22.8058 30.5746 22.8975 29.8341 23.1634 29.1349C23.6517 27.858 23.748 26.4848 24.101 25.1735C24.2477 24.6325 24.3967 24.0777 24.4311 23.484C24.454 23.053 24.6237 22.5395 24.7567 22.0718C24.9492 21.3956 25.0065 20.6826 25.1945 20.0063C25.3435 19.4699 25.3894 18.9151 25.4627 18.3787C25.6095 17.3172 26.0932 16.304 25.9121 15.1875C25.8502 14.8093 26.0863 14.4287 26.1344 14.0253C26.1917 13.5507 26.0725 13.6034 25.6943 13.7731C26.2513 13.067 26.1917 12.2646 26.2651 11.5127C26.2995 11.1551 26.4508 10.8341 26.515 10.4971C26.6777 9.63976 26.7626 8.76633 26.9528 7.91353C26.9804 7.79661 26.9826 7.66823 27.0354 7.56507C27.3494 6.94152 27.4824 6.26066 27.6543 5.59584C27.73 5.30011 27.9867 5.1832 28.1518 4.97687C28.945 3.98194 30.0179 3.74123 31.2191 3.82147C31.7854 3.86044 32.347 3.86273 32.9133 3.71601C33.1815 3.64724 33.4772 3.88566 33.7959 3.80313C34.1237 3.7206 34.4492 3.82147 34.777 3.86502C35.2241 3.92463 35.6803 3.83064 36.1388 3.83522C36.76 3.8421 37.3813 3.97048 38.0026 3.86961C38.7018 3.75499 39.3895 3.87419 40.0795 3.94755C40.2262 3.9636 40.7283 3.79854 40.8773 3.6885C40.9553 3.6289 40.9851 3.67475 41.0103 3.72518C41.2258 4.16534 41.682 4.16075 42.0465 4.18826C43.3761 4.28684 44.6805 4.5413 45.9872 4.7866C47.3673 5.04335 48.7405 5.3345 50.116 5.61418C50.3246 5.65545 50.5263 5.70817 50.7349 5.61647C50.7877 5.59355 50.8656 5.57292 50.9092 5.59584C51.5923 5.9443 52.3695 5.92825 53.0824 6.16208C53.7518 6.37987 54.4419 6.4601 55.1457 6.51971C55.7073 6.56556 56.2713 6.62975 56.8146 6.93235C57.2158 7.15243 57.7224 7.28998 58.2382 7.28768C58.5523 7.28768 58.8709 7.45274 59.1827 7.55361C59.765 7.74389 60.3839 7.80578 60.9548 8.03732C61.2161 8.14507 61.5233 7.99835 61.7548 8.11068C62.2982 8.37202 62.9469 8.30783 63.4467 8.7136C63.6393 8.87407 63.9098 9.01162 64.2009 8.88095C64.2582 8.85573 64.3316 8.82135 64.3568 8.88783C64.4943 9.26609 64.852 9.19043 65.1202 9.23858C65.8469 9.36466 66.5713 9.48387 67.2728 9.72458C67.4058 9.77043 67.5686 9.84837 67.6763 9.67415C67.9262 9.27296 68.0889 9.58474 68.2242 9.75897C68.4787 10.0845 68.8821 10.2243 69.265 10.0616C69.3704 10.0157 69.4392 9.97675 69.5492 10.0524C70.0054 10.3665 70.5236 10.504 71.0669 10.5545C72.1283 10.653 73.1301 11.0267 74.1663 11.2353C74.3955 11.2835 74.5789 11.311 74.6775 10.9533C74.838 11.4302 75.1658 11.4531 75.5165 11.5288C76.0369 11.6411 76.5527 11.8016 77.0594 11.9918C77.7311 12.244 78.3638 12.5627 79.0011 12.8836C79.3358 13.0532 79.6384 13.2435 79.9089 13.5324C80.3422 13.9977 80.842 14.4127 81.3578 14.7841C81.6054 14.9606 81.7933 15.2426 82.1235 15.3022C81.9813 15.6437 82.3023 15.8592 82.3665 16.1504C82.4765 16.6593 82.4077 17.1591 82.4238 17.6634C82.4559 18.6171 82.3848 19.573 82.2793 20.5175C82.1991 21.2328 81.9997 21.9366 81.775 22.6289C81.493 23.5023 81.2363 24.3872 81.0139 25.2721C80.9428 25.5564 80.8672 25.7948 80.7044 26.0149C80.521 26.2648 80.7182 26.572 80.5027 26.847C80.1313 27.3216 80.129 27.9979 79.7118 28.4724C79.5926 28.61 79.6315 28.8415 79.588 29.0249C79.5169 29.3183 79.3381 29.5453 79.2372 29.8158C79.2006 29.9121 79.118 30.0267 79.1478 30.1047C79.3289 30.5769 78.9782 30.8703 78.8361 31.2463C78.7191 31.5604 78.6045 31.9134 78.4647 32.1977C78.2492 32.631 78.1896 33.1032 77.9764 33.5204C77.6806 34.0981 77.5706 34.7515 77.2611 35.3086C77.0387 35.7075 76.9746 36.1614 76.6995 36.5511C76.4817 36.8583 76.3762 37.3076 76.3143 37.6996C76.2731 37.9564 76.053 37.9587 75.9911 38.1329C75.8535 38.5111 75.7252 38.8963 75.5601 39.2654C75.3652 39.7009 75.3194 40.1801 75.0466 40.6065C74.6317 41.2552 74.5789 42.0645 74.2786 42.766C74.0104 43.3941 73.8385 44.0635 73.4717 44.6481C73.2883 44.9415 73.2287 45.2854 73.0567 45.5926C72.7014 46.2391 72.369 46.9199 72.1695 47.626C72.0251 48.1349 71.8005 48.6209 71.6148 49.0955C71.4382 49.5494 71.3832 50.0583 71.0783 50.5031C70.817 50.8859 70.6726 51.4063 70.535 51.8854C70.4685 52.1147 70.331 52.2728 70.2141 52.4608C69.8037 53.1142 69.6616 53.8822 69.3177 54.5722C69.0128 55.1889 68.8569 55.8995 68.4924 56.491C67.752 57.6922 67.4654 59.0792 66.8693 60.34C66.7066 60.6862 66.4705 61.1103 66.6355 61.5619C66.6699 61.6536 66.5576 61.672 66.5186 61.7293C66.1908 62.2015 66.012 62.7334 65.8928 63.2905C65.8515 63.4784 65.824 63.6733 65.7002 63.8361C65.3494 64.2854 65.1477 64.8241 64.9574 65.3422C64.7259 65.9681 64.2949 66.4724 64.0794 67.1028C63.8112 67.8777 63.4215 68.609 63.1624 69.3861C62.8231 70.4063 62.2294 71.3141 61.9245 72.3434C61.6242 73.3636 60.9548 74.221 60.6224 75.2228C60.4756 75.6606 60.2556 76.0618 60.0882 76.4859C60.0057 76.6968 59.8613 76.8688 60.0286 77.1072C60.0676 77.1645 60.0217 77.3341 59.9598 77.3983C59.4761 77.9027 59.2836 78.5835 59.0933 79.1933C58.9282 79.7275 58.6577 80.2708 58.6806 80.8875C58.6944 81.2589 58.472 81.66 58.3161 82.0039C57.8416 83.0401 57.6628 84.1565 57.3739 85.234C57.0965 86.2679 56.8742 87.3293 56.6701 88.3861C56.5762 88.8722 56.379 89.3513 56.3652 89.8258C56.3469 90.3898 56.0764 90.8551 55.9595 91.3732C55.8632 91.7882 55.4781 92.1687 55.0815 92.2627C54.4671 92.4117 53.9054 92.6731 53.3117 92.8611C52.7615 93.033 52.1769 93.1201 51.6542 93.3539C51.2301 93.5419 50.7212 93.3952 50.3521 93.7322C50.3292 93.7551 50.2604 93.7643 50.2375 93.7482C49.6346 93.2875 48.9399 93.5396 48.2889 93.5167C47.9519 93.5052 47.592 93.4754 47.2641 93.6863C47.1128 93.7849 47.1931 93.4433 47.0211 93.4456C46.6704 93.4479 46.3219 93.4617 45.9689 93.4388C45.8199 93.4296 45.7236 93.4708 45.5792 93.3539C45.3339 93.1568 44.4902 93.3218 44.2656 93.5969C44.1418 93.3264 44.1028 92.9848 43.736 93.0444C43.1698 93.1339 42.599 92.508 41.9983 93.0284C41.941 92.657 41.7003 92.6364 41.3817 92.8129C41.3037 92.8565 41.2006 92.9069 41.1501 92.7854C41.0057 92.4347 40.6504 92.5424 40.3959 92.4415C40.2515 92.3842 40.0956 92.4026 40.0704 92.6249C40.0589 92.7075 40.0176 92.8175 39.9007 92.8037C39.8044 92.79 39.7517 92.6983 39.7402 92.6066C39.6829 92.1022 39.3093 92.1802 38.9975 92.2398C38.7912 92.2788 38.6742 92.2696 38.4817 92.1412C38.1653 91.928 37.7962 91.6529 37.379 92.0037C37.3011 92.0702 37.1818 92.0656 37.136 91.9853C36.893 91.5429 36.4758 91.6002 36.0677 91.5521C35.7995 91.52 35.5519 91.3526 35.2768 91.5291C35.2401 91.552 35.1347 91.5612 35.1897 91.4535C35.3158 91.2013 35.1186 91.2724 35.0315 91.3113C34.7197 91.4512 34.4653 91.4053 34.2452 91.1417C34.2016 91.089 34.1191 91.0362 34.0572 91.0408C33.5231 91.0844 33.0806 90.7497 32.5465 90.6924C31.9894 90.6351 31.3934 90.4998 30.8225 90.4012C30.3663 90.321 29.9308 90.243 29.4791 90.1238C28.8166 89.9519 28.0922 89.8465 27.4045 89.7204C26.8061 89.608 26.2078 89.6952 25.6255 89.5507C25.5682 89.537 25.4742 89.537 25.4581 89.5026C25.2564 89.0555 24.8942 89.2825 24.587 89.2894C24.5366 89.2894 24.454 89.3673 24.4403 89.2848C24.3761 88.8905 24.0185 88.9707 23.8099 88.9593C22.8012 88.8974 21.8521 88.4137 20.8297 88.5099ZM92.6276 47.7911C92.6872 48.0478 92.3937 48.3642 92.7376 48.6003C92.7491 48.6095 92.7491 48.6576 92.7399 48.6782C92.3639 49.3958 92.5932 50.1729 92.5267 50.9226C92.4717 51.5805 92.6138 52.2293 92.8339 52.8391C92.9829 53.2517 93.2419 53.6552 93.5445 53.9762C94.1841 54.6593 94.7458 55.4387 95.688 55.7895C96.1029 55.9431 96.1075 56.2709 95.8187 56.6171C94.9384 57.6785 94.0924 58.7674 93.1938 59.8128C91.9742 61.2341 91.0137 62.8457 89.856 64.3152C89.0765 65.3055 88.3979 66.3853 87.6414 67.3986C87.1302 68.0863 86.7267 68.852 86.094 69.4503C85.812 69.7186 85.7295 70.1289 85.514 70.4544C84.636 71.7841 83.8313 73.1596 82.9281 74.4686C82.4994 75.0921 82.0157 75.6859 81.6099 76.3232C81.344 76.745 81.0208 77.1393 80.8167 77.5932C80.4981 78.3084 79.9112 78.8449 79.5719 79.5395C79.1341 80.4359 78.4486 81.1878 78.1002 82.1323C78.091 82.1598 78.0727 82.1873 78.0543 82.2102C77.2244 83.2487 76.6834 84.4523 76.0599 85.6145C75.7573 86.1808 75.5509 86.7883 75.2323 87.3316C74.462 88.6452 73.7445 89.984 73.0567 91.3411C72.5065 92.4186 71.8807 93.4525 71.3076 94.5139C70.9454 95.1856 70.5877 95.8917 70.3035 96.623C69.9894 97.4299 69.7212 98.2461 69.4782 99.0714C69.4002 99.3396 69.1228 99.1883 69.0105 99.3487C68.8409 99.5918 68.7331 99.5321 68.591 99.3029C68.5131 99.1814 68.2723 99.1585 68.1715 99.2227C67.713 99.523 67.2682 99.1997 66.8212 99.2089C66.4361 99.2181 66.0257 99.3831 65.6337 99.1837C65.5833 99.1585 65.4526 99.2662 65.3724 99.3304C65.2004 99.4657 65.0331 99.7132 64.9047 99.2937C64.8955 99.2639 64.8038 99.2548 64.7488 99.2433C64.2376 99.147 63.747 99.3579 63.2335 99.3396C63.0616 99.3327 62.9263 99.5963 62.6306 99.4198C62.4013 99.2823 61.5669 99.6903 61.3124 99.9631C61.333 99.6193 61.1726 99.5688 60.9387 99.7064C60.4596 99.9838 59.8681 99.9425 59.3982 100.323C59.2079 100.479 58.8342 100.461 58.6967 100.779C58.3459 100.415 58.1282 100.935 57.8278 100.91C57.8003 100.908 57.7659 100.919 57.743 100.935C57.1034 101.428 56.34 101.703 55.6317 102.116C55.6317 102.04 55.6179 101.948 55.6339 101.861C55.744 101.274 55.6683 101.206 55.0585 101.362C55.0173 101.373 54.9783 101.391 54.9141 101.414C55.0585 101.13 55.0058 100.935 54.7101 100.837C54.3823 100.729 54.1072 100.422 53.7106 100.584C53.6601 100.286 53.3071 100.357 53.2177 100.231C53.0022 99.9356 52.5804 100.059 52.413 99.7453C52.3947 99.711 52.3374 99.6834 52.2961 99.6812C51.7986 99.6353 51.3768 99.4038 50.9436 99.1768C50.8335 99.1195 50.7051 99.0599 50.5859 99.0095C50.3567 98.9155 50.1251 98.6152 49.8317 98.8994C49.8157 98.9132 49.8317 98.9865 49.7583 98.9223C49.4466 98.6495 49.1852 98.5578 48.8666 98.5808C48.8253 98.5831 48.7611 98.6014 48.7451 98.5831C48.3829 98.1131 47.8258 98.0925 47.326 97.9022C46.8056 97.705 46.2853 97.7073 45.7717 97.5858C45.366 97.4896 45.4668 97.0792 45.4118 96.756C45.774 97.242 46.2142 97.1961 46.6727 97.0081C47.0762 96.8431 47.4819 96.9233 47.8671 97.0356C48.149 97.1182 48.3966 96.9944 48.6603 97.0035C48.8116 97.0081 48.807 96.8454 48.8643 96.7101C48.9193 96.9783 49.0706 97.1273 49.3113 97.0586C49.7698 96.9279 50.3131 97.0884 50.696 96.811C51.0651 96.5428 51.5167 96.7147 51.8697 96.435C52.0531 96.2883 52.3649 96.4098 52.6239 96.3089C53.0274 96.1507 53.3804 95.8917 53.7633 95.7496C54.0888 95.6281 54.4579 95.5685 54.8041 95.4538C55.0952 95.3576 55.3589 95.204 55.4895 94.9724C55.6706 94.6538 55.9388 94.5231 56.2254 94.3603C56.6587 94.1127 56.8994 93.6772 57.1172 93.2577C57.6834 92.1664 58.2863 91.0844 58.7288 89.9404C59.2079 88.7002 59.5059 87.3935 59.8085 86.0914C60.1295 84.709 60.4206 83.3198 60.8539 81.9626C61.1565 81.0067 61.4706 80.0484 61.7296 79.0833C61.8924 78.4804 62.1767 77.9187 62.2844 77.3043C62.3463 76.9398 62.5618 76.9696 62.8025 77.0774C62.9676 77.1507 63.0822 77.2929 63.1991 77.435C63.5063 77.7995 64.0244 77.9256 64.4806 77.7399C64.6548 77.6688 64.8864 77.7193 64.9597 77.7537C65.2784 77.9073 65.6085 77.6482 65.9019 77.8339C65.9134 77.8408 65.9363 77.8316 65.9455 77.8385C66.1105 78.0058 66.161 77.3892 66.4109 77.7789C66.4796 77.8866 66.9725 77.7651 67.0161 77.7078C67.3393 77.302 67.7084 77.6024 68.0477 77.5657C68.2953 77.5382 68.5314 77.4281 68.7698 77.3502C69.579 77.0866 70.3791 76.7771 71.115 76.3759C71.8165 75.9908 72.6189 75.734 73.1209 74.9912C73.4258 74.5373 73.9049 74.1935 74.3176 73.8175C74.5766 73.5791 74.7417 73.2811 74.9434 73.022C75.6564 72.1096 76.218 71.0917 76.6834 70.0257C77.0089 69.2853 77.3643 68.5586 77.6784 67.8158C77.8984 67.2931 77.8549 66.7131 77.9672 66.1652C77.997 66.0231 77.9764 65.8718 78.0108 65.7228C78.0474 65.56 78.2423 65.3124 77.8686 65.2459C77.8411 65.2414 77.8159 65.0442 77.8434 64.9548C78.185 63.9071 78.0245 62.8595 77.848 61.8118C77.8274 61.7018 77.8159 61.5276 77.6554 61.5688C77.5064 61.6078 77.6875 61.7476 77.6325 61.8416C77.456 61.8485 77.362 61.7018 77.3918 61.5917C77.6417 60.7183 77.2313 60.0122 76.8164 59.3268C76.5321 58.8591 76.1264 58.4694 75.9429 57.933C75.8994 57.8069 75.7275 57.7702 75.6266 57.6647C75.5051 57.5364 75.34 57.4768 75.3859 57.2452C75.3996 57.1833 75.3034 57.0458 75.2437 57.0366C74.8196 56.9724 74.76 56.6171 74.6133 56.3145C74.5514 56.1884 74.4139 56.0371 74.2924 56.0164C73.7628 55.9316 73.6115 55.4204 73.2608 55.1384C73.0269 54.9482 72.8137 54.7716 72.518 54.696C71.9793 54.5607 71.8738 54.3567 72.0847 53.8478C72.6945 52.3783 73.3364 50.9226 73.9118 49.4394C74.556 47.7796 75.2369 46.1359 75.9154 44.4899C76.7361 42.4977 77.5385 40.4987 78.2446 38.4584C78.7123 37.1081 79.3794 35.829 79.8791 34.4879C80.1198 33.8322 80.5325 33.243 80.6127 32.5209C80.6609 32.0853 80.8649 32.4453 81.0093 32.4728C81.6237 32.5943 82.1739 32.9106 82.7906 33.0344C83.3545 33.1491 83.8703 33.4035 84.3655 33.7222C84.8859 34.0546 85.498 34.2173 86.0482 34.5222C87.0041 35.0518 87.8523 35.7487 88.8243 36.2324C90.0944 36.8629 91.1879 37.7936 92.5198 38.3186C92.8797 38.4584 93.2167 38.6991 93.5583 38.9054C94.2162 39.3043 94.9338 39.5726 95.633 39.882C95.8645 39.9829 95.876 40.0723 95.7339 40.2328C94.9682 41.0879 94.4363 42.0943 93.9228 43.1007C93.6752 43.5844 93.4804 44.1094 93.2924 44.632C93.125 45.102 92.9783 45.572 92.8614 46.0511C92.7238 46.6196 92.4831 47.1698 92.6276 47.7911ZM74.5308 67.1968C74.6546 68.3499 74.4804 69.4503 73.9691 70.4659C73.5634 71.2706 72.9673 72.0225 72.1397 72.3847C71.1196 72.8317 70.088 73.2948 68.9624 73.4943C68.5016 73.5768 68.0568 73.7671 67.5708 73.7671C67.4516 73.7671 67.3049 73.8106 67.2178 73.939C67.1674 74.0169 67.055 74.1109 66.9977 74.0605C66.5324 73.6639 66.0211 74.2668 65.5535 73.9871C65.5283 73.9734 65.4434 74.0284 65.4068 74.0697C65.2256 74.2737 65.0789 74.6153 64.8222 74.1018C64.7992 74.0559 64.3935 73.861 64.1711 73.861C63.9579 73.8633 63.8525 74.1476 63.8204 74.3425C63.7653 74.6818 63.614 74.8606 63.2381 74.8399C65.4618 69.0377 68.3824 63.5174 70.4937 57.5753C71.2709 58.2195 71.8967 58.9118 72.4125 59.7027C72.8046 60.3034 73.2172 60.8971 73.5496 61.5298C73.7651 61.9425 73.8545 62.4216 74.0035 62.8686C74.2809 63.6985 74.54 64.533 74.5606 65.4133C74.5743 66.007 74.4689 66.61 74.5308 67.1968ZM110.779 45.4367C110.777 46.2643 110.442 46.9933 110.089 47.7085C109.945 48.002 109.791 48.2977 109.661 48.598C109.535 48.8869 109.347 49.1299 109.191 49.3958C108.508 50.565 107.636 51.6149 106.992 52.8001C106.547 53.6208 105.94 54.3636 105.688 55.2852C105.628 55.5075 105.394 55.5098 105.284 55.684C104.106 57.5639 102.636 59.2282 101.284 60.9774C100.415 62.1007 99.5233 63.2148 98.6338 64.3244C97.8383 65.317 96.9833 66.2661 96.2382 67.2954C95.821 67.8731 95.4014 68.4577 95.0071 69.0583C94.6335 69.6246 94.12 70.1083 93.6981 70.6539C93.2832 71.188 92.8889 71.7405 92.474 72.2747C91.7312 73.226 91.0274 74.2072 90.3099 75.1746C89.8743 75.7638 89.425 76.3576 89.0513 77.0063C88.8771 77.3112 88.6089 77.5978 88.375 77.8843C87.5291 78.9274 86.7978 80.0461 86.1192 81.2084C85.663 81.9856 85.0578 82.6756 84.5741 83.439C84.2279 83.9846 83.8887 84.5417 83.5402 85.0827C83.2628 85.5114 82.8983 85.9172 82.6072 86.3481C82.2816 86.8341 81.924 87.3087 81.6925 87.8543C81.5022 88.3013 81.1239 88.6246 80.8718 89.0303C80.3903 89.8029 80.0167 90.6328 79.5949 91.4374C79.2625 92.0679 78.8659 92.6616 78.5266 93.2875C78.2973 93.7116 78.0956 94.154 77.9282 94.6056C77.8595 94.789 77.7059 94.883 77.6279 95.0458C76.9929 96.3915 76.3602 97.7348 75.7916 99.1149C75.4822 99.8623 75.0924 100.598 74.7394 101.339C74.5102 101.82 74.2672 102.295 74.0127 102.762C73.7559 103.239 73.6688 103.808 73.4281 104.271C73.1943 104.718 73.2218 105.286 72.7908 105.637C72.667 105.738 72.5914 105.891 72.573 106.07C72.5272 106.52 72.3277 106.921 72.0687 107.276C71.899 107.508 71.9747 107.774 71.8967 108.017C71.695 108.661 71.3351 109.19 70.982 109.738C70.9339 109.812 70.8651 109.899 70.8697 109.977C70.9064 110.71 70.441 111.272 70.2187 111.916C69.9986 112.551 69.7189 113.165 69.5722 113.83C69.453 114.36 69.3544 114.99 69.0105 115.348C68.7033 115.667 68.6437 116.382 67.9491 116.265C67.8482 116.249 67.7061 116.308 67.6488 116.212C67.4081 115.802 67.039 115.978 66.7501 116.054C66.4613 116.13 66.0853 115.82 65.8813 116.244C65.6796 116.114 65.4801 115.981 65.2784 115.855C64.8909 115.609 64.4852 115.401 64.0794 115.19C63.6736 114.979 63.2243 114.809 62.8621 114.495C62.7291 114.378 62.5801 114.174 62.2798 114.325C62.1698 114.38 61.8901 114.073 61.6769 113.956C61.0786 113.626 60.4779 113.308 59.875 112.987C59.279 112.668 58.7471 112.251 58.0754 112.04C57.8095 111.955 57.5459 111.648 57.2341 111.503C56.6518 111.235 56.081 110.944 55.4964 110.683C55.3451 110.616 55.1663 110.529 54.9806 110.625C54.9095 110.662 54.8499 110.683 54.811 110.573C54.6436 110.078 54.3249 109.867 53.7839 109.974C53.6349 110.004 53.4584 109.855 53.3804 109.686C53.2819 109.468 53.0778 109.397 52.8853 109.326C52.2869 109.106 51.7253 108.817 51.1682 108.505C50.4988 108.131 49.8294 107.709 49.0821 107.549C48.6763 107.464 48.392 107.363 48.094 107.061C47.8235 106.786 47.3467 106.79 47.0005 106.57C46.9134 106.515 46.8263 106.568 46.8011 106.678C46.7804 106.765 46.8492 106.928 46.6635 106.886C46.5512 106.861 46.503 106.744 46.5145 106.634C46.5443 106.355 46.3334 106.249 46.1454 106.189C45.719 106.059 45.3591 105.717 44.8364 105.836C44.692 105.869 44.4834 105.568 44.261 105.454C43.5137 105.064 42.7182 104.782 41.941 104.498C41.3862 104.296 40.8636 103.947 40.2996 103.874C39.511 103.771 38.9677 103.09 38.1332 103.095C37.9475 103.095 37.6243 102.792 37.3354 102.684C37.2094 102.636 37.0626 102.572 36.9457 102.602C36.7188 102.654 36.5079 102.774 36.4368 102.416C36.4299 102.379 36.3153 102.324 36.2855 102.34C35.8178 102.588 35.6734 102.033 35.3272 101.964C35.0155 101.9 34.7404 101.74 34.385 101.763C34.1329 101.781 33.844 101.696 33.5735 101.511C33.1907 101.249 32.7803 100.853 32.2141 101.1C32.1957 101.109 32.143 101.091 32.1361 101.075C31.9504 100.594 31.4782 100.727 31.1274 100.596C30.6552 100.419 30.1944 100.213 29.729 100.02C29.4448 99.9035 29.1949 99.6834 28.8418 99.8164C28.6011 99.9058 28.6172 99.5276 28.3421 99.5299C27.7919 99.5321 27.3196 99.1952 26.8084 99.0186C26.7809 99.0072 26.7488 98.9774 26.7259 98.9842C26.2124 99.1447 25.896 98.6266 25.4306 98.606C25.1464 98.5922 24.9676 98.3332 24.6856 98.2484C23.8649 97.9962 23.1405 97.5469 22.5032 96.9623C22.4527 96.9141 22.3794 96.9073 22.4344 96.7949C22.6751 96.3135 22.5903 95.7794 22.6728 95.275C22.7943 94.5277 22.9983 93.7757 23.372 93.1132C23.5187 92.8519 23.9337 93.0284 24.2179 93.0605C24.7933 93.127 25.3321 93.3425 25.9212 93.4112C26.5081 93.4777 27.2073 93.5396 27.6956 93.9041C28.0074 94.138 28.2802 94.4635 28.6263 94.6882C29.2637 95.1008 29.9147 95.4745 30.6621 95.6441C30.7652 95.667 30.8936 95.6418 30.944 95.7496C31.1641 96.2172 31.5997 96.2264 32.0192 96.27C32.2301 96.2929 32.4089 96.3525 32.5625 96.5175C32.8835 96.866 33.358 97.0242 33.7638 97.1365C34.5134 97.3428 35.137 97.8403 35.9118 97.9572C36.0127 97.9733 36.1021 98.0948 36.1915 98.175C36.423 98.379 36.6752 98.5395 36.9939 98.5257C37.3882 98.5097 37.6839 98.771 38.0346 98.8742C38.0599 98.8811 38.0805 98.9132 38.0988 98.9361C38.4037 99.3075 38.8072 98.8605 39.0961 99.0416C39.3597 99.2089 39.3918 99.7453 39.8984 99.5367C39.9236 99.5276 39.9764 99.5299 39.981 99.5413C40.2973 100.227 41.0492 99.97 41.5673 100.254C42.3835 100.701 43.2867 101.05 44.1945 101.256C44.7126 101.373 45.1046 101.717 45.6204 101.79C46.785 101.955 47.8281 102.519 48.9033 102.927C49.9257 103.317 50.994 103.597 51.9912 104.099C52.8761 104.546 53.7954 104.995 54.7903 105.192C54.9898 105.231 55.2603 105.41 55.3359 104.995C55.3634 104.846 55.6087 104.791 55.7256 104.848C56.0168 104.988 56.2346 104.825 56.4386 104.709C56.975 104.404 57.5711 104.284 58.1419 104.087C58.5591 103.943 58.9534 103.753 59.2629 103.427C59.3202 103.367 59.3867 103.306 59.4532 103.351C59.9277 103.686 60.3587 103.37 60.8126 103.292C61.3514 103.196 61.9016 103.154 62.4449 103.081C63.128 102.989 63.8135 103.056 64.4921 103.028C65.6956 102.982 66.9037 103.111 68.1027 102.95C68.1165 102.948 68.1325 102.948 68.1463 102.946C68.4145 102.914 68.5841 102.769 68.7629 102.561C68.85 102.46 69.0953 102.836 69.3957 102.73C69.8748 102.563 70.0949 102.164 70.2989 101.779C71.0348 100.387 71.6583 98.9407 72.275 97.4896C72.6716 96.5519 72.9513 95.5639 73.4579 94.6744C73.733 94.1884 74.0883 93.7482 74.3703 93.2599C74.9366 92.2696 75.3905 91.2242 75.9498 90.2293C76.484 89.2779 77.0342 88.3288 77.5156 87.35C78.185 85.9905 78.9828 84.7044 79.7645 83.4115C80.3835 82.389 81.0712 81.4102 81.7039 80.4015C82.2174 79.5831 82.8135 78.822 83.2743 77.9692C83.5929 77.38 83.9735 76.8 84.3701 76.2842C84.7896 75.7432 85.2412 75.1999 85.5965 74.6244C86.2247 73.6112 86.8895 72.6254 87.5543 71.6374C88.3246 70.4911 89.1568 69.3861 89.9683 68.2697C90.6514 67.3298 91.3277 66.3899 91.9467 65.4041C92.3135 64.8195 92.772 64.2877 93.2121 63.7467C93.7188 63.1208 94.0924 62.3895 94.5693 61.7385C94.9109 61.2708 95.1424 60.6954 95.5436 60.3171C96.2451 59.6523 96.6096 58.7628 97.2492 58.0774C97.6114 57.6877 97.9942 57.314 98.3496 56.9151C98.588 56.6469 98.6934 56.358 98.7507 55.9958C98.8103 55.613 99.0625 55.2691 99.2941 54.9436C99.6219 54.4805 99.6471 54.155 99.3881 53.724C99.333 53.63 99.262 53.63 99.2069 53.6713C98.831 53.9647 98.776 53.5841 98.7141 53.3984C98.6545 53.2242 98.5926 53.1738 98.4252 53.1302C98.1983 53.0706 98.2304 53.3045 98.0515 53.3893C98.0286 52.7313 97.5885 52.3233 97.1644 51.9634C96.8388 51.6883 96.6027 51.3192 96.2176 51.106C95.9929 50.9799 95.9654 50.7759 96.0089 50.4916C96.0823 50.0079 95.8875 49.5265 95.8875 49.029C95.8897 48.6622 95.9562 48.2473 95.6169 47.9355C95.5275 47.8507 95.5848 47.6879 95.6857 47.5687C95.8622 47.3647 95.9127 47.1125 95.8875 46.8489C95.782 45.6774 95.915 44.5358 96.229 43.3987C96.4124 42.7293 96.5775 42.0645 97.0108 41.5074C97.2904 41.1452 97.6228 40.8265 97.9369 40.4918C98.102 40.3176 98.3152 40.1319 98.3954 39.9164C98.6659 39.1897 99.0167 38.502 99.3514 37.8028C99.6081 37.2663 99.4591 36.9018 98.8493 36.8468C98.3496 36.8033 98.0859 36.4525 97.6893 36.2966C97.5105 36.2233 97.3707 36.1201 97.1552 36.1545C96.9374 36.1912 96.8503 35.9321 96.6692 35.8358C95.8393 35.3957 94.9246 35.1275 94.1543 34.5337C93.8403 34.293 93.3978 34.105 92.9852 33.9514C92.4831 33.7634 92.0315 33.4952 91.5799 33.1972C90.9678 32.796 90.3764 32.3215 89.6313 32.1587C89.5396 32.1404 89.5258 32.0624 89.4685 32.0257C88.9413 31.7025 88.4117 31.377 87.8753 31.0652C87.779 31.0102 87.6277 30.9735 87.5314 31.0102C87.2999 31.0927 87.1623 30.9987 87.0179 30.8474C86.8551 30.6755 86.6992 30.5265 86.4081 30.5952C86.266 30.6296 86.1949 30.2491 85.9404 30.4073C85.7754 30.0267 85.6607 30.3637 85.4934 30.5196C85.5599 30.0084 85.3375 30.013 84.9684 29.9144C84.6016 29.8158 84.1294 29.9556 83.8245 29.5774C83.7144 29.4444 83.5081 29.4077 83.515 29.7035C83.5173 29.825 83.4118 29.8433 83.3843 29.7929C83.2399 29.5338 82.8868 29.6783 82.7355 29.4421C82.6851 29.3665 82.6026 29.3367 82.4994 29.3413C81.9057 29.3711 81.885 29.3344 82.0776 28.7888C82.4146 27.8259 82.6416 26.8264 83.1207 25.914C83.4187 25.3478 83.5035 25.2767 84.0812 25.5243C85.0028 25.9186 85.9129 26.3312 86.7886 26.8264C87.0867 26.9961 87.3893 27.1634 87.7606 27.2093C88.1756 27.2597 88.4851 27.6013 88.861 27.7847C89.6405 28.1629 90.3741 28.6306 91.1191 29.0753C91.6235 29.3756 92.0934 29.7516 92.623 30.0015C93.2626 30.3041 93.8265 30.7236 94.4455 31.0491C96.4055 32.0808 98.141 33.4769 100.09 34.5154C100.569 34.7721 101.023 35.0816 101.532 35.304C101.807 35.4255 102.091 35.6822 102.387 35.8633C103.375 36.4708 104.393 37.0119 105.426 37.5414C106.717 38.1994 107.969 38.9536 109.159 39.7812C109.979 40.352 110.47 41.2644 110.77 42.2158C110.846 42.4611 110.777 42.8072 110.795 43.1121C110.839 43.8847 110.784 44.6618 110.779 45.4367ZM26.719 87.1207C26.9849 87.2055 27.2692 87.2881 27.5466 87.1024C27.636 87.0428 27.7529 87.0542 27.8423 87.1322C28.2252 87.4669 28.702 87.5311 29.1765 87.6159C30.05 87.7741 30.9394 87.8635 31.7991 88.1065C32.3768 88.2715 32.9431 88.5604 33.562 88.2555C33.601 88.2371 33.6812 88.2738 33.7294 88.3036C34.6441 88.8446 35.678 88.7117 36.6546 88.7231C37.4547 88.7323 38.2754 88.675 39.0754 88.675C39.8136 88.6773 40.1919 88.3311 40.5036 87.8084C41.0263 86.9327 41.7599 86.3092 42.6311 85.7957C43.1285 85.5045 43.6214 85.1721 44.0616 84.8168C44.5086 84.4614 45.0061 84.168 45.476 83.9204C46.0583 83.6132 46.6085 83.2464 47.1679 82.9186C48.227 82.2996 49.3549 81.8709 50.4713 81.4033C51.159 81.1167 51.9568 81.1465 52.5827 80.6743C52.6698 80.6078 52.7019 80.7453 52.7638 80.7522C53.0687 80.7797 53.4676 80.9402 53.6349 80.6101C54.3593 79.191 55.109 77.7858 55.556 76.2361C55.8242 75.3076 56.1039 74.3791 56.4569 73.4713C57.0965 71.8162 57.5963 70.1083 58.0892 68.405C58.5431 66.8369 59.1598 65.3239 59.6137 63.7512C60.1043 62.0434 60.8287 60.4019 61.4729 58.7399C61.9199 57.5799 62.399 56.4337 62.869 55.2829C63.4444 53.8799 63.9854 52.4631 64.609 51.0831C65.8377 48.3619 67.1513 45.6774 68.3549 42.9471C69.2214 40.9824 70.1315 39.0384 70.9591 37.0531C71.7248 35.2146 72.5822 33.4058 73.5473 31.6544C74.3268 30.2353 75.0214 28.775 75.6587 27.2872C75.8146 26.9204 75.9728 26.5123 75.8902 26.1135C75.8352 25.8407 75.8444 25.5816 75.9475 25.3753C76.1195 25.0291 75.9452 24.9099 75.6908 24.7907C75.2231 24.5706 74.7509 24.3551 74.2855 24.1282C74.0929 24.0342 73.8545 24.0548 73.8201 24.2268C73.7536 24.5615 73.5679 24.3253 73.4877 24.3093C73.2676 24.2657 73.4831 24.1809 73.4969 24.1121C73.5427 23.8668 73.2997 23.6559 73.0201 23.6582C72.7931 23.6582 72.6716 23.8645 72.4538 23.9219C72.534 23.6995 72.6991 23.6147 72.9513 23.5115C72.3392 23.2364 71.9334 22.8146 71.5208 22.4134C71.3145 22.2094 70.9614 22.1521 70.8835 21.8288C70.8262 21.5812 71.0187 21.2076 70.5121 21.2282C70.441 21.2305 70.4754 21.07 70.4983 20.9852C70.5946 20.6184 70.4639 20.4121 70.0834 20.341C69.8381 20.2929 69.7235 20.1645 69.9619 19.9444C70.1155 19.8069 70.1201 19.6968 69.8977 19.6281C69.8152 19.6005 69.7739 19.5341 69.8221 19.4538C70.0238 19.1008 69.7762 18.8647 69.5974 18.6217C69.508 18.5025 69.4255 18.3878 69.5217 18.2617C69.6249 18.1265 69.602 18.0096 69.5286 17.8881C69.375 17.6267 69.5905 17.1614 69.0908 17.0857C69.0885 17.0834 69.0839 16.9963 69.1022 16.9642C69.3223 16.5814 69.2008 16.4003 68.7469 16.4301C68.7836 16.32 68.7996 16.2467 68.8294 16.1779C68.9715 15.8707 69.1458 15.5635 68.6781 15.3618C68.5245 15.2953 68.7377 15.1371 68.6254 15.0454C68.944 14.8001 68.7033 14.6098 68.6208 14.3508C68.5474 14.1307 68.646 13.8923 68.2953 13.8533C68.2402 13.8464 68.3228 13.7066 68.3847 13.6401C68.6827 13.3238 68.6621 13.1702 68.293 12.9593C68.0477 12.8171 67.7955 12.6842 67.5387 12.565C67.3531 12.4755 67.4058 12.1431 67.2293 12.1592C66.8671 12.189 66.6722 11.9597 66.4017 11.8291C66.1312 11.703 65.8332 11.4692 65.5626 11.4806C65.2577 11.4921 65.0216 11.421 64.7649 11.311C64.2651 11.0909 63.6714 11.3499 63.1739 10.9923C63.073 10.919 62.7612 10.7745 62.5824 11.0382C62.5228 11.1253 62.4632 11.0473 62.4518 11.0038C62.3715 10.6897 62.1056 10.7906 61.9084 10.7654C61.6838 10.7379 61.4293 10.8112 61.2345 10.7287C60.494 10.4123 59.7535 10.1533 58.9305 10.2335C58.8274 10.245 58.715 10.2312 58.6463 10.1326C58.495 9.91944 58.3276 9.8094 58.0892 10.0203C58.0204 10.0799 57.9608 10.0478 57.8966 9.98592C57.5436 9.66039 57.0163 9.84837 56.6403 9.5664C56.5876 9.52514 56.4409 9.5985 56.3446 9.63288C56.2552 9.66268 56.1475 9.70166 56.0833 9.64205C55.6546 9.23628 55.086 9.22711 54.5611 9.14C54.1003 9.06206 53.6028 8.90158 53.1741 9.2913C53.0205 8.72736 53.0159 8.72048 52.5047 8.96119C52.3603 9.02767 52.3488 8.96577 52.3557 8.85803C52.3603 8.77779 52.3626 8.69755 52.2663 8.68151C51.6771 8.58293 51.088 8.38119 50.4919 8.53479C50.1458 8.6219 49.8523 8.27115 49.5176 8.47977C49.5016 8.48894 49.442 8.4408 49.4099 8.41329C49.05 8.09463 48.6121 8.02586 48.2361 8.25969C48.1078 8.33993 48.0252 8.32159 47.9083 8.26657C47.3604 8.00981 46.6681 7.90207 46.1156 7.99147C46.0354 8.00523 46.0056 7.97313 45.9849 7.91353C45.8795 7.60634 45.6204 7.71408 45.4118 7.70491C45.217 7.69804 45.0129 8.04191 44.8227 7.6797C44.8089 7.65677 44.6163 7.67282 44.5797 7.72325C44.3435 8.05108 43.9813 7.61551 43.7452 7.87685C43.3188 7.42294 43.1239 7.97543 42.7961 8.074C42.8167 7.73013 42.6746 7.62009 42.3468 7.81725C42.2872 7.85392 42.1932 7.87914 42.1313 7.8608C41.5421 7.6797 41.0768 7.82642 40.7145 8.52333C40.7443 8.02357 40.6985 7.75535 40.2973 7.57195C39.9764 7.42752 39.9672 7.50776 39.9672 7.75764C39.9695 7.92728 39.9397 7.99377 39.7334 8.0442C39.4216 8.12214 38.8966 8.03503 39.0181 8.67004C39.0433 8.8053 38.8439 8.83281 38.704 8.85803C38.2983 8.93139 37.8811 9.16063 37.9682 9.57557C38.0965 10.19 37.3675 10.7447 37.9086 11.3431C37.92 11.3568 37.8971 11.4004 37.9017 11.4302C37.9911 12.0148 37.9292 12.5902 37.7252 13.1381C37.4845 13.796 37.2369 14.4585 36.6752 14.9354C35.866 15.6231 35.043 16.2879 34.0824 16.7671C33.5895 17.0123 33.1127 17.3035 32.5831 17.4594C32.2668 17.5534 31.9023 17.4892 31.6616 17.7918C31.6089 17.8583 31.5103 17.9133 31.4805 17.8285C31.3727 17.5213 31.2237 17.6772 31.0334 17.7322C30.7675 17.8078 30.3801 17.5625 30.2838 18.0485C30.2563 18.0394 30.2265 18.0302 30.1967 18.021C30.0041 17.9637 29.8757 18.0875 29.7634 18.2021C29.2247 18.7455 28.6928 19.2934 28.1656 19.8481C28.0326 19.9857 27.8079 20.1668 27.8286 20.2975C27.9065 20.7697 27.6566 21.1846 27.6543 21.6248C27.6452 22.8261 27.2486 23.9356 26.8566 25.036C26.4095 26.2923 26.1688 27.615 25.6438 28.8415C25.4031 29.4032 25.5269 30.0542 25.1716 30.5815C24.9171 30.9597 25.0249 31.4274 24.8873 31.8194C24.7269 32.2802 24.5159 32.7227 24.3486 33.188C23.842 34.6071 23.4706 36.0651 23.0854 37.5139C22.8562 38.3782 22.3977 39.2149 22.5032 40.1594C22.51 40.2213 22.4458 40.297 22.4 40.3543C21.969 40.893 21.8773 41.5899 21.7719 42.202C21.616 43.1007 21.2217 43.9282 21.1116 44.8384C21.0704 45.2029 20.9351 45.5926 20.8159 45.9548C20.605 46.5875 20.5064 47.2477 20.2726 47.8759C20.1465 48.2198 19.9746 48.5545 19.8852 48.9052C19.7637 49.3866 19.6055 49.8612 19.4977 50.3403C19.3946 50.8057 19.1011 51.1954 19.0369 51.6447C18.9888 51.9794 18.8902 52.2728 18.7894 52.5892C18.4799 53.5543 18.2231 54.5378 17.9778 55.5236C17.7898 56.2778 17.6041 57.0549 17.3084 57.7519C16.921 58.6757 16.8155 59.6775 16.3639 60.5739C16.0086 61.2777 16.1507 62.1121 15.7243 62.8457C15.3094 63.5656 15.1741 64.4413 14.8257 65.2207C14.5735 65.7847 14.3305 66.3555 14.1058 66.9286C13.7413 67.8571 13.2622 68.7213 12.7602 69.5764C12.4965 70.0235 12.2329 70.4544 12.1549 70.9863C12.0701 71.5571 12.226 71.9629 12.6753 72.2678C12.9069 72.426 13.143 72.6094 13.2989 72.8363C13.856 73.641 14.4291 74.4502 14.7729 75.3603C14.9518 75.8326 15.6464 76.1123 15.3323 76.7725C15.3185 76.7977 15.3598 76.8573 15.3873 76.8917C15.5111 77.0476 15.4813 77.2241 15.4767 77.4052C15.4584 78.1617 15.5042 78.9228 15.4355 79.6748C15.3667 80.4381 15.5593 81.2199 15.2016 81.9695C14.9563 82.4876 14.8211 83.0607 14.6262 83.6063C14.5093 83.941 14.6171 84.2093 14.8234 84.4752C14.9082 84.5852 15.0091 84.6838 15.1122 84.5967C15.3392 84.3995 15.4034 84.5784 15.5707 84.6907C15.7702 84.8236 15.7748 85.0758 15.9421 85.1767C16.1851 84.975 16.2814 84.4867 16.7101 84.9108C16.7743 84.9727 16.8797 84.9635 16.9118 84.9016C17.0929 84.5669 17.1938 84.8512 17.3818 84.9016C18.0466 85.085 18.7389 85.1813 19.4358 85.1652C19.5344 85.1652 19.6376 85.0598 19.7338 85.1492C20.041 85.438 20.4674 85.438 20.8297 85.5756C22.0515 86.0318 23.3239 86.3458 24.5962 86.6141C25.3091 86.7654 26.0221 86.9006 26.719 87.1207ZM24.1193 82.5702C23.9887 82.7375 23.8259 82.4899 23.7205 82.3936C23.5233 82.2102 23.356 82.0222 23.0602 82.2011C23.0281 82.2217 22.9456 82.2309 22.9364 82.2171C22.6911 81.7999 22.345 81.8939 21.9896 82.02C21.9507 82.0337 21.8704 82.0268 21.8613 82.0062C21.7054 81.6417 21.3111 81.7884 21.0451 81.6715C20.8159 81.5706 20.456 81.6348 20.1511 81.5958C20.0387 81.5821 19.9379 81.6256 19.8003 81.5569C19.5229 81.4216 19.2822 81.5569 19.0897 81.7838C19.0209 81.8641 18.9567 82.0452 18.8192 81.9168C18.7618 81.8641 18.4546 81.9168 18.6564 81.6532C18.7343 81.55 18.5624 81.534 18.4845 81.5454C18.3675 81.5638 18.2575 81.6188 18.1406 81.6417C18.0076 81.6646 17.8838 81.6646 17.7761 81.5362C17.666 81.401 17.7761 81.3208 17.8082 81.213C18.0145 80.5482 18.3263 79.9246 18.4524 79.2231C18.512 78.8907 18.1085 78.8724 18.2254 78.6248C18.3194 78.4254 18.6037 78.3635 18.5762 78.0517C18.5211 77.4717 18.4822 76.8871 18.5165 76.3094C18.5441 75.844 18.4317 75.3924 18.4592 74.9362C18.4753 74.6611 18.2414 74.6038 18.0993 74.4617C17.9801 74.3425 17.9801 74.3425 18.1704 74.2622C18.3309 74.1957 18.3148 74.0582 18.2414 73.9665C17.932 73.5745 17.893 73.0243 17.5835 72.6758C17.0608 72.0821 16.9256 71.2293 16.2149 70.7685C16.0361 70.6516 15.9902 70.365 15.8023 70.1954C15.557 69.9753 15.3025 69.7965 14.9357 69.7208C15.6899 68.4394 16.3547 67.1487 16.9508 65.8236C17.2511 65.1565 17.5216 64.4757 17.8242 63.8109C18.2988 62.7724 18.6358 61.6811 19.0576 60.622C19.1745 60.3263 19.3097 60.0214 19.3258 59.7234C19.3556 59.2053 19.6238 58.7858 19.7568 58.3158C20.1006 57.0962 20.5477 55.9133 20.8595 54.6822C21.1185 53.6621 21.444 52.6557 21.7856 51.6539C22.2579 50.2807 22.6201 48.8708 23.0442 47.4816C23.2207 46.9108 23.4362 46.3514 23.6311 45.7852C23.7136 45.5421 23.8167 45.3037 23.8557 45.0539C24.046 43.8366 24.4953 42.6857 24.7635 41.4891C25.0386 40.2649 25.4169 39.0636 25.7516 37.8555C26.0427 36.8078 26.3339 35.7556 26.6296 34.7102C26.7947 34.1325 26.9758 33.5548 27.1064 32.9611C27.3151 32.0097 27.6429 31.0835 27.918 30.1436C28.4452 28.3601 28.9817 26.5765 29.4883 24.7861C29.7657 23.8072 30.0041 22.8169 30.2357 21.8242C30.3205 21.4735 30.4947 21.3016 30.8569 21.3222C31.4461 21.3566 31.955 21.1044 32.4708 20.8729C32.966 20.6528 33.5093 20.5084 33.9586 20.2172C34.7725 19.6854 35.5565 19.1031 36.2534 18.4153C37.4478 17.237 38.5229 15.9555 39.2382 14.4241C39.6692 13.5026 40.1987 12.6246 40.5266 11.6571C40.6481 11.2995 40.8727 11.1734 41.2349 11.1643C41.9823 11.1459 42.7273 11.3018 43.4747 11.1941C44.206 11.0886 44.8708 11.3912 45.5517 11.5654C45.9322 11.6617 46.3151 11.7465 46.6979 11.7924C47.8166 11.9322 48.8964 12.2601 50.0082 12.4274C51.684 12.6819 53.33 13.0647 54.9737 13.4751C56.175 13.7754 57.3992 13.9863 58.6119 14.2476C59.0062 14.3324 59.3913 14.4654 59.7856 14.5525C60.9364 14.8093 62.101 14.9789 63.2748 15.1234C64.0152 15.2128 64.7534 15.3549 65.5007 15.4007C65.7529 15.4168 65.8125 15.6002 65.8102 15.818C65.7965 16.9229 66.0807 17.9958 66.2596 19.0733C66.3283 19.4745 66.1701 20.043 66.6928 20.3181C66.7043 20.325 66.7226 20.3456 66.7203 20.3525C66.4086 20.976 66.9152 21.4414 67.0069 21.9778C67.1215 22.6381 67.5846 23.0989 67.7336 23.7109C67.917 24.456 68.6116 24.7701 69.0678 25.2859C69.4507 25.7192 69.8908 26.0722 70.4043 26.3221C71.0944 26.6591 71.6216 27.3055 72.4744 27.3606C72.7633 27.3812 73.0361 27.6357 73.2012 27.9314C73.2539 28.0231 73.2539 28.0804 73.2149 28.1744C72.8114 29.1739 72.2567 30.0909 71.7042 31.0148C71.1425 31.9501 70.4937 32.8304 70.0192 33.8276C69.8564 34.1738 69.5447 34.5406 69.3957 34.8845C69.0541 35.6685 68.497 36.3493 68.3067 37.209C68.1921 37.734 67.7428 38.1077 67.5502 38.6212C67.2866 39.3204 66.9335 39.9875 66.5988 40.6592C66.3077 41.2369 66.0807 41.8421 65.7758 42.4198C65.4068 43.1167 65.1156 43.8686 64.7832 44.5908C64.4347 45.345 64.0473 46.09 63.7241 46.858C63.4284 47.5687 62.963 48.206 62.8163 48.9809C62.7933 49.1046 62.6856 49.2124 62.6168 49.327C62.2431 49.9529 62.0162 50.6429 61.7457 51.3146C61.6471 51.5553 61.5027 51.7937 61.3239 51.984C60.9594 52.3737 60.8883 52.8872 60.7278 53.3526C60.6155 53.6804 60.5284 54.006 60.3198 54.2833C59.9644 54.7533 59.7925 55.3104 59.6022 55.8491C59.1185 57.2108 58.5018 58.5152 57.9677 59.8563C57.5023 61.0255 57.0507 62.2015 56.606 63.3776C56.4936 63.6779 56.1291 63.9346 56.4111 64.3198C56.4226 64.3335 56.4111 64.3771 56.3973 64.3977C55.9182 65.113 55.76 65.9291 55.5583 66.7475C55.4185 67.3115 55.1892 67.8662 55.0196 68.4279C54.8728 68.9139 54.5863 69.3724 54.5313 69.8584C54.4464 70.6149 54.0269 71.266 53.9971 72.0431C53.9765 72.5337 53.6303 73.0037 53.5019 73.5011C53.3071 74.2485 53.0159 74.9637 52.8555 75.7271C52.7569 76.2017 52.491 76.6625 52.4084 77.1645C52.3786 77.3525 52.248 77.3915 52.0875 77.4213C51.8651 77.4648 51.5511 77.38 51.5625 77.7949C51.5671 77.9096 51.3906 77.8935 51.292 77.882C50.9871 77.8477 51.3998 77.7789 51.2874 77.6964C51.2255 77.6505 51.182 77.5932 51.1063 77.6184C50.5928 77.7972 50.0793 77.9852 49.5658 78.1663C49.4489 78.2076 49.4282 78.297 49.3915 78.4001C49.2999 78.6546 49.1394 78.8242 48.8505 78.634C48.7176 78.5446 48.6236 78.6133 48.525 78.6821C47.9244 79.1085 47.2297 79.3653 46.6245 79.81C46.1729 80.1424 45.6411 80.4175 45.1711 80.7522C43.8575 81.6921 42.5944 82.7008 41.455 83.8539C41.0538 84.2597 40.6824 84.6953 40.2996 85.1194C40.1391 85.2959 39.9764 85.3945 39.7059 85.3188C39.4308 85.2409 39.2015 84.8099 38.8485 85.1698C38.539 84.7251 38.1126 85.0437 37.7412 84.991C37.4501 84.952 37.1704 84.8122 36.8884 84.709C36.5285 84.5807 36.297 84.7663 36.1342 85.0231C35.9279 84.9795 36.3038 84.6563 35.9095 84.7732C35.7445 84.8214 35.6642 84.6288 35.5313 84.5646C35.0338 84.3193 34.5432 84.4752 34.0664 84.5829C33.8853 84.6242 33.7661 84.6059 33.6812 84.4935C33.3855 84.0901 32.9087 84.0832 32.4983 83.9433C32.1086 83.8104 31.6822 83.8493 31.2833 83.6958C31.0587 83.6086 30.7927 83.5261 30.536 83.7622C30.3847 83.8975 30.0293 83.8012 29.9629 83.6751C29.7932 83.3588 29.6098 83.4344 29.376 83.5284C29.3301 83.5467 29.2476 83.533 29.2086 83.5009C28.6997 83.0768 28.0968 83.102 27.4939 83.1318C27.3563 83.141 27.2852 83.0401 27.1844 82.9828C26.8703 82.8063 26.5448 82.632 26.2903 83.0791C26.2559 83.1433 26.1826 83.196 26.1 83.1662C25.9969 83.1249 25.9877 83.0355 26.0106 82.9392C26.0336 82.843 26.1849 82.726 25.9098 82.726C25.559 82.726 25.2197 82.6573 24.8827 82.4853C24.6902 82.3867 24.3715 82.2446 24.1193 82.5702ZM29.1399 56.9839C29.2912 57.6143 29.2201 58.2814 29.4677 58.8797C29.674 59.3749 29.6946 60.0031 30.3113 60.2529C30.3342 60.2621 30.3549 60.3286 30.3457 60.3607C30.215 60.81 30.5222 61.0851 30.7927 61.3098C31.8541 62.197 32.7276 63.2767 33.8715 64.0859C34.9261 64.8333 36.109 65.1497 37.3217 65.395C37.7779 65.4889 38.2501 65.5783 38.7499 65.5394C39.3459 65.4958 39.9512 65.5187 40.5541 65.4844C40.8727 65.4683 41.2166 65.4041 41.5192 65.4568C42.2757 65.5898 43.0024 65.3835 43.548 65.0029C44.1853 64.5582 44.9304 64.2762 45.476 63.6343C45.8955 63.1392 46.4503 62.699 46.8813 62.2084C47.5392 61.4565 48.0138 60.5418 48.541 59.6821C49.1233 58.7376 49.5474 57.7106 50.0357 56.7179C51.0192 54.7143 51.739 52.6236 52.2503 50.448C52.3465 50.0377 52.2526 49.6503 52.3351 49.256C52.6216 47.8851 52.4291 46.5027 52.413 45.1249C52.413 45.0149 52.3465 44.9576 52.2319 45.0149C52.115 45.0745 52.005 45.1593 51.8422 45.157C51.9087 44.7788 52.4658 44.4509 51.8697 44.0773C51.8445 44.0612 51.8468 43.9947 51.8422 43.9512C51.8124 43.4973 51.496 43.1809 51.2324 42.8806C50.7212 42.3052 50.171 41.7596 49.4832 41.3744C49.0821 41.1521 48.7772 40.8128 48.2751 40.7027C47.9725 40.6363 47.7272 40.2672 47.3604 40.1296C47.0739 40.0196 46.824 40.07 46.5695 40.0379C46.3747 40.0127 46.1775 39.6436 45.8818 39.6643C45.0748 39.7147 44.3344 39.2791 43.5159 39.3869C42.9864 39.4579 42.3628 39.0888 41.9708 39.7491C41.9571 39.772 41.8516 39.7674 41.8493 39.7628C41.7622 39.4006 41.4481 39.5863 41.2693 39.4992C40.7742 39.2562 40.2881 39.4075 39.8021 39.396C39.4353 39.3869 39.0686 39.8454 38.6995 39.3914C38.6926 39.3846 38.6697 39.3892 38.6559 39.3937C38.3006 39.4992 37.8375 39.38 37.6656 39.8706C37.6426 39.9302 37.5624 39.999 37.5005 40.0081C37.0076 40.0838 36.666 40.4483 36.3313 40.7348C35.6619 41.308 35.1117 42.0117 34.4951 42.6491C33.6216 43.5523 32.833 44.5403 31.9734 45.4596C31.5057 45.9594 31.116 46.5119 30.8111 47.1079C30.4236 47.8644 30.2586 48.7241 29.8001 49.4577C29.7405 49.554 29.7313 49.6869 29.7244 49.8039C29.6901 50.3357 29.4906 50.8309 29.4448 51.3673C29.4104 51.7891 29.3324 52.2224 29.2476 52.6419C29.1834 52.956 29.2018 53.2586 29.1903 53.5658C29.1674 54.116 29.0069 54.657 29.1192 55.2118C29.1674 55.4387 29.298 55.7551 29.1972 55.8858C28.9175 56.2617 29.0711 56.6996 29.1399 56.9839ZM32.5556 50.8744C32.6336 50.299 32.5052 49.6869 32.7322 49.1482C32.8812 48.7906 32.9293 48.4169 32.9729 48.0616C33.0944 47.1125 33.5643 46.3949 34.2269 45.7531C34.7449 45.251 35.3525 44.8957 35.9829 44.561C36.4414 44.3203 36.9113 44.0864 37.3423 43.8113C37.8031 43.5179 38.2456 43.3758 38.7751 43.4239C38.9998 43.4445 39.2267 43.4262 39.4537 43.4262C40.3179 43.3391 41.196 43.401 42.0511 43.4445C43.2248 43.4996 44.4306 43.55 45.57 43.9947C46.0377 44.1758 46.5328 44.2836 46.9547 44.5724C47.1014 44.6733 47.3077 44.7604 47.3696 44.9048C47.5828 45.3954 47.9404 45.7897 48.2476 46.2047C48.8093 46.9681 48.7795 47.8094 48.7405 48.6576C48.7221 49.0634 48.8918 49.4348 48.8276 49.8474C48.7474 50.3632 48.9835 50.9065 48.6809 51.42C48.6029 51.553 48.6694 51.7708 48.6625 51.9496C48.6259 52.8597 48.2751 53.6965 48.0527 54.5653C47.8762 55.2462 47.7158 55.927 47.4957 56.5987C47.4086 56.8624 47.2229 57.0412 47.1266 57.2911C46.7483 58.2631 46.1454 59.1182 45.5792 59.9824C45.2651 60.457 44.6759 60.7091 44.1578 60.9728C43.1377 61.4932 42.0258 61.3098 40.9415 61.3396C40.8681 61.3419 40.7879 61.2983 40.7191 61.3166C40.3546 61.4129 39.9924 61.3258 39.6371 61.3304C38.9012 61.3419 38.2272 61.0782 37.5234 61.0186C36.1181 60.8994 35.4396 59.7807 34.5272 58.9806C34.2406 58.7307 34.0962 58.3364 33.7156 58.1737C33.6079 58.1278 33.6881 57.9994 33.6492 57.9352C33.3878 57.5043 33.3695 56.9082 32.8101 56.6744C32.6611 56.6148 32.7597 56.5139 32.7688 56.413C32.7963 56.1013 33.0325 55.7368 32.5831 55.519C32.5648 55.5098 32.5625 55.4365 32.5763 55.4021C32.7597 54.8702 32.5694 54.3475 32.5625 53.8203C32.5579 53.3962 32.6496 52.972 32.6038 52.5319C32.5465 51.9794 32.4869 51.3788 32.5556 50.8744Z" fill="#39BB9C"/>
</svg>
