<svg width="115" height="120" viewBox="0 0 115 120" fill="none" xmlns="http://www.w3.org/2000/svg">
<mask id="mask0_330_1731" style="mask-type:luminance" maskUnits="userSpaceOnUse" x="0" y="1" width="115" height="117">
<path d="M0 22.8213L78.9888 1.84397L114.677 96.9196L35.6879 117.897L0 22.8213Z" fill="white"/>
</mask>
<g mask="url(#mask0_330_1731)">
<path d="M106.568 75.1178C106.482 74.7016 106.166 74.3488 106.092 73.9576C106.017 73.5645 105.879 73.2022 105.683 72.8674C105.131 71.9266 104.842 70.8924 104.28 69.9586C104.155 69.7504 104.035 69.5548 103.757 69.497C103.648 69.4761 103.427 69.3872 103.721 69.2832C103.818 69.2496 103.822 69.1107 103.752 69.0198C103.326 68.4725 102.996 67.8798 102.704 67.2673C102.659 67.1755 102.6 67.1354 102.489 67.1409C102.402 67.1461 102.249 67.3025 102.228 67.0806C102.216 66.948 101.927 66.8174 102.192 66.6732C102.333 66.5978 102.258 66.4183 102.171 66.3477C101.97 66.1795 101.964 65.9697 101.878 65.7653C101.356 64.5274 100.791 63.3053 100.08 62.1377C99.8948 61.8337 99.6385 61.5547 99.6478 61.1812C99.6489 61.141 99.6022 61.0596 99.5767 61.0564C99.1742 61.0117 99.3525 60.7011 99.2483 60.5313C98.9544 60.0548 98.9421 59.4896 98.5512 59.0508C98.3158 58.7842 98.2546 58.4274 98.1265 58.1184C97.9143 57.6122 97.4467 57.2058 97.4085 56.6414C97.4044 56.5767 97.3508 56.5092 97.2778 56.5246C96.9172 56.6024 97.0228 56.4048 97.0334 56.2125C97.056 55.7776 96.7972 55.3895 96.497 55.1062C96.3091 54.9287 96.2128 54.7688 96.2293 54.5869C96.2617 54.2212 96.0436 53.936 95.8976 53.6277C95.8557 53.5431 95.7801 53.3956 95.6697 53.5965C95.6057 53.7112 95.5166 53.5813 95.4687 53.5182C95.4299 53.4687 95.2815 53.3585 95.5043 53.3711C95.5626 53.3756 95.5736 53.3188 95.5786 53.2676C95.5943 53.1158 95.1996 52.4248 95.0453 52.3421C95.0245 52.3296 94.9732 52.3273 94.9725 52.3255C94.996 51.9522 94.4484 51.8064 94.5123 51.4224C94.5344 51.2929 94.4834 51.1947 94.4162 51.0749C94.0839 50.491 93.7321 49.9142 93.4861 49.2913C93.3479 48.9391 93.1373 48.604 93.0254 48.2468C92.954 48.0243 92.5848 48.0147 92.6723 47.6882C92.7352 47.4521 92.4962 47.2244 92.3771 46.9987C91.9779 46.231 91.7009 45.4069 91.1821 44.7029C90.9266 44.3559 90.8249 43.9879 90.6506 43.6313C90.5601 43.4439 90.5057 43.2668 90.1861 43.2978C90.4744 43.1295 90.3454 42.9743 90.2452 42.7935C89.971 42.2998 89.6927 41.8112 89.3705 41.3402C89.2775 41.2053 89.3203 40.9965 89.2422 40.8477C89.1429 40.6586 89.0233 40.3991 88.7116 40.6395C88.7256 40.3485 88.8791 40.0903 88.6637 39.8284C88.5648 39.7051 88.4457 39.7965 88.3295 39.7775C88.3456 39.4062 88.2419 39.0707 88.0821 38.7202C87.8731 38.2551 87.6947 37.7798 87.4254 37.3367C87.4136 37.3159 87.4163 37.2693 87.405 37.2663C86.9478 37.1244 87.1894 36.7671 87.0972 36.5163C86.804 35.7244 86.4059 34.9704 86.0493 34.2034C85.7268 33.5111 85.4696 32.7935 85.1009 32.1234C84.6507 31.3115 84.4315 30.4262 83.9173 29.6212C83.6253 29.1662 83.4482 28.5869 83.2012 28.074C83.0419 27.7413 83.0175 27.3049 82.5925 27.0927C82.5554 27.0746 82.5165 27.0032 82.5226 26.9656C82.5919 26.4725 82.2371 26.1837 81.9016 25.8818C81.855 25.8384 81.7844 25.7793 81.7853 25.7332C81.7848 25.2047 81.3463 24.8165 81.1605 24.3432C80.9777 23.8831 80.7078 23.3524 80.1772 23.0365C79.9596 22.9088 79.8156 22.6598 79.6317 22.4713C79.5381 22.3725 79.4689 22.2472 79.2793 22.3394C79.1663 22.3934 79.069 22.2796 79.1184 22.1368C79.1785 21.9633 79.1301 21.9043 78.9422 21.9742C78.8129 22.0225 78.8468 21.9137 78.8212 21.8507C78.6645 21.4655 78.3913 21.1091 78.0062 20.998C77.6667 20.9006 77.5438 20.686 77.331 20.4851C77.0415 20.2089 76.739 19.8764 76.2753 19.8679C76.2462 19.8656 76.191 19.8264 76.1891 19.805C76.1568 19.4446 75.8032 19.315 75.5724 19.2008C75.0034 18.9171 74.5286 18.4647 73.9102 18.2699C73.6397 18.1841 73.4323 17.9599 73.1886 17.8112C72.3117 17.2721 71.3947 16.8255 70.4592 16.4157C70.234 16.3159 70.0398 16.17 69.7966 16.087C69.2247 15.8978 68.6771 15.6283 68.1113 15.4175C67.8866 15.3355 67.5934 15.4314 67.411 15.2524C67.0437 14.8872 66.5548 14.8275 66.1267 14.618C65.9244 14.5202 65.7067 14.4623 65.4884 14.5103C65.4216 14.526 65.3654 14.527 65.306 14.4869C64.2407 13.7745 62.9996 13.5834 61.8376 13.162C61.4652 13.0255 61.0362 12.932 60.6206 12.9386C60.2816 12.9449 59.9309 12.9143 59.9261 13.3804C59.9255 13.4543 59.8207 13.5301 59.7289 13.5385C59.5456 13.26 60.209 12.9881 59.6559 12.736C59.3677 12.6031 59.0242 12.3552 58.7163 12.6864C58.7036 12.3406 58.4185 12.3665 58.1924 12.3507C57.4282 12.3004 56.6802 12.0941 55.9251 11.9495C55.703 11.9068 55.4773 11.7951 55.2907 12.0083C55.185 12.1301 55.0238 12.0074 54.9429 11.9371C54.5568 11.6028 54.0979 11.7306 53.6912 11.6751C53.0357 11.5859 52.3705 11.7186 51.7082 11.5953C51.4756 11.5513 51.2925 11.5102 51.0949 11.6186C51.0082 11.6675 50.897 11.6671 50.8197 11.558C50.7761 11.4958 50.7038 11.4591 50.6516 11.4869C50.2048 11.7332 49.6215 11.2339 49.1946 11.6086C49.1497 11.6504 48.9825 11.6409 48.9403 11.5983C48.6559 11.2928 48.5971 11.5558 48.5127 11.7398C48.2276 11.3248 48.0416 11.2705 47.6775 11.4948C47.545 11.5779 47.4342 11.5894 47.2635 11.5649C46.8593 11.5106 46.4726 11.5834 46.1538 11.8157C46.0719 11.8773 46.0086 11.956 45.9271 11.7981C45.8292 11.6127 45.6516 11.6239 45.5193 11.675C45.1151 11.8302 44.613 11.7302 44.2646 12.0182C44.177 12.0913 44.108 12.0638 44.0322 11.9962C43.9321 11.907 43.8265 11.9271 43.7494 11.9855C43.4793 12.1968 43.2159 12.1192 42.9472 11.9252C42.7951 11.816 42.6209 11.7985 42.4653 11.8198C42.287 11.8452 42.2358 11.7412 42.1695 11.6291C42.1199 11.6423 42.0722 11.655 42.0244 11.6676C41.8488 11.9477 41.9246 12.1011 42.2952 12.0824C42.2914 12.1313 42.2928 12.1728 42.2866 12.1725C41.8774 12.2014 41.549 12.3005 41.6642 12.8065C41.4856 12.7881 41.4684 13.1996 41.1664 12.9168C40.9703 12.7335 40.6572 12.7388 40.4744 12.8652C39.8723 13.2844 39.1046 13.4344 38.5258 13.8834C38.0186 14.2754 37.3201 14.411 36.8762 14.848C36.5769 15.143 36.1739 15.1722 35.8707 15.3923C35.5959 15.591 35.2243 15.6558 35.0502 16.0152C34.9707 16.1799 34.6116 16.0898 34.3872 16.1753C34.0494 16.3029 33.7581 16.5279 33.5296 16.7422C33.3919 16.8705 33.3296 16.8551 33.181 16.9006C32.8736 16.9962 32.4851 17.0535 32.3476 17.4191C32.2971 17.5482 32.2453 17.6577 32.0126 17.5919C31.7667 17.5235 31.691 17.7251 31.8148 18.0872C31.6467 17.6611 31.4853 17.7798 31.2501 17.9659C31.0981 18.0881 30.9519 18.2745 30.6871 18.247C30.645 18.2423 30.5745 18.3129 30.5608 18.3624C30.493 18.6178 30.4292 18.8242 30.051 18.6454C29.9102 18.5771 29.8191 18.7648 29.7693 18.8798C29.6434 19.1845 29.5451 19.5038 29.0616 19.2971C28.9656 19.2568 28.9086 19.3577 28.8339 19.3955C28.5326 19.5453 28.2001 19.6655 28.1387 20.0509C28.1363 20.0714 28.1802 20.1077 28.0991 20.0853C27.6251 19.9579 27.5438 20.0373 27.6553 20.4904C27.6349 20.4898 27.606 20.4935 27.5964 20.4841C27.2764 20.1103 27.0851 20.1172 26.7562 20.5756C26.6737 20.6893 26.6367 20.7629 26.4825 20.7181C26.3577 20.6814 26.2948 20.756 26.2383 20.8368C26.1486 20.9584 26.0399 21.0132 25.8619 21.0126C25.5202 21.0116 25.3376 21.3054 25.0591 21.4352C24.78 21.5632 24.3998 21.6103 24.3523 22.0219C24.3432 22.116 24.1752 22.0829 24.0756 22.0595C23.791 21.9954 23.5678 22.0627 23.411 22.2798C23.2848 22.455 23.0251 22.3763 22.8757 22.5058C22.5372 22.7931 22.0672 22.8701 21.7032 23.1164C21.5758 23.202 21.3836 23.2012 21.439 23.4618C21.4692 23.6014 21.2165 23.5847 21.0973 23.5845C20.7478 23.5895 20.4816 23.6821 20.3253 23.9869C20.2687 24.0997 20.1797 24.1533 20.0118 24.0662C19.728 23.9182 19.3608 24.1454 19.3682 24.2351C19.3983 24.7079 19.0377 24.5383 18.81 24.5829C18.6143 24.6209 18.45 24.6944 18.3983 24.8957C18.3805 24.9722 18.3691 25.0331 18.2543 25.0017C17.8832 24.9008 17.608 25.0557 17.3198 25.224C17.1163 25.3438 16.8335 25.3491 16.6294 25.4672C16.186 25.7225 15.7203 25.94 15.2384 26.1198C14.9754 26.2156 14.7322 26.3101 14.5516 26.5177C14.5188 26.5543 14.424 26.5814 14.3794 26.5594C14.0374 26.4069 13.9918 26.6244 13.9531 26.882C13.7036 26.5992 13.5003 26.741 13.3111 26.8611C13.0009 27.0571 12.7909 27.3962 12.3644 27.4276C12.3527 27.4287 12.335 27.4354 12.3322 27.4441C12.1644 27.9495 11.5642 27.8356 11.2261 28.097C10.8831 28.3616 10.5125 28.5957 10.1791 28.8697C9.91838 29.0846 9.55765 29.1943 9.35329 29.4301C8.9826 29.8577 8.46381 30.0952 8.06705 30.5018C7.11236 31.4774 6.81031 32.7604 6.27154 33.9348C6.02171 34.4799 5.79779 35.0241 5.72472 35.6419C5.69189 35.9418 5.86899 36.2199 5.82281 36.4736C5.76637 36.7698 5.82511 37.0554 5.86459 37.3382C5.93216 37.8249 5.96131 38.3437 6.41961 38.7307C6.49276 38.791 6.41884 38.8685 6.41444 38.9375C6.38951 39.2693 6.57852 39.5522 6.71243 39.8498C6.81836 40.0889 7.0417 40.275 6.94683 40.6033C6.89104 40.7937 7.08434 41.0934 7.21945 41.3189C7.31788 41.4842 7.38997 41.6386 7.38492 41.8135C7.38138 42.0139 7.45484 42.1719 7.61734 42.3143C7.70648 42.3903 7.79154 42.4555 7.73744 42.6235C7.65412 42.875 7.85782 43.154 7.98524 43.3536C8.2289 43.7337 8.14264 44.1496 8.34052 44.5099C8.64635 45.061 8.58927 45.6945 8.96899 46.238C9.09966 46.4247 9.07472 46.7026 9.32655 46.8731C9.43474 46.9461 9.16515 46.9758 9.27317 47.1506C9.40399 47.3592 9.47366 47.604 9.59156 47.832C9.80232 48.2428 9.76423 48.7117 9.99213 49.1359C10.1677 49.4583 10.241 49.8258 10.4147 50.1487C10.6597 50.6023 10.7691 51.0659 10.8131 51.5489C11.5048 53.3919 12.1973 55.2366 12.8891 57.0795C13.1963 57.333 13.1896 57.7079 13.3252 58.0209C13.4623 58.3376 13.6133 58.6485 13.7619 58.9582C14.0223 59.5014 14.306 60.0364 14.5701 60.5787C14.6113 60.6615 14.6521 60.7324 14.7218 60.7997C14.9073 60.9818 15.2072 61.1136 15.0112 61.4469C14.9435 61.5626 15.1412 61.6857 15.1868 61.8072C15.4606 62.5204 15.9679 63.1457 16.1887 63.879C16.2235 63.9934 16.3236 64.0985 16.3995 64.204C16.6424 64.5444 16.6747 64.9587 16.9245 65.3013C17.1763 65.6493 17.3884 66.0258 17.6524 66.3686C17.9061 66.7002 17.9394 67.1063 18.2025 67.4413C18.3414 67.6178 18.4316 67.7395 18.665 67.6995C18.5895 67.9449 18.569 68.1379 18.7209 68.4027C19.2407 69.298 19.7557 70.1964 20.1972 71.1304C20.5065 71.7823 20.8315 72.4381 21.1959 73.0754C21.4991 73.6032 21.7693 74.1618 22.0162 74.7226C22.2142 75.1747 22.4369 75.6282 22.7187 76.04C22.8911 76.2895 22.9589 76.5667 23.1207 76.8149C23.1964 76.9305 23.242 77.052 23.3713 77.1274C23.4445 77.1718 23.4789 77.2365 23.4928 77.3165C23.5639 77.7804 23.7304 78.2348 24.0023 78.6254C24.4511 79.2722 24.581 80.0436 25.0295 80.6625C25.436 81.2288 25.6718 81.8464 25.9993 82.4336C26.4183 83.184 26.7576 83.9696 27.1778 84.7178C27.386 85.0893 27.456 85.5235 27.7981 85.8376C27.8633 85.8981 27.8893 85.989 27.8937 86.0815C27.9139 86.3774 28.0622 86.6272 28.2613 86.8616C28.3985 87.0226 28.5193 87.21 28.5348 87.4073C28.5577 87.7104 28.7117 87.9647 28.8754 88.2125C29.4456 89.0644 29.8197 89.9963 30.265 90.8974C30.3466 91.0612 30.4208 91.221 30.5546 91.357C30.6967 91.4988 30.8098 91.6064 30.7836 91.8647C30.7628 92.0677 31.0425 92.3286 31.1946 92.5615C31.2429 92.6364 31.3603 92.707 31.3582 92.7713C31.351 93.1881 31.7168 93.49 31.7982 93.8952C31.8632 94.219 31.9982 94.6001 32.3091 94.8526C32.5379 95.0372 32.4109 95.3123 32.5826 95.5061C33.0283 96.0101 32.9828 96.6904 33.3738 97.2049C33.8331 97.815 33.9075 98.5513 34.3497 99.1858C34.6696 99.6454 34.8751 100.225 35.0323 100.784C35.1316 101.134 35.2844 101.477 35.5665 101.755C35.6209 101.808 35.6816 101.884 35.6857 101.949C35.7299 102.438 36.11 102.815 36.2587 103.271C36.5918 104.287 37.2054 105.196 37.7099 106.147C38.1105 106.902 38.496 107.665 38.944 108.396C39.1799 108.782 39.4373 109.167 39.6927 109.546C40.0105 110.016 40.3781 110.441 40.7339 110.883C41.1723 111.427 41.6062 111.948 42.1965 112.38C42.8253 112.839 43.4271 113.317 44.1277 113.672C44.8013 114.014 45.5392 114.177 46.2139 114.516C46.3435 114.582 46.5294 114.598 46.6254 114.445C46.7214 114.292 46.8272 114.278 46.952 114.438C47.0969 114.625 47.2628 114.615 47.4695 114.59C48.3655 114.485 49.2314 114.279 50.0654 114.01C50.4461 113.889 50.8353 113.833 51.2169 113.736C51.3737 113.696 51.5277 113.666 51.636 113.529C51.7545 113.382 51.9111 113.32 52.1467 113.361C52.4825 113.422 52.7838 113.256 53.1103 113.227C53.2236 113.217 53.3371 113.213 53.4511 113.205C54.4687 112.934 55.4862 112.664 56.5018 112.394C56.5363 112.196 56.5825 112.066 56.8739 112.148C57.048 112.197 57.3754 112.284 57.3233 111.887C57.3055 111.748 57.433 111.862 57.4912 111.866C58.0874 111.9 58.6075 111.789 58.9109 111.274C58.9377 111.227 58.9494 111.21 59.0184 111.221C59.4876 111.298 59.8831 111.103 60.2089 110.879C60.5582 110.637 61.011 110.579 61.3222 110.288C61.391 110.224 61.5343 110.224 61.6465 110.216C61.9184 110.198 62.0407 110.11 61.819 109.793C62.2074 110.069 62.4095 109.768 62.6895 109.702C63.1792 109.586 63.6478 109.451 64.0447 109.174C64.4398 108.898 64.8612 108.702 65.3606 108.618C65.5584 108.585 65.7684 108.493 65.7739 108.191C65.7767 108.004 65.9274 107.825 66.2387 107.981C66.3657 108.045 66.5618 107.997 66.7151 107.965C66.963 107.915 67.1333 107.712 67.4132 107.693C67.6111 107.683 67.4906 107.485 67.4899 107.306C67.8158 107.652 68.0783 107.453 68.3497 107.369C68.3839 107.358 68.4386 107.331 68.4366 107.31C68.3935 106.797 68.8248 106.993 69.0803 106.969C69.2639 106.953 69.4327 106.94 69.5639 106.821C69.819 106.586 70.2049 106.597 70.4878 106.452C70.9904 106.193 71.6537 106.168 71.979 105.641C72.2582 105.782 72.4222 105.541 72.6517 105.512C73.0626 105.461 73.4501 105.358 73.7341 105.065C73.811 104.985 73.9082 105.061 73.9839 105.037C74.2692 104.941 74.595 104.948 74.8212 104.701C75.0212 104.48 75.4089 104.615 75.6563 104.445C75.6738 104.432 75.7048 104.434 75.7302 104.437C75.9968 104.464 75.9764 104.071 76.1913 104.121C76.4635 104.185 76.5568 104.024 76.7353 103.935C77.1203 103.739 77.5694 103.65 77.9699 103.474C78.4305 103.27 79.0217 103.408 79.421 103.056C79.5169 102.973 79.6513 102.927 79.6279 102.752C79.5953 102.525 79.7705 102.519 79.8845 102.634C80.2333 102.982 80.5194 102.679 80.7715 102.608C81.3087 102.457 81.7951 102.176 82.3282 101.993C82.9234 101.787 83.4925 101.522 84.0783 101.291C84.3971 101.166 84.7277 101.063 85.0518 100.947C85.2257 100.882 85.4091 100.844 85.3104 100.565C85.2499 100.387 85.4222 100.352 85.5589 100.425C85.8195 100.565 86.021 100.548 86.266 100.415C86.6208 100.225 87.1087 100.255 87.3693 99.8943C87.9289 100.013 88.2567 99.5788 88.7002 99.4311C89.1388 99.2867 89.605 99.1729 90.0374 98.9902C90.3912 98.8404 90.6852 98.5529 91.1293 98.5686C91.2116 98.5726 91.3088 98.487 91.365 98.4162C91.4954 98.2579 91.6702 98.1477 91.8709 98.1443C92.313 98.1385 92.5826 97.8236 92.9615 97.703C93.4632 97.5438 93.9908 97.4157 94.3734 97.0468C95.0516 97.1639 95.4838 96.6582 96.0805 96.5476C96.3771 96.4927 96.7497 96.4416 96.9702 96.1736C97.0106 96.125 97.1021 96.1107 97.1751 96.0953C97.7921 95.9633 98.3593 95.715 98.9497 95.5283C99.6152 95.3156 100.225 95.02 100.851 94.7441C100.951 94.6995 101.06 94.6707 101.155 94.6193C101.435 94.4653 101.657 94.211 102.052 94.2736C102.146 94.2884 102.282 94.2085 102.341 94.129C102.634 93.726 103.156 93.6432 103.544 93.3746C103.82 93.1837 104.016 92.9362 104.235 92.7024C104.366 92.566 104.235 92.3953 104.267 92.2432C104.454 92.5207 104.644 92.4403 104.786 92.2708C104.924 92.1065 105.067 91.9228 105.113 91.7212C105.155 91.5165 105.341 91.575 105.442 91.4961C106.044 91.0331 106.462 90.4135 106.984 89.8838C107.323 89.5385 107.606 89.1462 107.898 88.7715C108.22 88.3589 108.44 87.8495 108.612 87.345C109.066 86.0137 109.049 84.5741 109.174 83.1704C109.262 82.1818 108.872 81.2241 108.451 80.3007C108.355 80.0888 108.31 79.8892 108.252 79.6811C107.989 78.7655 107.529 77.9003 107.269 76.982C107.193 76.7149 107.155 76.3879 106.98 76.1773C106.703 75.8439 106.643 75.4848 106.568 75.1178ZM52.0749 15.3916C52.1646 15.3239 52.3722 15.3765 52.5248 15.3958C53.9192 15.5701 55.3139 15.6804 56.7007 16.0442C57.2812 16.1972 57.8847 16.4059 58.4988 16.3526C58.6085 16.3434 58.7424 16.3557 58.8424 16.4069C59.4469 16.7152 60.1107 16.7024 60.7303 16.895C61.6041 17.1675 62.4764 17.4466 63.3456 17.7443C64.2642 18.0609 65.1427 18.4858 66.0535 18.8244C66.7877 19.0962 67.5179 19.395 68.2365 19.7328C69.0123 20.0992 69.742 20.5637 70.5624 20.8445C70.9357 20.9727 71.2474 21.3188 71.634 21.5094C72.6776 22.0241 73.6775 22.6163 74.6097 23.3242C75.0419 23.6523 75.5172 23.923 75.99 24.2303C75.8689 24.2844 75.6311 24.162 75.5789 24.3834C75.5532 24.4979 75.4844 24.4224 75.4477 24.3783C75.1439 24.0102 74.6982 24.0388 74.3851 24.114C73.9555 24.2181 73.5731 24.0224 73.1733 24.0229C73.1252 24.0237 73.0673 23.9772 73.0244 23.9866C72.2424 24.1524 71.408 23.985 70.6222 24.1139C70.4263 24.146 70.4579 24.4348 70.2243 24.4689C70.1303 24.3423 70.3596 24.2914 70.227 24.1909C70.1401 24.1262 70.0616 24.2129 69.982 24.2161C69.6808 24.2263 69.3704 24.201 69.1988 24.4919C69.1889 24.5085 69.1382 24.524 69.1368 24.5204C68.8083 24.065 68.4852 24.5278 68.1456 24.4465C67.8304 24.3706 67.5645 24.6686 67.2036 24.5949C67.0618 24.5668 67.0421 24.7834 66.9504 24.8836C66.8468 24.8173 66.831 24.63 66.6489 24.7043C66.1609 24.9057 65.5334 24.8589 65.1471 25.1909C64.9107 25.3953 64.6484 25.3154 64.4366 25.4235C63.8287 25.7306 63.1847 25.9734 62.5757 26.2827C62.0403 26.5566 61.4923 26.8078 60.9589 27.0871C60.7392 27.2013 60.7021 27.4146 60.5635 27.5672C60.2987 27.2924 60.105 27.5672 60.0113 27.6619C59.6629 28.0198 59.1166 28.0711 58.7574 28.3839C58.4534 28.6501 58.3058 28.4021 58.2174 28.1882C58.0913 27.8846 57.9928 27.5577 57.9633 27.2424C57.8983 26.5635 57.6704 25.9079 57.5249 25.2404C57.306 24.2214 56.8877 23.2414 56.4805 22.2643C56.0793 21.2977 55.4817 20.4212 54.8512 19.5594C54.6449 19.279 54.5213 18.9388 54.2873 18.6599C53.7531 18.0278 53.3599 17.3084 52.865 16.6519C52.7336 16.4793 52.6312 16.2712 52.3773 16.2189C52.2721 16.197 52.2454 16.1043 52.2422 16.0094C52.2365 15.9352 52.2035 15.8581 52.2141 15.7895C52.2333 15.6308 51.878 15.5397 52.0749 15.3916ZM106.94 83.8676C107.041 84.1958 107.155 84.5325 107.226 84.8508C107.353 85.4113 107.146 85.9233 106.763 86.346C105.946 87.2513 105.088 88.1194 104.281 89.0378C104.033 89.319 103.668 89.5498 103.367 89.8151C102.981 90.1589 102.527 90.4433 102.075 90.665C101.765 90.815 101.407 90.9859 101.023 91.0659C100.485 91.1769 100.019 91.4623 99.5208 91.6744C99.295 91.7723 99.0307 91.7946 99.0314 92.1514C98.9505 91.9036 98.8104 91.875 98.6244 91.9444C98.106 92.1399 97.5958 92.3572 97.059 92.5037C96.7677 92.5831 96.5027 92.6036 96.5269 92.9801C96.5313 93.0348 96.4021 93.0512 96.3833 92.9744C96.2729 92.5349 96.0676 92.779 95.9708 92.9084C95.8343 93.0883 95.7179 93.1172 95.4688 93.0776C95.0879 93.0152 94.7687 93.2356 94.4447 93.3735C94.2396 93.4619 94.0464 93.5391 93.8133 93.5691C93.6072 93.5959 93.332 93.6052 93.3292 93.9151C93.3302 93.9986 93.271 94.0722 93.1837 94.0335C92.6735 93.804 92.3767 94.1541 92.015 94.326C91.9718 94.3454 91.9329 94.3817 91.887 94.3939C90.813 94.6751 89.8729 95.216 88.8579 95.6112C88.3836 95.795 87.8963 95.9604 87.4106 96.1193C87.2041 96.188 87.2197 96.4931 86.9479 96.4795C86.4974 96.4575 86.1948 96.6576 86.0368 97.0546C85.8915 96.9096 86.0623 96.8104 85.9783 96.7051C85.4059 96.7514 85.2284 96.8703 84.761 97.5191C84.4904 96.9706 84.1714 97.3744 83.9366 97.4428C83.2135 97.6528 82.4634 97.8659 81.8521 98.2497C81.5661 98.4294 81.0655 98.301 80.967 98.7381C80.6883 98.5767 80.5932 98.953 80.3437 98.8857C80.3188 98.8783 80.2759 98.8717 80.2695 98.8814C80.0932 99.2135 79.7031 99.0299 79.4343 99.1371C79.2643 99.2062 79.0946 99.2812 78.9786 99.4297C78.8608 99.5787 78.4883 99.4363 78.5876 99.8946C78.3172 99.4917 78.1508 99.6834 77.9211 99.7225C77.4511 99.7995 77.054 100.001 76.6228 100.143C76.3412 100.238 76.1752 100.404 76.0891 100.664C75.9253 100.394 75.6555 100.402 75.4585 100.69C75.3986 100.777 75.3766 100.891 75.3198 100.982C75.2595 101.08 75.2124 101.18 75.0256 101.07C74.8353 100.961 74.5935 101.205 74.382 100.986C74.3788 100.982 74.3524 100.987 74.3471 100.995C74.1502 101.374 73.6363 101.13 73.3383 101.428C73.0738 101.692 72.573 101.735 72.1795 101.882C72.0374 101.933 71.8403 101.936 71.8864 102.177C71.9093 102.302 71.7928 102.24 71.7263 102.245C71.2576 102.288 70.729 102.225 70.5819 102.813C70.5624 102.89 70.4709 103.05 70.332 102.927C70.0413 102.669 69.7705 102.809 69.5982 102.952C69.3513 103.155 69.0584 103.225 68.7738 103.339C68.4332 103.475 67.9556 103.44 67.8519 103.907C67.8391 103.964 67.802 104 67.7489 103.966C67.2589 103.661 67.5658 104.156 67.4382 104.236C67.2469 104.205 67.3763 104.001 67.2524 103.918C66.9937 103.961 67.0186 104.216 66.8952 104.414C66.8124 104.221 66.7258 104.092 66.5083 104.218C66.2716 104.356 66.0206 104.479 65.734 104.533C65.5719 104.564 65.4039 104.654 65.3513 104.794C65.2853 104.973 65.2618 105.115 64.9904 105.059C64.8138 105.025 64.904 105.238 64.8562 105.321C64.6779 105.33 64.6968 104.966 64.5019 105.119C64.3738 105.219 64.0222 105.165 64.1638 105.504C64.1967 105.581 64.1005 105.621 64.0451 105.592C63.5768 105.345 63.5041 105.759 63.3006 105.949C63.1827 106.06 63.1852 106.363 62.8705 106.089C62.7717 106.004 62.6704 106.18 62.688 106.313C62.7006 106.428 62.6648 106.483 62.5495 106.472C62.4819 106.464 62.3543 106.474 62.3779 106.37C62.4332 106.13 62.2791 106.23 62.1835 106.234C61.7447 106.249 61.4918 106.473 61.3891 106.916C61.2046 106.725 61.0908 106.616 60.9305 106.91C60.8475 107.065 60.4793 107.085 60.2428 107.176C59.4915 107.461 58.6953 107.665 58.1555 108.277C58.1334 108.299 58.1192 108.368 58.0925 108.33C57.8019 107.932 57.6343 108.32 57.4826 108.4C57.0311 108.633 56.5222 108.731 56.0463 108.905C55.8633 108.971 55.7786 109.042 55.8401 109.265C55.5505 109.021 54.8077 109.124 54.6432 109.385C54.4966 109.614 54.352 109.826 54.0477 109.478C53.9563 109.374 53.8571 109.47 53.7698 109.501C53.4922 109.601 53.2132 109.681 52.9162 109.74C52.6272 109.799 52.3618 109.931 52.045 109.954C51.8207 109.969 51.7447 110.165 51.6393 110.353C51.5061 110.589 51.4188 110.088 51.1179 110.212C50.4072 110.508 49.6364 110.715 48.8776 110.889C48.1733 111.052 47.4787 111.332 46.6869 111.235C46.2333 111.178 45.9095 110.875 45.5124 110.721C44.8829 110.475 44.4846 109.931 43.9609 109.547C43.7517 109.393 43.5519 109.227 43.3473 109.064C43.308 109.034 43.2487 109 43.2413 108.964C43.119 108.38 42.5271 108.041 42.3212 107.503C41.8843 107.432 41.987 106.974 41.7223 106.753C41.5989 106.65 41.3422 106.483 41.4093 106.172C41.4466 106.002 41.2514 105.681 41.0695 105.552C40.6737 105.272 40.6833 104.856 40.5044 104.509C40.1031 103.736 39.7407 102.942 39.2537 102.21C39.0255 101.866 38.9458 101.492 38.7612 101.14C38.3551 100.37 38.0342 99.5638 37.6823 98.7715C37.6414 98.6787 37.6317 98.5775 37.6029 98.4794C37.5425 98.2701 37.4751 98.0905 37.1782 98.1713C36.9549 98.2327 36.8716 98.1131 36.9739 97.9284C37.1373 97.6317 37.0296 97.377 36.8925 97.0604C36.5973 96.3708 36.2001 95.7163 35.9812 94.9985C35.887 94.6884 35.6218 94.4337 35.5003 94.1208C35.4224 93.9241 35.342 93.726 35.2623 93.5298C35.0229 92.9351 34.7309 92.3564 34.4621 91.7695C34.4214 91.6826 34.3191 91.6898 34.2844 91.6511C34.1467 91.4942 33.8608 91.3727 34.0462 91.108C34.0838 91.0521 34.0671 90.9967 34.037 90.9329C33.7618 90.3557 33.5677 89.747 33.1918 89.2085C33.1417 89.1341 33.0913 89.0537 33.0625 88.9716C32.8498 88.3618 32.774 88.3321 32.2816 88.7421C32.3324 88.4633 32.3805 88.2631 32.5126 88.0664C32.7106 87.7705 32.1733 87.1192 31.7112 87.1043C31.8754 86.939 31.8528 86.7874 31.8111 86.5632C31.7122 86.0309 31.2245 85.6677 31.1435 85.1507C31.1412 85.1393 31.1393 85.1179 31.1324 85.1157C30.6823 84.9281 30.8691 84.4895 30.6723 84.1966C30.4418 83.8569 30.2818 83.4845 30.1284 83.1083C29.9781 82.7453 29.8098 82.3831 29.6093 82.0374C29.4022 81.6795 29.3401 81.2232 28.8702 81.0209C28.7924 80.9857 28.8776 80.9112 28.8716 80.8629C28.8118 80.44 28.8158 79.9881 28.3144 79.7283C28.2716 79.7058 28.2 79.639 28.2012 79.6367C28.523 79.2241 27.7354 79.0523 27.8873 78.6768C27.8959 78.6566 27.8547 78.5897 27.8297 78.5824C27.3965 78.4561 27.4991 78.0837 27.3809 77.8119C27.2527 77.5188 27.223 77.1597 26.8071 77.0527C26.7398 77.0347 26.7301 76.9874 26.7406 76.9347C26.8346 76.4909 26.5651 76.1874 26.2706 75.8548C26.135 75.7033 26.1549 75.4227 26.0755 75.2004C25.9654 74.8965 25.7644 74.6407 25.621 74.3557C25.5161 74.1462 25.4316 74.3083 25.2898 74.3718C25.3933 74.1149 25.4564 73.8848 25.2862 73.6627C25.1851 73.5279 25.1384 73.285 24.867 73.407C24.8123 73.4334 24.69 73.4141 24.6828 73.3143C24.6632 73.0522 24.2744 72.8183 24.4965 72.5598C24.6189 72.4176 24.5752 72.3874 24.4849 72.2438C24.2791 71.9214 24.1218 71.5722 23.9713 71.2252C23.82 70.8705 23.6608 70.5218 23.4304 70.204C23.1255 69.7843 23.0731 69.2736 22.7713 68.857C22.3448 68.2642 22.2491 67.5356 21.7683 66.9651C21.7051 66.8881 21.7049 66.7745 21.5497 66.8077C21.4712 66.8246 21.3958 66.7528 21.4507 66.6625C21.5922 66.4314 21.4285 66.2375 21.316 66.04C20.837 65.1997 20.3955 64.3356 19.8469 63.5358C19.6699 63.2796 19.5909 62.9076 19.2298 62.7582C19.1526 62.7248 19.2062 62.6467 19.1931 62.5904C19.1742 62.4917 19.1586 62.3103 19.1339 62.3089C18.5782 62.233 18.9575 61.7314 18.6634 61.5023C18.3694 61.2732 18.4103 60.8494 18.2054 60.5348C17.9959 60.2134 17.8652 59.8492 17.7079 59.5C17.4394 58.9031 17.0953 58.3362 16.7781 57.7602C16.3974 57.0634 16.0176 56.3584 15.7023 55.6422C15.4709 55.1172 15.2293 54.581 15.0367 54.0357C14.8403 53.4855 14.6781 52.9082 14.4001 52.3936C14.0909 51.8174 13.8721 51.2452 13.7573 50.6274C13.7171 50.4127 13.617 50.1999 13.4584 50.0086C13.3616 49.8907 13.125 49.766 13.3227 49.5719C13.3377 49.558 13.3182 49.4953 13.2975 49.4669C12.7559 48.7989 12.9655 47.9154 12.4255 47.2569C12.1585 46.9329 12.2625 46.5482 12.0603 46.2249C11.8452 45.8831 11.8463 45.8808 11.5657 46.1448C11.483 45.9513 11.5111 45.8003 11.6185 45.6182C11.8023 45.306 11.5311 44.9711 11.4735 44.6453C11.4385 44.4392 11.3382 44.2364 11.2582 44.0343C11.1994 43.8883 11.2036 43.6359 10.9233 43.82C10.8502 43.8674 10.8391 43.7785 10.8292 43.7413C10.7889 43.5964 10.6971 43.4273 10.735 43.3075C10.8511 42.9336 10.7278 42.5834 10.5357 42.2653C10.2055 41.7247 10.1845 41.1199 9.91925 40.564C9.28942 39.2412 8.92868 37.8389 8.33537 36.5005C8.14033 36.0616 7.92099 35.6171 7.86097 35.1344C7.83335 34.9263 7.88949 34.7638 7.9361 34.5759C8.08103 33.9988 8.57223 33.6609 8.97202 33.3592C9.31705 33.1001 9.57115 32.6955 10.0569 32.5744C10.4042 32.4882 10.6238 32.1745 10.8973 31.9723C11.3509 31.6364 11.9416 31.4775 12.305 31.0359C12.3988 30.9252 12.5393 30.8959 12.652 30.852C13.2727 30.6114 13.7573 30.1376 14.4029 29.9741C14.8634 29.8558 15.2825 29.6647 15.7209 29.5144C16.2332 29.3404 16.7021 29.0723 17.2257 28.9013C17.8269 28.7057 18.4283 28.5001 18.9957 28.2198C19.4185 28.0118 19.8561 27.8217 20.2685 27.5965C20.6523 27.3869 21.0299 27.1769 21.4662 27.0531C21.7812 26.9614 22.0595 26.7559 22.3178 26.5776C22.6949 26.3178 23.1717 26.259 23.5358 25.9968C23.921 25.7209 24.3694 25.538 24.8037 25.3389C25.3109 25.1084 25.7829 24.8215 26.2676 24.5632C26.5625 24.4071 26.8128 24.1969 27.1079 24.0468C27.3228 23.9359 27.4982 23.7576 27.778 23.7711C27.8144 23.7714 27.8574 23.762 27.8838 23.741C28.4555 23.2999 29.1908 23.1066 29.7756 22.706C30.1178 22.4715 30.5082 22.274 30.791 21.9297C30.9256 21.7663 31.3087 21.7323 31.5303 21.5478C31.7387 21.3768 32.0903 21.3771 32.1744 21.0416C32.1875 20.9903 32.4443 21.0557 32.5742 20.9714C33.0375 20.6668 33.4904 20.3451 34.0551 20.2031C34.079 20.1967 34.1132 20.1857 34.1188 20.1682C34.245 19.6759 34.741 19.7596 35.1014 19.606C35.5811 19.3989 36.0101 19.0835 36.4212 18.7689C36.6758 18.5756 37.0176 18.5606 37.2608 18.3424C37.8929 17.7716 38.6776 17.3817 39.3997 16.9326C40.1449 16.4694 40.9096 15.9831 41.8247 15.7899C41.8867 15.7774 41.9931 15.7811 42.0038 15.7503C42.2148 15.0859 42.8482 15.6218 43.2427 15.4512C43.6918 15.2542 44.2073 15.223 44.7093 15.1615C45.4562 15.0689 46.2287 15.2168 46.9674 15.1024C47.1567 15.074 47.2861 15.1334 47.4204 15.2653C47.7 15.5421 47.975 15.8281 48.3709 15.9464C48.4259 15.9637 48.4803 16.0012 48.4468 16.0519C48.2681 16.3128 48.5387 16.4365 48.6812 16.5741C49.1372 17.0195 49.4397 17.5616 49.8189 18.0553C50.3101 18.6968 50.6092 19.4452 51.1154 20.0727C51.461 20.5036 51.6122 21.014 51.9501 21.4408C52.679 22.3603 53.196 23.3879 53.7822 24.3792C54.0178 24.7755 54.1771 25.1999 54.3639 25.5951C54.6787 26.2616 54.9222 26.9748 55.1138 27.6899C55.3859 28.7108 55.6158 29.7428 56.0352 30.7365C56.1327 30.964 57.0385 31.5313 57.2896 31.5763C57.6955 31.646 58.0976 31.7487 58.4967 31.8541C58.8434 31.9436 59.397 31.7128 59.4659 31.3853C59.504 31.2176 59.5569 31.3532 59.5972 31.3584C59.8927 31.3976 60.1053 31.2913 60.3553 31.1611C60.7255 30.969 60.9526 30.5516 61.4805 30.575C61.6877 30.5838 61.8884 30.4188 62.0878 30.326C62.528 30.1213 62.9489 29.8759 63.4099 29.7156C64.1962 29.4429 65.0073 29.2255 65.8089 28.9827C65.9722 28.9334 66.177 28.9248 66.2597 28.7632C66.367 28.5592 66.466 28.8122 66.6051 28.7792C67.5651 28.5442 68.5733 28.4859 69.5672 28.3736C69.7395 28.3537 69.9283 28.3455 70.0477 28.2061C70.1083 28.1361 70.1693 28.1319 70.2448 28.1876C70.4675 28.3559 70.7288 28.3204 70.9103 28.2443C71.4024 28.0378 71.9329 28.2081 72.4406 28.167C73.1121 28.1104 73.823 28.2986 74.4696 28.2186C75.1063 28.1393 75.6964 28.3715 76.2982 28.4251C77.3301 28.5161 78.3988 28.8128 79.3853 29.2131C79.9149 29.4295 80.5192 29.7856 80.7639 30.4806C81.0154 31.1938 81.4301 31.8735 81.7441 32.5701C82.0213 33.1847 82.3744 33.7811 82.5436 34.4363C82.6091 34.6862 82.7425 34.934 82.8673 35.1642C83.1731 35.7312 83.336 36.3482 83.6696 36.8979C83.8977 37.2742 83.9645 37.7212 84.3199 38.0438C84.4263 38.1392 84.4771 38.2853 84.4485 38.4564C84.4196 38.6217 84.4188 38.8293 84.6527 38.9467C84.6992 38.9683 84.7298 39.0499 84.7454 39.1076C84.928 39.7553 85.2161 40.367 85.5289 40.9741C85.9158 41.7251 86.1844 42.5215 86.6122 43.2576C86.6576 43.3353 86.7121 43.4106 86.7779 43.4729C87.1921 43.8716 87.4924 44.3164 87.5501 44.8736C87.5611 44.9784 87.6664 45.0382 87.7473 45.1085C87.9141 45.2517 88.0458 45.4301 88.0128 45.6384C87.9759 45.8736 88.1194 46.0569 88.2461 46.2167C88.4695 46.4945 88.6846 46.7446 88.6833 47.1179C88.6825 47.3256 88.9568 47.4482 89.0338 47.6911C89.2531 48.3829 89.69 49.0088 90.0145 49.6687C90.2172 50.0796 90.3733 50.5548 90.7248 50.9262C90.8929 51.105 90.7925 51.397 90.9934 51.6149C91.2072 51.8454 91.2536 52.1682 91.4774 52.4199C91.6215 52.5831 91.6377 52.8361 91.7568 53.0459C92.2146 53.8458 92.6377 54.661 93.0675 55.4724C93.1231 55.5773 93.1674 55.6793 93.2802 55.7431C93.3869 55.8065 93.4861 55.8719 93.4076 56.0124C93.3471 56.1203 93.439 56.2415 93.516 56.2689C93.8815 56.4032 93.8158 56.7179 93.9183 56.964C94.0766 57.3428 94.2648 57.7097 94.5381 58.0341C94.5819 58.0863 94.6395 58.1268 94.6345 58.194C94.6105 58.5175 94.8407 58.7596 94.9975 59.0212C95.4238 59.7318 95.7189 60.4912 96.0878 61.221C96.403 61.8454 96.6331 62.5284 97.1534 63.0644C97.1868 63.0994 97.2173 63.1591 97.2125 63.2003C97.148 63.744 97.6552 64.116 97.8198 64.6029C97.9973 65.1242 98.3217 65.6764 98.7109 66.1535C98.8161 66.2832 98.8785 66.4441 98.9467 66.5936C98.9822 66.6719 99.026 66.7401 99.1055 66.7529C99.2453 66.7756 99.1707 66.6198 99.2516 66.5664C99.1296 67.4466 99.7504 68.1534 100.038 68.9367C100.308 69.6769 100.808 70.326 101.191 71.0241C101.309 71.2343 101.443 71.468 101.797 71.4058C101.621 71.6242 101.625 71.8245 101.799 72.0338C102.032 72.3109 102.283 72.6033 102.448 72.8907C102.613 73.1741 102.68 73.5471 102.863 73.8416C103.349 74.626 103.601 75.4907 104.02 76.2991C104.291 76.8234 104.45 77.4117 104.662 77.9676C104.951 78.7148 105.072 79.5283 105.627 80.1869C105.753 80.3349 105.638 80.4391 105.675 80.5731C105.848 81.2013 106.237 81.7643 106.366 82.4161C106.424 82.7081 106.54 83.1141 106.853 83.3739C107.03 83.5224 106.89 83.7074 106.94 83.8676ZM91.6753 69.1809C91.625 69.0307 91.5328 68.8497 91.3972 68.8219C91.0349 68.7446 90.9771 68.4667 90.9156 68.2277C90.758 67.6033 90.4105 67.0274 90.2696 66.4045C90.1332 65.8044 89.393 65.4305 89.4881 64.753C89.4931 64.7178 89.4309 64.6704 89.4003 64.6267C88.8517 63.8109 88.2395 63.03 87.7376 62.1879C87.6542 62.0465 87.4807 61.9449 87.4112 61.8457C87.2488 61.6175 86.9692 61.3786 86.9158 61.2093C86.8085 60.8588 86.6737 60.5535 86.4383 60.2709C85.938 59.6697 85.5866 58.9651 84.9759 58.4412C84.9135 58.3879 84.8787 58.3114 84.8891 58.2368C84.9102 58.0776 84.7641 58.0007 84.704 57.889C84.6073 57.7013 84.326 57.7321 84.3004 57.5294C84.2724 57.3095 84.3017 57.0863 83.9413 57.17C83.8727 57.1862 83.851 57.0962 83.8728 57.0306C83.9818 56.6805 83.6241 56.4703 83.5227 56.1841C83.4933 56.1001 83.4025 56.0305 83.3017 56.0632C83.0371 56.1495 83.0918 55.9614 83.095 55.8409C83.1004 55.5861 83.0088 55.3691 82.7876 55.2104C82.6495 55.1114 82.5721 54.9804 82.4861 54.8536C82.0921 54.2721 81.7084 53.6858 81.3151 53.106C81.2531 53.0108 81.1727 52.8666 81.0498 52.9052C80.7511 53.0025 80.835 52.7688 80.8116 52.6633C80.7294 52.2882 80.6152 51.9195 80.2924 51.6622C80.1406 51.5429 80.0529 51.4385 79.9832 51.2636C79.8905 51.0328 79.8319 50.7153 79.4076 50.7901C79.2878 50.8099 79.1132 50.587 79.185 50.4283C79.255 50.2761 79.1801 50.2002 79.1169 50.0694C78.9101 49.6476 78.5145 49.3417 78.312 48.9367C78.1234 48.5579 77.7455 48.3531 77.5472 47.943C77.2341 47.2921 76.619 46.7672 76.2078 46.1344C76.1105 45.9827 75.9854 45.6549 75.6438 45.7995C75.5707 45.8308 75.4806 45.7251 75.5189 45.6551C75.6356 45.4386 75.4709 45.3228 75.3452 45.1706C75.182 44.9726 75.008 44.7675 74.9149 44.5409C74.7929 44.2481 74.641 44.091 74.2647 44.1969C74.4087 43.9133 74.3107 43.69 74.1852 43.474C74.0458 43.2318 73.8716 43.0745 73.5721 43.202C73.5038 43.2301 73.4861 43.1291 73.4655 43.0687C73.4433 42.9988 73.4223 42.9106 73.367 42.8655C73.0959 42.6383 72.9444 42.3693 72.9304 42.0359C72.9272 41.9789 72.8886 41.8655 72.8491 41.884C72.5777 42.0219 72.6745 41.7847 72.6562 41.7038C72.5998 41.4674 72.403 41.3143 72.2601 41.1328C72.1011 40.9297 72.0953 41.2424 71.9743 41.2107C71.8707 41.1823 71.7928 41.1093 71.8138 41.0199C71.9265 40.5452 71.5319 40.3388 71.2369 40.0641C70.9241 39.7741 70.618 39.6958 70.2822 39.9366C70.2299 39.5336 70.0011 39.2792 69.6229 39.2241C69.3322 39.1816 69.3987 39.493 69.2731 39.6481C69.1032 39.1147 69.1078 39.0896 68.7924 39.0078C68.5436 38.9422 68.2903 38.8918 68.0462 38.801C67.9617 38.7696 67.8842 38.7782 67.8387 38.8401C67.726 38.9918 67.5853 39.0152 67.385 38.9766C67.2544 38.9514 67.1134 39.0009 66.9877 39.0642C66.7496 39.1832 66.3469 38.9391 66.2205 39.3178C66.1708 39.2771 66.1236 39.2318 66.0705 39.198C66.0439 39.1811 66.0033 39.1859 65.9735 39.1819C65.9268 39.2781 66.0002 39.3982 65.8916 39.4749C65.72 39.2652 65.5257 39.2749 65.2986 39.3532C65.0012 39.4541 64.6926 39.536 64.3803 39.597C64.2391 39.6246 64.115 39.6436 64.0365 39.7681C63.9751 39.8682 63.8856 39.9418 63.756 39.8386C63.6359 39.7448 63.5425 39.8135 63.4322 39.8209C63.1955 39.8359 63.0841 39.9752 62.9347 40.1206C62.8546 40.1977 62.5453 39.9547 62.3258 40.0589C62.2413 40.0973 62.115 40.073 62.0891 40.1975C62.083 40.2351 62.1122 40.329 62.0266 40.2839C61.6073 40.0602 61.3061 40.3716 60.9545 40.425C60.7081 40.4626 60.3937 40.5181 60.2373 40.7472C60.082 40.9739 59.9646 41.043 59.6662 40.9746C59.589 40.9572 59.5466 41.0004 59.5061 41.0431C59.3665 41.1879 59.1651 41.2214 58.9802 41.2885C58.7239 41.3805 58.4585 41.443 58.2022 41.535C57.7245 41.7097 57.4565 42.1958 56.8986 42.2322C56.8771 42.234 56.862 42.2639 56.8413 42.2734C56.3831 42.4569 55.9435 42.6634 55.5183 42.908C54.9379 43.2397 54.2996 43.487 53.6852 43.7658C53.4486 43.8725 53.2684 44.0221 53.2213 44.284C53.2028 44.3906 53.139 44.5113 53.0327 44.4218C52.7602 44.191 52.5397 44.3513 52.3773 44.4622C52.0429 44.6907 51.6319 44.7739 51.2925 44.9837C50.8824 45.2362 50.3272 45.3338 50.2171 45.9176C50.1827 46.1003 50.0078 46.027 49.87 45.9559C49.6271 45.8309 49.4743 45.9134 49.3776 46.1186C49.3252 46.2263 49.2866 46.3442 49.2145 46.4372C49.1151 46.5653 48.9979 46.6942 48.8402 46.4409C48.6863 46.1925 48.5155 46.2917 48.3637 46.4038C48.2987 46.451 48.2405 46.5921 48.208 46.5808C47.8225 46.4578 47.7511 46.7141 47.6843 46.9612C47.5645 46.9272 47.598 46.6989 47.415 46.8034C46.6751 47.2213 45.664 47.2664 45.2824 48.1816C45.1479 48.0278 45.0516 47.8519 44.8503 47.9453C44.5889 48.0666 44.4847 48.4832 44.0518 48.277C43.8837 48.577 43.5211 48.5257 43.2482 48.638C43.0685 48.7137 42.9823 48.8982 42.7242 48.9208C42.3922 48.9511 41.9287 48.8947 41.8765 49.4013C41.8746 49.4177 41.6751 49.7579 41.4518 49.4482C41.3758 49.3427 41.2697 49.4367 41.1738 49.4502C41.0331 49.4736 40.9755 49.6106 40.8104 49.6066C40.4698 49.6033 40.2575 49.7694 40.2562 50.1427C40.0006 49.8276 39.7896 49.8198 39.5613 50.0939C39.5221 50.1402 39.4972 50.1867 39.4258 50.1957C39.1268 50.2332 38.8813 50.3323 38.7792 50.6307C38.7544 50.6992 38.6632 50.7792 38.5917 50.7823C38.4522 50.7874 38.5121 50.6618 38.486 50.5869C38.4146 50.3805 38.2741 50.4796 38.1806 50.5264C37.9694 50.6364 37.7896 50.8517 37.5673 50.8728C36.8746 50.943 36.3561 51.348 35.7306 51.5381C35.4659 51.6184 35.6294 52.0377 35.3731 52.0061C35.1448 51.9789 34.949 51.8933 34.7297 52.0193C34.5953 52.0969 34.4534 52.1765 34.2865 52.2268C33.7538 52.3842 33.2429 52.5997 32.7336 52.8087C32.3339 52.9707 31.9643 53.1966 31.5514 53.3182C31.1882 53.4266 31.0449 53.7659 30.6054 53.8487C29.8921 53.9823 29.4567 54.6465 28.8447 55.0124C28.7128 55.0914 28.7649 55.2949 28.5944 55.3841C28.2954 55.5453 28.0368 55.7656 27.8462 56.0436C27.6105 56.3894 27.3578 56.7278 27.4131 57.1979C27.4233 57.2789 27.3216 57.3039 27.2833 57.358C26.9343 57.8596 26.5684 58.3537 26.8005 59.0581C26.8311 59.1557 26.9515 59.2075 26.9283 59.3233C26.8507 59.703 27.0243 60.0578 27.1754 60.4067C27.5111 61.1772 27.8542 61.9459 28.2333 62.7029C28.3255 62.8839 28.34 63.2132 28.6964 63.1943C28.9956 63.1787 29.0083 63.3149 28.9025 63.5066C28.8018 63.6849 28.8015 63.8346 28.9121 64.0486C29.1898 64.5892 29.4149 65.1458 29.7024 65.6858C30.0717 66.3737 30.1685 67.1698 30.7296 67.7928C30.7611 67.8283 30.7705 67.8856 30.7783 67.9334C30.8408 68.3098 31.0313 68.6342 31.2538 68.9581C31.52 69.3442 31.8326 69.7359 31.9647 70.1576C32.0716 70.4963 32.2702 70.7726 32.4497 71.0461C32.7027 71.4298 32.8268 71.9433 32.5697 72.3667C32.8257 72.2847 32.9872 72.2199 33.1178 72.4765C33.5279 73.2891 33.9325 74.1032 34.3972 74.8894C34.7734 75.5256 35.0286 76.2218 35.5233 76.8025C35.5594 76.8448 35.5607 76.9182 35.5646 76.977C35.5832 77.2095 35.6667 77.4426 35.8371 77.6008C36.1671 77.9042 36.3193 78.2667 36.4694 78.6557C36.7393 79.3639 37.2387 79.9734 37.5825 80.658C37.9587 81.4019 38.4132 82.1229 38.7696 82.884C39.0325 83.4445 39.4467 83.9509 39.6775 84.512C39.9499 85.1677 40.3108 85.774 40.6524 86.3934C40.889 86.8193 41.2276 87.2101 41.4344 87.6319C41.7661 88.3058 42.1539 88.9568 42.4617 89.6371C42.6263 90.0003 43.0189 90.2551 43.0427 90.6736C43.0513 90.8149 43.1261 90.9227 43.2008 91.0465C43.4169 91.3961 43.5867 91.7679 43.7754 92.1307C43.9343 92.4355 44.0339 92.7602 44.1887 93.0701C44.3919 93.477 44.6722 93.8633 44.773 94.3093C44.8555 94.6743 45.1192 94.9733 45.2435 95.3313C45.3054 95.5123 45.4305 95.7005 45.5061 95.9019C45.6443 96.2701 45.8048 96.6384 46.0052 96.9841C46.1123 97.1671 46.3947 97.2736 46.2124 97.5414C46.1737 97.5996 46.2552 97.7575 46.3251 97.7609C46.7057 97.7795 46.5554 98.0408 46.5846 98.2046C46.6099 98.3475 46.642 98.4706 46.7763 98.5646C46.8522 98.6163 46.9565 98.6843 46.941 98.7722C46.8597 99.2067 47.3729 99.3955 47.4908 99.3543C47.8343 99.2311 47.9984 99.5067 48.2258 99.5959C48.4619 99.6868 48.7104 99.5849 48.96 99.7979C49.0677 99.891 49.4793 99.9652 49.655 99.9006C50.0387 99.7607 50.4603 99.8024 50.8461 99.7538C51.4126 99.6811 51.9298 99.5039 52.4646 99.3738C52.8604 99.2767 53.2456 99.1245 53.6558 99.0874C54.9727 98.969 56.0426 98.268 57.2849 97.978C57.3198 97.9687 57.3486 97.9431 57.3801 97.9248C57.7716 97.6872 58.2008 97.4854 58.6107 97.2968C59.1775 97.0365 59.6652 96.6517 60.2706 96.451C60.601 96.3413 60.8597 95.9974 61.1882 95.974C61.889 95.9255 62.3247 95.4826 62.8533 95.1906C63.0721 95.0687 63.3394 95.1673 63.5038 95.0079C63.9014 94.6251 64.4657 94.4712 64.9426 94.2189C65.4934 93.927 65.9829 93.5038 66.6407 93.373C66.8211 93.337 66.9414 93.1894 67.1233 93.1251C67.6355 92.9452 68.085 92.6523 68.5992 92.4619C69.0012 92.3113 69.4494 92.1763 69.6915 91.7828C69.7079 91.7565 69.7589 91.731 69.7894 91.7369C70.2622 91.8288 70.5853 91.5435 70.9238 91.3638C71.6482 90.9799 72.4093 90.6561 73.133 90.2705C73.6402 90.0021 74.1874 89.765 74.7439 89.5634C75.3023 89.3612 75.7375 88.9604 76.3199 88.7738C76.7495 88.6378 77.1256 88.3644 77.5008 88.1211C77.8445 87.8962 78.071 87.5149 78.553 87.4806C78.5961 87.4771 78.6359 87.3948 78.6538 87.3402C78.6963 87.2112 78.7941 87.1812 78.9208 87.2014C79.029 87.2206 79.1265 87.2166 79.2143 87.1654C80.1217 86.6232 81.0406 86.0959 81.9318 85.5321C82.6459 85.0831 83.3082 84.5661 84.0132 84.1037C84.3926 83.8553 84.7556 83.5634 85.1305 83.3083C85.6803 82.9328 86.2 82.5096 86.8037 82.2076C86.9944 82.1131 87.0001 81.9021 87.1865 81.8068C87.5234 81.6335 87.8224 81.4025 88.1429 81.2017C88.565 80.938 88.8691 80.5481 89.2916 80.2803C89.8085 79.9515 90.3126 79.5942 90.5775 79.0192C90.6011 78.9691 90.6522 78.9116 90.7032 78.902C91.2012 78.7977 91.343 78.395 91.5158 78.016C91.556 77.9295 91.5918 77.8043 91.6662 77.7766C92.129 77.6158 92.137 77.1529 92.3081 76.8122C92.6065 76.2243 92.5223 75.5266 92.598 74.8781C92.6619 74.3166 92.8049 73.756 92.669 73.1678C92.5535 72.6718 92.3386 72.1963 92.3347 71.6747C92.3333 71.348 92.4626 70.9446 92.0428 70.6711C92.0213 70.6569 92.0149 70.5967 92.0249 70.5641C92.1688 70.0651 91.8265 69.6374 91.6753 69.1809ZM52.5977 48.1378C53.3706 47.6573 54.1938 47.2352 55.0497 46.8683C55.3195 46.7528 55.6424 46.6391 55.8785 46.4128C56.2296 46.0782 56.7883 46.0814 57.1896 45.8053C57.8974 45.3181 58.7476 45.0704 59.5284 44.7075C59.5849 44.6805 59.6435 44.6589 59.6897 44.6207C60.3854 44.0689 61.292 43.9499 62.1299 43.6854C63.2092 43.343 64.3231 43.093 65.4017 42.7487C66.1503 42.51 66.9009 42.2389 67.6979 42.113C68.0469 42.0582 68.3606 42.1405 68.6972 42.3323C69.4207 42.7426 69.8185 43.4149 70.3251 44.0004C71.326 45.1549 72.0492 46.4788 72.9894 47.6653C73.2285 47.9688 73.3115 48.3996 73.8165 48.5667C73.4699 48.6927 73.2359 48.8386 73.0856 49.0999C72.9941 49.2599 72.7219 49.1427 72.5755 49.2693C72.0262 49.7483 71.2802 49.9723 70.7541 50.497C70.5911 50.66 70.3487 50.8161 70.0551 50.8841C69.4581 51.0208 69.0165 51.4532 68.4467 51.6624C68.271 51.727 68.1944 51.9428 68.1455 52.1353C68.1248 52.2146 68.1159 52.3147 67.9939 52.3072C67.8825 52.3009 67.8963 52.2194 67.8801 52.1439C67.8314 51.9335 67.7117 52.0451 67.6274 52.0894C66.7586 52.5515 65.9355 53.0813 65.0472 53.5127C64.7822 53.6409 64.6169 53.8623 64.2667 53.9354C63.8312 54.0291 63.5167 54.4717 63.0827 54.6069C62.5796 54.7624 62.3696 55.263 61.8607 55.3762C61.7884 55.3934 61.7474 55.4941 61.6889 55.5535C61.6316 55.6106 61.6026 55.738 61.4998 55.6955C61.1477 55.5536 60.883 55.7795 60.7212 55.9242C60.3647 56.2443 59.8425 56.3111 59.5298 56.6834C59.4111 56.8246 59.1568 56.8304 58.9709 56.9216C58.6209 57.0923 58.3478 57.3763 57.9584 57.4797C57.8347 57.5106 57.7944 57.6131 57.7458 57.7097C57.611 57.9909 57.2354 58.0288 57.068 57.7441C56.9176 57.4888 56.7538 57.5204 56.4622 57.5938C56.7449 56.9263 56.1828 56.5749 55.938 56.1273C55.8428 55.9491 55.6651 55.8148 55.5811 55.6177C55.5193 55.4745 55.4014 55.3004 55.2868 55.5761C55.256 55.6502 55.2016 55.7045 55.1126 55.6503C55.0243 55.598 55.043 55.5132 55.0811 55.4532C55.3254 55.0712 54.928 54.8356 54.7752 54.5471C54.7554 54.5104 54.671 54.463 54.6448 54.474C53.9766 54.7492 54.2518 54.1156 54.2366 53.9999C54.1981 53.709 54.0023 53.5695 53.8683 53.3577C53.6527 53.02 53.1283 52.9359 53.1137 52.4451C53.1066 52.2056 52.9509 51.9577 52.5911 52.0054C52.3869 52.0317 52.4522 51.8827 52.4542 51.7804C52.4579 51.5859 52.5573 51.388 52.2059 51.2858C52.0405 51.238 52.0952 50.9263 51.9401 50.766C51.8234 50.6434 51.8013 50.4338 51.5431 50.5961C51.4162 50.6777 51.2833 50.5335 51.3383 50.3573C51.435 50.0444 51.3064 49.901 50.9725 49.9478C50.7291 49.9825 50.6531 49.7693 50.7077 49.689C50.9935 49.272 50.5821 49.3434 50.4117 49.2769C50.9671 48.6367 51.8937 48.5761 52.5977 48.1378ZM34.7261 68.5985C34.3237 67.8277 33.8999 67.0645 33.3996 66.3397C33.3606 66.2842 33.3288 66.2427 33.2472 66.2405C32.9021 66.2304 32.7604 65.9768 32.7914 65.7312C32.8397 65.3593 32.6629 65.0552 32.4608 64.7857C32.1117 64.3239 31.9333 63.7948 31.6446 63.311C31.5496 63.1547 31.4729 63.0095 31.3365 62.8722C31.1373 62.6697 31.1772 62.3779 31.0895 62.1279C30.9382 61.7033 30.7692 61.2316 30.4733 60.9491C30.1269 60.6182 30.1161 60.288 30.0049 59.9325C29.9487 59.7559 29.8062 59.5863 29.6874 59.4204C29.5102 59.1742 29.4782 58.8416 29.3668 58.5501C29.2131 58.1461 29.5283 58.0604 29.7641 57.892C31.0062 57.0096 32.4835 56.5275 33.8826 55.9126C34.4753 55.6515 35.1304 55.4974 35.6774 55.1627C36.0864 54.9124 36.5642 54.8135 36.9834 54.6064C37.7525 54.2286 38.5927 54.0135 39.3941 53.7109C40.0179 53.4734 40.6741 53.2951 41.2792 53.0347C41.9743 52.7344 42.7446 52.5857 43.389 52.1931C43.8143 51.9326 44.2865 51.7593 44.7923 51.6808C44.9951 51.6509 45.0277 51.4687 45.205 51.4136C45.7497 51.2451 46.2907 51.0775 46.7617 50.7449C46.9583 50.6069 47.262 50.5283 47.5475 50.4764C47.9276 50.4074 48.1634 50.5781 48.3007 50.8848C48.6235 51.6049 49.2022 52.1673 49.646 52.8114C49.9069 53.189 50.2866 53.5389 50.4934 53.9069C50.8556 54.5488 51.3586 55.1034 51.6821 55.7715C51.9383 56.2978 52.2514 56.863 52.7443 57.2667C52.9096 57.4003 53.0043 57.6205 53.0429 57.718C53.2851 58.3578 53.89 58.8015 54.1062 59.4423C54.1316 59.5153 54.1461 59.5753 54.0875 59.5968C53.7467 59.7273 53.6222 60.1274 53.2613 60.2152C52.6229 60.3708 52.1745 60.8389 51.5985 61.0478C51.1366 61.2163 50.8337 61.5661 50.3739 61.7241C49.9178 61.8811 49.5252 62.2287 49.0938 62.4031C48.1536 62.7825 47.3955 63.4426 46.4096 63.7323C46.3508 63.7479 46.2995 63.7835 46.2476 63.8172C45.9793 63.9902 45.8652 64.4075 45.3961 64.2608C45.0325 64.6426 44.4628 64.7121 44.0307 65.0084C43.7609 65.1937 43.4118 65.2645 43.3262 65.7361C43.2487 65.4594 43.1552 65.4204 43.0099 65.5228C42.6058 65.8077 42.0064 65.8412 41.7926 66.3747C41.7505 66.4777 41.633 66.2615 41.5043 66.3276C41.3258 66.4169 41.178 66.5399 41.0315 66.6606C40.6843 66.9463 40.2165 67.0346 39.8403 67.3021C39.5194 67.529 39.0174 67.6603 38.5904 67.8196C38.145 67.9837 37.7104 68.171 37.2828 68.3663C37.1672 68.4189 37.0614 68.3413 36.9389 68.3918C36.7896 68.4514 36.6283 68.4683 36.5433 68.6185C36.4983 68.6923 36.4421 68.7631 36.3321 68.7285C35.8387 68.5763 36.0256 68.8857 36.0777 69.1052C35.972 69.1034 35.8754 69.0991 35.82 68.9782C35.7497 68.8233 35.6385 68.8608 35.5317 68.9151C35.1681 69.1034 34.9221 68.9753 34.7261 68.5985ZM41.8279 81.244C41.6739 80.9737 41.3934 80.743 41.4007 80.402C41.4031 80.3276 41.3325 80.2525 41.2546 80.2333C40.9934 80.1671 40.9126 80.0808 41.0313 79.8159C41.0863 79.6936 40.9322 79.4552 40.7153 79.3832C40.599 79.3423 40.4695 79.3148 40.4726 79.1724C40.489 78.4898 40.023 77.9693 39.7058 77.3933C39.3333 76.7182 38.9966 76.0257 38.6344 75.346C38.4777 75.0524 38.2894 74.7713 38.1217 74.4807C37.7869 73.8955 37.4496 73.3088 37.1299 72.7155C37.0461 72.5622 36.9685 72.4253 36.8066 72.3386C36.6606 72.2617 36.5934 72.1419 36.6062 71.9929C36.6208 71.8274 36.7276 71.7352 36.8994 71.7195C37.479 71.6653 38.0134 71.4695 38.5735 71.3527C38.8654 71.2912 39.1789 71.2598 39.3542 70.9898C39.3789 70.9533 39.4331 70.931 39.479 70.9188C40.4641 70.6751 41.3637 70.2467 42.2159 69.773C42.7572 69.4717 43.295 69.1932 43.8929 69.0105C44.0708 68.9573 44.14 68.7973 44.3057 68.7273C45.5887 68.1851 46.8332 67.5674 48.0814 66.9646C48.7978 66.6188 49.5529 66.3165 50.2354 65.9019C50.6384 65.6572 51.1379 65.5405 51.5236 65.2765C51.9111 65.0121 52.3466 64.8326 52.7468 64.5966C53.1355 64.3677 53.5398 64.1586 53.9579 63.9758C54.2708 63.8408 54.5483 63.7192 54.4137 63.2962C54.4006 63.2558 54.4267 63.207 54.4338 63.1612C54.4559 63.1932 54.4757 63.2299 54.5038 63.2563C54.7263 63.4725 54.9455 63.5021 55.1826 63.3214C55.3349 63.2052 55.5251 63.1307 55.6813 63.0194C56.1824 62.6649 56.5132 62.8144 56.7142 63.4413C56.8 63.7077 57.0411 63.9249 57.1903 64.1825C57.6019 64.897 58.0163 65.6188 58.4727 66.3074C58.9642 67.0466 59.3774 67.8245 59.8476 68.5714C60.1863 69.1078 60.4911 69.699 60.7745 70.282C60.9681 70.6794 61.0428 71.1742 61.5011 71.4535C61.5459 71.4815 61.5978 71.5714 61.5876 71.614C61.491 71.9648 61.8459 72.1677 61.9565 72.4516C62.0426 72.6701 61.9716 72.9921 61.7212 73.0407C61.3418 73.1115 61.0395 73.2855 60.8422 73.5992C60.8007 73.6661 60.7582 73.7253 60.6766 73.723C60.193 73.7098 59.9517 74.127 59.5334 74.2341C59.4011 74.2692 59.4974 74.461 59.4469 74.5901C59.2792 74.3694 59.0867 74.4325 58.9732 74.5604C58.6544 74.9163 58.1407 74.9091 57.7541 75.1275C57.4759 75.2851 57.1382 75.3808 56.9993 75.7049C56.9621 75.7886 56.8831 75.8096 56.7876 75.819C56.2202 75.8839 55.7644 76.1386 55.3882 76.5138C55.2908 76.6095 55.1834 76.5063 55.0754 76.5629C54.5832 76.8173 54.0745 77.0442 53.5843 77.304C53.0546 77.5823 52.437 77.7344 51.9441 78.0568C51.3906 78.4172 50.7016 78.5024 50.1573 78.8764C49.9146 79.0426 49.877 79.0984 50.2472 79.2614C49.8979 79.3263 49.7798 79.5551 49.5908 79.7349C49.6587 79.5713 49.6189 79.4223 49.4946 79.3117C49.3275 79.1626 49.2976 79.4219 49.1933 79.4077C48.8096 79.354 48.5005 79.5637 48.2561 79.7144C47.794 80.0007 47.1964 79.9958 46.7768 80.3307C46.6746 80.4137 46.5611 80.4558 46.3952 80.428C46.1777 80.392 45.9413 80.5047 45.924 80.6848C45.8951 80.9897 45.6354 80.949 45.4695 81.0449C45.3998 81.0853 45.2877 81.0772 45.2802 80.9874C45.2669 80.8174 45.2295 80.7017 45.0443 80.8107C44.9564 80.862 44.5963 80.7741 44.8613 81.0767C44.8691 81.0866 44.8582 81.1115 44.857 81.1298C44.4954 81.0542 44.3037 81.4582 43.9481 81.3611C43.736 81.3018 43.6542 81.3853 43.5583 81.5225C43.4245 81.7096 43.2833 81.8768 42.9661 81.7636C42.7916 81.7022 42.7348 81.8629 42.7305 82.0077C42.7281 82.1519 42.7388 82.2987 42.7445 82.4807C42.6365 82.3598 42.5667 82.2706 42.5625 82.152C42.5613 82.1164 42.5563 82.0599 42.5343 82.0498C42.0246 81.7842 42.1358 81.7846 41.8279 81.244ZM70.62 87.6705C70.2524 87.6005 70.0343 87.848 69.7484 87.9418C69.5975 87.9919 69.7476 88.1335 69.7617 88.2355C69.7688 88.2975 69.7627 88.3729 69.6959 88.3886C69.6206 88.4086 69.5789 88.3459 69.5691 88.2767C69.5257 87.989 69.3365 88.1091 69.236 88.1697C68.9377 88.3486 68.6943 88.5988 68.3079 88.6456C68.1732 88.6634 68.1682 88.8223 68.2211 88.9578C68.2869 89.1279 68.1649 89.1902 68.0408 89.2092C67.8847 89.2347 67.9072 89.117 67.8881 89.0124C67.8531 88.8062 67.6725 88.9061 67.6319 88.9487C67.4797 89.1028 67.3145 89.2006 67.0772 89.1818C67.0561 89.1795 67.0296 89.2004 67.0135 89.2167C66.8253 89.4203 66.5724 89.5213 66.3235 89.6493C65.9041 89.8664 65.4135 89.9368 65.0281 90.2067C64.6148 90.494 64.1345 90.6834 63.706 90.9568C63.4636 91.1129 63.156 91.1866 62.9216 91.3746C62.8422 91.4375 62.7149 91.4374 62.7858 91.6101C62.8521 91.776 62.6312 91.7309 62.5998 91.7173C62.0561 91.4688 61.9712 91.9421 61.7444 92.1719C61.6687 92.2499 61.6425 92.3845 61.5198 92.4829C61.3647 92.0912 61.1759 92.1693 60.9117 92.3372C60.4555 92.6339 59.9414 92.8462 59.4397 93.0752C59.0376 93.2578 58.6907 93.5334 58.2963 93.7259C58.0953 93.8252 57.9115 93.9598 57.6932 94.0237C57.4472 94.095 57.2769 94.244 57.079 94.3784C56.9099 94.4931 56.6414 94.5524 56.4063 94.6148C56.1039 94.6971 55.7338 94.6957 55.6559 95.0854C55.6446 95.1363 55.6062 95.1844 55.5512 95.1671C54.9455 94.9848 54.4925 95.3545 53.9615 95.4357C53.8398 95.456 53.7238 95.5127 53.6463 95.6131C53.5127 95.7842 53.3949 95.9871 53.1298 95.7004C53.1053 95.673 53.0009 95.6908 52.9485 95.7126C52.3503 95.9593 51.6325 95.9624 51.1255 96.3982C51.0751 96.4415 51.0345 96.5002 50.905 96.4349C50.6567 96.3113 50.4158 96.3853 50.2115 96.5353C50.0188 96.6782 49.8298 96.8581 49.5419 96.6293C49.5166 96.6101 49.4691 96.6127 49.4333 96.6143C49.05 96.6423 48.913 96.4872 48.7903 96.0689C48.5629 95.2855 48.3649 94.4944 48.0154 93.7354C47.9031 93.49 47.7992 93.2403 47.7679 92.9793C47.7421 92.7707 47.6662 92.6114 47.4382 92.5582C47.3722 92.5438 47.3489 92.584 47.3592 92.4715C47.3962 91.973 47.2543 91.498 46.9273 91.0682C46.8685 90.9921 46.8449 90.9185 46.8331 90.8279C46.8126 90.6818 46.8026 90.483 46.7066 90.4047C46.2973 90.0786 46.3859 89.6042 46.1727 89.23C45.7919 88.5652 45.5056 87.8672 45.1579 87.1936C44.971 86.8303 44.6608 86.9187 44.3049 86.9015C44.9472 86.5733 44.5778 86.1648 44.378 85.767C44.2387 85.4928 44.1263 85.2095 43.937 84.9526C43.8222 84.7976 43.8392 84.6654 44.0087 84.5466C44.1874 84.4253 44.3033 84.2928 44.585 84.2739C45.128 84.2354 45.6156 83.9523 46.1859 83.9544C46.4937 83.9565 46.4619 83.5759 46.7424 83.5214C46.8608 83.4979 47.0137 83.4154 47.0991 83.4546C47.5844 83.6768 47.9875 83.4161 48.3464 83.2909C49.0404 83.0467 49.7789 82.8885 50.4329 82.5593C51 82.273 51.6211 82.0981 52.2069 81.8508C52.3293 81.8003 52.4349 81.7104 52.5339 81.6243C52.6634 81.5121 52.8282 81.4883 52.9832 81.4332C53.3084 81.3149 53.7044 81.2775 53.9194 80.9731C53.9429 80.9389 53.9535 80.9241 53.9936 80.9235C54.762 80.9149 55.2704 80.3969 55.9185 80.1649C56.5287 79.945 56.9803 79.48 57.623 79.3412C57.8296 79.2943 57.8676 79.0888 58.0618 79.0412C58.6701 78.8916 59.2098 78.5967 59.7482 78.32C60.4772 77.9429 61.2103 77.5607 61.8457 77.0529C62.0519 76.8864 62.3035 76.8196 62.5334 76.7326C62.8933 76.5991 63.0433 76.2402 63.4073 76.1176C63.5442 76.0732 63.6414 76.0793 63.7064 76.1718C63.9632 76.5384 64.1469 76.9364 64.3314 77.3363C64.5197 77.7411 64.6304 78.2083 65.1554 78.434C65.1416 78.5533 64.7957 78.697 65.1812 78.8201C65.1865 79.5228 65.7573 80.0374 66.0131 80.6597C66.2616 81.2679 66.6685 81.8301 66.96 82.4289C67.2596 83.0495 67.8126 83.5489 67.9911 84.2236C68.0131 84.3035 68.0656 84.4112 68.1336 84.4471C68.5435 84.6673 68.655 85.0666 68.8726 85.4097C69.0634 85.7081 69.3164 85.984 69.585 86.2259C69.7164 86.3446 69.8092 86.4735 69.9059 86.6074C70.0727 86.8364 70.2587 86.9984 70.5232 86.8205C70.6269 86.9086 70.3195 87.0043 70.5951 87.0767C70.741 87.1157 70.7524 87.3022 70.827 87.42C71 87.6872 70.7706 87.7003 70.62 87.6705ZM64.8313 70.5272C64.406 69.9859 64.2502 69.361 63.9527 68.7837C63.9295 68.738 63.9329 68.6773 63.8996 68.6422C63.3248 68.0149 63.1603 67.2109 62.7317 66.5208C62.4666 66.0945 62.1875 65.674 61.9152 65.2496C61.8661 65.1729 61.8343 65.1095 61.7074 65.1213C61.612 65.1307 61.5301 65.0846 61.6347 64.9491C61.7714 64.7751 61.5265 64.3056 61.2865 64.2636C61.2244 64.2542 61.1704 64.2825 61.154 64.2011C60.9591 63.2515 60.1945 62.5489 59.7805 61.6934C59.7493 61.6319 59.6704 61.583 59.6077 61.5398C59.3062 61.3287 59.2957 60.9884 59.6182 60.8469C59.8769 60.7343 60.1618 60.6646 60.2624 60.3786C60.3197 60.2137 60.4031 60.425 60.5001 60.3553C60.9884 60.0042 61.598 59.8204 62.0428 59.4071C62.1224 59.3341 62.202 59.3149 62.3087 59.3085C62.408 59.3041 62.5461 59.2953 62.5904 59.2357C62.8452 58.8868 63.308 58.8337 63.6236 58.5983C64.191 58.1783 64.7953 57.8403 65.4669 57.5901C65.5626 57.5547 65.6161 57.4388 65.6925 57.3627C65.7503 57.3014 65.7477 57.1545 65.9198 57.3063C66.0313 57.4043 66.0631 57.2523 66.0919 57.1568C66.1412 56.9922 66.2012 56.8884 66.4536 56.9152C66.6918 56.9417 66.9362 56.8608 67.1081 56.6516C67.3427 56.3619 67.7421 56.2798 68.0492 56.0865C68.3196 55.919 68.7318 55.9032 68.8493 55.5329C68.8837 55.4201 69.0087 55.4627 69.1126 55.465C69.4538 55.4701 69.7754 55.1753 69.8258 54.8467C69.838 54.7717 69.8386 54.6658 69.9888 54.7376C70.4464 54.9612 70.7824 54.6725 71.0309 54.4629C71.2421 54.2831 71.4644 54.1004 71.6893 53.9409C72.1205 53.6369 72.3793 53.1533 72.9231 52.961C73.1794 52.869 73.38 52.6501 73.5895 52.4708C73.8391 52.2589 74.1729 52.1743 74.4222 51.9505C74.6199 51.7723 74.8984 51.6804 75.0972 51.478C75.4571 51.1131 75.761 51.202 76.0318 51.6866C76.1899 51.9678 76.3893 52.23 76.6596 52.4335C76.8747 52.5977 77.0055 52.8063 77.0759 53.053C77.0874 53.0998 77.0915 53.1645 77.1245 53.1877C77.9109 53.7548 78.0948 54.6913 78.6972 55.3651C79.0379 55.7454 79.2082 56.2368 79.6374 56.5517C79.6577 56.5682 79.685 56.5869 79.6906 56.6073C79.9194 57.3405 80.512 57.8593 80.963 58.4636C81.4303 59.0896 81.8395 59.7548 82.2851 60.3985C82.4373 60.6154 82.6564 60.7686 82.2821 60.9877C82.0854 61.1038 82.0182 61.4308 81.7509 61.5417C81.6973 61.5659 81.6358 61.5742 81.5697 61.5918C81.5628 61.4819 81.79 61.4415 81.6519 61.3266C81.5463 61.239 81.4807 61.3761 81.4052 61.428C80.8319 61.8216 80.191 62.1534 79.7015 62.6305C79.2001 63.1187 78.5188 63.3216 77.9682 63.7271C77.6062 63.9948 77.1079 64.1471 76.7173 64.4304C76.6251 64.4967 76.5476 64.5592 76.5029 64.6608C76.4444 64.7901 76.4277 65.0578 76.2218 64.7136C76.1942 64.667 76.1269 64.6869 76.0833 64.7105C76.0493 64.7275 76.0191 64.7494 75.9876 64.7678C75.467 65.0756 74.9645 65.4105 74.4279 65.7026C74.0677 65.9 73.6711 66.0811 73.3235 66.3171C72.9298 66.5812 72.4583 66.7403 72.0608 66.9995C71.4892 67.3707 70.8247 67.613 70.3806 68.1678C70.2024 68.3926 69.7911 68.4321 69.5033 68.5803C68.8661 68.9111 68.2286 69.236 67.6337 69.6313C67.33 69.8337 66.9432 69.9224 66.649 70.1502C66.3458 70.3863 66.0022 70.5633 65.645 70.72C65.4763 70.7927 65.441 70.9138 65.5321 71.0811C65.6106 71.2258 65.6686 71.364 65.4319 71.4707C65.5366 70.9802 65.0582 70.814 64.8313 70.5272ZM89.294 71.6345C89.1385 71.8334 89.356 72.0309 89.4305 72.2186C89.6866 72.8687 89.9667 73.5124 90.2345 74.1614C90.341 74.4183 90.2268 74.6521 90.1798 74.882C90.034 75.5591 89.8306 76.1955 89.1357 76.5556C88.7691 76.7467 88.5031 77.0926 88.1532 77.3172C87.6896 77.6159 87.2033 77.8807 86.7856 78.2369C86.0032 78.9075 85.0392 79.347 84.2367 79.991C84.1507 80.0577 84.0793 80.1206 84.047 80.2389C83.9858 80.4686 83.9715 80.4305 83.7199 80.3576C83.519 80.3013 83.4037 80.5214 83.3108 80.6398C83.1884 80.798 83.1295 80.8994 82.8625 80.9145C82.4833 80.9374 82.2217 81.2682 81.8942 81.4449C81.6474 81.5783 81.3627 81.7077 81.3508 82.058C81.3501 82.126 81.261 82.1417 81.2007 82.0939C81.1225 82.0309 81.0227 82.0234 80.9977 82.0859C80.872 82.3966 80.5239 82.3733 80.2785 82.4944C80.0738 82.5946 79.9284 82.697 79.9823 82.9859C79.7593 82.7898 79.631 82.8678 79.4453 82.965C79.0714 83.158 78.7479 83.4314 78.3309 83.5581C78.2875 83.5717 78.2376 83.6109 78.2248 83.6521C78.0708 84.1299 77.5332 84.0752 77.1962 84.2963C76.8289 84.5395 76.3417 84.635 76.107 85.0484C76.0791 85.0977 76.0242 85.1721 75.9643 85.1361C75.652 84.9498 75.503 85.1988 75.2901 85.2932C74.987 85.4276 74.731 85.6332 74.4013 85.7288C74.1939 85.7898 74.0621 85.9605 73.9874 86.1598C73.9557 86.242 74.0106 86.399 73.8634 86.3783C73.6778 86.3518 73.9193 86.1719 73.7395 86.102C73.4323 86.3112 73.2776 86.109 73.1317 85.8225C73.0475 85.6574 72.9096 85.5105 72.7941 85.3537C72.8929 85.2616 73.093 85.5257 73.1377 85.3003C73.1807 85.0815 72.9701 85.1015 72.8533 85.0647C72.4447 84.9338 72.1171 84.7715 72.2986 84.2864C72.3121 84.247 72.2631 84.1542 72.2176 84.1244C71.7855 83.8343 71.6588 83.3513 71.3483 82.9869C71.2574 82.8794 71.1825 82.642 70.9162 82.7666C70.8135 82.8158 70.5676 82.3545 70.6541 82.2298C70.7818 82.0482 70.6359 81.9015 70.573 81.7447C70.4932 81.5484 70.3591 81.7077 70.2212 81.6845C70.3163 81.4538 70.2231 81.2591 70.0959 81.0495C69.8722 80.6741 69.5991 80.3178 69.45 79.9045C69.4219 79.8242 69.3648 79.6938 69.238 79.7055C69.1283 79.7147 69.2773 79.8427 69.1486 79.9088C69.1126 79.6191 68.9145 79.3765 68.9852 79.0805C69.0164 78.9485 68.9686 78.7458 68.8596 78.7029C68.5494 78.5759 68.6052 78.3695 68.6045 78.1523C68.6023 77.8776 68.3684 77.6525 68.2242 77.4674C67.8497 76.9864 67.74 76.4251 67.4819 75.9151C67.2596 75.4735 66.9633 75.0555 66.7982 74.5887C66.7723 74.5198 66.7029 74.4425 66.7726 74.386C67.0552 74.1594 67.3055 73.8256 67.6432 73.7459C68.1292 73.6308 68.482 73.3656 68.8514 73.1119C69.0825 72.9528 69.2588 72.7823 69.5786 72.7033C69.8683 72.6304 70.2326 72.4818 70.4435 72.2363C70.64 72.0066 70.9428 71.974 71.1552 71.8079C71.7301 71.354 72.3686 70.989 73.0026 70.6171C73.5088 70.3191 74.0759 70.1027 74.5474 69.766C75.1214 69.3583 75.7575 69.0457 76.3409 68.6574C76.8295 68.3342 77.3786 68.0806 77.8268 67.7142C78.0389 67.5422 78.2535 67.4573 78.4992 67.3801C78.6062 67.3477 78.6954 67.2841 78.7076 67.1552C78.7155 67.0793 78.7511 67.002 78.8355 66.9956C79.3841 66.9556 79.6735 66.6075 79.9914 66.2438C80.1851 66.0228 80.5176 65.8646 80.8275 65.8023C81.3177 65.704 81.6837 65.4951 81.9004 65.0825C82.0053 64.8831 82.2132 64.9097 82.3794 64.8895C82.5868 64.8663 82.7361 64.8067 82.8354 64.6407C82.9125 64.5125 83.0282 64.428 83.1886 64.4033C83.2494 64.3931 83.3465 64.3773 83.3569 64.3407C83.5166 63.7976 84.2174 64.1041 84.4992 63.7301C84.5884 63.6127 84.7173 63.7839 84.7921 63.8917C85.1013 64.3442 85.3957 64.8165 85.7408 65.2355C86.6924 66.3931 87.442 67.6581 88.1316 68.9411C88.3674 69.3812 88.6524 69.866 88.7295 70.3781C88.7765 70.6808 89.095 70.9213 89.0213 71.2521C89.0187 71.2668 89.1233 71.3248 89.1833 71.3447C89.3585 71.4079 89.4229 71.4666 89.294 71.6345ZM26.3787 50.7404C26.736 50.6754 26.9155 50.7175 27.0772 51.0516C27.286 51.4788 27.6124 51.7671 28.1321 51.8386C28.3232 51.8636 28.553 51.8624 28.7249 52.0083C28.9935 52.2342 29.1451 52.1161 29.3023 51.9108C29.5098 51.6403 29.3502 51.2957 29.4341 50.9921C29.4851 50.805 29.6129 50.5537 29.5365 50.3984C29.3402 49.9938 29.6266 49.7721 29.8186 49.6433C30.2642 49.3454 30.8253 49.2044 31.2482 48.8567C31.319 48.798 31.4356 48.8449 31.4293 48.9143C31.4053 49.2 31.7462 49.3388 31.7262 49.5975C31.8578 49.6144 31.8371 49.4464 31.9571 49.4863C31.9894 50.0083 32.5632 50.6758 33.0109 50.9538C33.4302 51.2155 33.9345 51.2192 34.319 51.5599C34.5434 51.7596 34.7916 51.6299 34.8684 51.3502C35.0142 50.8347 34.8763 50.2789 34.9941 49.7589C35.0758 49.3901 35.0808 48.9998 35.1307 48.6215C35.1946 48.1298 34.7628 47.8835 34.4724 47.5995C34.3317 47.4614 34.4318 47.0717 34.0073 47.1945C34.2913 46.9934 34.5992 46.8936 34.8134 46.6732C35.0264 46.455 35.2248 46.2248 35.5024 46.0713C35.7722 45.9239 36.0702 45.7869 35.9796 45.3841C35.9641 45.3104 36.0397 45.2803 36.1073 45.2883C36.6776 45.3603 36.7937 44.9484 36.8981 44.5756C37.1449 43.6942 36.977 42.7195 37.2754 41.8464C37.2832 41.8244 37.273 41.7971 37.2759 41.7724C37.3729 41.1862 37.0407 40.6401 36.9363 40.0714C36.8878 39.797 36.7371 39.6914 36.4723 39.8415C36.4197 39.6261 36.6514 39.3771 36.2981 39.3452C36.1078 39.3279 36.0322 39.2662 35.9192 39.1267C35.8462 39.0344 35.7257 38.9287 35.5716 38.8839C34.8987 38.6896 34.2696 38.364 33.543 38.3116C33.1775 38.285 32.7704 38.2495 32.3826 38.1689C31.9195 38.0705 31.431 38.2002 30.9309 38.1056C30.559 38.0349 30.1727 38.1035 29.7931 38.1146C29.5153 38.1225 29.1814 38.293 29.0863 37.8136C29.0676 37.7208 28.983 37.7213 28.8976 37.736C28.5442 37.79 28.5432 37.5828 28.6483 37.3893C28.7193 37.2608 28.7073 37.1483 28.6518 37.0433C28.4742 36.7155 28.2826 36.3933 28.0831 36.0773C28.0432 36.0141 27.9615 35.8662 27.8802 35.9457C27.719 36.1082 27.7249 35.9031 27.7337 35.8729C27.8994 35.3402 27.4212 34.9864 27.1842 34.6025C26.8686 34.0899 26.8569 33.8976 27.3981 33.7359C27.8886 33.5897 28.3692 33.4281 28.851 33.2642C28.9585 33.2277 28.9974 33.0678 29.159 33.2882C29.349 33.5469 29.7019 33.4432 29.811 33.1529C29.9102 32.8952 29.851 32.6137 29.916 32.3511C30.0211 31.9262 29.7741 31.4832 29.9527 31.0228C30.0836 30.6829 29.835 30.1605 29.4369 30.1545C29.0431 30.1493 28.6422 30.0284 28.2545 30.1254C27.9005 30.2154 27.5701 30.3091 27.1672 30.3064C26.5585 30.3045 25.9711 30.5423 25.3807 30.6911C25.1449 30.7517 24.9891 30.7133 24.8848 30.4677C24.698 30.0346 24.4942 29.61 24.3074 29.1769C24.2569 29.0587 24.208 28.95 24.0629 28.9885C23.7833 29.0667 23.7513 28.8738 23.7329 28.7011C23.7095 28.472 23.5862 28.4608 23.4156 28.5121C23.067 28.6167 22.9272 28.9331 22.8124 29.2029C22.7045 29.459 22.5995 29.6903 22.4065 29.8972C22.0092 30.3238 22.0429 31.0968 22.4634 31.5177C22.6023 31.6564 22.5789 31.7124 22.4447 31.796C21.9138 32.1304 21.3358 32.3877 20.7748 32.6743C20.6206 32.7531 20.5444 32.6417 20.4462 32.5521C20.3562 32.4683 20.4308 32.3228 20.2914 32.2581C20.1736 32.2834 20.2461 32.5195 20.0443 32.4554C19.8219 32.3848 19.8265 32.1981 19.7112 32.0093C19.8722 32.0722 19.9859 32.2136 20.0781 32.0934C20.1678 31.9718 20.0602 31.8627 19.9539 31.7733C19.9335 31.7567 19.9143 31.7379 19.8951 31.719C19.687 31.509 19.3564 31.4353 19.2797 31.0587C19.2461 30.894 18.9266 30.6777 18.7007 30.9691C18.6705 31.007 18.5549 31.0756 18.5618 30.9381C18.5716 30.6682 18.3093 30.5883 18.1692 30.5377C17.9546 30.4611 17.9645 30.7297 17.909 30.8562C17.8002 31.1045 17.9011 31.357 18.0836 31.6496C17.8702 31.5168 17.6635 31.4181 17.5788 31.65C17.4829 31.9109 17.2348 32.1323 17.3724 32.4668C17.4015 32.5389 17.3753 32.6037 17.3147 32.6198C16.8406 32.7397 17.365 33.0712 17.232 33.298C17.1743 33.3971 17.4779 33.4581 17.6422 33.4923C17.7057 33.5053 17.8544 33.412 17.8131 33.5925C17.7688 33.7918 17.9625 33.872 18.0358 34.0081C18.1674 34.2564 18.5379 34.4472 18.3329 34.7889C17.8322 35.618 17.3711 36.4666 16.9832 37.3595C16.6095 38.2148 16.1649 39.0429 16.0754 40.0042C16.0471 40.3269 16.0227 40.6925 16.2343 41.0033C16.4334 41.2915 16.6127 41.581 16.7516 41.8972C16.8341 42.0847 16.9534 42.2465 17.1977 42.1278C17.2517 42.0995 17.3502 42.0713 17.3223 42.1745C17.2613 42.3941 17.4687 42.371 17.5532 42.4024C18.1889 42.6485 18.8354 42.8319 19.5012 42.9861C20.19 43.1423 20.8071 42.9406 21.4677 43.0324C21.7718 43.0733 22.1074 42.8964 22.4113 43.0012C22.7654 43.1266 22.7916 43.5246 22.9528 43.8089C23.3946 44.5932 23.8358 45.3757 24.2825 46.1567C24.4692 46.4821 24.6712 46.7995 24.8829 47.1482C24.6206 47.1759 24.4286 47.2509 24.337 47.4587C24.2453 47.6666 24.2128 47.9943 23.8517 47.6295C23.8286 47.6057 23.7513 47.6202 23.704 47.6288C23.4242 47.6851 23.1363 47.7038 23.0704 48.0663C23.0158 48.3781 22.549 48.5659 22.8413 48.9949C22.8427 48.9985 22.7872 49.0551 22.7654 49.0509C22.5015 48.9934 22.4936 49.193 22.429 49.3438C22.276 49.7056 22.1426 50.0821 21.9511 50.4221C21.798 50.6922 21.9336 50.7898 22.1743 50.8336C22.4465 50.881 22.7016 50.9848 22.966 51.0542C23.4499 51.1811 23.9342 51.3038 24.4291 51.1963C25.0821 51.0528 25.7154 50.8567 26.3787 50.7404ZM31.6097 42.2599C31.5482 42.1446 31.6585 42.0834 31.7762 42.09C32.5042 42.1301 33.2293 42.0711 33.9613 42.2239C34.0614 42.2431 34.1688 42.2764 34.2553 42.3293C34.6328 42.5601 34.6673 42.7704 34.3339 42.9906C33.8717 43.2929 33.366 43.5329 32.9207 43.8586C32.6525 44.0535 32.4197 44.0196 32.3045 43.6213C32.238 43.3956 32.0885 43.2558 31.8544 43.5254C31.6374 43.0764 31.8187 42.6552 31.6097 42.2599ZM27.7687 42.8371C27.9446 43.3111 28.1385 43.8061 28.4532 44.2412C28.6383 44.6049 28.8672 44.9511 29.0414 45.3237C29.2674 45.8022 28.8135 45.7712 28.6058 45.9121C28.371 46.0722 28.2436 45.8886 28.1359 45.6878C27.765 45.0064 27.3855 44.3292 27.022 43.6458C26.9129 43.4414 26.7326 43.2838 26.6518 43.0579C26.574 42.8452 26.4526 42.9952 26.3647 43.0624C26.3044 43.1063 26.2468 43.1735 26.1661 43.1091C26.0726 43.0322 26.1721 42.9799 26.1985 42.921C26.2676 42.777 26.4318 42.6656 26.3388 42.4609C26.3295 42.4414 26.3673 42.3915 26.3935 42.3805C26.656 42.2889 26.9474 42.2474 27.2188 42.287C27.4909 42.3285 27.6475 42.5143 27.7687 42.8371ZM22.7594 35.6799C22.9965 35.6768 23.026 35.3518 23.294 35.4362C23.3193 35.4335 23.3452 35.4326 23.3684 35.4244C23.5493 35.3684 23.6669 35.1058 23.8585 35.1965C24.0418 35.2815 23.9151 35.5465 24.0304 35.7353C24.2537 36.0989 24.3838 36.4992 24.6294 36.8629C24.8216 37.1489 24.8474 37.5191 25.0618 37.8212C25.2703 38.1129 25.2539 38.1232 25.6473 38.2781C25.6755 38.2885 25.7063 38.3382 25.7059 38.3642C25.7018 38.4232 25.6771 38.5295 25.6647 38.5288C25.2583 38.4791 24.9189 38.651 24.5562 38.7394C24.3399 38.7928 24.2165 38.674 24.0961 38.4985C23.5505 37.6959 23.1714 36.8152 22.6501 36.0022C22.5436 35.8369 22.5507 35.6835 22.7594 35.6799ZM20.581 39.1368C20.7052 39.2794 20.5835 39.3695 20.4511 39.3987C19.9936 39.4983 19.5173 39.4452 19.0533 39.3391C18.7332 39.2665 18.6765 38.9704 18.9106 38.7546C18.9813 38.69 19.0524 38.6372 19.0558 38.5226C19.0669 38.1486 19.5028 38.1046 19.6505 37.8201C19.7066 37.7114 19.9305 37.8235 20.0089 37.9463C20.1402 38.1508 20.339 38.3254 20.375 38.5772C20.4841 38.7496 20.426 38.9606 20.581 39.1368Z" fill="white"/>
</g>
</svg>
