<svg width="128" height="101" viewBox="0 0 128 101" fill="none" xmlns="http://www.w3.org/2000/svg">
<mask id="mask0_330_1826" style="mask-type:luminance" maskUnits="userSpaceOnUse" x="0" y="0" width="128" height="101">
<path d="M0 0H128V100.374H0V0Z" fill="white"/>
</mask>
<g mask="url(#mask0_330_1826)">
<path d="M127.645 30.9688C127.496 30.0432 126.892 29.3189 126.41 28.5444C126.376 28.4916 126.276 28.4508 126.209 28.4508C125.88 28.458 125.791 28.3165 125.904 28.0144C125.974 27.8321 125.892 27.6091 125.763 27.554C125.137 27.2926 125.189 26.5707 124.77 26.1679C124.338 25.7506 124.014 25.199 123.537 24.8585C123.036 24.5012 122.715 23.9688 122.153 23.6715C121.741 23.4556 121.417 23.0408 121.149 22.6763C120.952 22.4101 121.019 21.9017 121.065 21.5132C121.115 21.1031 121.247 20.7098 121.242 20.2806C121.235 19.6811 121.748 19.3261 122.036 18.8633C122.062 18.8177 122.182 18.7866 122.177 18.7698C122.05 18.2542 122.619 18.1127 122.731 17.729C122.736 17.7146 122.76 17.7026 122.758 17.693C122.643 17.2998 123.113 17.0504 123.01 16.6571C122.978 16.5324 123.058 16.4125 123.141 16.3189C123.429 15.988 123.422 15.5755 123.441 15.1775C123.453 14.8849 123.129 14.7074 122.839 14.8513C122.036 15.2518 121.266 15.7266 120.707 16.4388C120.427 16.7962 120.079 17.0743 119.789 17.4173C119.108 18.2182 118.439 19.0216 117.777 19.8345C117.523 20.1487 117.568 20.5707 117.252 20.8321C117.029 21.0144 116.899 21.1415 116.633 20.8249C116.429 20.5803 116.012 20.6667 115.695 20.6259C114.163 20.4149 112.626 20.3717 111.103 20.729C110.597 20.458 110.118 20.7674 109.633 20.7698C109.293 20.7722 108.976 20.777 108.671 20.8993C108.475 20.976 108.305 20.8969 108.139 20.8705C107.995 20.8489 107.767 20.6859 107.76 20.5731C107.739 20.2374 107.537 20.4772 107.458 20.4293C107.317 20.3381 107.386 20.1103 107.321 19.9544C107.261 19.813 107.18 19.6739 107.082 19.5588C106.657 19.0671 106.283 18.5036 105.775 18.1223C105.233 17.7146 104.93 17.1223 104.444 16.6978C103.705 16.06 103.065 15.3046 102.281 14.7386C101.535 14.199 100.918 13.5036 100.132 13.0312C99.434 12.6091 98.8609 12.0072 98.1175 11.6523C97.976 11.5851 97.8705 11.4221 97.7674 11.6859C97.6739 11.9161 97.5324 11.7626 97.5324 11.6643C97.5348 11.024 96.9688 10.8897 96.5923 10.6307C96.3046 10.4341 96 10.1894 95.681 10.0983C95.1511 9.94964 94.7506 9.59712 94.2854 9.35971C93.777 9.09832 93.2134 8.96883 92.7386 8.64508C92.6379 8.57794 92.5396 8.60911 92.4293 8.61631C92.2086 8.6307 92.0264 8.64508 91.8825 8.34293C91.7674 8.09832 91.3765 8.03357 91.0695 7.9976C91.0048 7.99041 90.928 8.07434 90.8609 7.9976C90.3501 7.40767 89.5851 7.35731 88.9185 7.13909C88.7002 7.06715 88.4149 7.2542 88.3117 6.8705C88.2902 6.79137 88.1151 6.76259 88.012 6.81055C87.8489 6.88729 87.7866 6.79377 87.6547 6.71703C87.4412 6.59472 87.1367 6.55875 86.8849 6.59712C86.6403 6.63309 86.4364 6.58034 86.2182 6.52038C86.1439 6.4988 86.0647 6.42206 86.0048 6.43645C85.0815 6.64988 84.2062 6.07194 83.2758 6.28777C83.0527 6.33813 82.8441 6.07674 82.5779 6.05755C82.1175 6.02398 81.6595 6.08633 81.1966 5.98082C80.952 5.92566 80.6739 6.11751 80.4029 5.95204C80.3069 5.89448 80.187 5.96643 80.1631 6.10072C80.1151 6.38369 79.9161 6.20863 79.8609 6.16067C79.4245 5.80096 78.9664 5.70504 78.458 5.98801C78.3645 6.04317 78.2854 6.08873 78.2782 5.92566C78.2758 5.85851 78.2566 5.81535 78.1942 5.77698C77.8225 5.55156 77.5084 5.97842 77.187 5.88249C76.801 5.76739 76.5036 5.73861 76.2734 6.1247C76.211 6.22782 76.1199 6.34532 76.0168 6.38609C75.7578 6.48921 75.7242 6.26379 75.7266 6.10791C75.729 5.98321 75.8777 5.82494 75.6763 5.76499C75.5396 5.72422 75.3717 5.71703 75.2302 5.82974C75.0983 5.93765 74.9472 6.22542 74.8057 5.82974C74.7986 5.80576 74.7146 5.78177 74.6811 5.79616C74.3861 5.90408 74.1103 5.97602 73.7938 5.82254C73.6403 5.7482 73.5108 5.98082 73.3046 6.01918C73.012 6.07434 72.8321 5.86811 72.5923 5.91367C72.295 5.97122 72.0719 6.08873 72.0336 6.43885C72.012 6.6307 71.8945 6.78177 71.5635 6.78177C71.8465 6.6307 71.8393 6.4964 71.7434 6.26859C71.6187 5.96403 71.3933 6.06235 71.2446 6.10312C70.9137 6.18945 70.5276 6.14868 70.2734 6.44604C70.2062 6.52278 70.1247 6.57794 70.0288 6.52278C69.4293 6.17986 68.8801 6.6235 68.3022 6.63309C68.024 6.63789 67.7674 6.77938 67.4628 6.73861C67.1607 6.69784 67.012 7.03118 66.7746 7.17026C66.5971 7.27338 66.4676 7.43165 66.3861 7.10552C66.3669 7.02638 66.3333 6.92566 66.2422 7C65.9928 7.20624 66.0384 6.96882 66.0959 6.88969C66.3117 6.59233 66.1487 6.47002 65.9113 6.30695C65.6547 6.13429 65.2662 5.96882 65.6715 5.53717C65.8201 5.3813 65.6739 5.16787 65.5492 4.9952C65.235 4.56595 64.9376 4.1247 64.6331 3.68825C64.6163 3.66427 64.6043 3.61631 64.5827 3.61391C63.9568 3.52998 63.8393 2.82494 63.3069 2.58753C62.5803 2.26139 61.8969 1.86571 61.0599 2.1199C60.9209 2.16307 60.7866 2.10312 60.6547 2.05036C60.1775 1.8705 59.6954 1.64029 59.2254 2.07434C59.1607 2.13429 59.0887 2.13669 59.0192 2.07674C58.7026 1.80096 58.3309 1.82254 57.976 1.93525C57.3861 2.1199 56.7818 2.22782 56.2014 2.5012C55.8058 2.68825 55.2998 2.76019 54.8633 2.93285C54.0528 3.2542 53.3597 3.78897 52.6307 4.25899C52.4388 4.38129 52.1223 4.85611 51.9568 4.20384C51.5252 4.20623 51.6043 3.96163 51.7098 3.70264C51.7194 3.67866 51.7098 3.6235 51.693 3.61631C51.2446 3.41727 51.3405 2.81055 50.9185 2.58273C50.7386 2.48681 50.6547 2.31175 50.6091 2.09113C50.5372 1.74341 50.4245 1.40288 49.9209 1.48201C49.7794 1.5036 49.6739 1.32374 49.6475 1.15348C49.5875 0.757794 48.964 0.280575 48.5803 0.386091C48.3837 0.438848 48.3381 0.294964 48.223 0.244604C47.9448 0.1247 47.8729 0.489209 47.6787 0.482014C47.4293 0.47482 47.6547 0.0551554 47.3333 0.0215826C47.1631 0.00479585 47.0168 0.0671466 46.8945 0.122302C46.5396 0.287769 46.1607 0.110311 45.8034 0.261391C45.3645 0.450839 44.8801 0.551559 44.4844 0.820144C43.3957 1.55635 42.2782 2.2446 41.2854 3.1247C40.5324 3.79137 39.7674 4.44604 39.0288 5.13189C37.9904 6.09832 37.0695 7.16787 36.0959 8.19185C35.4652 8.85372 34.8417 9.52038 34.223 10.1942C33.5132 10.9664 32.8873 11.8153 32.283 12.6619C31.6331 13.5755 31.0504 14.5468 30.5588 15.5779C30.2758 16.1727 29.9808 16.789 29.7458 17.3957C29.6067 17.753 29.3621 18.1127 29.3381 18.5036C29.2926 19.2758 28.8201 19.7674 28.3165 20.2518C27.1175 21.4029 26.0024 22.6307 24.8561 23.8297C23.765 24.9688 22.8225 26.2158 21.9496 27.5084C21.3789 28.3501 20.8034 29.2086 20.4341 30.1799C20.283 30.5779 19.9904 30.9161 19.8034 31.3022C19.5564 31.8058 19.3525 32.3285 19.1343 32.8441C18.8729 33.4532 18.7074 34.0767 18.5971 34.7362C18.5228 35.1894 18.1295 35.5851 18.0552 36.0791C17.9688 36.6499 17.6043 37.1511 17.6667 37.7698C17.7002 38.0887 17.5707 38.3501 17.1439 38.2806C16.7962 38.2206 16.4364 38.3237 16.0839 38.1727C15.8321 38.0648 15.6163 38.2542 15.3933 38.458C15.3189 38.1007 15.1103 38.048 14.8058 38.0576C14.3117 38.0743 13.8129 37.8249 13.3046 38.1103C13.2686 38.1319 12.8465 37.8873 12.5659 37.8441C12.1823 37.789 11.8082 37.7434 11.4173 37.8106C11.1535 37.8537 10.9376 37.5683 10.6451 37.6283C10.5588 37.6451 10.4604 37.5947 10.3693 37.5971C10 37.6019 9.69544 37.7674 9.2494 37.5971C8.57074 37.3381 7.85611 37.7578 7.2542 38.1295C6.02878 38.8873 5.27338 40.1319 4.26379 41.1103C3.41727 41.9329 3.01439 43.0144 2.41487 43.976C2.14388 44.4077 2.01199 44.9376 1.8729 45.4412C1.71942 45.988 1.53957 46.5228 1.33573 47.0576C1.06715 47.7578 0.884892 48.482 0.798561 49.2422C0.717026 49.9712 0.398082 50.6906 0.465228 51.4245C0.539568 52.2326 0.105516 52.9496 0.191847 53.7386C0.239808 54.1679 0.225419 54.5899 0 54.9784C0 55.0096 0 55.0408 0 55.0719C0.227818 55.1607 0.470024 55.2398 0.165468 55.5348C0.117506 55.5827 0.10072 55.753 0.141487 55.7914C0.431655 56.0719 0.378897 56.4844 0.556355 56.8082C0.604316 56.8993 0.657074 56.9496 0.760192 56.9664C0.954436 56.9976 0.94964 57.1007 0.817746 57.2086C0.707434 57.2998 0.707434 57.4412 0.784173 57.4916C1.2542 57.789 1.02158 58.6499 1.77458 58.7098C1.80096 58.7122 1.83693 58.777 1.83933 58.8153C1.88249 59.5899 2.41247 59.9736 2.97602 60.4005C3.21583 60.5803 3.5012 60.777 3.70504 61.0264C4.30695 61.7698 5.1247 62.2662 5.90647 62.753C6.58513 63.1751 7.20863 63.7266 7.94245 64.0168C8.73621 64.3285 9.47002 64.8921 10.4029 64.7962C10.7434 64.7602 10.9928 65.1607 11.3141 65.0743C11.9233 64.9113 12.4508 65.2326 13.012 65.3118C13.446 65.3717 13.5252 64.9233 13.7746 64.9568C13.9976 64.9856 14.1511 65.4245 14.4748 65.0863C14.5995 64.9544 14.5707 65.0935 14.5875 65.1535C14.6211 65.2686 14.7146 65.283 14.8106 65.271C15.3813 65.1918 16.0743 65.4245 16.4964 65.0576C16.8777 64.7242 16.9664 64.8153 17.1894 65.1103C17.2542 65.1942 17.4101 65.1894 17.4844 65.0935C17.7362 64.7674 17.9496 64.9185 18.271 65.0288C18.6115 65.1487 18.9712 65.2614 19.3213 65.3501C20.3381 65.6091 21.0264 66.2134 21.5132 67.0959C21.6906 67.4197 22.0456 67.5851 22.2254 67.9185C22.283 68.024 22.4005 68.0839 22.4221 68.2446C22.4748 68.6115 22.693 68.8201 23.1127 68.7458C22.9209 69.4508 23.4796 69.8321 23.7362 70.3381C23.7746 70.4125 23.8537 70.4269 23.94 70.4101C24.0432 70.3885 24.1007 70.1463 24.235 70.3285C24.3094 70.4317 24.1823 70.5252 24.1391 70.6211C24.0288 70.8753 24.2878 71.2302 24.729 71.4053C24.8297 71.446 25.0072 71.3957 24.7698 71.5324C24.6835 71.5827 24.717 71.6835 24.7698 71.7338C25.1823 72.1319 25.3981 72.6835 25.8441 73.0576C26.048 73.2302 26.2326 73.3669 26.5444 73.2158C26.2038 73.5156 26.5012 73.7386 26.6331 73.8825C27.6619 74.9928 28.7266 76.06 29.8969 77.0384C30.5875 77.6163 31.3381 78.1007 32.0288 78.6715C33.1966 79.6331 34.4221 80.5348 35.7602 81.259C36.1079 81.4484 36.3765 81.741 36.7626 81.8945C37.0024 81.988 36.8297 82.3837 36.7338 82.6043C36.1415 83.9856 35.3861 85.2662 34.4556 86.4652C34.012 87.0384 33.5372 87.6475 33.3573 88.4221C33.271 88.801 32.9808 89.1247 33.1415 89.5588C33.1631 89.6139 33.0719 89.7242 33.0168 89.7962C32.5707 90.3813 32.5947 91.0695 33.0432 91.6547C33.2974 91.9904 33.3309 92.4532 33.7266 92.7218C34.8034 93.4556 35.765 94.3573 36.9113 94.9784C37.4317 95.259 38.0048 95.4724 38.5468 95.7074C39.2854 96.0288 40.024 96.3333 40.7914 96.5707C41.5899 96.8153 42.3837 97.0887 43.199 97.2614C43.7386 97.3765 44.3141 97.3213 44.8705 97.3693C45.1151 97.3885 45.1847 97.0408 45.2134 97.0887C45.3453 97.3022 45.4988 97.2806 45.693 97.247C46.5851 97.0959 47.5036 97.1847 48.3909 96.9568C48.9137 96.8201 49.3165 97.1439 49.6739 97.4508C50.0935 97.8153 50.4604 98.211 51.0959 98.1942C51.3093 98.187 51.5588 98.3573 51.7386 98.5108C52.0552 98.7866 52.4317 98.9233 52.8153 99.0384C53.6691 99.295 54.5324 99.5228 55.3909 99.7626C55.4197 99.7698 55.4556 99.7674 55.4796 99.7842C55.7674 99.9544 56.0719 99.5707 56.3141 99.7674C56.6019 99.9952 56.8945 99.8465 57.1703 99.9017C57.5923 99.9856 58.0192 99.9952 58.4317 100.077C59.2974 100.247 60.1463 100.46 61.0432 100.338C61.2398 100.312 61.4844 100.329 61.6475 100.518C62.2398 100.518 62.8321 100.518 63.4221 100.518C63.554 100.384 63.7122 100.357 63.8945 100.374C64.5899 100.444 65.2686 100.396 65.9209 100.098C66.2038 99.9688 66.5276 100.082 66.8345 99.9808C67.2182 99.8537 67.5947 99.6787 68.0408 99.7554C68.2494 99.789 68.5228 99.7002 68.6906 99.4604C68.8082 99.2926 69.048 99.2374 69.235 99.2494C70 99.295 70.5827 98.9305 71.1103 98.4532C71.3669 98.2206 71.6954 98.1247 71.9568 97.8897C72.8513 97.0815 73.2878 96.0024 73.7938 94.964C74.0623 94.4101 74.3285 93.8513 74.5564 93.2782C74.7986 92.6643 75.0863 92.0576 75.1223 91.3789C75.1319 91.1511 75.2086 90.9065 75.0144 90.7146C74.9257 90.6283 74.988 90.5779 75.0072 90.4892C75.1367 89.9065 75.4796 89.3309 75.0959 88.717C74.9832 88.5348 75.1007 88.3765 75.2062 88.2086C75.4748 87.7866 75.4293 87.4269 75.1271 87.2326C75.3477 87.0623 75.4628 86.1799 75.223 86.0072C74.7818 85.6882 75.1319 85.3141 75.0815 84.976C75.0599 84.8393 75.2518 84.8657 75.3453 84.8873C75.8561 84.9976 76.3813 84.8273 76.9017 85.0791C77.187 85.2182 77.5851 85.1535 77.9472 85.0528C78.5779 84.8801 79.2518 85.0504 79.8897 84.8873C80.4245 84.7506 80.952 84.6043 81.542 84.8249C80.988 85.2854 81.271 85.8873 81.3117 86.4149C81.3477 86.8777 81.3429 87.3477 81.3981 87.7938C81.4844 88.4868 81.2518 89.1847 81.4964 89.8609C81.5108 89.9017 81.5252 89.9664 81.5036 89.9952C81.1319 90.5252 81.4101 91.0839 81.4364 91.6259C81.4532 92.0408 81.6475 92.3765 82.0504 92.542C82.3117 92.6499 82.5372 92.8082 82.753 92.9808C83.4676 93.554 84.2902 93.6643 85.1823 93.7074C85.8513 93.7386 86.5132 93.7506 87.1798 93.7242C87.4125 93.7146 87.6331 93.7338 87.8537 93.6139C88.2422 93.4101 88.6667 93.5947 89.0767 93.5636C89.5707 93.5276 90.0264 93.5683 90.2734 92.9952C90.4293 93.2038 90.0384 93.3022 90.2614 93.4101C90.4844 93.518 90.7722 93.4796 90.8945 93.271C91.211 92.7314 91.223 93.024 91.3909 93.3717C91.7218 94.0623 92.2902 94.5827 92.9616 94.9377C93.2494 95.0887 93.5348 95.2782 93.7842 95.4532C94.3405 95.8441 94.9712 95.8825 95.5755 96.0096C96.1247 96.1271 96.6978 96.1775 97.2614 96.2134C98.0408 96.2662 98.8129 96.3909 99.5923 96.4245C99.7482 96.4317 99.964 96.4556 99.9544 96.1894C99.952 96.0935 99.988 96.0743 100.053 96.1175C100.612 96.47 101.125 96.036 101.657 96.0336C102.29 96.0312 102.808 95.5923 103.441 95.6259C103.537 95.6307 103.64 95.5468 103.736 95.4964C103.99 95.3645 104.216 95.1367 104.547 95.2566C104.58 95.2686 104.638 95.2374 104.676 95.2134C105.331 94.7818 106.067 94.5803 106.806 94.3501C107.089 94.2614 107.523 94.1463 107.691 93.7602C107.748 93.6283 107.842 93.6978 107.918 93.7458C108.103 93.8657 108.283 93.8106 108.448 93.717C108.923 93.4532 109.367 93.1055 109.873 92.9257C110.211 92.8058 110.59 92.7818 110.921 92.6019C111.489 92.2902 112.11 92.0719 112.707 91.8681C113.432 91.6235 114.058 91.2086 114.695 90.8537C115.501 90.4077 116.391 90.0935 117.101 89.4149C117.542 88.9928 117.928 88.4964 118.458 88.1271C118.868 87.8393 119.046 87.2038 119.295 86.7074C119.647 86.0048 119.974 85.2878 120.305 84.5755C120.417 84.3381 120.487 84.0911 120.523 83.8225C120.592 83.2734 120.698 82.7266 120.827 82.187C120.902 81.8777 120.88 81.5707 120.897 81.2614C120.906 81.0719 120.899 80.8873 120.686 80.7866C120.578 80.7338 120.508 80.6211 120.583 80.5156C120.811 80.1918 120.612 79.8801 120.47 79.6595C120.139 79.1463 119.847 78.6043 119.472 78.1103C119.252 77.8201 118.863 77.5348 118.897 77.0671C118.902 77.0072 118.803 76.8801 118.779 76.8849C118.177 77.036 118.54 76.6235 118.518 76.4436C118.468 76.0384 118.108 75.7626 117.592 75.7962C117.962 75.4868 117.825 75.3213 117.564 75.0312C117.376 74.8249 117.403 74.4101 117.173 74.1319C116.861 73.753 116.763 73.1942 116.197 73.0312C116.089 73.0024 116.026 72.8705 116.046 72.7626C116.156 72.1583 115.667 71.7866 115.487 71.295C115.396 71.0432 115.223 70.9017 114.921 71C114.583 71.1103 114.6 70.8465 114.695 70.7002C115.026 70.1847 114.751 69.7962 114.48 69.3957C114.307 69.1367 114.144 68.8705 113.962 68.6211C113.844 68.4556 113.755 68.1607 113.403 68.5731C113.676 67.9496 113.336 67.693 113.046 67.4484C112.777 67.223 112.717 67.0623 112.904 66.7122C113.463 65.6763 113.976 64.6139 114.46 63.5396C114.986 62.3693 115.513 61.1918 115.938 59.9808C116.312 58.9185 116.556 57.813 116.609 56.6739C116.652 55.7458 116.782 54.8225 116.806 53.8969C116.813 53.5156 116.835 53.1559 116.942 52.7914C117 52.5995 116.99 52.3525 116.688 52.3573C116.53 52.3597 116.511 52.283 116.511 52.1775C116.513 51.9904 116.643 52.1175 116.7 52.1223C117.005 52.1367 117.12 52.0264 116.983 51.7338C116.885 51.5252 116.981 51.3525 117.038 51.1583C117.139 50.8034 117.468 50.4101 116.957 50.0911C116.928 50.0719 116.911 49.9976 116.923 49.9592C117 49.6811 117.3 49.4652 116.935 49.0983C116.779 48.9448 117.108 48.4892 117.233 48.1727C117.456 47.6091 117.295 47.0096 117.336 46.4269C117.372 45.9305 117.376 45.4317 117.348 44.9352C117.331 44.6619 117.528 44.3094 117.122 44.1247C117.053 44.0935 117.108 43.9832 117.146 43.9137C117.192 43.8297 117.247 43.7242 117.115 43.693C117.058 43.6811 116.976 43.7818 116.904 43.8321C116.868 43.3885 117.271 43.06 117.204 42.6043C117.156 42.2758 117.218 41.9209 116.815 41.7506C116.707 41.705 116.695 41.5875 116.806 41.482C117.06 41.2446 116.971 40.9352 116.957 40.6451C116.95 40.5012 116.87 40.3357 116.722 40.3381C116.249 40.3453 116.405 40.1319 116.484 39.8537C116.638 39.3285 116.763 38.8106 116.381 38.2758C116.254 38.0983 116.343 37.7146 116.3 37.4269C116.276 37.2686 116.237 37.0528 116.094 37.0408C115.64 36.9976 115.842 36.7506 115.892 36.5348C115.964 36.223 116.012 35.9137 115.619 35.765C115.537 35.7338 115.532 35.6787 115.564 35.6187C115.734 35.3046 115.647 35.0624 115.381 34.8465C115.319 34.7962 115.276 34.6739 115.29 34.5947C115.429 33.7458 114.998 33.0959 114.549 32.4532C114.513 32.4053 114.465 32.3741 114.465 32.3022C114.453 31.3669 113.882 30.6235 113.576 29.789C113.403 29.3213 113.012 28.9424 112.899 28.4269C112.875 28.3213 112.731 28.3022 112.631 28.2614C112.388 28.1679 112.209 27.9329 112.247 27.7314C112.307 27.4149 112.014 27.1918 112.11 26.8873C112.139 26.7962 112.055 26.6379 111.933 26.6571C111.396 26.741 111.532 26.3237 111.47 26.06C111.444 25.9448 111.52 25.8249 111.441 25.7002C111.122 25.1966 111.118 25.1751 111.623 24.9712C111.775 24.9089 111.947 24.9377 112 24.7314C112.012 24.6811 112.055 24.6619 112.098 24.7122C112.484 25.1655 112.942 24.9496 113.391 24.8585C113.496 24.8369 113.623 24.8058 113.715 24.8441C114.513 25.1894 115.386 25.1751 116.221 25.3405C116.554 25.4077 116.628 25.4892 116.561 25.8849C116.42 26.7122 116.329 27.5588 116.432 28.4125C116.48 28.813 116.42 29.2278 116.424 29.6355C116.448 31.7218 116.763 33.765 117.405 35.753C117.825 37.0528 118.458 38.247 119.206 39.3837C119.475 39.7914 119.827 40.1175 120.249 40.3693C120.448 40.4892 120.65 40.6091 120.832 40.7554C121.916 41.6187 123.146 41.7266 124.326 41.1439C124.906 40.8585 125.453 40.295 125.777 39.6835C126.376 38.5444 126.909 37.3693 127.422 36.187C127.765 35.3981 127.758 34.5276 127.868 33.6859C127.887 33.5324 127.933 33.3837 127.966 33.235C127.966 32.9233 127.966 32.6115 127.966 32.3022C127.806 31.8705 127.719 31.4269 127.645 30.9688ZM16.9904 53.6403C17.1079 54.458 16.7266 55.1966 16.8058 56.0048C16.8801 56.7866 16.3645 57.4269 16.0048 58.0839C15.5468 58.9257 14.7674 59.3765 13.9137 59.7266C13.6835 59.8225 13.4628 59.9353 13.2398 60.0432C12.4269 60.4412 11.6163 60.4173 10.7386 60.1966C10.1751 60.0552 9.64748 59.8153 9.14388 59.5947C8.43885 59.283 7.88969 58.6355 7.20863 58.2446C6.5036 57.8393 6.16307 57.0695 5.46523 56.6811C5.40527 56.6475 5.3789 56.5588 5.33813 56.494C5 55.9616 4.73621 55.3645 4.5012 54.8082C4.23261 54.1679 3.85132 53.5132 3.80815 52.7722C3.77698 52.247 3.92806 51.741 3.93046 51.2134C3.93525 50.1799 4.18705 49.1703 4.21343 48.1271C4.23501 47.2134 4.55396 46.3022 4.78657 45.4029C4.94245 44.7866 5.19424 44.1966 5.36691 43.5851C5.69544 42.4173 6.61391 42.0072 7.66427 41.7698C7.94724 41.705 8.2494 41.7242 8.54197 41.7026C9.23022 41.6427 9.92806 41.801 10.5492 41.9616C11.1439 42.1175 11.8633 42.0432 12.3645 42.5995C12.8177 43.1031 13.4125 43.4652 13.8873 43.9592C14.3429 44.4341 14.6859 45.012 15.223 45.4029C15.4053 45.5372 15.3261 45.7362 15.4053 45.8993C15.801 46.7386 16.3669 47.5228 16.5516 48.4341C16.7602 49.4676 17.0863 50.4772 17.0959 51.5635C17.1031 52.2686 16.8969 52.964 16.9904 53.6403ZM34.6403 14.6163C35.3165 13.6019 36.0528 12.6307 36.7914 11.6619C37.4412 10.8082 38.2734 10.1415 39.0024 9.3717C39.024 9.34772 39.0456 9.32134 39.0743 9.31175C39.8058 9.05755 40.1127 8.33573 40.6619 7.88969C41.259 7.40288 41.8585 6.91127 42.5132 6.49161C43.0432 6.15348 43.5228 5.73621 44.0599 5.41487C44.3957 5.21343 44.7938 5.11751 45.1679 4.98801C45.5468 4.85851 45.9448 4.81055 46.3165 4.63549C46.6211 4.49161 46.9257 4.67386 47.1415 4.89928C47.3669 5.13429 47.5276 5.42686 47.7458 5.66906C48.1415 6.11031 48.3022 6.70983 48.7626 7.11511C48.9856 7.31415 48.693 7.44365 48.5803 7.54197C47.8945 8.14868 47.1775 8.71943 46.4988 9.33573C45.5492 10.199 44.5396 11.0072 43.7314 12.0192C43.4868 12.3261 43.1127 12.4724 42.8105 12.693C42.6643 12.801 42.2062 12.5276 41.9928 12.9113C41.5204 12.4652 41.0695 12.8129 40.6595 12.9952C39.9952 13.2902 39.2998 13.4892 38.6427 13.8106C38.1799 14.036 37.6331 14.1703 37.1319 14.3621C36.247 14.7002 35.458 15.2302 34.6211 15.6667C34.4748 15.741 34.3477 15.8729 34.1415 15.8489C34.199 15.3885 34.3981 14.9808 34.6403 14.6163ZM49.0815 86.4508C49.0504 86.5899 49.0336 86.7242 49.0432 86.8657C49.0647 87.2566 49.0743 87.6283 48.9448 88.0264C48.7698 88.5707 48.7698 89.1631 48.801 89.741C48.8153 90.0288 48.5947 90.2734 48.5899 90.5372C48.5827 91.1175 48.4628 91.6811 48.4173 92.2542C48.4101 92.3285 48.4101 92.4125 48.4388 92.4796C48.5971 92.8777 48.482 93.06 48.012 93.1175C47.8897 93.1343 47.765 93.1247 47.6427 93.1247C47.5324 93.1247 47.4245 93.1247 47.2614 93.1247C46.3741 93.1655 45.4269 93.307 44.4868 93.1894C43.9472 93.1199 43.4269 92.8873 42.8993 92.7194C42.3573 92.5468 41.7794 92.458 41.2662 92.2806C40.8082 92.1223 40.2974 91.9904 39.8561 91.7146C39.5132 91.4964 39.0983 91.3501 38.7194 91.247C38.211 91.1079 37.9161 90.6715 37.4436 90.5372C36.5971 90.2974 36.4005 89.4844 35.9568 88.8897C35.8825 88.7914 35.8657 88.6882 35.9041 88.5827C36.0935 88.0743 36.2926 87.5683 36.5923 87.1103C37.1583 86.2494 37.789 85.4293 38.1415 84.4436C38.1655 84.3717 38.1847 84.2926 38.2278 84.2302C38.4844 83.8801 38.5468 83.1463 38.8537 83.1583C39.4173 83.1799 39.9568 83.5755 40.5228 83.7722C41.6283 84.1559 42.7098 84.5947 43.9137 84.6739C44.4988 84.7122 45.0911 84.9616 45.693 85.036C46.482 85.1319 47.2782 85.2278 48.0695 85.2134C48.8537 85.199 49.2446 85.7218 49.0815 86.4508ZM89.9904 89.6187C89.705 89.6571 89.4388 89.7746 89.1295 89.6978C88.952 89.6547 88.7314 89.6882 88.5564 89.8249C88.4149 89.9329 88.2446 89.988 88.0815 89.8609C87.7482 89.5995 87.5012 90.1942 87.3453 90.0216C87.012 89.6547 86.8585 89.9185 86.6451 90.0959C86.5755 90.1535 86.4652 90.2494 86.4221 90.1175C86.2686 89.6427 85.8801 89.9688 85.6187 89.8729C85.5539 89.8513 85.4676 89.9281 85.3597 89.9017C84.7074 89.7338 84.4724 89.3957 84.5899 88.7146C84.6595 88.3022 84.729 87.8993 84.458 87.53C84.4005 87.4484 84.47 87.3861 84.4988 87.3165C84.9352 86.3022 84.5779 85.2878 84.542 84.2734C84.3117 84.2662 84.2494 84.4556 84.0432 84.5276C83.988 84.2542 84.0719 84.0839 84.3213 83.9856C84.6379 83.8609 84.9976 83.7986 85.2638 83.6043C86.0384 83.0384 87.0456 83.0144 87.8201 82.4652C88.0863 82.2782 88.2158 82.3165 88.3789 82.6499C88.7002 83.307 88.8105 84.0863 89.4053 84.6019C89.4364 84.6283 89.458 84.6859 89.4556 84.7266C89.3957 85.5108 89.7458 86.2278 89.9233 86.9544C90.1031 87.693 90.0959 88.4436 90.2878 89.1679C90.3549 89.4125 90.2782 89.5827 89.9904 89.6187ZM111.604 37.5731C111.712 37.8801 111.736 38.2062 111.859 38.5132C111.935 38.705 112.029 38.7794 112.271 38.6978C112.026 39.0456 111.966 39.3213 112.343 39.5276C112.434 39.5755 112.477 39.6715 112.47 39.7626C112.386 40.6882 112.851 41.5228 112.921 42.4173C113.041 43.9592 113.384 45.4796 113.365 47.036C113.362 47.1799 113.367 47.3189 113.456 47.4365C113.669 47.717 113.671 48.0072 113.511 48.307C113.489 48.3477 113.444 48.4029 113.456 48.4317C113.753 49.1535 113.192 49.8801 113.475 50.6067C113.549 50.7986 113.4 50.988 113.376 51.187C113.288 51.9376 113.496 52.6882 113.338 53.4341C113.108 54.5372 113.031 55.6595 112.954 56.7818C112.947 56.8825 112.899 57 112.83 57.0767C112.139 57.8441 112.086 58.8106 111.983 59.7578C111.837 61.1175 111.487 62.3957 110.674 63.5276C110.036 64.4197 109.607 65.4652 108.83 66.247C108.297 66.7818 108.221 67.506 107.899 68.1199C107.748 68.4077 107.429 69.0839 108.072 69.4436C108.11 69.4652 108.12 69.554 108.127 69.6139C108.173 70.0312 108.444 70.3165 108.643 70.6595C108.998 71.2758 109.559 71.717 109.875 72.3429C110.391 73.3597 111.158 74.2086 111.765 75.1631C112.098 75.6859 112.686 75.964 112.95 76.5444C113.163 77.0144 113.549 77.3933 113.734 77.8849C113.82 78.1175 114.031 78.2662 114.218 78.3693C114.499 78.5228 114.631 78.765 114.811 78.9976C115.398 79.7578 115.83 80.6211 116.451 81.3645C116.921 81.9233 117.201 82.6139 117.412 83.3213C117.456 83.4652 117.412 83.5971 117.403 83.7338C117.379 84.0959 117.247 84.4652 117.492 84.8082C117.535 84.8681 117.568 84.9664 117.456 84.9952C117.177 85.0623 117.221 85.2998 117.218 85.4772C117.213 85.7578 117.048 85.9568 116.847 86.0192C115.851 86.3333 115.067 87.0767 114.055 87.3549C113.954 87.3813 113.813 87.446 113.787 87.5252C113.657 87.9305 113.156 88.0144 112.995 87.9736C112.434 87.8249 112.096 88.247 111.683 88.3909C110.405 88.8369 109.175 89.4245 107.94 89.9856C107.194 90.3237 106.393 90.5108 105.671 90.94C105.336 91.1391 104.892 91.199 104.513 91.4269C104.307 91.5516 103.918 91.4053 103.64 91.5636C103.137 91.8465 102.568 91.8345 102.024 91.9329C101.808 91.9712 101.571 91.9616 101.607 92.295C101.616 92.3813 101.532 92.4341 101.446 92.4221C101.369 92.4125 101.365 92.3453 101.369 92.2782C101.396 91.9664 101.24 92.0576 101.108 92.1727C100.808 92.4341 100.506 92.3813 100.192 92.211C100.18 92.2038 100.156 92.187 100.153 92.1918C99.6475 92.6763 99.1055 91.9233 98.5947 92.2398C98.5683 92.2542 98.5252 92.2806 98.5108 92.271C98.1055 92.0072 97.7194 92.0264 97.3501 92.3405C97.3357 92.3501 97.2758 92.3381 97.2662 92.3189C96.9496 91.7458 96.3501 91.9568 95.8801 91.8345C95.3405 91.6954 94.9544 91.3118 94.681 90.9329C94.4916 90.6715 94.5324 90.1727 94.3765 89.801C94.0623 89.0576 93.964 88.2686 93.8945 87.4748C93.8801 87.3381 93.8609 87.1966 93.8177 87.0648C93.7218 86.777 93.5731 86.5036 93.7098 86.1799C93.7482 86.0911 93.753 85.8993 93.5468 85.9496C93.3957 85.988 93.4101 85.9472 93.4892 85.8657C93.6906 85.6619 93.6451 85.4436 93.542 85.2206C93.3429 84.7938 93.5372 84.2134 93.024 83.9089C93.2206 83.6091 92.7722 83.3765 92.9592 83.0072C93.0599 82.8082 92.8034 82.4077 92.6667 82.1175C92.3837 81.5156 92.0671 80.9305 91.777 80.3309C91.717 80.2038 91.6427 80.1295 91.518 80.0911C91.458 80.0743 91.4029 80.0456 91.3453 80.0216C91.6882 79.6667 91.1151 79.6379 91.1103 79.3669C91.1031 78.9832 90.5803 78.8225 90.2686 79.0743C90.1918 79.1367 90.1175 79.2086 90.0336 79.1199C89.9448 79.0264 90.0647 78.9952 90.1103 78.9424C90.2038 78.8297 90.1894 78.7074 90.1079 78.6019C90.0048 78.4628 89.8993 78.518 89.7986 78.6211C89.7722 78.6475 89.6978 78.6643 89.6715 78.6475C88.8345 78.1199 88.0983 78.7194 87.3957 78.952C85.9592 79.4245 84.5683 80.0024 83.0552 80.2662C82.3621 80.3861 81.6499 80.3933 80.9688 80.5971C80.7194 80.6715 80.4364 80.6427 80.3069 80.9472C80.2614 81.0576 80.0935 81.048 80.0767 80.9832C79.9664 80.5324 79.6139 80.789 79.4628 80.8369C79.2182 80.9137 78.9568 80.94 78.7122 81.0216C78.5156 81.0887 78.2374 80.9137 77.9736 80.9377C77.7458 80.9592 77.5324 80.9424 77.2974 81.0336C77.0504 81.1319 76.7986 80.8441 76.4916 80.9089C76.3453 80.94 76.235 80.9185 76.1846 81.0887C76.0911 81.3981 75.8441 81.3789 75.5923 81.3765C75.5539 81.1751 75.8849 81.0648 75.6786 80.8633C75.4964 80.6859 75.295 80.7842 75.1079 80.8417C74.8705 80.9137 74.6403 81.0528 74.4412 80.7698C74.3933 80.7002 74.2974 80.6978 74.2254 80.729C73.9592 80.8537 73.8105 80.8034 73.6307 80.53C73.4676 80.2878 73.1511 80.4173 72.9305 80.5636C72.199 81.048 71.5396 81.6235 71.0959 82.3789C70.8633 82.7722 70.7962 83.2686 70.7746 83.7362C70.7506 84.283 70.8753 84.8609 70.9976 85.3501C71.1439 85.9185 70.7794 86.6739 71.4676 87.0935C71.5228 87.1271 71.5731 87.1847 71.5372 87.247C71.1703 87.8537 71.5851 88.4005 71.6523 88.9736C71.7218 89.554 71.7194 90.1439 71.7578 90.729C71.8273 91.7914 71.6499 92.8441 71.5947 93.9017C71.5755 94.2398 71.6043 94.7458 71.024 94.8489C70.8034 94.8897 70.8105 95.2518 70.6786 95.3573C70.5564 95.4556 70.3885 95.0528 70.1439 95.0887C69.9065 95.1223 69.7194 95.2638 69.5683 95.4532C69.3405 95.7434 69.1079 96.0168 68.7842 95.5468C68.7554 95.5036 68.6691 95.4604 68.6235 95.4724C67.9496 95.6307 67.1894 95.4652 66.6187 96.0192C66.4676 96.1655 66.2878 96.6091 66.048 96.0336C65.9472 95.7938 65.6451 95.9664 65.4532 96.0192C65.2206 96.0839 65.0336 96.1271 64.7626 96.1031C64.3093 96.0623 63.7794 95.9904 63.3597 96.1511C62.9592 96.3046 62.6643 96.1295 62.3285 96.0959C61.9352 96.06 61.5564 95.976 61.2542 96.3285C61.1966 96.3933 61.0983 96.4365 61.0096 96.3405C60.5156 95.7962 60.4844 95.7914 59.8465 96.1631C59.8345 96.1679 59.8153 96.1679 59.7506 96.1775C59.8969 95.9137 59.777 95.8561 59.5396 95.8441C58.9904 95.8106 58.4508 95.6715 57.8897 95.8345C57.7458 95.8777 57.518 95.6139 57.2878 95.6907C56.9352 95.8058 56.6115 95.8705 56.3285 95.5276C56.2686 95.4532 56.0839 95.4269 55.976 95.4532C55.3621 95.5947 54.7698 95.3669 54.2902 95.1199C53.9017 94.9161 53.4101 94.9544 53.0959 94.5899C52.9928 94.47 52.8034 94.4053 52.6403 94.3669C51.6834 94.1511 51.6235 93.5564 51.7026 92.8753C51.8441 91.6691 51.9712 90.4556 52.0695 89.247C52.1583 88.1607 52.3213 87.0815 52.3597 85.988C52.3909 85.1463 52.4388 84.307 52.4269 83.4652C52.4221 83.2302 52.4245 82.9832 52.2614 82.8034C51.9185 82.4269 51.9376 81.8537 51.5108 81.518C51.3621 81.4029 51.2422 81.3213 51.0623 81.3429C50.7986 81.3741 50.5971 81.271 50.494 81.0312C50.3837 80.7722 50.235 80.6954 49.988 80.8465C49.9137 80.8921 49.8705 80.9448 49.7578 80.8537C49.3645 80.5372 48.8585 80.8106 48.4245 80.6427C48.3525 80.6163 48.2446 80.7002 48.1631 80.6211C47.801 80.2806 47.4772 80.4364 47.1199 80.7602C47.1079 80.5564 47.211 80.3933 47.024 80.3213C46.8249 80.2446 46.7242 80.4389 46.5012 80.5564C46.7074 80.2398 46.5012 80.2446 46.3381 80.2086C46.2062 80.1823 46.0695 80.0911 45.9472 80.2254C45.8993 80.2782 45.9017 80.3309 45.9568 80.3861C46.0072 80.4341 46.1942 80.4149 46.0719 80.5564C45.9616 80.6859 45.8369 80.5636 45.8105 80.4868C45.5492 79.7242 44.8969 79.8513 44.3429 79.8873C44.0336 79.9065 43.976 79.6403 43.7554 79.5851C43.1703 79.4389 42.6019 79.2302 42.012 79.1031C41.6259 79.0192 41.2782 78.8969 40.976 78.6403C40.7962 78.4844 40.6259 78.5012 40.47 78.8153C40.4868 78.0552 39.8417 78.1175 39.4652 77.8753C38.4293 77.2086 37.3117 76.6835 36.2902 75.9808C35.5252 75.4508 34.7314 74.952 34.0336 74.3477C33.3213 73.729 32.4604 73.2998 31.8561 72.5324C31.5348 72.1247 31.0432 71.8417 30.6739 71.4508C30.518 71.2854 30.3645 71.3813 30.2062 71.4412C29.9688 71.5276 29.9592 71.6907 30.1007 71.9305C29.6739 71.7122 29.8681 71.4389 29.9736 71.2374C30.1439 70.9065 30.1007 70.7434 29.7386 70.6067C29.2182 70.4101 28.8513 70.036 28.7434 69.4724C28.7098 69.2926 28.6307 69.1942 28.47 69.1391C28.4101 69.1199 28.3213 69.1007 28.3046 69.06C28.0863 68.4676 27.7242 68.8082 27.4125 68.976C27.3909 68.8873 27.3693 68.8417 27.3789 68.8345C27.7458 68.5492 27.7146 68.5635 27.5492 68.1799C27.3525 67.7194 26.9041 67.4317 26.7722 66.9281C26.6882 66.6091 26.3933 66.8633 26.1823 66.7746C26.6259 66.2518 26.0815 66.0887 25.8105 65.8969C25.6547 65.7842 25.6043 65.717 25.6067 65.5516C25.6139 65.2494 25.53 65.0456 25.1655 65.1966C25.0719 65.235 24.9448 65.235 24.9616 65.1031C25.0264 64.5276 24.6091 64.1607 24.3693 63.7218C24.2278 63.4628 23.9904 63.259 23.6475 63.295C23.5228 63.307 23.4053 63.2686 23.4029 63.1439C23.3933 62.8513 23.1655 62.6739 22.9784 62.6475C22.5731 62.5899 22.4916 62.1463 22.1415 62.0552C22.1007 62.0456 22.0408 62 22.0408 61.9712C22.0384 61.2686 21.3813 61.2974 20.988 61.0432C20.8082 60.9257 20.6043 60.8537 20.4484 60.6906C20.0935 60.3189 19.9952 60.3525 19.8705 60.7938C19.211 60.7218 18.5659 60.6211 17.9041 60.6882C18.7722 59.4245 19.3405 57.9904 19.9688 56.5803C20.4388 55.53 21.0024 54.5132 21.1607 53.3693C21.2998 52.3453 21.4892 51.3165 21.4245 50.271C21.4149 50.1199 21.4532 49.964 21.4796 49.813C21.53 49.5276 21.5276 49.2302 21.3525 49.0072C21.1511 48.753 21.1055 48.5635 21.3597 48.3309C21.4532 48.2446 21.4748 48.0839 21.4101 47.9808C21.199 47.6499 21.4077 47.1391 20.8873 46.9041C20.7578 46.8441 20.8369 46.3357 20.8082 46.036C20.7962 45.9089 21.1103 45.5683 20.6139 45.7122C20.5324 45.7362 20.554 45.6355 20.5564 45.5779C20.5875 45.0504 20.4844 44.5851 19.9592 44.3165C19.8561 44.2638 19.9281 44.1799 19.9544 44.1175C19.9976 44.0192 19.9712 43.8681 19.9305 43.8561C19.4652 43.7362 19.6906 42.94 19.0671 42.976C19.0456 42.9784 19.0048 42.8489 18.9904 42.777C18.976 42.7026 19.0144 42.5875 18.9736 42.5492C18.458 42.0743 18.7746 41.7122 19.0815 41.2902C19.494 40.729 19.6859 40.0528 19.9233 39.4005C20.048 39.0647 20.2902 38.7914 20.4341 38.4436C20.7866 37.5851 20.8873 36.6978 21.036 35.7986C21.3022 34.1823 21.7362 32.6163 22.6067 31.1751C23.2518 30.1031 23.9544 29.0647 24.6882 28.0624C25.2278 27.3237 25.7938 26.5683 26.518 25.9544C27.1775 25.3957 27.7626 24.741 28.3405 24.0959C28.7938 23.5875 29.4053 23.3165 29.9329 22.9233C30.0719 22.8225 30.2278 22.7602 30.271 22.5731C30.2926 22.482 30.3357 22.4077 30.434 22.3645C31.3022 21.976 32.0144 21.3189 32.8561 20.9161C33.4245 20.6403 33.8897 20.1871 34.4988 20.0216C34.8034 19.9377 34.9808 19.693 35.2518 19.5827C36.0839 19.2446 36.94 18.9544 37.7314 18.5396C38.4245 18.1751 39.1775 17.9592 39.8489 17.5396C40.2638 17.283 40.8225 17.2686 41.2854 17.0743C41.6691 16.9137 42.0168 16.741 42.4556 16.6906C42.7482 16.6547 43.0791 16.4748 43.4029 16.3861C43.5156 16.3549 43.5995 16.295 43.6331 16.1775C43.8034 15.5659 44.3477 15.2782 44.7458 14.8537C45.2518 14.3189 45.8609 13.8849 46.3046 13.3022C46.801 12.6523 47.4532 12.199 48.0504 11.6691C48.6139 11.1679 49.1775 10.6691 49.7746 10.2086C50.0815 9.97362 50.3933 9.74341 50.6283 9.43405C50.8177 9.18225 51.1439 9.23501 51.3933 9.05516C51.765 8.78178 52.1199 8.43645 52.5947 8.30935C52.6379 8.29736 52.6787 8.26859 52.7146 8.2446C54.2134 7.2542 55.9089 6.74341 57.6427 6.46283C58.2758 6.35971 59.0072 6.17266 59.6954 6.48681C60.0504 6.64988 60.458 6.48201 60.8465 6.52998C61.2206 6.57794 61.458 6.68106 61.506 7.08633C61.5228 7.21583 61.5971 7.35971 61.6882 7.45564C62.223 8.02158 62.3213 8.7506 62.5156 9.46043C62.7218 10.2134 62.8441 10.9832 62.9424 11.7434C63.0024 12.2254 62.9568 12.753 62.9592 13.2566C62.9664 14.1463 62.9328 15.0456 62.8369 15.9137C62.7602 16.5947 62.8729 17.2878 62.6403 17.9904C62.4508 18.5588 62.4269 19.2686 62.5611 19.9113C62.6067 20.1199 62.5731 20.2878 62.5348 20.4844C62.211 22.1847 61.6667 23.8369 61.3741 25.5444C61.2422 26.3118 61.5276 27.0647 62.2182 27.4149C62.5204 27.5683 62.8921 27.7266 63.283 27.6667C63.6978 27.6043 63.8465 27.2686 64.024 26.964C64.9281 25.4197 65.4868 23.753 65.7842 21.988C66.0743 20.2542 66.271 18.5156 66.3885 16.7578C66.4772 15.4724 66.6163 14.1751 66.7578 12.8873C66.8441 12.1079 66.6523 11.3213 66.8082 10.5396C66.8441 10.3621 66.8681 10.1918 67.0384 10.1127C67.235 10.0216 67.2494 10.2422 67.3405 10.3285C67.5252 10.5036 67.7338 10.4868 67.9496 10.4269C68.295 10.3285 68.6307 10.235 68.9976 10.3525C69.2782 10.4436 69.5827 10.2878 69.7794 10.1679C70.1055 9.96643 70.3717 10.1775 70.6283 10.1343C71.187 10.0408 71.7794 10.3597 72.3046 9.98561C72.3285 9.96882 72.3285 9.8753 72.3837 9.94724C72.7602 10.4317 73.3022 10.1942 73.741 10.1918C75.6811 10.1847 77.6091 10.3669 79.5396 10.5036C80.2038 10.5492 80.8777 10.6187 81.5444 10.6427C82.1511 10.6667 82.801 10.5252 83.3765 10.7194C84.8105 11.199 86.3717 11.0767 87.765 11.6547C88.6954 12.0384 89.6906 12.283 90.5348 12.8681C90.9928 13.1847 91.5659 13.1679 92.0647 13.3957C92.8945 13.7746 93.5707 14.3885 94.3861 14.7842C95.2758 15.2134 96.0408 15.8465 96.8897 16.3453C97.3117 16.5947 97.6283 17.0384 98.0288 17.3573C99.2302 18.3237 100.336 19.3957 101.415 20.4964C102.465 21.5707 103.388 22.7482 104.326 23.9209C104.969 24.7266 105.53 25.5899 106.187 26.3861C106.556 26.8321 106.779 27.4748 107.149 27.9736C107.619 28.6091 107.847 29.3717 108.29 30.0096C108.959 30.9736 109.283 32.1223 109.974 33.0719C109.904 33.813 110.554 34.2566 110.734 34.9281C110.971 35.8153 111.3 36.6954 111.604 37.5731ZM123.952 36.729C123.95 36.9233 123.923 37.1415 123.693 37.2374C123.446 37.3381 123.293 37.1942 123.125 37.0408C122.48 36.4508 122.283 35.6139 121.933 34.8657C121.655 34.271 121.441 33.6403 121.245 33.012C121.132 32.6475 121.115 32.2542 121.055 31.8753C120.935 31.1295 120.751 30.3933 120.712 29.6355C120.707 29.53 120.671 29.3981 120.799 29.3453C120.928 29.2926 121 29.4149 121.055 29.4964C122.031 30.9976 123.213 32.3837 123.751 34.1367C123.847 34.4556 124.014 34.7626 123.998 35.2014C123.882 35.6499 123.954 36.1894 123.952 36.729ZM96.0527 21.6859C95.741 21.7146 95.5995 21.7578 95.8201 21.4005C95.8633 21.3309 95.7674 21.259 95.6978 21.2254C95.0791 20.9377 94.5971 20.4125 94.0024 20.1295C93.3069 19.7962 92.6882 19.3621 92.0312 18.9856C91.4197 18.6355 90.7866 18.3213 90.1439 18.0408C89.2758 17.6595 88.4436 17.1655 87.5228 16.9592C87.1127 16.8681 86.8465 16.554 86.446 16.5036C85.9041 16.4365 85.4245 16.1535 84.9041 16.0288C84.0719 15.8273 83.2614 15.3621 82.3573 15.7194C82.2782 15.7506 82.2206 15.6835 82.1631 15.6259C81.9113 15.3645 81.1966 15.187 80.9089 15.3429C80.6667 15.4724 80.4484 15.7458 80.3022 15.2494C80.2782 15.1631 80.1151 15.1703 80.0024 15.1727C79.4149 15.1847 78.8105 15.1079 78.2422 15.2206C77.5995 15.3477 76.8489 15.0767 76.3117 15.6739C76.247 15.7458 76.1607 15.6475 76.0791 15.5947C75.7146 15.3549 75.1031 15.5755 75.0504 15.9976C74.7626 15.6163 74.4532 15.6067 74.2518 15.9424C74.1966 16.036 74.1199 16.1343 74.0575 16.0552C73.801 15.7194 73.7458 16.0432 73.6115 16.1655C73.3285 16.4245 73.0312 16.6667 72.9305 17.0671C72.9017 17.1799 72.789 17.2134 72.6834 17.2566C72.235 17.4388 71.8225 17.7818 71.693 18.1847C71.5635 18.5803 71.2086 18.9712 71.4029 19.4652C71.4724 19.6355 71.4388 19.8441 71.2638 19.9712C71.0743 20.1103 71.0264 20.307 71.0504 20.5084C71.1415 21.3165 70.5779 22.0959 70.9592 22.9161C70.9904 22.9808 70.9281 23.0911 70.9041 23.1799C70.7218 23.8225 71.0384 24.4365 71.6858 24.5731C71.9065 24.6187 72.0072 24.717 72.1007 24.8753C72.259 25.1439 72.4556 25.2566 72.753 25.0767C73.0024 24.9257 73.3909 25.1775 73.5659 24.801C73.6978 25.1583 73.9952 24.9904 74.2038 24.9616C74.8945 24.8681 75.5276 25.1511 76.1247 25.3549C77.7194 25.9017 79.3165 26.4341 80.9233 26.9377C81.6139 27.1535 82.3405 27.3285 82.9928 27.5851C83.6643 27.8489 84.3741 28.0264 85.0216 28.3453C85.3981 28.53 85.8129 28.5875 86.1823 28.7434C86.8897 29.0408 87.5564 29.4029 88.3117 29.6019C88.8705 29.7506 89.4101 30.0695 89.9065 30.3333C90.4556 30.6235 91.0767 30.7338 91.6019 31.0911C91.9065 31.2974 92.3525 31.3165 92.6259 31.6427C92.6595 31.6811 92.729 31.6906 92.7818 31.7146C92.9161 31.4005 93.3645 31.3861 93.4628 31.0863C93.7626 30.1631 94.1463 29.2878 94.6379 28.446C94.7986 28.1703 94.952 27.8633 95.0216 27.4988C95.0911 27.1391 95.0551 26.7458 95.2134 26.3765C95.5252 25.6475 95.47 24.8034 95.8633 24.0887C95.8705 24.0767 95.8657 24.0576 95.8657 24.0432C95.8825 23.6619 96.1823 23.3405 96.0911 22.9281C96.0599 22.7842 96.2422 22.765 96.3525 22.717C96.5228 22.6451 96.7626 22.5564 96.6163 22.3285C96.4628 22.0887 96.4532 21.6499 96.0527 21.6859ZM92.7026 26.3981C92.4532 26.5636 92.2518 26.3669 92.0288 26.2998C91.6523 26.1894 91.3357 25.9448 90.9736 25.8249C90.717 25.741 90.5156 26.0192 90.2446 26.1607C90.4796 25.8585 90.3165 25.7362 90.0959 25.5683C89.7458 25.3046 89.3093 25.1751 88.976 24.952C88.5492 24.6643 88.0695 24.5827 87.6523 24.3405C87.4221 24.2086 87.2038 24.1703 86.9472 24.1751C86.6235 24.1823 86.4988 23.813 86.1751 23.741C85.8873 23.6763 85.6427 23.4173 85.3069 23.6043C85.2374 23.6451 85.1607 23.6091 85.0983 23.5492C84.6715 23.1295 84.1223 23.0216 83.5731 22.8441C83.2014 22.7242 82.8801 22.7194 82.5276 22.6763C82.2806 22.6475 81.8969 22.542 81.6283 22.2758C81.4221 22.0695 81.0336 22.0719 80.7122 22.0144C80.4149 21.964 80.1343 22.1007 79.8297 22.0072C79.6403 21.9472 79.4628 21.9712 79.4916 21.6978C79.5012 21.6067 79.4101 21.5851 79.3285 21.5683C78.6451 21.4125 77.9616 21.2566 77.2782 21.0935C77.1487 21.0624 77.0504 21.0695 76.9376 21.1583C76.6379 21.3861 76.2758 21.3285 76.0623 21.0432C75.8537 20.765 75.6523 20.976 75.53 21.1055C75.247 21.4005 75.0072 21.4772 74.7314 21.1175C74.6954 21.0743 74.6283 21.0144 74.5851 21.0192C74.0192 21.0935 74.2182 20.7146 74.235 20.4436C74.2446 20.3046 74.2662 20.1631 74.2542 20.0264C74.2374 19.8681 74.0024 19.7002 74.2902 19.5588C74.5036 19.4532 74.6523 19.1799 74.9664 19.4844C75.259 19.7674 75.6739 19.5252 76.0336 19.5324C77.1703 19.554 78.283 19.6954 79.4053 19.9065C80.3357 20.0791 81.2206 20.506 82.2086 20.4293C82.4604 20.4101 82.729 20.6763 82.9976 20.7842C83.7674 21.0959 84.5468 21.3717 85.3549 21.5875C85.7098 21.6835 86.0623 22.0216 86.4652 22.0911C87.247 22.2302 87.8321 22.765 88.5444 23.0312C89.6235 23.4317 90.5899 24.0528 91.6259 24.5324C92.0599 24.7338 92.4436 25.0408 92.9185 25.1655C92.9856 25.1823 93.0504 25.2446 93.0959 25.3022C93.1511 25.3717 92.8153 26.3237 92.7026 26.3981ZM40.0935 33.2662C40.1199 34.5636 39.7866 35.6331 39.2398 36.6451C39.0384 37.0192 38.1439 37.3357 37.7722 37.1367C37.1415 36.801 36.4652 36.4532 36.2086 35.7482C35.9233 34.964 35.5156 34.1703 35.8273 33.2806C35.8561 33.2014 35.8465 33.0935 35.8177 33.012C35.5012 32.1127 36.012 30.9113 36.8777 30.4077C37.259 30.1871 37.6739 30.0839 38.0719 29.9305C38.5132 29.7602 39.271 30.1607 39.482 30.6811C39.8393 31.5492 40.1343 32.4389 40.0935 33.2662ZM31.9496 33.8729C31.9257 34.9065 31.482 35.8058 30.9736 36.6595C30.5659 37.3429 29.8201 37.4604 29.0767 37.048C28.3693 36.6571 28.0336 36.0839 27.9089 35.2398C27.7266 33.9856 28.0216 32.8369 28.3693 31.6811C28.5875 30.952 29.5827 30.2638 30.3285 30.2422C30.9017 30.2278 31.5635 30.5588 31.5564 31.0719C31.5468 31.6691 31.9928 32.1487 31.8225 32.7986C31.7578 33.048 31.9568 33.4988 31.9496 33.8729ZM13.3741 52.4101C13.5036 53.4868 13.1966 54.4293 12.6763 55.3333C12.47 55.6954 12.1391 55.7866 11.7434 55.6187C10.6403 55.1535 10.1918 54.2374 10.0528 53.1271C9.95444 52.3381 9.85132 51.5444 9.83693 50.753C9.82014 49.8513 9.96882 48.9736 10.6835 48.307C10.8058 48.1894 10.9233 48.0647 11.036 47.9352C11.4964 47.4053 11.9568 47.4484 12.4508 47.964C12.8609 48.3933 12.8825 48.9161 12.9832 49.4269C13.1175 50.4245 13.2566 51.4149 13.3741 52.4101ZM8.64029 51.06C8.69305 51.6906 8.83453 52.3285 8.75779 52.9808C8.68825 53.5731 8.40528 54.0719 8.15587 54.5779C8.0048 54.8849 7.31175 54.8225 7.09832 54.5012C6.93045 54.2518 6.71703 54.0624 6.5012 53.8585C5.94964 53.3357 5.96882 52.5731 5.71942 51.9448C5.91127 51.3333 5.63309 50.7914 5.59952 50.2278C5.55635 49.494 5.70743 48.8417 6.26858 48.3429C6.58034 48.0647 6.753 47.6019 7.27818 47.5923C7.69065 47.5827 8.11271 47.8777 8.22062 48.2806C8.46523 49.1918 8.56115 50.1319 8.64029 51.06Z" fill="white"/>
</g>
</svg>
