<svg width="86" height="61" viewBox="0 0 86 61" fill="none" xmlns="http://www.w3.org/2000/svg">
<mask id="mask0_382_495" style="mask-type:luminance" maskUnits="userSpaceOnUse" x="0" y="0" width="86" height="61">
<path d="M85.8164 0.427734H0.0398026V60.7729H85.8164V0.427734Z" fill="white"/>
</mask>
<g mask="url(#mask0_382_495)">
<path d="M0.277626 19.0464C0.377266 18.4899 0.782234 18.0545 1.10525 17.5888C1.12775 17.5571 1.19524 17.5326 1.24023 17.5326C1.4604 17.5369 1.51986 17.4519 1.44433 17.2702C1.39773 17.1606 1.45236 17.0266 1.53915 16.9934C1.95858 16.8363 1.92323 16.4023 2.20445 16.1601C2.49371 15.9092 2.71066 15.5776 3.03046 15.3729C3.36633 15.1581 3.58167 14.838 3.95772 14.6592C4.23412 14.5295 4.45107 14.2801 4.63106 14.0609C4.76284 13.9009 4.71784 13.5952 4.68731 13.3617C4.65356 13.1151 4.56517 12.8787 4.56839 12.6206C4.57321 12.2602 4.2293 12.0468 4.03646 11.7686C4.01878 11.7412 3.93843 11.7224 3.94165 11.7123C4.02682 11.4024 3.64595 11.3173 3.57043 11.0866C3.56721 11.078 3.55114 11.0708 3.55275 11.065C3.62988 10.8286 3.31491 10.6786 3.38401 10.4422C3.4049 10.3672 3.35187 10.2951 3.29562 10.2389C3.10278 10.0399 3.1076 9.79195 3.09474 9.55263C3.08671 9.37674 3.30366 9.27005 3.49811 9.35655C4.03646 9.59732 4.55231 9.88278 4.92675 10.311C5.11478 10.5258 5.34779 10.693 5.54224 10.8992C5.99864 11.3807 6.447 11.8637 6.89054 12.3525C7.06088 12.5413 7.03035 12.7951 7.24248 12.9522C7.39193 13.0618 7.47871 13.1382 7.65709 12.9479C7.79369 12.8008 8.07331 12.8528 8.28544 12.8282C9.31232 12.7014 10.3424 12.6754 11.3629 12.8902C11.702 12.7273 12.0234 12.9133 12.348 12.9147C12.5762 12.9162 12.7883 12.9191 12.9924 12.9926C13.1242 13.0387 13.2383 12.9912 13.3492 12.9753C13.4456 12.9623 13.5983 12.8643 13.6031 12.7965C13.6176 12.5947 13.7525 12.7389 13.8056 12.71C13.9004 12.6552 13.8538 12.5183 13.8972 12.4246C13.9373 12.3395 13.992 12.2559 14.0579 12.1867C14.3423 11.8911 14.593 11.5523 14.9337 11.3231C15.2969 11.078 15.4994 10.7219 15.8256 10.4667C16.3206 10.0832 16.7496 9.62904 17.2751 9.28879C17.7749 8.9644 18.1879 8.5463 18.715 8.26228C19.1827 8.00853 19.5668 7.64666 20.0649 7.43328C20.1598 7.39291 20.2305 7.29488 20.2996 7.45347C20.3622 7.59187 20.4571 7.4996 20.4571 7.44049C20.4554 7.05555 20.8347 6.97481 21.087 6.8191C21.2799 6.70088 21.4839 6.55383 21.6977 6.49904C22.0528 6.40965 22.3212 6.19772 22.633 6.05499C22.9737 5.89784 23.3513 5.81998 23.6695 5.62535C23.737 5.58498 23.8029 5.60372 23.8768 5.60805C24.0247 5.6167 24.1468 5.62535 24.2432 5.44369C24.3203 5.29664 24.5823 5.25771 24.788 5.23608C24.8314 5.23176 24.8828 5.28222 24.9278 5.23608C25.2701 4.88142 25.7827 4.85114 26.2295 4.71994C26.3757 4.67669 26.567 4.78915 26.6361 4.55847C26.6505 4.51089 26.7678 4.49359 26.8369 4.52243C26.9462 4.56856 26.988 4.51233 27.0764 4.4662C27.2194 4.39267 27.4235 4.37104 27.5922 4.39411C27.7562 4.41574 27.8928 4.38402 28.039 4.34798C28.0888 4.335 28.1418 4.28886 28.182 4.29752C28.8007 4.42583 29.3873 4.07837 30.0108 4.20813C30.1603 4.2384 30.3001 4.08126 30.4785 4.06972C30.787 4.04954 31.094 4.08702 31.4041 4.02359C31.568 3.99043 31.7544 4.10576 31.936 4.00629C32.0003 3.97168 32.0807 4.01494 32.0967 4.09567C32.1289 4.2658 32.2623 4.16055 32.2992 4.13172C32.5917 3.91546 32.8986 3.85779 33.2393 4.02791C33.302 4.06107 33.355 4.08846 33.3599 3.99043C33.3615 3.95006 33.3743 3.92411 33.4161 3.90104C33.6652 3.76552 33.8757 4.02214 34.0911 3.96448C34.3498 3.89527 34.5491 3.87797 34.7033 4.11009C34.7451 4.17208 34.8062 4.24273 34.8753 4.26724C35.0488 4.32923 35.0713 4.19371 35.0697 4.1C35.0681 4.02503 34.9685 3.92987 35.1035 3.89383C35.1951 3.86932 35.3076 3.865 35.4024 3.93276C35.4908 3.99764 35.592 4.17064 35.6868 3.93276C35.6917 3.91834 35.7479 3.90392 35.7704 3.91257C35.9681 3.97745 36.1529 4.0207 36.365 3.92843C36.4679 3.88374 36.5546 4.02359 36.6928 4.04665C36.8889 4.07981 37.0094 3.95582 37.1701 3.98322C37.3694 4.01782 37.5188 4.08846 37.5446 4.29896C37.559 4.4143 37.6378 4.50512 37.8595 4.50512C37.6699 4.4143 37.6747 4.33356 37.739 4.19659C37.8226 4.01349 37.9736 4.0726 38.0733 4.09711C38.295 4.14902 38.5538 4.12451 38.7241 4.30328C38.7691 4.34942 38.8238 4.38258 38.888 4.34942C39.2898 4.14325 39.6578 4.40997 40.0451 4.41574C40.2315 4.41862 40.4035 4.50368 40.6076 4.47917C40.81 4.45466 40.9097 4.65507 41.0688 4.73869C41.1877 4.80068 41.2745 4.89583 41.3291 4.69976C41.342 4.65218 41.3645 4.59163 41.4255 4.63632C41.5927 4.76031 41.5621 4.61758 41.5236 4.57C41.3789 4.39123 41.4882 4.3177 41.6473 4.21966C41.8192 4.11586 42.0796 4.01638 41.808 3.75687C41.7084 3.66315 41.8064 3.53484 41.89 3.43103C42.1005 3.17296 42.2998 2.90769 42.5038 2.64529C42.5151 2.63087 42.5231 2.60204 42.5376 2.6006C42.957 2.55014 43.0358 2.12627 43.3925 1.98354C43.8795 1.78746 44.3375 1.54957 44.8983 1.7024C44.9915 1.72835 45.0815 1.69231 45.1699 1.66059C45.4897 1.55246 45.8127 1.41405 46.1277 1.67501C46.1711 1.71105 46.2193 1.71249 46.2659 1.67645C46.478 1.51065 46.7271 1.52362 46.9649 1.59138C47.3603 1.7024 47.7652 1.76728 48.1541 1.93163C48.4193 2.04409 48.7584 2.08734 49.0509 2.19114C49.594 2.38434 50.0585 2.70584 50.547 2.98842C50.6756 3.06195 50.8877 3.34741 50.9986 2.95526C51.2878 2.9567 51.2348 2.80965 51.1641 2.65394C51.1577 2.63952 51.1641 2.60636 51.1754 2.60204C51.4759 2.48237 51.4116 2.11762 51.6944 1.98065C51.8149 1.92298 51.8712 1.81774 51.9017 1.6851C51.9499 1.47605 52.0255 1.27132 52.3629 1.3189C52.4578 1.33187 52.5285 1.22374 52.5461 1.12138C52.5863 0.883494 53.0042 0.59659 53.2613 0.660026C53.3931 0.691744 53.4236 0.60524 53.5007 0.574964C53.6871 0.502877 53.7353 0.72202 53.8655 0.717695C54.0326 0.71337 53.8816 0.461067 54.0969 0.440883C54.211 0.43079 54.3091 0.468276 54.391 0.501435C54.6289 0.600915 54.8828 0.494227 55.1222 0.585056C55.4163 0.698953 55.7409 0.759505 56.0061 0.920979C56.7357 1.36359 57.4845 1.77737 58.1498 2.30648C58.6545 2.70729 59.1671 3.10088 59.6621 3.51321C60.3579 4.09423 60.975 4.73724 61.6275 5.35286C62.0501 5.75078 62.4679 6.15158 62.8825 6.55671C63.3582 7.02095 63.7777 7.53132 64.1826 8.04025C64.6181 8.58955 65.0086 9.17345 65.3381 9.7934C65.5277 10.1509 65.7254 10.5215 65.8829 10.8862C65.9761 11.101 66.14 11.3173 66.156 11.5523C66.1866 12.0165 66.5032 12.3121 66.8406 12.6033C67.6442 13.2954 68.3914 14.0335 69.1596 14.7544C69.8908 15.4392 70.5223 16.1889 71.1073 16.966C71.4898 17.4721 71.8755 17.9882 72.1229 18.5721C72.2242 18.8114 72.4202 19.0147 72.5456 19.2468C72.7111 19.5496 72.8477 19.8639 72.9939 20.1739C73.1691 20.5401 73.28 20.9149 73.3539 21.3114C73.4037 21.5839 73.6673 21.8218 73.7171 22.1188C73.775 22.4619 74.0192 22.7632 73.9774 23.1352C73.9549 23.3269 74.0417 23.4841 74.3278 23.4423C74.5608 23.4062 74.8019 23.4682 75.0381 23.3774C75.2068 23.3125 75.3515 23.4264 75.5009 23.549C75.5507 23.3341 75.6905 23.3024 75.8946 23.3082C76.2257 23.3183 76.5599 23.1683 76.9006 23.3399C76.9247 23.3529 77.2076 23.2058 77.3956 23.1799C77.6527 23.1467 77.9034 23.1193 78.1654 23.1597C78.3421 23.1856 78.4868 23.0141 78.6828 23.0501C78.7407 23.0602 78.8066 23.0299 78.8676 23.0314C79.1151 23.0343 79.3192 23.1337 79.6181 23.0314C80.0729 22.8757 80.5518 23.128 80.9552 23.3514C81.7763 23.807 82.2826 24.5553 82.9591 25.1435C83.5264 25.638 83.7964 26.2882 84.1981 26.8664C84.3797 27.1259 84.4681 27.4445 84.5613 27.7473C84.6642 28.076 84.7847 28.3975 84.9213 28.719C85.1013 29.14 85.2234 29.5754 85.2813 30.0324C85.3359 30.4707 85.5496 30.9032 85.5046 31.3444C85.4548 31.8303 85.7457 32.2613 85.6878 32.7357C85.6557 32.9937 85.6653 33.2475 85.8164 33.481C85.8164 33.4998 85.8164 33.5185 85.8164 33.5373C85.6637 33.5906 85.5014 33.6382 85.7055 33.8155C85.7377 33.8444 85.7489 33.9467 85.7216 33.9698C85.5271 34.1385 85.5625 34.3865 85.4436 34.5811C85.4114 34.6359 85.3761 34.6662 85.307 34.6762C85.1768 34.695 85.18 34.757 85.2684 34.8219C85.3423 34.8766 85.3423 34.9617 85.2909 34.992C84.9759 35.1708 85.1318 35.6883 84.6272 35.7244C84.6095 35.7258 84.5854 35.7648 84.5838 35.7878C84.5549 36.2535 84.1997 36.4842 83.8221 36.7408C83.6614 36.8489 83.4701 36.9672 83.3336 37.1171C82.9302 37.564 82.3822 37.8625 81.8583 38.1551C81.4035 38.4089 80.9857 38.7405 80.4939 38.9149C79.962 39.1024 79.4703 39.4412 78.8451 39.3835C78.6169 39.3619 78.4498 39.6026 78.2345 39.5507C77.8263 39.4527 77.4727 39.6459 77.0967 39.6935C76.8058 39.7295 76.7528 39.4599 76.5856 39.4801C76.4362 39.4974 76.3333 39.7612 76.1164 39.5579C76.0328 39.4787 76.0521 39.5623 76.0409 39.5983C76.0184 39.6675 75.9557 39.6762 75.8914 39.669C75.5089 39.6214 75.0445 39.7612 74.7617 39.5406C74.5062 39.3402 74.4467 39.395 74.2972 39.5724C74.2539 39.6228 74.1494 39.6199 74.0996 39.5623C73.9308 39.3662 73.7878 39.457 73.5725 39.5233C73.3443 39.5954 73.1032 39.6632 72.8686 39.7165C72.1872 39.8722 71.726 40.2356 71.3998 40.7661C71.2809 40.9608 71.043 41.0602 70.9225 41.2606C70.8839 41.3241 70.8052 41.3601 70.7907 41.4567C70.7554 41.6773 70.6091 41.8027 70.3279 41.758C70.4565 42.1819 70.082 42.4111 69.9101 42.7153C69.8844 42.76 69.8313 42.7687 69.7735 42.7586C69.7044 42.7456 69.6658 42.6 69.5758 42.7096C69.526 42.7716 69.6112 42.8278 69.6401 42.8855C69.714 43.0383 69.5404 43.2517 69.2448 43.3569C69.1773 43.3814 69.0583 43.3511 69.2174 43.4333C69.2753 43.4636 69.2528 43.5242 69.2174 43.5544C68.941 43.7938 68.7964 44.1254 68.4975 44.3503C68.3609 44.4541 68.2372 44.5363 68.0282 44.4454C68.2564 44.6256 68.0572 44.7597 67.9688 44.8462C67.2794 45.5137 66.5658 46.1553 65.7816 46.7435C65.3188 47.091 64.8158 47.3822 64.353 47.7254C63.5703 48.3035 62.7492 48.8456 61.8524 49.281C61.6194 49.3949 61.4394 49.5708 61.1807 49.663C61.02 49.7193 61.1357 49.9572 61.2 50.0898C61.5969 50.9202 62.1031 51.6901 62.7267 52.411C63.024 52.7556 63.3421 53.1218 63.4627 53.5874C63.5205 53.8152 63.715 54.0099 63.6073 54.2708C63.5928 54.304 63.6539 54.3703 63.6909 54.4136C63.9898 54.7653 63.9737 55.1791 63.6732 55.5309C63.5028 55.7327 63.4804 56.011 63.2152 56.1725C62.4936 56.6136 61.8492 57.1557 61.0811 57.5291C60.7323 57.6978 60.3483 57.8261 59.9851 57.9674C59.4901 58.1606 58.9951 58.3437 58.4809 58.4864C57.9458 58.6335 57.4138 58.7979 56.8674 58.9017C56.5059 58.9709 56.1202 58.9377 55.7473 58.9665C55.5834 58.9781 55.5368 58.769 55.5175 58.7979C55.4292 58.9262 55.3263 58.9132 55.1961 58.893C54.5983 58.8022 53.9828 58.8555 53.3882 58.7186C53.0379 58.6364 52.7679 58.831 52.5285 59.0156C52.2472 59.2347 52.0014 59.4726 51.5755 59.4625C51.4325 59.4582 51.2653 59.5605 51.1448 59.6528C50.9327 59.8186 50.6804 59.9008 50.4233 59.97C49.8512 60.1243 49.2726 60.2612 48.6973 60.4054C48.678 60.4097 48.6539 60.4083 48.6379 60.4184C48.445 60.5207 48.2409 60.2901 48.0786 60.4083C47.8858 60.5452 47.6897 60.4559 47.5049 60.489C47.2221 60.5395 46.936 60.5452 46.6596 60.5943C46.0795 60.6966 45.5106 60.8249 44.9096 60.7514C44.7778 60.7355 44.6139 60.7456 44.5046 60.8595C44.1077 60.8595 43.7107 60.8595 43.3154 60.8595C43.227 60.7788 43.1209 60.7629 42.9988 60.773C42.5328 60.8148 42.078 60.786 41.6409 60.6072C41.4512 60.5294 41.2343 60.5971 41.0286 60.5366C40.7715 60.4602 40.5192 60.3549 40.2203 60.4011C40.0804 60.4212 39.8972 60.3679 39.7848 60.2237C39.706 60.1228 39.5453 60.0897 39.42 60.0969C38.9073 60.1243 38.5168 59.9051 38.1633 59.6182C37.9913 59.4784 37.7712 59.4207 37.596 59.2794C36.9966 58.7935 36.7041 58.1448 36.365 57.5205C36.185 57.1874 36.0066 56.8515 35.854 56.507C35.6917 56.1379 35.4988 55.7731 35.4747 55.3651C35.4683 55.2281 35.4169 55.0811 35.547 54.9657C35.6065 54.9138 35.5647 54.8836 35.5518 54.8302C35.4651 54.4799 35.2353 54.1339 35.4924 53.7648C35.5679 53.6552 35.4892 53.56 35.4185 53.4591C35.2385 53.2054 35.269 52.9891 35.4715 52.8723C35.3237 52.77 35.2465 52.2394 35.4072 52.1356C35.7029 51.9439 35.4683 51.719 35.502 51.5157C35.5165 51.4335 35.3879 51.4494 35.3253 51.4623C34.983 51.5286 34.631 51.4263 34.2823 51.5777C34.0911 51.6613 33.8243 51.6224 33.5816 51.5618C33.159 51.458 32.7074 51.5604 32.2799 51.4623C31.9216 51.3801 31.568 51.2922 31.1727 51.4248C31.5439 51.7017 31.3543 52.0635 31.327 52.3807C31.3029 52.659 31.3061 52.9415 31.2691 53.2097C31.2113 53.6264 31.3672 54.0459 31.2032 54.4525C31.1936 54.477 31.184 54.5159 31.1984 54.5332C31.4475 54.8518 31.2611 55.1878 31.2434 55.5136C31.2322 55.763 31.102 55.9649 30.832 56.0643C30.6568 56.1292 30.5058 56.2244 30.3612 56.3282C29.8823 56.6727 29.3311 56.7391 28.7332 56.765C28.2849 56.7838 27.8413 56.791 27.3946 56.7751C27.2387 56.7693 27.0909 56.7809 26.943 56.7088C26.6827 56.5862 26.3982 56.6973 26.1234 56.6785C25.7924 56.6569 25.487 56.6814 25.3215 56.3368C25.2171 56.4623 25.479 56.5214 25.3296 56.5862C25.1801 56.6511 24.9873 56.6281 24.9053 56.5026C24.6932 56.1782 24.6851 56.3541 24.5726 56.5632C24.3509 56.9784 23.97 57.2913 23.52 57.5046C23.3272 57.5955 23.136 57.7094 22.9688 57.8146C22.596 58.0496 22.1734 58.0727 21.7684 58.1491C21.4004 58.2197 21.0163 58.25 20.6386 58.2716C20.1164 58.3033 19.5989 58.3783 19.0766 58.3985C18.9722 58.4028 18.8275 58.4172 18.834 58.2572C18.8356 58.1995 18.8115 58.188 18.7681 58.214C18.3936 58.4259 18.0497 58.1649 17.693 58.1635C17.2687 58.1621 16.9216 57.8982 16.4973 57.9184C16.4331 57.9213 16.364 57.8708 16.2997 57.8405C16.1293 57.7613 15.9783 57.6243 15.7565 57.6964C15.734 57.7036 15.6954 57.6848 15.6697 57.6704C15.231 57.4109 14.7376 57.2898 14.2427 57.1514C14.0531 57.0981 13.7622 57.0289 13.6497 56.7967C13.6111 56.7174 13.5484 56.7593 13.497 56.7881C13.3733 56.8602 13.2528 56.827 13.1419 56.7708C12.8237 56.6122 12.5264 56.4031 12.1873 56.295C11.9607 56.2229 11.7068 56.2085 11.485 56.1004C11.1042 55.913 10.6879 55.7818 10.2878 55.6592C9.80247 55.5122 9.38303 55.2627 8.95557 55.0494C8.4156 54.7812 7.8194 54.5923 7.34372 54.1843C7.04803 53.9306 6.7893 53.6321 6.43414 53.4101C6.15934 53.2371 6.04042 52.855 5.87329 52.5566C5.63706 52.1342 5.4185 51.7031 5.19673 51.2749C5.1212 51.1322 5.0746 50.9837 5.05049 50.8222C5.00389 50.492 4.93318 50.1633 4.84641 49.8389C4.79659 49.653 4.81105 49.4684 4.7998 49.2824C4.79337 49.1685 4.79819 49.0575 4.94122 48.997C5.01353 48.9652 5.06013 48.8975 5.01032 48.8341C4.85765 48.6394 4.99104 48.452 5.08585 48.3194C5.30762 48.0108 5.50368 47.685 5.75437 47.388C5.90222 47.2135 6.16256 47.042 6.14006 46.7608C6.13685 46.7248 6.20274 46.6484 6.2188 46.6513C6.62217 46.7421 6.3795 46.4941 6.39397 46.386C6.42772 46.1423 6.66877 45.9765 7.01428 45.9967C6.7668 45.8107 6.8584 45.7113 7.03356 45.5368C7.15891 45.4128 7.14124 45.1634 7.29551 44.9962C7.50443 44.7684 7.57031 44.4324 7.94957 44.3344C8.02189 44.3171 8.06367 44.2378 8.05081 44.1729C7.97689 43.8096 8.30473 43.5861 8.42525 43.2906C8.48631 43.1392 8.60202 43.0541 8.8045 43.1133C9.0311 43.1796 9.01985 43.021 8.95557 42.933C8.7338 42.6231 8.91861 42.3895 9.1002 42.1487C9.2159 41.993 9.32519 41.833 9.44732 41.6831C9.52606 41.5836 9.58553 41.4062 9.82175 41.6542C9.63856 41.2794 9.86675 41.1251 10.0612 40.9781C10.2412 40.8425 10.2814 40.7459 10.156 40.5354C9.78158 39.9126 9.43768 39.2739 9.11306 38.628C8.76112 37.9245 8.40757 37.2166 8.12313 36.4885C7.87243 35.8498 7.70852 35.1852 7.67316 34.5004C7.64423 33.9424 7.55746 33.3873 7.54138 32.8308C7.53657 32.6016 7.5221 32.3853 7.44978 32.1662C7.41122 32.0509 7.41764 31.9024 7.62013 31.9052C7.7262 31.9067 7.73905 31.8605 7.73905 31.7971C7.73744 31.6847 7.65067 31.7611 7.61209 31.7639C7.408 31.7726 7.33086 31.7063 7.42246 31.5304C7.48835 31.405 7.42407 31.3012 7.38551 31.1844C7.31801 30.971 7.09785 30.7346 7.44014 30.5428C7.45943 30.5313 7.47067 30.4866 7.46264 30.4635C7.41122 30.2963 7.21033 30.1665 7.45461 29.9459C7.55906 29.8537 7.3389 29.5797 7.25533 29.3894C7.10588 29.0506 7.21355 28.6902 7.18623 28.3398C7.16212 28.0414 7.15891 27.7415 7.1782 27.4431C7.18945 27.2787 7.05767 27.0668 7.32925 26.9558C7.37586 26.937 7.3389 26.8707 7.31319 26.8289C7.28265 26.7784 7.24569 26.715 7.33408 26.6963C7.37265 26.6891 7.42728 26.7496 7.47549 26.7799C7.4996 26.5132 7.22962 26.3156 7.27462 26.0417C7.30676 25.8442 7.26498 25.6308 7.53496 25.5285C7.60728 25.5011 7.61531 25.4304 7.54138 25.367C7.37104 25.2243 7.4305 25.0383 7.44014 24.8638C7.44496 24.7773 7.49799 24.6778 7.59763 24.6793C7.91422 24.6836 7.80976 24.5553 7.75673 24.388C7.65388 24.0723 7.57031 23.7609 7.82583 23.4394C7.911 23.3327 7.85154 23.102 7.88047 22.929C7.89654 22.8339 7.92225 22.7041 8.01867 22.6969C8.3224 22.6709 8.18741 22.5224 8.15366 22.3927C8.10545 22.2053 8.07331 22.0193 8.33686 21.9299C8.3915 21.9112 8.39471 21.878 8.37383 21.8419C8.25973 21.6531 8.31758 21.5075 8.49596 21.3777C8.53774 21.3474 8.56667 21.2739 8.55702 21.2263C8.46382 20.716 8.75308 20.3252 9.0536 19.9389C9.07771 19.91 9.10984 19.8913 9.10984 19.848C9.11787 19.2858 9.50035 18.8388 9.70605 18.3371C9.82175 18.056 10.0837 17.8282 10.1592 17.5182C10.1753 17.4548 10.2717 17.4432 10.3392 17.4187C10.5015 17.3625 10.6221 17.2212 10.5963 17.1001C10.5562 16.9098 10.7522 16.7757 10.6879 16.5926C10.6687 16.5378 10.7249 16.4427 10.8069 16.4542C11.1668 16.5047 11.0752 16.2538 11.117 16.0952C11.1347 16.026 11.0833 15.9539 11.1363 15.8789C11.35 15.5762 11.3532 15.5632 11.0142 15.4407C10.9129 15.4032 10.7972 15.4205 10.7619 15.2965C10.7538 15.2662 10.7249 15.2547 10.696 15.285C10.4372 15.5574 10.1303 15.4277 9.82979 15.3729C9.75908 15.3599 9.67391 15.3412 9.61284 15.3642C9.07771 15.5719 8.49274 15.5632 7.9335 15.6627C7.71012 15.7031 7.66031 15.7521 7.7053 15.99C7.80012 16.4874 7.86118 16.9963 7.79208 17.5095C7.75994 17.7503 7.80012 17.9997 7.79691 18.2448C7.78083 19.4991 7.57031 20.7275 7.13963 21.9227C6.8584 22.7041 6.43414 23.4221 5.93275 24.1055C5.75276 24.3506 5.51653 24.5466 5.2337 24.698C5.10031 24.7701 4.96532 24.8422 4.84319 24.9301C4.11681 25.4492 3.29241 25.514 2.50175 25.1637C2.11285 24.9921 1.74645 24.6533 1.5295 24.2857C1.12775 23.6009 0.770988 22.8944 0.427078 22.1836C0.197273 21.7093 0.202095 21.186 0.128174 20.6799C0.115318 20.5876 0.0847855 20.4983 0.0622864 20.4089C0.0622864 20.2214 0.0622864 20.034 0.0622864 19.848C0.16996 19.5885 0.227814 19.3218 0.277626 19.0464ZM74.4306 32.6766C74.3519 33.1682 74.6074 33.6122 74.5544 34.0981C74.5045 34.5681 74.8501 34.9531 75.0911 35.3481C75.3981 35.8541 75.9203 36.1252 76.4924 36.3357C76.6467 36.3933 76.7946 36.4611 76.944 36.526C77.4888 36.7653 78.032 36.7509 78.6201 36.6183C78.9978 36.5332 79.3513 36.389 79.6888 36.2564C80.1613 36.069 80.5293 35.6797 80.9857 35.4447C81.4582 35.201 81.6863 34.7382 82.154 34.5047C82.1942 34.4845 82.2118 34.4312 82.2392 34.3922C82.4658 34.0722 82.6425 33.7132 82.8 33.3787C82.98 32.9937 83.2355 32.6002 83.2644 32.1547C83.2853 31.8389 83.1841 31.5347 83.1825 31.2175C83.1793 30.5961 83.0105 29.9892 82.9929 29.362C82.9784 28.8127 82.7647 28.2649 82.6088 27.7242C82.5043 27.3537 82.3356 26.999 82.2199 26.6314C81.9997 25.9293 81.3842 25.6827 80.6804 25.54C80.4907 25.5011 80.2882 25.5126 80.0922 25.4996C79.631 25.4636 79.1633 25.5587 78.7471 25.6553C78.3486 25.749 77.8664 25.7043 77.5306 26.0388C77.2269 26.3416 76.8283 26.5593 76.5101 26.8563C76.2048 27.1418 75.975 27.4892 75.615 27.7242C75.4929 27.805 75.5459 27.9246 75.4929 28.0227C75.2277 28.5273 74.8485 28.9987 74.7247 29.5466C74.5849 30.1679 74.3663 30.7749 74.3599 31.428C74.3551 31.8519 74.4933 32.27 74.4306 32.6766ZM62.6029 9.21526C62.1497 8.60541 61.6564 8.02151 61.1614 7.43905C60.7259 6.92579 60.1683 6.52499 59.6797 6.06219C59.6653 6.04778 59.6508 6.03192 59.6315 6.02615C59.1414 5.87333 58.9357 5.43937 58.5677 5.1712C58.1675 4.87853 57.7658 4.58298 57.327 4.33068C56.9719 4.12739 56.6505 3.87653 56.2905 3.68334C56.0655 3.56223 55.7988 3.50456 55.5481 3.42671C55.2942 3.34886 55.0274 3.32002 54.7783 3.21477C54.5742 3.12827 54.3701 3.23784 54.2255 3.37336C54.0744 3.51465 53.9668 3.69055 53.8205 3.83616C53.5554 4.10144 53.4477 4.46187 53.1391 4.70553C52.9897 4.82519 53.1857 4.90304 53.2613 4.96215C53.7209 5.32691 54.2014 5.67004 54.6562 6.04057C55.2926 6.55959 55.9691 7.04546 56.5107 7.65387C56.6746 7.83841 56.9253 7.92635 57.1278 8.05899C57.2258 8.12387 57.5327 7.95951 57.6758 8.19019C57.9924 7.92203 58.2945 8.13108 58.5693 8.24065C59.0144 8.41798 59.4805 8.53765 59.9208 8.73084C60.2309 8.86636 60.5973 8.9471 60.9332 9.06244C61.5262 9.26572 62.0549 9.58434 62.6158 9.84674C62.7138 9.89143 62.799 9.97073 62.9372 9.95631C62.8986 9.6795 62.7652 9.43441 62.6029 9.21526ZM52.9254 52.4023C52.9463 52.486 52.9575 52.5667 52.9511 52.6518C52.9367 52.8868 52.9302 53.1102 53.017 53.3496C53.1343 53.6768 53.1343 54.0329 53.1134 54.3804C53.1038 54.5534 53.2516 54.7005 53.2548 54.8591C53.2597 55.2079 53.34 55.5468 53.3706 55.8913C53.3754 55.936 53.3754 55.9865 53.3561 56.0269C53.25 56.2662 53.3272 56.3758 53.6421 56.4104C53.7241 56.4204 53.8077 56.4147 53.8896 56.4147C53.9635 56.4147 54.0359 56.4147 54.1451 56.4147C54.7397 56.4392 55.3745 56.5243 56.0045 56.4536C56.366 56.4118 56.7148 56.2719 57.0683 56.171C57.4315 56.0672 57.8188 56.0139 58.1627 55.9072C58.4696 55.812 58.8119 55.7327 59.1076 55.5669C59.3374 55.4357 59.6155 55.3478 59.8694 55.2858C60.2101 55.2022 60.4077 54.9398 60.7243 54.8591C61.2916 54.7149 61.4234 54.2261 61.7207 53.8686C61.7705 53.8095 61.7817 53.7475 61.756 53.684C61.6291 53.3784 61.4957 53.0742 61.2948 52.7988C60.9155 52.2812 60.4929 51.7882 60.2567 51.1956C60.2406 51.1524 60.2277 51.1048 60.1988 51.0673C60.0269 50.8568 59.9851 50.4156 59.7794 50.4228C59.4017 50.4358 59.0401 50.6737 58.6609 50.7919C57.92 51.0226 57.1953 51.2864 56.3885 51.334C55.9964 51.3571 55.5995 51.507 55.1961 51.5517C54.6674 51.6094 54.1339 51.6671 53.6036 51.6584C53.0781 51.6498 52.8161 51.9641 52.9254 52.4023ZM25.5112 54.3069C25.7024 54.3299 25.8808 54.4006 26.0881 54.3544C26.207 54.3285 26.3548 54.3487 26.4722 54.4309C26.567 54.4957 26.6811 54.5289 26.7903 54.4525C27.0137 54.2953 27.1792 54.6529 27.2837 54.5491C27.5071 54.3285 27.6099 54.4871 27.753 54.5938C27.7996 54.6284 27.8735 54.686 27.9024 54.6067C28.0053 54.3213 28.2656 54.5174 28.4408 54.4597C28.4841 54.4467 28.542 54.4928 28.6143 54.477C29.0514 54.3761 29.2089 54.1728 29.1302 53.7633C29.0836 53.5154 29.037 53.2731 29.2186 53.0511C29.2571 53.0021 29.2105 52.9646 29.1912 52.9228C28.8988 52.313 29.1382 51.7031 29.1623 51.0932C29.3166 51.0889 29.3584 51.2028 29.4966 51.2461C29.5335 51.0817 29.4773 50.9793 29.3102 50.9202C29.098 50.8453 28.857 50.8078 28.6786 50.691C28.1595 50.3508 27.4846 50.3363 26.9655 50.0062C26.7871 49.8937 26.7003 49.9168 26.5911 50.1172C26.3757 50.5122 26.3018 50.9808 25.9033 51.2908C25.8824 51.3066 25.8679 51.3412 25.8695 51.3657C25.9097 51.8372 25.6751 52.2683 25.5561 52.7051C25.4356 53.1492 25.4404 53.6004 25.3119 54.0358C25.2669 54.1829 25.3183 54.2852 25.5112 54.3069ZM11.027 23.017C10.9547 23.2015 10.9386 23.3976 10.8567 23.5821C10.8053 23.6975 10.7426 23.7422 10.5803 23.6931C10.7442 23.9022 10.7844 24.068 10.5321 24.192C10.471 24.2208 10.4421 24.2785 10.4469 24.3333C10.5031 24.8898 10.1914 25.3915 10.1448 25.9293C10.0644 26.8563 9.83461 27.7703 9.84747 28.706C9.84908 28.7925 9.84586 28.8762 9.7864 28.9468C9.64337 29.1155 9.64177 29.2899 9.74944 29.4702C9.7639 29.4947 9.79443 29.5278 9.7864 29.5451C9.58713 29.9791 9.96317 30.4159 9.77354 30.8528C9.72372 30.9681 9.82336 31.082 9.83943 31.2017C9.8989 31.6529 9.75908 32.1042 9.86514 32.5526C10.0194 33.2158 10.0708 33.8905 10.1223 34.5652C10.1271 34.6258 10.1592 34.6964 10.2058 34.7426C10.6687 35.2039 10.704 35.7849 10.7731 36.3544C10.8711 37.1719 11.1058 37.9403 11.6506 38.6208C12.078 39.1571 12.3657 39.7857 12.8864 40.2557C13.2431 40.5773 13.2945 41.0127 13.5099 41.3817C13.6111 41.5547 13.8249 41.9613 13.3942 42.1776C13.3685 42.1906 13.362 42.2439 13.3572 42.2799C13.3267 42.5308 13.1451 42.7024 13.0117 42.9085C12.7739 43.2791 12.3978 43.5443 12.1857 43.9206C11.8402 44.5319 11.3259 45.0423 10.9194 45.6161C10.696 45.9304 10.3023 46.0976 10.1255 46.4465C9.98246 46.7291 9.72372 46.9569 9.59998 47.2525C9.54213 47.3923 9.40071 47.4817 9.27537 47.5437C9.08734 47.636 8.99895 47.7816 8.87843 47.9214C8.48471 48.3785 8.19544 48.8975 7.77923 49.3444C7.46425 49.6803 7.27622 50.0956 7.1348 50.5209C7.10588 50.6074 7.1348 50.6867 7.14124 50.7689C7.1573 50.9866 7.24569 51.2086 7.08178 51.4148C7.05285 51.4508 7.03035 51.5099 7.10588 51.5272C7.2923 51.5676 7.26337 51.7103 7.26498 51.817C7.26819 51.9857 7.37907 52.1053 7.51407 52.1428C8.18098 52.3317 8.70648 52.7786 9.38464 52.9459C9.45214 52.9617 9.54695 53.0007 9.56463 53.0482C9.65141 53.2919 9.98728 53.3423 10.0949 53.3178C10.471 53.2285 10.6976 53.4822 10.974 53.5687C11.8305 53.8369 12.6549 54.1901 13.4826 54.5275C13.9823 54.7307 14.5191 54.8432 15.0028 55.1013C15.2278 55.2209 15.5251 55.257 15.779 55.3939C15.9172 55.4689 16.1775 55.381 16.364 55.4761C16.7014 55.6462 17.0823 55.639 17.4471 55.6981C17.5917 55.7212 17.7508 55.7154 17.7267 55.9158C17.7203 55.9677 17.7765 55.9995 17.8344 55.9922C17.8858 55.9865 17.889 55.9461 17.8858 55.9057C17.8681 55.7183 17.9726 55.7731 18.061 55.8423C18.2619 55.9995 18.4643 55.9677 18.6749 55.8654C18.6829 55.8611 18.699 55.851 18.7006 55.8538C19.0397 56.1451 19.4028 55.6924 19.7451 55.8827C19.7628 55.8913 19.7917 55.9072 19.8014 55.9014C20.073 55.7428 20.3317 55.7544 20.5792 55.9432C20.5888 55.949 20.629 55.9418 20.6354 55.9303C20.8476 55.5857 21.2493 55.7126 21.5643 55.639C21.9259 55.5554 22.1846 55.3247 22.3678 55.0969C22.4948 54.9398 22.4674 54.6399 22.5719 54.4164C22.7824 53.9695 22.8483 53.4952 22.8949 53.018C22.9046 52.9358 22.9174 52.8507 22.9463 52.7714C23.0106 52.5984 23.1103 52.4341 23.0187 52.2394C22.9929 52.1861 22.9897 52.0707 23.1279 52.101C23.2292 52.1241 23.2195 52.0996 23.1665 52.0506C23.0315 51.928 23.062 51.7968 23.1311 51.6627C23.2645 51.4061 23.1344 51.0572 23.4783 50.8741C23.3465 50.6939 23.647 50.554 23.5217 50.332C23.4542 50.2123 23.6261 49.9716 23.7177 49.7971C23.9073 49.4353 24.1195 49.0835 24.3139 48.723C24.3541 48.6466 24.4039 48.6019 24.4875 48.5789C24.5276 48.5688 24.5646 48.5515 24.6032 48.5371C24.3734 48.3237 24.7575 48.3064 24.7607 48.1435C24.7655 47.9128 25.1158 47.8162 25.3247 47.9676C25.3762 48.0051 25.426 48.0483 25.4822 47.995C25.5417 47.9387 25.4613 47.92 25.4308 47.8883C25.3681 47.8205 25.3778 47.747 25.4324 47.6835C25.5015 47.5999 25.5722 47.6331 25.6397 47.6951C25.6574 47.7109 25.7072 47.721 25.7249 47.7109C26.2857 47.3938 26.7791 47.7542 27.25 47.894C28.2126 48.1781 29.1446 48.5255 30.1587 48.6841C30.6231 48.7562 31.1004 48.7605 31.5568 48.8831C31.7239 48.9278 31.9135 48.9105 32.0003 49.0936C32.0309 49.1599 32.1433 49.1541 32.1546 49.1152C32.2285 48.8441 32.4648 48.9984 32.566 49.0272C32.7299 49.0734 32.9051 49.0892 33.069 49.1383C33.2008 49.1786 33.3872 49.0734 33.564 49.0878C33.7166 49.1008 33.8596 49.0907 34.0171 49.1455C34.1827 49.2046 34.3514 49.0316 34.5571 49.0705C34.6551 49.0892 34.729 49.0763 34.7628 49.1786C34.8255 49.3646 34.991 49.3531 35.1597 49.3516C35.1854 49.2305 34.9637 49.1642 35.1019 49.0431C35.224 48.9364 35.359 48.9955 35.4844 49.0301C35.6434 49.0734 35.7977 49.157 35.9311 48.9869C35.9632 48.9451 36.0275 48.9436 36.0757 48.9624C36.2541 49.0373 36.3538 49.0071 36.4743 48.8427C36.5836 48.6971 36.7957 48.7749 36.9435 48.8629C37.4337 49.1541 37.8756 49.5001 38.1729 49.9543C38.3288 50.1907 38.3738 50.4892 38.3882 50.7703C38.4043 51.099 38.3208 51.4465 38.2388 51.7406C38.1408 52.0823 38.385 52.5364 37.9238 52.7887C37.8869 52.8089 37.8531 52.8435 37.8772 52.881C38.1231 53.2458 37.8451 53.5745 37.8001 53.919C37.7535 54.2679 37.7551 54.6226 37.7294 54.9744C37.6828 55.6131 37.8017 56.246 37.8386 56.8818C37.8515 57.0851 37.8322 57.3893 38.2211 57.4513C38.369 57.4758 38.3641 57.6935 38.4525 57.7569C38.5345 57.816 38.647 57.5738 38.8109 57.5955C38.97 57.6156 39.0953 57.7007 39.1966 57.8146C39.3493 57.989 39.5051 58.1534 39.7221 57.8708C39.7414 57.8449 39.7992 57.8189 39.8298 57.8261C40.2813 57.9213 40.7908 57.8218 41.1732 58.1548C41.2745 58.2428 41.395 58.5095 41.5557 58.1635C41.6232 58.0193 41.8257 58.1231 41.9542 58.1548C42.1101 58.1938 42.2355 58.2197 42.4171 58.2053C42.7208 58.1808 43.0759 58.1375 43.3572 58.2341C43.6255 58.3264 43.8232 58.2212 44.0482 58.201C44.3117 58.1794 44.5657 58.1289 44.7681 58.3408C44.8067 58.3798 44.8726 58.4057 44.9321 58.348C45.2631 58.0208 45.284 58.0179 45.7115 58.2414C45.7195 58.2442 45.7324 58.2442 45.7757 58.25C45.6777 58.0914 45.7581 58.0568 45.9172 58.0496C46.2852 58.0294 46.6468 57.9458 47.0228 58.0438C47.1192 58.0698 47.2719 57.9112 47.4262 57.9573C47.6624 58.0265 47.8793 58.0655 48.069 57.8593C48.1091 57.8146 48.2329 57.7987 48.3052 57.8146C48.7166 57.8997 49.1135 57.7627 49.4349 57.6142C49.6953 57.4916 50.0247 57.5147 50.2352 57.2956C50.3043 57.2235 50.4313 57.1846 50.5406 57.1615C51.1818 57.0317 51.222 56.6742 51.1689 56.2647C51.0741 55.5395 50.9889 54.81 50.923 54.0834C50.8636 53.4303 50.7543 52.7815 50.7286 52.1241C50.7077 51.618 50.6756 51.1134 50.6836 50.6074C50.6868 50.4661 50.6852 50.3176 50.7945 50.2095C51.0243 49.9831 51.0114 49.6385 51.2975 49.4367C51.3971 49.3675 51.4775 49.3185 51.598 49.3314C51.7748 49.3502 51.9098 49.2882 51.9789 49.144C52.0528 48.9883 52.1524 48.9422 52.318 49.033C52.3678 49.0604 52.3967 49.0921 52.4722 49.0373C52.7358 48.847 53.0749 49.0114 53.3657 48.9105C53.4139 48.8946 53.4863 48.9451 53.5409 48.8975C53.7836 48.6928 54.0005 48.7865 54.24 48.9811C54.248 48.8586 54.1789 48.7605 54.3042 48.7173C54.4376 48.6711 54.5051 48.7879 54.6546 48.8586C54.5164 48.6683 54.6546 48.6711 54.7638 48.6495C54.8522 48.6337 54.9438 48.5789 55.0258 48.6596C55.0579 48.6913 55.0563 48.723 55.0194 48.7562C54.9856 48.785 54.8603 48.7735 54.9422 48.8586C55.0161 48.9364 55.0997 48.8629 55.1174 48.8167C55.2926 48.3583 55.7297 48.4347 56.1009 48.4563C56.3082 48.4679 56.3468 48.3078 56.4946 48.2747C56.8867 48.1867 57.2676 48.0613 57.6629 47.9849C57.9216 47.9344 58.1547 47.8609 58.3572 47.7066C58.4777 47.6129 58.5918 47.623 58.6962 47.8119C58.685 47.3548 59.1173 47.3923 59.3696 47.2467C60.0638 46.8459 60.8127 46.5302 61.4973 46.1077C62.0099 45.7891 62.5418 45.4892 63.0095 45.1259C63.4868 44.754 64.0637 44.4959 64.4687 44.0345C64.684 43.7894 65.0135 43.6193 65.2609 43.3843C65.3654 43.2848 65.4682 43.3425 65.5743 43.3785C65.7334 43.4304 65.7398 43.5285 65.645 43.6727C65.9311 43.5415 65.8009 43.3771 65.7302 43.256C65.6161 43.057 65.645 42.959 65.8877 42.8768C66.2364 42.7586 66.4823 42.5337 66.5546 42.1949C66.5771 42.0867 66.6301 42.0276 66.7378 41.9945C66.778 41.9829 66.8374 41.9714 66.8487 41.9469C66.9949 41.5908 67.2376 41.7955 67.4465 41.8964C67.461 41.8431 67.4754 41.8157 67.469 41.8114C67.2231 41.6398 67.244 41.6485 67.3549 41.4178C67.4867 41.141 67.7872 40.968 67.8756 40.6652C67.9318 40.4734 68.1295 40.6263 68.2709 40.5729C67.9736 40.2586 68.3384 40.1606 68.52 40.0453C68.6244 39.9775 68.6582 39.9371 68.6566 39.8376C68.6518 39.656 68.708 39.5334 68.9523 39.6243C69.0149 39.6473 69.1001 39.6473 69.0889 39.568C69.0455 39.222 69.3251 39.0014 69.4858 38.7376C69.5806 38.5819 69.7397 38.4594 69.9695 38.481C70.0531 38.4882 70.1318 38.4651 70.1334 38.3901C70.1399 38.2143 70.2925 38.1076 70.4179 38.0917C70.6895 38.0571 70.7441 37.7904 70.9787 37.7356C71.0061 37.7298 71.0462 37.7024 71.0462 37.6851C71.0478 37.2627 71.4882 37.28 71.7517 37.1272C71.8722 37.0565 72.0088 37.0133 72.1133 36.9153C72.3511 36.6918 72.417 36.712 72.5006 36.9772C72.9425 36.934 73.3748 36.8734 73.8184 36.9138C73.2366 36.154 72.8557 35.2919 72.4347 34.4441C72.1197 33.8126 71.7421 33.2014 71.636 32.5136C71.5428 31.898 71.4158 31.2795 71.4592 30.6509C71.4657 30.5601 71.44 30.4664 71.4223 30.3756C71.3885 30.204 71.3901 30.0252 71.5074 29.8911C71.6424 29.7383 71.673 29.6244 71.5026 29.4846C71.44 29.4327 71.4255 29.3361 71.4689 29.2741C71.6103 29.0751 71.4705 28.768 71.8192 28.6267C71.906 28.5907 71.853 28.285 71.8722 28.1048C71.8803 28.0284 71.6698 27.8237 72.0024 27.9102C72.057 27.9246 72.0426 27.8641 72.041 27.8295C72.0201 27.5123 72.0892 27.2326 72.4411 27.0711C72.5102 27.0394 72.462 26.9889 72.4443 26.9514C72.4154 26.8923 72.4331 26.8015 72.4604 26.7943C72.7722 26.7222 72.6211 26.2436 73.0389 26.2652C73.0534 26.2666 73.0807 26.1888 73.0904 26.1455C73.1 26.1008 73.0743 26.0316 73.1016 26.0086C73.4471 25.7231 73.235 25.5054 73.0293 25.2516C72.7529 24.9143 72.6243 24.5077 72.4652 24.1156C72.3817 23.9137 72.2194 23.7494 72.1229 23.5403C71.8867 23.0242 71.8192 22.4907 71.7196 21.9501C71.5412 20.9784 71.2503 20.0369 70.667 19.1704C70.2347 18.526 69.7638 17.9017 69.2721 17.2991C68.9105 16.855 68.5312 16.4009 68.0459 16.0318C67.604 15.6958 67.2119 15.3023 66.8246 14.9144C66.5208 14.6088 66.1111 14.4459 65.7575 14.2094C65.6643 14.1489 65.5598 14.1114 65.5309 13.9989C65.5165 13.9441 65.4875 13.8994 65.4216 13.8735C64.8399 13.6399 64.3626 13.2449 63.7985 13.0027C63.4177 12.8369 63.1059 12.5644 62.6977 12.4649C62.4936 12.4145 62.3747 12.2674 62.1931 12.2011C61.6355 11.9978 61.0618 11.8234 60.5315 11.5739C60.067 11.3548 59.5624 11.225 59.1125 10.9727C58.8344 10.8185 58.46 10.8098 58.1498 10.693C57.8927 10.5964 57.6597 10.4926 57.3656 10.4624C57.1696 10.4407 56.9478 10.3326 56.7308 10.2793C56.6553 10.2605 56.5991 10.2245 56.5766 10.1538C56.4625 9.78619 56.0977 9.61318 55.8309 9.35799C55.4918 9.03649 55.0836 8.77553 54.7863 8.42519C54.4537 8.03448 54.0166 7.762 53.6164 7.44337C53.2388 7.14205 52.8611 6.84217 52.461 6.56536C52.2553 6.42407 52.0464 6.28566 51.8889 6.09968C51.7619 5.9483 51.5434 5.98002 51.3762 5.87189C51.1271 5.70753 50.8893 5.49992 50.5711 5.42351C50.5422 5.4163 50.5149 5.399 50.4908 5.38458C49.4864 4.78915 48.3502 4.48206 47.1883 4.31337C46.7641 4.25138 46.2739 4.13892 45.8127 4.32779C45.5749 4.42583 45.3017 4.32491 45.0413 4.35374C44.7906 4.38258 44.6315 4.44457 44.5994 4.68822C44.5882 4.76608 44.5383 4.85258 44.4773 4.91025C44.1189 5.2505 44.053 5.68879 43.9228 6.11554C43.7846 6.56824 43.7027 7.03104 43.6368 7.48807C43.5966 7.77786 43.6272 8.09504 43.6255 8.3978C43.6207 8.93268 43.6432 9.47333 43.7075 9.99524C43.7589 10.4047 43.6834 10.8214 43.8393 11.2438C43.9662 11.5855 43.9823 12.0122 43.8923 12.3986C43.8618 12.524 43.8843 12.625 43.91 12.7432C44.1269 13.7654 44.4917 14.7587 44.6878 15.7852C44.7762 16.2466 44.5849 16.6993 44.1221 16.9098C43.9196 17.0021 43.6705 17.0972 43.4086 17.0612C43.1306 17.0237 43.0309 16.8218 42.912 16.6387C42.3062 15.7103 41.9317 14.7083 41.7325 13.6471C41.538 12.6048 41.4062 11.5595 41.3275 10.5027C41.268 9.72996 41.1748 8.94998 41.08 8.17577C41.0222 7.70721 41.1507 7.23432 41.0463 6.76432C41.0222 6.65763 41.0061 6.55527 40.892 6.50769C40.7602 6.4529 40.7506 6.58554 40.6895 6.63745C40.5658 6.74269 40.426 6.7326 40.2813 6.69656C40.0499 6.63745 39.8249 6.58122 39.5791 6.65186C39.391 6.70665 39.1869 6.61294 39.0552 6.54085C38.8366 6.41974 38.6582 6.54662 38.4863 6.52067C38.1118 6.46444 37.7149 6.65619 37.363 6.43128C37.3469 6.42119 37.3469 6.36496 37.3099 6.40821C37.0576 6.69944 36.6944 6.55671 36.4004 6.55527C35.1003 6.55094 33.8082 6.66051 32.5146 6.74269C32.0694 6.77008 31.6178 6.8119 31.1711 6.82631C30.7645 6.84073 30.329 6.75567 29.9433 6.87245C28.9823 7.16079 27.9362 7.08727 27.0025 7.43472C26.3789 7.6654 25.712 7.81246 25.1464 8.16424C24.8394 8.35455 24.4553 8.34446 24.1211 8.48142C23.565 8.70921 23.1119 9.0783 22.5655 9.31618C21.9693 9.57425 21.4566 9.95487 20.8877 10.2548C20.6049 10.4047 20.3928 10.6714 20.1244 10.8632C19.3193 11.4442 18.5784 12.0886 17.8553 12.7504C17.1514 13.3963 16.5327 14.1042 15.9044 14.8092C15.4737 15.2936 15.0976 15.8126 14.6573 16.2913C14.4098 16.5594 14.2604 16.9458 14.0129 17.2457C13.6979 17.6278 13.5452 18.0862 13.2479 18.4697C12.7996 19.0493 12.5826 19.7399 12.1198 20.3108C12.1664 20.7563 11.7309 21.023 11.6104 21.4267C11.4513 21.9602 11.2311 22.4893 11.027 23.017ZM2.75245 22.5095C2.75405 22.6263 2.77173 22.7575 2.92601 22.8151C3.09153 22.8757 3.19438 22.7892 3.30687 22.6969C3.73916 22.3422 3.87094 21.8391 4.10556 21.3892C4.29198 21.0317 4.43501 20.6525 4.56678 20.2748C4.64231 20.0556 4.65356 19.8192 4.69373 19.5914C4.77409 19.143 4.89783 18.7004 4.92354 18.2448C4.92675 18.1814 4.95086 18.1021 4.86568 18.0704C4.77891 18.0387 4.7307 18.1122 4.69373 18.1612C4.03967 19.0637 3.24741 19.8971 2.88744 20.951C2.82316 21.1427 2.71066 21.3273 2.72192 21.5911C2.79905 21.8607 2.75084 22.1851 2.75245 22.5095ZM21.4486 13.4655C21.6575 13.4828 21.7523 13.5087 21.6045 13.2939C21.5755 13.2521 21.6398 13.2089 21.6864 13.1887C22.101 13.0157 22.4241 12.6999 22.8226 12.5298C23.2886 12.3294 23.7032 12.0684 24.1436 11.8421C24.5534 11.6316 24.9776 11.4427 25.4083 11.2741C25.99 11.0448 26.5477 10.7478 27.1648 10.6238C27.4396 10.569 27.618 10.3802 27.8863 10.3499C28.2495 10.3095 28.5709 10.1394 28.9197 10.0644C29.4773 9.94334 30.0205 9.66364 30.6263 9.87846C30.6793 9.8972 30.7179 9.85683 30.7565 9.82223C30.9252 9.66508 31.4041 9.55839 31.597 9.65211C31.7593 9.72996 31.9055 9.89432 32.0035 9.59588C32.0196 9.54398 32.1289 9.5483 32.2044 9.54974C32.5981 9.55695 33.0031 9.51082 33.384 9.57858C33.8147 9.65499 34.3177 9.49207 34.6776 9.85107C34.721 9.89432 34.7789 9.83521 34.8335 9.80349C35.0778 9.65932 35.4876 9.79195 35.5229 10.0457C35.7158 9.81646 35.9231 9.8107 36.0581 10.0125C36.095 10.0688 36.1464 10.1279 36.1882 10.0803C36.3602 9.87846 36.3971 10.0731 36.4871 10.1466C36.6768 10.3023 36.876 10.4479 36.9435 10.6887C36.9628 10.7565 37.0383 10.7767 37.1091 10.8026C37.4096 10.9122 37.686 11.1183 37.7728 11.3606C37.8595 11.5984 38.0974 11.8334 37.9672 12.1304C37.9206 12.2328 37.9431 12.3582 38.0604 12.4347C38.1874 12.5183 38.2195 12.6365 38.2034 12.7576C38.1424 13.2435 38.52 13.712 38.2645 14.2051C38.2436 14.244 38.2854 14.3103 38.3015 14.3637C38.4236 14.7501 38.2115 15.1192 37.7776 15.2013C37.6297 15.2287 37.5622 15.2878 37.4996 15.383C37.3935 15.5445 37.2617 15.6122 37.0625 15.5041C36.8953 15.4133 36.635 15.5646 36.5177 15.3383C36.4293 15.5531 36.23 15.4522 36.0902 15.4349C35.6274 15.3787 35.2031 15.5488 34.803 15.6713C33.7343 16.0001 32.664 16.3201 31.5873 16.6229C31.1245 16.7526 30.6376 16.8579 30.2005 17.0121C29.7505 17.1707 29.2748 17.2774 28.8409 17.4692C28.5886 17.5802 28.3106 17.6148 28.0631 17.7085C27.589 17.8873 27.1423 18.105 26.6361 18.2246C26.2616 18.314 25.9001 18.5058 25.5674 18.6644C25.1994 18.8388 24.7832 18.9051 24.4312 19.12C24.2271 19.2439 23.9282 19.2555 23.745 19.4516C23.7225 19.4746 23.6759 19.4804 23.6406 19.4948C23.5506 19.3059 23.2501 19.2973 23.1842 19.1171C22.9833 18.562 22.7262 18.0358 22.3967 17.5297C22.2891 17.3639 22.1862 17.1794 22.1396 16.9602C22.093 16.744 22.1171 16.5075 22.011 16.2855C21.8021 15.8472 21.8391 15.3397 21.5755 14.9101C21.5707 14.9029 21.5739 14.8914 21.5739 14.8827C21.5627 14.6535 21.3618 14.4603 21.4229 14.2123C21.4438 14.1258 21.3216 14.1143 21.2477 14.0854C21.1336 14.0422 20.9729 13.9888 21.0709 13.8519C21.1738 13.7077 21.1802 13.4439 21.4486 13.4655ZM23.6936 16.2985C23.8607 16.398 23.9957 16.2797 24.1452 16.2394C24.3975 16.1731 24.6096 16.026 24.8523 15.9539C25.0242 15.9035 25.1592 16.0707 25.3408 16.1558C25.1833 15.9741 25.2926 15.9006 25.4404 15.7997C25.6751 15.6411 25.9675 15.5632 26.1909 15.4291C26.477 15.2561 26.7984 15.2071 27.078 15.0615C27.2323 14.9822 27.3785 14.9591 27.5505 14.962C27.7674 14.9663 27.851 14.7443 28.0679 14.7011C28.2608 14.6621 28.4247 14.5064 28.6497 14.6189C28.6963 14.6434 28.7477 14.6218 28.7895 14.5857C29.0755 14.3334 29.4435 14.2685 29.8116 14.1618C30.0606 14.0898 30.276 14.0869 30.5122 14.0609C30.6777 14.0436 30.9349 13.9802 31.1148 13.8202C31.2531 13.6962 31.5134 13.6976 31.7287 13.663C31.928 13.6327 32.116 13.7149 32.3201 13.6587C32.4471 13.6226 32.566 13.6371 32.5467 13.4727C32.5403 13.4179 32.6013 13.4049 32.656 13.3948C33.114 13.3011 33.572 13.2074 34.03 13.1094C34.1168 13.0906 34.1827 13.095 34.2582 13.1483C34.4591 13.2853 34.7017 13.2507 34.8448 13.0791C34.9846 12.9119 35.1196 13.0387 35.2015 13.1166C35.3911 13.2939 35.5518 13.3401 35.7367 13.1238C35.7608 13.0978 35.8058 13.0618 35.8347 13.0647C36.2139 13.1094 36.0806 12.8816 36.0693 12.7187C36.0629 12.6351 36.0484 12.55 36.0565 12.4678C36.0677 12.3727 36.2252 12.2717 36.0323 12.1867C35.8893 12.1232 35.7897 11.9589 35.5792 12.142C35.3831 12.3121 35.1051 12.1665 34.864 12.1708C34.1023 12.1838 33.3567 12.2689 32.6046 12.3957C31.981 12.4995 31.388 12.7562 30.7259 12.71C30.5572 12.6985 30.3772 12.8585 30.1972 12.9234C29.6814 13.1108 29.1591 13.2766 28.6175 13.4064C28.3797 13.464 28.1435 13.6673 27.8735 13.7091C27.3496 13.7928 26.9575 14.1143 26.4802 14.2743C25.757 14.5151 25.1094 14.8885 24.4152 15.1768C24.1243 15.2979 23.8672 15.4825 23.549 15.5574C23.504 15.5675 23.4606 15.605 23.43 15.6396C23.3931 15.6814 23.6181 16.2538 23.6936 16.2985ZM58.9485 20.4276C58.9309 21.2076 59.1542 21.8506 59.5206 22.459C59.6556 22.6839 60.2551 22.8742 60.5041 22.7546C60.9268 22.5527 61.38 22.3437 61.5519 21.9198C61.7432 21.4484 62.0164 20.9711 61.8074 20.4363C61.7882 20.3887 61.7946 20.3238 61.8139 20.2748C62.026 19.7341 61.6837 19.0118 61.1036 18.7091C60.848 18.5764 60.57 18.5144 60.3033 18.4222C60.0076 18.3198 59.4997 18.5606 59.3583 18.8734C59.1189 19.3953 58.9212 19.9302 58.9485 20.4276ZM64.406 20.7924C64.4221 21.4138 64.7194 21.9544 65.0601 22.4677C65.3333 22.8786 65.833 22.9492 66.3312 22.7012C66.8053 22.4662 67.0303 22.1216 67.1138 21.6142C67.236 20.8601 67.0383 20.1695 66.8053 19.4746C66.659 19.0363 65.9921 18.6226 65.4923 18.6096C65.1083 18.6009 64.6647 18.7999 64.6696 19.1084C64.676 19.4674 64.3771 19.7558 64.4912 20.1465C64.5346 20.2964 64.4012 20.5675 64.406 20.7924ZM76.854 31.937C76.7672 32.5843 76.9729 33.1509 77.3217 33.6944C77.4599 33.9121 77.6816 33.9669 77.9468 33.866C78.686 33.5863 78.9865 33.0356 79.0798 32.368C79.1456 31.8937 79.2147 31.4165 79.2244 30.9407C79.2356 30.3986 79.136 29.871 78.6571 29.4702C78.5751 29.3995 78.4964 29.3245 78.4209 29.2467C78.1123 28.9281 77.8038 28.954 77.4727 29.264C77.1979 29.5221 77.1835 29.8364 77.116 30.1434C77.026 30.7432 76.9328 31.3386 76.854 31.937ZM80.0263 31.1253C79.9909 31.5044 79.8961 31.8879 79.9475 32.2801C79.9942 32.6362 80.1838 32.9361 80.3509 33.2403C80.4522 33.4248 80.9166 33.3873 81.0596 33.1941C81.1721 33.0442 81.3151 32.9303 81.4598 32.8078C81.8294 32.4935 81.8165 32.035 81.9836 31.6573C81.8551 31.2896 82.0415 30.9638 82.064 30.625C82.0929 30.1838 81.9917 29.7917 81.6156 29.4918C81.4067 29.3245 81.291 29.0463 80.9391 29.0405C80.6627 29.0347 80.3798 29.2121 80.3075 29.4543C80.1436 30.0022 80.0793 30.5673 80.0263 31.1253Z" fill="white"/>
</g>
</svg>
