<svg width="98" height="102" viewBox="0 0 98 102" fill="none" xmlns="http://www.w3.org/2000/svg">
<mask id="mask0_382_488" style="mask-type:luminance" maskUnits="userSpaceOnUse" x="0" y="1" width="99" height="100">
<path d="M0.613281 19.3816L67.6961 1.5662L98.0048 82.3111L30.922 100.126L0.613281 19.3816Z" fill="white"/>
</mask>
<g mask="url(#mask0_382_488)">
<path d="M91.1165 63.7955C91.0439 63.4421 90.7753 63.1424 90.7123 62.8102C90.6488 62.4764 90.5316 62.1687 90.3648 61.8843C89.8968 61.0853 89.6511 60.207 89.1734 59.414C89.0675 59.2371 88.9657 59.071 88.7295 59.022C88.637 59.0042 88.4492 58.9287 88.699 58.8403C88.7809 58.8118 88.7847 58.6939 88.7248 58.6166C88.3634 58.1519 88.0836 57.6485 87.8351 57.1284C87.7973 57.0503 87.7467 57.0163 87.6525 57.021C87.5786 57.0254 87.4484 57.1582 87.4308 56.9698C87.4211 56.8571 87.1754 56.7462 87.4004 56.6238C87.5205 56.5597 87.4564 56.4073 87.3824 56.3473C87.2122 56.2045 87.207 56.0263 87.1333 55.8528C86.6907 54.8014 86.2101 53.7635 85.6064 52.7719C85.4494 52.5137 85.2318 52.2768 85.2397 51.9596C85.2406 51.9254 85.2009 51.8564 85.1793 51.8536C84.8375 51.8157 84.9889 51.5518 84.9004 51.4076C84.6508 51.003 84.6404 50.5229 84.3084 50.1503C84.1085 49.9239 84.0565 49.6209 83.9477 49.3584C83.7674 48.9286 83.3703 48.5834 83.3379 48.1041C83.3344 48.0491 83.2889 47.9918 83.2269 48.0048C82.9206 48.0709 83.0103 47.9031 83.0193 47.7398C83.0385 47.3705 82.8187 47.0409 82.5638 46.8003C82.4043 46.6495 82.3224 46.5137 82.3364 46.3592C82.364 46.0487 82.1787 45.8065 82.0547 45.5447C82.0191 45.4728 81.955 45.3475 81.8612 45.5181C81.8069 45.6156 81.7311 45.5052 81.6905 45.4517C81.6575 45.4096 81.5315 45.316 81.7207 45.3267C81.7702 45.3305 81.7795 45.2823 81.7838 45.2388C81.7972 45.1099 81.4619 44.523 81.3309 44.4528C81.3133 44.4422 81.2696 44.4403 81.2691 44.4387C81.289 44.1217 80.824 43.9979 80.8783 43.6718C80.897 43.5618 80.8537 43.4784 80.7966 43.3766C80.5144 42.8807 80.2156 42.3908 80.0068 41.8619C79.8893 41.5627 79.7105 41.2782 79.6154 40.9748C79.5548 40.7859 79.2413 40.7777 79.3156 40.5004C79.369 40.2999 79.166 40.1065 79.0649 39.9148C78.7258 39.2628 78.4906 38.563 78.05 37.9651C77.833 37.6704 77.7466 37.3579 77.5986 37.055C77.5217 36.8958 77.4756 36.7455 77.2042 36.7718C77.449 36.6289 77.3394 36.497 77.2543 36.3434C77.0215 35.9242 76.7851 35.5092 76.5115 35.1092C76.4325 34.9947 76.4688 34.8173 76.4025 34.691C76.3182 34.5304 76.2166 34.31 75.9519 34.5142C75.9638 34.2671 76.0942 34.0478 75.9112 33.8253C75.8273 33.7206 75.7261 33.7983 75.6274 33.7821C75.6411 33.4668 75.553 33.1818 75.4172 32.8842C75.2398 32.4891 75.0883 32.0855 74.8596 31.7092C74.8495 31.6915 74.8518 31.652 74.8423 31.6494C74.454 31.5289 74.6591 31.2254 74.5809 31.0124C74.3319 30.3399 73.9937 29.6996 73.6909 29.0482C73.417 28.4602 73.1985 27.8508 72.8854 27.2817C72.5031 26.5921 72.3169 25.8403 71.8802 25.1567C71.6322 24.7702 71.4819 24.2782 71.2721 23.8427C71.1368 23.5601 71.1161 23.1895 70.7551 23.0092C70.7236 22.9939 70.6905 22.9332 70.6957 22.9013C70.7546 22.4825 70.4533 22.2373 70.1684 21.9809C70.1288 21.944 70.0688 21.8939 70.0696 21.8547C70.0692 21.4059 69.6967 21.0762 69.539 20.6742C69.3837 20.2835 69.1545 19.8328 68.7039 19.5645C68.5191 19.456 68.3968 19.2445 68.2407 19.0844C68.1611 19.0005 68.1023 18.8941 67.9413 18.9725C67.8453 19.0183 67.7627 18.9217 67.8047 18.8004C67.8557 18.653 67.8146 18.6029 67.6551 18.6623C67.5453 18.7033 67.5741 18.6109 67.5523 18.5574C67.4192 18.2302 67.1872 17.9276 66.8602 17.8332C66.5718 17.7505 66.4674 17.5682 66.2867 17.3977C66.0409 17.1631 65.7839 16.8807 65.3901 16.8734C65.3654 16.8715 65.3186 16.8382 65.3169 16.82C65.2895 16.5139 64.9892 16.4039 64.7932 16.3069C64.31 16.0659 63.9067 15.6817 63.3815 15.5163C63.1518 15.4435 62.9756 15.2531 62.7687 15.1268C62.024 14.669 61.2452 14.2896 60.4507 13.9416C60.2594 13.8569 60.0945 13.7329 59.8879 13.6624C59.4022 13.5017 58.9372 13.2729 58.4567 13.0939C58.2659 13.0243 58.0168 13.1057 57.862 12.9536C57.55 12.6435 57.1348 12.5928 56.7712 12.4149C56.5994 12.3318 56.4145 12.2826 56.2292 12.3234C56.1724 12.3368 56.1247 12.3376 56.0742 12.3036C55.1695 11.6985 54.1155 11.5363 53.1286 11.1783C52.8123 11.0624 52.448 10.983 52.0951 10.9886C51.8072 10.9939 51.5093 10.968 51.5052 11.3638C51.5048 11.4266 51.4157 11.4909 51.3378 11.4981C51.1821 11.2616 51.7455 11.0306 51.2758 10.8166C51.031 10.7037 50.7393 10.4932 50.4778 10.7744C50.467 10.4808 50.2248 10.5028 50.0329 10.4894C49.3838 10.4466 48.7486 10.2714 48.1073 10.1486C47.9187 10.1123 47.727 10.0175 47.5686 10.1985C47.4788 10.302 47.3419 10.1977 47.2731 10.1381C46.9453 9.85414 46.5555 9.96273 46.2102 9.91553C45.6534 9.83977 45.0885 9.95252 44.526 9.84779C44.3285 9.81047 44.173 9.77553 44.0051 9.86755C43.9315 9.90911 43.8371 9.90879 43.7714 9.81611C43.7344 9.76326 43.673 9.73214 43.6287 9.75576C43.2492 9.96496 42.7538 9.54086 42.3913 9.85907C42.3532 9.89461 42.2112 9.88657 42.1753 9.85036C41.9338 9.59092 41.8839 9.81425 41.8122 9.97051C41.5701 9.61806 41.4121 9.57193 41.1029 9.76248C40.9904 9.833 40.8963 9.84275 40.7512 9.82197C40.408 9.7759 40.0796 9.83771 39.8089 10.035C39.7393 10.0873 39.6855 10.1541 39.6163 10.02C39.5332 9.86255 39.3824 9.8721 39.27 9.9155C38.9267 10.0473 38.5003 9.96237 38.2044 10.207C38.13 10.2691 38.0714 10.2457 38.007 10.1882C37.922 10.1126 37.8323 10.1296 37.7669 10.1792C37.5375 10.3587 37.3138 10.2927 37.0856 10.128C36.9564 10.0353 36.8085 10.0203 36.6763 10.0385C36.5249 10.0601 36.4814 9.97166 36.4251 9.8765C36.383 9.88769 36.3425 9.89846 36.3019 9.90923C36.1527 10.147 36.2171 10.2773 36.5319 10.2615C36.5286 10.303 36.5298 10.3383 36.5246 10.338C36.177 10.3625 35.8982 10.4467 35.996 10.8765C35.8443 10.8608 35.8297 11.2103 35.5732 10.9701C35.4067 10.8144 35.1408 10.819 34.9855 10.9263C34.4742 11.2823 33.8222 11.4097 33.3306 11.791C32.8998 12.1239 32.3067 12.2391 31.9297 12.6103C31.6755 12.8607 31.3332 12.8856 31.0758 13.0725C30.8423 13.2412 30.5268 13.2962 30.3789 13.6015C30.3114 13.7414 30.0065 13.6648 29.8159 13.7374C29.5289 13.8458 29.2816 14.0369 29.0875 14.2189C28.9706 14.3278 28.9176 14.3148 28.7915 14.3534C28.5304 14.4346 28.2004 14.4833 28.0837 14.7938C28.0408 14.9034 27.9968 14.9964 27.7991 14.9405C27.5904 14.8824 27.526 15.0537 27.6311 15.3612C27.4884 14.9993 27.3513 15.1001 27.1516 15.2581C27.0225 15.3619 26.8984 15.5202 26.6735 15.4969C26.6377 15.4929 26.5778 15.5528 26.5662 15.5949C26.5086 15.8118 26.4544 15.9871 26.1332 15.8352C26.0137 15.7772 25.9363 15.9366 25.894 16.0343C25.7871 16.2931 25.7036 16.5643 25.2929 16.3887C25.2115 16.3545 25.163 16.4402 25.0996 16.4723C24.8437 16.5995 24.5613 16.7016 24.5092 17.0288C24.5072 17.0463 24.5444 17.0771 24.4756 17.0581C24.073 16.9499 24.004 17.0173 24.0987 17.4021C24.0813 17.4017 24.0568 17.4048 24.0486 17.3968C23.7768 17.0793 23.6144 17.0852 23.3351 17.4745C23.265 17.571 23.2336 17.6336 23.1026 17.5955C22.9966 17.5644 22.9432 17.6277 22.8952 17.6963C22.819 17.7996 22.7267 17.8461 22.5756 17.8456C22.2854 17.8447 22.1303 18.0943 21.8938 18.2045C21.6567 18.3132 21.3338 18.3532 21.2935 18.7028C21.2858 18.7827 21.1431 18.7546 21.0585 18.7347C20.8168 18.6803 20.6272 18.7374 20.4941 18.9218C20.3869 19.0706 20.1663 19.0038 20.0395 19.1137C19.752 19.3578 19.3529 19.4231 19.0437 19.6323C18.9355 19.7051 18.7723 19.7044 18.8194 19.9256C18.845 20.0442 18.6304 20.03 18.5291 20.0298C18.2323 20.0341 18.0062 20.1128 17.8735 20.3716C17.8254 20.4674 17.7499 20.5129 17.6072 20.439C17.3662 20.3133 17.0544 20.5062 17.0607 20.5824C17.0862 20.9839 16.78 20.8399 16.5866 20.8777C16.4204 20.91 16.2808 20.9725 16.2369 21.1434C16.2219 21.2084 16.2121 21.2601 16.1146 21.2335C15.7995 21.1478 15.5658 21.2793 15.321 21.4222C15.1482 21.524 14.908 21.5285 14.7347 21.6287C14.3581 21.8456 13.9626 22.0303 13.5533 22.183C13.33 22.2644 13.1234 22.3446 12.97 22.5209C12.9423 22.552 12.8617 22.5751 12.8238 22.5563C12.5333 22.4268 12.4946 22.6116 12.4618 22.8304C12.2499 22.5902 12.0772 22.7106 11.9165 22.8125C11.6531 22.9791 11.4747 23.267 11.1126 23.2937C11.1026 23.2947 11.0876 23.3003 11.0852 23.3077C10.9427 23.7369 10.433 23.6402 10.1458 23.8622C9.85451 24.0869 9.53975 24.2857 9.25661 24.5184C9.03521 24.7009 8.72886 24.7941 8.5553 24.9944C8.24048 25.3575 7.79989 25.5592 7.46294 25.9045C6.65215 26.7331 6.39562 27.8227 5.93807 28.82C5.72589 29.283 5.53572 29.7451 5.47367 30.2698C5.44578 30.5246 5.59619 30.7607 5.55697 30.9761C5.50904 31.2277 5.55892 31.4703 5.59245 31.7104C5.64984 32.1238 5.67459 32.5644 6.06382 32.893C6.12594 32.9443 6.06316 33.0101 6.05943 33.0687C6.03825 33.3505 6.19877 33.5907 6.3125 33.8434C6.40246 34.0466 6.59213 34.2046 6.51157 34.4834C6.46419 34.6451 6.62835 34.8997 6.7431 35.0911C6.82669 35.2315 6.88791 35.3627 6.88363 35.5112C6.88062 35.6814 6.943 35.8156 7.08101 35.9365C7.15672 36.0011 7.22895 36.0564 7.18301 36.1991C7.11224 36.4127 7.28524 36.6497 7.39345 36.8191C7.6004 37.142 7.52713 37.4951 7.69518 37.8012C7.95492 38.2692 7.90645 38.8072 8.22892 39.2688C8.3399 39.4274 8.31872 39.6634 8.53259 39.8082C8.62448 39.8702 8.39552 39.8954 8.48726 40.0438C8.59836 40.221 8.65753 40.4289 8.75766 40.6225C8.93664 40.9714 8.9043 41.3696 9.09785 41.7299C9.24694 42.0037 9.30921 42.3158 9.45674 42.59C9.6648 42.9752 9.75771 43.369 9.79505 43.7792C10.3826 45.3443 10.9706 46.911 11.5581 48.4762C11.8191 48.6915 11.8133 49.0098 11.9286 49.2756C12.0449 49.5446 12.1732 49.8087 12.2994 50.0716C12.5206 50.533 12.7615 50.9874 12.9858 51.4479C13.0208 51.5182 13.0554 51.5785 13.1146 51.6356C13.2721 51.7903 13.5268 51.9022 13.3604 52.1853C13.3029 52.2835 13.4708 52.388 13.5095 52.4912C13.742 53.0969 14.1729 53.628 14.3604 54.2507C14.39 54.3479 14.4749 54.4371 14.5395 54.5267C14.7457 54.8158 14.7732 55.1677 14.9853 55.4586C15.1992 55.7542 15.3793 56.074 15.6035 56.3651C15.8189 56.6467 15.8472 56.9916 16.0706 57.2761C16.1887 57.426 16.2652 57.5294 16.4634 57.4954C16.3993 57.7038 16.3819 57.8677 16.5109 58.0926C16.9524 58.8529 17.3898 59.616 17.7647 60.4092C18.0274 60.9628 18.3034 61.5197 18.6129 62.0609C18.8703 62.5092 19.0999 62.9836 19.3095 63.4599C19.4776 63.8438 19.6668 64.229 19.9062 64.5787C20.0526 64.7906 20.1101 65.026 20.2475 65.2369C20.3118 65.335 20.3506 65.4382 20.4604 65.5022C20.5225 65.5399 20.5517 65.5948 20.5635 65.6628C20.6239 66.0568 20.7654 66.4427 20.9962 66.7744C21.3774 67.3237 21.4878 67.9788 21.8686 68.5045C22.2138 68.9854 22.4141 69.5099 22.6922 70.0086C23.0481 70.6459 23.3363 71.3131 23.6931 71.9485C23.8699 72.264 23.9294 72.6328 24.2199 72.8995C24.2753 72.9509 24.2973 73.0281 24.3011 73.1067C24.3183 73.3579 24.4442 73.5701 24.6133 73.7692C24.7298 73.9059 24.8324 74.065 24.8456 74.2326C24.865 74.49 24.9958 74.706 25.1348 74.9164C25.6191 75.6399 25.9368 76.4314 26.3149 77.1966C26.3843 77.3358 26.4473 77.4715 26.561 77.587C26.6816 77.7074 26.7777 77.7988 26.7554 78.0182C26.7378 78.1906 26.9753 78.4121 27.1044 78.6099C27.1455 78.6735 27.2452 78.7335 27.2434 78.7881C27.2373 79.1421 27.5479 79.3984 27.6171 79.7426C27.6723 80.0176 27.7869 80.3412 28.051 80.5557C28.2453 80.7125 28.1375 80.9461 28.2833 81.1107C28.6618 81.5387 28.6231 82.1165 28.9552 82.5534C29.3453 83.0716 29.4084 83.6968 29.784 84.2358C30.0557 84.6261 30.2302 85.1184 30.3637 85.5929C30.4481 85.8907 30.5778 86.1815 30.8174 86.4177C30.8636 86.463 30.9151 86.5273 30.9186 86.5822C30.9561 86.9975 31.279 87.3183 31.4052 87.7049C31.6881 88.5683 32.2092 89.3396 32.6377 90.1474C32.9779 90.7889 33.3053 91.4372 33.6858 92.0578C33.8861 92.3858 34.1047 92.7122 34.3216 93.0341C34.5915 93.4334 34.9037 93.7943 35.2059 94.1698C35.5782 94.6316 35.9467 95.0742 36.448 95.4408C36.9821 95.8309 37.4931 96.2373 38.0882 96.5383C38.6602 96.8286 39.2868 96.9671 39.8599 97.2554C39.9699 97.3108 40.1278 97.3248 40.2094 97.1947C40.2909 97.0647 40.3807 97.0527 40.4867 97.1888C40.6098 97.3476 40.7507 97.339 40.9262 97.3178C41.6872 97.2292 42.4225 97.0542 43.1309 96.8254C43.4542 96.7226 43.7847 96.6755 44.1088 96.5929C44.2419 96.5592 44.3727 96.5329 44.4647 96.417C44.5653 96.292 44.6984 96.2398 44.8985 96.2747C45.1836 96.326 45.4395 96.1852 45.7168 96.1607C45.813 96.1521 45.9094 96.1485 46.0063 96.1414C46.8704 95.912 47.7345 95.6825 48.5971 95.4534C48.6264 95.2847 48.6656 95.1743 48.9131 95.2441C49.0609 95.2862 49.339 95.3597 49.2947 95.0225C49.2796 94.9045 49.3879 95.0011 49.4374 95.0049C49.9437 95.0331 50.3854 94.9395 50.6431 94.5018C50.6658 94.4619 50.6758 94.4473 50.7344 94.4572C51.1328 94.5225 51.4687 94.3571 51.7454 94.1667C52.0421 93.9608 52.4266 93.9112 52.6909 93.6649C52.7493 93.6104 52.8711 93.6102 52.9663 93.6036C53.1972 93.588 53.3011 93.513 53.1129 93.2445C53.4427 93.4788 53.6143 93.2231 53.8521 93.1667C54.268 93.0682 54.666 92.954 55.0031 92.7188C55.3386 92.484 55.6965 92.3178 56.1206 92.2458C56.2886 92.2181 56.4669 92.1403 56.4716 91.8832C56.474 91.7251 56.602 91.5725 56.8664 91.7056C56.9742 91.7599 57.1407 91.7191 57.271 91.6913C57.4815 91.6489 57.6261 91.4767 57.8638 91.461C58.0319 91.4519 57.9295 91.2843 57.929 91.132C58.2057 91.4261 58.4286 91.2568 58.6591 91.1854C58.6882 91.176 58.7347 91.1535 58.733 91.1353C58.6963 90.6995 59.0626 90.8665 59.2797 90.8461C59.4355 90.8318 59.5789 90.8209 59.6904 90.7201C59.907 90.5203 60.2347 90.5298 60.475 90.4067C60.9018 90.1866 61.4652 90.1658 61.7414 89.718C61.9785 89.838 62.1178 89.6333 62.3127 89.6087C62.6617 89.5651 62.9908 89.4777 63.2319 89.229C63.2973 89.1608 63.3798 89.2253 63.4441 89.2048C63.6864 89.1236 63.9631 89.1297 64.1552 88.9194C64.325 88.732 64.6543 88.8462 64.8645 88.7023C64.8793 88.6916 64.9056 88.693 64.9272 88.6958C65.1536 88.7187 65.1363 88.3845 65.3188 88.4275C65.55 88.4813 65.6292 88.345 65.7808 88.2692C66.1077 88.1028 66.4892 88.0269 66.8293 87.8772C67.2205 87.7039 67.7225 87.8213 68.0616 87.5229C68.1431 87.4521 68.2572 87.4133 68.2374 87.2644C68.2097 87.0719 68.3585 87.0662 68.4553 87.1642C68.7516 87.4599 68.9945 87.2023 69.2086 87.142C69.6649 87.0141 70.0779 86.7756 70.5306 86.6198C71.0362 86.4449 71.5195 86.22 72.0169 86.0235C72.2877 85.9177 72.5685 85.8296 72.8437 85.7311C72.9914 85.6766 73.1472 85.6437 73.0634 85.4068C73.012 85.2561 73.1583 85.2257 73.2744 85.2881C73.4958 85.4072 73.6668 85.3922 73.8749 85.2794C74.1763 85.118 74.5906 85.1435 74.8119 84.8374C75.2872 84.9382 75.5656 84.5695 75.9422 84.4441C76.3147 84.3214 76.7107 84.2247 77.0778 84.0696C77.3783 83.9424 77.628 83.6982 78.0052 83.7115C78.0751 83.715 78.1576 83.6423 78.2053 83.5822C78.3161 83.4477 78.4645 83.3541 78.635 83.3512C79.0105 83.3463 79.2394 83.0788 79.5612 82.9764C79.9873 82.8413 80.4353 82.7324 80.7603 82.4191C81.3362 82.5186 81.7033 82.0891 82.2101 81.9952C82.4619 81.9486 82.7784 81.9052 82.9657 81.6776C82.9999 81.6363 83.0777 81.6241 83.1397 81.6111C83.6637 81.499 84.1454 81.2881 84.6468 81.1295C85.212 80.9489 85.7301 80.6978 86.2614 80.4635C86.3466 80.4257 86.4387 80.4012 86.5201 80.3576C86.7574 80.2268 86.9456 80.0108 87.2812 80.064C87.3614 80.0765 87.4766 80.0087 87.5267 79.9412C87.7756 79.5989 88.2192 79.5286 88.5487 79.3005C88.7829 79.1383 88.9492 78.9281 89.1354 78.7296C89.2463 78.6137 89.1353 78.4687 89.1623 78.3396C89.3211 78.5752 89.4824 78.507 89.6034 78.3631C89.7208 78.2235 89.8424 78.0675 89.881 77.8963C89.9169 77.7224 90.0745 77.7721 90.1609 77.7051C90.6719 77.3119 91.0268 76.7857 91.4703 76.3358C91.7581 76.0426 91.9984 75.7094 92.2461 75.3912C92.5194 75.0408 92.7069 74.6081 92.8531 74.1797C93.2383 73.0491 93.2237 71.8265 93.3302 70.6344C93.4044 69.7947 93.0734 68.9814 92.7156 68.1972C92.6343 68.0172 92.5964 67.8477 92.5472 67.671C92.324 66.8934 91.9332 66.1586 91.7125 65.3787C91.6479 65.1519 91.6157 64.8742 91.4663 64.6953C91.2313 64.4121 91.1803 64.1072 91.1165 63.7955ZM44.8374 13.0719C44.9136 13.0144 45.0899 13.0591 45.2196 13.0754C46.4038 13.2234 47.5882 13.3172 48.766 13.6261C49.259 13.756 49.7715 13.9333 50.2931 13.888C50.3863 13.8802 50.5 13.8907 50.5849 13.9342C51.0983 14.1959 51.662 14.1851 52.1882 14.3486C52.9304 14.5801 53.6711 14.8171 54.4093 15.07C55.1895 15.3388 55.9356 15.6997 56.7091 15.9873C57.3326 16.2181 57.9527 16.4718 58.563 16.7587C59.2218 17.0699 59.8416 17.4644 60.5383 17.7028C60.8554 17.8118 61.1201 18.1057 61.4484 18.2675C62.3347 18.7047 63.1839 19.2076 63.9756 19.8088C64.3426 20.0874 64.7462 20.3174 65.1478 20.5783C65.045 20.6243 64.843 20.5204 64.7987 20.7083C64.7769 20.8056 64.7185 20.7415 64.6873 20.704C64.4293 20.3914 64.0507 20.4157 63.7848 20.4795C63.42 20.5679 63.0952 20.4018 62.7557 20.4021C62.7148 20.4028 62.6657 20.3634 62.6292 20.3714C61.9651 20.5122 61.2565 20.37 60.5892 20.4795C60.4227 20.5067 60.4496 20.752 60.2512 20.781C60.1714 20.6734 60.3661 20.6302 60.2535 20.5449C60.1797 20.4899 60.113 20.5636 60.0454 20.5663C59.7896 20.5749 59.526 20.5534 59.3803 20.8005C59.3719 20.8146 59.3288 20.8277 59.3276 20.8247C59.0487 20.438 58.7742 20.831 58.4859 20.7619C58.2181 20.6975 57.9923 20.9506 57.6858 20.888C57.5653 20.8641 57.5487 21.0481 57.4708 21.1331C57.3828 21.0769 57.3694 20.9178 57.2147 20.9809C56.8003 21.1519 56.2674 21.1122 55.9392 21.3942C55.7385 21.5677 55.5158 21.4999 55.3358 21.5917C54.8196 21.8524 54.2727 22.0587 53.7555 22.3214C53.3008 22.554 52.8354 22.7673 52.3824 23.0045C52.1958 23.1015 52.1643 23.2827 52.0465 23.4122C51.8217 23.1788 51.6572 23.4123 51.5776 23.4927C51.2817 23.7966 50.8178 23.8402 50.5127 24.1058C50.2545 24.332 50.1291 24.1213 50.0541 23.9396C49.947 23.6818 49.8634 23.4042 49.8383 23.1364C49.7831 22.5598 49.5896 22.003 49.466 21.4362C49.2801 20.5707 48.9248 19.7384 48.579 18.9087C48.2383 18.0878 47.7307 17.3434 47.1952 16.6114C47.0201 16.3733 46.9151 16.0844 46.7164 15.8475C46.2627 15.3107 45.9288 14.6998 45.5085 14.1422C45.3969 13.9957 45.3099 13.8189 45.0943 13.7745C45.005 13.7559 44.9823 13.6772 44.9795 13.5966C44.9747 13.5335 44.9467 13.4681 44.9557 13.4098C44.972 13.275 44.6702 13.1976 44.8374 13.0719ZM91.4324 71.2265C91.5181 71.5052 91.6152 71.7912 91.6755 72.0614C91.7838 72.5375 91.6074 72.9723 91.2825 73.3313C90.5882 74.1002 89.8598 74.8374 89.1748 75.6173C88.9643 75.8562 88.6536 76.0522 88.3985 76.2775C88.0708 76.5695 87.6845 76.811 87.3007 76.9993C87.038 77.1267 86.734 77.2718 86.4079 77.3398C85.9509 77.434 85.5548 77.6764 85.1318 77.8565C84.94 77.9396 84.7156 77.9586 84.7161 78.2617C84.6474 78.0512 84.5285 78.0269 84.3705 78.0858C83.9303 78.2518 83.497 78.4364 83.0411 78.5608C82.7936 78.6282 82.5686 78.6456 82.5892 78.9654C82.5929 79.0119 82.4832 79.0258 82.4673 78.9606C82.3735 78.5874 82.1991 78.7946 82.1169 78.9045C82.001 79.0573 81.9021 79.0818 81.6906 79.0482C81.3671 78.9952 81.096 79.1824 80.8209 79.2995C80.6467 79.3746 80.4826 79.4402 80.2846 79.4657C80.1096 79.4884 79.8758 79.4963 79.8734 79.7595C79.8743 79.8304 79.824 79.8929 79.75 79.8601C79.3166 79.6651 79.0645 79.9625 78.7574 80.1084C78.7207 80.1249 78.6877 80.1557 78.6487 80.1661C77.7366 80.4049 76.9381 80.8643 76.0761 81.2C75.6733 81.3561 75.2594 81.4965 74.847 81.6314C74.6716 81.6898 74.6848 81.9489 74.4541 81.9374C74.0714 81.9187 73.8144 82.0886 73.6803 82.4258C73.5569 82.3027 73.7019 82.2184 73.6306 82.1289C73.1445 82.1682 72.9937 82.2693 72.5967 82.8202C72.367 82.3544 72.0961 82.6974 71.8966 82.7555C71.2826 82.9338 70.6455 83.1148 70.1263 83.4407C69.8834 83.5933 69.4583 83.4843 69.3746 83.8555C69.1379 83.7185 69.0572 84.0381 68.8453 83.9808C68.8241 83.9746 68.7877 83.969 68.7822 83.9773C68.6325 84.2593 68.3012 84.1033 68.073 84.1944C67.9286 84.2531 67.7844 84.3168 67.686 84.4429C67.5859 84.5694 67.2695 84.4484 67.3539 84.8377C67.1242 84.4955 66.983 84.6584 66.7879 84.6916C66.3887 84.7569 66.0515 84.9278 65.6852 85.0488C65.4461 85.1292 65.3051 85.27 65.232 85.491C65.0928 85.262 64.8638 85.2686 64.6965 85.5129C64.6455 85.5874 64.6268 85.6839 64.5786 85.7611C64.5275 85.8441 64.4874 85.9293 64.3288 85.8359C64.1671 85.7433 63.9618 85.9503 63.7822 85.7642C63.7795 85.7615 63.7571 85.7658 63.7526 85.7721C63.5853 86.0943 63.1489 85.8867 62.8959 86.1402C62.6712 86.3642 62.2458 86.4009 61.9117 86.5252C61.791 86.5691 61.6237 86.5712 61.6628 86.776C61.6822 86.8826 61.5833 86.8293 61.5268 86.8341C61.1287 86.8704 60.6798 86.8168 60.5549 87.3158C60.5383 87.3812 60.4606 87.5171 60.3426 87.4129C60.0957 87.1938 59.8658 87.3125 59.7195 87.4344C59.5098 87.6069 59.261 87.6662 59.0193 87.7626C58.73 87.8784 58.3244 87.8489 58.2364 88.245C58.2255 88.2936 58.194 88.324 58.1489 88.2953C57.7327 88.0365 57.9934 88.4569 57.8851 88.5246C57.7226 88.4983 57.8325 88.3251 57.7272 88.2548C57.5076 88.2912 57.5287 88.5075 57.4238 88.6759C57.3536 88.5116 57.28 88.4024 57.0953 88.509C56.8943 88.6268 56.6812 88.7308 56.4377 88.7769C56.3001 88.8032 56.1574 88.8801 56.1127 88.9987C56.0566 89.1508 56.0367 89.2713 55.8062 89.2241C55.6562 89.1945 55.7328 89.3757 55.6922 89.4458C55.5408 89.4538 55.5569 89.1446 55.3914 89.275C55.2826 89.3598 54.9839 89.3137 55.1042 89.602C55.1321 89.6674 55.0504 89.7009 55.0034 89.6762C54.6057 89.4667 54.5439 89.8185 54.3711 89.9796C54.271 90.0739 54.2731 90.3309 54.0058 90.0986C53.922 90.026 53.8359 90.176 53.8508 90.2889C53.8615 90.386 53.8312 90.433 53.7332 90.4234C53.6758 90.4167 53.5675 90.4251 53.5875 90.3368C53.6345 90.1329 53.5036 90.2184 53.4224 90.2214C53.0497 90.234 52.8349 90.4248 52.7477 90.8004C52.591 90.6387 52.4944 90.5458 52.3582 90.7954C52.2878 90.9276 51.9751 90.9446 51.7742 91.0216C51.1361 91.2639 50.46 91.4367 50.0016 91.9566C49.9828 91.9751 49.9707 92.0342 49.948 92.0013C49.7012 91.6636 49.5589 91.9928 49.4301 92.0609C49.0466 92.2593 48.6144 92.3419 48.2103 92.4899C48.0548 92.5464 47.9829 92.6062 48.0351 92.7956C47.7892 92.5882 47.1584 92.6761 47.0186 92.8978C46.8942 93.0918 46.7713 93.2718 46.5129 92.9762C46.4353 92.8884 46.351 92.9701 46.2769 92.9965C46.0411 93.0812 45.8042 93.1492 45.552 93.1992C45.3065 93.2492 45.0811 93.3615 44.8121 93.3805C44.6215 93.3938 44.557 93.56 44.4676 93.7193C44.3544 93.9205 44.2803 93.4946 44.0247 93.5997C43.4211 93.8515 42.7666 94.027 42.1221 94.1745C41.5239 94.313 40.934 94.551 40.2616 94.4687C39.8763 94.4202 39.6014 94.1629 39.2641 94.0322C38.7295 93.8235 38.3913 93.3611 37.9465 93.0354C37.7688 92.9047 37.5991 92.7634 37.4254 92.6249C37.392 92.5999 37.3416 92.5709 37.3353 92.5404C37.2315 92.0445 36.7288 91.7562 36.5539 91.2995C36.1829 91.2388 36.2702 90.8497 36.0453 90.6621C35.9405 90.5747 35.7225 90.4327 35.7795 90.1685C35.8112 90.0246 35.6454 89.7518 35.4909 89.6421C35.1547 89.4044 35.1629 89.0516 35.011 88.7565C34.6702 88.0999 34.3624 87.4261 33.9488 86.8041C33.755 86.5117 33.6873 86.1943 33.5305 85.8954C33.1856 85.2416 32.9131 84.5567 32.6142 83.8839C32.5795 83.8051 32.5713 83.7192 32.5469 83.6359C32.4955 83.458 32.4383 83.3055 32.1862 83.3742C31.9965 83.4263 31.9258 83.3248 32.0127 83.1679C32.1514 82.9159 32.0599 82.6996 31.9435 82.4307C31.6928 81.845 31.3555 81.2892 31.1696 80.6796C31.0896 80.4162 30.8643 80.1999 30.7611 79.9342C30.695 79.7671 30.6267 79.5989 30.559 79.4323C30.3557 78.9272 30.1077 78.4357 29.8795 77.9373C29.8449 77.8635 29.758 77.8696 29.7285 77.8368C29.6116 77.7035 29.3688 77.6003 29.5262 77.3755C29.5582 77.3281 29.5439 77.281 29.5184 77.2268C29.2847 76.7366 29.1198 76.2197 28.8006 75.7623C28.758 75.6991 28.7153 75.6308 28.6908 75.5611C28.5101 75.0433 28.4458 75.018 28.0276 75.3662C28.0708 75.1295 28.1116 74.9594 28.2238 74.7923C28.3919 74.541 27.9356 73.988 27.5432 73.9753C27.6826 73.8349 27.6635 73.7062 27.628 73.5157C27.5441 73.0637 27.1298 72.7552 27.0611 72.3161C27.0591 72.3065 27.0575 72.2883 27.0516 72.2864C26.6693 72.1271 26.828 71.7546 26.6609 71.5059C26.4651 71.2174 26.3292 70.9011 26.199 70.5816C26.0713 70.2734 25.9284 69.9657 25.7581 69.6721C25.5823 69.3682 25.5295 68.9807 25.1305 68.8088C25.0644 68.7789 25.1367 68.7157 25.1316 68.6747C25.0808 68.3155 25.0842 67.9317 24.6584 67.7111C24.622 67.6919 24.5613 67.6352 24.5623 67.6333C24.8355 67.2829 24.1667 67.1369 24.2957 66.8181C24.303 66.8009 24.268 66.7441 24.2467 66.7379C23.8789 66.6306 23.966 66.3144 23.8656 66.0836C23.7568 65.8346 23.7315 65.5297 23.3783 65.4388C23.3211 65.4235 23.3129 65.3833 23.3218 65.3386C23.4016 64.9617 23.1728 64.7039 22.9227 64.4214C22.8075 64.2927 22.8244 64.0545 22.7569 63.8657C22.6635 63.6076 22.4928 63.3904 22.371 63.1483C22.2819 62.9703 22.2101 63.108 22.0897 63.162C22.1776 62.9438 22.2312 62.7483 22.0866 62.5597C22.0008 62.4453 21.9611 62.239 21.7307 62.3426C21.6842 62.365 21.5803 62.3486 21.5742 62.2638C21.5575 62.0412 21.2274 61.8426 21.416 61.6231C21.5199 61.5024 21.4828 61.4766 21.4062 61.3547C21.2314 61.0809 21.0977 60.7844 20.97 60.4897C20.8414 60.1884 20.7063 59.8922 20.5106 59.6223C20.2516 59.2659 20.2071 58.8322 19.9508 58.4784C19.5886 57.9749 19.5073 57.3562 19.099 56.8717C19.0453 56.8063 19.0451 56.7098 18.9133 56.738C18.8467 56.7523 18.7826 56.6914 18.8293 56.6147C18.9495 56.4184 18.8104 56.2537 18.7149 56.086C18.3081 55.3724 17.9331 54.6385 17.4672 53.9593C17.3169 53.7417 17.2498 53.4258 16.9431 53.2988C16.8776 53.2705 16.923 53.2042 16.9119 53.1564C16.8959 53.0725 16.8827 52.9185 16.8616 52.9173C16.3898 52.8529 16.7118 52.4268 16.4621 52.2323C16.2124 52.0377 16.2471 51.6778 16.0731 51.4106C15.8952 51.1377 15.7842 50.8284 15.6506 50.5318C15.4226 50.0249 15.1304 49.5434 14.861 49.0542C14.5376 48.4625 14.2151 47.8637 13.9474 47.2555C13.7508 46.8096 13.5456 46.3542 13.382 45.8912C13.2152 45.4239 13.0775 44.9336 12.8414 44.4965C12.5788 44.0072 12.393 43.5213 12.2955 42.9966C12.2614 42.8142 12.1764 42.6335 12.0417 42.4711C11.9595 42.3709 11.7585 42.265 11.9264 42.1002C11.9391 42.0883 11.9226 42.0351 11.905 42.011C11.445 41.4437 11.6231 40.6933 11.1644 40.1341C10.9376 39.8589 11.026 39.5322 10.8543 39.2577C10.6716 38.9674 10.6726 38.9654 10.4343 39.1896C10.364 39.0253 10.3879 38.897 10.4791 38.7424C10.6352 38.4773 10.4049 38.1929 10.3559 37.9162C10.3262 37.7411 10.241 37.5689 10.1731 37.3972C10.1232 37.2733 10.1267 37.0589 9.88869 37.2153C9.82659 37.2555 9.81715 37.18 9.80871 37.1484C9.77452 37.0254 9.69659 36.8817 9.72874 36.78C9.82738 36.4624 9.72259 36.165 9.55946 35.8949C9.27905 35.4358 9.2612 34.9221 9.03596 34.45C8.50106 33.3266 8.1947 32.1357 7.69082 30.999C7.52517 30.6262 7.3389 30.2488 7.28792 29.8388C7.26447 29.6621 7.31214 29.5241 7.35173 29.3645C7.47481 28.8744 7.89197 28.5874 8.2315 28.3313C8.52452 28.1111 8.74032 27.7675 9.15287 27.6647C9.44785 27.5915 9.63432 27.3251 9.86658 27.1533C10.2518 26.8681 10.7535 26.7331 11.0621 26.3581C11.1418 26.2641 11.2611 26.2392 11.3568 26.2019C11.8839 25.9976 12.2955 25.5952 12.8437 25.4564C13.2349 25.3559 13.5908 25.1936 13.9631 25.0659C14.3982 24.9182 14.7964 24.6904 15.2411 24.5453C15.7517 24.3792 16.2625 24.2046 16.7443 23.9665C17.1034 23.7898 17.4751 23.6284 17.8252 23.4372C18.1512 23.2591 18.4719 23.0808 18.8424 22.9756C19.1099 22.8978 19.3463 22.7232 19.5656 22.5718C19.8859 22.3512 20.2909 22.3013 20.6001 22.0785C20.9272 21.8443 21.308 21.6889 21.6768 21.5198C22.1077 21.3241 22.5085 21.0804 22.9201 20.861C23.1705 20.7284 23.3832 20.55 23.6337 20.4225C23.8162 20.3283 23.9652 20.1769 24.2028 20.1883C24.2338 20.1886 24.2702 20.1806 24.2927 20.1627C24.7782 19.7882 25.4027 19.624 25.8993 19.2838C26.19 19.0846 26.5215 18.9169 26.7617 18.6245C26.876 18.4857 27.2014 18.4569 27.3895 18.3002C27.5666 18.1549 27.8652 18.1552 27.9366 17.8703C27.9477 17.8267 28.1658 17.8823 28.2761 17.8106C28.6696 17.552 29.0542 17.2787 29.5338 17.1581C29.5541 17.1527 29.5831 17.1433 29.5879 17.1285C29.6951 16.7104 30.1163 16.7815 30.4224 16.6511C30.8298 16.4751 31.1941 16.2073 31.5432 15.9401C31.7595 15.7759 32.0497 15.7632 32.2563 15.5779C32.7931 15.0932 33.4595 14.762 34.0728 14.3806C34.7056 13.9872 35.3551 13.5742 36.1323 13.4102C36.1849 13.3996 36.2753 13.4027 36.2843 13.3765C36.4636 12.8123 37.0015 13.2674 37.3365 13.1225C37.718 12.9552 38.1557 12.9287 38.5821 12.8764C39.2164 12.7978 39.8725 12.9234 40.4998 12.8262C40.6606 12.8022 40.7705 12.8526 40.8846 12.9646C41.122 13.1997 41.3556 13.4426 41.6918 13.5431C41.7384 13.5578 41.7847 13.5896 41.7563 13.6327C41.6044 13.8543 41.8342 13.9592 41.9553 14.0762C42.3426 14.4544 42.5994 14.9148 42.9215 15.3341C43.3387 15.8789 43.5927 16.5145 44.0226 17.0474C44.3161 17.4133 44.4445 17.8468 44.7315 18.2093C45.3505 18.9902 45.7896 19.8629 46.2875 20.7048C46.4875 21.0413 46.6228 21.4018 46.7814 21.7374C47.0488 22.3034 47.2556 22.9092 47.4183 23.5165C47.6494 24.3834 47.8446 25.2599 48.2009 26.1038C48.2837 26.297 49.0529 26.7788 49.2662 26.817C49.6109 26.8763 49.9524 26.9635 50.2913 27.053C50.5857 27.129 51.0559 26.933 51.1144 26.6548C51.1468 26.5124 51.1917 26.6276 51.2259 26.632C51.4769 26.6653 51.6574 26.575 51.8697 26.4644C52.1842 26.3013 52.377 25.9468 52.8253 25.9667C53.0014 25.9742 53.1718 25.834 53.3411 25.7552C53.715 25.5814 54.0724 25.3729 54.4639 25.2368C55.1317 25.0052 55.8206 24.8206 56.5013 24.6144C56.64 24.5725 56.8139 24.5652 56.8842 24.428C56.9753 24.2547 57.0593 24.4696 57.1775 24.4416C57.9928 24.242 58.849 24.1925 59.6932 24.0971C59.8395 24.0802 59.9998 24.0732 60.1012 23.9548C60.1526 23.8954 60.2045 23.8918 60.2686 23.9392C60.4577 24.0821 60.6797 24.0519 60.8338 23.9873C61.2517 23.8119 61.7022 23.9565 62.1334 23.9217C62.7037 23.8735 63.3074 24.0334 63.8566 23.9655C64.3973 23.8981 64.8985 24.0953 65.4096 24.1409C66.2859 24.2181 67.1936 24.4701 68.0313 24.81C68.4811 24.9938 68.9943 25.2963 69.2021 25.8865C69.4158 26.4922 69.768 27.0695 70.0346 27.661C70.27 28.183 70.5699 28.6895 70.7136 29.2459C70.7692 29.4582 70.8825 29.6686 70.9885 29.8641C71.2482 30.3457 71.3866 30.8697 71.6699 31.3366C71.8636 31.6561 71.9203 32.0358 72.2221 32.3097C72.3126 32.3907 72.3557 32.5148 72.3314 32.6601C72.3069 32.8005 72.3062 32.9768 72.5048 33.0765C72.5443 33.0949 72.5703 33.1642 72.5836 33.2132C72.7386 33.7632 72.9833 34.2827 73.2489 34.7983C73.5775 35.4361 73.8056 36.1124 74.169 36.7376C74.2075 36.8036 74.2538 36.8676 74.3096 36.9205C74.6614 37.259 74.9165 37.6369 74.9654 38.11C74.9748 38.199 75.0642 38.2498 75.1329 38.3095C75.2746 38.4311 75.3864 38.5827 75.3585 38.7595C75.3271 38.9593 75.449 39.115 75.5566 39.2507C75.7463 39.4866 75.9289 39.699 75.9279 40.0161C75.9272 40.1924 76.1601 40.2966 76.2255 40.5028C76.4118 41.0903 76.7828 41.622 77.0584 42.1824C77.2306 42.5314 77.3632 42.9349 77.6617 43.2504C77.8044 43.4022 77.7191 43.6502 77.8898 43.8352C78.0713 44.031 78.1108 44.3051 78.3008 44.5189C78.4232 44.6575 78.4369 44.8724 78.5381 45.0505C78.9269 45.7299 79.2862 46.4222 79.6513 47.1113C79.6984 47.2004 79.7361 47.287 79.8319 47.3412C79.9224 47.395 80.0068 47.4506 79.9401 47.5699C79.8887 47.6615 79.9668 47.7644 80.0321 47.7877C80.3425 47.9018 80.2867 48.169 80.3738 48.378C80.5082 48.6997 80.6681 49.0113 80.9002 49.2868C80.9374 49.3312 80.9863 49.3656 80.982 49.4226C80.9616 49.6974 81.1572 49.903 81.2903 50.1251C81.6523 50.7286 81.903 51.3736 82.2163 51.9934C82.484 52.5237 82.6794 53.1037 83.1213 53.5589C83.1496 53.5887 83.1755 53.6394 83.1715 53.6743C83.1167 54.1361 83.5474 54.452 83.6872 54.8655C83.838 55.3083 84.1135 55.7772 84.444 56.1824C84.5333 56.2925 84.5863 56.4292 84.6443 56.5561C84.6744 56.6227 84.7116 56.6806 84.7791 56.6914C84.8978 56.7107 84.8345 56.5785 84.9032 56.5331C84.7996 57.2806 85.3268 57.8809 85.5713 58.5461C85.8004 59.1747 86.2252 59.726 86.5507 60.3189C86.6503 60.4974 86.7642 60.6958 87.0652 60.643C86.9152 60.8285 86.919 60.9986 87.0664 61.1763C87.2645 61.4117 87.4778 61.66 87.6174 61.9041C87.7575 62.1448 87.8147 62.4616 87.9703 62.7117C88.3833 63.3778 88.5972 64.1122 88.9527 64.7987C89.1833 65.244 89.3177 65.7436 89.4983 66.2157C89.7434 66.8503 89.8466 67.5412 90.3173 68.1006C90.4245 68.2263 90.3274 68.3147 90.3581 68.4286C90.5052 68.9621 90.8356 69.4402 90.9456 69.9937C90.9941 70.2417 91.0927 70.5865 91.359 70.8072C91.5093 70.9333 91.3898 71.0904 91.4324 71.2265ZM78.4689 58.7535C78.4262 58.6259 78.3479 58.4722 78.2327 58.4486C77.925 58.3829 77.8759 58.1469 77.8237 57.944C77.6898 57.4137 77.3947 56.9246 77.2751 56.3956C77.1593 55.886 76.5306 55.5684 76.6114 54.993C76.6156 54.9631 76.5628 54.9229 76.5368 54.8857C76.0709 54.1929 75.5509 53.5297 75.1247 52.8145C75.0539 52.6944 74.9066 52.6082 74.8475 52.5239C74.7096 52.3302 74.4722 52.1272 74.4268 51.9835C74.3356 51.6858 74.2211 51.4265 74.0213 51.1865C73.5963 50.6759 73.298 50.0776 72.7793 49.6326C72.7263 49.5873 72.6967 49.5223 72.7056 49.459C72.7234 49.3238 72.5994 49.2585 72.5484 49.1636C72.4662 49.0042 72.2273 49.0304 72.2056 48.8583C72.1818 48.6714 72.2067 48.4819 71.9006 48.553C71.8423 48.5668 71.8239 48.4904 71.8425 48.4346C71.935 48.1373 71.6313 47.9588 71.5452 47.7157C71.5201 47.6444 71.443 47.5852 71.3574 47.6131C71.1327 47.6863 71.1792 47.5266 71.1819 47.4242C71.1864 47.2079 71.1087 47.0235 70.9209 46.8887C70.8035 46.8047 70.7378 46.6934 70.6648 46.5858C70.3301 46.0919 70.0043 45.594 69.6703 45.1016C69.6176 45.0207 69.5493 44.8982 69.445 44.931C69.1913 45.0137 69.2626 44.8152 69.2426 44.7256C69.1728 44.407 69.0759 44.0939 68.8017 43.8754C68.6728 43.7741 68.5983 43.6854 68.5391 43.5368C68.4604 43.3409 68.4107 43.0712 68.0503 43.1347C67.9485 43.1516 67.8003 42.9623 67.8612 42.8275C67.9207 42.6982 67.8571 42.6338 67.8034 42.5227C67.6277 42.1644 67.2918 41.9047 67.1198 41.5607C66.9596 41.239 66.6387 41.0651 66.4703 40.7168C66.2044 40.164 65.6821 39.7182 65.3328 39.1808C65.2501 39.052 65.1439 38.7736 64.8538 38.8963C64.7918 38.923 64.7152 38.8332 64.7478 38.7737C64.8468 38.5899 64.707 38.4915 64.6002 38.3623C64.4616 38.1941 64.3138 38.0199 64.2347 37.8275C64.1311 37.5789 64.0021 37.4454 63.6825 37.5354C63.8048 37.2945 63.7216 37.1049 63.615 36.9214C63.4967 36.7157 63.3488 36.5822 63.0944 36.6904C63.0364 36.7142 63.0214 36.6285 63.0038 36.5772C62.985 36.5178 62.9672 36.4429 62.9202 36.4046C62.6899 36.2116 62.5613 35.9832 62.5494 35.7001C62.5467 35.6517 62.5139 35.5554 62.4804 35.571C62.2499 35.6882 62.3321 35.4868 62.3166 35.418C62.2687 35.2173 62.1015 35.0872 61.9802 34.9331C61.8451 34.7606 61.8401 35.0262 61.7374 34.9992C61.6495 34.9752 61.5833 34.9131 61.6011 34.8372C61.6968 34.4341 61.3617 34.2588 61.1112 34.0255C60.8455 33.7792 60.5855 33.7127 60.3003 33.9172C60.2559 33.575 60.0616 33.3589 59.7404 33.3121C59.4936 33.276 59.55 33.5405 59.4433 33.6722C59.299 33.2192 59.303 33.1978 59.0351 33.1284C58.8238 33.0727 58.6087 33.0298 58.4014 32.9528C58.3296 32.9261 58.2638 32.9334 58.2252 32.986C58.1295 33.1148 58.01 33.1346 57.8399 33.1019C57.7289 33.0805 57.6092 33.1225 57.5024 33.1763C57.3003 33.2774 56.9583 33.0701 56.8508 33.3917C56.8087 33.3571 56.7686 33.3186 56.7235 33.29C56.7009 33.2756 56.6664 33.2797 56.6411 33.2762C56.6015 33.3579 56.6638 33.46 56.5716 33.5251C56.4258 33.347 56.2608 33.3552 56.0679 33.4217C55.8154 33.5074 55.5533 33.577 55.288 33.6288C55.1682 33.6522 55.0627 33.6683 54.9961 33.7741C54.9439 33.8591 54.8679 33.9217 54.7578 33.834C54.6559 33.7543 54.5766 33.8127 54.4829 33.8189C54.2818 33.8317 54.1873 33.9499 54.0604 34.0734C53.9923 34.1389 53.7296 33.9326 53.5433 34.021C53.4715 34.0536 53.3642 34.033 53.3422 34.1388C53.337 34.1707 53.3618 34.2505 53.2891 34.2122C52.933 34.0222 52.6772 34.2866 52.3787 34.332C52.1694 34.3639 51.9023 34.4111 51.7695 34.6056C51.6377 34.7981 51.5379 34.8568 51.2845 34.7988C51.219 34.784 51.183 34.8206 51.1485 34.8569C51.03 34.9798 50.8589 35.0084 50.7019 35.0653C50.4842 35.1434 50.2589 35.1965 50.0412 35.2746C49.6355 35.423 49.4079 35.8358 48.9341 35.8668C48.9158 35.8683 48.903 35.8937 48.8855 35.9017C48.4963 36.0576 48.123 36.233 47.7618 36.4407C47.2689 36.7224 46.7268 36.9324 46.2051 37.1692C46.0041 37.2599 45.8511 37.3869 45.8111 37.6093C45.7953 37.6999 45.7412 37.8023 45.6509 37.7264C45.4195 37.5303 45.2322 37.6665 45.0943 37.7607C44.8103 37.9547 44.4612 38.0254 44.173 38.2036C43.8247 38.418 43.3532 38.5009 43.2597 38.9967C43.2305 39.1518 43.0819 39.0896 42.9649 39.0292C42.7587 38.9231 42.6289 38.9931 42.5468 39.1674C42.5022 39.2588 42.4695 39.359 42.4082 39.438C42.3238 39.5468 42.2242 39.6562 42.0903 39.4411C41.9597 39.2301 41.8146 39.3144 41.6857 39.4096C41.6304 39.4497 41.581 39.5695 41.5534 39.5599C41.226 39.4554 41.1654 39.6731 41.1087 39.883C41.0069 39.8541 41.0353 39.6602 40.8799 39.7489C40.2516 40.1039 39.3929 40.1422 39.0688 40.9194C38.9546 40.7888 38.8728 40.6394 38.7019 40.7187C38.4798 40.8217 38.3914 41.1756 38.0237 41.0004C37.8809 41.2552 37.573 41.2116 37.3412 41.3071C37.1886 41.3713 37.1154 41.528 36.8962 41.5472C36.6142 41.573 36.2206 41.525 36.1762 41.9553C36.1746 41.9692 36.0052 42.2582 35.8156 41.9951C35.7511 41.9055 35.661 41.9854 35.5795 41.9968C35.46 42.0167 35.4111 42.1331 35.2708 42.1296C34.9816 42.1268 34.8013 42.2679 34.8002 42.585C34.5831 42.3174 34.404 42.3107 34.21 42.5435C34.1768 42.5828 34.1556 42.6223 34.095 42.63C33.8411 42.6618 33.6325 42.746 33.5458 42.9994C33.5247 43.0575 33.4473 43.1255 33.3866 43.1281C33.2681 43.1324 33.319 43.0258 33.2968 42.9622C33.2362 42.7869 33.1168 42.8711 33.0374 42.9108C32.8581 43.0042 32.7054 43.187 32.5166 43.205C31.9283 43.2646 31.488 43.6086 30.9568 43.77C30.7319 43.8382 30.8708 44.1943 30.6531 44.1674C30.4592 44.1444 30.293 44.0716 30.1067 44.1787C29.9925 44.2446 29.8721 44.3122 29.7303 44.3549C29.2779 44.4886 28.844 44.6716 28.4115 44.8491C28.0721 44.9867 27.7581 45.1785 27.4075 45.2818C27.099 45.3739 26.9773 45.662 26.6041 45.7323C25.9983 45.8458 25.6285 46.4098 25.1088 46.7206C24.9967 46.7877 25.041 46.9606 24.8962 47.0363C24.6423 47.1732 24.4226 47.3603 24.2608 47.5964C24.0606 47.8901 23.846 48.1775 23.8929 48.5767C23.9016 48.6455 23.8152 48.6668 23.7827 48.7127C23.4863 49.1387 23.1756 49.5583 23.3727 50.1565C23.3986 50.2394 23.5009 50.2834 23.4813 50.3817C23.4153 50.7042 23.5627 51.0055 23.6911 51.3018C23.9762 51.9562 24.2675 52.609 24.5895 53.2519C24.6678 53.4056 24.6801 53.6853 24.9829 53.6692C25.2369 53.656 25.2477 53.7717 25.1579 53.9345C25.0724 54.0859 25.0721 54.2131 25.166 54.3948C25.4018 54.8539 25.593 55.3266 25.8372 55.7852C26.1508 56.3694 26.233 57.0455 26.7095 57.5746C26.7363 57.6048 26.7443 57.6535 26.7509 57.694C26.804 58.0137 26.9658 58.2892 27.1548 58.5643C27.3808 58.8922 27.6463 59.2248 27.7584 59.583C27.8492 59.8706 28.018 60.1053 28.1703 60.3376C28.3853 60.6634 28.4907 61.0996 28.2723 61.4591C28.4897 61.3895 28.6269 61.3344 28.7378 61.5523C29.0861 62.2425 29.4296 62.9339 29.8244 63.6015C30.1438 64.1418 30.3606 64.7331 30.7807 65.2263C30.8113 65.2622 30.8125 65.3246 30.8158 65.3745C30.8316 65.5719 30.9024 65.7699 31.0472 65.9043C31.3275 66.1619 31.4567 66.4698 31.5842 66.8001C31.8134 67.4016 32.2375 67.9192 32.5295 68.5006C32.849 69.1324 33.235 69.7448 33.5376 70.3911C33.7609 70.8672 34.1127 71.2972 34.3087 71.7737C34.5401 72.3306 34.8466 72.8455 35.1367 73.3715C35.3376 73.7332 35.6252 74.0651 35.8008 74.4234C36.0825 74.9957 36.4118 75.5486 36.6733 76.1263C36.8131 76.4347 37.1465 76.6511 37.1667 77.0066C37.174 77.1266 37.2375 77.2182 37.301 77.3233C37.4845 77.6202 37.6287 77.9359 37.789 78.244C37.9239 78.503 38.0085 78.7786 38.1399 79.0419C38.3125 79.3874 38.5506 79.7155 38.6362 80.0943C38.7062 80.4043 38.9302 80.6582 39.0357 80.9622C39.0883 81.116 39.1946 81.2758 39.2588 81.4468C39.3762 81.7595 39.5124 82.0723 39.6827 82.3659C39.7736 82.5213 40.0134 82.6118 39.8587 82.8392C39.8257 82.8886 39.8949 83.0227 39.9543 83.0256C40.2776 83.0414 40.1499 83.2633 40.1747 83.4024C40.1962 83.5238 40.2235 83.6283 40.3375 83.7082C40.402 83.752 40.4906 83.8098 40.4774 83.8845C40.4084 84.2535 40.8442 84.4139 40.9443 84.3788C41.2361 84.2742 41.3754 84.5083 41.5685 84.584C41.769 84.6612 41.9801 84.5747 42.1921 84.7556C42.2835 84.8346 42.6331 84.8976 42.7823 84.8428C43.1082 84.724 43.4663 84.7594 43.7938 84.7181C44.275 84.6564 44.7142 84.5059 45.1685 84.3954C45.5046 84.3129 45.8317 84.1837 46.1801 84.1522C47.2985 84.0517 48.2071 83.4563 49.2622 83.21C49.2918 83.2021 49.3163 83.1804 49.343 83.1648C49.6755 82.963 50.04 82.7916 50.3881 82.6314C50.8695 82.4104 51.2837 82.0836 51.7978 81.9132C52.0784 81.82 52.2981 81.5279 52.5771 81.508C53.1723 81.4668 53.5423 81.0907 53.9913 80.8428C54.1771 80.7392 54.4041 80.8229 54.5437 80.6876C54.8813 80.3625 55.3606 80.2318 55.7656 80.0175C56.2334 79.7696 56.6491 79.4102 57.2078 79.2991C57.361 79.2686 57.4632 79.1432 57.6176 79.0886C58.0526 78.9358 58.4343 78.687 58.8711 78.5253C59.2124 78.3974 59.5931 78.2827 59.7987 77.9486C59.8126 77.9263 59.8559 77.9046 59.8818 77.9096C60.2833 77.9876 60.5578 77.7453 60.8453 77.5928C61.4605 77.2667 62.1068 76.9918 62.7215 76.6642C63.1522 76.4363 63.617 76.2349 64.0896 76.0637C64.5637 75.892 64.9334 75.5516 65.428 75.3932C65.7928 75.2776 66.1122 75.0454 66.4309 74.8388C66.7228 74.6478 66.9152 74.324 67.3245 74.2949C67.3611 74.2919 67.3949 74.222 67.4101 74.1756C67.4462 74.0661 67.5293 74.0406 67.6369 74.0578C67.7288 74.074 67.8116 74.0707 67.8861 74.0272C68.6567 73.5667 69.4372 73.1189 70.194 72.6401C70.8005 72.2588 71.363 71.8197 71.9617 71.4269C72.2839 71.216 72.5922 70.9681 72.9105 70.7514C73.3775 70.4326 73.8189 70.0731 74.3316 69.8167C74.4936 69.7364 74.4984 69.5573 74.6566 69.4763C74.9428 69.3291 75.1967 69.1329 75.4689 68.9624C75.8274 68.7384 76.0856 68.4073 76.4445 68.1798C76.8835 67.9006 77.3116 67.5972 77.5365 67.1089C77.5566 67.0663 77.6 67.0175 77.6433 67.0094C78.0663 66.9207 78.1866 66.5788 78.3334 66.2569C78.3676 66.1834 78.398 66.0771 78.4612 66.0535C78.8542 65.917 78.861 65.5238 79.0063 65.2345C79.2597 64.7353 79.1882 64.1427 79.2525 63.592C79.3068 63.1151 79.4282 62.639 79.3128 62.1394C79.2147 61.7182 79.0322 61.3144 79.0289 60.8714C79.0277 60.5939 79.1375 60.2513 78.781 60.0191C78.7628 60.007 78.7573 59.9559 78.7658 59.9282C78.888 59.5044 78.5973 59.1412 78.4689 58.7535ZM45.2814 40.8823C45.9379 40.4742 46.637 40.1157 47.3639 39.8041C47.593 39.706 47.8672 39.6094 48.0678 39.4172C48.3659 39.1331 48.8404 39.1358 49.1812 38.9013C49.7823 38.4876 50.5044 38.2772 51.1675 37.9689C51.2155 37.946 51.2652 37.9277 51.3045 37.8953C51.8953 37.4267 52.6653 37.3255 53.3769 37.101C54.2935 36.8101 55.2395 36.5978 56.1555 36.3054C56.7913 36.1027 57.4287 35.8725 58.1056 35.7655C58.402 35.719 58.6684 35.7889 58.9542 35.9518C59.5687 36.3002 59.9066 36.8712 60.3368 37.3685C61.1868 38.3489 61.801 39.4733 62.5995 40.481C62.8026 40.7387 62.873 41.1046 63.302 41.2465C63.0076 41.3534 62.8089 41.4774 62.6812 41.6993C62.6035 41.8352 62.3723 41.7356 62.248 41.8432C61.7815 42.25 61.1479 42.4403 60.7011 42.8859C60.5627 43.0243 60.3569 43.1569 60.1075 43.2146C59.6005 43.3306 59.2254 43.6979 58.7415 43.8755C58.5923 43.9304 58.5273 44.1137 58.4857 44.2772C58.4681 44.3445 58.4606 44.4296 58.357 44.4232C58.2624 44.4178 58.2741 44.3486 58.2604 44.2845C58.219 44.1058 58.1173 44.2005 58.0457 44.2382C57.3079 44.6306 56.6089 45.0806 55.8544 45.4469C55.6294 45.5558 55.489 45.7439 55.1916 45.8059C54.8218 45.8855 54.5546 46.2614 54.186 46.3762C53.7588 46.5083 53.5804 46.9334 53.1482 47.0296C53.0868 47.0442 53.052 47.1297 53.0024 47.1801C52.9537 47.2286 52.9291 47.3368 52.8418 47.3007C52.5427 47.1802 52.3179 47.3721 52.1805 47.495C51.8778 47.7668 51.4342 47.8236 51.1687 48.1398C51.0679 48.2597 50.8519 48.2645 50.694 48.342C50.3968 48.487 50.1648 48.7282 49.8342 48.816C49.7291 48.8422 49.6948 48.9293 49.6536 49.0114C49.5391 49.2501 49.2202 49.2823 49.0779 49.0406C48.9503 48.8238 48.8111 48.8506 48.5635 48.9129C48.8035 48.3461 48.3261 48.0476 48.1183 47.6675C48.0374 47.5161 47.8865 47.402 47.8151 47.2347C47.7626 47.1131 47.6625 46.9652 47.5652 47.1994C47.539 47.2622 47.4929 47.3084 47.4173 47.2624C47.3423 47.2179 47.3582 47.1459 47.3905 47.095C47.598 46.7705 47.2605 46.5705 47.1308 46.3254C47.114 46.2943 47.0423 46.2541 47.02 46.2634C46.4525 46.4971 46.6862 45.959 46.6733 45.8608C46.6406 45.6136 46.4744 45.4952 46.3605 45.3153C46.1774 45.0285 45.7321 44.9571 45.7197 44.5402C45.7137 44.3369 45.5815 44.1263 45.2759 44.1668C45.1025 44.1892 45.1579 44.0626 45.1596 43.9758C45.1628 43.8106 45.2472 43.6425 44.9487 43.5558C44.8083 43.5151 44.8547 43.2504 44.723 43.1143C44.6239 43.0101 44.6051 42.8322 44.3858 42.97C44.278 43.0393 44.1652 42.9168 44.2119 42.7672C44.294 42.5014 44.1848 42.3797 43.9013 42.4194C43.6945 42.4489 43.6299 42.2678 43.6764 42.1996C43.9191 41.8455 43.5696 41.9061 43.4249 41.8496C43.8967 41.3059 44.6836 41.2545 45.2814 40.8823ZM30.1037 58.2588C29.7619 57.6042 29.402 56.9561 28.9771 56.3405C28.9439 56.2934 28.917 56.2582 28.8477 56.2563C28.5546 56.2477 28.4343 56.0323 28.4606 55.8238C28.5016 55.5079 28.3515 55.2497 28.1798 55.0208C27.8833 54.6286 27.7318 54.1792 27.4867 53.7683C27.406 53.6356 27.3408 53.5123 27.225 53.3957C27.0558 53.2238 27.0897 52.9759 27.0152 52.7636C26.8867 52.403 26.7432 52.0024 26.4919 51.7625C26.1977 51.4815 26.1885 51.201 26.094 50.8991C26.0463 50.7492 25.9254 50.6051 25.8244 50.4642C25.6739 50.2551 25.6468 49.9727 25.5521 49.7251C25.4216 49.3819 25.6893 49.3092 25.8895 49.1662C26.9445 48.4168 28.199 48.0074 29.3873 47.4851C29.8907 47.2634 30.4471 47.1325 30.9115 46.8483C31.2589 46.6357 31.6647 46.5517 32.0207 46.3758C32.6739 46.055 33.3874 45.8722 34.068 45.6153C34.5978 45.4136 35.1551 45.2622 35.669 45.041C36.2594 44.786 36.9135 44.6597 37.4608 44.3263C37.822 44.105 38.223 43.9579 38.6526 43.8912C38.8248 43.8658 38.8525 43.7111 39.0031 43.6643C39.4656 43.5211 39.9251 43.3788 40.3251 43.0964C40.4921 42.9792 40.75 42.9124 40.9925 42.8683C41.3153 42.8097 41.5155 42.9547 41.6321 43.2151C41.9063 43.8267 42.3978 44.3044 42.7747 44.8514C42.9962 45.172 43.3188 45.4692 43.4944 45.7817C43.8019 46.3269 44.2291 46.7979 44.5039 47.3653C44.7214 47.8123 44.9874 48.2923 45.4059 48.6351C45.5463 48.7486 45.6268 48.9356 45.6596 49.0184C45.8653 49.5617 46.3789 49.9386 46.5626 50.4828C46.5842 50.5448 46.5965 50.5958 46.5467 50.614C46.2572 50.7248 46.1515 51.0646 45.845 51.1392C45.3028 51.2713 44.922 51.6689 44.4329 51.8463C44.0406 51.9894 43.7833 52.2864 43.3928 52.4206C43.0055 52.554 42.6721 52.8492 42.3057 52.9973C41.5072 53.3195 40.8634 53.8801 40.0261 54.1262C39.9762 54.1394 39.9326 54.1696 39.8885 54.1983C39.6606 54.3452 39.5638 54.6996 39.1654 54.575C38.8566 54.8993 38.3727 54.9583 38.0057 55.2099C37.7766 55.3673 37.4802 55.4274 37.4075 55.8279C37.3416 55.593 37.2623 55.5598 37.1388 55.6468C36.7957 55.8887 36.2866 55.9172 36.105 56.3703C36.0693 56.4577 35.9695 56.2742 35.8602 56.3303C35.7085 56.4061 35.5831 56.5106 35.4586 56.6131C35.1637 56.8557 34.7665 56.9307 34.447 57.1579C34.1745 57.3505 33.7481 57.4621 33.3855 57.5974C33.0073 57.7368 32.6381 57.8958 32.275 58.0617C32.1768 58.1064 32.0869 58.0405 31.9829 58.0833C31.8561 58.1339 31.7192 58.1483 31.647 58.2759C31.6088 58.3386 31.561 58.3987 31.4676 58.3693C31.0486 58.24 31.2073 58.5028 31.2515 58.6892C31.1617 58.6877 31.0798 58.684 31.0326 58.5813C30.973 58.4498 30.8786 58.4816 30.7878 58.5278C30.4791 58.6877 30.2701 58.5789 30.1037 58.2588ZM36.135 68.9983C36.0042 68.7688 35.766 68.5729 35.7722 68.2832C35.7742 68.22 35.7143 68.1563 35.6481 68.14C35.4263 68.0837 35.3576 68.0105 35.4584 67.7855C35.5052 67.6816 35.3743 67.4792 35.1901 67.418C35.0913 67.3832 34.9814 67.3599 34.984 67.2389C34.9979 66.6593 34.6022 66.2172 34.3328 65.728C34.0164 65.1547 33.7304 64.5666 33.4228 63.9893C33.2898 63.74 33.1298 63.5013 32.9875 63.2545C32.7031 62.7574 32.4166 62.2592 32.1451 61.7553C32.074 61.6251 32.008 61.5088 31.8706 61.4352C31.7466 61.3699 31.6895 61.2682 31.7004 61.1416C31.7128 61.0011 31.8035 60.9228 31.9494 60.9095C32.4416 60.8634 32.8955 60.6972 33.3711 60.598C33.6191 60.5457 33.8852 60.519 34.0342 60.2897C34.0551 60.2588 34.1012 60.2398 34.1402 60.2294C34.9768 60.0225 35.7407 59.6586 36.4645 59.2564C36.9242 59.0005 37.3809 58.764 37.8887 58.6088C38.0399 58.5636 38.0986 58.4277 38.2393 58.3683C39.3289 57.9078 40.3859 57.3832 41.4459 56.8713C42.0543 56.5776 42.6956 56.3209 43.2752 55.9687C43.6175 55.7609 44.0417 55.6618 44.3692 55.4376C44.6983 55.213 45.0682 55.0606 45.4081 54.8602C45.7382 54.6658 46.0815 54.4882 46.4366 54.3329C46.7024 54.2183 46.938 54.1151 46.8238 53.7558C46.8126 53.7215 46.8348 53.68 46.8408 53.6412C46.8596 53.6684 46.8764 53.6995 46.9003 53.7219C47.0892 53.9055 47.2753 53.9306 47.4768 53.7772C47.6061 53.6785 47.7676 53.6152 47.9002 53.5207C48.3258 53.2197 48.6068 53.3467 48.7774 53.879C48.8504 54.1053 49.0551 54.2898 49.1818 54.5085C49.5314 55.1153 49.8833 55.7283 50.2709 56.3132C50.6884 56.9409 51.0393 57.6016 51.4386 58.2358C51.7262 58.6914 51.9851 59.1935 52.2258 59.6886C52.3902 60.0261 52.4536 60.4464 52.8428 60.6835C52.8809 60.7073 52.925 60.7837 52.9163 60.8199C52.8343 61.1178 53.1357 61.2901 53.2296 61.5312C53.3027 61.7167 53.2424 61.9902 53.0297 62.0315C52.7076 62.0916 52.4508 62.2394 52.2833 62.5058C52.248 62.5627 52.2119 62.6129 52.1426 62.611C51.7319 62.5998 51.5269 62.954 51.1717 63.045C51.0594 63.0748 51.1412 63.2378 51.0983 63.3474C50.9558 63.1599 50.7924 63.2135 50.696 63.3221C50.4252 63.6244 49.9889 63.6183 49.6606 63.8037C49.4244 63.9376 49.1376 64.0189 49.0196 64.2941C48.988 64.3652 48.9209 64.383 48.8398 64.391C48.358 64.4461 47.9709 64.6624 47.6514 64.9811C47.5686 65.0623 47.4774 64.9747 47.3857 65.0228C46.9677 65.2389 46.5357 65.4315 46.1194 65.6522C45.6695 65.8886 45.145 66.0177 44.7264 66.2915C44.2563 66.5976 43.6711 66.67 43.2089 66.9876C43.0028 67.1287 42.9709 67.1761 43.2853 67.3146C42.9886 67.3696 42.8883 67.564 42.7278 67.7167C42.7854 67.5778 42.7517 67.4512 42.6461 67.3573C42.5042 67.2306 42.4788 67.4508 42.3902 67.4388C42.0643 67.3932 41.8019 67.5713 41.5943 67.6993C41.2019 67.9424 40.6943 67.9383 40.3379 68.2227C40.2512 68.2931 40.1548 68.3289 40.0139 68.3053C39.8292 68.2748 39.6284 68.3704 39.6137 68.5234C39.5891 68.7823 39.3686 68.7477 39.2277 68.8292C39.1685 68.8636 39.0733 68.8567 39.067 68.7804C39.0556 68.636 39.0239 68.5377 38.8665 68.6304C38.792 68.6739 38.4861 68.5993 38.7112 68.8563C38.7178 68.8647 38.7086 68.8858 38.7075 68.9013C38.4004 68.8372 38.2376 69.1802 37.9356 69.0978C37.7555 69.0474 37.6861 69.1183 37.6046 69.2349C37.491 69.3938 37.371 69.5357 37.1016 69.4396C36.9534 69.3874 36.9052 69.5239 36.9016 69.6469C36.8995 69.7694 36.9086 69.894 36.9134 70.0486C36.8217 69.9459 36.7624 69.8702 36.7589 69.7695C36.7579 69.7392 36.7536 69.6912 36.7349 69.6827C36.302 69.4571 36.3965 69.4574 36.135 68.9983ZM60.5873 74.4561C60.2751 74.3967 60.0898 74.6069 59.847 74.6866C59.7189 74.7291 59.8464 74.8494 59.8583 74.936C59.8643 74.9886 59.8592 75.0526 59.8025 75.066C59.7385 75.083 59.7031 75.0297 59.6947 74.971C59.6579 74.7266 59.4972 74.8286 59.4119 74.8801C59.1585 75.0321 58.9518 75.2445 58.6236 75.2842C58.5092 75.2994 58.505 75.4343 58.5499 75.5494C58.6058 75.6938 58.5022 75.7468 58.3968 75.7629C58.2642 75.7845 58.2833 75.6846 58.2671 75.5957C58.2374 75.4207 58.084 75.5055 58.0496 75.5417C57.9203 75.6726 57.78 75.7556 57.5784 75.7397C57.5605 75.7377 57.538 75.7555 57.5244 75.7693C57.3645 75.9422 57.1498 76.028 56.9384 76.1367C56.5822 76.321 56.1655 76.3809 55.8382 76.6101C55.4872 76.8541 55.0793 77.0149 54.7154 77.2471C54.5096 77.3797 54.2483 77.4423 54.0492 77.6019C53.9818 77.6554 53.8737 77.6553 53.9339 77.8019C53.9902 77.9428 53.8026 77.9045 53.776 77.893C53.3142 77.6819 53.2421 78.0839 53.0495 78.279C52.9852 78.3453 52.9629 78.4596 52.8587 78.5431C52.727 78.2105 52.5667 78.2768 52.3423 78.4194C51.9549 78.6714 51.5183 78.8517 51.0921 79.0462C50.7507 79.2012 50.456 79.4353 50.1211 79.5988C49.9504 79.6831 49.7943 79.7974 49.6089 79.8518C49.4 79.9123 49.2554 80.0388 49.0873 80.1529C48.9437 80.2503 48.7156 80.3007 48.516 80.3538C48.2592 80.4237 47.9448 80.4224 47.8787 80.7534C47.8691 80.7966 47.8364 80.8375 47.7898 80.8228C47.2754 80.668 46.8906 80.9819 46.4397 81.0509C46.3364 81.0681 46.2378 81.1163 46.172 81.2015C46.0585 81.3469 45.9585 81.5191 45.7333 81.2757C45.7126 81.2524 45.6239 81.2675 45.5794 81.2861C45.0714 81.4955 44.4617 81.4982 44.0312 81.8683C43.9884 81.9051 43.9539 81.9549 43.8439 81.8995C43.633 81.7945 43.4284 81.8573 43.255 81.9847C43.0913 82.1061 42.9308 82.2589 42.6863 82.0646C42.6647 82.0483 42.6244 82.0505 42.594 82.0518C42.2685 82.0756 42.1521 81.9439 42.048 81.5887C41.8548 80.9234 41.6867 80.2514 41.3898 79.6069C41.2944 79.3985 41.2063 79.1864 41.1797 78.9648C41.1578 78.7876 41.0933 78.6523 40.8996 78.6071C40.8436 78.5949 40.8238 78.629 40.8325 78.5335C40.864 78.1101 40.7435 77.7067 40.4658 77.3417C40.4158 77.2771 40.3958 77.2146 40.3858 77.1377C40.3683 77.0135 40.3598 76.8447 40.2783 76.7783C39.9308 76.5012 40.006 76.0984 39.8249 75.7806C39.5015 75.216 39.2584 74.6232 38.963 74.0511C38.8043 73.7426 38.5409 73.8176 38.2387 73.803C38.7842 73.5243 38.4704 73.1774 38.3007 72.8396C38.1824 72.6067 38.087 72.3661 37.9262 72.1479C37.8287 72.0163 37.8432 71.904 37.9871 71.8031C38.1389 71.7001 38.2373 71.5876 38.4765 71.5715C38.9377 71.5388 39.3517 71.2984 39.8361 71.3002C40.0975 71.3019 40.0705 70.9788 40.3087 70.9324C40.4093 70.9125 40.5391 70.8425 40.6116 70.8757C41.0238 71.0644 41.3661 70.8431 41.671 70.7367C42.2604 70.5293 42.8875 70.395 43.4429 70.1153C43.9246 69.8722 44.452 69.7237 44.9495 69.5136C45.0535 69.4708 45.1432 69.3944 45.2273 69.3213C45.3373 69.226 45.4772 69.2058 45.6089 69.159C45.8851 69.0585 46.2214 69.0268 46.4039 68.7682C46.4239 68.7392 46.4329 68.7267 46.467 68.7261C47.1195 68.7188 47.5513 68.2789 48.1017 68.0819C48.62 67.8951 49.0035 67.5002 49.5493 67.3824C49.7248 67.3425 49.757 67.168 49.9219 67.1275C50.4386 67.0005 50.8969 66.75 51.3542 66.5151C51.9733 66.1948 52.5959 65.8702 53.1355 65.4389C53.3106 65.2976 53.5243 65.2408 53.7196 65.1669C54.0252 65.0536 54.1526 64.7487 54.4617 64.6446C54.578 64.6069 54.6605 64.6121 54.7157 64.6906C54.9338 65.002 55.0899 65.34 55.2465 65.6796C55.4064 66.0234 55.5005 66.4202 55.9463 66.6118C55.9347 66.7132 55.6408 66.8353 55.9682 66.9397C55.9727 67.5366 56.4575 67.9736 56.6748 68.5021C56.8858 69.0186 57.2314 69.496 57.4789 70.0046C57.7333 70.5317 58.203 70.9558 58.3546 71.5288C58.3733 71.5967 58.4179 71.6882 58.4756 71.7186C58.8237 71.9056 58.9184 72.2447 59.1033 72.5361C59.2653 72.7896 59.4802 73.0239 59.7082 73.2293C59.8198 73.3301 59.8987 73.4396 59.9808 73.5533C60.1224 73.7478 60.2804 73.8854 60.505 73.7343C60.5931 73.8091 60.332 73.8903 60.5661 73.9518C60.69 73.985 60.6997 74.1433 60.763 74.2434C60.91 74.4704 60.7151 74.4814 60.5873 74.4561ZM55.6711 59.8968C55.3099 59.4371 55.1775 58.9064 54.9249 58.4162C54.9052 58.3774 54.9081 58.3258 54.8798 58.296C54.3917 57.7633 54.252 57.0804 53.8879 56.4944C53.6628 56.1323 53.4258 55.7752 53.1945 55.4148C53.1529 55.3496 53.1258 55.2958 53.0181 55.3058C52.937 55.3137 52.8674 55.2746 52.9563 55.1595C53.0724 55.0118 52.8644 54.613 52.6606 54.5774C52.6079 54.5694 52.562 54.5934 52.548 54.5243C52.3825 53.7178 51.7332 53.1211 51.3816 52.3946C51.3551 52.3423 51.288 52.3009 51.2348 52.2642C50.9788 52.0848 50.9698 51.7958 51.2438 51.6756C51.4635 51.58 51.7054 51.5209 51.7909 51.2779C51.8396 51.138 51.9103 51.3174 51.9928 51.2582C52.4074 50.96 52.9252 50.8039 53.3029 50.4529C53.3705 50.3909 53.4381 50.3746 53.5287 50.3692C53.6131 50.3654 53.7304 50.358 53.768 50.3073C53.9843 50.011 54.3774 49.9659 54.6454 49.766C55.1273 49.4093 55.6405 49.1223 56.2109 48.9098C56.2922 48.8797 56.3376 48.7813 56.4025 48.7166C56.4516 48.6646 56.4493 48.5398 56.5955 48.6687C56.6902 48.752 56.7172 48.6229 56.7417 48.5418C56.7835 48.402 56.8345 48.3139 57.0489 48.3366C57.2512 48.3591 57.4587 48.2904 57.6047 48.1127C57.8039 47.8667 58.1431 47.797 58.404 47.6328C58.6336 47.4905 58.9836 47.4772 59.0834 47.1627C59.1126 47.0668 59.2188 47.103 59.3071 47.105C59.5969 47.1093 59.87 46.8589 59.9127 46.5799C59.9231 46.5162 59.9237 46.4262 60.0512 46.4872C60.4398 46.6771 60.7251 46.4319 60.9362 46.2539C61.1156 46.1012 61.3043 45.9461 61.4954 45.8106C61.8616 45.5524 62.0813 45.1417 62.5432 44.9784C62.7609 44.9003 62.9313 44.7144 63.1091 44.5621C63.3211 44.3822 63.6046 44.3103 63.8163 44.1202C63.9842 43.9689 64.2208 43.8908 64.3896 43.719C64.6952 43.4091 64.9534 43.4845 65.1833 43.8961C65.3176 44.1349 65.4869 44.3576 65.7165 44.5304C65.8992 44.6699 66.0103 44.8471 66.0701 45.0565C66.0798 45.0963 66.0833 45.1513 66.1113 45.1709C66.7792 45.6525 66.9354 46.4479 67.447 47.0202C67.7363 47.3431 67.8809 47.7604 68.2455 48.0279C68.2627 48.0419 68.2858 48.0578 68.2906 48.0751C68.4849 48.6978 68.9882 49.1384 69.3713 49.6516C69.7681 50.1832 70.1157 50.7482 70.4941 51.2948C70.6233 51.4791 70.8094 51.6092 70.4915 51.7953C70.3244 51.8939 70.2674 52.1716 70.0403 52.2658C69.9949 52.2863 69.9427 52.2934 69.8865 52.3083C69.8806 52.215 70.0736 52.1807 69.9563 52.0831C69.8666 52.0086 69.8109 52.1251 69.7468 52.1692C69.2599 52.5035 68.7156 52.7853 68.2999 53.1904C67.8741 53.6051 67.2955 53.7774 66.8278 54.1218C66.5204 54.3491 66.0972 54.4784 65.7655 54.719C65.6872 54.7754 65.6214 54.8284 65.5834 54.9147C65.5337 55.0245 65.5196 55.2519 65.3447 54.9595C65.3213 54.92 65.2641 54.9369 65.227 54.9569C65.1981 54.9713 65.1726 54.99 65.1458 55.0055C64.7036 55.267 64.2769 55.5514 63.8211 55.7995C63.5153 55.9671 63.1785 56.1209 62.8832 56.3213C62.5489 56.5456 62.1485 56.6808 61.8108 56.9009C61.3254 57.2161 60.7611 57.4219 60.3839 57.8931C60.2326 58.084 59.8833 58.1175 59.6389 58.2434C59.0977 58.5243 58.5563 58.8003 58.0511 59.136C57.7931 59.3079 57.4646 59.3832 57.2148 59.5767C56.9573 59.7772 56.6655 59.9275 56.3621 60.0606C56.2189 60.1224 56.1889 60.2252 56.2662 60.3673C56.3329 60.4902 56.3821 60.6075 56.1812 60.6982C56.2701 60.2816 55.8637 60.1404 55.6711 59.8968ZM76.4466 60.8372C76.3144 61.0062 76.4992 61.1739 76.5624 61.3333C76.78 61.8854 77.0178 62.4321 77.2452 62.9833C77.3357 63.2015 77.2387 63.4 77.1988 63.5953C77.075 64.1703 76.9023 64.7108 76.3121 65.0166C76.0008 65.1789 75.7748 65.4727 75.4776 65.6634C75.084 65.9171 74.6709 66.1419 74.3162 66.4445C73.6518 67.014 72.833 67.3873 72.1515 67.9342C72.0784 67.9909 72.0178 68.0442 71.9904 68.1447C71.9384 68.3398 71.9262 68.3074 71.7126 68.2456C71.542 68.1977 71.4441 68.3846 71.3652 68.4852C71.2612 68.6195 71.2112 68.7057 70.9845 68.7185C70.6624 68.7379 70.4402 69.0188 70.1621 69.1689C69.9525 69.2822 69.7107 69.3922 69.7006 69.6896C69.7 69.7474 69.6243 69.7607 69.5731 69.7201C69.5067 69.6666 69.422 69.6603 69.4007 69.7133C69.2939 69.9772 68.9983 69.9574 68.7899 70.0602C68.616 70.1453 68.4926 70.2323 68.5384 70.4777C68.3489 70.3111 68.24 70.3773 68.0823 70.4599C67.7648 70.6238 67.49 70.856 67.1359 70.9636C67.099 70.9751 67.0566 71.0084 67.0458 71.0435C66.915 71.4492 66.4585 71.4027 66.1722 71.5906C65.8603 71.7971 65.4465 71.8782 65.2472 72.2292C65.2235 72.2711 65.1769 72.3343 65.126 72.3038C64.8607 72.1455 64.7343 72.357 64.5534 72.4372C64.296 72.5513 64.0786 72.7259 63.7986 72.8071C63.6225 72.8589 63.5105 73.0039 63.4471 73.1732C63.4202 73.243 63.4668 73.3763 63.3418 73.3587C63.1841 73.3362 63.3892 73.1834 63.2366 73.124C62.9756 73.3018 62.8443 73.13 62.7204 72.8867C62.6489 72.7465 62.5317 72.6217 62.4337 72.4885C62.5175 72.4104 62.6875 72.6346 62.7254 72.4432C62.762 72.2573 62.5831 72.2744 62.4839 72.2431C62.1369 72.132 61.8587 71.9941 62.0128 71.5822C62.0243 71.5486 61.9827 71.4699 61.944 71.4446C61.5771 71.1981 61.4694 70.788 61.2058 70.4785C61.1286 70.3872 61.0649 70.1856 60.8388 70.2914C60.7515 70.3332 60.5427 69.9414 60.6162 69.8355C60.7247 69.6813 60.6007 69.5567 60.5473 69.4235C60.4796 69.2568 60.3657 69.3921 60.2485 69.3724C60.3293 69.1765 60.2501 69.0111 60.1422 68.8331C59.9522 68.5143 59.7202 68.2117 59.5936 67.8607C59.5697 67.7926 59.5213 67.6817 59.4135 67.6917C59.3204 67.6995 59.447 67.8082 59.3377 67.8643C59.3071 67.6184 59.1388 67.4123 59.1988 67.1609C59.2254 67.0488 59.1848 66.8767 59.0922 66.8403C58.8287 66.7324 58.8761 66.5571 58.8755 66.3726C58.8737 66.1393 58.675 65.9482 58.5525 65.791C58.2345 65.3824 58.1413 64.9057 57.9222 64.4727C57.7334 64.0976 57.4817 63.7426 57.3415 63.3462C57.3195 63.2876 57.2606 63.222 57.3198 63.1741C57.5597 62.9816 57.7724 62.6981 58.0592 62.6304C58.4719 62.5327 58.7715 62.3074 59.0852 62.092C59.2815 61.9568 59.4312 61.812 59.7028 61.745C59.9489 61.683 60.2583 61.5568 60.4373 61.3483C60.6042 61.1532 60.8614 61.1256 61.0418 60.9845C61.53 60.5991 62.0723 60.289 62.6108 59.9732C63.0406 59.7201 63.5223 59.5363 63.9227 59.2504C64.4102 58.9041 64.9504 58.6387 65.4458 58.3089C65.8608 58.0344 66.3271 57.8191 66.7078 57.5079C66.8879 57.3618 67.0701 57.2897 67.2788 57.2241C67.3697 57.1966 67.4455 57.1426 67.4558 57.0331C67.4625 56.9687 67.4928 56.903 67.5645 56.8975C68.0303 56.8636 68.2761 56.5679 68.5461 56.2591C68.7106 56.0714 68.993 55.9371 69.2562 55.8842C69.6725 55.8007 69.9833 55.6233 70.1674 55.2729C70.2565 55.1035 70.433 55.1261 70.5741 55.1089C70.7503 55.0893 70.8771 55.0386 70.9614 54.8977C71.0269 54.7888 71.1251 54.717 71.2613 54.696C71.313 54.6874 71.3954 54.674 71.4043 54.6428C71.5399 54.1816 72.1351 54.442 72.3744 54.1243C72.4502 54.0246 72.5596 54.17 72.6232 54.2615C72.8858 54.6458 73.1358 55.047 73.4289 55.4028C74.2371 56.3859 74.8736 57.4603 75.4593 58.5499C75.6596 58.9236 75.9016 59.3353 75.9671 59.7702C76.007 60.0273 76.2775 60.2316 76.2149 60.5125C76.2127 60.525 76.3015 60.5742 76.3525 60.5912C76.5013 60.6448 76.556 60.6947 76.4466 60.8372ZM23.0145 43.0925C23.3179 43.0373 23.4703 43.0731 23.6077 43.3568C23.785 43.7196 24.0622 43.9645 24.5035 44.0252C24.6659 44.0465 24.8611 44.0454 25.007 44.1693C25.2351 44.3611 25.3639 44.2609 25.4974 44.0865C25.6736 43.8568 25.538 43.5641 25.6094 43.3063C25.6526 43.1474 25.7612 42.934 25.6963 42.8021C25.5295 42.4585 25.7728 42.2702 25.9358 42.1608C26.3143 41.9078 26.7908 41.7881 27.15 41.4928C27.2101 41.4429 27.3091 41.4827 27.3038 41.5417C27.2834 41.7843 27.5729 41.9022 27.5559 42.1219C27.6677 42.1363 27.6501 41.9936 27.752 42.0275C27.7795 42.4708 28.2667 43.0377 28.647 43.2738C29.0031 43.496 29.4314 43.4992 29.7579 43.7885C29.9485 43.9581 30.1593 43.848 30.2245 43.6104C30.3483 43.1726 30.2312 42.7006 30.3313 42.259C30.4007 41.9458 30.4049 41.6143 30.4473 41.2931C30.5015 40.8755 30.1348 40.6662 29.8882 40.4251C29.7687 40.3078 29.8537 39.9769 29.4932 40.0811C29.7344 39.9103 29.9959 39.8256 30.1778 39.6384C30.3587 39.4531 30.5272 39.2576 30.763 39.1272C30.9921 39.002 31.2452 38.8857 31.1682 38.5436C31.1551 38.481 31.2192 38.4555 31.2767 38.4622C31.761 38.5234 31.8596 38.1736 31.9483 37.857C32.1579 37.1084 32.0153 36.2807 32.2687 35.5391C32.2754 35.5204 32.2667 35.4973 32.2691 35.4763C32.3515 34.9784 32.0694 34.5146 31.9807 34.0317C31.9395 33.7986 31.8115 33.709 31.5867 33.8365C31.542 33.6535 31.7388 33.442 31.4387 33.415C31.2771 33.4003 31.2129 33.3479 31.1169 33.2294C31.0549 33.151 30.9526 33.0612 30.8217 33.0232C30.2503 32.8581 29.7159 32.5816 29.0989 32.5371C28.7885 32.5145 28.4427 32.4844 28.1134 32.416C27.7201 32.3324 27.3052 32.4426 26.8805 32.3622C26.5646 32.3021 26.2366 32.3604 25.9142 32.3698C25.6783 32.3766 25.3947 32.5213 25.314 32.1142C25.2981 32.0354 25.2262 32.0358 25.1537 32.0483C24.8536 32.0941 24.8527 31.9182 24.942 31.7539C25.0022 31.6447 24.9921 31.5491 24.9449 31.46C24.7941 31.1816 24.6314 30.908 24.462 30.6396C24.4281 30.5859 24.3587 30.4604 24.2897 30.5278C24.1528 30.6658 24.1578 30.4917 24.1653 30.466C24.3059 30.0136 23.8998 29.7132 23.6985 29.3872C23.4305 28.9518 23.4206 28.7884 23.8802 28.6511C24.2968 28.5269 24.705 28.3897 25.1141 28.2506C25.2054 28.2196 25.2385 28.0837 25.3756 28.2709C25.537 28.4906 25.8367 28.4026 25.9295 28.156C26.0137 27.9371 25.9634 27.6981 26.0186 27.4751C26.1079 27.1142 25.898 26.738 26.0497 26.347C26.1609 26.0583 25.9498 25.6146 25.6117 25.6095C25.2773 25.6052 24.9368 25.5025 24.6075 25.5848C24.3069 25.6613 24.0263 25.7409 23.6841 25.7386C23.1672 25.737 22.6683 25.9389 22.1669 26.0653C21.9666 26.1168 21.8343 26.0841 21.7458 25.8756C21.5871 25.5078 21.414 25.1472 21.2553 24.7793C21.2125 24.6789 21.171 24.5866 21.0478 24.6193C20.8103 24.6858 20.7831 24.5219 20.7675 24.3753C20.7476 24.1806 20.6428 24.1712 20.498 24.2148C20.2019 24.3035 20.0832 24.5722 19.9857 24.8014C19.8941 25.0189 19.8049 25.2153 19.641 25.391C19.3036 25.7534 19.3322 26.4098 19.6893 26.7673C19.8073 26.8851 19.7874 26.9327 19.6734 27.0036C19.2226 27.2877 18.7316 27.5061 18.2552 27.7495C18.1243 27.8165 18.0596 27.7219 17.9762 27.6458C17.8997 27.5746 17.9631 27.451 17.8447 27.3961C17.7447 27.4176 17.8062 27.6181 17.6348 27.5636C17.446 27.5037 17.4499 27.3451 17.352 27.1847C17.4887 27.2382 17.5852 27.3583 17.6635 27.2562C17.7397 27.1529 17.6483 27.0603 17.5581 26.9843C17.5408 26.9703 17.5245 26.9543 17.5082 26.9383C17.3314 26.7599 17.0506 26.6973 16.9855 26.3775C16.957 26.2376 16.6856 26.0539 16.4938 26.3014C16.4681 26.3336 16.3699 26.3918 16.3758 26.2751C16.3842 26.0459 16.1614 25.978 16.0424 25.935C15.8601 25.8699 15.8686 26.0981 15.8214 26.2055C15.729 26.4164 15.8147 26.6308 15.9697 26.8793C15.7884 26.7665 15.6129 26.6827 15.541 26.8796C15.4595 27.1012 15.2488 27.2893 15.3657 27.5733C15.3904 27.6345 15.3682 27.6896 15.3167 27.7032C14.9141 27.8051 15.3594 28.0866 15.2464 28.2792C15.1974 28.3634 15.4553 28.4152 15.5948 28.4442C15.6487 28.4553 15.7751 28.376 15.74 28.5293C15.7023 28.6986 15.8668 28.7667 15.9291 28.8823C16.0408 29.0932 16.3555 29.2552 16.1814 29.5454C15.7562 30.2496 15.3646 30.9702 15.0352 31.7285C14.7177 32.4549 14.3402 33.1582 14.2642 33.9746C14.2401 34.2487 14.2194 34.5591 14.3991 34.8231C14.5682 35.0679 14.7205 35.3137 14.8385 35.5823C14.9085 35.7415 15.0099 35.8789 15.2173 35.7781C15.2632 35.7541 15.3468 35.7302 15.3231 35.8178C15.2713 36.0043 15.4475 35.9846 15.5193 36.0113C16.0591 36.2203 16.6082 36.3761 17.1736 36.5071C17.7586 36.6397 18.2826 36.4684 18.8437 36.5464C19.102 36.5811 19.387 36.4309 19.6451 36.5199C19.9458 36.6264 19.968 36.9644 20.105 37.2058C20.4802 37.8719 20.8548 38.5364 21.2342 39.1997C21.3928 39.4761 21.5643 39.7456 21.7441 40.0418C21.5214 40.0653 21.3583 40.129 21.2805 40.3055C21.2026 40.482 21.1751 40.7604 20.8683 40.4505C20.8488 40.4303 20.7831 40.4427 20.7429 40.4499C20.5053 40.4978 20.2608 40.5136 20.2048 40.8215C20.1584 41.0863 19.762 41.2458 20.0103 41.6101C20.0114 41.6132 19.9643 41.6613 19.9458 41.6577C19.7216 41.6089 19.7149 41.7783 19.6601 41.9064C19.5301 42.2137 19.4169 42.5334 19.2543 42.8223C19.1242 43.0516 19.2394 43.1345 19.4438 43.1717C19.675 43.212 19.8916 43.3001 20.1162 43.3591C20.5271 43.4668 20.9384 43.571 21.3587 43.4797C21.9133 43.3578 22.4512 43.1913 23.0145 43.0925ZM27.457 35.8903C27.4048 35.7924 27.4985 35.7404 27.5984 35.746C28.2166 35.7801 28.8325 35.73 29.4541 35.8597C29.5392 35.8761 29.6304 35.9044 29.7038 35.9492C30.0244 36.1453 30.0537 36.3239 29.7706 36.5109C29.3781 36.7676 28.9486 36.9714 28.5704 37.248C28.3426 37.4135 28.1449 37.3848 28.0471 37.0465C27.9906 36.8548 27.8636 36.7361 27.6648 36.9651C27.4805 36.5837 27.6345 36.226 27.457 35.8903ZM24.1949 36.3805C24.3443 36.783 24.509 37.2035 24.7763 37.5729C24.9334 37.8819 25.1278 38.1758 25.2758 38.4923C25.4678 38.8987 25.0822 38.8723 24.9059 38.992C24.7065 39.128 24.5982 38.9721 24.5068 38.8015C24.1918 38.2228 23.8695 37.6477 23.5608 37.0673C23.4682 36.8937 23.315 36.7599 23.2464 36.5681C23.1803 36.3874 23.0772 36.5148 23.0026 36.5718C22.9514 36.6092 22.9025 36.6662 22.8339 36.6115C22.7545 36.5462 22.839 36.5018 22.8614 36.4518C22.9202 36.3295 23.0596 36.2348 22.9806 36.061C22.9727 36.0445 23.0048 36.002 23.027 35.9927C23.25 35.9149 23.4975 35.8797 23.728 35.9133C23.959 35.9485 24.092 36.1063 24.1949 36.3805ZM19.9407 30.3021C20.1421 30.2995 20.1671 30.0234 20.3947 30.0951C20.4162 30.0928 20.4382 30.0921 20.4579 30.0851C20.6116 30.0376 20.7114 29.8145 20.8741 29.8916C21.0298 29.9637 20.9222 30.1888 21.0201 30.3492C21.2098 30.658 21.3203 30.9979 21.5288 31.3068C21.692 31.5497 21.714 31.8641 21.8961 32.1206C22.0731 32.3684 22.0592 32.3771 22.3933 32.5086C22.4173 32.5175 22.4434 32.5597 22.4431 32.5818C22.4396 32.6319 22.4186 32.7222 22.4081 32.7216C22.0629 32.6794 21.7747 32.8254 21.4666 32.9004C21.283 32.9458 21.1782 32.8449 21.0759 32.6959C20.6125 32.0143 20.2906 31.2663 19.8479 30.5758C19.7575 30.4355 19.7634 30.3051 19.9407 30.3021ZM18.0907 33.238C18.1961 33.359 18.0928 33.4356 17.9803 33.4604C17.5918 33.5449 17.1872 33.4999 16.7932 33.4097C16.5213 33.3481 16.4732 33.0966 16.672 32.9134C16.7321 32.8585 16.7924 32.8136 16.7953 32.7163C16.8048 32.3987 17.175 32.3614 17.3004 32.1197C17.3481 32.0274 17.5382 32.1226 17.6048 32.2269C17.7163 32.4006 17.8852 32.5488 17.9157 32.7627C18.0084 32.9091 17.959 33.0883 18.0907 33.238Z" fill="white"/>
</g>
</svg>
