<svg width="156" height="143" viewBox="0 0 156 143" fill="none" xmlns="http://www.w3.org/2000/svg">
<path d="M155.781 84.1744C155.819 84.1279 155.945 83.972 156.134 83.7449C155.891 83.7614 155.743 83.7723 155.565 83.786C155.74 83.4276 155.891 83.1185 156.041 82.8121C155.989 82.8148 155.94 82.8148 155.888 82.8175C155.866 82.4728 155.822 82.1309 155.828 81.7862C155.836 81.4853 155.964 81.1433 155.477 81.146C155.477 80.8779 155.477 80.6235 155.477 80.5059C155.133 80.4183 154.859 80.3472 154.75 80.3199C154.81 79.9204 155.001 79.48 154.876 79.3542C154.427 78.9028 154.473 78.4569 154.755 77.9289C154.252 77.907 153.729 77.7264 153.951 77.2969C154.126 76.9522 153.943 76.7279 154.033 76.5255C153.781 76.4926 153.562 76.4653 153.316 76.4352C153.729 75.6555 153.779 75.6008 153.199 75.0837C152.755 74.6871 152.392 74.3342 152.225 73.7241C152.156 73.4806 151.891 72.9362 151.327 73.1551C151.163 73.218 150.977 73.2235 150.799 73.2536C150.799 73.0375 150.799 72.8186 150.799 72.504C150.999 72.69 151.111 72.7967 151.226 72.9034C151.243 72.6818 151.095 72.4958 151.125 72.3426C151.215 71.8666 150.923 71.779 150.583 71.6313C150.408 71.5574 150.304 71.2921 150.198 71.0978C150.05 70.827 149.973 70.5097 149.79 70.2717C149.56 69.9707 149.254 69.73 148.947 69.4345C148.392 69.5686 147.96 69.3607 147.552 68.6193C147.987 68.8327 148.324 68.9941 148.657 69.1582C148.698 69.1035 148.739 69.0461 148.781 68.9914C148.496 68.5619 147.943 68.4688 147.497 68.2691C147.634 68.0667 147.749 67.8998 147.812 67.8068C147.58 67.5661 147.388 67.3636 147.15 67.1119C147.114 67.1229 146.953 67.1721 146.778 67.2241C146.876 67.0217 146.95 66.8712 147.024 66.7235C146.964 66.7454 146.901 66.7673 146.841 66.7891C146.617 66.5238 146.39 66.2611 146.171 66.004C146.015 66.0861 145.84 66.2228 145.645 66.2584C145.541 66.2803 145.402 66.1326 145.279 66.0587C145.369 65.9958 145.451 65.911 145.55 65.8727C145.87 65.7496 145.892 65.5034 145.656 65.3529C144.901 64.8769 144.729 63.996 144.157 63.3367C144.034 63.3941 143.886 63.4625 143.676 63.5638C143.785 62.5242 143.167 62.0838 142.387 61.9169C142.354 61.6023 142.401 61.3205 142.291 61.1317C142.064 60.746 141.761 60.4013 141.473 60.0539C141.205 59.7229 140.926 59.3973 140.631 59.0909C140.582 59.0389 140.434 59.0827 140.33 59.0827C140.562 58.5164 140.516 58.4644 139.887 58.5274C139.69 58.5492 139.485 58.5301 139.274 58.5301C139.449 57.4468 138.875 56.7136 138.161 56.7792C137.832 56.4646 137.602 56.2157 137.334 56.0215C137.307 56.0023 137.047 56.3087 136.823 56.5358C136.752 56.4975 136.579 56.4045 136.41 56.3142C136.421 56.2731 136.434 56.2348 136.445 56.1938C136.557 56.1883 136.67 56.1829 136.809 56.1747C136.793 56.0652 136.795 55.964 136.76 55.8792C136.429 55.0776 135.474 55.4032 134.965 54.8998C134.823 54.7576 134.558 54.7412 134.251 54.6372C134.104 54.7713 133.874 54.9792 133.562 55.2637C133.562 55.053 133.611 54.8916 133.554 54.7904C133.439 54.588 133.269 54.4183 133.121 54.2351C132.862 54.536 132.618 54.3062 132.375 54.2104C132.186 54.1338 132.011 53.9971 131.816 53.9697C131.048 53.8521 130.274 53.7673 129.508 53.6715C129.286 53.8356 129.01 54.0354 128.692 54.2679C128.55 53.9232 128.443 53.666 128.309 53.346C128.085 53.4909 127.885 53.6168 127.773 53.6907C127.204 53.1627 126.61 53.6141 126.066 53.5402C126.08 53.3897 126.096 53.2393 126.11 53.0888C125.866 53.0888 125.642 53.0888 125.363 53.0888C125.47 53.2311 125.546 53.3323 125.623 53.4335C125.59 53.4609 125.557 53.4882 125.524 53.5183C125.39 53.3897 125.254 53.2639 125.106 53.1216C125.092 53.2475 125.081 53.346 125.073 53.4362C124.633 53.2174 124.219 53.0149 123.899 52.8563C123.547 53.0997 123.229 53.3213 122.871 53.5703C122.756 53.2557 122.696 53.0833 122.644 52.9383C122.135 53.1052 121.667 53.2612 121.216 53.4089C121.087 53.2694 120.978 53.1517 120.849 53.0122C120.715 53.1736 120.622 53.2858 120.51 53.4226C120.4 53.2475 120.316 53.1107 120.182 52.8918C119.736 53.1654 119.325 53.4171 118.923 53.6633C118.972 53.4745 119.022 53.283 119.074 53.0751C118.661 53.1326 118.343 53.1763 118.023 53.2229C118.053 53.2694 118.081 53.3186 118.111 53.3678C117.782 53.5675 117.451 53.7673 117.107 53.9779C117.085 53.7837 117.071 53.6551 117.06 53.5484C115.307 53.521 113.627 53.7043 112.092 54.5524C112.051 54.3691 112.018 54.2104 111.991 54.0955C111.789 54.1202 111.619 54.1229 111.46 54.1639C110.981 54.2898 110.464 54.3554 110.04 54.588C109.655 54.7986 109.365 54.8314 109.023 54.5825C108.998 54.5661 108.949 54.588 108.886 54.5934C108.787 54.6837 108.675 54.7849 108.539 54.908C108.492 54.7795 108.456 54.681 108.418 54.5798C108.281 54.7138 108.145 54.8479 108.068 54.9244C107.228 54.3828 107.017 55.3102 106.522 55.5892C106.468 55.4005 106.427 55.25 106.375 55.0722C105.797 55.343 105.283 55.674 104.719 55.8135C104.246 55.9312 103.904 56.1008 103.669 56.5221C103.612 56.6315 103.497 56.7546 103.384 56.782C102.881 56.9133 102.353 56.9653 101.866 57.1376C101.478 57.2771 101.138 57.7149 100.772 57.7231C99.9758 57.7395 99.4095 58.1909 98.7776 58.5219C98.0335 58.9104 97.3085 59.3344 96.5808 59.7529C95.7601 60.2262 94.9367 60.705 94.1242 61.1947C92.9423 61.9087 91.7633 62.6254 90.5979 63.3641C90.1738 63.6322 89.7826 63.9522 89.3969 64.2723C89.0084 64.5924 88.5133 64.8769 88.3108 65.2954C88.081 65.7742 87.9798 65.5252 87.7801 65.3556C83.6793 68.7041 80.1229 72.597 76.6841 76.6185C76.7197 76.126 76.8264 75.6911 76.9249 75.2534C77.2696 73.7405 77.2668 72.1702 77.8085 70.6848C78.1888 69.6343 78.3201 68.4935 78.7113 67.4484C79.1709 66.2119 79.004 64.8468 79.5922 63.6513C79.1162 62.9729 79.7946 62.516 79.9177 61.9524C79.9423 61.843 79.9779 61.6488 79.9396 61.6296C79.5703 61.4354 79.863 61.2494 79.9396 61.0798C80.0162 60.9047 80.2186 60.7515 80.2241 60.5819C80.2569 59.5505 80.9655 58.5903 80.5442 57.5097C80.5168 57.4385 80.629 57.3127 80.6755 57.2088C80.7521 57.0364 80.8807 56.8668 80.8971 56.689C80.9655 55.9886 80.9983 55.2856 81.0448 54.5852C81.0038 54.5524 80.9628 54.5223 80.9245 54.4895C80.7056 54.6974 80.4867 54.9053 80.2788 55.1077C80.2077 54.6591 80.3089 54.2952 80.7822 54.101C80.8479 54.0764 80.8916 53.9423 80.908 53.8521C80.9956 53.3624 81.0749 52.8727 81.1543 52.3803C81.1871 52.1559 81.2609 51.9234 81.2254 51.7073C81.1898 51.4994 81.0394 51.3106 80.8752 50.9851C81.1652 51.0808 81.2527 51.1109 81.3676 51.1492C81.2938 50.8346 81.1187 50.5419 81.1898 50.3367C81.6494 49.029 81.7123 48.3807 81.3923 47.1086C81.3786 47.0539 81.3758 46.98 81.4032 46.9362C82.0652 45.8255 81.2691 44.7313 81.3321 43.6151C81.3594 43.1692 81.2418 42.633 81.2117 42.1324C81.2035 41.9819 81.1488 41.7849 81.0421 41.6974C80.5606 41.3117 80.4074 40.7508 80.6564 40.1982C80.7247 40.045 80.7959 39.859 80.7658 39.7058C80.629 39.0301 80.4266 38.3708 80.4457 37.6568C80.4512 37.3941 80.1503 37.1233 79.9861 36.8497C80.5524 36.4585 79.8521 35.9415 80.0873 35.5284C79.8876 35.4901 79.729 35.46 79.6441 35.4436C79.7508 35.1345 79.8329 34.8992 79.9177 34.6667C79.7782 34.6174 79.6359 34.5682 79.5238 34.5299C79.6059 34.2919 79.6907 34.0539 79.7864 33.7721C79.5375 33.8213 79.3624 33.8542 79.19 33.8897C79.1654 33.846 79.1408 33.8022 79.1134 33.7557C79.2475 33.638 79.3843 33.5204 79.4827 33.4356C79.3925 33.3727 79.2885 33.3016 79.1545 33.2085C79.2885 33.1429 79.3733 33.0991 79.3952 33.0882C79.2174 32.9158 78.9602 32.7818 78.911 32.5957C78.8563 32.3796 78.9684 32.1143 79.0368 31.879C79.2365 31.206 79.1271 31.0337 78.2407 30.9188C78.331 30.4263 78.4186 29.9421 78.5061 29.4606C78.0711 29.2609 77.5924 28.9354 77.7839 28.4074C77.9863 27.8548 77.71 27.4745 77.5814 27.0396C77.4994 26.766 77.4419 26.29 76.8975 26.5909C76.8209 26.6347 76.5911 26.3994 76.4024 26.2736C77.2176 25.7675 77.1383 25.3763 76.4024 24.955C76.2628 24.3476 76.1917 23.8798 76.0412 23.4394C75.9072 23.0537 75.6801 22.698 75.4941 22.326C75.3874 22.367 75.1795 22.4409 74.8239 22.5694C74.9634 22.1454 75.1467 21.8582 75.1221 21.5873C75.1002 21.3192 74.8704 21.0675 74.7062 20.7612C74.5476 20.9718 74.3944 21.1715 74.2357 21.3822C74.2001 21.322 74.0469 21.1578 74.0798 21.1113C74.4737 20.504 73.9731 20.0772 73.7679 19.6204C73.4834 18.9939 73.1113 18.4085 72.7447 17.7492C72.2523 17.9707 72.4438 17.5577 72.5724 17.254C72.4055 17.1965 72.1867 17.15 72.1867 17.1172C72.2359 16.4825 71.7024 16.6795 71.4863 16.5126C71.3495 16.0612 71.2155 15.5907 70.9364 15.2296C70.5644 14.7426 70.0802 14.3432 69.6452 13.9055C69.533 13.7933 69.3771 13.6867 69.3333 13.5471C69.1282 12.907 69.0789 12.8796 68.3594 13.3091C68.5482 12.9781 68.6713 12.762 68.8163 12.5103C68.6248 12.4447 68.4278 12.3763 68.2144 12.2997C68.1515 11.6075 67.5633 11.3312 67.0819 10.992C66.8657 10.8415 66.4609 10.7048 66.6277 11.3011C66.1545 11.2765 65.9 11.0987 66.0997 10.65C66.3323 10.1275 66.0067 9.93602 65.6566 9.67613C65.1614 9.30408 64.6772 8.91835 64.2395 8.46696C63.9987 8.21527 63.6157 8.10038 63.3504 7.95265C63.0878 7.67908 62.8689 7.41098 62.6035 7.20033C62.5434 7.15383 62.2041 7.30155 62.1932 7.38362C62.133 7.87331 61.9141 7.6271 61.6843 7.54777C61.7445 7.41372 61.7883 7.31523 61.8321 7.21948C61.4956 7.12373 61.9032 6.41793 61.1919 6.51641C60.8965 6.55471 60.5627 5.97474 60.1852 5.8106C59.8569 5.66561 59.4465 5.6957 59.0718 5.68476C58.9787 5.68203 58.883 5.82428 58.7872 5.89814C58.7572 5.76957 58.7435 5.63552 58.697 5.51241C58.6094 5.28535 58.5438 4.91056 58.4015 4.875C58.0459 4.79019 57.7012 4.77104 57.4003 4.50021C57.2142 4.33333 56.9297 4.16098 56.7027 4.1774C55.8491 4.24032 55.2473 3.62752 54.4949 3.42782C54.1284 3.32933 53.7043 2.93813 53.4499 3.03935C53.045 3.20075 52.8672 3.09133 52.5964 2.86974C52.4924 2.78493 52.2626 2.80408 52.104 2.83964C51.7073 2.92719 51.3681 2.97643 51.1629 2.50042C51.1218 2.4074 50.8674 2.38825 50.706 2.37458C50.6294 2.36637 50.4981 2.49495 50.4653 2.47032C50.0905 2.1694 49.6938 2.18308 49.2616 2.30618C49.1631 2.33628 48.988 2.25694 48.9087 2.17213C48.5777 1.83017 48.3451 1.88215 48.1673 2.30618C48.1481 2.35543 48.1399 2.4074 48.0989 2.56334C48.0086 2.22685 47.9649 2.06818 47.9047 1.84659C47.5955 1.95875 47.3329 2.0545 47.0074 2.17213C46.9691 2.10648 46.8788 1.95054 46.7584 1.74263C46.2934 1.81376 45.7243 1.76178 45.3386 2.00252C44.9802 2.22685 44.8298 2.35816 44.6109 1.86027C44.2252 2.19402 43.8832 2.77946 43.44 2.05997C42.9886 2.15846 42.685 3.00926 42.1734 2.27062C41.8889 2.44844 41.6317 2.60985 41.2761 2.83144C41.2761 2.81776 41.2761 2.96822 41.2761 3.07218C40.9916 3.00652 40.7262 2.93539 40.4581 2.88889C40.2666 2.85606 39.9438 2.77946 39.8918 2.85879C39.5772 3.35395 39.3994 3.07218 39.2353 2.75757C38.3516 3.17887 37.241 2.76304 36.6254 3.54272C36.4011 3.54272 36.1932 3.47979 36.1084 3.55366C35.7856 3.83817 35.4545 3.77251 35.0962 3.6795C34.9731 3.64941 34.8035 3.63573 34.7022 3.69318C34.4232 3.85185 34.1879 4.10627 33.8952 4.22937C33.5259 4.38531 33.1183 4.45096 32.7955 4.53577C32.7353 4.25947 32.7052 4.12268 32.6751 3.98316C32.4343 4.10627 32.1963 4.22937 31.9173 4.37163C31.8544 4.35522 31.6984 4.27041 31.5617 4.29229C31.403 4.31965 31.258 4.51115 31.1103 4.50568C30.4127 4.48106 29.8327 5.01999 29.1242 4.9133C29.0722 4.90509 28.9737 4.93518 28.9655 4.96801C28.8342 5.39751 28.4676 5.49326 28.1037 5.61637C27.8548 5.70117 27.6168 5.83522 27.3925 5.98022C26.911 6.28661 26.4541 6.62857 25.9699 6.92676C25.4912 7.21948 24.9823 7.46022 24.5008 7.75021C24.1397 7.96633 23.8114 8.23169 23.4585 8.45875C22.6515 8.97033 21.9375 9.60774 21.0457 10.0099C20.3864 10.3053 19.8201 10.8306 19.2456 11.2929C18.1458 12.1793 17.0297 13.052 15.9928 14.0067C14.6824 15.2104 13.4186 16.4689 12.1793 17.7464C11.0604 18.9009 9.96338 20.08 8.92382 21.3028C8.00463 22.3834 7.13742 23.5133 6.31944 24.6705C5.51789 25.803 4.7601 26.9712 4.06524 28.1721C3.45518 29.2281 2.94087 30.3388 2.42382 31.444C2.11195 32.1115 1.8548 32.8037 1.61406 33.4985C1.49916 33.8377 1.60038 34.3083 1.40067 34.5545C0.763258 35.3396 0.990319 36.3327 0.645623 37.1753C0.631945 37.2054 0.664773 37.2519 0.656566 37.2902C0.593645 37.6486 0.527988 38.0042 0.459596 38.3817C0.776936 38.5295 0.782408 38.5869 0.511574 38.8003C0.424032 38.8687 0.350169 38.9973 0.341961 39.104C0.303662 39.5608 0.320075 40.0259 0.259891 40.48C0.221591 40.77 0.0902776 41.0463 0 41.3308C0 41.3691 0 41.4074 0 41.4457C0.0902776 41.5661 0.257155 41.681 0.259891 41.8013C0.276304 42.354 0.254419 42.9066 0.221591 43.4592C0.21612 43.533 0.0765993 43.5987 0 43.6698C0 43.7081 0 43.7492 0 43.7875C0.0683921 43.834 0.194235 43.8723 0.202441 43.9242C0.287248 44.6465 0.355639 45.3714 0.432239 46.1128C0.563552 46.0417 0.651094 45.9924 0.738636 45.9432C0.749578 45.9651 0.760523 45.9842 0.771465 46.0061C0.631945 46.1593 0.489689 46.3125 0.347433 46.4657C0.404882 46.4657 0.459596 46.4684 0.517045 46.4712C0.571759 46.9171 0.65383 47.363 0.678451 47.8117C0.694866 48.1509 0.727693 48.4217 1.17635 48.3862C0.779671 48.7035 0.787879 48.7008 0.943813 49.2917C0.998527 49.4968 1.03683 49.7212 1.00947 49.9263C0.889099 50.8838 1.53746 51.4392 2.07639 52.0574C1.43077 52.621 1.38152 53.5347 1.92045 53.9177C1.92045 54.2241 1.85753 54.5059 1.93413 54.7439C2.07912 55.1761 2.41835 55.5646 2.47033 55.9996C2.54966 56.6397 2.629 57.2553 2.92719 57.8352C3.38405 58.7188 3.80261 59.6189 4.26221 60.4998C4.47285 60.9019 4.78472 61.2576 4.98169 61.6652C5.34827 62.4284 5.5343 63.2957 6.29756 63.8182C6.33312 63.8428 6.29209 63.9604 6.32492 64.0124C6.57933 64.3981 6.83649 64.7839 7.11553 65.1532C7.13742 65.1833 7.32891 65.0821 7.54777 65.0055C7.52588 65.2517 7.50126 65.5006 7.47117 65.8426C8.07029 66.3514 8.94844 66.8521 8.84722 68.0257C9.0524 68.0038 9.24663 67.9846 9.4819 67.9573C9.15909 68.4196 9.28493 68.8081 9.76094 69.0707C9.94423 69.1747 10.1221 69.3251 10.2506 69.4947C10.3628 69.6425 10.3628 69.8777 10.4777 70.0227C10.8662 70.5015 11.282 70.9556 11.6869 71.4179C11.9604 71.7325 12.2422 72.0362 12.5048 72.3563C13.1176 73.0976 13.7003 73.8636 14.335 74.5859C14.7481 75.0537 15.2597 75.4339 15.6782 75.899C16.4278 76.7361 17.0899 77.6553 17.8777 78.4514C19.1307 79.7207 20.4438 80.9327 21.7597 82.1391C22.5394 82.8531 23.3436 83.5507 24.1972 84.1772C25.3598 85.0335 26.5772 85.8186 27.7755 86.6229C28.1721 86.891 28.5852 87.129 28.9928 87.3752C29.8491 87.895 30.6999 88.4284 31.5699 88.9263C32.1279 89.2464 32.7216 89.5063 33.2961 89.799C33.7721 90.0425 34.2207 90.3544 34.7186 90.5322C35.6707 90.8714 36.6035 91.279 37.4133 91.859C38.0398 92.3104 38.8769 92.2365 39.4268 92.8411C39.6484 93.0819 40.0642 93.1448 40.387 93.287C39.8152 93.8889 39.2818 94.3512 38.8714 94.9066C38.2422 95.7628 37.0905 96.2853 37.1343 97.593C37.1534 98.1046 37.0495 98.6189 37.0412 99.1332C37.0303 99.8828 37.0823 100.619 37.2382 101.368C37.3176 101.749 37.2765 102.134 37.5747 102.432C37.8182 102.673 38.0753 102.892 38.327 103.122C39.0711 103.806 39.9602 104.235 40.8849 104.607C41.3035 104.777 41.7193 105.007 42.1543 105.064C42.9859 105.174 43.8039 105.116 44.6574 104.999C45.5082 104.878 46.3645 104.668 47.2317 104.61C47.7515 104.574 48.2767 104.542 48.7883 104.451C49.4449 104.334 50.0932 104.156 50.717 104.014C50.9741 104.465 51.2504 104.826 51.3954 105.237C51.5486 105.672 51.7237 105.967 52.2517 105.844C52.0191 106.585 52.0301 106.621 52.3885 106.872C52.7797 108.123 53.0997 109.192 53.4581 110.246C53.5375 110.478 53.759 110.661 53.9615 110.927C53.6852 111.176 53.7153 111.499 54.1092 111.791C54.153 111.827 54.1338 111.939 54.1585 112.01C54.2843 112.388 54.3746 112.787 54.5661 113.129C54.6481 113.274 55.0585 113.244 55.1214 113.383C55.1898 113.539 54.96 113.813 54.9956 114.007C55.0448 114.253 55.2309 114.472 55.3594 114.705C55.5318 114.639 55.6768 114.584 55.8984 114.5C55.395 115.214 55.395 115.162 55.819 115.81C55.9832 116.059 56.0844 116.349 56.2048 116.622C56.6616 117.659 57.1048 118.699 57.5781 119.727C57.8544 120.332 58.1471 120.934 58.4891 121.503C58.7955 122.017 59.1812 122.482 59.545 122.988C59.6326 122.983 59.7639 122.972 59.8241 122.967C59.783 123.18 59.6709 123.396 59.7365 123.516C59.9718 123.954 60.2618 124.364 60.5381 124.783C61.0469 125.549 61.46 126.414 62.0974 127.054C62.8826 127.847 63.8127 128.517 64.7593 129.116C65.3857 129.513 66.1463 129.696 66.8521 129.967C66.9341 129.997 67.0408 129.97 67.1338 129.97C67.5688 129.975 68.0038 129.981 68.436 129.986C69.399 130.003 70.362 130.022 71.3249 130.025C71.3988 130.025 71.4726 129.902 71.5465 129.833C71.6423 129.748 71.7955 129.57 71.8255 129.59C72.2332 129.839 72.3316 129.387 72.5724 129.275C72.69 129.223 72.783 129.122 72.887 129.043C72.928 129.084 72.9691 129.125 73.0101 129.166C72.8843 129.335 72.7557 129.502 72.6025 129.707C73.7405 129.724 74.5503 129.073 75.5023 128.553C75.5844 128.627 75.7786 128.772 75.9291 128.955C76.2902 129.395 76.6048 129.88 76.9905 130.298C77.4173 130.763 77.9562 131.13 78.3529 131.617C78.7359 132.085 79.3159 132.282 79.6907 132.763C79.956 133.105 80.3801 133.318 80.7165 133.606C81.6877 134.432 82.6124 135.321 83.6273 136.087C85.08 137.184 86.5737 138.229 88.0947 139.225C89.0084 139.824 90.0097 140.286 90.9672 140.814C91.4569 141.085 91.9301 141.389 92.4253 141.649C92.8192 141.851 93.2378 142.01 93.6454 142.19C94.0311 142.349 94.4196 142.721 94.7835 142.699C95.1172 142.677 95.4291 142.234 95.7683 141.96C96.2498 142.297 96.6984 142.215 97.0842 141.701C97.1909 141.556 97.396 141.482 97.5574 141.378C97.645 141.443 97.7325 141.509 97.8201 141.575C97.2237 141.618 97.3605 142.037 97.4973 142.018C97.9104 141.958 98.463 142.365 98.6681 141.835C98.9718 141.892 99.2153 141.98 99.4588 141.977C99.8089 141.971 100.162 141.911 100.509 141.851C100.977 141.774 101.508 141.903 101.863 141.432C101.894 141.394 102.107 141.479 102.227 141.528C102.339 141.577 102.443 141.72 102.547 141.714C103.015 141.695 103.502 141.684 103.691 141.244C103.915 141.361 104.12 141.561 104.29 141.536C104.698 141.476 105.092 141.315 105.491 141.189C105.745 141.11 106.008 141.039 106.254 140.937C106.405 140.877 106.522 140.732 106.673 140.688C107.094 140.565 107.537 140.508 107.948 140.36C108.954 139.993 109.893 139.452 110.946 139.197C111.364 139.093 111.769 138.905 112.155 138.705C113.066 138.229 113.977 137.75 114.861 137.222C115.463 136.861 116.294 136.842 116.642 136.073C116.655 136.04 116.776 136.068 116.839 136.043C116.986 135.986 117.129 135.909 117.274 135.849C117.405 135.797 117.539 135.756 117.673 135.712C117.818 135.666 117.982 135.655 118.105 135.575C119.355 134.763 120.606 133.948 121.842 133.116C122.105 132.941 122.307 132.541 122.562 132.514C123.289 132.443 123.691 131.926 124.198 131.537C124.613 131.217 125.018 130.848 125.489 130.635C126.011 130.402 126.37 130.161 126.334 129.527C126.329 129.412 126.621 129.171 126.632 129.177C127.021 129.477 127.081 129.146 127.33 128.936C127.997 128.364 128.794 127.945 129.499 127.412C129.918 127.097 130.263 126.682 130.632 126.304C130.81 126.124 130.952 125.782 131.138 125.762C131.836 125.683 131.983 124.955 132.52 124.706C132.719 124.613 132.916 124.479 133.069 124.321C133.351 124.028 133.545 123.533 133.876 123.423C134.58 123.196 134.845 122.54 135.373 122.149C136.008 121.681 136.516 121.041 137.077 120.474C137.209 120.34 137.334 120.201 137.474 120.069C138.027 119.55 138.609 119.054 139.137 118.505C139.739 117.878 140.286 117.197 140.869 116.549C141.345 116.018 141.887 115.539 142.316 114.973C143.047 114.004 143.711 112.987 144.406 111.991C144.901 111.282 145.399 110.577 145.96 109.781C145.976 109.936 145.963 110.024 145.993 110.043C146.08 110.101 146.223 110.194 146.28 110.164C146.48 110.051 146.652 109.89 146.838 109.748C146.89 109.406 146.95 109.02 147.011 108.637C147.041 108.673 147.071 108.708 147.101 108.744C147.276 108.615 147.451 108.489 147.626 108.361C147.56 108.331 147.492 108.3 147.426 108.27C147.363 108.114 147.298 107.956 147.235 107.8C147.418 107.74 147.601 107.679 147.785 107.617C147.815 107.666 147.845 107.715 147.875 107.764C148.086 107.354 148.296 106.946 148.553 106.451C148.294 106.522 148.143 106.563 148.006 106.602C148.904 104.87 149.779 103.168 150.671 101.475C151.847 99.2317 152.933 96.9529 153.702 94.5263C154.287 92.6715 155.185 90.9125 155.404 88.9482C155.445 88.5871 155.267 88.1275 155.434 87.8731C155.773 87.3561 155.185 86.7433 155.699 86.2673C155.781 86.1907 155.562 85.7858 155.483 85.5341C155.538 85.5587 155.595 85.5806 155.65 85.6052C155.83 85.3946 156.123 85.2003 156.159 84.9678C156.191 84.7517 155.945 84.4945 155.781 84.1744ZM40.149 87.5229C39.7386 87.3314 39.3283 87.1454 38.9152 86.9566C38.7401 86.8773 38.565 86.798 38.3571 86.8007C38.1629 86.6256 37.996 86.3986 37.7717 86.2864C36.5461 85.6654 35.2959 85.0909 34.0758 84.4644C32.9268 83.8735 31.7832 83.2662 30.6726 82.6069C30.1172 82.2759 29.6439 81.8026 29.1187 81.4141C28.9682 81.302 28.7521 81.2746 28.5962 81.1652C28.432 81.0503 28.3144 80.867 28.1557 80.7384C27.7536 80.4101 27.3432 80.0955 26.8617 79.7153C26.7769 79.7071 26.2872 80.3445 26.4404 79.4773C26.4733 79.2912 25.9316 78.9192 25.5951 78.7715C24.9276 78.4787 24.509 77.9891 24.1206 77.4036C23.847 76.9933 23.4503 76.6622 23.1029 76.2984C22.7117 75.888 22.3807 75.3573 21.9019 75.1111C21.4423 74.8731 21.3001 74.3752 20.9499 74.181C20.2742 73.8144 20.0636 73.1414 19.6231 72.6271C19.2128 72.1511 18.7039 71.7571 18.2388 71.3249C18.2088 71.3659 18.1759 71.4043 18.1431 71.4453C18.1759 71.2593 18.206 71.0732 18.2443 70.8544C17.8996 70.972 17.678 70.9966 17.6315 70.5534C17.6069 70.3209 17.4318 70.0145 17.2403 69.9242C17.1117 69.8668 16.8354 70.1267 16.5208 70.3018C16.6412 69.9516 16.9202 69.5604 16.8218 69.3142C16.7014 69.0078 16.2746 68.819 15.9381 68.5454C15.9628 68.0585 15.8561 67.9737 15.246 68.0968C15.194 67.5305 14.7262 66.9615 14.1627 66.8138C14.573 65.9794 13.6648 65.952 13.3611 65.5553C13.0492 65.145 12.8632 64.4282 12.0835 64.7346C12.2723 64.6033 12.5623 64.5076 12.6225 64.3352C12.6662 64.2039 12.4146 63.9714 12.3024 63.7826C12.2477 63.6869 12.1902 63.5856 12.1601 63.479C12.0452 63.0823 11.8401 62.8279 11.2109 63.0494C11.2875 62.7294 11.3859 62.5187 11.3668 62.3218C11.3531 62.1877 11.1917 61.9989 11.0604 61.9606C10.8662 61.9032 10.6336 61.936 10.4257 61.9743C10.3354 61.9907 10.2616 62.1138 10.0509 62.1248C10.1439 61.8868 10.2151 61.6351 10.3354 61.4135C10.5461 61.025 10.4175 60.694 9.99348 60.5983C9.39983 60.467 9.81566 59.9827 9.64331 59.6435C8.87458 59.7694 9.2439 59.0088 8.99221 58.686C8.71044 58.3167 8.77062 58.2675 8.3931 58.4781C8.16603 57.9118 7.93624 57.3455 7.69003 56.73C7.71191 56.7163 7.8186 56.6534 7.95812 56.5713C7.80219 56.5713 7.66814 56.5713 7.48758 56.5713C7.504 56.2731 7.53956 55.9667 7.51494 55.6658C7.50947 55.6248 7.21128 55.6056 7.03072 55.6357C6.59848 55.4141 7.72832 54.681 6.68603 54.6044C6.65867 54.339 7.0827 53.9916 6.48632 53.8603C6.37416 53.8356 6.27841 53.2912 6.33312 53.0204C6.42614 52.569 6.24558 52.4268 5.82976 52.4213C6.29756 51.7182 5.71486 51.182 5.6492 50.5856C5.61911 50.3203 5.60269 50.0522 5.58081 49.7868C5.56166 49.5625 5.63005 49.2315 5.50968 49.1275C5.00084 48.7062 5.13489 48.263 5.39752 47.7378C5.23064 47.7104 5.10206 47.6858 4.93518 47.6585C5.11027 46.4411 4.87226 45.2647 4.69444 44.0063C4.49747 44.0856 4.30324 44.165 3.97222 44.3018C4.05429 44.0501 4.06797 43.8668 4.16098 43.7437C4.83123 42.8573 4.81208 42.6822 3.95581 42.001C3.83817 41.908 3.75884 41.763 3.76157 41.5606C3.87921 41.6892 3.99684 41.8178 4.14184 41.9764C4.42088 41.1557 4.52757 40.4089 4.17193 39.6593C4.15551 39.6265 4.12542 39.5608 4.12816 39.5581C4.70812 39.2161 4.34428 38.6553 4.4072 38.2121C4.50295 37.5282 4.43455 36.8197 4.4455 36.1221C4.4455 36.0318 4.51389 35.9442 4.53851 35.8512C4.73548 35.1071 5.15404 34.3384 5.07471 33.6244C4.96254 32.5711 5.64373 31.8325 5.83249 30.9106C6.02399 29.964 6.6532 29.0913 7.16477 28.2296C7.56418 27.5539 8.06755 26.9411 8.52988 26.3037C9.15088 25.4474 9.75274 24.5774 10.4038 23.7458C10.8197 23.2151 11.3175 22.7473 11.7607 22.2357C12.193 21.7405 12.576 21.1989 13.0274 20.7256C13.4541 20.2797 13.963 19.9131 14.4089 19.4836C15.3226 18.5972 16.1871 17.6589 17.1364 16.8108C17.7519 16.2582 18.4714 15.8232 19.1553 15.35C20.0608 14.718 20.9882 14.1162 21.8801 13.4678C22.7254 12.855 23.5187 12.1711 24.3695 11.5665C24.7635 11.2847 25.2504 11.1343 25.6745 10.8908C25.9562 10.7294 26.2024 10.5078 26.528 10.267C26.9192 10.3601 27.8603 9.68981 27.8822 9.08249C28.0162 9.30955 28.1037 9.45454 28.2351 9.67613C28.4047 9.48464 28.5524 9.31502 28.7029 9.14541C29.0065 9.47096 29.2473 9.56944 29.4825 9.0524C29.581 8.83628 29.8382 8.63383 30.068 8.55997C30.2649 8.49432 30.6726 8.5545 30.7327 8.67761C30.9872 9.23295 31.3264 8.86363 31.6164 8.80345C32.0213 8.71591 32.4179 8.57639 32.8146 8.45328C33.0854 8.36847 33.3508 8.26725 33.5833 8.0949C34.0867 7.99915 34.5955 7.91982 35.0962 7.80492C35.5257 7.70644 35.947 7.56965 36.516 7.40825C36.3573 7.27967 36.2178 7.16751 36.0947 7.06902C36.5215 6.79819 36.6938 6.88573 36.888 7.56692C37.137 7.3891 37.3723 6.93224 37.6896 7.4657C38.4447 7.31797 39.1997 7.17298 39.9575 7.02251C40.004 7.01157 40.0724 6.92676 40.0833 6.93771C40.6359 7.3973 41.1229 6.80639 41.6481 6.83102C41.7494 6.83649 41.8643 6.6149 41.8916 6.5848C42.2473 6.65319 42.5537 6.76809 42.8546 6.75715C43.9133 6.71064 44.9693 6.57386 46.028 6.56292C46.4876 6.55745 46.9444 6.80639 47.415 6.87479C47.984 6.95412 48.5694 6.93224 49.1357 7.02251C49.3737 7.05808 49.5707 7.3207 49.8114 7.38362C50.8127 7.64352 51.8249 7.84596 52.8234 8.11405C53.1162 8.19339 53.3542 8.46149 53.6441 8.56544C54.4266 8.84175 55.2801 8.97032 56.0051 9.35059C57.4194 10.0892 58.8037 10.9072 60.1332 11.7936C61.0114 12.3845 61.7637 13.1641 62.5926 13.8316C62.7759 13.9794 63.0686 13.9794 63.2683 14.1134C63.4707 14.2529 63.6349 14.4609 63.7908 14.6578C64.1902 15.1585 64.5705 15.6728 64.9699 16.1734C65.4651 16.7944 65.963 17.4181 66.4827 18.02C66.6086 18.165 66.8302 18.2306 67.0627 18.3619C67.0162 19.0048 67.6591 19.6997 68.2281 19.6149C68.2144 19.7243 68.1515 19.8638 68.198 19.9404C68.9285 21.1852 69.6644 22.4272 70.4249 23.6555C70.5398 23.8415 70.786 23.9455 71.0404 24.1397C70.5206 24.7279 71.2921 25.1683 71.4945 25.7182C71.9213 26.8727 72.4657 27.9806 72.9636 29.1077C73.2618 29.7917 73.6092 30.4592 73.8472 31.165C74.0852 31.8708 74.129 32.6505 74.419 33.3316C74.8157 34.27 74.8321 35.3096 75.2205 36.2123C75.6117 37.1233 75.4968 38.0726 75.7376 38.9781C75.9017 39.6018 76.0549 40.2283 76.189 40.8575C76.3121 41.4375 76.4242 42.0229 76.4981 42.6111C76.5446 42.9722 76.4653 43.3525 76.5337 43.7081C76.5939 44.02 76.7826 44.3045 76.903 44.6054C76.9386 44.6902 76.9468 44.7915 76.9413 44.8817C76.8537 46.1073 77.1601 47.2919 77.338 48.4874C77.3571 48.6324 77.483 48.7609 77.4747 48.75C77.379 49.1193 77.2668 49.3874 77.2477 49.661C77.2176 50.0713 77.2449 50.4872 77.2696 50.9002C77.2805 51.1 77.3325 51.2997 77.3681 51.4994C77.3735 51.5459 77.3899 51.5951 77.3845 51.6416C77.3653 51.8304 77.3407 52.0191 77.3161 52.2079C77.3051 52.2818 77.3106 52.3666 77.2696 52.4213C76.7443 53.1818 77.048 54.049 76.9522 54.8643C76.8537 55.6959 76.81 56.5358 76.7498 57.3729C76.6923 58.1744 76.7826 59.0225 76.5528 59.7694C76.3121 60.5381 76.2601 61.315 76.1479 62.0892C76.0905 62.4914 76.1452 62.8826 75.8279 63.2163C75.7704 63.2792 75.9373 63.5473 76.0084 63.7525C75.3847 64.0753 75.6446 64.6772 75.5652 65.186C75.5023 65.5882 75.3984 65.9821 75.3108 66.3788C75.0865 67.432 74.8676 68.488 74.6296 69.5385C74.4901 70.1458 74.2959 70.7395 74.1646 71.3468C73.8418 72.835 73.5135 74.3232 73.2399 75.8224C73.0648 76.7635 72.9827 77.7237 72.8651 78.6757C72.846 78.8207 72.8596 78.9739 72.8733 79.1216C72.9335 79.7673 72.6353 80.1092 72.0061 80.2487C71.6423 80.3281 71.3085 80.536 70.9583 80.681C69.8422 81.1433 68.726 81.6029 67.6098 82.0652C67.5387 82.0953 67.4457 82.1254 67.4184 82.1829C67.1338 82.7683 66.491 82.6616 66.0396 82.9215C65.6319 83.1568 65.2325 83.4057 64.8714 83.682C64.5787 83.7641 64.275 83.8215 63.9933 83.9337C63.2902 84.2155 62.5844 84.5 61.8977 84.8228C61.5941 84.9651 61.3424 85.214 61.0469 85.3809C60.8691 85.4794 60.653 85.5067 60.4615 85.5806C59.9718 85.7694 59.3809 85.783 59.1265 86.3712C59.0991 86.4314 59.0061 86.5053 58.9487 86.5025C57.8954 86.456 57.1267 87.0551 56.3114 87.5968C56.0269 87.7856 55.6002 87.7719 55.2363 87.8375C54.7931 87.9169 54.4813 88.1084 54.4457 88.6145C54.4375 88.7212 54.3144 88.8196 54.2433 88.9236C54.1721 88.8497 54.0983 88.7759 54.0928 88.7677C53.6441 89.0577 53.2037 89.3394 52.6319 89.7087C52.7031 89.4954 52.7113 89.4324 52.7414 89.3832C52.7824 89.3203 52.8426 89.2683 52.8946 89.2109C52.5034 88.8771 52.5034 88.8744 50.5774 89.7087C49.8415 90.0261 49.2041 90.4884 48.6871 91.1997C48.5694 91.0137 48.4846 90.8796 48.3916 90.7319C48.1892 90.8386 47.8363 90.9179 47.8062 91.0629C47.653 91.7797 47.1332 91.4897 46.7338 91.5088C46.4712 91.5198 46.2058 91.4787 45.9049 91.4596C46.0964 90.8495 45.4672 90.7045 45.1088 90.4091C44.6766 90.0562 44.1759 89.7881 43.6753 89.4653C43.5878 89.5473 43.4783 89.6486 43.3361 89.7826C43.4756 89.8948 43.5878 89.9851 43.6972 90.0753C43.6561 90.1191 43.6151 90.1656 43.5741 90.2094C43.4564 90.0863 43.2157 89.9085 43.2403 89.851C43.5139 89.2355 43.1035 89.0194 42.6686 88.8497C42.2582 88.6911 41.8232 88.5953 41.2925 88.4421C41.2898 88.4284 41.2679 88.2506 41.2597 88.174C40.9697 87.9935 40.759 87.8567 40.5429 87.7281C40.4171 87.6542 40.283 87.5859 40.149 87.5229ZM54.6947 98.8432C54.3363 98.8104 53.9369 99.1496 53.5676 99.3438C53.4444 99.4095 53.3542 99.5326 53.1216 99.7515C53.1873 99.4013 53.2174 99.2262 53.2475 99.0675C53.0888 99.0128 52.9329 98.9581 52.7851 98.9061C52.6867 99.0347 52.569 99.1852 52.4514 99.3411C52.2872 99.2809 52.1313 99.2207 52.0848 99.2043C51.6389 99.4888 51.2668 99.7241 50.9057 99.9566C50.7717 99.8883 50.5255 99.7214 50.4926 99.7569C50.1534 100.115 49.6665 99.9785 49.278 100.151C49.1576 100.206 48.9989 100.217 48.8649 100.197C48.1098 100.08 46.9855 100.167 46.5478 100.848C46.1183 100.34 45.5684 100.362 44.8516 100.917C44.5808 100.641 43.451 100.572 43.1254 100.802C42.6303 100.468 42.1433 100.137 41.6536 99.8117C41.5633 99.7487 41.4457 99.6393 41.3664 99.6612C40.718 99.8199 40.8356 99.467 40.9013 99.0539C40.9505 98.7338 40.8822 98.3946 40.8493 98.0663C40.8384 97.9486 40.7426 97.8392 40.7372 97.7243C40.6934 96.9009 40.8986 96.7915 41.8396 96.3948C42.9832 95.9078 44.2224 95.9379 45.3769 95.5659C45.5 95.5276 45.6231 95.4811 45.7353 95.4236C46.4383 95.057 47.2071 94.964 47.9758 94.8628C48.0469 94.8546 48.129 94.819 48.1755 94.767C48.4682 94.4661 48.75 94.157 49.1084 93.774C49.1494 94.0393 49.1768 94.2062 49.2041 94.3731C49.2479 94.3758 49.2889 94.3813 49.3327 94.384C49.3683 94.2965 49.3984 94.2035 49.4394 94.1214C49.6282 93.7494 49.8935 93.5633 50.3285 93.7193C50.7443 93.867 51.0753 93.7658 51.2449 93.3828C51.4501 93.432 51.6799 93.5661 51.8359 93.5059C52.5006 93.2569 53.1435 92.9396 53.8001 92.666C54.0354 92.5676 54.298 92.5429 54.5332 92.4444C54.7439 92.3542 54.9354 92.2092 55.0995 92.1079C55.4306 91.9958 55.7725 91.952 56.0215 91.7769C56.4729 91.4541 56.9844 91.4322 57.4823 91.29C57.9556 91.1532 58.2976 90.6389 58.883 90.6991C58.935 90.7045 58.987 90.576 59.0553 90.5404C59.307 90.4118 59.6052 90.3489 59.8077 90.1711C60.218 89.8045 60.612 89.4707 61.2165 89.613C61.2247 89.613 61.2904 89.3586 61.2959 89.3394C61.7637 88.9455 62.5105 89.5118 62.7896 88.6993C62.8087 88.6418 62.9674 88.568 63.0112 88.5926C63.4653 88.8388 63.6568 88.4421 63.944 88.2534C64.1656 88.1084 64.4364 88.0454 64.6827 87.9388C65.145 87.7363 65.6101 87.5339 66.0697 87.3205C66.718 87.0141 67.3609 86.6995 68.0038 86.3849C68.5482 86.1168 69.0981 85.8569 69.637 85.5724C70.1075 85.3207 70.5535 85.0198 71.0322 84.7845C71.1526 84.7243 71.3577 84.8337 71.5055 84.8638C71.2346 85.504 70.9966 86.0648 70.7614 86.6284C70.5671 87.0934 70.3537 87.5558 70.1923 88.0318C69.834 89.096 69.5029 90.1711 69.1582 91.238C69.1254 91.342 69.1035 91.4924 69.0297 91.5307C68.7014 91.7058 68.3731 91.9 68.0175 91.993C67.0572 92.2529 66.294 92.822 65.5471 93.4375C65.4377 93.5278 65.1942 93.4375 65.0547 93.5114C64.5869 93.7548 64.1355 94.0339 63.6787 94.2965C63.1425 94.6029 62.609 94.912 62.0701 95.213C61.605 95.4701 61.1153 95.6917 60.6694 95.9762C60.5271 96.0692 60.5189 96.351 60.3849 96.4796C60.2344 96.6191 59.9554 96.8161 59.8323 96.7614C58.9377 96.3674 58.355 97.0459 57.6711 97.3441C56.9735 97.6505 56.3005 98.0143 55.6193 98.3563C55.5208 98.4055 55.395 98.4548 55.3457 98.5423C55.1926 98.8104 55.064 98.8788 54.6947 98.8432ZM57.3264 107.324C57.1267 107.045 57.0063 106.788 56.8093 106.626C56.5795 106.435 56.5248 106.271 56.5057 105.961C56.4756 105.469 56.254 104.988 56.1282 104.547C55.7725 104.574 55.5017 104.596 55.2281 104.621C55.2199 104.558 55.209 104.492 55.2008 104.429C55.3895 104.356 55.5755 104.279 55.8546 104.167C55.5072 103.77 55.685 103.103 55.0257 102.895C54.971 102.876 54.9573 102.733 54.9217 102.646C55.0229 102.616 55.1296 102.588 55.2281 102.547C55.3704 102.487 55.5072 102.419 55.6166 102.285C56.3826 102.345 56.7355 102.115 57.0665 101.305C57.1568 101.084 57.362 100.911 57.5152 100.717C57.5781 100.769 57.641 100.821 57.7012 100.87C57.589 101.004 57.4796 101.136 57.3483 101.294C58.3058 101.333 59.0663 100.835 59.8514 100.424C60.3712 100.154 60.9047 99.9047 61.408 99.6065C62.1959 99.1332 63.1343 98.9034 63.7553 98.1511C63.8319 98.0581 64.0288 98.0608 64.1738 98.028C64.2723 98.0061 64.4282 98.0389 64.4693 97.9815C64.8359 97.4781 65.4487 97.4754 65.9356 97.2237C66.0833 97.1471 66.1791 96.9693 66.3405 96.7942C66.5676 96.9638 66.8411 97.0349 66.7919 96.4768C67.1667 96.4139 67.536 96.3537 67.9299 96.2853C67.774 96.9966 67.5934 97.7079 67.4594 98.4301C67.3855 98.8377 67.4074 99.2645 67.339 99.6749C67.2679 100.102 67.1092 100.512 67.0545 100.941C67.0162 101.231 67.0408 101.508 66.967 101.817C66.8274 102.386 66.5949 102.711 66.0505 102.949C65.5745 103.16 65.1806 103.554 64.7483 103.863C64.658 103.929 64.5541 104.047 64.4693 104.036C63.8702 103.973 63.4707 104.336 63.0385 104.654C62.8963 104.755 62.6856 104.761 62.5187 104.837C61.8211 105.16 61.1864 105.568 60.6667 106.148C60.5682 106.257 60.4287 106.328 60.3083 106.416C60.2755 106.388 60.2454 106.361 60.2153 106.331C60.322 106.232 60.4314 106.131 60.5436 106.027C59.8487 105.784 59.545 105.893 59.4165 106.279C59.0553 106.375 58.7654 106.396 58.5383 106.525C58.0869 106.779 57.6684 107.094 57.3264 107.324ZM63.6513 116.921C63.1698 116.798 63.1561 117.202 62.8197 117.309C63.0002 117.367 63.0878 117.397 63.1726 117.424C62.9729 117.648 62.7759 117.87 62.5434 118.133C62.3765 118.108 62.0974 118.07 61.7609 118.02C62.1494 117.271 61.5093 116.68 61.1481 115.971C60.9594 116.026 60.7843 116.078 60.4916 116.163C60.5846 115.731 60.6585 115.372 60.746 114.967C60.4341 114.888 60.3712 114.699 60.3466 114.3C60.3165 113.791 59.9992 113.274 59.7037 112.828C59.608 112.678 59.2058 112.73 58.8064 112.667C59.2906 112.396 59.3316 111.975 59.0636 111.575C58.5711 110.836 58.6286 110.711 59.5259 110.473C59.6435 110.443 59.7447 110.33 59.8487 110.251C60.0484 110.098 60.2372 109.931 60.4451 109.791C60.8937 109.491 61.4245 109.441 61.9223 109.285C62.2862 109.173 62.5488 108.735 62.8716 108.429C63.085 108.796 63.2929 108.798 63.5692 108.593C63.8264 108.402 64.1 108.213 64.3954 108.104C64.7401 107.98 65.1258 107.978 65.4733 107.863C65.6675 107.803 65.807 107.565 65.9985 107.507C66.387 107.395 66.7973 107.348 67.2433 107.269C67.2269 107.414 67.246 107.565 67.205 107.584C66.3186 108.013 66.9861 108.864 66.6907 109.449C67.3226 110.081 66.8138 110.875 66.9505 111.589C67.0381 112.04 67.2405 112.39 67.3992 112.784C67.4649 112.954 67.5688 113.11 67.722 113.238C67.7767 113.523 66.8822 113.753 67.681 114.182C67.6317 114.387 67.5852 114.609 67.5223 114.828C67.4867 114.951 67.4512 115.118 67.3636 115.17C66.6223 115.594 66.0177 116.272 65.0985 116.365C64.9535 116.382 64.814 116.475 64.6745 116.532C64.3298 116.674 63.9386 116.995 63.6513 116.921ZM71.5848 125.686C71.4289 125.76 71.1252 125.784 71.0349 125.691C70.5945 125.229 70.4604 125.451 70.3565 125.921C70.3483 125.97 70.1404 125.973 69.9899 126.006C70.1513 125.751 70.2635 125.571 70.4522 125.273C69.8559 125.273 69.4181 125.278 68.9777 125.265C68.871 125.262 68.6987 125.128 68.6713 125.158C68.5427 125.303 68.1843 124.764 68.2226 125.311C68.0257 125.251 67.7494 125.251 67.6427 125.117C67.2898 124.668 66.822 124.778 66.2995 124.737C66.3186 124.293 66.1025 124.091 65.6867 124.181C65.4842 123.648 65.2955 123.147 65.0793 122.573C64.8906 122.854 64.7346 123.084 64.5295 123.393C64.5295 122.753 64.5842 122.285 64.5048 121.845C64.4611 121.593 64.1793 121.391 64.0261 121.15C63.7881 120.77 63.8647 120.704 64.2395 120.532C64.762 120.288 65.2325 119.938 65.7414 119.665C66.0779 119.484 66.4472 119.366 66.8001 119.21C67.3253 118.981 67.8424 118.726 68.3731 118.51C68.5865 118.425 68.83 118.412 68.9066 118.398C69.1938 118.992 69.4455 119.514 69.7136 120.069C69.8367 120.08 70.009 120.097 70.061 120.102C70.3948 121.054 70.3483 122.162 71.6997 122.387C71.5492 123.484 72.4356 124.157 72.8186 124.98C72.4055 125.223 72.0088 125.483 71.5848 125.686ZM79.1134 122.477C79.5457 122.157 79.6524 121.99 79.1463 121.662C78.6265 121.322 78.2626 120.753 77.7702 120.362C77.6033 120.228 77.2504 120.327 76.9851 120.332C76.8647 120.332 76.6923 120.428 76.6376 120.379C76.1042 119.897 75.5844 119.402 75.0783 118.89C74.7938 118.606 74.5558 118.278 74.2713 117.996C74.1947 117.922 74.025 117.941 74.0278 117.848C73.8062 117.487 73.6338 117.079 73.3493 116.778C72.9855 116.395 72.5067 116.144 72.5587 115.476C72.5724 115.296 72.214 115.088 71.924 114.784C71.6368 113.337 71.3194 111.726 71.013 110.177C70.7997 110.188 70.5425 110.202 70.258 110.215C70.3811 109.707 70.4686 109.326 70.5671 108.949C70.6054 108.798 70.6437 108.64 70.7176 108.506C70.9337 108.131 70.7641 107.083 70.5261 106.933C70.5261 106.492 70.5234 106.106 70.5261 105.721C70.5288 105.466 70.5343 105.215 70.5507 104.96C70.5589 104.826 70.6492 104.67 70.6054 104.564C70.31 103.85 70.5972 103.136 70.5753 102.427C70.5343 100.881 71.0076 99.4013 71.065 97.8775C71.0842 97.355 71.1553 96.92 71.3796 96.4276C71.6723 95.782 71.7216 95.0187 71.8529 94.3047C72.0061 93.4867 72.0936 92.6578 72.2934 91.8563C72.3836 91.4979 72.7174 91.2079 72.8706 90.855C72.9472 90.6827 72.8542 90.4446 72.8624 90.234C72.8761 89.9659 72.8678 89.6841 72.9527 89.4352C73.4752 87.9087 73.8117 86.3274 74.5667 84.872C75.5297 83.0145 76.5391 81.198 77.8796 79.5758C78.145 79.2529 78.3146 78.8481 78.5827 78.528C78.9548 78.0875 79.3788 77.6936 79.7755 77.2723C79.9998 77.0343 80.2104 76.7799 80.4348 76.5391C81.5236 75.3655 82.6069 74.1864 83.7149 73.032C84.2811 72.4383 84.8611 71.8474 85.4985 71.3331C86.1551 70.8024 86.9047 70.3893 87.5859 69.8859C88.2835 69.3662 88.9455 68.7971 89.6294 68.2582C89.7416 68.1707 89.892 68.1351 90.0097 68.053C90.4747 67.7275 90.9097 67.35 91.3994 67.0709C91.9465 66.7645 92.5703 66.5922 93.1065 66.2721C93.8479 65.8316 94.5372 65.3037 95.3142 64.7675C95.3361 64.7675 95.533 64.8304 95.637 64.7565C96.1322 64.4036 96.5726 63.9632 97.0896 63.6486C97.5055 63.3969 98.017 63.3066 98.463 63.1014C98.7174 62.9838 98.9745 62.8114 99.1469 62.6008C99.404 62.2807 99.5764 62.3847 99.8117 62.7431C99.9813 62.464 100.11 62.2506 100.282 61.9634C100.427 61.9497 100.739 61.9853 100.993 61.8813C101.954 61.4928 102.898 61.0688 103.839 60.6393C104.038 60.549 104.189 60.3521 104.386 60.2481C104.613 60.1277 104.862 60.0429 105.111 59.9718C105.425 59.8815 105.748 59.8213 106.068 59.7447C106.096 59.7365 106.106 59.6627 106.131 59.6599C106.722 59.5751 106.722 59.5779 106.769 59.0635C107.127 59.3672 107.483 59.742 107.882 59.1566C107.901 59.1265 108.043 59.1976 108.128 59.1976C108.448 59.1976 108.771 59.2195 109.086 59.173C109.884 59.0581 110.678 58.9131 111.468 58.7626C111.529 58.7489 111.559 58.5766 111.586 58.5191C111.936 58.5191 112.314 58.5629 112.675 58.5109C113.616 58.3687 114.552 58.1772 115.49 58.0185C115.753 57.972 116.053 58.0322 116.283 57.931C116.644 57.7696 116.962 57.5069 117.227 57.3346C117.438 57.4139 117.687 57.548 117.952 57.5835C118.053 57.5972 118.187 57.3866 118.34 57.2471C118.625 57.2799 119.027 57.1021 119.301 57.5042C119.331 57.5507 119.514 57.5015 119.626 57.4851C119.971 57.4385 120.318 57.3838 120.666 57.3346C120.701 57.3291 120.762 57.3483 120.775 57.3291C121.268 56.6534 121.911 57.3619 122.491 57.1568C122.756 57.061 123.314 57.2197 123.257 57.8188C123.309 57.8407 123.36 57.8626 123.412 57.8845C123.522 57.682 123.631 57.4796 123.757 57.2443C123.858 57.3647 123.987 57.5124 124.116 57.6629C124.118 57.6109 124.121 57.5589 124.124 57.5069C124.86 57.5589 125.598 57.5972 126.331 57.682C126.427 57.693 126.496 57.9447 126.613 58.1471C126.72 57.9146 126.829 57.6793 126.966 57.3866C127.212 57.8352 127.527 58.0295 128.011 57.8516C128.115 57.8133 128.285 57.9337 128.416 57.9994C128.534 58.0568 128.638 58.1909 128.755 58.2018C129.209 58.2428 129.674 58.2018 130.118 58.2866C130.481 58.355 130.821 58.5574 131.174 58.6942C131.354 58.7654 131.546 58.8201 131.729 58.8885C131.838 58.9268 131.964 58.9541 132.046 59.0307C132.416 59.3645 132.572 59.3918 132.911 59.1921C133.13 59.3535 133.299 59.5587 133.507 59.6134C134.533 59.876 135.217 60.6147 136.008 61.2412C137.012 62.04 137.452 63.1698 138.068 64.1957C138.431 64.8003 138.637 65.5034 139.006 66.3815C139.044 66.2858 139.102 66.1545 139.156 66.0286C139.323 66.2885 138.475 66.8794 139.446 66.997C139.022 67.7603 139.528 68.4524 139.641 69.1883C139.78 70.1103 139.92 71.0295 140.089 71.9459C140.13 72.1511 140.294 72.3344 140.404 72.5286C140.453 72.5067 140.502 72.4876 140.552 72.4657C140.428 72.7694 140.305 73.073 140.166 73.4204C140.497 73.3575 140.74 73.311 140.984 73.2645C140.992 73.3302 141.003 73.3931 141.014 73.4587C140.822 73.5025 140.631 73.5436 140.393 73.5983C140.579 73.943 140.177 74.367 140.647 74.7199C140.776 74.8157 140.573 75.319 140.573 75.6336C140.562 77.0234 139.961 78.2845 139.745 79.6277C139.654 80.1858 139.517 80.7357 139.414 81.291C139.378 81.4771 139.383 81.6686 139.364 81.9257C139.061 82.0625 138.85 82.3251 138.844 82.8203C138.839 83.2224 138.612 83.6191 138.492 84.0212C138.39 84.3632 138.322 84.7161 138.196 85.0499C138.144 85.1894 137.985 85.2906 137.868 85.4165C138.155 85.9226 137.712 86.2645 137.542 86.6612C137.02 87.8813 136.47 89.0905 135.926 90.3024C135.767 90.6553 135.586 90.9973 135.422 91.3447C135.211 91.8016 135.039 92.283 134.79 92.718C134.314 93.5442 133.797 94.3457 133.269 95.1336C133.064 95.5358 132.903 95.968 132.645 96.3346C131.792 97.552 130.906 98.7502 130.027 99.9539C128.87 101.541 127.787 103.193 126.523 104.689C125.664 105.702 124.548 106.495 123.547 107.387C122.95 107.923 122.387 108.503 121.752 108.993C120.849 109.687 119.889 110.306 118.97 110.979C118.507 111.315 118.075 111.693 117.637 112.059C116.932 112.648 116.256 113.279 115.52 113.827C114.937 114.262 114.278 114.593 113.66 114.984C112.946 115.435 112.232 115.889 111.542 116.379C111.395 116.483 111.348 116.732 111.233 116.962C110.56 116.573 110.295 117.282 109.835 117.512C109.575 117.643 109.351 117.845 109.091 117.977C108.604 118.22 108.093 118.417 107.617 118.677C107.472 118.756 107.4 118.975 107.39 118.992C107.012 119.134 106.752 119.219 106.503 119.325C105.915 119.585 105.335 119.859 104.747 120.116C104.449 120.247 104.093 120.305 103.85 120.499C103.658 120.652 103.601 120.969 103.467 121.254C103.319 121.068 103.168 120.876 103.059 120.737C102.148 121.183 101.278 121.61 100.504 121.987C100.17 121.963 99.9211 121.905 99.6858 121.935C99.3931 121.971 99.1059 122.14 98.8186 122.138C98.4274 122.135 98.2551 122.261 98.2468 122.652C98.2468 122.701 98.1101 122.786 98.0389 122.783C97.976 122.781 97.8885 122.693 97.8584 122.625C97.8064 122.504 97.7927 122.37 97.7517 122.192C97.4316 122.477 97.2155 122.972 96.6629 122.597C96.5972 122.551 96.2717 122.882 96.0309 123.065C96.0063 122.925 95.9844 122.789 95.9352 122.488C95.2704 122.748 94.6385 122.994 94.012 123.24C94.0065 123.202 93.9846 123.07 93.96 122.939C93.908 122.945 93.8588 122.934 93.8369 122.956C93.4867 123.267 93.2022 123.432 92.6387 123.229C92.1162 123.043 91.4487 123.246 90.8441 123.284C90.6635 123.295 90.4747 123.298 90.3079 123.355C89.892 123.5 89.4872 123.672 89.0412 123.85C89.0412 123.85 88.9947 123.716 88.94 123.552C88.8716 123.618 88.7814 123.7 88.6582 123.815C88.5899 123.678 88.5215 123.541 88.4285 123.358C88.2807 123.552 88.1521 123.716 87.988 123.932C87.8321 123.782 87.6789 123.637 87.5257 123.492C87.5257 123.533 87.5257 123.571 87.5257 123.609C87.1317 123.588 86.7405 123.566 86.259 123.538C86.2508 123.555 86.2071 123.659 86.1715 123.738C85.7393 123.946 85.608 122.739 85.0553 123.527C84.8119 123.008 84.7216 122.999 84.2538 123.486C84.1307 123.377 84.0048 123.267 83.8434 123.122C83.7039 123.229 83.5562 123.341 83.4057 123.459C82.1391 122.575 80.681 122.428 79.1134 122.477ZM100.974 137.98C100.879 138.117 100.424 138.002 100.134 137.925C99.8582 138.035 99.6475 138.563 99.2098 137.98C99.1633 138.218 99.1277 138.393 99.0949 138.568C99.0566 138.563 99.0183 138.56 98.98 138.557C98.9171 138.374 98.8514 138.188 98.8131 138.076C98.4548 138.095 98.1566 138.109 97.7517 138.13C97.7489 138.169 97.7325 138.355 97.7134 138.579C97.1553 138.407 96.5644 138.3 96.0473 138.046C95.2321 137.641 94.4798 137.118 93.681 136.678C93.0572 136.336 92.3952 136.068 91.7769 135.723C91.5006 135.57 91.29 135.307 91.0465 135.099C90.855 134.932 90.6799 134.711 90.4556 134.623C90.0808 134.481 89.6732 134.424 89.2793 134.331C89.3203 134.27 89.427 134.104 89.5774 133.866C89.2847 133.762 89.0084 133.666 88.7048 133.559C88.7239 133.16 88.2014 132.697 87.7035 132.738C87.5804 132.52 87.5311 132.29 87.3998 132.221C86.642 131.825 86.0676 131.215 85.4438 130.651C84.8119 130.082 84.117 129.576 83.4303 129.07C83.2689 128.952 83.0255 128.949 82.782 128.884C82.8093 128.774 82.8476 128.613 82.8805 128.473C82.533 128.162 82.2048 127.866 81.8765 127.568C81.9066 127.527 81.9367 127.483 81.964 127.439C83.2115 127.623 84.4508 127.874 85.7037 127.967C86.9211 128.058 88.1494 127.987 89.3859 127.987C89.4707 127.915 89.6157 127.792 89.7662 127.669C90.182 128.225 90.6362 128.621 91.331 128.843C92.0669 129.081 92.7399 129.549 93.4047 129.973C94.2746 130.528 95.1117 131.138 95.9571 131.732C96.496 132.112 97.0596 132.465 97.5492 132.903C98.2113 133.496 98.7967 134.175 99.4451 134.782C99.7186 135.036 100.091 135.181 100.375 135.425C100.602 135.616 100.739 135.909 100.955 136.117C101.303 136.453 101.702 136.733 102.039 137.077C102.208 137.252 102.282 137.518 102.468 137.871C101.836 137.619 101.387 137.392 100.974 137.98ZM106.509 135.504C106.566 135.455 106.624 135.403 106.681 135.354C106.9 135.611 107.121 135.871 107.409 136.21C106.621 136.311 106.676 135.811 106.509 135.504ZM109.975 135.417C109.917 135.378 109.731 135.444 109.666 135.515C109.22 136.027 108.629 136.142 107.997 136.153C107.931 136.155 107.866 136.183 107.701 136.221C107.887 136.426 108.019 136.568 108.147 136.711C108.12 136.754 108.093 136.798 108.065 136.842C107.855 136.713 107.644 136.585 107.431 136.453C107.499 136.191 107.556 135.967 107.6 135.794C107.19 135.343 106.793 134.908 106.366 134.44C106.142 134.7 106.005 134.859 105.74 135.162C105.74 134.88 105.704 134.73 105.745 134.604C105.904 134.12 105.737 133.751 105.28 133.565C105.105 133.493 104.955 133.362 104.728 133.214C104.673 133.324 104.632 133.502 104.52 133.595C104.427 133.674 104.252 133.658 104.06 133.69C104.591 132.872 104.793 132.777 103.863 132.416C103.628 132.323 103.352 132.123 103.261 131.904C103.043 131.371 102.61 131.185 102.14 130.996C102.052 130.963 101.997 130.826 101.954 130.725C101.915 130.64 101.954 130.49 101.899 130.454C101.36 130.079 100.81 129.721 100.096 129.248C99.7734 128.81 99.2071 128.312 98.5204 127.959C98.4493 127.926 98.2934 128.052 98.1812 128.112C98.0553 128.178 97.935 128.249 97.8119 128.32C97.8283 128.183 97.8392 128.047 97.8611 127.913C97.8775 127.817 97.9131 127.727 97.9787 127.5C97.645 127.48 97.3495 127.464 97.0322 127.445C97.0322 127.335 97.0322 127.117 97.0322 126.941C98.1402 126.786 99.2071 126.657 100.266 126.474C101.078 126.334 101.669 126.602 102.003 127.349C102.197 127.784 102.361 127.855 102.939 127.705C103.034 127.965 103.092 128.255 103.239 128.49C103.86 129.491 104.558 130.419 105.529 131.13C106.235 131.647 106.848 132.29 107.543 132.823C108.355 133.447 109.22 134.005 110.046 134.612C110.224 134.741 110.33 134.965 110.505 135.192C110.415 135.304 110.418 135.715 109.975 135.417ZM135.967 117.947C135.261 118.636 134.552 119.325 133.822 119.987C133.335 120.433 132.804 120.83 132.303 121.259C130.977 122.395 129.661 123.547 128.326 124.671C127.798 125.117 127.231 125.519 126.673 125.927C125.388 126.868 124.069 127.765 122.742 128.649C121.73 129.324 120.682 129.945 119.703 130.662C119.298 130.957 118.858 131.127 118.431 131.354C117.717 131.732 116.94 132.033 116.294 132.498C115.618 132.987 115.096 132.459 114.508 132.432C114.434 132.429 114.374 132.109 114.223 132.005C114.103 131.879 114.002 131.723 113.857 131.633C113.394 131.346 113.531 131.94 113.249 132.044C113.307 131.77 113.356 131.521 113.435 131.13C113.162 131.338 113.006 131.455 112.812 131.6C112.812 131.362 112.812 131.16 112.812 130.957C112.773 130.982 112.735 131.007 112.697 131.031C112.552 130.84 112.404 130.654 112.267 130.46C111.955 130.011 111.438 129.943 110.957 130.271C110.875 130.328 110.754 130.323 110.64 130.35C110.713 129.209 110.713 129.209 110.33 129.281C109.931 128.919 109.529 128.646 109.253 128.277C108.973 127.91 108.306 128.318 108.175 127.584C108.117 127.262 107.483 127.045 107.045 126.734C106.965 126.794 106.788 126.928 106.582 127.084C106.443 126.786 106.268 126.504 106.815 126.465C106.796 126.414 106.788 126.378 106.769 126.351C106.517 125.984 106.257 125.623 106.013 125.254C105.91 125.095 105.833 124.92 105.806 124.868C106.377 124.55 106.82 124.296 107.269 124.058C107.581 123.891 107.898 123.735 108.218 123.593C108.407 123.508 108.694 123.516 108.787 123.38C109.135 122.874 109.731 122.86 110.185 122.584C110.724 122.255 111.206 121.837 111.734 121.487C111.851 121.407 112.089 121.5 112.207 121.421C112.891 120.959 113.553 120.463 114.226 119.987C114.448 119.831 114.68 119.689 114.918 119.566C115.711 119.156 116.305 118.505 116.962 117.922C117.968 117.03 119.06 116.231 120.064 115.337C120.628 114.833 121.087 114.212 121.607 113.654C121.686 113.569 121.823 113.537 121.93 113.474C122.072 113.392 122.222 113.318 122.346 113.211C123.224 112.451 124.102 111.687 124.964 110.905C125.27 110.629 125.527 110.295 125.812 109.994C125.918 109.882 126.036 109.715 126.159 109.704C126.553 109.668 126.682 109.381 126.887 109.113C127.223 108.678 127.639 108.303 128 107.928C128.192 108.257 128.416 108.536 128.531 108.853C128.906 109.89 129.352 110.339 130.233 111.118C130.75 111.578 131.338 111.961 131.874 112.407C132.779 113.156 133.666 113.933 134.569 114.691C135.263 115.277 135.964 115.854 136.675 116.417C136.795 116.516 136.99 116.524 137.277 116.612C136.806 117.093 136.396 117.531 135.967 117.947ZM140.078 113.706C139.887 113.961 139.87 113.939 139.646 113.682C139.613 113.641 139.501 113.679 139.433 113.657C139.362 113.632 139.301 113.578 139.206 113.52C139.468 113.389 139.654 113.299 139.838 113.206C139.698 113.05 139.556 112.894 139.457 112.782C139.145 112.916 138.924 113.011 138.699 113.107C138.678 113.055 138.656 113.006 138.631 112.954C138.754 112.869 138.875 112.787 139.104 112.631C138.817 112.631 138.667 112.631 138.5 112.631C138.565 112.426 138.617 112.259 138.683 112.054C138.418 112.084 138.256 112.103 138.095 112.122C138.114 111.991 138.155 111.857 138.139 111.728C138.128 111.638 138.057 111.534 137.983 111.474C137.843 111.367 137.685 111.288 137.509 111.187C137.509 111.384 137.509 111.627 137.509 111.964C137.061 111.933 136.618 111.901 136.112 111.865C136.464 111.485 136.793 111.129 137.148 110.743C136.73 110.505 136.317 110.311 135.956 110.046C135.77 109.909 135.726 109.584 135.54 109.444C135.294 109.255 134.911 109.228 134.692 109.02C134.268 108.612 133.879 108.191 133.239 108.15C133.184 108.145 133.141 108.005 133.091 107.931C133.02 107.939 132.949 107.948 132.878 107.956C132.971 107.83 133.061 107.701 133.121 107.622C132.878 107.373 132.673 107.05 132.38 106.903C132.098 106.763 131.723 106.815 131.392 106.763C131.239 106.741 131.031 106.722 130.955 106.618C130.859 106.489 130.875 106.279 130.81 105.937C131.094 106.134 131.209 106.213 131.324 106.293C131.376 106.251 131.428 106.21 131.48 106.167C131.365 106.035 131.231 105.912 131.141 105.765C131.026 105.57 130.947 105.354 130.815 105.07C130.662 105.034 130.413 104.971 130.219 104.925C131.767 102.753 133.318 100.578 134.919 98.3316C135.378 99.0156 135.827 99.6776 136.284 100.362C136.36 100.342 136.511 100.301 136.514 100.301C136.618 100.649 136.667 100.89 136.76 101.111C136.927 101.508 137.118 101.891 137.326 102.331C137.436 102.233 137.501 102.14 137.592 102.104C137.665 102.071 137.775 102.082 137.851 102.118C137.884 102.134 137.892 102.271 137.865 102.328C137.652 102.769 137.824 103.037 138.207 103.283C138.379 103.393 138.456 103.642 138.601 103.806C139.093 104.367 139.6 104.914 140.095 105.472C140.297 105.699 140.478 105.951 140.688 106.172C140.899 106.391 141.142 106.577 141.356 106.796C141.531 106.976 141.673 107.184 141.84 107.37C141.939 107.477 142.048 107.576 142.168 107.655C142.239 107.701 142.376 107.669 142.423 107.721C142.776 108.117 143.112 108.528 143.566 109.069C142.431 110.582 141.26 112.15 140.078 113.706ZM148.482 100.476C148.203 101.035 147.864 101.562 147.574 102.115C147.322 102.597 147.117 103.103 146.868 103.587C146.652 104.003 146.4 104.402 146.173 104.796C145.87 104.681 145.522 104.55 145.126 104.397C145.161 104.293 145.202 104.156 145.254 104.003C144.726 103.483 144.182 102.944 143.758 102.525C143.339 102.028 143.019 101.645 142.694 101.27C142.57 101.125 142.374 101.018 142.305 100.854C142.043 100.238 141.692 100.066 140.987 100.323C141.112 100.036 141.222 99.7952 141.331 99.5463C141.055 99.4314 140.806 99.3247 140.658 99.2618C140.513 98.8651 140.393 98.5286 140.264 98.173C140.043 98.2933 139.887 98.3782 139.567 98.5505C139.941 97.8228 139.857 97.4316 139.227 97.158C138.992 97.0568 138.869 96.6902 138.694 96.4413C138.552 96.4659 138.396 96.4905 138.24 96.5151C138.232 96.3346 138.243 96.1513 138.215 95.9735C138.182 95.7738 138.18 95.5166 138.057 95.3908C137.08 94.4169 137.099 94.4388 137.742 93.2132C138.36 92.0396 138.899 90.8249 139.496 89.6404C139.641 89.3504 139.879 89.1124 140.119 88.7896C140.273 89.2136 140.666 89.5063 140.382 89.9796C140.366 90.0042 140.368 90.0671 140.39 90.089C140.699 90.4556 141.014 90.8167 141.375 91.2353C141.162 91.5143 141.287 91.807 141.687 92.1189C141.922 92.3049 141.971 92.7071 142.188 92.9369C143.323 94.1515 144.409 95.4318 145.662 96.5097C146.458 97.1936 147.139 98.0389 148.094 98.5423C148.387 98.6982 148.682 98.8487 149.081 99.0539C148.901 99.4916 148.72 99.9977 148.482 100.476ZM152.156 89.2957C151.691 89.7416 151.664 90.7675 151.987 91.1641C151.754 91.8016 151.546 92.3432 151.358 92.8904C151.18 93.3992 151.051 93.9244 150.846 94.4196C150.693 94.7889 150.395 94.7205 150.074 94.2746C149.785 94.4278 149.492 94.5865 149.049 94.8218C149.393 94.4059 149.623 94.1269 149.894 93.7931C149.136 93.5497 149.079 94.2883 148.709 94.4661C148.181 93.8287 149.002 93.6536 149.024 93.2843C148.641 92.8521 148.302 92.4335 147.922 92.056C147.56 91.6976 146.994 91.8645 146.554 91.6976C146.562 91.6484 146.573 91.5964 146.584 91.5471C146.778 91.5471 146.975 91.5471 147.169 91.5471C147.183 91.4979 147.194 91.4486 147.205 91.3994C146.948 91.3283 146.69 91.2599 146.398 91.1805C146.425 91.0191 146.45 90.8742 146.472 90.7401C146.302 90.6471 146.102 90.5951 145.987 90.4665C145.659 90.089 145.38 89.6704 145.052 89.2957C144.923 89.1479 144.721 89.0713 144.475 88.9099C144.412 88.7622 144.302 88.4914 144.187 88.2069C143.955 88.2698 143.665 88.3491 143.301 88.4476C143.26 88.2643 143.205 88.0154 143.14 87.7226C143.78 87.5859 143.856 87.3561 143.328 86.9457C143.074 86.7487 142.937 86.4013 142.705 86.1633C142.568 86.0238 142.343 85.9718 142.103 85.8514C142.116 85.8377 142.012 85.928 141.906 86.0183C141.862 85.8241 141.821 85.6271 141.777 85.4329C141.766 85.452 141.753 85.4712 141.739 85.493C141.662 85.3727 141.495 85.2304 141.52 85.1401C141.717 84.4261 141.96 83.7258 142.177 83.02C142.505 81.9394 142.83 80.8588 143.145 79.7755C143.484 78.6183 143.843 77.4611 144.133 76.2902C144.382 75.2752 144.562 74.2439 144.74 73.2125C144.773 73.0128 144.65 72.7858 144.57 72.452C144.639 72.3426 144.754 72.1538 144.89 71.935C145.396 72.7037 145.881 73.4697 146.398 74.2111C146.638 74.5558 146.898 74.9497 147.385 74.7008C147.339 74.8649 147.235 75.0345 147.27 75.1686C147.333 75.3956 147.435 75.6665 147.61 75.7978C147.845 75.9701 148.129 75.9455 148.094 76.4324C148.066 76.7744 148.406 77.2696 148.723 77.4747C149.147 77.751 149.246 78.0985 149.393 78.517C149.664 79.2885 150.039 80.0271 150.367 80.7795C150.512 81.1132 150.624 81.4688 150.808 81.7807C150.882 81.9038 151.106 81.9394 151.18 81.975C151.152 82.1582 151.037 82.4072 151.114 82.5166C151.377 82.8805 151.204 83.537 151.836 83.6793C151.62 84.2565 151.749 85.3809 151.951 85.463C151.973 85.928 151.989 86.3356 152.014 86.746C152.017 86.8308 152.082 86.9484 152.047 86.9922C151.702 87.3998 152.178 87.4299 152.323 87.6105C151.858 88.0619 151.806 88.5734 152.156 89.2957ZM91.9411 21.549C92.8439 20.9444 93.7767 20.3809 94.7041 19.8119C95.7793 19.1498 96.8462 18.4659 97.9541 17.8641C98.4548 17.5932 99.0539 17.5084 99.5983 17.3114C99.746 17.2595 99.8554 17.0981 100.074 17.0269C100.028 17.1774 99.9785 17.3306 99.8883 17.6233C100.649 17.4783 101.355 17.3415 102.071 17.2048C102.039 17.3798 101.992 17.6206 101.915 18.0419C102.189 17.8723 102.32 17.7628 102.471 17.7109C102.597 17.6671 102.744 17.689 102.881 17.6835C102.884 17.8039 102.925 17.9434 102.878 18.0391C102.714 18.3674 102.504 18.6711 102.339 18.9966C101.929 19.8201 101.576 20.6791 101.111 21.4724C100.791 22.0196 100.296 22.4108 99.653 22.6433C99.1031 22.843 98.6216 23.2369 98.0991 23.5215C97.5684 23.8114 97.0185 24.0659 96.4878 24.3558C95.9379 24.654 95.3963 24.9686 94.8601 25.2915C94.0065 25.803 93.1749 26.3529 92.3077 26.8371C91.4705 27.3077 90.6061 27.7372 89.7361 28.1502C89.3066 28.3554 88.3737 27.9943 88.0181 27.5758C87.8977 27.4335 87.7199 27.2967 87.5448 27.2475C86.8718 27.0587 86.6831 26.4541 87.1536 25.9371C87.9689 25.0398 88.7321 24.085 89.6157 23.2588C90.3133 22.605 91.1423 22.0852 91.9411 21.549ZM79.3979 11.9714C79.8548 11.1808 80.2652 10.3382 80.8561 9.65972C82.3826 7.90341 83.9857 6.21275 85.5806 4.51662C86.4423 3.6029 87.3314 2.7138 88.2479 1.85753C88.65 1.48001 89.137 1.18729 89.6157 0.902774C89.7252 0.839853 89.955 0.976639 90.1547 1.02862C90.3626 0.971167 90.6307 0.891832 90.9015 0.831647C91.6019 0.675712 91.6019 0.681183 92.138 0.161402C92.1681 0.350165 92.19 0.517043 92.242 0.853532C92.3761 0.476007 92.4554 0.259887 92.5402 0.0164108C92.7809 0.279037 92.9615 0.478742 93.142 0.675712C93.5661 1.25841 93.1913 1.76178 92.8876 2.31986C92.3624 3.28282 91.9794 4.32786 91.424 5.26894C90.7593 6.39604 89.9085 7.38636 88.8662 8.20707C88.2479 8.69128 87.698 9.26031 87.1126 9.78556C86.6776 10.1795 86.2071 10.4804 85.6271 10.6801C85.2551 10.8087 84.9979 11.2546 84.6587 11.5227C84.4644 11.6759 84.21 11.7471 83.9884 11.8674C83.8161 11.9604 83.6519 12.0671 83.4878 12.1738C83.4604 12.193 83.4413 12.2696 83.4303 12.2668C82.637 12.0753 82.5139 13.2298 81.7233 13.1176C81.5564 13.093 81.3211 13.4103 81.1488 13.5991C80.908 13.8617 80.7713 13.7414 80.5825 13.5307C80.3636 13.2872 80.0737 13.1122 79.8521 12.8714C79.6195 12.617 79.1271 12.4419 79.3979 11.9714ZM103.948 38.6744C104.241 38.7073 104.476 38.3981 104.867 38.7401C105.146 38.9863 105.759 38.8495 106.191 38.8824C106.126 39.2818 106.065 39.6401 105.989 40.0888C106.175 40.0177 106.268 40.0013 106.336 39.952C106.624 39.7523 106.651 39.1997 107.171 39.3255C107.504 39.4049 107.835 39.4979 108.156 39.6183C108.331 39.6839 108.478 39.8207 108.637 39.9274C108.489 40.1134 108.342 40.3022 108.156 40.5375C108.194 40.5949 108.27 40.718 108.347 40.8411C108.322 40.8794 108.306 40.9122 108.284 40.9396C108.049 41.2569 107.628 41.5661 107.617 41.8889C107.595 42.592 107.078 43.0625 106.957 43.7026C106.9 43.9981 106.005 44.1349 105.499 43.9844C104.9 43.8011 104.268 43.4017 103.71 43.4865C102.985 43.5932 102.378 43.2157 101.697 43.295C101.552 43.3114 101.385 43.1582 101.319 43.1282C100.835 43.1282 100.422 43.1582 100.014 43.1227C99.177 43.0461 98.318 43.0215 97.5109 42.8108C96.9337 42.6604 96.154 43.0488 95.8832 42.3622C95.5987 42.4497 95.399 42.5126 95.1965 42.5755C95.15 42.3704 95.1035 42.1652 95.0598 41.9682C94.7506 42.0913 94.3813 42.2965 93.9846 42.3813C93.6181 42.4606 93.153 42.5838 93.0709 41.9409C93.06 41.8506 92.7317 41.6947 92.6742 41.7357C92.0396 42.2062 91.7277 41.536 91.3064 41.339C91.1258 41.2542 91.0602 40.9205 90.9426 40.6989C91.0137 40.6633 91.0875 40.625 91.1587 40.5894C91.2435 40.7207 91.3283 40.8548 91.3584 40.904C91.5116 40.7317 91.6538 40.573 91.7961 40.4116C91.8836 40.3131 91.9657 40.2037 92.0642 40.1134C92.3569 39.8399 92.1982 39.1942 92.822 39.197C92.822 38.9973 92.822 38.7976 92.822 38.7729C93.3636 38.5814 93.867 38.4036 94.436 38.2039C94.9777 38.8167 95.4975 37.8264 96.1732 38.0945C96.403 38.3079 96.7313 38.6143 97.0076 38.8742C97.1416 38.5541 97.262 38.2723 97.3386 38.0917C97.9404 38.1437 98.4766 38.1902 99.084 38.2422C99.1715 38.4173 99.3192 38.71 99.467 39.0055C99.5162 38.9808 99.5682 38.9562 99.6174 38.9316C99.5572 38.8058 99.4971 38.6772 99.3931 38.4529C99.8992 38.2805 100.389 38.1109 100.993 37.903C100.939 38.2231 100.917 38.3434 100.898 38.4638C101.237 38.6061 101.593 37.4981 101.921 38.5377C102.082 38.472 102.255 38.4009 102.427 38.3298C102.843 38.8331 103.436 38.6143 103.948 38.6744ZM33.8952 40.3049C33.9964 39.3803 34.4588 38.617 34.9758 37.8811C35.1372 37.654 35.3369 37.4297 35.5667 37.2738C36.3245 36.7567 37.1069 36.2752 37.8729 35.7691C38.1711 35.5722 38.4282 35.3068 38.7428 35.1427C39.2654 34.8636 39.8043 34.4916 40.4253 34.8883C40.6715 35.0469 40.9122 35.2466 41.0928 35.4764C41.4211 35.8977 41.7521 36.3272 41.9928 36.8005C42.3594 37.5145 42.4005 38.2942 42.2774 39.0848C42.2199 39.4651 42.0831 39.8754 42.1707 40.2229C42.2828 40.6742 42.2117 41.0436 42.0394 41.4348C41.9874 41.5551 41.9846 41.7001 41.9655 41.8342C41.8342 42.7862 41.6947 43.7382 41.5743 44.693C41.4348 45.8283 41.3062 46.9636 41.1803 48.0989C41.1092 48.7199 41.049 49.3409 40.9888 49.9592C40.9642 50.2409 40.9998 50.5364 40.9232 50.799C40.7235 51.4693 40.6387 52.1286 40.863 52.807C40.8931 52.9 40.8822 53.0149 40.8657 53.1134C40.7864 53.6223 40.677 54.1284 40.6195 54.6399C40.5922 54.8697 40.5867 55.1515 40.6961 55.3375C40.9478 55.7752 40.6059 56.1364 40.6223 56.5139C40.6524 57.2088 40.7891 57.9036 40.9232 58.5875C41.0572 59.2633 41.2351 59.928 41.4074 60.5955C41.4731 60.839 41.5989 61.0688 41.6646 61.3123C41.8752 62.0947 42.198 62.8032 42.8026 63.3695C42.9886 63.5419 43.1829 63.7525 43.2567 63.9823C43.5686 64.9425 44.1759 65.6511 45.0103 66.2146C44.5808 66.7755 45.0869 67.0025 45.4234 67.2351C45.9487 67.5962 46.5177 67.8944 47.0648 68.2254C47.1934 68.302 47.311 68.395 47.4341 68.4825C47.4724 68.4305 47.5135 68.3813 47.5518 68.3293C47.3904 68.198 47.229 68.064 47.0539 67.919C47.746 67.8944 48.4162 67.8834 48.7719 68.5427C49.0126 68.3266 49.226 68.1351 49.4886 67.8971C49.4886 68.157 49.4886 68.2992 49.4886 68.5345C49.7649 68.3977 50.0467 68.1488 50.1698 68.2117C50.6404 68.4497 50.9413 68.0995 51.2668 67.9518C51.658 67.7767 51.9726 67.4375 52.3474 67.2104C52.8645 66.9013 53.4034 66.6223 53.9396 66.3432C54.1092 66.2557 54.3609 66.2611 54.4649 66.1326C54.7713 65.7633 55.0585 65.3666 55.291 64.9453C55.8382 63.9413 56.3443 62.9127 56.8832 61.9032C56.9762 61.7281 57.1486 61.5913 57.31 61.4053C57.1404 61.025 57.3647 60.6174 57.7723 60.5572C57.8516 60.1277 57.8763 59.7146 58.013 59.3371C58.1334 58.9952 58.3742 58.697 58.5684 58.3714C58.5219 58.3659 58.396 58.355 58.2976 58.3468C58.262 57.6738 59.1265 57.0692 58.3577 56.4482C58.4261 56.1911 58.4863 55.9722 58.5438 55.7643C58.3359 55.8272 58.1991 55.871 58.0213 55.9257C58.1772 55.5564 58.2811 55.3157 58.4261 54.9792C58.117 55.0257 57.9665 55.0503 57.8106 55.0749C57.972 54.6673 58.1115 54.3117 58.262 53.9287C58.0623 53.9287 57.9419 53.9287 57.9282 53.9287C57.9994 53.2776 58.0678 52.6511 58.1334 52.0246C58.0705 52.0027 58.0076 51.9808 57.9447 51.9617C57.8051 52.1669 57.6684 52.3748 57.5288 52.5827C57.4796 52.2188 57.4331 51.6717 57.5972 51.5979C58.2292 51.3161 58.0787 50.6923 58.2593 50.2519C58.448 49.7896 58.3249 49.2096 58.4097 48.6925C58.5766 47.6612 58.779 46.6353 58.9924 45.6149C59.1484 44.8653 59.2961 44.1075 59.5478 43.3908C59.7092 42.9394 59.9061 42.5482 59.5861 42.1816C59.7092 42.0175 59.8542 41.908 59.887 41.7713C60.0867 40.8739 60.3001 39.9794 60.4341 39.0739C60.5162 38.5158 60.3329 37.8948 60.5053 37.3832C60.9129 36.185 60.4888 35.0442 60.4341 33.8815C60.4287 33.7748 60.311 33.6736 60.3056 33.5642C60.2919 33.307 60.4205 32.8912 60.3028 32.8119C59.7694 32.4453 60.0511 31.9966 60.073 31.5699C60.0812 31.4385 60.0648 31.31 60.0566 31.1595C59.8761 31.1595 59.7256 31.1595 59.556 31.1595C59.8241 30.834 60.2207 30.5358 59.5368 30.254C59.4575 30.2212 59.4274 29.9804 59.4356 29.8409C59.4548 29.4716 59.5067 29.1023 59.5642 28.5743C59.162 28.7877 58.9268 28.908 58.6395 29.0612C58.1389 28.287 58.9596 27.5976 58.9952 26.766C58.1033 27.1627 58.645 26.1778 58.221 26.0821C58.158 26.0657 58.169 25.7155 58.1334 25.42C57.92 25.0726 57.641 24.6157 57.3346 24.1151C57.2498 24.2409 57.1568 24.3805 57.0008 24.613C56.9242 24.2136 56.7574 23.8826 56.8367 23.6282C57.0036 23.081 56.8449 22.7664 56.3333 22.5694C56.4209 22.5229 56.4838 22.4874 56.6425 22.4026C56.2677 22.3451 55.9804 22.2986 55.6221 22.2412C55.6904 21.9266 55.7561 21.6119 55.8245 21.2946C55.3758 21.2946 54.9737 21.2946 54.5715 21.2946C55.116 20.8897 55.1023 20.7584 54.6071 20.3891C54.4074 20.2414 54.2898 19.976 54.1557 19.7517C53.9259 19.3714 53.7399 18.9529 53.1572 19.1307C52.807 19.2374 52.4432 19.3085 51.9891 19.4207C52.2681 19.0404 52.4678 18.7668 52.6702 18.4905C52.6347 18.4413 52.6019 18.3893 52.5663 18.3401C52.1258 18.6738 51.9261 18.4495 51.7073 18.1021C51.5513 17.8531 51.2969 17.5303 51.0535 17.5029C50.7005 17.4592 50.5282 17.3032 50.3148 17.0734C50.2027 16.9531 49.9619 16.9449 49.7759 16.9093C49.5844 16.8737 49.3874 16.8683 49.1385 16.8436C49.0947 17.0133 49.0455 17.213 49.0099 17.3415C48.2931 17.4017 48.0196 16.7999 47.6995 16.4087C47.4177 16.064 47.1934 16.1023 46.8678 16.1077C46.6654 16.1105 46.4602 16.012 46.1292 15.9272C46.1292 15.9272 45.8939 16.0995 45.8556 16.064C45.5191 15.7521 45.0979 16.0065 44.7805 15.8889C44.2689 15.7001 43.9926 15.826 43.7574 16.4825C43.7109 16.2008 43.7081 16.1159 43.6835 16.0393C43.6233 15.8451 43.5768 15.5059 43.4838 15.4922C43.0871 15.432 42.5701 15.3144 42.2938 15.5032C41.722 15.8944 41.3828 15.5551 40.9505 15.287C40.7946 15.4813 40.6496 15.6673 40.3979 15.9792C40.2721 15.3883 40.1545 14.8192 39.4623 15.2351C39.1505 14.8603 38.9918 15.1229 38.8222 15.3828C38.7976 15.4238 38.6936 15.4457 38.6444 15.4293C38.3079 15.3253 37.9823 15.1776 37.6404 15.0983C37.241 15.0053 36.8032 14.8466 36.4339 14.9341C36.1111 15.008 35.8622 15.3828 35.6105 15.5989C35.408 15.3746 35.2029 15.1502 34.9457 14.8712C34.6803 15.4867 34.2782 15.6153 33.6545 15.0436C33.8295 15.38 33.9198 15.5524 34.0511 15.8041C33.7557 15.7877 33.5396 15.774 33.3098 15.7576C33.2742 15.5551 33.2414 15.3691 33.2085 15.1858C32.8748 15.246 32.5191 15.2487 32.21 15.3746C31.6738 15.5962 31.1568 15.8697 30.6561 16.1597C30.3169 16.354 30.0461 16.6822 29.6959 16.8354C29.0147 17.1364 28.2186 17.2266 27.9533 18.1103C27.9177 18.2334 27.6797 18.3127 27.5183 18.3756C27.2229 18.4878 26.8891 18.5288 26.6237 18.6875C26.3146 18.8681 26.041 19.1279 25.7839 19.3824C24.4844 20.6709 23.1576 21.932 21.9184 23.2752C21.1031 24.1589 20.4493 25.1875 19.6723 26.1094C18.7285 27.2256 18.1212 28.5332 17.4646 29.8108C17.2485 30.2321 17.0434 30.6698 16.9202 31.1239C16.7041 31.9173 16.6111 32.7489 16.3622 33.5286C16.064 34.4533 15.7384 35.3479 16.2008 36.3053C16.2199 36.3436 16.2062 36.423 16.1761 36.4558C15.8588 36.7978 15.7931 37.0987 15.9299 37.6157C16.0777 38.1738 15.815 38.8304 15.815 39.4432C15.8096 40.9943 16.3758 42.354 17.3251 43.5631C17.5768 43.8832 17.9817 44.1431 18.0884 44.5015C18.4413 45.6778 19.396 46.3399 20.2195 47.084C20.8596 47.6612 21.6749 48.0442 22.4245 48.501C23.0974 48.9114 23.7239 49.5844 24.6212 48.9716C24.6322 48.9634 24.6814 49.0126 24.7142 49.0345C24.7525 49.6282 24.8975 49.7348 26.331 49.0564C26.7031 49.5762 27.7344 49.6555 28.2077 49.1193C28.7412 48.5202 29.6385 48.5995 30.1582 47.8691C30.4045 47.5244 30.9434 47.2673 31.2033 46.8104C31.2388 46.7475 31.2525 46.6326 31.2963 46.6216C32.0185 46.4438 32.1197 45.7489 32.3878 45.2374C33.0088 44.0446 33.5478 42.8108 34.1195 41.5907C33.9335 41.3609 33.846 41.1229 33.8241 40.8767C33.8049 40.6907 33.8733 40.4964 33.8952 40.3049ZM31.7696 35.2247C30.9872 36.4476 30.4072 37.8018 29.7753 39.1176C29.6822 39.3091 29.7889 39.5936 29.8108 39.9356C29.0229 40.3377 29.1515 41.2186 29.0804 42.0393C29.0585 42.2801 28.9545 42.5236 28.8424 42.7424C28.6098 43.1993 28.7822 43.4099 29.25 43.4564C29.146 43.7355 29.053 43.9844 28.96 44.2334C29.064 44.206 29.1679 44.1759 29.4497 44.1021C29.2391 44.5288 29.0804 44.8516 28.9053 45.2073C28.7904 45.1608 28.681 45.1389 28.5962 45.0814C28.1776 44.8024 27.8356 44.7149 27.3241 45.0431C27.0095 45.2483 26.435 45.0732 25.9809 45.0267C25.7702 45.0048 25.5732 44.8571 25.3598 44.8243C24.5528 44.7012 23.9729 44.1349 23.4312 43.6452C22.7828 43.0625 22.8567 43.544 22.7555 43.9489C22.5503 43.7738 22.3533 43.6042 22.2056 43.4783C22.4053 43.2814 22.6871 43.1282 22.6871 42.975C22.6871 42.7616 22.4819 42.54 22.3479 42.3348C22.2959 42.2527 22.1728 42.2144 22.1208 42.1324C21.6475 41.3883 21.1441 40.6606 20.7256 39.8864C20.4575 39.3885 20.3152 38.8222 20.1155 38.286C20.0772 38.182 20.0663 37.996 20.0088 37.9823C19.6286 37.8866 19.7927 37.6212 19.8091 37.4078C19.8666 36.5242 19.935 35.6406 19.976 34.7569C19.9815 34.6448 19.8474 34.5299 19.935 34.4451C20.0553 33.5095 20.1648 32.5739 20.2988 31.641C20.3645 31.2033 20.4575 30.7656 20.5669 30.3361C20.7803 29.5017 20.991 28.6673 21.5271 27.956C22.2521 26.9931 22.9059 25.9754 23.6829 25.0589C24.1808 24.4735 24.8483 24.0303 25.4419 23.5242C25.6307 23.3628 25.8085 23.1822 26.0164 23.0537C27.0423 22.4108 28.0737 21.7843 29.1023 21.1524C29.198 21.0922 29.3047 21.0375 29.3758 20.9554C29.871 20.3918 30.5713 20.2687 31.2361 20.0581C31.3702 20.017 31.4796 19.9021 31.5808 19.8338C31.7915 19.8338 32.0596 19.8502 32.3249 19.831C32.8939 19.79 33.463 19.7243 34.032 19.6833C34.4177 19.6559 34.8035 19.6313 35.1892 19.6423C36.0646 19.6669 36.94 19.7271 37.8154 19.7489C38.3845 19.7626 38.9535 19.7243 39.5225 19.738C39.7085 19.7435 39.8918 19.8474 40.0751 19.9076C40.1654 19.9404 40.2666 20.028 40.3405 20.0061C41.008 19.8146 41.6208 20.0964 42.2609 20.1757C43.0051 20.266 43.7929 20.1128 44.5152 20.2715C45.779 20.5505 47.0265 20.9362 48.2494 21.3712C49.3519 21.7624 50.3996 22.3342 51.1164 23.2889C51.5267 23.8306 52.2216 24.1288 52.3939 24.8838C52.4651 25.1902 52.7304 25.4966 53.1928 25.3079C53.1271 26.2353 53.6879 26.8617 54.205 27.5183C54.35 27.6989 54.3828 27.9642 54.4867 28.1803C54.7384 28.7029 54.9545 29.2527 55.2801 29.7287C55.5427 30.1117 55.4524 30.3032 55.0667 30.492C55.2336 30.7847 56.2786 30.7437 55.4333 31.3127C55.7616 32.4781 55.7835 33.7092 56.5795 34.6749C56.1719 34.8281 56.2239 35.1372 56.4646 35.5667C56.5905 35.7938 56.5002 36.133 56.5467 36.4148C56.6042 36.754 56.6999 37.085 56.782 37.4297C56.1336 37.5173 57.0255 38.0261 56.7437 38.2723C57.0337 38.5814 56.7847 38.8906 56.7656 39.2079C56.7327 39.766 56.7656 40.3323 56.8039 40.8931C56.8148 41.0354 56.9543 41.1694 57.0446 41.3253C56.5276 42.0202 56.1692 42.8026 56.2978 43.7574C56.3306 43.9981 56.1829 44.2607 56.1117 44.5124C56.1035 44.5452 56.0461 44.5644 56.0379 44.5972C55.8874 45.3112 55.7479 46.0252 55.592 46.7365C55.5181 47.0758 55.3211 47.4177 55.343 47.7433C55.3813 48.2548 54.774 48.6707 55.1816 49.2397C55.2774 49.371 55.1105 49.6938 55.053 49.9263C54.919 50.4707 54.763 51.0124 54.6427 51.5596C54.5278 52.0848 54.4184 52.6018 54.5798 53.1545C54.6481 53.3897 54.4785 53.6852 54.4484 53.956C54.4293 54.1174 54.4156 54.3883 54.4949 54.432C55.1652 54.7986 54.8916 55.2992 54.5332 55.5537C54.1366 55.8354 54.3253 56.1856 54.3253 56.4154C54.3226 57.0364 54.4184 57.6875 54.6317 58.2702C55.0667 59.463 54.5305 60.5053 54.3007 61.6105C54.1256 62.4531 53.6441 62.9209 52.9055 63.23C52.7332 63.3011 52.5745 63.4407 52.4514 63.5856C51.8441 64.3024 50.8346 63.903 50.1561 64.42C50.1096 64.4556 49.9428 64.4146 49.8935 64.3544C49.6446 64.0671 49.4339 63.7416 49.1768 63.4653C48.9661 63.2382 48.7172 63.0713 48.4792 63.4762C48.419 63.5802 48.263 63.6267 48.1016 63.7334C48.1536 63.2902 48.1892 62.9674 48.2275 62.6446C48.181 62.6637 48.1345 62.6829 48.0907 62.702C47.9211 62.3819 47.7515 62.0619 47.5381 61.6652C47.0758 61.5722 46.7502 61.0032 46.8651 60.2782C46.4548 60.177 46.2359 59.7201 46.3043 59.0417C45.6176 59.1648 45.6368 58.8611 45.9131 58.396C45.9541 58.3249 45.9569 58.1744 45.9104 58.1197C45.3906 57.5179 45.6122 56.7492 45.4343 56.0734C45.2538 55.3895 45.0869 54.6947 45.0158 53.9943C44.9638 53.4827 45.1033 52.9575 45.1061 52.435C45.1061 52.2106 44.9693 51.9863 44.9118 51.8222C44.9884 51.1246 45.0732 50.4653 45.1252 49.8032C45.2045 48.7965 45.3359 47.787 45.303 46.783C45.2757 45.9432 45.6149 45.1635 45.5821 44.3483C45.5246 42.8218 45.9924 41.3746 46.1675 39.8864C46.2523 39.1833 46.3043 38.4747 46.3125 37.7662C46.3152 37.3941 46.1702 37.0248 46.1292 36.6473C46.1183 36.5379 46.2906 36.4148 46.2961 36.2944C46.3125 35.6871 46.3043 35.0798 46.3043 34.4533C46.0417 34.4314 45.8748 34.4177 45.6806 34.4013C45.7544 34.1332 45.8255 33.876 45.8967 33.6134C45.6477 33.5478 45.4644 33.4985 45.3632 33.4712C45.1115 32.7927 44.8817 32.169 44.6328 31.496C44.2252 31.6711 43.9106 31.8051 43.5495 31.9611C43.5276 31.8051 43.44 31.5945 43.4865 31.4167C43.6315 30.8394 43.4646 30.4975 42.8765 30.3005C42.6412 30.2212 42.4059 30.1008 42.1679 30.0899C42.0093 30.0816 41.8451 30.2348 41.6509 30.3333C41.3554 29.6521 40.6004 29.581 39.9684 29.3074C39.6894 29.1871 39.4131 29.053 39.1641 28.8862C38.9562 28.7439 38.1437 28.8369 37.9112 29.0585C37.5063 29.4442 37.1561 30.005 36.6747 30.161C35.3889 30.585 34.8035 31.6766 34.0183 32.5985C33.2687 33.4766 32.3824 34.2618 31.7696 35.2247ZM60.4834 65.5882C59.7885 65.6265 59.1019 65.5635 58.4918 65.8973C58.2401 65.911 57.9583 65.8563 57.7395 65.952C57.217 66.1791 56.7218 66.4718 56.2184 66.7454C55.8519 66.9478 55.4306 67.101 55.1351 67.3828C53.7372 68.7178 52.3502 70.0665 51.0015 71.4535C50.1534 72.3262 49.2807 73.166 48.8321 74.3916C48.6132 74.9935 48.9907 74.8567 49.2753 75.0646C48.7965 75.5543 48.4764 76.0741 48.9087 76.7197C49.2041 77.1629 49.5269 77.5896 49.8333 78.0274C49.9373 78.1696 50.0823 78.3064 50.1233 78.4651C50.3066 79.1435 50.6732 79.6961 51.2258 80.1065C51.6115 80.391 52.0602 80.588 52.4377 80.8807C53.5922 81.7752 54.8314 82.3333 56.3443 82.3032C57.206 82.2868 58.013 82.1665 58.7736 81.7917C59.2824 81.54 59.7666 81.2363 60.2563 80.9436C60.5764 80.7494 60.8582 80.4703 61.2001 80.3417C62.174 79.9806 62.9619 79.3077 63.468 78.4979C64.5896 76.7005 65.5745 74.7992 66.0013 72.6873C66.0861 72.2633 65.9383 71.79 65.8836 71.2127C66.2967 70.8243 65.517 70.3537 65.6456 69.834C65.6593 69.7765 65.6019 69.6862 65.5553 69.6288C65.2982 69.2841 65.0055 68.964 64.7811 68.6002C64.6143 68.3266 64.5322 68.001 64.3899 67.6399C63.9659 67.6345 63.6787 67.4156 63.7854 66.9834C63.3285 66.625 62.9373 66.3159 62.5734 66.0313C62.029 66.5402 61.9989 65.8316 61.7965 65.7578C61.3807 65.8727 61.0141 65.9712 60.612 66.0806C60.5627 65.8946 60.5217 65.7386 60.4834 65.5882ZM61.9059 75.4996C61.9114 75.5953 61.8348 75.743 61.75 75.7978C61.0606 76.2464 60.3603 76.6787 59.6627 77.1136C59.4794 77.2285 59.2961 77.3407 59.1593 77.4228C58.0486 77.2176 57.0473 77.3653 56.2048 78.2681C56.4428 77.3298 56.4291 77.3352 55.5263 77.0425C55.1597 76.9221 54.8232 76.706 54.5633 76.5774C54.1256 75.9099 53.7098 75.2807 53.2694 74.6132C53.1463 74.646 52.9712 74.6925 52.7551 74.75C52.7551 74.4682 52.6894 74.1591 52.7687 73.8965C52.9137 73.4232 53.2885 73.1359 53.7891 73.1004C54.1585 73.0758 54.3609 72.9198 54.4895 72.5696C54.681 72.0499 54.9463 71.6012 55.5619 71.4289C55.9257 71.3276 56.2239 71.0103 56.5823 70.8708C57.0036 70.7094 57.455 70.5589 57.9009 70.537C58.593 70.5042 59.2934 70.5671 59.9855 70.63C60.1524 70.6437 60.3575 70.7723 60.4533 70.9118C60.9594 71.645 61.4108 72.3918 61.6734 73.2782C61.8923 74.0223 61.854 74.7582 61.9059 75.4996ZM32.4672 74.5804C32.6559 74.7582 32.842 74.936 33.0636 75.1467C32.6122 75.7485 32.5 76.6157 31.8489 77.0425C31.7969 77.3462 31.7969 77.6936 31.6601 77.9726C31.6054 78.0848 31.2471 78.0465 30.9735 78.0848C30.9735 78.0957 30.9735 78.2188 30.9735 78.383C30.0789 77.7784 29.2117 77.2231 28.3801 76.6157C27.9916 76.3312 27.6934 75.9291 27.3268 75.6117C27.1162 75.4257 26.8152 75.3382 26.6183 75.1439C25.0535 73.5901 23.4996 72.0307 21.9621 70.455C21.7405 70.2279 21.6503 69.8805 21.4423 69.6343C21.1059 69.243 20.6709 68.9257 20.3782 68.5071C19.9897 67.96 19.7189 67.3281 19.355 66.7618C19.2292 66.5648 18.92 66.4827 18.7915 66.2858C18.6383 66.056 18.589 65.7578 18.5562 65.4623C18.061 65.0821 17.8367 64.5076 17.5522 63.9002C17.3908 63.5555 17.3963 63.0412 16.871 62.8032C16.5263 62.6473 16.3321 62.1604 16.0667 61.8211C16.529 61.3916 16.9722 60.9758 17.4646 60.5189C17.4318 60.3822 17.3826 60.1606 17.3333 59.9526C17.9078 59.5943 18.4741 59.2386 19.0295 58.8912C19.4426 59.2906 19.2428 59.5806 18.8188 59.8432C18.8708 59.8843 18.9228 59.928 18.9747 59.9691C19.2319 59.9198 19.4891 59.8733 19.831 59.8104C19.5739 60.5654 20.3946 60.5107 20.649 60.9238C20.7119 61.025 20.8268 61.0934 20.9171 61.1782C20.8241 61.2001 20.6545 61.2111 20.649 61.2439C20.6216 61.4272 20.6353 61.6159 20.6353 61.7883C20.9718 61.7883 21.2207 61.7883 21.4724 61.7883C21.4205 62.0072 21.3685 62.226 21.3056 62.4886C21.5682 62.5242 21.8609 62.5625 22.2165 62.6117C22.1345 62.9619 22.0633 63.282 21.9895 63.5993C22.0442 63.6376 22.1016 63.6732 22.1564 63.7088C22.2029 63.5556 22.2521 63.4024 22.2986 63.2492C22.3588 63.2601 22.419 63.2738 22.4792 63.2847C22.7281 63.6431 22.9798 63.9987 23.2205 64.3598C23.2616 64.42 23.2889 64.513 23.2753 64.5787C23.226 64.8058 23.3026 64.896 23.5516 64.8742C23.609 64.8687 23.6665 64.8605 23.7266 64.8605C23.8032 64.8605 23.8798 64.8714 24.0795 64.8851C23.7704 65.383 24.5391 65.7797 24.1042 66.3241C24.0139 66.439 24.3859 66.7782 24.5884 66.6414C24.6841 66.3569 24.7443 66.1845 24.8428 65.8918C25.7045 67.1502 26.6702 68.0995 27.6332 69.109C27.5128 69.5166 27.3761 69.968 27.242 70.4194C27.3077 70.4495 27.3706 70.4796 27.4362 70.5097C27.7426 70.2744 28.0463 70.0364 28.3883 69.771C29.6959 71.0978 31.0966 72.4465 32.5711 73.7104C32.645 73.6721 32.7161 73.6366 32.7872 73.601C32.7353 73.9183 32.6833 74.2357 32.6313 74.5503C32.5766 74.5612 32.5219 74.5694 32.4672 74.5804ZM40.9724 80.0572C40.625 80.6153 40.3761 81.2363 40.0833 81.83C39.9493 82.0981 39.8699 82.4236 39.6675 82.6233C39.4842 82.8039 39.1696 82.8668 38.9043 82.9543C38.5979 83.0555 38.2231 82.968 38.0425 83.3948C37.9851 83.5343 37.6075 83.682 37.4762 83.6191C36.8197 83.3018 36.1904 82.927 35.5667 82.5467C35.5011 82.5057 35.4628 82.2622 35.5147 82.202C35.8403 81.8382 35.5913 81.7123 35.2603 81.592C35.3205 81.3704 35.3752 81.157 35.46 80.8342C35.3178 80.9381 35.2685 80.9819 35.2138 81.0147C35.0579 81.1132 34.8992 81.2062 34.7405 81.3047C34.6612 81.0612 34.4396 80.7083 34.5299 80.5934C34.9813 80.0107 35.3123 79.2885 36.081 79.0013C36.2069 78.9548 36.3573 78.8152 36.3819 78.6949C36.5871 77.7483 37.3832 77.4009 38.0863 76.9522C38.3516 76.7853 38.5896 76.572 38.8605 76.4106C38.9699 76.3422 39.1313 76.3558 39.2681 76.334C39.2845 76.3805 39.3009 76.4297 39.3201 76.4762C39.1888 76.6404 39.0574 76.8045 38.9261 76.9659C38.9508 76.9987 38.9754 77.0316 39 77.0644C39.2353 76.9495 39.4623 76.7662 39.7085 76.7361C40.0396 76.6978 40.3925 76.747 40.7235 76.8209C40.8056 76.8401 40.8302 77.1 40.8822 77.2504C40.7317 77.2532 40.5812 77.2668 40.4308 77.2559C40.3761 77.2504 40.3268 77.1875 40.2119 77.1082C40.387 77.6225 40.8904 77.7757 41.2734 77.4556C41.2569 77.7647 41.5223 78.041 41.1858 78.3064C41.1612 78.3255 41.2597 78.5225 41.3171 78.6292C41.3636 78.7167 41.4348 78.7906 41.4977 78.8672C41.391 78.8864 41.287 78.9055 41.1284 78.9329C41.4566 79.3788 41.205 79.6852 40.9724 80.0572ZM85.5532 117.654C86.2207 117.815 86.8363 117.974 87.4573 118.1C87.6023 118.13 87.7801 117.993 87.9306 118.015C88.3847 118.081 88.8306 118.193 89.282 118.278C89.3641 118.291 89.5255 118.269 89.5282 118.25C89.6048 117.67 90.0589 117.875 90.3872 117.777C90.4064 117.949 90.42 118.075 90.4337 118.195C92.3432 118.168 96.0966 117.46 96.3975 117.082C96.7778 117.388 97.1799 117.312 97.5657 117.12C98.0499 116.882 98.504 116.584 98.9964 116.371C99.7761 116.029 100.714 115.898 101.316 115.37C101.71 115.022 102.052 114.749 102.536 114.617C102.553 114.612 102.564 114.587 102.58 114.582C102.84 114.475 103.138 114.42 103.349 114.253C103.743 113.939 104.336 113.914 104.55 113.307C104.761 112.71 105.064 112.637 105.324 113.031C105.39 112.929 105.45 112.76 105.507 112.762C106.12 112.776 106.468 112.292 106.933 112.032C108.112 111.367 109.288 110.702 110.194 109.666C110.246 109.739 110.298 109.811 110.377 109.923C110.897 109.482 111.406 109.045 111.917 108.612C112.891 107.789 113.991 107.168 115.08 106.511C116.032 105.937 116.869 105.171 117.758 104.492C118.102 104.23 118.609 104.052 118.765 103.71C119.044 103.097 119.643 102.941 120.042 102.525C120.171 102.389 120.258 102.211 120.4 102.093C120.696 101.847 121.041 101.653 121.317 101.39C121.599 101.119 121.771 100.712 122.083 100.498C123.194 99.7296 123.924 98.6079 124.805 97.6313C125.445 96.9173 126.047 96.1622 126.594 95.3744C127.223 94.4661 127.795 93.5141 128.35 92.5593C129.387 90.7811 130.481 89.033 131.392 87.1919C132.533 84.8912 133.573 82.533 134.544 80.153C135.146 78.6784 135.537 77.1191 136.024 75.5871C135.802 75.5871 135.668 75.5871 135.537 75.5871C135.592 75.4695 135.644 75.3491 135.704 75.2342C135.748 75.1549 135.86 75.0701 135.846 75.0071C135.748 74.5776 135.622 74.1509 135.507 73.7241C135.471 73.601 135.367 73.4341 135.414 73.363C135.756 72.8186 135.507 72.2988 135.389 71.7708C135.376 71.7106 135.359 71.6231 135.318 71.5985C134.905 71.3687 134.703 71.1033 134.837 70.6547C135.056 69.9106 134.544 69.3361 134.56 68.6932C134.388 68.7424 134.262 68.7807 134.043 68.8464C134.191 68.592 134.281 68.4388 134.369 68.291C133.991 68.001 133.69 67.6044 133.165 67.8615C133.121 67.7329 133.045 67.6071 133.042 67.4758C133.034 67.1229 133.143 66.7372 133.039 66.4198C132.941 66.1107 132.643 65.6456 132.421 65.6401C131.754 65.6183 131.97 65.0903 131.863 64.9042C131.543 64.6252 130.812 65.2736 131.007 64.3325C131.012 64.3079 130.966 64.2696 130.944 64.2395C130.43 63.5802 129.735 63.178 128.974 62.8826C128.908 62.8552 128.758 62.9455 128.706 63.0221C128.629 63.1315 128.605 63.2792 128.512 63.5391C128.326 63.0412 128.279 62.5816 128.025 62.3327C127.762 62.0783 127.3 62.0318 126.92 61.895C126.89 62.0701 126.859 62.2397 126.832 62.412C126.717 62.226 126.734 62.0455 126.712 61.8704C126.698 61.7555 126.63 61.6488 126.589 61.5366C126.46 61.5941 126.31 61.6296 126.208 61.7199C126.145 61.7774 126.151 61.9141 126.118 62.0537C125.927 61.9388 125.784 61.8512 125.59 61.7308C125.751 61.6843 125.858 61.6542 126.126 61.5749C125.814 61.4217 125.648 61.3096 125.461 61.2576C125.054 61.1399 124.638 61.0332 124.219 60.9594C123.711 60.8718 123.199 60.7761 122.756 61.2083C122.395 61.564 121.697 61.3779 121.58 61.0743C121.123 61.1235 120.712 61.1646 120.184 61.222C120.324 60.9703 120.395 60.8417 120.496 60.6612C120.184 60.8171 119.944 61.0387 119.706 61.036C118.899 61.0196 118.086 60.7378 117.309 61.2275C117.183 61.3096 116.964 61.2713 116.792 61.2521C116.639 61.2357 116.491 61.1591 116.341 61.1263C115.701 60.984 115.359 61.5366 115.025 61.7117C114.727 61.5749 114.532 61.4217 114.33 61.4108C114.18 61.3998 114.018 61.5749 113.824 61.6871C113.797 61.6625 113.684 61.4792 113.594 61.4901C113.096 61.5476 112.598 61.6296 112.111 61.7445C111.783 61.8211 111.474 62.0482 111.148 62.0673C110.607 62.0974 110.024 61.75 109.649 62.2534C109.034 61.9825 108.637 62.1631 108.317 62.6528C108.207 62.5215 108.104 62.4011 107.855 62.1056C107.619 62.4613 107.403 62.7868 107.173 63.1315C107.067 62.9756 107.026 62.9428 107.028 62.9127C107.039 62.7677 107.064 62.6254 107.094 62.412C106.361 62.7704 105.442 62.6309 104.933 63.5145C104.632 63.4762 104.189 63.3367 104.17 63.9604C103.461 63.6732 103.168 63.8045 102.846 64.5459C102.618 64.5459 102.29 64.4446 102.162 64.565C101.683 65.0027 101.133 65.2435 100.542 65.4924C99.8527 65.7851 99.2372 66.2639 98.6162 66.6989C98.2824 66.9314 98.0006 67.4731 97.6997 67.4676C97.2045 67.4621 97.0267 67.7767 96.7422 67.9956C96.4112 68.25 96.113 68.5482 95.7875 68.8081C94.8081 69.5823 93.7822 70.3072 92.8439 71.1307C91.9082 71.9569 91.0492 72.8706 90.1711 73.7597C88.8388 75.1111 87.4327 76.4024 86.2125 77.8495C84.3468 80.0545 82.4127 82.2212 80.9628 84.7435C80.5141 85.5259 80.1338 86.3466 79.7262 87.1509C79.4718 87.6597 79.2256 88.174 78.9739 88.6829C78.6894 89.2546 78.3638 89.81 78.1231 90.3981C77.8632 91.0301 77.7182 91.7085 77.4501 92.3377C76.8565 93.7302 76.7088 94.5482 76.9331 95.6069C76.9495 95.6835 76.8811 95.7847 76.8373 95.8641C76.706 96.0884 76.4872 96.2963 76.4461 96.537C76.3394 97.1909 76.2984 97.8584 76.241 98.5204C76.1835 99.1879 75.9428 99.798 76.044 100.526C76.1917 101.557 76.0002 102.629 76.0166 103.683C76.0276 104.416 76.1944 105.146 76.2027 105.877C76.2109 106.563 76.1862 107.225 76.8373 107.679C76.479 108.041 76.4571 108.435 76.6431 108.859C76.7033 108.995 76.8346 109.162 76.799 109.266C76.5884 109.854 76.7498 110.295 77.2805 110.648C77.1656 110.708 77.0617 110.763 76.9769 110.806C77.0535 110.998 77.1519 111.148 77.1656 111.307C77.2039 111.693 77.1738 112.087 77.2231 112.47C77.2504 112.68 77.3981 112.869 77.4638 113.077C77.5486 113.353 77.5213 113.714 77.6936 113.906C78.3967 114.688 79.108 115.482 79.915 116.152C80.6181 116.735 81.4251 117.216 82.2431 117.624C82.7683 117.886 83.3948 118.001 83.9857 118.053C84.5793 118.108 85.3152 118.387 85.5532 117.654ZM82.8969 112.554C82.8394 111.887 82.544 111.367 81.6521 111.687C81.6822 111.228 81.7096 110.864 81.7397 110.434C81.5728 110.492 81.4333 110.538 81.291 110.588C81.2527 110.24 81.2199 109.909 81.1707 109.452C81.2035 109.387 81.7588 109.247 81.1789 108.946C81.1105 108.911 81.2774 108.432 81.3457 108.114C81.1871 108.071 81.0093 108.019 80.774 107.95C80.8944 107.57 81.0093 107.212 81.1351 106.815C81.012 106.788 80.9026 106.76 80.8287 106.744C80.722 106.402 81.3622 106.008 80.7713 105.803C80.7713 105.34 80.7713 104.9 80.7713 104.413C80.3609 104.438 80.205 104.432 80.3007 103.836C80.4922 102.66 80.4211 101.437 80.4266 100.233C80.4266 100.072 80.2351 99.9129 80.1174 99.7323C80.5278 98.6818 80.525 98.6545 79.9888 98.6599C80.0627 98.4465 80.1448 98.2578 80.194 98.0608C80.2706 97.738 80.7138 97.4207 80.2186 97.076C80.1831 97.0513 80.2077 96.9282 80.2241 96.8544C80.4074 96.0364 80.6044 95.2212 80.7822 94.4032C80.8916 93.8944 80.9846 93.3828 81.0694 92.8712C81.1351 92.4745 81.1187 92.056 81.2336 91.6757C81.5236 90.7292 81.7917 89.7635 82.2102 88.8716C82.8394 87.5311 83.5069 86.1907 84.314 84.9514C85.0663 83.7969 86.021 82.7738 86.891 81.6959C87.5202 80.9162 88.0646 80.0381 88.8114 79.3952C89.3805 78.9082 89.5911 78.0657 90.4337 77.8413C90.6854 77.7757 90.8386 77.3708 91.0657 77.1492C91.5061 76.7197 91.9657 76.3093 92.4226 75.8962C92.904 75.4613 93.3828 75.0181 93.8807 74.6023C94.4771 74.1044 95.0953 73.6311 95.6999 73.1441C95.9188 72.9663 96.1458 72.7912 96.3346 72.5861C96.9255 71.9514 97.7489 71.697 98.4438 71.2401C98.701 71.0678 98.8843 70.7887 98.9964 70.6683C99.3876 70.5507 99.7132 70.537 99.9293 70.3756C100.887 69.6589 101.921 69.0762 102.98 68.5318C103.089 68.4743 103.138 68.3047 103.163 68.2664C104.066 68.0722 104.856 67.8451 105.201 66.8521C105.228 67.008 105.256 67.1639 105.31 67.4649C105.789 67.3281 106.265 67.0654 106.727 67.0901C107.294 67.1202 107.6 66.863 107.857 66.4636C108.065 66.6441 108.221 66.7782 108.35 66.8931C108.58 66.6113 108.779 66.3651 108.979 66.1189C109.017 66.1462 109.058 66.1763 109.097 66.2037C109.042 66.3159 108.99 66.428 108.891 66.6305C109.553 66.5648 110.169 66.5457 110.771 66.4335C111.726 66.2557 112.689 66.0642 113.616 65.7797C114.045 65.6456 114.609 65.7824 114.91 65.2736C114.937 65.2271 115.156 65.2599 115.268 65.3037C115.744 65.4897 116.097 65.3803 116.467 65.0027C116.546 64.9207 116.803 65.0164 117.088 65.0383C117.109 65.0082 117.205 64.8796 117.238 64.8359C117.799 64.8906 118.302 64.9398 118.893 64.9973C118.896 64.9918 118.948 64.8796 119 64.7675C119.123 64.8988 119.238 65.0246 119.353 65.1505C119.407 65.1204 119.459 65.0903 119.511 65.0602C119.435 64.8796 119.355 64.6963 119.268 64.4939C119.336 64.5212 119.446 64.5295 119.484 64.5842C119.845 65.0985 120.37 65.2544 120.915 65.0274C121.087 64.9535 121.301 64.9726 121.495 64.9398C121.749 64.8988 122.004 64.8523 122.258 64.8058C122.253 64.7593 122.244 64.7127 122.239 64.6662C122.529 64.8769 122.797 65.134 123.117 65.29C124.116 65.7824 125.144 66.2146 126.143 66.7125C126.512 66.8958 126.827 67.1885 127.166 67.4348C127.193 67.4539 127.204 67.5114 127.234 67.525C127.937 67.8369 128.252 68.5619 128.818 69.0297C129.223 69.3634 129.442 69.9188 129.754 70.3674C129.907 70.5835 130.12 70.7641 130.243 70.9966C130.372 71.2346 130.419 71.5137 130.503 71.7736C130.73 72.4684 131.138 73.166 131.135 73.8609C131.133 74.5722 131.464 75.1877 131.434 75.9345C131.403 76.6759 131.584 77.5295 131.633 78.3255C131.669 78.9137 131.458 79.5183 131.335 80.1119C131.278 80.3883 131.182 80.6563 131.081 80.9217C130.695 81.9339 130.323 82.9516 129.904 83.9501C129.631 84.604 129.302 85.2359 128.98 85.8678C128.506 86.787 128.039 87.709 127.524 88.6035C127.067 89.3941 126.523 90.1355 126.061 90.9234C125.464 91.9383 124.879 92.956 124.148 93.8889C123.051 95.295 121.941 96.6793 120.554 97.8201C119.916 98.3453 119.375 98.9909 118.726 99.5053C118.018 100.072 117.235 100.548 116.486 101.065C116.376 101.141 116.25 101.21 116.163 101.308C115.536 102.003 114.677 102.402 114.004 103.021C113.703 103.297 113.381 103.393 113.069 103.57C112.612 103.833 112.297 104.339 111.901 104.719C111.775 104.84 111.589 104.903 111.425 104.977C111.198 105.078 110.943 105.133 110.741 105.264C110.04 105.721 109.367 106.219 108.667 106.673C107.581 107.376 106.473 108.052 105.387 108.757C105.075 108.96 104.804 109.225 104.495 109.48C104.498 109.482 104.44 109.392 104.347 109.242C103.964 109.559 103.612 109.852 103.198 110.196C102.717 109.863 102.553 110.527 102.186 110.724C101.806 110.927 101.431 111.137 100.972 111.389C100.955 111.367 100.865 111.269 100.84 111.282C99.9949 111.769 99.1633 112.273 98.2715 112.806C98.2496 112.784 98.1538 112.678 97.9651 112.475C97.1197 112.853 96.2443 113.269 95.3497 113.635C95.0351 113.766 94.6494 113.941 94.384 113.509C94.3622 113.474 94.4278 113.381 94.447 113.326C94.2555 113.359 94.0421 113.4 93.8314 113.438C93.815 113.572 93.7931 113.772 93.7658 113.991C93.6071 113.983 93.4402 114.024 93.3855 113.963C92.677 113.189 92.3596 114.054 91.8973 114.308C91.8645 114.327 91.8289 114.346 91.725 114.407C91.6265 114.199 91.528 113.996 91.4021 113.734C91.3091 113.868 91.2271 113.988 91.1423 114.108C90.9863 114.021 90.8249 113.931 90.6088 113.81C90.5404 114.054 90.4884 114.242 90.3954 114.576C90.1218 113.802 89.7662 113.512 89.2027 114.415C89.2027 114.086 89.2027 113.95 89.2027 113.799C88.609 114.007 88.0564 114.201 87.4518 114.415C87.4245 114.125 87.4026 113.881 87.3807 113.638C86.9621 113.687 86.4971 114.07 86.0867 113.55C85.5806 113.914 85.2879 113.096 84.7216 113.323C84.4672 113.422 84.013 112.992 83.6437 112.82C83.4249 112.719 83.1896 112.658 82.8969 112.554ZM84.7544 97.4453C84.4261 97.117 84.1225 96.7367 83.7313 96.5069C83.1322 96.1568 83.5288 96.0145 83.8215 95.6479C83.6191 95.6343 83.4167 95.6178 83.1048 95.596C83.1048 95.4291 83.0145 95.1145 83.1239 94.9093C83.455 94.2856 83.8325 93.6782 84.2483 93.1092C84.5711 92.6715 84.9815 92.2967 85.318 91.9329C86.4697 92.5511 87.5777 93.1475 88.6911 93.7412C88.9291 93.867 89.1315 93.9162 89.2081 94.3047C89.2683 94.6193 89.7607 94.8874 90.1082 95.0981C90.9179 95.5905 91.7551 96.0337 92.5785 96.5015C92.822 96.641 93.0408 96.8817 93.2952 96.9255C93.6974 96.9994 94.1214 96.9446 94.6138 96.9446C94.6439 97.0349 94.7151 97.251 94.778 97.4453C95.2731 97.4973 95.7793 97.552 96.2826 97.6094C96.3592 97.6176 96.496 97.6423 96.4987 97.6723C96.6082 98.5204 96.9966 97.9623 97.3413 97.8775C97.6231 97.8064 97.9623 97.8255 98.2441 97.9158C99.3904 98.2769 100.515 97.8392 101.647 97.8611C101.883 97.8666 102.115 97.9596 102.397 98.0225C102.608 97.9158 102.919 97.7407 103.245 97.5875C103.521 97.459 103.828 97.3824 104.093 97.2346C105.018 96.7231 105.083 95.834 105.256 94.8984C105.428 93.9655 105.138 93.1557 104.892 92.3706C104.637 91.5471 104.074 90.803 103.56 90.0863C103.004 89.3175 102.359 88.6117 101.732 87.8977C101.562 87.7035 101.308 87.5859 101.106 87.4162C100.589 86.984 100.066 86.5572 99.5709 86.1031C98.5231 85.1401 97.4918 84.1608 96.4522 83.1896C96.3838 83.1239 96.3018 83.0583 96.2607 82.9762C96.0364 82.5385 95.8121 82.0981 95.6124 81.6467C95.5741 81.5591 95.6425 81.4223 95.6862 81.1488C95.2731 80.6399 95.927 80.2351 96.2388 79.8712C97.5574 78.3365 98.8487 76.747 100.362 75.4175C101.193 74.6871 102.039 73.746 103.349 73.6639C103.798 73.6366 104.216 73.2809 104.67 73.1578C105.228 73.0101 105.811 72.9554 106.38 72.8569C106.834 72.7776 107.288 72.6955 107.827 72.5997C107.838 72.7639 107.827 72.876 107.855 72.98C107.874 73.0484 107.948 73.1004 107.997 73.1606C108.021 73.0976 108.038 73.032 108.068 72.9718C108.109 72.887 108.172 72.7338 108.199 72.7393C108.481 72.794 108.804 73.0019 109.025 72.9198C109.34 72.8049 109.537 72.6709 109.794 73.0019C109.871 73.1031 110.142 73.1387 110.281 73.0867C110.659 72.9444 110.968 72.9362 111.252 73.2727C111.321 73.3521 111.551 73.4204 111.586 73.3821C112.084 72.8432 112.59 73.3329 112.989 73.467C113.736 73.7186 113.742 73.7734 114.305 73.177C115.624 71.7845 116.973 70.4167 118.31 69.0433C118.527 68.8218 118.721 68.5509 118.981 68.4114C119.221 68.2828 119.492 67.8725 119.856 68.354C119.93 68.4552 120.387 68.2719 120.726 68.2062C120.214 69.2868 119.697 70.4057 119.153 71.5109C119.052 71.7161 118.879 71.9432 118.682 72.0362C118.053 72.3316 117.96 72.9609 117.7 73.4834C117.481 73.9211 117.317 74.3889 117.112 74.8895C117.224 74.8731 117.391 74.8512 117.558 74.8266C117.539 74.8676 117.52 74.9114 117.501 74.9524C117.837 75.092 118.171 75.2287 118.587 75.3984C118.548 75.5297 118.494 75.7212 118.414 75.992C118.57 76.0166 118.751 76.1042 118.863 76.0522C119.552 75.7239 119.676 75.7813 119.758 76.5829C119.859 76.4461 119.938 76.3394 120.083 76.1452C120.108 76.3805 120.121 76.52 120.141 76.7033C120.805 76.3422 120.671 77.0945 120.961 77.275C121.279 77.472 121.632 77.6143 121.957 77.7757C121.642 78.1559 121.714 78.3447 122.534 78.9575C122.288 79.0505 122.088 79.1271 121.894 79.2037C121.856 79.4992 121.818 79.8165 121.757 80.2761C122.025 80.6071 121.525 80.9545 121.404 81.3567C121.347 81.54 121.235 81.7287 121.095 81.8601C121.011 81.9367 120.786 81.9667 120.69 81.9093C119.848 81.4032 119.027 80.867 118.19 80.3582C117.531 79.9587 116.877 79.5484 116.182 79.2201C115.867 79.0696 115.46 79.1298 115.101 79.0587C114.015 78.8426 112.935 78.5772 111.843 78.3885C110.979 78.238 110.101 78.1669 109.231 78.0684C108.714 78.0082 108.199 77.9453 107.682 77.9097C107.023 77.8659 106.358 77.7921 105.704 77.8359C104.845 77.8933 104.744 77.9289 104.419 77.7948C103.97 78.0465 103.628 78.2872 103.25 78.435C102.774 78.6155 102.238 78.6593 101.781 78.8727C101.19 79.1462 100.652 79.5292 100.195 79.8028C100.2 80.7302 101.18 80.6098 101.532 81.2035C101.68 81.4579 102.069 81.5591 102.296 81.7807C102.43 81.912 102.463 82.1418 102.539 82.3251C102.755 82.4045 103.04 82.4728 103.283 82.6124C103.505 82.7355 103.677 82.9461 103.882 83.1048C104.263 83.4002 104.46 83.7121 104.148 84.1936C104.088 84.2839 104.208 84.5301 104.306 84.6614C104.342 84.7079 104.591 84.6751 104.67 84.6012C105.078 84.221 105.527 84.2292 105.77 84.779C106 85.307 106.5 85.5286 106.799 85.9581C107.001 86.2536 107.239 86.5217 107.554 86.9211C107.956 86.9785 108.257 87.5995 108.019 88.3163C108.325 88.6063 108.949 88.5871 108.982 89.1972C109.006 89.6404 109.652 90.0562 109.012 90.4994C109.414 90.9535 109.641 91.4049 109.291 91.9575C109.272 91.9876 109.225 92.0341 109.233 92.045C109.764 92.9232 109.091 93.6153 108.804 94.3129C108.279 95.5987 107.638 96.8407 106.968 98.0608C106.659 98.6244 106.161 99.0867 105.765 99.6065C105.532 99.9101 105.379 100.29 105.102 100.539C104.438 101.138 103.751 101.724 103.015 102.23C102.742 102.416 102.309 102.37 101.921 102.435C101.954 103.001 101.357 102.763 101.065 102.821C100.329 102.958 99.5709 102.966 98.8077 103.029C98.8241 102.939 98.8378 102.854 98.8514 102.761C98.6599 102.87 98.4766 103.067 98.2934 103.064C97.6204 103.056 96.9474 102.999 96.2771 102.93C95.5057 102.854 94.737 102.763 93.971 102.646C93.6153 102.591 93.2706 102.463 92.7782 102.328C91.1669 104.186 89.4954 106.112 87.8157 108.046C87.2713 107.907 87.2767 106.949 86.4205 107.212C86.5271 107.048 86.5846 106.955 86.6448 106.862C86.6147 106.829 86.5955 106.785 86.5654 106.779C86.4122 106.747 86.259 106.722 86.1059 106.695C86.1907 106.591 86.2782 106.489 86.3603 106.383C87.6597 104.689 88.9564 102.993 90.2778 101.264C89.5966 100.835 88.9127 100.288 88.1357 99.9402C87.0415 99.4505 85.7967 98.7201 85.0663 97.8912C84.9459 97.7544 84.8803 97.5711 84.7544 97.4453Z" fill="white"/>
</svg>
