<svg width="575" height="440" viewBox="0 0 575 440" fill="none" xmlns="http://www.w3.org/2000/svg">
<mask id="mask0_382_676" style="mask-type:luminance" maskUnits="userSpaceOnUse" x="-70" y="-95" width="582" height="752">
<path d="M123.7 656.66L-69.746 194.231L318.31 -94.5875L511.756 367.841L123.7 656.66Z" fill="white"/>
</mask>
<g mask="url(#mask0_382_676)">
<mask id="mask1_382_676" style="mask-type:luminance" maskUnits="userSpaceOnUse" x="-70" y="-95" width="582" height="752">
<path d="M123.7 656.66L-69.746 194.231L318.31 -94.5875L511.756 367.841L123.7 656.66Z" fill="white"/>
</mask>
<g mask="url(#mask1_382_676)">
<path d="M408.315 443.037C405.706 425.457 410.871 405.051 421.887 388.923C435.127 369.539 455.781 362.27 469.961 344.397C479.883 331.885 487.537 309.86 476.812 299.669C471.295 294.427 462.89 294.121 455.534 293.306C447.817 292.447 440.035 291.806 432.382 290.65C417.54 288.407 402.502 284.059 392.976 271.443C381.095 255.698 380.757 231.435 379.703 209.561C378.831 191.386 376.949 172.702 368.656 158.527C361.132 145.668 348.371 139.556 333.364 143.408C295.91 153.017 275.146 201.422 245.959 228.483C230.176 243.117 211.348 254.006 192.929 255.296C176.824 256.426 161.254 250.3 152.352 236.509C148.421 230.424 146.655 222.173 148.095 213.539C149.453 205.379 154.956 196.662 162.576 197.252C169.067 197.74 173.181 205.194 172.911 212.691C172.566 222.224 165.708 231.292 158.772 236.893C144.542 248.379 126.865 249.789 113.834 243.26C107.036 239.86 101.405 234.305 97.7297 226.893C93.1389 217.647 91.3312 206.532 88.942 195.917C86.9007 186.856 84.2823 178.223 79.8567 170.818C76.1628 164.641 71.5464 159.389 66.2391 155.133C55.2523 146.316 41.2713 141.9 26.555 142.96C-3.07927 145.098 -32.7802 171.302 -47.0766 204.523C-50.4776 212.413 -52.9032 220.564 -54.3404 228.811C-54.6155 230.352 -52.5878 230.121 -52.321 228.597C-45.7295 190.919 -16.0265 154.848 16.2942 146.932C32.2698 143.019 47.9732 145.9 60.5368 154.058C66.8738 158.171 72.4098 163.658 76.7971 170.313C81.9261 178.112 84.8447 187.428 87.0523 197.314C89.3815 207.746 91.2166 218.632 95.6208 227.779C98.9106 234.607 103.706 240.037 109.613 243.744C121.335 251.093 137.119 251.697 151.511 244.137C163.964 237.594 178.483 221.457 174.195 205.823C172.637 200.122 168.677 195.303 163.201 194.866C157.727 194.424 152.297 198.343 149.161 204.2C141.018 219.44 147.314 235.905 155.688 244.569C166.06 255.297 181.215 259.405 196.56 257.269C214.672 254.744 232.752 243.662 248.097 229.19C264.92 213.326 277.582 192.803 292.816 175.042C305.859 159.838 322.653 145.873 339.888 144.636C357.273 143.388 367.864 157.423 372.811 174.389C378.382 193.51 377.153 215.364 379.308 235.906C381.39 255.759 387.421 273.485 401.801 283.02C414.228 291.25 429.757 293.037 444.688 294.599C452.646 295.424 461.11 295.6 468.62 297.916C477.323 300.608 481.503 308.873 479.351 320.267C474.62 345.295 452.478 356.82 436.057 370.71C421.768 382.787 411.264 399.492 407.261 418.582C405.442 427.226 405.107 435.804 406.302 443.858C406.517 445.292 408.532 444.478 408.32 443.039L408.315 443.037Z" fill="white"/>
</g>
</g>
</svg>
