<svg width="446" height="379" viewBox="0 0 446 379" fill="none" xmlns="http://www.w3.org/2000/svg">
<path d="M398.711 259.81C419.782 233.092 446 199.831 446 159.842C446 136.502 438.651 115.48 424.154 97.3594C411.843 81.9783 394.618 69.1097 372.953 59.1101C363.299 54.6541 353.371 51.017 343.479 48.0601C340.207 44.1963 336.476 40.5269 332.279 37.0518C315.023 22.7904 289.647 11.9857 258.896 5.80361C233.355 0.671934 205.116 -1.14197 179.389 0.704324C130.71 4.19794 61.5853 25.7427 24.855 64.7878C6.22373 84.5927 -1.99885 106.646 0.409525 130.338C2.35276 149.458 10.1516 167.463 20.5241 183.589C20.3639 188.212 20.5189 192.867 20.9892 197.55C23.563 222.843 34.3025 248.487 52.9028 273.78C67.3737 293.446 86.1859 312.446 108.823 330.247C126.766 344.36 143.785 355.086 160.856 363.05C183.544 373.637 206.088 379 227.841 379C246.11 379 263.837 375.243 280.541 367.825C283.151 366.668 285.714 365.442 288.236 364.179C292.469 366.456 296.614 368.242 300.707 369.561C306.139 371.305 311.441 372.175 316.583 372.175C322.754 372.175 328.693 370.916 334.357 368.408C353.396 359.954 366.88 343.907 380.142 326.814C381.082 325.606 382.054 324.375 383.036 323.126C391.946 311.83 402.039 299.027 402.039 284.793C402.039 277.079 399.729 270.212 395.186 264.271C396.339 262.823 397.507 261.342 398.711 259.81ZM2.76105 130.153C0.409526 107.044 8.45122 85.5135 26.6639 66.1529C62.9549 27.5704 131.371 6.2756 179.58 2.819C185.978 2.35627 192.65 2.12028 199.498 2.12028C245.511 2.12028 299.461 12.8047 330.677 38.6112C333.871 41.2488 336.786 44.0113 339.427 46.8894C305.162 37.2646 271.822 35.5202 252.234 35.5202C244.534 35.5202 236.957 35.7839 229.711 36.3022C200.206 38.4215 167.512 45.8899 137.666 57.3379C102.264 70.919 72.9553 89.3496 52.9338 110.635C33.4911 131.296 22.5552 154.868 20.7308 179.633C11.4333 164.511 4.55441 147.802 2.76105 130.153ZM342.021 49.8602C352.797 62.8351 358.255 78.0451 358.255 95.2679C358.255 125.359 336.517 152.929 317.338 177.25C315.131 180.045 313.043 182.687 310.976 185.352C282.22 222.403 253.03 257.168 212.15 275.316C172.929 292.729 129.335 281.915 78.8884 242.24C62.7223 229.524 39.5223 208.702 22.8963 183.062C23.9299 157.547 34.7779 133.226 54.7375 112C74.5264 90.9645 103.525 72.7329 138.591 59.2906C168.215 47.9306 200.635 40.513 229.892 38.4168C237.081 37.8986 244.591 37.6395 252.229 37.6395C272.297 37.6395 306.909 39.4765 342.021 49.8602ZM279.497 365.937C263.124 373.207 245.754 376.89 227.846 376.89C206.475 376.89 184.304 371.606 161.951 361.176C145.057 353.296 128.183 342.657 110.383 328.66C87.9069 310.984 69.2342 292.132 54.8822 272.623C36.4938 247.626 25.8835 222.306 23.3459 197.365C22.9945 193.922 22.8291 190.498 22.8291 187.087C39.4448 211.626 61.6577 231.5 77.3379 243.832C99.773 261.476 120.472 273.197 140.628 279.68C152.364 283.451 163.807 285.334 174.903 285.334C188.211 285.334 201.013 282.627 213.204 277.213C254.591 258.843 283.993 223.851 312.924 186.56C314.987 183.909 317.069 181.266 319.271 178.476C338.652 153.896 360.622 126.035 360.622 95.2725C360.622 78.6466 355.676 63.8346 345.882 51.0355C354.621 53.7795 363.361 57.0649 371.883 60.9981C393.212 70.845 410.159 83.496 422.247 98.6042C436.449 116.35 443.654 136.96 443.654 159.851C443.654 199.174 417.668 232.125 396.794 258.598C395.745 259.926 394.732 261.217 393.734 262.485C392.303 260.847 390.706 259.283 388.912 257.802C372.147 243.948 341.51 239.404 318.594 241.051C296.231 242.657 264.468 252.564 247.568 270.522C238.947 279.689 235.138 289.906 236.26 300.882C238.606 323.972 259.418 343.509 271.61 353.101C276.556 356.993 281.316 360.246 285.962 362.916C283.822 363.952 281.672 364.97 279.497 365.937ZM392.292 264.289C391.713 265.039 391.135 265.775 390.561 266.51C362.425 302.77 331.401 339.784 288.298 361.74C283.404 359.001 278.36 355.591 273.155 351.496C261.222 342.111 240.87 323.038 238.596 300.678C237.541 290.281 241.164 280.591 249.366 271.869C265.822 254.378 296.882 244.711 318.77 243.143C321.679 242.939 324.718 242.828 327.835 242.828C348.709 242.828 373.165 247.663 387.3 259.343C389.181 260.902 390.84 262.554 392.292 264.289ZM399.683 284.798C399.683 298.365 389.817 310.872 381.113 321.913C380.126 323.167 379.15 324.398 378.209 325.615C365.123 342.477 351.846 358.293 333.313 366.52C320.32 372.286 306.226 371.138 290.598 362.985C333.535 340.756 364.456 303.867 392.504 267.718C392.912 267.186 393.326 266.659 393.745 266.126C397.688 271.568 399.683 277.82 399.683 284.798Z" fill="white"/>
</svg>
