<svg width="156" height="146" viewBox="0 0 156 146" fill="none" xmlns="http://www.w3.org/2000/svg">
<mask id="mask0_325_554" style="mask-type:luminance" maskUnits="userSpaceOnUse" x="0" y="0" width="156" height="146">
<path d="M0 0H156V146H0V0Z" fill="white"/>
</mask>
<g mask="url(#mask0_325_554)">
<path d="M155.781 86.0341C155.819 85.9866 155.945 85.8272 156.134 85.5951C155.891 85.6119 155.743 85.6231 155.565 85.6371C155.74 85.2708 155.891 84.9548 156.041 84.6416C155.989 84.6444 155.94 84.6444 155.888 84.6472C155.866 84.2949 155.822 83.9454 155.828 83.5931C155.836 83.2855 155.964 82.936 155.477 82.9388C155.477 82.6648 155.477 82.4047 155.477 82.2845C155.133 82.195 154.859 82.1223 154.75 82.0944C154.81 81.6861 155.001 81.236 154.876 81.1073C154.427 80.646 154.473 80.1902 154.755 79.6506C154.252 79.6282 153.729 79.4436 153.951 79.0046C154.126 78.6523 153.943 78.423 154.033 78.2161C153.781 78.1826 153.562 78.1546 153.316 78.1239C153.729 77.327 153.779 77.271 153.199 76.7426C152.755 76.3371 152.392 75.9764 152.225 75.3529C152.156 75.104 151.891 74.5476 151.327 74.7713C151.163 74.8356 150.977 74.8412 150.799 74.872C150.799 74.6511 150.799 74.4274 150.799 74.1058C150.999 74.296 151.111 74.405 151.226 74.5141C151.243 74.2876 151.095 74.0974 151.125 73.9408C151.215 73.4543 150.923 73.3649 150.583 73.2139C150.408 73.1384 150.304 72.8671 150.198 72.6686C150.05 72.3918 149.973 72.0674 149.79 71.8242C149.56 71.5166 149.254 71.2705 148.947 70.9686C148.392 71.1056 147.96 70.8931 147.552 70.1353C147.987 70.3534 148.324 70.5184 148.657 70.6862C148.698 70.6302 148.739 70.5715 148.781 70.5156C148.496 70.0766 147.943 69.9815 147.497 69.7774C147.634 69.5705 147.749 69.3999 147.812 69.3049C147.58 69.0588 147.388 68.8519 147.15 68.5947C147.114 68.6058 146.953 68.6562 146.778 68.7093C146.876 68.5024 146.95 68.3486 147.024 68.1976C146.964 68.22 146.901 68.2423 146.841 68.2647C146.617 67.9935 146.39 67.7251 146.171 67.4622C146.015 67.5461 145.84 67.6859 145.645 67.7223C145.541 67.7446 145.402 67.5936 145.279 67.5181C145.369 67.4538 145.451 67.3671 145.55 67.328C145.87 67.2022 145.892 66.9505 145.656 66.7967C144.901 66.3102 144.729 65.4099 144.157 64.736C144.034 64.7947 143.886 64.8646 143.676 64.9681C143.785 63.9055 143.167 63.4554 142.387 63.2848C142.354 62.9632 142.401 62.6752 142.291 62.4823C142.064 62.0881 141.761 61.7357 141.473 61.3806C141.205 61.0423 140.926 60.7096 140.631 60.3964C140.582 60.3433 140.434 60.388 140.33 60.388C140.562 59.8092 140.516 59.7561 139.887 59.8204C139.69 59.8428 139.485 59.8232 139.274 59.8232C139.449 58.7159 138.875 57.9666 138.161 58.0337C137.832 57.7121 137.602 57.4577 137.334 57.2591C137.307 57.2396 137.047 57.5527 136.823 57.7848C136.752 57.7457 136.579 57.6506 136.41 57.5583C136.421 57.5164 136.434 57.4772 136.445 57.4353C136.557 57.4297 136.67 57.4241 136.809 57.4157C136.793 57.3039 136.795 57.2004 136.76 57.1137C136.429 56.2945 135.474 56.6272 134.965 56.1127C134.823 55.9673 134.558 55.9505 134.251 55.8443C134.104 55.9813 133.874 56.1938 133.562 56.4846C133.562 56.2693 133.611 56.1043 133.554 56.0009C133.439 55.794 133.269 55.6206 133.121 55.4333C132.862 55.7408 132.618 55.506 132.375 55.4081C132.186 55.3298 132.011 55.19 131.816 55.162C131.048 55.0418 130.274 54.9551 129.508 54.8573C129.286 55.025 129.01 55.2291 128.692 55.4668C128.55 55.1145 128.443 54.8517 128.309 54.5245C128.085 54.6727 127.885 54.8013 127.773 54.8768C127.204 54.3372 126.61 54.7985 126.066 54.723C126.08 54.5693 126.096 54.4155 126.11 54.2617C125.866 54.2617 125.642 54.2617 125.363 54.2617C125.47 54.4071 125.546 54.5105 125.623 54.614C125.59 54.642 125.557 54.6699 125.524 54.7007C125.39 54.5693 125.254 54.4406 125.106 54.2952C125.092 54.4239 125.081 54.5245 125.073 54.6168C124.633 54.3931 124.219 54.1862 123.899 54.024C123.546 54.2729 123.229 54.4993 122.871 54.7538C122.756 54.4322 122.696 54.2561 122.644 54.1079C122.135 54.2785 121.667 54.4378 121.216 54.5888C121.087 54.4462 120.978 54.326 120.849 54.1834C120.715 54.3484 120.622 54.463 120.51 54.6028C120.4 54.4239 120.316 54.284 120.182 54.0604C119.736 54.34 119.325 54.5972 118.923 54.8489C118.972 54.6559 119.022 54.4602 119.074 54.2477C118.661 54.3064 118.343 54.3512 118.023 54.3987C118.053 54.4462 118.081 54.4966 118.111 54.5469C117.782 54.751 117.451 54.9551 117.107 55.1704C117.085 54.9719 117.071 54.8405 117.06 54.7314C115.307 54.7035 113.627 54.8908 112.092 55.7576C112.051 55.5703 112.018 55.4081 111.991 55.2907C111.788 55.3158 111.619 55.3186 111.46 55.3606C110.981 55.4892 110.464 55.5563 110.04 55.794C109.655 56.0093 109.365 56.0428 109.023 55.7884C108.998 55.7716 108.949 55.794 108.886 55.7995C108.787 55.8918 108.675 55.9953 108.538 56.1211C108.492 55.9897 108.456 55.889 108.418 55.7856C108.281 55.9226 108.145 56.0596 108.068 56.1379C107.228 55.5842 107.017 56.5321 106.522 56.8173C106.468 56.6244 106.427 56.4706 106.375 56.2889C105.797 56.5657 105.283 56.904 104.719 57.0466C104.246 57.1669 103.904 57.3402 103.669 57.7708C103.612 57.8827 103.497 58.0085 103.384 58.0365C102.881 58.1707 102.353 58.2238 101.866 58.4C101.478 58.5426 101.138 58.9899 100.772 58.9983C99.9758 59.0151 99.4095 59.4765 98.7776 59.8148C98.0334 60.2118 97.3085 60.6452 96.5808 61.0731C95.7601 61.5568 94.9366 62.0461 94.1242 62.5466C92.9423 63.2764 91.7633 64.009 90.5978 64.7639C90.1738 65.038 89.7826 65.3651 89.3969 65.6923C89.0084 66.0194 88.5133 66.3102 88.3108 66.738C88.081 67.2273 87.9798 66.9729 87.7801 66.7995C83.6793 70.222 80.1229 74.2009 76.6841 78.3112C76.7197 77.8079 76.8264 77.3633 76.9249 76.9159C77.2696 75.3697 77.2668 73.7647 77.8085 72.2464C78.1888 71.1727 78.3201 70.0067 78.7113 68.9386C79.1709 67.6747 79.004 66.2794 79.5922 65.0575C79.1162 64.3641 79.7946 63.8971 79.9177 63.3211C79.9423 63.2093 79.9779 63.0108 79.9396 62.9912C79.5703 62.7927 79.863 62.6025 79.9396 62.4292C80.0162 62.2502 80.2186 62.0936 80.2241 61.9203C80.2569 60.8661 80.9655 59.8847 80.5442 58.7802C80.5168 58.7075 80.629 58.5789 80.6755 58.4727C80.7521 58.2965 80.8807 58.1231 80.8971 57.9414C80.9655 57.2256 80.9983 56.507 81.0448 55.7912C81.0038 55.7576 80.9627 55.7269 80.9244 55.6933C80.7056 55.9058 80.4867 56.1183 80.2788 56.3252C80.2077 55.8667 80.3089 55.4948 80.7822 55.2962C80.8478 55.2711 80.8916 55.1341 80.908 55.0418C80.9956 54.5413 81.0749 54.0408 81.1542 53.5375C81.1871 53.3082 81.2609 53.0705 81.2254 52.8496C81.1898 52.6371 81.0393 52.4442 80.8752 52.1115C81.1652 52.2093 81.2527 52.2401 81.3676 52.2792C81.2938 51.9577 81.1187 51.6585 81.1898 51.4488C81.6494 50.1122 81.7123 49.4495 81.3923 48.1493C81.3786 48.0934 81.3758 48.0179 81.4032 47.9732C82.0652 46.8379 81.2691 45.7195 81.3321 44.5787C81.3594 44.1229 81.2418 43.5749 81.2117 43.0632C81.2035 42.9094 81.1488 42.7081 81.0421 42.6186C80.5606 42.2243 80.4074 41.6511 80.6563 41.0863C80.7247 40.9297 80.7959 40.7396 80.7658 40.583C80.629 39.8924 80.4266 39.2185 80.4457 38.4887C80.4512 38.2203 80.1502 37.9435 79.9861 37.6638C80.5524 37.264 79.8521 36.7355 80.0873 36.3133C79.8876 36.2742 79.729 36.2434 79.6441 36.2266C79.7508 35.9107 79.8329 35.6702 79.9177 35.4325C79.7782 35.3822 79.6359 35.3319 79.5238 35.2927C79.6058 35.0495 79.6907 34.8062 79.7864 34.5182C79.5375 34.5685 79.3624 34.6021 79.19 34.6384C79.1654 34.5937 79.1408 34.549 79.1134 34.5014C79.2475 34.3812 79.3843 34.2609 79.4827 34.1743C79.3925 34.11 79.2885 34.0373 79.1545 33.9422C79.2885 33.8751 79.3733 33.8303 79.3952 33.8192C79.2174 33.643 78.9602 33.506 78.911 33.3159C78.8563 33.095 78.9684 32.8237 79.0368 32.5833C79.2365 31.8954 79.1271 31.7193 78.2407 31.6018C78.331 31.0985 78.4186 30.6036 78.5061 30.1115C78.0711 29.9074 77.5924 29.5746 77.7839 29.035C77.9863 28.4702 77.71 28.0815 77.5814 27.6369C77.4994 27.3573 77.4419 26.8708 76.8975 27.1783C76.8209 27.2231 76.5911 26.9826 76.4024 26.854C77.2176 26.3367 77.1383 25.9369 76.4024 25.5063C76.2628 24.8855 76.1917 24.4074 76.0412 23.9572C75.9072 23.5629 75.6801 23.1995 75.4941 22.8192C75.3874 22.8611 75.1795 22.9366 74.8239 23.068C74.9634 22.6346 75.1467 22.341 75.122 22.0642C75.1002 21.7902 74.8704 21.533 74.7062 21.2198C74.5476 21.4351 74.3944 21.6392 74.2357 21.8545C74.2001 21.793 74.0469 21.6252 74.0798 21.5777C74.4737 20.957 73.9731 20.5208 73.7679 20.0538C73.4834 19.4135 73.1113 18.8151 72.7447 18.1412C72.2523 18.3677 72.4438 17.9455 72.5724 17.6351C72.4055 17.5764 72.1867 17.5289 72.1867 17.4953C72.2359 16.8466 71.7024 17.048 71.4863 16.8774C71.3495 16.416 71.2155 15.9351 70.9364 15.566C70.5644 15.0683 70.0802 14.6601 69.6452 14.2127C69.533 14.098 69.3771 13.989 69.3333 13.8464C69.1282 13.1921 69.0789 13.1641 68.3594 13.6031C68.5482 13.2648 68.6713 13.0439 68.8163 12.7867C68.6248 12.7196 68.4278 12.6496 68.2144 12.5714C68.1515 11.8639 67.5633 11.5815 67.0819 11.2348C66.8657 11.081 66.4609 10.9412 66.6277 11.5508C66.1545 11.5256 65.9 11.3439 66.0997 10.8853C66.3323 10.3512 66.0067 10.1555 65.6566 9.88986C65.1614 9.50959 64.6772 9.11534 64.2395 8.65397C63.9987 8.39673 63.6157 8.27929 63.3504 8.1283C63.0877 7.84869 62.8689 7.57467 62.6035 7.35937C62.5433 7.31183 62.2041 7.46282 62.1932 7.54671C62.133 8.04721 61.9141 7.79556 61.6843 7.71447C61.7445 7.57746 61.7883 7.4768 61.8321 7.37894C61.4956 7.28107 61.9032 6.55967 61.1919 6.66033C60.8965 6.69948 60.5627 6.1067 60.1852 5.93893C59.8569 5.79074 59.4465 5.82149 59.0718 5.81031C58.9787 5.80751 58.883 5.95291 58.7872 6.02841C58.7571 5.89699 58.7435 5.75998 58.697 5.63415C58.6094 5.40207 58.5438 5.019 58.4015 4.98265C58.0459 4.89597 57.7012 4.8764 57.4002 4.59958C57.2142 4.42902 56.9297 4.25286 56.7026 4.26964C55.8491 4.33395 55.2473 3.70762 54.4949 3.5035C54.1284 3.40284 53.7043 3.00299 53.4499 3.10645C53.045 3.27142 52.8672 3.15958 52.5964 2.93309C52.4924 2.84641 52.2626 2.86598 52.104 2.90233C51.7073 2.99181 51.368 3.04214 51.1629 2.55561C51.1218 2.46054 50.8674 2.44097 50.706 2.42699C50.6294 2.4186 50.4981 2.55002 50.4653 2.52485C50.0905 2.21728 49.6938 2.23126 49.2616 2.35709C49.1631 2.38784 48.988 2.30675 48.9087 2.22008C48.5776 1.87056 48.3451 1.92369 48.1673 2.35709C48.1481 2.40742 48.1399 2.46054 48.0989 2.61992C48.0086 2.276 47.9649 2.11382 47.9047 1.88734C47.5955 2.00198 47.3329 2.09984 47.0074 2.22008C46.9691 2.15297 46.8788 1.99359 46.7584 1.78108C46.2933 1.85378 45.7243 1.80066 45.3386 2.04672C44.9802 2.276 44.8298 2.41021 44.6109 1.90132C44.2252 2.24244 43.8832 2.84082 43.44 2.10543C42.9886 2.2061 42.685 3.07569 42.1734 2.32074C41.8889 2.50248 41.6317 2.66746 41.2761 2.89394C41.2761 2.87996 41.2761 3.03375 41.2761 3.14C40.9916 3.0729 40.7262 3.0002 40.4581 2.95266C40.2666 2.91911 39.9438 2.84082 39.8918 2.9219C39.5772 3.428 39.3994 3.14 39.2353 2.81845C38.3516 3.24905 37.2409 2.82404 36.6254 3.62094C36.4011 3.62094 36.1932 3.55663 36.1084 3.63212C35.7856 3.92292 35.4545 3.85581 35.0962 3.76074C34.9731 3.72999 34.8034 3.71601 34.7022 3.77472C34.4232 3.9369 34.1879 4.19694 33.8952 4.32277C33.5259 4.48215 33.1183 4.54925 32.7955 4.63593C32.7353 4.35352 32.7052 4.21372 32.6751 4.07111C32.4343 4.19694 32.1963 4.32277 31.9173 4.46817C31.8544 4.45139 31.6984 4.36471 31.5617 4.38708C31.403 4.41504 31.258 4.61077 31.1103 4.60518C30.4127 4.58001 29.8327 5.13085 29.1242 5.0218C29.0722 5.01341 28.9737 5.04417 28.9655 5.07772C28.8342 5.51672 28.4676 5.61458 28.1037 5.74041C27.8548 5.82708 27.6168 5.9641 27.3925 6.11229C26.911 6.42546 26.4541 6.77497 25.9699 7.07975C25.4912 7.37894 24.9823 7.625 24.5008 7.92139C24.1397 8.14228 23.8114 8.41351 23.4585 8.64559C22.6515 9.16846 21.9375 9.81996 21.0457 10.231C20.3864 10.533 19.8201 11.0698 19.2456 11.5424C18.1458 12.4483 17.0297 13.3403 15.9928 14.3161C14.6824 15.5464 13.4186 16.8327 12.1793 18.1385C11.0604 19.3184 9.96338 20.5236 8.92382 21.7734C8.00463 22.8779 7.13741 24.0327 6.31944 25.2155C5.51789 26.3731 4.7601 27.567 4.06524 28.7945C3.45518 29.8738 2.94087 31.009 2.42382 32.1387C2.11195 32.8209 1.8548 33.5284 1.61406 34.2386C1.49916 34.5853 1.60038 35.0662 1.40067 35.3179C0.763258 36.1204 0.990319 37.1354 0.645623 37.9966C0.631945 38.0273 0.664773 38.0749 0.656566 38.114C0.593645 38.4803 0.527988 38.8438 0.459596 39.2297C0.776936 39.3807 0.782408 39.4394 0.511574 39.6575C0.424032 39.7274 0.350168 39.8588 0.341961 39.9679C0.303662 40.4348 0.320075 40.9101 0.259891 41.3743C0.221591 41.6707 0.0902776 41.9531 0 42.2439C0 42.2831 0 42.3222 0 42.3613C0.0902776 42.4844 0.257155 42.6018 0.259891 42.7248C0.276304 43.2897 0.254419 43.8545 0.221591 44.4193C0.21612 44.4948 0.0765993 44.5619 0 44.6346C0 44.6737 0 44.7157 0 44.7548C0.0683921 44.8024 0.194235 44.8415 0.202441 44.8946C0.287248 45.6328 0.355639 46.3738 0.432239 47.1315C0.563552 47.0588 0.651094 47.0085 0.738636 46.9582C0.749578 46.9806 0.760523 47.0001 0.771465 47.0225C0.631945 47.1791 0.489689 47.3357 0.347433 47.4922C0.404882 47.4922 0.459596 47.495 0.517045 47.4978C0.571759 47.9536 0.65383 48.4094 0.678451 48.8679C0.694866 49.2147 0.727693 49.4915 1.17635 49.4551C0.779671 49.7795 0.787879 49.7767 0.943813 50.3806C0.998527 50.5904 1.03683 50.8196 1.00947 51.0294C0.889099 52.008 1.53746 52.5756 2.07639 53.2075C1.43077 53.7835 1.38152 54.7174 1.92045 55.1089C1.92045 55.4221 1.85753 55.7101 1.93413 55.9533C2.07912 56.3951 2.41835 56.7922 2.47033 57.2368C2.54966 57.8911 2.629 58.5202 2.92719 59.113C3.38405 60.0161 3.80261 60.936 4.26221 61.8364C4.47285 62.2474 4.78472 62.6109 4.98169 63.0275C5.34827 63.8077 5.5343 64.694 6.29756 65.2281C6.33312 65.2533 6.29209 65.3735 6.32492 65.4266C6.57933 65.8209 6.83649 66.2151 7.11553 66.5926C7.13741 66.6234 7.32891 66.5199 7.54777 66.4416C7.52588 66.6933 7.50126 66.9477 7.47117 67.2972C8.07029 67.8173 8.94844 68.329 8.84722 69.5286C9.0524 69.5062 9.24663 69.4866 9.4819 69.4587C9.15909 69.9312 9.28493 70.3282 9.76094 70.5967C9.94423 70.7029 10.1221 70.8567 10.2506 71.0301C10.3628 71.1811 10.3628 71.4215 10.4777 71.5697C10.8662 72.0591 11.282 72.5232 11.6869 72.9958C11.9604 73.3173 12.2422 73.6277 12.5048 73.9548C13.1176 74.7126 13.7003 75.4955 14.335 76.2337C14.7481 76.7118 15.2597 77.1005 15.6782 77.5758C16.4278 78.4314 17.0899 79.3709 17.8777 80.1846C19.1307 81.482 20.4438 82.7207 21.7597 83.9538C22.5394 84.6836 23.3436 85.3966 24.1972 86.0369C25.3598 86.9121 26.5772 87.7146 27.7755 88.5367C28.1721 88.8107 28.5852 89.0539 28.9928 89.3056C29.8491 89.8369 30.6999 90.3821 31.5699 90.891C32.1279 91.2181 32.7216 91.4838 33.2961 91.783C33.7721 92.0318 34.2207 92.3506 34.7186 92.5323C35.6707 92.8791 36.6035 93.2957 37.4133 93.8885C38.0398 94.3498 38.8769 94.2743 39.4268 94.8923C39.6484 95.1383 40.0642 95.2026 40.387 95.348C39.8152 95.9632 39.2818 96.4357 38.8714 97.0033C38.2422 97.8785 37.0905 98.4126 37.1343 99.7491C37.1534 100.272 37.0494 100.798 37.0412 101.323C37.0303 102.09 37.0823 102.842 37.2382 103.608C37.3175 103.996 37.2765 104.391 37.5747 104.696C37.8182 104.942 38.0753 105.165 38.327 105.4C39.0711 106.099 39.9602 106.538 40.8849 106.918C41.3034 107.092 41.7193 107.327 42.1542 107.385C42.9859 107.497 43.8039 107.439 44.6574 107.318C45.5082 107.195 46.3645 106.98 47.2317 106.921C47.7515 106.885 48.2767 106.851 48.7883 106.759C49.4449 106.639 50.0932 106.457 50.717 106.312C50.9741 106.773 51.2504 107.142 51.3954 107.562C51.5486 108.006 51.7237 108.308 52.2517 108.182C52.0191 108.94 52.0301 108.976 52.3885 109.234C52.7797 110.511 53.0997 111.605 53.4581 112.681C53.5375 112.919 53.759 113.106 53.9615 113.377C53.6852 113.632 53.7153 113.962 54.1092 114.261C54.153 114.297 54.1338 114.412 54.1585 114.485C54.2843 114.871 54.3746 115.279 54.5661 115.628C54.6481 115.777 55.0585 115.746 55.1214 115.888C55.1898 116.048 54.96 116.327 54.9956 116.526C55.0448 116.778 55.2308 117.001 55.3594 117.239C55.5318 117.172 55.6768 117.116 55.8984 117.029C55.395 117.759 55.395 117.706 55.819 118.369C55.9832 118.623 56.0844 118.919 56.2048 119.199C56.6616 120.259 57.1048 121.321 57.5781 122.373C57.8544 122.991 58.1471 123.606 58.4891 124.187C58.7954 124.713 59.1812 125.188 59.545 125.706C59.6326 125.7 59.7639 125.689 59.8241 125.683C59.783 125.901 59.6709 126.122 59.7365 126.245C59.9718 126.693 60.2618 127.112 60.5381 127.54C61.0469 128.323 61.46 129.206 62.0974 129.861C62.8826 130.672 63.8127 131.357 64.7593 131.969C65.3857 132.374 66.1462 132.562 66.8521 132.839C66.9341 132.869 67.0408 132.841 67.1338 132.841C67.5688 132.847 68.0038 132.853 68.436 132.858C69.399 132.875 70.3619 132.894 71.3249 132.897C71.3988 132.897 71.4726 132.771 71.5465 132.702C71.6423 132.615 71.7954 132.433 71.8255 132.453C72.2332 132.707 72.3316 132.246 72.5724 132.131C72.69 132.078 72.783 131.975 72.887 131.893C72.928 131.935 72.9691 131.977 73.0101 132.019C72.8843 132.193 72.7557 132.363 72.6025 132.573C73.7405 132.59 74.5503 131.924 75.5023 131.393C75.5844 131.468 75.7786 131.617 75.9291 131.804C76.2902 132.254 76.6048 132.749 76.9905 133.177C77.4173 133.652 77.9562 134.027 78.3529 134.525C78.7359 135.003 79.3159 135.204 79.6907 135.696C79.956 136.046 80.38 136.264 80.7165 136.557C81.6877 137.402 82.6124 138.311 83.6273 139.094C85.08 140.215 86.5736 141.283 88.0947 142.301C89.0084 142.913 90.0097 143.386 90.9672 143.925C91.4568 144.202 91.9301 144.512 92.4253 144.778C92.8192 144.985 93.2378 145.147 93.6454 145.332C94.0311 145.494 94.4196 145.874 94.7834 145.852C95.1172 145.829 95.4291 145.376 95.7683 145.097C96.2498 145.441 96.6984 145.357 97.0842 144.831C97.1909 144.683 97.396 144.607 97.5574 144.501C97.645 144.568 97.7325 144.635 97.8201 144.703C97.2237 144.747 97.3605 145.175 97.4973 145.156C97.9103 145.094 98.463 145.511 98.6681 144.968C98.9718 145.027 99.2153 145.116 99.4587 145.114C99.8089 145.108 100.162 145.046 100.509 144.985C100.977 144.907 101.508 145.038 101.863 144.557C101.894 144.518 102.107 144.605 102.227 144.655C102.339 144.705 102.443 144.851 102.547 144.845C103.015 144.826 103.502 144.814 103.691 144.364C103.915 144.484 104.12 144.689 104.29 144.663C104.698 144.602 105.092 144.437 105.491 144.308C105.745 144.227 106.008 144.155 106.254 144.051C106.405 143.99 106.522 143.841 106.673 143.797C107.094 143.671 107.537 143.612 107.948 143.461C108.954 143.086 109.893 142.533 110.946 142.273C111.364 142.166 111.769 141.974 112.155 141.769C113.066 141.283 113.977 140.794 114.861 140.254C115.463 139.885 116.294 139.865 116.642 139.08C116.655 139.046 116.776 139.074 116.839 139.049C116.986 138.99 117.129 138.912 117.274 138.85C117.405 138.797 117.539 138.755 117.673 138.71C117.818 138.663 117.982 138.652 118.105 138.571C119.355 137.74 120.606 136.907 121.842 136.057C122.105 135.878 122.307 135.47 122.562 135.442C123.289 135.369 123.691 134.841 124.198 134.444C124.613 134.116 125.018 133.739 125.489 133.521C126.011 133.283 126.37 133.037 126.334 132.388C126.329 132.271 126.621 132.025 126.632 132.03C127.021 132.338 127.081 132 127.33 131.784C127.997 131.2 128.794 130.772 129.499 130.227C129.918 129.905 130.263 129.48 130.632 129.095C130.81 128.91 130.952 128.56 131.138 128.541C131.836 128.46 131.983 127.716 132.52 127.462C132.719 127.367 132.916 127.23 133.069 127.067C133.351 126.768 133.545 126.262 133.876 126.15C134.58 125.918 134.845 125.247 135.373 124.847C136.008 124.369 136.516 123.715 137.077 123.136C137.209 122.999 137.334 122.856 137.474 122.722C138.027 122.191 138.609 121.685 139.137 121.123C139.739 120.482 140.286 119.786 140.869 119.124C141.345 118.581 141.887 118.092 142.316 117.513C143.046 116.523 143.711 115.483 144.406 114.465C144.901 113.741 145.399 113.02 145.96 112.206C145.976 112.365 145.963 112.455 145.993 112.474C146.08 112.533 146.223 112.628 146.28 112.597C146.48 112.483 146.652 112.318 146.838 112.172C146.89 111.823 146.95 111.429 147.011 111.037C147.041 111.073 147.071 111.11 147.101 111.146C147.276 111.015 147.451 110.886 147.626 110.755C147.56 110.724 147.492 110.693 147.426 110.662C147.363 110.503 147.298 110.341 147.235 110.182C147.418 110.12 147.601 110.058 147.785 109.994C147.815 110.045 147.845 110.095 147.875 110.145C148.086 109.726 148.296 109.309 148.553 108.803C148.294 108.876 148.143 108.918 148.006 108.957C148.904 107.187 149.779 105.448 150.671 103.717C151.847 101.424 152.933 99.0949 153.702 96.6147C154.287 94.7189 155.185 92.921 155.404 90.9134C155.445 90.5443 155.267 90.0745 155.434 89.8145C155.773 89.286 155.185 88.6597 155.699 88.1732C155.781 88.0949 155.562 87.681 155.483 87.4238C155.538 87.449 155.595 87.4713 155.65 87.4965C155.83 87.2812 156.123 87.0827 156.159 86.845C156.191 86.6241 155.945 86.3613 155.781 86.0341ZM40.149 89.4566C39.7386 89.2609 39.3283 89.0707 38.9152 88.8778C38.7401 88.7967 38.565 88.7156 38.3571 88.7184C38.1629 88.5395 37.996 88.3074 37.7717 88.1927C36.5461 87.558 35.2959 86.9708 34.0758 86.3305C32.9268 85.7265 31.7832 85.1058 30.6726 84.4319C30.1172 84.0936 29.6439 83.6099 29.1187 83.2128C28.9682 83.0982 28.7521 83.0702 28.5962 82.9584C28.432 82.8409 28.3144 82.6536 28.1557 82.5222C27.7536 82.1866 27.3432 81.8651 26.8617 81.4764C26.7769 81.468 26.2872 82.1195 26.4404 81.2332C26.4733 81.043 25.9316 80.6628 25.5951 80.5118C24.9276 80.2126 24.509 79.7121 24.1206 79.1137C23.847 78.6943 23.4503 78.3559 23.1029 77.9841C22.7117 77.5646 22.3807 77.0222 21.9019 76.7705C21.4423 76.5273 21.3001 76.0184 20.9499 75.8199C20.2742 75.4452 20.0636 74.7573 19.6231 74.2317C19.2128 73.7451 18.7039 73.3425 18.2388 72.9007C18.2088 72.9426 18.1759 72.9818 18.1431 73.0237C18.1759 72.8336 18.206 72.6434 18.2443 72.4198C17.8996 72.54 17.678 72.5652 17.6315 72.1122C17.6069 71.8745 17.4318 71.5613 17.2403 71.4691C17.1117 71.4104 16.8354 71.676 16.5208 71.8549C16.6412 71.497 16.9202 71.0972 16.8218 70.8455C16.7014 70.5324 16.2746 70.3394 15.9381 70.0598C15.9628 69.5621 15.8561 69.4754 15.246 69.6013C15.194 69.0225 14.7262 68.4409 14.1627 68.2899C14.573 67.437 13.6648 67.4091 13.3611 67.0036C13.0492 66.5842 12.8632 65.8516 12.0835 66.1648C12.2723 66.0306 12.5623 65.9327 12.6225 65.7566C12.6662 65.6224 12.4146 65.3847 12.3024 65.1918C12.2477 65.0939 12.1902 64.9904 12.1601 64.8814C12.0452 64.4759 11.8401 64.2159 11.2109 64.4424C11.2875 64.1152 11.3859 63.8999 11.3668 63.6986C11.3531 63.5616 11.1917 63.3687 11.0604 63.3295C10.8662 63.2708 10.6336 63.3044 10.4257 63.3435C10.3354 63.3603 10.2616 63.4861 10.0509 63.4973C10.1439 63.254 10.2151 62.9968 10.3354 62.7703C10.5461 62.3733 10.4175 62.0349 9.99348 61.9371C9.39983 61.8028 9.81566 61.3079 9.64331 60.9612C8.87458 61.0898 9.2439 60.3125 8.99221 59.9826C8.71044 59.6051 8.77062 59.5548 8.3931 59.7701C8.16603 59.1913 7.93624 58.6125 7.69002 57.9833C7.71191 57.9693 7.8186 57.905 7.95812 57.8212C7.80219 57.8212 7.66814 57.8212 7.48758 57.8212C7.504 57.5164 7.53956 57.2032 7.51494 56.8956C7.50947 56.8537 7.21128 56.8341 7.03072 56.8649C6.59848 56.6384 7.72832 55.889 6.68603 55.8107C6.65867 55.5395 7.0827 55.1844 6.48632 55.0502C6.37416 55.025 6.27841 54.4686 6.33312 54.1918C6.42614 53.7304 6.24558 53.585 5.82976 53.5794C6.29756 52.8608 5.71486 52.3128 5.6492 51.7032C5.61911 51.432 5.60269 51.158 5.58081 50.8867C5.56166 50.6575 5.63005 50.3191 5.50968 50.2129C5.00084 49.7823 5.13489 49.3293 5.39752 48.7924C5.23064 48.7645 5.10206 48.7393 4.93518 48.7114C5.11027 47.4671 4.87226 46.2647 4.69444 44.9785C4.49747 45.0596 4.30324 45.1407 3.97222 45.2805C4.05429 45.0233 4.06797 44.8359 4.16098 44.7101C4.83123 43.8041 4.81208 43.6252 3.95581 42.929C3.83817 42.8339 3.75884 42.6857 3.76157 42.4788C3.87921 42.6102 3.99684 42.7416 4.14183 42.9038C4.42088 42.065 4.52757 41.3016 4.17193 40.5355C4.15551 40.5019 4.12542 40.4348 4.12816 40.432C4.70812 40.0825 4.34428 39.5093 4.4072 39.0563C4.50295 38.3573 4.43455 37.6331 4.4455 36.9201C4.4455 36.8278 4.51389 36.7383 4.53851 36.6433C4.73548 35.8827 5.15404 35.097 5.07471 34.3672C4.96254 33.2907 5.64373 32.5357 5.83249 31.5934C6.02399 30.626 6.6532 29.734 7.16477 28.8532C7.56418 28.1626 8.06755 27.5363 8.52988 26.8848C9.15088 26.0096 9.75273 25.1204 10.4038 24.2704C10.8197 23.7279 11.3175 23.2498 11.7607 22.7269C12.193 22.2208 12.576 21.6672 13.0274 21.1834C13.4541 20.7277 13.963 20.353 14.4089 19.914C15.3226 19.008 16.1871 18.049 17.1364 17.1822C17.7519 16.6174 18.4714 16.1728 19.1553 15.689C20.0608 15.0431 20.9882 14.428 21.88 13.7653C22.7254 13.139 23.5187 12.4399 24.3695 11.822C24.7635 11.534 25.2504 11.3802 25.6744 11.1313C25.9562 10.9664 26.2024 10.7399 26.528 10.4938C26.9192 10.5889 27.8603 9.90385 27.8822 9.2831C28.0162 9.51518 28.1037 9.66338 28.2351 9.88986C28.4047 9.69414 28.5524 9.52078 28.7029 9.34741C29.0065 9.68015 29.2473 9.78082 29.4825 9.25235C29.581 9.03145 29.8382 8.82454 30.068 8.74904C30.2649 8.68194 30.6726 8.74345 30.7327 8.86928C30.9872 9.43689 31.3264 9.05941 31.6164 8.9979C32.0213 8.90842 32.4179 8.76582 32.8146 8.63999C33.0854 8.55331 33.3508 8.44986 33.5833 8.2737C34.0867 8.17584 34.5955 8.09475 35.0962 7.97731C35.5257 7.87665 35.947 7.73684 36.516 7.57187C36.3573 7.44045 36.2178 7.32581 36.0947 7.22515C36.5215 6.94833 36.6938 7.03781 36.888 7.73405C37.137 7.5523 37.3723 7.08534 37.6896 7.63059C38.4447 7.4796 39.1997 7.3314 39.9575 7.17762C40.004 7.16643 40.0724 7.07975 40.0833 7.09094C40.6359 7.56069 41.1229 6.95672 41.6481 6.98189C41.7494 6.98748 41.8643 6.76099 41.8916 6.73024C42.2473 6.80014 42.5537 6.91758 42.8546 6.90639C43.9133 6.85886 44.9693 6.71905 46.028 6.70787C46.4876 6.70227 46.9444 6.95672 47.415 7.02663C47.984 7.10771 48.5694 7.08534 49.1357 7.17762C49.3737 7.21397 49.5707 7.4824 49.8114 7.54671C50.8127 7.81234 51.8249 8.01925 52.8234 8.29327C53.1162 8.37436 53.3542 8.64838 53.6441 8.75463C54.4266 9.03704 55.2801 9.16846 56.005 9.55713C57.4194 10.3121 58.8037 11.1481 60.1332 12.0541C61.0114 12.658 61.7637 13.4549 62.5926 14.1372C62.7759 14.2882 63.0686 14.2882 63.2683 14.4252C63.4707 14.5678 63.6349 14.7803 63.7908 14.9816C64.1902 15.4933 64.5705 16.019 64.9699 16.5307C65.4651 17.1654 65.963 17.8029 66.4827 18.4181C66.6086 18.5663 66.8302 18.6334 67.0627 18.7676C67.0162 19.4247 67.6591 20.1349 68.2281 20.0482C68.2144 20.1601 68.1515 20.3027 68.198 20.381C68.9284 21.6532 69.6643 22.9226 70.4249 24.1781C70.5398 24.3682 70.786 24.4745 71.0404 24.673C70.5206 25.2742 71.2921 25.7244 71.4945 26.2864C71.9213 27.4663 72.4657 28.5988 72.9636 29.7508C73.2618 30.4498 73.6092 31.1321 73.8472 31.8535C74.0852 32.5749 74.129 33.3718 74.419 34.068C74.8157 35.0271 74.8321 36.0896 75.2205 37.0123C75.6117 37.9435 75.4968 38.9137 75.7376 39.8392C75.9017 40.4767 76.0549 41.1171 76.189 41.7602C76.3121 42.353 76.4242 42.9513 76.4981 43.5525C76.5446 43.9216 76.4653 44.3102 76.5337 44.6737C76.5938 44.9925 76.7826 45.2833 76.903 45.5909C76.9385 45.6776 76.9468 45.781 76.9413 45.8733C76.8537 47.1259 77.1601 48.3367 77.338 49.5586C77.3571 49.7068 77.4829 49.8382 77.4747 49.827C77.379 50.2045 77.2668 50.4785 77.2477 50.7581C77.2176 51.1775 77.2449 51.6026 77.2696 52.0248C77.2805 52.2289 77.3325 52.433 77.368 52.6371C77.3735 52.6847 77.3899 52.735 77.3845 52.7825C77.3653 52.9755 77.3407 53.1684 77.3161 53.3613C77.3051 53.4368 77.3106 53.5235 77.2696 53.5794C76.7443 54.3567 77.048 55.2431 76.9522 56.0764C76.8537 56.9264 76.81 57.7848 76.7498 58.6404C76.6923 59.4597 76.7826 60.3265 76.5528 61.0898C76.3121 61.8755 76.2601 62.6696 76.1479 63.4609C76.0905 63.872 76.1452 64.2718 75.8279 64.613C75.7704 64.6773 75.9373 64.9513 76.0084 65.161C75.3847 65.4909 75.6446 66.1061 75.5652 66.6262C75.5023 67.0372 75.3984 67.4398 75.3108 67.8453C75.0865 68.9218 74.8676 70.0011 74.6296 71.0748C74.4901 71.6956 74.2959 72.3023 74.1646 72.9231C73.8417 74.4442 73.5135 75.9652 73.2399 77.4975C73.0648 78.4594 72.9827 79.4408 72.8651 80.4139C72.846 80.5621 72.8596 80.7187 72.8733 80.8697C72.9335 81.5296 72.6353 81.8791 72.0061 82.0217C71.6423 82.1028 71.3085 82.3153 70.9583 82.4635C69.8422 82.936 68.726 83.4058 67.6098 83.8783C67.5387 83.9091 67.4457 83.9398 67.4183 83.9985C67.1338 84.5969 66.4909 84.4879 66.0396 84.7535C65.6319 84.994 65.2325 85.2484 64.8714 85.5308C64.5787 85.6147 64.275 85.6734 63.9933 85.7881C63.2902 86.0761 62.5844 86.3669 61.8977 86.6968C61.5941 86.8422 61.3424 87.0966 61.0469 87.2672C60.8691 87.3679 60.653 87.3958 60.4615 87.4713C59.9718 87.6643 59.3809 87.6782 59.1265 88.2794C59.0991 88.3409 59.0061 88.4164 58.9486 88.4136C57.8954 88.3661 57.1267 88.9784 56.3114 89.5321C56.0269 89.725 55.6002 89.711 55.2363 89.7781C54.7931 89.8592 54.4813 90.055 54.4457 90.5722C54.4375 90.6813 54.3144 90.782 54.2433 90.8882C54.1721 90.8127 54.0983 90.7372 54.0928 90.7288C53.6441 91.0252 53.2037 91.3132 52.6319 91.6907C52.7031 91.4726 52.7113 91.4083 52.7414 91.358C52.7824 91.2936 52.8426 91.2405 52.8946 91.1818C52.5034 90.8407 52.5034 90.8379 50.5774 91.6907C49.8415 92.015 49.2041 92.4876 48.6871 93.2146C48.5694 93.0245 48.4846 92.8874 48.3916 92.7365C48.1892 92.8455 47.8363 92.9266 47.8062 93.0748C47.653 93.8074 47.1332 93.511 46.7338 93.5305C46.4712 93.5417 46.2058 93.4998 45.9049 93.4802C46.0964 92.8567 45.4672 92.7085 45.1088 92.4065C44.6766 92.0458 44.1759 91.7718 43.6753 91.4418C43.5877 91.5257 43.4783 91.6292 43.3361 91.7662C43.4756 91.8808 43.5877 91.9731 43.6972 92.0654C43.6561 92.1101 43.6151 92.1576 43.5741 92.2024C43.4564 92.0766 43.2157 91.8948 43.2403 91.8361C43.5139 91.207 43.1035 90.9861 42.6686 90.8127C42.2582 90.6505 41.8232 90.5527 41.2925 90.3961C41.2898 90.3821 41.2679 90.2004 41.2597 90.1221C40.9697 89.9375 40.759 89.7977 40.5429 89.6663C40.4171 89.5908 40.283 89.5209 40.149 89.4566ZM54.6946 101.027C54.3363 100.993 53.9369 101.34 53.5675 101.539C53.4444 101.606 53.3542 101.732 53.1216 101.955C53.1873 101.597 53.2174 101.418 53.2475 101.256C53.0888 101.2 52.9329 101.144 52.7851 101.091C52.6867 101.223 52.569 101.376 52.4514 101.536C52.2872 101.474 52.1313 101.413 52.0848 101.396C51.6389 101.687 51.2668 101.927 50.9057 102.165C50.7717 102.095 50.5255 101.925 50.4926 101.961C50.1534 102.327 49.6665 102.187 49.278 102.364C49.1576 102.419 48.9989 102.431 48.8649 102.411C48.1098 102.291 46.9855 102.38 46.5478 103.077C46.1183 102.556 45.5684 102.579 44.8516 103.146C44.5808 102.864 43.451 102.794 43.1254 103.029C42.6303 102.688 42.1433 102.35 41.6536 102.017C41.5633 101.952 41.4457 101.841 41.3664 101.863C40.718 102.025 40.8356 101.664 40.9013 101.242C40.9505 100.915 40.8822 100.568 40.8493 100.233C40.8384 100.113 40.7426 100.001 40.7372 99.8834C40.6934 99.0417 40.8986 98.9299 41.8396 98.5244C42.9832 98.0267 44.2224 98.0575 45.3769 97.6772C45.5 97.6381 45.6231 97.5905 45.7353 97.5318C46.4383 97.1571 47.2071 97.0621 47.9758 96.9586C48.0469 96.9502 48.129 96.9139 48.1755 96.8607C48.4682 96.5532 48.75 96.2372 49.1084 95.8457C49.1494 96.117 49.1768 96.2875 49.2041 96.4581C49.2479 96.4609 49.2889 96.4665 49.3327 96.4693C49.3683 96.3798 49.3984 96.2847 49.4394 96.2009C49.6282 95.8206 49.8935 95.6304 50.3285 95.7898C50.7443 95.9408 51.0753 95.8374 51.2449 95.4459C51.4501 95.4962 51.6799 95.6332 51.8359 95.5717C52.5006 95.3173 53.1435 94.9929 53.8001 94.7133C54.0353 94.6127 54.298 94.5875 54.5332 94.4868C54.7439 94.3946 54.9354 94.2464 55.0995 94.1429C55.4305 94.0283 55.7725 93.9835 56.0215 93.8046C56.4728 93.4746 56.9844 93.4523 57.4823 93.3069C57.9556 93.1671 58.2976 92.6414 58.883 92.7029C58.935 92.7085 58.9869 92.5771 59.0553 92.5407C59.307 92.4093 59.6052 92.345 59.8077 92.1632C60.218 91.7886 60.6119 91.4474 61.2165 91.5928C61.2247 91.5928 61.2904 91.3328 61.2959 91.3132C61.7637 90.9106 62.5105 91.4894 62.7896 90.6589C62.8087 90.6002 62.9674 90.5247 63.0111 90.5499C63.4653 90.8015 63.6568 90.3961 63.944 90.2032C64.1656 90.055 64.4364 89.9906 64.6827 89.8816C65.145 89.6747 65.6101 89.4678 66.0696 89.2497C66.718 88.9365 67.3609 88.615 68.0038 88.2934C68.5482 88.0194 69.0981 87.7537 69.637 87.4629C70.1075 87.2057 70.5534 86.8981 71.0322 86.6577C71.1526 86.5961 71.3577 86.708 71.5055 86.7387C71.2346 87.393 70.9966 87.9662 70.7614 88.5423C70.5671 89.0176 70.3537 89.4901 70.1923 89.9767C69.834 91.0644 69.5029 92.1632 69.1582 93.2537C69.1254 93.36 69.1035 93.5138 69.0297 93.5529C68.7014 93.7319 68.3731 93.9304 68.0175 94.0255C67.0572 94.2911 66.294 94.8727 65.5471 95.5018C65.4377 95.5941 65.1942 95.5018 65.0547 95.5773C64.5869 95.8262 64.1355 96.1114 63.6787 96.3798C63.1425 96.693 62.609 97.0089 62.0701 97.3165C61.605 97.5794 61.1153 97.8058 60.6694 98.0966C60.5271 98.1917 60.5189 98.4797 60.3849 98.6111C60.2344 98.7537 59.9554 98.955 59.8323 98.8991C58.9377 98.4965 58.355 99.1899 57.6711 99.4947C56.9735 99.8079 56.3005 100.18 55.6193 100.529C55.5208 100.58 55.395 100.63 55.3457 100.719C55.1925 100.993 55.064 101.063 54.6946 101.027ZM57.3264 109.695C57.1267 109.41 57.0063 109.147 56.8093 108.982C56.5795 108.786 56.5248 108.618 56.5057 108.303C56.4756 107.799 56.254 107.307 56.1282 106.857C55.7725 106.885 55.5017 106.907 55.2281 106.932C55.2199 106.868 55.209 106.801 55.2008 106.737C55.3895 106.661 55.5755 106.583 55.8546 106.468C55.5071 106.063 55.685 105.381 55.0257 105.168C54.971 105.148 54.9573 105.003 54.9217 104.914C55.0229 104.883 55.1296 104.855 55.2281 104.813C55.3704 104.751 55.5071 104.682 55.6166 104.545C56.3826 104.606 56.7355 104.371 57.0665 103.543C57.1568 103.317 57.3619 103.141 57.5151 102.942C57.5781 102.995 57.641 103.049 57.7012 103.099C57.589 103.236 57.4796 103.37 57.3483 103.532C58.3058 103.571 59.0663 103.063 59.8514 102.643C60.3712 102.366 60.9047 102.112 61.408 101.807C62.1959 101.323 63.1343 101.088 63.7553 100.32C63.8319 100.224 64.0288 100.227 64.1738 100.194C64.2723 100.171 64.4282 100.205 64.4693 100.146C64.8359 99.6317 65.4486 99.6289 65.9356 99.3717C66.0833 99.2934 66.1791 99.1116 66.3405 98.9327C66.5675 99.106 66.8411 99.1787 66.7919 98.6083C67.1667 98.544 67.536 98.4825 67.9299 98.4126C67.774 99.1396 67.5934 99.8666 67.4594 100.605C67.3855 101.021 67.4074 101.458 67.339 101.877C67.2679 102.313 67.1092 102.733 67.0545 103.172C67.0162 103.468 67.0408 103.75 66.967 104.066C66.8274 104.648 66.5949 104.981 66.0505 105.224C65.5745 105.439 65.1805 105.842 64.7483 106.158C64.658 106.225 64.5541 106.345 64.4693 106.334C63.8702 106.27 63.4707 106.642 63.0385 106.966C62.8962 107.069 62.6856 107.075 62.5187 107.153C61.8211 107.483 61.1864 107.9 60.6667 108.493C60.5682 108.604 60.4287 108.677 60.3083 108.767C60.2755 108.739 60.2454 108.711 60.2153 108.68C60.322 108.579 60.4314 108.476 60.5436 108.37C59.8487 108.121 59.545 108.233 59.4165 108.627C59.0553 108.725 58.7654 108.747 58.5383 108.879C58.0869 109.139 57.6683 109.46 57.3264 109.695ZM63.6513 119.504C63.1698 119.378 63.1561 119.792 62.8196 119.901C63.0002 119.96 63.0877 119.99 63.1726 120.018C62.9728 120.248 62.7759 120.474 62.5433 120.743C62.3765 120.717 62.0974 120.678 61.7609 120.628C62.1494 119.862 61.5093 119.258 61.1481 118.534C60.9594 118.589 60.7843 118.643 60.4916 118.729C60.5846 118.287 60.6585 117.921 60.746 117.507C60.4341 117.426 60.3712 117.233 60.3466 116.825C60.3165 116.305 59.9992 115.777 59.7037 115.321C59.6079 115.167 59.2058 115.22 58.8064 115.156C59.2906 114.879 59.3316 114.448 59.0635 114.04C58.5711 113.285 58.6286 113.157 59.5259 112.913C59.6435 112.883 59.7447 112.768 59.8487 112.687C60.0484 112.53 60.2372 112.36 60.4451 112.217C60.8937 111.91 61.4244 111.859 61.9223 111.7C62.2862 111.585 62.5488 111.138 62.8716 110.825C63.085 111.199 63.2929 111.202 63.5692 110.992C63.8264 110.797 64.1 110.604 64.3954 110.492C64.7401 110.366 65.1258 110.363 65.4733 110.246C65.6675 110.184 65.807 109.941 65.9985 109.882C66.387 109.768 66.7973 109.72 67.2433 109.639C67.2268 109.787 67.246 109.941 67.205 109.961C66.3186 110.4 66.9861 111.269 66.6907 111.868C67.3226 112.513 66.8138 113.324 66.9505 114.054C67.0381 114.516 67.2405 114.873 67.3992 115.276C67.4649 115.449 67.5688 115.609 67.722 115.74C67.7767 116.031 66.8821 116.266 67.681 116.705C67.6317 116.915 67.5852 117.141 67.5223 117.365C67.4867 117.491 67.4512 117.661 67.3636 117.714C66.6223 118.148 66.0177 118.841 65.0985 118.936C64.9535 118.953 64.814 119.048 64.6744 119.107C64.3298 119.252 63.9385 119.579 63.6513 119.504ZM71.5848 128.463C71.4289 128.538 71.1252 128.563 71.0349 128.468C70.5945 127.996 70.4604 128.222 70.3565 128.703C70.3483 128.753 70.1404 128.756 69.9899 128.79C70.1513 128.53 70.2635 128.345 70.4522 128.04C69.8558 128.04 69.4181 128.046 68.9777 128.032C68.871 128.029 68.6986 127.892 68.6713 127.923C68.5427 128.071 68.1843 127.52 68.2226 128.08C68.0257 128.018 67.7494 128.018 67.6427 127.881C67.2898 127.422 66.822 127.534 66.2994 127.492C66.3186 127.039 66.1025 126.832 65.6867 126.925C65.4842 126.38 65.2954 125.868 65.0793 125.281C64.8906 125.569 64.7346 125.804 64.5295 126.119C64.5295 125.465 64.5842 124.987 64.5048 124.537C64.4611 124.28 64.1793 124.073 64.0261 123.827C63.7881 123.438 63.8647 123.371 64.2395 123.195C64.762 122.946 65.2325 122.588 65.7414 122.308C66.0779 122.124 66.4472 122.004 66.8001 121.844C67.3253 121.609 67.8424 121.349 68.3731 121.128C68.5865 121.042 68.83 121.028 68.9066 121.014C69.1938 121.62 69.4455 122.155 69.7136 122.722C69.8367 122.733 70.009 122.75 70.061 122.756C70.3948 123.729 70.3483 124.861 71.6997 125.09C71.5492 126.212 72.4356 126.9 72.8186 127.741C72.4055 127.99 72.0088 128.256 71.5848 128.463ZM79.1134 125.183C79.5457 124.856 79.6524 124.685 79.1462 124.35C78.6265 124.003 78.2626 123.421 77.7702 123.021C77.6033 122.884 77.2504 122.985 76.9851 122.991C76.8647 122.991 76.6923 123.088 76.6376 123.038C76.1042 122.546 75.5844 122.04 75.0783 121.517C74.7938 121.226 74.5558 120.891 74.2712 120.603C74.1946 120.527 74.025 120.547 74.0278 120.452C73.8062 120.083 73.6338 119.666 73.3493 119.358C72.9855 118.967 72.5067 118.71 72.5587 118.027C72.5724 117.843 72.214 117.63 71.924 117.32C71.6368 115.841 71.3194 114.194 71.013 112.611C70.7997 112.623 70.5425 112.637 70.258 112.65C70.3811 112.13 70.4686 111.742 70.5671 111.356C70.6054 111.202 70.6437 111.04 70.7176 110.903C70.9337 110.52 70.7641 109.449 70.5261 109.295C70.5261 108.845 70.5234 108.451 70.5261 108.056C70.5288 107.796 70.5343 107.539 70.5507 107.279C70.5589 107.142 70.6492 106.983 70.6054 106.874C70.31 106.144 70.5972 105.414 70.5753 104.69C70.5343 103.11 71.0076 101.597 71.065 100.04C71.0842 99.5059 71.1553 99.0613 71.3796 98.558C71.6723 97.8981 71.7216 97.118 71.8529 96.3882C72.0061 95.5522 72.0936 94.7049 72.2933 93.8857C72.3836 93.5194 72.7174 93.223 72.8706 92.8623C72.9472 92.6861 72.8542 92.4429 72.8624 92.2276C72.876 91.9535 72.8678 91.6655 72.9526 91.4111C73.4752 89.8508 73.8117 88.2347 74.5667 86.7471C75.5297 84.8486 76.5391 82.9919 77.8796 81.3338C78.145 81.0039 78.3146 80.5901 78.5827 80.2629C78.9548 79.8127 79.3788 79.4101 79.7755 78.9795C79.9998 78.7362 80.2104 78.4762 80.4348 78.2301C81.5236 77.0306 82.6069 75.8254 83.7149 74.6455C84.2811 74.0387 84.8611 73.4348 85.4985 72.9091C86.1551 72.3666 86.9047 71.9444 87.5859 71.4299C88.2835 70.8987 88.9455 70.3171 89.6294 69.7662C89.7416 69.6768 89.892 69.6404 90.0097 69.5565C90.4747 69.2238 90.9097 68.8379 91.3994 68.5527C91.9465 68.2395 92.5703 68.0634 93.1065 67.7362C93.8478 67.2861 94.5372 66.7464 95.3142 66.1984C95.3361 66.1984 95.533 66.2627 95.637 66.1872C96.1321 65.8265 96.5726 65.3763 97.0896 65.0547C97.5055 64.7975 98.017 64.7052 98.463 64.4955C98.7174 64.3753 98.9745 64.1991 99.1469 63.9838C99.404 63.6567 99.5764 63.7629 99.8116 64.1292C99.9813 63.844 100.11 63.6259 100.282 63.3323C100.427 63.3183 100.739 63.3547 100.993 63.2484C101.954 62.8514 102.898 62.418 103.839 61.979C104.038 61.8867 104.189 61.6854 104.386 61.5792C104.613 61.4561 104.862 61.3694 105.111 61.2967C105.425 61.2045 105.748 61.143 106.068 61.0647C106.096 61.0563 106.106 60.9808 106.131 60.978C106.722 60.8913 106.722 60.8941 106.769 60.3684C107.127 60.6788 107.483 61.0619 107.882 60.4635C107.901 60.4327 108.043 60.5054 108.128 60.5054C108.448 60.5054 108.771 60.5278 109.086 60.4803C109.884 60.3628 110.678 60.2146 111.468 60.0609C111.529 60.0469 111.559 59.8707 111.586 59.812C111.936 59.812 112.314 59.8567 112.675 59.8036C113.616 59.6582 114.552 59.4625 115.49 59.3003C115.753 59.2528 116.053 59.3143 116.283 59.2108C116.644 59.0459 116.962 58.7774 117.227 58.6013C117.438 58.6824 117.687 58.8194 117.952 58.8557C118.053 58.8697 118.187 58.6544 118.34 58.5118C118.625 58.5454 119.027 58.3636 119.301 58.7746C119.331 58.8222 119.514 58.7718 119.626 58.7551C119.971 58.7075 120.318 58.6516 120.666 58.6013C120.701 58.5957 120.762 58.6153 120.775 58.5957C121.268 57.905 121.911 58.6292 122.491 58.4195C122.756 58.3217 123.314 58.4838 123.257 59.0962C123.308 59.1186 123.36 59.1409 123.412 59.1633C123.522 58.9564 123.631 58.7495 123.757 58.509C123.858 58.632 123.987 58.783 124.116 58.9368C124.118 58.8837 124.121 58.8306 124.124 58.7774C124.86 58.8306 125.598 58.8697 126.331 58.9564C126.427 58.9676 126.496 59.2248 126.613 59.4317C126.72 59.1941 126.829 58.9536 126.966 58.6544C127.212 59.113 127.527 59.3115 128.011 59.1297C128.115 59.0906 128.285 59.2136 128.416 59.2807C128.534 59.3395 128.638 59.4765 128.755 59.4876C129.209 59.5296 129.674 59.4876 130.118 59.5743C130.481 59.6442 130.821 59.8511 131.174 59.991C131.354 60.0637 131.546 60.1196 131.729 60.1895C131.838 60.2286 131.964 60.2566 132.046 60.3349C132.416 60.676 132.572 60.704 132.911 60.4998C133.13 60.6648 133.299 60.8745 133.507 60.9305C134.533 61.1989 135.217 61.9538 136.008 62.5942C137.012 63.4106 137.452 64.5654 138.068 65.614C138.431 66.2319 138.637 66.9505 139.006 67.8481C139.044 67.7502 139.102 67.616 139.156 67.4874C139.323 67.753 138.475 68.357 139.446 68.4772C139.022 69.2573 139.528 69.9648 139.641 70.7169C139.78 71.6592 139.92 72.5987 140.089 73.5354C140.13 73.7451 140.294 73.9325 140.404 74.131C140.453 74.1086 140.502 74.0891 140.552 74.0667C140.428 74.3771 140.305 74.6874 140.166 75.0425C140.497 74.9782 140.74 74.9307 140.984 74.8831C140.992 74.9503 141.003 75.0146 141.014 75.0817C140.822 75.1264 140.631 75.1684 140.393 75.2243C140.579 75.5766 140.177 76.01 140.647 76.3707C140.776 76.4686 140.573 76.983 140.573 77.3046C140.562 78.725 139.961 80.0141 139.745 81.3869C139.654 81.9574 139.517 82.5194 139.413 83.087C139.378 83.2771 139.383 83.4729 139.364 83.7357C139.061 83.8755 138.85 84.1439 138.844 84.65C138.839 85.0611 138.612 85.4665 138.492 85.8775C138.39 86.2271 138.322 86.5878 138.196 86.9289C138.144 87.0715 137.985 87.1749 137.868 87.3036C138.155 87.8208 137.712 88.1704 137.542 88.5758C137.02 89.8229 136.47 91.0588 135.925 92.2975C135.767 92.6582 135.586 93.0077 135.422 93.3628C135.211 93.8297 135.039 94.3219 134.79 94.7664C134.314 95.6109 133.797 96.4301 133.269 97.2354C133.064 97.6465 132.903 98.0882 132.645 98.4629C131.792 99.7072 130.906 100.932 130.027 102.162C128.87 103.784 127.787 105.473 126.523 107.002C125.664 108.037 124.548 108.848 123.546 109.759C122.95 110.307 122.387 110.9 121.752 111.401C120.849 112.111 119.889 112.743 118.97 113.431C118.507 113.775 118.075 114.16 117.637 114.535C116.932 115.136 116.256 115.782 115.52 116.341C114.937 116.786 114.278 117.124 113.66 117.524C112.946 117.986 112.232 118.45 111.542 118.95C111.395 119.056 111.348 119.311 111.233 119.546C110.56 119.149 110.295 119.873 109.835 120.108C109.575 120.242 109.351 120.449 109.091 120.583C108.604 120.832 108.093 121.033 107.617 121.299C107.472 121.38 107.4 121.604 107.39 121.62C107.012 121.766 106.752 121.853 106.503 121.962C105.915 122.227 105.335 122.507 104.747 122.77C104.449 122.904 104.093 122.963 103.85 123.161C103.658 123.318 103.601 123.642 103.467 123.933C103.319 123.743 103.168 123.547 103.059 123.404C102.148 123.86 101.278 124.296 100.504 124.682C100.17 124.657 99.9211 124.598 99.6858 124.629C99.3931 124.665 99.1058 124.839 98.8186 124.836C98.4274 124.833 98.255 124.962 98.2468 125.362C98.2468 125.412 98.11 125.499 98.0389 125.496C97.976 125.493 97.8885 125.404 97.8584 125.334C97.8064 125.211 97.7927 125.074 97.7517 124.892C97.4316 125.183 97.2155 125.689 96.6629 125.306C96.5972 125.258 96.2717 125.597 96.0309 125.784C96.0063 125.641 95.9844 125.502 95.9352 125.194C95.2704 125.46 94.6385 125.711 94.012 125.963C94.0065 125.924 93.9846 125.79 93.96 125.655C93.908 125.661 93.8588 125.65 93.8369 125.672C93.4867 125.991 93.2022 126.159 92.6387 125.952C92.1161 125.762 91.4486 125.968 90.8441 126.008C90.6635 126.019 90.4747 126.022 90.3079 126.08C89.892 126.229 89.4872 126.405 89.0412 126.586C89.0412 126.586 88.9947 126.449 88.94 126.282C88.8716 126.349 88.7813 126.433 88.6582 126.55C88.5899 126.41 88.5215 126.27 88.4284 126.083C88.2807 126.282 88.1521 126.449 87.988 126.67C87.8321 126.517 87.6789 126.368 87.5257 126.22C87.5257 126.262 87.5257 126.301 87.5257 126.34C87.1317 126.318 86.7405 126.296 86.259 126.268C86.2508 126.284 86.2071 126.391 86.1715 126.472C85.7393 126.684 85.6079 125.451 85.0553 126.256C84.8119 125.725 84.7216 125.717 84.2538 126.215C84.1307 126.103 84.0048 125.991 83.8434 125.843C83.7039 125.952 83.5562 126.066 83.4057 126.187C82.1391 125.283 80.681 125.132 79.1134 125.183ZM100.974 141.028C100.879 141.168 100.424 141.051 100.134 140.973C99.8582 141.084 99.6475 141.624 99.2098 141.028C99.1633 141.272 99.1277 141.451 99.0949 141.63C99.0566 141.624 99.0183 141.621 98.98 141.618C98.9171 141.431 98.8514 141.241 98.8131 141.126C98.4548 141.146 98.1566 141.16 97.7517 141.182C97.7489 141.221 97.7325 141.412 97.7134 141.641C97.1553 141.465 96.5644 141.356 96.0473 141.096C95.2321 140.682 94.4798 140.148 93.681 139.697C93.0572 139.348 92.3952 139.074 91.7769 138.722C91.5006 138.565 91.29 138.297 91.0465 138.084C90.855 137.914 90.6799 137.687 90.4556 137.598C90.0808 137.452 89.6732 137.393 89.2792 137.298C89.3203 137.237 89.427 137.066 89.5774 136.823C89.2847 136.717 89.0084 136.619 88.7048 136.51C88.7239 136.102 88.2014 135.629 87.7035 135.671C87.5804 135.447 87.5311 135.212 87.3998 135.143C86.642 134.737 86.0675 134.114 85.4438 133.538C84.8119 132.956 84.117 132.439 83.4303 131.921C83.2689 131.801 83.0255 131.798 82.782 131.731C82.8093 131.619 82.8476 131.454 82.8805 131.312C82.533 130.993 82.2048 130.691 81.8765 130.386C81.9066 130.344 81.9367 130.3 81.964 130.255C83.2115 130.442 84.4508 130.7 85.7037 130.795C86.9211 130.887 88.1494 130.814 89.3859 130.814C89.4707 130.741 89.6157 130.616 89.7662 130.49C90.182 131.057 90.6361 131.463 91.331 131.689C92.0669 131.933 92.7399 132.411 93.4047 132.844C94.2746 133.412 95.1117 134.035 95.9571 134.642C96.496 135.031 97.0595 135.391 97.5492 135.839C98.2113 136.446 98.7967 137.139 99.4451 137.76C99.7186 138.02 100.091 138.168 100.375 138.417C100.602 138.613 100.739 138.912 100.955 139.124C101.303 139.468 101.702 139.753 102.038 140.106C102.208 140.285 102.282 140.556 102.468 140.917C101.836 140.659 101.387 140.427 100.974 141.028ZM106.509 138.498C106.566 138.448 106.624 138.394 106.681 138.344C106.9 138.607 107.121 138.873 107.409 139.219C106.621 139.323 106.675 138.811 106.509 138.498ZM109.975 138.408C109.917 138.369 109.731 138.436 109.666 138.509C109.22 139.032 108.629 139.149 107.997 139.161C107.931 139.163 107.866 139.191 107.701 139.231C107.887 139.44 108.019 139.586 108.147 139.731C108.12 139.776 108.093 139.821 108.065 139.865C107.855 139.734 107.644 139.602 107.431 139.468C107.499 139.2 107.556 138.97 107.6 138.794C107.19 138.333 106.793 137.888 106.366 137.41C106.142 137.676 106.005 137.838 105.74 138.148C105.74 137.86 105.704 137.707 105.745 137.578C105.904 137.083 105.737 136.706 105.28 136.515C105.105 136.443 104.955 136.309 104.728 136.158C104.673 136.269 104.632 136.451 104.52 136.546C104.427 136.627 104.252 136.611 104.06 136.644C104.591 135.808 104.793 135.71 103.863 135.341C103.628 135.246 103.352 135.042 103.261 134.818C103.042 134.273 102.61 134.083 102.14 133.89C102.052 133.856 101.997 133.717 101.954 133.613C101.915 133.526 101.954 133.373 101.899 133.336C101.36 132.953 100.81 132.587 100.096 132.103C99.7733 131.656 99.2071 131.147 98.5204 130.786C98.4493 130.753 98.2933 130.881 98.1812 130.943C98.0553 131.01 97.935 131.083 97.8119 131.155C97.8283 131.015 97.8392 130.876 97.8611 130.739C97.8775 130.641 97.9131 130.549 97.9787 130.316C97.645 130.297 97.3495 130.28 97.0322 130.261C97.0322 130.149 97.0322 129.925 97.0322 129.746C98.1401 129.587 99.2071 129.455 100.266 129.268C101.078 129.125 101.669 129.399 102.003 130.163C102.197 130.607 102.361 130.68 102.939 130.526C103.034 130.792 103.092 131.088 103.239 131.329C103.86 132.352 104.558 133.3 105.529 134.027C106.235 134.555 106.848 135.212 107.543 135.758C108.355 136.395 109.22 136.966 110.046 137.586C110.224 137.718 110.33 137.947 110.505 138.179C110.415 138.294 110.418 138.713 109.975 138.408ZM135.967 120.552C135.261 121.257 134.552 121.962 133.822 122.638C133.335 123.094 132.804 123.499 132.303 123.938C130.977 125.099 129.661 126.276 128.326 127.425C127.798 127.881 127.231 128.292 126.673 128.709C125.388 129.671 124.069 130.588 122.742 131.491C121.73 132.181 120.682 132.816 119.703 133.549C119.298 133.851 118.858 134.024 118.431 134.256C117.717 134.642 116.94 134.95 116.294 135.425C115.618 135.925 115.096 135.386 114.508 135.358C114.434 135.355 114.374 135.028 114.223 134.922C114.103 134.793 114.002 134.634 113.857 134.541C113.394 134.248 113.531 134.855 113.249 134.961C113.307 134.681 113.356 134.427 113.435 134.027C113.162 134.239 113.006 134.36 112.812 134.508C112.812 134.265 112.812 134.058 112.812 133.851C112.773 133.876 112.735 133.901 112.697 133.926C112.552 133.731 112.404 133.54 112.267 133.342C111.955 132.883 111.438 132.813 110.957 133.149C110.875 133.208 110.754 133.202 110.64 133.23C110.713 132.064 110.713 132.064 110.33 132.137C109.931 131.768 109.529 131.488 109.253 131.111C108.973 130.736 108.306 131.152 108.175 130.403C108.117 130.073 107.483 129.852 107.045 129.534C106.965 129.595 106.788 129.732 106.582 129.891C106.443 129.587 106.268 129.299 106.815 129.26C106.796 129.206 106.788 129.17 106.769 129.142C106.517 128.767 106.257 128.398 106.013 128.021C105.91 127.859 105.833 127.68 105.806 127.627C106.377 127.302 106.82 127.042 107.269 126.799C107.581 126.628 107.898 126.469 108.218 126.324C108.407 126.237 108.694 126.245 108.787 126.105C109.135 125.588 109.731 125.574 110.185 125.292C110.724 124.956 111.206 124.528 111.734 124.171C111.851 124.089 112.089 124.185 112.207 124.103C112.891 123.631 113.553 123.125 114.226 122.638C114.448 122.479 114.68 122.334 114.918 122.208C115.711 121.788 116.305 121.123 116.962 120.527C117.968 119.616 119.06 118.799 120.064 117.885C120.628 117.37 121.087 116.736 121.607 116.165C121.686 116.079 121.823 116.045 121.93 115.981C122.072 115.897 122.222 115.821 122.346 115.712C123.224 114.935 124.102 114.155 124.964 113.355C125.27 113.073 125.527 112.732 125.812 112.424C125.918 112.309 126.036 112.139 126.159 112.128C126.553 112.091 126.682 111.798 126.887 111.524C127.223 111.079 127.639 110.696 128 110.313C128.192 110.648 128.416 110.934 128.531 111.258C128.906 112.318 129.352 112.776 130.233 113.573C130.75 114.043 131.338 114.434 131.874 114.89C132.779 115.656 133.666 116.45 134.569 117.225C135.263 117.823 135.964 118.413 136.675 118.989C136.795 119.09 136.99 119.098 137.277 119.188C136.806 119.68 136.396 120.127 135.967 120.552ZM140.078 116.218C139.887 116.478 139.87 116.456 139.646 116.193C139.613 116.151 139.501 116.19 139.433 116.168C139.362 116.143 139.301 116.087 139.206 116.028C139.468 115.894 139.654 115.802 139.838 115.707C139.698 115.547 139.556 115.388 139.457 115.273C139.145 115.41 138.924 115.508 138.699 115.606C138.678 115.553 138.656 115.503 138.631 115.449C138.754 115.363 138.875 115.279 139.104 115.119C138.817 115.119 138.667 115.119 138.5 115.119C138.565 114.91 138.617 114.739 138.683 114.53C138.418 114.56 138.256 114.58 138.095 114.599C138.114 114.465 138.155 114.328 138.139 114.197C138.128 114.104 138.057 113.998 137.983 113.937C137.843 113.828 137.685 113.747 137.509 113.643C137.509 113.844 137.509 114.093 137.509 114.437C137.061 114.406 136.618 114.373 136.112 114.337C136.464 113.948 136.793 113.584 137.148 113.19C136.73 112.947 136.317 112.748 135.956 112.477C135.77 112.337 135.726 112.005 135.54 111.862C135.294 111.669 134.911 111.641 134.692 111.429C134.268 111.012 133.879 110.581 133.239 110.539C133.184 110.534 133.141 110.391 133.091 110.316C133.02 110.324 132.949 110.333 132.878 110.341C132.971 110.212 133.061 110.081 133.121 110C132.878 109.745 132.673 109.415 132.38 109.264C132.098 109.122 131.723 109.175 131.392 109.122C131.239 109.099 131.031 109.08 130.955 108.974C130.859 108.842 130.875 108.627 130.81 108.277C131.094 108.479 131.209 108.56 131.324 108.641C131.376 108.599 131.428 108.557 131.48 108.512C131.365 108.378 131.231 108.252 131.141 108.101C131.026 107.903 130.947 107.682 130.815 107.391C130.662 107.355 130.413 107.29 130.219 107.243C131.767 105.023 133.318 102.8 134.919 100.504C135.378 101.203 135.827 101.88 136.284 102.579C136.36 102.559 136.511 102.517 136.514 102.517C136.618 102.872 136.667 103.118 136.76 103.345C136.927 103.75 137.118 104.142 137.326 104.592C137.436 104.491 137.501 104.396 137.592 104.36C137.665 104.326 137.775 104.338 137.851 104.374C137.884 104.391 137.892 104.531 137.865 104.589C137.652 105.039 137.824 105.313 138.207 105.565C138.379 105.677 138.456 105.931 138.601 106.099C139.093 106.672 139.6 107.232 140.095 107.802C140.297 108.034 140.478 108.291 140.688 108.518C140.899 108.742 141.142 108.932 141.356 109.155C141.531 109.34 141.673 109.552 141.84 109.743C141.939 109.852 142.048 109.952 142.168 110.033C142.239 110.081 142.376 110.047 142.423 110.1C142.776 110.506 143.112 110.925 143.566 111.479C142.431 113.025 141.26 114.627 140.078 116.218ZM148.482 102.696C148.203 103.267 147.864 103.806 147.574 104.371C147.322 104.863 147.117 105.381 146.868 105.875C146.652 106.3 146.4 106.709 146.173 107.111C145.87 106.994 145.522 106.86 145.126 106.703C145.161 106.597 145.202 106.457 145.254 106.3C144.726 105.769 144.182 105.218 143.758 104.791C143.339 104.282 143.019 103.89 142.694 103.507C142.57 103.359 142.374 103.25 142.305 103.082C142.042 102.453 141.692 102.277 140.987 102.54C141.112 102.246 141.222 102 141.331 101.746C141.055 101.628 140.806 101.519 140.658 101.455C140.513 101.049 140.393 100.705 140.264 100.342C140.043 100.465 139.887 100.552 139.567 100.728C139.941 99.984 139.857 99.5842 139.227 99.3046C138.992 99.2011 138.869 98.8264 138.694 98.572C138.552 98.5971 138.396 98.6223 138.24 98.6475C138.232 98.4629 138.243 98.2756 138.215 98.0938C138.182 97.8897 138.18 97.6269 138.057 97.4983C137.08 96.5028 137.099 96.5252 137.742 95.2725C138.36 94.073 138.899 92.8315 139.496 91.6208C139.641 91.3244 139.879 91.0811 140.119 90.7512C140.273 91.1846 140.666 91.4838 140.382 91.9675C140.366 91.9927 140.368 92.057 140.39 92.0794C140.699 92.454 141.014 92.8231 141.375 93.2509C141.162 93.5361 141.287 93.8353 141.687 94.1541C141.922 94.3442 141.971 94.7553 142.187 94.9901C143.323 96.2316 144.409 97.5402 145.662 98.6419C146.458 99.3409 147.139 100.205 148.094 100.719C148.387 100.879 148.682 101.033 149.081 101.242C148.901 101.69 148.72 102.207 148.482 102.696ZM152.156 91.2685C151.691 91.7243 151.664 92.7728 151.987 93.1782C151.754 93.8297 151.546 94.3834 151.358 94.9426C151.18 95.4627 151.051 95.9995 150.846 96.5056C150.693 96.8831 150.395 96.8132 150.074 96.3574C149.785 96.514 149.492 96.6762 149.049 96.9167C149.393 96.4917 149.623 96.2065 149.894 95.8653C149.136 95.6165 149.079 96.3714 148.709 96.5532C148.181 95.9017 149.002 95.7227 149.024 95.3452C148.641 94.9035 148.302 94.4756 147.921 94.0898C147.56 93.7235 146.994 93.8941 146.554 93.7235C146.562 93.6732 146.573 93.62 146.584 93.5697C146.778 93.5697 146.975 93.5697 147.169 93.5697C147.183 93.5194 147.194 93.469 147.205 93.4187C146.948 93.346 146.69 93.2761 146.398 93.195C146.425 93.03 146.45 92.8819 146.472 92.7448C146.302 92.6498 146.102 92.5966 145.987 92.4652C145.659 92.0794 145.38 91.6516 145.052 91.2685C144.923 91.1175 144.721 91.0392 144.475 90.8742C144.412 90.7232 144.302 90.4464 144.187 90.1556C143.955 90.2199 143.665 90.301 143.301 90.4017C143.26 90.2143 143.205 89.9599 143.14 89.6607C143.78 89.5209 143.856 89.286 143.328 88.8666C143.074 88.6653 142.937 88.3102 142.705 88.0669C142.568 87.9243 142.343 87.8712 142.103 87.7482C142.116 87.7342 142.012 87.8264 141.906 87.9187C141.862 87.7202 141.821 87.5189 141.777 87.3203C141.766 87.3399 141.753 87.3595 141.739 87.3819C141.662 87.2588 141.495 87.1134 141.52 87.0212C141.717 86.2914 141.96 85.5756 142.177 84.8542C142.505 83.7497 142.83 82.6452 143.145 81.5379C143.484 80.3552 143.843 79.1724 144.133 77.9757C144.382 76.9383 144.562 75.8842 144.74 74.83C144.773 74.6259 144.65 74.3938 144.57 74.0527C144.639 73.9408 144.754 73.7479 144.89 73.5242C145.396 74.3099 145.881 75.0929 146.398 75.8506C146.638 76.2029 146.898 76.6056 147.385 76.3511C147.339 76.5189 147.235 76.6922 147.27 76.8293C147.333 77.0613 147.435 77.3382 147.61 77.4724C147.845 77.6485 148.129 77.6234 148.094 78.1211C148.066 78.4706 148.406 78.9767 148.723 79.1864C149.147 79.4688 149.246 79.8239 149.393 80.2517C149.664 81.0402 150.039 81.7952 150.367 82.5641C150.512 82.9053 150.624 83.2687 150.808 83.5875C150.882 83.7133 151.106 83.7497 151.18 83.786C151.152 83.9734 151.037 84.2278 151.114 84.3397C151.377 84.7115 151.204 85.3826 151.836 85.528C151.62 86.118 151.749 87.2672 151.951 87.3511C151.973 87.8264 151.989 88.2431 152.014 88.6625C152.017 88.7492 152.082 88.8694 152.047 88.9141C151.702 89.3308 152.178 89.3615 152.323 89.5461C151.858 90.0074 151.806 90.5303 152.156 91.2685ZM91.9411 22.0251C92.8438 21.4071 93.7767 20.8311 94.7041 20.2495C95.7792 19.5729 96.8462 18.8738 97.9541 18.2587C98.4547 17.9819 99.0539 17.8952 99.5983 17.6939C99.746 17.6407 99.8554 17.4758 100.074 17.4031C100.028 17.5569 99.9785 17.7134 99.8882 18.0126C100.649 17.8644 101.355 17.7246 102.071 17.5848C102.038 17.7638 101.992 18.0098 101.915 18.4404C102.189 18.2671 102.32 18.1552 102.471 18.1021C102.597 18.0574 102.744 18.0797 102.881 18.0741C102.884 18.1972 102.925 18.3398 102.878 18.4376C102.714 18.7732 102.504 19.0835 102.339 19.4163C101.929 20.2579 101.576 21.1359 101.111 21.9468C100.791 22.506 100.296 22.9059 99.653 23.1435C99.1031 23.3476 98.6216 23.7503 98.0991 24.0411C97.5684 24.3375 97.0185 24.5975 96.4878 24.8939C95.9379 25.1987 95.3962 25.5202 94.86 25.8502C94.0065 26.3731 93.1749 26.9351 92.3076 27.43C91.4705 27.9109 90.6061 28.3499 89.7361 28.7721C89.3066 28.9819 88.3737 28.6128 88.0181 28.185C87.8977 28.0396 87.7199 27.8997 87.5448 27.8494C86.8718 27.6565 86.6831 27.0385 87.1536 26.5101C87.9688 25.5929 88.7321 24.6171 89.6157 23.7727C90.3133 23.1044 91.1423 22.5731 91.9411 22.0251ZM79.3979 12.2358C79.8548 11.4277 80.2651 10.5665 80.8561 9.87309C82.3826 8.07797 83.9857 6.34996 85.5806 4.61636C86.4423 3.68245 87.3314 2.77371 88.2479 1.89852C88.65 1.51265 89.137 1.21347 89.6157 0.92267C89.7252 0.858359 89.955 0.998166 90.1547 1.05129C90.3626 0.992574 90.6307 0.911486 90.9015 0.849971C91.6018 0.690592 91.6018 0.696183 92.138 0.164919C92.1681 0.357852 92.19 0.528416 92.242 0.87234C92.376 0.486474 92.4554 0.265579 92.5402 0.0167236C92.7809 0.285152 92.9615 0.48927 93.142 0.690591C93.5661 1.28617 93.1913 1.80066 92.8876 2.37107C92.3624 3.3553 91.9794 4.42343 91.424 5.3853C90.7592 6.5373 89.9084 7.5495 88.8661 8.38834C88.2479 8.88326 87.698 9.46485 87.1126 10.0017C86.6776 10.4044 86.2071 10.7119 85.6271 10.916C85.255 11.0475 84.9979 11.5032 84.6587 11.7773C84.4644 11.9338 84.21 12.0065 83.9884 12.1296C83.8161 12.2246 83.6519 12.3337 83.4878 12.4427C83.4604 12.4623 83.4413 12.5406 83.4303 12.5378C82.637 12.3421 82.5139 13.522 81.7233 13.4074C81.5564 13.3822 81.3211 13.7066 81.1488 13.8995C80.908 14.1679 80.7712 14.0449 80.5825 13.8296C80.3636 13.5808 80.0736 13.4018 79.8521 13.1557C79.6195 12.8957 79.1271 12.7168 79.3979 12.2358ZM103.948 39.5289C104.241 39.5624 104.476 39.2465 104.867 39.596C105.146 39.8476 105.759 39.7078 106.191 39.7414C106.126 40.1496 106.065 40.5159 105.989 40.9745C106.175 40.9018 106.268 40.885 106.336 40.8347C106.624 40.6305 106.651 40.0657 107.171 40.1943C107.504 40.2754 107.835 40.3705 108.156 40.4935C108.331 40.5606 108.478 40.7004 108.637 40.8095C108.489 40.9996 108.342 41.1926 108.156 41.433C108.194 41.4917 108.27 41.6176 108.347 41.7434C108.322 41.7825 108.306 41.8161 108.284 41.8441C108.049 42.1684 107.628 42.4844 107.617 42.8143C107.595 43.5329 107.078 44.0139 106.957 44.6682C106.9 44.9701 106.005 45.1099 105.499 44.9562C104.9 44.7688 104.268 44.3606 103.71 44.4473C102.985 44.5563 102.378 44.1704 101.697 44.2515C101.552 44.2683 101.385 44.1117 101.319 44.081C100.835 44.081 100.422 44.1117 100.014 44.0754C99.177 43.9971 98.318 43.9719 97.5109 43.7566C96.9337 43.6028 96.154 43.9999 95.8832 43.298C95.5987 43.3875 95.399 43.4518 95.1965 43.5161C95.15 43.3064 95.1035 43.0967 95.0598 42.8954C94.7506 43.0212 94.3813 43.2309 93.9846 43.3176C93.618 43.3987 93.153 43.5245 93.0709 42.8674C93.06 42.7752 92.7317 42.6158 92.6742 42.6577C92.0396 43.1387 91.7277 42.4536 91.3064 42.2523C91.1258 42.1656 91.0602 41.8245 90.9425 41.598C91.0137 41.5616 91.0875 41.5225 91.1587 41.4862C91.2435 41.6204 91.3283 41.7574 91.3584 41.8077C91.5116 41.6315 91.6538 41.4694 91.7961 41.3044C91.8836 41.2037 91.9657 41.0919 92.0642 40.9996C92.3569 40.72 92.1982 40.0601 92.822 40.0629C92.822 39.8588 92.822 39.6547 92.822 39.6295C93.3636 39.4338 93.867 39.252 94.436 39.0479C94.9777 39.6743 95.4975 38.6621 96.1732 38.9361C96.403 39.1542 96.7313 39.4673 97.0076 39.733C97.1416 39.4058 97.262 39.1178 97.3386 38.9333C97.9404 38.9864 98.4766 39.0339 99.084 39.0871C99.1715 39.266 99.3192 39.5652 99.4669 39.8672C99.5162 39.842 99.5682 39.8169 99.6174 39.7917C99.5572 39.6631 99.497 39.5317 99.3931 39.3024C99.8992 39.1262 100.389 38.9529 100.993 38.7404C100.939 39.0675 100.917 39.1905 100.898 39.3136C101.237 39.459 101.593 38.3265 101.921 39.3891C102.082 39.3219 102.255 39.2492 102.427 39.1765C102.843 39.691 103.436 39.4673 103.948 39.5289ZM33.8952 41.1954C33.9964 40.2503 34.4588 39.4701 34.9758 38.718C35.1372 38.4859 35.3369 38.2566 35.5667 38.0972C36.3245 37.5688 37.1069 37.0767 37.8729 36.5594C38.1711 36.358 38.4282 36.0868 38.7428 35.9191C39.2654 35.6339 39.8043 35.2536 40.4253 35.659C40.6715 35.8212 40.9122 36.0253 41.0928 36.2602C41.4211 36.6908 41.7521 37.1298 41.9928 37.6135C42.3594 38.3433 42.4005 39.1402 42.2774 39.9483C42.2199 40.3369 42.0831 40.7564 42.1707 41.1115C42.2828 41.5728 42.2117 41.9503 42.0393 42.3502C41.9874 42.4732 41.9846 42.6214 41.9655 42.7584C41.8342 43.7314 41.6947 44.7045 41.5743 45.6804C41.4348 46.8407 41.3062 48.0011 41.1803 49.1615C41.1092 49.7963 41.049 50.431 40.9888 51.0629C40.9642 51.3509 40.9998 51.6529 40.9232 51.9213C40.7235 52.6064 40.6387 53.2802 40.863 53.9737C40.8931 54.0687 40.8822 54.1862 40.8657 54.2868C40.7864 54.8069 40.677 55.3242 40.6195 55.8471C40.5922 56.082 40.5867 56.37 40.6961 56.5601C40.9478 57.0075 40.6058 57.3766 40.6223 57.7624C40.6524 58.4727 40.7891 59.1829 40.9232 59.8819C41.0572 60.5725 41.2351 61.252 41.4074 61.9343C41.4731 62.1831 41.5989 62.418 41.6646 62.6669C41.8752 63.4665 42.198 64.1907 42.8026 64.7695C42.9886 64.9457 43.1829 65.161 43.2567 65.3959C43.5686 66.3773 44.1759 67.1015 45.0103 67.6775C44.5808 68.2507 45.0869 68.4828 45.4234 68.7205C45.9487 69.0896 46.5177 69.3943 47.0648 69.7327C47.1934 69.811 47.311 69.906 47.4341 69.9955C47.4724 69.9424 47.5135 69.8921 47.5518 69.8389C47.3904 69.7047 47.229 69.5677 47.0539 69.4195C47.746 69.3943 48.4162 69.3832 48.7719 70.057C49.0126 69.8361 49.226 69.6404 49.4886 69.3971C49.4886 69.6628 49.4886 69.8082 49.4886 70.0486C49.7649 69.9088 50.0467 69.6544 50.1698 69.7187C50.6404 69.962 50.9413 69.604 51.2668 69.4531C51.658 69.2741 51.9726 68.9274 52.3474 68.6953C52.8645 68.3793 53.4034 68.0941 53.9396 67.8089C54.1092 67.7195 54.3609 67.7251 54.4649 67.5936C54.7712 67.2162 55.0585 66.8107 55.291 66.3801C55.8382 65.3539 56.3443 64.3026 56.8832 63.2708C56.9762 63.0919 57.1486 62.9521 57.31 62.7619C57.1404 62.3733 57.3647 61.9566 57.7723 61.8951C57.8516 61.4561 57.8763 61.0339 58.013 60.648C58.1334 60.2985 58.3742 59.9937 58.5684 59.661C58.5219 59.6554 58.396 59.6442 58.2976 59.6358C58.262 58.948 59.1265 58.33 58.3577 57.6953C58.4261 57.4325 58.4863 57.2088 58.5438 56.9963C58.3359 57.0606 58.1991 57.1053 58.0212 57.1613C58.1772 56.7838 58.2811 56.5377 58.4261 56.1938C58.117 56.2413 57.9665 56.2665 57.8106 56.2917C57.972 55.875 58.1115 55.5116 58.262 55.1201C58.0623 55.1201 57.9419 55.1201 57.9282 55.1201C57.9994 54.4546 58.0678 53.8143 58.1334 53.174C58.0705 53.1516 58.0076 53.1292 57.9446 53.1097C57.8051 53.3194 57.6683 53.5319 57.5288 53.7444C57.4796 53.3725 57.4331 52.8133 57.5972 52.7378C58.2292 52.4498 58.0787 51.8123 58.2593 51.3621C58.448 50.8895 58.3249 50.2968 58.4097 49.7683C58.5766 48.7142 58.779 47.6656 58.9924 46.6226C59.1484 45.8565 59.2961 45.082 59.5478 44.3494C59.7092 43.888 59.9061 43.4882 59.5861 43.1135C59.7092 42.9457 59.8542 42.8339 59.887 42.6941C60.0867 41.777 60.3001 40.8626 60.4341 39.9371C60.5162 39.3667 60.3329 38.732 60.5053 38.2091C60.9129 36.9844 60.4888 35.8184 60.4341 34.63C60.4287 34.521 60.311 34.4175 60.3055 34.3057C60.2919 34.0429 60.4204 33.6178 60.3028 33.5368C59.7694 33.1621 60.0511 32.7035 60.073 32.2673C60.0812 32.1331 60.0648 32.0017 60.0566 31.8479C59.876 31.8479 59.7256 31.8479 59.556 31.8479C59.8241 31.5151 60.2207 31.2104 59.5368 30.9224C59.4575 30.8888 59.4274 30.6428 59.4356 30.5002C59.4548 30.1227 59.5067 29.7452 59.5642 29.2055C59.162 29.4236 58.9268 29.5467 58.6395 29.7033C58.1389 28.9119 58.9596 28.2073 58.9952 27.3573C58.1033 27.7627 58.645 26.7561 58.221 26.6583C58.158 26.6415 58.169 26.2836 58.1334 25.9816C57.92 25.6265 57.641 25.1595 57.3346 24.6478C57.2498 24.7765 57.1568 24.9191 57.0008 25.1567C56.9242 24.7485 56.7574 24.4102 56.8367 24.1501C57.0036 23.5909 56.8449 23.2694 56.3333 23.068C56.4209 23.0205 56.4838 22.9841 56.6425 22.8975C56.2677 22.8387 55.9804 22.7912 55.622 22.7325C55.6904 22.4109 55.7561 22.0894 55.8245 21.765C55.3758 21.765 54.9737 21.765 54.5715 21.765C55.1159 21.3512 55.1023 21.217 54.6071 20.8395C54.4074 20.6885 54.2898 20.4173 54.1557 20.188C53.9259 19.7994 53.7399 19.3715 53.1572 19.5533C52.807 19.6623 52.4432 19.735 51.9891 19.8497C52.2681 19.461 52.4678 19.1814 52.6702 18.899C52.6347 18.8487 52.6018 18.7955 52.5663 18.7452C52.1258 19.0863 51.9261 18.8571 51.7073 18.5019C51.5513 18.2475 51.2969 17.9176 51.0534 17.8896C50.7005 17.8449 50.5282 17.6855 50.3148 17.4506C50.2026 17.3276 49.9619 17.3192 49.7759 17.2828C49.5844 17.2465 49.3874 17.2409 49.1385 17.2157C49.0947 17.3891 49.0454 17.5932 49.0099 17.7246C48.2931 17.7861 48.0196 17.171 47.6995 16.7711C47.4177 16.4188 47.1934 16.458 46.8678 16.4636C46.6654 16.4664 46.4602 16.3657 46.1292 16.279C46.1292 16.279 45.8939 16.4552 45.8556 16.4188C45.5191 16.1001 45.0979 16.3601 44.7805 16.2399C44.2689 16.0469 43.9926 16.1756 43.7574 16.8466C43.7109 16.5586 43.7081 16.472 43.6835 16.3937C43.6233 16.1951 43.5768 15.8484 43.4838 15.8344C43.0871 15.7729 42.5701 15.6527 42.2938 15.8456C41.722 16.2455 41.3828 15.8988 40.9505 15.6247C40.7946 15.8233 40.6496 16.0134 40.3979 16.3322C40.2721 15.7282 40.1545 15.1466 39.4623 15.5716C39.1505 15.1885 38.9918 15.457 38.8222 15.7226C38.7976 15.7645 38.6936 15.7869 38.6444 15.7701C38.3079 15.6639 37.9823 15.5129 37.6404 15.4318C37.2409 15.3367 36.8032 15.1746 36.4339 15.264C36.1111 15.3395 35.8622 15.7226 35.6105 15.9435C35.408 15.7142 35.2029 15.4849 34.9457 15.1997C34.6803 15.8288 34.2782 15.9603 33.6545 15.3759C33.8295 15.7198 33.9198 15.896 34.0511 16.1532C33.7557 16.1364 33.5396 16.1224 33.3098 16.1057C33.2742 15.8988 33.2414 15.7086 33.2085 15.5213C32.8748 15.5828 32.5191 15.5856 32.21 15.7142C31.6738 15.9407 31.1568 16.2203 30.6561 16.5167C30.3169 16.7152 30.0461 17.0508 29.6959 17.2073C29.0147 17.5149 28.2186 17.6072 27.9533 18.5103C27.9177 18.6362 27.6797 18.7173 27.5183 18.7816C27.2229 18.8962 26.8891 18.9381 26.6237 19.1003C26.3146 19.2849 26.041 19.5505 25.7839 19.8105C24.4844 21.1275 23.1576 22.4165 21.9183 23.7894C21.1031 24.6926 20.4493 25.7439 19.6723 26.6862C18.7285 27.827 18.1212 29.1636 17.4646 30.4694C17.2485 30.9 17.0433 31.3474 16.9202 31.8115C16.7041 32.6224 16.6111 33.4724 16.3622 34.2693C16.064 35.2144 15.7384 36.1288 16.2008 37.1074C16.2199 37.1466 16.2062 37.2276 16.1761 37.2612C15.8588 37.6107 15.7931 37.9183 15.9299 38.4468C16.0777 39.0172 15.815 39.6882 15.815 40.3146C15.8096 41.9 16.3758 43.2897 17.3251 44.5255C17.5768 44.8527 17.9817 45.1183 18.0884 45.4846C18.4413 46.687 19.396 47.3636 20.2195 48.1242C20.8596 48.7142 21.6749 49.1056 22.4244 49.5726C23.0974 49.992 23.7239 50.6798 24.6212 50.0535C24.6322 50.0451 24.6814 50.0954 24.7142 50.1178C24.7525 50.7246 24.8975 50.8336 26.331 50.1402C26.7031 50.6714 27.7344 50.7525 28.2077 50.2045C28.7412 49.5921 29.6385 49.6732 30.1582 48.9267C30.4045 48.5743 30.9434 48.3115 31.2033 47.8446C31.2388 47.7802 31.2525 47.6628 31.2963 47.6516C32.0185 47.4699 32.1197 46.7597 32.3878 46.2368C33.0088 45.0177 33.5478 43.7566 34.1195 42.5095C33.9335 42.2747 33.846 42.0314 33.8241 41.7797C33.8049 41.5896 33.8733 41.3911 33.8952 41.1954ZM31.7696 36.0029C30.9872 37.2528 30.4072 38.6369 29.7752 39.9818C29.6822 40.1776 29.7889 40.4684 29.8108 40.8179C29.0229 41.2289 29.1515 42.1293 29.0804 42.9681C29.0585 43.2142 28.9545 43.463 28.8424 43.6867C28.6098 44.1537 28.7822 44.369 29.25 44.4165C29.146 44.7017 29.053 44.9562 28.96 45.2106C29.064 45.1826 29.1679 45.1519 29.4497 45.0764C29.2391 45.5126 29.0804 45.8425 28.9053 46.206C28.7904 46.1585 28.681 46.1361 28.5962 46.0774C28.1776 45.7922 27.8356 45.7027 27.3241 46.0383C27.0095 46.248 26.435 46.069 25.9808 46.0215C25.7702 45.9991 25.5732 45.8481 25.3598 45.8146C24.5528 45.6887 23.9729 45.1099 23.4312 44.6094C22.7828 44.0139 22.8567 44.506 22.7555 44.9198C22.5503 44.7408 22.3533 44.5675 22.2056 44.4389C22.4053 44.2375 22.6871 44.081 22.6871 43.9244C22.6871 43.7063 22.4819 43.4798 22.3479 43.2701C22.2959 43.1862 22.1728 43.1471 22.1208 43.0632C21.6475 42.3026 21.1441 41.5589 20.7256 40.7675C20.4575 40.2587 20.3152 39.6799 20.1155 39.1318C20.0772 39.0256 20.0663 38.8354 20.0088 38.8214C19.6286 38.7236 19.7927 38.4524 19.8091 38.2343C19.8666 37.3311 19.935 36.428 19.976 35.5248C19.9815 35.4102 19.8474 35.2927 19.935 35.206C20.0553 34.2498 20.1648 33.2935 20.2988 32.34C20.3645 31.8926 20.4575 31.4452 20.5669 31.0063C20.7803 30.1534 20.9909 29.3006 21.5271 28.5736C22.2521 27.5894 22.9059 26.5492 23.6829 25.6125C24.1808 25.0141 24.8483 24.5612 25.4419 24.0439C25.6307 23.8789 25.8085 23.6944 26.0164 23.5629C27.0423 22.9059 28.0737 22.2655 29.1023 21.6196C29.198 21.5581 29.3047 21.5022 29.3758 21.4183C29.871 20.8423 30.5713 20.7165 31.2361 20.5012C31.3702 20.4592 31.4796 20.3418 31.5808 20.2719C31.7915 20.2719 32.0596 20.2887 32.3249 20.2691C32.8939 20.2272 33.463 20.1601 34.032 20.1181C34.4177 20.0902 34.8034 20.065 35.1892 20.0762C36.0646 20.1013 36.94 20.1629 37.8154 20.1852C38.3845 20.1992 38.9535 20.1601 39.5225 20.174C39.7085 20.1796 39.8918 20.2859 40.0751 20.3474C40.1654 20.3809 40.2666 20.4704 40.3405 20.4481C41.008 20.2523 41.6208 20.5403 42.2609 20.6214C43.005 20.7137 43.7929 20.5571 44.5151 20.7193C45.779 21.0045 47.0265 21.3987 48.2494 21.8433C49.3518 22.2432 50.3996 22.8276 51.1164 23.8034C51.5267 24.357 52.2216 24.6618 52.3939 25.4336C52.4651 25.7467 52.7304 26.0599 53.1928 25.867C53.1271 26.8148 53.6879 27.4552 54.205 28.1262C54.35 28.3108 54.3828 28.582 54.4867 28.8029C54.7384 29.337 54.9545 29.899 55.2801 30.3855C55.5427 30.777 55.4524 30.9727 55.0667 31.1656C55.2336 31.4648 56.2786 31.4229 55.4333 32.0045C55.7616 33.1956 55.7835 34.4539 56.5795 35.4409C56.1719 35.5975 56.2239 35.9135 56.4646 36.3525C56.5905 36.5845 56.5002 36.9313 56.5467 37.2193C56.6042 37.566 56.6999 37.9043 56.782 38.2566C56.1336 38.3461 57.0255 38.8662 56.7437 39.1178C57.0337 39.4338 56.7847 39.7498 56.7656 40.0741C56.7327 40.6445 56.7656 41.2233 56.8039 41.7965C56.8148 41.9419 56.9543 42.0789 57.0446 42.2383C56.5276 42.9485 56.1692 43.7482 56.2978 44.7241C56.3306 44.9701 56.1829 45.2386 56.1117 45.4958C56.1035 45.5294 56.0461 45.5489 56.0379 45.5825C55.8874 46.3123 55.7479 47.0421 55.592 47.7691C55.5181 48.1158 55.3211 48.4653 55.343 48.798C55.3813 49.3209 54.774 49.7459 55.1816 50.3275C55.2774 50.4617 55.1105 50.7917 55.053 51.0294C54.919 51.5858 54.763 52.1394 54.6427 52.6986C54.5278 53.2355 54.4183 53.764 54.5798 54.3288C54.6481 54.5693 54.4785 54.8712 54.4484 55.1481C54.4293 55.313 54.4156 55.5898 54.4949 55.6346C55.1652 56.0093 54.8916 56.521 54.5332 56.781C54.1366 57.069 54.3253 57.4269 54.3253 57.6618C54.3226 58.2965 54.4183 58.962 54.6317 59.5576C55.0667 60.7767 54.5305 61.842 54.3007 62.9716C54.1256 63.8328 53.6441 64.311 52.9055 64.6269C52.7332 64.6996 52.5745 64.8422 52.4514 64.9904C51.8441 65.723 50.8346 65.3148 50.1561 65.8433C50.1096 65.8796 49.9428 65.8377 49.8935 65.7761C49.6446 65.4826 49.4339 65.1498 49.1768 64.8674C48.9661 64.6353 48.7172 64.4648 48.4792 64.8786C48.419 64.9848 48.263 65.0324 48.1016 65.1414C48.1536 64.6885 48.1892 64.3585 48.2275 64.0286C48.181 64.0481 48.1345 64.0677 48.0907 64.0873C47.9211 63.7601 47.7515 63.433 47.5381 63.0275C47.0758 62.9325 46.7502 62.3509 46.8651 61.6099C46.4548 61.5065 46.2359 61.0395 46.3043 60.3461C45.6176 60.4719 45.6368 60.1615 45.9131 59.6862C45.9541 59.6135 45.9569 59.4597 45.9104 59.4038C45.3906 58.7886 45.6122 58.0029 45.4343 57.3123C45.2538 56.6132 45.0869 55.903 45.0158 55.1872C44.9638 54.6643 45.1033 54.1275 45.1061 53.5934C45.1061 53.3641 44.9693 53.1348 44.9118 52.9671C44.9884 52.2541 45.0732 51.5802 45.1252 50.9035C45.2045 49.8745 45.3359 48.8428 45.303 47.8166C45.2757 46.9582 45.6149 46.1613 45.5821 45.328C45.5246 43.7678 45.9924 42.2886 46.1675 40.7675C46.2523 40.0489 46.3043 39.3247 46.3125 38.6005C46.3152 38.2203 46.1702 37.8428 46.1292 37.4569C46.1183 37.3451 46.2906 37.2193 46.2961 37.0962C46.3125 36.4755 46.3043 35.8547 46.3043 35.2144C46.0417 35.1921 45.8748 35.1781 45.6805 35.1613C45.7544 34.8873 45.8255 34.6244 45.8967 34.356C45.6477 34.2889 45.4644 34.2386 45.3632 34.2106C45.1115 33.5172 44.8817 32.8797 44.6328 32.1918C44.2252 32.3708 43.9106 32.5078 43.5494 32.6672C43.5276 32.5078 43.44 32.2925 43.4865 32.1107C43.6315 31.5207 43.4646 31.1712 42.8765 30.9699C42.6412 30.8888 42.4059 30.7658 42.1679 30.7546C42.0093 30.7462 41.8451 30.9028 41.6509 31.0035C41.3554 30.3072 40.6004 30.2345 39.9684 29.9549C39.6894 29.8319 39.4131 29.6949 39.1641 29.5243C38.9562 29.3789 38.1437 29.474 37.9112 29.7005C37.5063 30.0947 37.1561 30.6679 36.6747 30.8273C35.3889 31.2607 34.8034 32.3764 34.0183 33.3187C33.2687 34.2162 32.3824 35.0187 31.7696 36.0029ZM60.4834 67.0372C59.7885 67.0763 59.1018 67.012 58.4918 67.3532C58.2401 67.3671 57.9583 67.3112 57.7395 67.4091C57.217 67.6412 56.7218 67.9404 56.2184 68.22C55.8518 68.4269 55.4305 68.5835 55.1351 68.8715C53.7372 70.236 52.3502 71.6145 51.0015 73.0321C50.1534 73.9241 49.2807 74.7825 48.8321 76.0352C48.6132 76.6503 48.9907 76.5105 49.2752 76.723C48.7965 77.2235 48.4764 77.7548 48.9087 78.4147C49.2041 78.8676 49.5269 79.3038 49.8333 79.7512C49.9373 79.8966 50.0823 80.0364 50.1233 80.1986C50.3066 80.892 50.6732 81.4569 51.2258 81.8763C51.6115 82.1671 52.0602 82.3684 52.4377 82.6676C53.5922 83.5819 54.8314 84.1523 56.3443 84.1216C57.206 84.1048 58.013 83.9818 58.7736 83.5987C59.2824 83.3414 59.7666 83.0311 60.2563 82.7319C60.5764 82.5334 60.8582 82.2482 61.2001 82.1167C62.174 81.7477 62.9619 81.0598 63.468 80.2321C64.5896 78.3951 65.5745 76.4518 66.0013 74.2932C66.0861 73.8598 65.9383 73.376 65.8836 72.786C66.2967 72.389 65.517 71.9081 65.6456 71.3768C65.6593 71.3181 65.6018 71.2258 65.5553 71.1671C65.2982 70.8148 65.0055 70.4876 64.7811 70.1157C64.6143 69.8361 64.5322 69.5034 64.3899 69.1343C63.9659 69.1287 63.6787 68.905 63.7853 68.4632C63.3285 68.0969 62.9373 67.781 62.5734 67.4902C62.029 68.0103 61.9989 67.2861 61.7965 67.2106C61.3807 67.328 61.0141 67.4287 60.6119 67.5405C60.5627 67.3504 60.5217 67.191 60.4834 67.0372ZM61.9059 77.1676C61.9114 77.2654 61.8348 77.4164 61.75 77.4724C61.0606 77.9309 60.3603 78.3727 59.6627 78.8173C59.4794 78.9347 59.2961 79.0494 59.1593 79.1333C58.0486 78.9236 57.0473 79.0745 56.2048 79.9973C56.4428 79.0382 56.4291 79.0438 55.5263 78.7446C55.1597 78.6216 54.8232 78.4007 54.5633 78.2693C54.1256 77.587 53.7098 76.9439 53.2694 76.2616C53.1462 76.2952 52.9712 76.3427 52.755 76.4015C52.755 76.1134 52.6894 75.7975 52.7687 75.5291C52.9137 75.0453 53.2885 74.7517 53.7891 74.7154C54.1585 74.6902 54.3609 74.5308 54.4895 74.1729C54.681 73.6417 54.9463 73.1831 55.5619 73.0069C55.9257 72.9035 56.2239 72.5791 56.5823 72.4365C57.0036 72.2716 57.455 72.1178 57.9009 72.0954C58.593 72.0619 59.2933 72.1262 59.9855 72.1905C60.1524 72.2045 60.3575 72.3359 60.4533 72.4785C60.9594 73.2278 61.4108 73.9912 61.6734 74.8971C61.8923 75.6577 61.854 76.4098 61.9059 77.1676ZM32.4672 76.2281C32.6559 76.4098 32.842 76.5916 33.0635 76.8069C32.6122 77.422 32.5 78.3084 31.8489 78.7446C31.7969 79.055 31.7969 79.4101 31.6601 79.6953C31.6054 79.8099 31.2471 79.7708 30.9735 79.8099C30.9735 79.8211 30.9735 79.9469 30.9735 80.1147C30.0789 79.4968 29.2117 78.9292 28.38 78.3084C27.9916 78.0176 27.6934 77.6066 27.3268 77.2822C27.1162 77.0921 26.8152 77.0026 26.6183 76.8041C25.0534 75.2159 23.4996 73.6221 21.9621 72.0115C21.7405 71.7794 21.6502 71.4243 21.4423 71.1727C21.1058 70.7728 20.6709 70.4485 20.3782 70.0207C19.9897 69.4614 19.7189 68.8155 19.355 68.2367C19.2292 68.0354 18.92 67.9515 18.7915 67.7502C18.6383 67.5153 18.589 67.2106 18.5562 66.9086C18.061 66.5199 17.8367 65.9327 17.5522 65.312C17.3908 64.9597 17.3963 64.434 16.871 64.1907C16.5263 64.0314 16.3321 63.5336 16.0667 63.1869C16.529 62.7479 16.9722 62.3229 17.4646 61.856C17.4318 61.7162 17.3826 61.4897 17.3333 61.2772C17.9078 60.9109 18.4741 60.5474 19.0295 60.1923C19.4425 60.6005 19.2428 60.8969 18.8188 61.1653C18.8708 61.2073 18.9228 61.252 18.9747 61.2939C19.2319 61.2436 19.4891 61.1961 19.831 61.1318C19.5739 61.9035 20.3946 61.8476 20.649 62.2698C20.7119 62.3733 20.8268 62.4432 20.9171 62.5298C20.8241 62.5522 20.6545 62.5634 20.649 62.5969C20.6216 62.7843 20.6353 62.9772 20.6353 63.1534C20.9718 63.1534 21.2207 63.1534 21.4724 63.1534C21.4205 63.3771 21.3685 63.6008 21.3056 63.8692C21.5682 63.9055 21.8609 63.9447 22.2165 63.995C22.1345 64.3529 22.0633 64.6801 21.9895 65.0044C22.0442 65.0436 22.1016 65.0799 22.1564 65.1163C22.2029 64.9597 22.2521 64.8031 22.2986 64.6465C22.3588 64.6577 22.419 64.6717 22.4792 64.6829C22.7281 65.0492 22.9798 65.4127 23.2205 65.7817C23.2616 65.8433 23.2889 65.9383 23.2752 66.0054C23.226 66.2375 23.3026 66.3298 23.5516 66.3074C23.609 66.3018 23.6665 66.2934 23.7266 66.2934C23.8032 66.2934 23.8798 66.3046 24.0795 66.3186C23.7704 66.8275 24.5391 67.2329 24.1042 67.7894C24.0139 67.9068 24.3859 68.2535 24.5884 68.1137C24.6841 67.8229 24.7443 67.6468 24.8428 67.3476C25.7045 68.6338 26.6702 69.604 27.6332 70.6358C27.5128 71.0524 27.376 71.5138 27.242 71.9752C27.3077 72.0059 27.3706 72.0367 27.4362 72.0674C27.7426 71.827 28.0463 71.5837 28.3883 71.3125C29.6959 72.6686 31.0966 74.0471 32.5711 75.3389C32.645 75.2998 32.7161 75.2634 32.7872 75.2271C32.7353 75.5514 32.6833 75.8758 32.6313 76.1973C32.5766 76.2085 32.5219 76.2169 32.4672 76.2281ZM40.9724 81.8259C40.625 82.3964 40.376 83.0311 40.0833 83.6378C39.9493 83.9119 39.8699 84.2446 39.6675 84.4487C39.4842 84.6333 39.1696 84.6976 38.9042 84.787C38.5979 84.8905 38.2231 84.801 38.0425 85.2372C37.9851 85.3798 37.6075 85.5308 37.4762 85.4665C36.8197 85.1422 36.1904 84.7591 35.5667 84.3704C35.501 84.3285 35.4627 84.0796 35.5147 84.0181C35.8403 83.6462 35.5913 83.5176 35.2603 83.3946C35.3205 83.1681 35.3752 82.95 35.46 82.62C35.3178 82.7263 35.2685 82.771 35.2138 82.8046C35.0579 82.9053 34.8992 83.0003 34.7405 83.101C34.6612 82.8521 34.4396 82.4914 34.5299 82.374C34.9813 81.7784 35.3123 81.0402 36.081 80.7466C36.2069 80.6991 36.3573 80.5565 36.3819 80.4335C36.5871 79.466 37.3832 79.1109 38.0863 78.6523C38.3516 78.4818 38.5896 78.2637 38.8605 78.0987C38.9699 78.0288 39.1313 78.0428 39.2681 78.0204C39.2845 78.0679 39.3009 78.1183 39.3201 78.1658C39.1888 78.3336 39.0574 78.5013 38.9261 78.6663C38.9508 78.6999 38.9754 78.7334 39 78.767C39.2353 78.6495 39.4623 78.4622 39.7085 78.4314C40.0396 78.3923 40.3925 78.4426 40.7235 78.5181C40.8055 78.5377 40.8302 78.8033 40.8822 78.9571C40.7317 78.9599 40.5812 78.9739 40.4308 78.9627C40.376 78.9571 40.3268 78.8928 40.2119 78.8117C40.387 79.3374 40.8904 79.494 41.2734 79.1668C41.2569 79.4828 41.5223 79.7652 41.1858 80.0364C41.1612 80.056 41.2597 80.2573 41.3171 80.3664C41.3636 80.4558 41.4348 80.5313 41.4977 80.6096C41.391 80.6292 41.287 80.6488 41.1284 80.6767C41.4566 81.1325 41.205 81.4457 40.9724 81.8259ZM85.5532 120.253C86.2207 120.418 86.8363 120.58 87.4573 120.709C87.6023 120.74 87.7801 120.6 87.9305 120.622C88.3847 120.689 88.8306 120.804 89.282 120.891C89.3641 120.905 89.5255 120.882 89.5282 120.863C89.6048 120.27 90.0589 120.48 90.3872 120.379C90.4063 120.555 90.42 120.684 90.4337 120.807C92.3432 120.779 96.0966 120.055 96.3975 119.669C96.7778 119.982 97.1799 119.904 97.5657 119.708C98.0499 119.465 98.504 119.16 98.9964 118.942C99.7761 118.592 100.714 118.458 101.316 117.918C101.71 117.563 102.052 117.284 102.536 117.149C102.553 117.144 102.564 117.119 102.58 117.113C102.84 117.004 103.138 116.948 103.349 116.778C103.743 116.456 104.336 116.431 104.55 115.81C104.761 115.201 105.064 115.125 105.324 115.528C105.39 115.424 105.45 115.251 105.507 115.254C106.12 115.268 106.468 114.773 106.933 114.507C108.112 113.828 109.288 113.148 110.194 112.088C110.246 112.164 110.298 112.237 110.377 112.351C110.897 111.901 111.406 111.454 111.917 111.012C112.891 110.17 113.991 109.536 115.08 108.865C116.032 108.277 116.869 107.494 117.758 106.801C118.102 106.533 118.609 106.351 118.765 106.001C119.044 105.375 119.643 105.216 120.042 104.791C120.171 104.651 120.258 104.469 120.4 104.349C120.696 104.097 121.041 103.899 121.317 103.63C121.599 103.353 121.771 102.937 122.083 102.719C123.194 101.933 123.924 100.787 124.805 99.7883C125.445 99.0585 126.047 98.2868 126.594 97.4815C127.223 96.5532 127.795 95.5801 128.35 94.6043C129.387 92.7868 130.481 91.0001 131.392 89.1183C132.533 86.7667 133.573 84.3564 134.544 81.9238C135.146 80.4167 135.537 78.8229 136.024 77.2571C135.802 77.2571 135.668 77.2571 135.537 77.2571C135.592 77.1368 135.644 77.0138 135.704 76.8964C135.748 76.8153 135.86 76.7286 135.846 76.6643C135.748 76.2253 135.622 75.7891 135.507 75.3529C135.471 75.2271 135.367 75.0565 135.414 74.9838C135.756 74.4274 135.507 73.8961 135.389 73.3565C135.376 73.2949 135.359 73.2055 135.318 73.1803C134.905 72.9454 134.703 72.6742 134.837 72.2156C135.056 71.4551 134.544 70.8679 134.56 70.2108C134.388 70.2611 134.262 70.3003 134.043 70.3674C134.191 70.1074 134.281 69.9508 134.369 69.7998C133.991 69.5034 133.69 69.098 133.165 69.3608C133.121 69.2294 133.045 69.1007 133.042 68.9665C133.034 68.6058 133.143 68.2116 133.039 67.8872C132.941 67.5713 132.643 67.0959 132.421 67.0903C131.754 67.068 131.97 66.5283 131.863 66.3382C131.543 66.053 130.812 66.7156 131.007 65.7538C131.012 65.7286 130.966 65.6895 130.944 65.6587C130.429 64.9848 129.735 64.5738 128.974 64.2718C128.908 64.2439 128.758 64.3361 128.706 64.4144C128.629 64.5263 128.605 64.6773 128.512 64.9429C128.326 64.434 128.279 63.9643 128.025 63.7098C127.762 63.4498 127.3 63.4022 126.92 63.2624C126.89 63.4414 126.859 63.6147 126.832 63.7909C126.717 63.6008 126.734 63.4162 126.712 63.2373C126.698 63.1198 126.63 63.0108 126.589 62.8961C126.46 62.9548 126.31 62.9912 126.208 63.0835C126.145 63.1422 126.151 63.282 126.118 63.4246C125.927 63.3072 125.784 63.2177 125.59 63.0947C125.751 63.0471 125.858 63.0164 126.126 62.9353C125.814 62.7787 125.648 62.6641 125.461 62.6109C125.054 62.4907 124.638 62.3816 124.219 62.3061C123.711 62.2167 123.199 62.1188 122.756 62.5606C122.395 62.9241 121.697 62.734 121.58 62.4236C121.123 62.4739 120.712 62.5159 120.184 62.5746C120.324 62.3173 120.395 62.1859 120.496 62.0014C120.184 62.1607 119.944 62.3872 119.706 62.3844C118.899 62.3677 118.086 62.0797 117.309 62.5802C117.183 62.6641 116.964 62.6249 116.792 62.6053C116.639 62.5886 116.491 62.5103 116.341 62.4767C115.701 62.3313 115.359 62.8961 115.025 63.0751C114.727 62.9353 114.532 62.7787 114.33 62.7675C114.179 62.7563 114.018 62.9353 113.824 63.0499C113.796 63.0248 113.684 62.8374 113.594 62.8486C113.096 62.9073 112.598 62.9912 112.111 63.1086C111.783 63.1869 111.474 63.419 111.148 63.4386C110.607 63.4693 110.024 63.1142 109.649 63.6287C109.034 63.3519 108.637 63.5364 108.317 64.037C108.207 63.9027 108.104 63.7797 107.855 63.4777C107.619 63.8412 107.403 64.174 107.173 64.5263C107.067 64.3669 107.026 64.3333 107.028 64.3026C107.039 64.1544 107.064 64.009 107.094 63.7909C106.361 64.1572 105.442 64.0146 104.933 64.9177C104.632 64.8786 104.189 64.736 104.17 65.3735C103.461 65.0799 103.168 65.2141 102.846 65.9719C102.618 65.9719 102.29 65.8684 102.162 65.9914C101.683 66.4388 101.133 66.6849 100.542 66.9393C99.8527 67.2385 99.2372 67.7278 98.6161 68.1724C98.2824 68.4101 98.0006 68.9637 97.6997 68.9581C97.2045 68.9526 97.0267 69.2741 96.7422 69.4978C96.4112 69.7578 96.113 70.0626 95.7875 70.3282C94.8081 71.1196 93.7822 71.8605 92.8438 72.7022C91.9082 73.5466 91.0492 74.4805 90.1711 75.3893C88.8388 76.7705 87.4327 78.0903 86.2125 79.5695C84.3468 81.8232 82.4127 84.0377 80.9627 86.6157C80.5141 87.4154 80.1338 88.2542 79.7262 89.0763C79.4718 89.5964 79.2256 90.1221 78.9739 90.6421C78.6894 91.2265 78.3638 91.7942 78.1231 92.3953C77.8632 93.0412 77.7182 93.7347 77.4501 94.3778C76.8565 95.801 76.7087 96.6371 76.9331 97.7192C76.9495 97.7974 76.8811 97.9009 76.8373 97.982C76.706 98.2113 76.4872 98.4238 76.4461 98.6698C76.3394 99.3381 76.2984 100.02 76.2409 100.697C76.1835 101.379 75.9428 102.003 76.044 102.747C76.1917 103.801 76.0002 104.897 76.0166 105.973C76.0276 106.723 76.1944 107.469 76.2026 108.216C76.2109 108.918 76.1862 109.594 76.8373 110.058C76.479 110.428 76.4571 110.83 76.6431 111.264C76.7033 111.403 76.8346 111.574 76.799 111.68C76.5884 112.281 76.7498 112.732 77.2805 113.092C77.1656 113.154 77.0617 113.21 76.9768 113.254C77.0534 113.45 77.1519 113.604 77.1656 113.766C77.2039 114.16 77.1738 114.563 77.2231 114.955C77.2504 115.17 77.3981 115.363 77.4638 115.575C77.5486 115.858 77.5212 116.227 77.6936 116.422C78.3967 117.222 79.1079 118.033 79.915 118.718C80.618 119.314 81.4251 119.806 82.243 120.222C82.7683 120.491 83.3948 120.608 83.9857 120.661C84.5793 120.717 85.3152 121.003 85.5532 120.253ZM82.8969 115.041C82.8394 114.359 82.544 113.828 81.6521 114.155C81.6822 113.685 81.7096 113.313 81.7397 112.874C81.5728 112.933 81.4333 112.98 81.291 113.031C81.2527 112.676 81.2199 112.337 81.1707 111.87C81.2035 111.803 81.7588 111.661 81.1789 111.353C81.1105 111.317 81.2774 110.827 81.3457 110.503C81.1871 110.458 81.0093 110.405 80.774 110.335C80.8944 109.947 81.0093 109.58 81.1351 109.175C81.012 109.147 80.9026 109.119 80.8287 109.102C80.722 108.753 81.3622 108.35 80.7712 108.14C80.7712 107.668 80.7712 107.218 80.7712 106.72C80.3609 106.745 80.205 106.739 80.3007 106.13C80.4922 104.928 80.4211 103.678 80.4266 102.447C80.4266 102.282 80.2351 102.12 80.1174 101.936C80.5278 100.862 80.525 100.834 79.9888 100.84C80.0627 100.622 80.1448 100.429 80.194 100.227C80.2706 99.8973 80.7138 99.573 80.2186 99.2207C80.1831 99.1955 80.2077 99.0697 80.2241 98.9942C80.4074 98.1581 80.6044 97.3249 80.7822 96.4889C80.8916 95.9688 80.9846 95.4459 81.0694 94.923C81.1351 94.5176 81.1187 94.0898 81.2336 93.7011C81.5236 92.7337 81.7917 91.7466 82.2102 90.8351C82.8394 89.465 83.5069 88.0949 84.314 86.8282C85.0663 85.6483 86.021 84.6025 86.891 83.5008C87.5202 82.7039 88.0646 81.8064 88.8114 81.1493C89.3805 80.6516 89.5911 79.7904 90.4337 79.5611C90.6854 79.494 90.8386 79.0801 91.0657 78.8537C91.5061 78.4147 91.9657 77.9952 92.4226 77.573C92.904 77.1284 93.3828 76.6755 93.8807 76.2505C94.4771 75.7416 95.0953 75.2578 95.6999 74.7601C95.9188 74.5784 96.1458 74.3994 96.3346 74.1897C96.9255 73.541 97.7489 73.281 98.4438 72.814C98.701 72.6379 98.8842 72.3526 98.9964 72.2296C99.3876 72.1094 99.7132 72.0954 99.9293 71.9304C100.887 71.1978 101.921 70.6023 102.98 70.0458C103.089 69.9871 103.138 69.8138 103.163 69.7746C104.066 69.5761 104.856 69.344 105.201 68.329C105.228 68.4884 105.256 68.6478 105.31 68.9554C105.789 68.8155 106.265 68.5471 106.727 68.5723C107.294 68.603 107.6 68.3402 107.857 67.932C108.065 68.1165 108.221 68.2535 108.35 68.371C108.58 68.083 108.779 67.8313 108.979 67.5797C109.017 67.6076 109.058 67.6384 109.097 67.6663C109.042 67.781 108.99 67.8956 108.891 68.1025C109.553 68.0354 110.169 68.0158 110.771 67.9012C111.726 67.7195 112.689 67.5237 113.616 67.2329C114.045 67.0959 114.609 67.2357 114.91 66.7156C114.937 66.6681 115.156 66.7017 115.268 66.7464C115.744 66.9365 116.097 66.8247 116.467 66.4388C116.546 66.3549 116.803 66.4528 117.088 66.4752C117.109 66.4444 117.205 66.313 117.238 66.2683C117.799 66.3242 118.302 66.3745 118.893 66.4332C118.896 66.4277 118.948 66.313 119 66.1984C119.123 66.3326 119.238 66.4612 119.353 66.5898C119.407 66.5591 119.459 66.5283 119.511 66.4976C119.435 66.313 119.355 66.1257 119.268 65.9187C119.336 65.9467 119.446 65.9551 119.484 66.011C119.845 66.5367 120.37 66.6961 120.915 66.464C121.087 66.3885 121.3 66.4081 121.495 66.3745C121.749 66.3326 122.004 66.285 122.258 66.2375C122.253 66.19 122.244 66.1424 122.239 66.0949C122.529 66.3102 122.797 66.573 123.117 66.7324C124.116 67.2357 125.144 67.6775 126.143 68.1864C126.512 68.3738 126.827 68.6729 127.166 68.9246C127.193 68.9442 127.204 69.0029 127.234 69.0169C127.937 69.3356 128.252 70.0766 128.818 70.5547C129.223 70.8959 129.442 71.4635 129.754 71.922C129.907 72.1429 130.12 72.3275 130.243 72.5652C130.372 72.8084 130.419 73.0936 130.503 73.3593C130.73 74.0695 131.138 74.7825 131.135 75.4927C131.133 76.2197 131.464 76.8488 131.433 77.6122C131.403 78.3699 131.584 79.2423 131.633 80.056C131.669 80.6572 131.458 81.2751 131.335 81.8819C131.278 82.1643 131.182 82.4383 131.081 82.7095C130.695 83.7441 130.323 84.7842 129.904 85.8048C129.631 86.4731 129.302 87.119 128.98 87.7649C128.506 88.7044 128.038 89.6467 127.524 90.5611C127.067 91.3691 126.523 92.1269 126.061 92.9322C125.464 93.9695 124.879 95.0097 124.148 95.9632C123.051 97.4004 121.941 98.8152 120.554 99.9812C119.916 100.518 119.375 101.178 118.726 101.704C118.018 102.282 117.235 102.769 116.486 103.297C116.376 103.376 116.25 103.446 116.163 103.546C115.536 104.257 114.677 104.665 114.004 105.297C113.703 105.579 113.381 105.677 113.069 105.859C112.612 106.127 112.297 106.644 111.901 107.033C111.775 107.156 111.589 107.22 111.425 107.296C111.198 107.399 110.943 107.455 110.741 107.59C110.04 108.056 109.367 108.565 108.667 109.03C107.581 109.748 106.473 110.439 105.387 111.16C105.075 111.367 104.804 111.638 104.495 111.898C104.498 111.901 104.44 111.809 104.347 111.655C103.964 111.979 103.612 112.279 103.198 112.631C102.717 112.29 102.553 112.969 102.186 113.171C101.806 113.377 101.431 113.593 100.972 113.85C100.955 113.828 100.865 113.727 100.84 113.741C99.9949 114.239 99.1633 114.753 98.2715 115.298C98.2496 115.276 98.1538 115.167 97.9651 114.96C97.1197 115.346 96.2443 115.771 95.3497 116.146C95.0351 116.28 94.6494 116.459 94.384 116.017C94.3622 115.981 94.4278 115.886 94.447 115.83C94.2555 115.863 94.0421 115.905 93.8314 115.944C93.815 116.081 93.7931 116.285 93.7658 116.509C93.6071 116.501 93.4402 116.543 93.3855 116.481C92.677 115.69 92.3596 116.573 91.8973 116.834C91.8645 116.853 91.8289 116.873 91.725 116.934C91.6265 116.722 91.528 116.515 91.4021 116.246C91.3091 116.383 91.2271 116.506 91.1423 116.629C90.9863 116.54 90.8249 116.448 90.6088 116.325C90.5404 116.573 90.4884 116.766 90.3954 117.108C90.1218 116.316 89.7662 116.02 89.2026 116.943C89.2026 116.607 89.2026 116.467 89.2026 116.313C88.609 116.526 88.0564 116.724 87.4518 116.943C87.4244 116.646 87.4026 116.397 87.3807 116.148C86.9621 116.199 86.497 116.59 86.0867 116.059C85.5806 116.431 85.2879 115.595 84.7216 115.827C84.4672 115.928 84.013 115.489 83.6437 115.312C83.4249 115.209 83.1896 115.147 82.8969 115.041ZM84.7544 99.5982C84.4261 99.2626 84.1225 98.874 83.7313 98.6391C83.1321 98.2812 83.5288 98.1358 83.8215 97.7611C83.6191 97.7471 83.4167 97.7303 83.1048 97.708C83.1048 97.5374 83.0145 97.2159 83.1239 97.0061C83.455 96.3686 83.8325 95.7479 84.2483 95.1663C84.5711 94.7189 84.9815 94.3358 85.318 93.964C86.4697 94.5959 87.5776 95.2054 88.6911 95.8122C88.9291 95.9408 89.1315 95.9911 89.2081 96.3882C89.2683 96.7098 89.7607 96.9838 90.1082 97.1991C90.9179 97.7024 91.755 98.1553 92.5785 98.6335C92.822 98.7761 93.0408 99.0222 93.2952 99.0669C93.6974 99.1424 94.1214 99.0865 94.6138 99.0865C94.6439 99.1787 94.7151 99.3996 94.778 99.5982C95.2731 99.6513 95.7792 99.7072 96.2826 99.7659C96.3592 99.7743 96.496 99.7995 96.4987 99.8302C96.6082 100.697 96.9966 100.127 97.3413 100.04C97.6231 99.9672 97.9623 99.9868 98.2441 100.079C99.3904 100.448 100.515 100.001 101.647 100.023C101.883 100.029 102.115 100.124 102.397 100.188C102.608 100.079 102.919 99.9001 103.245 99.7436C103.521 99.6121 103.828 99.5338 104.093 99.3829C105.018 98.86 105.083 97.9512 105.256 96.995C105.428 96.0415 105.138 95.2138 104.892 94.4113C104.637 93.5697 104.074 92.8092 103.56 92.0766C103.004 91.2908 102.359 90.5695 101.732 89.8397C101.562 89.6411 101.308 89.5209 101.106 89.3475C100.589 88.9057 100.066 88.4696 99.5709 88.0054C98.5231 87.0212 97.4918 86.0201 96.4522 85.0275C96.3838 84.9604 96.3018 84.8933 96.2607 84.8094C96.0364 84.362 95.8121 83.9119 95.6124 83.4505C95.5741 83.361 95.6425 83.2212 95.6862 82.9416C95.2731 82.4215 95.927 82.0077 96.2388 81.6358C97.5574 80.0672 98.8487 78.4426 100.362 77.0837C101.193 76.3371 102.038 75.3753 103.349 75.2914C103.798 75.2634 104.216 74.8999 104.67 74.7741C105.228 74.6231 105.811 74.5672 106.38 74.4665C106.834 74.3854 107.288 74.3016 107.827 74.2037C107.838 74.3715 107.827 74.4861 107.855 74.5924C107.874 74.6623 107.948 74.7154 107.997 74.7769C108.021 74.7126 108.038 74.6455 108.068 74.584C108.109 74.4973 108.172 74.3407 108.199 74.3463C108.481 74.4022 108.804 74.6147 109.025 74.5308C109.34 74.4134 109.537 74.2764 109.794 74.6147C109.871 74.7182 110.142 74.7545 110.281 74.7014C110.659 74.556 110.968 74.5476 111.252 74.8915C111.321 74.9726 111.55 75.0425 111.586 75.0034C112.084 74.4525 112.59 74.953 112.989 75.0901C113.736 75.3473 113.742 75.4032 114.305 74.7937C115.624 73.3704 116.973 71.9724 118.31 70.5687C118.527 70.3422 118.721 70.0654 118.981 69.9228C119.221 69.7914 119.492 69.372 119.856 69.8641C119.93 69.9676 120.387 69.7802 120.726 69.7131C120.214 70.8176 119.697 71.9612 119.153 73.0908C119.052 73.3005 118.879 73.5326 118.682 73.6277C118.053 73.9297 117.96 74.5728 117.7 75.1068C117.481 75.5542 117.317 76.0324 117.112 76.5441C117.224 76.5273 117.391 76.5049 117.558 76.4797C117.539 76.5217 117.52 76.5664 117.501 76.6084C117.837 76.751 118.171 76.8908 118.587 77.0641C118.548 77.1983 118.494 77.3941 118.414 77.6709C118.57 77.6961 118.751 77.7855 118.863 77.7324C119.552 77.3969 119.675 77.4556 119.758 78.2749C119.859 78.135 119.938 78.026 120.083 77.8275C120.108 78.0679 120.121 78.2105 120.141 78.3979C120.805 78.0288 120.671 78.7977 120.961 78.9823C121.279 79.1836 121.632 79.329 121.957 79.494C121.642 79.8826 121.714 80.0756 122.534 80.7019C122.288 80.797 122.088 80.8753 121.894 80.9536C121.856 81.2555 121.818 81.5799 121.757 82.0496C122.025 82.388 121.525 82.7431 121.404 83.1541C121.347 83.3414 121.235 83.5344 121.095 83.6686C121.011 83.7469 120.786 83.7776 120.69 83.7189C119.848 83.2016 119.027 82.6536 118.19 82.1335C117.531 81.7253 116.877 81.3059 116.182 80.9703C115.867 80.8165 115.46 80.8781 115.101 80.8054C114.015 80.5845 112.935 80.3132 111.843 80.1203C110.979 79.9665 110.101 79.8938 109.231 79.7932C108.714 79.7316 108.199 79.6673 107.682 79.631C107.023 79.5862 106.358 79.5107 105.704 79.5555C104.845 79.6142 104.744 79.6506 104.419 79.5135C103.97 79.7708 103.628 80.0168 103.25 80.1678C102.774 80.3524 102.238 80.3971 101.781 80.6152C101.19 80.8948 100.652 81.2863 100.195 81.5659C100.2 82.5138 101.179 82.3908 101.532 82.9975C101.68 83.2576 102.069 83.361 102.296 83.5875C102.43 83.7217 102.463 83.9566 102.539 84.1439C102.755 84.225 103.04 84.2949 103.283 84.4375C103.505 84.5634 103.677 84.7787 103.882 84.9408C104.263 85.2428 104.46 85.5616 104.148 86.0537C104.088 86.146 104.208 86.3976 104.306 86.5318C104.342 86.5794 104.591 86.5458 104.67 86.4703C105.078 86.0817 105.527 86.09 105.77 86.6521C106 87.1917 106.5 87.4182 106.799 87.8572C107.001 88.1592 107.239 88.4332 107.554 88.8414C107.956 88.9002 108.257 89.5349 108.019 90.2675C108.325 90.5639 108.949 90.5443 108.982 91.1678C109.006 91.6208 109.652 92.0458 109.012 92.4988C109.414 92.9629 109.641 93.4243 109.291 93.9891C109.272 94.0199 109.225 94.0674 109.233 94.0786C109.764 94.9762 109.091 95.6836 108.804 96.3966C108.279 97.7108 107.638 98.9802 106.968 100.227C106.659 100.803 106.161 101.276 105.765 101.807C105.532 102.117 105.379 102.506 105.102 102.761C104.438 103.373 103.751 103.971 103.015 104.489C102.742 104.679 102.309 104.631 101.921 104.698C101.954 105.277 101.357 105.034 101.065 105.093C100.329 105.232 99.5709 105.241 98.8076 105.305C98.8241 105.213 98.8377 105.126 98.8514 105.031C98.6599 105.143 98.4766 105.344 98.2933 105.341C97.6204 105.333 96.9474 105.274 96.2771 105.204C95.5057 105.126 94.7369 105.034 93.9709 104.914C93.6153 104.858 93.2706 104.726 92.7782 104.589C91.1669 106.488 89.4954 108.456 87.8157 110.433C87.2712 110.291 87.2767 109.312 86.4204 109.58C86.5271 109.413 86.5846 109.318 86.6448 109.222C86.6147 109.189 86.5955 109.144 86.5654 109.139C86.4122 109.105 86.259 109.08 86.1058 109.052C86.1907 108.946 86.2782 108.842 86.3603 108.733C87.6597 107.002 88.9564 105.269 90.2778 103.502C89.5966 103.063 88.9127 102.503 88.1357 102.148C87.0415 101.648 85.7967 100.901 85.0663 100.054C84.9459 99.9141 84.8803 99.7268 84.7544 99.5982Z" fill="#09BE9D"/>
</g>
</svg>
