<svg width="132" height="171" viewBox="0 0 132 171" fill="none" xmlns="http://www.w3.org/2000/svg">
<mask id="mask0_325_627" style="mask-type:luminance" maskUnits="userSpaceOnUse" x="0" y="0" width="132" height="171">
<path d="M0 0H131.436V170.556H0V0Z" fill="white"/>
</mask>
<g mask="url(#mask0_325_627)">
<path d="M52.0285 21.6568C52.0647 21.9813 51.9515 22.3237 51.9469 22.6584C51.9334 23.5931 52.4995 24.2291 52.966 24.8599C53.326 25.3491 53.874 25.6633 54.3496 26.034C54.8523 26.4254 55.3731 26.7807 55.8758 27.1695C56.297 27.494 56.6707 27.9291 57.1258 28.1711C58.4913 28.8998 59.7866 29.8268 61.2948 30.1821C61.5914 30.2542 61.8949 30.3186 62.1757 30.4421C62.8912 30.7614 63.5797 31.1657 64.3088 31.4309C64.9995 31.6806 65.7287 31.7862 66.4397 31.969C66.7069 32.0385 66.9628 32.1776 67.2323 32.2239C67.7305 32.3063 68.2513 32.6539 68.5955 32.2445C68.874 32.4351 69.2431 32.7646 69.293 32.7106C69.5896 32.3913 69.7527 32.7518 69.9723 32.7904C70.2146 32.8342 70.4682 32.8058 70.7151 32.811C70.7762 32.811 70.8373 32.8161 70.894 32.8316C71.6073 33.0118 72.3183 33.1972 73.0294 33.38C73.0271 33.3156 73.0248 33.2538 73.0203 33.1895C73.129 33.0453 73.2354 32.8985 73.3441 32.7543C73.3351 33.2976 73.3917 33.3337 73.8174 33.398C74.6123 33.5165 75.4365 33.2307 76.2087 33.6401C76.5552 33.8255 76.9334 33.7585 77.273 33.6993C77.8278 33.604 78.4551 33.9362 78.9374 33.3697C78.9397 33.3671 78.9827 33.4264 79.0122 33.4341C79.3179 33.5139 79.6281 33.5886 79.9361 33.6658C79.9044 33.604 79.8727 33.5422 79.841 33.4804C80.0674 33.1843 80.2531 32.7209 80.5339 32.6282C81.0049 32.4711 81.5393 32.5509 82.0466 32.5303C82.0149 32.4351 81.9832 32.3398 81.9537 32.2445C82.0511 32.1595 82.2187 31.9819 82.2368 31.9999C82.5674 32.3243 82.8845 32.1467 83.2196 32.0205C83.7404 31.8274 84.2635 31.6266 84.798 31.4901C85.2712 31.3691 85.4569 30.782 85.9891 30.6971C86.3582 30.6378 86.6888 30.2207 87.0239 29.9452C87.4044 29.6336 87.8709 29.3787 88.1222 28.9616C88.7518 27.924 89.3043 26.8245 89.8387 25.7225C90.2259 24.9243 90.5633 24.0926 90.8668 23.2532C91.1566 22.455 91.3944 21.6311 91.6163 20.8046C91.7726 20.2124 91.8903 19.6021 91.9809 18.9919C92.0919 18.2298 92.1213 17.4496 92.2527 16.6926C92.3342 16.2188 92.2436 15.8944 91.8994 15.7039C92.0058 15.4283 92.2187 15.1477 92.1621 14.9777C91.9628 14.3624 92.2934 13.8603 92.3591 13.3118C92.4202 12.7969 92.2436 12.1403 91.8269 11.8493C91.6865 11.7489 91.5461 11.6511 91.4374 11.5764C91.4782 11.2288 91.5914 10.9044 91.528 10.6314C91.4691 10.3688 91.2268 10.1603 91.0344 9.88475C90.9596 9.87187 90.6743 9.85385 90.672 9.81523C90.6426 9.31056 90.1354 9.08398 90.0697 8.80847C89.9044 8.09782 89.3632 7.94333 89.0008 7.56998C88.4008 6.95202 87.6127 6.55808 87.0602 5.89892C86.254 4.93851 85.2123 4.46217 84.2613 3.79787C84.2001 3.75409 84.1005 3.78242 84.019 3.77984C83.3894 3.76182 82.7576 3.78499 82.1349 3.71032C81.6571 3.65368 81.2087 3.15673 80.6788 3.70002C80.5248 2.54135 79.6734 2.58512 79.028 2.31219C78.865 2.24267 78.6453 2.34051 78.514 2.35596C78.2173 2.12938 77.9705 1.841 77.6739 1.73801C77.2006 1.57322 76.6141 1.67879 76.2223 1.4007C75.7151 1.04023 75.3392 1.12005 74.8976 1.40843C74.8817 1.41873 74.8455 1.3904 74.8183 1.37753C74.841 1.27454 74.8659 1.17155 74.9021 1.01191C74.4356 1.01191 74.0076 1.01191 73.5434 1.01191C73.5389 0.978433 73.5185 0.80592 73.4868 0.556162C73.2536 0.679753 73.0611 0.782746 72.8709 0.885739C72.8641 0.826518 72.8573 0.767298 72.8505 0.708077C72.692 0.695202 72.5335 0.702927 72.3795 0.669454C71.7454 0.535563 71.1114 0.28323 70.4773 0.285805C70.0448 0.285805 69.6757 0.249758 69.3179 0C69.2816 0 69.2477 0 69.2114 0C68.9035 0.373349 68.6408 1.09945 68.1652 0.154489C68.1268 0.0772444 67.8935 0.0901193 67.7599 0.118442C67.264 0.221435 66.7726 0.345026 66.2585 0.466043C66.2314 0.406822 66.168 0.270356 66.0978 0.121017C66.014 0.182812 65.9551 0.267781 65.8985 0.265207C65.543 0.254908 65.2123 0.270357 65.0335 0.715801C65.0199 0.749274 64.7912 0.669454 64.6621 0.643706C64.7006 0.532988 64.7391 0.422271 64.7957 0.260057C64.1888 0.448019 63.4596 0.198261 63.1381 1.15867C62.5923 0.705502 62.0556 0.355326 61.682 1.16897C61.4465 1.08915 61.2382 0.926936 61.1068 0.986158C60.3867 1.30801 59.4877 1.15352 58.9578 1.99549C58.9193 2.05213 58.8423 2.10878 58.7835 2.11136C58.0339 2.14998 57.5674 2.79368 56.9968 3.20051C56.716 3.40134 56.494 3.72834 56.2744 4.02702C55.2056 5.4715 53.865 6.66622 53.0996 8.38878C52.8958 8.84709 52.692 9.34918 52.658 9.84613C52.5878 10.8349 52.6376 11.8365 52.6376 12.8561C52.6965 12.8715 52.8256 12.905 53.0498 12.9642C52.821 13.1213 52.6829 13.2166 52.5267 13.3221C52.8256 14.3727 52.0511 15.3048 52.3387 16.3373C51.7477 17.102 52.1009 18.1036 51.8315 18.9559C51.7318 19.2726 51.7024 19.6459 51.7386 19.9806C51.7998 20.5445 51.9673 21.093 52.0285 21.6568ZM62.3115 21.6414C62.2912 21.7006 62.1077 21.6929 62.0941 21.7444C62.0624 21.8731 62.0353 22.0894 62.0941 22.1461C62.2889 22.3289 62.3093 22.504 62.0987 22.7048C62.0602 22.7408 62.0058 22.7898 62.0036 22.8361C61.9809 23.3459 61.9719 23.8557 61.9469 24.363C61.9311 24.6823 61.8949 24.999 61.8564 25.4805C61.6027 25.2461 61.4782 25.1097 61.3355 25.0041C61.1974 24.9011 60.971 24.7132 60.8985 24.7647C60.1829 25.2951 60.2848 24.1106 59.8296 24.1287C59.8523 24.0205 59.8749 23.915 59.884 23.8686C60.0833 23.9124 60.2463 23.9484 60.4094 23.9819C60.389 23.7811 60.3867 23.5751 60.3437 23.3794C60.2554 22.97 59.7142 22.5194 60.4546 22.2027C60.4999 22.1821 60.5407 21.9761 60.5203 21.9607C60.398 21.8628 60.2554 21.7959 60.1082 21.7109C60.8283 21.2371 60.4094 20.336 60.7151 19.6614C60.5113 19.6202 60.3324 19.5815 60.1444 19.5403C60.1218 19.0408 60.1014 18.5439 60.0765 17.9336C60.3052 18.0057 60.5656 18.0469 60.7921 18.1628C61.2721 18.41 61.7386 18.6958 62.2051 18.9739C62.273 19.0125 62.341 19.0949 62.3681 19.1747C62.6512 20.0038 62.5923 20.8303 62.3115 21.6414ZM75.543 22.7846C75.3641 23.0266 75.0923 23.2146 75.3165 23.6395C75.3935 23.7836 75.2758 24.0746 75.2259 24.2935C75.1784 24.5072 75.1037 24.7132 75.0312 24.95C75.2078 24.9629 75.3075 24.9706 75.4252 24.9809C75.4252 25.2204 75.4252 25.447 75.4252 25.7225C74.9066 25.4727 74.8817 25.7637 74.9791 26.2297C75.1512 27.0562 74.7912 27.8055 74.7119 28.784C74.5262 28.5059 74.4266 28.3565 74.3224 28.202C73.7993 28.5265 72.504 28.4029 72.2164 27.9523C72.0013 28.1892 71.7839 28.4261 71.5099 28.7247C71.4963 27.9832 71.1114 27.4914 70.8826 27.7617C70.74 27.9343 70.7445 27.9291 70.5679 27.8441C70.1693 27.651 69.7436 27.5274 69.3224 27.3987C69.216 27.3678 69.0892 27.4296 68.9714 27.4373C68.5887 27.4682 68.2196 27.5661 67.8709 27.1876C67.735 27.0434 67.3749 27.1644 67.1145 27.1644C67.0964 27.3009 67.0783 27.4219 67.0624 27.5429C67.0285 27.5506 66.9945 27.5583 66.9605 27.5661C66.8881 27.2828 66.8133 26.997 66.7748 26.8477C66.3808 26.7704 66.0412 26.7498 65.7354 26.6288C65.4229 26.5027 65.1399 26.2735 64.7798 26.0521C65.6358 25.2796 65.6698 24.5046 64.7006 23.7425C64.7979 23.7682 64.8976 23.8068 64.9972 23.8094C65.0991 23.812 65.201 23.7785 65.3437 23.7013C64.7368 23.4438 64.7753 23.0138 64.9633 22.4962C65.0312 22.3134 64.9972 22.0817 65.0017 21.8706C65.004 21.8139 64.9497 21.7212 64.9678 21.7032C65.398 21.2243 64.918 20.6527 65.0969 20.1454C65.7558 20.0811 66.322 20.2742 66.9537 20.5831C67.8392 21.0131 68.8582 21.093 69.8251 21.2989C70.5565 21.456 71.2902 21.6002 72.0262 21.7058C72.6761 21.7985 73.3396 21.7882 73.9895 21.8963C74.5941 21.9967 75.1897 22.1924 75.9166 22.3778C75.7513 22.5555 75.6358 22.6584 75.543 22.7846ZM81.2699 23.4257C81.1046 23.5287 80.9574 23.9484 81.4827 24.1184C81.322 24.2059 81.1612 24.2909 81.0004 24.3759C81.1476 24.6694 81.3129 24.9964 81.4782 25.3234C81.4284 25.3594 81.3786 25.3955 81.3287 25.4315C81.2721 25.3363 81.2133 25.2384 81.0864 25.0221C81.0185 25.3079 80.9664 25.4882 80.9325 25.6736C80.9053 25.8229 80.9143 25.98 80.8804 26.1242C80.8555 26.2272 80.7219 26.3713 80.7468 26.4048C81.1272 26.9893 80.5996 27.4811 80.629 28.0321C80.6449 28.3282 80.1172 28.7119 79.773 28.7968C79.687 28.8174 79.644 29.0517 79.576 29.1934C79.0688 28.5574 78.6793 28.5471 78.2151 28.9616C78.0996 29.0646 77.855 28.9822 77.6716 28.9822C77.7169 28.8406 77.7622 28.699 77.8097 28.5574C77.8958 28.2922 77.9999 28.0321 78.0656 27.7592C78.1245 27.5094 78.3532 27.2185 77.9931 26.9945C77.9818 26.9867 78.129 26.6469 78.2332 26.3791C78.1177 26.3559 77.966 26.325 77.7848 26.289C77.8324 25.9594 77.4836 25.4341 77.9547 25.1045C78.4166 24.2523 78.0022 23.3073 78.1449 22.4525C79.2499 22.352 80.2984 22.2594 81.442 22.1538C81.759 22.5786 81.922 23.0163 81.2699 23.4257ZM88.985 19.9111C88.8197 20.3437 88.6566 20.6655 88.5706 21.0106C88.3215 22.0173 88.0996 23.0318 87.8731 24.0437C87.8369 24.2136 87.855 24.4016 87.8165 24.569C87.6082 25.4418 87.1213 25.998 86.3423 26.2143C86.2585 26.2375 86.1725 26.2735 86.1 26.3276C85.8509 26.5104 84.2114 27.1824 83.9012 27.2107C83.8582 27.2133 83.8129 27.1592 83.754 27.1232C83.9895 26.7215 84.062 26.3559 83.788 25.9027C83.6046 25.6015 83.5751 25.1766 83.4664 24.7698C83.6612 24.7698 83.8242 24.7698 83.831 24.7698C83.9533 24.4093 84.0665 24.1493 84.1209 23.8763C84.1571 23.6961 84.1412 23.4824 84.0869 23.3099C84.0643 23.2404 83.8423 23.2816 83.7631 23.2043C83.6634 23.1065 83.6159 22.9391 83.5072 22.7254C84.2726 22.6713 84.0393 22.1847 83.9714 21.7032C85.0697 21.2629 86.177 20.82 87.3002 20.372C87.2821 20.3282 87.3206 20.4235 87.3636 20.5316C88.0973 19.6742 88.7314 19.5094 88.985 19.9111ZM57.5063 7.35885C57.8777 7.14514 58.2626 6.9649 58.6544 6.80268C58.8265 6.73059 59.0303 6.75634 59.2092 6.69969C59.4266 6.63017 59.6326 6.51688 59.8432 6.42419C60.7807 6.52718 61.6616 6.2182 62.5493 5.96587C62.7305 5.91437 62.9229 5.91437 63.1109 5.9015C64.3156 5.8088 65.5248 5.60024 66.7205 5.68006C67.3931 5.72641 68.0475 5.42515 68.754 5.72383C69.2839 5.94784 69.9406 5.77533 70.5362 5.8191C71.0502 5.85515 71.562 5.93754 72.0692 6.02251C72.6739 6.12293 73.2739 6.24395 73.8763 6.35981C74.5285 6.48856 75.1784 6.69454 75.8351 6.73831C76.7273 6.80011 77.504 7.31765 78.394 7.43609C79.3201 7.55968 80.2282 7.96136 81.1136 8.33213C81.9855 8.69775 82.8369 9.13805 83.668 9.61439C84.1322 9.8796 84.5285 10.2941 84.9678 10.6211C85.3165 10.8786 85.7219 11.0537 86.0344 11.355C86.6163 11.9137 87.1757 12.5136 87.6965 13.147C88.0701 13.6028 88.3758 14.1306 88.6951 14.6379C88.8718 14.9211 88.6748 15.2172 88.317 15.3254C87.9999 15.4206 87.701 15.5854 87.3161 15.7528C87.0307 15.5185 85.9823 15.8686 84.7345 16.7441C84.5353 16.2497 84.1684 16.2059 83.754 16.6282C83.403 16.9835 83.403 16.9835 83.1766 16.484C82.5289 16.6694 81.8745 16.8548 81.1883 17.0479C81.2382 16.9192 81.2676 16.8496 81.2948 16.7827C81.014 16.811 80.7332 16.8162 80.4614 16.8754C80.2282 16.9243 80.0063 17.0325 79.7436 17.1277C79.7413 17.1226 79.6983 16.9835 79.6372 16.7853C79.3903 16.8651 79.139 16.9475 78.8537 17.0376C78.5412 16.6025 78.052 16.6282 77.4044 17.2281C77.341 17.0196 77.2798 16.8316 77.2096 16.605C77.076 16.7003 76.947 16.7956 76.8156 16.8883C76.725 16.7879 76.639 16.6153 76.5439 16.6076C76.0253 16.5587 75.4977 16.5896 74.9836 16.5175C74.4152 16.4403 73.8605 16.2652 73.2943 16.157C72.8573 16.0746 72.4134 16.0309 71.9719 15.9716C71.5258 15.9124 71.0797 15.848 70.6313 15.8068C70.4886 15.794 70.3414 15.8532 70.1942 15.8712C69.995 15.8995 69.7096 16.1622 69.6983 15.6369C69.696 15.5906 69.5217 15.5365 69.422 15.5082C68.7359 15.3125 68.0498 15.091 67.3546 14.9391C67.0239 14.867 66.6684 14.9263 66.3537 14.8464C66.0842 14.764 65.817 14.6791 65.5475 14.6018C64.9791 14.4422 64.3858 14.4679 63.8672 14.0096C63.4959 13.68 62.9207 13.6491 62.5425 13.3247C62.0149 12.869 61.3989 12.5935 60.8962 12.0682C60.3731 11.5198 59.696 11.1644 59.096 10.7061C59.0212 10.6495 59.0212 10.477 58.9533 10.392C58.908 10.3353 58.8061 10.3379 58.677 10.2967C58.2762 9.78691 57.7939 9.20757 57.35 8.59219C57.196 8.3759 57.0715 8.0695 57.0715 7.80429C57.0715 7.65238 57.3297 7.45926 57.5063 7.35885ZM55.4343 15.6755C55.3641 15.0601 55.5498 14.5478 55.6381 13.8654C56.6548 14.7898 57.6308 15.6807 58.591 16.5561C58.3623 16.7956 58.0611 16.9835 57.9411 17.2693C57.7644 17.6993 57.8324 18.2349 57.5267 18.634C57.4587 18.7241 57.4519 18.9018 57.4655 19.0305C57.4859 19.2365 57.504 19.4734 57.6037 19.6305C57.7237 19.8184 57.932 19.9369 58.1064 20.0888C57.8822 20.3179 57.5901 20.4827 57.5221 20.7299C57.4768 20.887 57.7599 21.1651 57.9048 21.3994C57.6806 21.4689 57.4429 21.4946 57.4361 21.5539C57.3998 21.8834 57.418 22.2207 57.418 22.643C57.0896 22.3958 56.6956 22.1126 56.3106 21.8113C56.0412 21.6002 55.8238 21.2835 55.4365 21.3247C55.4162 21.3247 55.3482 21.0054 55.3437 20.8329C55.3414 20.7093 55.4388 20.5806 55.4365 20.457C55.4094 19.633 55.3369 18.8091 55.3392 17.9877C55.3437 17.2153 55.5226 16.4274 55.4343 15.6755ZM130.792 116.076C131.399 115.576 131.576 114.742 131.315 114.175C131.034 113.568 131.363 113.079 131.216 112.558C131.132 112.267 131.105 111.956 131.05 111.652C131.014 111.657 130.975 111.66 130.939 111.665C130.939 111.33 130.939 110.993 130.939 110.625C130.876 110.599 130.747 110.547 130.742 110.547C130.803 110.159 130.849 109.863 130.894 109.585C130.679 109.682 130.545 109.744 130.412 109.803C130.405 109.649 130.387 109.497 130.391 109.342C130.396 109.149 130.418 108.954 130.423 108.894C130.129 108.645 129.707 108.367 129.732 108.292C129.984 107.571 129.377 107.476 129.232 107.229C128.967 107.205 128.72 107.259 128.666 107.167C128.34 106.616 128.355 106.618 127.783 106.732C127.617 106.765 127.42 106.742 127.266 106.672C127.128 106.611 127.028 106.446 126.913 106.325C126.913 106.52 126.915 106.714 126.908 106.909C126.908 106.927 126.854 106.943 126.786 106.981C126.707 106.835 126.628 106.685 126.535 106.508C126.399 106.654 126.297 106.765 126.134 106.94C126.134 106.698 126.134 106.557 126.134 106.456C125.969 106.469 125.788 106.549 125.704 106.482C125.267 106.119 125.339 106.567 125.283 106.806C124.995 106.932 124.802 106.443 124.495 106.667C124.365 106.76 124.189 106.757 124.048 106.829C123.922 106.894 123.824 107.038 123.697 107.082C123.469 107.164 123.226 107.198 123.004 107.247C122.669 106.804 122.882 106.433 123.147 106.134C123.663 105.56 124.248 105.063 124.741 104.466C125.346 103.74 125.944 102.99 126.44 102.166C127.139 101.003 127.81 99.8002 128.367 98.5411C128.894 97.3515 129.27 96.0744 129.68 94.823C129.759 94.5862 129.646 94.2746 129.694 94.0145C129.75 93.6978 129.884 93.3992 129.984 93.0902C129.941 93.1031 129.895 93.1133 129.852 93.1236C129.791 92.9975 129.68 92.8687 129.682 92.7426C129.687 92.4697 129.778 92.1967 129.778 91.9238C129.778 91.4655 129.744 91.0071 129.705 90.5488C129.66 90.0364 129.714 89.4494 129.51 89.0323C129.293 88.5894 129.141 88.2469 129.311 87.7577C129.338 87.6753 129.175 87.4359 129.062 87.3869C128.962 87.3432 128.774 87.4256 128.688 87.5234C128.62 87.5981 128.648 87.7835 128.632 87.9199C128.555 87.835 128.475 87.7526 128.396 87.6702C128.525 87.2325 128.652 86.7947 128.79 86.3235C128.426 86.2489 128.147 86.0918 128.344 85.5691C128.36 85.5253 128.188 85.3142 128.095 85.3065C127.755 85.273 127.411 85.291 127.035 85.291C126.954 84.9949 126.954 84.9949 125.711 84.6113C125.679 84.4825 125.649 84.3564 125.62 84.2354C125.187 84.2354 124.782 84.2045 124.381 84.2457C124.105 84.2714 123.836 84.4027 123.559 84.4671C123.387 84.5057 123.192 84.4645 123.034 84.5366C122.436 84.8018 121.841 85.0851 121.254 85.3915C120.228 85.927 119.202 86.4703 118.188 87.0342C117.647 87.3329 117.126 87.6805 116.596 88.0049C116.567 87.9663 116.537 87.9251 116.505 87.8865C116.587 87.6959 116.646 87.4874 116.75 87.3174C117.087 86.7613 117.504 86.2592 117.773 85.667C118.446 84.1916 119.057 82.6776 119.687 81.1765C119.782 80.9473 119.886 80.7079 119.913 80.4607C119.979 79.9019 119.895 79.2969 120.058 78.7845C120.303 78.012 120.287 77.3838 119.769 76.7864C119.701 76.7092 119.701 76.498 119.732 76.3693C120.106 74.8398 119.499 73.5782 118.745 72.471C118.254 71.7552 117.495 71.2608 116.82 70.7227C116.345 70.3442 115.824 69.9734 115.192 70.3905C115.135 70.4292 114.945 70.3571 114.92 70.2875C114.71 69.6747 114.35 69.752 113.933 69.9605C113.774 70.0378 113.589 70.0378 113.43 70.1124C112.47 70.5656 111.512 71.0291 110.538 71.4977C110.384 71.0703 110.081 71.3484 109.818 71.508C109.479 71.7166 109.168 71.9844 108.826 72.1878C108.648 72.2933 108.43 72.3088 108.19 72.3783C107.855 72.0024 107.572 72.3577 107.273 72.6049C107.094 72.7516 106.918 72.9036 106.73 73.0349C106.591 73.1327 106.437 73.2022 106.249 73.3104C106.204 73.2434 106.123 73.125 106.043 73.0091C105.33 73.5524 104.266 73.331 103.847 74.5926C103.752 74.2785 103.713 74.1446 103.641 73.9C103.337 74.5154 102.948 74.8733 102.343 74.6364C102.33 74.6313 102.307 74.6416 102.291 74.6493C101.874 74.8475 101.458 75.051 101.039 75.2467C100.654 75.4243 100.258 75.5788 99.8749 75.7668C99.6553 75.8749 99.3835 75.9753 99.259 76.1762C99.0144 76.5701 98.6997 76.6628 98.3192 76.704C97.9094 76.7478 97.5697 76.9177 97.581 77.3065C97.1145 77.5228 96.673 77.6438 96.3197 77.9116C95.9415 78.2025 95.6471 78.6325 95.2418 79.0857C95.2622 78.6943 95.2735 78.4935 95.2871 78.2566C95.0878 78.4626 94.9066 78.7767 94.7934 78.7458C94.1707 78.5888 93.8627 79.2557 93.3555 79.4204C93.0611 79.5157 92.8097 79.8994 92.4021 79.9921C92.0353 80.077 91.716 80.4195 91.3718 80.6409C91.1634 80.7748 90.9528 80.8984 90.7422 81.0271C90.6335 81.1147 90.4773 81.143 90.3527 81.2305C89.85 81.5859 89.3949 82.1266 88.8514 82.2888C88.0045 82.5411 87.4836 83.4191 86.5892 83.5736C86.1929 83.6432 85.8577 84.1246 85.4841 84.4027C85.2169 84.6036 84.9202 84.9486 84.6575 84.9254C84.0688 84.8739 83.7631 85.2086 83.4143 85.6386C83.2355 85.8601 82.9094 85.9219 82.658 86.0738C82.3138 86.2798 81.9764 86.5038 81.6367 86.7175C81.2178 86.9801 80.8192 87.3277 80.3709 87.4771C79.7006 87.7011 79.2318 88.18 78.8763 88.7928C78.4868 89.4648 78.1154 89.6322 77.5063 89.2691C77.4066 89.2099 77.2595 89.2305 77.1417 89.2537C76.4397 89.3799 76.057 90.3197 75.2486 90.2193C75.1489 90.2064 75.0199 90.4613 74.9089 90.5952C74.8591 90.657 74.8297 90.778 74.7753 90.7909C74.3835 90.881 73.9759 90.9016 73.6 91.0432C73.3509 91.1359 72.7939 90.9273 73.0045 91.6715C72.701 91.4191 72.538 91.4861 72.3863 91.8414C72.3138 92.0088 72.0806 92.086 71.8247 92.2714C71.9379 91.8594 72.0013 91.6277 72.0647 91.3959C72.0104 91.3599 71.9537 91.3239 71.8971 91.2904C71.7137 91.4861 71.5303 91.6843 71.3129 91.9186C71.2246 91.8697 71.0751 91.7873 70.9551 91.7204C70.5339 91.8517 70.4365 92.6679 69.7957 92.3667C69.9678 92.104 70.0991 91.9032 70.2622 91.6509C69.9904 91.6328 69.8432 91.6225 69.696 91.6122C69.7187 91.6509 69.7413 91.6895 69.764 91.7281C69.5534 91.9238 69.3428 92.1195 69.1005 92.3435C69.0416 92.1426 69.0076 92.0268 68.9623 91.8723C68.874 91.9495 68.822 92.001 68.7653 92.0422C68.7042 92.086 68.6363 92.122 68.5729 92.1607C68.5344 92.1246 68.4936 92.0886 68.4528 92.0525C70.6607 88.3757 72.855 84.6937 74.1163 80.3783C73.8672 80.3783 73.7178 80.3783 73.5412 80.3783C73.6204 80.2135 73.7133 80.0847 73.7472 79.938C73.8718 79.3947 74.0846 78.8411 74.0597 78.303C74.0258 77.6052 73.7404 76.9177 74.2477 76.2946C74.2862 76.2483 74.2658 76.1401 74.2726 76.032C74.0212 76.1401 73.8038 76.2328 73.4755 76.3718C74.0552 75.2338 73.7631 74.2888 73.5072 73.3155C73.283 73.4314 73.129 73.5112 72.9728 73.5936C72.9343 73.555 72.898 73.5189 72.8595 73.4803C72.9682 73.1096 73.0769 72.7388 73.1879 72.368C73.1154 72.3216 72.9433 72.2109 72.769 72.1028C72.6127 72.1311 72.4089 72.1697 72.1258 72.2212C72.384 71.9071 72.5652 71.6857 72.7395 71.472C72.5765 71.3561 72.384 71.2994 72.3206 71.163C72.0964 70.6738 71.7454 70.5476 71.3106 70.6248C70.946 70.6892 70.8124 70.5193 70.8849 69.9605C70.7626 70.2515 70.7037 70.388 70.6585 70.4935C70.552 70.3287 70.4569 70.0713 70.3709 70.0764C70.192 70.0841 70.0176 70.236 69.8387 70.321C69.6372 70.4137 69.4311 70.4987 69.2273 70.5862C69.216 70.5424 69.2047 70.4987 69.1933 70.4549C69.2681 70.3493 69.345 70.2412 69.3881 70.182C68.7585 70.182 68.129 70.1253 67.5108 70.1948C66.4895 70.3056 65.4728 70.4704 64.4628 70.6738C64.1684 70.733 63.9057 70.9982 63.557 71.2119C63.5298 71.199 63.36 71.0883 63.1811 71.0548C63.1358 71.0445 63.0543 71.2943 62.9977 71.4153C62.6897 71.06 61.802 71.3175 61.3514 71.92C61.2608 71.8659 61.1566 71.7475 61.1 71.7732C60.6313 71.9689 60.1693 72.1852 59.7119 72.4092C59.4673 72.5302 59.2409 72.695 58.994 72.8083C58.5185 73.022 58.0248 73.1842 57.5584 73.4211C56.7364 73.8382 55.9234 74.2837 55.1195 74.742C54.8885 74.8733 54.7028 75.0999 54.4877 75.2698C54.3949 75.3445 54.2658 75.4501 54.1797 75.4269C53.7585 75.311 53.5253 75.5196 53.3532 75.929C53.317 76.0165 53.172 76.0706 53.0701 76.0963C52.932 76.1298 52.7667 76.0757 52.6444 76.1401C52.3795 76.2817 52.144 76.5006 51.8768 76.6396C51.2789 76.9512 50.672 77.2267 50.0697 77.5254C49.995 77.564 49.9383 77.6541 49.8681 77.7133C49.3858 78.1253 48.9216 78.5759 48.4098 78.9389C47.7984 79.3741 47.1258 79.7037 46.5167 80.144C46.1023 80.4401 45.7694 80.8778 45.3686 81.2048C44.7572 81.7043 44.1141 82.1575 43.4891 82.6415C42.9999 83.02 42.5199 83.414 42.033 83.7976C41.6163 84.1272 41.1702 84.4156 40.7875 84.7889C39.5896 85.9631 38.4075 87.1629 37.2323 88.3654C36.5099 89.1018 35.7875 89.8408 35.1059 90.6209C33.7835 92.1401 32.4814 93.6798 31.1861 95.2273C30.4841 96.0667 29.7934 96.9215 29.1322 97.8021C28.5955 98.5153 28.1086 99.2801 27.5969 100.019C27.4383 100.246 27.2753 100.467 27.0194 100.091C27.1372 99.9109 27.2504 99.7358 27.3749 99.5427C26.716 99.4294 26.1249 99.3264 25.6494 99.244C25.3709 99.5015 25.1308 99.7204 24.7934 100.029C24.8274 99.6431 24.85 99.3805 24.8704 99.1616C24.687 99.0715 24.4945 98.9788 24.3247 98.8964C24.1526 99.0329 23.9805 99.1668 23.8084 99.3032C23.7721 99.2517 23.7359 99.2002 23.6997 99.1487C23.7902 98.9556 23.8831 98.7651 23.9895 98.5411C23.3781 98.245 23.0113 98.7213 22.547 99.1539C22.547 98.796 22.547 98.5977 22.547 98.3042C22.2753 98.3763 22.0398 98.4381 21.7409 98.5179C21.4556 98.2913 20.9166 98.4767 20.7513 98.9041C20.6947 99.056 20.5294 99.244 20.4026 99.2543C19.9904 99.2878 19.5692 99.1874 19.1661 99.2492C18.7427 99.3135 18.4687 99.7899 17.9456 99.759C17.4746 99.7332 17.0149 100.207 16.4805 99.9753C16.4125 99.9469 16.3016 99.9881 16.2291 100.034C15.6313 100.423 15.0425 100.838 14.4356 101.211C14.2092 101.348 13.9216 101.35 13.6906 101.479C12.9977 101.865 12.3274 102.311 11.6299 102.679C10.8441 103.093 10.0357 103.454 9.23635 103.835C8.74722 104.067 8.37584 104.43 8.19015 105.091C8.09051 104.849 8.00899 104.656 7.94106 104.489C7.28209 104.829 6.59595 105.081 6.00718 105.509C5.14667 106.134 4.30202 106.817 3.55247 107.602C2.6897 108.508 1.9243 109.541 1.14305 110.547C0.909807 110.846 0.479553 111.225 1.1272 111.693C0.977742 111.722 0.83055 111.747 0.617688 111.786C0.348213 112.391 0.0153321 113.127 0.780731 113.794C0.176111 114.173 0.101383 114.783 0.869046 115.924C0.959626 115.798 1.04341 115.679 1.1272 115.561C1.17702 115.592 1.22684 115.622 1.27439 115.653C1.19513 115.821 1.12946 116.006 1.02756 116.155C0.708267 116.624 0.848666 117.216 1.32647 117.34C1.39214 117.355 1.46687 117.312 1.58236 117.283C1.50537 117.466 1.45781 117.582 1.41252 117.687C1.65709 117.868 1.87901 118.033 2.15075 118.236C1.9945 118.344 1.89033 118.416 1.80881 118.473C1.90166 118.697 1.98091 118.882 2.0579 119.068C2.15981 119.037 2.26397 119.006 2.36814 118.972C2.38852 119.065 2.40664 119.158 2.42475 119.248C2.33191 119.266 2.2368 119.281 2.11452 119.299C2.25944 119.763 2.25718 120.378 2.92747 120.072C2.85274 120.383 2.78707 120.661 2.70781 120.983C2.77801 121.035 2.88897 121.117 2.99993 121.197C2.87312 121.83 2.91162 122.412 3.35999 122.914C3.39396 122.768 3.41887 122.665 3.44377 122.562C3.6204 122.711 3.7993 122.86 3.97593 123.007C3.908 122.979 3.8378 122.95 3.7676 122.92C3.63399 123.123 3.49812 123.329 3.43925 123.414C3.67022 124.207 3.80156 124.817 4.02348 125.378C4.23408 125.911 4.53979 126.398 4.77077 126.844C4.75039 126.841 4.64622 126.831 4.5262 126.818C4.58734 127.083 4.6032 127.307 4.68698 127.492C4.76397 127.66 4.9406 127.928 5.02892 127.904C5.43653 127.807 5.33236 128.023 5.2916 128.298C5.26669 128.466 5.40483 128.667 5.37312 128.831C5.2916 129.266 5.49088 129.545 5.71733 129.828C5.74676 129.861 5.76714 129.949 5.74903 129.98C5.36859 130.631 5.84867 131.056 6.09323 131.504C6.34006 131.952 6.71144 132.312 6.65935 132.915C6.65256 133.013 6.70691 133.126 6.74993 133.221C6.89713 133.566 7.04205 133.914 7.21189 134.244C7.307 134.429 7.42022 134.671 7.57421 134.733C7.84368 134.844 7.84368 134.789 7.78481 135.047C7.75537 135.186 7.75763 135.364 7.80972 135.492C7.932 135.796 8.08372 136.09 8.24903 136.37C8.32149 136.494 8.45057 136.571 8.60682 136.718C8.60682 136.499 8.60682 136.406 8.60682 136.265C8.7676 136.424 8.88535 136.54 9.11859 136.772C8.93517 136.836 8.82195 136.875 8.72684 136.909C8.91253 137.192 9.07783 137.367 9.15936 137.586C9.33372 138.047 9.42204 138.551 9.62358 138.994C9.80474 139.396 10.1489 139.71 10.3097 140.119C10.5294 140.678 11.0525 141.01 11.1566 141.654C11.1725 141.752 11.4148 141.806 11.4669 141.834C11.4963 142.107 11.4669 142.362 11.5552 142.545C11.9198 143.31 12.3047 144.061 12.7146 144.795C12.8663 145.066 13.129 145.498 13.2988 145.472C14.0846 145.357 13.4619 145.807 13.5321 145.951C14.0393 147.44 15.1625 148.485 15.6811 149.971C15.8283 150.393 16.0457 150.797 16.2857 151.163C16.4012 151.335 16.6458 151.397 16.7862 151.482C16.7952 151.642 16.759 151.858 16.8224 152.025C16.9515 152.363 17.1168 152.687 17.2979 152.993C18.0656 154.296 18.8808 155.568 19.6077 156.902C19.9927 157.605 20.3075 158.349 20.8962 158.874C20.9438 158.918 20.9619 159.006 20.9959 159.07C21.2019 159.449 21.3808 159.855 21.6254 160.198C22.067 160.821 22.5584 161.398 23.0135 162.008C23.1517 162.193 23.2286 162.438 23.3623 162.631C23.7744 163.228 24.1956 163.815 24.6236 164.4C24.7844 164.619 25.0357 164.778 25.1376 165.023C25.5226 165.935 25.8917 166.833 26.9085 167.006C26.9447 167.011 26.9764 167.057 27.0262 167.098C26.8926 167.147 26.793 167.183 26.5846 167.258C27.4633 167.907 28.2513 168.489 29.0393 169.068C29.096 169.109 29.1684 169.125 29.2363 169.138C29.8546 169.243 30.475 169.346 30.9121 169.418C31.1634 169.681 31.2789 169.895 31.4352 169.946C31.8654 170.09 32.3115 170.196 32.7554 170.258C33.0135 170.291 33.2875 170.162 33.5479 170.188C34.0892 170.245 34.6236 170.41 35.1603 170.422C35.4456 170.43 35.7332 170.209 36.023 170.103C36.0796 170.083 36.1544 170.111 36.22 170.129C36.6209 170.232 37.2866 169.861 37.3478 169.653C37.8278 169.526 38.2173 169.436 38.6 169.315C38.8038 169.251 38.994 169.138 39.0642 169.104C39.4447 168.885 39.6847 168.692 39.9542 168.602C40.6856 168.355 41.4895 168.337 42.0896 167.691C42.1236 167.654 42.2028 167.626 42.2391 167.647C42.6059 167.855 42.8278 167.477 43.1222 167.389C43.4936 167.276 43.6997 166.836 44.2273 166.936C44.5806 167.003 45.0221 166.478 45.5339 166.148C45.8962 166.272 46.6548 165.865 46.836 165.322C47.0489 165.293 47.2798 165.332 47.4315 165.224C47.8935 164.899 48.3238 164.516 48.7653 164.158C48.5864 164.096 48.3962 164.032 48.095 163.926C48.4891 163.885 48.7585 163.903 49.0008 163.821C49.6508 163.597 49.918 162.94 50.201 162.33C50.7219 161.21 51.2223 160.077 51.725 158.946C51.7998 158.779 51.8428 158.594 51.9152 158.365C51.7001 158.365 51.562 158.365 51.4239 158.365C51.7205 158.04 51.9764 157.718 52.2753 157.458C52.3614 157.381 52.5742 157.445 52.7123 157.499C52.8527 157.553 52.9864 157.77 53.0928 157.747C53.2513 157.711 53.3826 157.525 53.6091 157.335C53.6453 157.347 53.8038 157.402 53.9556 157.45C53.8944 157.587 53.8446 157.7 53.7925 157.814C53.8333 157.86 53.874 157.904 53.9125 157.947C54.0597 157.796 54.2069 157.644 54.2998 157.548C54.4832 157.638 54.6711 157.814 54.85 157.803C55.4071 157.767 55.9438 157.649 56.5258 157.677C57.0896 157.705 57.7123 157.561 58.3147 157.541C58.6363 157.53 58.9691 157.373 59.2703 157.438C59.7527 157.538 60.1693 157.541 60.4682 157.152C60.5837 157.232 60.6652 157.337 60.7513 157.34C61.2065 157.353 61.6662 157.378 62.1168 157.329C62.7237 157.265 63.3645 156.943 63.9193 157.087C64.5602 157.257 64.8772 156.704 65.2056 156.655C65.4365 156.773 65.5362 156.856 65.6426 156.874C65.8396 156.907 66.0412 156.915 66.2382 156.912C66.5303 156.91 66.9605 157.023 67.0851 156.853C67.4655 156.336 67.9139 156.701 68.3147 156.611C68.7789 156.503 69.3337 156.704 69.7323 156.49C70.2644 156.204 70.8623 156.359 71.3333 156.057C72.0489 155.602 72.9954 156.274 73.5932 155.393C73.6091 155.37 73.6612 155.38 73.6951 155.378C74.1458 155.324 74.6009 155.298 75.047 155.213C75.6086 155.11 76.1521 154.955 76.6911 154.69C77.2164 154.43 77.8392 154.435 78.4121 154.286C78.5887 154.24 78.7291 153.998 78.9057 153.956C79.5647 153.81 80.2463 153.766 80.8962 153.575C81.9039 153.279 82.9275 152.996 83.8106 152.303C83.8876 152.244 84.0144 152.273 84.1095 152.234C84.2839 152.162 84.4537 152.072 84.6372 151.984C84.7595 152.437 84.9746 152.126 85.1603 152.005C85.2599 151.943 85.3301 151.814 85.432 151.763C85.8894 151.536 86.4623 151.711 86.8518 151.276C87.1258 150.97 87.418 150.923 87.7599 151.044C87.7871 151.055 87.8233 151.029 87.8482 151.021C87.8958 150.859 87.9433 150.702 87.9931 150.537C88.24 150.643 88.4415 150.73 88.6295 150.813C88.7291 150.576 88.8038 150.401 88.8808 150.223C89.5058 149.991 90.2282 150.254 90.7672 149.687C90.8509 149.6 90.946 149.499 91.0525 149.463C91.8541 149.196 92.658 148.987 93.4279 148.557C94.6689 147.862 95.9959 147.373 97.2685 146.747C97.8618 146.456 98.446 146.108 98.9714 145.684C99.3518 145.372 99.9089 145.475 100.181 144.929C100.253 144.785 100.475 144.666 100.631 144.656C101.075 144.633 101.419 144.401 101.754 144.115C102.001 143.904 102.262 143.714 102.613 143.436C103.02 143.528 104.61 142.64 104.723 142.3C105.468 141.901 106.084 141.572 106.705 141.239C106.655 141.129 106.614 141.044 106.576 140.956C106.662 140.943 106.75 140.912 106.836 140.918C106.963 140.925 107.119 141.023 107.207 140.969C107.828 140.58 108.421 140.14 109.048 139.767C109.535 139.476 110.067 139.285 110.559 139.002C110.858 138.832 111.1 138.538 111.394 138.361C111.569 138.255 111.897 138.348 111.979 138.214C112.291 137.694 112.792 137.666 113.224 137.444C113.541 137.279 113.795 136.955 114.13 136.656C114.418 136.782 114.782 136.582 114.972 136.141C115.049 135.969 115.326 135.714 115.346 135.732C115.778 136.128 115.88 135.564 116.109 135.405C116.329 135.253 116.53 134.941 116.748 134.934C117.307 134.913 117.676 134.54 118.088 134.215C118.412 133.96 118.756 133.744 119.085 133.502C119.27 133.366 119.445 133.209 119.626 133.059C119.762 132.954 119.972 132.954 120.131 132.851C120.468 132.627 120.774 132.346 121.098 132.099C121.24 131.988 121.451 131.947 121.542 131.803C121.811 131.375 122.128 131.053 122.57 130.883C122.721 130.824 122.864 130.69 122.977 130.554C123.267 130.199 123.505 129.774 123.829 129.467C124.284 129.032 124.859 128.744 125.276 128.27C126.046 127.395 126.804 126.488 127.443 125.489C128.226 124.264 128.944 122.971 129.578 121.637C130.208 120.314 130.706 118.908 131.243 117.528C131.354 117.242 131.476 116.882 131.41 116.616C131.356 116.397 131.028 116.269 130.792 116.076ZM117.124 91.9727C117.749 92.2044 118.095 91.6483 118.541 91.432C118.691 91.3599 118.802 91.1848 118.951 91.105C119.895 90.6003 120.81 89.9463 121.807 89.6605C122.667 89.4133 123.491 88.8391 124.449 89.0426C124.667 89.0889 124.916 88.9447 125.176 88.8829C125.822 90.003 126.186 91.2672 126.252 92.6447C126.297 93.6103 126.286 94.5836 126.394 95.5388C126.662 97.8845 125.591 99.535 124.23 101.015C123.439 101.878 122.567 102.645 121.718 103.433C121.315 103.807 120.878 104.131 120.452 104.471C119.608 105.151 118.77 105.841 117.912 106.495C117.001 107.19 116.077 107.865 115.147 108.524C114.073 109.283 112.982 110.009 111.904 110.761C111.671 110.923 111.483 111.183 111.238 111.317C110.844 111.534 110.4 111.637 110.015 111.868C109.266 112.322 108.546 112.837 107.805 113.31C107.404 113.565 106.983 113.779 106.582 114.034C106.437 114.126 106.326 114.281 106.2 114.407C105.942 114.665 105.871 115.095 105.509 115.28C105.35 115.36 105.296 115.679 105.167 115.867C105.079 115.996 104.952 116.104 104.825 116.189C104.628 116.323 104.42 116.428 104.094 116.616C104.284 116.153 104.438 115.78 104.535 115.545C104.248 115.311 104.017 115.123 103.788 114.938C103.94 114.708 104.071 114.51 104.2 114.312C104.164 114.276 104.128 114.242 104.089 114.206C103.983 114.34 103.874 114.477 103.756 114.623C103.593 114.34 103.444 114.08 103.301 113.833C103.485 113.73 103.641 113.645 103.795 113.56C103.783 113.514 103.77 113.465 103.756 113.418C103.675 113.418 103.596 113.418 103.466 113.418C103.491 113.256 103.519 113.094 103.55 112.888C103.426 112.883 103.288 112.921 103.204 112.86C103.07 112.762 102.864 112.499 102.88 112.473C103.231 111.951 102.912 111.593 102.719 111.266C102.552 111.299 102.384 111.395 102.3 111.335C102.196 111.266 102.128 111.07 102.105 110.918C102.06 110.609 102.067 110.293 102.033 109.981C101.972 109.417 101.698 109.183 101.245 109.247C101.157 109.059 101.068 108.889 100.994 108.714C100.919 108.539 100.758 108.3 100.808 108.186C100.996 107.756 100.726 107.604 100.507 107.424C100.382 107.319 100.226 107.262 100.088 107.177C99.9519 107.097 99.8206 107.005 99.6983 106.927C99.7164 106.644 99.8138 106.155 99.7368 106.116C99.3247 105.91 99.3586 105.406 99.0733 105.055C99.6009 104.62 100.124 104.19 100.647 103.76C100.674 103.737 100.711 103.714 100.724 103.68C101.129 102.648 102.16 102.576 102.823 101.927C103.442 101.324 104.148 100.828 104.843 100.336C105.525 99.8568 106.256 99.468 106.94 98.9942C107.783 98.4123 108.598 97.7764 109.431 97.179C109.628 97.0374 109.868 96.9679 110.072 96.8314C110.312 96.6718 110.534 96.4761 110.763 96.2933C110.788 96.2701 110.797 96.2134 110.824 96.198C111.46 95.853 112.101 95.5105 112.737 95.1629C112.857 95.096 112.971 95.0136 113.079 94.9286C113.222 94.8205 113.349 94.684 113.496 94.5862C114.374 94.0094 115.253 93.4275 116.145 92.8765C116.519 92.6447 117.053 92.6705 117.124 91.9727ZM48.6974 160.393C48.5751 160.468 48.437 160.507 48.2898 160.569C48.3034 160.803 48.3147 161.027 48.3283 161.251C48.2921 161.269 48.2581 161.287 48.2219 161.302C48.1517 161.145 48.0792 160.988 48.0407 160.903C47.4746 161.156 46.9175 161.4 46.3854 161.637C46.2472 161.823 46.0978 162.026 45.9347 162.242C45.8147 162.085 45.7354 161.985 45.7287 161.974C45.2101 162.178 44.7527 162.358 44.293 162.538C43.9035 162.69 43.4959 162.804 43.1313 163.012C42.932 163.125 42.8052 163.406 42.6806 163.568C42.6036 163.517 42.4723 163.352 42.3772 163.375C42.0828 163.45 41.8043 163.599 41.5167 163.712C40.9936 163.916 40.4614 164.099 39.9429 164.32C39.7753 164.392 39.644 164.58 39.4787 164.67C39.3156 164.758 39.2114 165.183 38.9148 164.794C38.8672 164.732 38.4325 165.044 38.1834 165.196C37.9365 165.345 37.7916 165.991 37.3817 165.389C37.3636 165.36 36.8745 165.291 36.8179 165.736C36.8088 165.824 36.6322 165.886 36.5325 165.96C36.4103 166.053 36.288 166.148 36.1385 166.262C36.1385 166.12 36.1385 165.914 36.1385 165.685C35.8441 165.685 35.3731 165.826 35.0244 165.651C34.5239 165.402 34.4288 165.86 34.0982 166.025C33.5615 165.664 33.0384 164.869 32.1983 165.61C32.1462 165.36 32.1123 165.19 32.0919 165.093C31.6526 164.941 31.2382 164.794 30.749 164.624C30.6834 164.632 30.5158 164.65 30.3505 164.668C30.3799 164.413 30.4094 164.158 30.4433 163.864C30.3052 163.73 30.1286 163.561 29.8863 163.326C29.8998 163.622 29.9066 163.748 29.9112 163.875C29.7685 163.864 29.6258 163.851 29.4628 163.841C29.5941 163.522 29.7006 163.264 29.7504 163.146C29.4605 162.775 29.2522 162.497 29.028 162.232C28.9352 162.121 28.8106 162.047 28.7065 161.946C28.5049 161.753 28.3192 161.534 28.0996 161.367C27.9297 161.235 27.6693 161.22 27.5425 161.06C27.4406 160.932 27.5085 160.646 27.4406 160.458C27.3885 160.316 27.2413 160.218 27.1032 160.061C27.0375 160.074 26.8609 160.103 26.6843 160.131C26.6752 160.097 26.6639 160.061 26.6548 160.025C26.7545 159.935 26.8541 159.845 26.9017 159.804C26.7794 159.608 26.6956 159.441 26.5846 159.302C26.3152 158.967 26.2495 158.406 25.6947 158.375C25.5565 158.367 25.3369 158.043 25.321 157.844C25.2984 157.608 25.1467 157.52 25.1014 157.404C24.8795 156.807 24.6734 157.069 24.3541 157.492C24.4085 157.19 24.4356 157.051 24.456 156.912C24.4719 156.796 24.5285 156.639 24.4832 156.565C24.2296 156.124 23.8899 155.736 23.6951 155.264C23.5185 154.832 23.0226 154.685 22.9977 154.114C22.9886 153.946 22.6761 153.797 22.47 153.609C22.4746 153.599 22.5493 153.431 22.6218 153.264C22.5742 153.284 22.5267 153.305 22.4791 153.326C22.2889 153.045 21.9922 152.79 21.9288 152.476C21.8224 151.951 21.7092 151.508 21.2676 151.214C21.177 151.155 21.2087 150.861 21.1725 150.601C20.9981 150.771 20.8419 150.923 20.5633 151.196C20.6879 150.854 20.7536 150.679 20.8192 150.501C20.7943 150.475 20.7671 150.45 20.7422 150.424C20.6154 150.516 20.4909 150.612 20.3686 150.702C20.3686 150.233 20.3686 149.803 20.3686 149.394C20.2418 149.18 20.0561 148.964 19.9723 148.706C19.8681 148.39 19.7572 148.372 19.5262 148.529C19.4288 148.593 19.2862 148.57 19.1639 148.588C19.1865 148.454 19.182 148.307 19.2341 148.191C19.5488 147.501 18.9306 147.156 18.7925 146.636C18.7314 146.407 18.6272 146.186 18.5185 145.977C18.4075 145.766 18.2558 145.578 18.1449 145.367C18.0792 145.241 18.0565 145.086 18.0135 144.942C17.9116 144.975 17.8007 145.012 17.6603 145.058C17.538 144.6 17.418 144.162 17.2798 143.652C17.2187 143.657 17.0738 143.673 16.9243 143.688C16.879 143.513 16.8201 143.297 16.7681 143.08C16.7296 142.921 16.6979 142.759 16.6548 142.55C16.3106 142.535 16.0955 142.39 16.1657 141.783C16.1974 141.51 15.8215 141.178 15.6335 140.871C15.5045 140.655 15.3777 140.439 15.3052 140.176C14.9836 139.818 14.6349 139.491 14.6689 138.871C14.6847 138.554 14.225 137.995 13.9284 137.964C13.9352 137.805 13.942 137.642 13.9465 137.48C13.9103 137.46 13.874 137.436 13.8378 137.416C13.7133 137.586 13.5864 137.758 13.4891 137.89C13.4891 137.46 13.4891 136.963 13.4891 136.468C13.446 136.489 13.4053 136.509 13.3623 136.527C12.9954 135.958 12.6286 135.387 12.2028 134.723C12.3455 134.2 12.2119 133.844 11.6639 133.479C11.5959 133.433 11.5824 133.265 11.5575 133.149C11.528 133.005 11.5099 132.858 11.4918 132.74C10.98 132.663 11.6661 133.762 10.9619 133.378C10.9868 132.879 11.014 132.413 11.0321 131.944C11.0344 131.875 10.9891 131.738 10.9732 131.738C10.3301 131.792 10.672 131.198 10.5294 130.925C10.4252 130.729 10.1761 130.631 9.97231 130.477C10.0131 130.353 10.0719 130.183 10.1716 129.895C9.93608 130.018 9.79568 130.096 9.54432 130.229C9.63943 129.923 9.71189 129.689 9.81606 129.354C9.62358 128.898 9.51941 128.198 8.82874 127.925C8.95329 127.822 9.05519 127.742 9.09821 127.706C8.71778 126.565 8.34187 125.44 7.95238 124.266C7.87539 124.256 7.75311 124.24 7.6195 124.22C7.71234 123.908 7.97955 123.519 7.39758 123.473C7.42475 123.089 6.66615 122.793 7.40211 122.35C6.91524 122.047 6.5801 121.733 6.88807 121.305C6.80428 120.963 6.74541 120.736 6.69106 120.507C6.66388 120.388 6.66841 120.257 6.62312 120.149C6.42838 119.704 6.18608 119.279 6.03209 118.818C5.92339 118.483 5.96416 118.087 5.87131 117.742C5.80338 117.492 5.62675 117.281 5.51352 117.08C5.47276 116.799 5.43426 116.5 5.38445 116.204C5.38218 116.186 5.31198 116.179 5.27349 116.171C5.16253 116.15 5.03571 116.158 4.94287 116.099C4.91117 116.078 4.96098 115.895 4.96778 115.787C4.98816 115.494 5.04704 115.195 5.01307 114.912C4.96325 114.487 4.85455 114.07 4.75492 113.653C4.71868 113.496 4.63716 113.354 4.57376 113.194C4.92475 112.705 5.27575 112.108 5.72412 111.626C6.16569 111.15 6.70917 110.795 7.20057 110.375C7.61044 110.025 7.99541 109.633 8.4166 109.301C8.94196 108.889 9.49903 108.531 10.0312 108.127C10.1421 108.042 10.2056 107.875 10.3392 107.854C10.552 107.718 10.7626 107.579 10.9777 107.447C11.2902 107.259 11.5914 107.028 11.9243 106.912C12.3047 106.778 12.6557 106.68 12.9841 106.351C13.36 105.975 13.8672 105.761 14.3315 105.509C14.7889 105.259 15.4252 105.189 15.6834 104.79C15.9551 104.373 16.2699 104.584 16.4374 104.435C16.7613 104.149 17.1575 104.195 17.4542 103.961C17.5765 103.863 17.6195 103.637 17.6965 103.474C17.8075 103.544 17.9252 103.619 18.0565 103.698C18.2581 103.456 18.4438 103.235 18.6498 102.988C18.6815 103.129 18.711 103.253 18.7631 103.474C19.1729 103.24 19.5556 102.975 19.9678 102.802C20.3392 102.645 20.7445 102.591 21.0955 102.447C22.1666 102.46 22.2006 103.449 22.4429 104.311C22.7327 105.344 23.1154 106.343 23.4596 107.357C23.5525 107.63 23.4211 108.158 23.9646 107.955C23.9805 107.947 24.1027 108.148 24.0914 108.238C23.9759 109.033 24.0642 109.528 24.3813 110.241C24.5806 110.692 24.7119 111.181 24.8817 111.675C24.9768 111.657 25.0923 111.639 25.2146 111.619C25.0131 112.855 25.3097 113.872 26.0842 114.551C26.0185 114.799 25.8758 115.033 25.9279 115.177C26.254 116.076 26.639 116.946 26.9741 117.839C27.1258 118.246 27.5652 118.509 27.4406 119.068C27.4293 119.119 27.6988 119.256 27.8844 119.384C27.7418 119.415 27.6399 119.436 27.4338 119.477C27.6399 119.791 27.7984 120.033 27.9773 120.303C27.7373 120.628 27.9501 121.38 28.6113 122.054C28.5751 121.851 28.5479 121.707 28.5162 121.524C28.5819 121.55 28.6453 121.555 28.6566 121.583C28.7631 121.843 29.1797 122.044 28.7676 122.41C28.711 122.461 28.7314 122.703 28.7812 122.819C28.985 123.285 29.2228 123.731 29.4288 124.194C29.5534 124.477 29.6462 124.779 29.7685 125.116C29.8296 125 29.8885 124.894 29.9361 124.804C30.0267 125.111 30.0969 125.451 30.2237 125.767C30.5588 126.612 30.9211 127.443 31.2631 128.285C31.4216 128.677 31.5371 129.086 31.6979 129.472C31.9741 130.132 32.1711 130.881 32.5833 131.406C33.3419 132.374 33.5162 133.667 34.1616 134.676C34.4515 135.132 34.7889 135.554 35.0538 136.025C35.3844 136.612 35.6562 137.241 35.9687 137.841C36.177 138.24 36.4193 138.613 36.6322 139.007C36.8926 139.496 37.1372 139.998 37.3931 140.49C37.6195 140.923 37.7803 141.492 38.4619 141.154C38.0226 142.027 38.394 142.522 38.908 143.047C39.1503 143.294 39.225 143.752 39.3767 144.115C39.4334 144.255 39.4719 144.412 39.5511 144.535C39.884 145.068 40.2531 145.575 40.5633 146.126C40.8804 146.69 41.1272 147.303 41.4374 147.872C41.5846 148.14 41.5937 148.675 42.1281 148.441C42.1802 148.418 42.4565 149.044 42.6172 149.376C42.6354 149.414 42.5402 149.525 42.5584 149.564C42.8029 150.063 43.0565 150.56 43.3102 151.055C43.5932 151.6 43.8152 152.211 44.1797 152.674C44.5489 153.14 44.7979 153.681 45.1263 154.168C45.2078 154.289 45.3346 154.386 45.4569 154.453C45.8396 154.662 45.8419 154.654 45.6494 155.125C45.86 155.28 46.0774 155.44 46.3718 155.658C46.3786 155.712 46.3582 155.918 46.4261 156.078C46.485 156.215 46.639 156.366 46.7635 156.382C47.1643 156.431 47.2006 156.48 47.0104 156.928C47.1168 157.051 47.2232 157.165 47.3183 157.291C47.4406 157.448 47.5312 157.654 47.6784 157.77C48.0407 158.061 48.437 158.298 48.8016 158.586C49.3315 159.006 49.2681 160.048 48.6974 160.393ZM127.9 118.885C127.937 120.059 127.411 120.95 126.888 121.89C126.111 123.277 125.192 124.503 124.035 125.479C123.154 126.223 122.228 126.898 121.308 127.583C120.482 128.198 119.633 128.777 118.799 129.382C118.152 129.854 117.558 130.577 116.859 130.747C116.302 130.883 115.953 131.295 115.473 131.489C115.124 131.628 114.846 131.988 114.526 132.233C114.415 132.32 114.277 132.359 114.148 132.418C113.727 132.614 113.294 132.794 112.88 133.013C112.495 133.216 112.121 133.456 111.754 133.7C111.616 133.793 111.514 133.947 111.399 134.071C111.261 134.048 111.062 133.937 110.955 134.007C110.369 134.388 109.818 134.846 109.225 135.217C108.833 135.459 108.385 135.583 107.973 135.788C107.325 136.115 106.684 136.458 106.05 136.818C105.973 136.862 105.964 137.055 105.962 137.063C105.5 137.256 105.058 137.372 104.687 137.622C104.418 137.802 104.182 137.962 103.867 138.065C103.398 138.217 102.993 138.603 102.543 138.85C101.818 139.252 101.077 139.625 100.344 140.009C100.312 140.024 100.251 140.009 100.244 140.027C99.918 140.92 99.0054 140.529 98.4664 141.095C98.0135 141.572 97.2595 141.672 96.6412 141.947C96.3287 142.087 96.0117 142.226 95.7173 142.406C95.6222 142.468 95.5905 142.661 95.5045 142.846C95.4162 142.825 95.2554 142.789 95.038 142.735C95.047 142.89 95.0538 143.003 95.0629 143.145C93.5344 142.941 92.3364 143.778 91.134 144.78C91.1272 144.692 91.1136 144.636 91.1181 144.579C91.1249 144.522 91.1453 144.468 91.2087 144.236C90.6539 144.571 90.2259 144.983 89.7504 145.076C89.3315 145.158 89.0325 145.266 88.8038 145.658C88.7835 145.691 88.6589 145.684 88.6091 145.65C88.3011 145.444 88.0067 145.49 87.7667 145.766C87.5629 146 87.3342 146.209 87.1191 146.428C87.0806 146.394 87.0443 146.361 87.0081 146.327C87.0217 146.214 87.0375 146.101 87.0534 145.987C86.7862 146.327 86.1272 146.049 86.0955 146.788C86.091 146.868 85.6879 146.925 85.4411 147.002C85.4592 146.855 85.4728 146.757 85.4886 146.621C85.124 146.737 84.8002 146.84 84.5375 146.922C84.5602 147.154 84.576 147.311 84.5919 147.47C84.4288 147.393 84.2658 147.313 84.0348 147.205C83.8967 147.37 83.4075 147.216 83.4008 147.782C83.2332 147.751 83.0656 147.718 82.9003 147.687C82.9048 147.633 82.9071 147.576 82.9116 147.522C82.701 147.589 82.615 148.217 82.2776 147.72C82.1553 147.862 82.0307 148.001 81.8768 148.176C81.2789 147.718 80.672 148.338 80.0561 148.518C79.4356 148.701 78.8763 149.142 78.2739 149.476C78.2739 149.448 78.2649 149.273 78.2581 149.098C77.8165 149.196 77.3568 149.281 76.9085 149.409C76.7726 149.445 76.6775 149.636 76.5439 149.708C76.3854 149.798 76.1476 149.947 76.0434 149.878C75.629 149.597 75.4071 149.829 75.192 150.238C75.115 150.092 75.0584 149.983 75.0221 149.911C74.7119 150.007 74.3971 150.032 74.1548 150.195C73.9442 150.339 73.8152 150.635 73.5864 150.949C73.5864 150.648 73.5864 150.465 73.5864 150.233C72.5131 150.542 71.4782 150.843 70.3845 151.16C70.3799 151.155 70.1897 150.98 70.1467 151.019C69.8364 151.289 69.49 151.119 69.1707 151.189C68.5525 151.32 67.9501 151.562 67.3206 151.765C67.1689 151.42 66.297 151.521 65.9438 152.085C65.8713 151.938 65.8124 151.812 65.7151 151.611C65.0538 151.951 64.3926 152.301 63.7223 152.633C63.6295 152.679 63.5049 152.638 63.2921 152.638C63.4642 152.394 63.557 152.257 63.6816 152.079C63.3623 152.079 63.0747 152.079 62.7373 152.079C62.8256 152.206 62.898 152.306 63.009 152.463C62.3206 152.522 61.5982 151.649 61.0321 152.721C60.9279 152.597 60.8328 152.484 60.7196 152.35C60.1557 152.383 59.5171 152.388 58.8899 152.478C58.6295 152.517 58.394 152.749 58.1426 152.878C57.9614 152.968 57.7712 153.035 57.495 153.151C57.461 153.228 57.495 153.699 57.1417 153.372C57.196 153.169 57.2368 153.006 57.2798 152.847C57.1304 152.88 56.956 152.87 56.8383 152.957C56.6548 153.091 56.5122 153.295 56.3265 153.501C56.2223 153.393 56.1091 153.302 56.0321 153.184C55.7694 152.782 55.5407 152.793 55.235 153.156C54.7572 153.727 53.9623 153.601 53.7789 153.06C53.5774 152.999 53.4279 152.914 53.2853 152.924C53.129 152.937 52.9773 153.035 52.8256 153.099C52.7893 153.117 52.7373 153.184 52.7282 153.176C52.2776 152.744 52.0194 153.357 51.6684 153.411C51.3831 153.452 51.0774 153.302 50.749 153.23C50.7445 153.284 50.7219 153.475 50.6947 153.702C50.5543 153.709 50.4094 153.72 50.2191 153.732C50.2554 153.599 50.2871 153.483 50.3097 153.398C49.9723 153.254 49.6372 153.112 49.2998 152.97C49.3269 152.896 49.3541 152.824 49.3813 152.749C49.5489 152.839 49.7164 152.932 49.9338 153.048C49.9904 152.896 50.047 152.744 50.0991 152.6C50.0312 152.553 49.9904 152.512 49.9791 152.52C49.6417 152.8 49.4085 152.481 49.1752 152.309C48.8242 152.048 48.6385 152.048 48.6159 152.623C48.36 152.26 48.3736 151.861 48.446 151.562C48.1245 151.129 47.8437 150.751 47.5946 150.413C47.4338 150.509 47.2776 150.617 47.1077 150.684C47.0783 150.694 46.9311 150.486 46.9492 150.447C47.0353 150.264 47.1598 150.105 47.3546 149.814C47.2368 149.672 47.0511 149.476 46.8994 149.252C46.8179 149.129 46.7681 148.959 46.7545 148.804C46.7409 148.634 46.7862 148.457 46.8111 148.233C46.6027 148.3 46.4442 148.351 46.2336 148.421C46.2336 148.07 46.2155 147.761 46.2382 147.455C46.2902 146.75 45.5452 146.533 45.5113 145.869C45.4864 145.439 45.269 145.169 44.8047 145.313C44.8364 144.921 45.1557 144.509 44.5987 144.28C44.4537 144.221 44.456 143.763 44.3405 143.518C44.1865 143.199 43.9827 142.91 43.8016 142.609C43.7585 142.643 43.7155 142.676 43.6725 142.71C43.6861 142.511 43.6997 142.313 43.72 142.007C43.471 141.96 43.1992 141.947 42.9592 141.844C42.9003 141.819 42.9433 141.494 42.9365 141.309C42.9297 141.082 42.9818 140.82 42.9003 140.637C42.6014 139.978 42.4859 139.97 41.9334 140.436C42.033 140.055 42.1304 139.674 42.2277 139.301C42.0149 139.221 41.7975 139.141 41.6911 139.1C41.7069 138.659 41.7205 138.348 41.7341 137.985C41.3921 137.985 41.1204 137.985 40.8034 137.985C41.1997 136.757 40.047 136.144 39.9021 135.104C39.8953 135.06 39.8546 135.001 39.8161 134.985C39.4175 134.818 39.3564 134.486 39.422 134.038C39.3677 134.135 39.3133 134.233 39.2635 134.321C39.0914 134.192 38.9012 134.05 38.7019 133.904C38.7019 133.572 38.7019 133.201 38.7019 132.92C38.3849 132.76 38.1313 132.632 37.8686 132.498C38.0565 132.256 38.1766 132.096 38.2989 131.939C38.2513 131.893 38.2037 131.846 38.1562 131.8C38.0747 131.931 37.9931 132.06 37.9637 132.106C37.6625 131.55 37.3025 131.007 37.0602 130.405C36.8383 129.851 36.7431 129.23 36.596 128.654C36.3333 128.674 36.1476 128.69 36.0276 128.7C35.9642 128.461 35.9596 128.224 35.8532 128.095C35.552 127.727 35.4501 127.351 35.6766 126.887C35.2237 126.589 34.6915 126.37 35.0221 125.566C35.0765 125.438 34.9451 125.142 34.8296 124.997C34.5624 124.67 34.2499 124.387 33.8854 124.011C33.7812 123.669 33.9352 123.105 33.5842 122.706C33.4732 122.577 33.3102 122.505 33.1335 122.381C33.6589 121.823 32.8414 121.619 32.8052 121.14C32.7848 120.852 32.5357 120.589 32.4089 120.303C32.3455 120.157 32.3229 119.984 32.2844 119.835C32.1372 119.814 31.9741 119.791 31.716 119.752C32.3455 119.196 31.6707 119.062 31.6797 118.797C31.3537 118.898 31.0615 118.985 30.7037 119.096C30.903 118.468 31.0706 117.94 31.254 117.363C31.1181 117.322 30.9959 117.288 30.9687 117.281C30.8804 116.807 30.8373 116.372 30.7105 115.97C30.586 115.584 30.3754 115.231 30.1603 114.778C29.8659 114.837 29.7957 114.582 29.8523 114.15C29.9112 113.717 29.6372 113.099 29.3428 112.8C29.2794 112.734 29.2182 112.571 29.2454 112.491C29.3858 112.08 29.2431 111.879 28.8808 111.83C29.1299 111.281 29.1118 111.243 28.5298 111.119C28.5547 110.81 28.7404 110.465 28.3147 110.241C28.2015 110.184 28.2287 109.659 28.2717 109.366C28.3441 108.874 28.2264 108.627 27.7599 108.681C27.9682 108.096 27.9569 108.055 27.5833 107.885C27.6444 107.568 27.7214 107.27 27.7554 106.963C27.8527 106.152 27.855 105.346 28.3056 104.61C29.0258 103.431 29.619 102.146 30.3482 100.972C30.9732 99.965 31.6888 99.0277 32.4089 98.1034C32.9411 97.4236 33.5457 96.8185 34.1141 96.1748C34.2839 95.9791 34.4492 95.7757 34.5941 95.5543C35.1603 94.6994 36.014 94.2231 36.6843 93.5073C37.0262 93.1417 37.3093 92.6988 37.658 92.3409C37.9275 92.0628 38.2377 91.8234 38.5638 91.638C39.1526 91.3058 39.4334 90.6003 39.9066 90.2064C40.3029 89.8768 40.6585 89.6399 40.8306 89.0966C40.8668 88.9833 41.1498 88.9962 41.2789 88.8906C41.9764 88.3113 42.7305 87.7912 43.3192 87.0908C43.6589 86.6892 43.9691 86.4961 44.4152 86.3622C44.6462 86.2926 44.7753 85.8498 45.0085 85.685C45.4207 85.3966 45.4388 85.4327 45.4388 84.861C45.5747 84.928 45.6856 84.9846 45.7989 85.0387C46.0162 85.1803 47.3681 84.0139 47.4157 83.6869C47.7735 83.5994 48.1766 83.6998 48.3555 83.105C48.4121 82.9222 48.9352 82.966 49.1979 82.8089C49.9066 82.3892 50.586 81.9077 51.2857 81.4674C51.4306 81.3747 51.6209 81.3799 51.7703 81.2949C52.5606 80.8392 53.3328 80.3474 54.1299 79.9122C54.7459 79.5749 55.3822 79.2917 56.0162 79.0007C56.7771 78.648 57.5448 78.3158 58.3079 77.9708C58.3713 77.9425 58.4302 77.891 58.4823 77.8369C58.8129 77.5073 59.1797 77.3117 59.6304 77.219C60.2237 77.0954 60.7875 76.8018 61.374 76.6165C61.7454 76.5006 62.1462 76.4903 62.5131 76.359C63.1743 76.1221 63.8197 75.8311 64.4741 75.5685C64.5081 75.5556 64.5556 75.5891 64.5964 75.5943C65.7422 75.6947 66.845 75.378 67.9614 75.172C68.4596 75.0793 68.7721 75.5376 69.1571 75.7822C69.3654 75.9161 69.5941 76.0088 69.8523 76.068C70.1852 76.7709 70.4003 77.5254 70.4048 78.3957C70.4116 79.2994 70.4728 80.2083 70.3052 81.0915C70.1603 81.8562 69.8795 82.5849 69.6825 83.3367C69.2454 85.0258 68.3147 86.3802 67.4202 87.768C66.9243 88.5405 66.5144 89.3824 66.0095 90.1446C65.5294 90.8681 65.0085 91.5659 64.2794 92.0139C64.1435 92.0963 64.071 92.3177 63.9714 92.4748C63.9171 92.3615 63.8537 92.225 63.7744 92.0602C63.3645 92.5392 62.966 92.9846 62.6014 93.461C62.547 93.5305 62.6489 93.7545 62.6625 93.824C62.5493 94.1665 62.3636 94.4806 62.3614 94.7973C62.3546 95.7551 62.4157 96.7155 62.461 97.6734C62.47 97.8485 62.5063 98.0364 62.5742 98.1909C62.7848 98.6672 63.0271 99.1256 63.2287 99.6071C63.2785 99.7229 63.2128 99.9006 63.2196 100.047C63.2241 100.222 63.1992 100.439 63.2762 100.565C63.7812 101.379 63.6159 102.411 63.9805 103.268C64.0144 103.346 63.942 103.567 63.8672 103.608C63.4959 103.812 63.12 104.02 62.7237 104.141C62.3455 104.26 61.9243 104.203 61.5575 104.345C60.5565 104.731 59.5466 105.122 58.5932 105.637C58.1449 105.879 57.8165 106.407 57.4157 106.822C57.3908 106.783 57.3274 106.672 57.1847 106.425C56.639 107.09 56.1227 107.713 55.6109 108.341C55.1037 108.964 54.5941 109.585 54.1005 110.22C53.9601 110.403 53.8718 110.64 53.754 110.846C53.369 111.516 52.8731 112.136 52.6263 112.865C52.3908 113.563 52.1077 114.33 52.4451 115.162C52.5335 115.383 52.3025 115.79 52.187 116.096C52.0081 116.573 52.0285 117.008 52.1711 117.221C52.1711 117.865 52.1462 118.298 52.1757 118.728C52.2232 119.444 52.3002 120.157 52.3727 120.87C52.4904 122.065 52.5652 123.272 52.7622 124.452C52.846 124.959 53.1834 125.417 53.4347 125.875C53.4732 125.948 53.6793 125.888 53.7993 125.922C53.874 125.942 53.9918 126.027 53.9918 126.079C53.9827 126.54 54.2884 126.638 54.567 126.807C54.7776 126.936 54.9202 127.204 55.1308 127.335C55.2825 127.428 55.4954 127.392 55.6788 127.415C55.6969 127.359 55.7128 127.302 55.7309 127.248C55.7671 127.425 55.8056 127.606 55.8532 127.832C56.0298 127.755 56.1815 127.691 56.2065 127.68C56.5371 127.835 56.7658 128.033 56.99 128.028C57.427 128.018 57.769 128.141 58.0815 128.489C58.1902 128.61 58.394 128.63 58.5593 128.674C58.7382 128.721 58.9329 128.713 59.1027 128.782C59.4379 128.919 59.6394 129.055 59.3088 129.529C58.8038 130.25 58.2445 130.999 57.9796 131.849C57.5969 133.08 56.682 133.847 56.2042 134.957C55.9664 135.505 55.8713 136.131 55.7105 136.723C55.9189 136.824 56.1091 136.916 56.3287 137.024C56.2631 137.125 56.211 137.207 56.1295 137.331C56.2585 137.344 56.3831 137.403 56.4488 137.357C57.273 136.777 58.1788 136.378 58.874 135.523C59.7572 134.439 60.3709 133.172 61.0661 131.96C61.4623 131.27 61.8315 130.562 62.2006 129.882C63.2354 130.137 64.3088 130.381 65.3731 130.672C66.3084 130.93 67.2255 131.272 68.1675 131.499C68.3872 131.553 68.6657 131.298 69.0122 131.143C69.0575 131.21 69.1865 131.409 69.2907 131.563C69.8455 131.625 70.3822 131.695 70.9211 131.741C71.3808 131.777 71.845 131.813 72.3047 131.803C72.8437 131.79 73.4098 131.584 73.908 131.723C74.4243 131.87 74.9134 131.867 75.4252 131.87C76.5303 131.875 77.6467 132.006 78.7404 131.88C79.2477 131.821 79.7436 131.738 80.2531 131.792C80.3029 131.798 80.3845 131.79 80.398 131.759C80.6335 131.218 80.9823 131.373 81.3899 131.455C81.6435 131.507 82.0511 131.656 82.2232 131.156C82.2413 131.105 82.418 131.097 82.5131 131.113C83.2037 131.234 83.8106 130.994 84.4243 130.649C84.9768 130.34 85.586 130.162 86.1634 129.908C86.3197 129.838 86.4782 129.73 86.5869 129.593C86.7613 129.372 87.1145 129.712 87.2504 129.215C87.3274 128.934 87.7758 128.785 88.1585 128.502C88.0588 128.782 88.0045 128.934 87.9501 129.086C87.9818 129.143 88.0113 129.2 88.0407 129.254C88.3532 129.066 88.668 128.878 88.9805 128.69C88.9827 128.708 88.9827 128.723 88.985 128.741C89.2952 128.615 89.6055 128.486 89.9542 128.345C89.8998 128.19 89.8591 128.069 89.773 127.83C90.6268 128.37 91.1023 127.951 91.3695 127.073C91.6458 127.438 91.7137 127.557 92.0783 127.191C93.2672 125.994 93.5547 124.302 94.1707 122.788C94.3337 122.389 94.61 122.003 94.3586 121.521C94.7006 121.344 94.5919 120.97 94.6575 120.667C94.7844 120.061 94.8591 119.49 94.6847 118.851C94.5851 118.483 94.8025 118.012 94.8364 117.582C94.918 116.542 94.9927 115.501 95.0312 114.456C95.0357 114.307 94.8364 114.145 94.7549 114.023C94.7549 113.774 94.7549 113.516 94.7549 113.158C94.9859 112.929 95.1263 112.623 94.6711 112.27C94.4311 112.082 94.5353 111.165 94.8025 110.882C95.0629 110.602 95.0538 110.287 94.7504 110.166C94.2273 109.96 94.2499 109.628 94.4356 109.175C94.456 109.126 94.4379 109.057 94.4379 108.967C94.2477 108.943 94.0575 108.92 93.8559 108.894C93.754 108.745 93.985 108.143 93.5661 108.446C93.3804 108.112 93.206 107.782 93.0203 107.46C92.9184 107.285 92.7622 107.138 92.7033 106.948C92.5765 106.549 91.8881 106.139 91.2767 106.147C91.0797 105.473 90.5248 105.398 90.0425 105.192C89.8681 105.117 89.7142 104.983 89.5375 104.909C89.3156 104.819 89.0733 104.677 88.8559 104.71C88.48 104.767 88.326 104.443 88.0815 104.273C87.8143 104.09 87.5402 103.92 87.1893 103.691C87.2323 103.572 87.3115 103.353 87.3546 103.235C87.0466 103.055 86.7454 102.877 86.374 102.658C86.374 102.658 86.2993 102.802 86.2767 102.954C86.2223 103.302 86.0774 103.323 85.8283 103.178C85.6471 103.075 85.4411 103.021 85.2373 102.941C85.244 102.8 85.355 102.354 85.2486 102.275C84.8342 101.958 84.6825 102.473 84.5647 102.707C84.4243 102.514 84.3383 102.285 84.2386 102.28C83.8718 102.257 83.5842 101.842 83.1268 102.112C82.8799 102.259 82.461 102.035 82.1553 101.86C81.8903 101.95 81.6277 102.053 81.3582 102.128C81.2653 102.154 81.091 102.138 81.0706 102.084C80.8826 101.608 80.5701 101.564 80.1693 101.659C79.8342 101.736 79.4945 101.564 79.1458 101.906C78.951 102.097 78.4075 102.056 78.1449 101.878C77.7803 101.631 77.5267 101.708 77.23 101.912C76.7069 101.245 76.7069 101.245 76.0683 101.708C76.0162 101.747 75.9393 101.744 75.8713 101.76C75.4796 101.845 75.1105 101.855 74.9655 101.265C74.764 101.453 74.6055 101.603 74.5353 101.667C74.1797 101.6 73.9125 101.492 73.6521 101.51C73.1403 101.541 72.6308 101.636 72.1236 101.724C72.0692 101.734 72.0398 101.912 71.9832 101.922C71.802 101.963 71.5325 102.056 71.4465 101.958C71.0615 101.52 70.7287 101.677 70.4456 102.033C70.2531 102.277 70.1557 102.483 69.9044 102.112C69.8432 102.025 69.6077 102.04 69.4696 102.081C68.8786 102.272 68.2762 102.385 67.7123 102.066C67.5697 101.986 67.5629 101.597 67.4497 101.206C67.0511 101.093 67.1575 100.701 67.461 100.341C67.8799 99.8465 67.5289 99.3547 67.4678 98.8861C67.4315 98.5926 67.2096 98.3634 67.4338 98.0184C67.5176 97.8871 67.4587 97.5395 67.3591 97.3747C67.264 97.2176 67.0285 97.1713 66.7998 97.0477C67.0104 96.5868 67.144 96.0409 66.4284 95.7551C66.442 95.7088 66.4578 95.6624 66.4737 95.6161C66.716 95.629 66.9583 95.6444 67.2436 95.6599C67.2436 95.629 67.2345 95.5646 67.2459 95.5054C67.2595 95.4384 67.2889 95.374 67.4134 95.3123C67.4225 95.4848 67.4338 95.6547 67.4451 95.8658C67.547 95.8401 67.6489 95.8298 67.7395 95.7912C68.0724 95.6444 68.3872 95.1732 68.7268 95.8607C68.7993 96.0126 69.302 96.0075 69.5511 95.9019C69.9338 95.7371 70.4841 96.3113 70.7468 95.5491C70.7717 95.477 71.2087 95.5234 71.4193 95.6161C71.7658 95.768 71.8541 95.5852 71.8858 95.2118C72.581 95.7783 73.163 95.1449 73.7857 95.0393C74.1888 94.9698 74.5715 94.7381 74.9587 94.5604C75.047 94.5192 75.1059 94.3982 75.1806 94.3184C75.2803 94.2128 75.3958 94.0145 75.4864 94.0248C76.1136 94.1072 76.5914 93.7056 77.11 93.4352C77.6444 93.1571 78.1902 92.8996 78.7065 92.5855C79.4605 92.1298 80.192 91.6277 80.937 91.1513C81.1453 91.02 81.3559 90.8681 81.5801 90.8063C82.1847 90.6467 82.624 90.2012 83.086 89.7841C83.1245 89.7481 83.1743 89.6888 83.2083 89.694C83.908 89.8279 84.2748 89.1713 84.7889 88.8623C85.0923 88.6769 85.4479 88.6074 85.7604 88.44C86.2314 88.1851 86.7364 87.9792 87.0126 87.405C87.0579 87.3123 87.2006 87.2814 87.3025 87.2299C87.5584 87.1063 87.8165 86.9853 88.043 86.7793C88.5434 86.8128 88.9261 86.5836 89.3337 86.1819C89.5534 85.9631 89.8568 85.8626 89.9904 85.5047C90.004 85.4687 90.2599 85.5974 90.3641 85.5459C90.7717 85.3425 91.1589 85.0902 91.5597 84.8713C91.9787 84.6448 92.4134 84.4516 92.8278 84.2148C93.3147 83.9341 93.7789 83.6045 94.2635 83.3239C94.6689 83.0896 95.0969 82.9042 95.5045 82.6724C95.7332 82.5437 95.937 82.3609 96.1408 82.2115C96.3197 82.1549 96.519 82.1163 96.7024 82.0287C97.0285 81.8717 97.35 81.6992 97.6648 81.5112C98.2694 81.1507 98.8491 80.7259 99.4719 80.4195C100.226 80.0487 101.019 79.7783 101.791 79.4565C102.357 79.2196 102.921 78.975 103.485 78.7278C104.32 78.3648 105.158 78.0069 105.987 77.6284C106.714 77.2936 107.416 76.8842 108.156 76.5984C108.937 76.2972 109.834 76.2611 110.527 75.8105C111.139 75.4114 111.764 75.4681 112.361 75.3419C113.061 75.1926 113.815 75.3831 114.547 75.4192C114.682 75.4269 114.821 75.4063 114.956 75.3934C115.009 75.3908 115.074 75.3522 115.113 75.3754C115.421 75.5788 115.717 75.8054 116.032 75.9959C116.745 76.4259 116.614 77.2602 116.736 77.9476C116.831 78.4832 116.75 79.0548 116.816 79.5981C116.945 80.6358 116.972 81.6657 116.684 82.6647C116.333 83.88 115.824 85.031 115.018 85.9219C113.589 87.4977 112.119 89.0348 110.609 90.5102C109.551 91.5401 108.396 92.4439 107.284 93.4043C106.413 94.1562 105.559 94.9363 104.664 95.6521C104.196 96.0255 103.645 96.2624 103.156 96.61C102.239 97.2614 101.392 98.0699 100.423 98.5874C99.3609 99.1539 98.7699 100.233 97.9479 101.054C97.6286 101.373 97.4044 101.814 97.1191 102.179C97.0375 102.287 96.8903 102.329 96.8292 102.367C96.6865 102.066 96.6231 101.711 96.4329 101.572C95.8283 101.124 95.475 100.385 94.884 99.9315C94.798 99.8645 94.6915 99.813 94.6349 99.7204C94.499 99.5015 94.0258 99.5633 94.2024 99.0689C94.2092 99.0483 94.0914 98.9762 94.0371 98.9222C93.8559 98.7445 93.6363 98.5952 93.5072 98.3789C93.2513 97.9463 92.9637 97.8896 92.5969 98.3274C92.5629 97.5781 92.0262 97.4854 91.6028 97.2511C90.7151 96.7619 89.8364 96.2572 88.9374 95.8015C88.4189 95.5363 87.6422 96.0512 87.5561 96.6846C87.5448 96.7645 87.6603 96.87 87.7848 97.0709C87.9592 96.6409 88.0973 96.3061 88.2332 95.9714C88.2762 95.9843 88.3215 95.9972 88.3668 96.0126C88.2943 96.2675 88.2355 96.5327 88.1471 96.7825C87.9592 97.2974 87.8301 97.797 88.3962 98.2785C88.3283 98.075 88.2921 97.9566 88.2445 97.8124C88.3758 97.7377 88.5095 97.6605 88.7427 97.524C88.6498 97.9823 88.5797 98.3428 88.5072 98.7007C88.4732 98.693 88.4393 98.6853 88.403 98.675C88.4143 98.7136 88.4166 98.7651 88.4393 98.7857C89.2862 99.5813 89.7866 100.704 90.509 101.618C91.2699 102.576 92.0172 103.547 92.735 104.546C93.0815 105.032 93.326 105.614 93.6544 106.119C93.9329 106.544 94.2726 106.917 94.576 107.321C94.7617 107.574 94.927 107.844 95.0991 108.109C95.3573 108.501 95.6177 108.892 95.8691 109.294C96.2155 109.847 96.5507 110.411 96.8949 110.967C97.0715 111.253 97.2708 111.521 97.4383 111.812C97.5742 112.041 97.6784 112.293 97.7961 112.538C97.9048 112.473 98.0611 112.378 98.2581 112.262C98.3283 112.528 98.3872 112.759 98.4483 112.991C98.4143 112.999 98.3826 113.009 98.3487 113.019C98.2694 112.883 98.1902 112.746 98.1109 112.61C98.0543 112.643 97.9999 112.679 97.9433 112.713C98.2943 113.493 98.6453 114.273 99.0575 115.187C99.1979 114.865 99.2499 114.747 99.302 114.629C99.3428 114.631 99.3813 114.634 99.422 114.636C99.4379 114.927 99.4537 115.221 99.4719 115.512C99.4877 115.754 99.4379 116.05 99.5443 116.23C99.8772 116.797 99.918 117.561 100.5 117.978C100.624 118.069 100.511 118.522 100.581 118.782C100.69 119.181 100.851 119.565 101.014 119.94C101.166 120.288 101.394 120.6 101.508 120.96C101.768 121.776 101.942 122.631 102.221 123.437C102.334 123.764 102.633 124.009 102.871 124.228C102.941 124.436 103.016 124.645 103.077 124.856C103.102 124.941 103.113 125.036 103.102 125.121C102.989 125.929 103.045 126.656 103.727 127.163C103.804 127.222 103.716 127.562 103.697 127.904C103.747 127.904 103.899 127.904 104.123 127.904C104.03 128.082 103.919 128.303 103.756 128.62C103.831 128.723 103.962 128.901 104.062 129.037C103.976 129.254 103.826 129.46 103.842 129.645C103.854 129.774 104.091 129.879 104.245 130.008C104.107 130.327 103.94 130.714 103.711 131.239C104.177 131.522 104.682 131.831 105.117 132.094C105.151 132.091 105.049 132.101 104.843 132.122C104.97 132.341 105.063 132.503 105.224 132.779C105.665 131.993 106.032 131.293 106.066 130.428C106.077 130.175 106.123 130.247 106.329 130.031C106.551 129.799 106.646 129.411 106.797 129.091C106.754 129.053 106.711 129.014 106.671 128.978C106.777 128.934 106.886 128.888 107.051 128.821C107.024 128.584 106.99 128.316 106.961 128.046C106.947 127.907 106.881 127.722 106.936 127.637C107.241 127.155 107.456 126.679 107.176 126.076C107.158 126.038 107.325 125.883 107.422 125.765C107.293 125.644 107.169 125.528 107.017 125.386C106.979 125.649 106.945 125.87 106.902 126.161C106.406 125.636 106.675 125.257 106.897 124.959C106.827 124.423 106.768 123.957 106.702 123.458C106.782 123.432 106.872 123.398 106.886 123.396C106.734 122.531 106.585 121.689 106.435 120.831C106.268 120.888 106.098 120.947 105.833 121.04C105.932 120.157 105.403 119.276 106.107 118.519C106.204 118.414 106.311 118.285 106.433 118.249C107.028 118.069 107.631 117.917 108.231 117.749C108.278 117.736 108.335 117.708 108.365 117.664C108.797 117.049 109.447 116.907 110.045 116.647C110.278 116.547 110.477 116.351 110.697 116.21C111.216 115.88 111.734 115.55 112.259 115.239C112.486 115.102 112.735 115.012 112.973 114.891C113.679 114.536 114.374 114.142 115.092 113.82C115.894 113.462 116.718 113.166 117.531 112.839C117.98 112.659 118.423 112.466 118.872 112.291C119.159 112.177 119.449 112.051 119.748 111.995C121.277 111.701 122.803 111.389 124.341 111.165C125.006 111.07 125.697 111.145 126.374 111.189C126.537 111.201 126.745 111.361 126.841 111.523C127.325 112.35 127.556 113.272 127.62 114.268C127.681 115.218 127.86 116.158 127.93 117.106C127.973 117.695 127.882 118.293 127.9 118.885ZM92.0104 117.808C91.8292 118.244 91.648 118.676 91.4193 119.219C91.7454 119.178 91.913 119.155 92.1032 119.129C92.0783 119.322 92.0511 119.528 92.0262 119.709C91.9085 119.74 91.7092 119.781 91.7114 119.796C91.7613 120.368 91.1634 120.903 91.5008 121.328C91.4691 121.722 91.4284 121.959 91.4352 122.193C91.4465 122.451 91.6005 122.76 91.519 122.95C91.322 123.401 91.0366 124.119 90.7604 124.135C90.3346 124.161 90.2554 124.403 90.0402 124.647C89.8297 124.889 89.5194 125.015 89.1933 125.232C89.1412 125.059 89.0824 124.858 89.0099 124.619C88.0656 124.992 87.1372 125.363 86.1431 125.757C86.1295 125.479 86.2087 125.033 86.0887 124.948C85.6562 124.639 86.0389 124.338 85.9551 124.073C85.8623 123.875 85.7717 123.677 85.6562 123.427C85.6154 123.602 85.5815 123.746 85.5452 123.89C85.4705 123.414 85.2169 123.048 85.4252 122.446C85.629 121.864 85.8011 121.097 85.4999 120.37C85.3505 120.013 85.3709 119.565 85.3075 119.098C86.4465 118.779 87.6195 118.563 88.7427 117.821C89.2884 117.973 90.8849 116.678 91.6005 115.901C91.6684 116.318 91.7341 116.737 91.8111 117.216C91.7703 117.345 91.6956 117.574 91.5982 117.875C91.8111 117.839 91.9311 117.821 92.0104 117.808ZM90.2644 112.659C89.9089 112.893 89.5466 113.112 89.1865 113.333C89.1458 113.359 89.0733 113.372 89.0393 113.349C88.514 112.983 88.0996 113.537 87.6218 113.583C87.4248 113.604 87.2504 113.931 87.0081 114.178C86.9696 113.99 86.947 113.887 86.8994 113.658C86.4533 113.892 86.023 114.119 85.5135 114.387C85.5158 114.392 85.4388 114.242 85.3505 114.065C85.2848 114.152 85.1829 114.273 85.0946 114.405C84.8998 114.696 84.345 114.78 84.1911 114.482C83.9306 113.969 83.5932 114.351 83.3532 114.397C83.1018 114.443 82.8958 114.801 82.6037 115.087C82.5176 114.853 82.4519 114.672 82.3681 114.441C82.2051 114.605 82.0443 114.77 81.8541 114.963C81.7907 114.822 81.7318 114.693 81.6548 114.518C81.4805 114.644 81.3038 114.77 81.2336 114.822C80.869 114.755 80.5905 114.649 80.3188 114.667C79.7572 114.708 79.1662 114.979 78.6476 114.847C78.043 114.696 77.7939 115.272 77.3319 115.373C76.8903 115.465 76.571 115.599 76.5824 114.832C75.8487 114.974 75.1671 115.141 74.4787 115.229C74.0303 115.285 73.5683 115.2 73.1154 115.223C72.2617 115.267 71.4103 115.316 70.5611 115.416C70.244 115.453 69.9587 115.496 69.6258 115.424C69.293 115.35 68.9171 115.537 68.4755 115.628C68.1879 115.262 67.701 115.357 67.196 115.373C66.8088 115.38 66.2812 115.326 66.057 115.051C65.7015 114.611 65.552 114.938 65.3165 115.087C65.2712 115.115 65.2237 115.146 65.1784 115.177C65.1195 114.649 64.8161 114.435 64.3292 114.572C64.2658 114.59 64.1729 114.613 64.1299 114.577C63.6838 114.209 63.1856 114.206 62.6625 114.227C62.3274 114.24 62.1553 113.805 61.7341 113.766C61.1498 113.712 60.5928 113.295 60.0221 113.04C59.499 112.806 58.9691 112.584 58.446 112.352C58.3555 112.311 58.2785 112.242 58.1947 112.185C57.769 111.889 57.3432 111.593 56.8632 111.258C57.0013 111.168 57.1711 111.032 57.3591 110.939C57.9637 110.64 58.5638 110.323 59.1865 110.087C59.7277 109.878 60.3075 109.798 60.8555 109.605C61.2744 109.453 61.8066 109.603 62.0919 109.031C62.1462 108.923 62.35 108.827 62.4633 108.853C63.172 109.008 63.7631 108.701 64.3813 108.367C64.7164 108.184 65.1286 108.189 65.5067 108.109C65.6947 108.071 65.8849 108.034 66.0683 107.983C66.9334 107.738 67.7916 107.473 68.6589 107.247C69.5715 107.01 70.4909 106.801 71.4125 106.603C71.6141 106.559 71.8315 106.626 72.0398 106.608C73.0928 106.526 74.1412 106.405 75.1942 106.356C75.5928 106.338 76.0004 106.464 76.3967 106.557C77.1757 106.734 77.9501 106.943 78.7268 107.126C79.0688 107.205 79.4152 107.252 79.7572 107.316C80.1082 107.383 80.4592 107.455 80.8102 107.514C81.3718 107.607 81.9402 107.661 82.495 107.787C83.5615 108.032 84.6168 108.325 85.6788 108.578C86.8586 108.856 87.9207 109.505 89.0348 109.978C89.5217 110.184 89.9248 110.643 90.3618 110.99C90.5248 111.119 90.6811 111.253 90.8713 111.41C91.0004 111.992 90.6992 112.37 90.2644 112.659ZM83.1698 120.448C82.9365 120.659 82.7961 120.788 82.7667 120.816C82.7214 121.23 82.6263 121.539 82.6761 121.815C82.7418 122.178 82.9139 122.513 82.4293 122.528C82.4791 123.141 82.5244 123.728 82.5855 124.5C82.2074 124.992 82.4791 125.698 82.7078 126.411C82.2028 126.65 81.6911 126.895 81.1476 127.153C81.0661 126.952 80.9257 126.71 80.595 127.055C80.5135 127.14 80.2825 127.039 80.1806 127.029C80.0063 126.429 79.8478 125.891 79.6983 125.353C79.6825 125.296 79.7187 125.221 79.7255 125.154C79.7821 124.459 79.619 123.816 79.3518 123.2C79.3292 123.149 79.2998 123.066 79.3179 123.03C79.884 122.021 79.3201 121.045 79.3156 120.036C80.5747 119.884 81.8654 119.727 83.2219 119.562C82.9343 119.863 82.7395 120.069 82.4587 120.363C82.7667 120.399 82.9094 120.417 83.1698 120.448ZM76.331 122.294C76.3401 122.381 76.4827 122.451 76.6775 122.634C76.5778 122.835 76.2925 123.182 76.2382 123.568C76.1431 124.246 76.1838 124.946 76.1929 125.636C76.1929 125.69 76.3899 125.742 76.5529 125.824C76.1249 126.205 76.0412 126.604 76.4329 127.016C76.2065 127.114 76.0117 127.199 75.7898 127.297C75.783 127.207 75.7739 127.083 75.7536 126.833C75.1761 127.163 74.6394 127.472 74.1277 127.763C74.0167 127.503 73.8695 127.158 73.6838 126.72C73.5344 126.934 73.4279 127.088 73.2762 127.307C73.1539 127.194 73.0135 127.068 72.8233 126.892C72.6489 127.039 72.4633 127.253 72.2368 127.348C72.1757 127.374 71.9968 127.037 71.8428 126.828C71.528 127.119 71.1657 127.454 70.8011 127.789C70.7649 127.76 70.7309 127.732 70.6947 127.701C70.8419 127.425 70.9913 127.15 71.1385 126.874C71.1091 126.823 71.0819 126.769 71.0525 126.717C70.6517 127.116 70.2848 127.302 70.0765 126.547C69.7119 126.699 69.3201 127.441 69.0325 126.573C68.6657 126.638 68.2807 126.705 67.8958 126.771C67.9614 126.287 67.0058 125.929 67.7893 125.358C67.6444 125.126 67.5085 124.907 67.3591 124.67C67.5018 124.336 67.6897 123.973 67.8029 123.581C67.8437 123.437 67.7078 123.226 67.6172 122.922C67.4587 123.355 67.3614 123.622 67.2096 124.04C67.144 123.185 67.0896 122.487 67.0398 121.843C67.5063 121.81 67.5221 121.457 67.615 121.099C67.4678 121.099 67.3523 121.099 67.2232 121.099C67.2504 120.973 67.2391 120.752 67.3229 120.69C67.5131 120.546 67.7735 120.355 67.9637 120.401C68.8084 120.607 69.6349 120.654 70.4728 120.376C70.6132 120.329 70.7875 120.453 70.9393 120.43C71.2359 120.388 71.6277 120.692 71.7998 120.098C71.8337 119.982 72.2074 119.995 72.4225 119.948C72.6127 120.368 73.249 120.543 73.7019 120.303C73.7744 120.267 73.8423 120.177 73.9125 120.177C74.8364 120.17 75.7604 120.172 76.8179 120.172C76.6231 120.728 76.4578 121.127 76.3514 121.545C76.2902 121.779 76.3038 122.047 76.331 122.294ZM65.1761 122.266C64.9044 122.935 64.6349 123.604 64.4085 124.163C64.7074 124.591 64.9678 124.961 65.2282 125.33C65.201 125.376 65.1716 125.422 65.1444 125.469C65.0267 125.443 64.9089 125.402 64.7889 125.391C64.5602 125.373 64.2658 125.263 64.1141 125.381C63.7065 125.7 63.5072 125.415 63.2536 125.149C63.1539 125.046 63.0022 125.005 62.8709 124.943C62.5629 124.797 62.2504 124.655 61.9402 124.511C62.0058 124.47 62.0692 124.428 62.1326 124.387C62.0987 123.756 62.067 123.125 62.0262 122.497C62.0036 122.142 61.9741 121.787 61.9334 121.434C61.8835 121.009 61.7703 120.584 61.7748 120.159C61.7794 119.817 61.8813 119.456 62.0149 119.145C62.0489 119.07 62.3908 119.132 62.5787 119.191C63.4913 119.472 64.4017 119.773 65.312 120.067C65.1761 120.453 65.0538 120.8 64.9315 121.145C65.1671 121.207 65.3007 121.241 65.432 121.274C65.3437 121.364 65.2101 121.439 65.1829 121.55C65.1218 121.779 65.1195 122.029 65.1761 122.266ZM58.8514 122.698C59.028 122.842 59.2273 122.948 59.3903 123.051C59.1277 123.736 58.8174 123.98 58.2513 123.725C58.12 123.666 57.8505 123.996 57.5901 124.189C57.6331 124.009 57.6671 123.877 57.6942 123.769C57.3772 123.53 57.0556 123.313 56.759 123.059C56.4578 122.796 56.2608 122.768 56.1815 123.27C56.1634 123.383 56.0796 123.481 56.0027 123.635C55.9732 123.277 55.9483 123.002 55.9189 122.647C56.0049 122.562 56.1725 122.399 56.2495 122.322C56.1861 121.982 56.1431 121.753 56.1 121.524C55.9823 120.883 55.8555 120.247 55.749 119.606C55.7037 119.32 55.7015 119.024 55.672 118.733C55.62 118.257 55.5498 117.783 55.509 117.306C55.4909 117.103 55.5271 116.894 55.5407 116.673C55.4614 116.634 55.3618 116.583 55.2712 116.539C55.3731 116.287 55.4592 116.068 55.5588 115.823C56.0978 116.199 56.6299 116.609 57.196 116.946C57.7825 117.294 58.3985 117.59 59.0167 117.865C59.3247 118.004 59.4107 118.154 59.3111 118.532C59.1571 119.101 59.071 119.696 58.9578 120.265C59.2318 120.414 59.4447 120.53 59.7074 120.672C59.6123 120.775 59.5036 120.919 59.4877 120.906C58.9171 120.473 59.0461 121.048 58.9782 121.351C58.8989 121.704 58.7925 122.049 58.7268 122.402C58.711 122.49 58.7789 122.641 58.8514 122.698ZM106.886 123.396C106.888 123.393 106.888 123.393 106.886 123.396V123.396ZM91.922 43.772C91.8745 43.7566 91.8043 43.857 91.7386 43.8724C91.2382 43.9909 91.0797 44.7041 90.4003 44.6552C89.6757 44.6011 89.2703 45.5744 88.5298 45.819C87.9003 46.025 87.3546 46.5889 86.7884 47.024C86.4873 47.2557 86.2268 47.5596 85.9347 47.8093C85.2146 48.4299 84.4402 48.9757 83.7721 49.6606C82.7599 50.7034 81.7907 51.8029 80.86 52.9384C79.8455 54.1769 78.8423 55.4385 77.9343 56.7774C77.4474 57.4984 77.1281 58.3867 76.8111 59.2338C76.4759 60.1324 76.4012 61.116 76.4895 62.0739C76.5416 62.648 76.3401 63.4668 77.298 63.678C76.7816 63.7372 76.8292 63.9329 76.9719 64.2779C77.0738 64.5225 77.0353 64.865 77.0058 65.1585C76.947 65.7275 76.8156 66.2837 77.11 66.8347C77.4202 67.414 77.7078 68.0114 77.9682 68.6216C78.3147 69.4327 78.6023 70.2772 78.9601 71.0832C79.1412 71.49 79.4537 71.817 79.6417 72.2212C79.9429 72.8675 80.1739 73.5576 80.466 74.2116C80.6064 74.5257 80.706 74.9711 81.1906 74.7961C81.2518 74.7729 81.3672 74.9531 81.4057 74.9892C81.3423 75.257 81.1951 75.5402 81.2653 75.6483C81.5665 76.1247 81.8994 76.5856 82.2776 76.9821C82.6897 77.4172 83.2807 77.5614 83.6861 78.0455C83.8197 78.2025 84.0869 78.2154 84.2907 78.2952C84.4537 78.442 84.9633 78.5604 85.3731 78.4858C85.5316 78.4575 85.7219 78.0197 85.9075 78.4523C86.1748 78.133 86.836 78.7021 86.8586 77.9811C87.1893 78.0944 87.5584 78.3673 87.8233 78.2695C88.1132 78.1639 88.5887 78.7458 88.6861 78.0069C89.1707 78.2669 89.6055 78.2618 89.9859 77.8163C90.0357 77.9528 90.0833 78.0918 90.1105 78.1639C91.0547 77.9373 91.9628 77.7571 92.8482 77.4893C93.3736 77.3323 94.0258 77.4893 94.3405 76.7838C94.9678 77.1958 96.0253 76.8997 96.0842 76.2817C96.7499 76.7632 97.0647 76.2946 97.2527 75.638C97.3885 75.8723 97.5516 76.1633 97.5561 76.1581C97.966 75.8801 98.6476 76.2714 98.8197 75.4758C99.3224 75.7951 101.734 74.5617 102.115 73.9155C102.422 73.882 102.653 73.9077 102.841 73.8228C103.014 73.7455 103.12 73.4855 103.29 73.4082C103.722 73.2074 104.23 73.1585 104.608 72.8727C105.11 72.4967 105.591 72.1028 106.159 71.8633C107.162 71.4385 107.857 70.3725 108.956 70.1356C109.033 70.1176 109.078 69.9477 109.155 69.8704C109.241 69.788 109.343 69.7262 109.442 69.6644C109.857 69.407 110.278 69.1649 110.686 68.8971C111.243 68.5341 111.537 67.8698 111.981 67.3728C112.579 66.706 113.14 65.9361 113.528 65.0993C114.329 63.3664 115.002 61.5589 115.733 59.7823C115.767 59.6999 115.828 59.6226 115.896 59.5711C116.322 59.2493 116.517 58.6905 116.372 58.1524C116.653 58.0005 116.813 57.8331 116.739 57.3748C116.709 57.2023 116.831 56.5586 117.305 56.4916C117.352 56.4865 117.432 56.2959 117.416 56.2728C117.201 55.9947 117.42 55.8943 117.554 55.7243C117.817 55.387 117.715 55.1218 117.334 54.9905C117.212 54.9467 117.121 54.7768 117.015 54.6661C117.355 54.3623 117.035 54.0275 116.967 53.7932C116.825 53.3066 117.386 53.0027 117.119 52.511C116.981 52.2586 117.042 51.6896 116.913 51.6432C116.428 51.4785 116.587 51.1309 116.614 50.8785C116.46 50.7652 116.345 50.6777 116.213 50.5798C116.675 50.1189 116.65 50.0237 115.892 49.3645C116.089 49.3645 116.227 49.3645 116.331 49.3645C116.449 48.5097 115.568 49.1482 115.504 48.5638C115.588 48.3706 115.672 48.1698 115.763 47.9587C115.624 47.9432 115.516 47.9303 115.416 47.9175C115.484 47.7424 115.541 47.6008 115.552 47.5699C115.353 47.2017 115.187 46.9236 115.047 46.6275C114.875 46.2619 114.687 45.8988 114.574 45.5074C114.368 44.7813 113.808 44.4492 113.317 44.8019C113.446 44.5599 113.575 44.3179 113.666 44.1479C113.482 43.7102 113.315 43.3137 113.106 42.8193C113.12 42.7858 113.179 42.6236 113.263 42.3996C112.687 42.5052 112.57 42.034 112.438 41.5062C112.307 41.7044 112.225 41.8254 112.232 41.8177C111.542 41.416 110.905 41.0453 110.233 40.6539C110.24 40.6281 110.251 40.5638 110.264 40.4891C110.163 40.4994 110.033 40.5509 110.002 40.5071C109.567 39.9535 109.08 40.3578 108.614 40.3784C108.487 40.3835 108.355 40.2316 108.226 40.1544C108.111 40.2213 107.952 40.314 107.746 40.435C107.613 39.6883 107.613 39.6883 106.442 40.3475C106.417 40.1853 106.392 40.0256 106.374 39.8969C106.003 40.0849 105.67 40.2522 105.301 40.4402C105.253 40.1647 105.224 39.9844 105.199 39.8402C104.839 40.0668 104.508 40.2754 104.144 40.5046C104.091 40.2316 104.069 40.1029 104.039 39.9458C103.786 40.2754 103.235 40.3861 103.025 40.2213C102.875 40.1055 102.676 39.9947 102.506 40.005C102.01 40.0411 101.496 40.072 101.028 40.2368C100.763 40.3295 100.4 40.1209 100.192 40.605C100.074 40.8779 99.4741 40.6848 99.3632 40.3217C98.9556 40.6925 98.5683 41.0478 98.1449 41.4341C98.1041 41.1096 98.0769 40.8779 98.043 40.6127C97.658 40.8444 97.3115 41.053 96.9085 41.2976C96.7137 41.1174 96.4533 41.0633 96.2585 41.4933C96.2314 41.5525 96.168 41.6117 96.1114 41.6349C95.7898 41.7662 95.4501 41.8512 95.1489 42.0211C94.6055 42.325 94.1073 42.7472 93.5457 42.9893C92.9954 43.2261 92.658 44.0398 91.922 43.772ZM85.5724 74.0133C85.081 73.6683 84.6779 73.1868 84.4877 72.507C84.5126 72.4967 84.4515 72.5225 84.3564 72.5611C84.4311 71.7706 84.071 71.6367 83.6295 71.8118C83.5819 71.5312 83.5615 71.2531 83.4868 70.993C83.3962 70.6866 83.2604 70.3957 83.0883 69.9502C83.0181 69.9039 82.821 69.7751 82.6286 69.649C82.8686 68.928 82.8256 68.7993 82.3478 68.7607C82.2866 68.4903 82.5742 68.014 81.9945 68.0011C81.9379 67.9985 81.8949 67.3394 81.9017 66.9506C82.5606 67.4243 83.1879 67.1334 83.8106 67.0587C84.379 66.9918 84.379 66.9969 84.4605 66.6982C84.7345 66.7806 85.0018 66.8733 85.2735 66.9428C85.5747 67.0175 85.6947 67.1591 85.4343 67.4475C85.278 67.62 85.0493 67.741 84.961 67.9445C84.8546 68.1916 84.7798 68.5264 84.8364 68.7787C84.8931 69.0207 85.1512 69.1932 85.2939 69.4173C85.3414 69.4971 85.312 69.6413 85.3143 69.7546C85.3233 70.2386 85.5679 70.3493 86.0276 70.1923C85.5226 71.8196 86.6027 72.6512 87.221 73.7713C86.6911 73.9206 86.168 74.433 85.5724 74.0133ZM92.5176 73.3722C92.4089 73.4134 92.2866 73.4391 92.1915 73.5086C91.9243 73.7043 91.673 73.9283 91.4035 74.1189C91.3514 74.1549 91.2246 74.124 91.1748 74.07C91.134 74.0288 91.1272 73.8871 91.1589 73.8228C91.2585 73.6039 91.3831 73.3979 91.5529 73.0864C91.2223 73.04 90.971 73.0066 90.6766 72.9654C90.74 72.7954 90.8351 72.5379 90.9483 72.2341C90.6335 72.059 90.6653 71.3664 90.0991 71.5054C89.9655 70.8411 89.1911 70.4652 89.2114 69.9451C89.2454 69.1417 88.7427 68.5933 88.7789 67.844C88.514 67.8183 88.2785 67.7951 88.0045 67.7694C88.1222 67.5067 88.2219 67.2801 88.3283 67.0355C88.1471 66.8733 88.0022 66.7446 87.8369 66.5978C88.12 66.536 88.3781 66.5051 88.6181 66.4176C88.7789 66.3609 88.942 66.2502 89.0552 66.1138C89.1933 65.9464 89.2522 65.7559 89.4741 66.0365C89.5534 66.1343 89.8093 66.052 89.9814 66.052C90.1625 66.2167 90.3686 66.4021 90.5747 66.5901C90.6018 66.5515 90.629 66.5128 90.6562 66.4742C90.6947 66.8476 90.7332 67.2184 90.7853 67.7282C90.7604 67.7513 90.6222 67.8852 90.509 67.9959C90.8691 68.5264 91.2291 69.0516 91.6571 69.6825C91.6548 69.7056 91.6412 69.909 91.6254 70.115C91.5416 70.1047 91.4601 70.0919 91.3763 70.0816C91.3559 70.1176 91.3333 70.1536 91.3129 70.1897C91.4465 70.303 91.5801 70.4137 91.7137 70.527C91.8745 70.6609 92.0715 70.769 92.1734 70.9467C92.2074 71.0033 91.9968 71.2454 91.8722 71.4436C91.999 71.4771 92.1349 71.5132 92.1825 71.5235C92.2595 71.8736 92.3229 72.162 92.3863 72.4504C92.4972 72.4349 92.6105 72.4221 92.8777 72.386C92.4768 72.7671 92.4134 73.022 92.8935 73.2383C92.769 73.2821 92.6422 73.3258 92.5176 73.3722ZM105.432 68.1633C104.925 68.4929 104.422 68.8353 103.901 69.1366C103.213 69.5408 102.536 70.0378 101.8 70.2438C101.392 70.3596 101.286 70.424 101.281 70.8514C101.281 70.9106 100.971 70.9673 100.803 71.0239C100.785 70.9081 100.767 70.7948 100.738 70.5991C100.554 70.7072 100.323 70.8411 100.115 70.9621C99.9723 71.0111 99.7662 71.0162 99.73 71.1063C99.6032 71.4385 99.3971 71.3973 99.1412 71.4153C98.6544 71.4514 98.1154 71.4102 97.7939 71.9844C97.2028 71.7835 96.7001 72.1363 96.3016 73.0993C96.3401 72.5972 96.3718 72.1878 96.4057 71.7526C96.5054 71.8067 96.6118 71.8633 96.716 71.9174C96.7499 71.8814 96.7862 71.8453 96.8224 71.8093C96.605 71.4282 96.4125 71.0239 96.168 70.6686C95.9415 70.339 95.6562 70.0584 95.398 69.7571C95.4728 69.6155 95.5633 69.4533 95.706 69.1881C95.4864 69.2499 95.3641 69.2859 95.2916 69.3065C95.2191 68.9718 95.2101 68.6345 95.0674 68.4002C94.9995 68.2895 94.6779 68.3822 94.456 68.3822C94.413 67.9779 94.379 67.4887 94.2862 67.0124C94.2748 66.948 93.9805 66.9506 93.7789 66.9145C93.788 66.863 93.8265 66.6854 93.8695 66.4742C93.711 66.1549 93.4755 66.1987 93.1947 66.3481C93.1132 66.3893 92.9773 66.2966 92.8912 66.1524C93.0679 66.0957 93.2445 66.0391 93.548 65.9412C93.2785 65.7816 93.1222 65.6915 92.8256 65.5138C93.0996 65.4906 93.2173 65.4778 93.3351 65.4675C93.3645 64.9036 93.8287 64.3526 94.3066 64.1337C94.8953 63.8634 95.4524 63.5003 96.0208 63.1733C96.4805 62.9081 96.9311 62.6249 97.3953 62.3725C98.0045 62.043 98.6431 61.7777 99.2296 61.4044C99.807 61.0388 100.317 60.5367 100.889 60.1633C101.306 59.8955 101.777 59.7385 102.155 59.5634C102.296 59.9058 102.456 60.1247 102.466 60.3539C102.477 60.6706 102.422 60.9538 102.98 60.8688C102.789 61.0285 102.724 61.0851 102.676 61.1237C102.871 61.6464 103.063 62.1665 103.256 62.6841C103.281 62.6764 103.303 62.6712 103.328 62.6661C103.328 62.5399 103.328 62.4137 103.328 62.2412C103.419 62.2798 103.546 62.2953 103.557 62.3468C103.654 62.7176 103.731 63.0935 103.804 63.4694C103.922 64.0848 103.953 64.7388 104.445 65.1739C104.497 65.2177 104.519 65.3336 104.524 65.4185C104.549 66.1215 105.095 66.4562 105.375 66.9789C105.389 67.0046 105.532 66.9428 105.654 66.9119C105.64 67.3419 105.701 67.7076 106.249 67.6123C105.978 67.7951 105.708 67.9831 105.432 68.1633ZM110.058 52.4698C110.215 52.5007 110.369 52.529 110.563 52.565C110.543 52.4595 110.55 52.3565 110.509 52.305C110.201 51.929 110.151 51.5814 110.409 51.1C110.769 50.4305 111.032 49.6915 111.349 48.9448C111.465 49.0401 111.603 49.0967 111.648 49.2023C112.115 50.3043 112.606 51.3986 113.007 52.5316C113.192 53.0517 113.174 53.6593 113.278 54.2232C113.355 54.6326 113.46 55.0394 113.593 55.4308C113.663 55.6368 113.824 55.8016 113.969 56.0256C113.697 57.2049 114.125 58.088 115.063 58.5283C114.712 58.9094 114.372 59.275 114.014 59.6638C113.288 59.3317 112.995 58.7755 113.414 57.8305C113.172 57.8846 113.043 57.9129 112.961 57.9335C112.839 57.6374 112.735 57.3851 112.606 57.0735C112.855 56.4813 112.744 56.0848 112.198 55.6831C112.101 55.611 112.09 55.387 112.026 55.1939C111.924 55.2145 111.798 55.2403 111.603 55.2789C111.675 55.0652 111.732 54.903 111.802 54.6944C111.607 54.7047 111.433 54.715 111.186 54.7279C111.238 54.3494 111.367 53.9709 111.313 53.6284C111.263 53.3092 111.019 53.0285 110.86 52.735C110.683 52.789 110.525 52.838 110.394 52.8792C110.312 53.1366 110.237 53.3812 110.163 53.6233C110.129 53.6156 110.092 53.6053 110.058 53.5975C110.058 53.2396 110.058 52.8792 110.058 52.4698ZM109.451 58.9686C109.501 59.0819 109.408 59.2724 109.37 59.4965C109.619 59.3523 109.83 59.2312 110.047 59.1077C109.911 59.6329 109.746 60.0346 109.735 60.4414C109.732 60.5959 110.081 60.7633 110.276 60.9306C110.303 61.1443 110.242 61.564 110.394 61.7185C110.81 62.1434 110.797 62.6455 110.756 63.0471C110.975 63.0703 111.166 63.0883 111.356 63.1089C111.354 63.1785 111.349 63.2505 111.347 63.3226C111.206 63.3355 111.066 63.3484 110.883 63.3638C110.998 63.7655 111.102 64.126 111.202 64.4736C110.788 64.8238 110.391 65.1456 110.011 65.4881C109.911 65.5782 109.855 65.7353 109.784 65.8666C109.687 66.0494 109.599 66.2373 109.47 66.5C109.422 66.2888 109.402 66.106 109.343 65.9438C109.232 65.6348 109.354 65.192 108.924 65.04C108.838 65.0117 108.813 64.7311 108.765 64.5663C108.709 64.3603 108.657 64.1517 108.602 63.9457C108.453 64.0307 108.303 64.1208 108.152 64.2007C108.129 64.211 108.088 64.1826 108.057 64.1723C108.104 63.5389 108.104 63.5389 107.504 63.5235C107.468 63.3072 107.429 63.0832 107.393 62.8592C107.466 62.9493 107.54 63.0368 107.613 63.1244C107.753 62.9416 107.894 62.7588 108.034 62.5734C106.856 61.8962 107.042 60.547 106.283 59.8569C106.283 60.0912 106.283 60.3101 106.283 60.5341C105.883 60.4749 105.822 60.3333 105.985 59.947C106.037 59.8235 106.086 59.5711 106.048 59.5454C105.645 59.2699 105.604 58.8013 105.502 58.361C105.482 58.2734 105.423 58.1962 105.344 58.0468C105.194 58.3532 105.072 58.603 104.952 58.8553C104.891 58.8373 104.832 58.8193 104.773 58.8013C104.818 58.4202 104.864 58.0417 104.911 57.6271C104.927 57.6297 104.841 57.6194 104.755 57.6117C104.759 57.5731 104.748 57.5164 104.766 57.4984C105.104 57.1637 105.432 56.8161 105.785 56.5045C106.019 56.2959 106.304 56.1621 106.535 55.9509C106.791 55.714 106.997 55.4128 107.248 55.1707C107.37 55.0523 107.556 54.9184 107.69 54.9442C107.887 54.9854 108.066 55.1604 108.319 55.3201C108.31 55.3484 108.26 55.4823 108.231 55.6188C108.208 55.7192 108.181 55.9097 108.206 55.92C108.657 56.126 108.439 56.5045 108.475 56.8676C108.523 57.3491 108.806 57.8074 109.019 58.2605C109.137 58.5129 109.343 58.7137 109.451 58.9686ZM99.4605 45.4559C100.097 45.3941 100.724 45.2603 101.358 45.1856C102.017 45.1058 102.678 45.0594 103.337 44.9925C104.236 44.9024 105.135 44.7659 106.037 44.7324C106.594 44.7144 107.155 44.8895 107.717 44.9101C108.285 44.9333 108.756 45.098 109.003 45.734C108.636 45.9194 108.847 46.2979 108.91 46.5708C108.969 46.8257 109.1 47.0163 108.888 47.2635C108.831 47.3278 108.897 47.5441 108.928 47.6832C109.028 48.1003 108.992 48.453 108.718 48.8006C108.292 49.3439 107.989 50.0494 107.495 50.4768C106.222 51.5737 104.879 52.5625 103.555 53.5795C102.753 54.1949 101.929 54.7691 101.127 55.3819C100.668 55.7346 100.237 56.1337 99.7798 56.4916C99.721 56.538 99.5851 56.4633 99.3813 56.4247C98.7789 56.7723 98.0566 57.1585 97.3614 57.5988C97.0647 57.7868 96.8496 58.1472 96.5507 58.3249C96.2767 58.4871 95.9053 58.4382 95.6358 58.6056C95.1852 58.8836 94.7934 59.2802 94.3541 59.5866C94.1888 59.7024 93.9578 59.6947 93.7653 59.772C92.7463 60.1685 91.725 60.5599 90.7128 60.9821C90.4524 61.0903 90.2237 61.304 89.9519 61.4868C89.9655 61.4276 89.9814 61.3581 89.9972 61.2911C89.5511 61.2216 89.1775 61.2937 89.0054 61.8627C88.9918 61.8988 88.5774 61.8395 88.5751 61.8112C88.5525 61.3993 88.326 61.5331 88.1335 61.5692C87.1236 61.7597 86.1181 61.9734 85.1059 62.1305C84.5398 62.218 83.9601 62.2 83.3894 62.2567C83.163 62.2798 82.9433 62.3983 82.7146 62.4343C82.5674 62.4575 82.4044 62.4318 82.2572 62.3906C82.0353 62.3288 81.8745 61.9966 81.5733 62.2747C81.5122 62.3313 81.1702 62.1511 81.0819 61.9915C80.9008 61.6645 80.5271 61.51 80.5248 61.0053C80.5226 60.2715 80.3958 59.5402 80.3618 58.8038C80.3346 58.2296 80.5498 57.7765 80.9257 57.3542C81.5371 56.6641 82.033 55.8351 82.6603 55.1682C83.4302 54.352 84.2884 53.6387 85.1082 52.8843C85.8283 52.2252 86.5303 51.5402 87.2753 50.9223C87.9252 50.3816 88.634 49.931 89.302 49.416C89.6553 49.1457 89.97 48.8109 90.3188 48.5329C90.4818 48.4041 90.6811 48.3294 90.8691 48.2522C91.3559 48.0514 91.87 47.9149 92.3319 47.6574C94.5896 46.4112 96.9673 45.7005 99.4605 45.4559ZM41.1883 151.389C40.7264 151.369 40.5339 150.903 40.2961 150.594C39.841 150.002 39.1503 150.354 38.6023 149.844C38.0565 149.335 37.1349 149.34 36.3695 149.118C35.6381 149.157 34.9927 149.43 34.5036 150.053C33.4619 151.382 32.4134 152.708 31.4216 154.085C31.0049 154.662 30.7853 155.422 30.3641 155.993C29.8953 156.629 30.1376 157.378 30.0221 158.05C29.9361 158.558 30.278 159.286 30.6177 159.732C31.1317 160.401 31.7816 160.95 32.4202 161.48C33.1902 162.119 34.0122 162.672 35.0289 162.598C35.0742 162.595 35.1308 162.592 35.1625 162.618C35.8509 163.185 36.4103 163.213 37.0828 162.701C37.2662 162.562 37.4633 162.443 37.624 162.273C38.0701 161.797 38.5796 161.362 38.9216 160.798C39.4832 159.873 39.9927 158.895 40.4139 157.88C41.014 156.439 41.7092 155.02 41.7296 153.354C41.7341 152.97 41.725 152.584 41.7522 152.203C41.7839 151.721 41.0638 151.938 41.1883 151.389ZM38.3215 155.579C38.172 156.284 37.9954 156.982 37.8324 157.685C37.769 157.963 37.7123 158.246 37.6512 158.532C37.3659 158.532 37.153 158.532 36.9243 158.532C36.845 158.153 35.3573 157.466 34.8047 157.613C34.6123 156.742 33.1652 156.954 33.5729 155.589C33.3487 155.664 33.2173 155.707 33.086 155.751C33.0588 155.674 33.0271 155.615 33.0384 155.604C33.4755 155.138 33.865 154.58 34.3722 154.245C34.7979 153.967 35.3324 153.82 35.8804 154.114C36.211 154.289 36.6277 154.253 36.9696 154.412C37.4066 154.618 37.8142 154.912 38.2173 155.198C38.2943 155.252 38.3441 155.463 38.3215 155.579Z" fill="#41C49F"/>
</g>
</svg>
