<svg width="1281" height="90" viewBox="0 0 1281 90" fill="none" xmlns="http://www.w3.org/2000/svg">
<path d="M1174.63 81.2994C1177.52 85.358 1167.86 82.6975 1174.28 88.7587C1172.94 89.1682 1171.59 89.5906 1170.25 90.0001C1169.92 87.7554 1169.57 85.5161 1169.23 83.2713C1171.02 82.6103 1172.82 81.9494 1174.63 81.2884C1174.63 81.292 1174.63 81.2957 1174.63 81.2994ZM1177.08 53.1867C1175.43 59.5893 1170.2 61.2963 1175.85 67.2046C1176.3 65.0073 1176.76 62.8104 1177.21 60.6131C1179.18 62.3173 1181.15 64.0211 1183.11 65.716C1183.82 64.8783 1184.52 64.0397 1185.23 63.2113C1186.13 67.0296 1187.02 70.8583 1187.91 74.6859C1187.12 74.1271 1186.31 73.5585 1185.51 72.9996C1182.36 76.1003 1179.55 76.9483 1175.27 77.5257C1175.64 78.4292 1176.02 79.3248 1176.4 80.2282C1174.22 78.6915 1172.05 77.1509 1169.89 75.6142C1171.77 74.1057 1173.87 72.4281 1175.61 71.0222C1172.82 65.0352 1167.91 68.3673 1165.35 69.616C1161.86 71.3204 1162.65 68.4737 1160.07 69.6654C1159.65 69.8517 1159.61 72.083 1158.79 72.1207C1154.67 72.2977 1146.68 71.115 1151.35 65.9083C1158.13 66.5789 1163.91 62.3978 1170.56 63.9253C1168.8 57.9049 1172.3 55.8563 1177.08 53.1867ZM1052.59 72.3569C1054.64 69.4329 1058.83 70.6129 1061.66 72.6426C1061.66 72.6426 1061.67 72.6426 1061.67 72.6426C1062.29 73.0896 1063.7 76.9755 1061.67 76.8172C1058.35 76.5458 1056.75 70.429 1055 74.5815C1054.22 73.8085 1053.41 73.1207 1052.59 72.3569ZM1045.38 72.7195C1043.34 71.2199 1044.26 66.6108 1046.81 67.8582C1046.81 67.8546 1046.81 67.8509 1046.81 67.8473C1047.88 68.3689 1045.79 72.0119 1049.6 68.3142C1050.38 71.191 1051.15 73.8083 1051.92 76.5919C1050.99 76.6385 1050.13 76.714 1049.15 76.7512C1049.81 72.0226 1047.41 74.2073 1045.38 72.7195ZM1147.91 68.5119C1147.59 72.7659 1148.93 72.7391 1151.22 75.6911C1149.06 75.5514 1146.91 75.4024 1144.76 75.2627C1145.82 73.0096 1146.86 70.765 1147.91 68.5119ZM1198.53 69.1711C1198.54 69.1711 1198.54 69.1711 1198.54 69.1711C1199.25 68.5005 1199.96 67.8274 1200.65 67.1662C1201.08 68.6844 1201.49 70.196 1201.91 71.7143C1204.41 70.2892 1206.92 68.8642 1209.41 67.4298C1209.11 72.0675 1204.63 71.3129 1202.16 74.5541C1198.5 73.1569 1196.73 70.4649 1196.49 66.5345C1197.17 67.4097 1197.85 68.2959 1198.53 69.1711ZM598.681 50.6819C597.847 51.9669 597.023 53.253 596.189 54.5379C597.298 55.1244 598.399 55.572 599.517 56.2517C602.442 50.6639 602.717 55.6067 606.549 55.263C618.295 54.2012 615.179 45.5223 625.787 58.2347C617.27 57.6299 620.543 63.6032 615.408 68.2043C614.344 64.7021 619.433 56.8035 615.985 55.1641C610.044 58.8706 604.33 62.3227 597.738 64.7163C597.931 65.3216 598.122 65.9291 598.315 66.5344C599.36 66.1525 600.397 65.7683 601.442 65.3864C600.314 67.0071 599.212 68.6138 598.066 70.2531C599.514 66.5744 595.822 68.6299 596.316 64.4032C596.536 62.5217 598.168 59.9115 599.131 58.1138C596.646 57.136 594.098 56.2403 591.586 55.2905C592.888 53.7915 594.188 52.2908 595.481 50.7918C596.544 50.7452 597.599 50.712 598.662 50.6655C598.668 50.6709 598.675 50.6764 598.681 50.6819ZM63.9093 70.2421C67.0638 65.8643 72.7962 65.14 75.8131 70.0114C71.8425 70.0859 67.8799 70.1676 63.9093 70.2421ZM1196.25 63.2937C1196.61 64.0379 1196.95 64.7741 1197.31 65.5183C1195.73 66.8965 1194.15 68.2652 1192.57 69.6434C1192.27 67.4928 1191.96 65.3417 1191.65 63.2003C1193.18 63.2282 1194.72 63.2657 1196.25 63.2937ZM1095.36 65.6886C1096.52 65.5584 1096.62 65.6289 1098.05 65.9357C1098.05 65.9339 1098.05 65.9321 1098.05 65.9302C1098.62 66.0448 1103.38 67.301 1102.85 68.9568C1100.49 68.9848 1097.96 68.9568 1095.54 68.9568C1095.47 67.8676 1095.45 66.787 1095.36 65.6886ZM1123.21 66.6553C1123.21 66.659 1123.22 66.6626 1123.22 66.6663C1124.08 66.9178 1124.9 67.4298 1125.79 67.5232C1122.59 70.1292 1122.08 65.4537 1119.17 66.7762C1116.27 68.108 1114.47 70.6878 1112.01 64.2824C1112.92 63.323 1113.91 61.9505 1114.85 60.8328C1118.98 63.394 1120.09 60.9838 1123.4 58.4599C1123.34 61.1979 1123.28 63.9173 1123.21 66.6553ZM650.978 63.6397C651.766 60.4731 652.646 63.5803 652.737 63.6177C652.736 63.6214 652.734 63.625 652.732 63.6287C659.717 60.6961 651.823 65.3815 658.415 65.8753C657.435 66.6667 656.47 67.5024 655.498 68.3031C653.995 66.776 652.445 65.0456 650.978 63.6397ZM877.927 63.9363C877.991 64.8584 878.068 65.7826 878.133 66.7047C874.171 66.4905 873.161 70.1206 869.869 66.8146C872.555 65.8461 875.241 64.8845 877.927 63.9253C877.927 63.929 877.927 63.9326 877.927 63.9363ZM1075.4 58.9817C1079.79 57.2213 1083.04 56.4457 1087.26 59.2399C1087.26 59.2436 1087.26 59.2472 1087.27 59.2509C1087.51 59.4229 1086.33 61.3521 1086.65 61.838C1087.52 61.5495 1088.42 61.1059 1089.3 60.7614C1089.42 62.3063 1089.53 63.8509 1089.65 65.3864C1087.17 64.9487 1084.7 64.5114 1082.21 64.0736C1082.58 64.9771 1082.95 65.8727 1083.32 66.7761C1081.21 67.2418 1079.11 67.7057 1077 68.1713C1077.74 65.6388 1078.47 63.1056 1079.19 60.5637C1077.93 60.033 1076.66 59.5217 1075.4 58.9817ZM811.977 53.8459C812.674 54.8518 811.384 56.539 812.466 57.4053C813.548 58.2605 815.543 56.3833 815.076 59.2234C813.619 59.605 812.089 60.0426 810.604 60.4428C815.382 65.5642 820.148 60.93 820.221 67.254C815.636 65.6147 811.866 66.3763 807.428 68.1274C807.611 63.1075 812.051 58.7671 809.256 54.0546C810.153 53.9894 811.097 53.8941 811.968 53.8568C811.971 53.8532 811.974 53.8495 811.977 53.8459ZM1260.42 0.345134C1263.14 0.727024 1269.36 -1.32169 1272.79 1.60301C1273.63 2.32376 1276.44 11.6602 1276.43 12.8909C1276.34 17.0357 1272.91 17.5998 1276.59 20.3008C1275.35 20.3289 1274.15 20.4845 1272.92 20.559C1273.14 23.344 1273.36 26.1215 1273.57 28.8972C1275.07 28.478 1276.56 28.0568 1278.06 27.6283C1278.13 28.5504 1278.2 29.4746 1278.28 30.3967C1272.9 30.4154 1276.08 33.9744 1273.29 37.2903C1275.86 38.9665 1278.44 40.6346 1281 42.3108C1279.52 42.106 1277.78 41.9542 1276.48 41.7121C1276.31 46.434 1279.41 45.3082 1279.94 46.1833C1282.94 51.1288 1267.68 48.6328 1266.43 55.5048C1268.87 56.2683 1271.43 57.0135 1273.92 57.7678C1273.2 58.6154 1272.48 59.4635 1271.76 60.311C1266.11 55.5713 1259.76 53.8922 1253.17 50.9402C1252.58 51.1356 1251.98 51.3363 1251.39 51.5224C1251.57 53.6545 1251.73 55.7785 1251.91 57.9106C1251.01 58.1621 1250.1 58.4117 1249.2 58.6632C1251.85 51.6409 1248.18 51.7366 1243.75 47.4522C1246.11 44.9843 1249.01 46.4805 1248.81 41.8824C1240.72 45.4201 1231.25 40.4205 1223.39 44.4146C1221.43 45.4017 1221.44 51.3334 1216.85 50.7864C1217 50.1344 1217.03 48.9572 1217.13 48.1003C1209.19 50.9412 1204.37 52.6395 1196.12 49.7427C1196.6 51.8746 1197.06 54.0155 1197.54 56.1474C1199.29 55.0856 1201.05 54.0069 1202.79 52.9451C1203.98 56.4656 1202.22 58.0193 1207.45 57.982C1211.73 57.9541 1209.18 56.3996 1210.34 55.3564C1211.92 53.9323 1213.31 56.7339 1215 55.1422C1216.31 53.922 1214.89 51.0173 1218.31 51.7531C1216.94 55.5161 1215.54 59.4017 1214.15 63.2113C1213.32 62.3637 1212.49 61.503 1211.65 60.6461C1212.5 59.6401 1213.33 58.6474 1214.17 57.6415C1211.2 59.4483 1208.39 61.1525 1205.32 63.0245C1206.32 57.5849 1203.15 59.6244 1201.42 60.2671C1198.74 61.2719 1201.04 57.5283 1199.28 58.1523C1197.52 58.786 1195.62 62.9684 1192.43 62.0742C1194.14 59.6529 1191.82 57.4816 1192.27 55.2466C1192.72 53.0116 1196.08 52.5167 1192.85 50.0778C1186.63 51.9313 1193.38 60.4427 1189.18 61.8216C1184.14 63.4794 1182.94 49.6052 1184.44 46.6227C1185.62 44.2755 1189.69 44.7476 1190.89 42.4097C1183.6 38.1905 1183.53 46.5198 1182.29 48.1498C1177.76 54.0825 1180.8 38.2477 1175.43 43.9752C1175.54 41.014 1175.62 38.3507 1175.72 35.5106C1174.79 36.0508 1174.18 36.7687 1173.06 37.1969C1176.36 42.9666 1173.66 42.7193 1172.27 42.7283C1170.09 42.7469 1173.46 45.5612 1172.88 46.2877C1171.32 48.2318 1168.86 47.349 1170.37 49.891C1169.69 48.7081 1168.96 47.5217 1168.26 46.3481C1165.71 47.822 1159.72 60.1814 1165.42 57.6854C1164.89 62.2774 1163.04 60.0703 1161.61 59.3717C1160.17 58.6738 1160.19 61.5982 1158.93 61.0581C1153.89 58.897 1157.19 53.8946 1157.98 49.9734C1151.34 52.6744 1157.84 54.4614 1148.26 56.2683C1147.34 59.463 1151.77 62.8721 1148.08 64.7163C1147.4 59.1661 1144.69 55.179 1139.4 53.335C1138.88 54.6111 1138.37 55.8985 1137.86 57.1746C1134.97 52.0517 1136.44 46.7246 1131.1 53.0769C1133.97 41.3877 1131.99 48.8659 1127.21 44.107C1126.24 43.1476 1128.48 40.7225 1127.13 39.493C1126.51 38.9385 1125.02 40.7691 1123.51 39.3556C1122.78 38.6571 1119.35 34.15 1116.98 36.2906C1118.72 41.9537 1114.21 46.7714 1118.08 51.4565C1110.92 50.3015 1105.92 53.0205 1113.93 45.2989C1112.12 43.5851 1110.3 41.8786 1108.48 40.1741C1107.22 41.5247 1105.94 42.8646 1104.67 44.2059C1104.47 39.5515 1104.67 38.2458 1099.68 39.0645C1101.85 37.966 1104 36.8492 1106.17 35.7413C1106.24 34.8014 1106.55 33.8246 1106.47 32.9125C1103.81 34.7001 1096.32 35.4695 1094.51 36.7081C1092.69 37.9469 1096.2 38.2859 1095.67 39.4875C1091.32 49.3955 1091.67 42.088 1088.54 43.7884C1086.71 44.7943 1091.09 45.8867 1090.1 46.3151C1086.47 47.8855 1084.78 42.6197 1081.55 42.5525C1082.7 45.5415 1083.84 48.5769 1084.95 51.5938C1081.57 51.4355 1077.8 51.4089 1074.65 52.3683C1073.42 52.7428 1074.35 54.9658 1074.15 55.1147C1073.15 55.8785 1069.08 57.0884 1068.65 57.0977C1065.4 57.1154 1065.31 54.0364 1062.16 53.8679C1063.4 53.6072 1064.56 53.3722 1065.77 53.1208C1066.32 48.129 1066.88 43.1374 1067.43 38.1362C1064.34 37.773 1061.25 37.4173 1058.15 37.0541C1060.42 38.7211 1062.69 40.3802 1064.95 42.0472C1061.41 46.0801 1057.87 50.1222 1054.33 54.1645C1052.49 51.687 1050.66 49.2101 1048.81 46.7326C1043.81 47.3861 1044.81 57.443 1042.44 48.6331C1040.96 49.3779 1039.49 50.1223 1038.01 50.8577C1038.22 49.6007 1038.43 48.3411 1038.64 47.0841C1036.86 47.8572 1035.09 48.6252 1033.31 49.4076C1035.18 53.8593 1037.01 58.5439 1038.86 62.8652C1035.36 63.8326 1035.3 60.056 1034.77 59.1136C1033.39 56.6173 1030.64 59.9844 1029.54 57.6744C1029.17 56.8814 1032.6 54.3952 1031.42 51.5279C1031.18 50.9721 1026.59 40.4319 1023.66 42.8656C1023.72 44.775 1023.94 47.1163 1024.06 49.1934C1020.12 50.3532 1018.11 40.3862 1018.63 37.5924C1016.53 39.5483 1013.46 39.7117 1013.03 42.7667C1011.96 42.8412 1010.89 42.9119 1009.82 42.9864C1010.94 35.546 1006.47 36.9065 1006.17 43.305C1008.01 43.4634 1009.86 43.63 1011.7 43.7884C1010.31 51.6309 1015.91 56.3647 1004.26 49.1C1002.03 45.0203 1008.22 49.6559 1006.4 46.6008C1003.25 44.8226 1000.29 46.3104 997.288 43.4698C993.557 39.9213 998.147 36.5083 989.455 41.0255C1008.63 52.3421 986.825 48.6703 977.82 52.1815C975.344 41.0043 967.739 37.4641 957.266 40.7893C958.358 43.9 961.652 42.2973 963.551 43.3215C965.448 44.3459 963.395 46.1915 965.759 47.6444C968.124 49.097 973.148 51.0718 975.542 53.2691C973.514 55.0297 963.505 59.1921 970.123 54.1919C965.182 51.1096 962.862 47.9421 956.739 47.3643C954.905 52.2168 955.04 55.2384 949.071 55.3784C952.602 48.6353 945.819 43.9489 947.312 36.9827C951.545 38.6052 949.179 45.3759 951.627 48.6166C951.878 48.9405 955.822 47.2432 956.739 47.3643C952.759 41.282 951.383 39.0181 953.831 31.7809C951.016 32.4143 949.265 31.5057 949.008 34.9613C948.421 33.4622 947.831 31.9618 947.254 30.4626C946.338 30.5 945.513 30.6387 944.542 30.6109C945.879 35.8235 943.287 32.6147 941.443 34.9778C939.601 37.3436 942.073 41.4584 937.011 41.5143C938.699 42.7345 940.241 43.7814 941.874 44.9364C938.609 46.2775 935.335 47.6271 932.071 48.9682C934.364 52.1532 939.331 56.884 939.196 61.0745C937.692 59.4924 932.542 62.2729 931.978 62.3873C929.796 62.8158 930.985 60.173 930.82 60.1078C927.391 58.8235 924.567 59.7233 923.265 55.7189C920.689 57.5257 918.746 56.4956 916.014 56.5978C914.51 56.6537 914.802 59.5949 913.922 59.0366C908.072 55.3112 913.645 51.5104 902.36 58.7455C903.727 60.7944 905.075 62.8905 906.441 64.958C905.166 65.7311 903.899 66.5084 902.624 67.2815C901.771 66.9089 900.926 66.5335 900.073 66.1609C900.092 61.7184 900.114 57.2667 900.132 52.8242C899.197 52.582 898.257 52.3468 897.322 52.1046C898.927 51.6668 900.536 51.2296 902.14 50.7918C902.287 50.0101 902.424 49.2281 902.57 48.4464C900.186 47.2355 897.81 46.0138 895.426 44.7936C895.38 46.339 895.335 47.8952 895.289 49.4406C889.916 47.289 889.788 45.9808 884.681 50.237C880.747 50.1905 877.543 56.6519 875.269 59.3717C874.453 58.5057 873.636 57.6286 872.811 56.7626C872.288 58.048 871.76 59.3277 871.237 60.6131C870.201 58.8249 869.151 57.0364 868.115 55.2575C867.537 59.3164 867.238 60.5835 871.281 62.0083C869.897 67.0565 862.779 64.8295 859.881 63.1343C857.683 61.848 860.122 57.6373 859.847 57.1251C858.929 55.3851 855.306 56.8865 854.545 56.5978C851.326 55.3964 849.071 55.6067 846.164 54.6753C845.598 54.4889 844.017 51.8203 843.882 51.7366C842.837 51.2802 840.257 49.9832 839.963 49.9459C824.827 47.9539 841 59.5314 826.926 58.3116C827.347 59.8383 827.735 61.3549 828.147 62.8817C827.084 62.9748 826.01 63.0632 824.947 63.1563C823.599 61.8803 825.229 59.5597 822.552 61.4315C822.726 59.5502 822.901 57.6679 823.085 55.7958C821.92 56.8111 820.798 57.8181 819.605 58.8334C817.735 52.3043 810.906 50.8216 811.391 43.1567C811.556 40.5487 816.398 37.8726 813.839 35.0876C811.76 34.5394 813.167 37.6542 812.319 37.8176C806.194 38.9539 806.55 34.588 804.047 35.7523C803.652 37.6234 803.238 39.5312 802.835 41.4209C801.891 40.8717 800.944 40.3223 799.99 39.7731C799.771 41.0305 799.541 42.2893 799.321 43.5467C800.211 43.6305 801.212 43.7155 802.028 43.7994C800.89 48.6696 790.439 50.8573 794.425 46.7051C796.048 45.0194 799.02 45.7356 797.142 39.9818C794.345 40.8107 791.172 41.6576 788.228 42.4866C788.137 41.2478 788.051 40.0067 787.96 38.7679C783.993 39.5698 787.6 44.5228 787.593 47.1775C786.686 47.252 785.769 47.3172 784.862 47.3917C784.477 46.1914 784.111 44.935 783.708 43.7719C783.672 45.6821 783.163 50.1221 780.459 48.4738C778.72 47.401 781.458 42.5817 778.142 43.2501C778.39 46.2301 779.588 49.8595 775.895 50.8193C775.528 47.7091 775.021 44.8598 774.737 41.5912C770.143 44.5792 768.053 39.7762 762.662 43.2501C759.241 45.4483 754.556 53.2515 752.346 41.2287C749.844 40.9122 750.638 43.9062 749.898 44.5793C746.404 47.7648 743.805 42.0639 743.154 41.7285C739.002 39.5791 737.14 41.5525 733.757 38.8612C733.941 41.0874 734.041 43.1946 734.187 45.3648C737.287 42.0303 738.857 42.1868 743.203 42.904C741.745 43.351 740.288 43.8083 738.83 44.2553C739.068 46.0617 739.304 47.8686 739.533 49.6658C752.977 42.5496 749.841 53.7928 738.571 56.2517C737.599 52.9086 736.592 49.5742 735.629 46.2217C729.118 51.2885 726.055 46.89 718.692 45.8372C717.817 45.7168 714.628 47.6427 713.258 47.7378C713.281 47.7506 713.304 47.7634 713.326 47.7762C712.474 50.9333 713.629 52.3863 713.766 55.2081C713.023 55.5619 712.281 55.9144 711.538 56.2682C709.879 54.1172 710.462 52.3504 707.199 52.8626C707.639 55.0047 708.073 57.1473 708.513 59.2893C704.937 59.3638 702.596 57.0365 699.268 58.0424C699.827 57.2321 700.379 56.4194 700.939 55.6091C693.695 53.5413 699.46 40.9474 693.985 47.2159C693.637 46.1173 693.297 45.0079 692.949 43.9092C695.205 43.6391 697.461 43.3773 699.707 43.1072C699.753 41.5524 699.803 40.0042 699.839 38.4493C697.428 38.915 695.004 39.3952 692.592 39.8609C694.353 38.8177 696.124 37.7732 697.885 36.73C695.088 35.985 692.291 35.2394 689.494 34.4944C692.464 40.212 688.614 40.9112 689.338 46.5733C684.386 41.8602 680.497 35.6475 672.821 39.6248C671.3 40.417 672.126 44.3738 667.807 39.5588C668.853 45.8544 663.443 48.8087 664.138 54.7961C665.641 54.5075 667.2 54.3259 668.658 53.9722C666.998 51.8952 666.723 46.1816 669.244 44.486C672.463 42.3251 677.157 46.285 676.965 39.9433C678.248 40.2413 679.442 40.4171 680.689 40.6684C680.175 42.2415 679.673 43.8246 679.169 45.3978C682.716 42.9314 684.945 43.7335 686.65 47.6993C682.424 48.6119 678.206 49.5149 673.979 50.4183C674.602 50.688 675.233 50.9598 675.856 51.2202C672.655 55.272 675.957 59.1097 669.987 59.9759C670.023 58.1228 670.053 56.2685 670.09 54.4061C667.916 59.3613 661.966 59.3345 663.864 65.0349C662.067 63.2839 661.7 62.1765 660.683 65.2491C655.942 60.9179 652.897 55.4409 654.584 48.9022C652.824 49.9545 651.063 51.0084 649.312 52.0607C650.329 53.8486 651.348 55.6283 652.366 57.4162C649.303 57.3045 646.218 57.1946 643.164 57.0921C642.871 51.8024 649.059 55.4873 647.274 50.7588C646.917 49.8097 645.268 51.8428 644.836 51.3081C640.269 45.5245 647.438 49.703 646.091 45.2714C639.287 43.9022 644.732 36.4766 635.36 42.7172C635.113 41.19 634.847 39.6321 634.618 38.1142C631.364 38.0225 631.628 41.4721 628.832 42.124C627.081 42.5295 624.883 36.4721 622.948 40.597C622.604 41.3575 625.857 48.7612 619.019 48.4353C613.713 48.1828 615.921 42.9507 613.053 41.0968C610.183 39.2433 603.617 46.4981 601.682 38.2735C603.185 39.3628 605.1 39.9505 606.769 40.8442C607.447 39.2424 608.108 37.6579 608.777 36.0654C604.962 38.133 601.019 35.6961 598.452 39.5149C593.362 33.6748 587.67 39.0944 589.211 45.6889C590.886 44.7381 589.064 41.8626 591.391 43.695C591.629 45.2318 591.88 46.7612 592.119 48.298C588.157 48.1117 585.406 48.1549 587.212 43.4698C586.598 43.358 585.989 43.2465 585.375 43.1347C585.265 46.5251 585.167 49.9281 585.057 53.3185C584.324 53.7004 583.587 54.0792 582.854 54.461C582.038 53.7163 581.22 52.963 580.396 52.209C581.505 46.8439 583.395 46.6667 577.141 43.6675C577.123 45.5211 577.096 47.3673 577.078 49.2208C571.842 46.8644 571.704 42.3744 565.13 42.5415C570.173 36.1061 572.933 47.5137 572.914 34.6042C574.18 35.4518 575.455 36.3108 576.721 37.1584C576.913 35.2863 577.104 33.4114 577.288 31.5392C570.493 32.5267 559.207 44.8391 554.658 36.6751C554.108 37.6714 553.556 38.5374 552.996 39.6083C548.54 34.681 546.615 45.7431 542.094 39.3721C541.628 38.7034 542.604 28.3105 536.719 28.6829C536.866 30.0337 536.942 32.3071 537.061 34.011C535.787 33.1823 534.519 32.3151 533.254 31.4678C533.025 32.7154 532.785 33.9625 532.556 35.2194C534.729 35.7038 536.896 36.1962 539.069 36.6806C537.264 37.1088 535.446 37.5376 533.64 37.9659C535.996 40.005 537.059 40.0266 535.639 43.294C533.594 43.4896 531.547 43.6971 529.501 43.8927C529.291 44.7299 529.082 45.5768 528.871 46.414C529.861 48.91 530.862 51.351 531.852 53.8843C526.525 51.8446 521.893 51.7338 517.803 46.8259C517.106 45.997 519.571 42.7451 514.822 45.6779C514.749 43.9557 514.621 42.5572 514.539 40.965C508.725 45.7898 506.815 44.3497 500.754 40.8661C504.678 44.1168 501.176 42.0026 500.177 43.7444C499.492 44.9444 502.165 44.7671 501.863 46.024C501.56 47.272 498.087 52.3114 501.056 52.9175C508.338 42.5879 510.321 54.9379 519.674 49.9733C518.235 51.3053 516.785 52.6402 515.345 53.9722C516.023 54.8749 516.63 55.694 517.363 56.6527C512.146 54.6319 514.684 55.9447 512.54 57.5371C510.394 59.1298 506.494 60.4829 503.881 60.9207C503.058 61.0582 503.926 58.7414 502.068 58.5258C500.803 58.3768 497.344 61.8113 496.546 57.7623C496.024 55.1265 501.579 47.8687 493.898 47.886C492.452 45.3021 496.135 46.1046 496.214 45.7933C496.883 42.7195 492.161 40.4085 489.979 42.7557C489.802 42.9582 491.525 45.3533 489.651 46.2931C485.204 48.5379 482.635 45.791 479.756 42.0746C479.444 46.4337 475.701 51.6396 471.043 50.0283C470.805 51.2757 470.577 52.5342 470.339 53.7909C471.062 53.1306 471.786 52.4792 472.509 51.819C473.297 52.6014 474.133 53.1709 474.903 54.093C470.219 55.165 469.556 61.1725 467.31 63.3705C459.622 70.879 464.281 54.9961 465.668 52.2584C466.667 53.3668 467.634 54.6041 468.624 55.7683C468.514 54.2501 468.402 52.7203 468.301 51.1928C456.793 51.2392 466.549 41.3374 460.708 38.5152C459.204 45.9848 454.914 46.7047 449.449 41.9647C448.844 42.002 448.236 42.0115 447.631 42.0581C447.53 43.1472 447.532 44.812 447.367 45.5296C440.783 46.7963 439.61 35.293 438.987 34.2032C436.218 29.3699 434.061 36.0574 433.245 36.1148C429.806 36.3476 428.807 33.3782 425.534 34.6537C422.013 36.0319 424.42 38.3103 423.349 40.3498C422.49 41.9694 419.713 42.2579 418.565 43.9366C419.021 42.5636 419.528 41.2172 419.983 39.839C416.334 37.9671 413.352 36.1426 409.208 35.6863C404.531 45.7328 400.553 28.7857 402.166 42.5305C406.091 43.4712 408.285 45.0375 410.385 48.5397C407.809 48.9867 405.231 49.422 402.655 49.869C401.903 48.3605 401.369 46.8903 400.48 45.3538C398.555 48.5573 394.091 47.1826 392.339 48.1222C384.132 52.5278 386.671 57.9921 379.179 48.8088C384.579 47.9141 384.57 43.4539 389.925 44.0685C388.77 40.8831 386.048 41.543 387.809 37.7242C382.629 38.6648 384.303 42.0743 382.287 45.1011C380.548 47.7105 377.046 47.8566 377.244 51.2477C376.886 49.3833 376.609 47.5784 376.252 45.7163C372.897 45.735 369.541 45.7362 366.186 45.7548C367.616 43.8084 369.046 41.8584 370.476 39.9213C369.395 39.1862 368.313 38.4538 367.232 37.7187C358.979 43.7729 344.747 32.6771 347.02 47.886C343.041 48.3703 342.543 46.4628 340.38 43.5851C340.141 44.7397 339.909 45.7001 339.671 46.9852C337.104 45.7765 335.133 50.1114 332.869 48.9846C330.604 47.8664 330.042 43.7718 329.712 50.6544C328.245 48.6802 326.786 47.0402 325.329 45.2055C324.449 46.7691 323.57 48.3147 322.7 49.869C321.324 49.0494 319.946 48.2332 318.571 47.4136C317.835 50.6991 312.427 49.2829 310.043 51.4894C307.78 47.9478 307.842 36.7971 302.518 38.7953C302.656 41.5609 302.791 44.3185 302.928 47.0841C301.709 46.5067 300.487 45.9312 299.259 45.3538C299.185 44.4512 299.122 43.5485 299.049 42.6458C299.672 42.9252 300.287 43.2031 300.91 43.4917C300.369 41.9642 299.839 40.4437 299.308 38.9161C297.446 41.1791 295.583 43.4424 293.712 45.7053C296.233 47.4188 298.756 49.1333 301.277 50.8467C298.113 52.8772 295.911 50.8519 293.16 53.1153C290.767 49.297 291.651 47.0969 292.623 42.9534C291.733 43.3072 290.834 43.6488 289.945 44.0026C290.531 39.8584 289.027 37.3892 294.225 37.7242C293.868 36.5422 293.503 35.4152 293.155 34.1868C292.303 34.373 291.75 33.3739 290.815 33.8297C288.265 35.0778 286.311 42.3568 286.485 44.9089C286.579 46.2457 289.093 43.6891 288.992 45.579C288.743 50.1877 282.977 48.1185 291.293 52.7472C288.533 55.6812 287.917 53.4685 284.872 52.6209C285.111 54.1567 285.342 55.6827 285.571 57.2184C284.16 56.5109 282.746 55.8058 281.335 55.0982C283.297 47.2094 272.889 44.2463 282.258 37.3452C279.489 36.9913 276.73 36.6356 273.97 36.2631C274.539 35.4529 275.107 34.6509 275.676 33.8407C276.923 34.2691 278.162 34.6905 279.409 35.1096C277.942 33.6291 276.473 32.1573 275.006 30.6768C271.54 32.5117 270.182 35.3338 268.595 38.8173C272.629 41.3593 271.311 37.887 274.454 37.1969C274.344 39.4029 274.489 41.4321 274.215 43.7499C272.591 39.1803 267.292 42.5047 266.064 42.7282C262.325 43.4069 265.257 38.9172 262.756 38.8228C260.252 38.7296 257.3 41.4019 255.255 36.9497C255.291 39.4451 255.455 42.027 255.602 44.2992C251.704 45.1188 252.482 42.1708 252.078 41.7889C245.641 35.5113 242.148 40.8112 234.785 41.4538C235.72 42.2268 236.665 42.9246 237.609 43.651C232.054 48.9493 235.796 47.327 240.619 49.078C236.098 48.5471 233.509 53.0593 230.318 54.4006C227.127 55.7396 221.655 53.4221 219.656 51.6157C224.231 48.7096 229.167 50.626 234.247 49.825C233.67 47.2829 233.108 45.1314 232.512 42.3382C229.422 47.6737 227.632 44.1062 226.614 43.3983C223.625 41.3223 223.719 45.9017 221.913 40.976C221.987 42.6705 222.04 44.0952 222.114 45.6779C215.942 44.97 209.286 41.9743 205.269 48.2321C204.903 44.1621 204.626 40.241 204.204 36.0873C201.591 39.151 199.353 36.0136 197.153 36.73C194.961 37.4471 195.795 40.7363 193.219 42.0031C192.742 42.236 191.749 40.1773 190.575 41.6955C189.39 43.2218 185.019 54.57 184.496 44.6562C182.287 44.6096 180.195 44.2471 178.031 44.0794C180.14 43.5206 182.25 42.9794 184.35 42.4206C182.553 40.0178 180.767 37.6222 178.97 35.2194C178.74 37.3617 178.511 39.5427 178.29 41.6571C173.449 44.265 169.935 40.7624 165.048 41.5912C164.232 41.7309 166.157 45.9664 162.536 44.8869C158.914 43.8065 156.226 35.9011 150.056 38.9546C149.744 39.1129 147.916 45.1674 145.706 40.976C145.204 40.026 147.32 38.6203 146.166 37.3726C145.01 36.1245 139.855 35.0982 139.452 32.1269C139.507 33.1791 139.828 34.2694 139.984 35.3402C139.104 35.8431 138.215 36.3463 137.326 36.8398C137.243 34.9865 137.154 33.1305 137.072 31.2865C132.01 35.5988 129.394 42.6334 121.894 40.3058C124.003 42.9974 126.113 45.6998 128.212 48.3914C128.79 46.5005 129.369 44.597 129.937 42.7062C133.394 43.4605 136.86 44.2095 140.316 44.9638C140.885 42.8122 141.444 40.6668 142.012 38.5151C142.929 38.7945 143.837 39.0652 144.754 39.3446C144.524 40.9 144.293 42.4472 144.055 44.0025C145.87 43.6207 147.688 43.2308 149.494 42.849C145.817 52.0302 139.225 42.0681 139.701 49.7481C138.885 48.5565 138.068 47.3566 137.253 46.1558C136.895 49.8797 135.236 48.8079 132.312 48.2211C132.982 50.056 133.721 51.8659 134.335 53.7195C131.493 51.1304 126.45 51.3818 123.507 50.3853C122.214 49.9476 123.505 47.2476 123.12 46.9302C121.149 45.2723 117.381 49.9834 116.592 49.6108C111.879 47.3936 108.816 38.4621 103.672 44.3486C108.981 45.8016 106.093 45.1879 107.982 48.4573C108.573 49.4823 115.432 51.6206 106.843 50.6709C105.836 50.5521 90.2512 44.3811 95.3742 39.6522C92.8525 41.1611 90.878 42.9058 88.5672 44.5079C82.9184 32.0453 84.8734 43.753 86.5148 50.1985C85.5886 50.2265 84.7076 50.2919 83.7539 50.2919C85.7804 43.5204 75.4557 43.0999 71.9527 46.5183C70.779 47.6546 74.0609 49.8221 71.3467 50.8467C70.0543 50.3718 68.5881 49.7569 67.2224 49.2263C69.203 53.5105 65.316 55.1616 65.3704 59.5199C62.8855 55.6362 60.9849 47.4043 62.3505 42.9424C60.2968 44.749 58.2324 46.5534 56.1787 48.3694C57.1323 49.4032 58.0984 50.428 59.052 51.4619C52.3395 48.7235 43.7086 54.9547 42.3056 45.7987C41.4161 45.8639 40.5172 45.9203 39.6277 45.9855C39.3526 47.5316 39.0867 49.0808 38.8116 50.627C34.7869 49.286 30.7713 47.9361 26.7466 46.5952C30.3302 45.6356 31.1833 43.4349 34.9414 45.222C33.4932 43.4437 32.018 41.6556 30.5972 39.8774C24.9394 44.6648 24.1676 47.8113 15.6491 46.3864C15.2639 46.3212 8.82752 42.3064 8.60744 41.9152C7.59915 40.127 9.1297 37.5292 8.68074 36.6256C7.43361 34.0921 -0.144618 27.7307 0.00210382 26.7713C1.85448 14.998 27.3516 14.842 34.2475 14.2366C105.773 7.95905 175.724 16.3576 246.801 14.9232C247.531 14.901 247.213 13.163 247.524 13.0886C249.459 12.6521 251.358 15.3607 252.073 15.4725C253.602 15.7028 252.76 13.2002 253.877 13.1984C265.413 13.2264 276.298 14.698 287.844 14.2695C288.595 14.2416 287.828 16.2439 289.148 15.8899C289.83 15.6961 291.964 12.6242 293.502 12.5777C298.876 12.4194 303.389 13.4043 309.056 13.3577C312.156 13.3299 316.806 13.591 320.271 13.5445C321.802 13.5247 323.396 12.1193 324.909 12.0724C327.054 12.0072 326.616 14.8561 326.946 15.033C328.395 15.806 328.596 12.6791 329.971 12.7535C332.53 12.9025 332.667 14.9902 335.913 14.8133C338.233 14.6829 343.543 13.0346 346.468 12.5503C353.309 14.9717 361.929 14.0104 368.311 13.2094C372.089 12.7346 372.439 15.6576 373.98 15.6483C379.408 15.5916 383.527 11.8584 388.625 11.7373C395.391 11.5796 401.387 14.0481 407.942 14.2256C409.005 14.2535 408.761 11.5753 409.804 11.5066C413.664 11.2551 418.601 10.7677 422.04 11.1496C425.872 11.5693 427.286 15.4567 431.036 14.665C432.136 14.43 432.458 11.0214 434.3 10.5838C437.244 9.89564 440.471 12.9014 442.525 13.2369C445.34 13.684 442.892 10.2115 446.688 10.6772C446.844 10.6973 447.412 13.1795 448.227 13.0611C450.602 12.7258 450.367 10.771 453.842 10.9573C454.175 10.9831 458.784 13.3482 459.242 13.3577C461.938 13.395 467.365 14.2231 468.961 13.7203C474.665 11.9319 470.174 8.19845 475.025 16.3019C477.162 14.3185 479.28 12.3081 481.544 10.3806C480.033 12.1782 486.166 14.7723 486.597 14.6046C490.162 13.2537 488.038 10.1007 492.559 10.6223C486.589 17.9061 498.39 11.5611 501.022 11.3748C513.695 10.4716 525.214 12.2892 537.95 12.2427C542.214 12.2236 547.928 10.6839 552.439 10.7211C553.491 10.7234 552.696 12.4471 553.622 12.4844C554.545 12.5099 553.521 10.5748 554.575 10.6772C561.131 11.3481 566.268 14.9993 572.274 10.4355C572.566 11.0954 572.557 11.6168 573.041 12.3415C577.957 8.25295 587.422 13.7513 590.98 14.5058C596.545 15.6787 597.966 12.915 602.009 13.4731C607.355 14.2182 615.382 19.6173 611.797 10.7047C615.464 10.4254 618.995 10.3482 622.699 11.1771C623.111 11.271 622.827 13.5364 622.992 13.5829C624.037 13.9082 624.378 11.8799 625.084 11.7868C626.998 11.5362 623.874 13.9648 626.604 13.2863C628.043 12.9231 628.861 11.154 632.858 11.1166C656.957 10.921 683.12 11.5546 707.824 11.8527C709.52 11.8713 708.404 9.68061 710.531 9.82033C717.922 10.3051 731.152 13.9919 737.525 13.4896C743.898 12.9866 742.46 9.78304 746.448 8.44161C747.218 8.18081 746.586 10.0066 747.283 10.0346C751.969 10.2024 757.556 13.0501 761.352 13.4786C763.863 13.7657 763.662 10.8934 765.403 10.6882C767.998 10.3901 770.669 13.2921 772.054 13.3852C778.564 13.7944 783.039 11.4571 789.118 12.6492C788.88 12.017 788.723 11.4319 788.522 10.8091C795.719 10.9115 802.908 11.0142 810.106 11.1167C809.767 10.5392 809.438 9.95672 809.099 9.36992C817.544 9.68684 816.581 15.9458 815.838 2.72901C816.452 2.2634 817.103 1.7237 817.69 1.29537C817.452 8.10367 822.56 13.0861 829.061 14.8189C829.538 14.9493 832.737 8.31097 832.389 16.1536C833.223 14.2349 833.72 12.9123 834.427 11.2265C835.802 13.6009 837.195 15.9472 838.57 18.3123C839.313 17.9585 840.066 17.617 840.808 17.2632C840.919 15.7263 840.834 14.1306 841.072 12.6217C844.52 12.3889 851.591 14.2888 854.315 14.0938C861.083 13.6002 867.972 9.44501 873.236 13.9345C875.8 13.4768 873.254 10.4604 877.067 10.842C877.498 12.3692 877.903 13.8329 878.352 15.4066C881.469 8.58319 882.12 12.7341 886.391 14.1597C889.279 15.1283 891.17 13.4606 893.921 13.7862C894.618 13.87 894.519 15.8728 894.996 15.8076C896.593 15.6011 901.15 12.8445 902.277 12.77C912.492 12.0437 921.267 12.3529 930.996 13.0886C932.041 13.1631 930.686 11.1866 931.768 11.2705C933.509 11.4021 932.484 14.4392 933.493 14.5882C936.306 14.9867 936.327 11.7841 940.251 11.6165C953.171 11.0673 968.026 13.4731 981.524 13.6873C981.945 13.6873 981.92 11.8109 982.379 11.7923C985.367 11.7005 988.393 14.237 991.106 14.2092C995.609 14.1719 998.993 11.5358 1003.44 11.5451C1012.13 11.5544 1019.9 12.9042 1028.84 12.9788C1036.16 13.044 1042.51 12.7937 1050.54 12.803C1085.59 12.8403 1121.35 6.88419 1156.64 10.0511C1157.53 10.1348 1157.17 11.7927 1157.44 11.7209C1160.05 11.0037 1160.28 8.76681 1161.2 13.4512C1164.52 12.528 1165.57 9.00867 1169.58 9.26009C1171.71 9.39191 1170.12 14.8466 1173.73 12.034C1176.99 9.49144 1173.39 6.50206 1183.09 9.55671C1183.35 9.64068 1184.61 12.9655 1186.63 12.0999C1188.66 11.243 1186.31 8.86224 1191.19 8.14504C1202.64 6.46865 1217.14 9.34264 1230.45 8.45813C1231.29 8.40225 1239.32 6.62473 1240.91 5.80507C1243.98 4.21239 1243.34 1.74164 1247.33 1.13611C1250.41 0.670394 1252.95 3.46917 1256.57 2.91032C1256.99 2.84239 1257.7 -0.0364883 1260.42 0.345134ZM585.385 56.2627C584.633 59.0873 583.276 69.4842 578.729 66.3202C578.298 66.0222 580.625 58.8724 578.114 57.7348C580.571 56.9804 582.964 56.736 585.385 56.2517C585.385 56.2554 585.385 56.259 585.385 56.2627ZM1280.13 66.6388C1276.73 66.1172 1273.31 65.6005 1269.91 65.0789C1272.26 63.8215 1274.61 62.5665 1276.95 61.2998C1278.01 63.0784 1279.07 64.8602 1280.13 66.6388ZM856.626 61.7007C856.63 61.7007 856.633 61.7007 856.636 61.7007C853.06 63.042 849.482 64.3857 845.905 65.727C846.281 64.7397 846.658 63.7481 847.034 62.7608C849.858 61.2057 852.683 59.6525 855.498 58.0974C855.874 59.2986 856.251 60.4994 856.626 61.7007ZM884.881 51.2477C887.164 52.4213 886.606 54.4006 887.862 56.3287C887.862 56.325 887.862 56.3213 887.862 56.3177C888.193 56.8196 889.738 57.2588 890.334 57.3339C890.114 56.095 889.83 54.8721 889.592 53.6426C894.919 50.6434 905.338 61.3013 891.849 65.5952C892.051 64.0307 892.244 62.4742 892.445 60.9097C885.742 61.3474 878.269 57.954 884.881 51.2477ZM531.485 60.7669C525.763 65.8897 523.929 66.9699 516.987 63.4584C517.967 62.0064 518.948 60.5546 519.929 59.1025C521.075 60.5835 522.213 62.0543 523.359 63.5353C523.362 63.5353 523.366 63.5353 523.369 63.5353C523.598 61.9799 523.828 60.4217 524.048 58.8663C526.524 59.4996 529.01 60.1336 531.485 60.7669ZM1103.92 54.95C1105.51 65.1814 1105.05 59.2343 1100.5 61.5414C1098.92 62.3425 1100.46 64.1326 1099.48 64.4307C1094.18 66.0587 1093.75 59.2037 1094.94 55.6366C1097.94 55.3944 1100.97 55.1735 1103.91 54.95C1103.91 54.95 1103.92 54.95 1103.92 54.95ZM1241.39 52.8242C1241.4 52.8242 1241.4 52.8242 1241.4 52.8242C1241.54 55.3198 1239.41 55.9911 1241.81 58.3556C1239.98 58.3462 1238.15 58.3264 1236.31 58.3171C1236.85 58.0846 1237.4 57.863 1237.94 57.6305C1237.46 56.7736 1236.98 55.9058 1236.51 55.0488C1235.86 57.9174 1235.25 56.2499 1233.33 55.2905C1233.86 58.3548 1234.39 61.4213 1234.92 64.4856C1232.68 63.573 1230.44 62.6573 1228.2 61.7447C1228.17 60.9724 1228.14 60.1989 1228.12 59.4267C1227.27 60.4136 1226.44 61.4114 1225.6 62.3983C1225.37 61.4764 1225.15 60.5628 1224.92 59.6409C1223.9 60.3392 1222.88 61.037 1221.86 61.7447C1221.55 59.5114 1223.8 58.5462 1219.82 59.1136C1221.04 56.8226 1222.26 54.5385 1223.48 52.2475C1229.45 52.4337 1235.42 52.6286 1241.39 52.8242ZM1062.48 58.0974C1069.05 57.6689 1067.2 59.2875 1065.68 64.3538C1064.61 62.268 1063.54 60.1831 1062.48 58.0974ZM723.745 53.5877C721.837 57.0433 719.922 60.4644 717.969 63.799C714.08 65.727 710.191 59.4286 713.116 56.9603C716.638 53.9987 720.315 57.3133 723.745 53.5877ZM635.189 55.1257C639.946 56.7281 635.47 60.8342 634.398 63.2277C633.082 59.3809 631.247 59.7202 628.299 59.2728C631.067 59.0234 634.403 54.8536 635.189 55.1147C635.189 55.1184 635.189 55.122 635.189 55.1257ZM800.298 57.4712C802.205 57.3678 804.101 56.4027 805.806 57.5755C805.291 60.8798 801.881 57.8736 804.32 62.7718C803.101 62.8556 801.88 62.9369 800.67 63.03C801.439 61.0005 800.405 59.4838 800.303 57.4822C800.302 57.4785 800.3 57.4748 800.298 57.4712ZM998.773 61.9918C995.032 58.0798 994.323 59.7538 990.554 62.4642C990.023 59.2791 994.517 53.9438 997.332 52.7693C997.809 55.8428 998.287 58.9184 998.773 61.9918ZM113.821 60.3604C114.72 56.3005 121.347 55.771 124.64 56.9713C124.248 57.5734 123.855 58.1836 123.463 58.7949C120.253 59.3165 117.031 59.8388 113.821 60.3604ZM626.897 58.9982C627.39 59.1171 627.858 59.2058 628.299 59.2728C627.808 59.317 627.335 59.2479 626.897 58.9982ZM427.699 41.377C429.266 37.5492 424.607 36.2632 430.264 37.7626C430.264 37.759 430.264 37.7553 430.264 37.7517C434.005 38.739 434.831 39.0026 438.298 39.3007C437.05 44.2179 430.018 45.9755 439.71 46.9907C439.838 46.9952 439.583 44.0693 441.132 44.4695C441.61 44.5939 443.14 46.9952 445.466 47.6938C446.218 47.9173 451.869 48.6579 444.166 48.7045C444.396 52.1322 443.982 55.6015 444 58.9268C440.994 59.8931 438.683 53.1813 435.502 53.346C430.78 53.6068 428.377 60.3939 427.469 51.4894C431.44 49.3016 438.259 49.249 439.148 54.6038C442.99 54.669 444.093 50.2818 440.995 48.1112C427.726 50.8683 437.352 41.599 425.734 45.1011C425.597 46.3395 425.119 47.6723 425.192 48.8363C421.645 44.4783 427.139 42.746 427.699 41.377ZM455.445 50.8467C453.152 53.464 450.867 56.1024 448.584 58.729C448.584 54.4632 449.843 50.6351 453.456 48.2321C454.116 49.1069 454.785 49.9812 455.445 50.8467ZM262.599 51.9672C262.269 54.2864 261.389 56.4117 260.747 58.6191C260.05 56.6632 243.544 54.7868 251.942 52.8681C253.161 52.5886 260.6 56.6896 262.599 51.9672ZM1024.75 58.4984C1022.81 56.9429 1020.87 55.3849 1018.94 53.8294C1021.91 52.8427 1024.89 51.8301 1027.87 50.8248C1026.83 53.382 1025.79 55.9411 1024.75 58.4984ZM692.099 49.5174C692.92 49.6045 690.193 52.7941 693.428 52.2914C691.016 54.3312 688.758 56.0577 686.401 57.9765C685.695 56.4676 684.982 54.9648 684.275 53.4559C683.725 54.4245 683.164 55.3874 682.614 56.3561C682.944 54.1579 683.238 52.0111 683.586 49.7756C687.557 54.4887 688.467 49.1449 692.099 49.5174ZM810.164 40.9211C810.878 45.6984 805.129 48.5394 810.785 49.3032C809.712 52.4419 807.987 54.0883 804.677 54.3677C804.145 53.1673 803.615 51.9757 803.084 50.7753C803.01 53.9874 802.159 55.1813 800.298 57.4712C800.297 57.4675 800.295 57.4638 800.294 57.4602C795.261 57.6927 795.562 56.6217 794.351 51.3411C799.679 54.3217 799.838 49.497 803.47 46.6282C805.964 44.6555 809.22 45.5489 810.164 40.9211ZM280.186 51.9123C276.419 55.945 279.8 59.7065 273.115 55.4223C273.546 54.3977 273.979 53.3818 274.41 52.3572C276.336 52.1989 278.261 52.052 280.186 51.9123ZM828.758 57.2954C828.327 49.9003 824.78 44.1438 824.174 56.1748C827.631 58.6245 825.943 51.8096 828.758 57.2954ZM636.812 43.5467C643.459 43.8917 642.202 52.2383 639.47 56.411C639.048 54.8928 638.627 53.3718 638.214 51.8629C637.049 52.5522 635.885 53.2428 634.72 53.9227C635.417 50.4672 636.115 47.0023 636.812 43.5467ZM945.954 49.1714C940.874 54.4526 951.438 52.1086 947.889 55.4059C945.055 58.0415 941.321 52.7201 942.734 49.3856C943.715 49.2925 944.807 49.2273 945.944 49.1714C945.947 49.1714 945.951 49.1714 945.954 49.1714ZM916.556 50.682C917.39 56.3246 916.188 54.6799 920.201 53.6646C921.348 53.3759 930.456 55.4951 926.632 50.8193C923.378 50.8193 919.939 50.7378 916.556 50.682ZM559.97 51.8025C559.908 49.3452 566.922 43.9496 567.822 45.2989C567.822 45.2952 567.822 45.2916 567.822 45.2879C570.252 48.967 562.854 49.4898 566.063 54.5379C558.957 50.0958 556.831 60.8406 557.326 46.6831C561.512 46.062 559.53 48.9804 559.97 51.8025ZM26.8003 48.7923C26.7971 48.7923 26.7938 48.7923 26.7905 48.7923C27.2615 48.9079 31.1425 52.5142 30.6705 53.7634C26.0035 52.6924 26.8352 50.3185 22.4903 54.2193C22.2521 52.9629 22.048 51.7443 21.7915 50.4786C23.5155 49.7335 24.4711 48.2242 26.8003 48.7923ZM244.753 47.0127C246.468 46.37 249.597 49.0331 251.551 48.8747C245.333 59.1017 237.904 49.565 244.753 47.0127ZM1177.1 53.1758C1177.09 53.1794 1177.09 53.1831 1177.08 53.1867C1177.08 53.1812 1177.08 53.1758 1177.09 53.1703C1177.09 53.1721 1177.09 53.1739 1177.1 53.1758ZM377.635 53.1482C377.414 52.4843 377.289 51.9077 377.244 51.4015C377.244 51.3539 377.244 51.3063 377.244 51.2587C377.364 51.8803 377.491 52.5089 377.635 53.1482ZM545.393 52.544C542.472 49.1171 552.204 43.6688 555.352 44.9693C555.132 46.5335 555.097 47.9515 554.584 49.7481C552.044 45.6976 545.879 53.1215 545.393 52.544ZM767.294 51.2862C759.6 51.193 769.613 37.662 770.026 48.4573C770.01 48.6665 767.493 51.2678 767.294 51.2862ZM606.065 51.1269C608.025 47.0302 604.086 45.9424 610.385 46.6502C610.751 47.7113 611.118 48.7749 611.484 49.836C609.678 50.2644 607.871 50.6985 606.065 51.1269ZM716.894 33.5222C707.21 35.8041 697.95 39.8298 704.257 51.1269C704.99 50.764 705.733 50.4131 706.466 50.0503C706.576 44.5387 709.28 47.5473 713.238 47.7268C713.803 45.5386 715.998 45.0327 716.41 43.1732C717.206 39.5788 714.684 37.0517 716.894 33.5222ZM1125.7 42.4921C1125.55 43.4328 1125.39 44.3785 1125.24 45.3099C1123.71 46.3718 1122.17 47.4285 1120.64 48.4903C1120.89 46.6849 1121.14 44.8797 1121.38 43.0743C1122.82 42.8788 1124.25 42.6821 1125.69 42.4866C1125.7 42.4884 1125.7 42.4903 1125.7 42.4921ZM464.881 39.2183C464.001 49.5729 467.075 47.6658 473.31 42.4316C470.504 41.3605 467.687 40.2894 464.881 39.2183ZM872.493 37.7187C872.695 40.6604 872.893 43.5931 873.104 46.5348C876.414 43.4704 875.8 40.1016 874.213 36.2082C873.636 36.7107 873.07 37.2163 872.493 37.7187ZM920.177 36.4664C918.804 35.8526 919.504 38.2278 919.361 38.1801C915.885 36.932 915.396 35.8425 911.132 37.6309C910.609 38.2548 910.096 38.9108 909.573 39.5534C911.544 45.7175 912.976 42.3579 917.147 45.98C916.395 43.8657 915.646 41.7484 914.895 39.6248C917.214 40.0718 919.524 40.5126 921.843 40.9595C922.118 40.3075 922.394 39.6616 922.669 39.0096C921.844 38.1716 920.993 37.2298 920.177 36.4664ZM1143.41 45.1671C1145.67 45.4093 1147.93 45.661 1150.19 45.9032C1150.27 44.3851 1150.35 42.8567 1150.43 41.3386C1148.1 42.6143 1145.75 43.8914 1143.41 45.1671ZM418.565 43.9366C418.387 44.4752 418.212 45.017 418.057 45.568C418.072 44.8965 418.268 44.3722 418.565 43.9366ZM20.8484 40.4651C18.2904 39.4035 14.6043 40.1005 11.7984 39.8774C12.019 43.6859 19.1505 42.6331 21.6547 44.9418C22.0571 44.2584 21.9297 40.9119 20.8484 40.4651ZM646.008 43.8817C646.65 41.9819 647.291 40.091 647.924 38.1911C649.474 38.396 651.027 38.6124 652.586 38.8173C652.631 37.2618 652.677 35.6928 652.722 34.1374C645.855 36.1582 647.439 31.6728 644.039 27.2493C644.699 32.7902 645.348 38.3315 646.008 43.8817ZM1215.19 35.3019C1210.23 36.3544 1208.47 38.3202 1211.26 42.9864C1213.01 41.9157 1214.78 40.8439 1216.53 39.7731C1216.08 38.2832 1215.63 36.7918 1215.19 35.3019ZM328.217 40.4212C324.065 42.1648 323.996 35.9024 319.939 39.3995C322.112 40.5542 324.284 41.7218 326.448 42.8765C327.032 42.0601 327.632 41.2377 328.217 40.4212ZM531.823 23.223C530.071 21.0444 526.797 31.4002 521.873 23.7558C520.7 26.0373 519.965 28.2166 518.956 30.4516C518.369 28.0206 517.703 25.5585 517.143 23.1461C517.14 23.1461 517.137 23.1461 517.133 23.1461C512.668 23.9657 515.563 27.0146 515.462 29.5947C515.415 30.6643 512.101 28.8764 513.136 31.2041C514.924 35.2 521.606 32.9022 521.624 37.7736C519.277 36.1816 514.693 37.5119 516.049 40.7618C517.534 44.3289 521.854 38.3509 524.605 41.3111C520.663 33.5252 528.805 35.9302 529.731 41.9098C534.509 37.3179 530.117 35.4447 525.221 35.6589C528.21 31.0763 523.81 33.5522 523.085 29.743C526.168 27.4437 536.746 29.3604 531.823 23.223ZM757.223 31.6656C753.921 31.961 748.762 29.3418 746.502 33.2091C745.185 35.4622 750.356 37.207 746.79 40.7453C750.007 40.4004 750.741 39.0181 750.191 35.9171C750.924 35.5447 751.667 35.1815 752.4 34.8185C752.739 35.4235 753.087 36.0206 753.426 36.6256C753.811 35.3497 754.198 34.084 754.574 32.8081C755.353 33.0594 756.141 33.311 756.92 33.5716C757.011 32.93 757.167 32.3717 757.223 31.6656ZM209.017 40.6134C209.934 40.5762 210.842 40.5391 211.759 40.4926C211.658 39.7373 211.538 38.9508 211.422 38.1746C211.339 37.5612 211.255 36.9478 211.172 36.3345C211.704 38.5259 216.071 42.1683 217.911 39.8279C218.836 38.6539 216.731 34.4859 220.652 33.7583C217.811 33.9727 215.178 34.5415 212.419 34.8953C212.666 33.6565 212.904 32.4045 213.152 31.1657C213.15 31.1638 213.148 31.162 213.147 31.1602C212.23 30.8808 211.302 30.5881 210.386 30.3088C209.927 33.7458 209.476 37.1764 209.017 40.6134ZM869.806 31.9018C866.679 34.3328 865.632 35.5953 867.108 39.5259C867.112 39.5277 867.115 39.5296 867.118 39.5314C868.282 37.7899 869.448 36.0491 870.612 34.3077C870.346 33.5066 870.081 32.7028 869.806 31.9018ZM391.63 30.9624C384.982 45.8928 399.954 36.7403 397.103 31.6545C396.975 31.4217 392.254 32.6111 391.63 30.9624ZM635.59 38.9546C637.415 38.8335 639.244 38.7242 641.078 38.6031C640.656 36.7681 640.224 34.9396 639.802 33.1047C638.399 35.0514 636.993 37.0079 635.59 38.9546ZM1193.59 28.5237C1191.67 24.4253 1186.74 22.9405 1184.33 27.3976C1185.59 27.9192 1186.86 28.4415 1188.12 28.9631C1185.73 29.4752 1183.37 30.0389 1180.96 30.5231C1180.83 36.2328 1183.61 32.9203 1187.79 34.4944C1188.44 34.7483 1192.57 41.8356 1194 36.4938C1194.29 35.3959 1189.89 34.6493 1192.95 31.4569C1191.61 31.2056 1190.45 31.2613 1189.19 31.1218C1189.1 29.7619 1189.01 28.4005 1188.91 27.0406C1190.47 27.533 1192.02 28.0313 1193.59 28.5237ZM737.999 32.1105C733.463 31.7954 732.903 34.0768 731.959 38.1087C734.068 37.6523 736.178 37.2029 738.287 36.7465C738.187 35.2043 738.099 33.6619 737.999 32.1105ZM1153.05 27.2164C1150.57 26.5569 1151.63 29.8387 1150.63 30.4627C1146.85 32.8095 1144.28 30.4639 1140.54 31.9347C1140.79 31.3014 1141.02 30.7094 1141.26 30.0946C1141.25 30.0946 1141.25 30.0946 1141.25 30.0946C1123.58 27.3286 1132.86 34.7715 1143.43 33.5606C1143.68 34.7808 1143.92 36.0025 1144.16 37.2134C1148.9 35.0805 1153.26 33.0282 1153.05 27.2164ZM450.695 30.4516C450.493 29.6879 452.208 24.8342 448.99 27.1064C446.441 34.193 450.621 30.6757 451.667 33.4013C450.796 34.0812 449.905 34.7427 449.043 35.4227C454.252 37.4253 455.012 35.7402 453.114 30.5615C452.978 30.2134 450.897 31.213 450.695 30.4516ZM416.464 26.9581C415.749 37.3995 422.322 32.7043 422.084 29.4629C421.176 29.3337 420.471 31.1015 419.509 30.3198C418.537 29.5375 418.288 27.0986 416.464 26.9581ZM604.79 29.5123C604.597 29.4658 602.662 25.0774 602.854 28.5126C605.248 36.644 610.07 31.4101 609.227 28.5785C607.632 28.7186 606.568 29.9387 604.79 29.5013C604.79 29.505 604.79 29.5087 604.79 29.5123ZM1223.5 26.0629C1223.41 25.7715 1218.59 24.0077 1217.96 25.6454C1217.45 27.4893 1217.19 29.4655 1216.81 31.3745C1219.47 29.6048 1224.85 30.9529 1223.49 26.0629C1223.5 26.0629 1223.5 26.0629 1223.5 26.0629Z" fill="url(#paint0_linear_325_736)"/>
<defs>
<linearGradient id="paint0_linear_325_736" x1="-4.37068e-08" y1="45.5" x2="1281" y2="45.5001" gradientUnits="userSpaceOnUse">
<stop stop-color="#08A69A"/>
<stop offset="0.543269" stop-color="#0ABE9D"/>
<stop offset="1" stop-color="#69C9A1"/>
</linearGradient>
</defs>
</svg>
