<svg width="1280" height="90" viewBox="0 0 1280 90" fill="none" xmlns="http://www.w3.org/2000/svg">
<path d="M1198.05 81.2993C1201.02 85.3579 1191.12 82.6974 1197.69 88.7586C1196.32 89.1681 1194.94 89.5905 1193.57 90C1193.23 87.7552 1192.87 85.516 1192.52 83.2712C1194.36 82.6102 1196.2 81.9493 1198.05 81.2883C1198.05 81.2919 1198.05 81.2956 1198.05 81.2993ZM1200.57 53.1866C1198.88 59.5892 1193.52 61.2962 1199.31 67.2045C1199.77 65.0072 1200.24 62.8103 1200.7 60.613C1202.71 62.3172 1204.73 64.021 1206.74 65.7159C1207.47 64.8782 1208.19 64.0396 1208.91 63.2112C1209.83 67.0295 1210.74 70.8582 1211.66 74.6858C1210.85 74.127 1210.02 73.5584 1209.2 72.9995C1205.97 76.1002 1203.1 76.9482 1198.71 77.5256C1199.09 78.4291 1199.48 79.3247 1199.87 80.2281C1197.64 78.6914 1195.42 77.1508 1193.2 75.6141C1195.12 74.1056 1197.28 72.428 1199.06 71.0221C1196.21 65.0351 1191.17 68.3672 1188.55 69.6159C1184.98 71.3203 1185.79 68.4736 1183.14 69.6653C1182.72 69.8516 1182.67 72.0829 1181.83 72.1206C1177.62 72.2976 1169.43 71.1149 1174.22 65.9082C1181.16 66.5788 1187.08 62.3977 1193.88 63.9252C1192.08 57.9048 1195.67 55.8562 1200.57 53.1866ZM1073.06 72.3568C1075.17 69.4328 1079.45 70.6128 1082.35 72.6425C1082.35 72.6425 1082.36 72.6425 1082.36 72.6425C1083 73.0895 1084.45 76.9754 1082.36 76.8171C1078.96 76.5457 1077.32 70.4289 1075.53 74.5815C1074.74 73.8084 1073.9 73.1206 1073.06 72.3568ZM1065.67 72.7194C1063.59 71.2198 1064.54 66.6107 1067.15 67.8582C1067.15 67.8545 1067.15 67.8508 1067.15 67.8472C1068.24 68.3688 1066.1 72.0119 1070 68.3141C1070.8 71.1909 1071.59 73.8082 1072.38 76.5919C1071.42 76.6384 1070.55 76.7139 1069.54 76.7511C1070.22 72.0225 1067.76 74.2072 1065.67 72.7194ZM1170.69 68.5118C1170.36 72.7658 1171.74 72.739 1174.08 75.691C1171.87 75.5513 1169.66 75.4023 1167.46 75.2626C1168.54 73.0095 1169.61 70.7649 1170.69 68.5118ZM1222.54 69.171C1222.54 69.171 1222.54 69.171 1222.55 69.171C1223.27 68.5004 1224 67.8273 1224.71 67.166C1225.14 68.6843 1225.57 70.1959 1226 71.7142C1228.56 70.2891 1231.12 68.8641 1233.68 67.4297C1233.37 72.0674 1228.78 71.3128 1226.26 74.554C1222.5 73.1568 1220.69 70.4648 1220.45 66.5344C1221.14 67.4095 1221.83 68.2958 1222.54 69.171ZM608.169 50.6819C607.315 51.9669 606.471 53.2529 605.617 54.5379C606.753 55.1244 607.88 55.572 609.025 56.2517C612.021 50.6638 612.302 55.6067 616.227 55.263C628.258 54.2012 625.066 45.5223 635.931 58.2346C627.208 57.6299 630.56 63.6032 625.301 68.2042C624.212 64.702 629.423 56.8034 625.892 55.1641C619.807 58.8706 613.955 62.3227 607.203 64.7162C607.401 65.3216 607.597 65.929 607.794 66.5344C608.865 66.1525 609.926 65.7682 610.997 65.3864C609.842 67.007 608.713 68.6137 607.539 70.2531C609.022 66.5743 605.241 68.6299 605.747 64.4031C605.972 62.5216 607.644 59.9114 608.63 58.1138C606.085 57.136 603.475 56.2403 600.902 55.2904C602.235 53.7914 603.567 52.2907 604.891 50.7917C605.98 50.7452 607.061 50.7119 608.149 50.6654C608.156 50.6709 608.163 50.6764 608.169 50.6819ZM60.4559 70.2421C63.6867 65.8643 69.5578 65.14 72.6478 70.0114C68.5811 70.0859 64.5226 70.1676 60.4559 70.2421ZM1220.2 63.2936C1220.57 64.0378 1220.92 64.774 1221.29 65.5182C1219.67 66.8964 1218.05 68.2651 1216.43 69.6433C1216.12 67.4927 1215.8 65.3416 1215.49 63.2002C1217.05 63.2281 1218.63 63.2656 1220.2 63.2936ZM1116.87 65.6885C1118.05 65.5583 1118.16 65.6288 1119.63 65.9356C1119.63 65.9338 1119.62 65.932 1119.62 65.9301C1120.21 66.0447 1125.09 67.3009 1124.54 68.9567C1122.12 68.9847 1119.53 68.9567 1117.06 68.9567C1116.98 67.8675 1116.96 66.7869 1116.87 65.6885ZM1145.39 66.6552C1145.4 66.6589 1145.4 66.6625 1145.4 66.6662C1146.28 66.9177 1147.12 67.4298 1148.03 67.5231C1144.75 70.1291 1144.24 65.4536 1141.26 66.7761C1138.28 68.1079 1136.44 70.6877 1133.92 64.2823C1134.86 63.3229 1135.87 61.9504 1136.83 60.8327C1141.06 63.3939 1142.2 60.9837 1145.59 58.4598C1145.52 61.1978 1145.46 63.9172 1145.39 66.6552ZM661.732 63.6396C662.539 60.4731 663.44 63.5802 663.533 63.6176C663.532 63.6213 663.53 63.625 663.528 63.6286C670.682 60.696 662.597 65.3815 669.349 65.8752C668.344 66.6667 667.356 67.5024 666.361 68.3031C664.821 66.776 663.234 65.0456 661.732 63.6396ZM894.173 63.9362C894.239 64.8583 894.317 65.7825 894.383 66.7046C890.326 66.4904 889.291 70.1205 885.92 66.8145C888.671 65.846 891.422 64.8844 894.173 63.9252C894.173 63.9289 894.173 63.9326 894.173 63.9362ZM1096.42 58.9816C1100.92 57.2212 1104.25 56.4456 1108.57 59.2398C1108.57 59.2435 1108.57 59.2471 1108.58 59.2508C1108.83 59.4228 1107.62 61.352 1107.95 61.8379C1108.84 61.5494 1109.76 61.1058 1110.66 60.7613C1110.78 62.3062 1110.9 63.8508 1111.02 65.3864C1108.48 64.9486 1105.95 64.5113 1103.4 64.0736C1103.78 64.977 1104.16 65.8726 1104.54 66.7761C1102.38 67.2417 1100.23 67.7056 1098.07 68.1712C1098.82 65.6387 1099.57 63.1055 1100.31 60.5636C1099.01 60.0329 1097.72 59.5216 1096.42 58.9816ZM826.627 53.8458C827.341 54.8517 826.019 56.5389 827.128 57.4052C828.236 58.2604 830.279 56.3832 829.8 59.2233C828.308 59.6049 826.741 60.0425 825.221 60.4428C830.114 65.5642 834.995 60.9299 835.07 67.2539C830.374 65.6147 826.513 66.3762 821.968 68.1273C822.155 63.1074 826.702 58.767 823.839 54.0545C824.759 53.9893 825.726 53.894 826.617 53.8568C826.62 53.8531 826.624 53.8494 826.627 53.8458ZM1285.92 0.345024C1288.7 0.726912 1295.07 -1.3218 1298.59 1.6029C1299.45 2.32365 1302.33 11.6601 1302.32 12.8908C1302.23 17.0356 1298.71 17.5997 1302.48 20.3007C1301.21 20.3287 1299.98 20.4844 1298.73 20.5589C1298.95 23.3439 1299.18 26.1214 1299.39 28.8971C1300.92 28.4779 1302.46 28.0567 1303.99 27.6282C1304.06 28.5503 1304.14 29.4745 1304.21 30.3966C1298.71 30.4153 1301.96 33.9743 1299.1 37.2902C1301.73 38.9664 1304.38 40.6345 1307 42.3107C1305.49 42.1058 1303.7 41.9541 1302.37 41.712C1302.19 46.4339 1305.37 45.3081 1305.92 46.1832C1308.99 51.1287 1293.35 48.6327 1292.08 55.5046C1294.57 56.2682 1297.19 57.0134 1299.75 57.7677C1299.02 58.6153 1298.27 59.4634 1297.54 60.3109C1291.75 55.5712 1285.25 53.8921 1278.5 50.94C1277.89 51.1355 1277.28 51.3361 1276.68 51.5223C1276.85 53.6544 1277.02 55.7784 1277.2 57.9105C1276.28 58.162 1275.35 58.4116 1274.43 58.6631C1277.14 51.6408 1273.38 51.7365 1268.85 47.4521C1271.26 44.9842 1274.24 46.4804 1274.03 41.8823C1265.75 45.42 1256.05 40.4204 1247.99 44.4145C1245.99 45.4016 1246 51.3333 1241.3 50.7862C1241.46 50.1342 1241.48 48.9571 1241.59 48.1002C1233.45 50.9411 1228.52 52.6394 1220.07 49.7426C1220.55 51.8745 1221.03 54.0154 1221.52 56.1473C1223.32 55.0855 1225.11 54.0068 1226.9 52.945C1228.12 56.4655 1226.31 58.0192 1231.67 57.9819C1236.05 57.954 1233.44 56.3995 1234.63 55.3563C1236.25 53.9322 1237.67 56.7338 1239.4 55.1421C1240.75 53.9219 1239.29 51.0172 1242.8 51.753C1241.39 55.516 1239.95 59.4016 1238.53 63.2112C1237.68 62.3636 1236.83 61.5029 1235.98 60.646C1236.84 59.64 1237.69 58.6473 1238.55 57.6414C1235.51 59.4482 1232.64 61.1524 1229.49 63.0244C1230.51 57.5848 1227.26 59.6243 1225.5 60.267C1222.75 61.2718 1225.1 57.5282 1223.3 58.1522C1221.5 58.7859 1219.55 62.9683 1216.29 62.0741C1218.04 59.6528 1215.66 57.4815 1216.12 55.2465C1216.58 53.0115 1220.03 52.5166 1216.72 50.0777C1210.35 51.9312 1217.26 60.4425 1212.96 61.8215C1207.79 63.4793 1206.56 49.6051 1208.1 46.6226C1209.32 44.2754 1213.48 44.7475 1214.71 42.4096C1207.24 38.1904 1207.17 46.5197 1205.9 48.1497C1201.26 54.0824 1204.37 38.2476 1198.88 43.9751C1198.98 41.0139 1199.07 38.3506 1199.17 35.5105C1198.22 36.0507 1197.59 36.7685 1196.45 37.1968C1199.82 42.9665 1197.06 42.7192 1195.64 42.7282C1193.41 42.7468 1196.86 45.5611 1196.27 46.2876C1194.67 48.2317 1192.15 47.3489 1193.69 49.8909C1193 48.708 1192.25 47.5216 1191.53 46.348C1188.92 47.8219 1182.78 60.1813 1188.62 57.6853C1188.08 62.2773 1186.19 60.0702 1184.72 59.3716C1183.24 58.6737 1183.27 61.5981 1181.97 61.058C1176.82 58.8969 1180.19 53.8945 1181.01 49.9733C1174.2 52.6743 1180.86 54.4613 1171.05 56.2682C1170.1 59.4629 1174.64 62.872 1170.86 64.7162C1170.17 59.166 1167.39 55.1789 1161.97 53.3349C1161.44 54.611 1160.92 55.8984 1160.39 57.1745C1157.43 52.0516 1158.95 46.7245 1153.47 53.0768C1156.41 41.3876 1154.39 48.8658 1149.49 44.1069C1148.49 43.1475 1150.79 40.7224 1149.4 39.4929C1148.77 38.9384 1147.24 40.769 1145.7 39.3555C1144.95 38.657 1141.44 34.1499 1139.01 36.2905C1140.79 41.9536 1136.17 46.7713 1140.13 51.4564C1132.81 50.3014 1127.68 53.0204 1135.89 45.2988C1134.03 43.585 1132.17 41.8785 1130.31 40.174C1129.01 41.5246 1127.7 42.8645 1126.4 44.2058C1126.2 39.5514 1126.4 38.2457 1121.29 39.0644C1123.51 37.9659 1125.72 36.8491 1127.94 35.7412C1128.02 34.8013 1128.33 33.8245 1128.25 32.9124C1125.53 34.7 1117.85 35.4694 1115.99 36.708C1114.13 37.9468 1117.73 38.2858 1117.19 39.4874C1112.73 49.3955 1113.08 42.0879 1109.88 43.7883C1108 44.7943 1112.49 45.8866 1111.48 46.315C1107.76 47.8854 1106.03 42.6196 1102.73 42.5524C1103.9 45.5414 1105.06 48.5768 1106.21 51.5937C1102.74 51.4354 1098.88 51.4088 1095.66 52.3682C1094.39 52.7427 1095.35 54.9657 1095.14 55.1146C1094.12 55.8784 1089.95 57.0883 1089.51 57.0976C1086.19 57.1153 1086.09 54.0363 1082.86 53.8678C1084.13 53.6071 1085.32 53.3721 1086.56 53.1207C1087.12 48.1289 1087.7 43.1373 1088.26 38.1361C1085.1 37.7729 1081.93 37.4172 1078.76 37.054C1081.08 38.721 1083.41 40.3801 1085.72 42.0471C1082.1 46.08 1078.47 50.1221 1074.85 54.1644C1072.96 51.6869 1071.08 49.21 1069.19 46.7325C1064.07 47.386 1065.1 57.4429 1062.67 48.633C1061.16 49.3778 1059.64 50.1222 1058.13 50.8577C1058.35 49.6006 1058.56 48.341 1058.78 47.084C1056.96 47.8571 1055.13 48.6251 1053.31 49.4075C1055.23 53.8592 1057.11 58.5438 1059 62.8651C1055.42 63.8325 1055.35 60.0559 1054.81 59.1135C1053.4 56.6172 1050.58 59.9843 1049.45 57.6743C1049.07 56.8813 1052.59 54.3951 1051.38 51.5278C1051.14 50.972 1046.44 40.4318 1043.43 42.8655C1043.49 44.7749 1043.72 47.1162 1043.84 49.1933C1039.81 50.3531 1037.75 40.3861 1038.28 37.5923C1036.13 39.5482 1032.99 39.7116 1032.55 42.7666C1031.45 42.8411 1030.36 42.9118 1029.26 42.9863C1030.4 35.5459 1025.82 36.9064 1025.52 43.3049C1027.41 43.4633 1029.3 43.63 1031.19 43.7883C1029.76 51.6308 1035.5 56.3646 1023.56 49.0999C1021.28 45.0202 1027.62 49.6558 1025.76 46.6007C1022.53 44.8225 1019.49 46.3103 1016.42 43.4697C1012.6 39.9212 1017.3 36.5082 1008.4 41.0254C1028.04 52.342 1005.71 48.6702 996.482 52.1814C993.947 41.0042 986.158 37.464 975.432 40.7892C976.55 43.9 979.924 42.2973 981.868 43.3214C983.812 44.3458 981.709 46.1914 984.131 47.6443C986.553 49.0969 991.698 51.0717 994.15 53.269C992.073 55.0297 981.821 59.1921 988.6 54.1918C983.54 51.1095 981.163 47.942 974.892 47.3642C973.013 52.2167 973.152 55.2383 967.039 55.3783C970.654 48.6353 963.708 43.9488 965.237 36.9826C969.573 38.6051 967.149 45.3759 969.656 48.6166C969.914 48.9405 973.953 47.2431 974.892 47.3642C970.815 41.282 969.406 39.0181 971.914 31.7808C969.03 32.4142 967.237 31.5056 966.974 34.9612C966.373 33.4621 965.769 31.9617 965.177 30.4625C964.239 30.4999 963.394 30.6387 962.399 30.6109C963.769 35.8235 961.114 32.6146 959.226 34.9777C957.338 37.3435 959.871 41.4584 954.687 41.5142C956.415 42.7344 957.995 43.7813 959.667 44.9363C956.324 46.2774 952.97 47.627 949.627 48.9681C951.975 52.1531 957.063 56.884 956.924 61.0744C955.384 59.4924 950.109 62.2728 949.532 62.3872C947.297 62.8157 948.515 60.1729 948.346 60.1077C944.834 58.8234 941.942 59.7232 940.608 55.7189C937.969 57.5256 935.979 56.4955 933.181 56.5977C931.641 56.6536 931.94 59.5948 931.039 59.0366C925.047 55.3111 930.755 51.5103 919.197 58.7454C920.597 60.7943 921.977 62.8904 923.376 64.9579C922.071 65.731 920.773 66.5083 919.468 67.2814C918.594 66.9088 917.728 66.5334 916.855 66.1609C916.874 61.7184 916.896 57.2666 916.915 52.8241C915.957 52.5819 914.995 52.3467 914.037 52.1045C915.681 51.6668 917.328 51.2295 918.972 50.7917C919.122 50.01 919.262 49.228 919.413 48.4463C916.971 47.2354 914.537 46.0137 912.095 44.7935C912.048 46.3389 912.002 47.8951 911.955 49.4405C906.451 47.2889 906.321 45.9807 901.09 50.237C897.06 50.1904 893.779 56.6519 891.45 59.3716C890.615 58.5056 889.778 57.6285 888.933 56.7625C888.398 58.0479 887.856 59.3277 887.321 60.613C886.26 58.8249 885.184 57.0363 884.123 55.2575C883.532 59.3163 883.225 60.5835 887.366 62.0082C885.948 67.0564 878.658 64.8295 875.69 63.1343C873.439 61.8479 875.937 57.6372 875.655 57.125C874.715 55.385 871.004 56.8864 870.225 56.5977C866.928 55.3963 864.618 55.6066 861.641 54.6752C861.062 54.4888 859.441 51.8203 859.304 51.7365C858.233 51.2801 855.59 49.9831 855.29 49.9458C839.788 47.9538 856.352 59.5314 841.937 58.3115C842.369 59.8383 842.766 61.3548 843.188 62.8816C842.099 62.9747 840.999 63.0632 839.91 63.1562C838.529 61.8802 840.2 59.5596 837.458 61.4315C837.636 59.5501 837.815 57.6678 838.003 55.7958C836.81 56.811 835.661 57.8181 834.44 58.8333C832.524 52.3043 825.529 50.8215 826.027 43.1566C826.196 40.5486 831.155 37.8725 828.534 35.0876C826.405 34.5393 827.846 37.6541 826.977 37.8175C820.704 38.9539 821.068 34.588 818.504 35.7522C818.101 37.6233 817.676 39.5311 817.263 41.4209C816.296 40.8716 815.327 40.3223 814.35 39.773C814.125 41.0304 813.89 42.2892 813.664 43.5466C814.576 43.6304 815.601 43.7155 816.437 43.7993C815.272 48.6695 804.568 50.8572 808.65 46.705C810.312 45.0194 813.356 45.7355 811.432 39.9817C808.568 40.8107 805.318 41.6576 802.303 42.4865C802.21 41.2477 802.122 40.0066 802.028 38.7678C797.965 39.5697 801.66 44.5227 801.653 47.1774C800.723 47.2519 799.784 47.3172 798.855 47.3916C798.461 46.1913 798.087 44.935 797.674 43.7718C797.636 45.682 797.116 50.122 794.346 48.4737C792.565 47.4009 795.369 42.5817 791.973 43.25C792.227 46.23 793.454 49.8595 789.671 50.8192C789.295 47.709 788.776 44.8597 788.485 41.5911C783.781 44.5791 781.64 39.7761 776.118 43.25C772.615 45.4483 767.816 53.2515 765.553 41.2286C762.99 40.9121 763.804 43.9062 763.045 44.5793C759.467 47.7648 756.805 42.0638 756.138 41.7285C751.886 39.579 749.979 41.5525 746.514 38.8612C746.702 41.0873 746.804 43.1945 746.955 45.3648C750.129 42.0302 751.737 42.1867 756.189 42.9039C754.695 43.3509 753.202 43.8082 751.709 44.2552C751.953 46.0617 752.195 47.8685 752.43 49.6657C766.198 42.5495 762.987 53.7927 751.444 56.2517C750.448 52.9085 749.417 49.5741 748.431 46.2217C741.763 51.2884 738.625 46.8899 731.084 45.8372C730.188 45.7168 726.922 47.6426 725.519 47.7377C725.542 47.7505 725.565 47.7633 725.589 47.7761C724.715 50.9332 725.898 52.3862 726.039 55.208C725.279 55.5619 724.518 55.9143 723.757 56.2682C722.058 54.1172 722.656 52.3504 719.313 52.8626C719.763 55.0046 720.208 57.1472 720.659 59.2892C716.996 59.3638 714.599 57.0364 711.19 58.0424C711.763 57.232 712.328 56.4194 712.901 55.609C705.482 53.5412 711.386 40.9473 705.779 47.2159C705.423 46.1172 705.075 45.0078 704.718 43.9091C707.028 43.6391 709.34 43.3773 711.64 43.1072C711.687 41.5523 711.738 40.0041 711.775 38.4492C709.305 38.9149 706.823 39.3952 704.353 39.8609C706.156 38.8177 707.97 37.7731 709.773 36.7299C706.909 35.9849 704.044 35.2394 701.18 34.4943C704.222 40.2119 700.278 40.9112 701.02 46.5732C695.948 41.8601 691.965 35.6475 684.103 39.6247C682.545 40.417 683.392 44.3737 678.968 39.5588C680.039 45.8544 674.498 48.8086 675.21 54.7961C676.749 54.5074 678.346 54.3258 679.839 53.9721C678.139 51.8952 677.857 46.1815 680.44 44.4859C683.736 42.3251 688.544 46.285 688.347 39.9433C689.662 40.2412 690.884 40.417 692.161 40.6683C691.636 42.2415 691.121 43.8246 690.605 45.3977C694.238 42.9313 696.521 43.7334 698.267 47.6992C693.938 48.6119 689.619 49.5149 685.289 50.4182C685.927 50.6879 686.573 50.9597 687.211 51.2202C683.934 55.2719 687.315 59.1096 681.2 59.9759C681.238 58.1228 681.268 56.2684 681.306 54.4061C679.08 59.3613 672.985 59.3344 674.929 65.0348C673.089 63.2839 672.714 62.1764 671.671 65.249C666.816 60.9179 663.697 55.4408 665.425 48.9022C663.622 49.9545 661.818 51.0083 660.025 52.0606C661.067 53.8486 662.111 55.6282 663.153 57.4162C660.016 57.3044 656.856 57.1945 653.729 57.0921C653.428 51.8023 659.767 55.4873 657.938 50.7588C657.572 49.8097 655.884 51.8427 655.44 51.3081C650.764 45.5244 658.105 49.703 656.727 45.2714C649.758 43.9022 655.335 36.4766 645.736 42.7172C645.482 41.19 645.21 39.632 644.975 38.1141C641.643 38.0225 641.913 41.4721 639.049 42.124C637.256 42.5295 635.005 36.472 633.024 40.5969C632.67 41.3574 636.003 48.7611 629 48.4353C623.565 48.1828 625.827 42.9506 622.889 41.0968C619.949 39.2432 613.224 46.498 611.242 38.2734C612.782 39.3628 614.743 39.9505 616.452 40.8441C617.147 39.2423 617.824 37.6578 618.509 36.0653C614.602 38.1329 610.564 35.696 607.934 39.5148C602.722 33.6748 596.892 39.0943 598.47 45.6888C600.186 44.7381 598.319 41.8625 600.702 43.6949C600.946 45.2318 601.203 46.7611 601.448 48.298C597.39 48.1117 594.573 48.1548 596.423 43.4697C595.794 43.3579 595.17 43.2464 594.541 43.1347C594.428 46.5251 594.328 49.9281 594.216 53.3185C593.464 53.7003 592.71 54.0791 591.959 54.461C591.123 53.7163 590.286 52.9629 589.441 52.2089C590.578 46.8439 592.513 46.6667 586.108 43.6675C586.089 45.521 586.062 47.3672 586.043 49.2208C580.68 46.8644 580.539 42.3743 573.806 42.5414C578.971 36.106 581.797 47.5136 581.779 34.6042C583.075 35.4518 584.381 36.3108 585.677 37.1584C585.875 35.2862 586.07 33.4113 586.258 31.5392C579.299 32.5267 567.74 44.8391 563.08 36.675C562.517 37.6713 561.952 38.5374 561.379 39.6082C556.814 34.6809 554.843 45.743 550.213 39.372C549.735 38.7034 550.735 28.3104 544.707 28.6829C544.858 30.0336 544.936 32.3071 545.058 34.011C543.753 33.1823 542.455 32.3151 541.159 31.4677C540.924 32.7154 540.678 33.9625 540.443 35.2194C542.669 35.7037 544.889 36.1962 547.115 36.6805C545.265 37.1088 543.404 37.5375 541.554 37.9658C543.967 40.0049 545.056 40.0266 543.601 43.2939C541.507 43.4895 539.41 43.6971 537.315 43.8927C537.1 44.7298 536.885 45.5767 536.67 46.4139C537.684 48.9099 538.708 51.351 539.723 53.8842C534.266 51.8445 529.522 51.7337 525.334 46.8259C524.62 45.997 527.144 42.7451 522.281 45.6779C522.206 43.9556 522.075 42.5571 521.99 40.965C516.036 45.7898 514.08 44.3496 507.872 40.8661C511.891 44.1168 508.305 42.0026 507.281 43.7444C506.58 44.9444 509.317 44.7671 509.008 46.0239C508.698 47.2719 505.14 52.3114 508.182 52.9175C515.639 42.5879 517.671 54.9378 527.251 49.9733C525.776 51.3052 524.291 52.6402 522.816 53.9721C523.511 54.8749 524.132 55.6939 524.883 56.6527C519.54 54.6318 522.139 55.9447 519.943 57.537C517.746 59.1298 513.752 60.4829 511.075 60.9206C510.232 61.0582 511.121 58.7414 509.218 58.5257C507.922 58.3767 504.38 61.8113 503.562 57.7622C503.027 55.1265 508.717 47.8687 500.85 47.886C499.369 45.302 503.141 46.1046 503.222 45.7932C503.908 42.7195 499.071 40.4084 496.836 42.7556C496.655 42.9581 498.42 45.3533 496.501 46.2931C491.945 48.5378 489.315 45.7909 486.366 42.0745C486.046 46.4336 482.213 51.6396 477.442 50.0282C477.198 51.2757 476.965 52.5341 476.721 53.7909C477.462 53.1306 478.203 52.4792 478.943 51.8189C479.751 52.6013 480.607 53.1708 481.396 54.093C476.598 55.1649 475.919 61.1725 473.618 63.3705C465.745 70.8789 470.517 54.996 471.937 52.2583C472.96 53.3667 473.95 54.604 474.965 55.7683C474.852 54.2501 474.738 52.7203 474.634 51.1927C462.848 51.2391 472.839 41.3373 466.857 38.5151C465.316 45.9847 460.923 46.7047 455.325 41.9647C454.706 42.0019 454.084 42.0115 453.464 42.058C453.361 43.1471 453.362 44.8119 453.193 45.5295C446.45 46.7963 445.249 35.293 444.61 34.2032C441.774 29.3699 439.565 36.0574 438.729 36.1147C435.208 36.3476 434.184 33.3782 430.832 34.6536C427.226 36.0318 429.691 38.3103 428.594 40.3498C427.714 41.9694 424.87 42.2578 423.695 43.9366C424.162 42.5636 424.681 41.2171 425.146 39.8389C421.409 37.9671 418.355 36.1426 414.11 35.6863C409.321 45.7328 405.246 28.7856 406.898 42.5304C410.918 43.4712 413.166 45.0375 415.316 48.5397C412.678 48.9866 410.037 49.4219 407.399 49.8689C406.629 48.3604 406.082 46.8902 405.172 45.3538C403.2 48.5573 398.628 47.1826 396.833 48.1222C388.428 52.5278 391.028 57.992 383.355 48.8088C388.886 47.914 388.877 43.4538 394.361 44.0684C393.178 40.883 390.391 41.543 392.194 37.7242C386.888 38.6648 388.603 42.0743 386.538 45.1011C384.757 47.7105 381.171 47.8566 381.373 51.2476C381.007 49.3832 380.723 47.5783 380.357 45.7163C376.921 45.7349 373.484 45.7361 370.047 45.7548C371.512 43.8084 372.977 41.8584 374.442 39.9213C373.335 39.1862 372.226 38.4538 371.118 37.7187C362.666 43.7729 348.09 32.6771 350.418 47.886C346.343 48.3703 345.833 46.4628 343.617 43.5851C343.373 44.7397 343.135 45.7001 342.891 46.9852C340.262 45.7765 338.244 50.1114 335.924 48.9846C333.605 47.8664 333.029 43.7718 332.691 50.6544C331.188 48.6802 329.695 47.0401 328.202 45.2055C327.301 46.7691 326.401 48.3146 325.509 49.8689C324.1 49.0494 322.689 48.2332 321.28 47.4136C320.527 50.699 314.988 49.2829 312.546 51.4893C310.228 47.9478 310.292 36.7971 304.839 38.7953C304.98 41.5609 305.118 44.3184 305.259 47.084C304.01 46.5067 302.759 45.9311 301.501 45.3538C301.426 44.4511 301.36 43.5484 301.285 42.6458C301.924 42.9251 302.554 43.203 303.192 43.4917C302.638 41.9641 302.095 40.4437 301.551 38.9161C299.644 41.1791 297.736 43.4423 295.82 45.7053C298.402 47.4187 300.985 49.1333 303.568 50.8467C300.327 52.8772 298.072 50.8519 295.255 53.1152C292.804 49.297 293.709 47.0969 294.704 42.9534C293.793 43.3072 292.872 43.6487 291.961 44.0025C292.562 39.8584 291.022 37.3892 296.346 37.7242C295.98 36.5422 295.606 35.4152 295.25 34.1867C294.376 34.373 293.81 33.3739 292.852 33.8297C290.241 35.0778 288.24 42.3567 288.418 44.9089C288.514 46.2457 291.089 43.6891 290.985 45.579C290.731 50.1877 284.825 48.1185 293.343 52.7472C290.516 55.6812 289.884 53.4685 286.766 52.6209C287.01 54.1566 287.247 55.6827 287.482 57.2184C286.036 56.5108 284.589 55.8058 283.143 55.0982C285.153 47.2093 274.493 44.2463 284.089 37.3451C281.253 36.9913 278.427 36.6355 275.6 36.263C276.183 35.4529 276.765 34.6509 277.347 33.8407C278.624 34.2691 279.894 34.6904 281.171 35.1095C279.669 33.629 278.164 32.1573 276.661 30.6768C273.111 32.5117 271.72 35.3338 270.095 38.8172C274.226 41.3593 272.877 37.8869 276.096 37.1968C275.983 39.4029 276.132 41.4321 275.851 43.7499C274.187 39.1803 268.761 42.5047 267.503 42.7282C263.673 43.4069 266.676 38.9171 264.114 38.8227C261.55 38.7296 258.526 41.4019 256.432 36.9497C256.469 39.4451 256.637 42.027 256.787 44.2991C252.796 45.1188 253.592 42.1708 253.179 41.7889C246.586 35.5113 243.008 40.8111 235.466 41.4538C236.424 42.2268 237.392 42.9246 238.359 43.651C232.67 48.9493 236.502 47.327 241.442 49.078C236.812 48.547 234.16 53.0593 230.892 54.4006C227.624 55.7395 222.019 53.4221 219.971 51.6157C224.658 48.7096 229.713 50.626 234.916 49.825C234.324 47.2829 233.749 45.1314 233.139 42.3382C229.974 47.6737 228.141 44.1061 227.098 43.3983C224.037 41.3222 224.133 45.9017 222.284 40.9759C222.359 42.6705 222.414 44.0952 222.489 45.6779C216.168 44.97 209.351 41.9743 205.237 48.2321C204.861 44.1621 204.578 40.241 204.146 36.0873C201.469 39.151 199.178 36.0136 196.924 36.7299C194.679 37.4471 195.534 40.7363 192.895 42.0031C192.406 42.236 191.389 40.1773 190.187 41.6955C188.973 43.2218 184.497 54.57 183.961 44.6562C181.698 44.6096 179.556 44.2471 177.34 44.0794C179.5 43.5206 181.66 42.9794 183.811 42.4206C181.97 40.0178 180.141 37.6222 178.301 35.2194C178.066 37.3617 177.83 39.5427 177.605 41.6571C172.646 44.265 169.048 40.7624 164.042 41.5911C163.206 41.7309 165.178 45.9664 161.469 44.8869C157.76 43.8065 155.007 35.9011 148.687 38.9546C148.367 39.1129 146.496 45.1674 144.232 40.9759C143.717 40.026 145.885 38.6203 144.703 37.3726C143.52 36.1245 138.24 35.0982 137.826 32.1269C137.883 33.1791 138.212 34.2694 138.372 35.3402C137.47 35.8431 136.56 36.3463 135.649 36.8398C135.565 34.9865 135.473 33.1305 135.389 31.2865C130.205 35.5988 127.526 42.6334 119.844 40.3058C122.004 42.9974 124.164 45.6998 126.315 48.3913C126.907 46.5005 127.499 44.597 128.082 42.7062C131.622 43.4605 135.172 44.2095 138.712 44.9638C139.294 42.8122 139.866 40.6667 140.449 38.5151C141.388 38.7945 142.318 39.0652 143.257 39.3446C143.022 40.8999 142.785 42.4471 142.541 44.0025C144.4 43.6207 146.262 43.2308 148.111 42.849C144.345 52.0301 137.595 42.0681 138.081 49.7481C137.246 48.5565 136.409 47.3566 135.574 46.1557C135.208 49.8797 133.509 48.8079 130.514 48.2211C131.2 50.056 131.957 51.8659 132.586 53.7195C129.675 51.1304 124.51 51.3818 121.495 50.3853C120.171 49.9476 121.494 47.2476 121.1 46.9302C119.081 45.2723 115.221 49.9833 114.413 49.6108C109.586 47.3936 106.449 38.4621 101.181 44.3486C106.619 45.8016 103.66 45.1879 105.595 48.4573C106.201 49.4823 113.226 51.6206 104.429 50.6709C103.397 50.5521 87.4353 44.3811 92.6823 39.6522C90.0995 41.1611 88.0773 42.9058 85.7105 44.5079C79.925 32.0453 81.9273 43.753 83.6084 50.1985C82.6599 50.2264 81.7575 50.2919 80.7807 50.2919C82.8563 43.5204 72.2817 43.0999 68.6939 46.5183C67.4919 47.6546 70.8531 49.8221 68.0733 50.8467C66.7496 50.3718 65.2479 49.7569 63.8492 49.2263C65.8777 53.5105 61.8966 55.1616 61.9524 59.5199C59.4074 55.6362 57.4607 47.4043 58.8593 42.9424C56.756 44.749 54.6416 46.5534 52.5382 48.3694C53.5149 49.4032 54.5043 50.428 55.4811 51.4619C48.6061 48.7235 39.7663 54.9547 38.3294 45.7987C37.4184 45.8639 36.4977 45.9203 35.5867 45.9855C35.3049 47.5316 35.0326 49.0808 34.7509 50.627C30.6288 49.286 26.5159 47.9361 22.3938 46.5952C26.0642 45.6356 26.9379 43.4349 30.787 45.2219C29.3037 43.4437 27.7928 41.6556 26.3377 39.8774C20.5429 44.6648 19.7524 47.8113 11.0278 46.3864C10.6333 46.3212 4.04114 42.3064 3.81574 41.9152C2.78305 40.127 4.35064 37.5292 3.89081 36.6256C2.6135 34.0921 -5.14812 27.7307 -4.99785 26.7713C-3.10064 14.998 23.0135 14.842 30.0763 14.2365C103.333 7.95904 174.977 16.3576 247.773 14.9232C248.522 14.901 248.195 13.163 248.514 13.0885C250.495 12.652 252.441 15.3607 253.174 15.4724C254.739 15.7028 253.877 13.2002 255.02 13.1984C266.835 13.2263 277.985 14.6979 289.809 14.2695C290.579 14.2416 289.793 16.2439 291.146 15.8899C291.844 15.6961 294.029 12.6242 295.605 12.5777C301.108 12.4194 305.731 13.4043 311.535 13.3577C314.71 13.3299 319.472 13.591 323.022 13.5444C324.589 13.5247 326.222 12.1193 327.771 12.0723C329.969 12.0071 329.52 14.856 329.858 15.033C331.342 15.8059 331.548 12.6791 332.956 12.7535C335.577 12.9025 335.718 14.9902 339.042 14.8133C341.418 14.6829 346.857 13.0346 349.853 12.5502C356.859 14.9717 365.688 14.0104 372.225 13.2094C376.094 12.7345 376.452 15.6575 378.03 15.6482C383.589 15.5916 387.808 11.8584 393.03 11.7373C399.959 11.5795 406.1 14.0481 412.814 14.2256C413.903 14.2535 413.653 11.5753 414.721 11.5066C418.675 11.2551 423.731 10.7677 427.253 11.1495C431.178 11.5692 432.626 15.4566 436.467 14.665C437.593 14.4299 437.923 11.0214 439.81 10.5838C442.825 9.8956 446.13 12.9014 448.234 13.2368C451.117 13.6839 448.609 10.2114 452.498 10.6772C452.658 10.6973 453.239 13.1795 454.074 13.0611C456.507 12.7258 456.265 10.771 459.825 10.9573C460.166 10.983 464.886 13.3482 465.355 13.3577C468.116 13.3949 473.675 14.223 475.31 13.7202C481.152 11.9319 476.553 8.19841 481.521 16.3019C483.709 14.3185 485.878 12.3081 488.197 10.3805C486.65 12.1782 492.931 14.7722 493.373 14.6046C497.024 13.2537 494.849 10.1007 499.478 10.6222C493.364 17.906 505.451 11.561 508.147 11.3748C521.126 10.4715 532.924 12.2892 545.969 12.2426C550.336 12.2235 556.188 10.6838 560.808 10.7211C561.885 10.7233 561.071 12.4471 562.019 12.4843C562.965 12.5099 561.916 10.5748 562.995 10.6772C569.71 11.348 574.971 14.9993 581.123 10.4355C581.422 11.0953 581.413 11.6167 581.909 12.3415C586.943 8.2529 596.638 13.7513 600.282 14.5057C605.981 15.6786 607.437 12.915 611.578 13.473C617.053 14.2182 625.274 19.6172 621.602 10.7046C625.358 10.4253 628.975 10.3482 632.768 11.177C633.191 11.271 632.9 13.5363 633.069 13.5829C634.139 13.9081 634.488 11.8798 635.211 11.7867C637.171 11.5362 633.972 13.9648 636.767 13.2863C638.242 12.923 639.079 11.154 643.173 11.1166C667.855 10.921 694.651 11.5546 719.953 11.8526C721.691 11.8713 720.547 9.68055 722.726 9.82026C730.296 10.3051 743.846 13.9919 750.373 13.4895C756.9 12.9866 755.427 9.78297 759.512 8.44155C760.301 8.18075 759.654 10.0065 760.368 10.0345C765.167 10.2023 770.888 13.0501 774.777 13.4785C777.348 13.7656 777.142 10.8933 778.926 10.6881C781.584 10.3901 784.319 13.292 785.737 13.3851C792.404 13.7943 796.988 11.457 803.214 12.6491C802.971 12.017 802.81 11.4318 802.604 10.809C809.975 10.9114 817.339 11.0141 824.71 11.1166C824.363 10.5391 824.027 9.95665 823.679 9.36985C832.329 9.68677 831.342 15.9457 830.581 2.72894C831.21 2.26333 831.877 1.72362 832.478 1.29529C832.234 8.10361 837.466 13.086 844.124 14.8188C844.612 14.9492 847.889 8.3109 847.532 16.1536C848.387 14.2349 848.896 12.9123 849.62 11.2264C851.028 13.6009 852.455 15.9472 853.864 18.3123C854.624 17.9584 855.396 17.617 856.156 17.2631C856.269 15.7263 856.182 14.1306 856.426 12.6216C859.957 12.3888 867.199 14.2887 869.989 14.0937C876.921 13.6001 883.977 9.44493 889.368 13.9344C891.994 13.4767 889.386 10.4603 893.292 10.8419C893.733 12.3691 894.148 13.8329 894.608 15.4065C897.8 8.58311 898.467 12.734 902.841 14.1596C905.799 15.1282 907.737 13.4606 910.554 13.7861C911.268 13.87 911.166 15.8727 911.655 15.8075C913.29 15.601 917.957 12.8444 919.112 12.7699C929.574 12.0436 938.562 12.3528 948.526 13.0885C949.597 13.163 948.208 11.1866 949.317 11.2704C951.099 11.402 950.05 14.4391 951.083 14.5881C953.964 14.9866 953.986 11.7841 958.005 11.6164C971.238 11.0673 986.452 13.473 1000.28 13.6873C1000.71 13.6873 1000.68 11.8108 1001.15 11.7922C1004.21 11.7005 1007.31 14.2369 1010.09 14.2091C1014.7 14.1718 1018.17 11.5357 1022.72 11.545C1031.63 11.5543 1039.58 12.9041 1048.74 12.9787C1056.23 13.0439 1062.74 12.7936 1070.96 12.8029C1106.86 12.8402 1143.49 6.88409 1179.63 10.051C1180.55 10.1347 1180.17 11.7926 1180.45 11.7208C1183.12 11.0036 1183.36 8.76671 1184.31 13.4511C1187.7 12.5279 1188.78 9.00856 1192.88 9.25999C1195.07 9.3918 1193.43 14.8464 1197.13 12.0339C1200.47 9.49133 1196.79 6.50196 1206.72 9.5566C1206.99 9.64057 1208.28 12.9654 1210.35 12.0998C1212.42 11.2429 1210.02 8.86213 1215.02 8.14493C1226.75 6.46854 1241.59 9.34253 1255.23 8.45803C1256.08 8.40214 1264.32 6.62462 1265.94 5.80496C1269.08 4.21228 1268.43 1.74153 1272.51 1.136C1275.67 0.670284 1278.27 3.46906 1281.98 2.9102C1282.41 2.84228 1283.14 -0.0365976 1285.92 0.345024ZM594.551 56.2627C593.781 59.0873 592.391 69.4841 587.734 66.3201C587.293 66.0221 589.676 58.8723 587.104 57.7348C589.621 56.9803 592.072 56.736 594.551 56.2517C594.551 56.2553 594.551 56.259 594.551 56.2627ZM1306.11 66.6387C1302.62 66.1171 1299.13 65.6004 1295.64 65.0788C1298.05 63.8213 1300.46 62.5664 1302.85 61.2996C1303.94 63.0783 1305.02 64.86 1306.11 66.6387ZM872.357 61.7006C872.36 61.7006 872.363 61.7006 872.367 61.7006C868.704 63.0419 865.039 64.3857 861.376 65.7269C861.761 64.7396 862.147 63.7481 862.532 62.7608C865.424 61.2056 868.318 59.6525 871.201 58.0973C871.586 59.2985 871.972 60.4994 872.357 61.7006ZM901.295 51.2476C903.633 52.4213 903.061 54.4005 904.348 56.3286C904.348 56.3249 904.348 56.3213 904.348 56.3176C904.687 56.8195 906.269 57.2587 906.88 57.3338C906.655 56.095 906.364 54.872 906.12 53.6426C911.576 50.6433 922.247 61.3012 908.432 65.5951C908.638 64.0306 908.836 62.4741 909.042 60.9096C902.177 61.3474 894.523 57.9539 901.295 51.2476ZM539.347 60.7668C533.487 65.8897 531.608 66.9698 524.498 63.4583C525.502 62.0063 526.507 60.5545 527.511 59.1025C528.685 60.5835 529.85 62.0543 531.024 63.5352C531.028 63.5352 531.031 63.5352 531.034 63.5352C531.269 61.9798 531.504 60.4217 531.73 58.8663C534.265 59.4996 536.812 60.1335 539.347 60.7668ZM1125.63 54.9499C1127.27 65.1813 1126.8 59.2342 1122.13 61.5413C1120.51 62.3424 1122.09 64.1325 1121.08 64.4306C1115.66 66.0586 1115.22 59.2036 1116.43 55.6365C1119.51 55.3943 1122.61 55.1734 1125.62 54.9499C1125.63 54.9499 1125.63 54.9499 1125.63 54.9499ZM1266.44 52.8241C1266.44 52.8241 1266.44 52.8241 1266.45 52.8241C1266.59 55.3197 1264.4 55.991 1266.87 58.3555C1264.99 58.3461 1263.11 58.3263 1261.23 58.317C1261.78 58.0845 1262.34 57.8629 1262.9 57.6304C1262.41 56.7735 1261.92 55.9056 1261.43 55.0487C1260.76 57.9173 1260.14 56.2498 1258.17 55.2904C1258.72 58.3547 1259.26 61.4212 1259.8 64.4855C1257.51 63.5729 1255.21 62.6572 1252.92 61.7446C1252.89 60.9723 1252.87 60.1988 1252.84 59.4266C1251.97 60.4135 1251.12 61.4113 1250.25 62.3982C1250.02 61.4763 1249.79 60.5627 1249.56 59.6408C1248.52 60.3391 1247.47 61.0369 1246.43 61.7446C1246.11 59.5113 1248.41 58.5461 1244.34 59.1135C1245.59 56.8225 1246.83 54.5384 1248.09 52.2474C1254.21 52.4336 1260.32 52.6285 1266.44 52.8241ZM1083.19 58.0973C1089.92 57.6689 1088.02 59.2874 1086.47 64.3537C1085.38 62.2679 1084.28 60.183 1083.19 58.0973ZM736.259 53.5876C734.305 57.0432 732.344 60.4644 730.343 63.7989C726.361 65.727 722.378 59.4286 725.373 56.9603C728.98 53.9986 732.747 57.3133 736.259 53.5876ZM645.561 55.1256C650.433 56.728 645.849 60.8341 644.75 63.2276C643.402 59.3808 641.523 59.7201 638.504 59.2728C641.338 59.0234 644.755 54.8536 645.561 55.1146C645.561 55.1183 645.561 55.122 645.561 55.1256ZM814.665 57.4711C816.618 57.3677 818.56 56.4027 820.306 57.5755C819.779 60.8798 816.287 57.8735 818.784 62.7717C817.536 62.8555 816.285 62.9368 815.046 63.0299C815.834 61.0005 814.774 59.4837 814.67 57.4821C814.669 57.4784 814.667 57.4748 814.665 57.4711ZM1017.94 61.9917C1014.11 58.0797 1013.39 59.7537 1009.53 62.4641C1008.98 59.279 1013.58 53.9437 1016.47 52.7692C1016.96 55.8427 1017.45 58.9183 1017.94 61.9917ZM111.576 60.3604C112.496 56.3004 119.284 55.771 122.656 56.9712C122.255 57.5734 121.852 58.1836 121.45 58.7949C118.163 59.3165 114.863 59.8388 111.576 60.3604ZM637.067 58.9981C637.573 59.117 638.052 59.2058 638.504 59.2728C638.001 59.317 637.516 59.2478 637.067 58.9981ZM433.049 41.3769C434.654 37.5492 429.882 36.2632 435.676 37.7626C435.676 37.7589 435.676 37.7553 435.676 37.7516C439.508 38.7389 440.354 39.0026 443.904 39.3006C442.626 44.2178 435.424 45.9755 445.351 46.9907C445.482 46.9952 445.221 44.0692 446.807 44.4694C447.297 44.5939 448.863 46.9952 451.247 47.6937C452.017 47.9173 457.804 48.6578 449.915 48.7044C450.15 52.1321 449.726 55.6015 449.745 58.9267C446.666 59.8931 444.299 53.1813 441.042 53.3459C436.205 53.6067 433.743 60.3938 432.814 51.4893C436.881 49.3016 443.864 49.249 444.775 54.6038C448.71 54.669 449.84 50.2818 446.667 48.1112C433.077 50.8682 442.936 41.599 431.037 45.1011C430.896 46.3395 430.407 47.6723 430.481 48.8363C426.849 44.4782 432.476 42.746 433.049 41.3769ZM461.466 50.8467C459.118 53.464 456.778 56.1023 454.44 58.729C454.44 54.4631 455.729 50.6351 459.429 48.2321C460.105 49.1069 460.791 49.9811 461.466 50.8467ZM263.954 51.9672C263.616 54.2864 262.715 56.4117 262.057 58.6191C261.344 56.6632 244.438 54.7867 253.038 52.8681C254.288 52.5886 261.907 56.6896 263.954 51.9672ZM1044.55 58.4983C1042.56 56.9428 1040.58 55.3848 1038.59 53.8293C1041.64 52.8426 1044.7 51.83 1047.75 50.8247C1046.68 53.3819 1045.62 55.941 1044.55 58.4983ZM703.847 49.5174C704.689 49.6045 701.895 52.794 705.209 52.2913C702.739 54.3311 700.426 56.0577 698.012 57.9764C697.289 56.4675 696.558 54.9647 695.835 53.4558C695.271 54.4245 694.697 55.3873 694.133 56.356C694.471 54.1579 694.772 52.011 695.129 49.7756C699.196 54.4886 700.128 49.1448 703.847 49.5174ZM824.77 40.921C825.502 45.6983 819.613 48.5393 825.406 49.3032C824.307 52.4419 822.54 54.0882 819.15 54.3676C818.606 53.1673 818.063 51.9756 817.518 50.7753C817.443 53.9874 816.571 55.1813 814.665 57.4711C814.664 57.4674 814.662 57.4638 814.66 57.4601C809.506 57.6927 809.814 56.6217 808.575 51.341C814.031 54.3216 814.195 49.4969 817.914 46.6281C820.468 44.6554 823.803 45.5488 824.77 40.921ZM281.967 51.9123C278.108 55.945 281.571 59.7065 274.725 55.4222C275.166 54.3977 275.609 53.3818 276.051 52.3572C278.023 52.1989 279.995 52.052 281.967 51.9123ZM843.814 57.2953C843.372 49.9002 839.739 44.1437 839.119 56.1748C842.66 58.6244 840.931 51.8095 843.814 57.2953ZM647.222 43.5466C654.031 43.8917 652.744 52.2383 649.945 56.411C649.513 54.8927 649.081 53.3718 648.659 51.8629C647.466 52.5521 646.273 53.2427 645.08 53.9227C645.794 50.4671 646.509 47.0022 647.222 43.5466ZM963.846 49.1713C958.643 54.4526 969.462 52.1085 965.828 55.4058C962.926 58.0414 959.101 52.72 960.548 49.3856C961.552 49.2924 962.671 49.2272 963.836 49.1713C963.839 49.1713 963.842 49.1713 963.846 49.1713ZM933.736 50.6819C934.591 56.3245 933.359 54.6798 937.47 53.6645C938.644 53.3758 947.973 55.495 944.057 50.8192C940.723 50.8192 937.201 50.7378 933.736 50.6819ZM568.521 51.8024C568.458 49.3452 575.642 43.9495 576.564 45.2988C576.564 45.2952 576.564 45.2915 576.564 45.2879C579.052 48.967 571.475 49.4897 574.762 54.5379C567.483 50.0958 565.306 60.8405 565.813 46.6831C570.101 46.062 568.071 48.9804 568.521 51.8024ZM22.4489 48.7923C22.4455 48.7923 22.4422 48.7923 22.4389 48.7923C22.9213 48.9079 26.8961 52.5142 26.4127 53.7634C21.6328 52.6924 22.4846 50.3185 18.0346 54.2193C17.7906 52.9629 17.5816 51.7443 17.3189 50.4786C19.0846 49.7335 20.0633 48.2242 22.4489 48.7923ZM245.676 47.0126C247.433 46.3699 250.638 49.0331 252.638 48.8747C246.27 59.1017 238.661 49.565 245.676 47.0126ZM1200.58 53.1757C1200.58 53.1793 1200.57 53.183 1200.57 53.1866C1200.57 53.1811 1200.57 53.1757 1200.57 53.1702C1200.57 53.172 1200.58 53.1738 1200.58 53.1757ZM381.774 53.1482C381.547 52.4843 381.419 51.9076 381.373 51.4015C381.373 51.3538 381.373 51.3062 381.373 51.2586C381.496 51.8802 381.626 52.5089 381.774 53.1482ZM553.591 52.544C550.599 49.117 560.568 43.6688 563.791 44.9693C563.566 46.5334 563.531 47.9515 563.005 49.7481C560.404 45.6976 554.089 53.1214 553.591 52.544ZM780.863 51.2861C772.983 51.193 783.238 37.662 783.66 48.4573C783.644 48.6664 781.066 51.2677 780.863 51.2861ZM615.732 51.1268C617.739 47.0302 613.705 45.9423 620.156 46.6501C620.531 47.7112 620.907 48.7749 621.282 49.836C619.432 50.2643 617.581 50.6985 615.732 51.1268ZM729.242 33.5221C719.325 35.804 709.84 39.8297 716.3 51.1268C717.05 50.7639 717.811 50.4131 718.562 50.0502C718.675 44.5386 721.444 47.5472 725.499 47.7267C726.077 45.5386 728.325 45.0326 728.747 43.1731C729.563 39.5787 726.979 37.0516 729.242 33.5221ZM1147.95 42.492C1147.79 43.4327 1147.63 44.3784 1147.47 45.3098C1145.9 46.3717 1144.33 47.4284 1142.76 48.4902C1143.01 46.6848 1143.27 44.8796 1143.52 43.0742C1144.99 42.8787 1146.46 42.682 1147.94 42.4865C1147.94 42.4883 1147.94 42.4902 1147.95 42.492ZM471.131 39.2182C470.23 49.5729 473.378 47.6658 479.764 42.4316C476.89 41.3604 474.005 40.2893 471.131 39.2182ZM888.607 37.7187C888.814 40.6604 889.017 43.593 889.233 46.5347C892.623 43.4703 891.994 40.1015 890.369 36.2081C889.778 36.7106 889.199 37.2162 888.607 37.7187ZM937.445 36.4663C936.039 35.8526 936.756 38.2277 936.609 38.1801C933.05 36.9319 932.548 35.8424 928.181 37.6308C927.646 38.2547 927.12 38.9108 926.584 39.5533C928.604 45.7174 930.069 42.3578 934.342 45.98C933.572 43.8656 932.805 41.7484 932.035 39.6247C934.41 40.0717 936.776 40.5125 939.152 40.9595C939.433 40.3075 939.716 39.6615 939.998 39.0095C939.153 38.1715 938.281 37.2297 937.445 36.4663ZM1166.08 45.167C1168.39 45.4092 1170.71 45.6609 1173.02 45.9031C1173.11 44.385 1173.19 42.8566 1173.27 41.3385C1170.88 42.6142 1168.48 43.8913 1166.08 45.167ZM423.695 43.9366C423.512 44.4751 423.333 45.017 423.174 45.568C423.19 44.8964 423.39 44.3722 423.695 43.9366ZM16.3529 40.4651C13.733 39.4035 9.95768 40.1005 7.08392 39.8774C7.30984 43.6859 14.6139 42.6331 17.1788 44.9418C17.5909 44.2584 17.4604 40.9119 16.3529 40.4651ZM656.642 43.8817C657.299 41.9818 657.955 40.0909 658.603 38.191C660.191 38.396 661.782 38.6123 663.378 38.8172C663.425 37.2617 663.471 35.6928 663.518 34.1373C656.485 36.1581 658.106 31.6727 654.625 27.2492C655.301 32.7902 655.965 38.3314 656.642 43.8817ZM1239.59 35.3018C1234.51 36.3543 1232.71 38.3201 1235.58 42.9863C1237.37 41.9156 1239.17 40.8438 1240.97 39.773C1240.51 38.2831 1240.05 36.7917 1239.59 35.3018ZM331.16 40.4212C326.908 42.1647 326.837 35.9023 322.681 39.3995C324.907 40.5542 327.132 41.7218 329.348 42.8765C329.946 42.06 330.561 41.2377 331.16 40.4212ZM539.693 23.2229C537.899 21.0444 534.545 31.4002 529.503 23.7557C528.301 26.0373 527.548 28.2166 526.515 30.4516C525.914 28.0205 525.231 25.5584 524.658 23.146C524.655 23.146 524.651 23.146 524.648 23.146C520.074 23.9657 523.039 27.0146 522.936 29.5947C522.888 30.6642 519.493 28.8763 520.554 31.2041C522.386 35.1999 529.229 32.9022 529.247 37.7736C526.843 36.1815 522.148 37.5119 523.537 40.7617C525.058 44.3288 529.483 38.3508 532.3 41.311C528.263 33.5252 536.602 35.9301 537.551 41.9097C542.444 37.3179 537.946 35.4447 532.931 35.6588C535.993 31.0763 531.486 33.5521 530.744 29.743C533.901 27.4436 544.736 29.3603 539.693 23.2229ZM770.548 31.6655C767.166 31.961 761.882 29.3417 759.567 33.209C758.218 35.4622 763.514 37.2069 759.862 40.7452C763.157 40.4003 763.909 39.0181 763.346 35.917C764.097 35.5446 764.857 35.1815 765.608 34.8184C765.955 35.4235 766.311 36.0205 766.659 36.6256C767.053 35.3497 767.45 34.0839 767.835 32.808C768.632 33.0593 769.44 33.3109 770.237 33.5715C770.331 32.93 770.491 32.3716 770.548 31.6655ZM209.076 40.6134C210.015 40.5762 210.944 40.5391 211.883 40.4926C211.78 39.7373 211.657 38.9508 211.538 38.1746C211.453 37.5612 211.368 36.9478 211.283 36.3345C211.827 38.5259 216.3 42.1682 218.185 39.8279C219.132 38.6539 216.976 34.4858 220.992 33.7583C218.082 33.9726 215.385 34.5415 212.559 34.8953C212.813 33.6565 213.056 32.4044 213.31 31.1656C213.308 31.1638 213.306 31.162 213.305 31.1601C212.366 30.8808 211.416 30.5881 210.477 30.3087C210.007 33.7457 209.545 37.1764 209.076 40.6134ZM885.855 31.9017C882.652 34.3327 881.58 35.5952 883.092 39.5258C883.095 39.5277 883.099 39.5295 883.102 39.5313C884.295 37.7899 885.488 36.049 886.681 34.3076C886.408 33.5065 886.137 32.7027 885.855 31.9017ZM396.108 30.9624C389.299 45.8928 404.633 36.7402 401.713 31.6545C401.582 31.4216 396.746 32.611 396.108 30.9624ZM645.971 38.9546C647.84 38.8335 649.713 38.7241 651.592 38.603C651.16 36.7681 650.717 34.9396 650.285 33.1046C648.848 35.0513 647.408 37.0079 645.971 38.9546ZM1217.47 28.5236C1215.51 24.4252 1210.46 22.9404 1207.99 27.3975C1209.28 27.9191 1210.58 28.4414 1211.88 28.963C1209.43 29.4751 1207 30.0388 1204.54 30.523C1204.4 36.2327 1207.25 32.9202 1211.53 34.4943C1212.19 34.7482 1216.43 41.8355 1217.9 36.4937C1218.19 35.3958 1213.68 34.6492 1216.82 31.4568C1215.45 31.2055 1214.26 31.2612 1212.97 31.1217C1212.87 29.7618 1212.78 28.4004 1212.68 27.0405C1214.28 27.5329 1215.87 28.0312 1217.47 28.5236ZM750.858 32.1104C746.213 31.7953 745.639 34.0767 744.672 38.1087C746.832 37.6523 748.993 37.2028 751.154 36.7464C751.051 35.2043 750.961 33.6618 750.858 32.1104ZM1175.95 27.2163C1173.41 26.5568 1174.5 29.8386 1173.47 30.4625C1169.61 32.8094 1166.97 30.4638 1163.14 31.9346C1163.4 31.3013 1163.63 30.7093 1163.88 30.0945C1163.87 30.0945 1163.87 30.0945 1163.87 30.0945C1145.77 27.3285 1155.27 34.7714 1166.1 33.5605C1166.36 34.7807 1166.6 36.0025 1166.85 37.2133C1171.7 35.0804 1176.17 33.0281 1175.95 27.2163ZM456.602 30.4516C456.395 29.6878 458.151 24.8341 454.855 27.1064C452.245 34.193 456.526 30.6756 457.598 33.4012C456.705 34.0812 455.793 34.7427 454.91 35.4226C460.245 37.4252 461.023 35.7402 459.079 30.5614C458.94 30.2134 456.809 31.2129 456.602 30.4516ZM421.543 26.9581C420.81 37.3994 427.542 32.7042 427.298 29.4628C426.369 29.3336 425.646 31.1015 424.661 30.3197C423.665 29.5375 423.411 27.0985 421.543 26.9581ZM614.425 29.5123C614.228 29.4657 612.247 25.0773 612.443 28.5126C614.895 36.644 619.834 31.41 618.97 28.5785C617.336 28.7185 616.247 29.9387 614.425 29.5013C614.425 29.505 614.425 29.5086 614.425 29.5123ZM1248.11 26.0627C1248.02 25.7714 1243.08 24.0076 1242.44 25.6453C1241.91 27.4892 1241.65 29.4653 1241.26 31.3744C1243.98 29.6046 1249.49 30.9528 1248.1 26.0627C1248.11 26.0627 1248.11 26.0627 1248.11 26.0627Z" fill="#E3FFF5"/>
</svg>
