<svg width="106" height="99" viewBox="0 0 106 99" fill="none" xmlns="http://www.w3.org/2000/svg">
<mask id="mask0_389_650" style="mask-type:luminance" maskUnits="userSpaceOnUse" x="0" y="0" width="106" height="99">
<path d="M0.162109 19.9624L87.9304 0.044337L105.836 78.9468L18.0682 98.8649L0.162109 19.9624Z" fill="white"/>
</mask>
<g mask="url(#mask0_389_650)">
<path d="M91.3705 15.3815L86.758 12.4754L83.8679 17.0842L82.3334 16.1173L80.8535 18.4296L79.2923 17.4612L80.2574 15.9271L78.7226 14.9508L67.0667 33.4452L68.6009 34.4103L78.3449 18.9989L79.8616 19.9698L77.9205 23.0481L67.2076 40.0679L60.7937 11.8052L56.359 12.8116C56.2538 12.4559 56.1146 12.1156 55.944 11.786C55.7734 11.4565 55.5735 11.1468 55.3438 10.8551C55.1146 10.5652 54.8604 10.2978 54.5799 10.0553C54.3008 9.81049 54.0005 9.59681 53.6801 9.41025C53.3615 9.22329 53.0258 9.0684 52.6764 8.94477C52.3271 8.82114 51.97 8.72934 51.6023 8.67375C51.2364 8.61777 50.8688 8.59597 50.4979 8.60876C50.1273 8.62334 49.7622 8.67049 49.3995 8.7528C49.0386 8.83471 48.689 8.94975 48.3484 9.09655C48.0083 9.24514 47.6861 9.42346 47.3784 9.63231C47.0725 9.84076 46.79 10.0777 46.5283 10.34C46.2665 10.6023 46.0305 10.887 45.822 11.1936C45.6153 11.4997 45.4367 11.8221 45.2888 12.1638C45.1423 12.5033 45.0284 12.8541 44.9468 13.2146C44.8655 13.5768 44.8189 13.9425 44.8072 14.3134C44.7956 14.6843 44.8169 15.0514 44.8756 15.4176L43.0388 15.8345C42.9319 15.4792 42.7944 15.1384 42.6238 14.8089C42.4514 14.4798 42.2515 14.1701 42.0237 13.878C41.7944 13.588 41.5402 13.3207 41.2597 13.0781C40.9806 12.8334 40.6804 12.6197 40.36 12.4331C40.0396 12.2466 39.7056 12.0913 39.3563 11.9676C39.007 11.844 38.648 11.7526 38.2821 11.6966C37.9162 11.6406 37.5487 11.6188 37.1777 11.6316C36.8071 11.6462 36.4421 11.6934 36.0794 11.7757C35.7185 11.8576 35.367 11.973 35.0283 12.1194C34.6881 12.268 34.3642 12.4467 34.0583 12.6552C33.7524 12.8636 33.4681 13.101 33.2063 13.3633C32.9446 13.6256 32.7104 13.9098 32.5019 14.2164C32.2934 14.523 32.1166 14.8449 31.9687 15.1866C31.8222 15.5261 31.7083 15.877 31.6266 16.2375C31.5454 16.5997 31.4987 16.9654 31.4871 17.3363C31.4754 17.7071 31.4968 18.0743 31.5536 18.4409L29.7365 18.8533C29.6296 18.498 29.4921 18.1572 29.3198 17.8281C29.1492 17.4986 28.9492 17.1889 28.7196 16.8972C28.4921 16.6069 28.2362 16.3399 27.9575 16.0969C27.6783 15.8522 27.3781 15.6385 27.0577 15.4519C26.7373 15.2654 26.4033 15.1101 26.054 14.9864C25.7047 14.8628 25.3458 14.7714 24.9799 14.7154C24.6139 14.6594 24.2446 14.638 23.8754 14.6504C23.5049 14.665 23.138 14.7126 22.7771 14.7945C22.4162 14.8764 22.0647 14.9918 21.7242 15.1386C21.3858 15.2868 21.0619 15.4655 20.756 15.674C20.4501 15.8824 20.1658 16.1198 19.904 16.3821C19.6423 16.6444 19.4081 16.9287 19.1996 17.2352C18.9911 17.5418 18.8143 17.8638 18.6664 18.2054C18.5199 18.5449 18.4042 18.8962 18.3243 19.2563C18.2431 19.6185 18.1964 19.9842 18.1848 20.3551C18.1714 20.7264 18.1945 21.0931 18.2514 21.4597L16.4342 21.8721C16.3273 21.5168 16.1881 21.1764 16.0175 20.8469C15.8469 20.5174 15.647 20.2077 15.4173 19.916C15.1881 19.6261 14.9339 19.3587 14.6552 19.1157C14.3743 18.8714 14.0758 18.6573 13.7554 18.4707C13.435 18.2842 13.101 18.1289 12.7517 18.0053C12.4024 17.8816 12.0435 17.7902 11.6776 17.7342C11.3117 17.6783 10.9423 17.6569 10.5713 17.6697C10.2026 17.6838 9.83573 17.7314 9.47481 17.8133C9.11389 17.8952 8.76246 18.0106 8.4219 18.1574C8.08353 18.3056 7.75961 18.4843 7.45371 18.6928C7.14781 18.9012 6.8635 19.1386 6.60176 19.4009C6.34002 19.6632 6.1058 19.9475 5.89732 20.254C5.68884 20.5606 5.51024 20.883 5.36412 21.2243C5.2158 21.5641 5.10191 21.915 5.02027 22.2755C4.94081 22.6373 4.89416 23.003 4.88072 23.3743C4.86908 23.7452 4.89218 24.1119 4.94908 24.4785L1.4024 25.2834L16.492 91.7752L18.2644 91.3729L19.0689 94.9178L20.8431 94.5152L21.648 98.0619L73.9709 86.1877L73.1661 82.6411L74.9403 82.2384L74.1358 78.6935L75.91 78.2909L70.0752 52.5797L85.6305 27.8891L89.9915 20.97L88.4493 19.9692L91.3705 15.3815ZM49.7543 10.5811C49.9977 10.5277 50.2438 10.4944 50.4916 10.4852C50.7411 10.4755 50.9884 10.4889 51.2334 10.5254C51.4802 10.5614 51.7207 10.6196 51.9568 10.6994C52.1928 10.7792 52.4186 10.8802 52.6356 11C52.853 11.1216 53.0575 11.2612 53.2496 11.4205C53.4412 11.5781 53.6183 11.7539 53.7777 11.9432C53.9376 12.1343 54.078 12.3391 54.2004 12.5556C54.3228 12.772 54.4246 12.997 54.5061 13.2321L46.6123 15.0235C46.5844 14.7762 46.5791 14.5294 46.596 14.2813C46.613 14.0332 46.653 13.7874 46.7148 13.5461C46.7769 13.3065 46.8589 13.0719 46.9638 12.847C47.0683 12.6204 47.1926 12.4062 47.3361 12.2027C47.4801 12.0009 47.6402 11.8124 47.8187 11.6385C47.9972 11.4646 48.189 11.3083 48.3961 11.1693C48.6031 11.0302 48.8204 10.9114 49.0479 10.8128C49.2772 10.7138 49.5117 10.638 49.7543 10.5811ZM36.452 13.5999C36.6954 13.5466 36.9397 13.5137 37.1893 13.504C37.4371 13.4947 37.6843 13.5081 37.9311 13.5442C38.1779 13.5802 38.4184 13.6384 38.6545 13.7182C38.8905 13.798 39.1164 13.899 39.3333 14.0188C39.5507 14.1405 39.7552 14.28 39.9473 14.4394C40.139 14.5969 40.3142 14.7732 40.4737 14.9624C40.6335 15.1535 40.7757 15.3579 40.8981 15.5744C41.0205 15.7909 41.1223 16.0158 41.2038 16.2509L33.31 18.0423C33.2821 17.795 33.2768 17.5482 33.2938 17.3001C33.3107 17.052 33.3508 16.8062 33.4125 16.5649C33.4746 16.3253 33.5566 16.0907 33.6615 15.8658C33.766 15.6392 33.8903 15.425 34.0338 15.2215C34.1778 15.0197 34.3379 14.8312 34.5164 14.6573C34.6949 14.4834 34.8867 14.3271 35.0938 14.1881C35.299 14.0495 35.5163 13.9306 35.7456 13.8316C35.9731 13.733 36.2094 13.6568 36.452 13.5999ZM23.1498 16.6187C23.3932 16.5654 23.6374 16.5325 23.887 16.5228C24.1348 16.5135 24.3821 16.5269 24.6288 16.563C24.8756 16.5991 25.1162 16.6572 25.3522 16.737C25.5883 16.8168 25.8141 16.9178 26.031 17.0376C26.2484 17.1593 26.4529 17.2989 26.645 17.4582C26.8367 17.6157 27.012 17.792 27.1714 17.9812C27.3312 18.1723 27.4734 18.3767 27.5958 18.5932C27.7182 18.8097 27.82 19.0346 27.8998 19.2701L20.0077 21.0611C19.9798 20.8138 19.9745 20.567 19.9915 20.3189C20.0084 20.0708 20.0467 19.8254 20.1084 19.5841C20.1705 19.3446 20.2543 19.1095 20.3592 18.8846C20.462 18.6584 20.5862 18.4442 20.7298 18.2407C20.8737 18.0389 21.0356 17.85 21.2141 17.6761C21.3908 17.5026 21.5845 17.346 21.7897 17.2073C21.9968 17.0683 22.214 16.9494 22.4433 16.8504C22.6708 16.7518 22.9072 16.6757 23.1498 16.6187ZM9.84569 19.6379C10.0891 19.5846 10.3352 19.5513 10.5829 19.542C10.8325 19.5324 11.0798 19.5458 11.3266 19.5818C11.5733 19.6179 11.8139 19.676 12.0499 19.7558C12.2842 19.8361 12.5118 19.9366 12.7287 20.0564C12.9461 20.1781 13.1506 20.3177 13.3427 20.477C13.5326 20.6349 13.7097 20.8108 13.8691 21C14.029 21.1911 14.1694 21.396 14.2918 21.6124C14.4142 21.8289 14.5159 22.0538 14.5975 22.2889L6.74118 24.0718C6.71186 23.8267 6.70658 23.5799 6.72395 23.3336C6.73954 23.0877 6.77819 22.8441 6.84031 22.6046C6.90024 22.3636 6.98307 22.1325 7.08619 21.9081C7.18891 21.6819 7.31177 21.4699 7.45355 21.2667C7.59532 21.0636 7.75366 20.8755 7.93034 20.702C8.10524 20.5289 8.29532 20.373 8.50018 20.2326C8.70544 20.094 8.92052 19.9738 9.14623 19.8756C9.37333 19.7752 9.60707 19.6959 9.84569 19.6379ZM71.7337 84.8317L22.9575 95.901L22.5548 94.1267L71.3311 83.0575L71.7337 84.8317ZM72.7031 80.8824L20.3784 92.7569L19.9761 90.9845L72.3008 79.11L72.7031 80.8824ZM73.6706 76.9335L17.801 89.6125L3.51633 26.6674L14.8496 24.0954C14.807 24.479 14.7127 24.8498 14.5663 25.2062C14.4198 25.5626 14.2259 25.8921 13.9864 26.1945C13.7469 26.4968 13.4683 26.7592 13.1545 26.9826C12.8407 27.206 12.5009 27.3808 12.1372 27.5085L12.7342 29.2367C13.0217 29.1376 13.2986 29.0166 13.5666 28.8731C13.8347 28.7296 14.0911 28.568 14.3333 28.3853C14.5773 28.2022 14.8044 28.0022 15.0162 27.7851C15.2299 27.5675 15.4234 27.3357 15.6 27.0871C15.7751 26.8407 15.9323 26.5814 16.068 26.3102C16.2051 26.0367 16.3183 25.7574 16.4122 25.4674C16.5043 25.1778 16.5748 24.8838 16.6231 24.5835C16.6696 24.2836 16.6931 23.9814 16.6935 23.677L28.1519 21.0766C28.1111 21.4597 28.0168 21.8306 27.8685 22.1874C27.7221 22.5438 27.53 22.8729 27.2887 23.1757C27.0492 23.478 26.7724 23.74 26.4568 23.9638C26.143 24.1872 25.8032 24.362 25.4395 24.4896L26.0365 26.2179C26.324 26.1188 26.6009 25.9977 26.8689 25.8543C27.1369 25.7108 27.3934 25.5492 27.6356 25.3665C27.8796 25.1834 28.1067 24.9834 28.3185 24.7663C28.5322 24.5487 28.7257 24.3169 28.9022 24.0683C29.0792 23.8215 29.2346 23.5626 29.3721 23.2909C29.5074 23.0179 29.6224 22.7381 29.7145 22.4486C29.8066 22.159 29.877 21.865 29.9254 21.5647C29.9719 21.2648 29.9954 20.9626 29.9958 20.6582L41.4542 18.0578C41.4134 18.4409 41.3191 18.8118 41.1726 19.1682C41.0262 19.5246 40.8323 19.8541 40.5928 20.1565C40.3515 20.4592 40.0747 20.7212 39.7591 20.945C39.4453 21.1684 39.1055 21.3432 38.7418 21.4708L39.3388 23.1991C39.6263 23.1 39.9032 22.9789 40.1712 22.8354C40.441 22.6915 40.6957 22.5304 40.9397 22.3473C41.1819 22.1646 41.4089 21.9646 41.6226 21.747C41.8345 21.5299 42.028 21.2981 42.2045 21.0495C42.3815 20.8027 42.5369 20.5438 42.6744 20.2721C42.8097 19.9991 42.9247 19.7193 43.0168 19.4298C43.1107 19.1398 43.1811 18.8458 43.2277 18.5459C43.2742 18.246 43.2995 17.9434 43.2999 17.6389L54.7583 15.0386C54.7157 15.4221 54.6214 15.793 54.4749 16.1494C54.3284 16.5057 54.1346 16.8353 53.8951 17.1377C53.6538 17.4404 53.3769 17.7024 53.0632 17.9258C52.7476 18.1496 52.4077 18.3244 52.0441 18.452L52.641 20.1803C52.9286 20.0812 53.2072 19.9597 53.4753 19.8162C53.7433 19.6727 53.9979 19.5116 54.242 19.3285C54.4842 19.1458 54.713 18.9454 54.9249 18.7282C55.1367 18.5111 55.332 18.2789 55.5068 18.0307C55.6838 17.7838 55.841 17.5246 55.9767 17.2533C56.112 16.9803 56.227 16.7005 56.3191 16.411C56.413 16.121 56.4834 15.8269 56.5299 15.5271C56.5783 15.2268 56.6018 14.9246 56.6022 14.6201L59.4217 13.9803L65.836 42.2447L58.9109 53.2308L14.6569 63.2737L15.0592 65.0462L57.5389 55.4059L55.1953 59.2105L53.0314 62.4991L53.1798 63.8068L16.6588 72.0949L17.061 73.8673L53.423 65.6154L53.7264 68.2688L52.4121 70.3669L53.9463 71.332L55.2285 69.2994L60.7779 67.3769L62.8107 64.0072L68.6459 54.7509L73.6706 76.9335ZM56.6901 60.1676L57.6699 58.6489L62.2495 61.5344L61.2844 63.0685L56.6901 60.1676ZM60.3289 64.5704L59.5077 65.8859L55.3851 67.3156L54.9263 63.0009L55.7585 61.6923L60.3289 64.5704ZM58.623 57.0536L59.5968 55.5081L64.2093 58.4143L63.2432 59.9937L58.623 57.0536ZM65.1903 56.9423L60.5432 54.0158L79.4819 24.0089L81.7881 25.462L84.0939 26.9133L65.1903 56.9423ZM85.0742 25.3963L82.768 23.9433L80.4309 22.4784L82.8582 18.6284L87.4702 21.5328L85.0742 25.3963ZM85.3883 18.0712L87.3294 14.9929L88.8639 15.9598L86.9208 19.0291L85.3883 18.0712Z" fill="white"/>
</g>
<path d="M8.62109 36.6782L59.1716 25.2063L59.5738 26.9788L9.02333 38.4507L8.62109 36.6782Z" fill="white"/>
<path d="M10.6328 45.542L61.1833 34.0701L61.5859 35.8443L11.0355 47.3162L10.6328 45.542Z" fill="white"/>
<path d="M12.6445 54.4082L63.195 42.9363L63.5976 44.7106L13.0472 56.1824L12.6445 54.4082Z" fill="white"/>
<path d="M18.6797 81.0054L69.2302 69.5335L69.6324 71.3059L19.0819 82.7778L18.6797 81.0054Z" fill="white"/>
</svg>
