<svg width="111" height="126" viewBox="0 0 111 126" fill="none" xmlns="http://www.w3.org/2000/svg">
<path fill-rule="evenodd" clip-rule="evenodd" d="M79.9939 94.658C79.7286 94.6906 79.5208 94.6495 79.3076 94.5395L68.2206 89.8393C67.9392 89.7408 67.7015 89.4309 67.5267 89.1165C67.4205 88.7937 67.3799 88.4628 67.5387 88.1043L86.4091 43.7572C86.6584 43.0517 87.4957 42.7493 88.1357 43.0066L99.154 47.7152C99.5094 47.8743 99.7418 48.1151 99.9135 48.4299C100.023 48.7554 100.003 49.1603 99.9046 49.4417L81.0426 93.8575C80.826 94.2865 80.459 94.6009 79.9939 94.658ZM70.5473 87.9377L79.146 91.5968L96.9013 49.6774L88.3682 46.0103L70.5473 87.9377Z" fill="white"/>
<path fill-rule="evenodd" clip-rule="evenodd" d="M98.7911 50.2531C98.5914 50.2776 98.3867 50.2362 98.1129 50.2001C97.4649 49.8773 97.1705 49.1054 97.4198 48.3999L99.1434 44.3481C99.7716 42.8578 98.3646 40.7397 96.0216 39.7473C93.7411 38.7472 91.2354 39.1911 90.5448 40.689L88.8211 44.7409C88.5688 45.4468 87.7969 45.7411 87.0946 45.4915C86.3806 45.1736 86.0831 44.4021 86.4014 43.6913L88.1251 39.6395C89.3173 36.7302 93.3662 35.6944 97.0631 37.2621C100.822 38.822 102.821 42.4834 101.563 45.3976L99.905 49.4414C99.6968 49.9391 99.2562 50.196 98.7911 50.2531Z" fill="white"/>
<path fill-rule="evenodd" clip-rule="evenodd" d="M70.7418 101.047C70.542 101.072 70.2687 101.039 70.0608 100.998C69.6318 100.781 69.3175 100.414 69.2604 99.9492L67.4923 88.8515C67.337 88.1292 67.86 87.4598 68.5824 87.3045C69.3128 87.2148 69.9822 87.7379 70.0719 88.4683L71.5794 97.4434L79.0206 92.2174C79.6418 91.8053 80.4703 91.9729 80.9515 92.5887C81.3556 93.1443 81.196 94.0384 80.5753 94.4536L71.3219 100.843C71.1302 100.933 70.9416 101.023 70.7418 101.047Z" fill="white"/>
<path fill-rule="evenodd" clip-rule="evenodd" d="M74.4505 92.31C74.2508 92.3345 73.977 92.2984 73.7643 92.1914C73.1243 91.9342 72.7609 91.1676 73.0792 90.4568L91.8757 46.0491C92.1989 45.4042 92.9623 45.0412 93.6762 45.3591C94.313 45.6168 94.6841 46.4457 94.3613 47.0937L75.4989 91.5064C75.3482 91.9304 74.9156 92.2529 74.4505 92.31Z" fill="white"/>
<mask id="mask0_386_418" style="mask-type:luminance" maskUnits="userSpaceOnUse" x="0" y="1" width="101" height="125">
<path d="M0 11.8638L86.3021 1.26804L100.209 114.54L13.9069 125.135L0 11.8638Z" fill="white"/>
</mask>
<g mask="url(#mask0_386_418)">
<path fill-rule="evenodd" clip-rule="evenodd" d="M98.4912 114.75L15.7444 124.91C15.014 124.999 14.3415 124.477 14.2518 123.746L0.670688 13.1279C0.581011 12.3975 1.10713 11.7277 1.83755 11.638L55.7171 5.02296C56.1166 4.97391 56.464 5.06751 56.7619 5.30026L89.1729 30.6202C89.4021 30.8614 89.577 31.1758 89.618 31.5098L90.6608 40.0033C90.7501 40.7306 90.2274 41.4031 89.497 41.4928C88.7666 41.5825 88.0968 41.0563 88.0075 40.329L87.0299 32.3662L55.5122 7.74136L3.48993 14.1284L16.7453 122.093L96.8388 112.26L90.932 64.1489C90.8427 63.4216 91.3653 62.7491 92.0957 62.6594C92.8262 62.5697 93.496 63.0958 93.5852 63.8231L99.6549 113.261C99.7446 113.991 99.2216 114.661 98.4912 114.75Z" fill="white"/>
</g>
<path fill-rule="evenodd" clip-rule="evenodd" d="M51.1588 35.3545L19.7694 39.2083C19.0421 39.2976 18.3696 38.775 18.28 38.0446L16.4305 22.9804C16.3412 22.2531 16.8669 21.5802 17.5942 21.4909L48.9836 17.6371C49.7109 17.5478 50.3838 18.0736 50.4731 18.8009L52.3226 33.865C52.4123 34.5954 51.8861 35.2652 51.1588 35.3545ZM20.7734 36.3918L49.5034 32.8645L47.98 20.4567L19.2501 23.984L20.7734 36.3918Z" fill="white"/>
<path fill-rule="evenodd" clip-rule="evenodd" d="M75.9187 51.5783L22.4356 58.1447C21.6396 58.2424 21.0358 57.7113 20.9461 56.9809C20.8564 56.2505 21.3139 55.5891 22.1098 55.4914L75.5929 48.925C76.3233 48.8354 76.9927 49.3584 77.0824 50.0888C77.1721 50.8192 76.6491 51.4886 75.9187 51.5783Z" fill="white"/>
<path fill-rule="evenodd" clip-rule="evenodd" d="M77.4011 63.6559L23.918 70.2223C23.122 70.32 22.5182 69.789 22.4285 69.0586C22.3388 68.3281 22.7963 67.6668 23.5922 67.5691L77.0753 61.0027C77.8058 60.913 78.4752 61.436 78.5648 62.1664C78.6545 62.8968 78.1315 63.5662 77.4011 63.6559Z" fill="white"/>
<path fill-rule="evenodd" clip-rule="evenodd" d="M74.8272 76.1642L25.3926 82.2335C24.5966 82.3313 23.9928 81.8002 23.9031 81.0698C23.8134 80.3394 24.2709 79.678 25.0669 79.5803L74.5014 73.511C75.2318 73.4213 75.9012 73.9443 75.9909 74.6747C76.0806 75.4051 75.5576 76.0745 74.8272 76.1642Z" fill="white"/>
<path fill-rule="evenodd" clip-rule="evenodd" d="M69.3351 89.0305L26.8676 94.2445C26.0716 94.3422 25.4674 93.808 25.3777 93.0776C25.2884 92.3503 25.7455 91.6858 26.5415 91.5881L69.0089 86.3742C69.7393 86.2845 70.4091 86.8106 70.4984 87.5379C70.5881 88.2683 70.0655 88.9409 69.3351 89.0305Z" fill="white"/>
<path fill-rule="evenodd" clip-rule="evenodd" d="M81.8249 99.6872L28.3418 106.254C27.5459 106.351 26.942 105.82 26.8523 105.09C26.7627 104.359 27.2201 103.698 28.0161 103.6L81.4992 97.0339C82.2296 96.9443 82.899 97.4673 82.9887 98.1977C83.0783 98.9281 82.5553 99.5975 81.8249 99.6872Z" fill="white"/>
</svg>
