<svg width="166" height="50" viewBox="0 0 166 50" fill="none" xmlns="http://www.w3.org/2000/svg">
<rect width="166" height="50" rx="25" fill="white"/>
<path d="M28.88 32L25.56 26.3H23.36V32H21.54V18.06H26.04C27.0933 18.06 27.98 18.24 28.7 18.6C29.4333 18.96 29.98 19.4467 30.34 20.06C30.7 20.6733 30.88 21.3733 30.88 22.16C30.88 23.12 30.6 23.9667 30.04 24.7C29.4933 25.4333 28.6667 25.92 27.56 26.16L31.06 32H28.88ZM23.36 24.84H26.04C27.0267 24.84 27.7667 24.6 28.26 24.12C28.7533 23.6267 29 22.9733 29 22.16C29 21.3333 28.7533 20.6933 28.26 20.24C27.78 19.7867 27.04 19.56 26.04 19.56H23.36V24.84ZM43.328 26.1C43.328 26.4467 43.308 26.8133 43.268 27.2H34.508C34.5746 28.28 34.9413 29.1267 35.608 29.74C36.288 30.34 37.108 30.64 38.068 30.64C38.8546 30.64 39.508 30.46 40.028 30.1C40.5613 29.7267 40.9346 29.2333 41.148 28.62H43.108C42.8146 29.6733 42.228 30.5333 41.348 31.2C40.468 31.8533 39.3746 32.18 38.068 32.18C37.028 32.18 36.0946 31.9467 35.268 31.48C34.4546 31.0133 33.8146 30.3533 33.348 29.5C32.8813 28.6333 32.648 27.6333 32.648 26.5C32.648 25.3667 32.8746 24.3733 33.328 23.52C33.7813 22.6667 34.4146 22.0133 35.228 21.56C36.0546 21.0933 37.0013 20.86 38.068 20.86C39.108 20.86 40.028 21.0867 40.828 21.54C41.628 21.9933 42.2413 22.62 42.668 23.42C43.108 24.2067 43.328 25.1 43.328 26.1ZM41.448 25.72C41.448 25.0267 41.2946 24.4333 40.988 23.94C40.6813 23.4333 40.2613 23.0533 39.728 22.8C39.208 22.5333 38.628 22.4 37.988 22.4C37.068 22.4 36.2813 22.6933 35.628 23.28C34.988 23.8667 34.6213 24.68 34.528 25.72H41.448ZM49.8703 20.86C50.817 20.86 51.6436 21.0667 52.3503 21.48C53.0703 21.8933 53.6036 22.4133 53.9503 23.04V21.04H55.7903V32.24C55.7903 33.24 55.577 34.1267 55.1503 34.9C54.7236 35.6867 54.1103 36.3 53.3103 36.74C52.5236 37.18 51.6036 37.4 50.5503 37.4C49.1103 37.4 47.9103 37.06 46.9503 36.38C45.9903 35.7 45.4236 34.7733 45.2503 33.6H47.0503C47.2503 34.2667 47.6636 34.8 48.2903 35.2C48.917 35.6133 49.6703 35.82 50.5503 35.82C51.5503 35.82 52.3636 35.5067 52.9903 34.88C53.6303 34.2533 53.9503 33.3733 53.9503 32.24V29.94C53.5903 30.58 53.057 31.1133 52.3503 31.54C51.6436 31.9667 50.817 32.18 49.8703 32.18C48.897 32.18 48.0103 31.94 47.2103 31.46C46.4236 30.98 45.8036 30.3067 45.3503 29.44C44.897 28.5733 44.6703 27.5867 44.6703 26.48C44.6703 25.36 44.897 24.38 45.3503 23.54C45.8036 22.6867 46.4236 22.0267 47.2103 21.56C48.0103 21.0933 48.897 20.86 49.8703 20.86ZM53.9503 26.5C53.9503 25.6733 53.7836 24.9533 53.4503 24.34C53.117 23.7267 52.6636 23.26 52.0903 22.94C51.5303 22.6067 50.9103 22.44 50.2303 22.44C49.5503 22.44 48.9303 22.6 48.3703 22.92C47.8103 23.24 47.3636 23.7067 47.0303 24.32C46.697 24.9333 46.5303 25.6533 46.5303 26.48C46.5303 27.32 46.697 28.0533 47.0303 28.68C47.3636 29.2933 47.8103 29.7667 48.3703 30.1C48.9303 30.42 49.5503 30.58 50.2303 30.58C50.9103 30.58 51.5303 30.42 52.0903 30.1C52.6636 29.7667 53.117 29.2933 53.4503 28.68C53.7836 28.0533 53.9503 27.3267 53.9503 26.5ZM59.4259 19.26C59.0793 19.26 58.7859 19.14 58.5459 18.9C58.3059 18.66 58.1859 18.3667 58.1859 18.02C58.1859 17.6733 58.3059 17.38 58.5459 17.14C58.7859 16.9 59.0793 16.78 59.4259 16.78C59.7593 16.78 60.0393 16.9 60.2659 17.14C60.5059 17.38 60.6259 17.6733 60.6259 18.02C60.6259 18.3667 60.5059 18.66 60.2659 18.9C60.0393 19.14 59.7593 19.26 59.4259 19.26ZM60.3059 21.04V32H58.4859V21.04H60.3059ZM66.9078 32.18C66.0678 32.18 65.3145 32.04 64.6478 31.76C63.9811 31.4667 63.4545 31.0667 63.0678 30.56C62.6811 30.04 62.4678 29.4467 62.4278 28.78H64.3078C64.3611 29.3267 64.6145 29.7733 65.0678 30.12C65.5345 30.4667 66.1411 30.64 66.8878 30.64C67.5811 30.64 68.1278 30.4867 68.5278 30.18C68.9278 29.8733 69.1278 29.4867 69.1278 29.02C69.1278 28.54 68.9145 28.1867 68.4878 27.96C68.0611 27.72 67.4011 27.4867 66.5078 27.26C65.6945 27.0467 65.0278 26.8333 64.5078 26.62C64.0011 26.3933 63.5611 26.0667 63.1878 25.64C62.8278 25.2 62.6478 24.6267 62.6478 23.92C62.6478 23.36 62.8145 22.8467 63.1478 22.38C63.4811 21.9133 63.9545 21.5467 64.5678 21.28C65.1811 21 65.8811 20.86 66.6678 20.86C67.8811 20.86 68.8611 21.1667 69.6078 21.78C70.3545 22.3933 70.7545 23.2333 70.8078 24.3H68.9878C68.9478 23.7267 68.7145 23.2667 68.2878 22.92C67.8745 22.5733 67.3145 22.4 66.6078 22.4C65.9545 22.4 65.4345 22.54 65.0478 22.82C64.6611 23.1 64.4678 23.4667 64.4678 23.92C64.4678 24.28 64.5811 24.58 64.8078 24.82C65.0478 25.0467 65.3411 25.2333 65.6878 25.38C66.0478 25.5133 66.5411 25.6667 67.1678 25.84C67.9545 26.0533 68.5945 26.2667 69.0878 26.48C69.5811 26.68 70.0011 26.9867 70.3478 27.4C70.7078 27.8133 70.8945 28.3533 70.9078 29.02C70.9078 29.62 70.7411 30.16 70.4078 30.64C70.0745 31.12 69.6011 31.5 68.9878 31.78C68.3878 32.0467 67.6945 32.18 66.9078 32.18ZM75.317 22.54V29C75.317 29.5333 75.4304 29.9133 75.657 30.14C75.8837 30.3533 76.277 30.46 76.837 30.46H78.177V32H76.537C75.5237 32 74.7637 31.7667 74.257 31.3C73.7504 30.8333 73.497 30.0667 73.497 29V22.54H72.077V21.04H73.497V18.28H75.317V21.04H78.177V22.54H75.317ZM90.0022 26.1C90.0022 26.4467 89.9822 26.8133 89.9422 27.2H81.1822C81.2489 28.28 81.6155 29.1267 82.2822 29.74C82.9622 30.34 83.7822 30.64 84.7422 30.64C85.5289 30.64 86.1822 30.46 86.7022 30.1C87.2355 29.7267 87.6089 29.2333 87.8222 28.62H89.7822C89.4889 29.6733 88.9022 30.5333 88.0222 31.2C87.1422 31.8533 86.0489 32.18 84.7422 32.18C83.7022 32.18 82.7689 31.9467 81.9422 31.48C81.1289 31.0133 80.4889 30.3533 80.0222 29.5C79.5555 28.6333 79.3222 27.6333 79.3222 26.5C79.3222 25.3667 79.5489 24.3733 80.0022 23.52C80.4555 22.6667 81.0889 22.0133 81.9022 21.56C82.7289 21.0933 83.6755 20.86 84.7422 20.86C85.7822 20.86 86.7022 21.0867 87.5022 21.54C88.3022 21.9933 88.9155 22.62 89.3422 23.42C89.7822 24.2067 90.0022 25.1 90.0022 26.1ZM88.1222 25.72C88.1222 25.0267 87.9689 24.4333 87.6622 23.94C87.3555 23.4333 86.9355 23.0533 86.4022 22.8C85.8822 22.5333 85.3022 22.4 84.6622 22.4C83.7422 22.4 82.9555 22.6933 82.3022 23.28C81.6622 23.8667 81.2955 24.68 81.2022 25.72H88.1222ZM93.8445 22.82C94.1645 22.1933 94.6179 21.7067 95.2045 21.36C95.8045 21.0133 96.5312 20.84 97.3845 20.84V22.72H96.9045C94.8645 22.72 93.8445 23.8267 93.8445 26.04V32H92.0245V21.04H93.8445V22.82ZM115.018 32H113.198L105.878 20.9V32H104.058V18.04H105.878L113.198 29.12V18.04H115.018V32ZM122.52 32.18C121.493 32.18 120.56 31.9467 119.72 31.48C118.893 31.0133 118.24 30.3533 117.76 29.5C117.293 28.6333 117.06 27.6333 117.06 26.5C117.06 25.38 117.3 24.3933 117.78 23.54C118.273 22.6733 118.94 22.0133 119.78 21.56C120.62 21.0933 121.56 20.86 122.6 20.86C123.64 20.86 124.58 21.0933 125.42 21.56C126.26 22.0133 126.92 22.6667 127.4 23.52C127.893 24.3733 128.14 25.3667 128.14 26.5C128.14 27.6333 127.887 28.6333 127.38 29.5C126.887 30.3533 126.213 31.0133 125.36 31.48C124.507 31.9467 123.56 32.18 122.52 32.18ZM122.52 30.58C123.173 30.58 123.787 30.4267 124.36 30.12C124.933 29.8133 125.393 29.3533 125.74 28.74C126.1 28.1267 126.28 27.38 126.28 26.5C126.28 25.62 126.107 24.8733 125.76 24.26C125.413 23.6467 124.96 23.1933 124.4 22.9C123.84 22.5933 123.233 22.44 122.58 22.44C121.913 22.44 121.3 22.5933 120.74 22.9C120.193 23.1933 119.753 23.6467 119.42 24.26C119.087 24.8733 118.92 25.62 118.92 26.5C118.92 27.3933 119.08 28.1467 119.4 28.76C119.733 29.3733 120.173 29.8333 120.72 30.14C121.267 30.4333 121.867 30.58 122.52 30.58ZM144.753 21.04L141.333 32H139.453L136.813 23.3L134.173 32H132.293L128.853 21.04H130.713L133.233 30.24L135.953 21.04H137.813L140.473 30.26L142.953 21.04H144.753Z" fill="black"/>
</svg>
