<svg width="52" height="52" viewBox="0 0 52 52" fill="none" xmlns="http://www.w3.org/2000/svg">
<rect width="52" height="52" rx="26" fill="white"/>
<path d="M25.112 32.592C24.296 32.592 23.472 32.576 22.64 32.544C21.808 32.496 21.04 32.368 20.336 32.16C19.648 31.952 19.096 31.608 18.68 31.128C18.264 30.648 18.056 29.976 18.056 29.112C18.056 28.536 18.2 27.832 18.488 27C18.776 26.168 19.144 25.28 19.592 24.336C20.056 23.376 20.552 22.416 21.08 21.456C21.624 20.48 22.152 19.552 22.664 18.672C23.176 17.776 23.624 16.992 24.008 16.32L27.224 18.144C27.24 17.648 27.248 17.184 27.248 16.752L31.136 16.8C31.04 18.432 30.936 20.272 30.824 22.32C30.728 24.368 30.624 26.424 30.512 28.488C31.184 28.424 31.856 28.336 32.528 28.224C33.2 28.112 33.864 27.976 34.52 27.816L34.736 31.8C33.968 31.912 33.208 32.016 32.456 32.112C31.72 32.208 31 32.288 30.296 32.352C30.248 33.344 30.2 34.304 30.152 35.232C30.104 36.144 30.056 36.992 30.008 37.776L25.928 37.68C26.024 36.928 26.112 36.12 26.192 35.256C26.288 34.392 26.376 33.496 26.456 32.568C25.992 32.584 25.544 32.592 25.112 32.592ZM23.744 28.752C24.064 28.768 24.376 28.776 24.68 28.776C24.984 28.776 25.28 28.776 25.568 28.776C25.952 28.776 26.336 28.768 26.72 28.752C26.848 26.912 26.952 25.088 27.032 23.28C27.112 21.472 27.176 19.84 27.224 18.384C26.792 18.992 26.32 19.712 25.808 20.544C25.312 21.36 24.824 22.208 24.344 23.088C23.864 23.968 23.44 24.784 23.072 25.536C22.768 26.176 22.52 26.704 22.328 27.12C22.136 27.52 22.04 27.832 22.04 28.056C22.04 28.28 22.168 28.448 22.424 28.56C22.68 28.656 23.12 28.72 23.744 28.752Z" fill="#EF746C"/>
</svg>
