<svg width="52" height="52" viewBox="0 0 52 52" fill="none" xmlns="http://www.w3.org/2000/svg">
<rect width="52" height="52" rx="26" fill="white"/>
<path d="M26.048 37.776L22.136 36.384C22.648 35.6 23.168 34.72 23.696 33.744C24.24 32.752 24.768 31.728 25.28 30.672C25.808 29.616 26.304 28.576 26.768 27.552C27.232 26.528 27.648 25.568 28.016 24.672C28.4 23.776 28.72 23 28.976 22.344C29.136 21.928 29.264 21.592 29.36 21.336C29.472 21.08 29.528 20.888 29.528 20.76C29.528 20.68 29.456 20.624 29.312 20.592C29.184 20.56 28.936 20.544 28.568 20.544C28.136 20.544 27.584 20.568 26.912 20.616C26.24 20.664 25.528 20.728 24.776 20.808C24.024 20.888 23.288 21 22.568 21.144C22.696 22.04 22.88 22.944 23.12 23.856C23.36 24.768 23.664 25.648 24.032 26.496L20.216 27.264C19.816 26.304 19.488 25.248 19.232 24.096C18.976 22.944 18.784 21.784 18.656 20.616C18.528 19.432 18.464 18.336 18.464 17.328V16.656L22.232 16.392C22.232 16.728 22.24 17.056 22.256 17.376C22.96 17.248 23.728 17.144 24.56 17.064C25.392 16.968 26.216 16.896 27.032 16.848C27.864 16.784 28.624 16.752 29.312 16.752C29.728 16.752 30.184 16.776 30.68 16.824C31.192 16.856 31.672 16.96 32.12 17.136C32.568 17.296 32.936 17.56 33.224 17.928C33.512 18.296 33.656 18.816 33.656 19.488C33.656 19.952 33.52 20.632 33.248 21.528C32.976 22.424 32.616 23.456 32.168 24.624C31.72 25.776 31.216 26.984 30.656 28.248C30.112 29.512 29.552 30.752 28.976 31.968C28.416 33.184 27.88 34.296 27.368 35.304C26.856 36.312 26.416 37.136 26.048 37.776Z" fill="#45CA93"/>
</svg>
