<svg width="52" height="52" viewBox="0 0 52 52" fill="none" xmlns="http://www.w3.org/2000/svg">
<rect width="52" height="52" rx="26" fill="white"/>
<path d="M23.624 29.328L19.688 29.088C19.768 28.192 19.872 27.224 20 26.184C20.128 25.128 20.256 24.056 20.384 22.968C20.528 21.864 20.672 20.784 20.816 19.728C20.96 18.672 21.096 17.696 21.224 16.8L25.184 16.896C25.152 17.056 25.12 17.232 25.088 17.424C25.856 17.376 26.672 17.336 27.536 17.304C28.4 17.256 29.24 17.224 30.056 17.208C30.872 17.192 31.584 17.184 32.192 17.184C32.496 17.184 32.768 17.192 33.008 17.208C33.248 17.208 33.44 17.208 33.584 17.208L33.392 21.144C33.088 21.128 32.776 21.12 32.456 21.12C32.136 21.12 31.792 21.12 31.424 21.12C30.336 21.12 29.192 21.144 27.992 21.192C26.792 21.24 25.632 21.312 24.512 21.408C24.448 21.92 24.384 22.44 24.32 22.968C24.272 23.496 24.216 24.016 24.152 24.528C24.728 24.24 25.312 24.048 25.904 23.952C26.512 23.856 27.088 23.808 27.632 23.808C28.944 23.808 30.088 24.08 31.064 24.624C32.056 25.152 32.824 25.896 33.368 26.856C33.912 27.816 34.184 28.936 34.184 30.216C34.184 31.8 33.864 33.168 33.224 34.32C32.6 35.456 31.696 36.328 30.512 36.936C29.344 37.56 27.944 37.872 26.312 37.872C24.808 37.872 23.36 37.528 21.968 36.84C20.592 36.168 19.472 35.24 18.608 34.056L21.272 31.152C22.856 33.024 24.544 33.96 26.336 33.96C27.616 33.96 28.592 33.64 29.264 33C29.936 32.36 30.272 31.456 30.272 30.288C30.272 29.36 30 28.648 29.456 28.152C28.912 27.656 28.128 27.408 27.104 27.408C26.24 27.408 25.568 27.536 25.088 27.792C24.608 28.048 24.256 28.328 24.032 28.632C23.824 28.936 23.688 29.168 23.624 29.328Z" fill="#04D6D6"/>
</svg>
