<svg width="75" height="87" viewBox="0 0 75 87" fill="none" xmlns="http://www.w3.org/2000/svg">
<mask id="mask0_397_283" style="mask-type:luminance" maskUnits="userSpaceOnUse" x="0" y="0" width="75" height="53">
<path d="M0 0H75.0006V52.5437H0V0Z" fill="white"/>
</mask>
<g mask="url(#mask0_397_283)">
<path d="M67.6884 0.0185547H18.6931C18.2163 0.0203743 17.745 0.0658668 17.2792 0.160491C16.8115 0.253296 16.3584 0.391592 15.918 0.573562C15.4795 0.755531 15.061 0.979354 14.6661 1.24321C14.2694 1.50889 13.9036 1.80914 13.567 2.14578C13.2304 2.48242 12.9301 2.84818 12.6663 3.24306C12.4006 3.63793 12.1786 4.05646 11.9948 4.49683C11.8128 4.93537 11.6745 5.38848 11.5817 5.85614C11.4889 6.32198 11.4416 6.79328 11.4416 7.27004V11.1733C10.9303 11.2188 10.428 11.3116 9.93307 11.4517C9.43993 11.59 8.96317 11.7738 8.50461 12.0012C8.04423 12.2305 7.60932 12.498 7.19989 12.8074C6.79046 13.1149 6.41196 13.4588 6.06622 13.8373C5.72048 14.2158 5.41113 14.6234 5.14181 15.0602C4.87068 15.4951 4.64322 15.9518 4.45761 16.4304C4.272 16.909 4.13188 17.4003 4.03726 17.9043C3.94263 18.4084 3.89532 18.9179 3.89532 19.4292C3.89532 19.9424 3.94263 20.4519 4.03726 20.956C4.13188 21.46 4.272 21.9513 4.45761 22.4299C4.64322 22.9085 4.87068 23.3652 5.14181 23.8002C5.41113 24.2369 5.72048 24.6445 6.06622 25.023C6.41196 25.4015 6.79046 25.7454 7.19989 26.0529C7.60932 26.3623 8.04423 26.6298 8.50461 26.8572C8.96317 27.0865 9.43993 27.2703 9.93307 27.4086C10.428 27.5487 10.9303 27.6415 11.4416 27.687V29.5922H7.76399C7.28359 29.5941 6.80683 29.6414 6.33553 29.7342C5.86605 29.8288 5.40749 29.9671 4.96348 30.1527C4.51948 30.3365 4.09913 30.5621 3.69879 30.8296C3.30028 31.0953 2.92906 31.3992 2.5906 31.7395C2.25032 32.0779 1.94643 32.4492 1.68075 32.8477C1.41326 33.248 1.18761 33.6684 1.00383 34.1124C0.818216 34.5564 0.67992 35.0149 0.585296 35.4862C0.492491 35.9557 0.443359 36.4325 0.443359 36.9129V51.7216C0.443359 51.8271 0.463376 51.929 0.505229 52.0273C0.545262 52.1255 0.603493 52.2111 0.6781 52.2857C0.752708 52.3621 0.840053 52.4185 0.936497 52.4604C1.03476 52.5004 1.13666 52.5204 1.24221 52.5204H18.3637C18.4001 52.5168 18.4347 52.5095 18.4693 52.5004C18.5421 52.5004 18.6148 52.5149 18.6894 52.5149H67.6884C68.1633 52.5131 68.6346 52.4676 69.1023 52.3748C69.5681 52.2802 70.0231 52.1437 70.4616 51.9618C70.902 51.778 71.3205 51.556 71.7154 51.2903C72.1121 51.0264 72.4778 50.7262 72.8145 50.3895C73.1511 50.0529 73.4514 49.6853 73.717 49.2904C73.9809 48.8938 74.2047 48.477 74.3867 48.0367C74.5687 47.5981 74.707 47.1432 74.7998 46.6774C74.8926 46.2097 74.9399 45.7384 74.9399 45.2635V7.27004C74.9399 6.79328 74.8926 6.32198 74.7998 5.85432C74.707 5.38848 74.5687 4.93537 74.3867 4.49501C74.2047 4.05646 73.9809 3.63793 73.7152 3.24306C73.4514 2.84636 73.1511 2.4806 72.8145 2.14396C72.4778 1.80732 72.1102 1.50707 71.7154 1.24321C71.3187 0.977534 70.902 0.755531 70.4616 0.571742C70.0212 0.389773 69.5681 0.253295 69.1023 0.158671C68.6346 0.0658667 68.1633 0.0203743 67.6884 0.0185547ZM5.50029 19.4292C5.50029 18.9889 5.54397 18.5503 5.63131 18.1172C5.71684 17.6842 5.84604 17.2638 6.01527 16.8544C6.18268 16.4468 6.39012 16.0592 6.63578 15.6916C6.88144 15.324 7.15986 14.9837 7.47284 14.6707C7.78583 14.3578 8.12429 14.0793 8.49187 13.8337C8.85945 13.588 9.24705 13.3788 9.65466 13.2095C10.0623 13.0403 10.4826 12.9111 10.9157 12.8238C11.3488 12.7364 11.7873 12.6927 12.2295 12.6927H12.2495C12.6917 12.6927 13.1303 12.7364 13.5634 12.8238C13.9983 12.9093 14.4186 13.0385 14.8281 13.2077C15.2357 13.3788 15.6251 13.5862 15.9927 13.8319C16.3602 14.0793 16.6987 14.3578 17.0117 14.6726C17.3247 14.9855 17.6031 15.3258 17.8487 15.6934C18.0944 16.0628 18.3018 16.4504 18.4693 16.8598C18.6385 17.2693 18.7659 17.6896 18.8514 18.1245C18.9369 18.5576 18.9806 18.9962 18.9806 19.4383C18.9788 19.8805 18.9351 20.3191 18.8496 20.7522C18.7622 21.1871 18.6349 21.6074 18.4638 22.0169C18.2946 22.4245 18.0871 22.8139 17.8415 23.1815C17.594 23.549 17.3156 23.8893 17.0026 24.2023C16.6896 24.5135 16.3475 24.7937 15.9799 25.0394C15.6123 25.285 15.2229 25.4907 14.8153 25.6599C14.4059 25.8291 13.9837 25.9565 13.5506 26.0438C13.1157 26.1294 12.679 26.1712 12.235 26.1712C11.7928 26.1712 11.3561 26.1275 10.9212 26.042C10.4881 25.9547 10.0659 25.8273 9.6583 25.6581C9.24887 25.487 8.86127 25.2796 8.49369 25.0339C8.12429 24.7882 7.78583 24.508 7.47284 24.195C7.15986 23.882 6.87962 23.5418 6.63396 23.1742C6.3883 22.8066 6.18086 22.4172 6.01163 22.0096C5.8424 21.6001 5.71502 21.178 5.62949 20.7449C5.54397 20.31 5.50029 19.8733 5.50029 19.4292ZM17.5667 50.9227H2.04287V36.9129C2.04287 36.538 2.07927 36.165 2.15387 35.7974C2.22666 35.428 2.33584 35.0714 2.4796 34.7238C2.62335 34.378 2.79986 34.0487 3.00913 33.7357C3.21657 33.4227 3.45496 33.1352 3.72063 32.8695C3.98631 32.6038 4.27382 32.3655 4.58681 32.158C4.89979 31.9488 5.22916 31.7722 5.5749 31.6285C5.92246 31.4847 6.27912 31.3755 6.64852 31.3028C7.0161 31.2282 7.38914 31.1918 7.76399 31.1918H15.7434C16.2056 31.1918 16.6623 31.2463 17.1118 31.3573C17.5594 31.4684 17.9889 31.6303 18.4001 31.845C18.8095 32.0598 19.188 32.3218 19.5338 32.6275C19.8813 32.9332 20.1852 33.2771 20.4491 33.6574L24.8236 39.9827C24.9292 40.1319 25.0693 40.2356 25.2458 40.2884C25.4223 40.343 25.5952 40.3375 25.7681 40.2739L28.7706 39.1184C28.9107 39.0656 29.0544 39.0255 29.2018 39.0001C29.351 38.9746 29.5003 38.9655 29.6495 38.9691C29.8005 38.9746 29.9479 38.9946 30.0935 39.0292C30.2409 39.0638 30.381 39.1129 30.5175 39.1766C30.6539 39.2403 30.7831 39.3149 30.9032 39.404C31.0252 39.4932 31.1362 39.5933 31.2362 39.7061C31.3363 39.8171 31.4255 39.9372 31.5019 40.0664C31.5783 40.1956 31.642 40.3321 31.6912 40.4722L31.7221 40.5505C31.7676 40.6833 31.8022 40.8198 31.8222 40.9599C31.844 41.0982 31.8513 41.2401 31.8458 41.3802C31.8404 41.5222 31.8222 41.6605 31.7894 41.7988C31.7585 41.9371 31.7148 42.0699 31.6566 42.1991C31.6002 42.3283 31.531 42.452 31.451 42.5685C31.3709 42.685 31.2817 42.7923 31.1817 42.8906C31.0798 42.9907 30.9724 43.0798 30.8541 43.1581C30.7376 43.2381 30.6139 43.3055 30.4847 43.3601L24.7891 45.7821C24.5616 45.8785 24.325 45.9349 24.0776 45.9531C23.8319 45.9713 23.5881 45.9495 23.3497 45.8876C23.1095 45.8257 22.8875 45.7275 22.68 45.591C22.4744 45.4563 22.2943 45.2908 22.1414 45.0961L18.9988 41.06C18.8951 40.9253 18.7604 40.8325 18.5966 40.7834C18.4329 40.7342 18.2691 40.7379 18.1071 40.7943C17.9452 40.8489 17.816 40.9471 17.7159 41.0873C17.6176 41.2256 17.5685 41.3821 17.5685 41.5513L17.5667 50.9227ZM73.3422 45.2635C73.3422 45.6329 73.3058 46.0004 73.233 46.3644C73.1602 46.7283 73.0528 47.0813 72.9109 47.4253C72.769 47.7674 72.5943 48.0931 72.3887 48.4024C72.1812 48.71 71.9483 48.9957 71.6863 49.2577C71.4224 49.5197 71.1385 49.7545 70.8292 49.9601C70.5217 50.1675 70.1959 50.3404 69.852 50.4842C69.5099 50.6261 69.1569 50.7335 68.7929 50.8063C68.429 50.879 68.0614 50.9154 67.6902 50.9154H19.1662V43.8823L20.8804 46.0823C21.1406 46.4171 21.4481 46.6992 21.8029 46.9321C22.156 47.1632 22.5381 47.3325 22.9494 47.4398C23.3588 47.5454 23.7737 47.5818 24.1958 47.5508C24.618 47.5199 25.0256 47.4216 25.415 47.256L31.1107 44.834C31.5001 44.6666 31.8531 44.441 32.1698 44.1571C32.4846 43.8732 32.7466 43.5475 32.954 43.1763C33.1615 42.8069 33.3034 42.412 33.3817 41.9953C33.4581 41.5768 33.4654 41.1582 33.4053 40.7379L43.0079 36.4489C43.1043 36.4052 43.1898 36.3451 43.2626 36.2687C43.3354 36.1923 43.39 36.1031 43.4282 36.0049C43.4664 35.9066 43.4846 35.8029 43.481 35.6973C43.4773 35.5918 43.4555 35.4899 43.4118 35.3934C43.3682 35.297 43.3081 35.2115 43.2317 35.1387C43.1534 35.0659 43.0661 35.0113 42.9678 34.9731C42.8677 34.9349 42.7658 34.9167 42.6603 34.9203C42.5529 34.924 42.4529 34.9458 42.3546 34.9895L32.8631 39.2294C32.7466 39.0383 32.6156 38.8581 32.4682 38.6889C32.3208 38.5197 32.1607 38.365 31.9878 38.2249C31.8131 38.0848 31.6275 37.9592 31.431 37.8518C31.2362 37.7445 31.0324 37.6535 30.8195 37.5807C30.6085 37.5079 30.3919 37.4552 30.1717 37.4206C29.9497 37.386 29.7277 37.3696 29.5039 37.3751C29.2801 37.3787 29.0581 37.4024 28.8397 37.4461C28.6195 37.4879 28.4048 37.5498 28.1955 37.6298L25.7808 38.5597L21.7629 32.7512C21.4263 32.2654 21.0369 31.8268 20.5928 31.4338C20.1488 31.0425 19.6648 30.7095 19.1407 30.4348C18.6167 30.16 18.0671 29.9507 17.4921 29.8106C16.9171 29.6687 16.3348 29.5977 15.7434 29.5977H13.0393V27.687C13.5506 27.6397 14.0529 27.5469 14.546 27.4068C15.0391 27.2685 15.5141 27.0847 15.9745 26.8554C16.433 26.628 16.8679 26.3586 17.2774 26.0511C17.6868 25.7418 18.0635 25.3978 18.4092 25.0194C18.755 24.6409 19.0625 24.2332 19.3336 23.7983C19.6029 23.3616 19.8304 22.9049 20.016 22.4281C20.2016 21.9495 20.3417 21.4582 20.4364 20.9542C20.531 20.4501 20.5783 19.9424 20.5783 19.4292C20.5783 18.9161 20.531 18.4084 20.4364 17.9043C20.3417 17.4003 20.2016 16.909 20.016 16.4304C19.8304 15.9536 19.6029 15.4969 19.3336 15.0602C19.0625 14.6252 18.755 14.2176 18.4092 13.8391C18.0635 13.4606 17.6868 13.1167 17.2774 12.8074C16.8679 12.4998 16.433 12.2305 15.9745 12.0031C15.5141 11.7756 15.0391 11.59 14.546 11.4517C14.0529 11.3116 13.5506 11.2188 13.0393 11.1715V7.27004C13.0393 6.89882 13.0757 6.53124 13.1485 6.16731C13.2213 5.80337 13.3286 5.45035 13.4724 5.10642C13.6143 4.76432 13.7872 4.43859 13.9946 4.13107C14.2003 3.82172 14.435 3.53603 14.697 3.27399C14.9591 3.01195 15.2448 2.77721 15.5541 2.57159C15.8616 2.36596 16.1874 2.19127 16.5295 2.04933C16.8734 1.9074 17.2264 1.80004 17.5903 1.72725C17.9543 1.65446 18.3219 1.61807 18.6931 1.61807H67.6884C68.0578 1.61807 68.4254 1.65446 68.7893 1.72725C69.1532 1.80004 69.5081 1.9074 69.8502 2.04933C70.1923 2.19127 70.518 2.36596 70.8274 2.57159C71.1367 2.77721 71.4206 3.01195 71.6844 3.27399C71.9465 3.53603 72.1812 3.82172 72.3868 4.12925C72.5925 4.4386 72.7672 4.76432 72.9091 5.10642C73.0528 5.45035 73.1602 5.80337 73.233 6.16731C73.3058 6.53124 73.3422 6.89882 73.3422 7.27004V45.2635Z" fill="white"/>
</g>
<mask id="mask1_397_283" style="mask-type:luminance" maskUnits="userSpaceOnUse" x="2" y="58" width="74" height="29">
<path d="M2.79688 58.1338H75.0024V86.6466H2.79688V58.1338Z" fill="white"/>
</mask>
<g mask="url(#mask1_397_283)">
<path d="M67.6916 74.8037H67.5406C67.9336 74.5326 68.303 74.2323 68.647 73.903C68.9927 73.5736 69.3093 73.2169 69.5968 72.8366C69.8862 72.4563 70.1428 72.056 70.3666 71.6338C70.5904 71.2135 70.7796 70.7767 70.9325 70.3254C71.0872 69.8723 71.2055 69.412 71.2855 68.9407C71.3656 68.4712 71.4074 67.9962 71.4129 67.5195C71.4165 67.0427 71.3838 66.5678 71.311 66.0965C71.24 65.6233 71.1308 65.1611 70.9853 64.7062V64.6844C70.8779 64.3459 70.7487 64.0147 70.6013 63.6926C70.4539 63.3687 70.2865 63.0558 70.1027 62.7537C69.9171 62.4498 69.7151 62.1586 69.4949 61.8802C69.2748 61.6 69.04 61.3361 68.7889 61.085C68.5378 60.8339 68.2739 60.5973 67.9937 60.3772C67.7153 60.1588 67.4241 59.9568 67.1202 59.7712C66.8182 59.5856 66.5052 59.42 66.1813 59.2708C65.8592 59.1234 65.528 58.996 65.1895 58.8868C64.8529 58.7777 64.509 58.6903 64.1596 58.6212C63.812 58.5538 63.4608 58.5065 63.106 58.481C62.7511 58.4556 62.3981 58.4501 62.0433 58.4665C61.6884 58.4829 61.3354 58.5193 60.9842 58.5775C60.6348 58.6357 60.2891 58.714 59.947 58.8122C59.6067 58.9123 59.2719 59.0306 58.9462 59.1689C58.6186 59.3072 58.302 59.4655 57.9926 59.642C57.6851 59.8185 57.3885 60.0114 57.1028 60.2243C56.8171 60.4354 56.546 60.6629 56.2876 60.9067C56.0292 61.1505 55.7872 61.4089 55.5597 61.6819C55.3322 61.9548 55.1212 62.2405 54.9283 62.539C54.7354 62.8356 54.5607 63.1449 54.4024 63.4634C54.2459 63.7818 54.1094 64.1094 53.9911 64.4442C53.8729 64.779 53.7746 65.1193 53.6982 65.465C53.6199 65.8126 53.5635 66.162 53.5271 66.515C53.4907 66.868 53.4762 67.2229 53.4816 67.5777C53.4889 67.9325 53.5162 68.2874 53.5635 68.6386C53.6108 68.9898 53.68 69.3373 53.7691 69.6813C53.8601 70.0252 53.9693 70.3637 54.0985 70.693C54.2277 71.0242 54.3769 71.3463 54.5443 71.6593C54.7117 71.9723 54.8973 72.2743 55.1011 72.5655C55.305 72.8566 55.5251 73.1332 55.7617 73.3989C55.9983 73.6628 56.2494 73.9139 56.5169 74.1486C56.7825 74.3834 57.061 74.6017 57.3539 74.8037H57.1993C56.5278 74.8055 55.8709 74.8983 55.2249 75.0839C54.5807 75.2677 53.9729 75.537 53.4034 75.8919C52.8338 76.2467 52.3225 76.6707 51.8712 77.1675C51.4199 77.6643 51.0432 78.212 50.7448 78.8125C50.4464 78.212 50.0715 77.6643 49.6202 77.1675C49.1689 76.6725 48.6576 76.2467 48.088 75.8919C47.5185 75.5389 46.9125 75.2696 46.2683 75.0839C45.6224 74.8983 44.9654 74.8055 44.294 74.8037H44.1466C44.5396 74.5326 44.909 74.2305 45.253 73.9011C45.5987 73.57 45.9153 73.2151 46.2028 72.8348C46.4903 72.4527 46.7469 72.0523 46.9707 71.6302C47.1946 71.208 47.3838 70.7713 47.5367 70.3182C47.6913 69.8669 47.8078 69.4047 47.8879 68.9352C47.9679 68.4639 48.0098 67.989 48.0153 67.5122C48.0189 67.0336 47.9843 66.5587 47.9133 66.0874C47.8406 65.6142 47.7332 65.152 47.5858 64.6971C47.4784 64.3587 47.3492 64.0275 47.2018 63.7054C47.0545 63.3815 46.8889 63.0685 46.7033 62.7646C46.5195 62.4625 46.3157 62.1714 46.0973 61.8912C45.8771 61.6127 45.6424 61.3471 45.3913 61.0959C45.1401 60.8448 44.8763 60.6083 44.596 60.3881C44.3176 60.1697 44.0265 59.9659 43.7226 59.7803C43.4205 59.5965 43.1075 59.4291 42.7836 59.2817C42.4615 59.1325 42.1304 59.0051 41.7937 58.8959C41.4552 58.7868 41.1113 58.6994 40.7619 58.6303C40.4144 58.5629 40.0632 58.5156 39.7083 58.4901C39.3535 58.4628 39.0005 58.4574 38.6456 58.4738C38.2908 58.4901 37.9378 58.5265 37.5866 58.5848C37.2372 58.643 36.8915 58.7212 36.5494 58.8195C36.2091 58.9178 35.8742 59.0379 35.5467 59.1762C35.221 59.3145 34.9025 59.4728 34.595 59.6493C34.2856 59.824 33.989 60.0187 33.7033 60.2298C33.4195 60.4427 33.1465 60.6701 32.8881 60.914C32.6315 61.1578 32.3877 61.4162 32.1602 61.6892C31.9328 61.9621 31.7217 62.2478 31.5288 62.5444C31.3359 62.8429 31.1594 63.1504 31.0029 63.4688C30.8464 63.7873 30.7081 64.1148 30.5898 64.4496C30.4716 64.7845 30.3751 65.1248 30.2969 65.4723C30.2186 65.8181 30.1622 66.1693 30.1258 66.5223C30.0894 66.8753 30.0749 67.2301 30.0822 67.585C30.0876 67.9398 30.1149 68.2928 30.1622 68.6459C30.2113 68.9971 30.2787 69.3446 30.3678 69.6885C30.4588 70.0325 30.568 70.3691 30.6972 70.7003C30.8264 71.0315 30.9756 71.3536 31.143 71.6666C31.3104 71.9795 31.4961 72.2816 31.6999 72.5728C31.9037 72.8639 32.1238 73.1423 32.3604 73.4062C32.597 73.6719 32.8481 73.9212 33.1156 74.1559C33.3813 74.3906 33.6615 74.609 33.9526 74.811H33.8034C33.132 74.8128 32.4751 74.9056 31.8309 75.0894C31.1849 75.275 30.5789 75.5443 30.0094 75.8973C29.438 76.2504 28.9285 76.6744 28.4754 77.1693C28.0241 77.6661 27.6492 78.212 27.349 78.8125C27.0505 78.212 26.6757 77.6643 26.2244 77.1675C25.7731 76.6725 25.2618 76.2467 24.6922 75.8919C24.1226 75.5389 23.5167 75.2696 22.8707 75.0839C22.2265 74.8983 21.5696 74.8055 20.8981 74.8037H20.7489C21.0091 74.6236 21.2603 74.4307 21.5005 74.225C21.7388 74.0176 21.9681 73.7992 22.1847 73.57C22.4012 73.3389 22.605 73.0968 22.7961 72.8457C22.9872 72.5946 23.1655 72.3326 23.3293 72.0614C23.4912 71.7903 23.6404 71.5119 23.7751 71.2262C23.9097 70.9387 24.028 70.6457 24.1299 70.3473C24.2337 70.0488 24.321 69.745 24.392 69.4356C24.4629 69.1281 24.5175 68.8169 24.5557 68.5039C24.594 68.1891 24.614 67.8743 24.6194 67.5577C24.6231 67.2411 24.6121 66.9262 24.583 66.6114C24.5539 66.2966 24.5084 65.9836 24.4466 65.6725C24.3847 65.3631 24.3083 65.0574 24.2136 64.7554C24.119 64.4533 24.0098 64.1567 23.8843 63.8655C23.7587 63.5762 23.6186 63.2923 23.4621 63.0175C23.3074 62.7428 23.1382 62.4753 22.9544 62.2187C22.7706 61.9603 22.5741 61.7128 22.363 61.4763C22.1537 61.2397 21.9317 61.0141 21.6988 60.8012C21.4659 60.5882 21.2202 60.3881 20.9655 60.2007C20.7107 60.0132 20.4469 59.8404 20.1739 59.6802C19.901 59.5201 19.6207 59.3763 19.3314 59.2471C19.0439 59.1161 18.7491 59.0015 18.4488 58.9032C18.1486 58.8049 17.8429 58.7231 17.5335 58.6557C17.2242 58.5902 16.913 58.5393 16.5982 58.5065C16.2834 58.4738 15.9686 58.4556 15.652 58.4556C15.3353 58.4556 15.0205 58.4738 14.7057 58.5065C14.3909 58.5393 14.0797 58.5902 13.7704 58.6557C13.4611 58.7231 13.1553 58.8049 12.8551 58.9032C12.5548 59.0015 12.2601 59.1161 11.9707 59.2471C11.6832 59.3763 11.403 59.5201 11.13 59.6802C10.8552 59.8404 10.5914 60.0132 10.3366 60.2007C10.0819 60.3881 9.83804 60.5882 9.60512 60.8012C9.37038 61.0141 9.15019 61.2397 8.93911 61.4763C8.72984 61.7128 8.53332 61.9603 8.34953 62.2187C8.16574 62.4753 7.99651 62.7428 7.84183 63.0175C7.68534 63.2923 7.54522 63.5762 7.41966 63.8655C7.2941 64.1567 7.18492 64.4533 7.0903 64.7554C6.99567 65.0574 6.91743 65.3631 6.85556 65.6725C6.79369 65.9836 6.7482 66.2966 6.7209 66.6114C6.69179 66.9262 6.67905 67.2411 6.68451 67.5577C6.68815 67.8743 6.70998 68.1891 6.7482 68.5039C6.78641 68.8169 6.841 69.1281 6.91197 69.4356C6.98294 69.745 7.07028 70.0488 7.17218 70.3473C7.27591 70.6457 7.39419 70.9387 7.52884 71.2262C7.66168 71.5119 7.8109 71.7903 7.97467 72.0614C8.13844 72.3326 8.31495 72.5946 8.50784 72.8457C8.69891 73.0968 8.90272 73.3389 9.11926 73.57C9.3358 73.7992 9.56327 74.0176 9.80346 74.225C10.0437 74.4307 10.293 74.6236 10.5532 74.8037H10.404C9.9272 74.8037 9.4559 74.851 8.99006 74.9438C8.5224 75.0366 8.06929 75.1749 7.63075 75.3569C7.19038 75.5389 6.77367 75.7627 6.37698 76.0284C5.9821 76.2922 5.61634 76.5925 5.2797 76.9291C4.94306 77.2658 4.64281 77.6315 4.37895 78.0282C4.11328 78.4231 3.89127 78.8398 3.7093 79.2802C3.52551 79.7205 3.38904 80.1736 3.29623 80.6395C3.20161 81.1053 3.15612 81.5766 3.1543 82.0534V85.8274C3.1543 85.933 3.17613 86.0349 3.21617 86.1331C3.2562 86.2314 3.31443 86.3187 3.38904 86.3934C3.46365 86.468 3.55099 86.5262 3.64925 86.5662C3.7457 86.6063 3.8476 86.6263 3.95496 86.6263H74.1443C74.2498 86.6263 74.3517 86.6063 74.45 86.5662C74.5482 86.5262 74.6356 86.468 74.7102 86.3934C74.7848 86.3187 74.843 86.2314 74.8831 86.1331C74.9231 86.0349 74.9431 85.933 74.9431 85.8274V82.0534C74.9431 81.5766 74.8958 81.1053 74.803 80.6395C74.7102 80.1718 74.5719 79.7187 74.3899 79.2802C74.2079 78.8398 73.9841 78.4213 73.7185 78.0264C73.4546 77.6297 73.1543 77.2639 72.8177 76.9273C72.4811 76.5907 72.1135 76.2904 71.7186 76.0265C71.3219 75.7627 70.9052 75.5389 70.4648 75.3569C70.0245 75.1749 69.5714 75.0366 69.1055 74.9438C68.6379 74.851 68.1666 74.8037 67.6916 74.8037ZM62.4418 60.0624C62.8239 60.0642 63.2006 60.0933 63.5773 60.1533C63.954 60.2134 64.3215 60.3026 64.6837 60.419C65.0458 60.5373 65.397 60.6811 65.7373 60.8521C66.0775 61.025 66.4015 61.2215 66.7108 61.4435C67.0202 61.6655 67.3095 61.9093 67.5806 62.1768C67.8518 62.4443 68.1011 62.73 68.3285 63.0357C68.5542 63.3414 68.7561 63.6635 68.9327 64.0002C69.1092 64.3368 69.2602 64.6862 69.3821 65.0465C69.2566 65.405 69.1055 65.7507 68.9254 66.0837C68.747 66.4186 68.5451 66.7352 68.3158 67.0391C68.0883 67.3411 67.839 67.625 67.5679 67.8889C67.2949 68.1527 67.0056 68.3929 66.6962 68.6131C66.3869 68.8315 66.063 69.0262 65.7245 69.1954C65.3861 69.3646 65.0349 69.5066 64.6746 69.6212C64.3143 69.7359 63.9467 69.8232 63.5718 69.8814C63.197 69.9378 62.8221 69.967 62.4418 69.967C62.0633 69.967 61.6866 69.9378 61.3136 69.8814C60.9387 69.8232 60.5712 69.7359 60.2109 69.6212C59.8487 69.5066 59.4994 69.3646 59.1609 69.1954C58.8224 69.0262 58.4985 68.8315 58.1892 68.6131C57.8798 68.3929 57.5887 68.1527 57.3175 67.8889C57.0464 67.625 56.7971 67.3411 56.5678 67.0391C56.3404 66.7352 56.1366 66.4186 55.9582 66.0837C55.7799 65.7507 55.6289 65.405 55.5033 65.0465C55.6252 64.6862 55.7744 64.3368 55.9528 64.0002C56.1293 63.6635 56.3313 63.3414 56.5569 63.0357C56.7844 62.73 57.0318 62.4443 57.3048 62.1768C57.5759 61.9093 57.8653 61.6655 58.1746 61.4435C58.484 61.2215 58.8079 61.025 59.1482 60.8521C59.4866 60.6811 59.8378 60.5373 60.1999 60.419C60.5621 60.3026 60.9314 60.2134 61.3081 60.1533C61.683 60.0933 62.0615 60.0642 62.4418 60.0624ZM55.1048 67.7542C55.3104 68.049 55.5342 68.3292 55.7726 68.5949C56.0128 68.8624 56.2676 69.1135 56.5369 69.3501C56.8062 69.5866 57.0901 69.805 57.3867 70.007C57.6815 70.209 57.989 70.3928 58.3074 70.5584C58.6259 70.724 58.9534 70.8695 59.2883 70.9951C59.6231 71.1225 59.9652 71.228 60.3146 71.3135C60.6621 71.3972 61.0152 71.4627 61.37 71.5046C61.7267 71.5483 62.0833 71.5701 62.4418 71.5701C62.8003 71.5701 63.1588 71.5483 63.5136 71.5046C63.8703 71.4627 64.2233 71.3972 64.5708 71.3135C64.9184 71.228 65.2605 71.1225 65.5971 70.9951C65.932 70.8695 66.2595 70.724 66.578 70.5584C66.8964 70.3928 67.2021 70.209 67.4987 70.007C67.7953 69.805 68.0774 69.5866 68.3485 69.3501C68.6178 69.1135 68.8726 68.8624 69.111 68.5949C69.3512 68.3292 69.575 68.049 69.7806 67.7542C69.7606 68.2237 69.6969 68.6859 69.5877 69.1426C69.4804 69.5994 69.3293 70.0416 69.1365 70.4692C68.9436 70.8968 68.7106 71.3026 68.4413 71.6866C68.1702 72.0705 67.8645 72.4235 67.526 72.7493C67.1876 73.0732 66.82 73.3643 66.4269 73.6173C66.0321 73.872 65.6172 74.0868 65.1823 74.2633C64.7474 74.438 64.2979 74.569 63.8375 74.6581C63.3771 74.7473 62.9113 74.7928 62.4418 74.7928C61.9723 74.7928 61.5083 74.7473 61.0479 74.6581C60.5857 74.569 60.1381 74.438 59.7032 74.2633C59.2682 74.0868 58.8534 73.872 58.4585 73.6173C58.0636 73.3643 57.6979 73.0732 57.3594 72.7493C57.0209 72.4235 56.7152 72.0705 56.4441 71.6866C56.1729 71.3026 55.9418 70.8968 55.749 70.4692C55.5561 70.0416 55.405 69.5994 55.2959 69.1426C55.1885 68.6859 55.1248 68.2237 55.1048 67.7542ZM39.0478 60.0624C39.4281 60.0642 39.8066 60.0933 40.1815 60.1533C40.5581 60.2134 40.9275 60.3026 41.2897 60.419C41.6518 60.5373 42.0012 60.6811 42.3414 60.8521C42.6817 61.025 43.0056 61.2215 43.315 61.4435C43.6243 61.6655 43.9137 61.9093 44.1848 62.1768C44.4559 62.4443 44.7052 62.73 44.9309 63.0357C45.1583 63.3414 45.3603 63.6617 45.5368 64.0002C45.7133 64.3368 45.8626 64.6844 45.9863 65.0447C45.8607 65.4032 45.7079 65.7489 45.5295 66.0819C45.3512 66.4167 45.1474 66.7352 44.9199 67.0373C44.6925 67.3393 44.4432 67.6232 44.1702 67.887C43.8991 68.1509 43.6098 68.3929 43.3004 68.6113C42.9911 68.8296 42.6672 69.0244 42.3287 69.1936C41.9884 69.3628 41.639 69.5048 41.2787 69.6194C40.9184 69.734 40.5509 69.8214 40.176 69.8796C39.8011 69.9378 39.4245 69.967 39.046 69.967C38.6675 69.967 38.2908 69.9378 37.9159 69.8796C37.5429 69.8214 37.1753 69.734 36.8132 69.6194C36.4529 69.5048 36.1035 69.3628 35.7651 69.1936C35.4248 69.0244 35.1009 68.8296 34.7933 68.6113C34.484 68.3929 34.1928 68.1509 33.9217 67.887C33.6506 67.6232 33.3995 67.3393 33.172 67.0373C32.9445 66.7352 32.7407 66.4167 32.5624 66.0819C32.3841 65.7489 32.2312 65.4032 32.1057 65.0447C32.2294 64.6844 32.3786 64.3368 32.5551 63.9984C32.7334 63.6617 32.9354 63.3414 33.1611 63.0357C33.3885 62.73 33.6378 62.4425 33.909 62.175C34.1801 61.9093 34.4694 61.6637 34.7788 61.4417C35.0881 61.2197 35.4139 61.0232 35.7523 60.8521C36.0926 60.6792 36.4438 60.5355 36.8059 60.419C37.168 60.3007 37.5374 60.2134 37.9123 60.1533C38.289 60.0933 38.6675 60.0624 39.0478 60.0624ZM31.7108 67.756C31.9164 68.0508 32.1384 68.3292 32.3786 68.5967C32.6188 68.8642 32.8736 69.1153 33.1429 69.3519C33.4122 69.5866 33.6961 69.8068 33.9909 70.0088C34.2875 70.2108 34.595 70.3946 34.9134 70.5602C35.2319 70.7258 35.5576 70.8713 35.8943 70.9969C36.2291 71.1243 36.5712 71.2298 36.9187 71.3154C37.2681 71.3991 37.6193 71.4627 37.976 71.5064C38.3327 71.5501 38.6893 71.5701 39.0478 71.5701C39.4063 71.5701 39.7629 71.5501 40.1196 71.5064C40.4763 71.4627 40.8275 71.3991 41.1768 71.3154C41.5244 71.2298 41.8665 71.1243 42.2013 70.9969C42.538 70.8713 42.8655 70.7258 43.1821 70.5602C43.5006 70.3946 43.8081 70.2108 44.1047 70.0088C44.3995 69.8068 44.6834 69.5866 44.9527 69.3519C45.222 69.1153 45.4768 68.8642 45.717 68.5967C45.9572 68.3292 46.1792 68.0508 46.3848 67.756C46.3666 68.2255 46.3029 68.6877 46.1937 69.1445C46.0864 69.6012 45.9353 70.0434 45.7425 70.471C45.5496 70.8986 45.3166 71.3044 45.0455 71.6884C44.7744 72.0723 44.4705 72.4254 44.132 72.7511C43.7936 73.075 43.426 73.3643 43.0329 73.6191C42.6381 73.8738 42.2232 74.0886 41.7883 74.2651C41.3515 74.4398 40.9039 74.5708 40.4435 74.66C39.9831 74.7491 39.5173 74.7946 39.0478 74.7946C38.5783 74.7946 38.1143 74.7491 37.6521 74.66C37.1917 74.5708 36.7441 74.4398 36.3092 74.2651C35.8724 74.0886 35.4575 73.8738 35.0645 73.6191C34.6696 73.3643 34.3038 73.075 33.9636 72.7511C33.6251 72.4254 33.3212 72.0723 33.0501 71.6884C32.7789 71.3044 32.5478 70.8986 32.3531 70.471C32.1602 70.0434 32.011 69.6012 31.9018 69.1445C31.7945 68.6877 31.729 68.2255 31.7108 67.756ZM15.652 60.0624C16.0323 60.0642 16.4108 60.0933 16.7856 60.1533C17.1623 60.2134 17.5299 60.3026 17.892 60.419C18.2541 60.5355 18.6053 60.6811 18.9456 60.8521C19.2841 61.0232 19.608 61.2197 19.9173 61.4417C20.2267 61.6637 20.516 61.9075 20.7871 62.175C21.0583 62.4407 21.3076 62.7282 21.535 63.0339C21.7607 63.3396 21.9627 63.6599 22.141 63.9965C22.3175 64.3332 22.4667 64.6826 22.5905 65.0429C22.4649 65.3995 22.3139 65.7453 22.1337 66.0801C21.9554 66.4131 21.7534 66.7315 21.5259 67.0336C21.2985 67.3375 21.0474 67.6214 20.7762 67.8852C20.5051 68.1491 20.2158 68.3911 19.9064 68.6095C19.5971 68.8297 19.2732 69.0225 18.9347 69.1918C18.5962 69.361 18.2469 69.5048 17.8847 69.6194C17.5244 69.734 17.1569 69.8214 16.7838 69.8796C16.409 69.9378 16.0323 69.967 15.6538 69.967C15.2753 69.9688 14.8986 69.9397 14.5238 69.8814C14.1489 69.8232 13.7813 69.7377 13.421 69.623C13.0607 69.5084 12.7095 69.3665 12.3711 69.1972C12.0326 69.028 11.7087 68.8351 11.3993 68.6149C11.09 68.3966 10.7988 68.1564 10.5277 67.8925C10.2547 67.6287 10.0055 67.3448 9.77799 67.0427C9.54871 66.7406 9.34672 66.4222 9.16657 66.0892C8.98824 65.7544 8.83539 65.4086 8.70983 65.052C8.83357 64.6917 8.98278 64.3423 9.15929 64.0038C9.3358 63.6672 9.53779 63.3451 9.76343 63.0394C9.99089 62.7337 10.2402 62.4462 10.5113 62.1787C10.7825 61.9112 11.0718 61.6673 11.3811 61.4453C11.6905 61.2233 12.0162 61.025 12.3547 60.8539C12.695 60.6811 13.0462 60.5373 13.4083 60.419C13.7704 60.3026 14.1398 60.2134 14.5165 60.1533C14.8932 60.0933 15.2717 60.0642 15.652 60.0624ZM8.31313 67.7578C8.52058 68.0508 8.74258 68.3311 8.98278 68.5985C9.22116 68.866 9.47592 69.1172 9.74705 69.3537C10.0164 69.5885 10.2984 69.8086 10.595 70.0106C10.8916 70.2126 11.1992 70.3964 11.5176 70.562C11.8342 70.7276 12.1618 70.8732 12.4966 70.9987C12.8333 71.1261 13.1754 71.2316 13.5229 71.3154C13.8723 71.4009 14.2235 71.4646 14.5802 71.5082C14.935 71.5501 15.2935 71.5719 15.652 71.5719C16.0104 71.5719 16.3671 71.5501 16.7238 71.5082C17.0804 71.4646 17.4316 71.4009 17.7792 71.3154C18.1286 71.2316 18.4707 71.1261 18.8055 70.9987C19.1421 70.8732 19.4679 70.7276 19.7863 70.562C20.1048 70.3964 20.4123 70.2126 20.7089 70.0106C21.0037 69.8086 21.2876 69.5885 21.5569 69.3537C21.8262 69.1172 22.0809 68.866 22.3211 68.5985C22.5613 68.3311 22.7834 68.0508 22.989 67.7578C22.9708 68.2273 22.9053 68.6895 22.7979 69.1463C22.6887 69.603 22.5395 70.0452 22.3448 70.4728C22.1519 70.9005 21.9208 71.3063 21.6497 71.6902C21.3785 72.0723 21.0747 72.4272 20.7362 72.7529C20.3959 73.0768 20.0302 73.3662 19.6353 73.6209C19.2422 73.8757 18.8273 74.0904 18.3906 74.2651C17.9557 74.4416 17.5081 74.5726 17.0477 74.6618C16.5855 74.7509 16.1214 74.7964 15.652 74.7964C15.1825 74.7964 14.7166 74.7509 14.2563 74.6618C13.7959 74.5726 13.3482 74.4416 12.9115 74.2651C12.4766 74.0904 12.0617 73.8757 11.6668 73.6209C11.2738 73.3662 10.9062 73.0768 10.5677 72.7529C10.2293 72.4272 9.92538 72.0723 9.65425 71.6902C9.38311 71.3063 9.15019 70.9005 8.95731 70.4728C8.76442 70.0452 8.61338 69.603 8.50602 69.1463C8.39684 68.6895 8.33315 68.2273 8.31313 67.7578ZM4.75381 82.0534C4.75381 81.6822 4.7902 81.3146 4.86299 80.9506C4.93578 80.5867 5.04314 80.2337 5.18508 79.8916C5.32701 79.5495 5.5017 79.2238 5.70733 78.9144C5.91296 78.6069 6.1477 78.3212 6.40973 78.0591C6.67177 77.7971 6.95746 77.5624 7.26499 77.3567C7.57434 77.1511 7.90006 76.9764 8.24217 76.8345C8.58427 76.6926 8.93729 76.5852 9.30123 76.5124C9.66517 76.4396 10.0327 76.4032 10.404 76.4014H20.8981C21.2694 76.4032 21.6369 76.4396 22.0009 76.5124C22.3648 76.5852 22.7178 76.6926 23.0599 76.8345C23.4021 76.9764 23.7278 77.1493 24.0371 77.3567C24.3447 77.5624 24.6303 77.7971 24.8924 78.0591C25.1544 78.3212 25.3892 78.6069 25.5948 78.9144C25.8022 79.2238 25.9751 79.5495 26.117 79.8916C26.2608 80.2337 26.3682 80.5867 26.4391 80.9506C26.5119 81.3146 26.5501 81.6822 26.5501 82.0534V85.0286H4.75381V82.0534ZM28.1478 82.0534C28.1478 81.6822 28.1842 81.3146 28.257 80.9506C28.3298 80.5867 28.4371 80.2337 28.5791 79.8916C28.721 79.5495 28.8957 79.2238 29.1013 78.9144C29.3088 78.6069 29.5417 78.3212 29.8056 78.0591C30.0676 77.7971 30.3533 77.5624 30.6608 77.3567C30.9702 77.1493 31.2941 76.9764 31.638 76.8327C31.9801 76.6907 32.3331 76.5834 32.6971 76.5106C33.061 76.4396 33.4286 76.4014 33.7998 76.4014H44.294C44.6652 76.4032 45.0328 76.4396 45.3967 76.5124C45.7607 76.5852 46.1137 76.6926 46.4558 76.8345C46.7997 76.9764 47.1236 77.1493 47.4329 77.3567C47.7405 77.5624 48.0262 77.7971 48.2882 78.0591C48.5502 78.3212 48.785 78.6069 48.9906 78.9144C49.1981 79.2238 49.3709 79.5495 49.5147 79.8916C49.6566 80.2337 49.764 80.5867 49.8368 80.9506C49.9096 81.3146 49.9459 81.6822 49.9459 82.0534V85.0286H28.1478V82.0534ZM73.3454 85.0286H51.5436V82.0534C51.5455 81.6822 51.5819 81.3146 51.6546 80.9506C51.7274 80.5867 51.8348 80.2337 51.9767 79.8916C52.1187 79.5477 52.2934 79.2219 52.499 78.9144C52.7064 78.6051 52.9394 78.3194 53.2032 78.0573C53.4652 77.7953 53.7509 77.5605 54.0585 77.3549C54.3678 77.1493 54.6935 76.9746 55.0356 76.8327C55.3796 76.6907 55.7326 76.5834 56.0965 76.5106C56.4605 76.4378 56.828 76.4014 57.1993 76.4014H67.6934C68.0647 76.4032 68.4322 76.4396 68.7962 76.5124C69.1601 76.5852 69.5131 76.6926 69.8552 76.8345C70.1992 76.9764 70.5231 77.1493 70.8324 77.3567C71.1399 77.5624 71.4256 77.7971 71.6877 78.0591C71.9497 78.3212 72.1844 78.6069 72.3901 78.9144C72.5975 79.2238 72.7704 79.5495 72.9141 79.8916C73.0561 80.2337 73.1634 80.5867 73.2362 80.9506C73.309 81.3146 73.3454 81.6822 73.3454 82.0534V85.0286Z" fill="white"/>
</g>
<path d="M63.985 18.6301C63.3917 18.6319 62.8167 18.7393 62.2617 18.9486C61.7067 19.1596 61.2045 19.4599 60.7586 19.8511L54.2459 14.4157C54.7154 13.6423 54.952 12.8016 54.9574 11.8954C54.9574 11.5697 54.9265 11.2476 54.8628 10.9273C54.7991 10.6071 54.7045 10.2977 54.579 9.99565C54.4552 9.6954 54.3024 9.40971 54.1204 9.13858C53.9402 8.86744 53.7346 8.61632 53.5035 8.38522C53.2742 8.15594 53.0231 7.95032 52.752 7.76835C52.4808 7.5882 52.1952 7.43534 51.8931 7.30978C51.5928 7.18604 51.2817 7.09142 50.9632 7.02773C50.643 6.96404 50.3209 6.93311 49.9951 6.93311C49.6694 6.93311 49.3455 6.96404 49.0271 7.02773C48.7068 7.09142 48.3956 7.18604 48.0954 7.30978C47.7933 7.43534 47.5076 7.5882 47.2365 7.76835C46.9653 7.95032 46.716 8.15594 46.4849 8.38522C46.2538 8.61632 46.0482 8.86744 45.8681 9.13858C45.6861 9.40971 45.5332 9.6954 45.4095 9.99565C45.2839 10.2977 45.1911 10.6071 45.1275 10.9273C45.0638 11.2476 45.031 11.5697 45.031 11.8954C45.0365 12.6779 45.2184 13.4167 45.5769 14.1118L34.4167 22.2204C34.2657 22.0657 34.1037 21.9219 33.9345 21.7873C33.7653 21.6508 33.5888 21.5271 33.4032 21.4142C33.2175 21.3014 33.0265 21.2013 32.83 21.1122C32.6316 21.023 32.4296 20.9466 32.2222 20.8829C32.0165 20.8192 31.8055 20.7701 31.5926 20.7319C31.3797 20.6936 31.1649 20.67 30.9484 20.6591C30.7318 20.6482 30.5153 20.6518 30.2988 20.6682C30.084 20.6845 29.8693 20.7137 29.6564 20.7555C29.4435 20.7992 29.2361 20.8556 29.0304 20.9247C28.8248 20.9939 28.6246 21.074 28.4299 21.1686C28.2334 21.2632 28.046 21.3688 27.864 21.4852C27.682 21.6035 27.5073 21.7309 27.3418 21.871C27.1762 22.0093 27.0178 22.1585 26.8704 22.3168C26.7231 22.4751 26.5866 22.6425 26.4592 22.819C26.3336 22.9937 26.219 23.1775 26.1135 23.3668C26.0097 23.5578 25.9187 23.7526 25.8387 23.9545C25.7604 24.1565 25.6931 24.3622 25.6403 24.5714C25.5857 24.7807 25.5457 24.9936 25.5184 25.2083C25.4911 25.423 25.4766 25.6396 25.4766 25.8561C25.4766 26.0727 25.4893 26.2892 25.5148 26.5039C25.5421 26.7187 25.5821 26.9316 25.6349 27.1408C25.6876 27.3501 25.7532 27.5575 25.8314 27.7595C25.9097 27.9597 26.0006 28.1562 26.1044 28.3473C26.2081 28.5384 26.3227 28.7203 26.4483 28.8968C26.5738 29.0733 26.7103 29.2408 26.8577 29.4009C27.0033 29.5592 27.1598 29.7084 27.3254 29.8485C27.491 29.9886 27.6638 30.1178 27.8458 30.2361C28.0278 30.3544 28.2152 30.4599 28.4117 30.5546C28.6064 30.6492 28.8048 30.7311 29.0104 30.8021C29.216 30.8712 29.4253 30.9276 29.6364 30.9713C29.8493 31.015 30.0622 31.0459 30.2787 31.0641C30.4953 31.0805 30.71 31.0841 30.9266 31.0732C31.1431 31.0641 31.3578 31.0404 31.5725 31.004C31.7854 30.9676 31.9965 30.9185 32.204 30.8548C32.4096 30.7911 32.6134 30.7165 32.8099 30.6274C33.0083 30.54 33.2012 30.4399 33.385 30.3271C33.5706 30.2161 33.7489 30.0924 33.9181 29.9595C34.0892 29.8249 34.2493 29.6811 34.4022 29.5264C34.5532 29.3718 34.6951 29.208 34.828 29.0369C34.959 28.8641 35.0809 28.6857 35.1901 28.4983C35.2993 28.3109 35.3957 28.118 35.4812 27.9197C35.5668 27.7195 35.6396 27.5157 35.6996 27.3082C35.7597 27.1008 35.8052 26.8897 35.8397 26.675C35.8725 26.4603 35.8925 26.2455 35.8998 26.029C35.9071 25.8124 35.8998 25.5959 35.8798 25.3812C35.8597 25.1646 35.827 24.9517 35.7797 24.7406C35.7324 24.5296 35.6723 24.3203 35.6013 24.1165C35.5286 23.9127 35.443 23.7143 35.3448 23.5215L46.5013 15.4092C46.7197 15.6276 46.9562 15.8241 47.211 15.9988C47.4676 16.1717 47.7369 16.3209 48.0208 16.4447C48.3028 16.5666 48.5958 16.663 48.8979 16.7303C49.1999 16.7977 49.5038 16.8377 49.8132 16.8468C50.1225 16.8577 50.43 16.8395 50.7358 16.7922C51.0396 16.7431 51.3381 16.6685 51.6292 16.5648C51.9204 16.461 52.2006 16.33 52.4663 16.1735C52.732 16.017 52.9831 15.8369 53.2142 15.6331L59.7287 21.0685C59.261 21.8419 59.0263 22.6808 59.0208 23.5851C59.0208 23.9109 59.0536 24.233 59.1173 24.5514C59.1791 24.8698 59.2738 25.181 59.3993 25.4813C59.5231 25.7815 59.6759 26.0672 59.8561 26.3383C60.038 26.6077 60.2418 26.8588 60.4729 27.0899C60.7022 27.3192 60.9533 27.5248 61.2245 27.7049C61.4938 27.8869 61.7795 28.0379 62.0797 28.1635C62.3818 28.2872 62.6912 28.3819 63.0096 28.4455C63.3299 28.5092 63.652 28.5402 63.9777 28.5402C64.3016 28.5402 64.6255 28.5092 64.9439 28.4455C65.2624 28.3819 65.5736 28.2872 65.8738 28.1635C66.1741 28.0379 66.4597 27.8869 66.7309 27.7049C67.0002 27.5248 67.2513 27.3192 67.4806 27.0899C67.7117 26.8588 67.9173 26.6077 68.0975 26.3383C68.2776 26.0672 68.4305 25.7815 68.556 25.4813C68.6798 25.181 68.7744 24.8698 68.8381 24.5514C68.9018 24.233 68.9327 23.9109 68.9327 23.5851C68.9327 23.2594 68.9018 22.9373 68.8381 22.6171C68.7744 22.2986 68.6798 21.9893 68.556 21.689C68.4305 21.3869 68.2776 21.1013 68.0975 20.8319C67.9173 20.5608 67.7117 20.3097 67.4806 20.0804C67.2513 19.8511 67.0002 19.6455 66.7309 19.4635C66.4597 19.2834 66.1741 19.1305 65.8738 19.0068C65.5736 18.8812 65.2624 18.7884 64.9439 18.7247C64.6255 18.661 64.3016 18.6283 63.9777 18.6283L63.985 18.6301ZM30.9375 29.1188C30.7173 29.1188 30.4989 29.097 30.2842 29.0533C30.0677 29.0097 29.8584 28.946 29.6546 28.8604C29.4508 28.7767 29.2579 28.673 29.0741 28.5493C28.8921 28.4273 28.7229 28.2872 28.5664 28.1307C28.4117 27.9742 28.2734 27.805 28.1515 27.6212C28.0296 27.4393 27.9259 27.2445 27.8422 27.0407C27.7585 26.8369 27.6948 26.6277 27.6529 26.4111C27.6092 26.1946 27.5874 25.9762 27.5892 25.756C27.5892 25.5359 27.6111 25.3175 27.6547 25.1028C27.6966 24.8862 27.7621 24.677 27.8458 24.4732C27.9313 24.2693 28.0351 24.0765 28.157 23.8927C28.2789 23.7107 28.419 23.5415 28.5755 23.385C28.7302 23.2303 28.9012 23.0902 29.0832 22.9683C29.267 22.8463 29.4599 22.7426 29.6637 22.6589C29.8675 22.5752 30.0768 22.5115 30.2933 22.4697C30.5098 22.426 30.7282 22.4042 30.9484 22.4042C31.1686 22.406 31.3869 22.426 31.6035 22.4697C31.8182 22.5133 32.0293 22.577 32.2331 22.6607C32.4351 22.7463 32.6298 22.85 32.8118 22.9719C32.9955 23.0938 33.1648 23.2339 33.3213 23.3886C33.4759 23.5451 33.6161 23.7143 33.738 23.8981C33.8599 24.0801 33.9636 24.2748 34.0473 24.4786C34.131 24.6824 34.1947 24.8917 34.2384 25.1082C34.2821 25.3229 34.3021 25.5413 34.3021 25.7615C34.3021 25.9835 34.2802 26.2019 34.2366 26.4166C34.1929 26.6331 34.1292 26.8442 34.0437 27.0462C33.9582 27.25 33.8544 27.4447 33.7325 27.6267C33.6088 27.8105 33.4705 27.9797 33.314 28.1362C33.1575 28.2909 32.9883 28.431 32.8045 28.5529C32.6207 28.6748 32.4278 28.7786 32.224 28.8623C32.0202 28.9478 31.8091 29.0115 31.5926 29.0533C31.376 29.097 31.1577 29.1188 30.9375 29.1188ZM49.9933 15.2546C49.7731 15.2546 49.5548 15.2327 49.3382 15.1891C49.1217 15.1472 48.9124 15.0835 48.7086 14.998C48.5048 14.9143 48.3119 14.8106 48.1281 14.6886C47.9443 14.5667 47.7751 14.4266 47.6204 14.2701C47.4639 14.1154 47.3238 13.9462 47.2019 13.7624C47.08 13.5786 46.9763 13.3857 46.8926 13.1819C46.807 12.9781 46.7433 12.7689 46.7015 12.5523C46.6578 12.3358 46.636 12.1174 46.636 11.8972C46.636 11.6771 46.6578 11.4587 46.7015 11.2421C46.7433 11.0256 46.807 10.8163 46.8926 10.6125C46.9763 10.4087 47.08 10.2158 47.2019 10.032C47.3238 9.84826 47.4639 9.67903 47.6204 9.52253C47.7751 9.36786 47.9443 9.22774 48.1281 9.10582C48.3119 8.9839 48.5048 8.88018 48.7086 8.79465C48.9124 8.71095 49.1217 8.64726 49.3382 8.60359C49.5548 8.56173 49.7731 8.5399 49.9933 8.5399C50.2135 8.5399 50.4319 8.56173 50.6484 8.60359C50.865 8.64726 51.0742 8.71095 51.278 8.79465C51.4818 8.88018 51.6747 8.9839 51.8585 9.10582C52.0423 9.22774 52.2115 9.36786 52.368 9.52253C52.5227 9.67903 52.6628 9.84826 52.7847 10.032C52.9067 10.2158 53.0104 10.4087 53.0959 10.6125C53.1796 10.8163 53.2433 11.0256 53.287 11.2421C53.3288 11.4587 53.3507 11.6771 53.3507 11.8972C53.3507 12.1174 53.3288 12.3358 53.2851 12.5505C53.2415 12.767 53.1778 12.9763 53.0923 13.1801C53.0086 13.3839 52.9048 13.5768 52.7829 13.7606C52.6592 13.9426 52.5209 14.1118 52.3644 14.2683C52.2097 14.423 52.0405 14.5631 51.8567 14.685C51.6729 14.8087 51.48 14.9107 51.2762 14.9962C51.0742 15.0799 50.8631 15.1454 50.6484 15.1872C50.4319 15.2309 50.2135 15.2528 49.9933 15.2546ZM63.985 26.957C63.7648 26.9552 63.5464 26.9334 63.3299 26.8897C63.1151 26.846 62.9041 26.7823 62.7021 26.6986C62.4983 26.6131 62.3054 26.5094 62.1216 26.3875C61.9396 26.2637 61.7704 26.1236 61.6139 25.9689C61.4592 25.8124 61.3209 25.6432 61.199 25.4594C61.0753 25.2756 60.9734 25.0827 60.8897 24.8789C60.806 24.6751 60.7423 24.4641 60.6986 24.2493C60.6567 24.0328 60.6349 23.8144 60.6367 23.5942C60.6367 23.3741 60.6586 23.1557 60.7004 22.9391C60.7441 22.7226 60.8078 22.5133 60.8933 22.3095C60.977 22.1075 61.0807 21.9128 61.2045 21.7309C61.3264 21.5471 61.4665 21.3778 61.6212 21.2232C61.7777 21.0667 61.9469 20.9284 62.1307 20.8065C62.3145 20.6827 62.5074 20.5808 62.7112 20.4971C62.915 20.4116 63.1242 20.3479 63.3408 20.306C63.5573 20.2624 63.7757 20.2424 63.9959 20.2424C64.2161 20.2424 64.4344 20.2642 64.651 20.306C64.8657 20.3497 65.0768 20.4134 65.2788 20.4989C65.4826 20.5826 65.6773 20.6864 65.8592 20.8083C66.043 20.932 66.2123 21.0703 66.3669 21.2268C66.5234 21.3815 66.6617 21.5507 66.7855 21.7345C66.9074 21.9183 67.0111 22.1112 67.0948 22.315C67.1785 22.5188 67.2422 22.7281 67.2859 22.9446C67.3296 23.1611 67.3496 23.3795 67.3496 23.5997C67.3496 23.8199 67.3277 24.0382 67.2841 24.2548C67.2404 24.4713 67.1749 24.6806 67.0912 24.8844C67.0057 25.0882 66.9019 25.2811 66.78 25.4649C66.6563 25.6469 66.5162 25.8161 66.3615 25.9726C66.205 26.1291 66.0339 26.2674 65.852 26.3893C65.6682 26.513 65.4735 26.6149 65.2697 26.7005C65.0659 26.7842 64.8566 26.8479 64.64 26.8915C64.4235 26.9352 64.2051 26.9552 63.985 26.957Z" fill="white"/>
<path d="M68.1491 34.1265H51.6426C51.5371 34.1265 51.4352 34.1465 51.3369 34.1865C51.2386 34.2265 51.1513 34.2848 51.0767 34.3594C51.0021 34.4358 50.9438 34.5213 50.9038 34.6196C50.8638 34.7179 50.8438 34.8198 50.8438 34.9253C50.8438 35.0309 50.8638 35.1328 50.9038 35.231C50.9438 35.3293 51.0021 35.4148 51.0767 35.4912C51.1513 35.5658 51.2386 35.6241 51.3369 35.6641C51.4352 35.7041 51.5371 35.7242 51.6426 35.7242H68.1491C68.2546 35.7242 68.3565 35.7041 68.4548 35.6641C68.5512 35.6241 68.6386 35.5658 68.7132 35.4912C68.7878 35.4148 68.846 35.3293 68.886 35.231C68.9279 35.1328 68.9479 35.0309 68.9479 34.9253C68.9479 34.8198 68.9279 34.7179 68.886 34.6196C68.846 34.5213 68.7878 34.4358 68.7132 34.3594C68.6386 34.2848 68.5512 34.2265 68.4548 34.1865C68.3565 34.1465 68.2546 34.1265 68.1491 34.1265Z" fill="white"/>
<path d="M68.1494 41.873H46.6133C46.5078 41.873 46.4059 41.8931 46.3076 41.9349C46.2093 41.975 46.1238 42.0332 46.0474 42.1078C45.9728 42.1824 45.9145 42.2679 45.8745 42.3662C45.8345 42.4644 45.8145 42.5664 45.8145 42.6719C45.8145 42.7793 45.8345 42.8812 45.8745 42.9776C45.9145 43.0759 45.9728 43.1632 46.0474 43.2378C46.1238 43.3124 46.2093 43.3707 46.3076 43.4107C46.4059 43.4507 46.5078 43.4726 46.6133 43.4726H68.1494C68.2549 43.4726 68.3568 43.4507 68.4551 43.4107C68.5515 43.3707 68.6389 43.3124 68.7135 43.2378C68.7881 43.1632 68.8463 43.0759 68.8864 42.9776C68.9282 42.8812 68.9482 42.7793 68.9482 42.6719C68.9482 42.5664 68.9282 42.4644 68.8864 42.3662C68.8463 42.2679 68.7881 42.1824 68.7135 42.1078C68.6389 42.0332 68.5515 41.975 68.4551 41.9349C68.3568 41.8931 68.2549 41.873 68.1494 41.873Z" fill="white"/>
<path d="M6.52932 35.4458C6.42377 35.4458 6.32187 35.4658 6.22361 35.5059C6.12534 35.5459 6.038 35.6041 5.96339 35.6787C5.88878 35.7533 5.83055 35.8407 5.79052 35.9389C5.75049 36.0372 5.73047 36.1391 5.73047 36.2446V44.3077C5.73047 44.4133 5.75049 44.5152 5.79052 44.6134C5.83055 44.7117 5.88878 44.7972 5.96339 44.8736C6.038 44.9482 6.12534 45.0065 6.22361 45.0465C6.32187 45.0865 6.42377 45.1066 6.52932 45.1066C6.63486 45.1066 6.73676 45.0865 6.83502 45.0465C6.93329 45.0065 7.01881 44.9482 7.09342 44.8736C7.16985 44.7972 7.22626 44.7117 7.26811 44.6134C7.30814 44.5152 7.32816 44.4133 7.32816 44.3077V36.2446C7.32816 36.1391 7.30814 36.0372 7.26811 35.9389C7.22626 35.8407 7.16985 35.7533 7.09342 35.6787C7.01881 35.6041 6.93329 35.5459 6.83502 35.5059C6.73676 35.4658 6.63486 35.4458 6.52932 35.4458Z" fill="white"/>
<path d="M6.52932 47.0391C6.42377 47.0391 6.32187 47.0591 6.22361 47.0991C6.12534 47.1391 6.038 47.1974 5.96339 47.272C5.88878 47.3466 5.83055 47.4339 5.79052 47.5322C5.75049 47.6305 5.73047 47.7324 5.73047 47.8379V48.5239C5.73047 48.6295 5.75049 48.7314 5.79052 48.8296C5.83055 48.9279 5.88878 49.0134 5.96339 49.088C6.038 49.1645 6.12534 49.2209 6.22361 49.2627C6.32187 49.3028 6.42377 49.3228 6.52932 49.3228C6.63486 49.3228 6.73676 49.3028 6.83502 49.2627C6.93329 49.2209 7.01881 49.1645 7.09342 49.088C7.16985 49.0134 7.22626 48.9279 7.26811 48.8296C7.30814 48.7314 7.32816 48.6295 7.32816 48.5239V47.8379C7.32816 47.7324 7.30814 47.6305 7.26811 47.5322C7.22626 47.4339 7.16985 47.3466 7.09342 47.272C7.01881 47.1974 6.93329 47.1391 6.83502 47.0991C6.73676 47.0591 6.63486 47.0391 6.52932 47.0391Z" fill="white"/>
</svg>
