<svg width="117" height="122" viewBox="0 0 117 122" fill="none" xmlns="http://www.w3.org/2000/svg">
<mask id="mask0_397_244" style="mask-type:luminance" maskUnits="userSpaceOnUse" x="0" y="0" width="60" height="72">
<path d="M0 0H59.5747V71.5312H0V0Z" fill="white"/>
</mask>
<g mask="url(#mask0_397_244)">
<path d="M49.2967 68.3965H2.95571V2.96008H56.0681V18.1021C56.0681 18.9181 56.727 19.5821 57.5431 19.5821C58.3566 19.5821 59.018 18.9207 59.018 18.1021V1.48008C59.018 0.661527 58.3566 -0.00244141 57.5431 -0.00244141H1.48078C0.664759 -0.00244141 0.00585938 0.661527 0.00585938 1.48008V69.879C0.00585938 70.6976 0.664759 71.359 1.48078 71.359H49.2967C50.1102 71.359 50.7716 70.6976 50.7716 69.879C50.7716 69.0605 50.1102 68.3965 49.2967 68.3965Z" fill="white"/>
</g>
<path d="M22.1052 11.6323C22.1052 10.8163 21.4463 10.1523 20.6303 10.1523H11.5628C10.7468 10.1523 10.0879 10.8163 10.0879 11.6323V20.7378C10.0879 21.5564 10.7468 22.2204 11.5628 22.2204H20.6303C21.4438 22.2204 22.1052 21.5564 22.1052 20.7378V11.6323ZM19.1554 19.2578H13.0377V13.1149H19.1554V19.2578Z" fill="white"/>
<path d="M48.9292 13.6846C48.9292 12.866 48.2677 12.2046 47.4542 12.2046H26.2528C25.4368 12.2046 24.7754 12.866 24.7754 13.6846C24.7754 14.5031 25.4368 15.1671 26.2528 15.1671H47.4542C48.2677 15.1671 48.9292 14.5031 48.9292 13.6846Z" fill="white"/>
<path d="M26.2528 20.8087H36.8535C37.667 20.8087 38.3285 20.1473 38.3285 19.3287C38.3285 18.5102 37.667 17.8462 36.8535 17.8462H26.2528C25.4368 17.8462 24.7754 18.5102 24.7754 19.3287C24.7754 20.1473 25.4368 20.8087 26.2528 20.8087Z" fill="white"/>
<path d="M22.1052 31.1255C22.1052 30.3095 21.4463 29.6455 20.6303 29.6455H11.5628C10.7468 29.6455 10.0879 30.3095 10.0879 31.1255V40.231C10.0879 41.0496 10.7468 41.7135 11.5628 41.7135H20.6303C21.4438 41.7135 22.1052 41.0496 22.1052 40.231V31.1255ZM19.1554 38.751H13.0377V32.608H19.1554V38.751Z" fill="white"/>
<path d="M37.961 31.6982H26.2528C25.4368 31.6982 24.7754 32.3597 24.7754 33.1782C24.7754 33.9968 25.4368 34.6608 26.2528 34.6608H37.961C38.777 34.6608 39.4359 33.9968 39.4359 33.1782C39.4359 32.3597 38.777 31.6982 37.961 31.6982Z" fill="white"/>
<path d="M26.2528 40.3019H36.8535C37.667 40.3019 38.3285 39.6404 38.3285 38.8219C38.3285 38.0033 37.667 37.3394 36.8535 37.3394H26.2528C25.4368 37.3394 24.7754 38.0033 24.7754 38.8219C24.7754 39.6404 25.4368 40.3019 26.2528 40.3019Z" fill="white"/>
<path d="M20.6303 49.1387H11.5628C10.7468 49.1387 10.0879 49.8026 10.0879 50.6212V59.7242C10.0879 60.5427 10.7468 61.2067 11.5628 61.2067H20.6303C21.4438 61.2067 22.1052 60.5427 22.1052 59.7242V50.6212C22.1052 49.8026 21.4438 49.1387 20.6303 49.1387ZM19.1554 58.2442H13.0377V52.1012H19.1554V58.2442Z" fill="white"/>
<path d="M45.9514 52.6714C45.9514 51.8528 45.29 51.1914 44.4765 51.1914H26.2528C25.4368 51.1914 24.7754 51.8528 24.7754 52.6714C24.7754 53.49 25.4368 54.1539 26.2528 54.1539H44.4765C45.29 54.1539 45.9514 53.49 45.9514 52.6714Z" fill="white"/>
<path d="M25.5589 59.3208C24.7454 59.3208 24.084 59.9848 24.084 60.8033C24.084 61.6193 24.7454 62.2833 25.5589 62.2833H36.1596C36.9756 62.2833 37.6371 61.6193 37.6371 60.8033C37.6371 59.9848 36.9756 59.3208 36.1596 59.3208H25.5589Z" fill="white"/>
<mask id="mask1_397_244" style="mask-type:luminance" maskUnits="userSpaceOnUse" x="35" y="7" width="82" height="115">
<path d="M35.4941 21.731L92.9508 7.88796L117 107.705L59.5431 121.548L35.4941 21.731Z" fill="white"/>
</mask>
<g mask="url(#mask1_397_244)">
<path d="M95.0056 26.3467C92.7315 23.2621 89.9191 20.6789 86.6479 18.6708C83.3756 16.6585 79.8097 15.3187 76.0395 14.6918C72.1401 14.0429 68.1963 14.1834 64.3241 15.1163C60.4518 16.0493 56.8768 17.7202 53.6966 20.0748C50.6298 22.349 48.0611 25.1668 46.0644 28.4486C44.0666 31.7261 42.7392 35.3068 42.1237 39.0875C41.483 43.0027 41.6307 46.9579 42.5677 50.8469C43.5046 54.7359 45.1755 58.3286 47.5289 61.5224C49.7977 64.6038 52.6102 67.187 55.8824 69.1993C59.1536 71.2074 62.7237 72.5462 66.4898 73.1742C68.2692 73.4711 70.0572 73.6022 71.8415 73.5705L72.8823 77.8902C71.1805 78.8887 70.2554 80.9256 70.742 82.9453L76.648 107.459C77.8993 112.652 83.1247 115.866 88.2974 114.62C93.4702 113.374 96.6584 108.133 95.4071 102.939L89.5012 78.4257C89.0146 76.4059 87.2592 75.0148 85.2894 74.901L84.2486 70.5813C85.8557 69.7959 87.3837 68.8658 88.8327 67.7911C91.9037 65.5159 94.4682 62.6991 96.4659 59.4216C98.4668 56.1388 99.7901 52.5592 100.411 48.7816C101.051 44.8665 100.899 40.908 99.9616 37.019C99.0246 33.13 97.359 29.5405 95.0056 26.3467ZM80.3765 75.8855L77.7044 76.5293L76.8954 73.1714L78.1485 72.9182C78.2122 72.9072 78.2749 72.8921 78.3408 72.8718L79.5675 72.5276L80.3765 75.8855ZM90.5396 104.112C91.1421 106.612 89.6078 109.132 87.1197 109.732C84.6316 110.331 82.118 108.786 81.5155 106.286L75.7083 82.1824L84.7324 80.0082L90.5396 104.112ZM92.1912 56.7925C88.7807 62.397 83.3962 66.3268 77.0316 67.8602C70.6671 69.3936 64.0836 68.3472 58.4908 64.9119C52.9021 61.4755 48.9756 56.068 47.4352 49.6742C45.8957 43.2845 46.9277 36.678 50.3381 31.0735C53.7537 25.4722 59.1373 21.5381 65.5018 20.0047C71.8664 18.4713 78.4509 19.5219 84.0385 22.9541C89.6313 26.3894 93.5547 31.8021 95.0941 38.1918C96.6346 44.5856 95.6016 51.188 92.1912 56.7925Z" fill="white"/>
</g>
<path d="M82.5113 34.5952L66.966 50.186L60.7762 43.9796C59.8051 43.0057 58.2267 43.0057 57.2556 43.9796C56.2846 44.9535 56.2846 46.5339 57.2556 47.5121L65.2036 55.4784C65.6913 55.9696 66.3287 56.2131 66.966 56.2131C67.6034 56.2131 68.2408 55.9696 68.7242 55.4784L86.0318 38.1277C87.0071 37.1538 87.0071 35.5733 86.0318 34.5952C85.0608 33.6213 83.4866 33.6213 82.5113 34.5952Z" fill="white"/>
</svg>
