<svg width="49" height="69" viewBox="0 0 49 69" fill="none" xmlns="http://www.w3.org/2000/svg">
<path d="M18.2455 68.9988H42.6471V64.4826L42.6507 64.1436L42.6614 63.8035L42.6794 63.4646L42.7046 63.1256L42.7381 62.7879L42.7776 62.4502L42.8243 62.1137L42.8782 61.7783L42.9393 61.4442L43.0076 61.1112L43.083 60.7795L43.1656 60.4501L43.2543 60.1232L43.3513 59.7962L43.4543 59.4729L43.5645 59.1519L43.6806 58.8322L43.8052 58.516L43.9345 58.2022L44.0722 57.892L44.216 57.583L44.3657 57.2788L44.5226 56.977L44.6854 56.6788L44.8543 56.3842L45.0303 56.0932L45.2124 55.807L45.4004 55.5231L45.5932 55.2441L45.804 54.9411L46.0076 54.6345L46.2052 54.3231L46.3968 54.0081L46.5813 53.6896L46.7585 53.3674L46.9298 53.0404L47.0951 52.7111L47.2519 52.3782L47.4028 52.0416L47.5478 51.7027L47.6843 51.3614L47.8136 51.0165L47.937 50.6691L48.052 50.3194L48.1609 49.9673L48.2615 49.6128L48.355 49.2559L48.4412 48.8979L48.5202 48.5386L48.5921 48.1769L48.6568 47.8152L48.713 47.4511L48.7621 47.0858L48.8041 46.7194L48.8376 46.3529L48.8639 45.9852L48.8831 45.6176L48.8939 45.2499L48.8987 44.881V23.8663L48.8951 23.6866L48.8831 23.507L48.8651 23.3285L48.84 23.1501L48.8077 22.9741L48.7681 22.798L48.7214 22.6243L48.6687 22.4531L48.6077 22.2842L48.5406 22.1177L48.4663 21.9537L48.3861 21.792L48.2999 21.6351L48.2065 21.4806L48.107 21.3309L48.0017 21.186L47.8915 21.0435L47.7741 20.9069L47.652 20.7752L47.525 20.6483L47.3933 20.5261L47.2555 20.4099L47.1142 20.2986L46.9681 20.1932L46.8184 20.095L46.6639 20.0015L46.507 19.9153L46.3453 19.8339L46.1813 19.7608L46.0148 19.6938L45.8447 19.6327L45.6735 19.58L45.4986 19.5333L45.3238 19.4938L45.1465 19.4614L44.9681 19.4363L44.7896 19.4183L44.61 19.4075L44.4303 19.4039L44.2495 19.4075L44.0699 19.4183L43.8914 19.4363L43.713 19.4614L43.5357 19.4938L43.3609 19.5333L43.1872 19.58L43.0147 19.6327L42.8459 19.6938L42.6782 19.7608L42.5141 19.8339L42.3537 19.9153L42.1956 20.0015L42.0423 20.095L41.8914 20.1932L41.7453 20.2986L41.6039 20.4099L41.4674 20.5261L41.3345 20.6483L41.2075 20.7752L41.0854 20.9069L40.9692 21.0435L40.8578 21.186L40.7524 21.3309L40.653 21.4806L40.5596 21.6351L40.4734 21.792L40.3931 21.9537L40.3189 22.1177L40.2518 22.2842L40.1919 22.4531L40.138 22.6243L40.0913 22.798L40.0518 22.9741L40.0195 23.1501L39.9943 23.3285L39.9764 23.507L39.9656 23.6866L39.962 23.8663V20.0494L39.9584 19.8698L39.9464 19.6902L39.9285 19.5105L39.9033 19.3321L39.871 19.1536L39.8315 18.9776L39.7847 18.8039L39.7309 18.6315L39.6698 18.4614L39.6027 18.2937L39.5285 18.1297L39.4482 17.968L39.3608 17.8111L39.2674 17.6566L39.168 17.5057L39.0626 17.3596L38.9512 17.2171L38.8338 17.0793L38.7117 16.9476L38.5835 16.8195L38.4506 16.6973L38.3129 16.5799L38.1715 16.4697L38.0242 16.3644L37.8733 16.2638L37.7188 16.1703L37.5608 16.0841L37.3991 16.0039L37.235 15.9296L37.0673 15.8625L36.8973 15.8015L36.7248 15.7476L36.55 15.7009L36.3739 15.6613L36.1967 15.629L36.017 15.6039L35.8374 15.5859L35.6577 15.5739L35.4769 15.5703L35.296 15.5739L35.1164 15.5859L34.9368 15.6039L34.7571 15.629L34.5799 15.6613L34.4038 15.7009L34.229 15.7476L34.0565 15.8015L33.8864 15.8625L33.7188 15.9296L33.5547 16.0039L33.393 16.0841L33.2349 16.1703L33.0804 16.2638L32.9295 16.3644L32.7834 16.4697L32.6409 16.5799L32.5032 16.6973L32.3702 16.8195L32.2421 16.9476L32.1199 17.0793L32.0038 17.2171L31.8924 17.3596L31.7858 17.5057L31.6864 17.6566L31.593 17.8111L31.5068 17.968L31.4253 18.1297L31.3511 18.2937L31.284 18.4614L31.2229 18.6315L31.169 18.8039L31.1223 18.9776L31.0828 19.1536L31.0505 19.3321L31.0253 19.5105L31.0074 19.6902L30.9966 19.8698L30.9918 20.0494V18.3416L30.9894 18.162L30.9774 17.9811L30.9594 17.8015L30.9343 17.6231L30.902 17.4458L30.8624 17.2698L30.8157 17.0961L30.7618 16.9236L30.7008 16.7536L30.6337 16.5859L30.5594 16.4218L30.4792 16.2602L30.3918 16.1021L30.2984 15.9476L30.199 15.7979L30.0924 15.6506L29.9822 15.5093L29.8648 15.3715L29.7427 15.2386L29.6145 15.1116L29.4816 14.9895L29.3438 14.8721L29.2013 14.7607L29.0552 14.6553L28.9043 14.5559L28.7498 14.4625L28.5917 14.3763L28.4301 14.2949L28.266 14.2206L28.0983 14.1535L27.9283 14.0937L27.7558 14.0398L27.5809 13.9931L27.4049 13.9535L27.2276 13.9212L27.048 13.8949L26.8684 13.8769L26.6887 13.8661L26.5079 13.8625L26.327 13.8661L26.1474 13.8769L25.9677 13.8949L25.7881 13.9212L25.6108 13.9535L25.4348 13.9931L25.2599 14.0398L25.0875 14.0937L24.9174 14.1535L24.7498 14.2206L24.5857 14.2949L24.424 14.3763L24.2659 14.4625L24.1114 14.5559L23.9605 14.6553L23.8144 14.7607L23.6719 14.8721L23.5342 14.9895L23.4012 15.1116L23.2731 15.2386L23.1509 15.3715L23.0348 15.5093L22.9234 15.6506L22.8168 15.7979L22.7174 15.9476L22.624 16.1021L22.5365 16.2602L22.4563 16.4218L22.3821 16.5859L22.315 16.7536L22.2539 16.9236L22.2 17.0961L22.1533 17.2698L22.1138 17.4458L22.0814 17.6231L22.0563 17.8015L22.0383 17.9811L22.0276 18.162L22.024 18.3416V4.46235L22.0204 4.28271L22.0084 4.10307L21.9904 3.92462L21.9653 3.74737L21.9329 3.57012L21.8934 3.39527L21.8467 3.22161L21.794 3.04915L21.7329 2.88029L21.6659 2.71382L21.5916 2.54974L21.5114 2.38926L21.4251 2.23118L21.3317 2.07788L21.2323 1.92698L21.1269 1.78207L21.0168 1.63955L20.8994 1.50302L20.7772 1.37128L20.6503 1.24433L20.5185 1.12218L20.3808 1.00601L20.2395 0.894626L20.0934 0.789235L19.9437 0.69103L19.7892 0.597615L19.6311 0.511386L19.4706 0.431145L19.3065 0.356892L19.1401 0.289825L18.97 0.229944L18.7988 0.176051L18.6239 0.129344L18.449 0.0898219L18.2718 0.057486L18.0934 0.0323359L17.9149 0.0143715L17.7353 0.00359288L17.5556 0L17.3748 0.00359288L17.1951 0.0143715L17.0167 0.0323359L16.8382 0.057486L16.661 0.0898219L16.4861 0.129344L16.3113 0.176051L16.14 0.229944L15.9712 0.289825L15.8035 0.356892L15.6394 0.431145L15.4789 0.511386L15.3209 0.597615L15.1676 0.69103L15.0167 0.789235L14.8705 0.894626L14.7292 1.00601L14.5915 1.12218L14.4598 1.24433L14.3328 1.37128L14.2107 1.50302L14.0945 1.63955L13.9831 1.78207L13.8777 1.92698L13.7783 2.07788L13.6849 2.23118L13.5987 2.38926L13.5184 2.54974L13.4442 2.71382L13.3771 2.88029L13.3172 3.04915L13.2633 3.22161L13.2166 3.39527L13.1771 3.57012L13.1448 3.74737L13.1196 3.92462L13.1017 4.10307L13.0909 4.28271L13.0873 4.46235V31.0832L12.9819 30.8568L12.8705 30.6329L12.7519 30.4125L12.6274 30.1945L12.4957 29.9814L12.3591 29.773L12.2154 29.567L12.0657 29.367L11.91 29.1706L11.7483 28.9789L11.5819 28.7921L11.4094 28.6113L11.2322 28.434L11.0489 28.2628L10.8609 28.0975L10.6681 27.9382L10.4717 27.7837L10.2693 27.6352L10.0633 27.4927L9.85249 27.3574L9.63932 27.2268L9.42135 27.1035L9.19979 26.9873L8.97463 26.8771L8.74589 26.7729L8.51475 26.6759L8.28121 26.5861L8.04528 26.5035L7.80695 26.428L7.56503 26.3585L7.32311 26.2975L7.0776 26.2436L6.83208 26.1957L6.58417 26.1561L6.33627 26.1238L6.08716 26.0987L5.83685 26.0807L5.58655 26.0711L5.33625 26.0675L5.08594 26.0723L4.83564 26.0843L4.58534 26.1046L4.33623 26.131L4.15898 26.1561L3.98293 26.1885L3.80808 26.228L3.63442 26.2747L3.46316 26.3286L3.2943 26.3885L3.12783 26.4555L2.96375 26.5286L2.80327 26.6088L2.64638 26.6951L2.49189 26.7873L2.34218 26.8855L2.19727 26.9897L2.05475 27.0999L1.91822 27.216L1.78649 27.337L1.65834 27.4639L1.53618 27.5945L1.42001 27.731L1.30863 27.8711L1.20324 28.0161L1.10384 28.1658L1.01042 28.3191L0.922997 28.4747L0.841559 28.6352L0.767306 28.7981L0.699042 28.9646L0.637963 29.1322L0.584069 29.3035L0.536164 29.476L0.495445 29.6508L0.461912 29.8269L0.435564 30.0041L0.416402 30.1826L0.404426 30.361L0.398438 30.5395L0.400833 30.7191L0.410414 30.8975L0.427181 31.076L0.449935 31.2544L0.481074 31.4305L0.5182 31.6065L0.56371 31.779L0.615208 31.9515L0.673891 32.1203L0.738563 32.288L0.810421 32.4521L0.889464 32.6125L0.973298 32.7706L1.06432 32.9251L1.16132 33.076L1.26432 33.2233L1.3733 33.3658L1.48828 33.5036L1.60804 33.6365L1.73259 33.7647L1.86313 33.888L1.99847 34.0066L2.13859 34.1192L2.2823 34.2257L2.43081 34.3263L2.58291 34.4222L2.7386 34.5108L2.89788 34.5934L3.05956 34.6689L3.22483 34.7383L3.3937 34.8018L3.58412 34.8725L3.77095 34.9503L3.95539 35.0353L4.13623 35.1276L4.31348 35.2258L4.48713 35.33L4.656 35.4413L4.82247 35.5587L4.98295 35.6821L5.13864 35.8126L5.28954 35.9479L5.43565 36.0881L5.57697 36.2342L5.7111 36.3851L5.84045 36.542L5.9638 36.7024L6.08117 36.8677L6.19255 37.0378L6.29674 37.2114L6.39495 37.3887L6.48597 37.5695L6.571 37.7539L6.64765 37.942L6.71831 38.1312L6.78178 38.324L6.83807 38.5192L6.88717 38.7156L6.92789 38.9132L6.96143 39.1133L6.98897 39.3145L7.00694 39.5169L7.01891 39.7181L7.0225 39.9216V41.6929L7.0261 42.0894L7.03688 42.4846L7.05604 42.8798L7.08119 43.275L7.11472 43.6702L7.15544 44.063L7.20335 44.4559L7.25844 44.8487L7.32071 45.2391L7.39137 45.6283L7.46802 46.0164L7.55305 46.4032L7.64407 46.7888L7.74347 47.1721L7.84887 47.5529L7.96144 47.9326L8.0824 48.3098L8.20935 48.6847L8.34349 49.0571L8.48361 49.4272L8.63211 49.7949L8.78661 50.159L8.94829 50.5206L9.11595 50.8787L9.292 51.2332L9.47285 51.5853L9.66087 51.9338L9.85609 52.2788L10.0561 52.6201L10.2633 52.9578L10.4777 53.2907L10.6968 53.6201L10.9232 53.9458L11.1543 54.2668L11.3926 54.583L11.6358 54.8944L11.8861 55.2022L12.1412 55.5052L12.4022 55.8034L12.6681 56.0968L12.94 56.3842L13.2166 56.6669L13.4993 56.9447L13.7867 57.2178L14.0789 57.4848L14.3771 57.7459L14.6789 58.0022L14.9855 58.2525L15.2981 58.4968L15.4837 58.6453L15.6658 58.7998L15.843 58.9591L16.0155 59.1244L16.1819 59.2956L16.3424 59.4705L16.4981 59.6513L16.6478 59.837L16.7915 60.0274L16.9281 60.2226L17.0598 60.4214L17.1856 60.6238L17.3041 60.831L17.4155 61.0418L17.5209 61.255L17.6191 61.4717L17.7113 61.6921L17.7951 61.9148L17.873 62.14L17.9437 62.3675L18.0071 62.5975L18.0622 62.8298L18.1113 63.0622L18.152 63.2969L18.1856 63.5328L18.2119 63.77L18.2311 64.0071L18.2419 64.2454L18.2467 64.4837V69L18.2455 68.9988Z" fill="white"/>
<mask id="mask0_389_525" style="mask-type:luminance" maskUnits="userSpaceOnUse" x="0" y="0" width="49" height="69">
<path d="M0 0H48.8537V68.9832H0V0Z" fill="white"/>
</mask>
<g mask="url(#mask0_389_525)">
<path d="M45.395 55.3427L45.604 55.0423L45.8059 54.7383L46.0018 54.4295L46.1907 54.1172L46.3735 53.8013L46.5505 53.4818L46.7203 53.1588L46.883 52.831L47.0398 52.5009L47.1894 52.1684L47.3319 51.8311L47.4673 51.4927L47.5967 51.1506L47.7179 50.8062L47.8331 50.4595L47.9399 50.1103L48.0409 49.7588L48.1335 49.4061L48.219 49.051L48.2974 48.6936L48.3686 48.3361L48.4316 47.9763L48.4886 47.6153L48.5373 47.2531L48.5777 46.8909L48.6121 46.5263L48.6382 46.1617L48.6572 45.7971L48.6679 45.4325L48.6715 45.0668M13.1611 4.98902V36.7942M22.0226 4.98902V32.5736M48.6715 24.2299V45.068M39.8099 20.4451V32.5736M30.9163 18.7516V32.5736M7.14728 41.9055V40.1479M18.2771 64.5047V68.983M42.4736 64.5047V68.983M22.0226 4.98783L22.0191 4.8097L22.0084 4.63275L21.9906 4.45462L21.9656 4.27886L21.9336 4.1031L21.8944 3.92972L21.8481 3.75752L21.7946 3.58651L21.7353 3.41907L21.6688 3.254L21.5951 3.0913L21.5156 2.93217L21.4301 2.77541L21.3374 2.6234L21.2389 2.47377L21.1344 2.33008L21.0239 2.18994L20.9087 2.05337L20.7876 1.92274L20.6617 1.79686L20.5311 1.67573L20.3945 1.56054L20.2544 1.45009L20.1095 1.34559L19.961 1.24821L19.8078 1.15558L19.6511 1.07008L19.492 0.990509L19.3293 0.91688L19.163 0.850377L18.9956 0.790998L18.8257 0.73756L18.6524 0.691245L18.479 0.652054L18.3032 0.619991L18.1263 0.595051L17.9493 0.577238L17.7712 0.56655L17.5931 0.562988L17.4137 0.56655L17.2356 0.577238L17.0586 0.595051L16.8817 0.619991L16.7059 0.652054L16.5326 0.691245L16.3592 0.73756L16.1894 0.790998L16.0207 0.850377L15.8557 0.91688L15.693 0.990509L15.5338 1.07008L15.3771 1.15558L15.2239 1.24821L15.0754 1.34559L14.9305 1.45009L14.7904 1.56054L14.6538 1.67573L14.5232 1.79686L14.3973 1.92274L14.2762 2.05337L14.1598 2.18994L14.0506 2.33008L13.9461 2.47377L13.8475 2.6234L13.7549 2.77541L13.6694 2.93217L13.5898 3.0913L13.5162 3.254L13.4497 3.41907L13.3903 3.58651L13.3368 3.75752L13.2905 3.92972L13.2513 4.1031L13.2193 4.27886L13.1943 4.45462L13.1765 4.63275L13.1658 4.8097L13.1611 4.98783M15.3545 58.5669L15.0445 58.3247L14.7405 58.0765L14.4413 57.8223L14.1456 57.5635L13.8558 57.2986L13.5708 57.0291L13.2905 56.7535L13.0162 56.4721L12.7466 56.1871L12.483 55.8961L12.2241 55.6004L11.9711 55.3L11.7229 54.996L11.4819 54.686L11.2455 54.3725L11.0163 54.0542L10.7919 53.7312L10.5746 53.4046L10.362 53.0745L10.1566 52.7396L9.95704 52.4011L9.76466 52.0591L9.57821 51.7135L9.3977 51.3656L9.22432 51.0129L9.05806 50.6578L8.89774 50.2992L8.74455 49.9381L8.59729 49.5736L8.45835 49.2066L8.32534 48.8373L8.19946 48.4656L8.07951 48.0915L7.96788 47.7162L7.86338 47.3374L7.76481 46.9574L7.67456 46.5762L7.59024 46.1926L7.51424 45.8066L7.44417 45.4207L7.38242 45.0335L7.32779 44.6452L7.28029 44.2557L7.23991 43.865L7.20666 43.4731L7.18172 43.0824L7.16272 42.6893L7.15203 42.2974L7.14847 41.9055M4.48477 26.4732L4.30901 26.4981L4.13444 26.5302L3.96106 26.5693L3.78886 26.6157L3.61904 26.6679L3.4516 26.7273L3.28652 26.7938L3.12383 26.8674L2.9647 26.9458L2.80913 27.0313L2.65593 27.1239L2.50749 27.2213L2.3626 27.3246L2.22247 27.4339L2.08709 27.5491L1.95646 27.669L1.82939 27.7937L1.70826 27.9244L1.59307 28.0597L1.48262 28.1987L1.37812 28.3424L1.27955 28.4908L1.18692 28.6416L1.10023 28.7972L1.01948 28.9563L0.945846 29.1179L0.878156 29.2817L0.81759 29.4492L0.764149 29.6178L0.716647 29.79L0.67627 29.9634L0.643019 30.1368L0.616892 30.3137L0.597892 30.4895L0.584828 30.6664L0.580078 30.8446L0.582453 31.0227L0.591954 31.1996L0.607392 31.3766L0.631143 31.5535L0.662019 31.7281L0.698834 31.9015L0.743961 32.0737L0.795026 32.2435L0.853217 32.4121L0.917345 32.5772L0.988598 32.7399L1.06579 32.9002L1.15011 33.057L1.24036 33.2102L1.33655 33.3598L1.43868 33.5047L1.54675 33.646L1.66076 33.7826L1.77951 33.9156L1.90302 34.0427L2.03246 34.165L2.16666 34.2814L2.3056 34.393L2.44811 34.4999L2.59537 34.5996L2.74619 34.6934L2.90057 34.7813L3.05851 34.8633L3.21883 34.9393L3.38272 35.0081L3.55016 35.0711M30.9175 18.7505L30.9139 18.5711L30.9032 18.393L30.8854 18.2149L30.8605 18.0379L30.8272 17.8622L30.788 17.6876L30.7417 17.5142L30.6883 17.3432L30.6289 17.1746L30.5612 17.0095L30.4888 16.8456L30.408 16.6865L30.3213 16.5297L30.2287 16.3765L30.1301 16.2269L30.0256 16.082L29.9152 15.9407L29.7988 15.8041L29.6777 15.6735L29.5506 15.5464L29.42 15.4253L29.2834 15.3101L29.1421 15.1997L28.9972 15.0952L28.8475 14.9954L28.6944 14.904L28.5376 14.8173L28.3773 14.7377L28.2134 14.6641L28.0471 14.5976L27.8785 14.537L27.7075 14.4836L27.5353 14.4372L27.3595 14.3981L27.1838 14.366L27.0068 14.341L26.8287 14.3232L26.6494 14.3125L26.4701 14.309L26.2919 14.3125L26.1126 14.3232L25.9345 14.341L25.7575 14.366L25.5806 14.3981L25.406 14.4372L25.2338 14.4836L25.0628 14.537L24.8942 14.5976L24.7279 14.6641L24.564 14.7377L24.4037 14.8173L24.2469 14.904L24.0938 14.9954L23.9441 15.0952L23.7992 15.1997L23.6579 15.3101L23.5213 15.4253L23.3907 15.5464L23.2636 15.6735L23.1425 15.8041L23.0261 15.9407L22.9157 16.082L22.8112 16.2269L22.7126 16.3765L22.62 16.5297L22.5333 16.6865L22.4525 16.8456L22.3801 17.0095L22.3124 17.1746L22.253 17.3432L22.1996 17.5142L22.1533 17.6876L22.1141 17.8622L22.0808 18.0379L22.0559 18.2149L22.0381 18.393L22.0274 18.5711L22.0238 18.7505M30.9175 20.4439L30.921 20.2646L30.9317 20.0865L30.9495 19.9083L30.9757 19.7314L31.0077 19.5556L31.0469 19.381L31.0932 19.2077L31.1467 19.0378L31.206 18.8692L31.2737 18.703L31.3474 18.5403L31.4269 18.3799L31.5136 18.2232L31.6062 18.07L31.7048 17.9204L31.8093 17.7755L31.9198 17.6353L32.0361 17.4988L32.1573 17.367L32.2843 17.2411L32.415 17.1188L32.5515 17.0036L32.6929 16.8931L32.8377 16.7886L32.9874 16.69L33.1406 16.5974L33.2973 16.5107L33.4577 16.4312L33.6215 16.3575L33.7878 16.291L33.9564 16.2305L34.1274 16.1782L34.2996 16.1319L34.4742 16.0915L34.6511 16.0594L34.8281 16.0345L35.0062 16.0167L35.1856 16.006L35.3637 16.0024L35.543 16.006L35.7223 16.0167L35.9005 16.0345L36.0774 16.0594L36.2544 16.0915L36.4289 16.1319L36.6011 16.1782L36.7721 16.2305L36.9408 16.291L37.107 16.3575L37.2709 16.4312L37.4312 16.5107L37.588 16.5974L37.7412 16.69L37.8908 16.7886L38.0357 16.8931L38.177 17.0036L38.3136 17.1188L38.4442 17.2411L38.5713 17.367L38.6924 17.4988L38.8088 17.6353L38.9192 17.7755L39.0237 17.9204L39.1223 18.07L39.2149 18.2232L39.3016 18.3799L39.3824 18.5403L39.456 18.703L39.5225 18.8692L39.5819 19.0378L39.6353 19.2077L39.6817 19.381L39.7208 19.5556L39.7541 19.7314L39.779 19.9083L39.7968 20.0865L39.8075 20.2646L39.8111 20.4439M7.14966 40.1467L7.14491 39.946L7.13422 39.7453L7.11522 39.5446L7.08909 39.3451L7.05584 39.148L7.01427 38.9508L6.96558 38.7561L6.91096 38.5625L6.84802 38.3713L6.77795 38.1837L6.70076 37.9972L6.61763 37.8143L6.52619 37.635L6.43 37.4593L6.32549 37.2871L6.21623 37.1184L6.09985 36.9546L5.97753 36.7954L5.84928 36.641L5.71508 36.4902L5.57614 36.3453L5.43126 36.2064L5.28163 36.0722L5.12605 35.9439L4.96692 35.8204L4.80304 35.7041L4.63559 35.5936L4.4634 35.4903L4.28645 35.3929L4.10713 35.3015L3.92543 35.2172L3.73899 35.14L3.55016 35.0699M4.48596 26.472L4.73297 26.4458L4.98117 26.4257L5.22937 26.4138L5.47757 26.4102L5.72577 26.4126L5.97397 26.4233L6.22217 26.4399L6.46918 26.4648L6.71501 26.4969L6.96083 26.5361L7.20428 26.5836L7.44654 26.637L7.68762 26.6988L7.92632 26.7665L8.16383 26.8413L8.39778 26.9232L8.62935 27.0135L8.85855 27.1085L9.08419 27.2118L9.30745 27.3211L9.52715 27.4363L9.74328 27.5586L9.95586 27.688L10.1649 27.8222L10.3691 27.9635L10.5686 28.1108L10.7646 28.264L10.9558 28.4219L11.1422 28.587L11.3227 28.7556L11.4997 28.9314L11.6707 29.1107L11.8358 29.296L11.9961 29.486L12.1493 29.6808L12.2977 29.8803L12.4402 30.0833L12.5768 30.29L12.7062 30.5025L12.8309 30.7175L12.9473 30.936L13.0589 31.1581L13.1623 31.3837M18.2783 64.5024L18.2747 64.266L18.264 64.0309L18.245 63.7946L18.2189 63.5594L18.1856 63.3255L18.1453 63.0939L18.0966 62.8623L18.0408 62.632L17.979 62.4039L17.9089 62.1783L17.8318 61.9551L17.7474 61.7342L17.6572 61.5157L17.5598 61.3007L17.4553 61.0893L17.3437 60.8803L17.2261 60.6749L17.1026 60.4742L16.972 60.277L16.8354 60.0835L16.6929 59.8958L16.5444 59.7117L16.3912 59.5324L16.2309 59.3579L16.0658 59.188L15.896 59.0242L15.7203 58.8662L15.5398 58.713L15.3545 58.5658M42.4748 64.5024L42.4784 64.1663L42.489 63.829L42.5069 63.4929L42.5318 63.1569L42.5639 62.822L42.603 62.4871L42.6506 62.1534L42.704 61.8209L42.7646 61.4895L42.8322 61.1594L42.9071 60.8304L42.9878 60.5039L43.0769 60.1785L43.1719 59.8554L43.274 59.5348L43.3833 59.2165L43.4997 58.8995L43.622 58.5859L43.7514 58.2748L43.888 57.9672L44.0293 57.6608L44.1789 57.3592L44.3345 57.0599L44.496 56.7642L44.6635 56.4721L44.838 56.1835L45.0174 55.8985L45.2038 55.6182L45.3962 55.3415M13.1635 36.793L13.1599 37.0947L13.148 37.3963L13.1302 37.698L13.1053 37.9996L13.072 38.2989L13.0328 38.5993L12.9853 38.8974L12.9319 39.1943L12.8701 39.49L12.8012 39.7845L12.7264 40.0766L12.6445 40.3676L12.5542 40.6562L12.458 40.9424L12.3547 41.2262L12.2455 41.5077L12.1338 41.7939L12.0281 42.0812L11.9296 42.3722L11.8393 42.6643L11.7538 42.9589L11.6766 43.2557L11.6054 43.5538L11.5424 43.8531L11.4854 44.1547L11.4356 44.4576L11.3928 44.7604L11.3572 45.0644L11.3287 45.3696M39.8111 24.2287L39.8147 24.0505L39.8253 23.8724L39.8443 23.6955L39.8693 23.5185L39.9013 23.3427L39.9405 23.1694L39.9869 22.9972L40.0391 22.8273L40.0997 22.6587L40.1662 22.4936L40.2398 22.3309L40.3194 22.1718L40.4049 22.0162L40.4975 21.863L40.5961 21.7146L40.7006 21.5697L40.8098 21.4296L40.925 21.2942L41.0462 21.1624L41.1732 21.0365L41.3039 20.9154L41.4404 20.8002L41.5806 20.6909L41.7254 20.5864L41.8739 20.4879L42.0271 20.3964L42.1827 20.3097L42.343 20.2302L42.5057 20.1577L42.6707 20.09L42.8394 20.0306L43.0092 19.9772L43.1814 19.9321L43.356 19.8929L43.5317 19.8608L43.7087 19.8359L43.8856 19.8169L44.0637 19.8062L44.2419 19.8026L44.42 19.8062L44.5981 19.8169L44.7763 19.8359L44.9532 19.8608L45.129 19.8929L45.3024 19.9321L45.4746 19.9772L45.6456 20.0306L45.813 20.09L45.9793 20.1577L46.142 20.2302L46.3011 20.3097L46.4579 20.3964L46.6099 20.4879L46.7595 20.5864L46.9032 20.6909L47.0445 20.8002L47.1799 20.9154L47.3117 21.0365L47.4376 21.1624L47.5587 21.2942L47.6739 21.4296L47.7844 21.5697L47.8889 21.7146L47.9874 21.863L48.0789 22.0162L48.1656 22.1718L48.2451 22.3309L48.3188 22.4936L48.3853 22.6587L48.4447 22.8273L48.4981 22.9972L48.5444 23.1694L48.5836 23.3427L48.6157 23.5185L48.6406 23.6955L48.6584 23.8724L48.6691 24.0505L48.6727 24.2287" stroke="black" stroke-linecap="round" stroke-linejoin="round"/>
</g>
</svg>
