<svg width="63" height="72" viewBox="0 0 63 72" fill="none" xmlns="http://www.w3.org/2000/svg">
<path d="M6.33588 34.6371C5.19298 34.3641 5.06343 34.4765 5.30675 33.4536C5.95282 30.7265 7.01093 28.1709 8.68509 25.9045C8.88226 25.6309 9.11574 25.3883 9.36428 25.1564C10.1964 24.385 10.4483 24.2471 11.2576 24.9111C12.1182 25.6176 11.4831 26.0647 10.9058 26.9466C9.54264 29.0504 8.84462 30.764 7.98906 33.1124C7.61226 34.1381 7.82514 34.962 6.89101 34.733L6.33588 34.6371Z" fill="white"/>
<path d="M47.8182 38.4462C47.6461 38.4462 47.4817 38.4296 47.3096 38.3885C45.9804 38.1097 45.1276 36.806 45.4141 35.469C45.6606 34.3207 46.67 28.3252 42.658 23.0838C38.1618 17.2115 31.0728 17.1538 30.2933 17.1705C30.2767 17.1705 30.2611 17.1705 30.2523 17.1705C28.9152 17.1705 27.8159 16.0956 27.7915 14.7507C27.766 13.3893 28.8497 12.2733 30.2112 12.2489C31.9257 12.2244 40.7214 12.4621 46.5633 20.09C51.748 26.865 50.682 34.3452 50.2301 36.4773C49.9846 37.6344 48.9674 38.4296 47.827 38.4296L47.8182 38.4462Z" fill="white"/>
<path d="M59.9708 39.5529C59.7987 39.5529 59.6344 39.5363 59.4622 39.4952C58.1331 39.2164 57.2792 37.9127 57.558 36.5835C57.9766 34.599 59.7244 24.2238 52.7753 15.1601C44.9811 4.99025 32.7642 4.90809 31.3861 4.92374C31.3694 4.92374 31.3616 4.92374 31.345 4.92374C30.007 4.92374 28.9077 3.84983 28.8832 2.505C28.8588 1.14354 29.9415 0.0275784 31.3039 0.00312678C33.9378 -0.0457761 47.614 0.330777 56.6806 12.1663C64.7213 22.6648 63.0723 34.287 62.3661 37.6007C62.1206 38.7577 61.1024 39.5529 59.962 39.5529H59.9708Z" fill="white"/>
<path d="M52.7303 53.3928L39.6814 47.5456L39.6454 47.5289C38.9679 47.2392 38.229 47.1229 37.4953 47.1906C36.7616 47.2583 36.0564 47.5079 35.4435 47.9167C35.3713 47.9644 35.3019 48.0162 35.2357 48.0718L28.4938 53.8194C24.2227 51.7447 19.813 47.3683 17.7384 43.1525L23.4942 36.3081C23.5496 36.2389 23.6022 36.1696 23.6521 36.0948C24.0521 35.4835 24.2948 34.7828 24.3586 34.055C24.4224 33.3272 24.3053 32.595 24.0177 31.9234V31.8901L18.1538 18.819C17.7736 17.9417 17.1199 17.2109 16.2902 16.7356C15.4605 16.2604 14.4994 16.0662 13.5503 16.1821C9.79702 16.676 6.35186 18.5192 3.85829 21.3676C1.36471 24.2159 -0.00676109 27.8746 2.50637e-05 31.6602C2.50637e-05 53.6532 17.8935 71.5467 39.8863 71.5467C43.672 71.5534 47.3306 70.182 50.179 67.6884C53.0273 65.1948 54.8706 61.7496 55.3644 57.9964C55.4805 57.0476 55.2868 56.0867 54.8121 55.257C54.3373 54.4274 53.6071 53.7734 52.7303 53.3928ZM39.8863 67.1148C30.4864 67.1046 21.4743 63.3659 14.8276 56.7191C8.18077 50.0723 4.4421 41.0602 4.43184 31.6602C4.42142 28.9554 5.3959 26.3393 7.17329 24.3004C8.95069 22.2615 11.4095 20.9393 14.0904 20.5807C14.0893 20.5917 14.0893 20.6029 14.0904 20.6139L19.9072 33.6324L14.1818 40.4851C14.1237 40.552 14.0709 40.6233 14.0239 40.6984C13.6071 41.338 13.3626 42.0745 13.3141 42.8364C13.2655 43.5983 13.4146 44.3598 13.747 45.0471C16.2565 50.1797 21.4278 55.3123 26.6158 57.8191C27.3082 58.1483 28.0741 58.2922 28.8388 58.2369C29.6034 58.1815 30.3406 57.9288 30.9784 57.5033C31.0495 57.4554 31.1179 57.4036 31.1834 57.3482L37.917 51.6034L50.9354 57.4341C50.9354 57.4341 50.9576 57.4341 50.9659 57.4341C50.6116 60.1188 49.2914 62.5826 47.2522 64.3644C45.2129 66.1462 42.5943 67.124 39.8863 67.1148Z" fill="white"/>
</svg>
