<svg width="52" height="52" viewBox="0 0 52 52" fill="none" xmlns="http://www.w3.org/2000/svg">
<rect width="52" height="52" rx="26" fill="white"/>
<path d="M27.344 37.776L23.432 37.416C23.512 36.488 23.584 35.448 23.648 34.296C23.728 33.144 23.792 31.96 23.84 30.744C23.888 29.528 23.92 28.36 23.936 27.24C23.968 26.12 23.992 25.128 24.008 24.264C24.024 23.4 24.032 22.744 24.032 22.296C24.032 22.136 24.016 22.056 23.984 22.056C23.936 22.056 23.856 22.144 23.744 22.32C23.584 22.576 23.416 22.88 23.24 23.232C23.064 23.568 22.912 23.872 22.784 24.144L20 21.384C20.944 19.832 21.872 18.632 22.784 17.784C23.712 16.92 24.544 16.488 25.28 16.488C25.888 16.488 26.36 16.632 26.696 16.92C27.032 17.208 27.28 17.592 27.44 18.072C27.616 18.552 27.72 19.08 27.752 19.656C27.8 20.232 27.824 20.808 27.824 21.384C27.824 21.64 27.816 22.168 27.8 22.968C27.8 23.752 27.792 24.72 27.776 25.872C27.76 27.024 27.736 28.28 27.704 29.64C27.672 30.984 27.624 32.36 27.56 33.768C27.496 35.16 27.424 36.496 27.344 37.776Z" fill="#39BB9C"/>
</svg>
