<svg width="52" height="52" viewBox="0 0 52 52" fill="none" xmlns="http://www.w3.org/2000/svg">
<rect width="52" height="52" rx="26" fill="white"/>
<path d="M19.4 37.824C19.24 37.2 19.064 36.56 18.872 35.904C18.696 35.248 18.536 34.672 18.392 34.176C20.168 33.184 21.712 32.112 23.024 30.96C24.352 29.808 25.44 28.664 26.288 27.528C27.152 26.392 27.792 25.36 28.208 24.432C28.64 23.504 28.856 22.776 28.856 22.248C28.856 21.64 28.648 21.168 28.232 20.832C27.832 20.48 27.288 20.304 26.6 20.304C25.656 20.304 24.696 20.64 23.72 21.312C22.76 21.984 21.864 22.936 21.032 24.168L18.512 21.144C19.232 20.28 19.992 19.504 20.792 18.816C21.608 18.128 22.48 17.584 23.408 17.184C24.336 16.768 25.328 16.56 26.384 16.56C27.536 16.56 28.592 16.76 29.552 17.16C30.512 17.56 31.28 18.16 31.856 18.96C32.432 19.76 32.72 20.752 32.72 21.936C32.72 23.056 32.432 24.272 31.856 25.584C31.28 26.88 30.48 28.184 29.456 29.496C28.432 30.792 27.264 32 25.952 33.12C26.48 33.104 27.016 33.096 27.56 33.096C28.616 33.096 29.584 33.16 30.464 33.288C31.344 33.4 32.256 33.576 33.2 33.816L32.408 37.512C31.624 37.32 30.792 37.16 29.912 37.032C29.032 36.904 28.024 36.84 26.888 36.84C25.544 36.84 24.208 36.912 22.88 37.056C21.552 37.216 20.392 37.472 19.4 37.824Z" fill="#F3C041"/>
</svg>
