<svg width="52" height="52" viewBox="0 0 52 52" fill="none" xmlns="http://www.w3.org/2000/svg">
<rect width="52" height="52" rx="26" fill="white"/>
<path d="M26.072 37.848C24.36 37.848 22.896 37.568 21.68 37.008C20.464 36.464 19.408 35.832 18.512 35.112L20.408 31.68C20.952 32.256 21.56 32.712 22.232 33.048C22.92 33.368 23.6 33.6 24.272 33.744C24.96 33.872 25.56 33.936 26.072 33.936C27.064 33.936 27.88 33.704 28.52 33.24C29.176 32.76 29.504 32.152 29.504 31.416C29.504 30.888 29.32 30.416 28.952 30C28.6 29.584 28.112 29.264 27.488 29.04C26.864 28.8 26.152 28.68 25.352 28.68H25.016C24.744 28.68 24.464 28.688 24.176 28.704C23.904 28.72 23.632 28.744 23.36 28.776L23.288 27L23.12 24.984C25.072 24.904 26.568 24.608 27.608 24.096C28.648 23.568 29.168 22.872 29.168 22.008C29.168 21.544 28.872 21.16 28.28 20.856C27.704 20.536 26.96 20.376 26.048 20.376C24.384 20.376 22.728 20.976 21.08 22.176L19.112 18.72C19.816 18.208 20.576 17.792 21.392 17.472C22.208 17.136 23.024 16.888 23.84 16.728C24.656 16.568 25.408 16.488 26.096 16.488C27.504 16.488 28.728 16.712 29.768 17.16C30.808 17.592 31.616 18.208 32.192 19.008C32.768 19.808 33.056 20.752 33.056 21.84C33.056 23.088 32.784 24.096 32.24 24.864C31.712 25.632 30.984 26.232 30.056 26.664C31.112 27.112 31.968 27.752 32.624 28.584C33.296 29.416 33.632 30.4 33.632 31.536C33.632 32.512 33.424 33.392 33.008 34.176C32.592 34.944 32.024 35.6 31.304 36.144C30.6 36.704 29.792 37.128 28.88 37.416C27.984 37.704 27.048 37.848 26.072 37.848Z" fill="#4598CA"/>
</svg>
