<svg width="52" height="52" viewBox="0 0 52 52" fill="none" xmlns="http://www.w3.org/2000/svg">
<rect width="52" height="52" rx="26" fill="white"/>
<path d="M25.472 37.872C23.936 37.872 22.616 37.568 21.512 36.96C20.408 36.368 19.56 35.512 18.968 34.392C18.376 33.256 18.08 31.912 18.08 30.36C18.08 28.824 18.264 27.448 18.632 26.232C19 25 19.496 23.904 20.12 22.944C20.744 21.984 21.44 21.144 22.208 20.424C22.976 19.688 23.76 19.064 24.56 18.552C25.36 18.024 26.12 17.584 26.84 17.232C27.576 16.88 28.216 16.592 28.76 16.368L30.56 20.136C29.216 20.552 28.04 21.08 27.032 21.72C26.024 22.36 25.168 23.064 24.464 23.832C23.76 24.6 23.192 25.376 22.76 26.16C23.976 25.168 25.48 24.672 27.272 24.672C27.8 24.672 28.408 24.768 29.096 24.96C29.8 25.136 30.472 25.44 31.112 25.872C31.752 26.304 32.28 26.88 32.696 27.6C33.128 28.32 33.344 29.216 33.344 30.288C33.344 31.84 33.024 33.184 32.384 34.32C31.744 35.456 30.832 36.328 29.648 36.936C28.48 37.56 27.088 37.872 25.472 37.872ZM26.432 28.128C25.92 28.128 25.384 28.232 24.824 28.44C24.264 28.632 23.72 28.984 23.192 29.496C22.664 29.992 22.192 30.68 21.776 31.56C22.24 33.352 23.552 34.248 25.712 34.248C26.688 34.248 27.448 34.064 27.992 33.696C28.536 33.312 28.912 32.848 29.12 32.304C29.344 31.76 29.456 31.232 29.456 30.72C29.456 29.872 29.2 29.232 28.688 28.8C28.176 28.352 27.424 28.128 26.432 28.128Z" fill="#40BAC2"/>
</svg>
