<svg width="52" height="52" viewBox="0 0 52 52" fill="none" xmlns="http://www.w3.org/2000/svg">
<rect width="52" height="52" rx="26" fill="white"/>
<path d="M25.472 37.872C25.2 37.872 24.768 37.856 24.176 37.824C23.6 37.792 22.96 37.696 22.256 37.536C21.552 37.392 20.872 37.144 20.216 36.792C19.576 36.456 19.04 35.984 18.608 35.376C18.192 34.752 17.984 33.96 17.984 33C17.984 32.008 18.304 30.992 18.944 29.952C19.6 28.912 20.432 27.904 21.44 26.928C20.544 26.272 19.848 25.552 19.352 24.768C18.856 23.984 18.608 23.032 18.608 21.912C18.608 21.288 18.744 20.664 19.016 20.04C19.288 19.4 19.696 18.816 20.24 18.288C20.784 17.76 21.472 17.336 22.304 17.016C23.136 16.696 24.112 16.536 25.232 16.536C26.448 16.536 27.472 16.712 28.304 17.064C29.152 17.416 29.848 17.872 30.392 18.432C30.952 18.976 31.416 19.536 31.784 20.112C32.088 20 32.36 19.912 32.6 19.848L34.136 23.616C32.968 23.904 31.848 24.296 30.776 24.792C29.704 25.288 28.712 25.824 27.8 26.4C27.976 26.512 28.152 26.632 28.328 26.76C28.52 26.872 28.712 26.992 28.904 27.12C29.528 27.52 30.128 27.944 30.704 28.392C31.296 28.84 31.784 29.384 32.168 30.024C32.552 30.664 32.744 31.472 32.744 32.448C32.744 33.44 32.544 34.264 32.144 34.92C31.744 35.576 31.232 36.096 30.608 36.48C29.984 36.88 29.328 37.176 28.64 37.368C27.968 37.576 27.344 37.712 26.768 37.776C26.192 37.84 25.76 37.872 25.472 37.872ZM24.368 24.168C24.432 24.216 24.488 24.256 24.536 24.288C25.176 23.824 25.816 23.384 26.456 22.968C27.096 22.552 27.72 22.168 28.328 21.816C27.768 20.744 26.808 20.208 25.448 20.208C24.584 20.208 23.888 20.36 23.36 20.664C22.832 20.968 22.568 21.376 22.568 21.888C22.568 22.192 22.728 22.56 23.048 22.992C23.384 23.408 23.824 23.8 24.368 24.168ZM21.92 32.664C21.92 33.064 22.096 33.384 22.448 33.624C22.8 33.848 23.224 34.008 23.72 34.104C24.216 34.184 24.688 34.224 25.136 34.224C25.456 34.224 25.824 34.2 26.24 34.152C26.656 34.088 27.056 33.992 27.44 33.864C27.824 33.736 28.144 33.56 28.4 33.336C28.656 33.112 28.784 32.832 28.784 32.496C28.784 32.208 28.624 31.904 28.304 31.584C28 31.248 27.496 30.84 26.792 30.36C26.424 30.12 26.048 29.88 25.664 29.64C25.28 29.4 24.896 29.16 24.512 28.92C23.696 29.688 23.056 30.408 22.592 31.08C22.144 31.752 21.92 32.28 21.92 32.664Z" fill="#FFB743"/>
</svg>
