<svg width="143" height="41" viewBox="0 0 143 41" fill="none" xmlns="http://www.w3.org/2000/svg">
<path d="M20.4883 0L25.0882 14.1571H39.9738L27.9311 22.9066L32.531 37.0637L20.4883 28.3141L8.44558 37.0637L13.0455 22.9066L1.00277 14.1571H15.8884L20.4883 0Z" fill="white"/>
<path d="M71.5 0L76.0999 14.1571H90.9856L78.9428 22.9066L83.5427 37.0637L71.5 28.3141L59.4573 37.0637L64.0572 22.9066L52.0145 14.1571H66.9001L71.5 0Z" fill="white"/>
<path d="M122.512 0L127.112 14.1571H141.997L129.955 22.9066L134.554 37.0637L122.512 28.3141L110.469 37.0637L115.069 22.9066L103.026 14.1571H117.912L122.512 0Z" fill="white"/>
</svg>
