<svg width="158" height="98" viewBox="0 0 158 98" fill="none" xmlns="http://www.w3.org/2000/svg">
<path d="M3.3071 41.6477C3.62576 63.9769 24.4583 98.1018 105.239 55.9683" stroke="black" stroke-width="6" stroke-linecap="round" stroke-linejoin="round"/>
<mask id="mask0_389_594" style="mask-type:luminance" maskUnits="userSpaceOnUse" x="81" y="1" width="76" height="81">
<path d="M81.5176 16.6211L138.373 1.01182L156.168 65.8295L99.3129 81.4388L81.5176 16.6211Z" fill="white"/>
</mask>
<g mask="url(#mask0_389_594)">
<path d="M150.366 45.3431C150.853 47.6833 150.677 50.2266 149.894 52.5617C152.382 57.0015 151.161 63.2458 147.941 66.6235C146.697 67.9253 144.911 68.9227 142.772 69.51C140.065 70.2532 137.1 70.2772 134.504 69.5915C133.666 69.97 131.967 70.8152 129.409 72.4398C128.274 73.1599 126.902 73.7529 125.439 74.1544C122.783 74.8836 120.039 74.9544 117.515 74.3802C116.259 75.5063 114.615 76.6056 112.62 77.1541C110.468 77.7449 107.133 77.8801 103.468 75.1696C94.6622 68.658 92.8229 57.8906 92.4415 53.5634L92.4329 53.4419C92.2242 49.24 93.2774 46.1307 95.5646 44.2005C96.7391 43.2096 98.1641 42.6006 99.7753 42.388C99.9017 41.7735 100.064 41.1701 100.263 40.5794C102.339 34.4052 103.038 32.3259 101.463 26.4638C101.031 24.8566 100.516 23.4544 100.063 22.2173C99.0471 19.4484 98.0897 16.8393 99.313 14.2676C100.102 12.6105 101.606 11.4202 103.913 10.6275C107.382 9.43934 111.117 9.84991 114.164 11.7569C117.365 13.76 119.4 17.0857 119.895 21.1217C120.087 22.6846 120.185 24.0612 120.28 25.3923C120.412 27.2292 120.518 28.697 120.802 29.9655C127.668 27.4248 134.765 25.0763 139.791 26.2424C143.331 27.0638 145.976 29.5898 147.046 33.1721C147.655 35.2093 147.721 37.4952 147.264 39.71C148.816 41.1255 149.889 43.0555 150.366 45.3431Z" fill="white"/>
</g>
<path d="M143.57 41.0125C144.455 38.8237 144.658 36.2638 144.006 34.0809C143.26 31.5841 141.509 29.8983 139.074 29.3334C134.497 28.2723 126.476 31.2457 121.683 33.0227C120.525 33.4525 119.574 33.8031 118.987 33.9786C117.539 31.5243 117.354 28.9457 117.115 25.6189C117.023 24.3254 116.927 22.9878 116.745 21.5079C116.369 18.4395 114.855 15.9322 112.481 14.4465C110.247 13.0492 107.501 12.7517 104.943 13.6296C103.465 14.1369 102.586 14.7732 102.178 15.6311C101.528 16.9977 102.162 18.7261 103.039 21.1183C103.516 22.4188 104.057 23.8933 104.527 25.6404C106.351 32.4285 105.385 35.2997 103.27 41.5912C102.808 42.9679 102.623 44.3233 102.618 45.6105C101.065 45.3465 99.0956 45.3728 97.6109 46.6261C96.1207 47.8839 95.4446 50.1184 95.6019 53.2844C95.9462 57.1839 97.5849 66.873 105.354 72.6178C107.76 74.3974 109.947 74.5969 111.78 74.0935C113.963 73.4935 115.644 71.8978 116.598 70.7858C119.279 71.8461 122.199 71.7529 124.599 71.0939C125.796 70.7652 126.864 70.2963 127.708 69.7604C131.953 67.0652 134.048 66.3441 134.087 66.3313C134.169 66.3043 134.237 66.254 134.286 66.1909C134.417 66.2413 134.55 66.2913 134.686 66.3372C136.944 67.0888 139.654 67.0756 141.932 66.4501C143.448 66.0339 144.773 65.3465 145.644 64.4336C148.299 61.649 149.123 56.0161 146.295 52.9689C147.354 50.8711 147.742 48.3117 147.259 45.9901C146.777 43.671 145.471 41.9169 143.57 41.0125ZM127.254 69.0453C124.81 70.5965 120.461 71.4187 116.878 69.9863C114.081 68.8691 112.169 66.5395 111.346 63.2498C111.289 63.0235 111.059 62.8853 110.833 62.9421C110.83 62.9431 110.827 62.9438 110.823 62.9448C110.603 63.0054 110.469 63.2314 110.525 63.4549C111.339 66.7109 113.155 69.1002 115.793 70.4216C113.871 72.5926 110.295 75.2186 105.857 71.9374C98.3644 66.3969 96.7784 56.9952 96.446 53.2269C96.304 50.3541 96.879 48.3509 98.1564 47.2724C99.4486 46.1824 101.25 46.2122 102.641 46.4738C102.901 50.9351 105.202 54.3739 105.333 54.5656C105.437 54.7187 105.625 54.782 105.794 54.7356C105.838 54.7235 105.88 54.7036 105.92 54.6768C106.113 54.5457 106.163 54.2821 106.032 54.089C106 54.0435 103.664 50.5422 103.487 46.135C103.487 46.1334 103.487 46.132 103.487 46.1304C103.432 44.7688 103.582 43.3209 104.073 41.8606C106.244 35.4035 107.235 32.4562 105.345 25.4204C104.866 23.6375 104.317 22.144 103.834 20.8265C103.028 18.6287 102.445 17.0404 102.942 15.995C103.246 15.3558 103.969 14.8583 105.219 14.4295C107.532 13.6339 110.017 13.9026 112.033 15.1644C114.185 16.5118 115.561 18.801 115.906 21.6106C116.085 23.0696 116.18 24.3962 116.272 25.6792C116.566 29.784 116.799 33.0261 119.581 36.2346C119.734 36.4112 120.001 36.4302 120.177 36.2766C120.353 36.124 120.373 35.8564 120.219 35.6801C119.941 35.3591 119.691 35.0379 119.465 34.7163C120.07 34.5223 120.917 34.2103 121.978 33.8161C126.373 32.1874 134.554 29.1542 138.884 30.1578C141.608 30.7896 142.732 32.7715 143.196 34.3229C144.1 37.3528 143.213 41.1715 141.084 43.4015C139.038 45.5448 134.275 46.4589 130.524 45.5181C130.523 45.5183 130.522 45.5178 130.521 45.5172C130.265 45.4532 130.013 45.3805 129.767 45.2984C127.856 44.6613 125.498 43.2469 125.125 40.1245C124.94 38.5882 125.321 37.2746 126.254 36.2207C128.973 33.1536 135.485 33.1119 135.55 33.1113C135.784 33.1117 135.973 32.9224 135.973 32.688C135.973 32.4545 135.784 32.2654 135.55 32.2657C135.267 32.266 128.595 32.3064 125.623 35.658C124.521 36.9009 124.071 38.4372 124.285 40.2252C124.511 42.1165 125.442 43.6859 126.968 44.8142C128.445 51.8146 125.734 58.5238 120.647 60.4333C120.429 60.5158 120.318 60.7596 120.4 60.978C120.477 61.1845 120.699 61.2948 120.908 61.2375C120.919 61.2342 120.932 61.2301 120.944 61.2259C124.291 59.969 126.688 56.8167 127.692 52.8657C128.282 54.5535 129.532 55.8949 131.333 56.777C130.241 57.9209 129.789 59.3526 129.991 61.0426C130.236 63.0842 131.39 64.711 133.286 65.7347C132.404 66.1037 130.425 67.0317 127.254 69.0453ZM127.945 45.4344C128.416 45.6882 128.928 45.9089 129.479 46.0939C128.949 46.5213 128.517 46.9942 128.18 47.5088C128.14 46.8236 128.062 46.1309 127.945 45.4344ZM145.032 63.8492C143.085 65.8863 138.376 66.6738 134.954 65.5337C133.256 64.9679 131.163 63.7123 130.83 60.9421C130.645 59.3872 131.084 58.1409 132.171 57.1396C132.303 57.1898 132.434 57.24 132.571 57.285C135.085 58.1226 138.103 58.1074 140.638 57.4114C142.324 56.9485 143.797 56.1843 144.766 55.1695C145.172 54.744 145.537 54.2675 145.859 53.7534C148.163 56.5147 147.373 61.3941 145.032 63.8492ZM146.43 46.162C147.038 49.0811 146.102 52.5452 144.154 54.5857C141.967 56.8759 136.68 57.7627 132.838 56.4824C130.927 55.8462 128.569 54.4311 128.195 51.3073C127.947 49.238 128.729 47.5835 130.513 46.3863C132.797 46.9226 135.365 46.8327 137.568 46.2277C139.255 45.7647 140.727 45.0007 141.696 43.9859C142.299 43.3539 142.811 42.6044 143.222 41.7841C144.869 42.5747 146.005 44.118 146.43 46.162Z" fill="black"/>
</svg>
