<svg width="124" height="125" viewBox="0 0 124 125" fill="none" xmlns="http://www.w3.org/2000/svg">
<path d="M98.9977 17.6595C83.1323 4.62417 60.2338 -6.23864 40.3435 4.14184C38.5067 5.68109 28.9298 7.71524 32.5781 10.9363C-1.19439 21.602 -7.00583 64.9861 7.33243 93.3343C16.1437 111.872 37.49 121.812 56.9619 124.589C59.2798 124.866 61.6019 125 63.9282 125C88.9145 125 113.687 109.377 121.879 85.2564C128.754 60.9052 118.336 33.4001 98.9977 17.6595ZM111.449 82.0856C104.621 100.972 85.6134 113.873 65.7816 114.817C48.1297 115.504 29.4653 107.666 18.4616 93.6782C10.2988 79.6992 5.62539 62.8178 9.4202 46.7417C13.466 23.2839 38.6657 11.3977 60.8488 11.3977C62.5014 11.3977 64.1457 11.4648 65.7565 11.599C70.1329 13.1802 69.907 7.42585 65.5808 7.34197C56.3427 5.27426 46.5859 6.13825 37.6365 9.11609C64.2503 -4.6952 93.6046 18.2761 106.29 41.2012C112.144 53.6788 115.365 68.5805 111.449 82.0856Z" fill="white"/>
</svg>
