<svg width="151" height="246" viewBox="0 0 151 246" fill="none" xmlns="http://www.w3.org/2000/svg">
<mask id="mask0_380_325" style="mask-type:luminance" maskUnits="userSpaceOnUse" x="0" y="0" width="151" height="246">
<path d="M0 0.875732H151V245.829H0V0.875732Z" fill="white"/>
</mask>
<g mask="url(#mask0_380_325)">
<path d="M134.986 204.637C134.986 204.285 134.46 203.903 134.371 203.242C134.246 202.385 134.21 201.553 134.204 200.696C134.194 199.435 134.673 197.974 132.954 197.323C132.934 197.318 132.954 197.209 132.954 197.116C133.449 196.878 134.465 196.786 133.34 195.969C133.204 195.866 133.298 195.618 133.387 195.427C133.663 194.859 133.496 194.719 132.866 194.818C132.491 194.874 131.975 194.802 131.704 194.57C131.366 194.28 132.027 194.317 132.038 194.074C132.038 194.012 132.053 193.924 132.022 193.893C131.48 193.325 131.605 192.395 130.949 191.915C130.293 191.44 130.204 190.556 129.517 190.102C129.033 189.782 128.241 189.709 128.324 188.836C128.329 188.785 128.178 188.718 128.105 188.656C126.574 187.338 125.027 186.026 123.277 185.009C121.98 184.255 120.85 183.057 119.132 183.248C118.97 183.268 118.882 183.082 118.777 182.953C118.267 182.308 117.486 181.899 116.783 182.127C116.043 182.364 115.684 181.192 115.007 181.858C114.996 181.77 114.96 181.683 114.97 181.6C115.043 181.145 114.71 181.13 114.418 181.12C113.866 181.104 113.22 181.052 112.819 180.846C112.038 180.433 112.074 180.882 111.986 181.517C111.553 180.319 110.84 180.061 109.757 180.324C109.355 180.417 108.6 180.453 108.408 180.293C107.449 179.467 106.621 179.921 105.751 180.34C105.642 180.396 105.454 180.541 105.434 180.433C105.251 179.436 104.47 180.36 104.017 179.994C103.736 179.771 103.392 180.159 103.6 180.567C103.033 180.737 103.314 179.885 102.892 180.045C101.939 180.417 100.751 179.715 99.944 180.696C99.918 180.727 99.7461 180.701 99.7044 180.65C99.3815 180.247 98.9649 180.479 98.6055 180.515C95.1107 180.903 91.6159 181.357 88.1159 181.693C87.194 181.781 86.3503 182.101 85.4648 182.261C84.7878 182.385 83.9284 182.096 83.4544 182.685C82.9753 183.284 81.8138 182.044 81.7669 183.403C81.6784 183.392 81.543 183.418 81.5117 183.372C81.1628 182.896 80.7513 183.237 80.3555 183.248C79.4544 183.279 78.6888 183.769 77.819 183.924C76.1107 184.224 74.543 184.993 72.8711 185.453C71.5378 185.825 70.3346 186.693 68.9388 187.039C68.4076 187.168 67.944 187.612 67.4232 187.674C66.8971 187.731 66.4023 187.597 66.1419 188.237C66.043 188.485 65.7461 188.495 65.5846 188.253C65.1315 187.571 64.5482 187.824 64.1836 188.211C63.7878 188.64 63.4023 188.811 62.8503 188.764C61.8034 188.671 61.0794 189.379 60.3971 189.952C59.8711 190.391 59.3659 189.895 58.8711 190.252C57.8503 190.99 56.8971 191.817 55.819 192.488C54.6211 193.227 53.7148 194.306 52.7669 195.334C50.7253 197.55 48.5846 199.688 46.7305 202.069C45.5273 203.619 44.5169 205.287 43.4805 206.945C42.6888 208.211 42.6576 209.673 41.9076 210.886C41.8815 210.923 41.944 211.005 41.9492 211.072C42.0534 212.209 41.918 213.376 42.3555 214.481C42.4857 214.812 42.3451 215.194 42.1159 215.489C41.9701 215.669 41.8659 215.829 41.8867 216.093C41.9596 217.038 41.9909 217.983 42.043 218.929C42.0638 219.316 42.2253 219.667 42.3346 220.034C42.5326 220.705 42.7357 219.946 42.9701 220.106C42.7409 220.592 42.2826 221.103 42.3294 221.558C42.6003 224.089 42.5898 226.676 43.9128 229.011C45.1055 231.129 45.9909 233.453 48.1992 234.827C48.2721 234.873 48.293 235.059 48.2826 235.173C48.2305 235.772 48.6055 236.134 49.0221 236.449C49.6628 236.934 50.3763 237.337 50.9753 237.869C51.6576 238.468 52.418 238.944 53.1315 239.486C53.7773 239.977 54.7409 239.78 55.194 240.571C55.2669 240.71 55.4076 240.519 55.5169 240.478C55.8607 240.333 56.0898 240.483 56.3815 240.7C57.3138 241.387 58.2253 242.172 59.2773 242.616C60.6628 243.2 62.1523 243.613 63.6367 243.882C64.7773 244.093 65.9232 244.692 67.1419 244.207C67.9544 245.023 69.0482 244.832 70.0378 244.977C71.2201 245.142 72.4128 245.24 73.5951 245.374C74.8398 245.509 76.0794 245.653 77.319 245.793C80.4544 245.793 83.5898 245.793 86.7253 245.793C87.7461 245.452 88.8294 245.126 89.8711 245.245C91.5378 245.426 93.1003 244.822 94.7305 244.884C95.569 244.915 96.3919 244.61 97.194 244.605C98.3919 244.6 99.4857 244.243 100.626 244.067C101.715 243.897 102.647 242.998 103.845 243.396C103.902 243.412 104.012 243.303 104.079 243.241C104.704 242.647 105.522 242.43 106.303 242.156C107.944 241.583 109.46 240.798 110.918 239.822C111.553 239.393 112.23 238.365 113.324 239.109C113.496 239.223 113.626 239.026 113.647 238.856C113.699 238.396 114.059 238.2 114.408 238.045C115.189 237.699 115.809 237.12 116.626 236.769C117.543 236.371 118.48 235.684 119.324 235.034C120.824 233.871 122.574 233.045 123.986 231.816C125.074 230.865 126.043 229.698 126.84 228.448C127.564 227.312 127.48 225.674 128.98 225.013C129.017 224.993 129.053 224.884 129.038 224.843C128.762 224.285 128.944 224.182 129.507 224.3C129.72 224.347 129.944 224.109 130.001 223.892C130.225 223.066 129.98 222.033 131.079 221.609C131.1 221.599 131.116 221.46 131.085 221.429C130.725 221.041 130.996 220.928 131.324 220.742C131.835 220.447 132.277 220.091 131.647 219.466C131.564 219.383 131.543 219.068 131.6 219.032C132.434 218.515 132.241 217.58 132.574 216.878C133.376 215.189 133.824 213.407 134.402 211.656C134.579 211.114 134.715 210.644 134.069 210.23C133.678 209.988 133.73 209.487 134.09 209.13C134.309 208.919 134.548 208.733 134.809 208.505C133.918 208.206 133.793 208.025 134.293 207.353C134.918 206.522 134.996 205.546 134.986 204.637ZM68.0273 235.808C67.9701 236.005 67.8242 236.191 67.6107 236.134C67.0117 235.974 66.5326 236.273 66.0169 236.464C65.9284 236.495 65.7721 236.552 65.7409 236.516C65.0273 235.705 63.918 236.191 63.0586 235.669C62.3555 235.245 61.4076 235.152 60.6628 235.922C60.2826 235.4 61.2513 234.997 60.569 234.543C59.7148 233.975 59.5169 235.07 58.9336 235.142C58.6784 234.884 58.9076 234.667 58.9388 234.429C59.0273 233.691 59.0534 233.009 58.0065 232.854C57.319 232.745 57.0378 231.754 56.168 231.873C56.1471 231.878 56.0534 231.645 56.069 231.542C56.1159 231.315 56.3294 231.325 56.4596 231.413C57.168 231.898 58.0378 231.935 58.8086 232.286C60.3763 232.999 61.9648 233.742 63.7148 233.98C64.2409 234.052 64.7409 233.355 65.293 233.975C65.9544 234.713 67.1211 234.682 67.7513 235.498C67.8294 235.602 68.0846 235.581 68.0273 235.808ZM99.8398 235.948C99.8138 236.077 99.4232 236.16 99.4232 235.746C99.4232 235.684 99.2669 235.55 99.2357 235.566C98.3919 235.953 97.3138 235.313 96.5898 236.139C96.293 236.48 96.1263 236.583 95.9336 236.082C95.8346 235.814 95.5899 235.814 95.3555 235.865C93.3451 236.32 91.2669 236.129 89.2513 236.485C88.944 236.542 88.418 236.325 88.3294 236.929C88.3086 237.089 88.1055 237.027 87.9961 236.991C86.6628 236.532 85.3294 236.872 83.9857 236.898C83.1628 236.914 82.3555 236.619 81.7044 237.353C81.668 237.389 81.5742 237.41 81.5221 237.394C79.3034 236.619 76.9961 236.924 74.7201 236.847C74.3763 236.836 74.2148 236.785 74.2201 236.464C74.2305 236.118 73.9909 235.907 73.8555 235.715C75.4648 235.715 77.1315 235.938 78.6836 235.633C79.5534 235.457 80.2982 235.411 81.1211 235.571C81.5638 235.653 81.918 235.059 82.4857 235.452C82.7044 235.602 82.7148 235.049 82.7878 234.781C82.9232 234.92 83.1576 235.168 83.168 235.163C83.9648 234.465 84.6159 235.669 85.3711 235.323C86.2461 234.92 87.168 235.328 88.0951 235.158C89.1211 234.972 90.1732 234.605 91.1836 234.62C92.2721 234.636 93.3503 234.512 94.4076 234.409C96.0013 234.254 97.6992 234.502 99.1576 233.515C99.6211 233.205 100.095 233.257 100.126 233.995C100.137 234.362 100.085 234.672 100.408 235.039C100.725 235.4 99.9232 235.535 99.8398 235.948ZM110.116 230.457C109.605 230.747 109.84 231.201 109.788 231.573C109.663 232.461 109.132 232.947 108.283 233.117C107.694 233.236 107.178 233.443 106.965 234.109C106.324 233.67 106.527 232.26 105.251 232.89C105.246 232.451 105.512 232.575 105.673 232.518C106.012 232.405 106.527 232.441 106.095 231.811C105.882 231.495 106.1 230.989 106.392 230.881C107.486 230.473 108.496 229.801 109.694 229.724C110.204 229.688 110.184 230.421 110.116 230.457ZM114.319 218.583C114.064 218.722 113.783 218.908 113.658 219.146C113.439 219.564 113.236 219.771 112.762 219.507C112.574 219.404 112.324 219.492 112.225 219.641C111.501 220.654 110.189 220.359 109.262 221C108.293 221.671 107.173 222.234 106.038 222.539C103.829 223.128 101.892 224.486 99.5638 224.698C98.2878 224.812 97.0065 224.915 95.7253 225.06C94.3555 225.209 92.9909 225.395 91.6263 225.587C91.2253 225.638 90.8867 226.366 90.7305 226.18C90.2669 225.628 89.7357 225.938 89.2565 225.886C87.9857 225.747 86.7357 226 85.4909 226.253C85.0482 226.341 84.694 226.702 84.1419 226.372C83.7878 226.16 83.5221 226.733 83.0794 227.105C82.9648 226.304 82.5951 226.511 82.0482 226.49C80.2773 226.428 78.5273 226.707 76.7617 226.64C76.5117 226.635 76.1888 226.418 76.1263 226.95C76.0794 227.363 75.819 227.255 75.6263 226.976C75.2461 226.428 75.1992 226.418 74.8242 226.991C74.6159 227.307 74.2617 227.596 74.0951 227.193C73.6523 226.103 72.6419 226.547 71.9128 226.304C71.5169 226.17 71.0378 226.113 70.5898 226.062C70.2773 226.02 69.8763 225.803 69.6211 226.242C69.4336 226.558 69.0742 226.423 68.918 226.315C67.7201 225.457 66.3242 225.607 64.9753 225.421C64.4232 225.344 63.8659 224.879 63.2878 224.626C62.2513 224.176 61.194 223.82 60.0378 223.856C59.9544 223.856 59.8138 223.815 59.7826 223.753C59.2461 222.653 58.0221 222.895 57.1419 222.518C56.6732 222.322 56.4232 221.966 56.0273 221.744C54.8763 221.119 53.7461 220.406 52.7201 219.631C52.1159 219.171 51.0065 218.846 50.9544 218.335C50.8763 217.513 50.3242 217.059 50.0951 216.398C49.5898 214.946 49.3138 213.464 50.0221 212.028C50.3398 211.387 49.819 210.995 49.8503 210.468C49.8711 210.163 49.6419 209.843 49.9336 209.471C50.3242 209.838 50.2565 210.577 51.0273 210.618C51.4336 210.639 51.6628 210.706 51.6523 210.241C51.6419 209.595 51.7982 209.073 52.3659 208.645C52.7148 208.381 52.7878 207.865 52.8815 207.41C53.1263 206.16 53.7513 204.895 54.6628 204.234C55.5742 203.573 56.4284 202.71 57.543 202.297C58.2773 202.023 58.6784 201.305 59.3503 200.912C59.7201 200.69 59.7826 200.05 59.5378 199.285C60.2044 199.962 60.4596 199.601 60.9128 199.301C62.0169 198.573 63.2878 198.097 64.418 197.405C66.0898 196.377 68.0169 196.006 69.7878 195.22C70.7357 194.797 71.9336 194.688 72.9909 194.363C75.3242 193.635 77.7513 193.392 80.1055 192.839C82.1888 192.354 84.319 192.307 86.3971 191.848C87.5794 191.589 88.8503 191.755 90.069 191.651C90.9961 191.569 91.9805 191.755 92.8398 191.197C92.9909 191.099 93.2513 190.99 93.3815 191.057C94.444 191.579 95.5065 191.145 96.5326 191.006C98.069 190.804 99.6055 190.654 101.152 190.572C105.163 190.35 109.064 190.799 112.939 191.899C115.257 192.56 117.496 193.278 119.522 194.585C120.949 195.505 122.152 196.662 123.314 197.891C124.225 198.857 124.501 200.22 125.345 201.109C126.095 201.909 125.704 202.638 125.892 203.381C126.1 204.223 125.418 205.277 126.522 205.923C126.736 206.052 126.517 206.429 126.428 206.651C125.574 208.8 124.465 210.83 123.251 212.787C122.668 213.722 121.569 214.29 120.6 214.889C118.533 216.165 116.454 217.426 114.319 218.583ZM128.085 215.793C127.22 217.105 127.147 218.655 126.548 220.034C126.079 221.108 125.845 222.234 124.793 223.014C124.1 223.526 124.09 224.641 123.272 225.158C123.152 225.235 123.095 225.494 122.986 225.514C120.928 225.834 119.533 227.384 117.788 228.283C116.923 228.727 116.121 229.223 115.033 229.13C115.626 228.386 115.819 227.57 115.48 226.687C115.418 226.521 115.444 226.496 115.579 226.418C116.762 225.721 117.689 224.657 119.105 224.269C119.673 224.114 120.194 223.484 120.621 223.025C121.626 221.95 123.303 221.542 123.767 219.941C125.007 219.481 125.522 218.226 126.366 217.374C127.173 216.563 127.98 215.53 128.402 214.352C128.454 214.208 128.548 214.073 128.71 213.769C128.772 214.673 128.402 215.308 128.085 215.793ZM77.9388 61.1223C77.6263 61.4735 77.3971 61.8868 76.8763 61.3186C76.5846 61.0087 76.2513 61.2618 76.0742 61.5562C75.8398 61.9591 75.4492 62.2122 75.1732 62.5582C74.6159 63.2607 73.5638 63.6429 73.6576 64.7948C73.6732 64.96 73.4648 65.1408 73.2409 65.1305C72.5273 65.084 72.5898 65.5747 72.5534 66.0396C72.4961 66.7317 72.5065 67.4445 71.918 67.9972C71.6992 68.2089 71.5898 68.5653 71.6576 68.9011C71.7721 69.4486 71.4596 69.9031 71.3867 70.3938C71.2669 71.1944 70.3815 71.9588 71.418 73.0384C70.7982 72.8318 70.3346 72.5012 70.3919 73.245C70.4648 74.1902 69.7617 74.8875 69.5482 75.7707C69.1836 77.2686 68.5742 78.7355 68.1367 80.2541C67.8919 81.1012 68.9128 80.8584 68.6576 81.4576C68.5951 81.6125 69.1263 81.3698 69.3815 81.3026C69.5273 81.2665 69.6784 81.2303 69.8242 81.1993C69.1159 81.7159 69.3867 82.6921 68.793 83.2189C68.4492 83.5288 68.4596 83.8697 68.6992 84.2623C68.9805 84.7065 69.3451 84.6393 69.9076 84.2674C69.6784 84.8149 69.4961 85.068 69.7721 85.4606C70.4805 86.442 70.668 87.7488 71.7044 88.5442C71.8138 88.6268 71.8555 88.8283 71.8867 88.9832C72.0898 89.9181 72.6367 90.5328 73.5794 90.7497C73.8607 90.8117 73.7721 90.9822 73.7357 91.0958C73.5742 91.5193 73.8763 91.7363 74.0898 92.0204C75.7617 94.2569 77.9492 95.9562 80.0065 97.8054C81.5065 99.1535 83.2617 100.13 84.8971 101.266C87.0013 102.733 89.1419 104.174 91.4232 105.383C92.5065 105.961 93.5326 106.653 94.543 107.351C95.5482 108.048 96.793 107.95 97.8867 108.508C99.4492 109.303 101.225 109.716 102.949 110.15C104.85 110.63 106.803 110.94 108.71 111.374C110.111 111.695 111.611 111.317 112.923 112.087C113.152 112.227 113.559 112.299 113.772 112.185C114.553 111.787 115.402 112.092 116.079 112.19C117.71 112.418 119.361 112.676 120.991 113.012C121.861 113.187 123.074 113.895 123.835 112.536C123.908 113.079 124.142 113.523 124.715 113.301C125.814 112.872 126.923 113.337 128.053 113.13C128.803 112.991 129.923 113.461 130.48 113.037C131.277 112.433 131.934 112.784 132.668 112.707C133.272 112.645 133.819 112.211 134.491 112.552C134.751 112.681 134.829 112.299 135.017 112.211C135.434 112.02 135.527 111.07 136.053 111.493C136.361 111.741 135.741 112.325 135.418 112.702C135.402 112.722 135.454 112.805 135.486 112.893C136.069 112.852 136.486 112.557 136.819 112.077C137.559 110.992 137.996 109.732 138.861 108.714C139.616 107.836 140.137 106.803 140.809 105.863C141.829 104.422 142.632 102.831 143.533 101.307C144.236 100.109 145.007 98.9572 145.585 97.6814C146.163 96.4211 146.876 95.2228 147.595 94.0296C148.267 92.9088 148.491 91.6846 148.46 90.2849C148.741 90.5948 148.475 91.0028 148.845 91.0287C149.152 91.0442 149.21 90.7032 149.329 90.4811C149.548 90.0731 149.382 89.6547 149.1 89.4378C148.637 89.0814 148.855 88.8799 149.033 88.4874C149.522 87.3872 150.288 86.3387 149.923 85.0061C149.71 84.221 150.866 83.6425 150.298 82.785C150.293 82.7747 150.382 82.6972 150.439 82.6662C151.413 82.0774 150.668 81.8553 150.199 81.597C149.345 81.1322 148.621 80.6208 149.132 79.4793C149.257 79.2056 148.97 79.1797 148.819 79.1074C147.59 78.5186 147.543 78.4876 147.965 77.2118C148.121 76.7418 148.121 76.3182 147.715 76.1168C147.121 75.8224 146.986 75.0115 146.236 74.9288C146.038 74.9081 146.022 74.717 146.064 74.5466C146.189 73.9836 145.746 73.7718 145.423 73.4567C144.85 72.8989 144.1 72.6251 143.47 72.1603C141.402 70.6572 139.225 69.3039 137.053 67.9403C135.777 67.1449 134.345 66.6336 133.142 65.7245C132.668 65.3681 131.996 65.2958 131.626 64.7689C131.329 64.3402 130.908 65.1408 130.616 64.6398C130.309 64.1233 129.824 63.8289 129.257 63.6274C128.064 63.209 126.939 62.7493 125.876 61.9591C124.658 61.0552 122.98 60.8382 121.647 60.1719C120.194 59.4385 118.741 58.8083 117.22 58.2401C116.283 57.8889 115.272 57.6307 114.35 57.424C113.621 57.2639 112.777 56.3859 111.866 57.1296C111.757 57.2226 111.48 57.1296 111.439 56.8662C111.392 56.546 111.163 56.577 110.908 56.484C110.001 56.1483 109.033 56.0811 108.152 55.8383C106.777 55.4613 105.392 55.4355 104.027 55.1565C103.23 54.9964 102.319 54.888 101.788 56.0708C101.866 55.1049 101.277 54.9499 100.689 54.9293C99.9232 54.8983 99.1523 54.8208 98.3815 55.0636C98.0065 55.1824 97.6159 55.0842 97.5846 55.6369C97.5742 55.7815 97.3711 55.9003 97.194 55.8435C97.0117 55.7815 97.0065 55.5904 97.0065 55.4303C97.0013 55.1979 97.1888 54.8053 96.7253 54.9189C96.1992 55.0481 95.4388 54.6452 95.1992 55.5336C95.1315 55.766 94.9023 55.7195 94.7148 55.5956C93.819 55.0171 93.2253 55.0429 92.569 55.7402C92.2721 56.0501 91.9909 56.0553 91.7565 55.766C91.1367 55.0068 90.8971 55.327 90.7201 56.0656C90.6419 56.4013 90.3919 56.6131 90.0221 56.6441C89.8867 55.7609 89.8867 55.7609 89.168 56.2619C89.1003 56.3084 88.944 56.3652 88.9232 56.3394C88.3971 55.7092 88.1107 56.2206 87.7878 56.5666C87.5951 56.7732 87.5065 56.6028 87.3346 56.484C86.5378 55.9416 85.0065 56.5615 84.918 57.486C84.7201 56.5925 84.3815 56.9747 84.0378 57.3311C83.543 57.8424 83.1576 58.5914 82.2357 57.8528C81.9284 57.6048 81.4492 57.7959 81.069 58.08C79.8919 58.9633 78.9076 60.0325 77.9388 61.1223ZM99.6732 90.8634C99.2253 92.4542 98.2409 93.7042 97.2669 94.9697C96.8346 95.5275 96.6471 96.2197 96.1419 96.762C95.6211 97.3198 95.1576 97.2424 94.7357 96.8446C93.8503 95.9976 92.6471 95.7703 91.6523 95.1401C91.5742 95.0885 91.4596 95.073 91.3971 95.011C90.1055 93.7352 88.2721 93.2497 86.9492 92.0359C86.3034 91.447 85.6055 90.9305 84.9544 90.3572C84.6523 90.0834 84.0378 90.5121 83.918 89.696C83.8398 89.195 83.7617 88.8025 84.0221 88.3789C84.9076 86.9378 85.5951 85.3625 86.9023 84.2055C87.2357 83.911 87.4544 83.5805 87.5534 83.1569C87.5951 82.9658 87.6263 82.7695 87.9492 82.754C88.069 82.8264 88.2461 82.909 88.3971 83.0278C90.1419 84.4224 92.168 85.3883 93.9909 86.6693C95.7565 87.9141 97.6211 89.0194 99.444 90.1867C99.7044 90.352 99.7826 90.476 99.6732 90.8634ZM103.038 97.1907C102.298 98.0946 101.793 99.1793 101.184 100.181C101.064 99.5615 100.746 99.3084 100.184 99.1483C99.7409 99.0243 99.5899 98.6886 99.8971 98.1824C100.923 96.5089 101.876 94.7941 102.673 93.0017C102.913 92.4646 103.173 92.1598 103.84 92.5472C104.366 92.8571 104.996 92.9863 105.621 93.0069C106.283 93.0276 106.303 93.353 105.897 93.6939C104.715 94.6804 103.986 96.0234 103.038 97.1907ZM114.6 96.9324C113.533 98.4768 112.382 99.9592 111.428 101.576C111.194 101.974 110.673 101.896 110.345 101.767C109.741 101.529 109.314 101.638 108.954 102.278C108.876 101.524 107.632 100.842 106.954 101.245C106.246 101.669 106.158 100.941 105.777 100.817C105.512 100.729 105.767 100.223 105.923 99.9799C106.517 99.0657 106.96 98.0791 107.704 97.2269C108.21 96.6535 108.767 96.0647 109.178 95.4139C109.47 94.9542 109.71 94.9645 110.121 95.1091C111.038 95.4242 111.96 95.7341 112.892 96.0079C113.257 96.1163 113.642 96.2713 114.033 96.106C114.298 95.9924 114.59 95.9717 114.741 96.2093C114.882 96.4366 114.736 96.7362 114.6 96.9324ZM138.366 101.664C138.007 102.16 137.824 102.764 137.35 103.198C136.954 103.554 136.725 104.035 135.98 103.688C135.434 103.441 135.272 104.21 134.934 104.515C134.767 104.66 134.663 104.949 134.402 104.814C134.132 104.675 134.241 104.432 134.397 104.241C134.517 104.091 134.543 103.962 134.35 103.849C134.158 104.52 133.017 103.193 133.059 104.468C133.069 104.851 132.642 104.995 131.699 105.109C131.72 104.753 132.408 104.665 132.116 104.293C131.902 104.009 131.491 103.983 131.132 103.978C130.418 103.962 129.694 103.916 128.986 103.978C128.033 104.06 127.126 103.549 126.152 103.833C125.366 104.066 124.444 103.187 123.694 104.076C123.663 104.117 123.454 104.102 123.434 104.06C122.762 102.862 121.538 103.27 120.632 103.337C119.72 103.404 118.965 102.971 118.095 103.022C117.559 103.048 117.048 102.764 116.418 102.816C115.668 102.878 115.97 102.087 116.126 101.721C116.507 100.796 117.001 99.9179 117.454 99.0243C117.6 98.7351 117.772 98.4613 117.918 98.1721C118.001 97.9965 118.064 97.7485 118.262 97.733C119.204 97.6401 120.158 97.9293 121.105 97.6969C121.746 98.7661 122.866 98.2496 123.757 98.4252C125.715 98.8126 127.725 98.8694 129.71 98.8022C131.793 98.7351 133.939 98.7764 135.934 98.0739C137.522 97.5161 139.236 97.2733 140.71 96.4831C141.345 96.1422 142.126 95.9769 142.569 95.2951C142.637 95.3571 142.71 95.4191 142.777 95.4759C141.309 97.5419 139.845 99.608 138.366 101.664ZM82.4596 64.1853C82.7201 63.7462 83.8034 63.6739 84.5273 63.6377C85.7409 63.5809 86.9492 63.5809 88.168 63.4621C89.6836 63.3175 91.2357 63.9115 92.7513 63.6481C94.3815 63.3588 95.8815 64.2214 97.5378 63.9063C98.5169 63.7204 99.5742 64.4074 100.642 64.5572C106.897 65.4507 112.835 67.3618 118.527 70.0994C120.98 71.277 123.449 72.4185 125.85 73.7047C129.939 75.8947 133.96 78.1984 137.855 80.7241C139.293 81.659 140.027 83.1414 141.178 84.2778C142.017 85.1094 142.085 86.318 143.022 87.1083C142.428 87.3717 141.892 87.5473 141.434 87.7953C140.543 88.2756 139.814 88.9419 138.642 88.5545C138.361 88.4667 137.788 88.818 137.288 88.8438C136.902 88.8644 136.439 88.9419 136.152 89.319C136.048 89.4533 136.126 89.7735 135.84 89.727C135.418 89.6599 135.934 89.2467 135.449 89.0142C135.324 89.195 135.204 89.5514 134.98 89.6341C134.736 89.727 134.449 90.1661 134.043 89.4791C133.616 88.7611 132.668 89.412 131.98 89.5462C131.626 89.6186 131.387 89.8923 131.147 89.4223C131.09 89.3138 130.913 89.2312 130.809 89.3345C130.397 89.7477 130.043 89.4378 129.6 89.3655C128.262 89.1485 126.882 88.9316 125.548 88.9264C123.954 88.9161 122.517 88.162 120.97 88.2601C119.757 88.3376 118.923 87.5008 117.861 87.2529C117.085 87.0721 116.34 86.7002 115.522 86.9275C115.241 87.0102 115.184 86.9068 115.137 86.6744C115.085 86.4265 114.866 86.2767 114.642 86.2612C112.751 86.1372 111.23 85.0164 109.512 84.4276C108.84 84.1951 108.21 83.8336 107.533 83.6425C105.189 82.9658 103.293 81.4318 101.142 80.4039C100.158 79.9339 99.3659 79.1074 98.168 78.9163C97.6992 78.844 97.1836 78.0537 96.5951 77.6767C95.4284 76.9226 94.3086 76.0858 93.1263 75.3472C92.418 74.9081 92.3034 74.402 92.8971 73.4722C92.0013 74.0404 91.2878 74.4949 90.918 73.3483C89.4857 73.3173 88.9753 71.964 87.9596 71.339C87.9284 71.3235 87.9076 71.2822 87.8815 71.2822C87.1784 71.3029 87.0951 70.5023 86.6471 70.3163C85.9284 70.0271 85.7826 69.3556 85.3346 68.9114C84.8555 68.431 84.1576 68.1883 83.793 67.5426C83.5482 67.1139 83.3763 66.6387 83.1367 66.21C82.6836 65.4146 81.8711 65.1357 81.319 64.4848C81.8034 64.6088 82.0482 64.8826 82.4596 64.1853ZM79.8919 75.8327C80.819 76.6953 81.8451 77.4339 82.6211 78.4721C83.0742 79.0816 84.2565 79.2572 84.1784 80.1198C84.1055 80.8584 83.569 81.6229 83.0638 82.2272C82.4336 82.9813 82.1211 83.9162 81.5169 84.6548C81.0898 85.1868 81.3294 85.972 80.6367 86.4162C79.9701 85.6827 79.1471 85.1352 78.0846 85.0319C77.8763 85.0112 77.7044 84.7788 77.8294 84.598C78.1419 84.1486 78.293 83.7871 77.7201 83.3997C77.1836 83.033 76.8451 83.3945 76.418 83.7303C76.1419 82.8315 76.5169 81.9896 75.944 81.3026C75.2773 80.5124 74.6419 79.7014 74.0482 78.8543C73.793 78.4928 73.6211 79.3037 73.0221 79.3089C74.1784 76.561 75.8346 74.0869 76.2461 71.1634C76.6471 71.1892 76.7617 71.4113 76.8659 71.6541C77.5586 73.2708 78.6315 74.6551 79.8919 75.8327ZM0.860677 50.8901C0.042969 51.1277 0.31901 51.5254 0.584635 52.0213C1.13672 53.0543 1.72526 54.077 2.23568 55.1152C2.68359 56.0346 3.77734 56.3859 4.0013 57.424C4.02214 57.5274 4.32943 57.5945 4.51693 57.641C4.71484 57.6875 4.8763 57.7701 5.00651 57.9302C5.85547 59.0046 6.81901 59.9705 7.99609 60.6884C9.1888 61.4116 10.2565 62.3206 11.6159 62.8268C12.8242 63.271 13.9388 63.8392 15.2409 63.2762C15.4857 63.1729 15.7253 63.1212 16.0013 63.1935C16.6419 63.364 17.1107 63.0644 17.4961 62.5892C17.8711 63.0334 18.2826 63.1832 18.9284 63.1574C20.2305 63.1057 21.4336 62.5737 22.7878 62.6667C23.819 62.739 24.9701 62.2948 25.9857 62.2638C28.918 62.176 31.7669 61.6905 34.6211 61.1326C35.5117 60.9622 36.3815 60.6729 37.2721 60.4973C37.7721 60.394 38.3242 60.456 38.4857 59.7897C38.5169 59.6502 38.6211 59.6192 38.7826 59.6916C39.1263 59.8362 40.7305 59.4746 41.0482 59.3197C41.8294 58.9426 42.3711 57.6462 43.543 58.6689C43.7461 58.8445 43.9492 58.5242 44.1003 58.3848C44.7565 57.7753 45.5326 57.3879 46.3971 57.1761C47.7565 56.8507 48.8607 55.9623 50.1732 55.5284C51.9492 54.9396 53.3867 53.7361 55.0013 52.858C55.5273 52.5688 56.1628 52.6101 56.6055 52.1969C57.7044 51.1742 59.1992 50.8281 60.4388 50.0172C61.1419 49.5627 61.9961 49.1494 62.6523 48.6329C63.6419 47.853 65.0326 47.5018 65.569 46.1846C65.5898 46.133 65.668 46.0555 65.7096 46.0658C66.4857 46.1846 66.7305 45.384 67.2878 45.1C68.1211 44.6712 68.7669 43.8293 69.4857 43.1578C71.0221 41.7064 72.2721 40.0278 73.5273 38.3646C74.3763 37.2334 75.0846 35.9886 75.9128 34.8574C77.9961 32.0217 78.9388 28.6179 80.7669 25.6686C80.8815 25.4826 81.0378 25.1934 80.9701 25.0384C80.5586 24.1087 80.8659 23.1273 80.6888 22.1873C80.6211 21.8412 80.5378 21.4693 80.1263 21.3505C79.7096 21.2317 79.5169 21.5468 79.293 21.836C79.4909 21.3763 79.5169 20.9011 79.8034 20.4776C80.694 19.1553 80.4492 18.0035 79.1471 17.0582C78.918 16.893 78.9857 16.6554 79.1471 16.5779C79.8711 16.2267 79.5117 15.8961 79.1367 15.6068C78.4388 15.0748 78.2305 14.4033 78.4232 13.5769C78.4701 13.391 78.5534 13.1844 78.2721 13.1121C78.069 13.0656 78.0117 13.6079 77.7409 13.2722C77.5326 13.0088 77.8555 12.8021 77.8867 12.5594C77.918 12.3011 77.7096 12.1617 77.6367 11.9757C77.3815 11.3404 76.7305 10.9169 76.9284 10.0026C77.0326 9.5171 75.819 9.05223 76.3398 8.17415C76.2773 8.14833 76.2201 8.11733 76.1576 8.10184C75.4596 7.87457 75.3607 7.38904 75.6263 6.80022C75.8659 6.25787 75.7357 5.99445 75.168 5.78268C74.9232 5.68454 74.4544 5.74652 74.4284 5.28682C74.3659 4.15048 73.918 4.39841 73.4805 4.94592C72.6784 4.45523 73.7461 3.00898 72.2513 2.89018C72.2044 2.88502 72.1576 2.73006 72.1263 2.63709C72.0482 2.42532 72.0065 2.1464 71.7096 2.19288C71.4336 2.23421 71.4492 2.51312 71.3971 2.73523C71.069 3.99553 70.4076 4.27961 69.7357 3.33955C69.2305 2.62676 68.6263 2.27553 67.9232 1.85198C66.2826 0.875766 64.7044 0.875765 63.0742 1.73318C62.819 1.86748 62.4909 2.00177 62.4753 1.68153C62.4544 1.08237 62.0742 1.24249 61.7513 1.17535C61.1523 1.05655 60.6211 1.40778 60.0326 1.3458C57.9544 1.12369 55.9128 1.59372 53.8867 1.85715C51.8398 2.12574 49.8451 2.79721 47.8346 3.30856C47.6315 3.36021 47.3867 3.41703 47.3242 3.70111C47.1888 4.33643 47.1628 4.36226 46.7096 4.02652C46.5169 3.88706 46.3971 3.71661 46.1315 3.8509C45.1003 4.37259 43.8034 4.40874 43.1055 5.52958C42.9961 5.7052 42.7096 5.97895 42.5898 5.65355C42.3607 5.05439 42.0951 5.49343 41.8607 5.56058C41.3294 5.70004 41.168 6.2992 40.6576 6.57811C40.6992 6.34052 40.8138 6.09775 40.7461 6.02028C40.5482 5.81367 40.3294 5.99961 40.1367 6.10292C38.043 7.2186 35.9753 8.37043 33.8607 9.43445C29.4805 11.6451 25.4753 14.3827 21.7461 17.5386C21.1576 18.0396 20.6315 18.6233 20.0117 19.083C18.3086 20.3278 16.7669 21.774 15.293 23.2564C12.8294 25.7409 10.4596 28.3338 8.1888 30.9939C6.70443 32.7345 5.35547 34.5992 4.23047 36.6032C3.47526 37.941 2.94401 39.3615 2.43359 40.8025C1.97005 42.099 0.798178 43.1424 1.04297 44.6919C1.07422 44.883 0.886718 44.9347 0.75651 45.0328C0.00130105 45.5958 0.589844 46.4016 0.41276 47.0782C0.303386 47.4966 0.563801 47.6361 0.990885 47.5741C1.13672 47.5534 1.17839 47.7394 1.10026 47.8685C0.522135 48.7827 1.28776 48.7569 1.87109 48.8705C1.24089 49.2373 0.704427 49.6195 0.563802 50.3426C0.912761 50.4924 0.970052 49.9655 1.28776 50.1257C1.39714 50.5182 1.16276 50.8023 0.860677 50.8901ZM37.3503 53.1215C36.9596 53.0698 36.5586 53.137 36.2148 53.3332C35.7044 53.6328 35.3555 53.9479 34.5742 53.6793C33.8398 53.4314 34.043 54.2475 34.293 54.7485C32.2773 54.3559 30.3711 54.1493 28.4388 54.6452C28.0898 54.733 27.7617 54.6865 27.5794 55.1049C27.4701 55.3477 27.0638 55.4819 26.9128 55.296C26.4023 54.6762 25.9023 55.0636 25.4492 55.2753C25.168 55.3993 25.0378 55.4716 24.7044 55.3167C24.3607 55.1617 23.7253 55.1152 23.4961 55.3218C22.7513 55.9881 22.069 56.4013 21.0013 56.0243C20.8034 55.9571 20.5586 56.1018 20.3242 55.7867C20.0273 55.389 19.6367 55.5646 19.3711 55.9158C19.2201 56.1121 19.2148 56.4117 18.9648 56.5356C18.4857 56.391 19.1315 55.7144 18.5898 55.7195C18.0326 55.7247 17.3919 55.4871 16.918 55.9985C16.444 56.5098 16.1419 56.7422 15.569 55.9623C15.3242 55.6317 14.6784 55.2495 14.1419 55.0584C13.5378 54.8518 13.1003 54.4282 12.5273 54.1442C12.8659 53.8911 13.1888 53.7619 13.5586 53.7568C13.7148 53.7516 13.9544 53.7671 14.0221 53.6793C14.4753 53.075 14.8815 52.4655 15.8086 52.9923C15.9023 53.0491 16.2096 52.6411 16.2357 53.1886C16.2461 53.4469 16.6263 53.421 16.8138 53.3022C17.2721 53.0233 17.9336 53.2144 18.2721 52.6308C18.4232 52.3674 18.6523 52.6979 18.8451 52.7392C19.2721 52.8374 19.6784 53.0027 19.3503 52.2744C19.1888 51.9231 19.5117 51.8715 19.7253 51.949C20.5794 52.2434 21.4648 51.4066 22.319 52.0626C22.5221 52.2227 22.8034 52.011 23.0065 51.825C23.2253 51.6339 23.4544 51.3911 23.7669 51.4479C24.1055 51.5099 24.5169 51.8302 24.6732 51.324C24.7982 50.9056 24.3815 50.668 24.0065 50.4872C24.2461 50.3374 24.4492 50.3581 24.6003 50.4872C25.5065 51.231 25.5065 51.231 26.043 50.1308C26.319 51.3808 26.7721 50.9211 27.5482 50.5802C28.444 50.1876 29.4805 49.9087 30.4805 49.8106C31.3242 49.7279 31.6992 48.8912 32.5169 48.8085C32.6055 48.7982 32.2826 47.9718 32.8242 47.6051C32.9336 47.8065 32.668 48.3695 33.3607 48.1216C34.4336 47.7394 35.5794 47.5482 36.694 47.2848C37.1003 47.1867 37.4596 47.0576 37.5273 47.76C37.5482 47.9925 37.5794 49.0875 38.5794 48.5451C38.8242 48.416 38.8919 48.9067 38.793 49.041C38.1263 49.9139 38.5378 50.7507 38.8034 51.6029C39.1107 52.5895 38.4336 53.2764 37.3503 53.1215ZM49.3971 49.3716C48.3034 48.9532 47.5169 49.2063 46.7878 49.7538C46.6263 49.8726 46.3451 49.8416 46.1211 49.8726C45.8242 49.9139 45.5951 49.7279 45.4336 49.5575C45.2148 49.3147 45.4701 49.0875 45.6211 48.9015C46.0482 48.3592 46.2201 47.8995 45.2826 47.7755C44.8659 47.7239 44.7669 47.3985 44.8815 47.1557C45.418 45.9987 44.5742 46.1278 43.6315 46.0503C44.5326 45.508 44.2461 44.8365 44.168 44.258C44.0794 43.6279 44.3451 43.256 44.8138 42.9822C45.3242 42.6827 45.944 42.6878 46.3659 42.0887C46.5638 41.8097 46.9753 42.4089 47.0221 42.7446C47.2148 44.2322 47.9648 45.539 48.3138 46.9749C48.4232 47.4243 48.9128 47.383 49.4023 47.3881C49.0951 47.9925 48.944 48.5606 49.3971 49.3716ZM60.2773 42.9203C59.1836 43.5246 58.0846 44.1237 57.1211 44.6454C56.194 44.6764 56.0221 44.0049 55.694 43.5711C55.5065 43.318 55.4805 42.9512 55.043 43.0029C55.0117 43.0029 54.9492 42.9874 54.9492 42.9822C54.944 41.7994 52.7773 41.629 53.5586 40.0691C53.6055 39.9761 53.5534 39.816 53.5117 39.6972C53.1263 38.7003 53.5065 38.1786 54.5273 37.9875C55.1576 37.8687 55.5951 37.3832 56.0482 36.9855C56.3138 36.753 56.668 36.2933 56.8607 36.5258C57.1419 36.8718 57.7305 37.0216 57.694 37.6311C57.668 38.034 57.5898 38.4627 58.319 38.4266C58.7201 38.4111 58.7461 38.9017 58.6263 39.2736C58.4128 39.9399 58.6159 40.441 59.1628 40.8852C59.7096 41.3345 59.7253 42.1713 60.3503 42.5948C60.4544 42.6672 60.418 42.8479 60.2773 42.9203ZM71.9076 22.7244C72.1003 22.2028 72.319 21.7069 72.7044 21.3402C74.0065 21.6501 73.3763 22.7244 73.4701 23.4631C73.5534 24.1294 73.6471 24.7543 73.9857 25.3277C74.0742 25.4826 74.1523 25.6014 74.0794 25.7667C73.7148 26.6603 74.2669 27.1407 75.0221 27.6004C74.3242 27.7966 74.1055 28.1995 74.0951 28.8297C74.0742 30.3172 73.1419 31.4226 72.4076 32.6157C71.4076 34.2376 70.1263 35.6425 68.918 37.0991C68.4023 37.7241 67.9544 38.6745 66.8971 37.595C66.6315 37.3212 65.8815 37.4348 65.4232 37.7757C65.2669 37.4142 65.4596 37.2541 65.5898 37.0784C65.9336 36.6136 66.2409 36.2933 65.4701 35.7872C65.0482 35.5082 64.3086 34.9349 64.6784 34.0568C64.7773 33.8192 64.5221 33.5196 64.2357 33.5248C63.819 33.53 63.418 33.344 63.4648 33.0031C63.543 32.4608 63.5846 31.7738 64.2044 31.5104C65.4753 30.9732 66.3294 29.9867 67.2513 29.0156C67.8242 28.4165 68.5117 27.9516 69.0326 27.2336C70.0951 25.7874 71.2669 24.4289 71.9076 22.7244ZM6.14714 45.5958C6.74609 45.2033 7.24089 44.5576 6.89193 43.9739C5.82422 42.192 7.08463 40.9472 7.82422 39.661C8.71484 38.1218 9.77734 36.6497 10.9388 35.3016C11.694 34.4235 12.6315 33.7004 13.3763 32.7759C14.5117 31.3606 15.9232 30.1623 17.444 29.2016C18.3294 28.6437 18.7826 27.6055 19.8867 27.3111C20.2565 27.2181 20.6471 26.7016 20.8763 26.3969C21.694 25.2915 23.1523 25.0901 23.9544 24.0106C24.3138 23.525 25.0638 23.5973 25.5326 23.117C26.8086 21.8102 28.6576 21.3402 30.0638 20.2607C31.0482 19.5065 32.418 19.4342 33.1628 18.365C34.0013 18.6336 34.3971 17.864 34.9701 17.5541C36.0586 16.9601 37.2461 16.5727 38.3555 16.0149C39.0326 15.674 39.9023 15.488 40.694 15.2401C42.7826 14.5738 44.7826 13.6596 46.9128 13.1121C47.8398 12.8745 48.9232 12.7712 49.6419 12.2805C50.5013 11.6968 51.4232 11.9396 52.2617 11.702C53.2096 11.4282 54.3138 11.2474 55.3555 11.1648C56.7565 11.0563 58.1159 10.7826 59.4961 10.576C59.8086 10.5243 60.1003 10.3539 60.4336 10.5243C60.5586 10.5915 60.819 10.6069 60.8971 10.5295C61.9544 9.44995 63.2305 10.328 64.3867 10.1576C64.9544 10.0749 65.6471 9.88899 65.9076 10.984C66.1003 11.7846 67.3086 11.9654 68.1107 12.2391C68.6576 12.4251 68.5169 11.6193 68.7044 11.2216C69.1003 11.5573 69.5326 11.7898 69.1107 12.3373C69.0117 12.4664 68.9128 12.6833 69.069 12.7763C70.3503 13.5356 68.7044 14.7339 69.5117 15.55C69.1263 17.0324 68.7461 18.5148 68.3555 19.9921C68.0117 21.2885 67.2357 22.2544 66.1055 23.0085C64.4388 24.119 62.9388 25.4981 61.1159 26.3452C59.0898 27.2801 57.3138 28.6024 55.4076 29.7232C54.3346 30.3482 53.0742 30.7563 52.3711 31.9184C52.3086 32.0269 51.9753 32.0837 51.8346 32.0166C51.4336 31.8461 51.0794 32.0062 50.819 32.1974C49.3242 33.3027 47.3711 33.7779 46.2773 35.4411C46.2148 35.5341 46.069 35.6529 45.9805 35.6374C44.5482 35.3998 43.6263 36.4173 42.5013 36.9751C40.7201 37.8532 39.1888 39.1393 37.3919 40.0019C36.0534 40.6476 34.5273 40.9575 33.418 42.0473C32.4648 41.7323 31.9388 42.4864 31.2826 42.9048C31.0898 43.0236 30.8919 43.163 30.7617 43.3386C30.5742 43.6072 30.4544 43.9171 30.0273 43.8397C29.5586 43.7467 29.8346 43.2921 29.5898 42.9977C29.1628 43.6485 28.2721 43.4058 27.8034 44.0101C27.6315 44.227 27.4284 44.0721 27.3607 43.8655C27.2201 43.4368 26.7096 43.5659 26.6419 43.633C25.8034 44.4698 24.6784 44.0463 23.7201 44.32C22.6992 44.6041 21.6523 44.8004 20.6211 45.0535C19.8034 45.2549 19.1836 45.5597 18.7409 46.2776C18.5638 46.5565 18.2096 46.5979 17.8607 46.4739C17.8086 46.1536 18.3867 46.0762 18.1576 45.7456C17.9128 45.4047 17.5482 45.5958 17.2513 45.6578C16.043 45.9264 14.8503 46.3654 13.6315 46.4532C12.7409 46.5204 11.819 46.4067 10.9232 46.5875C10.3711 46.7012 9.77213 46.6702 9.40755 47.259C9.25651 47.5018 8.84505 47.4604 8.74609 47.2228C8.36589 46.3293 7.77214 46.7993 7.23047 46.9491C6.95964 47.0214 6.67318 47.2848 6.4388 46.9594C6.17839 46.5979 5.94401 46.195 5.78255 45.7818C5.70963 45.5906 6.02734 45.6733 6.14714 45.5958ZM36.8919 172.783C37.0586 173.17 37.5534 172.835 37.8815 172.943C38.4701 173.134 39.0326 172.86 39.6003 172.86C40.2826 172.855 40.6159 172.189 41.2305 172.179C42.5846 172.163 43.8555 171.688 45.1471 171.404C46.1471 171.187 47.1732 170.763 48.1732 170.381C48.7461 170.159 49.3503 169.808 49.7461 169.493C50.2513 169.095 50.7773 168.821 51.319 168.692C52.4648 168.413 53.4857 167.938 54.5169 167.385C55.3711 166.926 56.2878 166.538 57.2253 166.203C58.1315 165.887 59.043 165.278 59.8711 164.643C61.3503 163.506 62.918 162.509 64.2773 161.187C65.2565 160.237 66.043 159.137 67.0169 158.191C68.2513 156.998 69.5169 155.805 70.4648 154.343C70.668 154.028 71.0065 153.765 71.3398 153.584C71.7357 153.362 71.9648 153.042 72.1784 152.67C72.6107 151.911 73.069 151.182 73.6367 150.5C74.5169 149.447 75.3711 148.336 76.0326 147.143C77.6784 144.163 79.0117 141.033 80.3555 137.913C81.2826 135.754 81.2565 133.404 81.4023 131.1C81.418 130.883 81.4961 130.553 81.2669 130.475C80.4128 130.181 80.6784 129.762 81.0169 129.235C81.2357 128.9 80.8815 126.772 80.6263 126.73C79.3451 126.513 79.8815 125.744 80.0846 125.077C80.1471 124.861 80.2305 124.675 80.1419 124.432C79.6992 123.182 79.3398 121.916 78.1992 121.038C77.8398 120.765 77.3815 120.486 77.2044 120.01C76.7721 118.802 75.918 118.259 74.7096 118.445C74.4701 118.058 75.319 117.609 74.5846 117.443C74.1523 117.35 73.668 117.603 73.6523 116.865C73.6419 116.632 73.4284 116.731 73.2773 116.829C73.0273 116.984 73.0221 117.361 72.6836 117.459C72.4857 116.508 71.0378 116.674 71.0013 115.574C71.0013 115.548 70.8138 115.486 70.7305 115.512C70.3451 115.625 70.2044 115.367 70.0534 115.109C69.7148 114.541 69.2513 114.386 68.569 114.468C68.1523 114.515 67.5482 114.871 67.2305 114.138C66.9544 113.507 66.5586 113.487 66.1628 114.076C65.9284 114.432 65.5846 114.566 65.0898 114.494C65.3607 113.89 65.5534 113.032 64.8242 112.97C63.9648 112.893 63.1419 112.759 62.3138 112.547C62.0898 112.49 61.8919 112.578 61.6315 112.392C61.2513 112.118 60.6888 111.762 60.3294 112.588C60.1419 113.012 59.2878 113.001 59.2669 112.882C59.168 112.258 58.1107 112.495 58.2721 111.695C58.3086 111.498 57.9857 111.472 57.793 111.529C57.4336 111.627 57.0742 111.436 56.7669 111.462C56.0221 111.519 54.9857 110.873 54.6523 112.196C54.4596 111.808 54.6523 111.101 54.0846 111.178C53.2253 111.302 52.3815 110.956 51.5794 111.157C51.0586 111.286 50.2044 110.791 50.0221 111.803C50.0065 111.886 49.7357 111.72 49.6576 111.586C49.2201 110.858 48.9388 110.961 48.6523 111.705C48.5221 112.046 48.2096 112.17 47.9336 111.772C47.7096 111.447 47.444 111.472 47.0846 111.565C46.5846 111.695 46.0534 111.695 45.5378 111.756C44.9544 111.824 44.3763 111.901 43.8763 112.252C43.5482 112.485 43.4388 113.497 42.7253 112.557C42.6003 112.392 42.1159 112.671 42.0638 113.068C42.043 113.218 42.0378 113.507 41.8607 113.306C41.3138 112.681 40.918 113.265 40.4909 113.42C39.6888 113.704 39.2357 114.525 38.1628 114.551C37.2773 114.566 36.4076 115.279 35.5273 115.667C33.9961 116.338 32.5013 117.123 31.0638 117.934C29.1159 119.039 27.2253 120.295 25.4128 121.658C22.944 123.512 20.6888 125.573 18.5586 127.81C16.3451 130.134 14.2253 132.541 12.0586 134.907C10.6107 136.482 9.54818 138.311 8.3763 140.062C7.52214 141.332 7.45963 143.001 6.40755 144.22C6.24089 144.411 6.11068 144.752 6.06901 145.098C5.84505 146.952 5.55339 148.801 5.31901 150.655C5.2513 151.182 5.21484 151.637 4.82422 152.096C4.53776 152.432 3.55339 153.047 4.80859 153.517C4.91276 153.558 4.85547 153.656 4.82422 153.76C4.42318 154.922 4.5638 156.084 4.85547 157.241C4.97005 157.231 5.05339 157.246 5.08984 157.215C5.25651 157.045 5.36589 156.662 5.66797 156.895C5.97526 157.122 5.56901 157.241 5.48568 157.411C5.12109 158.145 4.65234 158.92 5.42318 159.627C5.85547 160.03 6.07422 160.402 5.95964 160.986C5.9388 161.089 6.13151 161.244 6.24089 161.358C7.45443 162.571 8.97526 163.388 10.2305 164.607C12.5638 166.874 15.5273 168.398 18.3242 170.076C19.0273 170.5 19.9596 170.541 20.6732 171.135C21.2044 171.574 22.0221 171.605 22.6263 171.91C24.8659 173.052 27.3294 173.052 29.7044 173.491C30.0482 173.553 30.2357 173.336 30.4544 173.134C30.7253 172.886 31.2148 172.602 31.4023 172.84C32.1107 173.708 33.1055 173.227 33.9232 173.496C34.8815 173.806 35.5534 173.041 36.3555 172.788C36.7982 172.644 36.5273 172.106 36.5482 171.74C36.5586 171.579 36.6576 171.419 36.8503 171.409C37.1211 171.399 37.3711 171.497 37.5534 171.688C37.6836 171.822 37.5898 171.988 37.4701 172.111C37.2513 172.328 36.7409 172.432 36.8919 172.783ZM52.5742 160.102C51.7201 160.888 50.6159 161.213 49.5951 161.673C49.168 161.864 48.9388 161.409 48.7878 161.048C48.7305 160.893 48.9596 160.629 48.6523 160.578C48.3659 160.531 48.1628 160.686 48.0951 160.991C48.0638 161.141 48.0169 161.337 47.819 161.327C47.6107 161.321 47.6107 161.115 47.5482 160.97C47.2305 160.288 47.569 159.39 48.2044 158.971C49.2773 158.264 50.4336 157.773 51.6523 157.386C52.3503 157.169 52.6003 157.468 52.6576 158.073C52.6211 158.656 52.3294 159.219 52.6992 159.777C52.7721 159.886 52.6784 160.004 52.5742 160.102ZM73.4336 140.49C73.5846 141.472 73.4388 142.355 72.7148 143.068C72.6471 143.135 72.569 143.207 72.5326 143.29C70.8607 147.236 67.7982 150.154 64.9284 153.181C63.6732 154.503 62.0117 155.443 60.5221 156.544C60.3346 156.683 59.8815 156.905 59.8555 156.683C59.7826 156.084 58.6523 156.415 58.9805 155.604C59.1471 155.19 58.7253 155.159 58.5951 154.942C58.3555 154.55 58.0326 154.214 58.8919 153.951C59.8659 153.651 60.9076 153.274 61.444 152.226C61.819 151.497 62.7669 151.642 63.2982 151.079C63.9284 150.413 64.7721 149.932 65.4492 149.369C66.6419 148.383 67.8815 147.35 68.7773 146.012C69.0794 145.568 69.7982 145.408 70.1003 144.963C71.1523 143.434 72.6576 142.236 73.4336 140.49ZM24.3867 154.896C23.5794 154.855 22.7773 154.726 21.9753 154.596C20.2044 154.312 18.5326 153.677 16.7721 153.357C16.0742 153.233 15.543 152.35 15.1419 151.668C14.8398 151.167 14.168 150.929 14.2305 150.113C14.2669 149.7 13.543 149.891 13.2044 149.922C12.4336 149.984 11.918 149.855 11.9232 148.956C11.9232 148.894 11.8971 148.806 11.8555 148.78C10.3763 147.866 11.4388 146.668 11.5482 145.625C11.6784 144.457 11.9753 143.336 12.7409 142.308C13.6003 141.157 14.2721 139.865 15.194 138.734C15.6784 138.14 16.3503 137.835 16.8607 137.272C17.7982 136.239 18.4701 134.969 19.6628 134.158C20.5794 133.533 21.5117 132.872 22.3034 132.138C23.3919 131.131 24.6836 130.403 25.8607 129.566C27.3659 128.502 28.8971 127.35 30.7461 126.782C31.4753 126.555 32.3086 126.4 32.8138 125.666C33.1159 125.222 33.7513 125.269 34.1836 125.067C36.444 124.029 38.8555 123.321 41.1576 122.361C41.8294 122.076 42.6576 122.051 43.1836 121.431C43.2201 121.384 43.3242 121.338 43.3503 121.353C44.2617 121.978 45.1784 121.25 46.0898 121.369C46.8086 121.462 47.5117 121.25 48.2148 121.131C49.5586 120.899 50.8971 121.198 52.2409 121.209C55.0221 121.235 57.7201 122.02 60.4805 122.159C61.819 122.226 63.0638 122.66 64.3346 122.908C65.569 123.146 66.9023 123.538 67.9701 124.339C68.4596 124.706 68.8919 124.773 69.4023 124.504C70.0638 124.153 70.2409 124.514 70.3555 125.077C70.5794 126.193 71.1055 127.293 71.1732 128.368C71.2409 129.385 71.7305 130.475 71.1263 131.555C70.6992 132.319 71.3659 133.249 71.0326 134.049C69.9596 136.611 68.6471 138.956 66.3346 140.738C63.7669 142.722 61.1367 144.54 58.1419 145.795C56.293 146.57 54.4596 147.391 52.7617 148.424C51.6992 149.075 50.4805 149.018 49.418 149.664C47.4909 150.846 45.2878 151.451 43.1263 152.102C43.0638 152.122 42.9909 152.143 42.9492 152.189C42.0742 153.15 40.7982 152.892 39.7148 153.166C37.7773 153.662 35.7878 153.951 33.819 154.307C33.3398 154.395 32.7617 154.302 32.944 155.221C32.5117 154.405 32.168 154.333 31.819 155.041C31.5742 155.526 31.3607 155.464 31.2201 154.994C31.1628 154.808 31.0951 154.679 30.9128 154.71C29.3294 154.937 27.6419 154.467 26.1784 155.413C26.0273 155.505 25.9336 155.666 25.8242 155.423C25.5221 154.757 24.9284 154.922 24.3867 154.896ZM32.8659 164.792C31.1732 164.72 29.4701 164.591 27.8034 164.39C27.2409 164.322 26.6003 164.1 25.9596 164.121C25.5534 164.136 25.4909 163.377 25.0534 163.424C25.4492 163.295 25.8451 163.351 26.2096 163.439C26.9128 163.61 27.569 163.62 28.2305 163.315C28.3138 163.274 28.4284 163.238 28.5013 163.264C30.0273 163.852 31.4596 163.181 32.9232 162.954C33.1055 162.923 33.4076 162.845 33.4336 162.737C33.5742 162.163 33.8398 162.401 34.1159 162.587C34.7826 163.036 35.4232 163.067 36.0378 162.478C36.2305 162.293 36.418 162.236 36.7305 162.308C37.5273 162.489 38.1888 162.256 38.6107 161.29C38.9544 162.184 39.5013 162.055 40.0378 161.833C40.4961 161.642 40.944 161.693 41.1784 162.07C41.4544 162.52 41.7513 163.088 41.6888 163.563C41.6315 164.007 40.9596 164.178 40.4909 164.204C37.944 164.348 35.4336 164.906 32.8659 164.792Z" fill="#08BA9C"/>
</g>
</svg>
