<svg width="85" height="96" viewBox="0 0 85 96" fill="none" xmlns="http://www.w3.org/2000/svg">
<mask id="mask0_325_492" style="mask-type:luminance" maskUnits="userSpaceOnUse" x="0" y="0" width="85" height="96">
<path d="M0 0H84.1188V96H0V0Z" fill="white"/>
</mask>
<g mask="url(#mask0_325_492)">
<path d="M33.298 12.1899C33.3212 12.3725 33.2487 12.5652 33.2458 12.7536C33.2371 13.2797 33.5994 13.6377 33.898 13.9928C34.1284 14.2681 34.4791 14.4449 34.7835 14.6536C35.1052 14.8739 35.4386 15.0739 35.7603 15.2928C36.0299 15.4754 36.269 15.7203 36.5603 15.8565C37.4342 16.2667 38.2632 16.7884 39.2284 16.9884C39.4183 17.029 39.6125 17.0652 39.7922 17.1348C40.2502 17.3145 40.6907 17.542 41.1574 17.6913C41.5994 17.8319 42.0661 17.8913 42.5212 17.9942C42.6922 18.0333 42.856 18.1116 43.0284 18.1377C43.3473 18.1841 43.6806 18.3797 43.9009 18.1493C44.0791 18.2565 44.3154 18.442 44.3473 18.4116C44.5371 18.2319 44.6415 18.4348 44.782 18.4565C44.9371 18.4812 45.0994 18.4652 45.2574 18.4681C45.2965 18.4681 45.3357 18.471 45.3719 18.4797C45.8284 18.5812 46.2835 18.6855 46.7386 18.7884C46.7371 18.7522 46.7357 18.7174 46.7328 18.6812C46.8023 18.6 46.8704 18.5174 46.94 18.4362C46.9342 18.742 46.9705 18.7623 47.2429 18.7986C47.7516 18.8652 48.2791 18.7043 48.7733 18.9348C48.9951 19.0391 49.2371 19.0014 49.4545 18.9681C49.8096 18.9145 50.211 19.1014 50.5197 18.7826C50.5212 18.7812 50.5487 18.8145 50.5676 18.8188C50.7632 18.8638 50.9618 18.9058 51.1589 18.9493C51.1386 18.9145 51.1183 18.8797 51.098 18.8449C51.2429 18.6783 51.3618 18.4174 51.5415 18.3652C51.8429 18.2768 52.1849 18.3217 52.5096 18.3101C52.4893 18.2565 52.469 18.2029 52.4502 18.1493C52.5125 18.1014 52.6197 18.0014 52.6313 18.0116C52.8429 18.1942 53.0458 18.0942 53.2603 18.0232C53.5936 17.9145 53.9284 17.8015 54.2705 17.7246C54.5733 17.6565 54.6922 17.3261 55.0328 17.2783C55.269 17.2449 55.4806 17.0101 55.6951 16.8551C55.9386 16.6797 56.2371 16.5362 56.398 16.3015C56.8009 15.7174 57.1545 15.0986 57.4965 14.4783C57.7444 14.029 57.9603 13.5609 58.1545 13.0884C58.34 12.6391 58.4922 12.1754 58.6342 11.7101C58.7342 11.3768 58.8096 11.0333 58.8676 10.6899C58.9386 10.2609 58.9574 9.82174 59.0415 9.39565C59.0936 9.12899 59.0357 8.94638 58.8154 8.83913C58.8835 8.68406 59.0197 8.52609 58.9835 8.43044C58.856 8.08406 59.0676 7.80145 59.1096 7.49275C59.1487 7.2029 59.0357 6.83333 58.769 6.66957C58.6791 6.61304 58.5893 6.55797 58.5197 6.51594C58.5458 6.32029 58.6183 6.13768 58.5777 5.98406C58.54 5.83623 58.3849 5.71884 58.2618 5.56377C58.2139 5.55652 58.0313 5.54638 58.0299 5.52464C58.011 5.24058 57.6864 5.11304 57.6444 4.95797C57.5386 4.55797 57.1922 4.47101 56.9603 4.26087C56.5762 3.91304 56.0719 3.6913 55.7183 3.32029C55.2023 2.77971 54.5357 2.51159 53.927 2.13768C53.8878 2.11304 53.8241 2.12899 53.7719 2.12754C53.369 2.11739 52.9647 2.13043 52.5661 2.08841C52.2603 2.05652 51.9734 1.77681 51.6342 2.08261C51.5357 1.43044 50.9907 1.45507 50.5777 1.30145C50.4734 1.26232 50.3328 1.31739 50.2487 1.32609C50.0589 1.19855 49.9009 1.03623 49.711 0.978261C49.4081 0.885507 49.0328 0.944928 48.782 0.788406C48.4574 0.585507 48.2168 0.630435 47.9342 0.792754C47.9241 0.798551 47.9009 0.782609 47.8835 0.775362C47.898 0.717391 47.9139 0.65942 47.9371 0.569565C47.6386 0.569565 47.3647 0.569565 47.0676 0.569565C47.0647 0.550725 47.0516 0.453623 47.0313 0.313043C46.882 0.382609 46.7589 0.44058 46.6371 0.498551C46.6328 0.465217 46.6284 0.431884 46.6241 0.398551C46.5226 0.391304 46.4212 0.395652 46.3226 0.376812C45.9168 0.301449 45.511 0.15942 45.1052 0.16087C44.8284 0.16087 44.5922 0.14058 44.3632 0C44.34 0 44.3183 0 44.2951 0C44.098 0.210145 43.9299 0.618841 43.6255 0.0869565C43.6009 0.0434781 43.4516 0.0507249 43.3661 0.0666667C43.0487 0.124638 42.7342 0.194203 42.4052 0.262319C42.3878 0.228985 42.3473 0.152174 42.3023 0.0681159C42.2487 0.102899 42.211 0.150725 42.1748 0.149275C41.9473 0.143478 41.7357 0.152174 41.6212 0.402899C41.6125 0.421739 41.4661 0.376811 41.3835 0.362319C41.4081 0.3 41.4328 0.237681 41.469 0.146377C41.0806 0.252174 40.6139 0.111594 40.4081 0.652174C40.0589 0.397101 39.7154 0.2 39.4762 0.657971C39.3255 0.613044 39.1922 0.521739 39.1081 0.555072C38.6473 0.736232 38.0719 0.649275 37.7328 1.12319C37.7081 1.15507 37.6589 1.18696 37.6212 1.18841C37.1415 1.21015 36.8429 1.57246 36.4777 1.80145C36.298 1.91449 36.156 2.09855 36.0154 2.26667C35.3313 3.07971 34.4733 3.75217 33.9835 4.72174C33.8531 4.97971 33.7226 5.26232 33.7009 5.54203C33.656 6.09855 33.6878 6.66232 33.6878 7.23623C33.7255 7.24493 33.8081 7.26377 33.9516 7.2971C33.8052 7.38551 33.7168 7.43913 33.6168 7.49855C33.8081 8.08986 33.3125 8.61449 33.4965 9.19565C33.1183 9.62609 33.3444 10.1899 33.1719 10.6696C33.1081 10.8478 33.0893 11.058 33.1125 11.2464C33.1516 11.5638 33.2589 11.8725 33.298 12.1899ZM39.8791 12.1812C39.8661 12.2145 39.7487 12.2101 39.74 12.2391C39.7197 12.3116 39.7023 12.4333 39.74 12.4652C39.8647 12.5681 39.8777 12.6667 39.7429 12.7797C39.7183 12.8 39.6835 12.8275 39.682 12.8536C39.6675 13.1406 39.6618 13.4275 39.6458 13.713C39.6357 13.8928 39.6125 14.071 39.5878 14.342C39.4255 14.2101 39.3458 14.1333 39.2545 14.0739C39.1661 14.0159 39.0212 13.9101 38.9748 13.9391C38.5168 14.2377 38.582 13.571 38.2907 13.5812C38.3052 13.5203 38.3197 13.4609 38.3255 13.4348C38.4531 13.4594 38.5574 13.4797 38.6618 13.4986C38.6487 13.3855 38.6473 13.2696 38.6197 13.1594C38.5632 12.929 38.2168 12.6754 38.6907 12.4971C38.7197 12.4855 38.7458 12.3696 38.7328 12.3609C38.6545 12.3058 38.5632 12.2681 38.469 12.2203C38.9299 11.9536 38.6618 11.4464 38.8574 11.0667C38.727 11.0435 38.6125 11.0217 38.4922 10.9986C38.4777 10.7174 38.4647 10.4377 38.4487 10.0942C38.5951 10.1348 38.7618 10.158 38.9067 10.2232C39.2139 10.3623 39.5125 10.5232 39.811 10.6797C39.8545 10.7014 39.898 10.7478 39.9154 10.7928C40.0965 11.2594 40.0589 11.7246 39.8791 12.1812ZM48.3473 12.8246C48.2328 12.9609 48.0589 13.0667 48.2023 13.3058C48.2516 13.387 48.1762 13.5507 48.1444 13.6739C48.1139 13.7942 48.0661 13.9101 48.0197 14.0435C48.1328 14.0507 48.1965 14.0551 48.2719 14.0609C48.2719 14.1957 48.2719 14.3232 48.2719 14.4783C47.94 14.3377 47.9241 14.5014 47.9864 14.7638C48.0965 15.229 47.8661 15.6507 47.8154 16.2015C47.6965 16.0449 47.6328 15.9609 47.5661 15.8739C47.2313 16.0565 46.4023 15.987 46.2183 15.7333C46.0806 15.8667 45.9415 16 45.7661 16.1681C45.7574 15.7507 45.511 15.4739 45.3647 15.6261C45.2733 15.7232 45.2762 15.7203 45.1632 15.6725C44.9081 15.5638 44.6357 15.4942 44.3661 15.4217C44.298 15.4043 44.2168 15.4391 44.1415 15.4435C43.8965 15.4609 43.6603 15.5159 43.4371 15.3029C43.3502 15.2217 43.1197 15.2899 42.9531 15.2899C42.9415 15.3667 42.9299 15.4348 42.9197 15.5029C42.898 15.5072 42.8762 15.5116 42.8545 15.5159C42.8081 15.3565 42.7603 15.1957 42.7357 15.1116C42.4835 15.0681 42.2661 15.0565 42.0704 14.9884C41.8704 14.9174 41.6893 14.7884 41.4589 14.6638C42.0067 14.229 42.0284 13.7928 41.4081 13.3638C41.4705 13.3783 41.5342 13.4 41.598 13.4015C41.6632 13.4029 41.7284 13.3841 41.8197 13.3406C41.4313 13.1957 41.456 12.9536 41.5762 12.6623C41.6197 12.5594 41.598 12.429 41.6009 12.3101C41.6023 12.2783 41.5676 12.2261 41.5791 12.2159C41.8545 11.9464 41.5473 11.6246 41.6618 11.3391C42.0835 11.3029 42.4458 11.4116 42.8502 11.5855C43.4168 11.8275 44.069 11.8725 44.6878 11.9884C45.156 12.0768 45.6255 12.158 46.0965 12.2174C46.5125 12.2696 46.9371 12.2638 47.3531 12.3246C47.74 12.3812 48.1212 12.4913 48.5864 12.5957C48.4806 12.6957 48.4067 12.7536 48.3473 12.8246ZM52.0125 13.1855C51.9067 13.2435 51.8125 13.4797 52.1487 13.5754C52.0458 13.6246 51.9429 13.6725 51.84 13.7203C51.9342 13.8855 52.04 14.0696 52.1458 14.2536C52.1139 14.2739 52.082 14.2942 52.0502 14.3145C52.0139 14.2609 51.9762 14.2058 51.8951 14.0841C51.8516 14.2449 51.8183 14.3464 51.7965 14.4507C51.7791 14.5348 51.7849 14.6232 51.7632 14.7043C51.7473 14.7623 51.6618 14.8435 51.6777 14.8623C51.9212 15.1913 51.5835 15.4681 51.6023 15.7783C51.6125 15.9449 51.2748 16.1609 51.0545 16.2087C50.9994 16.2203 50.9719 16.3522 50.9284 16.4319C50.6038 16.0739 50.3545 16.0681 50.0574 16.3015C49.9835 16.3594 49.827 16.313 49.7096 16.313C49.7386 16.2333 49.7676 16.1536 49.798 16.0739C49.8531 15.9246 49.9197 15.7783 49.9618 15.6246C49.9994 15.4841 50.1458 15.3203 49.9154 15.1942C49.9081 15.1899 50.0023 14.9986 50.069 14.8478C49.9951 14.8348 49.898 14.8174 49.782 14.7971C49.8125 14.6116 49.5893 14.3159 49.8907 14.1304C50.1864 13.6507 49.9212 13.1188 50.0125 12.6377C50.7197 12.5812 51.3907 12.529 52.1226 12.4696C52.3255 12.7087 52.4299 12.9551 52.0125 13.1855ZM56.9502 11.2072C56.8444 11.4507 56.74 11.6319 56.6849 11.8261C56.5255 12.3928 56.3835 12.9638 56.2386 13.5333C56.2154 13.629 56.227 13.7348 56.2023 13.829C56.069 14.3203 55.7574 14.6333 55.2589 14.7551C55.2052 14.7681 55.1502 14.7884 55.1038 14.8188C54.9444 14.9217 53.8951 15.3 53.6965 15.3159C53.669 15.3174 53.64 15.287 53.6023 15.2667C53.7531 15.0406 53.7994 14.8348 53.6241 14.5797C53.5067 14.4101 53.4878 14.171 53.4183 13.942C53.5429 13.942 53.6473 13.942 53.6516 13.942C53.7299 13.7391 53.8023 13.5928 53.8371 13.4391C53.8603 13.3377 53.8502 13.2174 53.8154 13.1203C53.8009 13.0812 53.6589 13.1043 53.6081 13.0609C53.5444 13.0058 53.5139 12.9116 53.4444 12.7913C53.9342 12.7609 53.7849 12.487 53.7415 12.2159C54.4444 11.9681 55.1531 11.7188 55.8719 11.4667C55.8603 11.442 55.8849 11.4957 55.9125 11.5565C56.382 11.0739 56.7878 10.9812 56.9502 11.2072ZM36.8038 4.14203C37.0415 4.02174 37.2878 3.92029 37.5386 3.82899C37.6487 3.78841 37.7791 3.8029 37.8936 3.77101C38.0328 3.73188 38.1647 3.66812 38.2994 3.61594C38.8994 3.67391 39.4632 3.5 40.0313 3.35797C40.1473 3.32899 40.2705 3.32899 40.3907 3.32174C41.1618 3.26957 41.9357 3.15217 42.7009 3.1971C43.1313 3.22319 43.5502 3.05362 44.0023 3.22174C44.3415 3.34783 44.7618 3.25072 45.1429 3.27536C45.4719 3.29565 45.7994 3.34203 46.1241 3.38986C46.511 3.44638 46.8951 3.51449 47.2806 3.57971C47.698 3.65217 48.1139 3.76812 48.5342 3.79275C49.1052 3.82754 49.6023 4.11884 50.1719 4.18551C50.7647 4.25507 51.3458 4.48116 51.9125 4.68986C52.4705 4.89565 53.0154 5.14348 53.5473 5.41159C53.8444 5.56087 54.098 5.7942 54.3791 5.97826C54.6023 6.12319 54.8618 6.22174 55.0618 6.3913C55.4342 6.7058 55.7922 7.04348 56.1255 7.4C56.3647 7.65652 56.5603 7.95362 56.7647 8.23913C56.8777 8.39855 56.7516 8.56522 56.5226 8.62609C56.3197 8.67971 56.1284 8.77246 55.882 8.86667C55.6994 8.73478 55.0284 8.93188 54.2299 9.42464C54.1023 9.14638 53.8675 9.12174 53.6023 9.35942C53.3777 9.55942 53.3777 9.55942 53.2328 9.27826C52.8183 9.38261 52.3994 9.48696 51.9603 9.59565C51.9922 9.52319 52.011 9.48406 52.0284 9.44638C51.8487 9.46232 51.669 9.46522 51.4951 9.49855C51.3458 9.52609 51.2038 9.58696 51.0357 9.64058C51.0342 9.63768 51.0067 9.55942 50.9676 9.44783C50.8096 9.49275 50.6487 9.53913 50.4661 9.58986C50.2661 9.34493 49.9531 9.35942 49.5386 9.6971C49.498 9.57971 49.4589 9.47391 49.4139 9.34638C49.3284 9.4 49.2458 9.45362 49.1618 9.5058C49.1038 9.44928 49.0487 9.35217 48.9878 9.34783C48.656 9.32029 48.3183 9.33768 47.9893 9.2971C47.6255 9.25362 47.2705 9.15507 46.9081 9.0942C46.6284 9.04783 46.3444 9.02319 46.0618 8.98986C45.7762 8.95652 45.4907 8.92029 45.2038 8.8971C45.1125 8.88986 45.0183 8.92319 44.9241 8.93333C44.7965 8.94928 44.6139 9.0971 44.6067 8.80145C44.6052 8.77536 44.4936 8.74493 44.4299 8.72899C43.9907 8.61884 43.5516 8.4942 43.1067 8.4087C42.8951 8.36812 42.6676 8.40145 42.4661 8.35652C42.2936 8.31015 42.1226 8.26232 41.9502 8.21884C41.5864 8.12899 41.2067 8.14348 40.8748 7.88551C40.6371 7.7 40.269 7.68261 40.027 7.5C39.6893 7.24348 39.2951 7.08841 38.9733 6.79275C38.6386 6.48406 38.2052 6.28406 37.8212 6.02609C37.7733 5.9942 37.7733 5.8971 37.7299 5.84928C37.7009 5.81739 37.6357 5.81884 37.5531 5.79565C37.2965 5.5087 36.9878 5.18261 36.7038 4.83623C36.6052 4.71449 36.5255 4.54203 36.5255 4.39275C36.5255 4.30725 36.6907 4.19855 36.8038 4.14203ZM35.4777 8.82319C35.4328 8.47681 35.5516 8.18841 35.6081 7.80435C36.2589 8.32464 36.8835 8.82609 37.498 9.31884C37.3516 9.45362 37.1589 9.55942 37.082 9.72029C36.969 9.96232 37.0125 10.2638 36.8168 10.4884C36.7733 10.5391 36.769 10.6391 36.7777 10.7116C36.7907 10.8275 36.8023 10.9609 36.8661 11.0493C36.9429 11.1551 37.0762 11.2217 37.1878 11.3072C37.0444 11.4362 36.8574 11.529 36.8139 11.6681C36.7849 11.7565 36.9661 11.913 37.0589 12.0449C36.9154 12.0841 36.7632 12.0986 36.7589 12.1319C36.7357 12.3174 36.7473 12.5072 36.7473 12.7449C36.5371 12.6058 36.2849 12.4464 36.0386 12.2768C35.8661 12.158 35.727 11.9797 35.4791 12.0029C35.4661 12.0029 35.4226 11.8232 35.4197 11.7261C35.4183 11.6565 35.4806 11.5841 35.4791 11.5145C35.4618 11.0507 35.4154 10.587 35.4168 10.1246C35.4197 9.68985 35.5342 9.24638 35.4777 8.82319ZM83.7067 65.3348C84.0951 65.0536 84.2081 64.5841 84.0415 64.2652C83.8618 63.9232 84.0719 63.6478 83.9777 63.3551C83.9241 63.1913 83.9067 63.0159 83.8719 62.8449C83.8487 62.8478 83.8241 62.8493 83.8009 62.8522C83.8009 62.6638 83.8009 62.4739 83.8009 62.2667C83.7603 62.2522 83.6777 62.2232 83.6748 62.2232C83.7139 62.0043 83.7429 61.8377 83.7719 61.6812C83.6342 61.7362 83.5487 61.771 83.4632 61.8044C83.4589 61.7174 83.4473 61.6319 83.4502 61.5449C83.4531 61.4362 83.4676 61.3261 83.4705 61.2928C83.282 61.1522 83.0125 60.9957 83.0284 60.9536C83.1893 60.5478 82.8009 60.4942 82.7081 60.3551C82.5386 60.342 82.3806 60.3725 82.3458 60.3203C82.1371 60.0101 82.1473 60.0116 81.7806 60.0754C81.6748 60.0942 81.5487 60.0812 81.4502 60.042C81.3618 60.0072 81.298 59.9145 81.2241 59.8464C81.2241 59.9565 81.2255 60.0652 81.2212 60.1754C81.2212 60.1855 81.1864 60.1942 81.1429 60.2159C81.0922 60.1333 81.0415 60.0493 80.982 59.9493C80.8951 60.0319 80.8299 60.0942 80.7255 60.1928C80.7255 60.0565 80.7255 59.9768 80.7255 59.9203C80.6197 59.9275 80.5038 59.9725 80.4502 59.9348C80.1704 59.7304 80.2168 59.9826 80.1806 60.1174C79.9965 60.1884 79.8734 59.913 79.6762 60.0391C79.5936 60.0913 79.4806 60.0899 79.3907 60.1304C79.3096 60.1667 79.2473 60.2478 79.1661 60.2725C79.0197 60.3188 78.8647 60.3377 78.7226 60.3652C78.5081 60.1159 78.6444 59.9072 78.8139 59.7391C79.1444 59.4159 79.5183 59.1362 79.8342 58.8C80.2212 58.3913 80.6038 57.9696 80.9212 57.5058C81.369 56.8507 81.798 56.1739 82.1545 55.4652C82.4922 54.7957 82.7328 54.0768 82.9951 53.3725C83.0458 53.2391 82.9734 53.0638 83.0038 52.9174C83.04 52.7391 83.1255 52.571 83.1893 52.3971C83.1618 52.4044 83.1328 52.4101 83.1052 52.4159C83.0661 52.3449 82.9951 52.2725 82.9965 52.2015C82.9994 52.0478 83.0574 51.8942 83.0574 51.7406C83.0574 51.4826 83.0357 51.2246 83.011 50.9667C82.982 50.6783 83.0168 50.3478 82.8864 50.113C82.7473 49.8638 82.6502 49.671 82.7589 49.3957C82.7762 49.3493 82.6719 49.2145 82.5994 49.187C82.5357 49.1623 82.4154 49.2087 82.3603 49.2638C82.3168 49.3058 82.3342 49.4101 82.3241 49.487C82.2748 49.4391 82.2241 49.3928 82.1733 49.3464C82.256 49.1 82.3371 48.8536 82.4255 48.5884C82.1922 48.5464 82.0139 48.458 82.14 48.1638C82.1502 48.1391 82.04 48.0203 81.9806 48.0159C81.7632 47.9971 81.5429 48.0072 81.3023 48.0072C81.2502 47.8406 81.2502 47.8406 80.4545 47.6246C80.4342 47.5522 80.4154 47.4812 80.3965 47.413C80.1197 47.413 79.8603 47.3957 79.6038 47.4188C79.427 47.4333 79.2545 47.5072 79.0777 47.5435C78.9676 47.5652 78.8429 47.542 78.7415 47.5826C78.3589 47.7319 77.9777 47.8913 77.6023 48.0638C76.9458 48.3652 76.2893 48.671 75.64 48.9884C75.2936 49.1565 74.9603 49.3522 74.6212 49.5348C74.6023 49.513 74.5835 49.4899 74.5632 49.4681C74.6154 49.3609 74.6531 49.2435 74.7197 49.1478C74.9357 48.8348 75.2023 48.5522 75.3748 48.2188C75.8052 47.3884 76.1965 46.5362 76.5994 45.6913C76.6603 45.5623 76.727 45.4275 76.7444 45.2884C76.7864 44.9739 76.7328 44.6333 76.8371 44.3449C76.9936 43.9101 76.9835 43.5565 76.6516 43.2203C76.6081 43.1768 76.6081 43.058 76.6284 42.9855C76.8676 42.1246 76.4791 41.4145 75.9965 40.7913C75.682 40.3884 75.1965 40.1101 74.7647 39.8072C74.4603 39.5942 74.127 39.3855 73.7226 39.6203C73.6864 39.642 73.5647 39.6015 73.5487 39.5623C73.4139 39.2174 73.1835 39.2609 72.9168 39.3783C72.8154 39.4217 72.6965 39.4217 72.5951 39.4638C71.9806 39.7188 71.3676 39.9797 70.7444 40.2435C70.6458 40.0029 70.4516 40.1594 70.2835 40.2493C70.0661 40.3667 69.8676 40.5174 69.6487 40.6319C69.5342 40.6913 69.3951 40.7 69.2415 40.7391C69.027 40.5275 68.8458 40.7275 68.6545 40.8667C68.54 40.9493 68.427 41.0348 68.3067 41.1087C68.2183 41.1638 68.1197 41.2029 67.9994 41.2638C67.9705 41.2261 67.9183 41.1594 67.8676 41.0942C67.411 41.4 66.7299 41.2754 66.4618 41.9855C66.4009 41.8087 66.3763 41.7333 66.3299 41.5957C66.1357 41.942 65.8864 42.1435 65.4994 42.0101C65.4907 42.0072 65.4762 42.013 65.4661 42.0174C65.1994 42.129 64.9328 42.2435 64.6646 42.3536C64.4183 42.4536 64.1647 42.5406 63.9197 42.6464C63.7791 42.7072 63.6052 42.7638 63.5255 42.8768C63.369 43.0986 63.1676 43.1507 62.9241 43.1739C62.6618 43.1986 62.4444 43.2942 62.4516 43.513C62.1531 43.6348 61.8704 43.7029 61.6444 43.8536C61.4023 44.0174 61.2139 44.2594 60.9545 44.5145C60.9676 44.2942 60.9748 44.1812 60.9835 44.0478C60.856 44.1638 60.74 44.3406 60.6676 44.3232C60.269 44.2348 60.0719 44.6101 59.7473 44.7029C59.5589 44.7565 59.398 44.9725 59.1371 45.0246C58.9023 45.0725 58.698 45.2652 58.4777 45.3899C58.3444 45.4652 58.2096 45.5348 58.0748 45.6072C58.0052 45.6565 57.9052 45.6725 57.8255 45.7217C57.5038 45.9217 57.2125 46.2261 56.8647 46.3174C56.3226 46.4594 55.9893 46.9536 55.4168 47.0406C55.1632 47.0797 54.9487 47.3507 54.7096 47.5072C54.5386 47.6203 54.3487 47.8145 54.1806 47.8015C53.8038 47.7725 53.6081 47.9609 53.3849 48.2029C53.2705 48.3275 53.0618 48.3623 52.9009 48.4478C52.6806 48.5638 52.4647 48.6899 52.2473 48.8101C51.9791 48.958 51.7241 49.1536 51.4371 49.2377C51.0081 49.3638 50.7081 49.6333 50.4806 49.9783C50.2313 50.3565 49.9936 50.4507 49.6038 50.2464C49.54 50.213 49.4458 50.2246 49.3704 50.2377C48.9212 50.3087 48.6762 50.8377 48.1589 50.7812C48.0951 50.7739 48.0125 50.9174 47.9415 50.9928C47.9096 51.0275 47.8907 51.0957 47.856 51.1029C47.6052 51.1536 47.3444 51.1652 47.1038 51.2449C46.9444 51.2971 46.5878 51.1797 46.7226 51.5986C46.5284 51.4565 46.4241 51.4942 46.327 51.6942C46.2806 51.7884 46.1313 51.8319 45.9676 51.9362C46.04 51.7043 46.0806 51.5739 46.1212 51.4435C46.0864 51.4232 46.0502 51.4029 46.0139 51.3841C45.8965 51.4942 45.7791 51.6058 45.64 51.7377C45.5835 51.7101 45.4878 51.6638 45.411 51.6261C45.1415 51.7 45.0791 52.1594 44.669 51.9899C44.7791 51.842 44.8632 51.729 44.9676 51.587C44.7936 51.5768 44.6994 51.571 44.6052 51.5652C44.6197 51.587 44.6342 51.6087 44.6487 51.6304C44.5139 51.7406 44.3791 51.8507 44.2241 51.9768C44.1864 51.8638 44.1647 51.7986 44.1357 51.7116C44.0791 51.7551 44.0458 51.7841 44.0096 51.8072C43.9705 51.8319 43.927 51.8522 43.8864 51.8739C43.8618 51.8536 43.8357 51.8333 43.8096 51.813C45.2226 49.7435 46.627 47.671 47.4342 45.242C47.2748 45.242 47.1791 45.242 47.0661 45.242C47.1168 45.1493 47.1762 45.0768 47.198 44.9942C47.2777 44.6884 47.4139 44.3768 47.398 44.0739C47.3762 43.6812 47.1936 43.2942 47.5183 42.9435C47.5429 42.9174 47.5299 42.8565 47.5342 42.7957C47.3733 42.8565 47.2342 42.9087 47.0241 42.987C47.3951 42.3464 47.2081 41.8145 47.0444 41.2667C46.9009 41.3319 46.8023 41.3768 46.7023 41.4232C46.6777 41.4015 46.6545 41.3812 46.6299 41.3594C46.6994 41.1507 46.769 40.942 46.84 40.7333C46.7936 40.7072 46.6835 40.6449 46.5719 40.5841C46.4719 40.6 46.3415 40.6217 46.1603 40.6507C46.3255 40.4739 46.4415 40.3493 46.5531 40.229C46.4487 40.1638 46.3255 40.1319 46.2849 40.0551C46.1415 39.7797 45.9168 39.7087 45.6386 39.7522C45.4052 39.7884 45.3197 39.6928 45.3661 39.3783C45.2878 39.542 45.2502 39.6188 45.2212 39.6783C45.1531 39.5855 45.0922 39.4406 45.0371 39.4435C44.9226 39.4478 44.811 39.5333 44.6965 39.5812C44.5676 39.6333 44.4357 39.6812 44.3052 39.7304C44.298 39.7058 44.2907 39.6812 44.2835 39.6565C44.3313 39.5971 44.3806 39.5362 44.4081 39.5029C44.0052 39.5029 43.6023 39.471 43.2067 39.5101C42.5531 39.5725 41.9023 39.6652 41.256 39.7797C41.0676 39.813 40.8994 39.9623 40.6762 40.0826C40.6589 40.0754 40.5502 40.013 40.4357 39.9942C40.4067 39.9884 40.3545 40.129 40.3183 40.1971C40.1212 39.9971 39.5531 40.142 39.2647 40.4812C39.2067 40.4507 39.14 40.3841 39.1038 40.3986C38.8038 40.5087 38.5081 40.6304 38.2154 40.7565C38.0589 40.8246 37.9139 40.9174 37.756 40.9812C37.4516 41.1015 37.1357 41.1928 36.8371 41.3261C36.311 41.5609 35.7907 41.8116 35.2762 42.0696C35.1284 42.1435 35.0096 42.271 34.8719 42.3667C34.8125 42.4087 34.7299 42.4681 34.6748 42.4551C34.4052 42.3899 34.256 42.5072 34.1458 42.7377C34.1226 42.787 34.0299 42.8174 33.9647 42.8319C33.8762 42.8507 33.7705 42.8203 33.6922 42.8565C33.5226 42.9362 33.3719 43.0594 33.2009 43.1377C32.8183 43.313 32.4299 43.4681 32.0444 43.6362C31.9965 43.658 31.9603 43.7087 31.9154 43.742C31.6067 43.9739 31.3096 44.2275 30.982 44.4319C30.5907 44.6768 30.1603 44.8623 29.7704 45.1101C29.5052 45.2768 29.2922 45.5232 29.0357 45.7072C28.6444 45.9884 28.2328 46.2435 27.8328 46.5159C27.5197 46.729 27.2125 46.9507 26.9009 47.1667C26.6342 47.3522 26.3487 47.5145 26.1038 47.7246C25.3371 48.3855 24.5806 49.0609 23.8284 49.7377C23.3661 50.1522 22.9038 50.5681 22.4676 51.0072C21.6212 51.8623 20.7878 52.729 19.9589 53.6C19.5096 54.0725 19.0676 54.5536 18.6444 55.0493C18.3009 55.4507 17.9893 55.8812 17.6618 56.2971C17.5603 56.4246 17.456 56.5493 17.2922 56.3377C17.3675 56.2362 17.44 56.1377 17.5197 56.029C17.098 55.9652 16.7197 55.9072 16.4154 55.8609C16.2371 56.0058 16.0835 56.129 15.8675 56.3029C15.8893 56.0855 15.9038 55.9377 15.9168 55.8145C15.7994 55.7638 15.6762 55.7116 15.5676 55.6652C15.4574 55.742 15.3473 55.8174 15.2371 55.8942C15.2139 55.8652 15.1907 55.8362 15.1676 55.8072C15.2255 55.6986 15.2849 55.5913 15.3531 55.4652C14.9618 55.2986 14.727 55.5667 14.4299 55.8101C14.4299 55.6087 14.4299 55.4971 14.4299 55.3319C14.256 55.3725 14.1052 55.4072 13.9139 55.4522C13.7313 55.3246 13.3864 55.429 13.2806 55.6696C13.2444 55.7551 13.1386 55.8609 13.0574 55.8667C12.7936 55.8855 12.5241 55.829 12.2661 55.8638C11.9951 55.9 11.8197 56.1681 11.4849 56.1507C11.1835 56.1362 10.8893 56.4029 10.5473 56.2725C10.5038 56.2565 10.4328 56.2797 10.3864 56.3058C10.0038 56.5246 9.62697 56.758 9.23856 56.9681C9.09364 57.0449 8.90958 57.0464 8.76175 57.1188C8.31827 57.3362 7.88929 57.587 7.44291 57.7942C6.94001 58.0275 6.42262 58.2304 5.91103 58.4449C5.59798 58.5754 5.3603 58.7797 5.24146 59.1522C5.17769 59.0159 5.12552 58.9072 5.08204 58.813C4.6603 59.0043 4.22117 59.1464 3.84436 59.387C3.29364 59.7391 2.75306 60.1232 2.27335 60.5652C1.72117 61.0754 1.23132 61.6565 0.731318 62.2232C0.582042 62.3913 0.30668 62.6044 0.721173 62.8681C0.625521 62.8841 0.531317 62.8986 0.395086 62.9203C0.222622 63.2609 0.0095782 63.6754 0.499433 64.0507C0.112477 64.2638 0.0646508 64.6072 0.555955 65.2493C0.613926 65.1783 0.66755 65.1116 0.721173 65.0449C0.753057 65.0623 0.784941 65.0797 0.815376 65.0971C0.764651 65.1913 0.722622 65.2957 0.657405 65.3797C0.453057 65.6435 0.542912 65.9768 0.848709 66.0464C0.890738 66.0551 0.938564 66.0304 1.01248 66.0145C0.963202 66.1174 0.932766 66.1826 0.903781 66.242C1.0603 66.3435 1.20233 66.4362 1.37625 66.5507C1.27625 66.6116 1.20958 66.6522 1.1574 66.6841C1.21683 66.8102 1.26755 66.9145 1.31682 67.0188C1.38204 67.0014 1.44871 66.9841 1.51538 66.9652C1.52842 67.0174 1.54001 67.0696 1.55161 67.1203C1.49219 67.1304 1.43132 67.1391 1.35306 67.1493C1.44581 67.4101 1.44436 67.7565 1.87335 67.5841C1.82552 67.7594 1.78349 67.9159 1.73277 68.0971C1.77769 68.1261 1.84871 68.1725 1.91972 68.2174C1.83856 68.5739 1.8632 68.9015 2.15016 69.1841C2.1719 69.1014 2.18784 69.0435 2.20378 68.9855C2.31682 69.0696 2.43132 69.1536 2.54436 69.2362C2.50088 69.2203 2.45596 69.2044 2.41103 69.187C2.32552 69.3015 2.23856 69.4174 2.20088 69.4652C2.34871 69.9116 2.43277 70.2551 2.5748 70.571C2.70958 70.871 2.90523 71.1449 3.05306 71.3957C3.04001 71.3942 2.97335 71.3884 2.89654 71.3812C2.93567 71.5304 2.94581 71.6565 2.99943 71.7609C3.04871 71.8551 3.16175 72.0058 3.21827 71.9928C3.47914 71.9377 3.41248 72.0594 3.38639 72.2145C3.37045 72.3087 3.45885 72.4217 3.43856 72.5145C3.38639 72.7594 3.51393 72.9159 3.65885 73.0754C3.67769 73.0942 3.69074 73.1435 3.67914 73.1609C3.43567 73.5275 3.74291 73.7667 3.89943 74.0188C4.0574 74.271 4.29509 74.4739 4.26175 74.813C4.2574 74.8681 4.29219 74.9319 4.31972 74.9855C4.41393 75.1797 4.50668 75.3754 4.61538 75.5609C4.67625 75.6652 4.74871 75.8015 4.84726 75.8362C5.01972 75.8986 5.01972 75.8681 4.98204 76.013C4.9632 76.0913 4.96465 76.1913 4.99798 76.2638C5.07625 76.4348 5.17335 76.6 5.27914 76.758C5.32552 76.8275 5.40813 76.871 5.50813 76.9536C5.50813 76.8304 5.50813 76.7783 5.50813 76.6986C5.61103 76.7884 5.68639 76.8536 5.83567 76.9841C5.71827 77.0203 5.64581 77.042 5.58494 77.0609C5.70378 77.2203 5.80958 77.3188 5.86175 77.442C5.97335 77.7015 6.02987 77.9855 6.15885 78.2348C6.2748 78.4609 6.49509 78.6377 6.59798 78.8681C6.73856 79.1826 7.07335 79.3696 7.14001 79.7319C7.15016 79.787 7.30523 79.8174 7.33856 79.8333C7.3574 79.987 7.33856 80.1304 7.39509 80.2333C7.62842 80.6638 7.8748 81.087 8.13711 81.5C8.23422 81.6522 8.40233 81.8957 8.51103 81.8812C9.01393 81.8159 8.61538 82.0696 8.6603 82.1507C8.98494 82.9884 9.70378 83.5768 10.0357 84.413C10.1299 84.6507 10.269 84.8783 10.4226 85.0841C10.4965 85.1812 10.6531 85.2159 10.7429 85.2638C10.7487 85.3536 10.7255 85.4754 10.7661 85.5696C10.8487 85.7594 10.9545 85.942 11.0704 86.1145C11.5618 86.8478 12.0835 87.5638 12.5487 88.3145C12.7951 88.7102 12.9965 89.129 13.3733 89.4246C13.4038 89.4493 13.4154 89.4986 13.4371 89.5348C13.569 89.7478 13.6835 89.9768 13.84 90.1696C14.1226 90.5203 14.4371 90.8449 14.7284 91.1884C14.8168 91.2928 14.8661 91.4304 14.9516 91.5391C15.2154 91.8754 15.4849 92.2058 15.7589 92.5348C15.8618 92.658 16.0226 92.7478 16.0878 92.8855C16.3342 93.3986 16.5704 93.9044 17.2212 94.0014C17.2444 94.0043 17.2647 94.0304 17.2965 94.0536C17.211 94.0812 17.1473 94.1015 17.0139 94.1435C17.5762 94.5087 18.0806 94.8362 18.5849 95.1623C18.6212 95.1855 18.6676 95.1942 18.711 95.2015C19.1067 95.2609 19.5038 95.3188 19.7835 95.3594C19.9444 95.5072 20.0183 95.6275 20.1183 95.6565C20.3936 95.7377 20.6791 95.7971 20.9632 95.8319C21.1284 95.8507 21.3038 95.7783 21.4704 95.7928C21.8168 95.8246 22.1589 95.9174 22.5023 95.9246C22.6849 95.929 22.869 95.8044 23.0545 95.7449C23.0907 95.7333 23.1386 95.7493 23.1806 95.7594C23.4371 95.8174 23.8632 95.6087 23.9023 95.4913C24.2096 95.4203 24.4589 95.3696 24.7038 95.3015C24.8342 95.2652 24.956 95.2015 25.0009 95.1826C25.2444 95.0594 25.398 94.9507 25.5704 94.9C26.0386 94.7609 26.5531 94.7507 26.9371 94.387C26.9589 94.3667 27.0096 94.3507 27.0328 94.3623C27.2676 94.4797 27.4096 94.2667 27.598 94.2174C27.8357 94.1536 27.9676 93.9058 28.3052 93.9623C28.5313 94 28.8139 93.7044 29.1415 93.5188C29.3733 93.5884 29.8589 93.3594 29.9748 93.0536C30.111 93.0377 30.2589 93.0594 30.356 92.9986C30.6516 92.8159 30.927 92.6 31.2096 92.3986C31.0951 92.3638 30.9733 92.3275 30.7806 92.2681C31.0328 92.2449 31.2052 92.2551 31.3603 92.2087C31.7762 92.0826 31.9473 91.713 32.1284 91.3696C32.4618 90.7391 32.782 90.1015 33.1038 89.4652C33.1516 89.371 33.1791 89.2667 33.2255 89.1377C33.0878 89.1377 32.9994 89.1377 32.911 89.1377C33.1009 88.9551 33.2647 88.7739 33.456 88.6275C33.511 88.5841 33.6473 88.6203 33.7357 88.6507C33.8255 88.6812 33.911 88.8029 33.9791 88.7899C34.0806 88.7696 34.1647 88.6652 34.3096 88.558C34.3328 88.5652 34.4342 88.5957 34.5313 88.6232C34.4922 88.7 34.4603 88.7638 34.427 88.8275C34.4531 88.8536 34.4791 88.8783 34.5038 88.9029C34.598 88.8174 34.6922 88.7319 34.7516 88.6783C34.869 88.729 34.9893 88.8275 35.1038 88.8217C35.4603 88.8015 35.8038 88.7348 36.1762 88.7507C36.5371 88.7667 36.9357 88.6855 37.3212 88.6739C37.527 88.6681 37.74 88.5797 37.9328 88.6159C38.2415 88.6725 38.5081 88.6739 38.6994 88.4551C38.7733 88.5 38.8255 88.5594 38.8806 88.5609C39.1719 88.5681 39.4661 88.5826 39.7545 88.5551C40.1429 88.5188 40.5531 88.3377 40.9081 88.4188C41.3183 88.5145 41.5212 88.2029 41.7313 88.1754C41.8791 88.242 41.9429 88.2884 42.011 88.2986C42.1371 88.3174 42.2661 88.3217 42.3922 88.3203C42.5791 88.3188 42.8545 88.3826 42.9342 88.287C43.1777 87.9957 43.4647 88.2015 43.7212 88.1507C44.0183 88.0899 44.3733 88.2029 44.6284 88.0826C44.969 87.9217 45.3516 88.0087 45.6531 87.8391C46.111 87.5826 46.7168 87.9609 47.0994 87.4652C47.1096 87.4522 47.1429 87.458 47.1647 87.4565C47.4531 87.4261 47.7444 87.4116 48.0299 87.3638C48.3893 87.3058 48.7371 87.2188 49.082 87.0696C49.4183 86.9232 49.8168 86.9261 50.1835 86.842C50.2965 86.8159 50.3864 86.6797 50.4994 86.6565C50.9212 86.5739 51.3574 86.5493 51.7733 86.442C52.4183 86.2754 53.0733 86.1159 53.6386 85.7261C53.6878 85.6928 53.769 85.7087 53.8299 85.687C53.9415 85.6464 54.0502 85.5957 54.1676 85.5464C54.2458 85.8015 54.3835 85.6261 54.5023 85.558C54.5661 85.5232 54.611 85.4507 54.6762 85.4217C54.969 85.2942 55.3357 85.3928 55.5849 85.1478C55.7603 84.9754 55.9473 84.9493 56.1661 85.0174C56.1835 85.0232 56.2067 85.0087 56.2226 85.0043C56.2531 84.913 56.2835 84.8246 56.3154 84.7319C56.4734 84.7913 56.6023 84.8406 56.7226 84.887C56.7864 84.7536 56.8342 84.6551 56.8835 84.5551C57.2835 84.4246 57.7458 84.5725 58.0907 84.2536C58.1444 84.2044 58.2052 84.1478 58.2733 84.1275C58.7864 83.9768 59.3009 83.8594 59.7936 83.6174C60.5878 83.2261 61.4371 82.9507 62.2516 82.5986C62.6313 82.4348 63.0052 82.2391 63.3415 82C63.5849 81.8246 63.9415 81.8826 64.1154 81.5754C64.1618 81.4942 64.3038 81.4275 64.4038 81.4217C64.6878 81.4087 64.9081 81.2783 65.1226 81.1174C65.2806 80.9986 65.4473 80.8913 65.6719 80.7348C65.9328 80.787 66.9502 80.287 67.0226 80.0957C67.4994 79.871 67.8936 79.6855 68.2907 79.4986C68.2589 79.4362 68.2328 79.3884 68.2081 79.3391C68.2632 79.3319 68.3197 79.3145 68.3748 79.3174C68.456 79.3217 68.556 79.3768 68.6125 79.3464C69.0096 79.1275 69.3893 78.8797 69.7907 78.6696C70.1023 78.5058 70.4429 78.3986 70.7574 78.2391C70.9487 78.1435 71.1038 77.9783 71.2922 77.8783C71.4038 77.8188 71.6139 77.871 71.6661 77.7957C71.8661 77.5029 72.1864 77.487 72.4632 77.3623C72.6661 77.2696 72.8284 77.087 73.0429 76.9188C73.227 76.9899 73.4603 76.8768 73.582 76.629C73.6313 76.5319 73.8081 76.3884 73.8212 76.3986C74.098 76.6217 74.1632 76.3044 74.3096 76.2145C74.4502 76.129 74.5791 75.9536 74.7183 75.9493C75.0762 75.9377 75.3125 75.7275 75.5762 75.5449C75.7835 75.4015 76.0038 75.2797 76.2139 75.1435C76.3328 75.0667 76.4444 74.9783 76.5603 74.8942C76.6473 74.8348 76.782 74.8348 76.8835 74.7768C77.0994 74.6507 77.2951 74.4928 77.5023 74.3536C77.5936 74.2913 77.7284 74.2681 77.7864 74.187C77.9589 73.9464 78.1618 73.7652 78.4444 73.6696C78.5415 73.6362 78.6328 73.5609 78.7052 73.4841C78.8907 73.2841 79.0429 73.0449 79.2502 72.8725C79.5415 72.6275 79.9096 72.4652 80.1762 72.1986C80.669 71.7058 81.1545 71.1957 81.5632 70.6333C82.0647 69.9435 82.5241 69.2159 82.9299 68.4652C83.3328 67.7203 83.6516 66.929 83.9951 66.1522C84.0661 65.9913 84.1444 65.7884 84.1023 65.6391C84.0676 65.5159 83.8574 65.4435 83.7067 65.3348ZM74.9589 51.7681C75.3589 51.8986 75.5806 51.5855 75.8661 51.4638C75.9618 51.4232 76.0328 51.3246 76.1284 51.2797C76.7328 50.9957 77.3183 50.6275 77.956 50.4667C78.5067 50.3275 79.0342 50.0043 79.6473 50.1188C79.7864 50.1449 79.9458 50.0638 80.1125 50.029C80.5255 50.6594 80.7589 51.371 80.8009 52.1464C80.8299 52.6899 80.8226 53.2377 80.8922 53.7754C81.0632 55.0957 80.3777 56.0246 79.5067 56.858C79.0009 57.3435 78.4429 57.7754 77.8994 58.2188C77.6415 58.429 77.3618 58.6116 77.0893 58.8029C76.5487 59.1855 76.0125 59.5739 75.4632 59.942C74.8806 60.3333 74.2893 60.713 73.6936 61.0841C73.0067 61.5116 72.3081 61.9203 71.6183 62.3435C71.469 62.4348 71.3487 62.5812 71.1922 62.6565C70.94 62.7783 70.656 62.8362 70.4096 62.9667C69.9299 63.2217 69.469 63.5116 68.9951 63.7783C68.7386 63.9217 68.469 64.042 68.2125 64.1855C68.1197 64.2377 68.0487 64.3246 67.9676 64.3957C67.8023 64.5406 67.7574 64.7826 67.5255 64.887C67.4241 64.9319 67.3893 65.1116 67.3067 65.2174C67.2502 65.2899 67.169 65.3507 67.0878 65.3986C66.9618 65.4739 66.8284 65.5333 66.6197 65.6391C66.7415 65.3783 66.84 65.1681 66.9023 65.0362C66.7183 64.9044 66.5704 64.7986 66.4241 64.6942C66.5212 64.5652 66.6052 64.4536 66.6878 64.342C66.6646 64.3217 66.6415 64.3029 66.6168 64.2826C66.5487 64.358 66.4791 64.4348 66.4038 64.5174C66.2994 64.358 66.2038 64.2116 66.1125 64.0725C66.2299 64.0145 66.3299 63.9667 66.4284 63.9188C66.4212 63.8928 66.4125 63.8652 66.4038 63.8391C66.3516 63.8391 66.3009 63.8391 66.2183 63.8391C66.2342 63.7478 66.2516 63.6565 66.2719 63.5406C66.1922 63.5377 66.1038 63.5594 66.0502 63.5246C65.9647 63.4696 65.8328 63.3217 65.8429 63.3072C66.0676 63.013 65.8632 62.8116 65.74 62.6275C65.6328 62.6464 65.5255 62.7 65.4719 62.6667C65.4052 62.6275 65.3618 62.5174 65.3473 62.4319C65.3183 62.258 65.3226 62.0797 65.3009 61.9044C65.2618 61.587 65.0864 61.4551 64.7965 61.4913C64.74 61.3855 64.6835 61.2899 64.6357 61.1913C64.5878 61.0928 64.4849 60.958 64.5168 60.8942C64.6371 60.6522 64.4647 60.5667 64.3241 60.4652C64.2444 60.4058 64.1444 60.3739 64.056 60.3261C63.969 60.2812 63.8849 60.229 63.8067 60.1855C63.8183 60.0261 63.8806 59.7507 63.8313 59.729C63.5676 59.613 63.5893 59.329 63.4067 59.1319C63.7444 58.887 64.0791 58.6449 64.4139 58.4029C64.4313 58.3899 64.4545 58.3768 64.4632 58.358C64.7226 57.7768 65.382 57.7362 65.8067 57.371C66.2023 57.0319 66.6545 56.7522 67.0994 56.4754C67.5357 56.2058 68.0038 55.987 68.4415 55.7203C68.9806 55.3928 69.5023 55.0348 70.0357 54.6986C70.1618 54.6188 70.3154 54.5797 70.4458 54.5029C70.5994 54.413 70.7415 54.3029 70.8878 54.2C70.9038 54.187 70.9096 54.1551 70.927 54.1464C71.3342 53.9522 71.7444 53.7594 72.1516 53.5638C72.2284 53.5261 72.3009 53.4797 72.3705 53.4319C72.4618 53.371 72.5429 53.2942 72.6371 53.2391C73.1994 52.9145 73.7618 52.587 74.3328 52.2768C74.5719 52.1464 74.9139 52.1609 74.9589 51.7681ZM31.1661 90.2797C31.0878 90.3217 30.9994 90.3435 30.9052 90.3783C30.9139 90.5101 30.9212 90.6362 30.9299 90.7623C30.9067 90.7725 30.8849 90.7826 30.8618 90.7913C30.8168 90.7029 30.7705 90.6145 30.7458 90.5667C30.3835 90.7087 30.027 90.8464 29.6864 90.9797C29.598 91.0841 29.5023 91.1986 29.398 91.3203C29.3212 91.2319 29.2704 91.1754 29.2661 91.1696C28.9342 91.2841 28.6415 91.3855 28.3473 91.487C28.098 91.5725 27.8371 91.6362 27.6038 91.7536C27.4762 91.8174 27.3951 91.9754 27.3154 92.0667C27.2661 92.0377 27.182 91.9449 27.1212 91.958C26.9328 92 26.7545 92.0841 26.5704 92.1478C26.2357 92.2623 25.8951 92.3652 25.5632 92.4899C25.456 92.5304 25.3719 92.6362 25.2661 92.687C25.1618 92.7362 25.0951 92.9754 24.9052 92.7565C24.8748 92.7217 24.5965 92.8971 24.4371 92.9826C24.2791 93.0667 24.1864 93.4304 23.9241 93.0913C23.9125 93.0754 23.5994 93.0362 23.5632 93.287C23.5574 93.3362 23.4444 93.371 23.3806 93.413C23.3023 93.4652 23.2241 93.5188 23.1284 93.5826C23.1284 93.5029 23.1284 93.387 23.1284 93.258C22.94 93.258 22.6386 93.3377 22.4154 93.2391C22.0951 93.0986 22.0342 93.3565 21.8226 93.4493C21.4791 93.2464 21.1444 92.7986 20.6067 93.2159C20.5733 93.0754 20.5516 92.9797 20.5386 92.9246C20.2574 92.8391 19.9922 92.7565 19.6791 92.6609C19.6371 92.6652 19.5299 92.6754 19.4241 92.6855C19.4429 92.542 19.4618 92.3986 19.4835 92.2333C19.3951 92.158 19.282 92.0623 19.127 91.9304C19.1357 92.0971 19.14 92.1681 19.1429 92.2391C19.0516 92.2333 18.9603 92.2261 18.856 92.2203C18.94 92.0406 19.0081 91.8957 19.04 91.829C18.8545 91.6203 18.7212 91.4638 18.5777 91.3145C18.5183 91.2522 18.4386 91.2102 18.3719 91.1536C18.2429 91.0449 18.1241 90.9217 17.9835 90.8275C17.8748 90.7536 17.7081 90.7449 17.627 90.6551C17.5618 90.5826 17.6052 90.4217 17.5618 90.3159C17.5284 90.2362 17.4342 90.1812 17.3458 90.0928C17.3038 90.1 17.1907 90.1159 17.0777 90.1319C17.0719 90.113 17.0647 90.0928 17.0589 90.0725C17.1226 90.0217 17.1864 89.971 17.2168 89.9478C17.1386 89.8377 17.0849 89.7435 17.0139 89.6652C16.8415 89.4768 16.7994 89.1609 16.4444 89.1435C16.356 89.1391 16.2154 88.9565 16.2052 88.8449C16.1907 88.7116 16.0936 88.6623 16.0647 88.5971C15.9226 88.2609 15.7907 88.4087 15.5864 88.6464C15.6212 88.4768 15.6386 88.3986 15.6516 88.3203C15.6618 88.2551 15.698 88.1667 15.669 88.1246C15.5067 87.8768 15.2893 87.658 15.1647 87.3928C15.0516 87.1493 14.7342 87.0667 14.7183 86.7449C14.7125 86.6507 14.5125 86.5667 14.3806 86.4609C14.3835 86.4551 14.4313 86.3609 14.4777 86.2667C14.4473 86.2783 14.4168 86.2899 14.3864 86.3015C14.2647 86.1435 14.0748 86 14.0342 85.8232C13.9661 85.5275 13.8936 85.2783 13.611 85.113C13.5531 85.0797 13.5733 84.9145 13.5502 84.7681C13.4386 84.8638 13.3386 84.9493 13.1603 85.1029C13.24 84.9101 13.282 84.8116 13.3241 84.7116C13.3081 84.6971 13.2907 84.6826 13.2748 84.6681C13.1936 84.7203 13.1139 84.7739 13.0357 84.8246C13.0357 84.5609 13.0357 84.3188 13.0357 84.0884C12.9545 83.9681 12.8357 83.8464 12.782 83.7015C12.7154 83.5232 12.6444 83.513 12.4965 83.6015C12.4342 83.6377 12.3429 83.6246 12.2647 83.6348C12.2791 83.5594 12.2762 83.4768 12.3096 83.4116C12.511 83.0232 12.1154 82.829 12.027 82.5362C11.9878 82.4072 11.9212 82.2826 11.8516 82.1652C11.7806 82.0464 11.6835 81.9406 11.6125 81.8217C11.5704 81.7507 11.556 81.6638 11.5284 81.5826C11.4632 81.6015 11.3922 81.6217 11.3023 81.6478C11.2241 81.3899 11.1473 81.1435 11.0589 80.8565C11.0197 80.8594 10.927 80.8681 10.8313 80.8768C10.8023 80.7783 10.7647 80.6565 10.7313 80.5348C10.7067 80.4449 10.6864 80.3536 10.6589 80.2362C10.4386 80.2275 10.3009 80.1464 10.3458 79.8044C10.3661 79.6507 10.1255 79.4638 10.0052 79.2913C9.92262 79.1696 9.84146 79.0478 9.79509 78.9C9.58929 78.6986 9.3661 78.5145 9.38784 78.1652C9.39798 77.987 9.10378 77.6725 8.91393 77.6551C8.91827 77.5652 8.92262 77.4739 8.92552 77.3826C8.90233 77.371 8.87914 77.358 8.85596 77.3464C8.77625 77.442 8.69509 77.5391 8.63277 77.613C8.63277 77.371 8.63277 77.0913 8.63277 76.813C8.60523 76.8246 8.57914 76.8362 8.55161 76.8464C8.31682 76.5261 8.08204 76.2044 7.80958 75.8304C7.90088 75.5362 7.81538 75.3362 7.46465 75.1304C7.42117 75.1043 7.41248 75.0101 7.39653 74.9449C7.37769 74.8638 7.3661 74.7812 7.35451 74.7145C7.02697 74.671 7.4661 75.2899 7.01538 75.0739C7.03132 74.7928 7.04871 74.5304 7.0603 74.2667C7.06175 74.2275 7.03277 74.1507 7.02262 74.1507C6.61103 74.1812 6.82987 73.8464 6.73856 73.6928C6.6719 73.5826 6.51248 73.5275 6.38204 73.4406C6.40813 73.371 6.44581 73.2754 6.50958 73.113C6.35885 73.1826 6.269 73.2261 6.10813 73.3015C6.169 73.129 6.21538 72.9971 6.28204 72.8087C6.15885 72.5522 6.09219 72.158 5.65016 72.0043C5.72987 71.9464 5.79509 71.9015 5.82262 71.8812C5.57914 71.2391 5.33856 70.6058 5.08929 69.9449C5.04001 69.9391 4.96175 69.9304 4.87625 69.9188C4.93567 69.7435 5.10668 69.5246 4.73422 69.4986C4.75161 69.2826 4.2661 69.1159 4.73711 68.8667C4.42552 68.6957 4.21103 68.5188 4.40813 68.2783C4.35451 68.0855 4.31682 67.958 4.28204 67.829C4.26465 67.7623 4.26755 67.6884 4.23856 67.6275C4.11393 67.3768 3.95885 67.1377 3.8603 66.8783C3.79074 66.6899 3.81682 66.4667 3.7574 66.2725C3.71393 66.1319 3.60088 66.013 3.52842 65.9C3.50233 65.742 3.47769 65.5739 3.44581 65.4072C3.44436 65.3971 3.39943 65.3928 3.3748 65.3884C3.30378 65.3768 3.22262 65.3812 3.1632 65.3478C3.14291 65.3362 3.1748 65.2333 3.17914 65.1725C3.19219 65.0072 3.22987 64.8391 3.20813 64.6797C3.17625 64.4406 3.10668 64.2058 3.04291 63.971C3.01972 63.8826 2.96755 63.8029 2.92697 63.713C3.15161 63.4377 3.37625 63.1015 3.6632 62.8304C3.94581 62.5623 4.29364 62.3623 4.60813 62.1261C4.87045 61.929 5.11682 61.7087 5.38639 61.5217C5.72262 61.2899 6.07914 61.0884 6.41972 60.8609C6.49074 60.813 6.53132 60.7188 6.61682 60.7072C6.75306 60.6304 6.88784 60.5522 7.02552 60.4783C7.22552 60.3725 7.41827 60.242 7.63132 60.1768C7.8748 60.1015 8.09943 60.0464 8.30958 59.8609C8.55016 59.6493 8.8748 59.529 9.1719 59.387C9.46465 59.2464 9.8719 59.2072 10.0371 58.9826C10.211 58.7478 10.4125 58.8667 10.5197 58.7826C10.727 58.6217 10.9806 58.6478 11.1704 58.5159C11.2487 58.4609 11.2762 58.3333 11.3255 58.242C11.3965 58.2812 11.4719 58.3232 11.556 58.3681C11.6849 58.2319 11.8038 58.1073 11.9357 57.9681C11.956 58.0478 11.9748 58.1174 12.0081 58.242C12.2704 58.1101 12.5154 57.9609 12.7791 57.8638C13.0168 57.7754 13.2762 57.7449 13.5009 57.6638C14.1864 57.671 14.2081 58.2275 14.3632 58.713C14.5487 59.2942 14.7936 59.8565 15.0139 60.4275C15.0733 60.5812 14.9893 60.8783 15.3371 60.7638C15.3473 60.7594 15.4255 60.8725 15.4183 60.9232C15.3444 61.371 15.4009 61.6493 15.6038 62.0507C15.7313 62.3043 15.8154 62.5797 15.9241 62.858C15.9849 62.8478 16.0589 62.8377 16.1371 62.8261C16.0081 63.5217 16.198 64.0942 16.6936 64.4768C16.6516 64.6159 16.5603 64.7478 16.5936 64.829C16.8023 65.3348 17.0487 65.8246 17.2632 66.3275C17.3603 66.5565 17.6415 66.7044 17.5618 67.0188C17.5545 67.0478 17.727 67.1246 17.8458 67.1971C17.7545 67.2145 17.6893 67.2261 17.5574 67.2493C17.6893 67.4261 17.7907 67.5623 17.9052 67.7145C17.7516 67.8971 17.8878 68.3203 18.311 68.7C18.2878 68.5855 18.2704 68.5043 18.2502 68.4015C18.2922 68.4159 18.3328 68.4188 18.34 68.4348C18.4081 68.5812 18.6748 68.6942 18.411 68.9C18.3748 68.929 18.3878 69.0652 18.4197 69.1304C18.5502 69.3928 18.7023 69.6435 18.8342 69.9044C18.9139 70.0638 18.9733 70.2333 19.0516 70.4232C19.0907 70.358 19.1284 70.2986 19.1589 70.2478C19.2168 70.4203 19.2618 70.6116 19.3429 70.7899C19.5574 71.2652 19.7893 71.7333 20.0081 72.2073C20.1096 72.4275 20.1835 72.658 20.2864 72.8754C20.4632 73.2464 20.5893 73.6681 20.8531 73.9638C21.3386 74.5087 21.4502 75.2362 21.8632 75.8044C22.0487 76.0609 22.2647 76.2986 22.4342 76.5638C22.6458 76.8942 22.8197 77.2478 23.0197 77.5855C23.1531 77.8102 23.3081 78.0203 23.4444 78.242C23.611 78.5174 23.7676 78.8 23.9313 79.0768C24.0762 79.3203 24.1791 79.6406 24.6154 79.4507C24.3342 79.942 24.5719 80.2203 24.9009 80.5159C25.056 80.6551 25.1038 80.913 25.2009 81.1174C25.2371 81.1957 25.2618 81.2841 25.3125 81.3536C25.5255 81.6536 25.7618 81.9391 25.9603 82.2493C26.1632 82.5667 26.3212 82.9116 26.5197 83.2319C26.6139 83.3826 26.6197 83.6841 26.9618 83.5522C26.9951 83.5391 27.1719 83.8913 27.2748 84.0783C27.2864 84.1 27.2255 84.1623 27.2371 84.1841C27.3936 84.4652 27.556 84.7449 27.7183 85.0232C27.8994 85.3304 28.0415 85.6739 28.2748 85.9348C28.511 86.1971 28.6704 86.5014 28.8806 86.7754C28.9328 86.8435 29.0139 86.8986 29.0922 86.9362C29.3371 87.0536 29.3386 87.0493 29.2154 87.3145C29.3502 87.4015 29.4893 87.4913 29.6777 87.6145C29.682 87.6449 29.669 87.7609 29.7125 87.8507C29.7502 87.9275 29.8487 88.013 29.9284 88.0217C30.1849 88.0493 30.2081 88.0768 30.0864 88.329C30.1545 88.3986 30.2226 88.4623 30.2835 88.5333C30.3618 88.6217 30.4197 88.7377 30.5139 88.8029C30.7458 88.9667 30.9994 89.1 31.2328 89.2623C31.5719 89.4986 31.5313 90.0855 31.1661 90.2797ZM81.856 66.9159C81.8792 67.5768 81.5429 68.0783 81.2081 68.6072C80.711 69.3884 80.1226 70.0783 79.382 70.6275C78.8183 71.0464 78.2255 71.4261 77.6371 71.8116C77.1081 72.158 76.5647 72.4841 76.0313 72.8246C75.6168 73.0899 75.2371 73.4971 74.7893 73.5928C74.4328 73.6696 74.2096 73.9015 73.9023 74.0101C73.6791 74.0884 73.5009 74.2913 73.2965 74.429C73.2255 74.4783 73.1371 74.5 73.0545 74.5333C72.7849 74.6435 72.5081 74.7449 72.2429 74.8681C71.9965 74.9826 71.7574 75.1174 71.5226 75.2551C71.4342 75.3073 71.369 75.3942 71.2951 75.4638C71.2067 75.4507 71.0791 75.3884 71.011 75.4275C70.6357 75.642 70.2835 75.9 69.9038 76.1087C69.6531 76.2449 69.3661 76.3145 69.1023 76.4304C68.6878 76.6145 68.2777 76.8073 67.8719 77.0101C67.8226 77.0348 67.8168 77.1435 67.8154 77.1478C67.5197 77.2565 67.2371 77.3217 66.9994 77.4623C66.827 77.5638 66.6762 77.6536 66.4748 77.7116C66.1748 77.7971 65.9154 78.0145 65.627 78.1536C65.1632 78.3797 64.6893 78.5899 64.2197 78.8058C64.1994 78.8145 64.1603 78.8058 64.156 78.8159C63.9473 79.3188 63.3632 79.0986 63.0183 79.4174C62.7284 79.6855 62.2458 79.742 61.8502 79.8971C61.6502 79.9754 61.4473 80.0536 61.2589 80.1551C61.198 80.1899 61.1777 80.2986 61.1226 80.4029C61.0661 80.3913 60.9632 80.371 60.8241 80.3406C60.8299 80.4275 60.8342 80.4913 60.84 80.571C59.8618 80.4565 59.0951 80.9275 58.3255 81.4913C58.3212 81.442 58.3125 81.4101 58.3154 81.3783C58.3197 81.3464 58.3328 81.3159 58.3733 81.1855C58.0183 81.3739 57.7444 81.6058 57.44 81.658C57.1719 81.7044 56.9806 81.7652 56.8342 81.9855C56.8212 82.0043 56.7415 82 56.7096 81.9812C56.5125 81.8652 56.3241 81.8913 56.1705 82.0464C56.04 82.1783 55.8936 82.2957 55.756 82.4188C55.7313 82.4 55.7081 82.3812 55.6849 82.3623C55.6936 82.2986 55.7038 82.2348 55.7139 82.171C55.5429 82.3623 55.1212 82.2058 55.1009 82.6217C55.098 82.6667 54.84 82.6986 54.682 82.742C54.6936 82.6594 54.7023 82.6043 54.7125 82.5275C54.4791 82.5928 54.2719 82.6507 54.1038 82.6971C54.1183 82.8275 54.1284 82.9159 54.1386 83.0058C54.0342 82.9623 53.9299 82.9174 53.782 82.8565C53.6936 82.9493 53.3806 82.8623 53.3762 83.1812C53.269 83.1638 53.1618 83.1449 53.056 83.1275C53.0589 83.0971 53.0603 83.0652 53.0632 83.0348C52.9284 83.0725 52.8733 83.4261 52.6574 83.1464C52.5791 83.2261 52.4994 83.3044 52.4009 83.4029C52.0183 83.1449 51.6299 83.4942 51.2357 83.5957C50.8386 83.6986 50.4806 83.9464 50.0951 84.1348C50.0951 84.1188 50.0893 84.0203 50.0849 83.9217C49.8023 83.9768 49.5081 84.0246 49.2212 84.0971C49.1342 84.1174 49.0733 84.2246 48.9878 84.2652C48.8864 84.3159 48.7342 84.4 48.6676 84.3609C48.4023 84.2029 48.2603 84.3333 48.1226 84.5638C48.0733 84.4812 48.0371 84.4203 48.0139 84.3797C47.8154 84.4333 47.6139 84.4478 47.4589 84.5391C47.3241 84.6203 47.2415 84.787 47.0951 84.9638C47.0951 84.7942 47.0951 84.6913 47.0951 84.5609C46.4081 84.7348 45.7458 84.9044 45.0458 85.0826C45.0429 85.0797 44.9212 84.9812 44.8936 85.0029C44.6951 85.1551 44.4733 85.0594 44.269 85.0986C43.8733 85.1725 43.4878 85.3087 43.0849 85.4232C42.9878 85.229 42.4299 85.2855 42.2038 85.6029C42.1574 85.5203 42.1197 85.4493 42.0574 85.3362C41.6342 85.5275 41.211 85.7246 40.782 85.9116C40.7226 85.9377 40.6429 85.9145 40.5067 85.9145C40.6168 85.7768 40.6762 85.7 40.756 85.6C40.5516 85.6 40.3675 85.6 40.1516 85.6C40.2081 85.671 40.2545 85.7275 40.3255 85.8159C39.8849 85.8493 39.4226 85.358 39.0603 85.9609C38.9936 85.8913 38.9328 85.8275 38.8603 85.7522C38.4994 85.771 38.0907 85.7739 37.6893 85.8246C37.5226 85.8464 37.3719 85.9768 37.211 86.0493C37.0951 86.1 36.9733 86.1377 36.7965 86.2029C36.7748 86.2464 36.7965 86.5116 36.5704 86.3275C36.6052 86.213 36.6313 86.1217 36.6589 86.0319C36.5632 86.0507 36.4516 86.0449 36.3762 86.0942C36.2589 86.1696 36.1675 86.2841 36.0487 86.4C35.982 86.3391 35.9096 86.2884 35.8603 86.2217C35.6922 85.9957 35.5458 86.0014 35.3502 86.2058C35.0444 86.5275 34.5357 86.4565 34.4183 86.1522C34.2893 86.1174 34.1936 86.0696 34.1023 86.0754C34.0023 86.0826 33.9052 86.1377 33.8081 86.1739C33.7849 86.1841 33.7516 86.2217 33.7458 86.2174C33.4574 85.9739 33.2922 86.3188 33.0676 86.3493C32.8849 86.3725 32.6893 86.2884 32.4791 86.2478C32.4762 86.2783 32.4618 86.3855 32.4444 86.513C32.3545 86.5174 32.2618 86.5232 32.14 86.5304C32.1632 86.4551 32.1835 86.3899 32.198 86.342C31.982 86.2609 31.7676 86.1812 31.5516 86.1015C31.569 86.0594 31.5864 86.0188 31.6038 85.9768C31.711 86.0275 31.8183 86.0797 31.9574 86.1449C31.9936 86.0594 32.0299 85.9739 32.0632 85.8928C32.0197 85.8667 31.9936 85.8435 31.9864 85.8478C31.7704 86.0058 31.6212 85.8261 31.4719 85.729C31.2473 85.5826 31.1284 85.5826 31.1139 85.9058C30.9502 85.7015 30.9589 85.4768 31.0052 85.3087C30.7994 85.0652 30.6197 84.8522 30.4603 84.6623C30.3574 84.7159 30.2574 84.7768 30.1487 84.8145C30.1299 84.8203 30.0357 84.7029 30.0473 84.6812C30.1023 84.5783 30.182 84.4884 30.3067 84.3246C30.2313 84.2449 30.1125 84.1348 30.0154 84.0087C29.9632 83.9391 29.9313 83.8435 29.9226 83.7565C29.9139 83.6609 29.9429 83.5609 29.9589 83.4348C29.8255 83.4725 29.7241 83.5014 29.5893 83.5406C29.5893 83.3435 29.5777 83.1696 29.5922 82.9971C29.6255 82.6 29.1487 82.4783 29.127 82.1043C29.111 81.8623 28.9719 81.7101 28.6748 81.7913C28.6951 81.571 28.8994 81.3391 28.5429 81.2101C28.4502 81.1768 28.4516 80.9188 28.3777 80.7812C28.2791 80.6015 28.1487 80.4391 28.0328 80.2696C28.0052 80.2884 27.9777 80.3073 27.9502 80.3261C27.9589 80.2145 27.9676 80.1029 27.9806 79.9304C27.8212 79.9044 27.6473 79.8971 27.4936 79.8391C27.456 79.8246 27.4835 79.642 27.4791 79.5377C27.4748 79.4101 27.5081 79.2623 27.456 79.1594C27.2647 78.7884 27.1907 78.7841 26.8371 79.0464C26.9009 78.8319 26.9632 78.6174 27.0255 78.4072C26.8893 78.3623 26.7502 78.3174 26.682 78.2942C26.6922 78.0464 26.7009 77.871 26.7096 77.6667C26.4907 77.6667 26.3168 77.6667 26.1139 77.6667C26.3675 76.9754 25.6299 76.6304 25.5371 76.0449C25.5328 76.0203 25.5067 75.987 25.482 75.9783C25.227 75.8841 25.1878 75.6971 25.2299 75.4449C25.1951 75.5 25.1603 75.5551 25.1284 75.6043C25.0183 75.5319 24.8965 75.4522 24.769 75.3696C24.769 75.1826 24.769 74.9739 24.769 74.8159C24.5661 74.7261 24.4038 74.6536 24.2357 74.5783C24.356 74.442 24.4328 74.3522 24.511 74.2638C24.4806 74.2377 24.4502 74.2116 24.4197 74.1855C24.3675 74.2594 24.3154 74.3319 24.2965 74.358C24.1038 74.0449 23.8733 73.7391 23.7183 73.4C23.5762 73.0884 23.5154 72.7391 23.4212 72.4145C23.2531 72.4261 23.1342 72.4348 23.0574 72.4406C23.0168 72.3058 23.0139 72.1725 22.9458 72.1C22.7531 71.8928 22.6878 71.6812 22.8328 71.4203C22.5429 71.2522 22.2023 71.129 22.4139 70.6768C22.4487 70.6043 22.3647 70.4377 22.2907 70.3565C22.1197 70.1725 21.9197 70.013 21.6864 69.8015C21.6197 69.6087 21.7183 69.2913 21.4936 69.0667C21.4226 68.9942 21.3183 68.9536 21.2052 68.8841C21.5415 68.5696 21.0183 68.4551 20.9951 68.1855C20.982 68.0232 20.8226 67.8754 20.7415 67.7145C20.7009 67.6319 20.6864 67.5348 20.6618 67.4507C20.5676 67.4391 20.4632 67.4261 20.298 67.4044C20.7009 67.0913 20.269 67.0159 20.2748 66.8667C20.0661 66.9232 19.8791 66.9725 19.6502 67.0348C19.7777 66.6812 19.8849 66.3841 20.0023 66.0594C19.9154 66.0362 19.8371 66.0174 19.8197 66.013C19.7632 65.7464 19.7357 65.5014 19.6545 65.2754C19.5748 65.058 19.44 64.8594 19.3023 64.6043C19.1139 64.6377 19.069 64.4942 19.1052 64.2507C19.1429 64.0072 18.9676 63.6594 18.7791 63.4913C18.7386 63.4536 18.6994 63.3623 18.7168 63.3174C18.8067 63.0855 18.7154 62.9725 18.4835 62.9449C18.6429 62.6362 18.6313 62.6145 18.2589 62.5449C18.2748 62.371 18.3936 62.1768 18.1212 62.0507C18.0487 62.0188 18.0661 61.7232 18.0936 61.558C18.14 61.2812 18.0647 61.142 17.7661 61.1725C17.8994 60.8435 17.8922 60.8203 17.6531 60.7246C17.6922 60.5464 17.7415 60.3783 17.7632 60.2058C17.8255 59.7493 17.827 59.2957 18.1154 58.8812C18.5762 58.2174 18.956 57.4942 19.4226 56.8333C19.8226 56.2667 20.2806 55.7391 20.7415 55.2188C21.082 54.8362 21.469 54.4957 21.8328 54.1333C21.9415 54.0232 22.0473 53.9087 22.14 53.7841C22.5023 53.3029 23.0487 53.0348 23.4777 52.6319C23.6965 52.4261 23.8777 52.1768 24.1009 51.9754C24.2733 51.8188 24.4719 51.6841 24.6806 51.5797C25.0574 51.3928 25.2371 50.9957 25.54 50.7739C25.7936 50.5884 26.0212 50.4551 26.1313 50.1493C26.1545 50.0855 26.3357 50.0928 26.4183 50.0333C26.8647 49.7072 27.3473 49.4145 27.7241 49.0203C27.9415 48.7942 28.14 48.6855 28.4255 48.6101C28.5733 48.571 28.656 48.3217 28.8052 48.229C29.069 48.0667 29.0806 48.087 29.0806 47.7652C29.1676 47.8029 29.2386 47.8348 29.311 47.8652C29.4502 47.9449 30.3154 47.2884 30.3458 47.1044C30.5748 47.0551 30.8328 47.1116 30.9473 46.7768C30.9835 46.6739 31.3183 46.6986 31.4864 46.6101C31.94 46.3739 32.3748 46.1029 32.8226 45.8551C32.9154 45.8029 33.0371 45.8058 33.1328 45.758C33.6386 45.5014 34.1328 45.2246 34.6429 44.9797C35.0371 44.7899 35.4444 44.6304 35.8502 44.4667C36.3371 44.2681 36.8284 44.0812 37.3168 43.887C37.3574 43.871 37.3951 43.842 37.4284 43.8116C37.64 43.6261 37.8748 43.5159 38.1632 43.4638C38.5429 43.3942 38.9038 43.229 39.2791 43.1246C39.5168 43.0594 39.7733 43.0536 40.0081 42.9797C40.4313 42.8464 40.8444 42.6826 41.2632 42.5348C41.2849 42.5275 41.3154 42.5464 41.3415 42.5493C42.0748 42.6058 42.7806 42.4275 43.4951 42.3116C43.8139 42.2594 44.0139 42.5174 44.2603 42.6551C44.3936 42.7304 44.54 42.7826 44.7052 42.8159C44.9183 43.2116 45.056 43.6362 45.0589 44.1261C45.0632 44.6348 45.1023 45.1464 44.9951 45.6435C44.9023 46.0739 44.7226 46.4841 44.5965 46.9072C44.3168 47.858 43.7212 48.6203 43.1487 49.4015C42.8313 49.8362 42.569 50.3101 42.2458 50.7391C41.9386 51.1464 41.6052 51.5391 41.1386 51.7913C41.0516 51.8377 41.0052 51.9623 40.9415 52.0507C40.9067 51.987 40.8661 51.9101 40.8154 51.8174C40.5531 52.087 40.298 52.3377 40.0647 52.6058C40.0299 52.6449 40.0951 52.771 40.1038 52.8101C40.0313 53.0029 39.9125 53.1797 39.911 53.358C39.9067 53.8971 39.9458 54.4377 39.9748 54.9768C39.9806 55.0754 40.0038 55.1812 40.0473 55.2681C40.182 55.5362 40.3371 55.7942 40.4661 56.0652C40.498 56.1304 40.456 56.2304 40.4603 56.313C40.4632 56.4116 40.4473 56.5333 40.4965 56.6044C40.8197 57.0623 40.7139 57.6435 40.9473 58.1261C40.969 58.1696 40.9226 58.2942 40.8748 58.3174C40.6371 58.4319 40.3965 58.5493 40.1429 58.6174C39.9009 58.6841 39.6313 58.6522 39.3965 58.7319C38.756 58.9493 38.1096 59.1696 37.4994 59.4594C37.2125 59.5957 37.0023 59.8928 36.7458 60.1261C36.7299 60.1044 36.6893 60.042 36.598 59.9029C36.2487 60.2768 35.9183 60.6275 35.5907 60.9812C35.2661 61.3319 34.94 61.6812 34.6241 62.0391C34.5342 62.142 34.4777 62.2754 34.4023 62.3913C34.156 62.7681 33.8386 63.1174 33.6806 63.5275C33.5299 63.9203 33.3487 64.3522 33.5647 64.8203C33.6212 64.9449 33.4733 65.1739 33.3994 65.3464C33.2849 65.6145 33.298 65.8594 33.3893 65.9797C33.3893 66.342 33.3733 66.5855 33.3922 66.8275C33.4226 67.2304 33.4719 67.6319 33.5183 68.0333C33.5936 68.7058 33.6415 69.3855 33.7676 70.0493C33.8212 70.3348 34.0371 70.5928 34.198 70.8507C34.2226 70.8913 34.3545 70.858 34.4313 70.8768C34.4791 70.8884 34.5545 70.9362 34.5545 70.9652C34.5487 71.2246 34.7444 71.2797 34.9226 71.3754C35.0574 71.4478 35.1487 71.5986 35.2835 71.6725C35.3806 71.7246 35.5168 71.7044 35.6342 71.7174C35.6458 71.6855 35.656 71.6536 35.6676 71.6232C35.6907 71.7232 35.7154 71.8246 35.7458 71.9522C35.8589 71.9087 35.956 71.8725 35.9719 71.8667C36.1835 71.9536 36.3299 72.0652 36.4733 72.0623C36.7531 72.0565 36.9719 72.1261 37.1719 72.3217C37.2415 72.3899 37.3719 72.4015 37.4777 72.4261C37.5922 72.4522 37.7168 72.4478 37.8255 72.487C38.04 72.5638 38.169 72.6406 37.9574 72.9072C37.6342 73.313 37.2762 73.7348 37.1067 74.213C36.8618 74.9058 36.2762 75.3377 35.9705 75.9623C35.8183 76.271 35.7574 76.6232 35.6545 76.9565C35.7878 77.013 35.9096 77.0652 36.0502 77.1261C36.0081 77.1826 35.9748 77.229 35.9226 77.2986C36.0052 77.3058 36.0849 77.3391 36.127 77.313C36.6545 76.987 37.2342 76.7623 37.6791 76.2812C38.2444 75.671 38.6371 74.958 39.082 74.2754C39.3357 73.887 39.5719 73.4884 39.8081 73.1058C40.4705 73.2493 41.1574 73.387 41.8386 73.5507C42.4371 73.6957 43.0241 73.8884 43.627 74.0159C43.7676 74.0464 43.9458 73.9029 44.1676 73.8159C44.1965 73.8536 44.2791 73.9652 44.3458 74.0522C44.7009 74.087 45.0444 74.1261 45.3893 74.1522C45.6835 74.1725 45.9806 74.1928 46.2748 74.187C46.6197 74.1797 46.982 74.0638 47.3009 74.142C47.6313 74.2246 47.9444 74.2232 48.2719 74.2246C48.9791 74.2275 49.6936 74.3015 50.3936 74.2304C50.7183 74.1971 51.0357 74.1507 51.3618 74.1812C51.3936 74.1841 51.4458 74.1797 51.4545 74.1623C51.6052 73.858 51.8284 73.9449 52.0893 73.9913C52.2516 74.0203 52.5125 74.1043 52.6226 73.8232C52.6342 73.7942 52.7473 73.7899 52.8081 73.7986C53.2502 73.8667 53.6386 73.7319 54.0313 73.5377C54.3849 73.3638 54.7748 73.2638 55.1444 73.1203C55.2444 73.0812 55.3458 73.0203 55.4154 72.9435C55.527 72.8188 55.7531 73.0101 55.84 72.7304C55.8893 72.5725 56.1762 72.4884 56.4212 72.329C56.3574 72.487 56.3226 72.5725 56.2878 72.658C56.3081 72.6899 56.327 72.7217 56.3458 72.7522C56.5458 72.6464 56.7473 72.5406 56.9473 72.4348C56.9487 72.4449 56.9487 72.4536 56.9502 72.4638C57.1487 72.3928 57.3473 72.3203 57.5704 72.2406C57.5357 72.1536 57.5096 72.0855 57.4545 71.9507C58.0009 72.2551 58.3052 72.0188 58.4762 71.5246C58.6531 71.7304 58.6965 71.7971 58.9299 71.5913C59.6907 70.9174 59.8748 69.9652 60.269 69.113C60.3733 68.8884 60.5502 68.671 60.3893 68.4C60.6081 68.3 60.5386 68.0899 60.5806 67.9188C60.6618 67.5783 60.7096 67.2565 60.598 66.8971C60.5342 66.6899 60.6733 66.4246 60.6951 66.1826C60.7473 65.5971 60.7951 65.0116 60.8197 64.4232C60.8226 64.3391 60.6951 64.2478 60.6429 64.1797C60.6429 64.0391 60.6429 63.8942 60.6429 63.6928C60.7907 63.5638 60.8806 63.3913 60.5893 63.1928C60.4357 63.087 60.5023 62.571 60.6733 62.4116C60.84 62.2536 60.8342 62.0768 60.64 62.0087C60.3052 61.8928 60.3197 61.7058 60.4386 61.4507C60.4516 61.4232 60.44 61.3841 60.44 61.3333C60.3183 61.3203 60.1965 61.3072 60.0676 61.2928C60.0023 61.2087 60.1502 60.8696 59.882 61.0406C59.7632 60.8522 59.6516 60.6667 59.5328 60.4855C59.4676 60.387 59.3675 60.3044 59.3299 60.1971C59.2487 59.9725 58.8081 59.742 58.4168 59.7464C58.2907 59.3667 57.9357 59.3246 57.627 59.2087C57.5154 59.1667 57.4168 59.0913 57.3038 59.0493C57.1618 58.9986 57.0067 58.9188 56.8675 58.9377C56.627 58.9696 56.5284 58.787 56.3719 58.6913C56.2009 58.5884 56.0255 58.4928 55.8009 58.3638C55.8284 58.2971 55.8791 58.1739 55.9067 58.1073C55.7096 58.0058 55.5168 57.9058 55.2791 57.7826C55.2791 57.7826 55.2313 57.8638 55.2168 57.9493C55.182 58.1449 55.0893 58.1565 54.9299 58.0754C54.8139 58.0174 54.682 57.987 54.5516 57.942C54.556 57.8623 54.627 57.6116 54.5589 57.5667C54.2936 57.3884 54.1965 57.6783 54.1212 57.8101C54.0313 57.7015 53.9762 57.5725 53.9125 57.5696C53.6777 57.5565 53.4936 57.3232 53.2009 57.4754C53.0429 57.558 52.7748 57.4319 52.5791 57.3333C52.4096 57.3841 52.2415 57.442 52.069 57.4841C52.0096 57.4986 51.898 57.4899 51.8849 57.4594C51.7647 57.1913 51.5647 57.1667 51.3081 57.2203C51.0936 57.2638 50.8762 57.1667 50.6531 57.3594C50.5284 57.4667 50.1806 57.4435 50.0125 57.3435C49.7791 57.2043 49.6168 57.2478 49.427 57.3623C49.0922 56.987 49.0922 56.987 48.6835 57.2478C48.6502 57.2696 48.6009 57.2681 48.5574 57.2768C48.3067 57.3246 48.0704 57.3304 47.9777 56.9986C47.8487 57.1044 47.7473 57.1884 47.7023 57.2246C47.4748 57.187 47.3038 57.1261 47.1371 57.1362C46.8096 57.1536 46.4835 57.2072 46.1589 57.2565C46.1241 57.2623 46.1052 57.3623 46.069 57.3681C45.9531 57.3913 45.7806 57.4435 45.7255 57.3884C45.4791 57.142 45.2661 57.2304 45.0849 57.4304C44.9618 57.5681 44.8994 57.6841 44.7386 57.4754C44.6994 57.4261 44.5487 57.4348 44.4603 57.458C44.082 57.5652 43.6965 57.629 43.3357 57.4493C43.2444 57.4044 43.24 57.1855 43.1676 56.9652C42.9125 56.9015 42.9806 56.6812 43.1748 56.4783C43.4429 56.2 43.2183 55.9232 43.1791 55.6594C43.156 55.4942 43.0139 55.3652 43.1574 55.171C43.211 55.0971 43.1733 54.9015 43.1096 54.8087C43.0487 54.7203 42.898 54.6942 42.7516 54.6246C42.8864 54.3652 42.9719 54.058 42.5139 53.8971C42.5226 53.871 42.5328 53.8449 42.5429 53.8188C42.698 53.8261 42.8531 53.8348 43.0357 53.8435C43.0357 53.8261 43.0299 53.7899 43.0371 53.7565C43.0458 53.7188 43.0647 53.6826 43.1444 53.6478C43.1502 53.7449 43.1574 53.8406 43.1647 53.9594C43.2299 53.9449 43.2951 53.9391 43.3531 53.9174C43.5661 53.8348 43.7676 53.5696 43.9849 53.9565C44.0313 54.042 44.3531 54.0391 44.5125 53.9797C44.7574 53.887 45.1096 54.2101 45.2777 53.7812C45.2936 53.7406 45.5733 53.7667 45.7081 53.8188C45.9299 53.9044 45.9864 53.8015 46.0067 53.5913C46.4516 53.9101 46.8241 53.5536 47.2226 53.4942C47.4806 53.4551 47.7255 53.3246 47.9733 53.2246C48.0299 53.2015 48.0676 53.1333 48.1154 53.0884C48.1791 53.029 48.2531 52.9174 48.311 52.9232C48.7125 52.9696 49.0183 52.7435 49.3502 52.5913C49.6922 52.4348 50.0415 52.2899 50.3719 52.113C50.8545 51.8565 51.3226 51.5739 51.7994 51.3058C51.9328 51.2319 52.0676 51.1464 52.211 51.1116C52.598 51.0217 52.8791 50.771 53.1748 50.5362C53.1994 50.5159 53.2313 50.4826 53.2531 50.4855C53.7009 50.5609 53.9357 50.1913 54.2647 50.0174C54.4589 49.913 54.6864 49.8739 54.8864 49.7797C55.1878 49.6362 55.511 49.5203 55.6878 49.1971C55.7168 49.1449 55.8081 49.1275 55.8733 49.0986C56.0371 49.029 56.2023 48.9609 56.3473 48.8449C56.6676 48.8638 56.9125 48.7348 57.1733 48.5087C57.3139 48.3855 57.5081 48.329 57.5936 48.1275C57.6023 48.1072 57.7661 48.1797 57.8328 48.1507C58.0936 48.0362 58.3415 47.8942 58.598 47.771C58.8661 47.6435 59.1444 47.5348 59.4096 47.4015C59.7212 47.2435 60.0183 47.058 60.3284 46.9C60.5878 46.7681 60.8618 46.6638 61.1226 46.5333C61.269 46.4609 61.3994 46.358 61.5299 46.2739C61.6444 46.242 61.7719 46.2203 61.8893 46.171C62.098 46.0826 62.3038 45.9855 62.5052 45.8797C62.8922 45.6768 63.2632 45.4377 63.6618 45.2652C64.1444 45.0565 64.6516 44.9044 65.1458 44.7232C65.5081 44.5899 65.869 44.4522 66.2299 44.313C66.7647 44.1087 67.3009 43.9072 67.8313 43.6942C68.2965 43.5058 68.7458 43.2754 69.2197 43.1145C69.7197 42.9449 70.2936 42.9246 70.7371 42.671C71.1284 42.4464 71.5284 42.4783 71.911 42.4072C72.3589 42.3232 72.8415 42.4304 73.3096 42.4507C73.3965 42.4551 73.4849 42.4435 73.5719 42.4362C73.6052 42.4348 73.6473 42.413 73.6719 42.4261C73.869 42.5406 74.0589 42.6681 74.2603 42.7754C74.7168 43.0174 74.6328 43.487 74.711 43.8739C74.7719 44.1754 74.7197 44.4971 74.7618 44.8029C74.8444 45.387 74.8618 45.9667 74.6777 46.529C74.4531 47.213 74.127 47.8609 73.611 48.3623C72.6965 49.2493 71.756 50.1145 70.7893 50.9449C70.1125 51.5246 69.3734 52.0333 68.6618 52.5739C68.1038 52.9971 67.5574 53.4362 66.9849 53.8391C66.6849 54.0493 66.3328 54.1826 66.0197 54.3783C65.4328 54.7449 64.8907 55.2 64.2705 55.4913C63.5907 55.8101 63.2125 56.4174 62.6864 56.8797C62.482 57.0594 62.3386 57.3072 62.156 57.513C62.1038 57.5739 62.0096 57.5971 61.9705 57.6188C61.8791 57.4493 61.8386 57.2493 61.7168 57.171C61.3299 56.9188 61.1038 56.5029 60.7255 56.2478C60.6705 56.2101 60.6023 56.1812 60.5661 56.129C60.4791 56.0058 60.1762 56.0406 60.2893 55.7623C60.2936 55.7507 60.2183 55.7101 60.1835 55.6797C60.0676 55.5797 59.927 55.4957 59.8444 55.3739C59.6806 55.1304 59.4965 55.0986 59.2618 55.3449C59.24 54.9232 58.8965 54.871 58.6255 54.7391C58.0574 54.4638 57.4951 54.1797 56.9197 53.9232C56.5878 53.7739 56.0907 54.0638 56.0357 54.4203C56.0284 54.4652 56.1023 54.5246 56.182 54.6377C56.2936 54.3957 56.382 54.2072 56.469 54.0188C56.4965 54.0261 56.5255 54.0333 56.5545 54.042C56.5081 54.1855 56.4705 54.3348 56.4139 54.4754C56.2936 54.7652 56.211 55.0464 56.5733 55.3174C56.5299 55.2029 56.5067 55.1362 56.4762 55.0551C56.5603 55.013 56.6458 54.9696 56.7951 54.8928C56.7357 55.1507 56.6907 55.3536 56.6444 55.5551C56.6226 55.5507 56.6009 55.5464 56.5777 55.5406C56.5849 55.5623 56.5864 55.5913 56.6009 55.6029C57.1429 56.0507 57.4632 56.6826 57.9255 57.1971C58.4125 57.7362 58.8907 58.2826 59.3502 58.8449C59.5719 59.1188 59.7284 59.4464 59.9386 59.7304C60.1168 59.9696 60.3342 60.1797 60.5284 60.4072C60.6473 60.5493 60.7531 60.7015 60.8632 60.8507C61.0284 61.071 61.1951 61.2913 61.356 61.5174C61.5777 61.829 61.7922 62.1464 62.0125 62.4594C62.1255 62.6203 62.2531 62.771 62.3603 62.9348C62.4473 63.0638 62.5139 63.2058 62.5893 63.3435C62.6589 63.3072 62.7589 63.2536 62.8849 63.1884C62.9299 63.3377 62.9676 63.4681 63.0067 63.5986C62.9849 63.6029 62.9647 63.6087 62.9429 63.6145C62.8922 63.5377 62.8415 63.4609 62.7907 63.3841C62.7545 63.4029 62.7197 63.4232 62.6835 63.442C62.9081 63.8812 63.1328 64.3203 63.3965 64.8348C63.4864 64.6536 63.5197 64.587 63.5531 64.5203C63.5791 64.5217 63.6038 64.5232 63.6299 64.5246C63.64 64.6884 63.6502 64.8536 63.6618 65.0174C63.6719 65.1536 63.64 65.3203 63.7081 65.4217C63.9212 65.7406 63.9473 66.171 64.3197 66.4058C64.3994 66.4565 64.327 66.7116 64.3719 66.858C64.4415 67.0826 64.5444 67.2986 64.6487 67.5101C64.7458 67.7058 64.8922 67.8812 64.9647 68.0841C65.1313 68.5435 65.2429 69.0246 65.4212 69.4783C65.4936 69.6623 65.6849 69.8 65.8371 69.9232C65.882 70.0406 65.9299 70.158 65.969 70.2768C65.9849 70.3246 65.9922 70.3783 65.9849 70.4261C65.9125 70.8812 65.9487 71.2899 66.3849 71.5754C66.4342 71.6087 66.3777 71.8 66.3661 71.9928C66.398 71.9928 66.4951 71.9928 66.6386 71.9928C66.5791 72.0928 66.5081 72.2174 66.4038 72.3957C66.4516 72.4536 66.5357 72.5536 66.5994 72.6304C66.5444 72.7522 66.4487 72.8681 66.4589 72.9725C66.4661 73.0449 66.6183 73.1043 66.7168 73.1768C66.6284 73.3565 66.5212 73.5739 66.3748 73.8696C66.6733 74.029 66.9965 74.2029 67.2748 74.3507C67.2965 74.3493 67.2313 74.3551 67.0994 74.3667C67.1806 74.4899 67.24 74.5812 67.3429 74.7362C67.6255 74.2942 67.8603 73.9 67.882 73.413C67.8893 73.271 67.9183 73.3116 68.0502 73.1899C68.1922 73.0594 68.2531 72.8406 68.3502 72.6609C68.3226 72.6391 68.2951 72.6174 68.269 72.5971C68.3371 72.5725 68.4067 72.5464 68.5125 72.5087C68.4951 72.3754 68.4734 72.2246 68.4545 72.0725C68.4458 71.9942 68.4038 71.8899 68.4386 71.842C68.6342 71.571 68.7719 71.3029 68.5922 70.9638C68.5806 70.942 68.6878 70.8551 68.7502 70.7884C68.6675 70.7203 68.5878 70.6551 68.4907 70.5754C68.4661 70.7232 68.4444 70.8478 68.4168 71.0116C68.0994 70.7159 68.2719 70.5029 68.4139 70.3348C68.369 70.0333 68.3313 69.771 68.2893 69.4899C68.34 69.4754 68.398 69.4565 68.4067 69.4551C68.3096 68.9681 68.2139 68.4942 68.1183 68.0116C68.011 68.0435 67.9023 68.0768 67.7328 68.129C67.7965 67.6319 67.4574 67.1362 67.9081 66.7101C67.9705 66.6507 68.0386 66.5783 68.1168 66.558C68.498 66.4565 68.8835 66.371 69.2676 66.2768C69.298 66.2696 69.3342 66.2536 69.3531 66.229C69.6299 65.8826 70.0458 65.8029 70.4284 65.6565C70.5777 65.6 70.7052 65.4899 70.8458 65.4101C71.1777 65.2246 71.5096 65.0391 71.8458 64.8638C71.9907 64.787 72.1502 64.7362 72.3023 64.6681C72.7545 64.4681 73.1994 64.2464 73.6589 64.0652C74.1719 63.8638 74.6994 63.6971 75.2197 63.513C75.5067 63.4116 75.7907 63.3029 76.0777 63.2043C76.2618 63.1406 76.4473 63.0696 76.6386 63.0377C77.6168 62.8725 78.5936 62.6971 79.5777 62.571C80.0038 62.5174 80.4458 62.5594 80.8792 62.5841C80.9835 62.5913 81.1168 62.6812 81.1777 62.7725C81.4878 63.2377 81.6357 63.7565 81.6762 64.3174C81.7154 64.8522 81.8299 65.3812 81.8748 65.9145C81.9023 66.2464 81.8444 66.5826 81.856 66.9159ZM58.8864 66.3102C58.7705 66.5551 58.6545 66.7986 58.5081 67.1043C58.7168 67.0812 58.8241 67.0681 58.9458 67.0536C58.9299 67.1623 58.9125 67.2783 58.8965 67.3797C58.8212 67.3971 58.6936 67.4203 58.6951 67.429C58.727 67.7507 58.3444 68.0522 58.5603 68.2913C58.54 68.513 58.5139 68.6464 58.5183 68.7783C58.5255 68.9232 58.6241 69.0971 58.5719 69.2044C58.4458 69.458 58.2632 69.8623 58.0864 69.871C57.8139 69.8855 57.7632 70.0217 57.6255 70.1594C57.4907 70.2957 57.2922 70.3667 57.0835 70.4884C57.0502 70.3913 57.0125 70.2783 56.9661 70.1435C56.3618 70.3536 55.7676 70.5623 55.1313 70.7841C55.1226 70.6275 55.1733 70.3768 55.0965 70.329C54.8197 70.1551 55.0647 69.9855 55.011 69.8362C54.9516 69.7246 54.8936 69.613 54.8197 69.4725C54.7936 69.571 54.7719 69.6522 54.7487 69.7333C54.7009 69.4652 54.5386 69.2594 54.6719 68.9203C54.8023 68.5928 54.9125 68.1609 54.7197 67.7522C54.6241 67.5507 54.6371 67.2986 54.5965 67.0362C55.3255 66.8565 56.0762 66.7348 56.7951 66.3174C57.1444 66.4029 58.1661 65.6739 58.6241 65.2362C58.6676 65.471 58.7096 65.7073 58.7589 65.9768C58.7328 66.0493 58.6849 66.1783 58.6226 66.3478C58.7589 66.3275 58.8357 66.3174 58.8864 66.3102ZM57.769 63.4116C57.5415 63.5435 57.3096 63.6667 57.0791 63.7913C57.0531 63.8058 57.0067 63.813 56.9849 63.8C56.6487 63.5942 56.3835 63.9058 56.0777 63.9319C55.9516 63.9435 55.84 64.1275 55.6849 64.2667C55.6603 64.1609 55.6458 64.1029 55.6154 63.9739C55.3299 64.1058 55.0545 64.2333 54.7284 64.3841C54.7299 64.387 54.6806 64.3029 54.6241 64.2029C54.582 64.2522 54.5168 64.3203 54.4603 64.3942C54.3357 64.558 53.9806 64.6058 53.882 64.4377C53.7154 64.1493 53.4994 64.3638 53.3458 64.3899C53.1849 64.4159 53.0531 64.6174 52.8661 64.7783C52.811 64.6464 52.769 64.5449 52.7154 64.4145C52.611 64.5072 52.5081 64.6 52.3864 64.7087C52.3458 64.629 52.3081 64.5565 52.2589 64.458C52.1473 64.529 52.0342 64.6 51.9893 64.629C51.756 64.5913 51.5777 64.5319 51.4038 64.542C51.0444 64.5652 50.6661 64.7174 50.3342 64.6435C49.9473 64.558 49.7878 64.8826 49.4922 64.9391C49.2096 64.9913 49.0052 65.0667 49.0125 64.6348C48.5429 64.7145 48.1067 64.8087 47.6661 64.858C47.3791 64.8899 47.0835 64.842 46.7936 64.8551C46.2473 64.8797 45.7023 64.9072 45.1589 64.9638C44.956 64.9841 44.7733 65.0087 44.5603 64.9681C44.3473 64.9261 44.1067 65.0319 43.8241 65.0826C43.64 64.8768 43.3284 64.9304 43.0052 64.9391C42.7574 64.9435 42.4197 64.913 42.2762 64.758C42.0487 64.5101 41.9531 64.6942 41.8023 64.7783C41.7733 64.7942 41.7429 64.8116 41.7139 64.829C41.6762 64.5319 41.482 64.4116 41.1704 64.4884C41.1299 64.4986 41.0704 64.5116 41.0429 64.4913C40.7574 64.2841 40.4386 64.2826 40.1038 64.2942C39.8893 64.3015 39.7791 64.0565 39.5096 64.0348C39.1357 64.0043 38.7791 63.7696 38.4139 63.6261C38.0791 63.4942 37.74 63.3696 37.4052 63.2391C37.3473 63.2159 37.298 63.1768 37.2444 63.1449C36.9719 62.9783 36.6994 62.8116 36.3922 62.6232C36.4806 62.5725 36.5893 62.4957 36.7096 62.4435C37.0965 62.2754 37.4806 62.0971 37.8791 61.9638C38.2255 61.8464 38.5965 61.8015 38.9473 61.6928C39.2154 61.6073 39.556 61.6913 39.7386 61.3696C39.7733 61.3087 39.9038 61.2551 39.9762 61.2696C40.4299 61.3565 40.8081 61.1841 41.2038 60.9957C41.4183 60.8928 41.682 60.8957 41.9241 60.8507C42.0444 60.829 42.1661 60.8087 42.2835 60.7797C42.8371 60.642 43.3864 60.4928 43.9415 60.3652C44.5255 60.2319 45.1139 60.1145 45.7038 60.0029C45.8328 59.9783 45.9719 60.0159 46.1052 60.0058C46.7791 59.9594 47.4502 59.8913 48.1241 59.8638C48.3791 59.8536 48.64 59.9246 48.8936 59.9768C49.3922 60.0768 49.8878 60.1942 50.3849 60.2971C50.6038 60.342 50.8255 60.3681 51.0444 60.4044C51.269 60.442 51.4936 60.4826 51.7183 60.5159C52.0777 60.5681 52.4415 60.5986 52.7965 60.6696C53.4791 60.8072 54.1545 60.9725 54.8342 61.1145C55.5893 61.271 56.269 61.6362 56.982 61.9029C57.2936 62.0188 57.5516 62.2768 57.8313 62.4725C57.9357 62.5449 58.0357 62.6203 58.1574 62.7087C58.24 63.0362 58.0473 63.2493 57.769 63.4116ZM53.2284 67.7957C53.0791 67.9145 52.9893 67.987 52.9705 68.0029C52.9415 68.2362 52.8806 68.4101 52.9125 68.5652C52.9545 68.7696 53.0647 68.958 52.7545 68.9667C52.7864 69.3116 52.8154 69.642 52.8545 70.0768C52.6125 70.3536 52.7864 70.7507 52.9328 71.1522C52.6096 71.287 52.282 71.4246 51.9342 71.5696C51.882 71.4565 51.7922 71.3203 51.5806 71.5145C51.5284 71.5623 51.3806 71.5058 51.3154 71.5C51.2038 71.1623 51.1023 70.8594 51.0067 70.5565C50.9965 70.5246 51.0197 70.4826 51.0241 70.4449C51.0603 70.0536 50.956 69.6913 50.7849 69.3449C50.7705 69.3159 50.7516 69.2696 50.7632 69.2493C51.1255 68.6812 50.7647 68.1319 50.7618 67.5638C51.5676 67.4783 52.3936 67.3899 53.2618 67.2971C53.0777 67.4667 52.9531 67.5826 52.7733 67.7478C52.9705 67.7681 53.0618 67.7783 53.2284 67.7957ZM48.8516 68.8348C48.8574 68.8841 48.9487 68.9232 49.0733 69.0261C49.0096 69.1391 48.827 69.3348 48.7922 69.5522C48.7313 69.9333 48.7574 70.3275 48.7632 70.7159C48.7632 70.7464 48.8893 70.7754 48.9936 70.8217C48.7197 71.0362 48.6661 71.2609 48.9168 71.4928C48.7719 71.5478 48.6473 71.5957 48.5052 71.6507C48.5009 71.6 48.4951 71.5304 48.482 71.3899C48.1125 71.5754 47.769 71.7493 47.4415 71.913C47.3704 71.7667 47.2762 71.5725 47.1574 71.3261C47.0618 71.4464 46.9936 71.5333 46.8965 71.6565C46.8183 71.5928 46.7284 71.5217 46.6067 71.4232C46.4951 71.5058 46.3762 71.6261 46.2313 71.6797C46.1922 71.6942 46.0777 71.5043 45.9791 71.387C45.7777 71.5507 45.5458 71.7391 45.3125 71.9275C45.2893 71.9116 45.2676 71.8957 45.2444 71.8783C45.3386 71.7232 45.4342 71.5681 45.5284 71.413C45.5096 71.3841 45.4922 71.3536 45.4733 71.3246C45.2168 71.5493 44.982 71.6536 44.8487 71.229C44.6154 71.3145 44.3647 71.7319 44.1806 71.2435C43.9458 71.2797 43.6994 71.3174 43.4531 71.3551C43.4951 71.0826 42.8835 70.8812 43.3849 70.5594C43.2922 70.429 43.2052 70.3058 43.1096 70.1725C43.2009 69.9841 43.3212 69.7797 43.3936 69.5594C43.4197 69.4783 43.3328 69.3594 43.2748 69.1884C43.1733 69.4319 43.111 69.5826 43.0139 69.8174C42.9719 69.3362 42.9371 68.9435 42.9052 68.5812C43.2038 68.5623 43.2139 68.3638 43.2733 68.1623C43.1791 68.1623 43.1052 68.1623 43.0226 68.1623C43.04 68.0913 43.0328 67.9667 43.0864 67.9319C43.2081 67.8507 43.3748 67.7435 43.4965 67.7696C44.0371 67.8855 44.5661 67.9116 45.1023 67.7551C45.1922 67.729 45.3038 67.7986 45.4009 67.7855C45.5907 67.7623 45.8415 67.9333 45.9516 67.5986C45.9733 67.5333 46.2125 67.5406 46.3502 67.5145C46.4719 67.7507 46.8791 67.8493 47.169 67.7145C47.2154 67.6942 47.2589 67.6435 47.3038 67.6435C47.8951 67.6391 48.4864 67.6406 49.1632 67.6406C49.0386 67.9536 48.9328 68.1783 48.8647 68.413C48.8255 68.5449 48.8342 68.6957 48.8516 68.8348ZM41.7125 68.8188C41.5386 69.1957 41.3661 69.5725 41.2212 69.887C41.4125 70.1275 41.5791 70.3362 41.7458 70.5435C41.7284 70.5696 41.7096 70.5957 41.6922 70.6217C41.6168 70.6072 41.5415 70.5841 41.4647 70.5783C41.3183 70.5681 41.1299 70.5058 41.0328 70.5725C40.7719 70.7522 40.6444 70.5913 40.482 70.442C40.4183 70.3841 40.3212 70.3609 40.2371 70.3261C40.04 70.2435 39.84 70.1638 39.6415 70.0826C39.6835 70.0594 39.7241 70.0362 39.7647 70.013C39.7429 69.658 39.7226 69.3029 39.6965 68.9493C39.682 68.7493 39.6632 68.5493 39.6371 68.3507C39.6052 68.1116 39.5328 67.8725 39.5357 67.6333C39.5386 67.4406 39.6038 67.2377 39.6893 67.0623C39.711 67.0203 39.9299 67.0551 40.0502 67.0884C40.6342 67.2464 41.2168 67.4159 41.7994 67.5812C41.7125 67.7986 41.6342 67.9942 41.556 68.1884C41.7067 68.2232 41.7922 68.242 41.8762 68.2609C41.8197 68.3116 41.7342 68.3536 41.7168 68.4159C41.6777 68.5449 41.6762 68.6855 41.7125 68.8188ZM37.6647 69.0623C37.7777 69.1435 37.9052 69.2029 38.0096 69.2609C37.8415 69.6464 37.6429 69.7841 37.2806 69.6406C37.1965 69.6072 37.0241 69.7928 36.8574 69.9015C36.8849 69.8 36.9067 69.7261 36.9241 69.6652C36.7212 69.5304 36.5154 69.4087 36.3255 69.2652C36.1328 69.1174 36.0067 69.1014 35.956 69.3841C35.9444 69.4478 35.8907 69.5029 35.8415 69.5899C35.8226 69.3884 35.8067 69.2333 35.7878 69.0333C35.8429 68.9855 35.9502 68.8942 35.9994 68.8507C35.9589 68.6594 35.9313 68.5304 35.9038 68.4015C35.8284 68.0406 35.7473 67.6826 35.6791 67.3217C35.6502 67.1609 35.6487 66.9942 35.6299 66.8304C35.5965 66.5623 35.5516 66.2957 35.5255 66.0275C35.5139 65.913 35.5371 65.7957 35.5458 65.671C35.4951 65.6493 35.4313 65.6203 35.3733 65.5957C35.4386 65.4536 35.4936 65.3304 35.5574 65.1928C35.9023 65.4044 36.2429 65.6348 36.6052 65.8246C36.9806 66.0203 37.3748 66.187 37.7705 66.342C37.9676 66.4203 38.0226 66.5043 37.9589 66.7174C37.8603 67.0377 37.8052 67.3725 37.7328 67.6928C37.9081 67.7768 38.0444 67.842 38.2125 67.9217C38.1516 67.9797 38.082 68.0609 38.0719 68.0536C37.7067 67.8102 37.7893 68.1333 37.7458 68.3044C37.6951 68.5029 37.627 68.6971 37.5849 68.8957C37.5748 68.9449 37.6183 69.0304 37.6647 69.0623ZM68.4067 69.4551C68.4081 69.4536 68.4081 69.4536 68.4067 69.4551V69.4551ZM58.8299 24.6377C58.7994 24.629 58.7545 24.6855 58.7125 24.6942C58.3922 24.7609 58.2907 25.1623 57.856 25.1348C57.3922 25.1043 57.1328 25.6522 56.6589 25.7899C56.256 25.9058 55.9067 26.2232 55.5444 26.4681C55.3516 26.5986 55.1849 26.7696 54.998 26.9101C54.5371 27.2594 54.0415 27.5667 53.6139 27.9522C52.9661 28.5391 52.3458 29.158 51.7502 29.7971C51.1009 30.4942 50.4589 31.2043 49.8777 31.958C49.5661 32.3638 49.3618 32.8638 49.1589 33.3406C48.9444 33.8464 48.8965 34.4 48.9531 34.9391C48.9864 35.2623 48.8574 35.7232 49.4705 35.842C49.14 35.8754 49.1705 35.9855 49.2618 36.1797C49.327 36.3174 49.3023 36.5101 49.2835 36.6754C49.2458 36.9957 49.1618 37.3087 49.3502 37.6188C49.5487 37.9449 49.7328 38.2812 49.8994 38.6246C50.1212 39.0812 50.3052 39.5565 50.5342 40.0101C50.6502 40.2391 50.8502 40.4232 50.9705 40.6507C51.1632 41.0145 51.311 41.4029 51.498 41.771C51.5878 41.9478 51.6516 42.1986 51.9618 42.1C52.0009 42.087 52.0748 42.1884 52.0994 42.2087C52.0589 42.3594 51.9647 42.5188 52.0096 42.5797C52.2023 42.8478 52.4154 43.1072 52.6574 43.3304C52.9212 43.5754 53.2994 43.6565 53.5589 43.929C53.6444 44.0174 53.8154 44.0246 53.9458 44.0696C54.0502 44.1522 54.3762 44.2188 54.6386 44.1768C54.74 44.1609 54.8618 43.9145 54.9806 44.158C55.1516 43.9783 55.5748 44.2986 55.5893 43.8928C55.8009 43.9565 56.0371 44.1101 56.2067 44.0551C56.3922 43.9957 56.6965 44.3232 56.7589 43.9072C57.069 44.0536 57.3473 44.0507 57.5907 43.8C57.6226 43.8768 57.6531 43.9551 57.6705 43.9957C58.2748 43.8681 58.856 43.7667 59.4226 43.6159C59.7589 43.5275 60.1762 43.6159 60.3777 43.2188C60.7791 43.4507 61.456 43.2841 61.4936 42.9362C61.9197 43.2072 62.1212 42.9435 62.2415 42.5739C62.3284 42.7058 62.4328 42.8696 62.4357 42.8667C62.698 42.7101 63.1342 42.9304 63.2444 42.4826C63.5661 42.6623 65.1096 41.9681 65.3531 41.6044C65.5502 41.5855 65.698 41.6 65.8183 41.5522C65.9284 41.5087 65.9965 41.3623 66.1052 41.3188C66.382 41.2058 66.7067 41.1783 66.9487 41.0174C67.2705 40.8058 67.5777 40.5841 67.9415 40.4493C68.5835 40.2101 69.0284 39.6101 69.7313 39.4768C69.7806 39.4667 69.8096 39.371 69.8589 39.3275C69.9139 39.2812 69.9791 39.2464 70.0429 39.2116C70.3081 39.0667 70.5777 38.9304 70.8386 38.7797C71.1951 38.5754 71.3835 38.2015 71.6675 37.9217C72.0502 37.5464 72.4096 37.113 72.6574 36.642C73.1704 35.6667 73.6009 34.6493 74.069 33.6493C74.0907 33.6029 74.1299 33.5594 74.1733 33.5304C74.4458 33.3493 74.5704 33.0348 74.4777 32.7319C74.6574 32.6464 74.7603 32.5522 74.7125 32.2942C74.6936 32.1971 74.7719 31.8348 75.0748 31.7971C75.1052 31.7942 75.156 31.687 75.1458 31.6739C75.0081 31.5174 75.1487 31.4609 75.2342 31.3652C75.4023 31.1754 75.3371 31.0261 75.0936 30.9522C75.0154 30.9275 74.9574 30.8319 74.8893 30.7696C75.1067 30.5986 74.9023 30.4101 74.8589 30.2783C74.7676 30.0043 75.127 29.8333 74.956 29.5565C74.8676 29.4145 74.9067 29.0942 74.8241 29.0681C74.5139 28.9754 74.6154 28.7797 74.6328 28.6377C74.5342 28.5739 74.4603 28.5246 74.3763 28.4696C74.6719 28.2101 74.656 28.1565 74.1704 27.7855C74.2965 27.7855 74.3849 27.7855 74.4516 27.7855C74.527 27.3043 73.9632 27.6638 73.9226 27.3348C73.9762 27.2261 74.0299 27.113 74.0878 26.9942C73.9994 26.9855 73.9299 26.9783 73.8661 26.971C73.9096 26.8725 73.9458 26.7928 73.9531 26.7754C73.8255 26.5681 73.7197 26.4116 73.6299 26.2449C73.5197 26.0391 73.3994 25.8348 73.327 25.6145C73.1951 25.2058 72.8371 25.0188 72.5226 25.2174C72.6052 25.0812 72.6878 24.9449 72.7458 24.8493C72.6284 24.6029 72.5212 24.3797 72.3878 24.1014C72.3965 24.0826 72.4342 23.9913 72.4878 23.8652C72.1197 23.9246 72.0444 23.6594 71.9603 23.3623C71.8763 23.4739 71.8241 23.542 71.8284 23.5377C71.3864 23.3116 70.9791 23.1029 70.5487 22.8826C70.5531 22.8681 70.5603 22.8319 70.569 22.7899C70.5038 22.7957 70.4212 22.8246 70.4009 22.8C70.1226 22.4884 69.811 22.7159 69.5125 22.7275C69.4313 22.7304 69.3473 22.6449 69.2647 22.6014C69.1907 22.6391 69.0893 22.6913 68.9574 22.7594C68.8719 22.3391 68.8719 22.3391 68.1226 22.7101C68.1067 22.6188 68.0907 22.529 68.0791 22.4565C67.8415 22.5623 67.6284 22.6565 67.3922 22.7623C67.3618 22.6072 67.3429 22.5058 67.327 22.4246C67.0965 22.5522 66.8849 22.6696 66.6516 22.7986C66.6183 22.6449 66.6038 22.5725 66.5849 22.4841C66.4226 22.6696 66.0704 22.7319 65.9357 22.6391C65.84 22.5739 65.7125 22.5116 65.6038 22.5174C65.2864 22.5377 64.9574 22.5551 64.6574 22.6478C64.4878 22.7 64.256 22.5826 64.1226 22.8551C64.0473 23.0087 63.6632 22.9 63.5922 22.6957C63.3313 22.9043 63.0835 23.1043 62.8125 23.3217C62.7864 23.1391 62.769 23.0087 62.7473 22.8594C62.5009 22.9899 62.2791 23.1072 62.0212 23.2449C61.8965 23.1435 61.7299 23.113 61.6052 23.3551C61.5878 23.3884 61.5473 23.4217 61.511 23.4348C61.3052 23.5087 61.0878 23.5565 60.8951 23.6522C60.5473 23.8232 60.2284 24.0609 59.869 24.1971C59.5168 24.3304 59.3009 24.7884 58.8299 24.6377ZM54.7661 41.6594C54.4516 41.4652 54.1936 41.1942 54.0719 40.8116C54.0878 40.8058 54.0487 40.8203 53.9878 40.842C54.0357 40.3971 53.8052 40.3217 53.5226 40.4203C53.4922 40.2623 53.4791 40.1058 53.4313 39.9594C53.3733 39.787 53.2864 39.6232 53.1762 39.3725C53.1313 39.3464 53.0052 39.2739 52.882 39.2029C53.0357 38.7971 53.0081 38.7246 52.7023 38.7029C52.6632 38.5507 52.8473 38.2826 52.4762 38.2754C52.44 38.2739 52.4125 37.9029 52.4168 37.6841C52.8386 37.9507 53.24 37.787 53.6386 37.7449C54.0023 37.7072 54.0023 37.7101 54.0545 37.542C54.2299 37.5884 54.4009 37.6406 54.5748 37.6797C54.7676 37.7217 54.8444 37.8014 54.6777 37.9638C54.5777 38.0609 54.4313 38.129 54.3748 38.2435C54.3067 38.3826 54.2589 38.571 54.2951 38.713C54.3313 38.8493 54.4965 38.9464 54.5878 39.0725C54.6183 39.1174 54.5994 39.1986 54.6009 39.2623C54.6067 39.5348 54.7632 39.5971 55.0574 39.5087C54.7342 40.4246 55.4255 40.8928 55.8212 41.5232C55.482 41.6072 55.1473 41.8957 54.7661 41.6594ZM59.211 41.2986C59.1415 41.3217 59.0632 41.3362 59.0023 41.3754C58.8313 41.4855 58.6705 41.6116 58.498 41.7188C58.4647 41.7391 58.3835 41.7217 58.3516 41.6913C58.3255 41.6681 58.3212 41.5884 58.3415 41.5522C58.4052 41.429 58.4849 41.313 58.5936 41.1377C58.382 41.1116 58.2212 41.0928 58.0328 41.0696C58.0733 40.9739 58.1342 40.829 58.2067 40.658C58.0052 40.5594 58.0255 40.1696 57.6632 40.2478C57.5777 39.8739 57.082 39.6623 57.0951 39.3696C57.1168 38.9174 56.7951 38.6087 56.8183 38.187C56.6487 38.1725 56.498 38.1594 56.3226 38.1449C56.398 37.9971 56.4618 37.8696 56.5299 37.7319C56.4139 37.6406 56.3212 37.5681 56.2154 37.4855C56.3965 37.4507 56.5618 37.4333 56.7154 37.3841C56.8183 37.3522 56.9226 37.2899 56.9951 37.213C57.0835 37.1188 57.1212 37.0116 57.2632 37.1696C57.3139 37.2246 57.4777 37.1783 57.5878 37.1783C57.7038 37.271 57.8357 37.3754 57.9676 37.4812C57.9849 37.4594 58.0023 37.4377 58.0197 37.4159C58.0444 37.6261 58.069 37.8348 58.1023 38.1217C58.0864 38.1348 57.998 38.2101 57.9255 38.2725C58.156 38.571 58.3864 38.8667 58.6603 39.2217C58.6589 39.2348 58.6502 39.3493 58.64 39.4652C58.5864 39.4594 58.5342 39.4522 58.4806 39.4464C58.4676 39.4667 58.4531 39.487 58.44 39.5072C58.5255 39.571 58.611 39.6333 58.6965 39.6971C58.7994 39.7725 58.9255 39.8333 58.9907 39.9333C59.0125 39.9652 58.8777 40.1015 58.798 40.213C58.8791 40.2319 58.9661 40.2522 58.9965 40.258C59.0458 40.4551 59.0864 40.6174 59.127 40.7797C59.198 40.771 59.2705 40.7638 59.4415 40.7435C59.1849 40.958 59.1444 41.1015 59.4516 41.2232C59.3719 41.2478 59.2907 41.2725 59.211 41.2986ZM67.4762 38.3667C67.1516 38.5522 66.8299 38.7449 66.4965 38.9145C66.056 39.142 65.6226 39.4217 65.1516 39.5377C64.8907 39.6029 64.8226 39.6391 64.8197 39.8797C64.8197 39.913 64.6212 39.9449 64.5139 39.9768C64.5023 39.9116 64.4907 39.8478 64.4719 39.7377C64.3545 39.7986 64.2067 39.8739 64.0733 39.942C63.982 39.9696 63.8502 39.9725 63.827 40.0232C63.7458 40.2101 63.6139 40.187 63.4502 40.1971C63.1386 40.2174 62.7936 40.1942 62.5878 40.5174C62.2096 40.4044 61.8878 40.6029 61.6328 41.1449C61.6574 40.8623 61.6777 40.6319 61.6994 40.387C61.7632 40.4174 61.8313 40.4493 61.898 40.4797C61.9197 40.4594 61.9429 40.4391 61.9661 40.4188C61.827 40.2043 61.7038 39.9768 61.5473 39.7768C61.4023 39.5913 61.2197 39.4333 61.0545 39.2638C61.1023 39.1841 61.1603 39.0928 61.2516 38.9435C61.111 38.9783 61.0328 38.9986 60.9864 39.0101C60.94 38.8217 60.9342 38.6319 60.8429 38.5C60.7994 38.4377 60.5936 38.4899 60.4516 38.4899C60.4241 38.2623 60.4023 37.987 60.3429 37.7188C60.3357 37.6826 60.1473 37.6841 60.0183 37.6638C60.0241 37.6348 60.0487 37.5348 60.0762 37.4159C59.9748 37.2362 59.8241 37.2609 59.6444 37.3449C59.5922 37.3681 59.5052 37.3159 59.4502 37.2348C59.5632 37.2029 59.6762 37.171 59.8704 37.1159C59.698 37.0261 59.598 36.9754 59.4081 36.8754C59.5835 36.8623 59.6589 36.8551 59.7342 36.8493C59.7531 36.5319 60.0502 36.2217 60.356 36.0986C60.7328 35.9464 61.0893 35.742 61.4531 35.558C61.7473 35.4087 62.0357 35.2493 62.3328 35.1072C62.7226 34.9217 63.1313 34.7725 63.5067 34.5623C63.8762 34.3565 64.2023 34.0739 64.569 33.8638C64.8357 33.713 65.1371 33.6246 65.3791 33.5261C65.469 33.7188 65.5719 33.842 65.5777 33.971C65.5849 34.1493 65.5502 34.3087 65.9067 34.2609C65.7849 34.3507 65.7429 34.3826 65.7125 34.4044C65.8371 34.6986 65.9603 34.9913 66.0835 35.2826C66.0994 35.2783 66.1139 35.2754 66.1299 35.2725C66.1299 35.2015 66.1299 35.1304 66.1299 35.0333C66.1878 35.0551 66.269 35.0638 66.2762 35.0928C66.3386 35.3014 66.3878 35.513 66.4342 35.7246C66.5096 36.071 66.5299 36.4391 66.8444 36.6841C66.8777 36.7087 66.8922 36.7739 66.8951 36.8217C66.911 37.2174 67.2603 37.4058 67.44 37.7C67.4487 37.7145 67.54 37.6797 67.6183 37.6623C67.6096 37.9044 67.6487 38.1101 67.9994 38.0565C67.8255 38.1594 67.6531 38.2652 67.4762 38.3667ZM70.4371 29.5333C70.5371 29.5507 70.6357 29.5667 70.7603 29.587C70.7473 29.5275 70.7516 29.4696 70.7255 29.4406C70.5284 29.229 70.4965 29.0333 70.6618 28.7623C70.8922 28.3855 71.0603 27.9696 71.2632 27.5493C71.3371 27.6029 71.4255 27.6348 71.4545 27.6942C71.7531 28.3145 72.0676 28.9304 72.3241 29.5681C72.4429 29.8609 72.4313 30.2029 72.498 30.5203C72.5473 30.7507 72.6139 30.9797 72.6994 31.2C72.7444 31.3159 72.8473 31.4087 72.94 31.5348C72.7661 32.1986 73.04 32.6957 73.64 32.9435C73.4154 33.158 73.198 33.3638 72.969 33.5826C72.5038 33.3957 72.3168 33.0826 72.5849 32.5507C72.4299 32.5812 72.3473 32.5971 72.2951 32.6087C72.2168 32.442 72.1502 32.3 72.0676 32.1246C72.227 31.7913 72.156 31.5681 71.8067 31.342C71.7444 31.3015 71.7371 31.1754 71.6965 31.0667C71.6313 31.0783 71.5502 31.0928 71.4255 31.1145C71.4719 30.9942 71.5081 30.9029 71.5531 30.7855C71.4284 30.7913 71.3168 30.7971 71.1589 30.8043C71.1922 30.5913 71.2748 30.3783 71.24 30.1855C71.2081 30.0058 71.0516 29.8478 70.9502 29.6826C70.8371 29.713 70.7357 29.7406 70.6516 29.7638C70.5994 29.9087 70.5516 30.0464 70.5038 30.1826C70.482 30.1783 70.4589 30.1725 70.4371 30.1681C70.4371 29.9667 70.4371 29.7638 70.4371 29.5333ZM70.0487 33.1913C70.0806 33.2551 70.0212 33.3623 69.9965 33.4884C70.156 33.4072 70.2907 33.3391 70.4299 33.2696C70.3429 33.5652 70.2371 33.7913 70.2299 34.0203C70.2284 34.1072 70.4516 34.2015 70.5762 34.2957C70.5936 34.4159 70.5545 34.6522 70.6516 34.7391C70.9183 34.9783 70.9096 35.2609 70.8835 35.487C71.0241 35.5 71.1458 35.5101 71.2676 35.5217C71.2661 35.5609 71.2632 35.6015 71.2618 35.642C71.1719 35.6493 71.082 35.6565 70.9647 35.6652C71.0386 35.8913 71.1052 36.0942 71.169 36.2899C70.9038 36.487 70.6502 36.6681 70.4067 36.8609C70.3429 36.9116 70.3067 37 70.2618 37.0739C70.1994 37.1768 70.1429 37.2826 70.0603 37.4304C70.0299 37.3116 70.0168 37.2087 69.9791 37.1174C69.9081 36.9435 69.9864 36.6942 69.711 36.6087C69.656 36.5928 69.64 36.4348 69.6096 36.342C69.5733 36.2261 69.54 36.1087 69.5052 35.9928C69.4096 36.0406 69.3139 36.0913 69.2168 36.1362C69.2023 36.142 69.1762 36.1261 69.156 36.1203C69.1864 35.7638 69.1864 35.7638 68.8023 35.7551C68.7791 35.6333 68.7545 35.5072 68.7313 35.3812C68.7777 35.4319 68.8255 35.4812 68.8719 35.5304C68.9618 35.4275 69.0516 35.3246 69.1415 35.2203C68.3878 34.8391 68.5067 34.0797 68.0212 33.6913C68.0212 33.8232 68.0212 33.9464 68.0212 34.0725C67.7647 34.0391 67.7255 33.9594 67.8299 33.742C67.8632 33.6725 67.8951 33.5304 67.8705 33.5159C67.6125 33.3609 67.5864 33.0971 67.5212 32.8493C67.5081 32.8 67.4705 32.7565 67.4197 32.6725C67.3241 32.8449 67.2458 32.9855 67.169 33.1275C67.1299 33.1174 67.0922 33.1072 67.0545 33.0971C67.0835 32.8826 67.1125 32.6696 67.1429 32.4362C67.1531 32.4377 67.098 32.4319 67.0429 32.4275C67.0458 32.4058 67.0386 32.3739 67.0502 32.3638C67.2661 32.1754 67.4762 31.9797 67.7023 31.8043C67.8516 31.687 68.0342 31.6116 68.182 31.4928C68.3458 31.3594 68.4777 31.1899 68.6386 31.0536C68.7168 30.987 68.8357 30.9116 68.9212 30.9261C69.0473 30.9493 69.1618 31.0478 69.3241 31.1377C69.3183 31.1536 69.2864 31.229 69.2676 31.3058C69.2531 31.3623 69.2357 31.4696 69.2516 31.4754C69.54 31.5913 69.4009 31.8043 69.4241 32.0087C69.4545 32.2797 69.6357 32.5377 69.7719 32.7928C69.8473 32.9348 69.9791 33.0478 70.0487 33.1913ZM63.6545 25.5855C64.0618 25.5507 64.4632 25.4754 64.869 25.4333C65.2907 25.3884 65.7139 25.3623 66.1357 25.3246C66.711 25.2739 67.2864 25.1971 67.8632 25.1783C68.2197 25.1681 68.5791 25.2667 68.9386 25.2783C69.3023 25.2913 69.6038 25.3841 69.7618 25.742C69.527 25.8464 69.6618 26.0594 69.7023 26.213C69.74 26.3565 69.8241 26.4638 69.6878 26.6029C69.6516 26.6391 69.6936 26.7609 69.7139 26.8391C69.7777 27.0739 69.7545 27.2725 69.5791 27.4681C69.3067 27.7739 69.1125 28.171 68.7965 28.4116C67.982 29.029 67.1226 29.5855 66.2748 30.158C65.7618 30.5043 65.2342 30.8275 64.7212 31.1725C64.427 31.371 64.1516 31.5957 63.8589 31.7971C63.8212 31.8232 63.7342 31.7812 63.6038 31.7594C63.2183 31.9551 62.756 32.1725 62.311 32.4203C62.1212 32.5261 61.9835 32.729 61.7922 32.829C61.6168 32.9203 61.3791 32.8928 61.2067 32.987C60.9183 33.1435 60.6676 33.3667 60.3864 33.5391C60.2806 33.6044 60.1328 33.6 60.0096 33.6435C59.3574 33.8667 58.7038 34.087 58.056 34.3246C57.8893 34.3855 57.7429 34.5058 57.569 34.6087C57.5777 34.5754 57.5878 34.5362 57.598 34.4986C57.3125 34.4594 57.0733 34.5 56.9632 34.8203C56.9545 34.8406 56.6893 34.8072 56.6878 34.7913C56.6733 34.5594 56.5284 34.6348 56.4052 34.6551C55.7589 34.7623 55.1154 34.8826 54.4676 34.971C54.1052 35.0203 53.7342 35.0101 53.369 35.042C53.2241 35.0551 53.0835 35.1217 52.9371 35.142C52.8429 35.1551 52.7386 35.1406 52.6444 35.1174C52.5023 35.0826 52.3994 34.8957 52.2067 35.0522C52.1676 35.0841 51.9487 34.9826 51.8922 34.8928C51.7762 34.7087 51.5371 34.6217 51.5357 34.3377C51.5342 33.9246 51.4531 33.513 51.4313 33.0986C51.4139 32.7754 51.5516 32.5203 51.7922 32.2826C52.1835 31.8942 52.5009 31.4275 52.9023 31.0522C53.3951 30.5928 53.9444 30.1913 54.469 29.7667C54.9299 29.3957 55.3791 29.0101 55.856 28.6623C56.2719 28.358 56.7255 28.1043 57.1531 27.8145C57.3791 27.6623 57.5806 27.4739 57.8038 27.3174C57.9081 27.2449 58.0357 27.2029 58.156 27.1594C58.4676 27.0464 58.7965 26.9696 59.0922 26.8246C60.5371 26.1232 62.0589 25.7232 63.6545 25.5855ZM26.3603 85.2116C26.0647 85.2 25.9415 84.9377 25.7893 84.7638C25.498 84.4304 25.056 84.629 24.7052 84.342C24.356 84.0551 23.7661 84.058 23.2762 83.9333C22.8081 83.9551 22.3951 84.1087 22.082 84.4594C21.4154 85.2073 20.7444 85.9536 20.1096 86.729C19.8429 87.0536 19.7023 87.4812 19.4328 87.8029C19.1328 88.1609 19.2878 88.5826 19.2139 88.9609C19.1589 89.2464 19.3777 89.6565 19.5951 89.9072C19.9241 90.2841 20.34 90.5928 20.7487 90.8913C21.2415 91.2507 21.7675 91.5623 22.4183 91.5203C22.4473 91.5188 22.4835 91.5174 22.5038 91.5319C22.9444 91.8507 23.3023 91.8667 23.7328 91.5783C23.8502 91.5 23.9762 91.4333 24.0791 91.3377C24.3647 91.0696 24.6907 90.8246 24.9096 90.5072C25.269 89.987 25.5951 89.4362 25.8647 88.8652C26.2487 88.0536 26.6936 87.2551 26.7067 86.3174C26.7096 86.1015 26.7038 85.8841 26.7212 85.6696C26.7415 85.3986 26.2806 85.5203 26.3603 85.2116ZM24.5255 87.5696C24.4299 87.9667 24.3168 88.3594 24.2125 88.7551C24.1719 88.9116 24.1357 89.071 24.0965 89.2319C23.9139 89.2319 23.7777 89.2319 23.6313 89.2319C23.5806 89.0188 22.6284 88.6319 22.2748 88.7145C22.1516 88.2246 21.2255 88.3435 21.4864 87.5754C21.3429 87.6174 21.2589 87.642 21.1748 87.6667C21.1574 87.6232 21.1371 87.5899 21.1444 87.5841C21.4241 87.3217 21.6733 87.0072 21.998 86.8188C22.2704 86.6623 22.6125 86.5797 22.9632 86.7449C23.1748 86.8435 23.4415 86.8232 23.6603 86.913C23.94 87.029 24.2009 87.1942 24.4589 87.3551C24.5081 87.3855 24.54 87.5043 24.5255 87.5696Z" fill="white"/>
</g>
</svg>
