<svg width="465" height="606" viewBox="0 0 465 606" fill="none" xmlns="http://www.w3.org/2000/svg">
<path d="M394.809 415.422C426.084 372.701 465 319.518 465 255.578C465 218.258 454.092 184.646 432.574 155.672C414.301 131.078 388.733 110.502 356.576 94.5135C342.246 87.3884 327.51 81.573 312.827 76.8451C307.971 70.6671 302.433 64.7999 296.204 59.2434C270.59 36.4403 232.924 19.1641 187.281 9.27926C149.37 1.07399 107.455 -1.82634 69.2678 1.12578C-2.98685 6.71188 -105.589 41.1607 -160.108 103.592C-187.762 135.259 -199.967 170.521 -196.392 208.403C-193.508 238.975 -181.932 267.764 -166.536 293.549C-166.774 300.94 -166.544 308.383 -165.846 315.871C-162.025 356.313 -146.085 397.317 -118.476 437.759C-96.9969 469.204 -69.0739 499.583 -35.4742 528.046C-8.83994 550.613 16.4212 567.763 41.759 580.496C75.4355 597.425 108.897 606 141.185 606C168.302 606 194.615 599.992 219.408 588.132C223.282 586.282 227.087 584.321 230.83 582.302C237.113 585.942 243.265 588.798 249.341 590.906C257.403 593.696 265.274 595.087 272.906 595.087C282.066 595.087 290.88 593.074 299.288 589.064C327.548 575.547 347.562 549.887 367.246 522.556C368.643 520.625 370.085 518.657 371.542 516.659C384.767 498.599 399.749 478.126 399.749 455.368C399.749 443.034 396.32 432.054 389.577 422.554C391.288 420.238 393.021 417.871 394.809 415.422ZM-192.902 208.107C-196.392 171.158 -184.456 136.731 -157.423 105.774C-103.556 44.0832 -2.00494 10.0339 69.5516 4.50704C79.0486 3.76716 88.952 3.38982 99.1163 3.38982C167.413 3.38982 247.492 20.4737 293.826 61.7368C298.566 65.9541 302.893 70.3712 306.813 74.9732C255.953 59.5837 206.467 56.7944 177.393 56.7944C165.963 56.7944 154.717 57.2161 143.962 58.0448C100.167 61.4334 51.6395 73.3751 7.33855 91.6797C-45.2089 113.395 -88.7121 142.865 -118.43 176.899C-147.289 209.935 -163.521 247.624 -166.229 287.223C-180.03 263.043 -190.24 236.326 -192.902 208.107ZM310.664 79.7233C326.658 100.469 334.759 124.789 334.759 152.328C334.759 200.442 302.494 244.524 274.026 283.412C270.751 287.881 267.652 292.106 264.583 296.368C221.901 355.61 178.574 411.197 117.895 440.215C59.6789 468.057 -5.02737 450.766 -79.9056 387.328C-103.901 366.996 -138.337 333.702 -163.015 292.705C-161.481 251.908 -145.379 213.02 -115.753 179.082C-86.38 145.447 -43.3371 116.296 8.71169 94.802C52.6828 76.638 100.804 64.7777 144.23 61.426C154.901 60.5974 166.047 60.183 177.385 60.183C207.172 60.183 258.546 63.1203 310.664 79.7233ZM217.858 585.113C193.556 596.737 167.773 602.626 141.193 602.626C109.472 602.626 76.5631 594.177 43.3853 577.5C18.3083 564.9 -6.73804 547.89 -33.1575 525.508C-66.5194 497.245 -94.2353 467.102 -115.538 435.909C-142.832 395.941 -158.581 355.454 -162.348 315.575C-162.869 310.07 -163.115 304.595 -163.115 299.142C-138.452 338.378 -105.481 370.156 -82.2069 389.874C-48.9064 418.085 -18.1834 436.826 11.7341 447.192C29.1553 453.222 46.1393 456.233 62.6093 456.233C82.3625 456.233 101.364 451.905 119.46 443.249C180.891 413.875 224.532 357.926 267.475 298.299C270.536 294.059 273.628 289.834 276.895 285.373C305.662 246.07 338.272 201.522 338.272 152.335C338.272 125.751 330.931 102.068 316.394 81.6026C329.366 85.99 342.338 91.2432 354.988 97.5322C386.647 113.277 411.801 133.505 429.743 157.662C450.824 186.037 461.517 218.991 461.517 255.593C461.517 318.468 422.947 371.155 391.963 413.483C390.406 415.607 388.902 417.671 387.422 419.698C385.297 417.079 382.926 414.578 380.264 412.211C355.379 390.059 309.904 382.793 275.891 385.427C242.697 387.994 195.55 403.835 170.466 432.55C157.67 447.207 152.017 463.543 153.681 481.093C157.164 518.013 188.056 549.251 206.152 564.589C213.493 570.811 220.558 576.013 227.455 580.282C224.279 581.939 221.088 583.567 217.858 585.113ZM385.281 422.584C384.422 423.782 383.563 424.959 382.711 426.135C340.95 484.112 294.9 543.295 230.922 578.402C223.658 574.022 216.171 568.569 208.446 562.021C190.733 547.017 160.524 516.519 157.149 480.768C155.584 464.143 160.961 448.65 173.135 434.703C197.56 406.735 243.664 391.279 276.151 388.771C280.47 388.446 284.981 388.268 289.607 388.268C320.59 388.268 356.89 396 377.871 414.674C380.663 417.168 383.126 419.809 385.281 422.584ZM396.251 455.375C396.251 477.068 381.607 497.067 368.689 514.721C367.223 516.726 365.774 518.694 364.377 520.64C344.954 547.601 325.247 572.89 297.738 586.045C278.453 595.264 257.533 593.429 234.336 580.393C298.068 544.849 343.964 485.866 385.596 428.066C386.202 427.215 386.816 426.372 387.437 425.521C393.29 434.222 396.251 444.218 396.251 455.375Z" fill="#1AC09D"/>
</svg>
