<svg width="162" height="244" viewBox="0 0 162 244" fill="none" xmlns="http://www.w3.org/2000/svg">
<mask id="mask0_377_414" style="mask-type:luminance" maskUnits="userSpaceOnUse" x="0" y="0" width="162" height="244">
<path d="M0.0761719 0.351074H161.328V243.449H0.0761719V0.351074Z" fill="white"/>
</mask>
<g mask="url(#mask0_377_414)">
<path d="M144.224 202.569C144.224 202.22 143.662 201.841 143.568 201.185C143.434 200.334 143.395 199.508 143.39 198.657C143.379 197.407 143.89 195.956 142.055 195.31C142.033 195.305 142.055 195.197 142.055 195.105C142.583 194.869 143.668 194.777 142.467 193.967C142.322 193.865 142.422 193.618 142.517 193.429C142.811 192.865 142.633 192.727 141.96 192.824C141.56 192.88 141.009 192.809 140.72 192.578C140.359 192.291 141.065 192.327 141.076 192.086C141.076 192.024 141.093 191.937 141.059 191.906C140.481 191.343 140.615 190.42 139.914 189.943C139.213 189.472 139.118 188.595 138.384 188.144C137.867 187.826 137.021 187.754 137.11 186.888C137.116 186.837 136.955 186.77 136.877 186.709C135.242 185.401 133.59 184.099 131.721 183.09C130.336 182.341 129.129 181.152 127.294 181.342C127.121 181.362 127.027 181.178 126.915 181.049C126.37 180.409 125.536 180.004 124.785 180.229C123.995 180.465 123.612 179.301 122.889 179.963C122.877 179.876 122.839 179.788 122.85 179.706C122.928 179.255 122.572 179.24 122.26 179.23C121.671 179.214 120.981 179.163 120.553 178.958C119.718 178.548 119.757 178.994 119.663 179.624C119.201 178.435 118.439 178.179 117.282 178.44C116.854 178.533 116.047 178.568 115.842 178.41C114.818 177.589 113.934 178.04 113.005 178.456C112.888 178.512 112.688 178.656 112.666 178.548C112.471 177.559 111.637 178.476 111.153 178.112C110.853 177.892 110.486 178.276 110.708 178.681C110.102 178.85 110.402 178.005 109.952 178.163C108.934 178.533 107.666 177.835 106.804 178.809C106.776 178.84 106.592 178.814 106.548 178.763C106.203 178.363 105.758 178.594 105.374 178.63C101.642 179.014 97.91 179.465 94.1724 179.799C93.1879 179.886 92.2869 180.204 91.3413 180.363C90.6183 180.486 89.7006 180.198 89.1944 180.783C88.6827 181.377 87.4424 180.147 87.3924 181.495C87.2978 181.485 87.1532 181.511 87.1198 181.465C86.7472 180.993 86.3078 181.331 85.8851 181.342C84.9229 181.372 84.1053 181.859 83.1764 182.013C81.3521 182.31 79.678 183.074 77.8926 183.53C76.4687 183.899 75.1839 184.761 73.6933 185.104C73.126 185.232 72.631 185.673 72.0748 185.735C71.5131 185.791 70.9847 185.658 70.7066 186.293C70.6009 186.539 70.2839 186.55 70.1115 186.309C69.6276 185.632 69.0046 185.883 68.6153 186.268C68.1926 186.693 67.781 186.862 67.1914 186.816C66.0735 186.724 65.3004 187.426 64.5718 187.995C64.01 188.431 63.4705 187.939 62.9421 188.293C61.852 189.026 60.8342 189.846 59.6828 190.512C58.4036 191.245 57.4358 192.316 56.4235 193.337C54.2433 195.536 51.9573 197.658 49.9773 200.021C48.6925 201.559 47.6134 203.214 46.5066 204.86C45.6612 206.116 45.6278 207.566 44.8269 208.771C44.7991 208.807 44.8658 208.889 44.8714 208.956C44.9826 210.083 44.838 211.242 45.3052 212.339C45.4443 212.667 45.2941 213.046 45.0494 213.338C44.8937 213.518 44.7824 213.677 44.8047 213.938C44.8825 214.876 44.9159 215.814 44.9715 216.752C44.9938 217.137 45.1662 217.485 45.283 217.849C45.4943 218.516 45.7113 217.762 45.9615 217.921C45.7168 218.403 45.2274 218.91 45.2774 219.361C45.5667 221.873 45.5555 224.441 46.9683 226.758C48.2419 228.86 49.1875 231.167 51.5457 232.53C51.6236 232.576 51.6458 232.761 51.6347 232.874C51.5791 233.468 51.9796 233.827 52.4245 234.14C53.1086 234.622 53.8706 235.022 54.5102 235.55C55.2388 236.144 56.0509 236.616 56.8129 237.154C57.5026 237.641 58.5315 237.446 59.0154 238.23C59.0933 238.369 59.2434 238.179 59.3602 238.138C59.7273 237.995 59.9721 238.143 60.2835 238.359C61.2791 239.04 62.2524 239.82 63.376 240.26C64.8554 240.84 66.4461 241.25 68.0313 241.516C69.2494 241.726 70.473 242.321 71.7745 241.839C72.6421 242.649 73.8101 242.459 74.8669 242.603C76.1295 242.767 77.4031 242.864 78.6657 242.998C79.995 243.131 81.3187 243.274 82.6425 243.413C85.9908 243.413 89.3391 243.413 92.6873 243.413C93.7775 243.075 94.9344 242.752 96.0467 242.87C97.8266 243.049 99.4951 242.449 101.236 242.511C102.131 242.541 103.01 242.239 103.867 242.234C105.146 242.229 106.314 241.875 107.532 241.701C108.695 241.532 109.69 240.64 110.969 241.034C111.031 241.05 111.147 240.942 111.22 240.881C111.887 240.291 112.76 240.076 113.595 239.804C115.347 239.235 116.965 238.456 118.523 237.487C119.201 237.062 119.924 236.042 121.092 236.78C121.276 236.893 121.415 236.698 121.437 236.529C121.493 236.072 121.876 235.878 122.249 235.724C123.083 235.38 123.745 234.806 124.618 234.458C125.597 234.063 126.598 233.381 127.499 232.735C129.101 231.582 130.97 230.762 132.477 229.542C133.64 228.599 134.674 227.44 135.525 226.2C136.298 225.072 136.209 223.447 137.811 222.791C137.85 222.77 137.889 222.663 137.872 222.622C137.578 222.068 137.772 221.966 138.373 222.083C138.601 222.13 138.84 221.894 138.901 221.678C139.141 220.858 138.879 219.833 140.053 219.413C140.075 219.402 140.092 219.264 140.058 219.233C139.675 218.849 139.964 218.736 140.314 218.552C140.859 218.259 141.332 217.906 140.659 217.285C140.57 217.203 140.548 216.891 140.609 216.855C141.499 216.342 141.293 215.414 141.649 214.717C142.506 213.041 142.984 211.273 143.601 209.535C143.79 208.997 143.935 208.53 143.245 208.12C142.828 207.879 142.884 207.382 143.268 207.028C143.501 206.818 143.757 206.634 144.035 206.408C143.084 206.111 142.951 205.931 143.484 205.265C144.152 204.44 144.235 203.471 144.224 202.569ZM72.72 233.504C72.6588 233.699 72.5031 233.884 72.275 233.827C71.6354 233.668 71.1237 233.966 70.5731 234.155C70.4785 234.186 70.3117 234.242 70.2783 234.207C69.5163 233.402 68.3316 233.884 67.4139 233.366C66.6631 232.946 65.6508 232.853 64.8554 233.617C64.4494 233.099 65.4839 232.699 64.7553 232.248C63.8432 231.685 63.6318 232.771 63.0089 232.843C62.7363 232.587 62.9811 232.371 63.0144 232.136C63.109 231.403 63.1368 230.726 62.0188 230.572C61.2847 230.465 60.9843 229.48 60.0555 229.598C60.0332 229.603 59.9331 229.373 59.9498 229.27C59.9999 229.045 60.2279 229.055 60.367 229.142C61.1234 229.624 62.0522 229.66 62.8754 230.008C64.5495 230.716 66.2459 231.454 68.1147 231.69C68.6765 231.761 69.2104 231.069 69.8 231.685C70.5064 232.418 71.7522 232.387 72.4252 233.197C72.5086 233.299 72.7812 233.279 72.72 233.504ZM106.692 233.643C106.664 233.771 106.247 233.853 106.247 233.443C106.247 233.381 106.08 233.248 106.047 233.263C105.146 233.648 103.995 233.012 103.222 233.832C102.905 234.171 102.727 234.273 102.521 233.776C102.415 233.509 102.154 233.509 101.903 233.561C99.7566 234.012 97.5373 233.822 95.3849 234.176C95.0567 234.232 94.495 234.017 94.4004 234.617C94.3782 234.776 94.1612 234.714 94.0444 234.678C92.6206 234.222 91.1967 234.56 89.7618 234.586C88.883 234.601 88.0209 234.309 87.3256 235.037C87.2867 235.073 87.1866 235.093 87.131 235.078C84.7616 234.309 82.2976 234.611 79.8671 234.535C79.5 234.524 79.3276 234.473 79.3331 234.155C79.3443 233.812 79.0884 233.602 78.9438 233.412C80.6624 233.412 82.4423 233.632 84.0997 233.33C85.0286 233.156 85.8239 233.11 86.7027 233.268C87.1755 233.35 87.5537 232.761 88.1599 233.151C88.3935 233.299 88.4046 232.751 88.4825 232.484C88.6271 232.623 88.8774 232.869 88.8885 232.863C89.7395 232.171 90.4348 233.366 91.2412 233.022C92.1756 232.623 93.1601 233.028 94.1501 232.858C95.2458 232.674 96.3693 232.31 97.4483 232.325C98.6108 232.341 99.7621 232.218 100.891 232.115C102.593 231.961 104.406 232.207 105.964 231.228C106.459 230.921 106.965 230.972 106.998 231.705C107.009 232.069 106.954 232.377 107.299 232.74C107.638 233.099 106.781 233.233 106.692 233.643ZM117.666 228.194C117.121 228.481 117.371 228.932 117.316 229.301C117.182 230.183 116.615 230.664 115.708 230.834C115.08 230.951 114.529 231.157 114.301 231.818C113.617 231.382 113.834 229.983 112.471 230.608C112.466 230.172 112.749 230.295 112.922 230.239C113.283 230.126 113.834 230.162 113.372 229.537C113.144 229.224 113.378 228.722 113.689 228.614C114.857 228.209 115.936 227.543 117.215 227.466C117.761 227.43 117.738 228.158 117.666 228.194ZM122.154 216.409C121.882 216.547 121.582 216.732 121.448 216.968C121.214 217.383 120.998 217.588 120.491 217.326C120.291 217.224 120.024 217.311 119.919 217.46C119.145 218.464 117.744 218.172 116.754 218.808C115.719 219.474 114.523 220.033 113.311 220.335C110.953 220.92 108.884 222.268 106.397 222.478C105.035 222.591 103.667 222.693 102.298 222.837C100.836 222.986 99.3783 223.17 97.9211 223.36C97.4928 223.411 97.1313 224.134 96.9645 223.949C96.4695 223.401 95.9021 223.708 95.3904 223.657C94.0333 223.519 92.6985 223.77 91.3692 224.021C90.8964 224.108 90.5182 224.467 89.9286 224.139C89.5504 223.929 89.2667 224.498 88.794 224.867C88.6716 224.072 88.2767 224.277 87.6927 224.257C85.8017 224.195 83.9329 224.472 82.0474 224.406C81.7804 224.4 81.4355 224.185 81.3688 224.713C81.3187 225.123 81.0406 225.016 80.8349 224.739C80.4288 224.195 80.3788 224.185 79.9783 224.754C79.7558 225.067 79.3776 225.354 79.1997 224.954C78.7269 223.872 77.6479 224.313 76.8692 224.072C76.4465 223.939 75.9348 223.883 75.4565 223.831C75.1228 223.79 74.6945 223.575 74.422 224.011C74.2217 224.324 73.838 224.19 73.6711 224.083C72.3918 223.232 70.9012 223.38 69.4607 223.196C68.8711 223.119 68.276 222.658 67.6586 222.406C66.5518 221.96 65.4227 221.607 64.188 221.643C64.099 221.643 63.9488 221.602 63.9155 221.54C63.3426 220.448 62.0355 220.689 61.0956 220.315C60.595 220.12 60.328 219.766 59.9053 219.546C58.6761 218.926 57.4692 218.218 56.3735 217.449C55.7283 216.993 54.5436 216.67 54.488 216.163C54.4046 215.348 53.815 214.897 53.5703 214.241C53.0308 212.8 52.736 211.329 53.4924 209.904C53.8317 209.268 53.2755 208.879 53.3089 208.356C53.3311 208.053 53.0864 207.736 53.3979 207.367C53.815 207.73 53.7427 208.464 54.5659 208.505C54.9997 208.525 55.2444 208.592 55.2333 208.13C55.2222 207.49 55.389 206.972 55.9953 206.546C56.3679 206.285 56.4458 205.772 56.5459 205.321C56.8073 204.081 57.4747 202.825 58.4481 202.169C59.4214 201.513 60.3336 200.657 61.5238 200.246C62.3081 199.975 62.7363 199.262 63.4538 198.873C63.8487 198.652 63.9155 198.017 63.6541 197.258C64.366 197.929 64.6385 197.571 65.1224 197.273C66.3015 196.551 67.6586 196.079 68.8656 195.392C70.651 194.372 72.7089 194.003 74.5999 193.224C75.6122 192.803 76.8914 192.696 78.0205 192.373C80.5123 191.65 83.1041 191.409 85.6181 190.861C87.8429 190.379 90.1177 190.333 92.3369 189.876C93.5995 189.62 94.9566 189.784 96.2581 189.682C97.2481 189.6 98.2993 189.784 99.217 189.231C99.3783 189.133 99.6564 189.026 99.7955 189.092C100.93 189.61 102.065 189.179 103.16 189.041C104.801 188.841 106.442 188.692 108.094 188.61C112.377 188.39 116.542 188.836 120.681 189.928C123.156 190.584 125.547 191.296 127.711 192.593C129.235 193.506 130.52 194.654 131.76 195.874C132.733 196.833 133.028 198.186 133.929 199.067C134.73 199.862 134.313 200.585 134.513 201.323C134.736 202.158 134.007 203.204 135.186 203.845C135.414 203.973 135.18 204.347 135.086 204.568C134.174 206.7 132.989 208.715 131.693 210.657C131.07 211.585 129.897 212.149 128.862 212.744C126.654 214.01 124.435 215.261 122.154 216.409ZM136.855 213.641C135.931 214.943 135.853 216.481 135.214 217.849C134.713 218.916 134.463 220.033 133.339 220.807C132.6 221.315 132.589 222.422 131.715 222.934C131.587 223.011 131.526 223.268 131.41 223.288C129.213 223.606 127.722 225.144 125.859 226.036C124.935 226.476 124.079 226.969 122.916 226.876C123.55 226.138 123.756 225.328 123.395 224.452C123.328 224.288 123.356 224.262 123.5 224.185C124.763 223.493 125.753 222.437 127.266 222.053C127.872 221.899 128.428 221.273 128.884 220.817C129.958 219.751 131.749 219.346 132.244 217.757C133.568 217.301 134.118 216.055 135.019 215.209C135.881 214.405 136.743 213.379 137.194 212.211C137.25 212.067 137.35 211.934 137.522 211.631C137.589 212.528 137.194 213.159 136.855 213.641ZM83.3044 60.1413C82.9706 60.4899 82.7259 60.9 82.1697 60.3361C81.8583 60.0286 81.5023 60.2797 81.3132 60.5719C81.0629 60.9718 80.6458 61.2229 80.351 61.5664C79.7558 62.2635 78.6323 62.6428 78.7324 63.786C78.7491 63.95 78.5267 64.1294 78.2875 64.1192C77.5255 64.073 77.5923 64.56 77.5533 65.0213C77.4921 65.7082 77.5033 66.4156 76.8748 66.9641C76.6412 67.1743 76.5244 67.528 76.5967 67.8612C76.719 68.4045 76.3853 68.8556 76.3074 69.3426C76.1795 70.1371 75.234 70.8958 76.3408 71.9671C75.6789 71.7621 75.1839 71.434 75.2451 72.1722C75.323 73.1102 74.5721 73.8023 74.3441 74.6788C73.9548 76.1654 73.304 77.6212 72.8368 79.1282C72.5754 79.9689 73.6655 79.728 73.393 80.3226C73.3262 80.4764 73.8936 80.2354 74.1661 80.1688C74.3218 80.1329 74.4831 80.097 74.6389 80.0663C73.8824 80.5789 74.1717 81.5477 73.5376 82.0706C73.1705 82.3781 73.1816 82.7165 73.4375 83.106C73.7378 83.5469 74.1272 83.4802 74.7279 83.1112C74.4831 83.6545 74.2885 83.9057 74.5832 84.2953C75.3397 85.2692 75.5399 86.5661 76.6467 87.3555C76.7635 87.4375 76.808 87.6375 76.8414 87.7912C77.0583 88.7191 77.6423 89.3291 78.649 89.5443C78.9494 89.6059 78.8548 89.775 78.8159 89.8878C78.6435 90.3081 78.966 90.5234 79.1941 90.8054C80.9795 93.0249 83.3155 94.7114 85.5124 96.5465C87.1143 97.8844 88.9886 98.8532 90.7351 99.981C92.9821 101.437 95.2681 102.867 97.7042 104.066C98.8611 104.641 99.9568 105.327 101.036 106.019C102.109 106.711 103.439 106.614 104.607 107.168C106.275 107.957 108.172 108.367 110.013 108.798C112.043 109.275 114.129 109.582 116.164 110.013C117.66 110.33 119.262 109.956 120.664 110.72C120.909 110.858 121.342 110.93 121.57 110.817C122.405 110.423 123.311 110.725 124.034 110.823C125.775 111.048 127.538 111.304 129.279 111.638C130.208 111.812 131.504 112.514 132.316 111.166C132.394 111.704 132.644 112.145 133.256 111.925C134.43 111.499 135.614 111.961 136.821 111.756C137.622 111.617 138.818 112.084 139.413 111.663C140.264 111.063 140.965 111.412 141.749 111.335C142.394 111.274 142.978 110.843 143.696 111.181C143.974 111.31 144.057 110.93 144.258 110.843C144.703 110.653 144.803 109.71 145.364 110.131C145.693 110.377 145.031 110.956 144.686 111.33C144.669 111.351 144.725 111.433 144.758 111.52C145.381 111.479 145.826 111.187 146.182 110.71C146.972 109.633 147.439 108.383 148.362 107.373C149.169 106.501 149.725 105.476 150.442 104.543C151.533 103.113 152.389 101.534 153.351 100.022C154.102 98.8327 154.925 97.6896 155.543 96.4235C156.16 95.1728 156.922 93.9835 157.69 92.7994C158.407 91.687 158.646 90.4722 158.613 89.083C158.913 89.3906 158.63 89.7955 159.024 89.8212C159.353 89.8365 159.414 89.4982 159.542 89.2778C159.775 88.8728 159.597 88.4576 159.297 88.2423C158.802 87.8886 159.036 87.6887 159.225 87.2991C159.748 86.2073 160.565 85.1667 160.176 83.8442C159.948 83.065 161.183 82.4909 160.576 81.64C160.571 81.6297 160.665 81.5528 160.726 81.5221C161.767 80.9377 160.971 80.7173 160.471 80.461C159.558 79.9996 158.785 79.4922 159.33 78.3593C159.464 78.0876 159.158 78.062 158.997 77.9902C157.684 77.4059 157.634 77.3751 158.085 76.109C158.251 75.6425 158.251 75.2222 157.818 75.0223C157.183 74.7301 157.039 73.9253 156.238 73.8433C156.027 73.8228 156.01 73.6331 156.054 73.4639C156.188 72.9052 155.715 72.695 155.37 72.3823C154.758 71.8287 153.958 71.557 153.285 71.0957C151.076 69.604 148.752 68.261 146.432 66.9077C145.07 66.1183 143.54 65.6108 142.255 64.7086C141.749 64.3549 141.032 64.2832 140.637 63.7603C140.32 63.3349 139.869 64.1294 139.558 63.6322C139.23 63.1196 138.712 62.8274 138.106 62.6275C136.832 62.2123 135.631 61.756 134.496 60.9718C133.195 60.0747 131.404 59.8594 129.98 59.1981C128.428 58.4702 126.877 57.8449 125.252 57.281C124.251 56.9324 123.172 56.6761 122.188 56.4711C121.409 56.3122 120.508 55.4408 119.535 56.1789C119.418 56.2712 119.123 56.1789 119.079 55.9175C119.029 55.5997 118.784 55.6304 118.511 55.5382C117.544 55.205 116.509 55.1383 115.569 54.8974C114.101 54.5232 112.621 54.4976 111.164 54.2208C110.313 54.0618 109.34 53.9542 108.772 55.1281C108.856 54.1695 108.227 54.0157 107.599 53.9952C106.781 53.9645 105.958 53.8876 105.135 54.1285C104.734 54.2464 104.317 54.149 104.284 54.6975C104.273 54.841 104.056 54.9589 103.867 54.9025C103.672 54.841 103.667 54.6513 103.667 54.4924C103.661 54.2618 103.861 53.8722 103.366 53.985C102.804 54.1131 101.992 53.7133 101.737 54.595C101.664 54.8256 101.42 54.7795 101.219 54.6565C100.263 54.0824 99.6286 54.108 98.9278 54.8C98.6108 55.1076 98.3104 55.1127 98.0602 54.8256C97.3983 54.0721 97.1424 54.3899 96.9533 55.1229C96.8699 55.4561 96.6029 55.6663 96.208 55.6971C96.0634 54.8205 96.0634 54.8205 95.2959 55.3177C95.2236 55.3639 95.0567 55.4202 95.0345 55.3946C94.4727 54.7692 94.1668 55.2767 93.822 55.6202C93.6162 55.8252 93.5216 55.656 93.3381 55.5382C92.4871 54.9999 90.8519 55.615 90.7573 56.5326C90.546 55.6458 90.1845 56.0251 89.8174 56.3788C89.289 56.8863 88.8774 57.6296 87.893 56.8966C87.5648 56.6505 87.0531 56.8402 86.6471 57.1221C85.3901 57.9987 84.3389 59.0597 83.3044 60.1413ZM106.514 89.6571C106.036 91.2359 104.985 92.4764 103.945 93.7323C103.483 94.2859 103.283 94.9728 102.743 95.5111C102.187 96.0647 101.692 95.9878 101.242 95.5931C100.296 94.7524 99.0113 94.5269 97.9489 93.9015C97.8655 93.8502 97.7431 93.8348 97.6764 93.7733C96.297 92.5072 94.3392 92.0254 92.9265 90.8207C92.2368 90.2364 91.4915 89.7238 90.7963 89.1548C90.4737 88.8831 89.8174 89.3086 89.6895 88.4986C89.606 88.0014 89.5226 87.6118 89.8007 87.1915C90.7462 85.7613 91.4804 84.1979 92.8764 83.0496C93.2324 82.7575 93.466 82.4294 93.5717 82.0091C93.6162 81.8194 93.6496 81.6246 93.9944 81.6092C94.1223 81.681 94.3114 81.763 94.4727 81.8809C96.336 83.2649 98.4995 84.2235 100.446 85.4948C102.332 86.7301 104.323 87.8271 106.27 88.9856C106.548 89.1496 106.631 89.2727 106.514 89.6571ZM110.107 95.9365C109.318 96.8336 108.778 97.9101 108.127 98.9045C107.999 98.2894 107.66 98.0382 107.059 97.8793C106.587 97.7563 106.425 97.4231 106.753 96.9207C107.849 95.2599 108.867 93.558 109.718 91.7793C109.974 91.2462 110.252 90.9438 110.964 91.3282C111.526 91.6358 112.199 91.7639 112.866 91.7844C113.572 91.8049 113.595 92.1279 113.161 92.4662C111.898 93.4453 111.12 94.778 110.107 95.9365ZM122.455 95.6802C121.315 97.2129 120.085 98.6841 119.068 100.289C118.817 100.683 118.261 100.606 117.911 100.478C117.266 100.242 116.809 100.35 116.426 100.986C116.342 100.237 115.013 99.5606 114.29 99.9605C113.533 100.381 113.439 99.658 113.033 99.535C112.749 99.4479 113.022 98.9455 113.189 98.7046C113.823 97.7973 114.295 96.8182 115.091 95.9724C115.63 95.4034 116.225 94.8191 116.665 94.1732C116.976 93.7169 117.232 93.7272 117.672 93.8707C118.65 94.1834 119.635 94.491 120.63 94.7627C121.02 94.8703 121.431 95.0241 121.849 94.8601C122.132 94.7473 122.444 94.7268 122.605 94.9626C122.755 95.1881 122.599 95.4854 122.455 95.6802ZM147.834 100.376C147.45 100.868 147.255 101.468 146.749 101.898C146.327 102.252 146.082 102.729 145.287 102.385C144.703 102.139 144.53 102.903 144.169 103.205C143.991 103.349 143.879 103.636 143.601 103.503C143.312 103.364 143.429 103.123 143.596 102.934C143.724 102.785 143.751 102.657 143.546 102.544C143.34 103.21 142.122 101.893 142.166 103.159C142.177 103.538 141.721 103.682 140.715 103.795C140.737 103.441 141.471 103.354 141.16 102.985C140.932 102.703 140.492 102.677 140.108 102.672C139.346 102.657 138.573 102.611 137.817 102.672C136.799 102.754 135.831 102.247 134.791 102.529C133.951 102.759 132.967 101.888 132.166 102.77C132.133 102.811 131.91 102.795 131.888 102.754C131.17 101.565 129.863 101.97 128.896 102.037C127.922 102.103 127.116 101.673 126.187 101.724C125.614 101.749 125.069 101.468 124.396 101.519C123.595 101.58 123.918 100.796 124.084 100.432C124.49 99.5145 125.019 98.6431 125.503 97.7563C125.658 97.4692 125.842 97.1975 125.998 96.9105C126.087 96.7362 126.153 96.4901 126.365 96.4748C127.372 96.3825 128.389 96.6696 129.402 96.4389C130.086 97.5 131.282 96.9874 132.233 97.1617C134.324 97.5461 136.471 97.6025 138.59 97.5359C140.815 97.4692 143.106 97.5102 145.236 96.8131C146.933 96.2595 148.763 96.0185 150.337 95.2343C151.015 94.8959 151.85 94.7319 152.322 94.0553C152.395 94.1168 152.473 94.1783 152.545 94.2347C150.976 96.2851 149.413 98.3355 147.834 100.376ZM88.1321 63.1811C88.4102 62.7454 89.5671 62.6736 90.3402 62.6377C91.6361 62.5813 92.9265 62.5813 94.228 62.4634C95.8465 62.3199 97.504 62.9094 99.1225 62.648C100.863 62.3609 102.465 63.217 104.234 62.9043C105.28 62.7197 106.409 63.4015 107.549 63.5502C114.229 64.437 120.569 66.3336 126.648 69.0504C129.268 70.2191 131.905 71.352 134.469 72.6284C138.835 74.8018 143.128 77.0881 147.289 79.5947C148.824 80.5225 149.608 81.9937 150.837 83.1214C151.733 83.9467 151.805 85.1462 152.806 85.9305C152.172 86.1919 151.599 86.3662 151.11 86.6123C150.159 87.089 149.38 87.7502 148.129 87.3658C147.828 87.2786 147.217 87.6272 146.683 87.6528C146.271 87.6733 145.776 87.7502 145.47 88.1244C145.359 88.2577 145.442 88.5755 145.136 88.5294C144.686 88.4628 145.236 88.0527 144.719 87.822C144.586 88.0014 144.458 88.3551 144.219 88.4371C143.957 88.5294 143.651 88.9651 143.217 88.2833C142.761 87.5708 141.749 88.2167 141.015 88.35C140.637 88.4217 140.381 88.6934 140.125 88.227C140.064 88.1193 139.875 88.0373 139.764 88.1398C139.324 88.5499 138.946 88.2423 138.473 88.1706C137.044 87.9553 135.57 87.74 134.146 87.7349C132.444 87.7246 130.909 86.9762 129.257 87.0736C127.961 87.1505 127.071 86.3201 125.937 86.074C125.108 85.8946 124.312 85.5255 123.439 85.7511C123.139 85.8331 123.078 85.7306 123.028 85.4999C122.972 85.2538 122.738 85.1052 122.499 85.0898C120.48 84.9668 118.856 83.8544 117.021 83.2701C116.303 83.0394 115.63 82.6806 114.907 82.4909C112.404 81.8194 110.38 80.297 108.083 79.2769C107.032 78.8104 106.186 77.9902 104.907 77.8006C104.406 77.7288 103.856 76.9445 103.227 76.5703C101.981 75.8219 100.786 74.9915 99.5229 74.2585C98.7665 73.8228 98.6442 73.3204 99.2782 72.3977C98.3216 72.9616 97.5596 73.4127 97.1647 72.2747C95.6352 72.2439 95.0901 70.9009 94.0055 70.2807C93.9721 70.2653 93.9499 70.2243 93.9221 70.2243C93.1712 70.2448 93.0822 69.4502 92.6039 69.2657C91.8364 68.9786 91.6806 68.3123 91.2023 67.8714C90.6906 67.3947 89.9453 67.1538 89.556 66.513C89.2946 66.0876 89.111 65.616 88.8552 65.1905C88.3713 64.4011 87.5036 64.1243 86.914 63.4784C87.4313 63.6014 87.6927 63.8731 88.1321 63.1811ZM85.3901 74.7403C86.3801 75.5964 87.4758 76.3294 88.3045 77.3597C88.7884 77.9646 90.051 78.1389 89.9676 78.9949C89.8897 79.728 89.3168 80.4866 88.7773 81.0864C88.1043 81.8348 87.7706 82.7626 87.1254 83.4956C86.6693 84.0236 86.9252 84.8028 86.1854 85.2436C85.4735 84.5157 84.5947 83.9723 83.4601 83.8698C83.2376 83.8493 83.0541 83.6186 83.1876 83.4392C83.5213 82.9933 83.6826 82.6344 83.0708 82.25C82.4979 81.886 82.1364 82.2449 81.6803 82.578C81.3855 81.6861 81.7859 80.8506 81.1741 80.1688C80.4622 79.3845 79.7837 78.5797 79.1496 77.7391C78.8771 77.3802 78.6935 78.185 78.0539 78.1902C79.2886 75.4631 81.0573 73.0077 81.4967 70.1064C81.925 70.132 82.0474 70.3524 82.1586 70.5934C82.8983 72.1978 84.0441 73.5716 85.3901 74.7403ZM0.993331 49.9866C0.120108 50.2224 0.41489 50.6171 0.698549 51.1092C1.28811 52.1345 1.91661 53.1494 2.46168 54.1797C2.94001 55.0922 4.10801 55.4408 4.34718 56.4711C4.36942 56.5736 4.69758 56.6402 4.89781 56.6864C5.10916 56.7325 5.28158 56.8145 5.42063 56.9734C6.32722 58.0397 7.35618 58.9982 8.61318 59.7108C9.88686 60.4284 11.0271 61.3306 12.4787 61.8329C13.7691 62.2738 14.9593 62.8376 16.3498 62.2789C16.6112 62.1764 16.8671 62.1251 17.1619 62.1969C17.846 62.366 18.3466 62.0687 18.7581 61.5971C19.1586 62.038 19.598 62.1866 20.2877 62.161C21.6782 62.1097 22.963 61.5818 24.4091 61.674C25.5103 61.7458 26.7395 61.305 27.8241 61.2742C30.9555 61.1871 33.9978 60.7052 37.0458 60.1516C37.9969 59.9824 38.9257 59.6954 39.8768 59.5211C40.4107 59.4186 41.0003 59.4801 41.1727 58.8188C41.2061 58.6804 41.3173 58.6497 41.4898 58.7214C41.8568 58.865 43.5699 58.5061 43.9092 58.3523C44.7435 57.9781 45.3219 56.6915 46.5734 57.7065C46.7903 57.8808 47.0072 57.5629 47.1685 57.4245C47.8693 56.8197 48.698 56.4352 49.6213 56.225C51.073 55.9021 52.2521 55.0204 53.6537 54.5898C55.5503 54.0055 57.0854 52.8111 58.8096 51.9397C59.3714 51.6526 60.0499 51.6936 60.5227 51.2835C61.6963 50.2686 63.2925 49.9251 64.6163 49.1203C65.3671 48.6692 66.2793 48.2592 66.9801 47.7466C68.0369 46.9725 69.5219 46.624 70.0948 45.3168C70.117 45.2656 70.2004 45.1887 70.2449 45.1989C71.0737 45.3168 71.3351 44.5223 71.9302 44.2403C72.8201 43.8149 73.5098 42.9793 74.2773 42.313C75.9181 40.8725 77.253 39.2066 78.5934 37.556C79.5 36.4334 80.2564 35.198 81.1408 34.0754C83.3655 31.2612 84.3722 27.8831 86.3245 24.9562C86.4468 24.7716 86.6137 24.4846 86.5414 24.3308C86.102 23.4081 86.4302 22.4341 86.2411 21.5012C86.1688 21.1578 86.0798 20.7887 85.6404 20.6708C85.1954 20.5529 84.9896 20.8656 84.7505 21.1526C84.9618 20.6964 84.9896 20.2248 85.2955 19.8045C86.2466 18.4922 85.9852 17.3491 84.5947 16.411C84.35 16.247 84.4223 16.0112 84.5947 15.9343C85.3678 15.5857 84.9841 15.2577 84.5836 14.9706C83.8383 14.4426 83.6158 13.7762 83.8216 12.9561C83.8717 12.7715 83.9607 12.5665 83.6603 12.4947C83.4434 12.4486 83.3822 12.9868 83.093 12.6536C82.8705 12.3922 83.2154 12.1872 83.2487 11.9462C83.2821 11.6899 83.0596 11.5515 82.9818 11.367C82.7092 10.7365 82.014 10.3162 82.2253 9.40885C82.3366 8.92701 81.0406 8.46566 81.5968 7.59423C81.5301 7.5686 81.4689 7.53785 81.4022 7.52247C80.6569 7.29692 80.5512 6.81507 80.8349 6.2307C81.0907 5.69247 80.9517 5.43104 80.3454 5.22087C80.084 5.12348 79.5834 5.18499 79.5556 4.72877C79.4889 3.60104 79.0105 3.84709 78.5433 4.39045C77.6868 3.90348 78.827 2.46819 77.2307 2.35029C77.1807 2.34516 77.1306 2.19138 77.0972 2.09911C77.0138 1.88894 76.9693 1.61214 76.6523 1.65827C76.3575 1.69928 76.3742 1.97609 76.3186 2.19651C75.9682 3.44726 75.2618 3.72919 74.5443 2.79625C74.0048 2.08886 73.3596 1.74029 72.6088 1.31995C70.8568 0.35113 69.1715 0.351129 67.4306 1.20205C67.1581 1.33533 66.8077 1.46861 66.791 1.15079C66.7687 0.556171 66.3627 0.715078 66.0179 0.64844C65.3783 0.530541 64.8109 0.879112 64.1824 0.8176C61.9632 0.597179 59.7829 1.06365 57.6194 1.32508C55.4335 1.59163 53.3033 2.25802 51.1564 2.7655C50.9395 2.81676 50.6781 2.87314 50.6113 3.15508C50.4667 3.78558 50.4389 3.81121 49.955 3.47802C49.7492 3.33961 49.6213 3.17046 49.3376 3.30373C48.2364 3.82146 46.8515 3.85735 46.1062 4.9697C45.9894 5.14398 45.6834 5.41566 45.5555 5.09272C45.3108 4.4981 45.0271 4.93382 44.7769 5.00045C44.2095 5.13886 44.0371 5.73348 43.4921 6.01028C43.5365 5.77449 43.6589 5.53356 43.5866 5.45667C43.3753 5.25163 43.1416 5.43617 42.9359 5.53869C40.7 6.64592 38.4919 7.78902 36.2337 8.84499C31.5561 11.0389 27.279 13.7557 23.2967 16.8878C22.6682 17.385 22.1064 17.9642 21.4446 18.4204C19.6258 19.6558 17.9795 21.0911 16.4054 22.5623C13.7747 25.0279 11.244 27.6012 8.81897 30.2411C7.23382 31.9686 5.79328 33.8191 4.5919 35.808C3.78542 37.1356 3.2181 38.5453 2.67303 39.9755C2.17802 41.2621 0.926589 42.2976 1.188 43.8354C1.22137 44.025 1.02114 44.0763 0.882093 44.1737C0.0756114 44.7324 0.704112 45.5321 0.515005 46.2036C0.398205 46.6188 0.6763 46.7572 1.13238 46.6957C1.28811 46.6752 1.33261 46.8598 1.24918 46.9879C0.631805 47.8952 1.44941 47.8696 2.07235 47.9824C1.39935 48.3463 0.826474 48.7256 0.676301 49.4433C1.04895 49.5919 1.11013 49.0691 1.44941 49.228C1.56621 49.6176 1.31592 49.8995 0.993331 49.9866ZM39.9602 52.2011C39.5431 52.1498 39.1148 52.2165 38.7477 52.4113C38.2027 52.7086 37.83 53.0213 36.9957 52.7547C36.2115 52.5087 36.4284 53.3186 36.6954 53.8158C34.5429 53.4262 32.5072 53.2212 30.4438 53.7133C30.0711 53.8004 29.7207 53.7543 29.526 54.1695C29.4092 54.4104 28.9754 54.5437 28.8141 54.3592C28.269 53.744 27.7351 54.1285 27.2512 54.3387C26.9509 54.4617 26.8118 54.5334 26.4559 54.3797C26.0888 54.2259 25.4102 54.1797 25.1655 54.3848C24.3701 55.0461 23.6415 55.4561 22.5013 55.0819C22.29 55.0153 22.0286 55.1588 21.7783 54.8461C21.4612 54.4514 21.0441 54.6257 20.7604 54.9743C20.5991 55.1691 20.5936 55.4664 20.3266 55.5894C19.8149 55.4459 20.5046 54.7744 19.9261 54.7795C19.331 54.7846 18.6469 54.5488 18.1408 55.0563C17.6346 55.5638 17.312 55.7945 16.7002 55.0204C16.4388 54.6924 15.7491 54.313 15.1763 54.1234C14.5311 53.9183 14.0639 53.498 13.4521 53.216C13.8136 52.9649 14.1584 52.8367 14.5533 52.8316C14.7202 52.8265 14.976 52.8419 15.0483 52.7547C15.5322 52.155 15.9661 51.5501 16.9561 52.0729C17.0562 52.1293 17.3843 51.7244 17.4122 52.2677C17.4233 52.524 17.8293 52.4984 18.0295 52.3805C18.519 52.1037 19.2253 52.2934 19.5869 51.7141C19.7482 51.4527 19.9929 51.7808 20.1987 51.8218C20.6548 51.9192 21.0886 52.0832 20.7382 51.3604C20.5658 51.0119 20.9106 50.9606 21.1386 51.0375C22.0508 51.3297 22.9963 50.4992 23.9085 51.1503C24.1254 51.3092 24.4257 51.099 24.6427 50.9145C24.8763 50.7248 25.121 50.4839 25.4547 50.5403C25.8162 50.6018 26.2556 50.9196 26.4225 50.4172C26.556 50.002 26.111 49.7662 25.7106 49.5868C25.9664 49.4382 26.1833 49.4587 26.3446 49.5868C27.3124 50.325 27.3124 50.325 27.8853 49.2331C28.1801 50.4736 28.6639 50.0174 29.4927 49.6791C30.4493 49.2895 31.5561 49.0127 32.624 48.9153C33.5251 48.8333 33.9255 48.0029 34.7988 47.9208C34.8933 47.9106 34.5485 47.0904 35.1269 46.7265C35.2437 46.9264 34.96 47.4851 35.6998 47.2391C36.8455 46.8598 38.0692 46.6701 39.2594 46.4087C39.6933 46.3113 40.077 46.1831 40.1493 46.8803C40.1716 47.1109 40.2049 48.1977 41.2728 47.6594C41.5343 47.5313 41.6066 48.0182 41.5009 48.1515C40.789 49.0178 41.2283 49.8482 41.512 50.694C41.8402 51.6731 41.1171 52.3549 39.9602 52.2011ZM52.825 48.4796C51.657 48.0644 50.8171 48.3155 50.0384 48.8589C49.866 48.9768 49.5657 48.9461 49.3265 48.9768C49.0095 49.0178 48.7648 48.8333 48.5923 48.6641C48.3587 48.4232 48.6313 48.1977 48.7926 48.0131C49.2486 47.4749 49.4322 47.0187 48.431 46.8956C47.9861 46.8444 47.8804 46.5214 48.0028 46.2805C48.5757 45.1323 47.6746 45.2604 46.6679 45.1835C47.6301 44.6453 47.3242 43.9789 47.2408 43.4048C47.1462 42.7794 47.4299 42.4103 47.9305 42.1387C48.4755 41.8414 49.1374 41.8465 49.5879 41.2519C49.7993 40.975 50.2387 41.5697 50.2887 41.9029C50.4945 43.3792 51.2954 44.6761 51.6681 46.1011C51.7849 46.5471 52.3077 46.5061 52.8305 46.5112C52.5024 47.1109 52.3411 47.6748 52.825 48.4796ZM64.4438 42.0772C63.2758 42.6769 62.1023 43.2715 61.0733 43.7892C60.0833 43.82 59.8997 43.1536 59.5493 42.723C59.3491 42.4719 59.3213 42.1079 58.8541 42.1592C58.8207 42.1592 58.754 42.1438 58.754 42.1387C58.7484 40.9648 56.4347 40.7956 57.269 39.2476C57.319 39.1553 57.2634 38.9964 57.2189 38.8785C56.8073 37.8892 57.2133 37.3714 58.3035 37.1818C58.9765 37.0639 59.4437 36.582 59.9276 36.1873C60.2112 35.9566 60.5894 35.5004 60.7952 35.7311C61.0956 36.0746 61.7241 36.2232 61.6851 36.8281C61.6573 37.2279 61.5739 37.6534 62.3526 37.6175C62.7808 37.6021 62.8086 38.0891 62.6807 38.4582C62.4527 39.1194 62.6696 39.6166 63.2536 40.0575C63.8376 40.5035 63.8543 41.3339 64.5217 41.7542C64.6329 41.826 64.594 42.0054 64.4438 42.0772ZM76.8636 22.0343C77.0694 21.5166 77.303 21.0245 77.7146 20.6605C79.1051 20.9681 78.4321 22.0343 78.5322 22.7673C78.6212 23.4286 78.7213 24.0488 79.0828 24.6178C79.1774 24.7716 79.2608 24.8895 79.183 25.0535C78.7936 25.9404 79.3832 26.4171 80.1897 26.8733C79.4444 27.0681 79.2108 27.4679 79.1997 28.0933C79.1774 29.5696 78.1818 30.6666 77.3976 31.8507C76.3297 33.4603 74.9615 34.8545 73.6711 36.3001C73.1205 36.9203 72.6421 37.8635 71.5131 36.7922C71.2294 36.5205 70.4285 36.6333 69.939 36.9716C69.7722 36.6128 69.978 36.4539 70.117 36.2796C70.4841 35.8182 70.8123 35.5004 69.9891 34.9981C69.5386 34.7213 68.7488 34.1523 69.1437 33.2809C69.2494 33.0451 68.9768 32.7477 68.6709 32.7529C68.226 32.758 67.7977 32.5735 67.8477 32.2351C67.9312 31.6969 67.9757 31.0151 68.6375 30.7537C69.9947 30.2206 70.9068 29.2415 71.8913 28.2778C72.5031 27.6832 73.2373 27.2219 73.7934 26.5093C74.9281 25.0741 76.1795 23.7259 76.8636 22.0343ZM6.63869 44.7324C7.27831 44.3429 7.8067 43.7021 7.43405 43.1229C6.29385 41.3544 7.63984 40.119 8.42963 38.8426C9.38072 37.3151 10.5154 35.8541 11.7557 34.5162C12.5621 33.6448 13.5633 32.9272 14.3587 32.0096C15.5712 30.6051 17.0784 29.4158 18.7025 28.4624C19.6481 27.9088 20.1319 26.8784 21.3111 26.5862C21.706 26.494 22.1231 25.9814 22.3678 25.6789C23.2411 24.582 24.7984 24.382 25.6549 23.3107C26.0387 22.8288 26.8396 22.9006 27.3402 22.4239C28.7029 21.127 30.6774 20.6605 32.1791 19.5892C33.2303 18.8408 34.6931 18.769 35.4884 17.7079C36.3839 17.9745 36.8066 17.2107 37.4184 16.9031C38.5809 16.3136 39.849 15.9292 41.0337 15.3756C41.7567 15.0373 42.6856 14.8527 43.531 14.6067C45.7613 13.9454 47.8971 13.0381 50.1719 12.4947C51.162 12.2589 52.3188 12.1564 53.0864 11.6694C54.0041 11.0902 54.9886 11.3311 55.884 11.0953C56.8963 10.8236 58.0754 10.6442 59.1878 10.5622C60.684 10.4546 62.1356 10.1829 63.6096 9.97785C63.9433 9.92658 64.2547 9.75743 64.6107 9.92658C64.7442 9.99322 65.0223 10.0086 65.1057 9.93171C66.2348 8.86037 67.5975 9.7318 68.8322 9.56264C69.4385 9.48062 70.1782 9.29608 70.4563 10.3828C70.6621 11.1773 71.9525 11.3568 72.809 11.6284C73.393 11.813 73.2428 11.0133 73.4431 10.6186C73.8658 10.9518 74.3274 11.1825 73.8769 11.7258C73.7712 11.854 73.6655 12.0693 73.8324 12.1615C75.2006 12.9151 73.4431 14.1043 74.3052 14.9142C73.8936 16.3854 73.4875 17.8566 73.0704 19.3226C72.7033 20.6093 71.8746 21.5678 70.6676 22.3162C68.8878 23.4183 67.286 24.787 65.3393 25.6277C63.1757 26.5555 61.2791 27.8677 59.2434 28.9801C58.0977 29.6004 56.7517 30.0053 56.0008 31.1587C55.9341 31.2663 55.5781 31.3227 55.428 31.2561C54.9997 31.0869 54.6215 31.2458 54.3434 31.4355C52.7471 32.5325 50.6614 33.004 49.4934 34.6546C49.4266 34.7469 49.2709 34.8648 49.1763 34.8494C47.6468 34.6136 46.6623 35.6235 45.461 36.1771C43.5588 37.0485 41.9236 38.3249 40.0047 39.1809C38.5753 39.8217 36.9457 40.1293 35.761 41.2108C34.7431 40.8982 34.1814 41.6466 33.4806 42.0618C33.2748 42.1797 33.0634 42.3181 32.9244 42.4924C32.7242 42.7589 32.5962 43.0665 32.1401 42.9896C31.6396 42.8973 31.9344 42.4462 31.6729 42.154C31.2169 42.7999 30.2658 42.559 29.7652 43.1587C29.5817 43.374 29.3647 43.2203 29.2924 43.0152C29.1423 42.5898 28.5972 42.7179 28.5249 42.7845C27.6294 43.615 26.428 43.1946 25.4046 43.4663C24.3145 43.7482 23.1966 43.943 22.0953 44.1942C21.2221 44.3941 20.5602 44.6966 20.0874 45.4091C19.8983 45.6859 19.5201 45.7269 19.1475 45.6039C19.0919 45.2861 19.7092 45.2092 19.4645 44.8811C19.2031 44.5428 18.8138 44.7324 18.4967 44.794C17.2064 45.0605 15.9327 45.4962 14.6312 45.5834C13.6801 45.65 12.6956 45.5372 11.739 45.7166C11.1494 45.8294 10.5098 45.7987 10.1205 46.383C9.95917 46.624 9.51977 46.5829 9.4141 46.3471C9.00807 45.4603 8.37401 45.9268 7.79557 46.0755C7.50635 46.1472 7.20045 46.4087 6.95016 46.0857C6.67206 45.7269 6.42178 45.3271 6.24936 44.917C6.17149 44.7273 6.51077 44.8093 6.63869 44.7324ZM39.4708 170.956C39.6488 171.341 40.1771 171.007 40.5275 171.115C41.156 171.305 41.7567 171.033 42.363 171.033C43.0916 171.028 43.4476 170.367 44.1039 170.356C45.55 170.341 46.9071 169.87 48.2864 169.588C49.3543 169.372 50.45 168.952 51.5179 168.573C52.1297 168.352 52.7749 168.004 53.1976 167.691C53.7371 167.296 54.2989 167.025 54.8773 166.896C56.1009 166.62 57.1911 166.148 58.2924 165.6C59.2045 165.143 60.1834 164.759 61.1846 164.426C62.1523 164.113 63.1257 163.508 64.01 162.878C65.5896 161.75 67.2637 160.761 68.7154 159.448C69.7611 158.505 70.6009 157.413 71.641 156.475C72.9592 155.291 74.3107 154.107 75.323 152.656C75.5399 152.344 75.9014 152.082 76.2574 151.903C76.6801 151.682 76.9248 151.364 77.1529 150.995C77.6145 150.242 78.104 149.519 78.7102 148.842C79.6502 147.797 80.5623 146.695 81.2687 145.511C83.0263 142.553 84.4501 139.446 85.8851 136.35C86.8751 134.208 86.8473 131.875 87.003 129.589C87.0197 129.374 87.1032 129.046 86.8584 128.969C85.9463 128.677 86.2299 128.261 86.5915 127.739C86.8251 127.405 86.4468 125.293 86.1743 125.252C84.8061 125.037 85.379 124.273 85.5959 123.612C85.6626 123.397 85.7516 123.212 85.6571 122.971C85.1843 121.731 84.8005 120.475 83.5825 119.603C83.1987 119.332 82.7092 119.055 82.5201 118.583C82.0585 117.384 81.1463 116.846 79.856 117.03C79.6001 116.646 80.5067 116.2 79.7225 116.036C79.2608 115.943 78.7436 116.195 78.7269 115.462C78.7158 115.231 78.4877 115.328 78.3264 115.426C78.0595 115.58 78.0539 115.954 77.6924 116.051C77.481 115.108 75.9348 115.272 75.8959 114.18C75.8959 114.155 75.6956 114.093 75.6066 114.119C75.1951 114.231 75.0449 113.975 74.8836 113.719C74.5221 113.155 74.0271 113.001 73.2984 113.083C72.8535 113.129 72.2083 113.483 71.869 112.755C71.5742 112.13 71.1515 112.109 70.7288 112.694C70.4785 113.047 70.1115 113.181 69.5831 113.109C69.8723 112.509 70.0781 111.658 69.2994 111.597C68.3817 111.52 67.5029 111.386 66.6186 111.176C66.3794 111.12 66.168 111.207 65.8899 111.022C65.4839 110.751 64.8832 110.397 64.4995 111.217C64.2992 111.638 63.3871 111.627 63.3648 111.509C63.2592 110.889 62.1301 111.125 62.3025 110.33C62.3414 110.136 61.9966 110.11 61.7908 110.166C61.407 110.264 61.0233 110.074 60.6951 110.1C59.8997 110.156 58.7929 109.515 58.437 110.828C58.2312 110.443 58.437 109.741 57.8307 109.818C56.913 109.941 56.012 109.597 55.1554 109.797C54.5992 109.926 53.6871 109.433 53.4924 110.438C53.4757 110.52 53.1865 110.356 53.1031 110.223C52.6359 109.5 52.3355 109.603 52.0296 110.341C51.8906 110.679 51.5569 110.802 51.2621 110.407C51.0229 110.084 50.7392 110.11 50.3555 110.202C49.8215 110.33 49.2542 110.33 48.7036 110.392C48.0806 110.459 47.4633 110.536 46.9293 110.884C46.5789 111.115 46.4621 112.119 45.7001 111.187C45.5667 111.022 45.0494 111.299 44.9938 111.694C44.9715 111.843 44.966 112.13 44.7769 111.93C44.1929 111.31 43.7701 111.889 43.3141 112.043C42.4575 112.325 41.9736 113.14 40.8279 113.165C39.8824 113.181 38.9535 113.888 38.0135 114.272C36.3783 114.939 34.7821 115.718 33.247 116.523C31.1668 117.62 29.1478 118.865 27.2123 120.219C24.5759 122.059 22.1676 124.104 19.8928 126.324C17.529 128.63 15.2652 131.019 12.9515 133.367C11.4053 134.93 10.2706 136.745 9.0192 138.483C8.10704 139.744 8.0403 141.399 6.91679 142.609C6.73881 142.799 6.59976 143.137 6.55526 143.481C6.3161 145.321 6.00463 147.156 5.75434 148.996C5.68204 149.519 5.64311 149.97 5.22596 150.426C4.92005 150.76 3.86885 151.37 5.20928 151.836C5.32051 151.877 5.25933 151.974 5.22596 152.077C4.79769 153.23 4.94786 154.384 5.25933 155.532C5.3817 155.522 5.47069 155.537 5.50962 155.506C5.6876 155.337 5.8044 154.958 6.12699 155.189C6.45515 155.414 6.02132 155.532 5.93233 155.701C5.54299 156.429 5.04242 157.198 5.86558 157.9C6.32722 158.3 6.56083 158.669 6.43846 159.248C6.41621 159.351 6.62201 159.505 6.73881 159.617C8.03474 160.822 9.65882 161.632 10.9992 162.842C13.491 165.092 16.6557 166.604 19.6425 168.27C20.3933 168.691 21.3889 168.732 22.1509 169.321C22.7182 169.757 23.5915 169.787 24.2366 170.09C26.6283 171.223 29.2591 171.223 31.7953 171.658C32.1624 171.72 32.3626 171.505 32.5962 171.305C32.8854 171.059 33.4083 170.777 33.6085 171.013C34.3649 171.874 35.4272 171.397 36.3005 171.664C37.3239 171.971 38.0414 171.213 38.8979 170.961C39.3707 170.818 39.0814 170.285 39.1037 169.921C39.1148 169.762 39.2205 169.603 39.4263 169.593C39.7155 169.582 39.9825 169.68 40.1771 169.87C40.3162 170.003 40.2161 170.167 40.0881 170.29C39.8545 170.505 39.3095 170.608 39.4708 170.956ZM56.2178 158.372C55.3056 159.151 54.1265 159.474 53.0363 159.93C52.5802 160.12 52.3355 159.669 52.1742 159.31C52.113 159.156 52.3578 158.895 52.0296 158.843C51.7237 158.797 51.5068 158.951 51.4345 159.253C51.4011 159.402 51.3511 159.597 51.1397 159.587C50.9172 159.582 50.9172 159.376 50.8505 159.233C50.5112 158.556 50.8727 157.664 51.5513 157.249C52.697 156.547 53.9318 156.06 55.2333 155.675C55.9786 155.46 56.2456 155.757 56.3067 156.357C56.2678 156.936 55.9563 157.495 56.3512 158.049C56.4291 158.156 56.329 158.274 56.2178 158.372ZM78.4933 138.908C78.6546 139.882 78.4988 140.759 77.7257 141.466C77.6534 141.533 77.57 141.604 77.5311 141.686C75.7457 145.603 72.4753 148.499 69.4107 151.503C68.0702 152.815 66.296 153.748 64.7053 154.84C64.505 154.978 64.0211 155.199 63.9933 154.978C63.9155 154.384 62.7085 154.712 63.0589 153.907C63.2369 153.497 62.7864 153.466 62.6473 153.251C62.3915 152.861 62.0467 152.528 62.9644 152.267C64.0045 151.969 65.1168 151.595 65.6897 150.555C66.0902 149.832 67.1024 149.975 67.6698 149.417C68.3428 148.755 69.2438 148.279 69.9668 147.72C71.2405 146.741 72.5643 145.716 73.5209 144.388C73.8435 143.947 74.6111 143.788 74.9336 143.347C76.0572 141.83 77.6646 140.641 78.4933 138.908ZM26.1166 153.205C25.2545 153.164 24.3979 153.036 23.5414 152.907C21.6503 152.625 19.865 151.995 17.985 151.677C17.2397 151.554 16.6724 150.678 16.2441 150.001C15.9216 149.504 15.2041 149.268 15.2708 148.458C15.3097 148.048 14.5366 148.238 14.1751 148.268C13.3519 148.33 12.8013 148.202 12.8069 147.31C12.8069 147.248 12.7791 147.161 12.7346 147.135C11.155 146.228 12.2896 145.039 12.4064 144.003C12.5455 142.845 12.8625 141.733 13.6801 140.713C14.5978 139.569 15.3153 138.288 16.2998 137.165C16.817 136.576 17.5345 136.273 18.0796 135.715C19.0807 134.689 19.7982 133.428 21.0719 132.624C22.0508 132.003 23.0464 131.347 23.8918 130.619C25.0542 129.62 26.4336 128.897 27.6906 128.067C29.298 127.011 30.9332 125.868 32.9077 125.304C33.6864 125.078 34.5763 124.924 35.1158 124.196C35.4384 123.756 36.1169 123.802 36.5786 123.602C38.9924 122.571 41.5676 121.869 44.026 120.916C44.7435 120.634 45.6278 120.608 46.1896 119.993C46.2285 119.947 46.3398 119.901 46.3676 119.916C47.3409 120.536 48.3198 119.814 49.2931 119.932C50.0607 120.024 50.8116 119.814 51.5624 119.696C52.9974 119.465 54.4268 119.762 55.8618 119.773C58.8319 119.798 61.7129 120.577 64.6608 120.716C66.0902 120.782 67.4195 121.213 68.7766 121.459C70.0948 121.695 71.5186 122.084 72.6588 122.879C73.1816 123.243 73.6433 123.31 74.1883 123.043C74.8947 122.694 75.0838 123.053 75.2062 123.612C75.4454 124.719 76.0071 125.811 76.0794 126.877C76.1517 127.887 76.6745 128.969 76.0294 130.04C75.5733 130.799 76.2852 131.721 75.9292 132.516C74.7835 135.059 73.3819 137.386 70.9124 139.154C68.1703 141.123 65.3616 142.927 62.1635 144.173C60.189 144.942 58.2312 145.757 56.418 146.782C55.2833 147.428 53.9819 147.371 52.8472 148.012C50.7893 149.186 48.4366 149.786 46.1284 150.432C46.0617 150.452 45.9838 150.473 45.9393 150.519C45.0049 151.472 43.6422 151.216 42.4853 151.488C40.4163 151.98 38.2916 152.267 36.1892 152.62C35.6775 152.708 35.0602 152.615 35.2548 153.528C34.7932 152.718 34.4261 152.646 34.0535 153.348C33.792 153.83 33.564 153.769 33.4138 153.302C33.3526 153.118 33.2803 152.989 33.0857 153.02C31.3948 153.246 29.5928 152.779 28.0299 153.717C27.8686 153.81 27.7685 153.969 27.6517 153.728C27.3291 153.066 26.695 153.23 26.1166 153.205ZM35.1714 163.026C33.3638 162.954 31.545 162.826 29.7652 162.626C29.1645 162.56 28.4804 162.339 27.7963 162.36C27.3624 162.375 27.2957 161.622 26.8285 161.668C27.2512 161.54 27.6739 161.596 28.0633 161.683C28.8141 161.852 29.5149 161.863 30.2213 161.56C30.3103 161.519 30.4326 161.483 30.5105 161.509C32.1401 162.093 33.6697 161.427 35.2326 161.201C35.4272 161.171 35.7498 161.094 35.7777 160.986C35.9278 160.417 36.2115 160.653 36.5063 160.837C37.2182 161.283 37.9023 161.314 38.5586 160.73C38.7644 160.545 38.9646 160.489 39.2984 160.561C40.1493 160.74 40.8557 160.509 41.3062 159.551C41.6733 160.438 42.2573 160.309 42.8302 160.089C43.3196 159.899 43.798 159.951 44.0482 160.325C44.343 160.771 44.6601 161.335 44.5933 161.806C44.5321 162.247 43.8146 162.416 43.3141 162.442C40.5943 162.585 37.9134 163.139 35.1714 163.026Z" fill="white"/>
</g>
</svg>
