<svg width="102" height="110" viewBox="0 0 102 110" fill="none" xmlns="http://www.w3.org/2000/svg">
<path d="M54.4692 68.4561L50.0171 67.2223C50.523 66.3116 51.0301 65.2936 51.5384 64.1685C52.0633 63.0244 52.5678 61.846 53.0521 60.6334C53.554 59.4195 54.0218 58.2259 54.4553 57.0526C54.8888 55.8793 55.2741 54.7809 55.6113 53.7573C55.9662 52.7324 56.2596 51.8458 56.4916 51.0974C56.6361 50.623 56.7514 50.24 56.8376 49.9482C56.9415 49.6552 56.9884 49.4377 56.9782 49.2956C56.9719 49.2069 56.8875 49.1504 56.7251 49.1264C56.5806 49.101 56.3041 49.103 55.8957 49.1323C55.4162 49.1666 54.8056 49.2371 54.0636 49.3438C53.3217 49.4505 52.5366 49.5782 51.7084 49.7267C50.8803 49.8753 50.0724 50.0581 49.2848 50.2752C49.4981 51.2594 49.7742 52.248 50.113 53.241C50.4519 54.234 50.8592 55.1864 51.335 56.0982L47.1612 57.254C46.641 56.2204 46.193 55.0746 45.8173 53.8165C45.4416 52.5584 45.1363 51.2863 44.9014 50.0003C44.6652 48.6965 44.507 47.4853 44.4269 46.3666L44.3735 45.6209L48.5341 45.0283C48.5608 45.4012 48.5957 45.7645 48.6389 46.1184C49.41 45.9204 50.2541 45.7439 51.171 45.589C52.0867 45.4163 52.9954 45.2709 53.8972 45.1527C54.8154 45.0155 55.6563 44.9196 56.4198 44.8649C56.8815 44.8318 57.3894 44.8222 57.9437 44.836C58.5145 44.8308 59.0554 44.9081 59.5666 45.0678C60.0765 45.2097 60.5059 45.4734 60.8547 45.8589C61.2036 46.2444 61.4047 46.81 61.4582 47.5558C61.4951 48.0707 61.3982 48.8362 61.1676 49.8522C60.937 50.8681 60.6195 52.042 60.2152 53.3739C59.8096 54.6879 59.3464 56.0686 58.8254 57.5159C58.3222 58.9619 57.7993 60.3825 57.2568 61.7778C56.732 63.1718 56.2256 64.4484 55.7375 65.6078C55.2495 66.7671 54.8267 67.7166 54.4692 68.4561Z" fill="#FFC943"/>
<path d="M40.1447 94.3139C37.5261 92.845 37.3241 89.7863 37.9301 88.0597C38.5137 86.4054 40.823 85.2406 44.0999 84.7304C53.4193 83.2796 60.1951 84.0037 63.9433 86.7816C65.3623 87.8355 66.078 89.2039 65.9932 90.6985C65.9035 92.3322 65.0456 93.5047 63.4969 94.015C62.7862 94.2469 61.9682 94.3603 61.0679 94.2598C56.2773 93.7238 53.6887 93.5305 53.1999 93.5356C52.4567 93.5408 51.726 93.5356 50.9554 93.5279C50.1474 93.5228 49.3544 93.5176 48.514 93.5228C47.3294 93.5331 46.1049 93.5666 44.858 93.6619C41.6933 93.9041 39.8354 94.7777 39.0549 95.8987C38.6533 96.4785 38.6234 96.9423 39.5586 97.6381C41.3941 99.0038 45.9877 100.233 53.6014 101.032C57.7711 101.47 60.3622 100.73 61.5642 99.5012C63.2027 97.8288 63.3199 96.2285 62.2051 94.5329C61.9258 94.1103 62.033 93.5382 62.4395 93.2522C62.8485 92.9662 63.4022 93.0744 63.679 93.497C65.3174 95.9863 65.0182 98.5658 62.8211 100.813C61.0255 102.648 57.7212 103.315 53.4193 102.864C45.878 102.073 40.798 100.831 38.5162 99.1352C36.9925 98.0014 36.4862 96.4295 37.6059 94.8215H37.6084C38.8728 93.0048 41.439 92.0745 44.7258 91.8246C46.0276 91.7241 47.292 91.6906 48.5015 91.6803C49.3569 91.6725 50.1599 91.6803 50.9679 91.6854C51.7385 91.6906 52.4617 91.6983 53.1874 91.6906C53.8009 91.688 56.5067 91.8942 61.26 92.4276C61.8984 92.4997 62.4645 92.4173 62.9558 92.2575C63.7937 91.9818 64.1628 91.4716 64.2127 90.5928C64.255 89.8584 63.9408 89.0493 62.9009 88.2788C59.7686 85.957 53.6288 85.1118 44.3667 86.5523C41.0599 87.0676 39.803 88.1319 39.6085 88.6885C39.192 89.8687 39.4065 91.8014 40.9975 92.6956C41.4315 92.9378 41.5911 93.497 41.3542 93.9454C41.1197 94.3912 40.5786 94.5587 40.1447 94.3139Z" fill="#FFC943"/>
<mask id="mask0_345_1383" style="mask-type:luminance" maskUnits="userSpaceOnUse" x="38" y="99" width="25" height="11">
<path d="M38.6484 99.0991H62.1622V109.585H38.6484V99.0991Z" fill="white"/>
</mask>
<g mask="url(#mask0_345_1383)">
<path d="M42.6029 99.2183C42.4241 99.2183 42.2429 99.2729 42.0865 99.3871C39.1721 101.517 38.3678 103.739 39.6761 106.05L39.6959 106.082C40.6988 107.688 43.3426 108.741 47.6273 109.245C49.3353 109.473 50.9191 109.583 52.3738 109.573C54.9729 109.553 57.1699 109.153 58.9647 108.369L59.0193 108.344C61.5539 107.026 62.1819 104.933 60.9084 102.068C60.7595 101.733 60.4318 101.537 60.0892 101.539C59.97 101.539 59.8509 101.564 59.7367 101.616C59.2874 101.815 59.0863 102.339 59.2849 102.788C60.1066 104.637 59.7441 105.966 58.2001 106.767H58.1951C56.6287 107.438 54.6899 107.783 52.3738 107.798C50.9985 107.808 49.4916 107.703 47.8507 107.482L47.8359 107.48C44.1519 107.048 41.9475 106.281 41.2251 105.176H41.2226C40.4332 103.781 41.0712 102.329 43.1341 100.822C43.5313 100.532 43.6182 99.9779 43.3277 99.5807C43.1515 99.3424 42.8784 99.2158 42.6029 99.2183Z" fill="#FFC943"/>
</g>
<path d="M38.1273 89.1634C29.3464 78.4321 24.1628 69.8773 22.9203 66.0095C20.8257 59.4974 20.1922 52.3659 22.3015 44.3344C26.0093 30.2257 37.3784 23.3065 55.5688 24.0548C71.1466 24.6969 79.9349 32.0534 81.6979 45.3557C82.4542 51.0589 81.8256 57.4168 79.4119 64.3663C77.4401 70.0492 72.5536 78.4523 65.0471 89.6109C64.7721 90.0204 64.2245 90.1241 63.8243 89.8384C63.4265 89.5553 63.3258 88.9915 63.6033 88.582C71.1147 77.4133 75.8735 69.1872 77.7568 63.7596C80.0871 57.0477 80.6715 50.9805 79.957 45.5984C78.3363 33.3579 70.4271 26.4766 55.5001 25.8623C37.8154 25.1343 27.4213 31.7854 23.9983 44.8072C21.9897 52.4569 22.5888 59.2243 24.5876 65.4407C25.7171 68.9496 30.6945 77.2743 39.4729 88.0005C39.7848 88.3823 39.7381 88.9511 39.3649 89.2747C38.9941 89.5957 38.4391 89.5452 38.1273 89.1634Z" fill="#FFC943"/>
<path d="M49.8741 1.24794e-05C49.8593 0.00248992 49.847 0.00249008 49.8323 0.00249008C49.348 0.0272664 48.9743 0.445981 49.0014 0.934069C49.0973 2.77245 49.1587 4.32591 49.1833 5.5994L49.1956 6.18907V6.18659C49.2079 7.12312 49.2226 7.89614 49.2349 8.49819V8.50315C49.2349 8.55766 49.2374 8.72861 49.2398 9.01849C49.2423 9.22413 49.2398 9.46694 49.2374 9.74938V9.74195C49.2275 10.2672 49.2226 10.6537 49.2226 10.9015C49.2202 11.0253 49.2226 11.3276 49.2251 11.8108V11.8058C49.2251 11.9743 49.2251 12.0709 49.2251 12.1006C49.2177 12.5887 49.6061 12.9926 50.0904 13C50.0978 13 50.1052 13 50.1101 13C50.587 12.995 50.9754 12.6085 50.9828 12.1254C50.9852 12.0858 50.9852 11.9767 50.9828 11.8033V11.7984C50.9803 11.3128 50.9803 11.0179 50.9803 10.9163V10.9114C50.9828 10.6661 50.9877 10.287 50.9975 9.77416V9.76673C51 9.46446 51 9.21174 51 9.0061V9.00363C50.9975 8.7187 50.9951 8.53784 50.9926 8.46351C50.9803 7.85154 50.968 7.08348 50.9533 6.15934V6.15686L50.9435 5.56471C50.9164 4.27388 50.855 2.7006 50.7566 0.83992C50.732 0.36422 50.3412 -0.00246497 49.8741 1.24794e-05Z" fill="#FFC943"/>
<path d="M25.754 6.00003C25.6308 6.00003 25.5056 6.03493 25.391 6.10475C25.0237 6.32816 24.8921 6.83316 25.0959 7.23577C26.2613 9.53503 27.4799 11.7691 28.7494 13.9358H28.7473L29.5773 15.5718C29.7174 15.8487 29.9785 16.0023 30.246 16C30.3692 16 30.4944 15.9651 30.609 15.8953C30.9763 15.6718 31.1079 15.1645 30.9041 14.7642L30.0528 13.0817L30.0274 13.0375C28.7749 10.9011 27.5733 8.69724 26.4227 6.42823C26.2847 6.15129 26.0215 5.9977 25.754 6.00003Z" fill="#FFC943"/>
<path d="M1.95658 21.0001C1.67902 21.0026 1.40146 21.1187 1.21283 21.3429C0.878682 21.74 0.94605 22.32 1.35835 22.6397C6.66159 26.7233 9.66353 29.0899 10.3642 29.7396C10.5528 29.9149 10.798 30.0025 11.0432 29.9999C11.2912 29.9974 11.5418 29.9046 11.7277 29.7189C12.0996 29.3554 12.0888 28.7702 11.7061 28.417C10.9624 27.7261 7.91734 25.3234 2.56828 21.2037C2.38774 21.0645 2.17216 20.9975 1.95658 21.0001Z" fill="#FFC943"/>
<mask id="mask1_345_1383" style="mask-type:luminance" maskUnits="userSpaceOnUse" x="0" y="51" width="12" height="3">
<path d="M0 51.4365H11.9555V53.9785H0V51.4365Z" fill="white"/>
</mask>
<g mask="url(#mask1_345_1383)">
<path d="M8.45448 51.9106C8.43958 51.9106 8.42469 51.9106 8.40979 51.9106H8.40235C8.23602 51.9131 8.02253 51.9156 7.76436 51.9206H7.75939C6.95508 51.9404 6.2029 51.9553 5.50533 51.9677H5.50781C5.0436 51.9752 4.67123 51.9802 4.3932 51.9851H4.39568C3.56406 51.995 3.07005 52 2.91118 52.005H2.91862C2.44696 52.0075 2.16396 52.0124 2.06963 52.0124L2.06218 52.0149L0.897912 52.0422C0.40887 52.0546 0.0191264 52.4593 0.0315384 52.9508C0.0439505 53.4349 0.441142 53.8196 0.925219 53.8172C0.930183 53.8172 0.935149 53.8172 0.940114 53.8172L2.10438 53.7899H2.11183C2.22354 53.7874 2.49661 53.7849 2.936 53.7799H2.94345C3.10729 53.7774 3.59881 53.77 4.41802 53.7601H4.42299C4.70598 53.7551 5.07587 53.7501 5.53264 53.7427H5.53512C6.23269 53.7328 6.98735 53.7154 7.80159 53.6955H7.79911C8.04487 53.6906 8.25092 53.6881 8.41228 53.6881C8.41724 53.6881 8.41972 53.6881 8.42469 53.6881H8.42717C8.44206 53.6881 8.45448 53.6881 8.46937 53.6856C8.58605 53.6856 8.72754 53.6856 8.8889 53.6881H8.88642C9.25631 53.6955 9.52689 53.7005 9.69818 53.7055C9.97125 53.7129 10.2766 53.7278 10.6142 53.7501C10.6365 53.7526 10.6589 53.7526 10.6812 53.7526C11.1405 53.7501 11.5277 53.3927 11.56 52.926C11.5923 52.4369 11.2249 52.0124 10.7334 51.9802C10.3759 51.9553 10.0482 51.938 9.74783 51.9305C9.55917 51.9255 9.28113 51.9181 8.91373 51.9131H8.90628C8.73251 51.9106 8.58108 51.9106 8.45448 51.9106Z" fill="#FFC943"/>
</g>
<path d="M15.1759 70.0001C14.9612 70.0027 14.7464 70.1015 14.5864 70.2989C14.4059 70.5231 14.1775 70.7552 13.901 70.9927H13.8964C13.0899 71.6091 11.8766 72.6151 10.2566 74.0107C9.15762 74.9126 8.20255 75.6518 7.39142 76.2308C7.00756 76.5057 6.88418 77.0927 7.11952 77.541C7.27489 77.8399 7.54679 78.0026 7.82554 78C7.9672 77.9973 8.11344 77.9519 8.24367 77.8585C9.08679 77.2608 10.0761 76.4923 11.214 75.5584L11.2277 75.545C12.8499 74.1494 14.0518 73.1541 14.8309 72.5617L14.8698 72.5297C15.2262 72.2228 15.5301 71.916 15.7769 71.6091C16.0876 71.2249 16.0716 70.6218 15.7426 70.2589C15.5826 70.0854 15.3793 69.9974 15.1759 70.0001Z" fill="#FFC943"/>
<path d="M77.1677 7C76.8996 7.00252 76.6385 7.14626 76.4813 7.406L72.1367 14.603C71.8848 15.0191 71.9911 15.5764 72.3724 15.8512C72.5134 15.9521 72.6729 16 72.8323 16C73.0981 15.9975 73.3592 15.8563 73.5164 15.594L77.8633 8.39955C78.1152 7.98347 78.0089 7.42365 77.6276 7.14878C77.4843 7.04791 77.3248 7 77.1677 7Z" fill="#FFC943"/>
<path d="M99.1249 28C98.9428 28.0022 98.7607 28.0542 98.6077 28.1582C98.1948 28.4357 96.196 29.6366 92.609 31.763L92.5993 31.7673C92.1743 32.0275 91.7493 32.3114 91.3218 32.6236C90.9478 32.8945 90.892 33.3822 91.1955 33.7139C91.3704 33.9025 91.623 34 91.8755 34C92.0674 33.9978 92.2593 33.9415 92.4195 33.8244C92.8057 33.5426 93.1894 33.2868 93.5707 33.0549C97.1869 30.9111 99.2148 29.6908 99.6544 29.3938C100.038 29.1358 100.113 28.6503 99.8244 28.3078C99.652 28.1062 99.3897 28 99.1249 28Z" fill="#FFC943"/>
<mask id="mask2_345_1383" style="mask-type:luminance" maskUnits="userSpaceOnUse" x="90" y="52" width="13" height="4">
<path d="M90.7617 52.0718H102.002V55.2493H90.7617V52.0718Z" fill="white"/>
</mask>
<g mask="url(#mask2_345_1383)">
<path d="M93.416 52.6576C92.6961 52.6626 92.1003 52.7023 91.6262 52.7743C91.1421 52.8488 90.807 53.3006 90.8815 53.7847C90.9485 54.2265 91.3308 54.5418 91.7652 54.5393C91.8074 54.5393 91.8496 54.5368 91.8943 54.5294C92.2865 54.4698 92.7929 54.4375 93.4185 54.4326C93.699 54.4301 94.0044 54.4351 94.3345 54.4425L94.342 54.445C94.8782 54.4549 95.3995 54.4698 95.9034 54.4922H95.9481H95.9357C96.0425 54.4946 96.6556 54.5269 97.7752 54.5865H97.7827L101.074 54.7305C101.089 54.7305 101.104 54.7305 101.119 54.7305C101.588 54.728 101.978 54.3556 102 53.8815C102.02 53.3924 101.64 52.9779 101.151 52.9555L97.8596 52.8115H97.8621C96.7351 52.752 96.1095 52.7222 95.9854 52.7172H95.9779C95.469 52.6949 94.9353 52.68 94.3842 52.6676C94.0391 52.6601 93.7164 52.6551 93.416 52.6576Z" fill="#FFC943"/>
</g>
<path d="M84.8503 73C84.5542 73.0027 84.2677 73.1808 84.1101 73.4985C83.8785 73.9696 84.0242 74.5666 84.4349 74.8323C85.101 75.265 87.4815 77.5712 91.5788 81.7534C91.7411 81.9205 91.9465 82.0027 92.1518 81.9999C92.3858 81.9972 92.6174 81.8876 92.7845 81.6713C93.0973 81.2687 93.0663 80.6497 92.7129 80.2881C88.5273 76.0155 86.0489 73.6272 85.2753 73.126C85.1392 73.0411 84.9936 73 84.8503 73Z" fill="#FFC943"/>
</svg>
