<svg width="83" height="87" viewBox="0 0 83 87" fill="none" xmlns="http://www.w3.org/2000/svg">
<path d="M40.198 5.06717C39.8328 4.99543 39.3539 5.3317 38.6526 5.26639C37.7416 5.18972 36.8711 5.04857 35.9786 4.87755C34.6663 4.62834 33.2202 3.95238 32.2775 5.17318C32.2689 5.18853 32.1593 5.14997 32.0626 5.13098C31.892 4.69274 31.9525 3.87384 30.9297 4.59322C30.8013 4.67878 30.558 4.5543 30.3729 4.44553C29.8247 4.11207 29.6539 4.21485 29.6585 4.73126C29.6596 5.03822 29.5046 5.42956 29.221 5.5954C28.8678 5.80297 29.0077 5.28938 28.7569 5.23159C28.6924 5.21893 28.6035 5.18869 28.5665 5.20697C27.8918 5.51755 26.9442 5.2292 26.3431 5.64796C25.7474 6.06779 24.8151 5.95712 24.2361 6.40577C23.8281 6.72186 23.6305 7.33063 22.7355 7.08671C22.6826 7.07205 22.5894 7.1773 22.5137 7.22207C20.907 8.15909 19.3033 9.10948 17.9744 10.28C16.9895 11.1474 15.5685 11.7928 15.5014 13.1856C15.4979 13.317 15.2908 13.3487 15.1404 13.4044C14.39 13.6745 13.8448 14.2065 13.9724 14.8067C14.1051 15.4378 12.8301 15.4813 13.4183 16.1507C13.3254 16.141 13.2284 16.1518 13.1441 16.1267C12.6826 15.9764 12.615 16.2358 12.5591 16.4634C12.4576 16.8951 12.304 17.3932 12.0271 17.6669C11.4765 18.1978 11.9495 18.2609 12.5965 18.4604C11.2834 18.5561 10.9044 19.0653 11.0108 19.9724C11.0455 20.3073 10.9662 20.9095 10.7699 21.0285C9.76219 21.6146 10.1068 22.3596 10.4074 23.1302C10.4495 23.2279 10.5709 23.4051 10.4549 23.3994C9.38998 23.3394 10.2307 24.1435 9.77919 24.4255C9.5047 24.6017 9.85441 24.9515 10.311 24.8708C10.4004 25.3527 9.55761 24.9571 9.65888 25.3221C9.89821 26.1488 8.98397 26.9406 9.87972 27.7769C9.90792 27.8037 9.85448 27.9338 9.79431 27.9561C9.32537 28.1282 9.50265 28.5038 9.48467 28.7942C9.34696 31.6259 9.27908 34.4713 9.08684 37.2966C9.03556 38.0406 9.23808 38.7706 9.26764 39.5006C9.29183 40.0592 8.85809 40.677 9.39716 41.1706C9.94616 41.6704 8.47728 42.332 9.88279 42.6463C9.85835 42.714 9.86426 42.8259 9.81108 42.841C9.26291 43.0188 9.55379 43.4125 9.50331 43.7264C9.39616 44.4424 9.78805 45.1456 9.81466 45.8624C9.86196 47.2691 10.4198 48.661 10.6393 50.0717C10.8198 51.1978 11.5362 52.3227 11.6802 53.4927C11.7323 53.9375 12.1226 54.3934 12.1064 54.8162C12.0842 55.2422 11.868 55.6044 12.4938 55.9404C12.7363 56.069 12.7011 56.3049 12.4237 56.3825C11.6445 56.6001 11.8175 57.1112 12.164 57.4775C12.5486 57.8769 12.6663 58.2152 12.5325 58.6406C12.2739 59.4461 12.8978 60.1609 13.3886 60.8153C13.7638 61.3193 13.1699 61.616 13.4641 62.0785C14.0743 63.0334 14.7863 63.9529 15.3179 64.9392C15.9007 66.0335 16.8833 66.9678 17.8056 67.9243C19.7943 69.985 21.687 72.1077 23.8766 74.0545C25.302 75.3186 26.8807 76.4551 28.4447 77.6101C29.6384 78.4921 31.1537 78.8153 32.3001 79.6539C32.3336 79.6818 32.4293 79.6495 32.4999 79.6591C33.6978 79.8092 34.8908 80.1542 36.1081 80.0354C36.472 80.0004 36.8478 80.1892 37.1185 80.4298C37.2839 80.5816 37.4344 80.6964 37.7115 80.7338C38.7058 80.8694 39.6937 81.0378 40.6848 81.1899C41.0909 81.2526 41.4811 81.1972 41.8794 81.1859C42.6084 81.1672 41.8502 80.8521 42.0529 80.7002C42.5224 80.9799 42.9833 81.4453 43.4633 81.5012C46.1373 81.8049 48.8269 82.3416 51.4596 81.7765C53.8465 81.2696 56.4007 81.047 58.1712 79.5883C58.2308 79.5404 58.4274 79.5619 58.544 79.5934C59.1591 79.7568 59.5931 79.5353 59.9852 79.2714C60.5892 78.866 61.1186 78.3863 61.7645 78.0232C62.4932 77.6082 63.105 77.1064 63.7794 76.6551C64.3896 76.2467 64.3346 75.4477 65.2265 75.2522C65.3828 75.2233 65.2058 75.0735 65.1798 74.9789C65.0825 74.6786 65.2738 74.5287 65.5445 74.3433C66.4032 73.7493 67.3606 73.1918 67.9854 72.4539C68.8067 71.4819 69.4668 70.3931 69.9758 69.2788C70.3724 68.4237 71.1728 67.6436 70.8564 66.5845C71.8308 66.1112 71.8012 65.2107 72.1047 64.4609C72.4595 63.5634 72.746 62.6441 73.0686 61.7403C73.4008 60.7873 73.7429 59.8405 74.0797 58.8927C74.5647 56.4232 75.0497 53.9536 75.5347 51.4841C75.3381 50.6105 75.1673 49.6908 75.4519 48.8946C75.8978 47.6188 75.511 46.2647 75.8276 44.9934C75.9895 44.3393 75.7999 43.6289 75.9186 42.9961C76.0985 42.0515 75.8971 41.1173 75.8909 40.183C75.882 39.2909 75.0915 38.373 75.6904 37.5107C75.7154 37.4688 75.6195 37.3605 75.5655 37.2945C75.0445 36.6809 74.9453 35.9925 74.7815 35.3213C74.439 33.912 73.8569 32.5579 73.0673 31.2099C72.7197 30.6219 71.7555 29.8787 72.6982 29.1691C72.8429 29.0569 72.659 28.9143 72.4849 28.8631C72.0149 28.7282 71.8663 28.405 71.7592 28.0985C71.5201 27.4125 71.0144 26.8062 70.7756 26.0904C70.5037 25.2872 69.9343 24.4085 69.388 23.611C68.4114 22.1922 67.8226 20.6451 66.7625 19.2823C65.9425 18.2308 64.8783 17.2294 63.7016 16.3465C62.6318 15.5441 60.9161 15.2754 60.4605 13.9589C60.4447 13.926 60.3375 13.8751 60.2921 13.8789C59.6693 13.9824 59.5901 13.8177 59.8006 13.399C59.882 13.2403 59.6695 13.0154 59.4528 12.9259C58.628 12.5807 57.5158 12.5625 57.2453 11.6105C57.2377 11.592 57.0951 11.5512 57.0581 11.5694C56.5996 11.7734 56.5233 11.5369 56.3807 11.2404C56.1534 10.7783 55.8513 10.3568 55.1038 10.7255C55.005 10.7743 54.6741 10.7263 54.6453 10.6738C54.2371 9.91197 53.235 9.87281 52.556 9.46679C50.9235 8.49007 49.1395 7.77332 47.408 6.96034C46.8713 6.71009 46.4034 6.50742 45.8738 6.9317C45.5609 7.18978 45.0479 7.04643 44.7329 6.69058C44.5464 6.47504 44.3901 6.24836 44.1941 5.99683C43.7447 6.63712 43.5374 6.69865 42.9164 6.16769C42.1482 5.50558 41.1451 5.24464 40.198 5.06717ZM62.2589 64.1717C62.4542 64.2569 62.625 64.4098 62.5329 64.5664C62.2737 65.0054 62.5112 65.444 62.6301 65.8891C62.6487 65.9652 62.6836 66.0999 62.6412 66.1171C61.6874 66.5135 62.0208 67.4864 61.3453 68.0567C60.7961 68.524 60.5527 69.2516 61.2379 69.9954C60.6366 70.1883 60.3674 69.343 59.7892 69.7876C59.0661 70.3443 60.1743 70.7238 60.1593 71.1981C59.8512 71.3463 59.6611 71.1215 59.4188 71.0484C58.6644 70.8278 57.9593 70.668 57.6362 71.4609C57.4171 71.9802 56.3422 71.9992 56.3312 72.7085C56.3334 72.726 56.0771 72.7523 55.9721 72.7189C55.743 72.6356 55.7868 72.4695 55.8982 72.3849C56.5128 71.9262 56.6849 71.2485 57.1694 70.7131C58.1532 69.6239 59.1725 68.5247 59.6903 67.1949C59.8468 66.7953 59.199 66.2591 59.929 65.9509C60.7995 65.5807 60.9477 64.6555 61.8939 64.3258C62.0134 64.2854 62.0314 64.0802 62.2589 64.1717ZM67.3249 39.144C67.4551 39.1909 67.4807 39.5155 67.0509 39.4311C66.9865 39.4184 66.8226 39.514 66.8339 39.5418C67.1063 40.2855 66.2734 41.0038 67.0209 41.7428C67.3295 42.0463 67.4112 42.1987 66.8603 42.2481C66.5657 42.2712 66.5278 42.464 66.5453 42.6591C66.707 44.3354 66.1868 45.9332 66.2456 47.5935C66.2572 47.8471 65.9502 48.2171 66.565 48.4103C66.7283 48.4594 66.6324 48.6068 66.5779 48.6855C65.8936 49.6418 66.0419 50.7616 65.8609 51.8252C65.7497 52.4765 65.3186 53.0522 65.9807 53.7148C66.0127 53.7509 66.0196 53.829 65.9955 53.8668C64.8465 55.4561 64.8065 57.3356 64.3739 59.1125C64.31 59.3811 64.2313 59.4977 63.899 59.4282C63.5407 59.3493 63.2835 59.4948 63.0638 59.5624C63.3127 58.2948 63.8015 57.0275 63.7246 55.7428C63.6766 55.0218 63.7434 54.4257 64.0372 53.8103C64.1917 53.4785 63.6287 53.0782 64.1248 52.7112C64.3144 52.5696 63.7412 52.4485 63.4732 52.3362C63.6391 52.258 63.9332 52.124 63.9295 52.1148C63.3276 51.3447 64.6799 51.0778 64.4368 50.4123C64.1532 49.6408 64.7201 48.9981 64.6863 48.2331C64.6516 47.3869 64.4329 46.4834 64.6053 45.6907C64.7898 44.8365 64.8277 43.9621 64.8838 43.1082C64.9692 41.8213 65.4897 40.5346 64.6892 39.1845C64.4386 38.7561 64.5657 38.3934 65.3387 38.5196C65.7217 38.5863 66.0359 38.6907 66.4673 38.5112C66.8924 38.3348 66.908 38.994 67.3249 39.144ZM63.2043 29.929C63.4261 30.3901 63.9351 30.2983 64.3138 30.4153C65.2184 30.6952 65.6412 31.2128 65.6871 31.9163C65.7196 32.4041 65.8547 32.8524 66.5147 33.1567C65.959 33.5716 64.5239 33.1236 64.9819 34.2573C64.5245 34.1717 64.6945 33.9878 64.6604 33.8491C64.5946 33.5592 64.7119 33.1605 63.9897 33.3723C63.629 33.4761 63.1364 33.2004 63.0687 32.9485C62.8135 32.0037 62.2715 31.0708 62.3762 30.1114C62.4176 29.702 63.1772 29.8683 63.2043 29.929ZM51.5049 24.1931C51.6104 24.4226 51.7603 24.6821 51.9881 24.8291C52.3893 25.0868 52.5728 25.289 52.2255 25.6085C52.0891 25.7351 52.1417 25.9499 52.2822 26.0585C53.2231 26.8354 52.7138 27.8091 53.2365 28.6701C53.785 29.5702 54.1973 30.5672 54.3386 31.5237C54.6094 33.3833 55.7224 35.1868 55.5826 37.0637C55.5034 38.092 55.4126 39.1222 55.3648 40.1609C55.3087 41.2703 55.291 42.3831 55.2787 43.4969C55.2704 43.8233 55.9754 44.2387 55.7579 44.3238C55.1114 44.576 55.3515 45.0577 55.2237 45.4246C54.8821 46.397 54.9519 47.4333 55.0226 48.4654C55.0454 48.832 55.3667 49.1848 54.9375 49.5521C54.6624 49.7878 55.2176 50.1141 55.5359 50.5388C54.6856 50.4655 54.8432 50.7989 54.7372 51.2254C54.3988 52.6075 54.4181 54.0428 54.0752 55.4198C54.0312 55.6156 53.7556 55.8256 54.2992 55.9835C54.7217 56.1048 54.5686 56.2878 54.2487 56.3826C53.6205 56.5702 53.6025 56.6051 54.1408 57.0175C54.4362 57.246 54.6823 57.584 54.2375 57.633C53.0356 57.7591 53.3412 58.6456 52.976 59.1703C52.7751 59.4547 52.6419 59.8205 52.5189 60.1627C52.4276 60.4004 52.1399 60.672 52.557 60.9626C52.8557 61.1747 52.6604 61.4303 52.5235 61.5312C51.4465 62.2996 51.3863 63.4296 50.9843 64.454C50.8183 64.8731 50.2487 65.217 49.896 65.6207C49.2683 66.3452 48.7342 67.1052 48.5929 68.0233C48.58 68.0889 48.5153 68.1912 48.446 68.2032C47.2188 68.401 47.282 69.4146 46.7537 70.0308C46.4771 70.3599 46.0677 70.4841 45.7755 70.7505C44.9475 71.5294 44.0314 72.274 43.0669 72.9239C42.4954 73.3058 41.9853 74.1131 41.4455 74.0497C40.5793 73.9435 40.0212 74.2855 39.2982 74.331C37.7106 74.4324 36.1262 74.3471 34.7424 73.4959C34.1255 73.1148 33.6367 73.4449 33.0936 73.3126C32.7799 73.234 32.4114 73.3491 32.0697 73.0434C32.5115 72.8106 33.2692 73.0148 33.4314 72.4161C33.5157 72.1004 33.621 71.9336 33.136 71.8469C32.4629 71.7232 31.9445 71.4936 31.5865 70.9589C31.3665 70.6302 30.8406 70.4673 30.3824 70.3006C29.1203 69.8525 27.9009 69.1018 27.3543 68.2489C26.8077 67.3959 26.0428 66.547 25.7854 65.5847C25.6143 64.9504 24.9297 64.4879 24.6254 63.8785C24.4516 63.5419 23.7952 63.3619 22.9623 63.3985C23.7691 63.0117 23.4326 62.7368 23.1911 62.3187C22.6045 61.3003 22.3069 60.2023 21.7619 59.1708C20.9515 57.644 20.8629 56.0503 20.3203 54.4952C20.0264 53.6621 20.0989 52.6964 19.924 51.7972C19.5276 49.8107 19.6505 47.8495 19.4399 45.8824C19.2572 44.1423 19.5384 42.4551 19.3818 40.7244C19.2961 39.7404 19.6645 38.7733 19.7456 37.7923C19.8031 37.0452 20.1487 36.3079 19.7015 35.5171C19.6228 35.378 19.5503 35.1508 19.6403 35.0619C20.3472 34.3316 20.0603 33.4062 20.074 32.5696C20.1021 31.3183 20.184 30.0775 20.3374 28.8423C20.7267 25.6383 21.7975 22.6575 23.5411 19.8302C24.5872 18.1397 25.6803 16.5224 27.3527 15.1936C28.5296 14.2574 29.919 13.5461 31.3771 12.8824C32.5226 12.3618 33.9835 12.4229 35.0379 11.9398C35.9865 11.5126 36.6835 11.969 37.486 11.9732C38.3939 11.9811 39.3841 12.7337 40.2264 11.9959C40.3937 11.8541 40.752 12.1034 40.9693 12.2185C43.0718 13.3301 45.0113 14.6185 46.8595 15.9742C47.7415 16.6246 48.1624 17.6062 48.6357 18.4916C49.6427 20.3807 50.6319 22.2749 51.5049 24.1931ZM50.7335 12.7813C51.9641 13.7303 53.5644 14.1042 54.906 14.8576C55.9508 15.4462 57.0856 15.8608 57.7339 16.8488C58.1586 17.4988 59.3173 17.7349 59.728 18.4844C59.79 18.5946 60.0497 18.6925 60.0543 18.7828C60.0691 20.4686 61.4647 21.8845 62.1295 23.4423C62.4577 24.214 62.8493 24.947 62.5843 25.7854C61.9026 25.1658 61.0837 24.8473 60.1127 24.9336C59.9312 24.949 59.9083 24.9233 59.8487 24.8008C59.3064 23.7272 58.3432 22.7796 58.1595 21.5847C58.0862 21.1059 57.5114 20.567 57.0994 20.1367C56.1375 19.1256 55.9726 17.7213 54.3791 17.0292C54.0927 15.959 52.8672 15.2965 52.1113 14.4579C51.3929 13.6564 50.4434 12.8096 49.2839 12.2368C49.1415 12.1662 49.0164 12.0649 48.7244 11.8755C49.6741 12.0109 50.2777 12.4319 50.7335 12.7813Z" fill="#40C49F"/>
<path d="M40.2407 56.1797L35.7886 54.946C36.2945 54.0352 36.8016 53.0173 37.3099 51.8922C37.8348 50.748 38.3393 49.5696 38.8235 48.357C39.3255 47.1431 39.7933 45.9495 40.2268 44.7762C40.6603 43.6029 41.0456 42.5045 41.3828 41.4809C41.7377 40.456 42.0311 39.5694 42.2631 38.821C42.4075 38.3466 42.5229 37.9636 42.6091 37.6719C42.713 37.3788 42.7599 37.1613 42.7497 37.0193C42.7433 36.9305 42.659 36.8741 42.4966 36.85C42.352 36.8247 42.0755 36.8266 41.6672 36.8559C41.1877 36.8902 40.5771 36.9608 39.8351 37.0675C39.0932 37.1742 38.3081 37.3018 37.4799 37.4504C36.6517 37.599 35.8439 37.7818 35.0563 37.9988C35.2696 38.983 35.5456 39.9716 35.8845 40.9646C36.2234 41.9576 36.6307 42.9101 37.1065 43.8219L32.9327 44.9776C32.4125 43.944 31.9645 42.7982 31.5888 41.5401C31.2131 40.282 30.9078 39.0099 30.6729 37.7239C30.4367 36.4201 30.2785 35.2089 30.1984 34.0903L30.145 33.3445L34.3056 32.7519C34.3323 33.1248 34.3672 33.4882 34.4104 33.842C35.1815 33.644 36.0256 33.4675 36.9425 33.3126C37.8582 33.1399 38.7669 32.9945 39.6687 32.8763C40.5869 32.7392 41.4278 32.6432 42.1913 32.5885C42.653 32.5554 43.1609 32.5458 43.7152 32.5596C44.2859 32.5544 44.8269 32.6317 45.3381 32.7914C45.848 32.9333 46.2773 33.1971 46.6262 33.5825C46.9751 33.968 47.1762 34.5337 47.2297 35.2794C47.2666 35.7944 47.1697 36.5598 46.9391 37.5758C46.7085 38.5918 46.391 39.7657 45.9867 41.0975C45.5811 42.4116 45.1179 43.7922 44.5969 45.2395C44.0937 46.6855 43.5708 48.1061 43.0283 49.5014C42.5035 50.8954 41.9971 52.1721 41.509 53.3314C41.021 54.4908 40.5982 55.4402 40.2407 56.1797Z" fill="#40C49F"/>
</svg>
