<svg width="155" height="92" viewBox="0 0 155 92" fill="none" xmlns="http://www.w3.org/2000/svg">
<path d="M19.6083 90.7474C19.6808 90.6475 20.0677 90.7774 20.216 90.7117C20.2154 91.6145 19.351 91.1091 19.6083 90.7474ZM23.1167 24.5938C23.0328 24.8327 22.9442 25.0725 22.8565 25.3121C23.2525 25.381 23.6978 25.132 24.0761 25.2709C24.1378 25.2946 24.1142 25.9443 24.25 25.947C24.3859 25.9495 24.1973 25.1041 24.3702 24.9766C24.5723 24.8347 25.6401 25.2436 25.9789 25.1634C27.2219 24.8644 28.3846 24.1358 29.71 24.2441C28.5338 25.1254 29.9724 25.51 30.273 25.1685C30.3411 25.0896 30.0172 23.5133 31.3924 23.6572C32.2589 23.7495 31.9424 26.1569 33.0947 24.7555C31.7239 23.3843 32.7962 23.2888 33.5994 23.0757C33.7372 23.0389 34.9377 23.0481 35.4237 22.8786C35.5915 22.82 35.6903 21.9406 35.916 21.8731C36.071 21.8273 36.2829 22.255 36.5116 22.1854C37.5765 21.8667 38.6428 21.6156 39.7646 21.5472C39.5548 23.8005 40.4521 22.35 40.5198 22.4418C40.8975 22.9655 39.7541 23.3684 40.2932 23.6344C40.93 23.4368 41.5612 23.2396 42.2009 23.0401C41.6149 22.8886 42.5369 21.1089 42.9055 21.7567C42.4189 19.9032 46.1931 22.7784 46.5247 22.0543C46.5937 21.9017 45.7678 21.1086 47.3204 21.2246C47.4891 21.2383 47.5481 21.8161 47.6204 21.7459C47.6638 21.7036 47.5872 19.8435 48.1153 20.7688C48.3094 21.106 47.809 22.4452 49.3537 21.6217C48.3121 19.9336 51.4178 20.1464 52.0551 20.4861C51.8948 20.2639 51.7347 20.0417 51.5747 19.8194C52.2474 20.3669 52.2093 19.725 52.336 19.733C52.8461 19.7647 53.6507 20.2446 54.0839 20.0898C54.5939 19.9092 54.3459 18.7739 55.055 19.0805C54.8545 18.8621 54.6542 18.6437 54.4542 18.4252C54.889 18.3927 55.3268 18.3593 55.7592 18.3266C55.1184 20.0442 55.9853 18.3518 56.0561 18.302C56.1684 18.2197 56.1261 18.8742 56.3174 18.7514C56.3362 18.7339 56.1762 18.162 56.4828 18.0255C57.1237 17.742 57.1811 18.4931 57.4609 18.4218C57.4858 18.4122 57.2789 17.9112 57.7357 17.679C59.1884 16.9393 57.8179 18.0804 57.7749 18.1656C57.7177 18.2781 58.7398 20.3376 57.2498 19.8598C57.7473 20.0069 58.0082 20.9608 58.0631 20.9737C58.1113 20.9837 58.8454 20.676 58.8802 20.6331C59.1825 20.221 58.703 19.637 58.7497 19.5025C58.787 19.3942 59.9061 20.0431 59.6688 18.0142C60.5228 19.7408 59.7949 19.731 59.1172 20.1792C59.0936 20.5787 59.9896 20.7591 60.0323 20.7483C61.0764 20.5073 60.1555 19.1365 60.1646 18.1243C60.1695 17.5946 60.828 18.5224 60.1285 17.265C61.0408 16.9067 60.6467 17.8181 60.734 17.9197C60.8652 18.0683 61.1078 17.6064 61.161 17.6482C61.2394 17.7103 61.1348 18.2252 61.4127 18.3342C61.4584 18.3489 61.6598 17.4578 61.0736 17.189C61.7645 17.1501 61.5504 16.4789 62.0942 17.8051C61.9477 15.0922 62.7828 19.2694 62.9975 19.3735C63.5673 19.647 62.9519 17.6328 62.9541 17.5272C62.9627 17.299 63.1359 17.1918 63.3723 17.1359C63.8915 17.0131 64.6491 17.0952 64.8486 16.8425C65.0416 18.3511 63.7161 17.1223 63.5509 17.4625C63.5234 17.5207 63.502 17.5741 63.4861 17.6235C63.4161 17.8767 63.4805 18.0231 63.6078 18.1447C63.9569 18.4482 64.7408 18.5854 64.666 19.932C64.7748 19.3705 64.8801 18.81 64.9887 18.2487C65.6838 19.3428 65.215 19.998 66.232 19.3048C66.1784 18.2342 65.479 19.6497 65.487 18.7948C65.4942 18.2924 66.1178 18.041 66.0718 17.7878C66.0158 17.4829 65.5134 17.9753 65.4982 17.4902C65.4616 16.4434 67.8433 16.901 66.3266 17.8242C66.7837 17.7012 67.4689 19.6411 67.7225 18.9299C67.8869 18.4687 65.8133 16.0456 68.097 16.0567C68.3581 16.987 67.2974 16.5307 67.2875 16.6085C67.2778 16.7203 67.9282 18.8058 67.9805 18.9042C68.1587 19.2257 70.1102 17.5885 70.8185 18.5524C70.354 17.3659 72.4436 17.9602 72.5654 17.5414C72.5966 17.4261 72.2285 16.7177 72.2686 16.6253C72.5223 16.0717 73.7962 17.2013 74.256 17.1379C74.7734 17.0666 74.5661 16.4304 74.5951 16.4253C74.825 16.4135 74.7433 16.8931 74.8785 16.8625C75.0854 16.815 76.5215 16.6006 76.573 16.4937C76.5877 16.4606 76.1977 15.766 76.4759 15.559C76.5242 15.5232 76.6773 16.4122 77.5127 15.8366C78.5158 15.1451 76.5152 14.9016 76.776 13.8809C77.7632 15.046 77.4648 13.7473 77.6797 13.8088C77.756 13.8317 78.4807 14.8367 79.006 14.6535C78.6565 14.9145 78.3111 15.1751 77.9622 15.4368C78.3824 15.551 79.0691 15.1555 79.4247 15.3106C79.5983 15.386 79.6628 16.3234 79.9893 16.2296C80.058 16.2047 79.8719 13.9268 79.2151 15.1035C78.9807 14.3252 79.4977 14.7558 79.6445 14.4913C79.666 14.4504 79.5054 13.102 79.92 13.8746C80.0214 14.065 80.1846 18.0603 81.2458 14.9244C81.2797 14.8235 80.9974 14.3771 81.028 14.2662C81.0477 14.1913 81.5093 14.3003 81.5408 14.2222C81.573 14.1388 81.2619 13.652 81.2969 13.5364C81.4763 12.941 82.2833 14.9598 81.6574 14.9219C81.9099 15.14 82.159 15.3588 82.411 15.5772C81.874 14.041 82.6334 15.0684 82.895 14.9643C84.5819 14.2968 83.201 13.5077 83.3937 12.9146C83.7036 11.9626 83.8856 14.7416 84.4347 13.7843C84.4854 13.6951 83.3909 12.7208 85.205 13.0289C84.9671 13.1234 84.7279 13.2182 84.4872 13.3135C84.9416 14.813 85.3617 13.0278 85.4162 12.9945C86.0317 12.6521 85.6988 13.2926 86.513 12.3097C86.5853 12.2216 86.8497 12.5612 86.9967 12.3359C87.6069 11.4065 85.8916 12.068 85.7145 11.4596C85.6344 11.1599 87.5611 10.8528 87.6522 10.9845C88.0575 11.5675 86.8466 11.4386 87.2226 12.1879C87.3646 12.4521 89.9395 11.3347 90.5253 11.5374C91.2094 11.7732 91.9035 13.7905 91.4366 11.4606C92.07 13.7123 91.9069 12.1216 91.9879 12.1216C92.5581 12.1338 92.7966 12.1471 93.0475 12.0812C93.2431 12.0307 93.4439 11.9386 93.7831 11.7739C93.9611 11.6882 94.2584 12.3502 94.3003 12.2198C94.3241 12.1413 94.1027 11.4134 94.2431 11.1465C94.4382 10.7807 96.1733 11.226 96.3713 11.6135C96.5673 12.0012 95.7456 11.9244 96.0203 12.5713C96.5858 12.5286 97.1205 12.2478 97.6901 12.208C97.9289 12.1932 97.9027 12.6897 98.008 12.6785C98.0559 12.6749 98.7928 12.0955 98.7217 11.9285C98.5602 11.5387 96.0922 12.3155 96.5906 11.356C96.6889 11.1701 97.3586 12.1683 97.0218 10.8589C99.33 10.7094 101.649 10.5641 103.921 10.4303C102.834 11.6726 101.224 11.0689 99.8901 11.4297C99.7097 11.4773 99.0449 11.4765 99.2579 12.1299C100.457 12.0718 101.796 11.4454 102.983 11.6652C103.021 11.6728 103.012 12.2993 103.16 12.3692C103.434 12.5002 104.054 11.3708 104.229 11.597C104.264 11.6508 103.97 12.5322 104.206 13.0093C104.812 14.2335 104.331 11.353 104.647 11.326C104.893 11.3063 106.723 12.3857 106.936 11.4348C107.162 10.4216 105.689 11.1176 105.649 10.3332C106.545 9.36137 107.781 9.96824 108.723 9.68183C108.74 9.67602 108.473 9.10813 108.672 8.98155C109.019 8.76141 109.274 9.59129 109.488 9.68945C109.719 9.79341 110.363 9.53761 110.521 9.82693C110.541 9.86503 110.572 10.7329 110.555 10.7608C110.329 11.1667 110.007 10.097 109.977 10.0886C109.867 10.0676 109.85 10.5054 109.751 10.4994C109.587 10.4891 109.423 10.1199 109.216 10.1258C109.071 10.1287 109.354 10.844 109.212 10.837C109.162 10.831 108.273 9.24558 108.569 10.9852C108.703 11.5299 113.158 11.359 113.392 10.8446C113.008 10.7097 112.621 10.5743 112.222 10.4404C113.046 10.7971 113.562 9.24378 114.059 11.2693C116.609 10.8884 118.385 10.5987 119.861 10.2616L110.397 16.0671C110.38 16.0865 110.363 16.1054 110.348 16.1237C110.262 16.4595 111.268 17.3486 110.872 17.2019C110.57 16.8984 110.299 16.562 110.066 16.1896C109.973 16.7281 110.704 16.7963 110.722 16.3234C110.714 16.2748 109.77 15.5154 109.925 15.1502C110.076 14.809 110.844 15.3016 111.124 15.2254C111.361 15.1557 111.328 14.8124 111.41 14.7893C111.473 14.7732 111.922 15.1008 112.078 15.0599C112.57 14.9194 111.129 14.2192 112.804 14.9968C112.792 15.1225 112.782 15.246 112.774 15.3674C113.289 15.133 114.41 15.0374 114.22 15.9209C114.191 16.069 113.842 15.6448 113.78 15.7237C111.806 18.4039 114.103 17.1534 114.397 15.4467C115.204 15.6964 116.389 13.5224 116.61 13.5261C116.861 13.5855 117.046 14.339 117.844 14.2638C117.933 14.2856 120.294 11.1868 120.079 12.9328C120.015 13.2963 118.642 14.433 118.419 14.7449C119.956 15.1061 120.113 12.8712 120.374 11.9386C120.873 10.6679 124.817 9.22518 125.682 8.16925C126.031 7.88217 126.28 7.70019 126.401 7.65642C127.764 7.20161 126.71 8.02225 125.984 8.77721C125.147 9.79886 121.331 11.1947 120.849 12.4242C120.832 12.8284 120.887 13.1602 121.346 12.9334C121.812 11.7471 125.493 10.4004 126.301 9.41467C126.687 9.28029 127.227 9.06552 127.921 8.80474C131.991 7.46766 127.87 7.75171 129.259 6.7568C130.26 6.07479 134.065 6.56226 133.612 5.04621C134.684 4.70389 134.162 5.64884 134.307 5.68757C134.474 5.70498 136.304 5.00565 136.811 5.3194C136.877 5.35648 136.745 6.20545 136.816 6.26845C136.977 6.36696 138.359 6.11827 138.384 6.05107C138.417 6.00018 138.068 5.28382 138.19 5.10045C138.357 4.8841 139.544 5.01851 139.581 4.81113C139.686 4.48865 138.222 4.74496 138.424 3.92094C139.174 4.09412 140.159 3.53263 140.515 2.87122C140.431 3.05999 139.859 3.09457 139.638 3.03341C139.739 1.83008 140.951 1.83329 140.548 2.78633C140.796 2.27468 140.622 2.00586 140.759 1.52398C140.797 1.40177 141.14 1.37488 141.2 1.16726C141.211 1.12577 140.858 0.675217 140.926 0.431467C141.077 -0.0100689 142.017 0.0878925 142.064 0.203585C142.263 0.530615 141.559 0.926422 141.481 1.43234C141.482 1.5098 142.099 2.50023 142.098 2.58781C142.142 3.5265 141.459 2.8503 141.533 3.69566C141.71 3.87394 141.879 4.05245 142.039 4.23099C141.461 5.08484 139.988 4.65387 139.547 5.64176C140.882 5.32318 141.856 5.36699 141.854 7.55766C141.856 8.48102 141.437 9.02279 141.452 9.25766C141.523 10.0975 142.088 9.18458 142.103 9.229C142.119 9.2802 142.127 9.33005 142.127 9.37857C142.127 9.37859 142.127 9.37861 142.127 9.37863C142.137 9.87038 141.322 10.2251 141.268 10.4502C141.199 10.8494 141.58 12.4906 141.578 12.8539C141.569 12.9266 140.964 13.3173 141.172 13.9504C141.386 14.5896 141.887 14.6035 141.901 14.67C142.002 15.0528 141.116 15.4033 141.081 15.6303C141.07 15.7445 141.558 16.4456 141.569 16.6478C141.582 16.8504 141.219 17.2934 141.075 17.934C140.97 18.4098 141.285 18.7728 141.23 18.8476C141.198 18.8961 140.329 18.8953 140.28 18.9809C140.217 19.1055 140.433 19.6704 140.405 19.8129C140.366 20.0175 140.076 19.8173 140.117 20.0269C140.164 20.1806 141.242 22.129 141.226 22.6535C141.219 23.5449 140.124 21.5005 141.15 25.0139C141.157 25.037 141.397 24.7859 141.403 24.8076C141.551 25.4551 140.792 26.4531 141.723 26.2771C140 27.4082 141.514 27.6182 141.262 29.1214C141.165 29.6985 140.53 29.9422 140.531 30.0296C140.601 30.7611 140.794 30.1909 140.866 30.5495C140.901 30.7494 140.36 31.5307 140.493 32.032C140.555 32.2895 141.139 32.1922 141.167 32.2431C141.407 32.7189 141.118 33.2337 141.172 33.5722C141.206 33.7989 141.569 33.8159 141.58 33.8569C141.592 33.9417 141.105 34.8606 141.015 35.1841C140.942 35.4326 141.223 35.8197 141.172 35.9282C140.857 36.576 140.236 34.9351 140.854 37.2394C140.891 37.3807 141.123 37.3218 141.131 37.3501C141.28 38.0046 140.848 38.0639 140.787 38.6014C140.673 39.527 141.247 39.0061 140.774 39.6609C141.135 40.2616 141.343 40.2358 141.839 40.0669C140.507 40.5396 140.23 42.9391 141.517 42.8703C141.069 42.8342 141.14 44.1853 141.019 44.2097C140.933 44.2228 140.417 42.8877 140.69 45.897C140.716 46.2727 141.023 45.7911 140.933 46.5625C140.234 46.3755 140.911 47.0524 140.924 47.1547C140.728 48.9213 139.737 47.5264 140.331 47.6771C140.569 47.8891 141.429 49.1501 141.617 49.1063C142.186 48.9734 141.545 48.3949 141.612 48.1109C141.482 47.9218 144.215 48.4754 144.564 48.1898C145.06 47.6397 144.088 47.1533 144.142 47.0821C144.233 46.939 144.454 46.7809 144.779 46.5881L150.358 42.6252C150.273 42.5299 150.452 42.9372 150.259 42.9155C150.68 43.2632 150.819 43.1753 151.402 43.8372C152.088 44.6028 150.256 43.0436 150.174 42.9762C149.47 43.6757 148.301 45.9297 143.717 50.6085C144.804 51.3997 146.68 47.9659 146.728 48.114C147.357 48.3086 146.35 49.909 144.603 51.5694C142.529 52.3116 138.202 57.0394 136.007 56.8424C135.212 57.1068 134.454 57.2354 134.21 57.1299C134.67 57.2728 135.134 57.4113 135.6 57.5455C135.415 59.1652 133.381 57.8077 132.657 58.6946C132.418 58.9845 133.152 59.3607 133.153 59.4003C132.975 60.0502 132.31 59.7838 132.5 58.9295C131.883 59.8733 131.783 59.0568 131.15 59.1692C131.117 59.1754 131.539 59.6762 131.118 60.0463C130.916 60.2227 129.721 60.537 129.697 61.0774C129.68 61.3077 130.866 63.3817 130.445 61.4423C132.012 62.0281 130.633 60.4586 131.157 60.3654C131.241 60.3515 131.337 61.4803 132.529 60.602C132.817 62.5989 130.877 61.5824 130.702 61.8747C130.285 62.5006 132.776 62.9035 132.779 61.2762C133.011 62.829 133 61.4325 133.526 61.344C134.106 61.2438 133.996 61.7603 134.303 61.6702C135.149 61.4228 134.469 60.4825 135.463 61.207C133.86 58.5001 136.509 60.4467 137.333 61.0052C136.494 61.4596 135.642 61.9009 134.795 62.3244C134.893 62.4627 134.991 62.6009 135.09 62.7389C134.847 62.7902 134.605 62.8401 134.363 62.8889C134.357 62.7297 134.35 62.5706 134.343 62.4114C133.421 63.7351 132.822 62.7242 132.725 62.7401C131.454 62.9626 130.094 63.322 128.965 63.5901C128.799 63.6288 129.133 64.5857 127.748 64.1012C127.316 63.9438 127.495 63.1012 127.097 63.3125C127.031 65.5041 126.677 63.8478 126.521 63.8801C126.078 63.9792 125.923 64.5508 125.886 64.5648C125.365 64.7629 124.574 64.842 124.031 65.0355C124.022 65.0456 124.447 65.6227 124.044 65.5102C123.897 65.4707 122.187 62.9829 121.422 64.0626C121.712 64.1959 121.999 64.3293 122.285 64.4628C121.937 64.2671 120.03 65.3652 120.675 65.9956C121.077 66.3799 121.458 64.4729 121.891 66.1456C121.074 65.7868 117.581 67.2638 117.238 66.9217C117.189 66.8731 117.316 66.2775 117.249 66.2177C117.201 66.1715 116.4 66.464 116.252 66.2739C116.162 66.1615 116.459 65.7534 116.391 65.5612C116.327 65.4272 115.281 65.3882 115.352 66.0895C115.552 65.7631 116.294 65.8682 116.043 66.5202C116.01 66.6014 115.678 66.2053 115.638 66.3082C115.271 67.2564 116.821 66.742 117.077 66.6988C116.236 67.7751 114.487 67.044 113.461 67.84C112.883 67.3585 113.976 66.828 113.358 66.4564C112.067 65.6883 113.223 67.3062 113.203 67.3858C113.036 68.0192 111.526 65.0983 111.985 67.4578C111.516 67.1815 111.586 66.8587 111.099 67.2757C111.204 67.4247 111.308 67.5737 111.412 67.7228C111.072 69.2091 109.091 66.0218 109.135 65.7399C109.26 64.9838 110.141 65.9493 110.201 65.91C110.28 65.8538 110.046 63.4134 111.402 65.3684C111.464 63.6884 109.708 64.5781 110.339 63.3166C109.788 63.6116 107.221 62.9621 107.017 63.7359C106.995 63.8359 107.503 65.3964 106.755 64.7002C106.404 64.3679 107.063 64.2162 106.865 63.8772C106.553 63.3528 105.1 63.5432 103.585 63.9033C102.044 64.2676 100.49 64.7767 99.9854 64.9084C99.9189 64.9236 99.8439 64.4227 99.7791 64.4404C99.58 64.4948 98.9943 65.3816 98.5906 65.2251C99.5179 65.9941 98.0885 66.3549 97.705 66.3269C97.1211 66.2841 96.9807 65.4043 96.7047 65.2667C95.6408 64.736 94.651 67.0924 93.5568 65.2991C93.9842 67.2132 92.1527 64.6043 91.5777 64.7056C91.133 64.7828 90.7491 66.1878 91.5098 66.8375C90.7268 66.9072 89.9995 67.4328 89.3118 67.6995C89.1983 67.7438 89.2409 67.1422 89.0505 67.236C89.034 67.2486 89.1264 67.8099 88.9652 67.9043C87.6465 68.6902 88.0855 67.3629 87.7445 67.0724C87.5544 66.9097 87.4248 66.8363 87.3372 66.8217C88.1441 66.5354 89.0604 66.1142 89.3113 66.0451C88.8377 64.8618 87.5124 66.6715 86.9721 66.4426C86.953 66.4342 86.8658 65.7455 86.8479 65.7443C86.8476 65.7444 86.8472 65.7445 86.8469 65.7446C86.6525 65.7317 85.5758 66.2251 85.9821 66.9812C86.0949 67.1822 86.6079 67.0708 87.2177 66.8637C87.0823 67.0509 87.3699 67.7817 87.3472 67.8204C87.0656 68.2721 86.0304 67.7218 85.7004 67.6892C85.6247 67.6827 85.7351 68.1667 85.7237 68.1704C85.4171 68.1217 85.2319 66.7114 85.2506 68.2033C84.3591 66.5895 86.1578 67.7375 85.8082 66.6397C85.549 65.7897 82.353 66.9771 82.6751 68.3333C82.6315 68.1906 82.5464 68.0202 82.4079 67.8358C82.0955 67.4268 81.2232 67.7717 81.1161 68.0589C81.1003 68.1142 81.4074 69.4295 81.3768 69.4492C81.3071 69.4964 79.951 68.717 79.7158 69.5897C79.984 69.7228 80.2447 69.8577 80.514 69.9908C79.1644 70.3092 79.4565 70.6557 80.0022 70.9454C80.0257 70.9438 80.059 70.9887 80.0818 70.9892C80.4964 71.2011 81.0084 71.38 81.0396 71.4822C81.1492 71.8733 78.9109 72.616 79.0711 71.2944C79.0928 71.1135 80.2843 71.4138 79.5554 70.663C79.4244 70.5322 78.8051 70.9358 78.7445 70.8486C78.358 70.2648 79.6575 69.0746 79.2701 68.2083C79.0968 69.1569 78.5368 68.8061 78.1655 69.1262C77.9971 69.2711 78.1008 69.9421 78.0813 69.9597C77.7749 70.2117 77.8097 69.4751 77.6977 69.519C77.6394 69.5449 77.2873 71.1774 76.9482 69.1177C75.0217 71.1387 76.6616 70.7544 78.0317 70.3183C77.7667 71.1577 76.8168 71.0011 76.4706 71.2627C76.3453 71.3575 76.5862 72.0151 76.3809 72.2058C76.348 72.2363 76.3024 72.263 76.2459 72.2864C75.5323 72.5747 73.23 72.3947 72.5984 72.3599C72.9386 72.0303 72.6541 71.3186 72.3616 71.4391C72.0691 71.5598 72.5493 72.4869 72.5141 72.6063C72.476 72.7308 70.9393 72.5904 70.7305 72.7713C71.7272 72.1708 71.3161 71.4897 70.3866 71.6186C70.4706 71.3767 70.5545 71.1348 70.6384 70.8929C70.1701 71.3123 68.7989 70.4394 68.5635 70.843C68.527 70.9076 68.8396 71.4883 68.8191 71.5246C68.6061 71.8487 67.5452 71.4213 67.5498 71.642C67.5525 71.8262 68.0602 72.2587 67.9714 72.5468C67.9524 72.6076 67.3899 71.8534 67.0617 72.1419C66.9397 72.2484 67.1527 72.8162 67.1253 72.8579C66.896 73.2043 66.8499 72.1792 66.3533 72.4549C65.9901 72.6579 65.9121 73.687 65.3056 73.4844C67.3378 74.3293 65.7462 74.1397 65.0846 74.6745C64.9791 74.7598 65.3119 75.8031 64.4907 75.4383C65.5797 73.1847 63.8392 74.5142 63.4421 74.5775C63.419 74.5756 63.2601 73.8745 63.063 73.9053C63.0466 73.9095 63.1727 74.3792 62.9996 74.4546C61.3613 75.166 62.341 74.394 61.9155 73.9955C61.7344 73.8257 61.0506 74.6743 60.8277 74.7386C60.7764 74.7513 60.695 74.2526 60.4997 74.3143C60.1547 74.4247 59.9511 75.0172 59.728 75.108C59.7015 75.1161 59.5351 74.3373 59.1502 74.6826C59.0413 74.7794 58.9596 75.0857 59.1837 75.2724C59.92 75.8869 60.7591 74.3763 61.5755 74.9703C62.3212 75.5111 60.4333 75.98 60.3359 76.0042C60.3002 76.0144 60.5887 75.5489 60.196 75.5522C59.861 75.5567 59.5613 77.0261 59.0165 76.8346C58.9751 76.8207 58.3518 75.7599 58.3556 75.6896C58.3612 75.6377 58.8978 75.2661 58.7428 74.9538C58.7245 74.9183 58.3522 75.0047 58.2519 74.769C58.1291 74.4822 57.3516 71.5782 57.257 71.5211C57.0153 71.3818 57.2883 72.0241 57.1469 72.0051C56.8452 71.9659 55.683 71.3016 55.8628 72.3269C56.0377 72.3535 56.2128 72.3801 56.3881 72.4066C55.5056 72.6999 55.9817 73.053 55.8933 73.2708C55.7987 73.5061 55.651 72.6027 55.3301 72.5816C55.2605 72.577 54.0305 73.0264 54.1295 73.3977C54.7114 72.6539 54.679 73.8146 54.7155 73.8277C54.8539 73.8743 54.8813 73.2212 55.0486 73.1994C56.229 73.0558 55.262 74.2785 55.5882 74.4736C55.7002 74.5388 55.7784 73.9698 55.8242 73.9886C55.9728 74.0493 56.1193 74.7427 56.1947 74.6684C56.371 74.4959 55.9292 73.5635 55.9347 73.509C55.9877 72.857 56.8607 73.4725 56.6393 74.6334C56.9862 74.9628 56.7478 73.6577 57.0654 74.133C57.6972 75.0734 57.0188 74.9398 56.8814 75.1465C56.3971 75.8898 56.1111 75.4296 55.2862 75.7783C54.9885 75.9027 54.7469 76.6104 54.6099 76.6747C54.5221 76.7156 53.2148 74.6961 53.8952 78.1374C53.4969 77.8726 52.5031 75.7165 52.1825 75.8897C51.8936 76.0471 52.2394 77.2431 52.2202 77.296C52.1911 77.3789 51.7994 77.3589 51.709 77.5562C51.6029 77.7892 51.7716 78.2383 51.5753 78.4752C51.0828 79.064 50.8478 77.819 50.7711 77.7505C49.8857 76.9588 50.548 78.6631 50.4221 78.836C50.3087 78.9948 48.1478 78.7217 47.8212 79.2515C47.9427 78.9684 48.0645 78.6854 48.1866 78.4022C47.7243 77.6889 47.6517 79.0176 47.3673 77.6295C47.7516 79.8855 46.8128 78.5135 46.6341 78.6092C46.5636 78.648 46.6455 79.0292 46.5546 79.0644C46.2022 79.2042 45.3093 79.0648 45.1473 79.2982C44.4463 80.3043 46.9368 81.2546 47.1253 81.3038C46.7759 81.3479 44.8958 82.242 46.0184 83.141C46.192 83.2796 46.2431 82.226 46.3147 82.1709C46.7974 81.8066 46.5564 82.7896 46.6156 82.8668C46.7134 82.991 46.8898 82.0518 47.0028 82.1371C47.0404 82.1641 47.003 83.0185 47.5148 82.9346C47.4232 83.7741 45.8625 83.4145 45.7121 83.6367C45.6593 83.7159 46.4072 85.3225 44.867 83.9224C44.9121 84.0763 44.9573 84.2302 45.0025 84.3842C44.3264 84.5843 43.666 84.7809 42.9969 84.9787C43.0006 84.603 43.2435 83.8022 42.7892 84.0509C42.5283 84.1944 42.8914 84.9587 42.8706 84.987C42.6611 85.2592 38.2243 85.8423 37.3966 86.0934C37.1112 86.1787 36.4453 86.9776 36.3805 87.0025C36.019 87.1391 34.6603 86.9631 34.4129 87.1051C34.2629 87.1946 34.545 87.8384 34.3951 87.8344C34.2557 87.8297 34.2695 87.1526 34.2246 87.133C33.8543 86.9597 31.5306 88.2886 30.8282 87.7869C31.2198 87.9029 32.7665 86.2598 32.6453 85.8074C32.6249 85.7461 32.0921 85.335 32.0491 85.5934C31.7926 85.0586 31.6162 86.87 31.269 86.5873C31.2305 86.555 31.1689 85.5696 30.6406 85.4896C30.4567 85.463 30.167 86.2956 29.5495 85.5425C28.9779 86.07 25.3671 85.4702 25.3362 86.5489C25.3392 86.6049 25.8818 86.8691 25.6437 87.355C25.3302 88.0003 25.3403 86.0288 24.8207 85.9596C24.7512 85.9469 23.4138 86.4065 23.4042 86.5307C23.2046 87.6754 24.4587 87.8786 24.4703 88.0051C24.4853 88.3256 23.5539 88.7033 23.4949 88.6387C23.4413 88.5698 23.9693 87.0011 23.1095 87.7252C23.2519 87.8724 23.395 88.0194 23.539 88.1663C23.1497 88.5836 22.9196 87.6151 22.7997 87.5768C22.4381 87.4519 22.3488 89.0096 21.4668 87.2823C21.2325 86.824 21.3533 86.239 21.3218 86.1696C21.2108 85.9372 21.1607 86.0429 21.1154 86.2002C21.0278 86.4652 20.9515 86.8743 20.6222 86.0916C20.5829 85.9984 21.0451 85.0932 19.9635 85.3075C20.0636 85.4175 20.1659 85.5271 20.2633 85.6377C20.1645 85.9478 19.0989 86.334 18.9393 86.2974C18.4725 86.1905 18.6658 85.2179 18.2511 85.4128C18.7777 86.5867 17.4857 87.0136 17.3509 85.939C17.4303 87.3067 16.1038 86.5066 15.5575 86.5839C15.2181 86.6327 14.6421 87.3526 14.5205 87.3065C14.3719 87.2498 14.2351 86.3334 13.9508 86.1805C13.8683 86.1371 13.2994 86.9437 12.4703 86.1325C12.3084 85.9767 11.7393 84.4896 11.8943 84.0586C12.1564 83.3218 13.1355 84.4149 12.9462 83.5069C12.7349 82.5374 11.8746 83.3118 11.5689 83.2406C10.1971 82.9027 10.7187 81.7234 10.6222 81.4168C10.3911 80.6718 9.69446 80.8336 9.64957 80.7711C9.4668 80.4912 9.85376 79.7895 9.76401 79.3244C9.65927 78.7168 8.76503 77.7581 8.88064 77.5236C9.04161 77.1916 9.83512 77.9804 9.86537 77.9291C10.2435 77.2442 9.28642 75.9819 8.96076 75.3327C8.8622 75.1327 9.02056 74.7408 8.96118 74.6881C8.05068 73.8907 9.19213 76.6833 8.66931 76.5842C8.18518 76.4989 8.58606 75.4672 8.55305 75.4209C8.52505 75.3688 7.98716 75.4214 7.8345 75.1133C7.77545 74.9567 8.77404 72.9059 8.5542 72.1165C8.17298 72.3753 7.77089 72.6374 7.36664 72.8984C7.13384 71.8594 7.90967 72.5072 7.9485 72.3875C8.03357 72.1465 7.57461 71.6873 7.52365 71.3543C7.4946 71.1419 7.76278 70.3113 7.32611 70.0757C7.17245 69.9947 7.04471 70.7804 6.41203 70.1245C7.89991 68.8469 6.62821 68.4822 6.51149 68.1209C6.39889 67.7586 7.00417 66.738 6.0871 67.0746C5.65851 65.0474 5.98033 66.4285 6.18605 66.018C6.42619 65.5153 5.54196 64.9931 6.832 65.2683C6.57555 64.3308 5.63544 64.5834 5.57133 64.5162C5.51496 64.4556 5.63509 63.9468 5.52969 63.8025C4.2851 62.1315 5.06277 62.8548 4.57925 61.7282C4.53527 61.6284 3.61796 61.3452 4.22563 61.0567C5.31614 60.5306 6.06296 61.7804 5.68962 58.86C4.59552 57.7756 3.94566 59.8283 3.68932 59.906C3.3032 60.0221 3.60431 59.3596 3.52651 59.2028C3.49784 59.1531 3.1771 59.2599 3.16438 59.2135C2.54629 57.0506 4.62504 58.9114 5.12484 58.4126C4.90785 58.113 4.70324 57.8109 4.49119 57.51C4.68459 57.459 4.88807 57.4057 5.07868 57.3547C4.00325 56.8769 4.99655 57.1109 4.88453 55.2832C4.85673 54.8732 4.37207 55.681 4.86049 54.4301C4.28836 54.2759 4.38536 53.8792 4.01688 54.4719C3.88557 53.757 4.78456 52.745 5.13066 52.295C3.50326 51.7835 4.83932 54.2409 3.32566 53.0955C3.26311 54.0244 3.8217 53.7391 3.80437 53.8935C3.72682 54.4528 3.1649 53.6971 3.02685 55.626C3.00324 55.9427 3.50623 56.8138 3.0048 56.8577C2.9496 56.8612 2.50829 56.1167 2.50604 56.0574C2.43545 55.4272 2.77081 55.6096 2.73686 55.3468C2.70445 55.0986 2.40212 55.3042 2.39506 55.2347C2.24729 54.4551 2.61158 54.8894 2.52714 54.6518C2.32322 54.1395 0.997956 52.6338 2.48743 52.8833C1.43662 53.9775 2.44963 53.7842 2.92389 53.3435C3.0421 53.2335 2.98657 52.7616 3.14647 52.5639C3.35263 52.3079 3.68868 52.4745 3.80239 52.3638C3.92499 52.242 2.91037 51.2987 4.1329 51.4004C3.32315 50.4243 2.52268 51.7885 1.90003 51.1023C0.72309 49.7007 2.2057 49.0997 2.43958 48.8939C2.48332 48.8433 2.19146 48.2471 2.21876 48.202C2.25968 48.1341 3.39422 48.2157 3.41507 47.671C3.42084 47.1305 3.01293 47.7747 2.87331 47.2394C2.77146 46.8814 3.99459 45.9682 3.21284 45.8636C2.67665 45.7926 2.06789 47.4306 1.64141 45.8764C2.28087 45.621 2.99409 45.345 3.71581 45.066C3.18802 44.5482 2.66323 44.0293 2.1591 43.5052C2.91854 43.1597 3.79256 43.6881 4.42205 42.67C2.11052 41.1367 4.7414 41.0131 4.72692 40.7725C4.70781 40.6311 3.62964 39.2273 3.45355 38.9661C3.99934 38.2337 6.02161 37.5211 4.41932 35.8429C4.72768 36.2326 5.04811 35.0526 5.02488 34.9731C4.78049 34.1383 3.72879 34.9235 3.76529 34.1177C3.80371 33.1834 4.35576 34.3292 4.67706 34.164C6.32045 33.3094 4.95719 28.9686 6.86068 29.3159C6.7938 29.1651 6.72701 29.0142 6.66031 28.8633C7.64491 28.7955 8.63327 28.7275 9.62455 28.6597C10.6552 28.5852 11.7047 28.5103 12.7078 28.4461C13.2294 26.9365 15.093 25.72 16.1103 25.6808C16.3121 25.6723 17.4341 26.1956 17.5246 26.3078C17.7044 26.5214 16.9839 26.754 17.4031 27.1388C17.4838 27.2188 19.1986 27.2008 18.9276 26.4657C18.7342 26.4114 18.2206 26.9053 18.0935 26.7442C17.1987 25.5916 22.4348 25.6478 22.5717 25.0878C22.413 24.8626 22.2547 24.6373 22.0966 24.412C22.4344 24.4731 22.7813 24.5324 23.1167 24.5938ZM20.4443 88.3452C20.4083 89.1434 19.8249 88.6662 19.5881 88.9358C19.2694 89.3107 19.1967 92.3718 18.8894 89.3802C19.4123 89.034 19.9301 88.6891 20.4443 88.3452ZM28.7899 87.8941C28.3263 87.5588 28.3114 85.8593 28.7559 86.4818C28.8036 86.5531 29.4134 88.3456 28.7899 87.8941ZM24.686 87.877C24.6978 87.8521 25.0321 87.8323 25.0458 87.8564C25.4629 88.4592 24.4621 88.5137 24.686 87.877ZM44.0489 83.2705C43.6309 83.4261 44.236 84.8563 44.385 84.1896C44.3942 84.1473 44.0766 83.2615 44.0489 83.2705ZM43.7341 83.2913C43.1372 82.0215 42.9985 84.8593 43.4776 84.4825C43.5237 84.4449 43.7622 83.3533 43.7341 83.2913ZM27.3108 87.5013C27.2586 86.9801 27.6917 87.1534 27.8818 87.244C27.9646 87.7131 27.471 87.4111 27.3108 87.5013ZM37.3474 85.4303C37.2835 85.0251 35.9044 85.3133 35.9057 85.8634C36.0892 85.5947 37.3973 85.796 37.3474 85.4303ZM40.8238 84.1713C40.7742 84.1088 40.3103 84.3087 40.3936 84.661C40.7196 85.0813 41.0458 84.4551 40.8238 84.1713ZM47.9892 82.7867C47.9983 82.6922 47.1812 80.5073 48.3458 81.8203C48.5167 82.0125 48.179 82.6934 48.2404 82.7654C48.3668 82.9045 48.4567 82.9631 48.5197 82.9643C48.1515 83.2324 47.7509 83.4037 47.6833 83.2747C47.3646 82.6655 47.9845 82.8264 47.9892 82.7867ZM51.4226 80.3471C51.4304 79.9624 52.0051 80.0507 52.1535 80.1783C52.18 80.2026 52.2865 81.1883 52.5095 81.0676C52.6883 80.9691 52.2015 80.0364 52.6057 80.1192C53.0146 80.2016 52.6554 81.0101 52.6985 81.0538C52.7558 81.111 53.2485 80.5472 53.3481 81.1269C53.4214 81.5565 52.7372 81.3954 52.6021 81.5173C52.4287 81.6739 52.8121 82.3365 52.4517 82.2506C52.2243 82.1975 52.0857 80.9236 52.0289 80.8694C51.9811 80.8261 51.3979 81.6935 51.4245 80.3508C51.4239 80.3496 51.4232 80.3483 51.4226 80.3471ZM48.6174 82.8873C48.5957 82.9356 48.5652 82.965 48.5197 82.9643C48.5533 82.9399 48.5854 82.913 48.6174 82.8873ZM21.4271 87.5777C21.5207 87.7038 21.5228 87.8628 21.4733 87.9927C21.3725 88.2258 21.099 88.3696 20.8947 88.0743C20.8197 87.7209 21.2438 87.5662 21.3882 87.5663C21.4079 87.5667 21.4217 87.5706 21.4271 87.5777ZM48.7847 81.7942C49.4434 81.9883 49.0903 82.5074 48.6174 82.8873C48.7379 82.6183 48.564 81.7294 48.7847 81.7942ZM32.0491 85.5934C32.0916 85.6822 32.1351 85.8249 32.1829 86.064C32.0681 85.8145 32.0354 85.6749 32.0491 85.5934ZM33.5007 85.7585C33.8276 84.9399 32.8873 85.1504 32.9911 85.6715C33.035 85.8673 33.4865 85.7913 33.5007 85.7585ZM44.6192 83.2323C44.5616 83.1696 44.8097 80.8356 44.1457 82.681C44.7239 82.8366 44.2146 83.1856 44.2608 83.3767C44.3919 83.9261 45.1703 83.22 45.4106 83.4212C45.3663 82.4007 44.8129 83.4383 44.6204 83.2321C44.62 83.2322 44.6196 83.2322 44.6192 83.2323ZM58.3451 79.4776C58.347 80.0817 57.926 79.9752 57.6601 79.9951C57.6598 79.3907 58.0826 79.497 58.3451 79.4776ZM123.727 65.7695C121.942 66.6962 121.245 64.3771 123.136 64.9624C123.17 64.9759 123.793 65.5065 123.727 65.7695ZM108.656 68.127C108.296 67.1281 108.774 66.8603 109.213 67.215C109.311 67.295 109.808 68.2806 109.518 68.5505C109.281 67.2997 108.667 66.9263 108.656 68.127ZM48.9893 81.0673C49.025 80.3459 49.6591 80.7271 49.9643 80.7729C49.9043 81.3733 49.2809 81.2325 48.9893 81.0673ZM117.542 65.729C117.339 65.688 117.396 66.6079 117.441 66.6765C117.646 66.9917 117.856 66.1975 117.542 65.729ZM47.2408 81.3055C47.1343 80.9 47.7652 80.3635 48.018 81.3683C47.8505 81.3254 47.3092 81.5597 47.2408 81.3055ZM57.7959 79.2715C57.6423 79.0861 58.1362 78.5938 58.3516 78.7644C58.4287 79.2034 57.8986 79.3914 57.7959 79.2715ZM114.682 66.6068C114.506 66.5603 114.094 66.6166 114.12 66.988C114.153 67.4519 114.72 67.1803 114.682 66.6068ZM144.061 52.5254C143.979 52.737 146.353 53.2108 147.527 52.2652C147.545 52.2504 147.562 52.2358 147.579 52.2216L154.755 47.1248C154.654 46.963 154.515 46.8376 154.379 46.7403L147.34 51.7402C146.033 52.0397 144.022 52.4699 144.061 52.5254ZM119.201 64.9214C119.895 65.6698 119.147 64.9601 119.35 65.8527C119.708 65.8155 120.612 65.6814 119.824 64.9209C119.673 64.7735 119.37 64.9483 119.201 64.9214ZM118.659 64.7166C118.661 65.0185 118.46 66.0107 118.777 65.8798C118.923 65.818 118.965 64.7512 118.659 64.7166ZM154.209 46.8046C153.515 46.3689 154.219 46.2137 154.245 46.4028C154.301 46.4532 154.353 46.5012 154.396 46.5419C154.21 46.3655 154.165 46.3457 154.625 46.8039C154.599 46.7542 154.654 46.7792 154.6 46.7312C154.578 46.7101 154.557 46.6904 154.535 46.6705C154.996 46.9997 154.395 46.8185 154.209 46.8046ZM151.752 48.5674C151.238 47.2897 152.878 48.4891 152.903 48.5641C153.131 49.6196 152.231 48.34 152.164 48.312C152.047 48.2721 152.263 49.1204 151.753 48.5657C151.753 48.5663 151.752 48.5669 151.752 48.5674ZM153.738 46.852C153.729 46.8213 153.916 46.6904 153.943 46.7093C154.581 47.0062 154.058 47.3732 153.738 46.852ZM53.9834 78.3742C54.3455 78.506 54.1802 79.3031 53.9128 79.0835C53.89 79.0611 53.6642 78.2575 53.9834 78.3742ZM118.438 64.9655C118.333 64.8426 116.341 64.6915 116.673 65.7767C116.802 65.616 119.07 65.7615 118.438 64.9655ZM104.57 67.4384C104.897 67.3809 104.755 68.4962 104.501 68.1429C104.406 68.0115 104.487 67.4535 104.57 67.4384ZM46.1017 80.5462C45.8638 81.1897 45.5552 79.2502 45.9906 79.8497C46.0077 79.8732 46.1111 80.5211 46.1017 80.5462ZM107.262 67.5191C106.289 68.3731 105.875 65.0125 107.55 65.8389C107.534 65.9955 107.517 66.1521 107.501 66.3087C109.271 66.471 107.67 66.5172 107.286 66.7873C107.147 66.8884 107.386 67.4151 107.264 67.5228C107.263 67.5216 107.263 67.5203 107.262 67.5191ZM102.79 67.7333C101.293 65.7326 103.367 66.5938 104.08 66.3381C104.123 66.3227 104.16 66.3031 104.191 66.2783C104.165 66.351 104.138 66.4188 104.11 66.4824C103.695 67.3737 103.074 67.4309 104.246 68.1576C102.742 68.6624 103.196 67.5965 103.118 67.5314C103.028 67.4589 102.858 67.8246 102.79 67.7333ZM105.68 67.1313C105.721 67.0516 106.295 67.4333 106.446 67.3217C106.369 68.1722 105.367 67.6795 105.68 67.1313ZM137.202 60.5564C137.156 60.3689 137.123 60.1931 137.116 60.0399C139.626 60.2653 144.578 54.8556 146.951 54.0064C146.844 53.6306 146.978 53.2525 147.573 52.8861C147.593 53.2733 147.391 53.8301 147.244 54.3099C144.833 55.1724 139.804 60.667 137.254 60.4381C137.235 60.478 137.218 60.5175 137.202 60.5564ZM19.4257 85.1072C19.1627 85.113 18.6017 84.9791 18.8916 85.6087C18.9176 85.6621 19.5035 85.4776 19.4257 85.1072ZM112.898 65.5248C112.818 65.4601 111.416 65.6827 112.036 66.2819C112.22 66.4629 113.487 66.1211 112.898 65.5248ZM120.371 64.1344C120.237 64.1542 119.769 64.3708 119.785 64.5222C119.856 65.0428 120.407 64.639 120.371 64.1344ZM18.0037 84.7231C17.9599 84.664 17.1949 84.9382 17.344 85.2256C17.6236 85.7694 18.1651 84.9244 18.0037 84.7231ZM54.8533 76.6615C54.9164 76.6243 55.1471 77.2879 55.1723 77.2906C55.2328 77.2885 56.4121 76.7704 56.1219 77.7439C56.0769 77.9067 54.2159 77.9402 53.97 77.9C53.688 76.9818 54.6308 77.7167 54.7974 77.5818C54.8264 77.5568 54.6858 76.7689 54.8536 76.6656C54.8535 76.6642 54.8534 76.6629 54.8533 76.6615ZM149.914 50.6172C149.594 50.0733 150.74 48.0338 151.249 48.5664C150.893 49.1582 150.46 49.8388 149.914 50.6172ZM148.838 51.6854C148.065 51.897 149.025 50.6284 149.413 50.4589C149.739 50.7112 148.966 51.6439 148.838 51.6854ZM117.155 62.4558C117.038 62.6303 117.657 63.4128 117.59 63.6016C117.547 63.7195 117.157 63.4574 117.106 63.7503C117.093 63.8426 117.588 64.5951 117.677 64.541C117.803 64.467 117.545 63.8491 117.692 63.8155C118.169 63.7072 118.722 64.075 119.177 63.9738C119.218 63.9633 118.801 63.5734 119.164 63.5082C119.22 63.4971 119.697 64.1063 120.107 63.9201C120.662 61.6291 121.782 63.5455 122.911 62.5249C122.821 62.3384 121.761 62.0049 121.704 61.9959C120.574 61.8682 118.752 62.1913 117.702 62.3932C117.437 62.4436 117.653 62.8622 117.542 62.901C117.453 62.9309 117.4 62.0875 117.155 62.4558ZM19.4693 84.6261C19.1866 83.8293 18.857 84.4356 18.578 84.4475C18.819 85.169 19.1727 84.4964 19.4693 84.6261ZM129.57 61.3295C129.397 61.407 128.782 61.2993 128.8 61.554C128.815 61.8895 129.67 61.8917 129.57 61.3295ZM61.8966 75.4246C61.9055 75.3994 62.2565 75.37 62.2751 75.393C62.7213 75.9842 61.6672 76.0693 61.8966 75.4246ZM70.1294 73.7859C70.3664 73.6268 70.5712 73.3127 70.8079 73.9553C70.6191 73.8913 70.2024 74.2541 70.1294 73.7859ZM81.1062 71.2483C80.8631 70.3917 81.7086 70.7911 81.8693 70.8369C81.9001 71.2348 81.2866 71.8642 81.1062 71.2483ZM136.214 57.9449C136.273 57.9292 136.323 57.9051 136.365 57.8745C138.661 58.0807 143.19 53.1328 145.361 52.356C145.893 51.6209 145.021 50.9789 145.873 50.9026C146.017 50.8986 148.338 52.5487 146.653 52.7549C146.368 52.7878 146.528 51.803 145.42 52.4171C143.242 53.1966 138.697 58.1615 136.393 57.9547C136.338 57.9482 136.279 57.9448 136.214 57.9449ZM107.792 65.8191C107.793 65.2191 108.188 65.3181 108.437 65.3164C108.47 65.7555 107.959 65.7428 107.792 65.8191ZM16.4542 84.349C16.0773 83.5778 15.1897 84.3852 15.5474 84.8727C15.5999 84.9351 16.313 84.3454 16.4542 84.349ZM49.6734 78.194C49.9667 77.468 49.0501 77.446 48.8971 78.1283C49.0136 78.0622 49.6556 78.2416 49.6734 78.194ZM78.4629 71.3555C78.4768 71.3248 78.9161 71.2886 78.9416 71.3158C79.4419 71.9015 78.2019 72.0069 78.4629 71.3555ZM67.1982 73.3327C67.2475 72.7709 68.4061 72.9587 68.7648 73.4307C68.7041 74.2507 67.1418 74.0336 67.1982 73.3327ZM133.638 59.1826C134.094 59.0143 134.589 59.0322 135.093 59.1133C135.141 59.5769 133.781 59.4953 133.638 59.1826ZM80.0022 70.9454C80.0257 70.9438 80.059 70.9887 80.0818 70.9892C80.0551 70.9756 80.0281 70.9592 80.0022 70.9454ZM124.155 61.2427C123.807 61.134 124.043 61.9322 124.068 61.953C124.36 62.1659 124.549 61.365 124.155 61.2427ZM18.9153 83.4803C18.6685 82.7657 18.3254 83.4272 18.0214 83.3064C18.2218 83.8696 18.7097 83.6016 18.9153 83.4803ZM101.296 66.4691C100.781 65.7441 102.037 64.5289 102.447 64.98C102.568 65.4676 101.369 66.5679 101.296 66.4691ZM48.1345 77.357C47.9905 76.7872 47.5237 77.603 47.7068 77.8492C47.8226 78.006 48.223 77.7113 48.1345 77.357ZM103.245 65.1677C103.345 64.9646 103.78 65.4673 103.738 65.8361C103.683 66.309 103.22 65.2252 103.245 65.1677ZM115 62.3456C114.926 62.2687 114.246 63.0163 114.69 63.5392C114.999 63.9026 114.871 63.063 114.924 63.05C114.988 63.0403 116.438 63.814 115 62.3456ZM93.3156 67.5557C93.5573 67.2758 93.9577 67.4616 94.2564 67.3843C94.2055 67.7651 93.534 68.0031 93.3156 67.5557ZM50.4531 76.7301C50.331 76.513 48.3071 76.7747 49.5864 77.2625C49.6592 77.2901 50.8186 77.3898 50.4531 76.7301ZM136.214 57.9449C136.129 57.9669 136.025 57.973 135.896 57.9555C136.013 57.94 136.121 57.945 136.214 57.9449ZM128.975 59.9799C129.006 59.532 128.296 59.5906 128.153 59.8585C128.214 60.3816 128.966 60.0444 128.975 59.9799ZM94.1605 66.7956C94.2848 66.5208 94.6542 66.712 94.8647 66.6403C94.9069 67.037 94.3151 67.1759 94.1605 66.7956ZM82.0074 68.928C82.3927 69.0836 82.7965 68.8825 82.6954 68.4072C82.719 68.4798 82.753 68.5548 82.7979 68.6278C82.8441 68.6997 83.1541 68.3994 83.3507 68.5258C84.5085 69.2763 79.8201 69.9069 82.1884 67.9714C82.1242 68.2911 82.0681 68.609 82.0074 68.928ZM65.5058 72.5337C65.1744 72.0008 64.7529 72.8514 64.9529 73.0462C65.0931 73.179 65.8394 73.0703 65.5058 72.5337ZM73.3822 70.4079C73.2966 70.3193 72.8229 70.853 72.8778 71.1599C73.2767 71.4054 73.7747 70.8208 73.3822 70.4079ZM63.771 72.2028C63.6228 72.1436 63.6599 73.1115 63.6838 73.1489C63.889 73.4608 64.101 72.6746 63.771 72.2028ZM134.067 55.9531C133.729 55.7771 133.122 56.6909 133.127 57.347C133.058 57.2406 132.922 57.1162 132.703 56.983C132.704 56.9829 132.704 56.9827 132.705 56.9826C132.337 56.8778 126.024 58.2374 130.533 58.3106C130.678 58.3113 130.344 57.8171 130.918 57.7627C130.956 57.7596 131.098 58.1995 131.217 58.1895C131.484 58.1693 132.98 58.0364 133.163 57.5886C133.19 57.6697 133.232 57.7419 133.293 57.8013C133.847 58.3308 134.338 56.0879 134.067 55.9531ZM74.4838 70.0669C74.3314 69.9266 74.008 70.1681 74.0624 70.5735C74.2858 70.727 74.8381 70.3944 74.4838 70.0669ZM50.0597 75.1045C49.7625 74.8228 49.3052 75.554 49.5467 75.8449C49.6944 76.0241 50.4016 75.4278 50.0597 75.1045ZM70.9243 71.1049C72.3618 71.2726 71.2336 70.9949 71.3052 70.366C71.1784 70.6123 71.0512 70.8587 70.9243 71.1049ZM150.113 45.3719C149.882 45.4444 149.102 44.5281 149.73 44.7638C149.929 44.8393 150.24 45.3303 150.113 45.3719ZM140.269 49.216C140.164 48.1741 140.442 48.7777 140.366 49.4982C140.358 49.5225 140.269 49.2557 140.269 49.216ZM150.63 43.4643C151.135 43.9695 151.186 44.0382 150.934 44.0653C150.946 43.7388 150.319 43.5059 150.63 43.4643ZM82.6751 68.3333C82.6835 68.3609 82.69 68.3813 82.6954 68.4072C82.6873 68.3822 82.6808 68.3582 82.6751 68.3333ZM62.5644 72.6532C62.2709 72.0998 61.8152 72.2431 62.0812 72.8066C62.1063 72.8587 62.5899 73.1034 62.5644 72.6532ZM133.127 57.347C133.188 57.4412 133.193 57.5126 133.163 57.5886C133.137 57.5123 133.127 57.4357 133.127 57.347ZM64.9588 71.6309C65.038 72.0741 65.7822 72.0902 65.7995 72.0323C66.0384 71.1812 65.2439 71.541 64.9588 71.6309ZM45.2823 75.4163C45.2553 75.4695 45.7137 76.5623 45.7682 76.0877C45.8101 75.7195 45.3822 75.2144 45.2823 75.4163ZM150.642 43.0154C150.666 42.9913 150.683 42.9729 151.075 43.3605C151.015 43.3008 150.939 43.2901 150.642 43.0154ZM140.184 48.4623C140.187 49.1114 140.289 49.106 140.522 48.9682C140.353 48.1318 140.115 48.67 140.184 48.4623ZM134.977 55.9878C134.941 55.9643 134.113 55.9694 134.392 56.4784C134.804 57.2264 135.29 56.2105 134.977 55.9878ZM46.4851 75.8055C46.6587 75.3697 45.846 74.2988 45.7657 75.2669C45.7236 75.763 46.4551 75.8787 46.4851 75.8055ZM60.948 72.1927C60.6867 72.5866 61.6288 72.9875 61.6187 72.3786C61.456 72.3645 61.0407 72.0532 60.948 72.1927ZM72.1008 69.1109C70.6729 67.6696 71.94 70.6041 72.0645 70.2924C72.082 70.2479 72.1354 69.1445 72.1008 69.1109ZM13.2394 81.4843C13.1419 81.7481 13.8521 82.4896 13.8137 81.915C13.7862 81.5561 13.2993 81.3166 13.2394 81.4843ZM87.3372 66.8217C87.2971 66.8359 87.2573 66.8502 87.2177 66.8637C87.2423 66.8297 87.2804 66.8122 87.3372 66.8217ZM57.4655 70.5719C58.701 72.7976 58.2388 70.9789 58.3044 70.9755C58.4473 70.9721 58.9017 71.5483 59.1388 71.3877C58.898 71.7187 58.6613 72.0486 58.4176 72.3799C58.6883 72.5029 60.9174 72.9449 60.88 72.5491C60.8253 71.9864 60.2159 72.2966 60.1872 72.252C60.1454 72.1888 59.7199 70.6828 59.648 70.6374C59.5288 70.5661 57.8211 70.8943 57.4655 70.5719ZM69.973 69.8705C70.182 70.0137 70.3661 70.6064 70.4118 70.4445C70.4273 70.3891 70.3016 69.8125 70.3589 69.643C70.2302 69.7189 70.1016 69.7947 69.973 69.8705ZM56.6032 72.987C56.2494 72.3243 57.2326 72.3985 57.2796 72.4711C57.5387 72.9162 56.8933 73.5283 56.6032 72.987ZM64.4929 71.1967C64.4494 71.1632 63.6842 71.0993 63.7751 71.4889C64.0289 71.7462 65.0093 71.6233 64.4929 71.1967ZM70.4624 69.5783C70.7297 69.5885 71.3397 70.0594 71.0876 69.2054C71.0872 69.2055 71.0868 69.2056 71.0864 69.2056C70.8789 69.3299 70.6702 69.4543 70.4624 69.5783ZM46.9747 73.794C46.237 72.4981 46.8047 74.2084 47.3032 74.5744C47.3025 73.9265 47.0954 74.0047 46.9747 73.794ZM45.2835 73.0551C45.1079 72.8305 43.8312 73.3678 44.1794 74.0623C44.3026 74.31 44.9414 73.4973 44.9834 73.5417C45.0514 73.6064 44.9701 74.4672 45.3436 74.2257C45.2652 73.9551 45.3441 73.1298 45.2835 73.0551ZM46.4139 72.9819C45.7403 72.0188 46.025 73.9862 46.3738 73.9222C46.5106 73.8985 46.5105 73.121 46.4139 72.9819ZM48.3291 72.7707C48.1248 72.6198 47.6277 72.4396 47.4535 73.1478C47.8708 73.1217 48.2945 73.094 48.7118 73.0675C48.6843 72.6915 48.5089 72.9033 48.328 72.7709C48.3284 72.7708 48.3287 72.7708 48.3291 72.7707ZM141.612 43.3534C141.275 42.7909 142.052 42.5743 142.102 42.7128C142.206 43.172 141.755 43.6046 141.612 43.3534ZM6.84894 64.3702C6.70631 64.1695 6.49584 63.4585 6.34672 63.8819C6.67954 64.3721 7.00239 64.864 7.33945 65.3529C7.26989 64.0936 7.00675 64.5914 6.84894 64.3702ZM5.12179 60.0585C5.14834 60.0225 4.60872 58.1711 5.25873 59.3508C5.69684 60.1481 4.36713 61.2647 3.94124 60.4742C4.16564 60.0316 4.89634 60.3536 5.12179 60.0585ZM1.45407 52.2724C1.38877 52.1278 1.64666 51.8622 1.73435 51.9561C2.08304 52.4758 1.51059 53.0966 1.45407 52.2724ZM2.85622 52.4015C2.54195 52.081 3.0387 51.7432 3.24478 51.9219C3.32944 52.2697 2.90241 52.4483 2.85622 52.4015ZM136.732 15.7454C136.086 14.5045 136.009 17.3497 136.669 16.6968C136.699 16.6664 136.758 15.8068 136.732 15.7454ZM1.4229 50.3176C1.66038 50.6567 1.28475 50.9613 1.25951 50.7462C1.17971 50.3975 1.36522 50.2723 1.4229 50.3176ZM136.012 12.699C135.136 11.8651 135.839 14.9548 135.94 15.0679C136.371 15.5081 137.357 14.1683 137.555 13.8498C135.93 14.467 136.383 13.107 136.012 12.699ZM132.506 15.3515C131.749 15.9283 134.092 15.9041 134.22 15.0146C133.867 15.1242 132.747 15.1681 132.506 15.3515ZM124.852 19.1066C124.573 19.2375 123.82 19.6738 124.11 20.0988C124.232 19.8197 125.142 19.5414 124.852 19.1066ZM123.32 18.5803C122.518 18.4649 123.921 19.8429 123.818 19.0802C123.814 19.0506 123.358 18.5933 123.32 18.5803ZM121.239 19.9193C120.469 19.627 121.767 21.0458 122.062 20.7642C122.147 20.6781 121.326 19.9549 121.239 19.9193ZM134.52 9.48485C133.777 9.26576 133.155 10.7675 134.607 10.662C134.156 10.9463 133.687 11.246 133.188 11.5713C135.268 11.9183 134.721 10.1466 135.262 10.1364C135.957 10.1563 136.062 11.7186 136.003 12.2173C136.43 11.1891 138.379 11.0261 139.23 10.8314C138.446 10.451 136.884 9.83926 135.656 9.74002C135.315 9.70771 135.037 10.1779 134.724 10.1784C134.214 10.18 134.558 9.50146 134.523 9.48444C134.522 9.48458 134.521 9.48471 134.52 9.48485ZM119.611 21.92C118.567 21.8198 120.286 22.7219 120.222 22.2509C120.21 22.2237 119.637 21.9223 119.611 21.92ZM0.660361 44.5725C0.304044 45.4125 0.421913 46.4958 1.24011 44.7099C0.910351 45.9268 1.35443 45.5207 1.33401 45.9908C1.31163 46.3642 0.96169 46.1212 1.263 46.81C0.907567 46.1035 -0.175153 46.3438 2.02991 46.117C2.02505 46.117 2.02021 46.117 2.0154 46.1171C2.45325 46.0336 1.02287 44.2604 0.660361 44.5725ZM121.189 15.7117C119.265 14.3797 121.893 16.9532 120.064 16.1187C121.591 18.5834 121.606 14.4198 123.626 15.7731C121.777 17.3911 124.199 16.7067 124.255 15.9106C124.621 14.9773 127.518 13.9177 128.153 13.1421C128.437 12.8409 128.422 12.5383 127.752 12.3346C127.079 13.1557 124.013 14.2775 123.625 15.2656C123.393 15.1729 123.086 15.0895 122.69 15.0233C122.912 14.9709 123.095 14.9218 123.244 14.8751C123.644 13.8539 126.814 12.6944 127.509 11.8457C130.675 11.1569 127.683 10.9154 128.15 10.2599C128.8 9.42041 131.275 9.18486 130.892 8.41679C130.891 8.41714 130.889 8.41749 130.888 8.41784C129.664 8.82584 128.264 9.37128 126.696 10.2099C125.925 11.1508 122.411 12.4363 121.967 13.5685C121.922 13.6203 121.877 13.672 121.832 13.7235C123.649 14.5481 122.204 15.1833 120.773 14.497C120.906 14.9066 121.045 15.3113 121.189 15.7117ZM131.728 11.1435C131.663 11.0643 128.796 12.3765 129.101 12.7051C129.744 12.5854 133.364 11.2377 131.728 11.1435ZM139.602 9.68107C139.165 9.68531 138.379 9.35347 138.125 10.0718C138.655 10.0466 139.381 10.3882 139.602 9.68107ZM122.074 19.3746C121.973 20.0131 122.88 19.8977 122.419 19.3301C122.397 19.3038 122.08 19.3449 122.074 19.3746ZM120.457 17.0505C119.508 17.0645 121.408 18.3112 121.267 17.5796C121.26 17.5361 120.501 17.0492 120.457 17.0505ZM0.390405 44.3282C0.222 43.7988 1.02681 44.0519 1.23229 44.0068C1.19218 44.5387 0.373837 44.9756 0.390405 44.3282ZM140.329 7.60173C139.479 5.62081 138.098 7.97264 137.935 7.93646C137.769 7.89465 137.976 7.01357 137.938 6.99242C137.894 6.93538 135.952 7.1597 135.802 7.25002C135.735 7.30471 136.246 8.47589 135.856 8.90542C136.794 8.06931 139.785 8.38715 139.811 8.2666C139.907 8.15742 139.125 6.88878 140.327 7.60175C140.328 7.60175 140.328 7.60174 140.329 7.60173ZM137.501 7.69651C137.986 8.1764 136.728 8.32419 136.341 8.17819C135.539 7.82915 137.479 7.62605 137.501 7.69651ZM133.77 7.65825C133.591 7.55246 131.428 7.91514 131.332 8.55397C132.652 8.94523 134.279 7.84083 133.77 7.65825ZM116.274 19.8591C116.22 20.0468 115.62 20.1001 115.999 20.422C116.025 20.2735 116.645 20.1923 116.274 19.8591ZM2.67825 39.4743C2.29869 39.1254 2.95581 38.8212 3.197 38.9764C3.27547 39.2992 2.70517 39.5054 2.67825 39.4743ZM116.794 14.0136C116.465 14.1282 114.675 16.9281 114.734 17.2532C115.157 17.3008 117.212 14.8194 117.269 14.5052C117.26 14.4323 116.828 14.0114 116.794 14.0136ZM134.898 4.02254C135.335 3.23065 135.744 4.0743 135.802 4.07921C136.421 4.12573 137.469 3.89118 137.28 4.61131C136.439 4.35841 134.058 5.59183 134.898 4.02254ZM113.578 17.9247C113.389 18.6051 114.783 18.0801 114.089 17.7236C114.042 17.7088 113.594 17.8585 113.578 17.9247ZM116.917 13.5499C116.741 13.1574 118.017 11.8498 119.258 10.7958C119.794 9.42805 124.039 7.87515 124.97 6.73856C127.041 5.77806 128.489 5.40283 128.985 5.23673C128.124 6.53608 126.953 6.37643 125.169 7.13736C124.256 8.25147 120.095 9.77365 119.569 11.1144C119.493 11.1706 119.42 11.2348 119.352 11.3106C119.197 11.4877 119.563 11.7646 119.546 11.7829C119.28 12.0796 119.118 11.4986 118.938 11.6685C118.765 11.8052 117.234 14.4282 116.917 13.5499ZM135.134 3.48319C135.52 2.98755 138.432 2.61275 138.44 2.7433C139.308 3.5219 135.644 3.52852 135.134 3.48319ZM115.951 13.179C115.249 12.039 117.312 11.0467 116.812 12.5301C116.765 12.6669 115.981 12.7189 115.951 13.179ZM112.672 17.1227C112.609 17.1433 112.039 17.4557 112.361 17.6975C112.501 17.7771 113.221 17.0889 112.672 17.1227ZM111.833 15.9793C111.83 15.9987 112.551 16.3397 112.255 16.5585C112.233 16.5711 111.496 16.0943 111.519 16.5826C111.525 16.6813 111.913 17.1227 111.946 17.1392C113.197 17.7743 112.093 14.9154 111.833 15.9793ZM135.117 2.77164C134.878 2.42761 135.236 1.28163 135.691 1.79554C135.88 2.01863 135.642 2.6991 135.117 2.77164ZM111.613 17.8709C111.101 17.4464 111.056 17.3075 111.276 17.3258C111.519 17.6678 111.628 17.951 111.613 17.8709ZM2.37026 34.3035C2.36991 34.3036 2.36955 34.3037 2.3692 34.3037C2.78184 34.3746 2.65355 34.9643 2.67445 34.9778C3.64229 35.6119 3.1845 34.4264 3.28085 34.2563C3.49049 33.8881 3.75136 35.3891 4.08801 34.6772C3.51083 35.7446 4.12391 35.2224 4.25455 35.7487C4.77803 37.8989 3.02603 34.94 2.74683 35.4685C2.70874 35.5416 3.2316 36.1565 3.13771 36.3801C2.82042 37.1074 0.82332 34.0252 2.37026 34.3035ZM135.985 1.67077C136.475 0.954092 139.14 1.46037 138.455 2.02926C138.452 2.09436 135.532 2.64614 135.985 1.67077ZM72.2035 20.6492C72.4223 20.0248 71.4889 19.5554 71.4337 20.0161C71.4082 20.245 72.1086 20.9229 72.2035 20.6492ZM66.1379 19.558C65.7616 19.7619 65.8616 22.1446 66.283 21.6738C66.3275 21.6227 66.257 19.8642 66.1379 19.558ZM92.7666 15.1527C92.2008 14.4125 92.5329 15.9332 92.8222 15.8523C92.9244 15.8239 92.7844 15.1761 92.7666 15.1527ZM76.9268 18.5967C76.8736 18.5525 76.3992 18.7559 76.4922 19.1018C76.7218 19.2719 77.2799 18.9026 76.9268 18.5967ZM92.8494 14.9099C92.6688 15.2327 93.2987 16.2537 93.3683 15.117C93.2396 15.2352 92.8679 14.8769 92.8494 14.9099ZM112.406 12.0396C112.677 12.7103 111.972 13.271 111.782 13.6872C111.091 13.224 112.253 12.4524 112.406 12.0396ZM68.0622 20.0834C67.8061 20.7404 68.7383 21.0178 68.4905 20.2832C68.4711 20.2447 68.0722 20.0556 68.0622 20.0834ZM106.062 12.1935C105.888 12.7309 106.868 13.2153 106.466 12.4096C106.449 12.377 106.072 12.1636 106.062 12.1935ZM109.765 11.7535C109.546 11.6273 108.707 11.8463 109.132 12.2532C109.201 12.3151 109.842 12.1994 109.765 11.7535ZM3.18581 33.6674C2.90839 32.8557 3.58145 32.9268 3.69994 33.0545C3.74764 33.108 3.54558 34.7238 3.18581 33.6674ZM90.1286 15.5484C89.9402 15.6947 89.3542 15.606 89.3453 16.0629C89.5858 15.9205 90.3727 16.4059 90.1286 15.5484ZM69.8097 19.6829C69.275 18.856 68.7162 19.0762 69.1261 20.2215C69.7431 19.9988 68.8114 19.1796 69.8097 19.6829ZM94.0142 13.6584C93.8258 13.6247 93.9218 14.7885 93.9526 14.838C94.2461 15.3088 94.2767 14.0655 94.0142 13.6584ZM81.3719 17.189C81.2623 16.7055 80.7406 17.0433 80.8812 17.3399C80.9281 17.4395 81.4619 17.5799 81.3719 17.189ZM119.462 9.15774C119.372 9.02885 119.338 8.88201 119.341 8.76119L109.295 14.9235C109.032 14.8629 108.795 14.9918 109.009 15.2779C109.465 15.7917 109.546 15.4062 109.598 15.2381L119.484 9.174C119.473 9.16785 119.465 9.16209 119.462 9.15774ZM98.8766 12.9777C98.7612 12.2507 97.9681 12.8327 98.4321 13.3618C98.549 13.4941 98.9161 13.2205 98.8766 12.9777ZM106.904 10.497C106.516 11.4676 108.98 11.616 108.152 10.6654C108.094 10.5977 106.941 10.4144 106.904 10.497ZM110.765 10.287C110.653 10.211 110.213 7.7789 110.771 8.63769C110.845 8.74889 110.748 9.4353 110.817 9.57367C110.855 9.65306 111.739 9.82644 111.758 9.76328C111.784 9.69108 111.578 8.92481 111.599 8.82967C111.619 8.72431 112.257 9.30274 112.499 9.25925C112.972 9.173 112.878 8.51839 112.916 8.50826C113.021 8.48126 113.303 8.89964 113.518 8.85221C114.626 8.60905 115.904 7.73139 116.858 8.92197C116.155 8.52595 115.7 9.25006 115.039 9.59001C114.946 8.20057 114.219 10.8625 114.611 9.14654C114.42 9.55332 111.173 10.5181 110.766 10.2868C110.766 10.2868 110.765 10.2869 110.765 10.287ZM64.3899 19.2519C64.4202 18.7828 64.0851 18.7005 63.7783 18.8754C63.5353 19.0224 63.319 19.3646 63.3755 19.8191C63.471 19.8684 63.7238 19.7462 63.948 19.602C64.1818 19.4605 64.3855 19.3007 64.3899 19.2519ZM69.8279 15.8976C69.9169 15.7284 69.6643 14.0945 70.478 14.7701C70.4786 14.7699 70.4792 14.7698 70.4798 14.7697C70.7175 14.967 70.5946 15.4061 70.6595 15.5383C70.6853 15.5925 71.4356 16.2661 70.989 16.5006C70.3046 16.8606 70.6518 15.3186 70.2618 15.3877C70.2161 15.3965 69.6819 16.4311 69.7666 16.613C69.7761 16.6343 69.955 16.4006 70.0089 16.472C70.2127 16.7401 70.2586 17.2576 70.2832 17.2772C70.3563 17.325 71.3249 16.2099 71.655 16.9219C71.7645 17.1501 69.9991 18.1282 69.8941 18.0209C69.8293 17.9524 69.5355 16.5531 69.4557 16.427C69.4158 16.364 68.7778 17.0571 68.6477 16.9519C68.6105 16.9214 68.5794 16.8864 68.5557 16.8572C68.7671 17.2627 68.0744 17.3872 67.9855 16.8956C67.9543 16.7015 68.4481 16.7059 68.4755 16.7349C68.4862 16.7474 68.4972 16.7654 68.5063 16.7775C68.2923 16.2728 69.8986 15.9358 69.3782 15.2308C69.7511 14.6966 69.57 16.3938 69.8279 15.8976ZM71.8822 14.5371C71.8663 14.6945 71.8504 14.852 71.8344 15.0095C72.5663 14.471 73.6804 14.968 74.6177 14.7597C74.8594 14.7072 74.3873 13.8684 74.7568 14.0457C75.0526 14.1879 75.5083 14.9623 75.4123 15.1775C75.3902 15.2307 74.7591 14.7985 74.5132 14.9101C73.7962 15.2383 74.1517 15.9683 74.1128 15.9985C74.0678 16.0312 73.4736 15.5931 73.2204 15.6738C72.5758 15.8805 72.3887 16.4172 71.3584 15.9977C71.755 15.3774 71.2357 14.3359 71.8822 14.5371ZM102.093 10.0671C102.029 9.57387 102.631 9.90412 102.801 9.79662C102.868 10.2903 102.27 9.95783 102.093 10.0671ZM25.8194 25.391C25.8171 26.221 27.0275 26.193 26.5902 25.587C26.4977 25.4516 25.9667 25.3685 25.8194 25.391ZM31.1425 24.8634C31.255 24.612 30.5154 24.1589 30.6377 24.7773C30.6771 24.9756 31.1277 24.8961 31.1425 24.8634ZM82.6344 13.0774C82.6599 13.0461 83.1468 13.1321 83.1685 13.17C83.6383 13.9568 82.0617 13.7681 82.6344 13.0774ZM37.2555 22.6321C36.8236 23.2632 38.4856 23.1659 37.8574 22.5977C37.826 22.5702 37.2759 22.6016 37.2555 22.6321ZM39.4683 22.0346C39.345 22.0888 38.7235 21.9439 38.7654 22.1889C38.833 22.5844 39.5393 22.7213 39.4683 22.0346ZM93.5203 10.619C93.2759 9.73209 94.1948 10.2551 94.45 10.0858C94.6903 10.9741 93.7757 10.4489 93.5203 10.619ZM88.5684 10.9281C91.6429 9.57274 91.3269 11.6365 88.4632 11.4051C88.3435 10.8287 88.3728 11.0138 88.5684 10.9281ZM92.6759 10.211C92.6758 10.224 92.6754 10.2367 92.6749 10.2491C92.6606 10.8064 92.2789 10.7126 92.0335 10.7153C91.9963 10.3119 92.5061 10.3491 92.6684 10.217C92.671 10.215 92.6735 10.213 92.6759 10.211ZM24.1902 24.4206C24.2593 23.6511 25.318 24.3799 25.2188 24.7109C25.1951 24.7829 24.1952 24.8356 24.1902 24.4206ZM82.7605 12.2502C82.505 11.3913 83.5867 11.5429 83.7029 11.7218C84.1722 12.4401 82.8047 12.04 82.7605 12.2502ZM98.0987 8.89878C98.1381 8.17814 98.7032 8.43247 99.0335 8.37646C99.0004 8.99243 98.3711 8.85739 98.0987 8.89878ZM95.6533 8.82883C95.6695 8.7982 96.1388 8.76847 96.1647 8.79612C96.6716 9.3909 95.35 9.47757 95.6533 8.82883ZM0.536907 27.8235C0.544605 27.799 0.875392 27.7784 0.888994 27.8024C1.3032 28.4042 0.325434 28.4596 0.536907 27.8235Z" fill="#FF3131"/>
</svg>
