<svg width="101" height="80" viewBox="0 0 101 80" fill="none" xmlns="http://www.w3.org/2000/svg">
<mask id="mask0_333_421" style="mask-type:luminance" maskUnits="userSpaceOnUse" x="0" y="0" width="101" height="80">
<path d="M101 0H-0.000457764V79.2018H101V0Z" fill="white"/>
</mask>
<g mask="url(#mask0_333_421)">
<path d="M0.279579 24.4365C0.396896 23.7061 0.873741 23.1346 1.25408 22.5235C1.28057 22.4818 1.36005 22.4497 1.41303 22.4497C1.67226 22.4553 1.74228 22.3437 1.65334 22.1053C1.59847 21.9615 1.6628 21.7855 1.76499 21.742C2.25887 21.5357 2.21723 20.9661 2.54838 20.6482C2.88898 20.319 3.14443 19.8838 3.52099 19.6151C3.91647 19.3331 4.17003 18.913 4.61282 18.6784C4.93829 18.5081 5.19373 18.1807 5.40567 17.8931C5.56083 17.6831 5.50785 17.2819 5.47189 16.9754C5.43216 16.6518 5.32809 16.3415 5.33187 16.0028C5.33755 15.5297 4.93261 15.2497 4.70554 14.8845C4.68472 14.8485 4.59011 14.8239 4.59389 14.8107C4.69418 14.4038 4.24572 14.2922 4.15678 13.9894C4.153 13.9781 4.13408 13.9686 4.13597 13.961C4.2268 13.6507 3.85592 13.4539 3.93729 13.1436C3.96188 13.0452 3.89944 12.9506 3.83321 12.8768C3.60614 12.6157 3.61182 12.2902 3.59668 11.9761C3.58722 11.7452 3.84267 11.6052 4.07163 11.7187C4.70554 12.0347 5.31295 12.4094 5.75384 12.9714C5.97523 13.2533 6.24961 13.4728 6.47857 13.7434C7.01597 14.3754 7.54391 15.0093 8.06616 15.6508C8.26674 15.8987 8.23079 16.2317 8.48057 16.438C8.65655 16.5818 8.75873 16.6821 8.96877 16.4323C9.12961 16.2393 9.45885 16.3074 9.70863 16.2753C10.9178 16.1087 12.1307 16.0747 13.3323 16.3566C13.7315 16.1428 14.11 16.3869 14.4922 16.3888C14.7609 16.3907 15.0107 16.3945 15.251 16.491C15.4062 16.5515 15.5405 16.4891 15.6711 16.4683C15.7846 16.4512 15.9644 16.3226 15.9701 16.2336C15.9871 15.9687 16.146 16.1579 16.2085 16.1201C16.3201 16.0482 16.2653 15.8684 16.3164 15.7454C16.3637 15.6338 16.428 15.524 16.5056 15.4332C16.8405 15.0453 17.1357 14.6006 17.5368 14.2998C17.9645 13.9781 18.2029 13.5107 18.587 13.1758C19.1699 12.6724 19.6751 12.0764 20.2939 11.6298C20.8823 11.204 21.3686 10.6553 21.9893 10.2825C22.5399 9.94948 22.9922 9.47453 23.5788 9.19448C23.6904 9.14149 23.7737 9.01282 23.8551 9.22097C23.9289 9.40262 24.0405 9.28152 24.0405 9.20394C24.0386 8.69871 24.4852 8.59274 24.7823 8.38838C25.0093 8.23322 25.2496 8.04021 25.5013 7.9683C25.9195 7.85098 26.2355 7.57282 26.6026 7.38549C27.0038 7.17924 27.4484 7.07706 27.8231 6.8216C27.9026 6.76862 27.9802 6.79322 28.0672 6.7989C28.2413 6.81025 28.3851 6.8216 28.4986 6.58318C28.5895 6.39017 28.8979 6.33908 29.1401 6.3107C29.1912 6.30502 29.2517 6.37125 29.3047 6.3107C29.7078 5.8452 30.3114 5.80547 30.8374 5.63327C31.0096 5.5765 31.2348 5.7241 31.3162 5.42134C31.3332 5.3589 31.4713 5.33619 31.5527 5.37403C31.6814 5.43459 31.7306 5.36079 31.8347 5.30024C32.0031 5.20373 32.2434 5.17535 32.4421 5.20563C32.6351 5.23401 32.7959 5.19238 32.9681 5.14507C33.0268 5.12804 33.0892 5.06749 33.1365 5.07884C33.865 5.24725 34.5557 4.79122 35.2899 4.96153C35.4659 5.00126 35.6305 4.79501 35.8405 4.77987C36.2038 4.75338 36.5653 4.80258 36.9305 4.71932C37.1235 4.6758 37.343 4.82718 37.5568 4.69661C37.6325 4.6512 37.7271 4.70796 37.746 4.81393C37.7839 5.03722 37.9409 4.89908 37.9845 4.86124C38.3288 4.5774 38.6903 4.50171 39.0914 4.72499C39.1652 4.76852 39.2277 4.80447 39.2333 4.6758C39.2352 4.62281 39.2504 4.58875 39.2996 4.55848C39.5929 4.38061 39.8407 4.71743 40.0943 4.64174C40.399 4.55091 40.6336 4.5282 40.8153 4.83285C40.8644 4.91422 40.9364 5.00694 41.0177 5.03911C41.2221 5.12047 41.2486 4.9426 41.2467 4.81961C41.2448 4.72121 41.1275 4.59632 41.2864 4.54902C41.3943 4.51685 41.5267 4.51117 41.6384 4.60011C41.7425 4.68526 41.8617 4.91233 41.9733 4.60011C41.979 4.58118 42.0452 4.56226 42.0717 4.57362C42.3044 4.65877 42.5221 4.71553 42.7718 4.59443C42.8929 4.53577 42.9951 4.71932 43.1579 4.74959C43.3887 4.79312 43.5306 4.63038 43.7198 4.66634C43.9545 4.71175 44.1305 4.80447 44.1607 5.08074C44.1778 5.23212 44.2705 5.35133 44.5316 5.35133C44.3083 5.23212 44.314 5.12615 44.3897 4.94639C44.4881 4.70607 44.666 4.78365 44.7833 4.81582C45.0444 4.88394 45.3491 4.85178 45.5496 5.08641C45.6026 5.14697 45.667 5.19049 45.7427 5.14697C46.2157 4.87637 46.649 5.22644 47.1051 5.23401C47.3246 5.23779 47.527 5.34944 47.7674 5.31727C48.0058 5.2851 48.1231 5.54812 48.3104 5.65787C48.4505 5.73924 48.5526 5.86413 48.617 5.60678C48.6321 5.54434 48.6586 5.46486 48.7305 5.52352C48.9273 5.68626 48.8914 5.49892 48.8459 5.43648C48.6756 5.20184 48.8043 5.10534 48.9916 4.97666C49.1941 4.84042 49.5007 4.70986 49.1809 4.36925C49.0635 4.24626 49.179 4.07785 49.2774 3.94161C49.5253 3.60289 49.7599 3.25472 50.0002 2.91033C50.0135 2.89141 50.0229 2.85356 50.0399 2.85167C50.5338 2.78544 50.6265 2.22912 51.0466 2.04179C51.62 1.78445 52.1593 1.47223 52.8197 1.6728C52.9294 1.70686 53.0354 1.65956 53.1394 1.61793C53.516 1.47601 53.8963 1.29435 54.2672 1.63685C54.3183 1.68416 54.3751 1.68605 54.43 1.63874C54.6797 1.42113 54.973 1.43817 55.2531 1.5271C55.7186 1.6728 56.1954 1.75795 56.6533 1.97367C56.9656 2.12127 57.3648 2.17803 57.7092 2.31427C58.3488 2.56784 58.8957 2.98981 59.4709 3.36069C59.6223 3.45719 59.8721 3.83186 60.0026 3.31716C60.3432 3.31906 60.2808 3.12605 60.1975 2.92169C60.1899 2.90276 60.1975 2.85924 60.2108 2.85356C60.5646 2.69651 60.4889 2.21777 60.822 2.03801C60.9639 1.96232 61.0301 1.82418 61.0661 1.6501C61.1228 1.37572 61.2118 1.10702 61.6091 1.16947C61.7208 1.1865 61.804 1.04458 61.8248 0.910229C61.8722 0.598009 62.3641 0.221452 62.6669 0.30471C62.8221 0.34634 62.858 0.232805 62.9488 0.193068C63.1683 0.0984559 63.2251 0.386077 63.3784 0.3804C63.5752 0.374723 63.3973 0.0435803 63.6509 0.0170891C63.7852 0.0038433 63.9006 0.0530422 63.9971 0.0965634C64.2772 0.227128 64.5762 0.0871021 64.8581 0.206314C65.2044 0.355801 65.5866 0.435275 65.8989 0.647207C66.7579 1.22813 67.6397 1.7712 68.4231 2.46565C69.0173 2.9917 69.6209 3.50828 70.2037 4.04946C71.0231 4.81204 71.7497 5.65598 72.5179 6.46397C73.0156 6.98623 73.5076 7.51227 73.9958 8.04399C74.5559 8.6533 75.0497 9.32315 75.5266 9.99111C76.0394 10.7121 76.4992 11.4784 76.8871 12.2921C77.1104 12.7614 77.3432 13.2477 77.5286 13.7264C77.6383 14.0083 77.8314 14.2922 77.8503 14.6006C77.8862 15.2099 78.259 15.5978 78.6564 15.9801C79.6025 16.8883 80.4824 17.8572 81.3869 18.8033C82.2479 19.7021 82.9915 20.6861 83.6803 21.706C84.1306 22.3702 84.5848 23.0476 84.8762 23.814C84.9954 24.1281 85.2262 24.3949 85.3738 24.6995C85.5687 25.0969 85.7296 25.5094 85.9018 25.9162C86.108 26.3969 86.2386 26.8889 86.3256 27.4092C86.3843 27.7669 86.6946 28.0791 86.7533 28.4689C86.8214 28.9192 87.109 29.3147 87.0598 29.8029C87.0333 30.0546 87.1355 30.2608 87.4723 30.206C87.7467 30.1587 88.0306 30.24 88.3087 30.1208C88.5074 30.0357 88.6777 30.1852 88.8537 30.346C88.9123 30.064 89.077 30.0224 89.3173 30.03C89.7071 30.0432 90.1007 29.8464 90.5018 30.0716C90.5302 30.0886 90.8632 29.8956 91.0846 29.8616C91.3874 29.8181 91.6826 29.7821 91.991 29.8351C92.1992 29.8691 92.3695 29.644 92.6003 29.6913C92.6684 29.7045 92.746 29.6648 92.8179 29.6667C93.1093 29.6705 93.3497 29.801 93.7016 29.6667C94.2371 29.4623 94.801 29.7935 95.276 30.0868C96.2429 30.6847 96.839 31.6668 97.6356 32.4388C98.3036 33.0879 98.6214 33.9413 99.0945 34.7C99.3083 35.0406 99.4124 35.4588 99.5222 35.8562C99.6433 36.2876 99.7852 36.7096 99.946 37.1316C100.158 37.6841 100.302 38.2556 100.37 38.8554C100.434 39.4307 100.686 39.9983 100.633 40.5774C100.574 41.215 100.917 41.7808 100.849 42.4034C100.811 42.7421 100.822 43.0751 101 43.3817C101 43.4063 101 43.4309 101 43.4555C100.82 43.5255 100.629 43.5879 100.869 43.8207C100.907 43.8585 100.921 43.9929 100.888 44.0231C100.659 44.2445 100.701 44.57 100.561 44.8255C100.523 44.8974 100.482 44.9371 100.4 44.9503C100.247 44.9749 100.251 45.0563 100.355 45.1415C100.442 45.2134 100.442 45.325 100.381 45.3647C100.01 45.5994 100.194 46.2787 99.5997 46.326C99.5789 46.3279 99.5505 46.379 99.5486 46.4093C99.5146 47.0205 99.0964 47.3232 98.6517 47.66C98.4625 47.802 98.2373 47.9571 98.0765 48.1539C97.6015 48.7405 96.9563 49.1322 96.3394 49.5163C95.8039 49.8494 95.3119 50.2846 94.7329 50.5135C94.1066 50.7595 93.5275 51.2042 92.7914 51.1285C92.5227 51.1001 92.3259 51.4161 92.0724 51.348C91.5918 51.2193 91.1755 51.4729 90.7327 51.5354C90.3902 51.5827 90.3277 51.2288 90.1309 51.2553C89.955 51.278 89.8339 51.6243 89.5784 51.3575C89.48 51.2534 89.5027 51.3632 89.4895 51.4105C89.463 51.5013 89.3892 51.5126 89.3135 51.5032C88.8631 51.4407 88.3163 51.6243 87.9832 51.3348C87.6824 51.0718 87.6124 51.1437 87.4364 51.3764C87.3853 51.4426 87.2623 51.4388 87.2036 51.3632C87.005 51.1058 86.8365 51.225 86.583 51.3121C86.3143 51.4067 86.0304 51.4956 85.7542 51.5656C84.9519 51.77 84.4088 52.2468 84.0247 52.9432C83.8846 53.1986 83.6046 53.3292 83.4627 53.5922C83.4173 53.6755 83.3245 53.7228 83.3075 53.8496C83.2659 54.1391 83.0937 54.3037 82.7625 54.245C82.9139 54.8014 82.473 55.1022 82.2706 55.5015C82.2403 55.5602 82.1778 55.5715 82.1097 55.5583C82.0284 55.5412 81.9829 55.3501 81.877 55.4939C81.8183 55.5753 81.9186 55.6491 81.9527 55.7248C82.0397 55.9254 81.8353 56.2054 81.4872 56.3435C81.4077 56.3757 81.2677 56.336 81.455 56.4438C81.5231 56.4836 81.4966 56.563 81.455 56.6028C81.1295 56.9169 80.9592 57.3521 80.6073 57.6473C80.4464 57.7835 80.3007 57.8914 80.0547 57.7722C80.3234 58.0087 80.0888 58.1847 79.9847 58.2982C79.173 59.1743 78.3328 60.0164 77.4094 60.7884C76.8644 61.2445 76.2721 61.6267 75.7272 62.077C74.8057 62.8358 73.8387 63.5473 72.7828 64.1188C72.5085 64.2683 72.2965 64.4991 71.9919 64.6202C71.8027 64.694 71.9389 65.0062 72.0146 65.1803C72.482 66.2703 73.078 67.2807 73.8122 68.2268C74.1623 68.6791 74.537 69.1597 74.6789 69.7709C74.747 70.0699 74.976 70.3253 74.8492 70.6678C74.8321 70.7114 74.904 70.7984 74.9476 70.8552C75.2995 71.3169 75.2806 71.86 74.9268 72.3217C74.7262 72.5866 74.6997 72.9518 74.3875 73.1637C73.5378 73.7427 72.7791 74.4542 71.8746 74.9443C71.4639 75.1657 71.0117 75.3341 70.5841 75.5196C70.0012 75.7731 69.4184 76.0134 68.8129 76.2008C68.1828 76.3938 67.5565 76.6095 66.9131 76.7457C66.4873 76.8366 66.0332 76.793 65.5942 76.8309C65.4012 76.846 65.3463 76.5716 65.3236 76.6095C65.2195 76.7779 65.0984 76.7609 64.9452 76.7344C64.2412 76.6152 63.5165 76.6852 62.8164 76.5054C62.4039 76.3976 62.086 76.653 61.804 76.8952C61.4729 77.1828 61.1834 77.4951 60.6819 77.4818C60.5135 77.4761 60.3167 77.6105 60.1748 77.7316C59.925 77.9492 59.628 78.0571 59.3252 78.1479C58.6516 78.3504 57.9703 78.5301 57.2929 78.7193C57.2702 78.725 57.2418 78.7231 57.2229 78.7364C56.9958 78.8707 56.7555 78.568 56.5644 78.7231C56.3373 78.9029 56.1065 78.7856 55.8889 78.8291C55.5558 78.8953 55.219 78.9029 54.8936 78.9672C54.2105 79.1016 53.5406 79.27 52.8329 79.1735C52.6777 79.1527 52.4847 79.1659 52.3561 79.3154C51.8887 79.3154 51.4213 79.3154 50.9558 79.3154C50.8517 79.2094 50.7268 79.1886 50.583 79.2019C50.0343 79.2567 49.4988 79.2189 48.9841 78.9843C48.7608 78.8821 48.5053 78.971 48.2631 78.8915C47.9604 78.7912 47.6633 78.6531 47.3113 78.7137C47.1467 78.7402 46.931 78.6701 46.7985 78.4809C46.7058 78.3485 46.5166 78.3049 46.369 78.3144C45.7654 78.3504 45.3055 78.0627 44.8893 77.6862C44.6868 77.5026 44.4275 77.4269 44.2213 77.2415C43.5155 76.6038 43.1711 75.7523 42.7718 74.933C42.5599 74.4958 42.3499 74.055 42.1701 73.6027C41.979 73.1183 41.7519 72.6396 41.7235 72.1041C41.716 71.9243 41.6554 71.7313 41.8087 71.5799C41.8787 71.5118 41.8295 71.472 41.8144 71.402C41.7122 70.9422 41.4416 70.4881 41.7443 70.0037C41.8333 69.8598 41.7406 69.735 41.6573 69.6025C41.4454 69.2695 41.4813 68.9856 41.7197 68.8324C41.5457 68.698 41.4548 68.0017 41.6441 67.8654C41.9922 67.6138 41.716 67.3186 41.7557 67.0518C41.7727 66.9439 41.6213 66.9647 41.5476 66.9818C41.1445 67.0688 40.7301 66.9344 40.3195 67.1331C40.0943 67.2429 39.7802 67.1918 39.4945 67.1123C38.9968 66.9761 38.4651 67.1104 37.9617 66.9818C37.5398 66.8739 37.1235 66.7585 36.658 66.9325C37.0951 67.2959 36.8718 67.7708 36.8396 68.1871C36.8113 68.5523 36.815 68.9232 36.7715 69.2751C36.7034 69.822 36.8869 70.3727 36.6939 70.9063C36.6826 70.9384 36.6712 70.9895 36.6883 71.0122C36.9816 71.4304 36.7621 71.8713 36.7412 72.299C36.728 72.6263 36.5747 72.8912 36.2568 73.0218C36.0506 73.1069 35.8727 73.2318 35.7024 73.3681C35.1385 73.8203 34.4895 73.9074 33.7856 73.9414C33.2576 73.966 32.7354 73.9755 32.2093 73.9547C32.0258 73.9471 31.8517 73.9622 31.6776 73.8676C31.3711 73.7068 31.0361 73.8525 30.7126 73.8279C30.3228 73.7995 29.9632 73.8317 29.7683 73.3794C29.6453 73.5441 29.9538 73.6216 29.7778 73.7068C29.6018 73.7919 29.3747 73.7617 29.2782 73.597C29.0285 73.1713 29.019 73.4021 28.8865 73.6765C28.6254 74.2215 28.1769 74.6321 27.6471 74.9121C27.42 75.0314 27.1949 75.1808 26.9981 75.319C26.5591 75.6274 26.0614 75.6577 25.5846 75.758C25.1512 75.8507 24.699 75.8904 24.2543 75.9188C23.6393 75.9604 23.03 76.0588 22.4151 76.0853C22.2921 76.091 22.1218 76.1099 22.1293 75.8999C22.1312 75.8242 22.1028 75.8091 22.0518 75.8431C21.6109 76.1213 21.2059 75.7788 20.7858 75.7769C20.2863 75.775 19.8776 75.4287 19.378 75.4552C19.3023 75.459 19.2209 75.3928 19.1453 75.353C18.9447 75.249 18.7668 75.0692 18.5057 75.1638C18.4792 75.1733 18.4338 75.1487 18.4035 75.1298C17.8869 74.7892 17.306 74.6302 16.7232 74.4485C16.4999 74.3785 16.1574 74.2877 16.0249 73.9831C15.9795 73.879 15.9057 73.9339 15.8452 73.9717C15.6995 74.0663 15.5576 74.0228 15.427 73.949C15.0523 73.7408 14.7023 73.4665 14.303 73.3246C14.0362 73.2299 13.7372 73.211 13.4761 73.0691C13.0276 72.8231 12.5375 72.6509 12.0664 72.4901C11.4949 72.2971 11.001 71.9697 10.4977 71.6897C9.86191 71.3377 9.15988 71.0898 8.59978 70.5543C8.2516 70.2213 7.94695 69.8296 7.52877 69.5382C7.20519 69.3111 7.06517 68.8097 6.86837 68.418C6.59021 67.8635 6.33287 67.2978 6.07174 66.7358C5.9828 66.5484 5.92793 66.3535 5.89954 66.1416C5.84467 65.7083 5.76141 65.2768 5.65923 64.8511C5.60057 64.607 5.6176 64.3648 5.60435 64.1207C5.59679 63.9712 5.60246 63.8255 5.77087 63.746C5.85603 63.7044 5.9109 63.6154 5.85223 63.5322C5.67248 63.2767 5.82953 63.0307 5.94117 62.8567C6.2023 62.4517 6.43316 62.0241 6.72835 61.6343C6.90244 61.4053 7.20898 61.1801 7.18249 60.8111C7.1787 60.7638 7.25629 60.6635 7.27521 60.6673C7.75016 60.7865 7.46443 60.4611 7.48146 60.3192C7.52119 59.9994 7.80504 59.7818 8.21187 59.8082C7.92046 59.5641 8.02832 59.4336 8.23457 59.2046C8.38217 59.0419 8.36135 58.7145 8.54301 58.495C8.789 58.1961 8.86658 57.7552 9.31316 57.6265C9.39831 57.6038 9.4475 57.4997 9.43237 57.4146C9.34532 56.9377 9.73134 56.6444 9.87326 56.2565C9.94516 56.0578 10.0814 55.9462 10.3198 56.0238C10.5866 56.1108 10.5734 55.9027 10.4977 55.7872C10.2366 55.3804 10.4542 55.0738 10.668 54.7578C10.8042 54.5535 10.9329 54.3434 11.0767 54.1466C11.1694 54.0161 11.2395 53.7833 11.5176 54.1088C11.3019 53.6168 11.5706 53.4143 11.7996 53.2213C12.0115 53.0435 12.0588 52.9167 11.9112 52.6404C11.4703 51.823 11.0654 50.9847 10.6831 50.137C10.2687 49.2136 9.85244 48.2845 9.51752 47.3289C9.22233 46.4906 9.02932 45.6183 8.98769 44.7195C8.95363 43.9872 8.85145 43.2587 8.83253 42.5283C8.82684 42.2274 8.80981 41.9436 8.72466 41.6559C8.67925 41.5046 8.68682 41.3097 8.92525 41.3134C9.05013 41.3153 9.06527 41.2548 9.06527 41.1715C9.06338 41.0239 8.9612 41.1242 8.91578 41.128C8.67547 41.1394 8.58464 41.0523 8.6925 40.8215C8.77008 40.6568 8.69439 40.5206 8.64898 40.3673C8.5695 40.0873 8.31026 39.7769 8.71331 39.5253C8.73602 39.5101 8.74927 39.4515 8.73981 39.4212C8.67925 39.2017 8.44272 39.0314 8.73034 38.7419C8.85334 38.6208 8.5941 38.2613 8.4957 38.0115C8.31973 37.5668 8.4465 37.0937 8.41434 36.6339C8.38596 36.2422 8.38217 35.8486 8.40488 35.4569C8.41812 35.2412 8.26295 34.9631 8.58275 34.8174C8.63762 34.7928 8.5941 34.7057 8.56383 34.6508C8.52787 34.5846 8.48435 34.5014 8.58842 34.4768C8.63383 34.4673 8.69817 34.5468 8.75494 34.5865C8.78333 34.2364 8.46543 33.9772 8.51841 33.6177C8.55626 33.3584 8.50706 33.0784 8.82495 32.944C8.9101 32.9081 8.91957 32.8154 8.83253 32.7321C8.63194 32.5448 8.70196 32.3007 8.71331 32.0717C8.71899 31.9582 8.78143 31.8276 8.89875 31.8295C9.27152 31.8352 9.14853 31.6668 9.08608 31.4473C8.96498 31.0329 8.86658 30.6242 9.16745 30.2022C9.26774 30.0622 9.19772 29.7594 9.23179 29.5323C9.25071 29.4074 9.28098 29.2371 9.39452 29.2277C9.75215 29.1936 9.59321 28.9987 9.55347 28.8284C9.4967 28.5824 9.45885 28.3383 9.76919 28.221C9.83352 28.1964 9.8373 28.1529 9.81271 28.1056C9.67836 27.8577 9.74648 27.6666 9.95652 27.4963C10.0057 27.4565 10.0398 27.36 10.0284 27.2976C9.91867 26.6277 10.2593 26.1149 10.6131 25.6078C10.6415 25.57 10.6794 25.5454 10.6794 25.4886C10.6888 24.7506 11.1392 24.164 11.3814 23.5055C11.5176 23.1365 11.8261 22.8376 11.915 22.4307C11.9339 22.3475 12.0474 22.3323 12.1269 22.3002C12.318 22.2264 12.46 22.0409 12.4297 21.882C12.3824 21.6322 12.6132 21.4562 12.5375 21.2159C12.5148 21.144 12.5811 21.0191 12.6776 21.0343C13.1014 21.1005 12.9936 20.7712 13.0428 20.5631C13.0636 20.4723 13.003 20.3776 13.0655 20.2792C13.3171 19.8819 13.3209 19.8648 12.9217 19.704C12.8025 19.6548 12.6662 19.6775 12.6246 19.5148C12.6151 19.475 12.5811 19.4599 12.547 19.4996C12.2423 19.8573 11.8809 19.687 11.5271 19.6151C11.4438 19.598 11.3435 19.5734 11.2716 19.6037C10.6415 19.8762 9.95274 19.8648 9.29424 19.9954C9.03121 20.0484 8.97255 20.1127 9.02554 20.425C9.13718 21.0778 9.20908 21.7457 9.12772 22.4194C9.08987 22.7354 9.13718 23.0627 9.13339 23.3844C9.11447 25.0307 8.86658 26.6429 8.35946 28.2115C8.02832 29.2371 7.52877 30.1795 6.93839 31.0764C6.72646 31.3981 6.4483 31.6554 6.11526 31.8541C5.95821 31.9487 5.79926 32.0433 5.65544 32.1588C4.80015 32.84 3.82943 32.9251 2.89845 32.4653C2.44052 32.2401 2.00909 31.7955 1.75363 31.3129C1.28057 30.4141 0.860497 29.4869 0.455551 28.554C0.184967 27.9315 0.190643 27.2446 0.1036 26.5804C0.0884552 26.4593 0.0525055 26.342 0.0260162 26.2247C0.0260162 25.9787 0.0260162 25.7327 0.0260162 25.4886C0.152794 25.148 0.220917 24.7979 0.279579 24.4365ZM87.5934 42.3258C87.5007 42.9711 87.8016 43.5539 87.7391 44.1915C87.6805 44.8084 88.0873 45.3136 88.3712 45.8321C88.7326 46.4963 89.3476 46.852 90.0212 47.1283C90.2028 47.204 90.3769 47.2929 90.5529 47.3781C91.1944 47.6922 91.834 47.6733 92.5265 47.4992C92.9712 47.3876 93.3875 47.1983 93.7849 47.0242C94.3412 46.7782 94.7745 46.2673 95.3119 45.9589C95.8682 45.6391 96.1369 45.0317 96.6876 44.7252C96.7349 44.6987 96.7557 44.6287 96.7879 44.5776C97.0547 44.1575 97.2628 43.6863 97.4483 43.2473C97.6602 42.7421 97.9611 42.2255 97.9951 41.6408C98.0197 41.2264 97.9005 40.8271 97.8986 40.4108C97.8948 39.5953 97.6961 38.7986 97.6753 37.9755C97.6583 37.2546 97.4066 36.5355 97.2231 35.8259C97.1001 35.3396 96.9014 34.8741 96.7652 34.3916C96.5059 33.4701 95.7812 33.1465 94.9524 32.9592C94.7291 32.9081 94.4907 32.9232 94.2598 32.9062C93.7167 32.8589 93.1661 32.9838 92.676 33.1106C92.2067 33.2336 91.6391 33.1749 91.2436 33.6139C90.886 34.0113 90.4167 34.297 90.042 34.6868C89.6825 35.0615 89.4119 35.5175 88.988 35.8259C88.8442 35.9319 88.9067 36.089 88.8442 36.2176C88.532 36.8799 88.0854 37.4987 87.9397 38.2177C87.7751 39.0333 87.5178 39.8299 87.5102 40.6871C87.5045 41.2434 87.6672 41.7922 87.5934 42.3258ZM73.6665 11.5333C73.1329 10.7329 72.552 9.96651 71.9692 9.20205C71.4564 8.52841 70.7998 8.00236 70.2245 7.39495C70.2075 7.37603 70.1905 7.35522 70.1678 7.34765C69.5906 7.14707 69.3484 6.5775 68.9151 6.22555C68.4439 5.84142 67.9709 5.45351 67.4543 5.12237C67.0361 4.85556 66.6576 4.52631 66.2338 4.27275C65.9689 4.1138 65.6548 4.03811 65.3596 3.93593C65.0606 3.83375 64.7465 3.7959 64.4532 3.65777C64.2129 3.54423 63.9725 3.68804 63.8022 3.86592C63.6244 4.05136 63.4976 4.28221 63.3254 4.47333C63.0132 4.8215 62.8864 5.29456 62.5231 5.61435C62.3471 5.77141 62.578 5.87359 62.6669 5.95117C63.2081 6.42991 63.7739 6.88026 64.3094 7.36657C65.0587 8.04778 65.8553 8.68546 66.493 9.48399C66.686 9.7262 66.9812 9.84163 67.2196 10.0157C67.3351 10.1009 67.6965 9.88515 67.8649 10.1879C68.2377 9.83595 68.5934 10.1103 68.917 10.2541C69.4411 10.4869 69.9899 10.6439 70.5084 10.8975C70.8736 11.0754 71.305 11.1813 71.7005 11.3327C72.3987 11.5995 73.0213 12.0177 73.6817 12.3621C73.7971 12.4208 73.8974 12.5248 74.0601 12.5059C74.0147 12.1426 73.8576 11.8209 73.6665 11.5333ZM62.2714 68.2155C62.296 68.3252 62.3093 68.4312 62.3017 68.5428C62.2847 68.8513 62.2771 69.1446 62.3793 69.4587C62.5174 69.8882 62.5174 70.3556 62.4928 70.8117C62.4815 71.0387 62.6555 71.2317 62.6593 71.4399C62.665 71.8978 62.7596 72.3425 62.7956 72.7947C62.8012 72.8534 62.8012 72.9196 62.7785 72.9726C62.6537 73.2867 62.7445 73.4305 63.1154 73.4759C63.2119 73.4892 63.3103 73.4816 63.4068 73.4816C63.4938 73.4816 63.579 73.4816 63.7076 73.4816C64.4078 73.5138 65.1552 73.6254 65.897 73.5327C66.3227 73.4778 66.7333 73.2943 67.1496 73.1618C67.5773 73.0256 68.0333 72.9556 68.4382 72.8155C68.7997 72.6907 69.2027 72.5866 69.5509 72.369C69.8215 72.1968 70.1488 72.0813 70.4478 72C70.849 71.8902 71.0817 71.5458 71.4545 71.4399C72.1224 71.2506 72.2776 70.6092 72.6277 70.1399C72.6863 70.0623 72.6996 69.981 72.6693 69.8977C72.5198 69.4965 72.3628 69.0973 72.1262 68.7359C71.6797 68.0565 71.182 67.4094 70.9038 66.6317C70.8849 66.5749 70.8698 66.5125 70.8357 66.4633C70.6332 66.187 70.5841 65.608 70.3418 65.6174C69.8972 65.6345 69.4714 65.9467 69.0248 66.1019C68.1525 66.4046 67.2991 66.7509 66.3492 66.8133C65.8875 66.8436 65.4201 67.0404 64.9452 67.0991C64.3226 67.1748 63.6944 67.2504 63.0699 67.2391C62.4512 67.2277 62.1427 67.6403 62.2714 68.2155ZM29.9916 70.7151C30.2168 70.7454 30.4268 70.8381 30.6709 70.7776C30.811 70.7435 30.985 70.77 31.1232 70.8779C31.2348 70.963 31.3692 71.0066 31.4978 70.9063C31.7609 70.7 31.9558 71.1693 32.0788 71.033C32.3418 70.7435 32.4629 70.9517 32.6313 71.0917C32.6862 71.1371 32.7732 71.2128 32.8073 71.1087C32.9284 70.7341 33.2349 70.9914 33.4412 70.9157C33.4923 70.8987 33.5604 70.9592 33.6455 70.9384C34.1602 70.806 34.3457 70.5392 34.2529 70.0018C34.1981 69.6763 34.1432 69.3584 34.357 69.067C34.4024 69.0027 34.3476 68.9535 34.3249 68.8986C33.9805 68.0982 34.2624 67.2978 34.2908 66.4973C34.4724 66.4917 34.5216 66.6411 34.6844 66.6979C34.7279 66.4822 34.6617 66.3478 34.4649 66.2703C34.2151 66.1719 33.9313 66.1227 33.7212 65.9694C33.11 65.5228 32.3153 65.5039 31.7041 65.0706C31.494 64.923 31.3919 64.9533 31.2632 65.2163C31.0096 65.7348 30.9226 66.3497 30.4533 66.7566C30.4287 66.7774 30.4117 66.8228 30.4136 66.855C30.4609 67.4737 30.1846 68.0395 30.0446 68.6129C29.9027 69.1957 29.9083 69.7879 29.757 70.3594C29.704 70.5524 29.7645 70.6868 29.9916 70.7151ZM12.9368 29.6478C12.8517 29.89 12.8327 30.1473 12.7362 30.3895C12.6757 30.5409 12.6019 30.5996 12.4108 30.5352C12.6038 30.8096 12.6511 31.0272 12.354 31.1899C12.2821 31.2278 12.248 31.3035 12.2537 31.3754C12.3199 32.1058 11.9528 32.7643 11.898 33.4701C11.8034 34.6868 11.5328 35.8865 11.5479 37.1146C11.5498 37.2281 11.546 37.3378 11.476 37.4306C11.3076 37.652 11.3057 37.8809 11.4325 38.1174C11.4495 38.1496 11.4855 38.1931 11.476 38.2158C11.2414 38.7854 11.6841 39.3588 11.4609 39.9321C11.4022 40.0835 11.5195 40.233 11.5384 40.39C11.6084 40.9823 11.4438 41.5746 11.5687 42.1631C11.7504 43.0335 11.8109 43.9191 11.8715 44.8046C11.8771 44.8841 11.915 44.9768 11.9699 45.0374C12.5148 45.6429 12.5565 46.4055 12.6378 47.1529C12.7533 48.2258 13.0295 49.2344 13.671 50.1275C14.1743 50.8314 14.513 51.6565 15.1261 52.2733C15.5462 52.6953 15.6068 53.2668 15.8603 53.7512C15.9795 53.9782 16.2312 54.5119 15.7241 54.7957C15.6938 54.8127 15.6862 54.8827 15.6806 54.93C15.6446 55.2593 15.4308 55.4845 15.2737 55.7551C14.9937 56.2414 14.5509 56.5895 14.3011 57.0834C13.8943 57.8857 13.2888 58.5556 12.81 59.3087C12.547 59.7212 12.0834 59.9407 11.8753 60.3986C11.7068 60.7695 11.4022 61.0685 11.2565 61.4564C11.1884 61.6399 11.0219 61.7573 10.8743 61.8386C10.6529 61.9597 10.5488 62.1508 10.4069 62.3344C9.94328 62.9342 9.60267 63.6154 9.11258 64.202C8.7417 64.6429 8.5203 65.1879 8.35378 65.7461C8.31973 65.8596 8.35378 65.9637 8.36135 66.0716C8.38028 66.3573 8.48435 66.6487 8.29134 66.9193C8.25728 66.9666 8.23079 67.0442 8.31973 67.0669C8.53922 67.1199 8.50517 67.3072 8.50706 67.4472C8.51084 67.6686 8.6414 67.8257 8.80035 67.8749C9.58564 68.1228 10.2044 68.7094 11.0029 68.9289C11.0824 68.9497 11.194 69.0008 11.2149 69.0632C11.317 69.383 11.7125 69.4492 11.8393 69.4171C12.2821 69.2997 12.5489 69.6328 12.8744 69.7463C13.8829 70.0983 14.8536 70.5619 15.8282 71.0047C16.4166 71.2715 17.0487 71.4191 17.6182 71.7578C17.8831 71.9148 18.2332 71.9621 18.5322 72.1419C18.6949 72.2403 19.0014 72.1249 19.2209 72.2498C19.6183 72.473 20.0668 72.4636 20.4963 72.5412C20.6666 72.5714 20.854 72.5639 20.8256 72.8269C20.818 72.895 20.8842 72.9366 20.9524 72.9272C21.0129 72.9196 21.0167 72.8666 21.0129 72.8136C20.9921 72.5677 21.1151 72.6396 21.2192 72.7304C21.4557 72.9366 21.6941 72.895 21.942 72.7607C21.9515 72.755 21.9704 72.7417 21.9723 72.7455C22.3715 73.1278 22.7992 72.5336 23.2022 72.7834C23.223 72.7947 23.2571 72.8155 23.2685 72.808C23.5882 72.5998 23.8929 72.615 24.1843 72.8628C24.1957 72.8704 24.243 72.861 24.2505 72.8458C24.5003 72.3936 24.9734 72.5601 25.3443 72.4636C25.77 72.3538 26.0747 72.0511 26.2904 71.7521C26.4399 71.5458 26.4077 71.1523 26.5307 70.859C26.7786 70.2724 26.8562 69.6498 26.911 69.0235C26.9224 68.9156 26.9375 68.804 26.9716 68.6999C27.0473 68.4728 27.1646 68.2571 27.0567 68.0017C27.0265 67.9317 27.0227 67.7803 27.1854 67.82C27.3046 67.8503 27.2933 67.8181 27.2308 67.7538C27.0719 67.5929 27.1078 67.4207 27.1892 67.2448C27.3463 66.908 27.193 66.45 27.5979 66.2097C27.4428 65.9732 27.7966 65.7896 27.649 65.4982C27.5695 65.3412 27.772 65.0252 27.8799 64.7962C28.1031 64.3213 28.3529 63.8595 28.5819 63.3865C28.6292 63.2862 28.6879 63.2275 28.7862 63.1973C28.8336 63.184 28.8771 63.1613 28.9225 63.1424C28.6519 62.8623 29.1041 62.8396 29.1079 62.6258C29.1136 62.323 29.5261 62.1963 29.7721 62.3949C29.8327 62.4441 29.8913 62.5009 29.9576 62.4309C30.0276 62.3571 29.933 62.3325 29.897 62.2909C29.8232 62.2019 29.8345 62.1054 29.8989 62.0222C29.9803 61.9124 30.0635 61.9559 30.143 62.0373C30.1638 62.0581 30.2225 62.0714 30.2433 62.0581C30.9037 61.6418 31.4846 62.1149 32.039 62.2984C33.1725 62.6712 34.27 63.1272 35.464 63.3354C36.0108 63.43 36.5728 63.4357 37.1102 63.5965C37.307 63.6552 37.5303 63.6325 37.6325 63.8728C37.6684 63.9598 37.8009 63.9523 37.8142 63.9012C37.9012 63.5454 38.1794 63.7479 38.2986 63.7857C38.4916 63.8463 38.6978 63.8671 38.8908 63.9314C39.046 63.9844 39.2655 63.8463 39.4736 63.8652C39.6534 63.8822 39.8218 63.869 40.0073 63.9409C40.2022 64.0185 40.4008 63.7914 40.6431 63.8425C40.7585 63.8671 40.8455 63.8501 40.8853 63.9844C40.9591 64.2285 41.154 64.2134 41.3526 64.2115C41.3829 64.0526 41.1218 63.9655 41.2845 63.8066C41.4283 63.6665 41.5873 63.7441 41.7349 63.7895C41.9222 63.8463 42.1039 63.956 42.2609 63.7328C42.2988 63.6779 42.3745 63.676 42.4312 63.7006C42.6413 63.799 42.7586 63.7593 42.9005 63.5435C43.0292 63.3524 43.279 63.4546 43.453 63.57C44.0302 63.9523 44.5505 64.4064 44.9006 65.0025C45.0842 65.3128 45.1371 65.7045 45.1542 66.0735C45.1731 66.5049 45.0747 66.9609 44.9782 67.3469C44.8628 67.7954 45.1504 68.3915 44.6073 68.7226C44.5638 68.7491 44.5241 68.7945 44.5524 68.8437C44.8419 69.3225 44.5146 69.7539 44.4616 70.2061C44.4067 70.6641 44.4086 71.1295 44.3783 71.5913C44.3235 72.4295 44.4635 73.2602 44.507 74.0947C44.5222 74.3615 44.4995 74.7608 44.9574 74.8421C45.1315 74.8743 45.1258 75.16 45.2299 75.2433C45.3264 75.3209 45.4588 75.003 45.6518 75.0314C45.8392 75.0578 45.9868 75.1695 46.106 75.319C46.2857 75.5479 46.4693 75.7637 46.7247 75.3928C46.7474 75.3587 46.8156 75.3247 46.8515 75.3341C47.3832 75.459 47.9831 75.3284 48.4334 75.7655C48.5526 75.881 48.6946 76.231 48.8838 75.7769C48.9633 75.5877 49.2017 75.7239 49.3531 75.7655C49.5366 75.8166 49.6842 75.8507 49.898 75.8318C50.2557 75.7996 50.6738 75.7428 51.005 75.8696C51.321 75.9907 51.5537 75.8526 51.8187 75.8261C52.129 75.7977 52.428 75.7315 52.6664 76.0097C52.7118 76.0607 52.7894 76.0948 52.8594 76.0191C53.2492 75.5896 53.2738 75.5858 53.7771 75.8791C53.7866 75.8829 53.8017 75.8829 53.8528 75.8904C53.7374 75.6823 53.832 75.6369 54.0193 75.6274C54.4527 75.6009 54.8784 75.4912 55.3212 75.6198C55.4347 75.6539 55.6145 75.4458 55.7962 75.5063C56.0743 75.5971 56.3298 75.6482 56.5531 75.3776C56.6004 75.319 56.7461 75.2982 56.8312 75.319C57.3156 75.4306 57.783 75.2509 58.1615 75.056C58.468 74.8951 58.8559 74.9254 59.1038 74.6378C59.1852 74.5432 59.3347 74.4921 59.4633 74.4618C60.2183 74.2915 60.2656 73.8222 60.2032 73.2848C60.0916 72.333 59.9913 71.3755 59.9137 70.4219C59.8437 69.5647 59.715 68.7132 59.6847 67.8503C59.6601 67.1861 59.6223 66.5238 59.6317 65.8596C59.6355 65.6742 59.6336 65.4793 59.7623 65.3374C60.0329 65.0403 60.0178 64.5881 60.3546 64.3231C60.4719 64.2323 60.5665 64.168 60.7084 64.185C60.9166 64.2096 61.0755 64.1282 61.1569 63.939C61.2439 63.7347 61.3612 63.6741 61.5561 63.7933C61.6148 63.8293 61.6489 63.8709 61.7378 63.799C62.0481 63.5492 62.4474 63.7649 62.7899 63.6325C62.8467 63.6117 62.9318 63.6779 62.9961 63.6154C63.2819 63.3467 63.5373 63.4697 63.8193 63.7252C63.8287 63.5644 63.7474 63.4357 63.895 63.3789C64.052 63.3184 64.1315 63.4716 64.3075 63.5644C64.1447 63.3146 64.3075 63.3184 64.4361 63.29C64.5402 63.2692 64.6481 63.1973 64.7446 63.3032C64.7824 63.3449 64.7805 63.3865 64.737 63.43C64.6973 63.4678 64.5497 63.4527 64.6462 63.5644C64.7332 63.6665 64.8316 63.57 64.8524 63.5095C65.0587 62.9077 65.5734 63.008 66.0105 63.0364C66.2546 63.0516 66.3 62.8415 66.4741 62.798C66.9358 62.6826 67.3843 62.5179 67.8498 62.4177C68.1544 62.3514 68.4288 62.2549 68.6672 62.0524C68.8091 61.9295 68.9435 61.9427 69.0665 62.1906C69.0532 61.5907 69.5622 61.6399 69.8593 61.4488C70.6768 60.9228 71.5586 60.5084 72.3647 59.9539C72.9683 59.5358 73.5946 59.1422 74.1453 58.6653C74.7073 58.1771 75.3866 57.8384 75.8634 57.2329C76.117 56.9112 76.5049 56.6879 76.7963 56.3795C76.9193 56.2489 77.0404 56.3246 77.1653 56.3719C77.3526 56.44 77.3602 56.5687 77.2485 56.7579C77.5854 56.5858 77.4321 56.37 77.3488 56.2111C77.2145 55.95 77.2485 55.8213 77.5343 55.7134C77.9449 55.5583 78.2344 55.2631 78.3195 54.8184C78.346 54.6765 78.4085 54.5989 78.5353 54.5554C78.5826 54.5402 78.6526 54.5251 78.6658 54.4929C78.838 54.0255 79.1238 54.2942 79.3697 54.4267C79.3868 54.3567 79.4038 54.3207 79.3962 54.3151C79.1067 54.0899 79.1313 54.1012 79.2619 53.7985C79.4171 53.4352 79.7709 53.2081 79.875 52.8107C79.9412 52.5591 80.174 52.7596 80.3405 52.6896C79.9904 52.2771 80.4199 52.1484 80.6338 51.9971C80.7568 51.9081 80.7965 51.8551 80.7946 51.7246C80.7889 51.4862 80.8552 51.3253 81.1428 51.4445C81.2166 51.4748 81.3169 51.4748 81.3036 51.3707C81.2525 50.9166 81.5818 50.6271 81.771 50.2808C81.8826 50.0764 82.07 49.9156 82.3406 49.944C82.439 49.9534 82.5317 49.9232 82.5336 49.8248C82.5411 49.5939 82.7209 49.4539 82.8685 49.4331C83.1883 49.3877 83.2526 49.0376 83.5289 48.9657C83.5611 48.9581 83.6084 48.9222 83.6084 48.8995C83.6103 48.345 84.1287 48.3677 84.4391 48.1672C84.581 48.0744 84.7418 48.0177 84.8648 47.889C85.1449 47.5957 85.2225 47.6222 85.3209 47.9704C85.8412 47.9136 86.3502 47.8341 86.8725 47.8871C86.1875 46.8899 85.739 45.7583 85.2433 44.6457C84.8724 43.8169 84.4277 43.0146 84.3028 42.112C84.1931 41.304 84.0436 40.4922 84.0947 39.6672C84.1023 39.548 84.072 39.425 84.0512 39.3058C84.0114 39.0806 84.0133 38.846 84.1514 38.67C84.3104 38.4694 84.3463 38.3199 84.1458 38.1364C84.072 38.0682 84.0549 37.9415 84.106 37.8601C84.2726 37.599 84.1079 37.1959 84.5185 37.0105C84.6207 36.9632 84.5583 36.562 84.581 36.3255C84.5905 36.2252 84.3426 35.9565 84.7343 36.07C84.7986 36.089 84.7816 36.0095 84.7797 35.9641C84.7551 35.5478 84.8364 35.1807 85.2508 34.9687C85.3322 34.9271 85.2754 34.8609 85.2546 34.8117C85.2206 34.7341 85.2414 34.6149 85.2736 34.6054C85.6406 34.5108 85.4628 33.8826 85.9548 33.911C85.9718 33.9129 86.004 33.8107 86.0153 33.7539C86.0267 33.6953 85.9964 33.6044 86.0286 33.5742C86.4354 33.1995 86.1856 32.9138 85.9434 32.5807C85.6179 32.1379 85.4666 31.6043 85.2792 31.0896C85.1808 30.8247 84.9897 30.609 84.8762 30.3346C84.598 29.6572 84.5185 28.9571 84.4012 28.2475C84.1912 26.9721 83.8487 25.7365 83.1618 24.5992C82.6528 23.7534 82.0984 22.9341 81.5193 22.1431C81.0936 21.5603 80.647 20.9642 80.0756 20.4798C79.5552 20.0389 79.0935 19.5224 78.6374 19.0133C78.2798 18.6122 77.7973 18.3984 77.381 18.088C77.2712 18.0086 77.1483 17.9594 77.1142 17.8118C77.0972 17.7399 77.0631 17.6812 76.9855 17.6471C76.3005 17.3406 75.7385 16.8221 75.0743 16.5042C74.6259 16.2866 74.2588 15.929 73.7782 15.7984C73.5378 15.7322 73.3978 15.5392 73.184 15.4521C72.5274 15.1853 71.8519 14.9564 71.2274 14.629C70.6806 14.3414 70.0864 14.1711 69.5566 13.8399C69.2292 13.6375 68.7883 13.6261 68.4231 13.4728C68.1203 13.3461 67.846 13.2098 67.4997 13.1701C67.2688 13.1417 67.0077 12.9998 66.7523 12.9298C66.6633 12.9052 66.5971 12.8579 66.5706 12.7651C66.4362 12.2826 66.0067 12.0556 65.6926 11.7206C65.2933 11.2987 64.8127 10.9562 64.4626 10.4963C64.0709 9.98354 63.5563 9.62591 63.0851 9.20772C62.6404 8.81224 62.1957 8.41866 61.7246 8.05535C61.4824 7.86991 61.2364 7.68825 61.0509 7.44415C60.9014 7.24547 60.6441 7.28709 60.4473 7.14518C60.154 6.92946 59.8739 6.65698 59.4993 6.55669C59.4652 6.54723 59.4331 6.52452 59.4047 6.5056C58.222 5.7241 56.8842 5.32105 55.5161 5.09966C55.0166 5.01829 54.4394 4.8707 53.8963 5.11858C53.6163 5.24725 53.2946 5.1148 52.9881 5.15264C52.6929 5.19049 52.5055 5.27185 52.4677 5.59164C52.4545 5.69382 52.3958 5.80736 52.3239 5.88305C51.9019 6.32962 51.8243 6.90486 51.6711 7.46497C51.5083 8.05913 51.4118 8.66654 51.3342 9.26638C51.2869 9.64672 51.3229 10.063 51.321 10.4604C51.3153 11.1624 51.3418 11.872 51.4175 12.557C51.4781 13.0944 51.3891 13.6413 51.5727 14.1957C51.7222 14.6441 51.7411 15.2042 51.6351 15.7114C51.5992 15.876 51.6256 16.0085 51.6559 16.1636C51.9114 17.5052 52.3409 18.809 52.5718 20.1563C52.6758 20.7618 52.4507 21.3559 51.9057 21.6322C51.6673 21.7533 51.374 21.8782 51.0655 21.8309C50.7382 21.7817 50.6209 21.5168 50.4808 21.2765C49.7675 20.0579 49.3266 18.7427 49.0919 17.3501C48.863 15.982 48.7078 14.6101 48.6151 13.2231C48.5451 12.2088 48.4353 11.1851 48.3237 10.169C48.2556 9.554 48.4069 8.93335 48.2839 8.31648C48.2556 8.17645 48.2366 8.0421 48.1023 7.97966C47.9471 7.90775 47.9358 8.08184 47.8639 8.14996C47.7182 8.28809 47.5535 8.27485 47.3832 8.22754C47.1108 8.14996 46.8458 8.07616 46.5563 8.16888C46.3349 8.24079 46.0946 8.11779 45.9394 8.02318C45.6821 7.86423 45.4721 8.03075 45.2696 7.99669C44.8287 7.92289 44.3613 8.17456 43.9469 7.87937C43.928 7.86612 43.928 7.79232 43.8845 7.84909C43.5874 8.23132 43.1597 8.04399 42.8135 8.0421C41.2826 8.03642 39.7613 8.18023 38.238 8.28809C37.7139 8.32404 37.1821 8.37892 36.6561 8.39784C36.1774 8.41676 35.6646 8.30512 35.2104 8.45839C34.0789 8.83684 32.847 8.74034 31.7476 9.19637C31.0134 9.49913 30.2281 9.69214 29.5621 10.1538C29.2007 10.4036 28.7484 10.3904 28.3548 10.5701C27.7001 10.8691 27.1665 11.3535 26.5231 11.6657C25.8211 12.0045 25.2175 12.504 24.5476 12.8976C24.2146 13.0944 23.9648 13.4445 23.6488 13.6961C22.7008 14.4587 21.8285 15.3045 20.977 16.1731C20.1481 17.0208 19.4196 17.9499 18.6798 18.8752C18.1726 19.511 17.7299 20.1922 17.2114 20.8204C16.92 21.1724 16.744 21.6795 16.4526 22.0731C16.0817 22.5745 15.902 23.1763 15.5519 23.6796C15.0239 24.4403 14.7685 25.3467 14.2235 26.096C14.2784 26.6807 13.7656 27.0308 13.6237 27.5606C13.4364 28.2607 13.1771 28.9552 12.9368 29.6478ZM3.19363 28.9817C3.19553 29.135 3.21634 29.3071 3.39799 29.3828C3.5929 29.4623 3.714 29.3488 3.84646 29.2277C4.35547 28.7622 4.51064 28.1018 4.7869 27.5114C5.0064 27.0421 5.17481 26.5445 5.32998 26.0487C5.41891 25.7611 5.43216 25.4508 5.47946 25.1518C5.57408 24.5633 5.71978 23.9824 5.75005 23.3844C5.75384 23.3012 5.78223 23.1971 5.68194 23.1555C5.57976 23.1138 5.52299 23.2103 5.47946 23.2747C4.70932 24.4592 3.77644 25.5529 3.35258 26.9362C3.27689 27.1878 3.14443 27.43 3.15768 27.7763C3.2485 28.1302 3.19174 28.5559 3.19363 28.9817ZM25.208 17.1116C25.454 17.1343 25.5657 17.1684 25.3916 16.8865C25.3575 16.8316 25.4332 16.7748 25.4881 16.7483C25.9763 16.5213 26.3566 16.1068 26.8259 15.8836C27.3746 15.6205 27.8628 15.278 28.3813 14.981C28.8638 14.7047 29.3634 14.4568 29.8705 14.2354C30.5555 13.9346 31.2121 13.5447 31.9387 13.382C32.2623 13.3101 32.4723 13.0622 32.7883 13.0225C33.216 12.9695 33.5944 12.7462 34.0051 12.6478C34.6617 12.4889 35.3012 12.1218 36.0146 12.4037C36.0771 12.4283 36.1225 12.3753 36.1679 12.3299C36.3666 12.1237 36.9305 11.9836 37.1575 12.1066C37.3487 12.2088 37.5209 12.4245 37.6363 12.0328C37.6552 11.9647 37.7839 11.9704 37.8728 11.9723C38.3364 11.9818 38.8133 11.9212 39.2617 12.0101C39.7688 12.1104 40.3611 11.8966 40.785 12.3678C40.8361 12.4245 40.9042 12.347 40.9685 12.3053C41.2561 12.1161 41.7387 12.2902 41.7803 12.6232C42.0074 12.3224 42.2515 12.3148 42.4104 12.5797C42.4539 12.6535 42.5145 12.7311 42.5637 12.6686C42.7662 12.4037 42.8097 12.6592 42.9156 12.7557C43.1389 12.96 43.3736 13.1512 43.453 13.4672C43.4757 13.5561 43.5647 13.5826 43.6479 13.6167C44.0018 13.7605 44.3273 14.0311 44.4294 14.349C44.5316 14.6612 44.8117 14.9696 44.6584 15.3594C44.6035 15.4938 44.63 15.6584 44.7682 15.7587C44.9176 15.8684 44.9555 16.0236 44.9366 16.1825C44.8647 16.8202 45.3093 17.4352 45.0085 18.0824C44.9839 18.1334 45.0331 18.2205 45.052 18.2905C45.1958 18.7976 44.946 19.282 44.4351 19.3899C44.261 19.4258 44.1816 19.5034 44.1078 19.6283C43.9829 19.8402 43.8277 19.9292 43.5931 19.7873C43.3963 19.6681 43.0897 19.8667 42.9516 19.5697C42.8475 19.8516 42.6129 19.7191 42.4483 19.6964C41.9033 19.6226 41.4037 19.8459 40.9326 20.0068C39.6742 20.4382 38.414 20.8583 37.1462 21.2556C36.6012 21.4259 36.0279 21.5641 35.5132 21.7666C34.9834 21.9747 34.4232 22.1147 33.9123 22.3664C33.6153 22.5121 33.2879 22.5575 32.9965 22.6805C32.4383 22.9151 31.9122 23.2009 31.3162 23.3579C30.8753 23.4753 30.4495 23.7269 30.0578 23.9351C29.6245 24.164 29.1344 24.2511 28.72 24.533C28.4797 24.6957 28.1277 24.7109 27.912 24.9682C27.8855 24.9985 27.8307 25.0061 27.789 25.025C27.6831 24.7771 27.3292 24.7658 27.2516 24.5292C27.0151 23.8007 26.7123 23.11 26.3244 22.4459C26.1977 22.2283 26.0766 21.9861 26.0217 21.6984C25.9668 21.4146 25.9952 21.1043 25.8703 20.8129C25.6243 20.2376 25.6678 19.5716 25.3575 19.0077C25.3518 18.9982 25.3556 18.9831 25.3556 18.9717C25.3424 18.6708 25.1058 18.4173 25.1777 18.0918C25.2023 17.9783 25.0585 17.9631 24.9715 17.9253C24.8371 17.8685 24.6479 17.7985 24.7633 17.6188C24.8844 17.4295 24.892 17.0832 25.208 17.1116ZM27.8515 20.8299C28.0483 20.9605 28.2072 20.8053 28.3832 20.7523C28.6803 20.6653 28.9301 20.4723 29.2158 20.3776C29.4183 20.3114 29.5772 20.5309 29.791 20.6426C29.6056 20.4041 29.7343 20.3076 29.9083 20.1752C30.1846 19.967 30.529 19.8648 30.792 19.6889C31.1288 19.4618 31.5073 19.3975 31.8365 19.2063C32.0182 19.1023 32.1904 19.072 32.3929 19.0758C32.6483 19.0815 32.7467 18.7901 33.0022 18.7333C33.2292 18.6822 33.4222 18.4778 33.6872 18.6254C33.742 18.6576 33.8026 18.6292 33.8518 18.5819C34.1886 18.2508 34.6219 18.1656 35.0553 18.0256C35.3486 17.931 35.6021 17.9272 35.8803 17.8931C36.0752 17.8704 36.3779 17.7872 36.5899 17.5771C36.7526 17.4144 37.0591 17.4163 37.3127 17.3709C37.5473 17.3311 37.7687 17.439 38.0091 17.3652C38.1585 17.3179 38.2986 17.3368 38.2759 17.1211C38.2683 17.0492 38.3402 17.0322 38.4045 17.0189C38.9438 16.8959 39.4831 16.7729 40.0224 16.6442C40.1246 16.6196 40.2022 16.6253 40.2911 16.6953C40.5276 16.8751 40.8134 16.8297 40.9818 16.6045C41.1464 16.385 41.3053 16.5515 41.4018 16.6537C41.6251 16.8865 41.8144 16.947 42.032 16.6632C42.0603 16.6291 42.1133 16.5818 42.1474 16.5856C42.594 16.6442 42.4369 16.3453 42.4237 16.1314C42.4161 16.0217 42.3991 15.9101 42.4085 15.8022C42.4218 15.6773 42.6072 15.5449 42.3801 15.4332C42.2117 15.3499 42.0944 15.1342 41.8465 15.3745C41.6157 15.5978 41.2883 15.4067 41.0045 15.4124C40.1076 15.4294 39.2295 15.5411 38.344 15.7076C37.6098 15.8438 36.9116 16.1806 36.1319 16.1201C35.9333 16.105 35.7213 16.315 35.5094 16.4001C34.902 16.6461 34.287 16.8637 33.6493 17.034C33.3693 17.1097 33.0911 17.3765 32.7732 17.4314C32.1563 17.5412 31.6946 17.9631 31.1326 18.1732C30.2811 18.4892 29.5185 18.9793 28.7011 19.3577C28.3586 19.5167 28.0558 19.7589 27.6812 19.8573C27.6282 19.8705 27.5771 19.9197 27.5412 19.9651C27.4976 20.02 27.7625 20.7712 27.8515 20.8299ZM69.3636 26.2493C69.3427 27.273 69.6058 28.1169 70.0372 28.9155C70.1961 29.2106 70.9019 29.4604 71.1952 29.3034C71.6929 29.0385 72.2265 28.7641 72.429 28.2078C72.6542 27.589 72.9758 26.9627 72.7299 26.2606C72.7072 26.1982 72.7147 26.113 72.7374 26.0487C72.9872 25.3391 72.5842 24.3911 71.9011 23.9937C71.6002 23.8196 71.2728 23.7383 70.9587 23.6172C70.6105 23.4828 70.0126 23.7988 69.8461 24.2094C69.5641 24.8944 69.3314 25.5965 69.3636 26.2493ZM75.7896 26.728C75.8085 27.5436 76.1586 28.2532 76.5598 28.9268C76.8814 29.4661 77.4699 29.5588 78.0565 29.2334C78.6147 28.9249 78.8797 28.4727 78.9781 27.8066C79.1219 26.817 78.8891 25.9106 78.6147 24.9985C78.4425 24.4233 77.6573 23.8802 77.0688 23.8632C76.6165 23.8518 76.0943 24.1129 76.0999 24.5179C76.1075 24.989 75.7556 25.3675 75.8899 25.8803C75.941 26.0771 75.7839 26.4328 75.7896 26.728ZM90.4469 41.3551C90.3448 42.2047 90.587 42.9483 90.9976 43.6617C91.1603 43.9474 91.4215 44.0194 91.7337 43.8869C92.6041 43.5198 92.958 42.797 93.0677 41.9209C93.1453 41.2983 93.2267 40.672 93.238 40.0475C93.2513 39.336 93.1339 38.6435 92.57 38.1174C92.4735 38.0247 92.3808 37.9263 92.2919 37.8241C91.9286 37.406 91.5653 37.44 91.1755 37.8469C90.8519 38.1856 90.8349 38.5981 90.7554 39.0011C90.6494 39.7883 90.5397 40.5698 90.4469 41.3551ZM94.1822 40.2897C94.1406 40.7874 94.029 41.2907 94.0895 41.8054C94.1444 42.2728 94.3677 42.6664 94.5645 43.0657C94.6837 43.3079 95.2305 43.2587 95.399 43.0051C95.5314 42.8083 95.6998 42.6588 95.8701 42.498C96.3053 42.0855 96.2902 41.4837 96.487 40.988C96.3356 40.5055 96.5551 40.0778 96.5816 39.6331C96.6157 39.0541 96.4965 38.5394 96.0537 38.1458C95.8077 37.9263 95.6714 37.5611 95.257 37.5536C94.9316 37.546 94.5985 37.7787 94.5134 38.0966C94.3204 38.8157 94.2447 39.5574 94.1822 40.2897Z" fill="white"/>
</g>
</svg>
