<svg width="115" height="130" viewBox="0 0 115 130" fill="none" xmlns="http://www.w3.org/2000/svg">
<mask id="mask0_333_414" style="mask-type:luminance" maskUnits="userSpaceOnUse" x="0" y="0" width="115" height="130">
<path d="M0 25.8931L82.0095 7.4625e-05L114.677 103.466L32.6673 129.359L0 25.8931Z" fill="white"/>
</mask>
<g mask="url(#mask0_333_414)">
<path d="M107.259 79.7396C107.188 79.2842 106.878 78.9067 106.819 78.4784C106.758 78.0481 106.632 77.654 106.444 77.2921C105.917 76.2753 105.664 75.1463 105.125 74.1377C105.006 73.9127 104.891 73.7015 104.608 73.6477C104.497 73.6284 104.273 73.5384 104.58 73.4134C104.68 73.373 104.691 73.2199 104.622 73.1222C104.208 72.5344 103.894 71.8932 103.62 71.2289C103.578 71.1293 103.518 71.0873 103.404 71.0973C103.314 71.106 103.15 71.2837 103.138 71.04C103.132 70.8943 102.841 70.7607 103.119 70.5925C103.267 70.5045 103.197 70.3095 103.111 70.2348C102.912 70.0566 102.914 69.8257 102.834 69.6037C102.35 68.2585 101.821 66.9324 101.139 65.6714C100.962 65.3431 100.711 65.0447 100.736 64.633C100.739 64.5888 100.694 64.5008 100.668 64.4982C100.257 64.4631 100.453 64.1147 100.353 63.9313C100.071 63.4169 100.082 62.7947 99.6991 62.3252C99.4685 62.0398 99.4206 61.649 99.302 61.3131C99.1052 60.7631 98.642 60.332 98.6265 59.7117C98.625 59.6405 98.5727 59.568 98.4971 59.5876C98.1235 59.686 98.2402 59.4646 98.2592 59.2524C98.3006 58.7726 98.0511 58.3543 97.7546 58.0529C97.5692 57.864 97.4769 57.6912 97.5015 57.4903C97.5501 57.0864 97.3381 56.78 97.201 56.4455C97.1616 56.3538 97.0901 56.194 96.9683 56.4191C96.8978 56.5478 96.8117 56.4078 96.7651 56.34C96.7273 56.2868 96.5795 56.1707 96.8079 56.1767C96.8675 56.1796 96.8812 56.1167 96.8885 56.0601C96.911 55.8924 96.5346 55.1451 96.3797 55.0595C96.3588 55.0465 96.3061 55.0458 96.3055 55.0438C96.3453 54.6318 95.789 54.4905 95.8708 54.0653C95.8989 53.9219 95.8506 53.8155 95.7866 53.686C95.4698 53.0545 95.1327 52.4316 94.9062 51.7542C94.7789 51.3711 94.5767 51.0094 94.4768 50.6199C94.4128 50.3774 94.034 50.3798 94.1376 50.0172C94.2121 49.7549 93.9761 49.5124 93.8633 49.268C93.4855 48.4366 93.2355 47.5387 92.7323 46.7815C92.4844 46.4083 92.3953 46.0066 92.2313 45.6199C92.1462 45.4167 92.0978 45.2236 91.7682 45.269C92.0714 45.0735 91.9454 44.907 91.8501 44.7114C91.5892 44.1772 91.3238 43.6489 91.0126 43.1415C90.9227 42.9962 90.9754 42.7647 90.9015 42.6035C90.8075 42.3988 90.6955 42.1172 90.3653 42.393C90.3919 42.072 90.5604 41.7822 90.3501 41.5013C90.2537 41.3689 90.1275 41.4739 90.009 41.457C90.0411 41.0475 89.9487 40.6816 89.7992 40.3011C89.6041 39.7962 89.4408 39.279 89.1828 38.8004C89.1715 38.778 89.1762 38.7265 89.1648 38.7236C88.7012 38.5835 88.9643 38.1813 88.8802 37.9083C88.6122 37.0465 88.2349 36.23 87.9009 35.3978C87.5987 34.6466 87.3646 33.8653 87.014 33.1402C86.5857 32.2617 86.3977 31.2944 85.9033 30.4259C85.6225 29.935 85.4649 29.3031 85.2327 28.7469C85.0831 28.3861 85.0763 27.9063 84.6487 27.6875C84.6114 27.6689 84.5744 27.5916 84.5822 27.55C84.6742 27.0044 84.3219 26.6988 83.99 26.3782C83.9439 26.3319 83.8738 26.2694 83.8767 26.2186C83.8984 25.6365 83.4642 25.2244 83.2933 24.7096C83.1248 24.2093 82.8699 23.6342 82.3382 23.305C82.12 23.172 81.9826 22.9028 81.8017 22.7016C81.7096 22.5961 81.6438 22.4606 81.4452 22.5689C81.3268 22.6323 81.2317 22.5104 81.2885 22.3514C81.3575 22.1581 81.3102 22.0949 81.1143 22.1784C80.9795 22.2362 81.0189 22.1152 80.9952 22.0467C80.8504 21.6279 80.5848 21.2451 80.1939 21.1362C79.8493 21.041 79.732 20.8089 79.5219 20.5952C79.2362 20.3012 78.9394 19.9455 78.4635 19.9525C78.4337 19.9511 78.3787 19.9098 78.3776 19.8863C78.3595 19.4904 78.0018 19.3603 77.7696 19.2425C77.1971 18.9501 76.7284 18.4686 76.1014 18.2758C75.8271 18.1909 75.6236 17.9513 75.3796 17.7961C74.5015 17.2332 73.5784 16.7736 72.6348 16.3552C72.4076 16.2533 72.2143 16.0994 71.968 16.0166C71.3885 15.8283 70.8375 15.5508 70.2651 15.3386C70.0378 15.2563 69.7326 15.3722 69.5529 15.1815C69.1909 14.7921 68.6912 14.7437 68.2604 14.5281C68.0566 14.4274 67.8355 14.3713 67.6093 14.4319C67.54 14.4516 67.4823 14.4546 67.4229 14.4126C66.3587 13.6654 65.092 13.4988 63.9162 13.0756C63.5394 12.9384 63.1028 12.8505 62.6756 12.8725C62.3272 12.8913 61.9682 12.8701 61.9437 13.3836C61.9401 13.4651 61.8292 13.5522 61.7346 13.5647C61.558 13.2644 62.2508 12.9415 61.6933 12.6834C61.4028 12.5472 61.0604 12.2863 60.7303 12.6618C60.7318 12.2815 60.4378 12.32 60.2063 12.3106C59.4235 12.2821 58.664 12.0813 57.8945 11.9487C57.6682 11.9094 57.4411 11.7945 57.2405 12.0358C57.1267 12.1737 56.9663 12.0442 56.8862 11.9697C56.5037 11.615 56.0269 11.7721 55.6116 11.7252C54.9421 11.6501 54.2533 11.8198 53.5783 11.7073C53.3412 11.6671 53.1549 11.6283 52.9473 11.7546C52.8563 11.8115 52.742 11.815 52.6672 11.6976C52.6251 11.6306 52.5523 11.5928 52.4976 11.6252C52.0283 11.9123 51.4502 11.3829 50.996 11.8106C50.9481 11.8583 50.7769 11.8538 50.7352 11.8083C50.456 11.4818 50.3846 11.7736 50.2901 11.9792C50.0148 11.5322 49.826 11.4789 49.4426 11.7389C49.3031 11.835 49.1888 11.8516 49.0144 11.8306C48.6017 11.7851 48.2014 11.879 47.8642 12.146C47.7776 12.2168 47.7092 12.3057 47.6321 12.1347C47.5393 11.9339 47.3565 11.9525 47.2185 12.0135C46.7968 12.1987 46.2853 12.1062 45.9154 12.4357C45.8223 12.5194 45.7527 12.4915 45.6776 12.4197C45.5785 12.325 45.4692 12.3509 45.3876 12.4179C45.1014 12.6602 44.8341 12.584 44.5662 12.3798C44.4146 12.2649 44.2364 12.2517 44.0757 12.2807C43.8915 12.315 43.8433 12.2022 43.7799 12.0811C43.7284 12.0973 43.6788 12.113 43.6292 12.1286C43.4371 12.4433 43.5085 12.6096 43.89 12.576C43.884 12.63 43.8837 12.6756 43.8774 12.6755C43.4558 12.7217 43.1144 12.8425 43.2115 13.3958C43.0289 13.3818 42.9939 13.8357 42.6955 13.5348C42.5019 13.3398 42.1801 13.3568 41.987 13.5024C41.3511 13.9854 40.5563 14.1777 39.943 14.6926C39.4055 15.1423 38.6825 15.3163 38.2083 15.8134C37.8885 16.1488 37.4733 16.1952 37.1527 16.4484C36.8621 16.6769 36.4778 16.7613 36.2839 17.1634C36.1952 17.3476 35.8303 17.261 35.5962 17.3631C35.2439 17.5156 34.9353 17.7737 34.6915 18.0178C34.5448 18.164 34.4814 18.1492 34.3269 18.2045C34.0071 18.3207 33.6057 18.3975 33.4492 18.8051C33.3919 18.9491 33.3341 19.0715 33.0978 19.0072C32.8482 18.9406 32.7619 19.1653 32.8739 19.5598C32.7192 19.0964 32.5484 19.2328 32.2991 19.4461C32.1377 19.586 31.9798 19.7965 31.709 19.7756C31.6659 19.7719 31.5906 19.8521 31.5744 19.9071C31.4941 20.1908 31.4198 20.4205 31.0389 20.2368C30.8972 20.1665 30.7958 20.3765 30.7399 20.5049C30.5977 20.845 30.4834 21.2002 29.9954 20.9896C29.8986 20.9485 29.8357 21.0617 29.7574 21.106C29.4417 21.2816 29.0951 21.4258 29.0159 21.8524C29.0126 21.8751 29.0562 21.9135 28.9738 21.8917C28.4923 21.768 28.4055 21.8584 28.5011 22.3536C28.4801 22.3537 28.4503 22.3587 28.4408 22.3487C28.1278 21.9483 27.931 21.9626 27.574 22.4791C27.4845 22.6072 27.4434 22.6897 27.2869 22.6457C27.1602 22.6098 27.0925 22.6941 27.0311 22.7851C26.9339 22.9222 26.8199 22.9864 26.6372 22.992C26.2862 23.0029 26.0864 23.333 25.7949 23.4858C25.5029 23.6366 25.1104 23.702 25.0443 24.1569C25.0311 24.261 24.8599 24.2304 24.7585 24.2081C24.4689 24.1476 24.2369 24.2295 24.0667 24.4743C23.9298 24.6716 23.6663 24.5942 23.5075 24.742C23.1478 25.0705 22.6618 25.1718 22.2776 25.4559C22.1432 25.5548 21.9458 25.5607 21.9918 25.8457C22.0169 25.9984 21.7581 25.989 21.6357 25.9929C21.2764 26.0108 20.9992 26.1222 20.8259 26.4635C20.763 26.5897 20.6694 26.6518 20.5005 26.5619C20.2152 26.4088 19.8286 26.672 19.8325 26.7706C19.8435 27.2903 19.4803 27.1163 19.2446 27.1733C19.0419 27.2221 18.8701 27.3089 18.8086 27.5324C18.7872 27.6173 18.7728 27.6848 18.6562 27.6543C18.2793 27.5562 17.9902 27.7365 17.6871 27.9321C17.4731 28.0713 17.1824 28.0871 16.9678 28.2243C16.5017 28.5212 16.0143 28.7772 15.5118 28.9922C15.2377 29.107 14.9839 29.2197 14.7897 29.4547C14.7545 29.4961 14.656 29.5294 14.6111 29.5067C14.2662 29.3508 14.2103 29.592 14.1598 29.8771C13.9153 29.5744 13.7006 29.7377 13.5012 29.8767C13.1744 30.1036 12.9445 30.4844 12.5051 30.5341C12.4931 30.5358 12.4746 30.5438 12.4714 30.5535C12.2779 31.116 11.6662 31.0117 11.3079 31.3115C10.9445 31.6151 10.5541 31.886 10.2001 32.1996C9.92338 32.4455 9.54828 32.5791 9.3285 32.846C8.92983 33.3301 8.38704 33.61 7.96248 34.0718C6.94102 35.1801 6.57697 36.604 5.97436 37.9165C5.6949 38.5257 5.4421 39.133 5.34113 39.8161C5.29483 40.1476 5.46506 40.4477 5.407 40.7287C5.3366 41.057 5.38495 41.3695 5.41364 41.6795C5.46262 42.2133 5.4708 42.7837 5.92528 43.1938C5.99788 43.2577 5.91871 43.3456 5.91129 43.4218C5.87177 43.7881 6.05403 44.093 6.17909 44.4161C6.27786 44.6758 6.49943 44.8728 6.38823 45.2378C6.32294 45.4495 6.5089 45.7728 6.63822 46.0163C6.73237 46.195 6.79994 46.3625 6.78742 46.5553C6.77538 46.7762 6.84419 46.9477 7.00512 47.0987C7.09349 47.1794 7.17812 47.2482 7.11551 47.4351C7.01938 47.715 7.21689 48.0152 7.33939 48.2305C7.57371 48.6406 7.46767 49.1017 7.65579 49.4916C7.94679 50.0879 7.86159 50.7877 8.22879 51.3729C8.35518 51.5739 8.3179 51.8809 8.5694 52.0598C8.67746 52.1364 8.39932 52.1786 8.50293 52.3673C8.62854 52.5925 8.68983 52.8597 8.80136 53.1067C9.00059 53.5517 8.94181 54.0695 9.15809 54.5287C9.32487 54.8776 9.38476 55.2798 9.54963 55.6294C9.78223 56.1203 9.87515 56.6271 9.90004 57.1576C10.5332 59.1631 11.1671 61.1706 11.8003 63.1761C12.1052 63.4445 12.0825 63.8576 12.2088 64.1976C12.3362 64.5416 12.4784 64.8788 12.6179 65.2146C12.8626 65.8037 13.1315 66.383 13.3801 66.971C13.4189 67.0607 13.4578 67.1375 13.5266 67.2091C13.7094 67.4031 14.012 67.5377 13.7966 67.9118C13.7223 68.0416 13.9202 68.1702 13.9619 68.3024C14.2132 69.0783 14.7081 69.7491 14.904 70.549C14.935 70.6738 15.0334 70.786 15.1069 70.8996C15.3422 71.266 15.358 71.7212 15.6001 72.0897C15.8442 72.4641 16.0462 72.8714 16.3029 73.2397C16.5496 73.5959 16.5667 74.042 16.8229 74.4018C16.9582 74.5913 17.0457 74.7222 17.2871 74.6699C17.1992 74.9429 17.1701 75.1561 17.3151 75.4425C17.8114 76.4102 18.3027 77.3817 18.7169 78.3948C19.0073 79.102 19.3135 79.8128 19.6611 80.5019C19.9503 81.0726 20.2045 81.6783 20.4345 82.2873C20.6188 82.7783 20.8286 83.2699 21.1008 83.7136C21.2674 83.9823 21.3253 84.2853 21.4811 84.553C21.554 84.6776 21.5958 84.8098 21.7254 84.8883C21.7987 84.9346 21.8313 85.0046 21.8423 85.0924C21.8958 85.6008 22.0478 86.0954 22.3106 86.5161C22.7445 87.2126 22.8456 88.0577 23.2802 88.7236C23.6739 89.333 23.8903 90.0049 24.202 90.6402C24.6009 91.452 24.9164 92.3053 25.3166 93.1145C25.5148 93.5165 25.5686 93.9922 25.9068 94.3261C25.9711 94.3905 25.994 94.4896 25.9947 94.5914C26.003 94.9166 26.1449 95.1865 26.3395 95.4376C26.4736 95.6102 26.5899 95.8123 26.5975 96.0291C26.6083 96.3621 26.7559 96.6368 26.9136 96.904C27.4635 97.8222 27.8086 98.8355 28.2281 99.8122C28.3052 99.9898 28.3746 100.163 28.5064 100.308C28.6464 100.459 28.758 100.574 28.7202 100.859C28.6904 101.084 28.9667 101.361 29.1131 101.612C29.1596 101.693 29.2772 101.767 29.2724 101.838C29.2476 102.297 29.6106 102.617 29.6772 103.06C29.7304 103.415 29.853 103.829 30.1617 104.097C30.389 104.292 30.2471 104.599 30.4153 104.807C30.8519 105.346 30.7766 106.097 31.1566 106.65C31.6027 107.306 31.6483 108.114 32.0758 108.798C32.3852 109.292 32.5719 109.924 32.7099 110.534C32.7972 110.916 32.9397 111.288 33.2179 111.584C33.2715 111.641 33.3306 111.723 33.3321 111.794C33.357 112.331 33.7316 112.733 33.8652 113.23C34.1647 114.338 34.7568 115.316 35.235 116.346C35.6148 117.164 35.9788 117.991 36.4082 118.78C36.6343 119.197 36.8825 119.612 37.1289 120.02C37.4357 120.527 37.7954 120.982 38.1422 121.456C38.5697 122.04 38.9935 122.598 39.5817 123.053C40.2083 123.537 40.8063 124.043 41.511 124.408C42.1885 124.761 42.9395 124.915 43.6183 125.265C43.7486 125.332 43.9388 125.344 44.0439 125.172C44.1489 125 44.2582 124.98 44.3796 125.152C44.5206 125.353 44.6914 125.336 44.9048 125.301C45.8294 125.155 46.7274 124.897 47.5953 124.571C47.9914 124.425 48.3934 124.35 48.7894 124.229C48.9521 124.18 49.1116 124.14 49.2285 123.986C49.3564 123.82 49.5199 123.747 49.7601 123.784C50.1024 123.838 50.4189 123.645 50.7554 123.602C50.8722 123.587 50.989 123.578 51.1064 123.565C52.1628 123.231 53.2192 122.898 54.2737 122.565C54.3175 122.345 54.3703 122.2 54.6662 122.28C54.8429 122.329 55.1755 122.412 55.1387 121.977C55.1262 121.825 55.2524 121.945 55.312 121.948C55.923 121.964 56.4618 121.824 56.795 121.246C56.8245 121.193 56.8373 121.174 56.9077 121.184C57.3863 121.252 57.8006 121.024 58.1447 120.765C58.5137 120.486 58.9811 120.406 59.3129 120.075C59.3863 120.002 59.5335 119.997 59.6491 119.984C59.929 119.954 60.0584 119.853 59.844 119.512C60.2313 119.802 60.4515 119.464 60.7419 119.381C61.2496 119.236 61.7366 119.071 62.1559 118.752C62.5733 118.434 63.0143 118.203 63.5307 118.092C63.7353 118.049 63.9548 117.941 63.9732 117.607C63.9839 117.402 64.1462 117.199 64.4593 117.36C64.5871 117.426 64.7905 117.367 64.9493 117.325C65.206 117.261 65.3894 117.032 65.6777 117.002C65.8814 116.983 65.7659 116.77 65.7727 116.572C66.0929 116.942 66.3709 116.714 66.6532 116.611C66.6888 116.598 66.746 116.567 66.7449 116.543C66.7221 115.98 67.1568 116.181 67.4203 116.146C67.6096 116.121 67.7835 116.1 67.9232 115.965C68.1951 115.697 68.591 115.696 68.8876 115.526C69.4147 115.223 70.097 115.172 70.4531 114.58C70.734 114.726 70.9126 114.455 71.1495 114.415C71.5737 114.344 71.976 114.217 72.28 113.884C72.3623 113.793 72.4589 113.873 72.5378 113.844C72.8347 113.728 73.1691 113.725 73.4118 113.444C73.6264 113.194 74.019 113.328 74.2803 113.133C74.2988 113.119 74.3305 113.119 74.3565 113.122C74.6292 113.142 74.6247 112.71 74.8433 112.758C75.1202 112.818 75.2227 112.638 75.4099 112.533C75.8134 112.304 76.2785 112.19 76.6972 111.981C77.1789 111.74 77.7802 111.872 78.2051 111.471C78.3071 111.375 78.447 111.32 78.4303 111.128C78.4064 110.88 78.5866 110.866 78.6989 110.989C79.0426 111.36 79.3491 111.016 79.611 110.929C80.1691 110.744 80.6804 110.418 81.2356 110.197C81.8556 109.949 82.4512 109.637 83.0625 109.362C83.3952 109.213 83.7392 109.087 84.0769 108.948C84.2581 108.871 84.4481 108.822 84.3585 108.518C84.3037 108.325 84.4823 108.28 84.6195 108.356C84.8814 108.501 85.089 108.474 85.3462 108.319C85.7186 108.098 86.2185 108.113 86.5013 107.707C87.071 107.818 87.4259 107.329 87.8876 107.15C88.3441 106.976 88.8278 106.834 89.2795 106.617C89.6491 106.44 89.9631 106.113 90.4187 106.114C90.5031 106.116 90.6064 106.018 90.6671 105.938C90.8077 105.759 90.9918 105.632 91.1981 105.621C91.6525 105.599 91.9426 105.243 92.3368 105.096C92.8588 104.903 93.406 104.744 93.8144 104.324C94.506 104.429 94.9712 103.857 95.5887 103.714C95.8955 103.643 96.2804 103.573 96.5182 103.27C96.5616 103.215 96.6563 103.196 96.7319 103.177C97.3711 103.01 97.9641 102.716 98.5783 102.49C99.2707 102.232 99.9097 101.885 100.564 101.559C100.669 101.506 100.781 101.471 100.882 101.411C101.175 101.231 101.414 100.943 101.817 100.998C101.913 101.011 102.056 100.919 102.12 100.829C102.438 100.375 102.978 100.265 103.387 99.9555C103.679 99.7354 103.89 99.4559 104.125 99.1907C104.265 99.0358 104.138 98.8524 104.177 98.6838C104.357 98.9828 104.556 98.8876 104.709 98.6959C104.858 98.51 105.013 98.3026 105.068 98.079C105.12 97.852 105.308 97.9098 105.416 97.8194C106.053 97.2882 106.509 96.5909 107.067 95.9891C107.43 95.5968 107.737 95.1547 108.052 94.7317C108.4 94.2659 108.648 93.697 108.846 93.1352C109.368 91.6529 109.41 90.0678 109.598 88.5173C109.729 87.4252 109.369 86.3841 108.975 85.3819C108.886 85.1519 108.848 84.9336 108.797 84.7065C108.566 83.7073 108.13 82.7705 107.901 81.7682C107.834 81.4767 107.809 81.1178 107.637 80.8921C107.367 80.5345 107.32 80.1412 107.259 79.7396ZM53.7956 15.8759C53.8906 15.7982 54.1016 15.8488 54.2576 15.8646C55.6824 16.0074 57.1102 16.0797 58.5193 16.4315C59.1091 16.5795 59.7202 16.7882 60.3532 16.7077C60.4662 16.6937 60.6032 16.7026 60.7038 16.7555C61.3117 17.0736 61.994 17.0362 62.6223 17.2264C63.5084 17.4958 64.3925 17.7724 65.2728 18.0697C66.203 18.3859 67.0875 18.823 68.0087 19.1638C68.7514 19.4373 69.4888 19.7406 70.2127 20.0873C70.9941 20.4636 71.7242 20.9494 72.555 21.2298C72.933 21.3579 73.2387 21.7281 73.6277 21.9243C74.6779 22.4545 75.6801 23.0715 76.6079 23.8183C77.038 24.1644 77.5148 24.4459 77.9875 24.7677C77.8609 24.8315 77.6218 24.7051 77.5588 24.9508C77.5277 25.0778 77.4602 24.9971 77.4243 24.9498C77.1277 24.555 76.6687 24.6023 76.344 24.6961C75.8985 24.8259 75.5139 24.6239 75.1033 24.6385C75.0538 24.6411 74.9963 24.592 74.9519 24.6039C74.1417 24.8141 73.2918 24.6591 72.4793 24.8288C72.2767 24.8711 72.2971 25.1881 72.0557 25.2339C71.9645 25.0977 72.2022 25.0335 72.0701 24.9276C71.9836 24.8594 71.8993 24.9577 71.8174 24.964C71.5077 24.9858 71.1899 24.9689 71.0015 25.2954C70.9906 25.314 70.9378 25.3329 70.9366 25.3289C70.6183 24.839 70.2671 25.3601 69.9217 25.2825C69.6011 25.2101 69.3155 25.5477 68.9479 25.4792C68.8034 25.4532 68.7742 25.6926 68.6758 25.8061C68.5721 25.7368 68.5638 25.5311 68.3736 25.6193C67.864 25.8584 67.2215 25.829 66.8107 26.2083C66.5594 26.4418 66.2934 26.363 66.0712 26.4895C65.4341 26.8492 64.7624 27.1394 64.124 27.5016C63.5625 27.8221 62.9892 28.1182 62.4296 28.4446C62.1992 28.5782 62.1522 28.8144 62.0033 28.9873C61.743 28.694 61.5325 29.0036 61.4323 29.1112C61.0594 29.5176 60.4962 29.5934 60.1141 29.9507C59.7907 30.2546 59.6495 29.9867 59.5677 29.7542C59.4509 29.4242 59.3635 29.0676 59.3464 28.7213C59.3082 27.9758 59.1016 27.2618 58.9801 26.5317C58.798 25.417 58.4094 24.3523 58.0323 23.2905C57.6607 22.24 57.0837 21.2956 56.4722 20.3686C56.2722 20.067 56.1595 19.6967 55.9309 19.3977C55.4087 18.7203 55.035 17.9418 54.5543 17.2362C54.4266 17.0507 54.3301 16.825 54.0716 16.7764C53.9645 16.756 53.9409 16.6549 53.9415 16.5505C53.9388 16.4689 53.9082 16.3852 53.9219 16.3092C53.9483 16.1338 53.5872 16.0459 53.7956 15.8759ZM107.274 89.3641C107.364 89.722 107.467 90.0889 107.526 90.4369C107.634 91.0498 107.399 91.6211 106.988 92.1002C106.111 93.1262 105.193 94.1126 104.327 95.1526C104.06 95.4711 103.675 95.7382 103.355 96.041C102.944 96.4334 102.465 96.7626 101.992 97.0228C101.668 97.1989 101.293 97.3998 100.895 97.5015C100.338 97.6427 99.847 97.9735 99.3265 98.2247C99.0905 98.3405 98.8181 98.3744 98.8038 98.7674C98.7311 98.4973 98.5885 98.4707 98.3945 98.5537C97.8539 98.7873 97.3207 99.0447 96.7633 99.225C96.4607 99.3227 96.1877 99.3546 96.1968 99.7686C96.199 99.8286 96.0656 99.8512 96.0496 99.7673C95.9546 99.2871 95.7335 99.5632 95.6286 99.7092C95.4809 99.9121 95.3602 99.948 95.1059 99.9133C94.7173 99.858 94.3802 100.112 94.0418 100.275C93.8274 100.38 93.6257 100.472 93.385 100.513C93.1722 100.55 92.8892 100.57 92.8733 100.911C92.8708 101.003 92.8069 101.086 92.7189 101.047C92.2045 100.812 91.885 101.208 91.5063 101.41C91.4611 101.433 91.4196 101.474 91.372 101.489C90.2571 101.837 89.2689 102.466 88.2098 102.937C87.7149 103.156 87.2075 103.356 86.702 103.548C86.487 103.631 86.4902 103.966 86.2117 103.961C85.7499 103.953 85.4307 104.184 85.2518 104.627C85.1086 104.472 85.2882 104.357 85.2064 104.244C84.6165 104.315 84.4292 104.452 83.9219 105.183C83.6671 104.589 83.3225 105.045 83.0784 105.128C82.327 105.385 81.5476 105.646 80.9036 106.091C80.6024 106.299 80.0936 106.175 79.9741 106.66C79.6946 106.492 79.5812 106.91 79.3278 106.844C79.3024 106.837 79.2587 106.831 79.2516 106.842C79.0567 107.214 78.6637 107.026 78.3832 107.153C78.2057 107.235 78.0282 107.324 77.9029 107.492C77.7757 107.66 77.399 107.516 77.4818 108.017C77.2209 107.583 77.042 107.8 76.8045 107.851C76.3185 107.953 75.9022 108.188 75.4533 108.361C75.1602 108.475 74.9827 108.663 74.8833 108.953C74.7264 108.662 74.449 108.68 74.2346 109.004C74.1694 109.102 74.142 109.228 74.0799 109.33C74.0139 109.44 73.9612 109.552 73.7741 109.438C73.5831 109.324 73.3246 109.601 73.1165 109.368C73.1134 109.364 73.0861 109.371 73.0803 109.379C72.8622 109.804 72.3446 109.553 72.0261 109.892C71.7433 110.192 71.2271 110.257 70.8168 110.432C70.6687 110.494 70.4662 110.504 70.5034 110.768C70.5217 110.905 70.4047 110.84 70.3361 110.849C69.8529 110.912 69.3126 110.862 69.1369 111.514C69.1136 111.599 69.013 111.779 68.8754 111.649C68.5877 111.375 68.3038 111.538 68.1207 111.702C67.8586 111.935 67.5549 112.022 67.2578 112.157C66.9022 112.319 66.4131 112.298 66.2871 112.815C66.2715 112.879 66.2319 112.92 66.1789 112.884C65.6883 112.566 65.9828 113.1 65.8484 113.193C65.6532 113.165 65.7947 112.936 65.6708 112.849C65.4034 112.906 65.4183 113.185 65.2832 113.408C65.2063 113.198 65.1227 113.059 64.8941 113.205C64.6451 113.366 64.3823 113.51 64.0856 113.58C63.9179 113.62 63.7415 113.725 63.6816 113.881C63.6062 114.081 63.5762 114.238 63.2998 114.186C63.1198 114.154 63.2035 114.386 63.151 114.478C62.9675 114.495 63.0022 114.093 62.7956 114.269C62.6598 114.384 62.3009 114.337 62.4321 114.705C62.4627 114.789 62.3622 114.836 62.3065 114.806C61.8359 114.551 61.7439 115.01 61.5269 115.226C61.4012 115.352 61.391 115.685 61.0793 115.395C60.9814 115.305 60.8699 115.503 60.8824 115.648C60.8906 115.774 60.8515 115.836 60.7336 115.828C60.6644 115.821 60.533 115.837 60.5616 115.721C60.6285 115.455 60.466 115.571 60.3676 115.579C59.9163 115.61 59.6471 115.867 59.5231 116.358C59.3416 116.154 59.2293 116.038 59.0523 116.367C58.9606 116.542 58.5816 116.577 58.3348 116.685C57.5512 117.026 56.725 117.278 56.1449 117.971C56.1213 117.996 56.1037 118.073 56.0779 118.031C55.7961 117.604 55.6078 118.037 55.4486 118.13C54.975 118.404 54.4483 118.529 53.9523 118.737C53.7615 118.817 53.6715 118.898 53.7254 119.141C53.4381 118.882 52.6709 119.022 52.4909 119.316C52.3309 119.573 52.1734 119.811 51.8754 119.439C51.786 119.328 51.68 119.437 51.5891 119.475C51.2997 119.594 51.0099 119.692 50.7023 119.768C50.4031 119.843 50.1249 119.998 49.7986 120.034C49.5675 120.059 49.4813 120.277 49.3652 120.487C49.2184 120.753 49.1498 120.204 48.8356 120.351C48.0931 120.702 47.2929 120.957 46.5062 121.175C45.776 121.38 45.0508 121.713 44.2417 121.634C43.7781 121.587 43.4583 121.265 43.0569 121.109C42.4207 120.861 42.0345 120.275 41.5127 119.871C41.3042 119.709 41.106 119.533 40.9027 119.36C40.8635 119.329 40.8041 119.294 40.798 119.255C40.6969 118.616 40.1032 118.263 39.9143 117.678C39.4686 117.614 39.5933 117.106 39.3307 116.872C39.2082 116.763 38.9516 116.588 39.0335 116.243C39.079 116.055 38.8919 115.708 38.7106 115.572C38.3157 115.278 38.3431 114.82 38.1739 114.444C37.7942 113.606 37.4552 112.745 36.9858 111.956C36.7658 111.584 36.6996 111.175 36.5248 110.794C36.14 109.961 35.8442 109.084 35.516 108.224C35.4779 108.123 35.4722 108.012 35.4468 107.905C35.3935 107.676 35.3318 107.481 35.0235 107.58C34.7915 107.656 34.711 107.527 34.8239 107.32C35.0041 106.987 34.9041 106.711 34.7766 106.367C34.5024 105.618 34.1219 104.911 33.9271 104.128C33.8434 103.79 33.5817 103.518 33.47 103.178C33.3983 102.964 33.324 102.749 33.2503 102.535C33.0294 101.889 32.7538 101.262 32.5024 100.625C32.4642 100.53 32.3588 100.542 32.3248 100.501C32.19 100.333 31.9014 100.209 32.1029 99.9108C32.1439 99.848 32.129 99.7875 32.1009 99.7183C31.8424 99.0922 31.6685 98.4286 31.3051 97.8488C31.2567 97.7685 31.2083 97.6818 31.1822 97.5923C30.9893 96.9282 30.9127 96.8981 30.3898 97.3672C30.4537 97.0583 30.5114 96.836 30.6554 96.6147C30.8712 96.2818 30.3466 95.5834 29.8727 95.5833C30.0482 95.3955 30.0314 95.2293 29.9979 94.9837C29.9187 94.4009 29.433 94.0181 29.3715 93.4514C29.3697 93.439 29.3686 93.4155 29.3616 93.4133C28.9071 93.2225 29.1174 92.7329 28.9276 92.4172C28.705 92.0512 28.5563 91.6466 28.4147 91.2377C28.2754 90.8432 28.1178 90.4501 27.9264 90.0764C27.7287 89.6895 27.684 89.1892 27.2099 88.9828C27.1315 88.9468 27.222 88.8618 27.2179 88.8088C27.1742 88.3451 27.1974 87.8472 26.6932 87.5787C26.6502 87.5554 26.5796 87.4844 26.5808 87.4818C26.9286 87.016 26.127 86.8545 26.2988 86.4356C26.3084 86.413 26.2688 86.3408 26.2435 86.3336C25.8039 86.2098 25.9249 85.796 25.8149 85.5008C25.6955 85.1825 25.68 84.788 25.2574 84.6848C25.189 84.6674 25.181 84.6156 25.194 84.5572C25.3091 84.065 25.0452 83.7403 24.7566 83.3842C24.6236 83.2222 24.6559 82.9124 24.5836 82.6704C24.4834 82.3396 24.2876 82.0649 24.1523 81.756C24.0534 81.5289 23.9597 81.7104 23.8115 81.7855C23.9286 81.4989 24.003 81.2431 23.8375 81.0045C23.7393 80.8596 23.7015 80.5937 23.4177 80.7376C23.3604 80.7687 23.2355 80.7517 23.2323 80.642C23.2232 80.354 22.8338 80.1101 23.0727 79.8176C23.2043 79.6567 23.1607 79.6249 23.0741 79.4699C22.8762 79.1221 22.7292 78.743 22.5893 78.3661C22.4487 77.9807 22.2998 77.6022 22.0766 77.2603C21.7809 76.8088 21.7486 76.2481 21.4561 75.7999C21.0429 75.162 20.9751 74.3629 20.5053 73.7514C20.4436 73.6689 20.4481 73.5438 20.2873 73.5858C20.206 73.6072 20.1316 73.5308 20.1918 73.4293C20.3468 73.1698 20.1868 72.962 20.0796 72.7484C19.6228 71.8398 19.2056 70.9036 18.6757 70.042C18.5046 69.766 18.4391 69.3591 18.0745 69.2072C17.9966 69.1732 18.0549 69.0853 18.0438 69.0237C18.0286 68.9157 18.0202 68.7164 17.9948 68.7157C17.4273 68.6518 17.8379 68.0859 17.5455 67.8439C17.2531 67.6019 17.3129 67.1337 17.1156 66.7944C16.9139 66.4478 16.795 66.0513 16.648 65.6722C16.3973 65.0242 16.0677 64.4119 15.766 63.7886C15.4042 63.0346 15.0438 62.2714 14.75 61.4937C14.5344 60.9236 14.3086 60.3415 14.1337 59.7477C13.955 59.1486 13.8127 58.5184 13.5488 57.9614C13.2554 57.3377 13.0546 56.7151 12.9627 56.0387C12.9304 55.8036 12.8365 55.5728 12.6816 55.3677C12.5872 55.2412 12.3493 55.1123 12.5606 54.8914C12.5765 54.8756 12.5592 54.8072 12.539 54.7767C12.0108 54.06 12.2632 53.0795 11.7362 52.3732C11.4755 52.0257 11.5985 51.5984 11.4044 51.2494C11.1977 50.8805 11.199 50.8779 10.8998 51.1786C10.8229 50.9684 10.8581 50.801 10.976 50.5967C11.1779 50.2464 10.9135 49.8871 10.8679 49.5302C10.8406 49.3044 10.7461 49.0846 10.6725 48.8648C10.6182 48.7061 10.6331 48.4279 10.3375 48.6406C10.2604 48.6953 10.2527 48.5979 10.244 48.5572C10.2088 48.399 10.1216 48.216 10.1655 48.0827C10.3005 47.6668 10.1885 47.2854 10.0045 46.9419C9.68808 46.358 9.69187 45.6926 9.44278 45.0896C8.85138 43.6548 8.53969 42.123 7.98646 40.6697C7.80454 40.1931 7.59791 39.7113 7.55651 39.1817C7.53687 38.9535 7.60135 38.7725 7.6571 38.5639C7.83015 37.9232 8.34883 37.5336 8.77209 37.1873C9.13734 36.8896 9.41529 36.435 9.91928 36.2846C10.2796 36.1773 10.5183 35.8241 10.8077 35.5916C11.2876 35.2057 11.901 35.0098 12.2928 34.5106C12.3937 34.3854 12.5393 34.3481 12.6569 34.2958C13.3045 34.0089 13.8221 33.4699 14.492 33.2671C14.9699 33.1205 15.4084 32.8953 15.8649 32.7142C16.3985 32.5045 16.8913 32.1926 17.4362 31.9858C18.0619 31.7492 18.6883 31.5015 19.2827 31.1727C19.7257 30.9287 20.1832 30.7039 20.6161 30.4413C21.0191 30.1969 21.4158 29.9522 21.869 29.8004C22.1964 29.6884 22.4909 29.4522 22.7636 29.2467C23.1619 28.9473 23.6541 28.8657 24.039 28.564C24.4462 28.2465 24.9144 28.0292 25.3688 27.7946C25.8995 27.5229 26.3963 27.1902 26.9049 26.8885C27.2143 26.7062 27.4803 26.4659 27.7896 26.2901C28.015 26.1603 28.2026 25.9578 28.4894 25.9628C28.5268 25.9618 28.5713 25.9499 28.5994 25.9259C29.205 25.4199 29.9684 25.1811 30.5858 24.7191C30.9471 24.4488 31.3564 24.2175 31.6612 23.8282C31.8063 23.6435 32.2012 23.5926 32.4365 23.3816C32.6578 23.1858 33.0189 23.1738 33.1194 22.8013C33.1349 22.7443 33.396 22.8073 33.5329 22.7098C34.0216 22.358 34.5002 21.9876 35.0862 21.8113C35.1109 21.8035 35.1466 21.7901 35.153 21.7706C35.3033 21.2239 35.8092 21.2986 36.1858 21.1168C36.6872 20.8716 37.141 20.5091 37.5764 20.1481C37.8461 19.9262 38.1977 19.8976 38.4567 19.6487C39.1298 18.9977 39.9521 18.5406 40.7127 18.0204C41.4974 17.4839 42.3032 16.9213 43.2512 16.6762C43.3154 16.6603 43.4245 16.6606 43.4368 16.6263C43.6814 15.887 44.3095 16.455 44.7218 16.2532C45.1914 16.0203 45.7221 15.9677 46.2403 15.8823C47.0113 15.7539 47.7985 15.8895 48.562 15.7375C48.7576 15.6996 48.888 15.7605 49.0204 15.901C49.296 16.196 49.5665 16.5014 49.9681 16.6177C50.0238 16.6348 50.0781 16.6741 50.0417 16.7312C49.8471 17.0249 50.1198 17.1515 50.2605 17.2981C50.7102 17.7726 50.9981 18.359 51.3668 18.8894C51.8445 19.5787 52.1203 20.3924 52.6139 21.0658C52.9507 21.5282 53.0845 22.085 53.4138 22.5433C54.1238 23.5304 54.6117 24.644 55.1722 25.7152C55.3976 26.1433 55.5434 26.6052 55.7186 27.034C56.014 27.7569 56.2341 28.5339 56.401 29.3148C56.6377 30.4296 56.8305 31.5583 57.2196 32.638C57.3102 32.8851 58.2166 33.478 58.4727 33.5187C58.8867 33.5812 59.2954 33.6801 59.7008 33.7822C60.0531 33.8685 60.6314 33.5948 60.7159 33.2316C60.7621 33.0456 60.8107 33.193 60.8519 33.1973C61.1537 33.2301 61.3765 33.1055 61.6388 32.9533C62.0271 32.7286 62.2778 32.2609 62.819 32.268C63.0315 32.2704 63.2445 32.0816 63.4533 31.9723C63.914 31.7313 64.3566 31.4461 64.8367 31.2533C65.6558 30.9252 66.498 30.6571 67.3314 30.3614C67.5012 30.3013 67.7119 30.2847 67.8037 30.1038C67.9224 29.8753 68.0134 30.1504 68.1577 30.1092C69.1536 29.8165 70.1915 29.7167 71.2171 29.5579C71.3949 29.53 71.5891 29.5142 71.7175 29.3565C71.7827 29.2773 71.8456 29.2705 71.9207 29.3292C72.1424 29.5067 72.4123 29.4584 72.6019 29.3681C73.116 29.1233 73.6537 29.2922 74.1768 29.229C74.8689 29.1429 75.5912 29.3252 76.2586 29.2143C76.9159 29.1044 77.5123 29.3394 78.1281 29.3772C79.1842 29.4411 80.2694 29.7301 81.2657 30.1362C81.8006 30.3559 82.4063 30.7268 82.6285 31.4837C82.8569 32.2603 83.2544 32.9945 83.5476 33.7506C83.8065 34.4178 84.1442 35.0622 84.2905 35.7779C84.3473 36.0509 84.4739 36.3191 84.5924 36.5683C84.8827 37.1821 85.0241 37.8559 85.3437 38.4497C85.5622 38.8561 85.6121 39.3461 85.9635 39.6888C86.0689 39.7901 86.1149 39.9492 86.0783 40.1388C86.0417 40.3218 86.0322 40.5506 86.2675 40.6717C86.3144 40.6938 86.3424 40.7826 86.356 40.8456C86.5163 41.5526 86.7866 42.2161 87.0823 42.8738C87.4482 43.6873 87.6907 44.555 88.0993 45.3508C88.1426 45.4348 88.1954 45.5158 88.2604 45.5821C88.6691 46.0066 88.9588 46.486 88.9947 47.0976C89.0017 47.2127 89.1073 47.2748 89.1874 47.3494C89.3528 47.5012 89.4805 47.6932 89.4379 47.9237C89.3901 48.1841 89.5299 48.3809 89.6532 48.5525C89.8711 48.8506 90.0815 49.1184 90.0645 49.5297C90.055 49.7585 90.3315 49.8839 90.4004 50.1486C90.5966 50.9029 91.0192 51.577 91.3247 52.2923C91.5157 52.7378 91.6561 53.2557 92.0016 53.6524C92.1667 53.8434 92.0513 54.1685 92.2486 54.4015C92.4584 54.6478 92.4926 55.0017 92.7118 55.2711C92.853 55.4458 92.859 55.7239 92.9726 55.9507C93.4092 56.8157 93.8096 57.6986 94.217 58.5772C94.2697 58.6908 94.3109 58.8015 94.4241 58.8678C94.531 58.9339 94.6302 59.0025 94.5436 59.16C94.4769 59.2809 94.5663 59.4112 94.6442 59.4387C95.0139 59.5737 94.9333 59.9226 95.0282 60.1901C95.175 60.6017 95.3529 60.9992 95.6199 61.3469C95.6628 61.4028 95.7202 61.4455 95.7122 61.5196C95.674 61.8768 95.9003 62.1353 96.0503 62.4179C96.4584 63.1856 96.7297 64.0116 97.0779 64.8025C97.3755 65.4792 97.5831 66.2233 98.0951 66.7953C98.1278 66.8327 98.1567 66.8975 98.1501 66.943C98.061 67.5441 98.5663 67.9359 98.7149 68.4664C98.8754 69.0344 99.1854 69.6312 99.5651 70.143C99.6677 70.282 99.7251 70.4571 99.7889 70.6193C99.822 70.7044 99.8641 70.7779 99.9453 70.7892C100.088 70.8093 100.018 70.6404 100.103 70.5787C99.9409 71.5525 100.549 72.3091 100.812 73.1617C101.058 73.9675 101.544 74.6648 101.909 75.4202C102.02 75.6476 102.148 75.9003 102.515 75.8193C102.324 76.0661 102.321 76.2865 102.49 76.5109C102.718 76.8079 102.964 77.1211 103.12 77.4319C103.278 77.7382 103.331 78.1467 103.507 78.4646C103.974 79.3114 104.196 80.2549 104.592 81.1306C104.849 81.6985 104.987 82.341 105.182 82.9457C105.447 83.7586 105.538 84.6503 106.08 85.3563C106.203 85.5148 106.081 85.6336 106.113 85.7799C106.264 86.4658 106.64 87.0721 106.746 87.7855C106.792 88.1051 106.894 88.5482 107.206 88.8233C107.381 88.9806 107.229 89.1893 107.274 89.3641ZM92.2121 73.7257C92.1667 73.562 92.0797 73.3659 91.9415 73.3401C91.5726 73.2677 91.5249 72.9637 91.4718 72.7026C91.3361 72.0204 91.0034 71.3983 90.8848 70.7172C90.7699 70.0611 90.0253 69.6753 90.1514 68.9257C90.158 68.8867 90.0961 68.8368 90.0665 68.7897C89.5373 67.9105 88.9412 67.072 88.461 66.1621C88.3813 66.0093 88.2075 65.9035 88.1402 65.7967C87.983 65.5511 87.7059 65.2978 87.6581 65.1132C87.5625 64.7309 87.4369 64.3994 87.207 64.0965C86.7184 63.4519 86.3871 62.6882 85.7818 62.1326C85.7199 62.0762 85.6874 61.9931 85.7012 61.9106C85.7295 61.7345 85.5827 61.655 85.5257 61.5341C85.4342 61.3307 85.144 61.3746 85.1262 61.1522C85.1067 60.911 85.1462 60.6641 84.7725 60.769C84.7013 60.7893 84.6828 60.6909 84.708 60.6179C84.8346 60.2284 84.4761 60.0095 84.3839 59.6978C84.3572 59.6064 84.2669 59.5329 84.162 59.5725C83.8866 59.6768 83.9506 59.4678 83.959 59.3349C83.9752 59.0541 83.8903 58.8182 83.6698 58.6513C83.5321 58.5471 83.458 58.4055 83.375 58.2689C82.9947 57.6423 82.6253 57.01 82.2456 56.3854C82.1859 56.2826 82.1094 56.1266 81.9816 56.1735C81.6707 56.2912 81.7667 56.0308 81.747 55.9154C81.6783 55.5052 81.5766 55.1032 81.2558 54.8311C81.1049 54.7051 81.0192 54.5932 80.955 54.4029C80.8695 54.1521 80.8226 53.8043 80.3836 53.9017C80.2597 53.9278 80.0898 53.6884 80.1701 53.5111C80.2485 53.3409 80.1747 53.26 80.1152 53.1182C79.9205 52.6608 79.5271 52.3379 79.3361 51.8989C79.1582 51.4884 78.7788 51.2761 78.5922 50.8314C78.298 50.1254 77.6883 49.5691 77.2925 48.8865C77.1989 48.7229 77.0842 48.3662 76.7272 48.5375C76.6509 48.5746 76.5627 48.4614 76.605 48.3829C76.7339 48.1403 76.5697 48.0185 76.4469 47.8554C76.2876 47.6431 76.1175 47.4233 76.0314 47.177C75.9183 46.8588 75.7689 46.6911 75.378 46.821C75.5378 46.5036 75.4465 46.2611 75.3267 46.0276C75.1936 45.7657 75.0214 45.5986 74.7084 45.7496C74.6371 45.7829 74.6231 45.6723 74.6045 45.6065C74.5846 45.5303 74.5668 45.4339 74.5118 45.3862C74.2429 45.1455 74.0987 44.8546 74.0982 44.4878C74.0973 44.4252 74.0625 44.3016 74.0211 44.3233C73.7366 44.4848 73.8459 44.2202 73.8306 44.1317C73.7826 43.8733 73.5868 43.7116 73.4477 43.5167C73.2929 43.2986 73.2738 43.6433 73.1509 43.6126C73.0457 43.585 72.9687 43.5073 72.994 43.4081C73.1296 42.8813 72.733 42.6679 72.4416 42.3757C72.1324 42.0673 71.8213 41.9919 71.4664 42.269C71.4295 41.8269 71.2052 41.5548 70.8191 41.5074C70.5224 41.4708 70.5775 41.8116 70.442 41.9868C70.2899 41.4053 70.2958 41.3774 69.9752 41.2984C69.7224 41.235 69.4644 41.1884 69.2175 41.097C69.132 41.0654 69.052 41.0776 69.0028 41.1474C68.8806 41.3184 68.7351 41.3492 68.531 41.3137C68.3979 41.2906 68.251 41.3501 68.1193 41.4242C67.8698 41.5638 67.4664 41.3091 67.3206 41.7306C67.2714 41.6876 67.2247 41.6394 67.1716 41.604C67.1451 41.5864 67.1031 41.5931 67.0727 41.5897C67.0207 41.6973 67.091 41.827 66.9763 41.9153C66.8088 41.6904 66.6089 41.7079 66.3723 41.8021C66.0626 41.9238 65.7423 42.0249 65.4189 42.1032C65.2728 42.1384 65.1445 42.1637 65.0586 42.3037C64.9914 42.4161 64.8964 42.5004 64.7676 42.3913C64.6482 42.2922 64.5494 42.3712 64.4358 42.3832C64.192 42.408 64.0718 42.5654 63.9123 42.7308C63.8267 42.8186 63.5192 42.5618 63.2895 42.6843C63.201 42.7296 63.0724 42.7073 63.0405 42.8454C63.0326 42.887 63.0587 42.9894 62.9727 42.9428C62.5514 42.7111 62.229 43.0647 61.8657 43.136C61.611 43.186 61.2857 43.2583 61.1155 43.5161C60.9465 43.7714 60.823 43.8516 60.5194 43.7868C60.4409 43.7704 60.3955 43.8194 60.3521 43.8679C60.2027 44.0323 59.9944 44.0763 59.8016 44.1567C59.5345 44.2671 59.2594 44.3453 58.9923 44.4557C58.4943 44.665 58.1987 45.2098 57.6241 45.2697C57.6019 45.2724 57.5852 45.3058 57.5636 45.317C57.0852 45.5353 56.6251 45.7783 56.1781 46.0627C55.5681 46.4485 54.9021 46.7434 54.2594 47.0722C54.0119 47.1981 53.8206 47.3693 53.7612 47.6593C53.7377 47.7775 53.6671 47.9126 53.5617 47.8178C53.2916 47.5732 53.0583 47.7575 52.8869 47.8855C52.5339 48.1489 52.1082 48.2551 51.7509 48.4981C51.319 48.7907 50.7447 48.9178 50.6072 49.5647C50.5642 49.7671 50.3876 49.6926 50.249 49.6192C50.0049 49.49 49.8444 49.5863 49.7365 49.8157C49.6781 49.9362 49.6336 50.0674 49.5556 50.1724C49.4482 50.317 49.3223 50.4631 49.171 50.1896C49.0234 49.9215 48.8438 50.0368 48.6832 50.1656C48.6144 50.2199 48.5488 50.3774 48.5158 50.3661C48.1251 50.2442 48.041 50.529 47.962 50.8036C47.8404 50.7704 47.8843 50.5177 47.692 50.6392C46.9146 51.1256 45.8742 51.211 45.4439 52.2325C45.3122 52.0679 45.2207 51.8775 45.01 51.9874C44.7364 52.1303 44.612 52.5929 44.176 52.381C43.9907 52.7174 43.6204 52.6736 43.3354 52.807C43.1478 52.8967 43.0514 53.1029 42.7854 53.137C42.4431 53.1821 41.9695 53.1363 41.8946 53.6961C41.8919 53.7143 41.6728 54.0961 41.4564 53.7628C41.3828 53.6493 41.2699 53.7566 41.1708 53.7748C41.0254 53.8056 40.9604 53.9585 40.791 53.9599C40.4414 53.9683 40.2163 54.1587 40.1994 54.57C39.95 54.2319 39.7337 54.2308 39.4877 54.5407C39.4455 54.5931 39.4179 54.6452 39.3442 54.6576C39.0356 54.7095 38.7792 54.8273 38.6619 55.1596C38.6335 55.2358 38.5365 55.3272 38.4629 55.3331C38.3195 55.3437 38.3862 55.2032 38.3626 55.1217C38.2979 54.8968 38.1494 55.011 38.0514 55.0658C37.8299 55.1944 37.6362 55.4378 37.407 55.469C36.6927 55.5708 36.1431 56.0352 35.4927 56.2666C35.2174 56.3643 35.3677 56.8205 35.1059 56.7946C34.8725 56.7728 34.675 56.6854 34.4445 56.8319C34.3032 56.9222 34.1542 57.0148 33.9806 57.0761C33.4269 57.2683 32.8931 57.5237 32.3613 57.7719C31.944 57.9644 31.5548 58.2262 31.1257 58.3747C30.7481 58.507 30.5867 58.8857 30.1318 58.9924C29.3935 59.1647 28.9185 59.9117 28.2746 60.3364C28.1358 60.428 28.1808 60.6503 28.002 60.7546C27.6881 60.9427 27.4132 61.1944 27.2059 61.5074C26.9492 61.8966 26.6755 62.2783 26.7125 62.7941C26.7196 62.883 26.6141 62.9141 26.5726 62.975C26.1931 63.5398 25.7965 64.097 26.0054 64.8646C26.0327 64.971 26.1542 65.0238 26.1255 65.1523C26.0299 65.5732 26.1933 65.9579 26.3339 66.3368C26.6464 67.1737 26.9664 68.0082 27.3241 68.8287C27.4111 69.0248 27.4122 69.387 27.7792 69.3536C28.087 69.3259 28.0944 69.4755 27.9777 69.6903C27.8668 69.8903 27.8602 70.0552 27.9648 70.287C28.2273 70.8727 28.4352 71.4778 28.7078 72.0625C29.0583 72.8071 29.1243 73.6806 29.6744 74.3469C29.7053 74.385 29.7126 74.4478 29.7186 74.5001C29.767 74.9125 29.949 75.2631 30.164 75.612C30.4212 76.0279 30.7259 76.4483 30.8438 76.9082C30.9394 77.2774 31.1318 77.5748 31.3046 77.8697C31.5485 78.2833 31.6544 78.8447 31.3725 79.32C31.6389 79.2207 31.8075 79.1436 31.9309 79.4216C32.318 80.3022 32.6994 81.1847 33.1437 82.0342C33.5034 82.7217 33.7364 83.4795 34.2201 84.1017C34.2554 84.147 34.2536 84.2279 34.2552 84.2925C34.2645 84.5479 34.3405 84.8017 34.5089 84.97C34.8351 85.2924 34.9762 85.6864 35.114 86.1096C35.3615 86.8802 35.8489 87.5338 36.1733 88.2757C36.5285 89.0818 36.965 89.86 37.2991 90.6858C37.5456 91.2939 37.9499 91.837 38.1634 92.4468C38.4157 93.1595 38.7609 93.8146 39.0857 94.4848C39.3109 94.9455 39.6422 95.3641 39.837 95.8214C40.1494 96.5519 40.5204 97.2553 40.808 97.9937C40.9618 98.388 41.3543 98.6548 41.3612 99.115C41.3642 99.2703 41.4365 99.3864 41.508 99.5201C41.7153 99.8975 41.8741 100.301 42.0527 100.694C42.2031 101.024 42.2918 101.378 42.4377 101.714C42.6294 102.155 42.9011 102.571 42.9859 103.058C43.0553 103.458 43.3136 103.778 43.4262 104.168C43.4822 104.365 43.6029 104.568 43.672 104.787C43.7986 105.187 43.9479 105.587 44.1393 105.961C44.2416 106.159 44.5271 106.266 44.3287 106.568C44.2865 106.633 44.3635 106.804 44.4352 106.806C44.8254 106.813 44.66 107.106 44.6831 107.285C44.7032 107.442 44.731 107.576 44.8649 107.675C44.9407 107.729 45.045 107.8 45.0254 107.898C44.9237 108.379 45.4429 108.569 45.5656 108.519C45.9237 108.372 46.0806 108.669 46.3104 108.76C46.5491 108.851 46.8086 108.73 47.056 108.956C47.1627 109.055 47.5823 109.122 47.7655 109.045C48.1656 108.877 48.5968 108.908 48.995 108.841C49.5799 108.741 50.1185 108.528 50.6734 108.365C51.0839 108.245 51.4859 108.063 51.9088 108.008C53.2663 107.831 54.3946 107.021 55.6827 106.658C55.7189 106.647 55.7496 106.617 55.7827 106.596C56.1948 106.32 56.644 106.083 57.0729 105.861C57.666 105.554 58.1831 105.113 58.8132 104.871C59.1572 104.738 59.4373 104.35 59.7757 104.313C60.4976 104.235 60.9636 103.732 61.5188 103.391C61.7486 103.249 62.019 103.348 62.1945 103.167C62.6189 102.731 63.205 102.542 63.7053 102.247C64.2834 101.906 64.8039 101.423 65.485 101.256C65.6718 101.21 65.8015 101.043 65.991 100.966C66.5246 100.749 66.9986 100.411 67.5347 100.183C67.9539 100.003 68.4199 99.8384 68.685 99.3965C68.703 99.367 68.7564 99.3371 68.7875 99.3425C69.2692 99.427 69.6131 99.1014 69.9683 98.8915C70.7284 98.4431 71.5237 98.0596 72.2832 97.6093C72.8154 97.2958 73.3873 97.0154 73.9674 96.7736C74.5493 96.5313 75.0131 96.0744 75.6191 95.8484C76.0661 95.6834 76.4638 95.369 76.8594 95.0878C77.2219 94.8279 77.4705 94.3999 77.9669 94.3452C78.0114 94.3398 78.0557 94.2477 78.0763 94.1869C78.1254 94.0433 78.2271 94.0069 78.3564 94.0247C78.4667 94.0419 78.567 94.0341 78.6594 93.9746C79.614 93.3454 80.58 92.7322 81.5189 92.0797C82.2712 91.56 82.9731 90.9672 83.7166 90.4329C84.1167 90.146 84.5018 89.8117 84.8975 89.5174C85.4779 89.0845 86.0295 88.5999 86.6622 88.2461C86.8621 88.1352 86.8767 87.9027 87.0721 87.791C87.4254 87.5883 87.7422 87.3233 88.0798 87.0908C88.5244 86.7855 88.8531 86.3453 89.2983 86.0354C89.843 85.655 90.3757 85.2437 90.6719 84.601C90.6982 84.5449 90.7531 84.4798 90.8059 84.4675C91.3218 84.335 91.4843 83.8865 91.6776 83.4629C91.7226 83.3662 91.7647 83.2271 91.8422 83.1939C92.3243 83.0004 92.3519 82.4903 92.5419 82.109C92.873 81.451 92.8158 80.6854 92.9208 79.9685C93.01 79.3477 93.1804 78.7252 93.0654 78.0821C92.9676 77.5399 92.7669 77.0237 92.7848 76.4493C92.797 76.0895 92.9467 75.6406 92.5271 75.3541C92.5056 75.3392 92.5015 75.2732 92.5131 75.237C92.6819 74.6823 92.3482 74.2232 92.2121 73.7257ZM52.959 51.9262C53.7731 51.3697 54.6362 50.8757 55.5308 50.4413C55.8126 50.3046 56.149 50.168 56.4011 49.9104C56.7757 49.5295 57.3494 49.5133 57.7731 49.195C58.5205 48.6334 59.4042 48.3306 60.2213 47.9033C60.2805 47.8716 60.3415 47.8458 60.3906 47.802C61.1283 47.1697 62.0644 47.0066 62.9361 46.6858C64.059 46.2705 65.2136 45.9558 66.3358 45.5386C67.1147 45.2492 67.8969 44.9241 68.7208 44.7573C69.0816 44.6847 69.4003 44.7642 69.738 44.9637C70.4639 45.39 70.8442 46.1165 71.34 46.7436C72.3196 47.9799 73.0068 49.4126 73.9227 50.6863C74.1556 51.0122 74.2227 51.4838 74.7344 51.65C74.3732 51.801 74.1267 51.97 73.9613 52.2631C73.8607 52.4425 73.586 52.323 73.4304 52.4677C72.8461 53.0146 72.0705 53.2877 71.5081 53.8842C71.3338 54.0695 71.0784 54.25 70.774 54.3353C70.155 54.5068 69.6834 54.9987 69.0893 55.2492C68.9062 55.3266 68.8185 55.567 68.7602 55.7808C68.7356 55.8688 68.7223 55.9794 68.5973 55.9755C68.4831 55.9724 68.5007 55.8822 68.4873 55.7996C68.4461 55.5695 68.3184 55.6966 68.2299 55.7485C67.3183 56.2881 66.4507 56.9007 65.5202 57.4072C65.2427 57.5577 65.0636 57.8075 64.7008 57.9003C64.2497 58.0189 63.908 58.5175 63.4566 58.6817C62.9334 58.8708 62.6967 59.4296 62.1693 59.5722C62.0943 59.5937 62.048 59.706 61.9854 59.7736C61.9241 59.8385 61.8891 59.9798 61.7853 59.9366C61.4295 59.7928 61.1482 60.0509 60.976 60.216C60.5964 60.5811 60.0572 60.6732 59.7204 61.0943C59.5926 61.254 59.3311 61.2693 59.1364 61.3764C58.7698 61.5768 58.4774 61.8992 58.0731 62.0268C57.9447 62.0652 57.899 62.1795 57.8451 62.2877C57.6949 62.6021 57.3075 62.6571 57.1475 62.3495C57.0038 62.0736 56.8341 62.1141 56.5316 62.2053C56.8499 61.4601 56.2873 61.0929 56.0547 60.6085C55.9644 60.4156 55.7876 60.2739 55.7095 60.0597C55.652 59.9042 55.5382 59.7166 55.4089 60.0244C55.3742 60.107 55.3161 60.1687 55.227 60.1122C55.1385 60.0577 55.1612 59.9637 55.2028 59.8963C55.4699 59.4668 55.0715 59.2214 54.9268 58.9089C54.9079 58.8693 54.8232 58.8201 54.7959 58.8331C54.098 59.1598 54.4072 58.4522 54.3965 58.3253C54.3691 58.0062 54.1739 57.8594 54.0451 57.6309C53.8378 57.2666 53.3028 57.1924 53.3084 56.6523C53.3111 56.3887 53.1617 56.1212 52.7901 56.1864C52.5793 56.2226 52.6526 56.0562 52.6589 55.9435C52.6709 55.7291 52.7813 55.5076 52.4247 55.4074C52.2568 55.3606 52.326 55.0153 52.1735 54.8442C52.0587 54.7133 52.0448 54.4833 51.7728 54.6712C51.639 54.7655 51.5086 54.6113 51.5725 54.4153C51.6849 54.0673 51.5589 53.9139 51.214 53.9772C50.9625 54.024 50.8934 53.7919 50.9529 53.7014C51.2639 53.232 50.8383 53.3252 50.6661 53.258C51.2635 52.5332 52.2176 52.4338 52.959 51.9262ZM33.7454 75.0934C33.3644 74.2586 32.9611 73.433 32.4777 72.6522C32.4399 72.5925 32.4091 72.5479 32.3254 72.5483C31.9713 72.5494 31.8365 72.2751 31.8786 72.0034C31.9438 71.5922 31.775 71.2634 31.5787 70.9737C31.2395 70.4774 31.0785 69.9009 30.8023 69.3781C30.7112 69.2093 30.6385 69.0521 30.5042 68.9057C30.3081 68.6897 30.3614 68.3668 30.2817 68.0946C30.1441 67.6323 29.9903 67.1186 29.6983 66.8179C29.3564 66.4657 29.3591 66.1023 29.2598 65.7147C29.2095 65.5222 29.0703 65.3404 28.9552 65.1619C28.7835 64.897 28.7647 64.5317 28.6624 64.2145C28.5215 63.775 28.8489 63.6694 29.0981 63.4757C30.4109 62.4599 31.9483 61.8768 33.4111 61.1501C34.0309 60.8416 34.7102 60.6488 35.286 60.2608C35.7165 59.9707 36.2115 59.8449 36.6507 59.602C37.4564 59.1588 38.3284 58.8921 39.1642 58.5306C39.8149 58.247 40.4963 58.0275 41.1287 57.7193C41.8553 57.364 42.6526 57.173 43.3309 56.7179C43.7787 56.4159 44.271 56.2084 44.7937 56.1041C45.0033 56.064 45.0444 55.8621 45.2288 55.7952C45.7953 55.5903 46.358 55.3866 46.8557 55.0037C47.0634 54.8448 47.3787 54.7474 47.6741 54.6802C48.0673 54.5908 48.3023 54.7706 48.4305 55.1035C48.7319 55.8853 49.3026 56.4843 49.7314 57.1782C49.9835 57.5848 50.3589 57.9569 50.5559 58.3549C50.9009 59.0491 51.3943 59.6422 51.6985 60.3667C51.9395 60.9375 52.2374 61.5489 52.7267 61.9761C52.8909 62.1175 52.979 62.3567 53.0145 62.4627C53.2364 63.1589 53.8391 63.6263 54.0343 64.3244C54.0573 64.404 54.0696 64.4696 54.0086 64.4954C53.653 64.651 53.5084 65.0961 53.1341 65.2056C52.4718 65.3995 51.9917 65.931 51.3913 66.1813C50.9099 66.3832 50.584 66.7792 50.1052 66.9694C49.6302 67.1585 49.2123 67.5552 48.7619 67.7625C47.7804 68.2135 46.9741 68.9674 45.9493 69.3213C45.8883 69.3406 45.8342 69.3816 45.7794 69.4206C45.4965 69.6206 45.3619 70.0842 44.8863 69.9392C44.4968 70.3725 43.9087 70.4692 43.4525 70.8108C43.1676 71.0245 42.8061 71.1147 42.6984 71.6371C42.6304 71.3352 42.5361 71.2955 42.3825 71.4135C41.9555 71.7414 41.3385 71.7995 41.0965 72.3947C41.0489 72.5096 40.9373 72.2757 40.8024 72.353C40.6152 72.4577 40.4584 72.5984 40.3028 72.7365C39.9342 73.0634 39.4501 73.1772 39.0524 73.4851C38.7134 73.7463 38.1922 73.9086 37.747 74.0991C37.2827 74.2956 36.8284 74.5172 36.3811 74.7475C36.2602 74.8095 36.1547 74.7278 36.0268 74.7877C35.871 74.8586 35.7046 74.8829 35.611 75.0514C35.5617 75.1342 35.5009 75.2142 35.3895 75.1799C34.8891 75.0297 35.068 75.3639 35.1123 75.6039C35.0038 75.6056 34.9048 75.6043 34.8529 75.4731C34.7873 75.3049 34.6715 75.3502 34.5595 75.4138C34.1782 75.634 33.9309 75.5015 33.7454 75.0934ZM40.509 88.7715C40.3622 88.4792 40.0838 88.235 40.1056 87.8591C40.1112 87.777 40.0418 87.6969 39.9626 87.6785C39.6971 87.6147 39.6177 87.5225 39.7508 87.2266C39.8124 87.0899 39.6642 86.8328 39.4444 86.7611C39.3266 86.7201 39.1948 86.6944 39.204 86.5374C39.2495 85.785 38.7927 85.2281 38.491 84.6049C38.1367 83.8745 37.8199 83.1236 37.4764 82.3876C37.3279 82.0699 37.1462 81.7669 36.9862 81.4527C36.6669 80.8198 36.345 80.1856 36.0416 79.5434C35.962 79.3775 35.8879 79.2294 35.7254 79.1396C35.5786 79.06 35.5147 78.9305 35.534 78.7659C35.556 78.5831 35.6695 78.4778 35.8467 78.4544C36.4442 78.3743 37.0013 78.1398 37.5814 77.9914C37.8839 77.9133 38.2071 77.8676 38.3985 77.5641C38.4254 77.523 38.482 77.4965 38.5297 77.4814C39.5516 77.1783 40.4935 76.6747 41.3887 76.1229C41.9573 75.7719 42.5213 75.4462 43.1431 75.2238C43.3281 75.1589 43.4059 74.9802 43.5789 74.8974C44.9194 74.2549 46.2236 73.5306 47.5308 72.8226C48.2812 72.4164 49.0693 72.0568 49.7877 71.576C50.2119 71.2923 50.7298 71.1462 51.137 70.8418C51.5461 70.5368 52.0009 70.3237 52.4219 70.0497C52.8307 69.7839 53.2547 69.5393 53.6918 69.3232C54.0188 69.1635 54.3089 69.0198 54.1885 68.5585C54.1767 68.5145 54.2055 68.4598 54.2147 68.4092C54.2361 68.4437 54.2549 68.4833 54.2827 68.5114C54.5021 68.7417 54.726 68.7665 54.9771 68.5592C55.1384 68.4258 55.3369 68.3371 55.5019 68.209C56.0315 67.8008 56.365 67.9538 56.5451 68.6372C56.6221 68.9276 56.8606 69.1584 57.0031 69.4368C57.3959 70.2093 57.7911 70.9897 58.231 71.7321C58.7049 72.5289 59.0966 73.3712 59.5482 74.1772C59.8736 74.7561 60.1618 75.3966 60.4285 76.0288C60.6107 76.4597 60.6666 77.002 61.1255 77.2934C61.1704 77.3227 61.22 77.4199 61.2077 77.4672C61.0938 77.857 61.4498 78.068 61.5515 78.3767C61.6307 78.6144 61.5443 78.9716 61.285 79.0339C60.8924 79.1253 60.5747 79.3277 60.3588 79.6802C60.3134 79.7553 60.2673 79.8219 60.1836 79.8223C59.6874 79.8249 59.422 80.2929 58.9879 80.4256C58.8507 80.4689 58.9415 80.6769 58.8842 80.8209C58.7212 80.5836 58.5209 80.6599 58.3989 80.8048C58.0565 81.2081 57.5292 81.2183 57.123 81.4724C56.8307 81.6559 56.4798 81.7732 56.3236 82.1351C56.2818 82.2286 56.1998 82.2545 56.1014 82.2682C55.5159 82.3597 55.0371 82.6563 54.6349 83.0829C54.5309 83.1917 54.4249 83.0819 54.3116 83.148C53.7954 83.4456 53.2634 83.7134 52.749 84.0169C52.1933 84.3422 51.5527 84.5314 51.0328 84.9039C50.4493 85.3204 49.738 85.4386 49.1632 85.8697C48.9071 86.0613 48.8661 86.1242 49.2395 86.2907C48.878 86.3744 48.7471 86.6306 48.5455 86.8354C48.622 86.6528 48.5874 86.49 48.4644 86.3726C48.299 86.2142 48.2574 86.5009 48.1509 86.4889C47.7591 86.4433 47.4328 86.6853 47.1755 86.8598C46.6889 87.1915 46.0753 87.2072 45.6302 87.5909C45.5218 87.6859 45.4035 87.7362 45.2343 87.7115C45.0124 87.6796 44.7648 87.812 44.7396 88.011C44.697 88.3479 44.432 88.3121 44.2576 88.4237C44.1843 88.4707 44.0695 88.4657 44.0656 88.367C44.0591 88.1803 44.0255 88.0541 43.8307 88.1807C43.7383 88.2403 43.3721 88.1562 43.6317 88.4802C43.6392 88.4908 43.627 88.5186 43.625 88.5387C43.2567 88.4683 43.0429 88.92 42.6818 88.8257C42.4664 88.7678 42.3789 88.8627 42.2746 89.0172C42.1294 89.228 41.9773 89.4171 41.6563 89.3036C41.4796 89.2421 41.4145 89.4211 41.4041 89.5807C41.3956 89.7397 41.4004 89.901 41.3986 90.1013C41.2927 89.9719 41.2248 89.8761 41.2255 89.7457C41.2257 89.7065 41.2229 89.6444 41.2008 89.6341C40.6884 89.3595 40.8026 89.356 40.509 88.7715ZM69.8112 94.8342C69.4366 94.7701 69.2021 95.0503 68.9046 95.1638C68.7475 95.2243 68.8957 95.375 68.9059 95.4868C68.9106 95.5548 68.9012 95.6381 68.832 95.6578C68.7538 95.6825 68.7136 95.6149 68.7064 95.539C68.6739 95.2236 68.4745 95.3625 68.3688 95.4328C68.0548 95.6405 67.7943 95.9246 67.3955 95.9898C67.2564 96.0141 67.2447 96.1893 67.2933 96.3368C67.3538 96.5217 67.2259 96.5947 67.0975 96.62C66.9362 96.6536 66.9642 96.5232 66.949 96.4086C66.9217 96.1827 66.732 96.2991 66.6886 96.3475C66.5258 96.5227 66.3519 96.6362 66.109 96.6239C66.0875 96.622 66.0594 96.646 66.0422 96.6645C65.8404 96.8954 65.5764 97.0156 65.3154 97.1653C64.8755 97.4192 64.3687 97.5142 63.9615 97.8251C63.525 98.1561 63.0237 98.3816 62.5721 98.6979C62.3166 98.8784 61.9976 98.9704 61.7489 99.1857C61.6648 99.2578 61.534 99.2622 61.5996 99.4499C61.6608 99.6303 61.4358 99.5885 61.4041 99.5746C60.8561 99.32 60.7491 99.8443 60.5065 100.105C60.4254 100.194 60.3928 100.343 60.2627 100.456C60.1199 100.03 59.9227 100.123 59.6443 100.317C59.1633 100.66 58.6264 100.912 58.1014 101.182C57.6808 101.397 57.3129 101.713 56.8999 101.939C56.6892 102.055 56.4948 102.21 56.2678 102.288C56.0123 102.375 55.8311 102.545 55.6221 102.7C55.4437 102.833 55.1654 102.908 54.9213 102.985C54.6073 103.086 54.2272 103.097 54.1308 103.529C54.1172 103.586 54.0757 103.64 54.0199 103.623C53.4055 103.444 52.9247 103.867 52.3759 103.975C52.2501 104.002 52.1286 104.068 52.0448 104.182C51.9003 104.375 51.7709 104.602 51.5106 104.296C51.4866 104.267 51.3786 104.29 51.3239 104.316C50.6992 104.609 49.9618 104.637 49.4228 105.135C49.3692 105.185 49.3251 105.251 49.1948 105.183C48.9449 105.056 48.6944 105.146 48.4783 105.318C48.2743 105.483 48.0727 105.687 47.7866 105.446C47.7614 105.425 47.7125 105.43 47.6757 105.433C47.2808 105.477 47.1466 105.311 47.0382 104.855C46.8375 104 46.6673 103.136 46.3401 102.312C46.2351 102.046 46.1389 101.774 46.1177 101.488C46.0999 101.259 46.0286 101.086 45.7967 101.036C45.7295 101.022 45.7039 101.067 45.7192 100.943C45.7781 100.393 45.6523 99.8744 45.3345 99.4125C45.2772 99.3308 45.2561 99.2506 45.2478 99.1512C45.2329 98.9909 45.2309 98.7723 45.1356 98.6895C44.729 98.3447 44.8398 97.8191 44.6365 97.4144C44.2733 96.6956 44.0086 95.9369 43.6796 95.2072C43.503 94.8137 43.1807 94.922 42.8159 94.9156C43.4893 94.5314 43.127 94.0945 42.9385 93.6634C42.8069 93.3663 42.7034 93.0582 42.5197 92.7819C42.4083 92.6152 42.4314 92.469 42.6104 92.3322C42.799 92.1923 42.9236 92.0423 43.2137 92.0115C43.7731 91.9499 44.2857 91.6209 44.8714 91.6031C45.1874 91.5945 45.1708 91.1765 45.4611 91.1065C45.5837 91.0765 45.7442 90.9802 45.8302 91.0204C46.3194 91.248 46.7443 90.9467 47.1182 90.7961C47.8413 90.5026 48.6063 90.3023 49.2918 89.9166C49.8863 89.5813 50.5316 89.3667 51.1436 89.0736C51.2715 89.0137 51.3837 88.911 51.489 88.8126C51.6267 88.6845 51.797 88.6524 51.9585 88.5862C52.2975 88.4445 52.7057 88.3894 52.9393 88.0465C52.9649 88.008 52.9764 87.9913 53.0176 87.9892C53.8071 87.9526 54.3511 87.3641 55.0265 87.0857C55.6624 86.822 56.1457 86.2939 56.8117 86.1183C57.0258 86.0594 57.0734 85.8317 57.2749 85.7724C57.906 85.5862 58.4726 85.2423 59.0372 84.9186C59.8017 84.4775 60.5707 84.0307 61.2447 83.4488C61.4634 83.2582 61.7246 83.1757 61.9644 83.0718C62.3397 82.9121 62.5088 82.5114 62.8878 82.3635C63.0302 82.3099 63.1298 82.3131 63.1927 82.4127C63.4411 82.8075 63.6131 83.2394 63.7857 83.6733C63.9621 84.1125 64.0563 84.6233 64.5861 84.8533C64.5669 84.9852 64.2056 85.1557 64.5963 85.2777C64.5723 86.0515 65.137 86.5982 65.3736 87.2746C65.6033 87.9357 65.9977 88.5406 66.2719 89.1899C66.5536 89.8629 67.1006 90.3934 67.2557 91.1303C67.2749 91.2176 67.3243 91.3344 67.3926 91.3714C67.8044 91.5996 67.9021 92.0354 68.1113 92.4057C68.2948 92.7276 68.5431 93.0226 68.8087 93.2795C68.9387 93.4056 69.0286 93.5444 69.1223 93.6884C69.284 93.9348 69.4683 94.1067 69.7474 93.9014C69.8502 93.9948 69.5304 94.111 69.8105 94.181C69.9587 94.2188 69.9626 94.4238 70.0342 94.551C70.2007 94.8392 69.9646 94.8617 69.8112 94.8342ZM64.5848 76.1557C64.1706 75.5744 64.0369 74.8917 63.7555 74.2663C63.7336 74.2168 63.7397 74.1498 63.7069 74.1124C63.1429 73.4417 63.0077 72.5618 62.5963 71.8169C62.342 71.3567 62.073 70.9033 61.8111 70.4455C61.764 70.3627 61.7339 70.294 61.6031 70.3115C61.5047 70.3252 61.4225 70.2773 61.5356 70.1244C61.6833 69.928 61.4515 69.4194 61.2068 69.3816C61.1434 69.3734 61.0867 69.4065 61.0733 69.3174C60.9129 68.2783 60.1571 67.5315 59.7677 66.6038C59.7383 66.5371 59.6593 66.4861 59.5967 66.4407C59.296 66.2188 59.2994 65.8443 59.6366 65.6771C59.907 65.5439 60.2025 65.4571 60.3179 65.1385C60.3837 64.955 60.4604 65.1847 60.563 65.1046C61.0792 64.7006 61.7131 64.4766 62.1872 64.0057C62.272 63.9224 62.3547 63.8985 62.4645 63.8877C62.5667 63.8793 62.7089 63.8648 62.7568 63.7976C63.0332 63.4043 63.5107 63.3295 63.8447 63.059C64.4452 62.5764 65.08 62.1828 65.7802 61.8836C65.8801 61.8412 65.9398 61.7116 66.0215 61.625C66.0835 61.5556 66.0869 61.3938 66.2573 61.5549C66.3677 61.659 66.4068 61.4904 66.4404 61.3843C66.4979 61.2011 66.5639 61.0848 66.822 61.1053C67.0655 61.1261 67.3199 61.0284 67.5052 60.7919C67.7583 60.4645 68.172 60.36 68.4956 60.1363C68.7803 59.9422 69.2043 59.9103 69.3405 59.4983C69.3805 59.3728 69.5072 59.4153 69.6138 59.4142C69.9641 59.4078 70.3067 59.0717 70.3722 58.708C70.3879 58.6249 70.393 58.5083 70.5442 58.5821C71.0048 58.8122 71.362 58.4823 71.626 58.2427C71.8505 58.0372 72.0865 57.8281 72.3242 57.6445C72.7798 57.2945 73.0659 56.7526 73.6325 56.5217C73.8996 56.4113 74.1148 56.1631 74.3374 55.9583C74.6028 55.716 74.9491 55.611 75.2145 55.3557C75.4251 55.1525 75.715 55.0414 75.9276 54.8115C76.3126 54.3969 76.6211 54.484 76.8788 55.0083C77.0294 55.3124 77.2232 55.5942 77.4922 55.8088C77.7064 55.9821 77.832 56.2073 77.8939 56.4765C77.9037 56.5276 77.9052 56.5988 77.9381 56.6231C78.7221 57.22 78.8717 58.2451 79.4621 58.966C79.796 59.3729 79.9503 59.9081 80.378 60.2398C80.3982 60.2573 80.4254 60.2769 80.4303 60.2992C80.6345 61.0987 81.2214 61.6492 81.6593 62.299C82.1129 62.9719 82.5054 63.6902 82.936 64.3835C83.0832 64.617 83.3018 64.7781 82.9082 65.0326C82.7013 65.1674 82.6186 65.53 82.3393 65.6616C82.2833 65.6901 82.2198 65.7015 82.1512 65.7231C82.1487 65.6024 82.3838 65.5499 82.2468 65.4281C82.142 65.3353 82.0688 65.4887 81.9891 65.5486C81.3838 66.0023 80.7116 66.3904 80.1889 66.9331C79.6534 67.4886 78.9452 67.7361 78.3626 68.2022C77.9795 68.5098 77.4614 68.6951 77.0484 69.0209C76.9509 69.0973 76.8686 69.1688 76.8185 69.2823C76.753 69.4268 76.7246 69.7222 76.5275 69.3503C76.5012 69.3 76.4312 69.3243 76.3854 69.3518C76.3497 69.3717 76.3179 69.397 76.2848 69.4183C75.7371 69.7757 75.207 70.1623 74.6436 70.503C74.2654 70.7331 73.8505 70.9466 73.4835 71.2188C73.0681 71.5236 72.5772 71.7155 72.158 72.015C71.5553 72.444 70.8627 72.7343 70.3833 73.3611C70.1909 73.615 69.7667 73.673 69.465 73.8464C68.7966 74.2333 68.1282 74.6136 67.5007 75.07C67.1802 75.3036 66.7792 75.4151 66.4675 75.6763C66.1462 75.947 65.7859 76.1541 65.4124 76.3394C65.2362 76.4254 65.1948 76.56 65.2813 76.7411C65.3559 76.8977 65.4096 77.0479 65.1621 77.1738C65.2902 76.6297 64.8058 76.4636 64.5848 76.1557ZM89.6634 76.5123C89.4953 76.7368 89.7105 76.9467 89.7791 77.1508C90.0149 77.8578 90.2755 78.557 90.5234 79.2624C90.622 79.5416 90.4949 79.8032 90.437 80.0581C90.2589 80.8089 90.0232 81.5172 89.2944 81.9383C88.9099 82.1617 88.6221 82.5521 88.2533 82.8119C87.7647 83.1572 87.2541 83.466 86.8102 83.8731C85.9785 84.6393 84.9699 85.1575 84.1187 85.8951C84.0275 85.9716 83.9516 86.0434 83.9134 86.1748C83.8409 86.43 83.8278 86.3885 83.5725 86.3172C83.3685 86.2622 83.2409 86.5087 83.1405 86.6424C83.0081 86.821 82.9434 86.9347 82.6685 86.9608C82.2781 86.9994 81.9956 87.3729 81.6518 87.5792C81.3927 87.7348 81.0949 87.8874 81.0679 88.2736C81.0643 88.3486 80.9722 88.369 80.9122 88.3184C80.8345 88.2518 80.7324 88.2471 80.7041 88.3169C80.5619 88.6635 80.2054 88.6501 79.9483 88.7921C79.7338 88.9097 79.5802 89.0277 79.6235 89.344C79.4026 89.1359 79.2676 89.2263 79.0728 89.3399C78.6807 89.5657 78.3369 89.8783 77.9033 90.0325C77.8582 90.049 77.8052 90.0939 77.7904 90.1398C77.6122 90.6714 77.0624 90.6302 76.7069 90.8857C76.3196 91.1664 75.8151 91.2888 75.5568 91.7524C75.526 91.8077 75.4665 91.8916 75.4064 91.8541C75.0935 91.6599 74.9301 91.9394 74.7074 92.051C74.3905 92.2096 74.1189 92.4452 73.7763 92.562C73.5607 92.6366 73.4182 92.8292 73.3331 93.0514C73.2971 93.1431 73.3469 93.3141 73.1966 93.2964C73.007 93.2738 73.2626 93.0672 73.0809 92.9965C72.7566 93.2378 72.6062 93.0204 72.4684 92.7101C72.3888 92.5312 72.2533 92.3743 72.1414 92.2056C72.2466 92.1007 72.4411 92.3845 72.4964 92.1347C72.5498 91.8921 72.3327 91.9216 72.2142 91.8852C71.8 91.7555 71.4704 91.5882 71.6772 91.0476C71.6926 91.0036 71.6463 90.9032 71.6008 90.872C71.1692 90.5676 71.0592 90.0401 70.7556 89.6497C70.6668 89.5345 70.5998 89.2756 70.321 89.4222C70.2135 89.4801 69.9803 88.9806 70.0744 88.8402C70.2132 88.6358 70.0694 88.4793 70.0114 88.3088C69.9378 88.0954 69.7933 88.2756 69.6526 88.2549C69.76 87.9974 69.6724 87.7863 69.5506 87.5599C69.3366 87.1543 69.071 86.7714 68.9352 86.3215C68.9097 86.2341 68.8566 86.0924 68.7258 86.1098C68.6128 86.1238 68.7605 86.2595 68.6255 86.3368C68.6007 86.0191 68.4074 85.7588 68.4924 85.4303C68.53 85.2838 68.4894 85.0622 68.3792 85.0188C68.0659 84.8898 68.1319 84.6606 68.1403 84.4214C68.1496 84.1189 67.9188 83.8792 67.7784 83.6804C67.414 83.1637 67.3249 82.5494 67.0812 81.9968C66.8714 81.5182 66.5846 81.0682 66.4346 80.5599C66.4109 80.4849 66.3429 80.4022 66.4168 80.3376C66.7165 80.078 66.9877 79.7015 67.3378 79.6018C67.8418 79.4579 68.2153 79.1533 68.6053 78.8608C68.8493 78.6774 69.0376 78.4834 69.3694 78.3851C69.67 78.2946 70.0504 78.118 70.2772 77.8402C70.4887 77.5802 70.8011 77.5337 71.0262 77.3432C71.6357 76.823 72.3069 76.3984 72.9736 75.9664C73.506 75.6204 74.0975 75.362 74.5959 74.9745C75.2026 74.5051 75.869 74.1384 76.4844 73.6901C76.9998 73.3169 77.5745 73.0182 78.0502 72.5988C78.2752 72.4019 78.4992 72.3008 78.7547 72.2071C78.866 72.1676 78.9603 72.0944 78.9783 71.952C78.9895 71.8681 79.0294 71.7817 79.1163 71.7716C79.6814 71.7083 79.9932 71.3146 80.335 70.9028C80.5433 70.6525 80.8914 70.4666 81.2123 70.387C81.7199 70.2615 82.1045 70.0185 82.3445 69.5564C82.4606 69.333 82.673 69.3549 82.8445 69.3269C83.0585 69.294 83.2143 69.2231 83.3232 69.0368C83.4078 68.8929 83.5302 68.7956 83.6959 68.7628C83.7588 68.7495 83.8592 68.7286 83.8715 68.6878C84.0583 68.084 84.7652 68.397 85.0703 67.9751C85.1668 67.8426 85.292 68.0266 85.3643 68.1427C85.6629 68.6302 85.9455 69.1401 86.2824 69.5894C87.2112 70.8308 87.928 72.1978 88.5825 73.5866C88.8063 74.063 89.0786 74.587 89.1364 75.1483C89.1719 75.4801 89.489 75.7338 89.3993 76.1007C89.396 76.117 89.501 76.1771 89.5618 76.197C89.7391 76.2604 89.8028 76.3228 89.6634 76.5123ZM25.921 55.7178C26.2908 55.6337 26.4733 55.6737 26.6254 56.036C26.822 56.4992 27.1451 56.8053 27.6758 56.8656C27.8711 56.8865 28.1072 56.877 28.2776 57.0316C28.544 57.271 28.7046 57.1356 28.8747 56.9039C29.0992 56.5986 28.9496 56.2247 29.0486 55.8873C29.1088 55.6795 29.2507 55.3981 29.1786 55.2298C28.994 54.791 29.2974 54.5368 29.5 54.3881C29.9702 54.0443 30.5524 53.8692 31.0013 53.4713C31.0766 53.4041 31.1943 53.4516 31.185 53.5284C31.1483 53.8438 31.4927 53.9847 31.4612 54.2704C31.5957 54.2843 31.5815 54.1 31.7031 54.1397C31.7144 54.7136 32.2756 55.4285 32.7238 55.719C33.1436 55.9924 33.6614 55.9787 34.0419 56.3404C34.264 56.5525 34.5244 56.4008 34.615 56.09C34.7864 55.5171 34.668 54.9098 34.8109 54.3328C34.9103 53.9238 34.9318 53.4937 34.9989 53.0753C35.0851 52.5314 34.6519 52.2753 34.3656 51.9728C34.2269 51.8256 34.3461 51.3929 33.9049 51.543C34.205 51.3115 34.5255 51.1908 34.7547 50.9404C34.9826 50.6926 35.196 50.4321 35.4876 50.2532C35.7709 50.0812 36.0827 49.9198 36.0066 49.4793C35.9937 49.3987 36.0726 49.363 36.1417 49.3694C36.7245 49.4285 36.8609 48.9708 36.9838 48.5565C37.2743 47.5769 37.1427 46.5093 37.4858 45.537C37.4948 45.5125 37.4854 45.4828 37.4894 45.4555C37.6137 44.8064 37.2953 44.2166 37.212 43.5939C37.1737 43.2934 37.0233 43.1824 36.7451 43.3571C36.7001 43.1216 36.9485 42.8391 36.587 42.8165C36.3923 42.8042 36.3171 42.7389 36.207 42.5892C36.1358 42.4901 36.0166 42.378 35.8601 42.334C35.1772 42.1437 34.5447 41.8073 33.8006 41.7752C33.4264 41.7588 33.0097 41.7341 32.6148 41.659C32.1433 41.567 31.6361 41.7271 31.1264 41.6405C30.7474 41.5757 30.3478 41.665 29.9575 41.6905C29.6718 41.7091 29.3218 41.9086 29.2442 41.3839C29.2289 41.2824 29.1419 41.286 29.0536 41.3052C28.6884 41.3771 28.696 41.1489 28.8121 40.9321C28.8903 40.788 28.8828 40.6645 28.8302 40.5508C28.6615 40.196 28.4782 39.8479 28.2866 39.5069C28.2483 39.4386 28.1706 39.2787 28.0838 39.369C27.9114 39.5537 27.926 39.3277 27.9364 39.294C28.1288 38.7014 27.6525 38.3287 27.4252 37.9142C27.1226 37.3607 27.1187 37.1492 27.6813 36.952C28.1912 36.7737 28.6916 36.5788 29.1933 36.3813C29.3053 36.3373 29.3519 36.1597 29.5086 36.3968C29.6929 36.6751 30.0597 36.5484 30.184 36.2248C30.2967 35.9374 30.2477 35.6295 30.3255 35.3379C30.4512 34.8662 30.216 34.387 30.4188 33.8736C30.5675 33.4945 30.3341 32.9279 29.9255 32.9353C29.5213 32.9436 29.1146 32.8245 28.7123 32.945C28.3449 33.0567 28.0017 33.1715 27.5879 33.1828C26.9629 33.2021 26.3496 33.4848 25.737 33.6695C25.4923 33.7446 25.3338 33.7078 25.237 33.441C25.0633 32.9705 24.8718 32.51 24.6981 32.0396C24.6512 31.9111 24.6056 31.7931 24.4549 31.8406C24.1644 31.9367 24.1396 31.7253 24.128 31.5358C24.1136 31.2842 23.9874 31.2763 23.81 31.3388C23.4476 31.4662 23.2908 31.8196 23.1616 32.1209C23.04 32.4068 22.9224 32.6653 22.7155 32.8999C22.2896 33.3839 22.2917 34.2341 22.706 34.6829C22.8429 34.8307 22.8165 34.8933 22.6751 34.9901C22.1158 35.3772 21.5113 35.6809 20.9232 36.0164C20.7615 36.1087 20.6879 35.9887 20.5908 35.8934C20.5018 35.8043 20.5846 35.6414 20.4441 35.5751C20.3221 35.6071 20.3866 35.8646 20.1821 35.8011C19.9566 35.7312 19.9692 35.5253 19.8587 35.3214C20.0214 35.3851 20.1322 35.5368 20.2319 35.4011C20.3292 35.2641 20.2232 35.1477 20.1178 35.0529C20.0976 35.0354 20.0787 35.0154 20.0598 34.9953C19.8548 34.7713 19.5183 34.7017 19.4553 34.2896C19.4278 34.1095 19.1087 33.8824 18.8644 34.2114C18.8318 34.2542 18.7102 34.3339 18.7231 34.1822C18.7445 33.8846 18.4785 33.8058 18.3366 33.755C18.1194 33.6782 18.1184 33.9737 18.056 34.1149C17.9339 34.3923 18.0269 34.6668 18.2021 34.9827C17.9884 34.8439 17.7803 34.7425 17.6836 35.001C17.5741 35.2917 17.31 35.5444 17.4374 35.9079C17.4642 35.9863 17.4346 36.0586 17.3717 36.0784C16.8798 36.2272 17.4044 36.5739 17.2583 36.8284C17.1948 36.9396 17.5041 36.9961 17.6715 37.0279C17.7361 37.04 17.8928 36.932 17.8428 37.1323C17.7889 37.3533 17.9845 37.4348 18.0541 37.5822C18.1788 37.851 18.5514 38.0482 18.3265 38.4317C17.7774 39.3627 17.2683 40.3136 16.8324 41.3108C16.4127 42.266 15.9214 43.1939 15.7891 44.2559C15.7464 44.6123 15.7061 45.0158 15.9104 45.3507C16.1027 45.6612 16.2748 45.9737 16.4042 46.317C16.4811 46.5207 16.5968 46.6947 16.8527 46.5553C16.9093 46.5222 17.0117 46.4877 16.9787 46.6024C16.9069 46.8464 17.1209 46.8136 17.2063 46.8452C17.8489 47.0939 18.5052 47.273 19.1826 47.4195C19.8835 47.5672 20.5257 47.3232 21.2003 47.4011C21.511 47.4354 21.8631 47.2287 22.1708 47.3334C22.5292 47.4591 22.5394 47.8965 22.6931 48.204C23.114 49.0522 23.5343 49.8985 23.9603 50.743C24.1385 51.0948 24.3326 51.4373 24.5354 51.8139C24.2649 51.8538 24.0645 51.9431 23.9617 52.1752C23.8588 52.4074 23.8117 52.7696 23.4561 52.3805C23.4334 52.3551 23.3533 52.3738 23.3044 52.3849C23.0147 52.4569 22.7182 52.4875 22.6353 52.8892C22.5661 53.2345 22.0789 53.4578 22.3611 53.9201C22.3623 53.924 22.303 53.9883 22.2808 53.9845C22.0121 53.9304 21.9956 54.1505 21.9229 54.3189C21.7506 54.7228 21.5978 55.1422 21.3869 55.5235C21.2183 55.8264 21.3535 55.9292 21.5989 55.9689C21.8765 56.0115 22.1341 56.1168 22.4028 56.184C22.8944 56.3066 23.3867 56.4247 23.8995 56.2888C24.5763 56.1077 25.2349 55.8693 25.921 55.7178ZM31.6493 46.1924C31.5911 46.0675 31.7069 45.9962 31.8275 45.9994C32.5735 46.0178 33.3208 45.9273 34.0661 46.0697C34.1682 46.0874 34.2771 46.1203 34.3637 46.1754C34.7418 46.4164 34.7684 46.6468 34.4167 46.9011C33.9293 47.2503 33.3998 47.5325 32.9288 47.907C32.6452 48.1311 32.4075 48.102 32.3059 47.6674C32.247 47.4212 32.0994 47.2724 31.8477 47.5776C31.6436 47.0907 31.8474 46.6204 31.6493 46.1924ZM27.6801 46.9637C27.8409 47.4795 28.0193 48.0179 28.3243 48.486C28.4991 48.8802 28.7197 49.2533 28.883 49.6576C29.0951 50.1767 28.6302 50.1586 28.411 50.3211C28.1631 50.5057 28.0399 50.308 27.9377 50.0907C27.5853 49.3532 27.224 48.6207 26.8793 47.8808C26.7759 47.6595 26.5973 47.4923 26.5238 47.2463C26.4528 47.0147 26.3218 47.1842 26.2287 47.2613C26.1649 47.3118 26.103 47.3878 26.0228 47.3198C25.93 47.2384 26.0344 47.1772 26.0639 47.1115C26.141 46.9504 26.3143 46.8219 26.2274 46.5997C26.2186 46.5786 26.2595 46.5222 26.2869 46.5093C26.5603 46.399 26.8614 46.3431 27.1385 46.3771C27.4162 46.4132 27.5692 46.6123 27.6801 46.9637ZM22.8354 39.257C23.0791 39.2452 23.123 38.8861 23.3948 38.9697C23.4208 38.9658 23.4475 38.9639 23.4716 38.9541C23.6598 38.886 23.7915 38.5926 23.9845 38.6858C24.1693 38.7729 24.028 39.0693 24.1385 39.2732C24.3527 39.6658 24.4695 40.1021 24.7064 40.494C24.8918 40.8023 24.9028 41.2091 25.1104 41.5343C25.3122 41.8482 25.295 41.8602 25.6926 42.0169C25.7211 42.0274 25.7506 42.081 25.7492 42.1097C25.7425 42.1748 25.7126 42.2927 25.6999 42.2924C25.2846 42.252 24.9287 42.4534 24.5525 42.5635C24.3282 42.63 24.2064 42.5035 24.0901 42.3144C23.5634 41.4496 23.211 40.4929 22.7097 39.6158C22.6073 39.4376 22.6209 39.2683 22.8354 39.257ZM20.4531 43.1415C20.5747 43.2941 20.4459 43.3977 20.3086 43.4345C19.8346 43.5603 19.3476 43.5187 18.8755 43.4182C18.5497 43.3495 18.504 43.0253 18.7535 42.7794C18.8288 42.7057 18.904 42.6451 18.9123 42.5187C18.9394 42.1064 19.389 42.0426 19.5526 41.724C19.6148 41.6023 19.84 41.7179 19.9154 41.8504C20.0417 42.071 20.2386 42.2563 20.2649 42.5323C20.3698 42.7184 20.3012 42.9528 20.4531 43.1415Z" fill="white"/>
</g>
</svg>
