<svg width="33" height="31" viewBox="0 0 33 31" fill="none" xmlns="http://www.w3.org/2000/svg">
<path d="M23.246 12.9115V23.8215C23.246 26.6742 20.9266 28.9952 18.0759 28.9952H7.17374C4.32265 28.9952 2.00363 26.6742 2.00363 23.8215V12.9115C2.00363 10.0588 4.32265 7.73823 7.17374 7.73823H18.0759C18.4546 7.73823 18.8239 7.78031 19.1794 7.85778C19.3941 7.61279 19.6088 7.37211 19.8224 7.14088C20.0961 6.84397 20.3894 6.53999 20.6969 6.23128C19.8845 5.91118 19.0008 5.73303 18.0759 5.73303H7.17374C3.218 5.73303 0 8.95339 0 12.9115V23.8215C0 27.78 3.218 31 7.17374 31H18.0759C22.0317 31 25.2496 27.78 25.2496 23.8215V12.9115C25.2496 12.0825 25.1069 11.287 24.8473 10.5453C24.2952 11.2083 23.7514 11.8839 23.2326 12.558C23.2405 12.6747 23.246 12.7927 23.246 12.9115Z" fill="#08A59A"/>
<path d="M3.23235 15.936C3.48049 16.3407 4.98429 18.0096 6.94545 20.329C9.28964 23.1003 11.9327 26.2227 12.2422 26.5767C12.81 27.2263 13.2281 26.778 14.0783 25.0772C15.2549 22.7224 17.6801 17.5609 21.0892 12.8497C24.4983 8.13896 29.6122 2.94015 30.8293 1.96566C32.0472 0.990787 32.6151 0.341525 31.8038 0.016697C30.9917 -0.308524 24.6533 4.17772 20.9547 8.18694C16.9833 12.4923 12.6807 19.5209 11.6146 19.6865C10.76 19.819 6.62691 16.717 5.45462 15.9879C4.09436 15.142 2.58623 14.884 3.23235 15.936Z" fill="#08A59A"/>
</svg>
