<svg width="100" height="88" viewBox="0 0 100 88" fill="none" xmlns="http://www.w3.org/2000/svg">
<mask id="mask0_411_747" style="mask-type:luminance" maskUnits="userSpaceOnUse" x="9" y="33" width="74" height="42">
<path d="M9.49219 33H82.9985V74.8623H9.49219V33Z" fill="white"/>
</mask>
<g mask="url(#mask0_411_747)">
<path d="M30.4731 73.1078C30.4731 74.0555 29.7023 74.8263 28.7495 74.8263C27.8001 74.8263 27.0292 74.0589 27.0292 73.1078C27.0292 68.4587 28.6945 64.1942 31.4603 60.8756C30.6225 59.7906 29.5753 58.8739 28.3752 58.1923C26.873 57.3425 25.1288 56.8549 23.2677 56.8549C20.4144 56.8549 17.8307 58.0069 15.9628 59.8696C14.0932 61.7323 12.9378 64.3075 12.9378 67.1522C12.9378 68.0999 12.1687 68.8708 11.2158 68.8708C10.2647 68.8708 9.49219 68.1033 9.49219 67.1522C9.49219 63.3598 11.0356 59.928 13.5284 57.442C14.6546 56.3193 15.98 55.3888 17.4427 54.7055C17.2693 54.5561 17.0993 54.4016 16.9362 54.2385C15.3173 52.6247 14.3147 50.3912 14.3147 47.9259C14.3147 45.4623 15.3173 43.2287 16.9362 41.6149C18.5551 39.9994 20.7956 39.002 23.2677 39.002C25.7399 39.002 27.9769 39.9994 29.5993 41.6149C31.2182 43.2287 32.2208 45.4623 32.2208 47.9259C32.2208 50.3912 31.2182 52.6213 29.5993 54.2385C29.4362 54.4016 29.2662 54.5561 29.0928 54.7055C29.4259 54.86 29.7555 55.03 30.0731 55.2136C31.541 56.0463 32.8406 57.1382 33.905 58.4275C35.5033 57.0901 37.3266 56.0085 39.3112 55.2411C38.7 54.8188 38.1283 54.3449 37.6081 53.823C35.4003 51.6221 34.0338 48.5765 34.0338 45.2168C34.0338 41.857 35.4003 38.8114 37.6081 36.6087C39.8176 34.4078 42.8718 33.0447 46.2419 33.0447C49.612 33.0447 52.6661 34.4078 54.8757 36.6087C57.0835 38.8114 58.45 41.857 58.45 45.2168C58.45 48.5765 57.0835 51.6221 54.8757 53.823C54.352 54.3449 53.7838 54.8188 53.1726 55.2411C55.1521 56.0051 56.977 57.0901 58.5788 58.4275C59.6432 57.1382 60.9428 56.0463 62.409 55.2136C62.7283 55.03 63.0579 54.86 63.391 54.7055C63.2176 54.5561 63.0476 54.4016 62.8845 54.2385C61.2656 52.6247 60.263 50.3912 60.263 47.9259C60.263 45.4623 61.2656 43.2287 62.8845 41.6149C64.5034 39.9994 66.7439 39.002 69.216 39.002C71.6882 39.002 73.9286 39.9994 75.5476 41.6149C77.1665 43.2287 78.1691 45.4623 78.1691 47.9259C78.1691 50.3912 77.1665 52.6213 75.5476 54.2385C75.3845 54.4016 75.218 54.5561 75.0411 54.7055C76.5038 55.3853 77.8292 56.3193 78.9554 57.442C81.4482 59.928 82.9916 63.3598 82.9916 67.1522C82.9916 68.0999 82.2225 68.8708 81.2679 68.8708C80.3186 68.8708 79.5443 68.1033 79.5443 67.1522C79.5443 64.3075 78.3906 61.7323 76.521 59.8696C74.6531 58.0069 72.0694 56.8549 69.216 56.8549C67.3533 56.8549 65.6108 57.3425 64.1086 58.1923C62.9085 58.8739 61.8613 59.7906 61.0235 60.8756C63.7893 64.1942 65.4545 68.4553 65.4545 73.1078C65.4545 74.0555 64.6837 74.8263 63.7343 74.8263C62.7849 74.8263 62.0107 74.0589 62.0107 73.1078C62.0107 68.7695 60.2458 64.8397 57.3959 61.9984C54.546 59.1571 50.6043 57.3974 46.2522 57.3974C41.9001 57.3974 37.9584 59.1571 35.1085 61.9984C32.2586 64.8397 30.4937 68.7695 30.4937 73.1078H30.4731ZM19.3706 51.811C20.3646 52.8033 21.7415 53.4196 23.2643 53.4196C24.7871 53.4196 26.1623 52.8033 27.158 51.811C28.1537 50.8204 28.7701 49.4435 28.7701 47.9293C28.7701 46.4116 28.1537 45.0399 27.158 44.0476C26.1623 43.0553 24.782 42.4407 23.2643 42.4407C21.7415 42.4407 20.3646 43.0553 19.3706 44.0476C18.3749 45.0399 17.7586 46.4116 17.7586 47.9293C17.7586 49.4469 18.3749 50.8204 19.3706 51.811ZM69.2057 53.4196C70.7285 53.4196 72.1037 52.8033 73.0994 51.811C74.0952 50.8204 74.7115 49.4435 74.7115 47.9293C74.7115 46.4116 74.0952 45.0399 73.0994 44.0476C72.1037 43.0553 70.7285 42.4407 69.2057 42.4407C67.6829 42.4407 66.3061 43.0553 65.312 44.0476C64.3163 45.0399 63.7 46.4116 63.7 47.9293C63.7 49.4469 64.3163 50.8204 65.312 51.811C66.3061 52.8033 67.6864 53.4196 69.2057 53.4196ZM46.235 53.9621C48.6557 53.9621 50.8463 52.9835 52.4344 51.4006C54.019 49.8212 55.0044 47.6357 55.0044 45.2202C55.0044 42.8064 54.0224 40.6226 52.4344 39.0397C50.8498 37.4603 48.6557 36.4817 46.235 36.4817C43.8143 36.4817 41.6237 37.4603 40.0357 39.0397C38.4511 40.6192 37.4656 42.8064 37.4656 45.2202C37.4656 47.6323 38.4476 49.8178 40.0357 51.4006C41.6203 52.9801 43.8143 53.9621 46.235 53.9621Z" fill="#09BE9D"/>
</g>
<path fill-rule="evenodd" clip-rule="evenodd" d="M48.7631 2.24535C60.9038 2.79375 72.7819 5.4259 81.3461 14.0585C91.3171 24.1091 100.683 37.4091 97.2928 51.1623C93.9396 64.7671 78.7679 70.1582 66.0676 76.0478C53.7244 81.7718 40.5655 88.4418 27.9641 83.3128C14.6199 77.8815 6.29441 64.5689 3.23876 50.4756C0.225019 36.5755 2.51419 21.2764 12.2722 10.9384C21.3073 1.36634 35.6219 1.65175 48.7631 2.24535Z" stroke="url(#paint0_linear_411_747)" stroke-width="4"/>
<defs>
<linearGradient id="paint0_linear_411_747" x1="-31.0375" y1="113.028" x2="116.625" y2="49.6722" gradientUnits="userSpaceOnUse">
<stop stop-color="#088F99"/>
<stop offset="0.581731" stop-color="#09BE9D"/>
<stop offset="0.860577" stop-color="#7ECCA2"/>
</linearGradient>
</defs>
</svg>
