<svg width="149" height="149" viewBox="0 0 149 149" fill="none" xmlns="http://www.w3.org/2000/svg">
<path d="M96.4093 46.0385C85.8583 37.3906 70.6299 30.1841 57.4022 37.0707C56.1807 38.0918 49.8117 39.4413 52.238 41.5782C29.7781 48.654 25.9132 77.4356 35.4487 96.2422C41.3085 108.541 55.5046 115.135 68.4541 116.977C69.9955 117.161 71.5398 117.25 73.0868 117.25C89.7036 117.25 106.178 106.885 111.627 90.8832C116.198 74.7283 109.27 56.481 96.4093 46.0385ZM104.69 88.7796C100.149 101.309 87.5083 109.868 74.3195 110.494C62.5803 110.95 50.1678 105.75 42.85 96.4703C37.4214 87.1964 34.3135 75.9971 36.8371 65.332C39.5278 49.7697 56.2864 41.8843 71.039 41.8843C72.138 41.8843 73.2315 41.9288 74.3028 42.0178C77.2132 43.0668 77.063 39.2493 74.1859 39.1937C68.0423 37.8219 61.5536 38.3951 55.6019 40.3706C73.3011 31.208 92.8227 46.4475 101.259 61.6564C105.152 69.9341 107.294 79.8202 104.69 88.7796ZM95.2379 63.0309C95.9669 64.308 94.4727 65.9052 93.2401 64.9174C89.8594 61.0414 83.8521 63.0476 81.6095 67.1266C81.4286 67.7555 80.9166 68.3008 80.2739 68.3008C80.1626 68.3008 80.0513 68.2841 79.9344 68.248C76.5399 65.933 83.9356 59.7309 86.6763 59.6168C89.6814 59.1772 93.6575 60.2596 95.2379 63.0309ZM61.6538 73.4845C62.1017 74.553 60.6326 74.5307 59.9509 74.5279C58.7906 74.514 57.6304 74.5864 56.4895 74.8229C54.3081 75.2987 52.0098 75.9553 50.4878 77.6944C49.6976 78.4595 49.6169 80.001 48.4065 80.001C48.2841 80.001 48.1533 79.9871 48.0059 79.9509C45.8968 79.2025 47.7833 76.2559 48.6848 75.1679C50.2736 73.3871 52.4689 72.1434 54.8563 71.8874C57.0099 71.6147 60.1652 71.6954 61.6566 73.4845H61.6538ZM85.0708 81.9905C85.516 88.8242 78.9355 93.6573 72.5164 93.6573C71.4647 93.6573 70.4213 93.5293 69.4112 93.2566C67.3383 92.9672 63.0812 90.2599 66.7317 88.8102C71.4814 91.1364 73.9967 91.9822 78.8771 88.7101C80.7525 87.483 81.8209 85.4018 82.2272 83.2481C82.3106 81.818 84.2695 80.0789 85.0736 81.9905H85.0708ZM25.507 103.847C22.9305 104.801 18.1474 109.551 15.084 109.551C14.4384 109.551 13.868 109.339 13.4117 108.838C7.90247 103.549 30.0146 96.1114 25.507 103.847ZM40.7604 118.499C38.757 121.037 36.9707 123.769 34.6084 126.003C34.5027 127.325 33.1949 128.321 31.8955 128.321C31.6757 128.321 31.4559 128.293 31.2388 128.232C28.9545 127.631 28.8209 124.545 30.7213 123.39C32.3824 120.664 37.7247 114.623 41.1249 115.419C42.4326 116.203 41.6007 117.698 40.7604 118.499ZM105.986 131.454C105.63 131.454 105.241 131.337 104.84 131.059C102.28 128.797 98.8634 126.805 97.539 123.544C98.8606 117.3 104.96 125.861 106.83 127.798C108.569 128.983 107.617 131.454 105.986 131.454ZM124.554 112.038C122.1 110.875 119.637 109.645 117.361 108.148C113.964 106.612 115.099 101.79 118.955 102.734C122.094 103.293 132.367 111.423 124.554 112.038ZM121.816 45.9105C124.039 44.6667 127.751 41.5921 129.788 44.5554C132.055 48.4481 122.019 52.0541 119.192 52.3352C115.08 50.8716 119.76 47.0262 121.813 45.9105H121.816ZM95.5857 31.0161C95.9335 27.2764 99.7037 22.4322 103.09 20.8768C105.783 20.6375 106.092 23.7205 104.606 25.3621C103.619 26.8424 99.6175 32.1847 97.1188 32.1847C96.4872 32.1847 95.953 31.8452 95.5857 31.0161ZM148.558 74.5836C148.558 75.8774 147.759 76.9236 146.721 77.1268C145.277 77.3939 143.808 77.4634 142.356 77.6109C139.849 77.8391 137.32 78.0477 134.799 78.0477C132.701 78.0477 130.608 77.9031 128.535 77.5024C127.918 77.38 127.308 77.2269 126.702 77.06C125.032 76.5842 123.936 74.8173 125.939 73.6348C127.055 73.056 128.288 72.928 129.473 72.6637C133.906 71.701 138.419 71.4812 142.918 71.7149C144.187 71.7705 145.464 71.8318 146.721 72.0404C147.759 72.238 148.558 73.3009 148.558 74.5836ZM65.7968 14.1795C65.3767 9.96406 65.36 2.13148 69.7451 0.311757C72.4191 -0.592538 73.3707 5.33129 73.1731 11.2579C72.9922 16.7783 71.8153 22.2987 70.118 22.2987C69.8509 22.2987 69.567 22.1595 69.2721 21.859C69.0161 21.5251 68.8937 21.1161 68.8102 20.696C68.6655 20.7377 68.5153 20.7683 68.3428 20.7683C68.2482 20.7683 68.1508 20.76 68.0506 20.746C65.8358 19.8751 65.6494 16.859 65.7968 14.1795ZM28.8181 21.9258C28.4147 16.4722 35.112 19.1294 37.1627 21.7116C38.8015 23.2391 44.5751 32.3711 40.1705 32.3711C39.9201 32.3711 39.6363 32.3433 39.3163 32.2821C38.284 31.5503 37.4465 30.5375 36.4977 29.6972C34.4887 30.5514 29.344 23.7928 28.8181 21.9258ZM25.8075 49.4025C25.4848 49.8838 24.9338 50.1454 24.3718 50.1454C24.1464 50.1454 23.921 50.1036 23.704 50.0146C21.9566 49.2383 20.0645 49.1632 18.2059 48.8348C15.6238 48.4843 13.2865 47.2767 10.7656 46.7313C9.90027 46.5143 8.93754 46.1748 8.39218 45.4375C7.26251 43.9906 8.36992 41.9288 10.1284 41.7702C13.8235 41.5337 17.5353 42.2877 20.8158 44.024C22.054 44.7085 29.6083 48.0697 25.8075 49.4025ZM16.1357 75.9971C11.976 76.267 7.8496 77.0238 3.67315 77.0516C3.55072 77.0628 3.43386 77.0683 3.31978 77.0683C0.0671014 77.0683 -0.948492 72.7694 2.33758 71.6398C4.54962 71.4255 6.74497 70.9915 8.97649 70.9191C10.5987 70.908 12.2236 70.9942 13.8458 71.0805C16.887 71.3198 20.0228 71.1918 22.9583 72.1295C23.6066 72.2825 24.522 72.8863 24.0184 73.6209C23.1892 74.4779 21.8203 74.5558 20.7212 74.8869C19.7334 76.3505 17.6438 75.7383 16.1357 75.9971ZM70.9054 143.869C70.9193 145.063 71.2337 146.298 70.9694 147.475C70.6522 148.488 69.6533 148.997 68.6572 148.997C67.6583 148.997 66.665 148.491 66.3478 147.475C66.0194 143.986 65.6327 140.461 65.6911 136.941C65.8135 134.453 65.9693 131.874 67.0267 129.54C67.316 128.903 68.0923 128.146 68.9271 128.563C70.1152 129.248 70.2181 132.072 70.4713 133.279C70.8748 136.794 71.0696 140.341 70.9054 143.869Z" fill="#FFD04E"/>
</svg>
