<svg width="331" height="331" viewBox="0 0 331 331" fill="none" xmlns="http://www.w3.org/2000/svg">
<path d="M313.447 231.148C324.589 196.06 338.447 152.384 324.831 109.483C316.884 84.4426 302.667 64.1303 282.572 49.1096C265.51 36.3613 244.582 27.807 220.367 23.684C209.576 21.8466 198.801 20.9714 188.293 20.8148C183.835 17.667 179.001 14.8679 173.787 12.4191C152.355 2.37996 124.301 -1.47557 92.6589 1.26685C66.378 3.54798 38.6354 10.211 14.5518 20.035C-31.0174 38.6234 -90.079 82.8107 -112.065 135.897C-123.218 162.824 -123.607 188.991 -113.227 213.674C-104.85 233.594 -91.2283 250.532 -75.774 264.671C-74.3539 269.679 -72.62 274.626 -70.5737 279.506C-59.4894 305.857 -40.4417 330.095 -13.963 351.559C6.63327 368.246 31.1727 382.894 58.9776 395.091C81.0192 404.761 101.019 411.08 120.127 414.419C145.526 418.861 169.006 417.742 189.901 411.11C207.45 405.541 223.198 396.105 236.717 383.055C238.83 381.019 240.875 378.921 242.867 376.797C247.708 377.949 252.297 378.602 256.678 378.769C262.49 378.985 267.879 378.301 272.819 376.734C278.746 374.852 284.022 371.692 288.608 367.274C304.018 352.4 311.506 331.073 318.424 308.692C318.917 307.11 319.431 305.493 319.949 303.853C324.661 289.019 329.997 272.206 325.15 256.935C322.524 248.66 317.966 241.997 311.58 237.008C312.194 235.103 312.811 233.158 313.447 231.148ZM-111.031 212.758C-121.158 188.684 -120.765 163.133 -109.863 136.81C-88.1411 84.354 -29.6745 40.6507 15.4555 22.2454C21.4437 19.7984 27.7723 17.5111 34.35 15.4235C78.5471 1.39603 134.008 -3.58892 172.779 14.5805C176.745 16.4364 180.485 18.5114 184.002 20.7941C147.812 20.9145 115.193 29.2071 96.3783 35.1785C88.9815 37.5261 81.7936 40.1189 75.0101 42.8839C47.3906 54.1525 18.5294 72.1321 -6.24145 93.5127C-35.6226 118.876 -57.4996 147.584 -69.4836 176.523C-81.1243 204.616 -83.6027 233.238 -76.9226 260.363C-91.0024 246.974 -103.299 231.146 -111.031 212.758ZM187.506 23.1903C202.274 33.8251 212.696 48.4789 218.56 66.956C228.806 99.2389 217.313 135.443 207.172 167.382C206.004 171.054 204.898 174.525 203.82 178.014C188.814 226.53 172.613 272.726 139.525 304.659C107.78 335.296 62.2239 336.985 0.258323 309.8C-19.5997 301.087 -48.9746 285.82 -73.675 263.382C-81.37 235.693 -79.2312 206.294 -67.2862 177.438C-55.4405 148.837 -33.7936 120.437 -4.68794 95.3256C19.8994 74.107 48.5148 56.2656 75.9039 45.0974C82.6328 42.3498 89.7577 39.7825 97.0949 37.4537C116.371 31.3357 150.243 22.7549 187.506 23.1903ZM235.071 381.348C221.819 394.138 206.389 403.386 189.187 408.845C168.66 415.36 145.564 416.45 120.542 412.075C101.63 408.771 81.7996 402.503 59.9364 392.912C32.3279 380.801 7.97295 366.269 -12.4556 349.714C-38.6299 328.503 -57.4432 304.573 -68.373 278.589C-69.8828 275.003 -71.2076 271.38 -72.3688 267.721C-48.0533 288.981 -19.9496 303.531 -0.688969 311.981C26.8688 324.07 50.7417 330.334 72.3099 331.145C84.8679 331.612 96.5001 330.144 107.158 326.762C119.942 322.705 131.316 315.898 141.184 306.373C174.683 274.047 191.01 227.544 206.103 178.716C207.181 175.243 208.282 171.773 209.446 168.109C219.693 135.83 231.31 99.242 220.835 66.2394C215.174 48.4026 205.38 34.0197 191.614 23.2742C200.943 23.5537 210.457 24.4141 219.982 26.0356C243.822 30.0972 264.408 38.5033 281.164 51.0264C300.848 65.7348 314.786 85.6494 322.58 110.208C335.97 152.394 322.229 195.667 311.192 230.432C310.636 232.176 310.103 233.87 309.577 235.535C307.644 234.214 305.577 233.023 303.35 231.981C282.529 222.229 251.553 226.694 230.103 235.447C209.169 243.987 182.032 264.3 171.913 288.718C166.754 301.181 166.574 313.303 171.389 324.736C181.505 348.793 208.148 363.407 223.125 369.981C229.201 372.649 234.881 374.687 240.253 376.135C238.55 377.9 236.832 379.647 235.071 381.348ZM308.806 237.91C308.505 238.891 308.2 239.857 307.899 240.821C293.22 288.299 276.022 337.466 242.096 374.162C236.462 372.715 230.456 370.595 224.062 367.788C209.405 361.358 183.361 347.1 173.563 323.806C169.01 312.972 169.191 301.473 174.099 289.615C183.95 265.833 210.494 245.993 230.984 237.638C233.709 236.532 236.59 235.487 239.584 234.536C259.635 228.173 284.772 225.905 302.326 234.125C304.664 235.225 306.82 236.491 308.806 237.91ZM322.888 257.659C327.508 272.214 322.29 288.641 317.689 303.139C317.168 304.785 316.649 306.403 316.16 307.996C309.331 330.075 301.963 351.09 286.963 365.567C276.446 375.714 262.517 378.779 244.729 374.797C278.403 337.858 295.544 288.856 310.177 241.524C310.388 240.829 310.606 240.137 310.827 239.438C316.467 244.074 320.512 250.173 322.888 257.659Z" fill="white" fill-opacity="0.4"/>
</svg>
