<svg width="523" height="324" viewBox="0 0 523 324" fill="none" xmlns="http://www.w3.org/2000/svg">
<path d="M375.82 580.562C379.473 555.324 394.106 529.59 414.464 512.264C438.935 491.441 468.008 490.452 493.072 472.108C510.611 459.264 529.041 432.393 519.476 413.758C514.554 404.173 504.016 400.1 495.01 395.787C485.563 391.253 475.947 386.992 466.698 382.082C448.762 372.556 431.413 360.058 424.328 338.619C415.495 311.867 424.676 278.453 432.002 248.003C438.095 222.703 443.109 196.268 438.205 173.228C433.755 152.326 419.992 138.4 399.433 137.159C348.125 134.055 302.618 191.401 254.883 215.818C229.07 229.023 200.878 235.77 177.007 229.534C156.133 224.084 138.812 208.918 132.984 186.139C130.408 176.088 131.437 164.007 136.683 152.795C141.637 142.196 152.068 132.636 161.5 136.756C169.539 140.248 171.804 152.255 168.492 162.417C164.279 175.338 151.99 184.79 140.974 189.456C118.378 199.02 95.3991 193.271 81.4589 178.654C74.1834 171.038 69.2416 160.975 67.5165 149.214C65.3559 134.542 67.4657 118.515 68.6397 102.923C69.6392 89.6124 69.7379 76.6366 67.0577 64.56C64.8194 54.4851 61.0447 45.2775 55.9988 37.1363C45.557 20.2707 29.5738 8.14051 10.4897 3.19704C-27.9419 -6.7507 -75.9893 16.2685 -107.279 55.6055C-114.717 64.9447 -121.022 75.0675 -126.111 85.7497C-127.07 87.7434 -124.407 88.3084 -123.465 86.3342C-100.182 37.5385 -48.2243 0.990616 -4.09723 4.1842C17.7141 5.76254 36.4897 16.5373 49.1928 33.183C55.601 41.5765 60.449 51.5059 63.3771 62.5387C66.7936 75.4601 66.8053 89.5024 65.6896 104.017C64.5118 119.333 62.5277 135.056 64.4908 149.512C65.959 160.304 69.8906 169.833 75.9134 177.484C87.8697 192.655 107.649 200.344 128.897 196.232C147.282 192.674 172.087 176.859 172.841 153.559C173.122 145.064 170.01 136.736 163.237 133.757C156.469 130.771 148.031 133.785 141.734 140.452C125.37 157.809 126.835 183.121 134.023 198.641C142.928 217.858 160.523 230.077 180.83 233.818C204.802 238.227 232.121 230.891 257.316 217.717C284.934 203.278 309.122 180.641 335.478 162.91C358.042 147.732 384.872 135.883 407.221 141.678C429.764 147.523 437.637 171.37 437.192 196.782C436.685 225.421 426.47 254.851 421.067 283.954C415.845 312.08 416.473 339.005 430.934 358.328C443.436 375.013 462.424 384.213 480.741 392.845C490.508 397.435 501.173 401.354 509.781 407.794C519.752 415.267 521.78 428.417 514.537 443.104C498.625 475.364 465.977 481.543 439.65 493.451C416.744 503.799 396.806 522.139 384.168 546.574C378.438 557.635 374.615 569.25 372.941 580.814C372.645 582.873 375.523 582.632 375.824 580.567L375.82 580.562Z" fill="#08B39C"/>
</svg>
