<svg width="1280" height="90" viewBox="0 0 1280 90" fill="none" xmlns="http://www.w3.org/2000/svg">
<path d="M1203.05 81.2993C1206.02 85.3579 1196.12 82.6974 1202.69 88.7586C1201.32 89.1681 1199.94 89.5905 1198.57 90C1198.23 87.7552 1197.87 85.516 1197.52 83.2712C1199.36 82.6102 1201.2 81.9493 1203.05 81.2883C1203.05 81.2919 1203.05 81.2956 1203.05 81.2993ZM1205.57 53.1866C1203.88 59.5892 1198.52 61.2962 1204.31 67.2045C1204.77 65.0072 1205.24 62.8103 1205.7 60.613C1207.71 62.3172 1209.73 64.021 1211.74 65.7159C1212.47 64.8782 1213.19 64.0396 1213.91 63.2112C1214.83 67.0295 1215.74 70.8582 1216.66 74.6858C1215.85 74.127 1215.02 73.5584 1214.2 72.9995C1210.97 76.1002 1208.1 76.9482 1203.71 77.5256C1204.09 78.4291 1204.48 79.3247 1204.87 80.2281C1202.64 78.6914 1200.42 77.1508 1198.2 75.6141C1200.12 74.1056 1202.28 72.428 1204.06 71.0221C1201.21 65.0351 1196.17 68.3672 1193.55 69.6159C1189.98 71.3203 1190.79 68.4736 1188.14 69.6653C1187.72 69.8516 1187.67 72.0829 1186.83 72.1206C1182.62 72.2976 1174.43 71.1149 1179.22 65.9082C1186.16 66.5788 1192.08 62.3977 1198.88 63.9252C1197.08 57.9048 1200.67 55.8562 1205.57 53.1866ZM1078.06 72.3568C1080.17 69.4328 1084.45 70.6128 1087.35 72.6425C1087.35 72.6425 1087.36 72.6425 1087.36 72.6425C1088 73.0895 1089.45 76.9754 1087.36 76.8171C1083.96 76.5457 1082.32 70.4289 1080.53 74.5815C1079.74 73.8084 1078.9 73.1206 1078.06 72.3568ZM1070.67 72.7194C1068.59 71.2198 1069.54 66.6107 1072.15 67.8582C1072.15 67.8545 1072.15 67.8508 1072.15 67.8472C1073.24 68.3688 1071.1 72.0119 1075 68.3141C1075.8 71.1909 1076.59 73.8082 1077.38 76.5919C1076.42 76.6384 1075.55 76.7139 1074.54 76.7511C1075.22 72.0225 1072.76 74.2072 1070.67 72.7194ZM1175.69 68.5118C1175.36 72.7658 1176.74 72.739 1179.08 75.691C1176.87 75.5513 1174.66 75.4023 1172.46 75.2626C1173.54 73.0095 1174.61 70.7649 1175.69 68.5118ZM1227.54 69.171C1227.54 69.171 1227.54 69.171 1227.55 69.171C1228.27 68.5004 1229 67.8273 1229.71 67.166C1230.14 68.6843 1230.57 70.1959 1231 71.7142C1233.56 70.2891 1236.12 68.8641 1238.68 67.4297C1238.37 72.0674 1233.78 71.3128 1231.26 74.554C1227.5 73.1568 1225.69 70.4648 1225.45 66.5344C1226.14 67.4095 1226.83 68.2958 1227.54 69.171ZM613.169 50.6819C612.315 51.9669 611.471 53.2529 610.617 54.5379C611.753 55.1244 612.88 55.572 614.025 56.2517C617.021 50.6638 617.302 55.6067 621.227 55.263C633.258 54.2012 630.066 45.5223 640.931 58.2346C632.208 57.6299 635.56 63.6032 630.301 68.2042C629.212 64.702 634.423 56.8034 630.892 55.1641C624.807 58.8706 618.955 62.3227 612.203 64.7162C612.401 65.3216 612.597 65.929 612.794 66.5344C613.865 66.1525 614.926 65.7682 615.997 65.3864C614.842 67.007 613.713 68.6137 612.539 70.2531C614.022 66.5743 610.241 68.6299 610.747 64.4031C610.972 62.5216 612.644 59.9114 613.63 58.1138C611.085 57.136 608.475 56.2403 605.902 55.2904C607.235 53.7914 608.567 52.2907 609.891 50.7917C610.98 50.7452 612.061 50.7119 613.149 50.6654C613.156 50.6709 613.163 50.6764 613.169 50.6819ZM65.4559 70.2421C68.6867 65.8643 74.5578 65.14 77.6478 70.0114C73.5811 70.0859 69.5226 70.1676 65.4559 70.2421ZM1225.2 63.2936C1225.57 64.0378 1225.92 64.774 1226.29 65.5182C1224.67 66.8964 1223.05 68.2651 1221.43 69.6433C1221.12 67.4927 1220.8 65.3416 1220.49 63.2002C1222.05 63.2281 1223.63 63.2656 1225.2 63.2936ZM1121.87 65.6885C1123.05 65.5583 1123.16 65.6288 1124.63 65.9356C1124.63 65.9338 1124.62 65.932 1124.62 65.9301C1125.21 66.0447 1130.09 67.3009 1129.54 68.9567C1127.12 68.9847 1124.53 68.9567 1122.06 68.9567C1121.98 67.8675 1121.96 66.7869 1121.87 65.6885ZM1150.39 66.6552C1150.4 66.6589 1150.4 66.6625 1150.4 66.6662C1151.28 66.9177 1152.12 67.4298 1153.03 67.5231C1149.75 70.1291 1149.24 65.4536 1146.26 66.7761C1143.28 68.1079 1141.44 70.6877 1138.92 64.2823C1139.86 63.3229 1140.87 61.9504 1141.83 60.8327C1146.06 63.3939 1147.2 60.9837 1150.59 58.4598C1150.52 61.1978 1150.46 63.9172 1150.39 66.6552ZM666.732 63.6396C667.539 60.4731 668.44 63.5802 668.533 63.6176C668.532 63.6213 668.53 63.625 668.528 63.6286C675.682 60.696 667.597 65.3815 674.349 65.8752C673.344 66.6667 672.356 67.5024 671.361 68.3031C669.821 66.776 668.234 65.0456 666.732 63.6396ZM899.173 63.9362C899.239 64.8583 899.317 65.7825 899.383 66.7046C895.326 66.4904 894.291 70.1205 890.92 66.8145C893.671 65.846 896.422 64.8844 899.173 63.9252C899.173 63.9289 899.173 63.9326 899.173 63.9362ZM1101.42 58.9816C1105.92 57.2212 1109.25 56.4456 1113.57 59.2398C1113.57 59.2435 1113.57 59.2471 1113.58 59.2508C1113.83 59.4228 1112.62 61.352 1112.95 61.8379C1113.84 61.5494 1114.76 61.1058 1115.66 60.7613C1115.78 62.3062 1115.9 63.8508 1116.02 65.3864C1113.48 64.9486 1110.95 64.5113 1108.4 64.0736C1108.78 64.977 1109.16 65.8726 1109.54 66.7761C1107.38 67.2417 1105.23 67.7056 1103.07 68.1712C1103.82 65.6387 1104.57 63.1055 1105.31 60.5636C1104.01 60.0329 1102.72 59.5216 1101.42 58.9816ZM831.627 53.8458C832.341 54.8517 831.019 56.5389 832.128 57.4052C833.236 58.2604 835.279 56.3832 834.8 59.2233C833.308 59.6049 831.741 60.0425 830.221 60.4428C835.114 65.5642 839.995 60.9299 840.07 67.2539C835.374 65.6147 831.513 66.3762 826.968 68.1273C827.155 63.1074 831.702 58.767 828.839 54.0545C829.759 53.9893 830.726 53.894 831.617 53.8568C831.62 53.8531 831.624 53.8494 831.627 53.8458ZM1290.92 0.345024C1293.7 0.726912 1300.07 -1.3218 1303.59 1.6029C1304.45 2.32365 1307.33 11.6601 1307.32 12.8908C1307.23 17.0356 1303.71 17.5997 1307.48 20.3007C1306.21 20.3287 1304.98 20.4844 1303.73 20.5589C1303.95 23.3439 1304.18 26.1214 1304.39 28.8971C1305.92 28.4779 1307.46 28.0567 1308.99 27.6282C1309.06 28.5503 1309.14 29.4745 1309.21 30.3966C1303.71 30.4153 1306.96 33.9743 1304.1 37.2902C1306.73 38.9664 1309.38 40.6345 1312 42.3107C1310.49 42.1058 1308.7 41.9541 1307.37 41.712C1307.19 46.4339 1310.37 45.3081 1310.92 46.1832C1313.99 51.1287 1298.35 48.6327 1297.08 55.5046C1299.57 56.2682 1302.19 57.0134 1304.75 57.7677C1304.02 58.6153 1303.27 59.4634 1302.54 60.3109C1296.75 55.5712 1290.25 53.8921 1283.5 50.94C1282.89 51.1355 1282.28 51.3361 1281.68 51.5223C1281.85 53.6544 1282.02 55.7784 1282.2 57.9105C1281.28 58.162 1280.35 58.4116 1279.43 58.6631C1282.14 51.6408 1278.38 51.7365 1273.85 47.4521C1276.26 44.9842 1279.24 46.4804 1279.03 41.8823C1270.75 45.42 1261.05 40.4204 1252.99 44.4145C1250.99 45.4016 1251 51.3333 1246.3 50.7862C1246.46 50.1342 1246.48 48.9571 1246.59 48.1002C1238.45 50.9411 1233.52 52.6394 1225.07 49.7426C1225.55 51.8745 1226.03 54.0154 1226.52 56.1473C1228.32 55.0855 1230.11 54.0068 1231.9 52.945C1233.12 56.4655 1231.31 58.0192 1236.67 57.9819C1241.05 57.954 1238.44 56.3995 1239.63 55.3563C1241.25 53.9322 1242.67 56.7338 1244.4 55.1421C1245.75 53.9219 1244.29 51.0172 1247.8 51.753C1246.39 55.516 1244.95 59.4016 1243.53 63.2112C1242.68 62.3636 1241.83 61.5029 1240.98 60.646C1241.84 59.64 1242.69 58.6473 1243.55 57.6414C1240.51 59.4482 1237.64 61.1524 1234.49 63.0244C1235.51 57.5848 1232.26 59.6243 1230.5 60.267C1227.75 61.2718 1230.1 57.5282 1228.3 58.1522C1226.5 58.7859 1224.55 62.9683 1221.29 62.0741C1223.04 59.6528 1220.66 57.4815 1221.12 55.2465C1221.58 53.0115 1225.03 52.5166 1221.72 50.0777C1215.35 51.9312 1222.26 60.4425 1217.96 61.8215C1212.79 63.4793 1211.56 49.6051 1213.1 46.6226C1214.32 44.2754 1218.48 44.7475 1219.71 42.4096C1212.24 38.1904 1212.17 46.5197 1210.9 48.1497C1206.26 54.0824 1209.37 38.2476 1203.88 43.9751C1203.98 41.0139 1204.07 38.3506 1204.17 35.5105C1203.22 36.0507 1202.59 36.7685 1201.45 37.1968C1204.82 42.9665 1202.06 42.7192 1200.64 42.7282C1198.41 42.7468 1201.86 45.5611 1201.27 46.2876C1199.67 48.2317 1197.15 47.3489 1198.69 49.8909C1198 48.708 1197.25 47.5216 1196.53 46.348C1193.92 47.8219 1187.78 60.1813 1193.62 57.6853C1193.08 62.2773 1191.19 60.0702 1189.72 59.3716C1188.24 58.6737 1188.27 61.5981 1186.97 61.058C1181.82 58.8969 1185.19 53.8945 1186.01 49.9733C1179.2 52.6743 1185.86 54.4613 1176.05 56.2682C1175.1 59.4629 1179.64 62.872 1175.86 64.7162C1175.17 59.166 1172.39 55.1789 1166.97 53.3349C1166.44 54.611 1165.92 55.8984 1165.39 57.1745C1162.43 52.0516 1163.95 46.7245 1158.47 53.0768C1161.41 41.3876 1159.39 48.8658 1154.49 44.1069C1153.49 43.1475 1155.79 40.7224 1154.4 39.4929C1153.77 38.9384 1152.24 40.769 1150.7 39.3555C1149.95 38.657 1146.44 34.1499 1144.01 36.2905C1145.79 41.9536 1141.17 46.7713 1145.13 51.4564C1137.81 50.3014 1132.68 53.0204 1140.89 45.2988C1139.03 43.585 1137.17 41.8785 1135.31 40.174C1134.01 41.5246 1132.7 42.8645 1131.4 44.2058C1131.2 39.5514 1131.4 38.2457 1126.29 39.0644C1128.51 37.9659 1130.72 36.8491 1132.94 35.7412C1133.02 34.8013 1133.33 33.8245 1133.25 32.9124C1130.53 34.7 1122.85 35.4694 1120.99 36.708C1119.13 37.9468 1122.73 38.2858 1122.19 39.4874C1117.73 49.3955 1118.08 42.0879 1114.88 43.7883C1113 44.7943 1117.49 45.8866 1116.48 46.315C1112.76 47.8854 1111.03 42.6196 1107.73 42.5524C1108.9 45.5414 1110.06 48.5768 1111.21 51.5937C1107.74 51.4354 1103.88 51.4088 1100.66 52.3682C1099.39 52.7427 1100.35 54.9657 1100.14 55.1146C1099.12 55.8784 1094.95 57.0883 1094.51 57.0976C1091.19 57.1153 1091.09 54.0363 1087.86 53.8678C1089.13 53.6071 1090.32 53.3721 1091.56 53.1207C1092.12 48.1289 1092.7 43.1373 1093.26 38.1361C1090.1 37.7729 1086.93 37.4172 1083.76 37.054C1086.08 38.721 1088.41 40.3801 1090.72 42.0471C1087.1 46.08 1083.47 50.1221 1079.85 54.1644C1077.96 51.6869 1076.08 49.21 1074.19 46.7325C1069.07 47.386 1070.1 57.4429 1067.67 48.633C1066.16 49.3778 1064.64 50.1222 1063.13 50.8577C1063.35 49.6006 1063.56 48.341 1063.78 47.084C1061.96 47.8571 1060.13 48.6251 1058.31 49.4075C1060.23 53.8592 1062.11 58.5438 1064 62.8651C1060.42 63.8325 1060.35 60.0559 1059.81 59.1135C1058.4 56.6172 1055.58 59.9843 1054.45 57.6743C1054.07 56.8813 1057.59 54.3951 1056.38 51.5278C1056.14 50.972 1051.44 40.4318 1048.43 42.8655C1048.49 44.7749 1048.72 47.1162 1048.84 49.1933C1044.81 50.3531 1042.75 40.3861 1043.28 37.5923C1041.13 39.5482 1037.99 39.7116 1037.55 42.7666C1036.45 42.8411 1035.36 42.9118 1034.26 42.9863C1035.4 35.5459 1030.82 36.9064 1030.52 43.3049C1032.41 43.4633 1034.3 43.63 1036.19 43.7883C1034.76 51.6308 1040.5 56.3646 1028.56 49.0999C1026.28 45.0202 1032.62 49.6558 1030.76 46.6007C1027.53 44.8225 1024.49 46.3103 1021.42 43.4697C1017.6 39.9212 1022.3 36.5082 1013.4 41.0254C1033.04 52.342 1010.71 48.6702 1001.48 52.1814C998.947 41.0042 991.158 37.464 980.432 40.7892C981.55 43.9 984.924 42.2973 986.868 43.3214C988.812 44.3458 986.709 46.1914 989.131 47.6443C991.553 49.0969 996.698 51.0717 999.15 53.269C997.073 55.0297 986.821 59.1921 993.6 54.1918C988.54 51.1095 986.163 47.942 979.892 47.3642C978.013 52.2167 978.152 55.2383 972.039 55.3783C975.654 48.6353 968.708 43.9488 970.237 36.9826C974.573 38.6051 972.149 45.3759 974.656 48.6166C974.914 48.9405 978.953 47.2431 979.892 47.3642C975.815 41.282 974.406 39.0181 976.914 31.7808C974.03 32.4142 972.237 31.5056 971.974 34.9612C971.373 33.4621 970.769 31.9617 970.177 30.4625C969.239 30.4999 968.394 30.6387 967.399 30.6109C968.769 35.8235 966.114 32.6146 964.226 34.9777C962.338 37.3435 964.871 41.4584 959.687 41.5142C961.415 42.7344 962.995 43.7813 964.667 44.9363C961.324 46.2774 957.97 47.627 954.627 48.9681C956.975 52.1531 962.063 56.884 961.924 61.0744C960.384 59.4924 955.109 62.2728 954.532 62.3872C952.297 62.8157 953.515 60.1729 953.346 60.1077C949.834 58.8234 946.942 59.7232 945.608 55.7189C942.969 57.5256 940.979 56.4955 938.181 56.5977C936.641 56.6536 936.94 59.5948 936.039 59.0366C930.047 55.3111 935.755 51.5103 924.197 58.7454C925.597 60.7943 926.977 62.8904 928.376 64.9579C927.071 65.731 925.773 66.5083 924.468 67.2814C923.594 66.9088 922.728 66.5334 921.855 66.1609C921.874 61.7184 921.896 57.2666 921.915 52.8241C920.957 52.5819 919.995 52.3467 919.037 52.1045C920.681 51.6668 922.328 51.2295 923.972 50.7917C924.122 50.01 924.262 49.228 924.413 48.4463C921.971 47.2354 919.537 46.0137 917.095 44.7935C917.048 46.3389 917.002 47.8951 916.955 49.4405C911.451 47.2889 911.321 45.9807 906.09 50.237C902.06 50.1904 898.779 56.6519 896.45 59.3716C895.615 58.5056 894.778 57.6285 893.933 56.7625C893.398 58.0479 892.856 59.3277 892.321 60.613C891.26 58.8249 890.184 57.0363 889.123 55.2575C888.532 59.3163 888.225 60.5835 892.366 62.0082C890.948 67.0564 883.658 64.8295 880.69 63.1343C878.439 61.8479 880.937 57.6372 880.655 57.125C879.715 55.385 876.004 56.8864 875.225 56.5977C871.928 55.3963 869.618 55.6066 866.641 54.6752C866.062 54.4888 864.441 51.8203 864.304 51.7365C863.233 51.2801 860.59 49.9831 860.29 49.9458C844.788 47.9538 861.352 59.5314 846.937 58.3115C847.369 59.8383 847.766 61.3548 848.188 62.8816C847.099 62.9747 845.999 63.0632 844.91 63.1562C843.529 61.8802 845.2 59.5596 842.458 61.4315C842.636 59.5501 842.815 57.6678 843.003 55.7958C841.81 56.811 840.661 57.8181 839.44 58.8333C837.524 52.3043 830.529 50.8215 831.027 43.1566C831.196 40.5486 836.155 37.8725 833.534 35.0876C831.405 34.5393 832.846 37.6541 831.977 37.8175C825.704 38.9539 826.068 34.588 823.504 35.7522C823.101 37.6233 822.676 39.5311 822.263 41.4209C821.296 40.8716 820.327 40.3223 819.35 39.773C819.125 41.0304 818.89 42.2892 818.664 43.5466C819.576 43.6304 820.601 43.7155 821.437 43.7993C820.272 48.6695 809.568 50.8572 813.65 46.705C815.312 45.0194 818.356 45.7355 816.432 39.9817C813.568 40.8107 810.318 41.6576 807.303 42.4865C807.21 41.2477 807.122 40.0066 807.028 38.7678C802.965 39.5697 806.66 44.5227 806.653 47.1774C805.723 47.2519 804.784 47.3172 803.855 47.3916C803.461 46.1913 803.087 44.935 802.674 43.7718C802.636 45.682 802.116 50.122 799.346 48.4737C797.565 47.4009 800.369 42.5817 796.973 43.25C797.227 46.23 798.454 49.8595 794.671 50.8192C794.295 47.709 793.776 44.8597 793.485 41.5911C788.781 44.5791 786.64 39.7761 781.118 43.25C777.615 45.4483 772.816 53.2515 770.553 41.2286C767.99 40.9121 768.804 43.9062 768.045 44.5793C764.467 47.7648 761.805 42.0638 761.138 41.7285C756.886 39.579 754.979 41.5525 751.514 38.8612C751.702 41.0873 751.804 43.1945 751.955 45.3648C755.129 42.0302 756.737 42.1867 761.189 42.9039C759.695 43.3509 758.202 43.8082 756.709 44.2552C756.953 46.0617 757.195 47.8685 757.43 49.6657C771.198 42.5495 767.987 53.7927 756.444 56.2517C755.448 52.9085 754.417 49.5741 753.431 46.2217C746.763 51.2884 743.625 46.8899 736.084 45.8372C735.188 45.7168 731.922 47.6426 730.519 47.7377C730.542 47.7505 730.565 47.7633 730.589 47.7761C729.715 50.9332 730.898 52.3862 731.039 55.208C730.279 55.5619 729.518 55.9143 728.757 56.2682C727.058 54.1172 727.656 52.3504 724.313 52.8626C724.763 55.0046 725.208 57.1472 725.659 59.2892C721.996 59.3638 719.599 57.0364 716.19 58.0424C716.763 57.232 717.328 56.4194 717.901 55.609C710.482 53.5412 716.386 40.9473 710.779 47.2159C710.423 46.1172 710.075 45.0078 709.718 43.9091C712.028 43.6391 714.34 43.3773 716.64 43.1072C716.687 41.5523 716.738 40.0041 716.775 38.4492C714.305 38.9149 711.823 39.3952 709.353 39.8609C711.156 38.8177 712.97 37.7731 714.773 36.7299C711.909 35.9849 709.044 35.2394 706.18 34.4943C709.222 40.2119 705.278 40.9112 706.02 46.5732C700.948 41.8601 696.965 35.6475 689.103 39.6247C687.545 40.417 688.392 44.3737 683.968 39.5588C685.039 45.8544 679.498 48.8086 680.21 54.7961C681.749 54.5074 683.346 54.3258 684.839 53.9721C683.139 51.8952 682.857 46.1815 685.44 44.4859C688.736 42.3251 693.544 46.285 693.347 39.9433C694.662 40.2412 695.884 40.417 697.161 40.6683C696.636 42.2415 696.121 43.8246 695.605 45.3977C699.238 42.9313 701.521 43.7334 703.267 47.6992C698.938 48.6119 694.619 49.5149 690.289 50.4182C690.927 50.6879 691.573 50.9597 692.211 51.2202C688.934 55.2719 692.315 59.1096 686.2 59.9759C686.238 58.1228 686.268 56.2684 686.306 54.4061C684.08 59.3613 677.985 59.3344 679.929 65.0348C678.089 63.2839 677.714 62.1764 676.671 65.249C671.816 60.9179 668.697 55.4408 670.425 48.9022C668.622 49.9545 666.818 51.0083 665.025 52.0606C666.067 53.8486 667.111 55.6282 668.153 57.4162C665.016 57.3044 661.856 57.1945 658.729 57.0921C658.428 51.8023 664.767 55.4873 662.938 50.7588C662.572 49.8097 660.884 51.8427 660.44 51.3081C655.764 45.5244 663.105 49.703 661.727 45.2714C654.758 43.9022 660.335 36.4766 650.736 42.7172C650.482 41.19 650.21 39.632 649.975 38.1141C646.643 38.0225 646.913 41.4721 644.049 42.124C642.256 42.5295 640.005 36.472 638.024 40.5969C637.67 41.3574 641.003 48.7611 634 48.4353C628.565 48.1828 630.827 42.9506 627.889 41.0968C624.949 39.2432 618.224 46.498 616.242 38.2734C617.782 39.3628 619.743 39.9505 621.452 40.8441C622.147 39.2423 622.824 37.6578 623.509 36.0653C619.602 38.1329 615.564 35.696 612.934 39.5148C607.722 33.6748 601.892 39.0943 603.47 45.6888C605.186 44.7381 603.319 41.8625 605.702 43.6949C605.946 45.2318 606.203 46.7611 606.448 48.298C602.39 48.1117 599.573 48.1548 601.423 43.4697C600.794 43.3579 600.17 43.2464 599.541 43.1347C599.428 46.5251 599.328 49.9281 599.216 53.3185C598.464 53.7003 597.71 54.0791 596.959 54.461C596.123 53.7163 595.286 52.9629 594.441 52.2089C595.578 46.8439 597.513 46.6667 591.108 43.6675C591.089 45.521 591.062 47.3672 591.043 49.2208C585.68 46.8644 585.539 42.3743 578.806 42.5414C583.971 36.106 586.797 47.5136 586.779 34.6042C588.075 35.4518 589.381 36.3108 590.677 37.1584C590.875 35.2862 591.07 33.4113 591.258 31.5392C584.299 32.5267 572.74 44.8391 568.08 36.675C567.517 37.6713 566.952 38.5374 566.379 39.6082C561.814 34.6809 559.843 45.743 555.213 39.372C554.735 38.7034 555.735 28.3104 549.707 28.6829C549.858 30.0336 549.936 32.3071 550.058 34.011C548.753 33.1823 547.455 32.3151 546.159 31.4677C545.924 32.7154 545.678 33.9625 545.443 35.2194C547.669 35.7037 549.889 36.1962 552.115 36.6805C550.265 37.1088 548.404 37.5375 546.554 37.9658C548.967 40.0049 550.056 40.0266 548.601 43.2939C546.507 43.4895 544.41 43.6971 542.315 43.8927C542.1 44.7298 541.885 45.5767 541.67 46.4139C542.684 48.9099 543.708 51.351 544.723 53.8842C539.266 51.8445 534.522 51.7337 530.334 46.8259C529.62 45.997 532.144 42.7451 527.281 45.6779C527.206 43.9556 527.075 42.5571 526.99 40.965C521.036 45.7898 519.08 44.3496 512.872 40.8661C516.891 44.1168 513.305 42.0026 512.281 43.7444C511.58 44.9444 514.317 44.7671 514.008 46.0239C513.698 47.2719 510.14 52.3114 513.182 52.9175C520.639 42.5879 522.671 54.9378 532.251 49.9733C530.776 51.3052 529.291 52.6402 527.816 53.9721C528.511 54.8749 529.132 55.6939 529.883 56.6527C524.54 54.6318 527.139 55.9447 524.943 57.537C522.746 59.1298 518.752 60.4829 516.075 60.9206C515.232 61.0582 516.121 58.7414 514.218 58.5257C512.922 58.3767 509.38 61.8113 508.562 57.7622C508.027 55.1265 513.717 47.8687 505.85 47.886C504.369 45.302 508.141 46.1046 508.222 45.7932C508.908 42.7195 504.071 40.4084 501.836 42.7556C501.655 42.9581 503.42 45.3533 501.501 46.2931C496.945 48.5378 494.315 45.7909 491.366 42.0745C491.046 46.4336 487.213 51.6396 482.442 50.0282C482.198 51.2757 481.965 52.5341 481.721 53.7909C482.462 53.1306 483.203 52.4792 483.943 51.8189C484.751 52.6013 485.607 53.1708 486.396 54.093C481.598 55.1649 480.919 61.1725 478.618 63.3705C470.745 70.8789 475.517 54.996 476.937 52.2583C477.96 53.3667 478.95 54.604 479.965 55.7683C479.852 54.2501 479.738 52.7203 479.634 51.1927C467.848 51.2391 477.839 41.3373 471.857 38.5151C470.316 45.9847 465.923 46.7047 460.325 41.9647C459.706 42.0019 459.084 42.0115 458.464 42.058C458.361 43.1471 458.362 44.8119 458.193 45.5295C451.45 46.7963 450.249 35.293 449.61 34.2032C446.774 29.3699 444.565 36.0574 443.729 36.1147C440.208 36.3476 439.184 33.3782 435.832 34.6536C432.226 36.0318 434.691 38.3103 433.594 40.3498C432.714 41.9694 429.87 42.2578 428.695 43.9366C429.162 42.5636 429.681 41.2171 430.146 39.8389C426.409 37.9671 423.355 36.1426 419.11 35.6863C414.321 45.7328 410.246 28.7856 411.898 42.5304C415.918 43.4712 418.166 45.0375 420.316 48.5397C417.678 48.9866 415.037 49.4219 412.399 49.8689C411.629 48.3604 411.082 46.8902 410.172 45.3538C408.2 48.5573 403.628 47.1826 401.833 48.1222C393.428 52.5278 396.028 57.992 388.355 48.8088C393.886 47.914 393.877 43.4538 399.361 44.0684C398.178 40.883 395.391 41.543 397.194 37.7242C391.888 38.6648 393.603 42.0743 391.538 45.1011C389.757 47.7105 386.171 47.8566 386.373 51.2476C386.007 49.3832 385.723 47.5783 385.357 45.7163C381.921 45.7349 378.484 45.7361 375.047 45.7548C376.512 43.8084 377.977 41.8584 379.442 39.9213C378.335 39.1862 377.226 38.4538 376.118 37.7187C367.666 43.7729 353.09 32.6771 355.418 47.886C351.343 48.3703 350.833 46.4628 348.617 43.5851C348.373 44.7397 348.135 45.7001 347.891 46.9852C345.262 45.7765 343.244 50.1114 340.924 48.9846C338.605 47.8664 338.029 43.7718 337.691 50.6544C336.188 48.6802 334.695 47.0401 333.202 45.2055C332.301 46.7691 331.401 48.3146 330.509 49.8689C329.1 49.0494 327.689 48.2332 326.28 47.4136C325.527 50.699 319.988 49.2829 317.546 51.4893C315.228 47.9478 315.292 36.7971 309.839 38.7953C309.98 41.5609 310.118 44.3184 310.259 47.084C309.01 46.5067 307.759 45.9311 306.501 45.3538C306.426 44.4511 306.36 43.5484 306.285 42.6458C306.924 42.9251 307.554 43.203 308.192 43.4917C307.638 41.9641 307.095 40.4437 306.551 38.9161C304.644 41.1791 302.736 43.4423 300.82 45.7053C303.402 47.4187 305.985 49.1333 308.568 50.8467C305.327 52.8772 303.072 50.8519 300.255 53.1152C297.804 49.297 298.709 47.0969 299.704 42.9534C298.793 43.3072 297.872 43.6487 296.961 44.0025C297.562 39.8584 296.022 37.3892 301.346 37.7242C300.98 36.5422 300.606 35.4152 300.25 34.1867C299.376 34.373 298.81 33.3739 297.852 33.8297C295.241 35.0778 293.24 42.3567 293.418 44.9089C293.514 46.2457 296.089 43.6891 295.985 45.579C295.731 50.1877 289.825 48.1185 298.343 52.7472C295.516 55.6812 294.884 53.4685 291.766 52.6209C292.01 54.1566 292.247 55.6827 292.482 57.2184C291.036 56.5108 289.589 55.8058 288.143 55.0982C290.153 47.2093 279.493 44.2463 289.089 37.3451C286.253 36.9913 283.427 36.6355 280.6 36.263C281.183 35.4529 281.765 34.6509 282.347 33.8407C283.624 34.2691 284.894 34.6904 286.171 35.1095C284.669 33.629 283.164 32.1573 281.661 30.6768C278.111 32.5117 276.72 35.3338 275.095 38.8172C279.226 41.3593 277.877 37.8869 281.096 37.1968C280.983 39.4029 281.132 41.4321 280.851 43.7499C279.187 39.1803 273.761 42.5047 272.503 42.7282C268.673 43.4069 271.676 38.9171 269.114 38.8227C266.55 38.7296 263.526 41.4019 261.432 36.9497C261.469 39.4451 261.637 42.027 261.787 44.2991C257.796 45.1188 258.592 42.1708 258.179 41.7889C251.586 35.5113 248.008 40.8111 240.466 41.4538C241.424 42.2268 242.392 42.9246 243.359 43.651C237.67 48.9493 241.502 47.327 246.442 49.078C241.812 48.547 239.16 53.0593 235.892 54.4006C232.624 55.7395 227.019 53.4221 224.971 51.6157C229.658 48.7096 234.713 50.626 239.916 49.825C239.324 47.2829 238.749 45.1314 238.139 42.3382C234.974 47.6737 233.141 44.1061 232.098 43.3983C229.037 41.3222 229.133 45.9017 227.284 40.9759C227.359 42.6705 227.414 44.0952 227.489 45.6779C221.168 44.97 214.351 41.9743 210.237 48.2321C209.861 44.1621 209.578 40.241 209.146 36.0873C206.469 39.151 204.178 36.0136 201.924 36.7299C199.679 37.4471 200.534 40.7363 197.895 42.0031C197.406 42.236 196.389 40.1773 195.187 41.6955C193.973 43.2218 189.497 54.57 188.961 44.6562C186.698 44.6096 184.556 44.2471 182.34 44.0794C184.5 43.5206 186.66 42.9794 188.811 42.4206C186.97 40.0178 185.141 37.6222 183.301 35.2194C183.066 37.3617 182.83 39.5427 182.605 41.6571C177.646 44.265 174.048 40.7624 169.042 41.5911C168.206 41.7309 170.178 45.9664 166.469 44.8869C162.76 43.8065 160.007 35.9011 153.687 38.9546C153.367 39.1129 151.496 45.1674 149.232 40.9759C148.717 40.026 150.885 38.6203 149.703 37.3726C148.52 36.1245 143.24 35.0982 142.826 32.1269C142.883 33.1791 143.212 34.2694 143.372 35.3402C142.47 35.8431 141.56 36.3463 140.649 36.8398C140.565 34.9865 140.473 33.1305 140.389 31.2865C135.205 35.5988 132.526 42.6334 124.844 40.3058C127.004 42.9974 129.164 45.6998 131.315 48.3913C131.907 46.5005 132.499 44.597 133.082 42.7062C136.622 43.4605 140.172 44.2095 143.712 44.9638C144.294 42.8122 144.866 40.6667 145.449 38.5151C146.388 38.7945 147.318 39.0652 148.257 39.3446C148.022 40.8999 147.785 42.4471 147.541 44.0025C149.4 43.6207 151.262 43.2308 153.111 42.849C149.345 52.0301 142.595 42.0681 143.081 49.7481C142.246 48.5565 141.409 47.3566 140.574 46.1557C140.208 49.8797 138.509 48.8079 135.514 48.2211C136.2 50.056 136.957 51.8659 137.586 53.7195C134.675 51.1304 129.51 51.3818 126.495 50.3853C125.171 49.9476 126.494 47.2476 126.1 46.9302C124.081 45.2723 120.221 49.9833 119.413 49.6108C114.586 47.3936 111.449 38.4621 106.181 44.3486C111.619 45.8016 108.66 45.1879 110.595 48.4573C111.201 49.4823 118.226 51.6206 109.429 50.6709C108.397 50.5521 92.4353 44.3811 97.6823 39.6522C95.0995 41.1611 93.0773 42.9058 90.7105 44.5079C84.925 32.0453 86.9273 43.753 88.6084 50.1985C87.6599 50.2264 86.7575 50.2919 85.7807 50.2919C87.8563 43.5204 77.2817 43.0999 73.6939 46.5183C72.4919 47.6546 75.8531 49.8221 73.0733 50.8467C71.7496 50.3718 70.2479 49.7569 68.8492 49.2263C70.8777 53.5105 66.8966 55.1616 66.9524 59.5199C64.4074 55.6362 62.4607 47.4043 63.8593 42.9424C61.756 44.749 59.6416 46.5534 57.5382 48.3694C58.5149 49.4032 59.5043 50.428 60.4811 51.4619C53.6061 48.7235 44.7663 54.9547 43.3294 45.7987C42.4184 45.8639 41.4977 45.9203 40.5867 45.9855C40.3049 47.5316 40.0326 49.0808 39.7509 50.627C35.6288 49.286 31.5159 47.9361 27.3938 46.5952C31.0642 45.6356 31.9379 43.4349 35.787 45.2219C34.3037 43.4437 32.7928 41.6556 31.3377 39.8774C25.5429 44.6648 24.7524 47.8113 16.0278 46.3864C15.6333 46.3212 9.04114 42.3064 8.81574 41.9152C7.78305 40.127 9.35064 37.5292 8.89081 36.6256C7.6135 34.0921 -0.148119 27.7307 0.0021531 26.7713C1.89936 14.998 28.0135 14.842 35.0763 14.2365C108.333 7.95904 179.977 16.3576 252.773 14.9232C253.522 14.901 253.195 13.163 253.514 13.0885C255.495 12.652 257.441 15.3607 258.174 15.4724C259.739 15.7028 258.877 13.2002 260.02 13.1984C271.835 13.2263 282.985 14.6979 294.809 14.2695C295.579 14.2416 294.793 16.2439 296.146 15.8899C296.844 15.6961 299.029 12.6242 300.605 12.5777C306.108 12.4194 310.731 13.4043 316.535 13.3577C319.71 13.3299 324.472 13.591 328.022 13.5444C329.589 13.5247 331.222 12.1193 332.771 12.0723C334.969 12.0071 334.52 14.856 334.858 15.033C336.342 15.8059 336.548 12.6791 337.956 12.7535C340.577 12.9025 340.718 14.9902 344.042 14.8133C346.418 14.6829 351.857 13.0346 354.853 12.5502C361.859 14.9717 370.688 14.0104 377.225 13.2094C381.094 12.7345 381.452 15.6575 383.03 15.6482C388.589 15.5916 392.808 11.8584 398.03 11.7373C404.959 11.5795 411.1 14.0481 417.814 14.2256C418.903 14.2535 418.653 11.5753 419.721 11.5066C423.675 11.2551 428.731 10.7677 432.253 11.1495C436.178 11.5692 437.626 15.4566 441.467 14.665C442.593 14.4299 442.923 11.0214 444.81 10.5838C447.825 9.8956 451.13 12.9014 453.234 13.2368C456.117 13.6839 453.609 10.2114 457.498 10.6772C457.658 10.6973 458.239 13.1795 459.074 13.0611C461.507 12.7258 461.265 10.771 464.825 10.9573C465.166 10.983 469.886 13.3482 470.355 13.3577C473.116 13.3949 478.675 14.223 480.31 13.7202C486.152 11.9319 481.553 8.19841 486.521 16.3019C488.709 14.3185 490.878 12.3081 493.197 10.3805C491.65 12.1782 497.931 14.7722 498.373 14.6046C502.024 13.2537 499.849 10.1007 504.478 10.6222C498.364 17.906 510.451 11.561 513.147 11.3748C526.126 10.4715 537.924 12.2892 550.969 12.2426C555.336 12.2235 561.188 10.6838 565.808 10.7211C566.885 10.7233 566.071 12.4471 567.019 12.4843C567.965 12.5099 566.916 10.5748 567.995 10.6772C574.71 11.348 579.971 14.9993 586.123 10.4355C586.422 11.0953 586.413 11.6167 586.909 12.3415C591.943 8.2529 601.638 13.7513 605.282 14.5057C610.981 15.6786 612.437 12.915 616.578 13.473C622.053 14.2182 630.274 19.6172 626.602 10.7046C630.358 10.4253 633.975 10.3482 637.768 11.177C638.191 11.271 637.9 13.5363 638.069 13.5829C639.139 13.9081 639.488 11.8798 640.211 11.7867C642.171 11.5362 638.972 13.9648 641.767 13.2863C643.242 12.923 644.079 11.154 648.173 11.1166C672.855 10.921 699.651 11.5546 724.953 11.8526C726.691 11.8713 725.547 9.68055 727.726 9.82026C735.296 10.3051 748.846 13.9919 755.373 13.4895C761.9 12.9866 760.427 9.78297 764.512 8.44155C765.301 8.18075 764.654 10.0065 765.368 10.0345C770.167 10.2023 775.888 13.0501 779.777 13.4785C782.348 13.7656 782.142 10.8933 783.926 10.6881C786.584 10.3901 789.319 13.292 790.737 13.3851C797.404 13.7943 801.988 11.457 808.214 12.6491C807.971 12.017 807.81 11.4318 807.604 10.809C814.975 10.9114 822.339 11.0141 829.71 11.1166C829.363 10.5391 829.027 9.95665 828.679 9.36985C837.329 9.68677 836.342 15.9457 835.581 2.72894C836.21 2.26333 836.877 1.72362 837.478 1.29529C837.234 8.10361 842.466 13.086 849.124 14.8188C849.612 14.9492 852.889 8.3109 852.532 16.1536C853.387 14.2349 853.896 12.9123 854.62 11.2264C856.028 13.6009 857.455 15.9472 858.864 18.3123C859.624 17.9584 860.396 17.617 861.156 17.2631C861.269 15.7263 861.182 14.1306 861.426 12.6216C864.957 12.3888 872.199 14.2887 874.989 14.0937C881.921 13.6001 888.977 9.44493 894.368 13.9344C896.994 13.4767 894.386 10.4603 898.292 10.8419C898.733 12.3691 899.148 13.8329 899.608 15.4065C902.8 8.58311 903.467 12.734 907.841 14.1596C910.799 15.1282 912.737 13.4606 915.554 13.7861C916.268 13.87 916.166 15.8727 916.655 15.8075C918.29 15.601 922.957 12.8444 924.112 12.7699C934.574 12.0436 943.562 12.3528 953.526 13.0885C954.597 13.163 953.208 11.1866 954.317 11.2704C956.099 11.402 955.05 14.4391 956.083 14.5881C958.964 14.9866 958.986 11.7841 963.005 11.6164C976.238 11.0673 991.452 13.473 1005.28 13.6873C1005.71 13.6873 1005.68 11.8108 1006.15 11.7922C1009.21 11.7005 1012.31 14.2369 1015.09 14.2091C1019.7 14.1718 1023.17 11.5357 1027.72 11.545C1036.63 11.5543 1044.58 12.9041 1053.74 12.9787C1061.23 13.0439 1067.74 12.7936 1075.96 12.8029C1111.86 12.8402 1148.49 6.88409 1184.63 10.051C1185.55 10.1347 1185.17 11.7926 1185.45 11.7208C1188.12 11.0036 1188.36 8.76671 1189.31 13.4511C1192.7 12.5279 1193.78 9.00856 1197.88 9.25999C1200.07 9.3918 1198.43 14.8464 1202.13 12.0339C1205.47 9.49133 1201.79 6.50196 1211.72 9.5566C1211.99 9.64057 1213.28 12.9654 1215.35 12.0998C1217.42 11.2429 1215.02 8.86213 1220.02 8.14493C1231.75 6.46854 1246.59 9.34253 1260.23 8.45803C1261.08 8.40214 1269.32 6.62462 1270.94 5.80496C1274.08 4.21228 1273.43 1.74153 1277.51 1.136C1280.67 0.670284 1283.27 3.46906 1286.98 2.9102C1287.41 2.84228 1288.14 -0.0365976 1290.92 0.345024ZM599.551 56.2627C598.781 59.0873 597.391 69.4841 592.734 66.3201C592.293 66.0221 594.676 58.8723 592.104 57.7348C594.621 56.9803 597.072 56.736 599.551 56.2517C599.551 56.2553 599.551 56.259 599.551 56.2627ZM1311.11 66.6387C1307.62 66.1171 1304.13 65.6004 1300.64 65.0788C1303.05 63.8213 1305.46 62.5664 1307.85 61.2996C1308.94 63.0783 1310.02 64.86 1311.11 66.6387ZM877.357 61.7006C877.36 61.7006 877.363 61.7006 877.367 61.7006C873.704 63.0419 870.039 64.3857 866.376 65.7269C866.761 64.7396 867.147 63.7481 867.532 62.7608C870.424 61.2056 873.318 59.6525 876.201 58.0973C876.586 59.2985 876.972 60.4994 877.357 61.7006ZM906.295 51.2476C908.633 52.4213 908.061 54.4005 909.348 56.3286C909.348 56.3249 909.348 56.3213 909.348 56.3176C909.687 56.8195 911.269 57.2587 911.88 57.3338C911.655 56.095 911.364 54.872 911.12 53.6426C916.576 50.6433 927.247 61.3012 913.432 65.5951C913.638 64.0306 913.836 62.4741 914.042 60.9096C907.177 61.3474 899.523 57.9539 906.295 51.2476ZM544.347 60.7668C538.487 65.8897 536.608 66.9698 529.498 63.4583C530.502 62.0063 531.507 60.5545 532.511 59.1025C533.685 60.5835 534.85 62.0543 536.024 63.5352C536.028 63.5352 536.031 63.5352 536.034 63.5352C536.269 61.9798 536.504 60.4217 536.73 58.8663C539.265 59.4996 541.812 60.1335 544.347 60.7668ZM1130.63 54.9499C1132.27 65.1813 1131.8 59.2342 1127.13 61.5413C1125.51 62.3424 1127.09 64.1325 1126.08 64.4306C1120.66 66.0586 1120.22 59.2036 1121.43 55.6365C1124.51 55.3943 1127.61 55.1734 1130.62 54.9499C1130.63 54.9499 1130.63 54.9499 1130.63 54.9499ZM1271.44 52.8241C1271.44 52.8241 1271.44 52.8241 1271.45 52.8241C1271.59 55.3197 1269.4 55.991 1271.87 58.3555C1269.99 58.3461 1268.11 58.3263 1266.23 58.317C1266.78 58.0845 1267.34 57.8629 1267.9 57.6304C1267.41 56.7735 1266.92 55.9056 1266.43 55.0487C1265.76 57.9173 1265.14 56.2498 1263.17 55.2904C1263.72 58.3547 1264.26 61.4212 1264.8 64.4855C1262.51 63.5729 1260.21 62.6572 1257.92 61.7446C1257.89 60.9723 1257.87 60.1988 1257.84 59.4266C1256.97 60.4135 1256.12 61.4113 1255.25 62.3982C1255.02 61.4763 1254.79 60.5627 1254.56 59.6408C1253.52 60.3391 1252.47 61.0369 1251.43 61.7446C1251.11 59.5113 1253.41 58.5461 1249.34 59.1135C1250.59 56.8225 1251.83 54.5384 1253.09 52.2474C1259.21 52.4336 1265.32 52.6285 1271.44 52.8241ZM1088.19 58.0973C1094.92 57.6689 1093.02 59.2874 1091.47 64.3537C1090.38 62.2679 1089.28 60.183 1088.19 58.0973ZM741.259 53.5876C739.305 57.0432 737.344 60.4644 735.343 63.7989C731.361 65.727 727.378 59.4286 730.373 56.9603C733.98 53.9986 737.747 57.3133 741.259 53.5876ZM650.561 55.1256C655.433 56.728 650.849 60.8341 649.75 63.2276C648.402 59.3808 646.523 59.7201 643.504 59.2728C646.338 59.0234 649.755 54.8536 650.561 55.1146C650.561 55.1183 650.561 55.122 650.561 55.1256ZM819.665 57.4711C821.618 57.3677 823.56 56.4027 825.306 57.5755C824.779 60.8798 821.287 57.8735 823.784 62.7717C822.536 62.8555 821.285 62.9368 820.046 63.0299C820.834 61.0005 819.774 59.4837 819.67 57.4821C819.669 57.4784 819.667 57.4748 819.665 57.4711ZM1022.94 61.9917C1019.11 58.0797 1018.39 59.7537 1014.53 62.4641C1013.98 59.279 1018.58 53.9437 1021.47 52.7692C1021.96 55.8427 1022.45 58.9183 1022.94 61.9917ZM116.576 60.3604C117.496 56.3004 124.284 55.771 127.656 56.9712C127.255 57.5734 126.852 58.1836 126.45 58.7949C123.163 59.3165 119.863 59.8388 116.576 60.3604ZM642.067 58.9981C642.573 59.117 643.052 59.2058 643.504 59.2728C643.001 59.317 642.516 59.2478 642.067 58.9981ZM438.049 41.3769C439.654 37.5492 434.882 36.2632 440.676 37.7626C440.676 37.7589 440.676 37.7553 440.676 37.7516C444.508 38.7389 445.354 39.0026 448.904 39.3006C447.626 44.2178 440.424 45.9755 450.351 46.9907C450.482 46.9952 450.221 44.0692 451.807 44.4694C452.297 44.5939 453.863 46.9952 456.247 47.6937C457.017 47.9173 462.804 48.6578 454.915 48.7044C455.15 52.1321 454.726 55.6015 454.745 58.9267C451.666 59.8931 449.299 53.1813 446.042 53.3459C441.205 53.6067 438.743 60.3938 437.814 51.4893C441.881 49.3016 448.864 49.249 449.775 54.6038C453.71 54.669 454.84 50.2818 451.667 48.1112C438.077 50.8682 447.936 41.599 436.037 45.1011C435.896 46.3395 435.407 47.6723 435.481 48.8363C431.849 44.4782 437.476 42.746 438.049 41.3769ZM466.466 50.8467C464.118 53.464 461.778 56.1023 459.44 58.729C459.44 54.4631 460.729 50.6351 464.429 48.2321C465.105 49.1069 465.791 49.9811 466.466 50.8467ZM268.954 51.9672C268.616 54.2864 267.715 56.4117 267.057 58.6191C266.344 56.6632 249.438 54.7867 258.038 52.8681C259.288 52.5886 266.907 56.6896 268.954 51.9672ZM1049.55 58.4983C1047.56 56.9428 1045.58 55.3848 1043.59 53.8293C1046.64 52.8426 1049.7 51.83 1052.75 50.8247C1051.68 53.3819 1050.62 55.941 1049.55 58.4983ZM708.847 49.5174C709.689 49.6045 706.895 52.794 710.209 52.2913C707.739 54.3311 705.426 56.0577 703.012 57.9764C702.289 56.4675 701.558 54.9647 700.835 53.4558C700.271 54.4245 699.697 55.3873 699.133 56.356C699.471 54.1579 699.772 52.011 700.129 49.7756C704.196 54.4886 705.128 49.1448 708.847 49.5174ZM829.77 40.921C830.502 45.6983 824.613 48.5393 830.406 49.3032C829.307 52.4419 827.54 54.0882 824.15 54.3676C823.606 53.1673 823.063 51.9756 822.518 50.7753C822.443 53.9874 821.571 55.1813 819.665 57.4711C819.664 57.4674 819.662 57.4638 819.66 57.4601C814.506 57.6927 814.814 56.6217 813.575 51.341C819.031 54.3216 819.195 49.4969 822.914 46.6281C825.468 44.6554 828.803 45.5488 829.77 40.921ZM286.967 51.9123C283.108 55.945 286.571 59.7065 279.725 55.4222C280.166 54.3977 280.609 53.3818 281.051 52.3572C283.023 52.1989 284.995 52.052 286.967 51.9123ZM848.814 57.2953C848.372 49.9002 844.739 44.1437 844.119 56.1748C847.66 58.6244 845.931 51.8095 848.814 57.2953ZM652.222 43.5466C659.031 43.8917 657.744 52.2383 654.945 56.411C654.513 54.8927 654.081 53.3718 653.659 51.8629C652.466 52.5521 651.273 53.2427 650.08 53.9227C650.794 50.4671 651.509 47.0022 652.222 43.5466ZM968.846 49.1713C963.643 54.4526 974.462 52.1085 970.828 55.4058C967.926 58.0414 964.101 52.72 965.548 49.3856C966.552 49.2924 967.671 49.2272 968.836 49.1713C968.839 49.1713 968.842 49.1713 968.846 49.1713ZM938.736 50.6819C939.591 56.3245 938.359 54.6798 942.47 53.6645C943.644 53.3758 952.973 55.495 949.057 50.8192C945.723 50.8192 942.201 50.7378 938.736 50.6819ZM573.521 51.8024C573.458 49.3452 580.642 43.9495 581.564 45.2988C581.564 45.2952 581.564 45.2915 581.564 45.2879C584.052 48.967 576.475 49.4897 579.762 54.5379C572.483 50.0958 570.306 60.8405 570.813 46.6831C575.101 46.062 573.071 48.9804 573.521 51.8024ZM27.4489 48.7923C27.4455 48.7923 27.4422 48.7923 27.4389 48.7923C27.9213 48.9079 31.8961 52.5142 31.4127 53.7634C26.6328 52.6924 27.4846 50.3185 23.0346 54.2193C22.7906 52.9629 22.5816 51.7443 22.3189 50.4786C24.0846 49.7335 25.0633 48.2242 27.4489 48.7923ZM250.676 47.0126C252.433 46.3699 255.638 49.0331 257.638 48.8747C251.27 59.1017 243.661 49.565 250.676 47.0126ZM1205.58 53.1757C1205.58 53.1793 1205.57 53.183 1205.57 53.1866C1205.57 53.1811 1205.57 53.1757 1205.57 53.1702C1205.57 53.172 1205.58 53.1738 1205.58 53.1757ZM386.774 53.1482C386.547 52.4843 386.419 51.9076 386.373 51.4015C386.373 51.3538 386.373 51.3062 386.373 51.2586C386.496 51.8802 386.626 52.5089 386.774 53.1482ZM558.591 52.544C555.599 49.117 565.568 43.6688 568.791 44.9693C568.566 46.5334 568.531 47.9515 568.005 49.7481C565.404 45.6976 559.089 53.1214 558.591 52.544ZM785.863 51.2861C777.983 51.193 788.238 37.662 788.66 48.4573C788.644 48.6664 786.066 51.2677 785.863 51.2861ZM620.732 51.1268C622.739 47.0302 618.705 45.9423 625.156 46.6501C625.531 47.7112 625.907 48.7749 626.282 49.836C624.432 50.2643 622.581 50.6985 620.732 51.1268ZM734.242 33.5221C724.325 35.804 714.84 39.8297 721.3 51.1268C722.05 50.7639 722.811 50.4131 723.562 50.0502C723.675 44.5386 726.444 47.5472 730.499 47.7267C731.077 45.5386 733.325 45.0326 733.747 43.1731C734.563 39.5787 731.979 37.0516 734.242 33.5221ZM1152.95 42.492C1152.79 43.4327 1152.63 44.3784 1152.47 45.3098C1150.9 46.3717 1149.33 47.4284 1147.76 48.4902C1148.01 46.6848 1148.27 44.8796 1148.52 43.0742C1149.99 42.8787 1151.46 42.682 1152.94 42.4865C1152.94 42.4883 1152.94 42.4902 1152.95 42.492ZM476.131 39.2182C475.23 49.5729 478.378 47.6658 484.764 42.4316C481.89 41.3604 479.005 40.2893 476.131 39.2182ZM893.607 37.7187C893.814 40.6604 894.017 43.593 894.233 46.5347C897.623 43.4703 896.994 40.1015 895.369 36.2081C894.778 36.7106 894.199 37.2162 893.607 37.7187ZM942.445 36.4663C941.039 35.8526 941.756 38.2277 941.609 38.1801C938.05 36.9319 937.548 35.8424 933.181 37.6308C932.646 38.2547 932.12 38.9108 931.584 39.5533C933.604 45.7174 935.069 42.3578 939.342 45.98C938.572 43.8656 937.805 41.7484 937.035 39.6247C939.41 40.0717 941.776 40.5125 944.152 40.9595C944.433 40.3075 944.716 39.6615 944.998 39.0095C944.153 38.1715 943.281 37.2297 942.445 36.4663ZM1171.08 45.167C1173.39 45.4092 1175.71 45.6609 1178.02 45.9031C1178.11 44.385 1178.19 42.8566 1178.27 41.3385C1175.88 42.6142 1173.48 43.8913 1171.08 45.167ZM428.695 43.9366C428.512 44.4751 428.333 45.017 428.174 45.568C428.19 44.8964 428.39 44.3722 428.695 43.9366ZM21.3529 40.4651C18.733 39.4035 14.9577 40.1005 12.0839 39.8774C12.3098 43.6859 19.6139 42.6331 22.1788 44.9418C22.5909 44.2584 22.4604 40.9119 21.3529 40.4651ZM661.642 43.8817C662.299 41.9818 662.955 40.0909 663.603 38.191C665.191 38.396 666.782 38.6123 668.378 38.8172C668.425 37.2617 668.471 35.6928 668.518 34.1373C661.485 36.1581 663.106 31.6727 659.625 27.2492C660.301 32.7902 660.965 38.3314 661.642 43.8817ZM1244.59 35.3018C1239.51 36.3543 1237.71 38.3201 1240.58 42.9863C1242.37 41.9156 1244.17 40.8438 1245.97 39.773C1245.51 38.2831 1245.05 36.7917 1244.59 35.3018ZM336.16 40.4212C331.908 42.1647 331.837 35.9023 327.681 39.3995C329.907 40.5542 332.132 41.7218 334.348 42.8765C334.946 42.06 335.561 41.2377 336.16 40.4212ZM544.693 23.2229C542.899 21.0444 539.545 31.4002 534.503 23.7557C533.301 26.0373 532.548 28.2166 531.515 30.4516C530.914 28.0205 530.231 25.5584 529.658 23.146C529.655 23.146 529.651 23.146 529.648 23.146C525.074 23.9657 528.039 27.0146 527.936 29.5947C527.888 30.6642 524.493 28.8763 525.554 31.2041C527.386 35.1999 534.229 32.9022 534.247 37.7736C531.843 36.1815 527.148 37.5119 528.537 40.7617C530.058 44.3288 534.483 38.3508 537.3 41.311C533.263 33.5252 541.602 35.9301 542.551 41.9097C547.444 37.3179 542.946 35.4447 537.931 35.6588C540.993 31.0763 536.486 33.5521 535.744 29.743C538.901 27.4436 549.736 29.3603 544.693 23.2229ZM775.548 31.6655C772.166 31.961 766.882 29.3417 764.567 33.209C763.218 35.4622 768.514 37.2069 764.862 40.7452C768.157 40.4003 768.909 39.0181 768.346 35.917C769.097 35.5446 769.857 35.1815 770.608 34.8184C770.955 35.4235 771.311 36.0205 771.659 36.6256C772.053 35.3497 772.45 34.0839 772.835 32.808C773.632 33.0593 774.44 33.3109 775.237 33.5715C775.331 32.93 775.491 32.3716 775.548 31.6655ZM214.076 40.6134C215.015 40.5762 215.944 40.5391 216.883 40.4926C216.78 39.7373 216.657 38.9508 216.538 38.1746C216.453 37.5612 216.368 36.9478 216.283 36.3345C216.827 38.5259 221.3 42.1682 223.185 39.8279C224.132 38.6539 221.976 34.4858 225.992 33.7583C223.082 33.9726 220.385 34.5415 217.559 34.8953C217.813 33.6565 218.056 32.4044 218.31 31.1656C218.308 31.1638 218.306 31.162 218.305 31.1601C217.366 30.8808 216.416 30.5881 215.477 30.3087C215.007 33.7457 214.545 37.1764 214.076 40.6134ZM890.855 31.9017C887.652 34.3327 886.58 35.5952 888.092 39.5258C888.095 39.5277 888.099 39.5295 888.102 39.5313C889.295 37.7899 890.488 36.049 891.681 34.3076C891.408 33.5065 891.137 32.7027 890.855 31.9017ZM401.108 30.9624C394.299 45.8928 409.633 36.7402 406.713 31.6545C406.582 31.4216 401.746 32.611 401.108 30.9624ZM650.971 38.9546C652.84 38.8335 654.713 38.7241 656.592 38.603C656.16 36.7681 655.717 34.9396 655.285 33.1046C653.848 35.0513 652.408 37.0079 650.971 38.9546ZM1222.47 28.5236C1220.51 24.4252 1215.46 22.9404 1212.99 27.3975C1214.28 27.9191 1215.58 28.4414 1216.88 28.963C1214.43 29.4751 1212 30.0388 1209.54 30.523C1209.4 36.2327 1212.25 32.9202 1216.53 34.4943C1217.19 34.7482 1221.43 41.8355 1222.9 36.4937C1223.19 35.3958 1218.68 34.6492 1221.82 31.4568C1220.45 31.2055 1219.26 31.2612 1217.97 31.1217C1217.87 29.7618 1217.78 28.4004 1217.68 27.0405C1219.28 27.5329 1220.87 28.0312 1222.47 28.5236ZM755.858 32.1104C751.213 31.7953 750.639 34.0767 749.672 38.1087C751.832 37.6523 753.993 37.2028 756.154 36.7464C756.051 35.2043 755.961 33.6618 755.858 32.1104ZM1180.95 27.2163C1178.41 26.5568 1179.5 29.8386 1178.47 30.4625C1174.61 32.8094 1171.97 30.4638 1168.14 31.9346C1168.4 31.3013 1168.63 30.7093 1168.88 30.0945C1168.87 30.0945 1168.87 30.0945 1168.87 30.0945C1150.77 27.3285 1160.27 34.7714 1171.1 33.5605C1171.36 34.7807 1171.6 36.0025 1171.85 37.2133C1176.7 35.0804 1181.17 33.0281 1180.95 27.2163ZM461.602 30.4516C461.395 29.6878 463.151 24.8341 459.855 27.1064C457.245 34.193 461.526 30.6756 462.598 33.4012C461.705 34.0812 460.793 34.7427 459.91 35.4226C465.245 37.4252 466.023 35.7402 464.079 30.5614C463.94 30.2134 461.809 31.2129 461.602 30.4516ZM426.543 26.9581C425.81 37.3994 432.542 32.7042 432.298 29.4628C431.369 29.3336 430.646 31.1015 429.661 30.3197C428.665 29.5375 428.411 27.0985 426.543 26.9581ZM619.425 29.5123C619.228 29.4657 617.247 25.0773 617.443 28.5126C619.895 36.644 624.834 31.41 623.97 28.5785C622.336 28.7185 621.247 29.9387 619.425 29.5013C619.425 29.505 619.425 29.5086 619.425 29.5123ZM1253.11 26.0627C1253.02 25.7714 1248.08 24.0076 1247.44 25.6453C1246.91 27.4892 1246.65 29.4653 1246.26 31.3744C1248.98 29.6046 1254.49 30.9528 1253.1 26.0627C1253.11 26.0627 1253.11 26.0627 1253.11 26.0627Z" fill="#343434"/>
</svg>
