<svg width="67" height="102" viewBox="0 0 67 102" fill="none" xmlns="http://www.w3.org/2000/svg">
<g filter="url(#filter0_d_411_772)">
<path d="M56.1186 78.1894C56.1186 78.0544 55.9182 77.9076 55.8845 77.6536C55.8369 77.3242 55.823 77.0047 55.821 76.6754C55.817 76.1912 55.9996 75.6297 55.3448 75.3796C55.3368 75.3776 55.3448 75.336 55.3448 75.3003C55.5333 75.209 55.9202 75.1733 55.4916 74.8598C55.44 74.8201 55.4757 74.7248 55.5095 74.6514C55.6146 74.4331 55.5511 74.3796 55.311 74.4173C55.1682 74.4391 54.9717 74.4113 54.8685 74.322C54.7396 74.2109 54.9916 74.2248 54.9955 74.1315C54.9955 74.1077 55.0015 74.074 54.9896 74.0621C54.7832 73.8438 54.8308 73.4866 54.5808 73.3021C54.3308 73.1196 54.2971 72.7803 54.0352 72.6056C53.8506 72.4826 53.549 72.4548 53.5808 72.1195C53.5827 72.0996 53.5252 72.0739 53.4974 72.05C52.914 71.5441 52.3247 71.04 51.658 70.6491C51.1639 70.3594 50.7333 69.8991 50.0785 69.9725C50.017 69.9805 49.9833 69.909 49.9436 69.8594C49.7491 69.6114 49.4515 69.4546 49.1836 69.5419C48.9019 69.6332 48.7649 69.1828 48.507 69.4388C48.503 69.405 48.4891 69.3713 48.4931 69.3395C48.5209 69.1649 48.3939 69.159 48.2828 69.155C48.0724 69.149 47.8264 69.1292 47.6736 69.0498C47.376 68.8911 47.3899 69.0637 47.3561 69.3078C47.1914 68.8474 46.9196 68.7482 46.5069 68.8494C46.3541 68.8851 46.0663 68.899 45.9929 68.8375C45.6278 68.52 45.3123 68.6946 44.981 68.8554C44.9393 68.8772 44.8679 68.9328 44.8599 68.8911C44.7905 68.5081 44.4928 68.8633 44.3202 68.7224C44.213 68.6371 44.0821 68.7859 44.1615 68.9427C43.9452 69.0082 44.0523 68.6808 43.8916 68.7423C43.5285 68.8851 43.0761 68.6153 42.7685 68.9923C42.7586 69.0042 42.6931 68.9943 42.6772 68.9744C42.5542 68.8197 42.3955 68.909 42.2585 68.9228C40.9271 69.0717 39.5957 69.2463 38.2622 69.3753C37.911 69.409 37.5896 69.532 37.2522 69.5935C36.9943 69.6411 36.6669 69.53 36.4863 69.7562C36.3038 69.9864 35.8613 69.5102 35.8434 70.032C35.8097 70.0281 35.7581 70.038 35.7462 70.0201C35.6132 69.8376 35.4565 69.9685 35.3057 69.9725C34.9624 69.9844 34.6707 70.1729 34.3393 70.2325C33.6885 70.3475 33.0912 70.6432 32.4543 70.8198C31.9463 70.9627 31.488 71.296 30.9562 71.429C30.7538 71.4786 30.5772 71.6492 30.3788 71.673C30.1783 71.6949 29.9898 71.6433 29.8906 71.8893C29.8529 71.9846 29.7398 71.9885 29.6783 71.8953C29.5057 71.6333 29.2834 71.7306 29.1445 71.8794C28.9937 72.0441 28.8469 72.1096 28.6366 72.0917C28.2377 72.056 27.9619 72.3278 27.702 72.5481C27.5016 72.7168 27.3091 72.5263 27.1206 72.6632C26.7317 72.9469 26.3686 73.2644 25.9578 73.5224C25.5014 73.8061 25.1562 74.2208 24.795 74.6157C24.0172 75.4669 23.2017 76.2884 22.4953 77.2032C22.0369 77.7985 21.652 78.4394 21.2571 79.0763C20.9555 79.5625 20.9436 80.124 20.6578 80.5903C20.6479 80.6042 20.6717 80.636 20.6737 80.6618C20.7134 81.0983 20.6618 81.5467 20.8285 81.9714C20.8781 82.0984 20.8245 82.2452 20.7372 82.3583C20.6817 82.4277 20.642 82.4893 20.6499 82.5905C20.6777 82.9536 20.6896 83.3167 20.7094 83.6798C20.7174 83.8286 20.7789 83.9636 20.8206 84.1044C20.896 84.3624 20.9733 84.0707 21.0626 84.1322C20.9753 84.3187 20.8007 84.5152 20.8186 84.6898C20.9218 85.6621 20.9178 86.6562 21.4218 87.5531C21.8762 88.3666 22.2135 89.2596 23.0548 89.7874C23.0826 89.8052 23.0906 89.8767 23.0866 89.9203C23.0667 90.1505 23.2096 90.2894 23.3683 90.4104C23.6124 90.597 23.8843 90.7517 24.1124 90.9561C24.3724 91.1863 24.6621 91.3688 24.9339 91.5772C25.18 91.7657 25.5471 91.6903 25.7197 91.9939C25.7475 92.0475 25.8011 91.974 25.8427 91.9582C25.9737 91.9026 26.061 91.9602 26.1721 92.0435C26.5273 92.3074 26.8745 92.609 27.2754 92.7796C27.8032 93.0039 28.3707 93.1626 28.9362 93.2658C29.3707 93.3472 29.8073 93.5773 30.2716 93.3908C30.5812 93.7043 30.9978 93.6309 31.3749 93.6865C31.8253 93.75 32.2797 93.7877 32.7301 93.8392C33.2043 93.8908 33.6766 93.9464 34.1489 94C35.3434 94 36.5379 94 37.7324 94C38.1214 93.869 38.5341 93.744 38.9309 93.7896C39.5659 93.8591 40.1612 93.6269 40.7823 93.6507C41.1017 93.6627 41.4152 93.5456 41.7208 93.5436C42.1772 93.5416 42.5939 93.4047 43.0284 93.3372C43.4432 93.2718 43.7983 92.9265 44.2547 93.0793C44.2765 93.0852 44.3182 93.0436 44.344 93.0197C44.5821 92.7916 44.8937 92.7082 45.1913 92.6031C45.8163 92.3828 46.3938 92.0812 46.9493 91.7062C47.1914 91.5415 47.4494 91.1466 47.8661 91.4323C47.9316 91.476 47.9812 91.4006 47.9891 91.3351C48.0089 91.1585 48.1459 91.0831 48.2788 91.0236C48.5764 90.8906 48.8126 90.6684 49.1241 90.5335C49.4733 90.3807 49.8305 90.1168 50.152 89.8668C50.7234 89.4203 51.3901 89.1028 51.9279 88.6306C52.3426 88.2654 52.7117 87.817 53.0152 87.3368C53.2911 86.9003 53.2593 86.2713 53.8308 86.0173C53.8447 86.0093 53.8586 85.9677 53.8526 85.9518C53.7474 85.7375 53.8169 85.6978 54.0312 85.7434C54.1125 85.7613 54.1979 85.67 54.2197 85.5867C54.305 85.2692 54.2118 84.8724 54.6304 84.7096C54.6384 84.7057 54.6443 84.6521 54.6324 84.6402C54.4955 84.4914 54.5987 84.4477 54.7237 84.3763C54.9182 84.2632 55.0868 84.1263 54.8467 83.8862C54.815 83.8544 54.807 83.7334 54.8289 83.7195C55.1463 83.5211 55.0729 83.1619 55.1999 82.8921C55.5055 82.2432 55.6761 81.5586 55.8964 80.886C55.9639 80.6776 56.0155 80.4971 55.7694 80.3383C55.6206 80.245 55.6404 80.0526 55.7773 79.9157C55.8607 79.8343 55.952 79.7629 56.0512 79.6756C55.7119 79.5605 55.6642 79.491 55.8547 79.2331C56.0928 78.9136 56.1226 78.5386 56.1186 78.1894ZM30.6089 90.1644C30.5871 90.2398 30.5315 90.3112 30.4502 90.2894C30.222 90.2279 30.0394 90.343 29.843 90.4164C29.8093 90.4283 29.7497 90.4501 29.7378 90.4362C29.466 90.1247 29.0433 90.3112 28.7159 90.1108C28.4481 89.9481 28.0869 89.9124 27.8032 90.208C27.6583 90.0076 28.0274 89.8529 27.7675 89.6782C27.442 89.46 27.3666 89.8806 27.1444 89.9084C27.0472 89.8092 27.1345 89.7259 27.1464 89.6346C27.1801 89.3508 27.19 89.0889 26.7912 89.0294C26.5293 88.9877 26.4221 88.6067 26.0908 88.6524C26.0828 88.6544 26.0471 88.5651 26.0531 88.5254C26.0709 88.4381 26.1523 88.442 26.2019 88.4758C26.4717 88.6623 26.8031 88.6762 27.0968 88.8111C27.694 89.085 28.2992 89.3707 28.966 89.462C29.1664 89.4897 29.3569 89.2219 29.5672 89.46C29.8192 89.7437 30.2637 89.7318 30.5038 90.0453C30.5335 90.085 30.6308 90.0771 30.6089 90.1644ZM42.7288 90.218C42.7189 90.2676 42.5701 90.2993 42.5701 90.1406C42.5701 90.1168 42.5105 90.0652 42.4986 90.0711C42.1772 90.2199 41.7664 89.9739 41.4906 90.2914C41.3775 90.4223 41.314 90.462 41.2406 90.2696C41.2029 90.1664 41.1097 90.1664 41.0204 90.1862C40.2544 90.3608 39.4627 90.2874 38.6948 90.4243C38.5777 90.4462 38.3773 90.3628 38.3436 90.595C38.3357 90.6565 38.2583 90.6327 38.2166 90.6188C37.7086 90.4422 37.2007 90.5732 36.6887 90.5831C36.3752 90.589 36.0676 90.4759 35.8196 90.7577C35.8057 90.7716 35.77 90.7795 35.7502 90.7736C34.9049 90.4759 34.0258 90.593 33.1587 90.5632C33.0277 90.5593 32.9662 90.5394 32.9682 90.4164C32.9722 90.2834 32.8809 90.2021 32.8293 90.1287C33.4425 90.1287 34.0774 90.214 34.6687 90.0969C35.0001 90.0295 35.2839 90.0116 35.5974 90.0731C35.766 90.1049 35.901 89.8767 36.1172 90.0275C36.2006 90.085 36.2046 89.8727 36.2323 89.7695C36.2839 89.8231 36.3732 89.9183 36.3772 89.9164C36.6808 89.6485 36.9288 90.1108 37.2165 89.9779C37.5499 89.8231 37.9011 89.9799 38.2543 89.9144C38.6452 89.8429 39.046 89.7021 39.431 89.708C39.8457 89.714 40.2564 89.6663 40.6592 89.6267C41.2664 89.5671 41.9133 89.6624 42.4689 89.2834C42.6455 89.1643 42.826 89.1842 42.838 89.4679C42.8419 89.6088 42.8221 89.7279 42.9451 89.8687C43.0661 90.0076 42.7606 90.0592 42.7288 90.218ZM46.6438 88.1087C46.4493 88.2198 46.5386 88.3944 46.5188 88.5373C46.4711 88.8786 46.2687 89.0651 45.9453 89.1306C45.7211 89.1762 45.5246 89.2556 45.4433 89.5116C45.1992 89.3429 45.2766 88.8012 44.7905 89.0433C44.7885 88.8746 44.8897 88.9222 44.9512 88.9004C45.0802 88.8568 45.2766 88.8707 45.1119 88.6286C45.0306 88.5075 45.1139 88.3131 45.225 88.2714C45.6417 88.1146 46.0267 87.8567 46.483 87.8269C46.6775 87.813 46.6696 88.0948 46.6438 88.1087ZM48.2451 83.5469C48.1478 83.6004 48.0407 83.6719 47.9931 83.7632C47.9097 83.9239 47.8323 84.0033 47.6518 83.9021C47.5803 83.8624 47.4851 83.8961 47.4474 83.9536C47.1716 84.3426 46.6716 84.2295 46.3184 84.4755C45.9493 84.7335 45.5227 84.9497 45.0901 85.0668C44.2488 85.293 43.5106 85.8149 42.6237 85.8962C42.1375 85.9399 41.6494 85.9796 41.1612 86.0351C40.6394 86.0927 40.1195 86.1641 39.5996 86.2375C39.4468 86.2574 39.3179 86.5372 39.2583 86.4657C39.0817 86.2534 38.8793 86.3725 38.6968 86.3526C38.2126 86.299 37.7364 86.3963 37.2622 86.4935C37.0935 86.5272 36.9586 86.6661 36.7482 86.5391C36.6133 86.4578 36.5121 86.678 36.3435 86.8209C36.2998 86.5133 36.1589 86.5927 35.9506 86.5848C35.2759 86.561 34.6092 86.6681 33.9365 86.6423C33.8413 86.6403 33.7183 86.557 33.6945 86.7614C33.6766 86.9201 33.5774 86.8784 33.504 86.7713C33.3591 86.561 33.3413 86.557 33.1984 86.7773C33.119 86.8983 32.9841 87.0094 32.9206 86.8546C32.7519 86.436 32.367 86.6066 32.0892 86.5133C31.9384 86.4618 31.7558 86.4399 31.5852 86.4201C31.4661 86.4042 31.3133 86.3209 31.2161 86.4895C31.1447 86.6106 31.0078 86.559 30.9482 86.5173C30.4919 86.1879 29.9601 86.2455 29.4462 86.174C29.2358 86.1443 29.0235 85.9657 28.8032 85.8685C28.4084 85.6958 28.0056 85.5589 27.5651 85.5728C27.5333 85.5728 27.4797 85.5569 27.4678 85.5331C27.2635 85.1105 26.7972 85.2037 26.4618 85.0589C26.2832 84.9835 26.188 84.8466 26.0372 84.7612C25.5987 84.5211 25.1681 84.2473 24.7772 83.9497C24.547 83.7731 24.1244 83.6481 24.1045 83.4516C24.0747 83.1361 23.8644 82.9615 23.7771 82.7075C23.5846 82.1499 23.4795 81.5805 23.7493 81.0288C23.8704 80.7828 23.6719 80.632 23.6838 80.4296C23.6918 80.3125 23.6045 80.1895 23.7156 80.0466C23.8644 80.1875 23.8386 80.4713 24.1323 80.4871C24.2871 80.4951 24.3744 80.5209 24.3704 80.3423C24.3664 80.0942 24.426 79.8938 24.6422 79.7291C24.7752 79.6279 24.803 79.4295 24.8387 79.2549C24.9319 78.7747 25.1701 78.2886 25.5173 78.0346C25.8646 77.7806 26.19 77.4492 26.6146 77.2905C26.8944 77.1853 27.0472 76.9095 27.3031 76.7587C27.444 76.6734 27.4678 76.4273 27.3746 76.1337C27.6286 76.3936 27.7258 76.2547 27.8984 76.1396C28.3191 75.8598 28.8032 75.6773 29.2338 75.4114C29.8708 75.0165 30.605 74.8736 31.2796 74.572C31.6407 74.4093 32.0971 74.3677 32.4999 74.2427C33.3889 73.9629 34.3136 73.8696 35.2104 73.6573C36.0041 73.4708 36.8157 73.4529 37.6074 73.2763C38.0579 73.1771 38.542 73.2406 39.0063 73.2009C39.3595 73.1692 39.7346 73.2406 40.062 73.0263C40.1195 72.9886 40.2187 72.9469 40.2683 72.9727C40.6731 73.1731 41.0779 73.0065 41.4688 72.9529C42.0542 72.8755 42.6395 72.8179 43.2289 72.7862C44.7567 72.7009 46.243 72.8735 47.7192 73.2962C48.6022 73.5501 49.4555 73.826 50.2274 74.328C50.771 74.6812 51.2294 75.1256 51.6719 75.5979C52.0191 75.969 52.1243 76.4928 52.4458 76.8341C52.7315 77.1417 52.5827 77.4214 52.6541 77.7072C52.7335 78.0306 52.4735 78.4354 52.8942 78.6834C52.9756 78.733 52.8922 78.8779 52.8585 78.9632C52.5331 79.7887 52.1104 80.5685 51.6481 81.3205C51.4258 81.6797 51.0072 81.8979 50.6381 82.1281C49.8503 82.6182 49.0586 83.1024 48.2451 83.5469ZM53.4895 82.4754C53.1601 82.9794 53.1323 83.5746 52.9041 84.1044C52.7255 84.5172 52.6362 84.9497 52.2354 85.2494C51.9715 85.4458 51.9676 85.8744 51.656 86.0728C51.6104 86.1026 51.5886 86.2018 51.5469 86.2098C50.7631 86.3328 50.2313 86.9281 49.5666 87.2733C49.2372 87.444 48.9316 87.6345 48.5169 87.5987C48.7431 87.313 48.8165 86.9995 48.6876 86.6602C48.6638 86.5967 48.6737 86.5868 48.7253 86.557C49.1757 86.2891 49.5289 85.8804 50.0686 85.7315C50.2849 85.672 50.4833 85.4299 50.646 85.2533C51.029 84.8406 51.6679 84.6839 51.8445 84.0687C52.3168 83.8921 52.5132 83.41 52.8347 83.0826C53.1422 82.771 53.4498 82.3742 53.6105 81.9218C53.6304 81.8662 53.6661 81.8146 53.7276 81.6975C53.7514 82.0448 53.6105 82.2888 53.4895 82.4754ZM34.385 23.0566C34.2659 23.1915 34.1786 23.3502 33.9802 23.132C33.8691 23.0129 33.7421 23.1101 33.6746 23.2232C33.5853 23.378 33.4365 23.4752 33.3313 23.6082C33.119 23.878 32.7182 24.0249 32.7539 24.4674C32.7599 24.5309 32.6805 24.6003 32.5952 24.5964C32.3233 24.5785 32.3471 24.767 32.3333 24.9456C32.3114 25.2115 32.3154 25.4853 32.0912 25.6976C32.0078 25.779 31.9662 25.9159 31.992 26.0449C32.0356 26.2552 31.9166 26.4298 31.8888 26.6183C31.8431 26.9259 31.5058 27.2196 31.9007 27.6343C31.6646 27.5549 31.488 27.4279 31.5098 27.7136C31.5376 28.0768 31.2697 28.3446 31.1883 28.6839C31.0494 29.2594 30.8173 29.8229 30.6506 30.4063C30.5573 30.7317 30.9463 30.6384 30.849 30.8686C30.8252 30.9281 31.0276 30.8349 31.1248 30.8091C31.1804 30.7952 31.2379 30.7813 31.2935 30.7694C31.0236 30.9678 31.1268 31.3429 30.9006 31.5452C30.7697 31.6643 30.7736 31.7953 30.8649 31.9461C30.972 32.1167 31.1109 32.0909 31.3253 31.9481C31.2379 32.1584 31.1685 32.2556 31.2737 32.4064C31.5435 32.7834 31.615 33.2854 32.0098 33.591C32.0515 33.6228 32.0674 33.7002 32.0793 33.7597C32.1567 34.1188 32.365 34.355 32.7242 34.4383C32.8313 34.4621 32.7976 34.5276 32.7837 34.5713C32.7222 34.734 32.8373 34.8173 32.9186 34.9264C33.5556 35.7856 34.389 36.4384 35.1727 37.1488C35.7442 37.6667 36.4129 38.0417 37.036 38.4783C37.8376 39.0418 38.6531 39.5954 39.5222 40.0597C39.935 40.282 40.3259 40.5479 40.7108 40.8157C41.0938 41.0836 41.568 41.0459 41.9847 41.2602C42.58 41.5658 43.2566 41.7245 43.9134 41.8912C44.6377 42.0757 45.3818 42.1948 46.108 42.3615C46.6418 42.4845 47.2133 42.3396 47.7133 42.6353C47.8006 42.6889 47.9554 42.7167 48.0367 42.673C48.3344 42.5202 48.6578 42.6373 48.9158 42.675C49.5368 42.7623 50.1658 42.8615 50.7869 42.9905C51.1183 43.058 51.5806 43.3298 51.8703 42.8079C51.8981 43.0163 51.9874 43.1869 52.2057 43.1016C52.6243 42.9369 53.047 43.1155 53.4776 43.0361C53.7633 42.9826 54.1899 43.1631 54.4022 43.0004C54.7058 42.7682 54.9559 42.9032 55.2356 42.8734C55.4658 42.8496 55.6742 42.6829 55.9301 42.8139C56.0293 42.8635 56.0591 42.7167 56.1305 42.6829C56.2893 42.6095 56.325 42.2444 56.5254 42.4071C56.6425 42.5024 56.4064 42.7266 56.2833 42.8714C56.2774 42.8794 56.2972 42.9111 56.3091 42.9448C56.5314 42.929 56.6901 42.8159 56.8171 42.6313C57.0989 42.2146 57.2655 41.7305 57.5949 41.3396C57.8826 41.0023 58.0811 40.6054 58.337 40.2443C58.726 39.6907 59.0315 39.0795 59.3748 38.4941C59.6427 38.0338 59.9364 37.5913 60.1566 37.1012C60.3769 36.617 60.6487 36.1567 60.9225 35.6983C61.1785 35.2677 61.2638 34.7975 61.2519 34.2597C61.3591 34.3788 61.2579 34.5355 61.3988 34.5455C61.5158 34.5514 61.5377 34.4204 61.5833 34.3351C61.6666 34.1784 61.6031 34.0176 61.496 33.9343C61.3194 33.7974 61.4027 33.72 61.4702 33.5692C61.6567 33.1465 61.9484 32.7437 61.8095 32.2318C61.7281 31.9302 62.1687 31.708 61.9524 31.3786C61.9504 31.3746 61.9841 31.3448 62.0059 31.3329C62.377 31.1067 62.0933 31.0214 61.9147 30.9222C61.5893 30.7436 61.3134 30.5472 61.5079 30.1086C61.5555 30.0035 61.4464 29.9936 61.3888 29.9658C60.9206 29.7396 60.9027 29.7277 61.0634 29.2375C61.1229 29.057 61.1229 28.8943 60.9682 28.8169C60.742 28.7038 60.6904 28.3923 60.4046 28.3605C60.3292 28.3526 60.3233 28.2791 60.3392 28.2137C60.3868 27.9974 60.2181 27.916 60.0951 27.795C59.8768 27.5807 59.5911 27.4755 59.351 27.2969C58.5632 26.7195 57.7338 26.1996 56.9064 25.6758C56.4202 25.3702 55.8746 25.1738 55.4162 24.8245C55.2356 24.6876 54.9797 24.6598 54.8388 24.4575C54.7257 24.2928 54.565 24.6003 54.4538 24.4078C54.3368 24.2094 54.1522 24.0963 53.9359 24.0189C53.4815 23.8582 53.0529 23.6816 52.6482 23.378C52.1838 23.0308 51.5449 22.9474 51.0369 22.6915C50.4833 22.4097 49.9297 22.1676 49.3503 21.9493C48.9931 21.8144 48.6082 21.7152 48.257 21.6358C47.9792 21.5743 47.6577 21.237 47.3105 21.5227C47.2688 21.5584 47.1637 21.5227 47.1478 21.4215C47.1299 21.2985 47.0426 21.3104 46.9454 21.2747C46.6001 21.1457 46.231 21.1199 45.8957 21.0267C45.3719 20.8818 44.844 20.8719 44.3242 20.7647C44.0206 20.7032 43.6733 20.6616 43.4709 21.116C43.5007 20.7449 43.2765 20.6854 43.0523 20.6774C42.7606 20.6655 42.4669 20.6358 42.1732 20.729C42.0304 20.7747 41.8815 20.737 41.8696 20.9493C41.8657 21.0048 41.7883 21.0505 41.7208 21.0286C41.6514 21.0048 41.6494 20.9314 41.6494 20.8699C41.6474 20.7806 41.7188 20.6298 41.5422 20.6735C41.3418 20.7231 41.0521 20.5683 40.9608 20.9096C40.935 20.9989 40.8477 20.981 40.7763 20.9334C40.435 20.7112 40.2088 20.7211 39.9588 20.989C39.8457 21.108 39.7385 21.11 39.6492 20.9989C39.4131 20.7072 39.3218 20.8302 39.2544 21.114C39.2246 21.2429 39.1294 21.3243 38.9885 21.3362C38.9369 20.9969 38.9369 20.9969 38.6631 21.1894C38.6373 21.2072 38.5777 21.2291 38.5698 21.2191C38.3694 20.9771 38.2603 21.1735 38.1372 21.3064C38.0638 21.3858 38.0301 21.3203 37.9646 21.2747C37.661 21.0663 37.0776 21.3045 37.0439 21.6596C36.9685 21.3164 36.8395 21.4632 36.7086 21.6001C36.5201 21.7966 36.3732 22.0843 36.022 21.8005C35.9049 21.7053 35.7224 21.7787 35.5775 21.8878C35.1291 22.2271 34.7541 22.6379 34.385 23.0566ZM42.6653 34.482C42.4947 35.0931 42.1196 35.5733 41.7486 36.0595C41.5839 36.2738 41.5125 36.5396 41.32 36.748C41.1216 36.9623 40.945 36.9325 40.7842 36.7797C40.4469 36.4543 39.9885 36.367 39.6096 36.1249C39.5798 36.1051 39.5361 36.0991 39.5123 36.0753C39.0202 35.5852 38.3218 35.3987 37.8178 34.9324C37.5717 34.7062 37.3058 34.5078 37.0578 34.2875C36.9427 34.1823 36.7086 34.347 36.6629 34.0335C36.6332 33.841 36.6034 33.6902 36.7026 33.5275C37.0399 32.9739 37.3019 32.3687 37.7999 31.9242C37.9269 31.8111 38.0102 31.6841 38.0479 31.5214C38.0638 31.448 38.0757 31.3726 38.1987 31.3667C38.2444 31.3944 38.3118 31.4262 38.3694 31.4718C39.0341 32.0076 39.806 32.3786 40.5005 32.8707C41.1732 33.3489 41.8835 33.7736 42.578 34.222C42.6772 34.2855 42.707 34.3331 42.6653 34.482ZM43.9472 36.9127C43.6654 37.2599 43.4729 37.6766 43.2408 38.0616C43.1951 37.8235 43.0741 37.7262 42.8598 37.6647C42.6911 37.6171 42.6336 37.4881 42.7506 37.2937C43.1415 36.6508 43.5047 35.992 43.8083 35.3034C43.8995 35.0971 43.9987 34.98 44.2527 35.1288C44.4531 35.2479 44.6932 35.2975 44.9314 35.3054C45.1834 35.3134 45.1913 35.4384 45.0365 35.5693C44.5861 35.9483 44.3083 36.4642 43.9472 36.9127ZM48.3522 36.8135C47.9454 37.4068 47.5069 37.9762 47.1438 38.5973C47.0545 38.7501 46.8561 38.7203 46.7311 38.6707C46.5009 38.5795 46.3382 38.6211 46.2013 38.8672C46.1715 38.5775 45.6973 38.3156 45.4393 38.4703C45.1695 38.633 45.1357 38.3533 44.9909 38.3056C44.8897 38.2719 44.9869 38.0774 45.0464 37.9842C45.2726 37.633 45.4413 37.254 45.7251 36.9266C45.9175 36.7063 46.1298 36.4801 46.2866 36.2301C46.3977 36.0535 46.489 36.0575 46.6458 36.113C46.995 36.2341 47.3462 36.3531 47.7014 36.4583C47.8403 36.5 47.9871 36.5595 48.1359 36.496C48.2371 36.4523 48.3483 36.4444 48.4058 36.5357C48.4594 36.623 48.4038 36.7381 48.3522 36.8135ZM57.4064 38.6311C57.2695 38.8215 57.2001 39.0537 57.0195 39.2204C56.8687 39.3573 56.7814 39.5418 56.4976 39.4089C56.2893 39.3136 56.2278 39.6093 56.0988 39.7264C56.0353 39.7819 55.9956 39.8931 55.8964 39.8415C55.7932 39.7879 55.8349 39.6946 55.8944 39.6212C55.9401 39.5637 55.95 39.5141 55.8766 39.4704C55.8031 39.7284 55.3686 39.2184 55.3845 39.7085C55.3884 39.8554 55.2257 39.9109 54.8666 39.9546C54.8745 39.8176 55.1364 39.7839 55.0253 39.641C54.944 39.5319 54.7872 39.522 54.6503 39.52C54.3784 39.5141 54.1026 39.4962 53.8328 39.52C53.4696 39.5518 53.1244 39.3553 52.7533 39.4644C52.4537 39.5537 52.1025 39.2164 51.8167 39.5577C51.8048 39.5736 51.7255 39.5676 51.7175 39.5518C51.4616 39.0914 50.9953 39.2482 50.65 39.274C50.3028 39.2998 50.015 39.1331 49.6837 39.1529C49.4793 39.1628 49.2848 39.0537 49.0447 39.0735C48.759 39.0974 48.8741 38.7938 48.9336 38.6529C49.0785 38.2977 49.267 37.9604 49.4396 37.6171C49.4952 37.506 49.5606 37.4008 49.6162 37.2897C49.6479 37.2222 49.6718 37.127 49.7472 37.121C50.1063 37.0853 50.4694 37.1964 50.8306 37.1071C51.0746 37.5179 51.5013 37.3195 51.8406 37.3869C52.5866 37.5357 53.3526 37.5576 54.1086 37.5318C54.9023 37.506 55.7198 37.5219 56.4798 37.252C57.085 37.0377 57.7378 36.9444 58.2993 36.6408C58.5414 36.5099 58.8391 36.4464 59.0077 36.1845C59.0335 36.2083 59.0613 36.2321 59.0871 36.2539C58.5275 37.0476 57.97 37.8413 57.4064 38.6311ZM36.1073 24.2332C36.2065 24.0646 36.6193 24.0368 36.8951 24.0229C37.3574 24.0011 37.8178 24.0011 38.2821 23.9554C38.8595 23.8999 39.4508 24.1281 40.0282 24.0269C40.6493 23.9158 41.2208 24.2471 41.8518 24.1261C42.2248 24.0546 42.6276 24.3186 43.0344 24.3761C45.4175 24.7194 47.6796 25.4536 49.8484 26.5052C50.7829 26.9576 51.7235 27.3962 52.6382 27.8902C54.1959 28.7316 55.7277 29.6165 57.212 30.5868C57.7596 30.946 58.0394 31.5155 58.4779 31.952C58.7974 32.2715 58.8232 32.7358 59.1804 33.0394C58.9541 33.1406 58.7498 33.2081 58.5752 33.3033C58.2358 33.4878 57.958 33.7438 57.5116 33.595C57.4044 33.5613 57.1862 33.6962 56.9957 33.7061C56.8488 33.7141 56.6722 33.7438 56.5631 33.8887C56.5234 33.9403 56.5532 34.0633 56.4441 34.0454C56.2833 34.0196 56.4798 33.8609 56.2952 33.7716C56.2476 33.841 56.202 33.978 56.1166 34.0097C56.0234 34.0454 55.9143 34.2141 55.7595 33.9502C55.5968 33.6744 55.2356 33.9244 54.9737 33.976C54.8388 34.0038 54.7475 34.1089 54.6562 33.9284C54.6344 33.8867 54.5669 33.8549 54.5273 33.8946C54.3705 34.0534 54.2356 33.9343 54.0669 33.9065C53.5569 33.8232 53.0311 33.7398 52.5231 33.7379C51.916 33.7339 51.3683 33.4442 50.779 33.4819C50.3166 33.5117 49.9992 33.1902 49.5944 33.095C49.2987 33.0255 49.015 32.8826 48.7034 32.97C48.5963 33.0017 48.5745 32.962 48.5566 32.8727C48.5368 32.7775 48.4534 32.7199 48.3681 32.714C47.6478 32.6664 47.0684 32.2358 46.4136 32.0096C46.1576 31.9203 45.9175 31.7814 45.6596 31.708C44.7667 31.448 44.0444 30.8587 43.2249 30.4638C42.8499 30.2833 42.5482 29.9658 42.0919 29.8924C41.9133 29.8646 41.7168 29.561 41.4926 29.4161C41.0481 29.1264 40.6215 28.805 40.1711 28.5212C39.9012 28.3526 39.8576 28.1581 40.0838 27.8009C39.7425 28.0192 39.4707 28.1938 39.3298 27.7533C38.7841 27.7414 38.5896 27.2215 38.2027 26.9814C38.1908 26.9755 38.1829 26.9596 38.1729 26.9596C37.9051 26.9676 37.8733 26.66 37.7027 26.5886C37.4288 26.4774 37.3733 26.2195 37.2026 26.0488C37.0201 25.8643 36.7542 25.771 36.6153 25.523C36.522 25.3583 36.4566 25.1758 36.3653 25.0111C36.1926 24.7055 35.8831 24.5983 35.6728 24.3483C35.8573 24.3959 35.9506 24.5011 36.1073 24.2332ZM35.1291 28.7077C35.4823 29.0391 35.8732 29.3229 36.1688 29.7217C36.3415 29.9559 36.7919 30.0233 36.7621 30.3547C36.7344 30.6384 36.53 30.9321 36.3375 31.1643C36.0974 31.454 35.9783 31.8131 35.7482 32.0969C35.5855 32.3013 35.6767 32.6029 35.4128 32.7735C35.1588 32.4917 34.8453 32.2814 34.4405 32.2417C34.3612 32.2338 34.2957 32.1445 34.3433 32.075C34.4624 31.9024 34.5199 31.7635 34.3016 31.6147C34.0973 31.4738 33.9683 31.6127 33.8056 31.7417C33.7004 31.3964 33.8433 31.073 33.625 30.8091C33.371 30.5055 33.1289 30.194 32.9027 29.8685C32.8055 29.7296 32.74 30.0412 32.5118 30.0432C32.9523 28.9875 33.5833 28.0371 33.7401 26.914C33.8929 26.9239 33.9365 27.0092 33.9762 27.1025C34.2401 27.7236 34.6489 28.2553 35.1291 28.7077ZM5.01986 19.1257C4.70833 19.217 4.81349 19.3698 4.91469 19.5603C5.12502 19.9571 5.34924 20.35 5.5437 20.7489C5.71435 21.1021 6.13104 21.237 6.21637 21.6358C6.2243 21.6755 6.34138 21.7013 6.41281 21.7192C6.48821 21.737 6.54972 21.7688 6.59933 21.8303C6.92276 22.243 7.28985 22.6141 7.7383 22.8899C8.19269 23.1677 8.59947 23.5169 9.11736 23.7114C9.57771 23.882 10.0023 24.1003 10.4984 23.884C10.5917 23.8443 10.6829 23.8245 10.7881 23.8523C11.0322 23.9177 11.2108 23.8026 11.3576 23.6201C11.5005 23.7907 11.6572 23.8483 11.9033 23.8384C12.3993 23.8185 12.8577 23.6141 13.3736 23.6499C13.7665 23.6776 14.205 23.507 14.5919 23.4951C15.7091 23.4614 16.7945 23.2748 17.8819 23.0605C18.2212 22.9951 18.5525 22.8839 18.8918 22.8165C19.0823 22.7768 19.2927 22.8006 19.3542 22.5446C19.3661 22.491 19.4058 22.4791 19.4673 22.5069C19.5982 22.5625 20.2094 22.4236 20.3304 22.3641C20.6281 22.2192 20.8344 21.7212 21.2809 22.114C21.3583 22.1815 21.4357 22.0585 21.4932 22.0049C21.7432 21.7708 22.0389 21.6219 22.3683 21.5406C22.8862 21.4156 23.3068 21.0743 23.8069 20.9076C24.4835 20.6814 25.0312 20.2191 25.6463 19.8817C25.8467 19.7706 26.0888 19.7865 26.2574 19.6278C26.6761 19.2349 27.2456 19.1019 27.7179 18.7904C27.9857 18.6158 28.3112 18.457 28.5612 18.2586C28.9382 17.959 29.468 17.8241 29.6724 17.3181C29.6803 17.2982 29.7101 17.2685 29.7259 17.2724C30.0216 17.3181 30.1148 17.0105 30.3272 16.9014C30.6446 16.7367 30.8907 16.4132 31.1645 16.1553C31.7499 15.5977 32.2261 14.9528 32.7043 14.3139C33.0277 13.8793 33.2976 13.4011 33.6131 12.9666C34.4068 11.8772 34.766 10.5696 35.4624 9.43657C35.5061 9.36514 35.5656 9.25402 35.5398 9.19449C35.3831 8.83733 35.5001 8.46031 35.4327 8.09918C35.4069 7.96623 35.3751 7.82337 35.2184 7.77773C35.0596 7.73209 34.9862 7.85313 34.9009 7.96425C34.9763 7.78765 34.9862 7.6051 35.0954 7.44239C35.4347 6.93442 35.3414 6.49192 34.8453 6.1288C34.758 6.06531 34.7838 5.97403 34.8453 5.94427C35.1211 5.80934 34.9842 5.68234 34.8414 5.57123C34.5755 5.36685 34.4961 5.10889 34.5695 4.79141C34.5874 4.71998 34.6191 4.64061 34.512 4.61283C34.4346 4.59497 34.4128 4.80332 34.3096 4.67434C34.2302 4.57314 34.3532 4.49377 34.3651 4.40051C34.377 4.3013 34.2977 4.24772 34.2699 4.17629C34.1727 3.93222 33.9246 3.76951 34 3.4183C34.0397 3.23178 33.5774 3.05319 33.7758 2.71587C33.752 2.70595 33.7302 2.69404 33.7064 2.68809C33.4405 2.60078 33.4028 2.41426 33.504 2.18805C33.5952 1.97971 33.5456 1.87851 33.3294 1.79715C33.2361 1.75945 33.0575 1.78326 33.0476 1.60667C33.0238 1.17013 32.8531 1.26537 32.6865 1.4757C32.3809 1.2872 32.7877 0.731605 32.2182 0.685967C32.2003 0.683982 32.1825 0.624455 32.1705 0.588738C32.1408 0.507383 32.1249 0.400233 32.0118 0.418091C31.9066 0.433965 31.9126 0.541115 31.8927 0.626439C31.7677 1.1106 31.5157 1.21973 31.2598 0.858598C31.0673 0.58477 30.8371 0.44984 30.5692 0.28713C29.9442 -0.0878963 29.343 -0.0878966 28.7219 0.241492C28.6247 0.293082 28.4997 0.344674 28.4937 0.221649C28.4858 -0.00852578 28.3409 0.0529863 28.2179 0.027191C27.9897 -0.0184472 27.7873 0.116483 27.5631 0.0926717C26.7714 0.00734821 25.9935 0.187916 25.2217 0.289114C24.4418 0.392296 23.6819 0.65025 22.9159 0.846692C22.8386 0.866535 22.7453 0.888362 22.7215 0.997496C22.6699 1.24156 22.66 1.25148 22.4873 1.1225C22.4139 1.06893 22.3683 1.00345 22.2671 1.05504C21.8742 1.25545 21.3801 1.26934 21.1142 1.69993C21.0726 1.76739 20.9634 1.87256 20.9178 1.74755C20.8305 1.51737 20.7293 1.68604 20.64 1.71183C20.4376 1.76541 20.3761 1.99558 20.1816 2.10273C20.1975 2.01146 20.2411 1.9182 20.2154 1.88843C20.14 1.80906 20.0566 1.88049 19.9832 1.92018C19.1855 2.34878 18.3978 2.79127 17.5922 3.20003C15.9234 4.04929 14.3975 5.10096 12.9768 6.31334C12.7525 6.50581 12.5521 6.73004 12.316 6.90664C11.6671 7.38484 11.0798 7.94044 10.5183 8.50992C9.5797 9.46435 8.67686 10.4605 7.81172 11.4823C7.2462 12.151 6.73228 12.8674 6.30367 13.6373C6.01596 14.1512 5.81356 14.6969 5.6191 15.2505C5.4425 15.7485 4.99604 16.1493 5.0893 16.7446C5.10121 16.818 5.02978 16.8379 4.98017 16.8756C4.69245 17.0919 4.91667 17.4014 4.84921 17.6613C4.80754 17.8221 4.90675 17.8756 5.06946 17.8518C5.12502 17.8439 5.1409 17.9153 5.11113 17.9649C4.89088 18.3162 5.18257 18.3062 5.4048 18.3499C5.16471 18.4908 4.96033 18.6376 4.90675 18.9154C5.0397 18.9729 5.06153 18.7706 5.18257 18.8321C5.22423 18.9829 5.13494 19.092 5.01986 19.1257ZM18.9216 19.9829C18.7728 19.9631 18.62 19.9889 18.489 20.0643C18.2946 20.1794 18.1616 20.3004 17.864 20.1972C17.5842 20.102 17.6616 20.4155 17.7568 20.608C16.9889 20.4572 16.2627 20.3778 15.5265 20.5683C15.3936 20.602 15.2686 20.5842 15.1991 20.7449C15.1575 20.8382 15.0027 20.8897 14.9451 20.8183C14.7507 20.5802 14.5602 20.729 14.3876 20.8104C14.2804 20.858 14.2308 20.8858 14.1038 20.8263C13.9729 20.7667 13.7308 20.7489 13.6435 20.8282C13.3597 21.0842 13.0998 21.2429 12.693 21.0981C12.6176 21.0723 12.5243 21.1279 12.4351 21.0068C12.3219 20.854 12.1731 20.9215 12.0719 21.0564C12.0144 21.1318 12.0124 21.2469 11.9172 21.2945C11.7346 21.239 11.9807 20.979 11.7743 20.981C11.562 20.983 11.3179 20.8917 11.1373 21.0882C10.9568 21.2846 10.8417 21.3739 10.6234 21.0743C10.5302 20.9473 10.2841 20.8005 10.0797 20.727C9.84956 20.6477 9.68288 20.485 9.46461 20.3758C9.59359 20.2786 9.71661 20.229 9.85749 20.227C9.91702 20.225 10.0083 20.231 10.0341 20.1972C10.2067 19.9651 10.3615 19.7309 10.7147 19.9333C10.7504 19.9552 10.8675 19.7984 10.8774 20.0087C10.8814 20.1079 11.0262 20.098 11.0977 20.0524C11.2723 19.9452 11.5243 20.0187 11.6533 19.7944C11.7108 19.6932 11.7981 19.8202 11.8715 19.8361C12.0342 19.8738 12.189 19.9373 12.064 19.6575C12.0025 19.5226 12.1255 19.5027 12.2069 19.5325C12.5323 19.6456 12.8696 19.3242 13.195 19.5762C13.2724 19.6377 13.3796 19.5563 13.4569 19.4849C13.5403 19.4115 13.6276 19.3182 13.7467 19.34C13.8756 19.3638 14.0324 19.4869 14.0919 19.2924C14.1395 19.1317 13.9808 19.0404 13.8379 18.971C13.9292 18.9134 14.0066 18.9214 14.0641 18.971C14.4094 19.2567 14.4094 19.2567 14.6138 18.834C14.7189 19.3142 14.8916 19.1376 15.1872 19.0067C15.5285 18.8559 15.9234 18.7487 16.3044 18.711C16.6258 18.6793 16.7687 18.3578 17.0802 18.3261C17.1139 18.3221 16.9909 18.0046 17.1973 17.8637C17.239 17.9411 17.1378 18.1574 17.4017 18.0622C17.8104 17.9153 18.247 17.8419 18.6716 17.7407C18.8264 17.703 18.9633 17.6534 18.9891 17.9233C18.997 18.0126 19.0089 18.4332 19.3899 18.2249C19.4832 18.1753 19.509 18.3638 19.4713 18.4154C19.2173 18.7507 19.374 19.0722 19.4752 19.3996C19.5923 19.7786 19.3343 20.0425 18.9216 19.9829ZM23.5112 18.5424C23.0945 18.3816 22.7949 18.4789 22.5171 18.6892C22.4556 18.7348 22.3484 18.7229 22.2631 18.7348C22.15 18.7507 22.0627 18.6793 22.0012 18.6138C21.9179 18.5205 22.0151 18.4332 22.0726 18.3618C22.2353 18.1534 22.3008 17.9768 21.9436 17.9292C21.7849 17.9094 21.7472 17.7844 21.7909 17.6911C21.9952 17.2466 21.6738 17.2962 21.3146 17.2665C21.6579 17.0581 21.5488 16.8002 21.519 16.5779C21.4853 16.3359 21.5865 16.193 21.7651 16.0878C21.9595 15.9727 22.1956 15.9747 22.3564 15.7445C22.4318 15.6374 22.5885 15.8676 22.6064 15.9966C22.6798 16.568 22.9655 17.07 23.0985 17.6217C23.1402 17.7943 23.3267 17.7784 23.5132 17.7804C23.3961 18.0126 23.3386 18.2308 23.5112 18.5424ZM27.6563 16.064C27.2396 16.2962 26.821 16.5264 26.4539 16.7268C26.1007 16.7387 26.0352 16.4807 25.9102 16.314C25.8388 16.2168 25.8288 16.0759 25.6622 16.0958C25.6503 16.0958 25.6264 16.0898 25.6264 16.0878C25.6245 15.6334 24.799 15.568 25.0966 14.9687C25.1145 14.933 25.0947 14.8715 25.0788 14.8258C24.9319 14.4429 25.0768 14.2425 25.4657 14.169C25.7058 14.1234 25.8725 13.9369 26.0451 13.7841C26.1463 13.6948 26.2812 13.5182 26.3547 13.6075C26.4618 13.7404 26.686 13.798 26.6721 14.0321C26.6622 14.1869 26.6325 14.3516 26.9103 14.3377C27.063 14.3318 27.073 14.5203 27.0273 14.6631C26.946 14.9191 27.0234 15.1116 27.2317 15.2822C27.4401 15.4548 27.446 15.7763 27.6841 15.939C27.7238 15.9668 27.7099 16.0362 27.6563 16.064ZM32.0872 8.30554C32.1606 8.10513 32.244 7.91464 32.3908 7.77376C32.8869 7.89282 32.6468 8.30554 32.6825 8.58929C32.7142 8.84526 32.75 9.08536 32.8789 9.30561C32.9127 9.36514 32.9424 9.41078 32.9146 9.47427C32.7757 9.81755 32.9861 10.0021 33.2738 10.1787C33.0079 10.2541 32.9246 10.4089 32.9206 10.6509C32.9127 11.2224 32.5575 11.647 32.2777 12.1054C31.8967 12.7285 31.4086 13.2682 30.9482 13.8278C30.7518 14.0678 30.5812 14.433 30.1783 14.0182C30.0771 13.9131 29.7914 13.9567 29.6168 14.0877C29.5573 13.9488 29.6307 13.8873 29.6803 13.8198C29.8113 13.6412 29.9283 13.5182 29.6347 13.3237C29.4739 13.2166 29.1922 12.9963 29.333 12.659C29.3707 12.5677 29.2735 12.4527 29.1644 12.4546C29.0056 12.4566 28.8529 12.3852 28.8707 12.2542C28.9005 12.0459 28.9164 11.782 29.1525 11.6808C29.6366 11.4744 29.9621 11.0954 30.3133 10.7224C30.5315 10.4922 30.7935 10.3136 30.9919 10.0378C31.3967 9.48221 31.8431 8.96035 32.0872 8.30554ZM7.03388 17.0919C7.26207 16.9411 7.45058 16.693 7.31763 16.4688C6.91086 15.7842 7.39105 15.306 7.67282 14.8119C8.01213 14.2206 8.41692 13.6551 8.85941 13.1372C9.14713 12.7999 9.50429 12.5221 9.78804 12.1669C10.2206 11.6232 10.7583 11.1629 11.3378 10.7938C11.6751 10.5795 11.8477 10.1807 12.2684 10.0676C12.4093 10.0319 12.5581 9.83343 12.6454 9.71635C12.9569 9.29172 13.5125 9.21434 13.8181 8.79962C13.955 8.6131 14.2407 8.64088 14.4193 8.45635C14.9055 7.95433 15.6099 7.77376 16.1456 7.35905C16.5207 7.06935 17.0425 7.04157 17.3263 6.63082C17.6457 6.734 17.7965 6.43835 18.0148 6.31929C18.4295 6.0911 18.8819 5.94228 19.3046 5.72798C19.5625 5.59702 19.8939 5.52559 20.1955 5.43034C20.9912 5.17437 21.7532 4.82316 22.5647 4.61283C22.9179 4.52155 23.3306 4.48186 23.6045 4.29336C23.9319 4.06914 24.2831 4.1624 24.6026 4.07112C24.9637 3.96596 25.3844 3.89651 25.7812 3.86476C26.315 3.82309 26.8329 3.71792 27.3587 3.63855C27.4778 3.61871 27.5889 3.55323 27.7159 3.61871C27.7635 3.64451 27.8627 3.65046 27.8925 3.62069C28.2953 3.20598 28.7814 3.54331 29.2219 3.47783C29.4382 3.44608 29.7021 3.37465 29.8013 3.79531C29.8748 4.10287 30.3351 4.17232 30.6407 4.27749C30.849 4.34892 30.7955 4.03937 30.8669 3.88659C31.0177 4.01556 31.1824 4.10486 31.0217 4.31519C30.984 4.36479 30.9463 4.44813 31.0058 4.48385C31.4939 4.77554 30.8669 5.23589 31.1744 5.5494C31.0276 6.11888 30.8828 6.68837 30.7339 7.25587C30.603 7.75392 30.3073 8.12497 29.8767 8.41468C29.2418 8.84129 28.6703 9.37109 27.9758 9.69651C27.2039 10.0557 26.5273 10.5636 25.8011 10.9942C25.3923 11.2343 24.9121 11.3911 24.6442 11.8375C24.6204 11.8792 24.4934 11.901 24.4399 11.8752C24.2871 11.8098 24.1521 11.8713 24.0529 11.9447C23.4834 12.3693 22.7393 12.5519 22.3226 13.1908C22.2988 13.2265 22.2433 13.2722 22.2095 13.2662C21.6639 13.1749 21.3127 13.5658 20.8841 13.7801C20.2054 14.1175 19.6221 14.6115 18.9375 14.9429C18.4275 15.1909 17.8461 15.31 17.4235 15.7287C17.0604 15.6076 16.86 15.8973 16.6099 16.0581C16.5365 16.1037 16.4611 16.1573 16.4115 16.2247C16.3401 16.3279 16.2944 16.447 16.1317 16.4172C15.9532 16.3815 16.0583 16.2069 15.9651 16.0938C15.8023 16.3438 15.463 16.2505 15.2845 16.4827C15.219 16.566 15.1416 16.5065 15.1158 16.4271C15.0622 16.2624 14.8678 16.312 14.842 16.3378C14.5225 16.6593 14.0939 16.4966 13.7288 16.6018C13.3399 16.7109 12.941 16.7863 12.5482 16.8835C12.2366 16.9609 12.0005 17.078 11.8318 17.3538C11.7644 17.4609 11.6294 17.4768 11.4965 17.4292C11.4767 17.3062 11.6969 17.2764 11.6096 17.1494C11.5163 17.0184 11.3774 17.0919 11.2643 17.1157C10.804 17.2189 10.3496 17.3875 9.88527 17.4213C9.54596 17.447 9.19475 17.4034 8.85345 17.4728C8.64312 17.5165 8.41493 17.5046 8.27603 17.7308C8.21849 17.8241 8.06173 17.8082 8.02403 17.7169C7.87918 17.3736 7.65297 17.5542 7.44661 17.6117C7.34343 17.6395 7.2343 17.7407 7.145 17.6157C7.04579 17.4768 6.9565 17.322 6.89499 17.1633C6.86721 17.0899 6.98825 17.1216 7.03388 17.0919ZM18.747 65.9524C18.8105 66.1012 18.999 65.9722 19.124 66.0139C19.3482 66.0873 19.5625 65.9822 19.7788 65.9822C20.0388 65.9802 20.1657 65.7242 20.3999 65.7202C20.9158 65.7143 21.4 65.5317 21.8921 65.4226C22.273 65.3393 22.6639 65.1765 23.0449 65.0297C23.2632 64.9444 23.4934 64.8095 23.6442 64.6884C23.8366 64.5356 24.037 64.4305 24.2434 64.3809C24.6799 64.2737 25.0689 64.0912 25.4617 63.8788C25.7872 63.7022 26.1364 63.5534 26.4936 63.4244C26.8388 63.3034 27.1861 63.0693 27.5016 62.8252C28.0651 62.3887 28.6624 62.0057 29.1803 61.4977C29.5533 61.1326 29.8529 60.71 30.224 60.3468C30.6943 59.8885 31.1764 59.4301 31.5376 58.8686C31.615 58.7475 31.7439 58.6463 31.8709 58.5769C32.0217 58.4916 32.109 58.3685 32.1904 58.2257C32.3551 57.934 32.5297 57.6542 32.746 57.3923C33.0813 56.9875 33.4067 56.5609 33.6587 56.1025C34.2858 54.9576 34.7937 53.7551 35.3057 52.5566C35.6589 51.7272 35.649 50.8244 35.7045 49.9394C35.7105 49.856 35.7402 49.729 35.6529 49.6993C35.3275 49.5862 35.4287 49.4255 35.5577 49.2231C35.641 49.0941 35.5061 48.2766 35.4089 48.2607C34.9207 48.1774 35.1251 47.8817 35.2025 47.6257C35.2263 47.5424 35.2581 47.471 35.2243 47.3777C35.0557 46.8975 34.9188 46.4114 34.4842 46.074C34.3473 45.9689 34.1727 45.8617 34.1052 45.6792C33.9405 45.2148 33.6151 45.0065 33.1547 45.0779C33.0635 44.9291 33.3869 44.7565 33.1071 44.693C32.9424 44.6573 32.7579 44.7545 32.7519 44.4707C32.748 44.3815 32.6666 44.4192 32.6091 44.4569C32.5138 44.5164 32.5118 44.6612 32.3829 44.6989C32.3075 44.3338 31.7558 44.3973 31.7419 43.9747C31.7419 43.9648 31.6705 43.9409 31.6388 43.9509C31.4919 43.9945 31.4384 43.8953 31.3808 43.7961C31.2518 43.5778 31.0752 43.5183 30.8153 43.55C30.6566 43.5679 30.4264 43.7048 30.3053 43.4231C30.2002 43.181 30.0494 43.173 29.8986 43.3992C29.8093 43.5362 29.6783 43.5877 29.4898 43.56C29.593 43.3278 29.6664 42.9984 29.3886 42.9746C29.0612 42.9448 28.7477 42.8933 28.4322 42.8119C28.3469 42.7901 28.2715 42.8238 28.1723 42.7524C28.0274 42.6472 27.8131 42.5103 27.6762 42.8278C27.6048 42.9905 27.2793 42.9865 27.2714 42.9409C27.2337 42.7008 26.8309 42.7921 26.8924 42.4845C26.9063 42.4091 26.7833 42.3992 26.7099 42.421C26.5729 42.4587 26.436 42.3853 26.319 42.3952C26.0352 42.417 25.6403 42.169 25.5133 42.677C25.4399 42.5282 25.5133 42.2563 25.2971 42.2861C24.9697 42.3337 24.6482 42.2007 24.3426 42.2781C24.1442 42.3277 23.8188 42.1373 23.7493 42.5262C23.7434 42.5579 23.6402 42.4944 23.6104 42.4428C23.4438 42.163 23.3366 42.2027 23.2275 42.4885C23.1779 42.6194 23.0588 42.6671 22.9536 42.5143C22.8683 42.3893 22.7671 42.3992 22.6302 42.4349C22.4397 42.4845 22.2373 42.4845 22.0409 42.5083C21.8186 42.5341 21.5984 42.5639 21.4079 42.6988C21.2829 42.7881 21.2412 43.177 20.9694 42.8159C20.9218 42.7524 20.7372 42.8595 20.7174 43.0123C20.7094 43.0699 20.7075 43.181 20.64 43.1036C20.4316 42.8635 20.2808 43.0877 20.1181 43.1472C19.8125 43.2564 19.6399 43.5719 19.2312 43.5818C18.8938 43.5877 18.5625 43.8616 18.2271 44.0104C17.6437 44.2684 17.0743 44.57 16.5266 44.8815C15.7845 45.3061 15.0642 45.7883 14.3737 46.3121C13.4331 47.0245 12.574 47.8162 11.7624 48.6754C10.9191 49.5683 10.1115 50.493 9.28602 51.4018C8.7344 52.007 8.32961 52.7094 7.88315 53.3821C7.55773 53.8702 7.53392 54.5111 7.1331 54.9794C7.0696 55.0528 7.01999 55.1838 7.00412 55.3167C6.9188 56.0291 6.80768 56.7395 6.71839 57.4518C6.69259 57.6542 6.6787 57.8288 6.52988 58.0054C6.42075 58.1344 6.04572 58.3705 6.52393 58.5511C6.56361 58.567 6.54179 58.6047 6.52988 58.6443C6.37709 59.0908 6.43067 59.5373 6.54179 59.9817C6.58544 59.9778 6.61719 59.9837 6.63108 59.9718C6.69457 59.9063 6.73624 59.7595 6.85133 59.8488C6.9684 59.9361 6.81363 59.9817 6.78188 60.0472C6.64298 60.329 6.4644 60.6266 6.75807 60.8985C6.92276 61.0532 7.0061 61.1961 6.96245 61.4203C6.95451 61.46 7.02793 61.5195 7.0696 61.5632C7.53193 62.0295 8.11134 62.343 8.58955 62.8113C9.4785 63.6824 10.6075 64.2678 11.6731 64.9126C11.941 65.0753 12.2962 65.0912 12.568 65.3194C12.7704 65.4881 13.0819 65.5 13.3121 65.6171C14.1653 66.0556 15.1039 66.0556 16.0087 66.2242C16.1397 66.248 16.2111 66.1647 16.2944 66.0873C16.3976 65.9921 16.5841 65.8829 16.6556 65.9742C16.9254 66.3076 17.3044 66.123 17.616 66.2262C17.9811 66.3453 18.237 66.0516 18.5426 65.9544C18.7113 65.8988 18.6081 65.6925 18.616 65.5516C18.62 65.4901 18.6577 65.4286 18.7311 65.4246C18.8343 65.4206 18.9295 65.4583 18.999 65.5317C19.0486 65.5833 19.0129 65.6468 18.9673 65.6944C18.8839 65.7778 18.6895 65.8175 18.747 65.9524ZM24.7216 61.081C24.3962 61.3826 23.9755 61.5076 23.5866 61.6842C23.4239 61.7577 23.3366 61.583 23.2791 61.4441C23.2572 61.3846 23.3445 61.2834 23.2275 61.2636C23.1183 61.2457 23.0409 61.3052 23.0152 61.4223C23.0032 61.4799 22.9854 61.5553 22.91 61.5513C22.8306 61.5493 22.8306 61.4699 22.8068 61.4144C22.6858 61.1525 22.8147 60.8072 23.0568 60.6465C23.4656 60.3746 23.9061 60.1861 24.3704 60.0373C24.6363 59.954 24.7315 60.069 24.7534 60.3012C24.7395 60.5254 24.6284 60.7417 24.7692 60.956C24.797 60.9977 24.7613 61.0433 24.7216 61.081ZM32.6686 53.5468C32.7261 53.9238 32.6706 54.2631 32.3948 54.5369C32.369 54.5627 32.3392 54.5905 32.3253 54.6222C31.6884 56.1382 30.5216 57.2593 29.4283 58.4221C28.9501 58.9301 28.3171 59.2912 27.7496 59.7139C27.6782 59.7674 27.5055 59.8528 27.4956 59.7674C27.4678 59.5373 27.0373 59.6643 27.1623 59.3527C27.2258 59.194 27.065 59.1821 27.0154 59.0987C26.9242 58.9479 26.8011 58.819 27.1285 58.7178C27.4996 58.6027 27.8964 58.4578 28.1008 58.055C28.2437 57.7752 28.6048 57.8308 28.8072 57.6145C29.0473 57.3585 29.3688 57.174 29.6267 56.9577C30.0811 56.5787 30.5534 56.1819 30.8947 55.668C31.0098 55.4973 31.2836 55.4358 31.3987 55.2651C31.7995 54.6778 32.3729 54.2175 32.6686 53.5468ZM13.9828 59.0809C13.6752 59.065 13.3696 59.0154 13.0641 58.9658C12.3894 58.8567 11.7525 58.6126 11.0818 58.4896C10.8159 58.442 10.6135 58.1026 10.4607 57.8407C10.3456 57.6482 10.0897 57.557 10.1135 57.2435C10.1274 57.0847 9.85154 57.1581 9.72256 57.17C9.42889 57.1939 9.23245 57.1442 9.23443 56.799C9.23443 56.7752 9.22451 56.7414 9.20864 56.7315C8.64511 56.3803 9.0499 55.92 9.09157 55.5191C9.14117 55.0707 9.25428 54.6401 9.54596 54.2452C9.87337 53.8027 10.1293 53.3067 10.4806 52.8721C10.6651 52.6439 10.9211 52.5269 11.1155 52.3106C11.4727 51.9137 11.7287 51.4256 12.1831 51.1141C12.5323 50.874 12.8875 50.62 13.1891 50.3382C13.6038 49.9513 14.0959 49.6715 14.5443 49.3501C15.1178 48.9413 15.7012 48.4988 16.4056 48.2805C16.6834 48.1932 17.0008 48.1337 17.1933 47.8519C17.3084 47.6813 17.5505 47.6991 17.7152 47.6218C18.5764 47.2229 19.4951 46.9511 20.3721 46.582C20.6281 46.4729 20.9436 46.4629 21.144 46.2248C21.1579 46.207 21.1976 46.1891 21.2075 46.1951C21.5547 46.4352 21.904 46.1554 22.2512 46.201C22.525 46.2367 22.7929 46.1554 23.0608 46.1097C23.5727 46.0205 24.0827 46.1355 24.5946 46.1395C25.6542 46.1494 26.6821 46.451 27.7337 46.5046C28.2437 46.5304 28.7179 46.6971 29.2021 46.7923C29.6724 46.8836 30.1803 47.0344 30.5871 47.342C30.7736 47.4829 30.9383 47.5087 31.1328 47.4055C31.3848 47.2705 31.4522 47.4094 31.4959 47.6257C31.5812 48.0543 31.7816 48.477 31.8074 48.8897C31.8332 49.2806 32.0197 49.6993 31.7896 50.114C31.6269 50.4077 31.8808 50.7648 31.7539 51.0724C31.3451 52.0566 30.8451 52.9574 29.964 53.642C28.9858 54.404 27.9837 55.1024 26.8428 55.5846C26.1384 55.8823 25.4399 56.1978 24.7931 56.5946C24.3883 56.8446 23.9239 56.8228 23.5192 57.0708C22.785 57.5252 21.9456 57.7574 21.1222 58.0074C21.0984 58.0153 21.0706 58.0233 21.0547 58.0411C20.7213 58.4102 20.2352 58.311 19.8225 58.4162C19.0843 58.6066 18.3263 58.7178 17.5763 58.8547C17.3937 58.8884 17.1735 58.8527 17.2429 59.2059C17.0782 58.8924 16.9473 58.8646 16.8143 59.1364C16.7211 59.323 16.6397 59.2992 16.5861 59.1186C16.5643 59.0472 16.5385 58.9975 16.4691 59.0095C15.8658 59.0968 15.2229 58.9162 14.6654 59.2793C14.6078 59.315 14.5721 59.3765 14.5304 59.2833C14.4153 59.0273 14.1891 59.0908 13.9828 59.0809ZM17.2132 62.8827C16.5683 62.855 15.9194 62.8054 15.2845 62.728C15.0702 62.7022 14.8261 62.6168 14.582 62.6248C14.4273 62.6307 14.4034 62.3391 14.2368 62.3569C14.3876 62.3073 14.5384 62.3291 14.6773 62.3629C14.9451 62.4283 15.1952 62.4323 15.4472 62.3152C15.4789 62.2994 15.5226 62.2855 15.5503 62.2954C16.1317 62.5216 16.6774 62.2636 17.235 62.1763C17.3044 62.1644 17.4195 62.1347 17.4294 62.093C17.483 61.8727 17.5842 61.964 17.6894 62.0355C17.9434 62.2081 18.1874 62.22 18.4216 61.9938C18.495 61.9224 18.5664 61.9005 18.6855 61.9283C18.9891 61.9978 19.2411 61.9085 19.4018 61.5374C19.5328 61.8807 19.7411 61.8311 19.9455 61.7458C20.1201 61.6723 20.2908 61.6922 20.38 61.837C20.4852 62.0097 20.5983 62.2279 20.5745 62.4105C20.5527 62.5811 20.2967 62.6466 20.1181 62.6565C19.1478 62.7121 18.1914 62.9264 17.2132 62.8827Z" fill="url(#paint0_linear_411_772)"/>
</g>
<defs>
<filter id="filter0_d_411_772" x="0.8125" y="-0.00012207" width="65.375" height="102" filterUnits="userSpaceOnUse" color-interpolation-filters="sRGB">
<feFlood flood-opacity="0" result="BackgroundImageFix"/>
<feColorMatrix in="SourceAlpha" type="matrix" values="0 0 0 0 0 0 0 0 0 0 0 0 0 0 0 0 0 0 127 0" result="hardAlpha"/>
<feOffset dy="4"/>
<feGaussianBlur stdDeviation="2"/>
<feComposite in2="hardAlpha" operator="out"/>
<feColorMatrix type="matrix" values="0 0 0 0 0 0 0 0 0 0 0 0 0 0 0 0 0 0 0.25 0"/>
<feBlend mode="normal" in2="BackgroundImageFix" result="effect1_dropShadow_411_772"/>
<feBlend mode="normal" in="SourceGraphic" in2="effect1_dropShadow_411_772" result="shape"/>
</filter>
<linearGradient id="paint0_linear_411_772" x1="-14.9326" y1="125.522" x2="84.4524" y2="102.979" gradientUnits="userSpaceOnUse">
<stop stop-color="#088F99"/>
<stop offset="0.581731" stop-color="#09BE9D"/>
<stop offset="0.860577" stop-color="#7ECCA2"/>
</linearGradient>
</defs>
</svg>
