<svg width="76" height="81" viewBox="0 0 76 81" fill="none" xmlns="http://www.w3.org/2000/svg">
<mask id="mask0_335_655" style="mask-type:luminance" maskUnits="userSpaceOnUse" x="0" y="0" width="76" height="81">
<path d="M0 0.593384H75.9986V80.4066H0V0.593384Z" fill="white"/>
</mask>
<g mask="url(#mask0_335_655)">
<path d="M75.7619 27.6349C75.9438 27.2987 75.7955 27.0541 75.5739 26.8432C75.4562 26.7301 75.4165 26.6736 75.5174 26.5299C75.5678 26.4581 75.6885 26.2808 75.4883 26.2441C75.1796 26.1876 75.0925 26.0394 75.2087 25.7368C75.1307 25.8254 75.0604 25.9033 74.9641 25.8621C74.8403 25.8086 74.9519 25.7031 74.9366 25.6221C74.9213 25.5304 74.9672 25.3791 74.8281 25.3837C74.6677 25.3898 74.6371 25.2645 74.5484 25.1973C74.4094 25.0918 74.3421 24.8901 74.0976 24.9207C74.0074 24.9314 73.8699 24.8626 73.847 24.6899C73.8347 24.5967 73.7064 24.5172 73.6192 24.4377C73.2815 24.1305 72.7863 24.1152 72.4776 23.7408C72.2423 23.4566 71.8128 23.4153 71.5163 23.1754C70.9723 22.7352 70.2494 22.6099 69.7038 22.1545C69.4654 21.9542 69.1658 21.8213 68.8846 21.6761C68.4689 21.4606 68.0975 21.1672 67.6803 20.9593C67.3854 20.8126 67.0782 20.6797 66.8428 20.4611C66.5998 20.2349 66.2682 20.2258 66.016 19.9889C65.6523 19.6496 65.1831 19.4127 64.7384 19.1712C63.9956 18.7647 63.2376 18.3811 62.478 18.0052C62.3436 17.9379 62.2641 17.7484 62.0364 17.834C61.8438 17.9073 61.9493 17.6032 61.7704 17.5528C61.5672 17.4947 61.3364 17.4076 61.1805 17.2945C60.7587 16.9858 60.236 16.9262 59.8127 16.6419C59.4169 16.3775 58.9309 16.3149 58.5076 16.0963C58.2844 15.9802 58.0399 15.9435 57.8137 15.7739C57.6548 15.6547 57.3231 15.592 57.0557 15.6974C57.0266 15.6103 57.2162 15.6134 57.126 15.5049C56.9762 15.4957 56.9044 15.6287 56.7943 15.6883C56.5651 15.8136 56.3282 15.6791 56.3542 15.4193C56.3924 15.0372 56.4428 14.6536 56.5651 14.2868C56.6201 14.1203 56.6675 13.9583 56.5223 13.8085C56.4795 13.7657 56.4383 13.7244 56.53 13.6755C56.8371 13.5135 56.802 13.1972 56.857 12.9221C56.9105 12.6516 56.7775 12.3856 56.7989 12.132C56.8264 11.8141 56.8784 11.4931 56.9013 11.1722C56.9212 10.8895 56.8127 10.6052 56.9059 10.3163C56.9625 10.1452 56.7821 10.1773 56.7164 10.1773C56.4795 10.1803 56.4367 10.0061 56.5193 9.88537C56.7302 9.57513 56.5055 9.41008 56.3603 9.19764C56.2228 8.99744 55.9339 8.89199 55.8621 8.72999C55.7047 8.37543 55.2982 8.49616 55.1132 8.23482C55.0888 8.19967 54.9864 8.15077 54.9268 8.06518C54.858 7.96737 54.8259 7.58377 54.5676 7.93375C54.5294 7.98571 54.4775 7.95668 54.4393 7.92C54.4026 7.88485 54.3613 7.85122 54.4026 7.79315C54.4362 7.7473 54.508 7.72438 54.4882 7.64796C54.1382 7.60517 54.1183 7.5853 53.9915 7.26589C53.9441 7.14821 53.8493 7.05957 53.7103 7.11612C53.6002 7.16197 53.5559 7.17114 53.5972 7.03206C53.6216 6.95106 53.559 6.92203 53.5024 6.90369C52.9385 6.71571 52.4555 6.34739 51.8855 6.17317C51.7877 6.1426 51.6486 6.04173 51.7036 6.27709C51.7204 6.34739 51.6807 6.35809 51.6211 6.36114C51.5477 6.36267 51.5095 6.33669 51.5004 6.26181C51.4912 6.18539 51.5095 6.07688 51.4163 6.05396C51.0786 5.96532 50.7637 5.74677 50.3847 5.85987C50.3343 5.87515 50.2472 5.86598 50.2151 5.83236C49.9308 5.5374 49.5212 5.62145 49.1819 5.49002C48.8977 5.38151 48.5691 5.38457 48.2864 5.2455C48.2329 5.21951 48.1901 5.21951 48.1534 5.26536C48.0067 5.44876 47.9012 5.28676 47.7851 5.19048C47.7744 5.31121 47.8768 5.41361 47.7316 5.50836C47.5971 5.03765 47.2533 4.94595 46.8253 5.01625C46.7688 5.02542 46.7092 5.0942 46.6786 4.96276C46.6557 4.86037 46.5625 4.94595 46.5059 4.96735C46.4265 4.99638 46.402 5.0514 46.4433 5.13393C46.4692 5.18742 46.5548 5.23785 46.457 5.31885C46.2996 5.25467 46.3225 5.08808 46.266 4.9704C46.2431 4.9215 46.2859 4.82369 46.2018 4.82675C45.9832 4.83286 45.7968 4.54248 45.5584 4.76103C45.5446 4.77326 45.459 4.74422 45.4545 4.72282C45.4071 4.54707 45.294 4.61279 45.1824 4.63112C45.1289 4.63877 45.0556 4.62654 45.0128 4.59445C44.7621 4.40799 44.4488 4.41258 44.1783 4.30713C43.9934 4.23377 43.9078 4.40341 43.7168 4.35145C43.4188 4.26739 43.24 4.02898 42.9679 3.94187C42.5813 3.8196 42.1717 3.7707 41.8187 3.55215C41.7805 3.52923 41.704 3.51395 41.6781 3.53534C41.5161 3.66372 41.3755 3.70498 41.2517 3.48949C41.2379 3.46504 41.1768 3.46963 41.1432 3.45282C40.9109 3.34125 40.6404 3.47116 40.3943 3.31221C40.3332 3.27248 40.0825 2.98058 39.9221 3.29235C39.8563 3.21287 39.9756 3.0249 39.8304 3.0845C39.6714 3.15021 39.5293 3.07074 39.4789 3.02337C39.3184 2.87207 39.1335 3.07227 38.9852 2.94695C38.8125 2.80024 38.5925 2.74522 38.377 2.73299C38.1997 2.7223 37.9399 2.71313 37.8635 2.66422C37.6327 2.51598 37.4279 2.59545 37.2109 2.59545C37.1268 2.59545 37.0412 2.59392 36.9969 2.51445C36.9373 2.40441 36.786 2.42581 36.7539 2.39677C36.5446 2.20421 36.2817 2.54349 36.0677 2.28215C35.9607 2.15377 35.6581 2.20268 35.5191 2.08194C35.2959 1.89091 35.0759 2.27756 34.8237 1.99789C34.6586 1.81144 34.2521 1.95662 33.9709 1.80379C33.7906 1.70751 33.5781 1.84506 33.3428 1.72127C33.0524 1.56844 32.6673 1.63721 32.3219 1.66472C32.273 1.66931 32.2164 1.70293 32.1905 1.64332C32.0774 1.3881 31.8176 1.4477 31.6281 1.41103C31.4233 1.37129 31.2246 1.33308 31.0274 1.26278C30.8532 1.20012 30.6683 1.25208 30.4742 1.16497C30.141 1.0152 29.7498 1.11148 29.3906 1.04424C29.1461 0.998388 28.9123 0.951011 28.6754 1.07175C28.6494 1.0855 28.5898 1.0641 28.5638 1.03965C28.3759 0.851673 28.1268 0.799711 27.8868 0.804296C27.6377 0.808881 27.3916 0.944898 27.1532 0.746221C27.0294 0.642297 26.8965 0.792069 26.7406 0.772202C26.4349 0.733995 26.1064 0.64841 25.7961 0.781371C25.7166 0.814994 25.6632 0.911276 25.5822 0.938785C25.4293 0.993804 25.4446 0.877653 25.4522 0.781371C25.4339 0.781371 25.4064 0.772202 25.3957 0.7829C25.2398 0.935728 25.0809 0.778315 24.9265 0.775258C24.5429 0.769145 24.144 0.590336 23.8078 0.923502C23.7589 0.969351 23.7375 0.941841 23.6871 0.915861C23.3998 0.76456 23.091 0.744693 22.7716 0.77373C22.4599 0.802767 22.145 0.837918 21.8333 0.828748C21.2968 0.811937 20.7681 0.894465 20.2377 0.935728C19.8205 0.969351 19.5072 1.31627 19.0533 1.34989C18.8546 1.36518 18.5627 1.56691 18.3748 1.77781C18.2296 1.94134 18.0676 2.08958 17.9132 2.247C17.3416 2.82928 16.7777 3.41767 16.3116 4.09164C16.1373 4.34381 16.0197 4.61126 15.9494 4.91539C15.8974 5.13546 16.0181 5.3861 15.9066 5.54504C15.6376 5.92405 15.7018 6.34739 15.63 6.75544C15.5963 6.94648 15.8485 7.09778 15.7064 7.22157C15.5276 7.37593 15.4634 7.46762 15.6789 7.61892C15.6789 7.62045 15.6468 7.69075 15.6177 7.70909C15.4252 7.82219 15.5001 7.95056 15.5856 8.08811C15.6712 8.22413 15.7339 8.40599 15.5719 8.48699C15.3885 8.57869 15.4343 8.67191 15.4832 8.79723C15.5566 8.98521 15.6086 9.2007 15.6116 9.38257C15.6162 9.83647 15.5474 10.2919 15.4802 10.7427C15.416 11.1752 15.4634 11.6047 15.364 12.051C15.2387 12.6103 15.147 13.188 15.0248 13.755C14.9743 13.9827 14.9499 14.2181 14.8842 14.4366C14.7527 14.8768 14.6656 15.3276 14.5311 15.7616C14.4287 16.0979 14.4241 16.4448 14.3156 16.7795C14.2102 17.1004 14.0894 17.4366 14.0589 17.7667C14.0268 18.1305 13.8847 18.4652 13.8495 18.832C13.822 19.1254 13.7089 19.4662 13.6157 19.778C13.5286 20.0699 13.1801 20.3709 13.4888 20.727C13.4949 20.7347 13.4781 20.779 13.472 20.779C13.2611 20.7851 13.3482 20.9639 13.3054 21.0663C13.0472 21.6746 12.9478 22.3302 12.7262 22.9522C12.581 23.3557 12.4863 23.7851 12.338 24.1932C12.1837 24.615 12.0782 25.0506 11.9162 25.4708C11.823 25.7123 11.7206 25.9584 11.6717 26.2243C11.5999 26.6125 11.5601 27.0175 11.3721 27.3781C11.3217 27.4759 11.2499 27.5692 11.2285 27.6731C11.1398 28.101 10.9977 28.5091 10.8143 28.9018C10.7471 29.0486 10.8464 29.2075 10.7425 29.3267C10.5652 29.53 10.4674 29.7944 10.42 30.0297C10.3436 30.4179 10.1205 30.7312 10.0135 31.0949C9.90194 31.477 9.69715 31.83 9.662 32.235C9.64977 32.3894 9.58864 32.5223 9.50611 32.6523C9.37621 32.857 9.257 33.0817 9.28451 33.3232C9.29826 33.4393 9.25242 33.4684 9.21574 33.5463C9.13474 33.7175 8.933 33.8795 8.99261 34.0629C9.04151 34.2187 9.00636 34.2722 8.90702 34.3563C8.83672 34.4144 8.80463 34.5015 8.78323 34.5916C8.7114 34.8683 8.62582 35.1541 8.50661 35.3986C8.24222 35.9396 8.06341 36.5127 7.79596 37.0537C7.48266 37.688 7.29927 38.3864 7.06238 39.0558C6.93095 39.4302 6.66656 39.7542 6.65586 40.1943C6.64669 40.5306 6.38382 40.8301 6.25698 41.1587C6.02009 41.7685 5.73124 42.366 5.41795 42.9407C5.20399 43.3304 5.14744 43.769 4.91972 44.148C4.73327 44.4598 4.71188 44.8617 4.5346 45.1597C4.28396 45.5846 4.25645 46.0874 3.96913 46.4909C3.7674 46.7767 3.7567 47.148 3.56566 47.4598C3.24319 47.9855 2.99867 48.5602 2.73428 49.1195C2.51267 49.5887 2.34456 50.0869 2.08781 50.5363C1.79591 51.0482 1.58959 51.603 1.28393 52.1089C1.06233 52.4772 0.9202 52.8929 0.666504 53.2444C0.37613 53.6509 0.336394 54.1445 0.172867 54.5954C0.110207 54.7696 0.101038 54.9377 0.0918682 55.1181C0.0826987 55.2984 0.142302 55.5017 0.0078125 55.6652C0.0078125 55.7049 0.0078125 55.7462 0.0078125 55.7859C0.068944 55.8547 0.308885 55.8501 0.0995097 56.032C0.044491 56.0794 0.0888118 56.1726 0.127019 56.2276C0.217188 56.3667 0.342507 56.4859 0.14383 56.6448C0.0949248 56.6846 0.14383 56.8114 0.221773 56.7992C0.493807 56.7579 0.446431 56.897 0.432676 57.0789C0.421978 57.2286 0.557995 57.3708 0.675674 57.4395C1.1525 57.7192 1.57889 58.0722 2.04196 58.3703C2.14283 58.4344 2.25134 58.4925 2.36137 58.5353C2.56005 58.6102 2.73733 58.7187 2.91767 58.818C3.2111 58.9831 3.49383 59.2169 3.83311 59.2811C4.19226 59.3514 4.48416 59.5272 4.79746 59.6968C5.21468 59.9215 5.67775 60.059 6.1393 60.1843C6.31658 60.2317 6.48316 60.3219 6.65127 60.3998C7.15408 60.6382 7.69968 60.7605 8.22846 60.895C9.02929 61.0998 9.80107 61.4115 10.6218 61.5445C10.9824 61.6026 11.3355 61.76 11.6961 61.7753C12.2952 61.7997 12.8286 62.1222 13.4109 62.1314C13.6768 62.1344 13.906 62.2139 14.1521 62.2536C14.3019 62.2781 14.3401 62.3239 14.2637 62.4966C14.0084 63.0743 13.7211 63.6383 13.5423 64.2496C13.4934 64.4146 13.3329 64.5537 13.307 64.7172C13.2336 65.2017 13.0915 65.6785 13.1129 66.1752C13.1144 66.2119 13.1343 66.2516 13.1526 66.2852C13.2321 66.4366 13.2061 66.4243 13.1495 66.568C13.0991 66.6948 13.226 66.8202 13.3008 66.9011C13.4323 67.0433 13.3864 66.759 13.5194 66.7896C13.5056 67.3092 13.9626 67.4299 14.2973 67.65C14.5907 67.8426 14.9713 67.9358 15.2265 68.1238C15.6452 68.434 16.0823 68.7015 16.5592 68.8467C17.227 69.0499 17.8353 69.4121 18.5322 69.5374C18.7568 69.5772 18.9555 69.7468 19.1725 69.8416C19.5745 70.0173 19.9947 70.1518 20.3952 70.3092C20.7405 70.4468 21.1119 70.5369 21.4543 70.7112C21.821 70.8991 22.2153 71.1865 22.6937 71.0153C22.7227 71.0046 22.7808 71.0504 22.8144 71.081C23.2439 71.4631 23.7528 71.6556 24.3183 71.7152C24.3962 71.7244 24.439 71.7794 24.4894 71.8283C24.5704 71.9048 24.6591 72.0026 24.7691 71.9934C25.0763 71.9644 25.2857 72.1737 25.5394 72.2761C25.7885 72.3785 26.0559 72.4366 26.305 72.5405C27.115 72.8798 27.9158 73.239 28.7258 73.5767C29.1156 73.7387 29.5557 73.8105 29.8996 74.0337C30.3229 74.3103 30.8058 74.4127 31.2399 74.6496C31.8481 74.9827 32.5145 75.2104 33.1456 75.5008C33.4421 75.6384 33.6989 75.8707 34.003 75.97C34.6953 76.1962 35.2745 76.6302 35.9271 76.9267C36.4177 77.1483 36.9022 77.3837 37.3912 77.6098C37.7274 77.7657 38.0148 78.0026 38.3556 78.1539C38.8003 78.3526 39.2343 78.5742 39.6684 78.7958C39.8869 78.9074 40.1055 79.0296 40.3133 79.1549C40.4768 79.2543 40.6327 79.1565 40.7962 79.2451C41.0561 79.3842 41.2074 79.6516 41.4901 79.7586C41.5879 79.7953 41.6872 79.8809 41.7896 79.8748C41.9914 79.8625 42.1152 80.0245 42.2695 80.0643C42.5507 80.1376 42.8014 80.321 43.104 80.3134C43.2583 80.2324 43.3714 80.1086 43.4769 79.9741C43.5533 79.8763 43.6205 79.8381 43.6908 79.9909C43.7779 80.1835 44.024 80.13 44.1279 80.1224C44.293 80.1101 44.0759 79.942 44.1111 79.8106C44.4015 79.8106 44.3984 80.0444 44.458 80.263C44.5665 80.1376 44.6918 80.1575 44.8294 80.1743C44.9593 80.1911 45.135 80.2813 45.2023 80.0582C45.2084 80.0414 45.2573 80.0215 45.2802 80.0261C45.6776 80.1269 45.8854 79.832 46.0887 79.6012C46.6389 78.9731 46.9705 78.2074 47.3419 77.4692C47.9914 76.1794 48.4591 74.8146 48.994 73.4774C49.2996 72.7163 49.6649 71.9796 49.9919 71.2277C50.3373 70.43 50.6644 69.6246 51.0113 68.8283C51.3063 68.1498 51.6272 67.4804 51.9206 66.8003C52.2462 66.0484 52.6313 65.324 52.9645 64.5736C53.2304 63.9791 53.5697 63.4044 53.8982 62.8329C54.2513 62.2185 54.5585 61.5797 54.9084 60.9622C55.1484 60.5404 55.399 60.1201 55.6726 59.7243C55.9324 59.3529 56.1662 58.9617 56.4352 58.5949C56.8249 58.0631 57.1382 57.4701 57.5172 56.9321C58.0796 56.1344 58.5503 55.2755 59.1372 54.5022C59.4551 54.0834 59.7928 53.6708 60.0954 53.2413C60.5004 52.6682 60.8978 52.0844 61.3196 51.5281C61.8591 50.819 62.3634 50.0778 62.9518 49.4007C63.3018 48.9973 63.5326 48.4991 63.8978 48.0986C64.0644 47.9152 64.2233 47.7196 64.4006 47.5469C64.7567 47.1985 64.8912 46.711 65.2183 46.3381C65.5193 45.9927 65.7577 45.6014 66.0879 45.2637C66.3354 45.0146 66.583 44.7272 66.7909 44.4308C67.2066 43.8408 67.6757 43.2937 68.096 42.7114C68.4659 42.201 68.8892 41.7364 69.2484 41.2183C69.5433 40.7904 69.8597 40.364 70.1882 39.9544C70.7338 39.2743 71.2168 38.5514 71.6478 37.7888C71.8617 37.4113 72.1261 37.0522 72.337 36.6762C72.5999 36.204 72.8964 35.7562 73.1791 35.2977C73.6131 34.5916 74.0518 33.8856 74.414 33.1382C74.8786 32.177 75.4073 31.2447 75.7482 30.2253C75.8154 30.0236 75.82 29.8219 75.7726 29.6232C75.7374 29.4765 75.8353 29.5407 75.8888 29.5269C75.8888 29.0455 75.8888 28.5641 75.8888 28.0827C75.6717 27.9833 75.6809 27.7816 75.7619 27.6349ZM13.8862 59.599C13.5927 59.625 13.3727 59.5104 13.1404 59.3789C13.0319 59.3193 12.9004 59.2704 12.7965 59.3346C12.6559 59.4187 12.5673 59.408 12.4297 59.3147C12.2479 59.1925 12.0308 59.1909 11.8367 59.3285C11.768 59.0901 11.5938 59.032 11.3706 59.1527C11.2117 59.2383 10.961 59.0809 10.9549 59.0672C10.8006 58.7355 10.4552 58.8379 10.2122 58.7615C9.88207 58.656 9.54738 58.4482 9.20198 58.5002C8.88257 58.5491 8.69459 58.1334 8.36907 58.3275C8.35684 58.3351 8.30946 58.2831 8.2789 58.2587C8.13065 58.1487 7.98547 58.0508 7.88001 58.3061C7.85251 58.3733 7.79749 58.3962 7.73483 58.3672C7.62173 58.3152 7.74247 58.2847 7.74553 58.2449C7.75622 58.0845 7.58811 57.9622 7.5117 57.9851C7.18923 58.0799 6.96151 57.8491 6.75061 57.7345C6.43884 57.5648 6.13318 57.5114 5.80307 57.4732C5.75723 57.4686 5.69609 57.4579 5.66858 57.4273C5.37668 57.088 4.91972 57.1003 4.57586 56.9092C4.21213 56.7075 3.77657 56.6647 3.46021 56.3621C3.33795 56.2444 3.15761 56.1634 2.9895 56.1221C2.54935 56.0121 2.34456 55.6117 2.00528 55.3809C1.95485 55.3458 1.97166 55.2969 1.97472 55.2464C1.99458 54.8491 1.9793 54.4533 1.9793 54.0574C1.98083 53.7457 2.05724 53.3942 2.27732 53.1588C2.5249 52.8944 2.64563 52.5689 2.82444 52.2724C3.52593 51.1063 4.09598 49.8699 4.71646 48.6595C5.13521 47.8388 5.52951 47.009 5.91464 46.1745C6.2692 45.4058 6.5611 44.608 6.89274 43.8271C7.32983 42.7955 7.77304 41.7685 8.2468 40.7537C8.66097 39.8688 9.01706 38.9549 9.35634 38.0364C9.72007 37.0522 10.1297 36.0863 10.4842 35.099C10.6661 34.5932 10.9106 34.1163 11.0558 33.5921C11.1918 33.097 11.4654 32.637 11.6029 32.1387C11.852 31.2233 12.2601 30.3644 12.5275 29.4535C12.6513 29.0302 12.7996 28.6008 12.9845 28.1912C13.2947 27.5065 13.469 26.7745 13.6936 26.0608C13.9932 25.0995 14.2637 24.1305 14.5525 23.1677C14.7252 22.5946 14.9254 22.0307 15.0782 21.453C15.2036 20.9761 15.2647 20.4825 15.442 20.0164C15.7675 19.1651 15.8317 18.2497 16.067 17.3755C16.1649 17.0148 16.2642 16.645 16.2871 16.2492C16.3024 15.9618 16.4155 15.6195 16.5041 15.3077C16.6325 14.8569 16.6707 14.3816 16.796 13.9307C16.8954 13.5731 16.9259 13.2033 16.9748 12.8457C17.0727 12.1381 17.3951 11.4626 17.2744 10.7183C17.2331 10.4661 17.3905 10.2124 17.4226 9.94345C17.4608 9.62709 17.3814 9.66224 17.1292 9.77534C17.5006 9.30462 17.4608 8.76972 17.5097 8.26845C17.5327 8.03003 17.6335 7.81607 17.6763 7.59141C17.7848 7.01984 17.8414 6.43756 17.9682 5.86904C17.9866 5.79109 17.9881 5.70551 18.0233 5.63674C18.2326 5.22104 18.3213 4.76714 18.4359 4.32394C18.4863 4.12679 18.6575 4.04885 18.7675 3.9113C19.2963 3.24803 20.0116 3.08756 20.8124 3.14105C21.1899 3.16703 21.5643 3.16855 21.9418 3.07074C22.1206 3.0249 22.3177 3.18384 22.5302 3.12882C22.7487 3.0738 22.9657 3.14105 23.1843 3.17008C23.4823 3.20982 23.7864 3.14716 24.0921 3.15022C24.5062 3.1548 24.9204 3.24038 25.3346 3.17314C25.8007 3.09673 26.2592 3.1762 26.7192 3.2251C26.817 3.2358 27.1517 3.12576 27.251 3.0524C27.303 3.01267 27.3229 3.04324 27.3397 3.07686C27.4833 3.37029 27.7875 3.36723 28.0305 3.38557C28.9169 3.45129 29.7865 3.62093 30.6576 3.78445C31.5776 3.95562 32.4931 4.14971 33.41 4.33617C33.5491 4.36367 33.6836 4.39883 33.8227 4.33769C33.8578 4.32241 33.9098 4.30866 33.9388 4.32394C34.3943 4.55624 34.9123 4.54554 35.3876 4.70143C35.8339 4.84661 36.2939 4.9001 36.7631 4.93984C37.1375 4.9704 37.5135 5.0132 37.8757 5.21493C38.1431 5.36165 38.4809 5.45334 38.8248 5.45181C39.0341 5.45181 39.2466 5.56185 39.4544 5.6291C39.8426 5.75594 40.2552 5.79721 40.6358 5.95156C40.81 6.02339 41.0148 5.92558 41.1691 6.00047C41.5313 6.17469 41.9639 6.1319 42.297 6.40241C42.4254 6.50939 42.6057 6.60109 42.7998 6.51397C42.838 6.49716 42.8869 6.47424 42.9038 6.51856C42.9954 6.77073 43.2339 6.72029 43.4127 6.75239C43.8971 6.83644 44.3801 6.91591 44.8477 7.07638C44.9364 7.10695 45.0449 7.15891 45.1167 7.04276C45.2833 6.77531 45.3918 6.98316 45.482 7.09931C45.6516 7.31632 45.9206 7.40955 46.1758 7.30104C46.2461 7.27047 46.292 7.24449 46.3653 7.29493C46.6694 7.5043 47.0148 7.596 47.377 7.62962C48.0846 7.69534 48.7525 7.94445 49.4433 8.08352C49.5961 8.11562 49.7184 8.13396 49.7841 7.89554C49.8911 8.21343 50.1096 8.22871 50.3434 8.27914C50.6904 8.35403 51.0342 8.46101 51.372 8.58786C51.8198 8.75597 52.2416 8.9684 52.6664 9.18236C52.8896 9.29545 53.0913 9.4223 53.2716 9.61487C53.5605 9.92511 53.8937 10.2017 54.2375 10.4493C54.4026 10.567 54.5279 10.755 54.748 10.7947C54.6532 11.0224 54.8672 11.1661 54.91 11.3602C54.9833 11.6994 54.9375 12.0326 54.9482 12.3688C54.9696 13.0046 54.9222 13.6419 54.8519 14.2716C54.7984 14.7484 54.6654 15.2176 54.5157 15.6791C54.3277 16.2614 54.1565 16.8513 54.0083 17.4412C53.9609 17.6307 53.9105 17.7897 53.802 17.9364C53.6797 18.103 53.8111 18.3078 53.6675 18.4912C53.4199 18.8075 53.4184 19.2584 53.1402 19.5747C53.0607 19.6664 53.0867 19.8208 53.0577 19.943C53.0103 20.1386 52.8911 20.2899 52.8239 20.4703C52.7994 20.5345 52.7444 20.6109 52.7643 20.6628C52.885 20.9777 52.6512 21.1733 52.5564 21.4239C52.4785 21.6333 52.4021 21.8687 52.3088 22.0582C52.1652 22.347 52.1254 22.6618 51.9833 22.94C51.7862 23.3251 51.7128 23.7607 51.5065 24.1321C51.3582 24.398 51.3154 24.7006 51.132 24.9604C50.9869 25.1652 50.9166 25.4647 50.8753 25.7261C50.8478 25.8972 50.7011 25.8988 50.6598 26.0149C50.5681 26.2671 50.4825 26.5238 50.3725 26.7699C50.2426 27.0603 50.212 27.3797 50.0302 27.6639C49.7535 28.0964 49.7184 28.6359 49.5182 29.1036C49.3394 29.5223 49.2247 29.9686 48.9802 30.3583C48.858 30.5539 48.8182 30.7832 48.7036 30.9879C48.4667 31.4189 48.2451 31.8728 48.1122 32.3435C48.0159 32.6828 47.8661 33.0068 47.7423 33.3232C47.6246 33.6258 47.5879 33.965 47.3847 34.2615C47.2105 34.5168 47.1142 34.8637 47.0225 35.1831C46.9782 35.3359 46.8865 35.4414 46.8085 35.5667C46.535 36.0023 46.4402 36.5142 46.211 36.9742C46.0077 37.3854 45.9038 37.8591 45.6608 38.2534C45.1671 39.0542 44.9761 39.9789 44.5788 40.8194C44.4702 41.0502 44.3128 41.3329 44.4229 41.634C44.4458 41.6951 44.3709 41.7073 44.3449 41.7456C44.1264 42.0604 44.0072 42.4149 43.9277 42.7863C43.9002 42.9116 43.8819 43.0415 43.7993 43.1501C43.5655 43.4496 43.431 43.8087 43.3042 44.1541C43.1498 44.5714 42.8625 44.9076 42.7188 45.3279C42.54 45.8444 42.2802 46.3319 42.1075 46.85C41.8813 47.5301 41.4855 48.1353 41.2822 48.8215C41.082 49.5016 40.6358 50.0732 40.4142 50.741C40.3164 51.033 40.1696 51.3004 40.0581 51.5831C40.0031 51.7237 39.9068 51.8384 40.0183 51.9973C40.0443 52.0355 40.0138 52.1486 39.9725 52.1914C39.65 52.5276 39.5217 52.9815 39.3948 53.388C39.2848 53.7441 39.1044 54.1063 39.1197 54.5174C39.1289 54.765 38.9806 55.0325 38.8767 55.2617C38.5604 55.9525 38.4412 56.6968 38.2486 57.4151C38.0637 58.1043 37.9154 58.8119 37.7794 59.5165C37.7167 59.8405 37.5853 60.1599 37.5761 60.4762C37.5639 60.8522 37.3836 61.1624 37.3056 61.5078C37.2415 61.7844 36.9847 62.0381 36.7203 62.1008C36.3107 62.2001 35.9363 62.3744 35.5405 62.4997C35.1737 62.6143 34.784 62.6724 34.4355 62.8283C34.1528 62.9536 33.8135 62.8558 33.5675 63.0804C33.5522 63.0957 33.5063 63.1018 33.491 63.0911C33.0891 62.7839 32.626 62.9521 32.192 62.9368C31.9673 62.9291 31.7274 62.9093 31.5088 63.0499C31.408 63.1156 31.4615 62.8879 31.3469 62.8894C31.113 62.8909 30.8807 62.9001 30.6454 62.8848C30.546 62.8787 30.4818 62.9062 30.3856 62.8283C30.222 62.6968 29.6596 62.8069 29.5098 62.9903C29.4273 62.8099 29.4013 62.5822 29.1568 62.6219C28.7793 62.6816 28.3988 62.2643 27.9984 62.6113C27.9602 62.3637 27.7997 62.3499 27.5873 62.4676C27.5353 62.4966 27.4665 62.5303 27.4329 62.4493C27.3366 62.2154 27.0997 62.2873 26.9301 62.22C26.8338 62.1818 26.7299 62.194 26.7131 62.3423C26.7054 62.3973 26.6779 62.4706 26.6 62.4615C26.5358 62.4523 26.5007 62.3912 26.493 62.33C26.4548 61.9938 26.2057 62.0458 25.9978 62.0855C25.8603 62.1115 25.7824 62.1054 25.654 62.0198C25.4431 61.8777 25.197 61.6943 24.9189 61.9281C24.8669 61.9724 24.7874 61.9694 24.7569 61.9159C24.5949 61.6209 24.3167 61.6591 24.0447 61.627C23.8659 61.6056 23.7008 61.4941 23.5174 61.6118C23.493 61.627 23.4227 61.6331 23.4594 61.5613C23.5434 61.3932 23.412 61.4406 23.3539 61.4666C23.1461 61.5598 22.9764 61.5292 22.8297 61.3535C22.8007 61.3183 22.7457 61.2832 22.7044 61.2862C22.3483 61.3153 22.0533 61.0921 21.6973 61.0539C21.3259 61.0157 20.9285 60.9256 20.548 60.8598C20.2439 60.8063 19.9535 60.7544 19.6524 60.6749C19.2107 60.5603 18.7278 60.49 18.2693 60.4059C17.8704 60.331 17.4715 60.3891 17.0834 60.2928C17.0451 60.2837 16.9825 60.2837 16.9718 60.2607C16.8373 59.9627 16.5958 60.114 16.391 60.1186C16.3574 60.1186 16.3024 60.1706 16.2932 60.1156C16.2504 59.8527 16.012 59.9062 15.873 59.8985C15.2005 59.8573 14.5678 59.5348 13.8862 59.599ZM61.7506 32.4536C61.7903 32.6247 61.5947 32.8356 61.8239 32.9931C61.8316 32.9992 61.8316 33.0313 61.8255 33.045C61.5748 33.5234 61.7277 34.0415 61.6833 34.5412C61.6467 34.9798 61.7414 35.4123 61.8881 35.8189C61.9875 36.094 62.1602 36.3629 62.3619 36.5769C62.7883 37.0323 63.1627 37.5519 63.7908 37.7858C64.0675 37.8882 64.0705 38.1067 63.878 38.3375C63.2911 39.0451 62.7272 39.771 62.1281 40.4679C61.315 41.4154 60.6747 42.4898 59.9029 43.4695C59.3833 44.1297 58.9309 44.8495 58.4266 45.525C58.0857 45.9835 57.8168 46.4939 57.395 46.8928C57.207 47.0716 57.152 47.3452 57.0083 47.5622C56.423 48.4486 55.8865 49.3656 55.2844 50.2382C54.9986 50.6539 54.6761 51.0498 54.4056 51.4746C54.2284 51.7558 54.0129 52.0187 53.8768 52.3213C53.6644 52.7981 53.2732 53.1557 53.047 53.6188C52.7551 54.2164 52.2981 54.7177 52.0658 55.3473C52.0597 55.3656 52.0475 55.384 52.0353 55.3993C51.482 56.0916 51.1213 56.8939 50.7057 57.6688C50.5039 58.0463 50.3664 58.4513 50.1539 58.8135C49.6404 59.6892 49.1621 60.5817 48.7036 61.4864C48.3368 62.2047 47.9196 62.894 47.5375 63.6016C47.296 64.0494 47.0576 64.5201 46.8681 65.0076C46.6588 65.5456 46.4799 66.0896 46.3179 66.6398C46.266 66.8186 46.0811 66.7178 46.0062 66.8247C45.8931 66.9867 45.8213 66.947 45.7265 66.7942C45.6745 66.7132 45.5141 66.6979 45.4468 66.7407C45.1412 66.9409 44.8447 66.7254 44.5467 66.7315C44.2899 66.7376 44.0163 66.8477 43.755 66.7147C43.7214 66.6979 43.6343 66.7697 43.5808 66.8125C43.4662 66.9027 43.3546 67.0677 43.269 66.7881C43.2629 66.7682 43.2018 66.7621 43.1651 66.7544C42.8243 66.6902 42.4972 66.8308 42.1549 66.8186C42.0403 66.814 41.9501 66.9898 41.753 66.8721C41.6001 66.7804 41.0438 67.0525 40.8742 67.2343C40.8879 67.0051 40.781 66.9715 40.6251 67.0631C40.3057 67.2481 39.9114 67.2206 39.5981 67.4743C39.4712 67.5782 39.2221 67.566 39.1304 67.7784C38.8966 67.5354 38.7514 67.8823 38.5512 67.8655C38.5329 67.864 38.5099 67.8716 38.4946 67.8823C38.0683 68.2109 37.5593 68.3943 37.0871 68.6694C37.0871 68.6189 37.0779 68.5578 37.0886 68.4997C37.162 68.1085 37.1115 68.0626 36.705 68.1666C36.6775 68.1742 36.6515 68.1864 36.6087 68.2017C36.705 68.0122 36.6699 67.8823 36.4727 67.8166C36.2542 67.7448 36.0708 67.54 35.8064 67.6485C35.7728 67.4498 35.5374 67.4972 35.4778 67.4131C35.3341 67.216 35.0529 67.2985 34.9414 67.0891C34.9292 67.0662 34.8909 67.0479 34.8634 67.0463C34.5318 67.0158 34.2506 66.8614 33.9618 66.7101C33.8884 66.6719 33.8028 66.6322 33.7233 66.5985C33.5705 66.5359 33.4161 66.3357 33.2205 66.5252C33.2098 66.5344 33.2205 66.5833 33.1716 66.5405C32.9638 66.3586 32.7896 66.2975 32.5771 66.3128C32.5496 66.3143 32.5068 66.3265 32.4961 66.3143C32.2547 66.001 31.8833 65.9872 31.5501 65.8604C31.2032 65.729 30.8563 65.7305 30.5139 65.6495C30.2434 65.5853 30.3107 65.3117 30.274 65.0962C30.5155 65.4202 30.8089 65.3897 31.1146 65.2644C31.3835 65.1543 31.654 65.2078 31.9108 65.2827C32.0988 65.3377 32.2638 65.2552 32.4396 65.2613C32.5404 65.2644 32.5374 65.1558 32.5756 65.0657C32.6123 65.2445 32.7131 65.3438 32.8736 65.298C33.1793 65.2109 33.5415 65.3178 33.7967 65.1329C34.0427 64.9541 34.3438 65.0687 34.5792 64.8823C34.7014 64.7845 34.9093 64.8655 35.082 64.7982C35.351 64.6928 35.5863 64.5201 35.8415 64.4253C36.0586 64.3443 36.3046 64.3046 36.5354 64.2282C36.7295 64.164 36.9052 64.0616 36.9923 63.9072C37.1131 63.6948 37.2919 63.6077 37.4829 63.4992C37.7718 63.3341 37.9322 63.0438 38.0774 62.7641C38.4549 62.0366 38.8568 61.3153 39.1518 60.5527C39.4712 59.7258 39.6699 58.8547 39.8716 57.9867C40.0856 57.0651 40.2797 56.139 40.5685 55.2342C40.7703 54.5969 40.9796 53.9581 41.1523 53.3147C41.2608 52.9127 41.4504 52.5383 41.5222 52.1287C41.5634 51.8857 41.7071 51.9056 41.8676 51.9774C41.9776 52.0263 42.054 52.1211 42.132 52.2158C42.3368 52.4588 42.6821 52.5429 42.9863 52.4191C43.1024 52.3717 43.2568 52.4054 43.3057 52.4283C43.5181 52.5307 43.7382 52.358 43.9338 52.4818C43.9415 52.4864 43.9567 52.4802 43.9629 52.4848C44.0729 52.5964 44.1065 52.1853 44.2731 52.4451C44.3189 52.5169 44.6475 52.4359 44.6766 52.3977C44.8921 52.1272 45.1381 52.3274 45.3643 52.303C45.5293 52.2846 45.6868 52.2113 45.8457 52.1593C46.3852 51.9835 46.9186 51.7772 47.4091 51.5098C47.8768 51.253 48.4117 51.0819 48.7464 50.5867C48.9496 50.2841 49.2691 50.0548 49.5442 49.8042C49.7169 49.6453 49.8269 49.4466 49.9614 49.2739C50.4367 48.6656 50.8111 47.9871 51.1213 47.2764C51.3384 46.7828 51.5752 46.2983 51.7846 45.8032C51.9313 45.4547 51.9023 45.0681 51.9772 44.7028C51.9971 44.608 51.9833 44.5072 52.0062 44.4078C52.0307 44.2993 52.1606 44.1343 51.9115 44.0899C51.8931 44.0869 51.8763 43.9555 51.8947 43.8959C52.1224 43.1974 52.0154 42.499 51.8977 41.8006C51.884 41.7272 51.8763 41.6111 51.7693 41.6386C51.67 41.6646 51.7907 41.7578 51.7541 41.8204C51.6364 41.825 51.5737 41.7272 51.5936 41.6539C51.7602 41.0716 51.4866 40.6009 51.21 40.1439C51.0205 39.8321 50.75 39.5723 50.6277 39.2147C50.5987 39.1307 50.4841 39.1062 50.4168 39.0359C50.3358 38.9503 50.2258 38.9106 50.2563 38.7562C50.2655 38.715 50.2013 38.6233 50.1616 38.6172C49.8788 38.5744 49.8391 38.3375 49.7413 38.1357C49.7 38.0517 49.6083 37.9508 49.5273 37.9371C49.1743 37.8805 49.0734 37.5397 48.8396 37.3517C48.6837 37.2249 48.5416 37.1072 48.3445 37.0568C47.9853 36.9666 47.915 36.8306 48.0556 36.4913C48.4621 35.5117 48.89 34.5412 49.2736 33.5524C49.7031 32.4459 50.157 31.3502 50.6094 30.2528C51.1565 28.9248 51.6914 27.5921 52.1621 26.2319C52.4739 25.3318 52.9186 24.479 53.2518 23.5849C53.4122 23.1478 53.6873 22.7551 53.7408 22.2737C53.7729 21.9833 53.9089 22.2232 54.0052 22.2416C54.4148 22.3226 54.7816 22.5335 55.1927 22.616C55.5687 22.6924 55.9125 22.8621 56.2426 23.0745C56.5896 23.2961 56.9976 23.4046 57.3644 23.6079C58.0017 23.9609 58.5672 24.4255 59.2151 24.748C60.0618 25.1682 60.7908 25.7887 61.6787 26.1387C61.9187 26.2319 62.1433 26.3924 62.3711 26.5299C62.8097 26.7959 63.288 26.9747 63.7542 27.181C63.9085 27.2482 63.9162 27.3078 63.8214 27.4148C63.311 27.9849 62.9564 28.6558 62.6141 29.3267C62.449 29.6492 62.3191 29.9991 62.1938 30.3476C62.0822 30.6609 61.9844 30.9742 61.9065 31.2936C61.8148 31.6726 61.6543 32.0394 61.7506 32.4536ZM49.6863 45.3905C49.7688 46.1592 49.6527 46.8928 49.3119 47.5699C49.0413 48.1063 48.644 48.6076 48.0923 48.849C47.4122 49.147 46.7245 49.4558 45.9741 49.5887C45.6669 49.6437 45.3704 49.7706 45.0464 49.7706C44.9669 49.7706 44.8691 49.7996 44.8111 49.8852C44.7774 49.9372 44.7025 49.9998 44.6643 49.9662C44.3541 49.7018 44.0133 50.1038 43.7015 49.9173C43.6847 49.9081 43.6282 49.9448 43.6037 49.9723C43.483 50.1083 43.3852 50.3361 43.214 49.9937C43.1987 49.9632 42.9282 49.8332 42.78 49.8332C42.6378 49.8348 42.5675 50.0243 42.5461 50.1542C42.5095 50.3804 42.4086 50.4996 42.1579 50.4858C43.6404 46.6177 45.5874 42.9376 46.995 38.9763C47.5131 39.4058 47.9303 39.8673 48.2742 40.3946C48.5355 40.795 48.8106 41.1908 49.0322 41.6126C49.1758 41.8877 49.2354 42.2071 49.3348 42.5051C49.5197 43.0584 49.6924 43.6147 49.7062 44.2015C49.7153 44.5973 49.645 44.9993 49.6863 45.3905ZM73.8515 30.884C73.85 31.4357 73.6269 31.9217 73.3915 32.3986C73.2952 32.5942 73.1929 32.7913 73.1057 32.9915C73.0217 33.1841 72.8964 33.3461 72.7924 33.5234C72.337 34.3028 71.7563 35.0028 71.3268 35.7929C71.0303 36.34 70.6253 36.8352 70.4572 37.4495C70.4175 37.5978 70.2616 37.5993 70.1882 37.7155C69.4027 38.9687 68.4231 40.0782 67.5214 41.2443C66.9422 41.9931 66.3477 42.7359 65.7547 43.4756C65.2244 44.1373 64.6543 44.77 64.1576 45.4562C63.8795 45.8414 63.5998 46.2311 63.3369 46.6315C63.0878 47.009 62.7455 47.3314 62.4643 47.6952C62.1877 48.0513 61.9248 48.4196 61.6482 48.7757C61.153 49.4099 60.6838 50.064 60.2055 50.709C59.9151 51.1017 59.6156 51.4976 59.3665 51.9301C59.2503 52.1333 59.0715 52.3244 58.9156 52.5154C58.3517 53.2108 57.8641 53.9566 57.4118 54.7314C57.1076 55.2495 56.7042 55.7095 56.3817 56.2184C56.1509 56.5822 55.9248 56.9535 55.6925 57.3142C55.5075 57.6 55.2645 57.8705 55.0704 58.1578C54.8534 58.4818 54.615 58.7982 54.4607 59.1619C54.3338 59.4599 54.0816 59.6754 53.9135 59.9459C53.5926 60.461 53.3435 61.0142 53.0623 61.5506C52.8407 61.9709 52.5763 62.3667 52.3501 62.7839C52.1973 63.0667 52.0628 63.3616 51.9512 63.6627C51.9054 63.785 51.803 63.8476 51.751 63.9561C51.3277 64.8532 50.9059 65.7488 50.5268 66.6689C50.3205 67.1671 50.0607 67.6577 49.8254 68.1513C49.6725 68.4722 49.5105 68.7886 49.3409 69.1004C49.1697 69.4182 49.1116 69.7972 48.9512 70.106C48.7953 70.404 48.8136 70.783 48.5263 71.0168C48.4438 71.0841 48.3934 71.1865 48.3811 71.3057C48.3506 71.6052 48.2176 71.8727 48.0449 72.1096C47.9318 72.2639 47.9822 72.4412 47.9303 72.6032C47.7958 73.0326 47.5559 73.3857 47.3205 73.7509C47.2884 73.7998 47.2426 73.8579 47.2456 73.9099C47.2701 74.3989 46.9598 74.7734 46.8116 75.2028C46.6649 75.6261 46.4784 76.0357 46.3806 76.4789C46.3011 76.832 46.2354 77.2522 46.0062 77.4906C45.8014 77.7031 45.7616 78.1799 45.2986 78.102C45.2313 78.0913 45.1366 78.131 45.0984 78.0668C44.9379 77.7932 44.6918 77.9109 44.4993 77.9614C44.3067 78.0118 44.0561 77.8055 43.9201 78.0882C43.7856 78.0011 43.6526 77.9125 43.5181 77.8284C43.2598 77.6649 42.9893 77.5258 42.7188 77.3852C42.4483 77.2446 42.1488 77.1315 41.9073 76.9221C41.8187 76.8442 41.7193 76.7082 41.5191 76.809C41.4458 76.8457 41.2593 76.6409 41.1172 76.563C40.7183 76.3429 40.3179 76.1305 39.916 75.9165C39.5186 75.7041 39.164 75.4259 38.7162 75.2853C38.539 75.2288 38.3632 75.024 38.1554 74.9277C37.7672 74.7489 37.3866 74.5548 36.9969 74.3806C36.8961 74.3363 36.7769 74.2782 36.6531 74.3424C36.6057 74.3668 36.5659 74.3806 36.54 74.3072C36.4284 73.9771 36.216 73.8365 35.8553 73.9083C35.756 73.9282 35.6383 73.8289 35.5863 73.7158C35.5206 73.5706 35.3846 73.5232 35.2562 73.4758C34.8573 73.3291 34.4829 73.1366 34.1115 72.9287C33.6653 72.6796 33.219 72.3984 32.7208 72.2914C32.4503 72.2349 32.2608 72.1676 32.0621 71.9659C31.8818 71.7825 31.5639 71.7856 31.3331 71.6388C31.275 71.6022 31.2169 71.6373 31.2001 71.7107C31.1864 71.7687 31.2322 71.8773 31.1084 71.8497C31.0336 71.8329 31.0015 71.755 31.0091 71.6816C31.029 71.4952 30.8884 71.4249 30.763 71.3851C30.4788 71.298 30.2388 71.0703 29.8904 71.1498C29.7941 71.1712 29.655 70.971 29.5068 70.8946C29.0086 70.6348 28.4783 70.4468 27.9602 70.2573C27.5903 70.1228 27.2419 69.8905 26.8659 69.8416C26.3402 69.7728 25.978 69.3189 25.4217 69.322C25.2979 69.322 25.0824 69.1202 24.8898 69.0484C24.8058 69.0163 24.708 68.9735 24.63 68.9934C24.4787 69.0285 24.3381 69.108 24.2908 68.8696C24.2862 68.8451 24.2098 68.8084 24.1899 68.8191C23.8781 68.9842 23.7818 68.6144 23.5511 68.5685C23.3432 68.5257 23.1598 68.4187 22.9229 68.434C22.7548 68.4463 22.5623 68.3897 22.3819 68.2659C22.1267 68.0917 21.8531 67.8273 21.4756 67.9923C21.4634 67.9985 21.4283 67.9862 21.4237 67.9755C21.2999 67.6546 20.9851 67.7432 20.7512 67.6561C20.4364 67.5384 20.1292 67.4009 19.819 67.2725C19.6295 67.1946 19.4629 67.0479 19.2275 67.1365C19.0671 67.1961 19.0778 66.9439 18.8944 66.9455C18.5276 66.947 18.2128 66.7223 17.872 66.6047C17.8536 66.597 17.8322 66.5772 17.8169 66.5817C17.4746 66.6887 17.2637 66.3433 16.9535 66.3296C16.7639 66.3204 16.6447 66.1477 16.4568 66.0912C15.9096 65.923 15.4267 65.6235 15.0018 65.2338C14.9682 65.2017 14.9193 65.1971 14.956 65.1222C15.1165 64.8013 15.0599 64.4452 15.1149 64.109C15.1959 63.6107 15.3319 63.1095 15.581 62.6678C15.6789 62.4936 15.9555 62.6113 16.145 62.6326C16.5286 62.677 16.8877 62.8206 17.2805 62.8665C17.6717 62.9108 18.1379 62.9521 18.4634 63.1951C18.6712 63.3509 18.8531 63.568 19.0839 63.7177C19.5087 63.9928 19.9428 64.2419 20.441 64.355C20.5098 64.3703 20.5954 64.3535 20.629 64.4253C20.7757 64.7371 21.0661 64.7432 21.3457 64.7722C21.4863 64.7875 21.6056 64.8273 21.7079 64.9373C21.9219 65.1696 22.2383 65.2751 22.5088 65.3499C23.0085 65.4875 23.4242 65.8191 23.9408 65.8971C24.008 65.9078 24.0676 65.9888 24.1272 66.0423C24.2816 66.1783 24.4497 66.2852 24.6621 66.2761C24.925 66.2654 25.1221 66.4396 25.356 66.5084C25.3728 66.513 25.3865 66.5344 25.3988 66.5496C25.602 66.7972 25.871 66.4992 26.0636 66.6199C26.2393 66.7315 26.2607 67.0891 26.5985 66.9501C26.6153 66.9439 26.6504 66.9455 26.6535 66.9531C26.8644 67.4101 27.3657 67.2389 27.7111 67.4284C28.2551 67.7264 28.8573 67.9587 29.4625 68.0963C29.8079 68.1742 30.0692 68.4035 30.4131 68.4524C31.1894 68.5624 31.8848 68.9384 32.6016 69.2104C33.2832 69.4702 33.9954 69.6566 34.6602 69.9913C35.2501 70.2894 35.8629 70.5889 36.5262 70.7203C36.6592 70.7463 36.8395 70.8655 36.8899 70.5889C36.9083 70.4896 37.0718 70.4529 37.1498 70.4911C37.3438 70.5843 37.489 70.4758 37.625 70.3979C37.9827 70.1946 38.38 70.1151 38.7606 69.9837C39.0387 69.8874 39.3016 69.7606 39.5079 69.5436C39.5461 69.5038 39.5904 69.4626 39.6347 69.4931C39.9511 69.7163 40.2384 69.5053 40.541 69.4534C40.9002 69.3892 41.267 69.3617 41.6292 69.3128C42.0846 69.2517 42.5415 69.296 42.9939 69.2776C43.7963 69.2471 44.6017 69.3326 45.401 69.2257C45.4101 69.2241 45.4208 69.2241 45.43 69.2226C45.6088 69.2012 45.7219 69.1049 45.8411 68.9659C45.8992 68.8986 46.0627 69.1493 46.2629 69.079C46.5823 68.9674 46.729 68.7015 46.8651 68.4447C47.3556 67.5171 47.7713 66.5527 48.1825 65.5853C48.4468 64.9602 48.6333 64.3015 48.971 63.7086C49.1544 63.3846 49.3913 63.0911 49.5793 62.7656C49.9568 62.1054 50.2594 61.4085 50.6323 60.7452C50.9884 60.111 51.3552 59.4783 51.6761 58.8257C52.1224 57.9194 52.6542 57.062 53.1754 56.2001C53.588 55.5185 54.0465 54.8659 54.4683 54.1935C54.8106 53.6479 55.208 53.1405 55.5152 52.5719C55.7276 52.1792 55.9813 51.7925 56.2457 51.4486C56.5254 51.088 56.8264 50.7258 57.0633 50.3422C57.4821 49.6667 57.9253 49.0095 58.3685 48.3508C58.882 47.5867 59.4368 46.85 59.9778 46.1058C60.4332 45.4792 60.884 44.8526 61.2967 44.1954C61.5412 43.8057 61.8469 43.4511 62.1403 43.0904C62.478 42.6732 62.7272 42.1857 63.045 41.7517C63.2728 41.4399 63.4271 41.0563 63.6946 40.8041C64.1622 40.3609 64.4052 39.768 64.8316 39.311C65.0731 39.0512 65.3283 38.8021 65.5652 38.5362C65.7241 38.3573 65.7944 38.1648 65.8326 37.9233C65.8724 37.6681 66.0405 37.4388 66.1948 37.2218C66.4134 36.9131 66.4302 36.6961 66.2575 36.4088C66.2208 36.3461 66.1734 36.3461 66.1368 36.3736C65.8861 36.5692 65.8494 36.3156 65.8082 36.1918C65.7684 36.0756 65.7272 36.042 65.6156 36.013C65.4643 35.9732 65.4857 36.1291 65.3665 36.1856C65.3512 35.747 65.0578 35.475 64.7751 35.2351C64.558 35.0517 64.4006 34.8056 64.1439 34.6635C63.9941 34.5794 63.9758 34.4434 64.0048 34.2539C64.0537 33.9314 63.9238 33.6105 63.9238 33.2789C63.9253 33.0343 63.9697 32.7577 63.7435 32.5499C63.6839 32.4933 63.7221 32.3848 63.7893 32.3053C63.907 32.1693 63.9406 32.0012 63.9238 31.8254C63.8535 31.0445 63.9421 30.2834 64.1515 29.5254C64.2738 29.0791 64.3838 28.6359 64.6727 28.2645C64.8591 28.0231 65.0807 27.8106 65.2901 27.5875C65.4001 27.4714 65.5423 27.3476 65.5957 27.2039C65.7761 26.7194 66.0099 26.261 66.233 25.7948C66.4042 25.4372 66.3049 25.1942 65.8983 25.1575C65.5652 25.1285 65.3894 24.8947 65.125 24.7907C65.0058 24.7418 64.9126 24.6731 64.7689 24.696C64.6238 24.7204 64.5657 24.5478 64.4449 24.4836C63.8917 24.1901 63.2819 24.0113 62.7684 23.6155C62.559 23.455 62.2641 23.3297 61.989 23.2273C61.6543 23.102 61.3532 22.9232 61.0522 22.7245C60.6441 22.4571 60.2498 22.1407 59.7531 22.0322C59.692 22.02 59.6828 21.968 59.6446 21.9436C59.2931 21.7281 58.9401 21.511 58.5824 21.3032C58.5183 21.2665 58.4174 21.2421 58.3532 21.2665C58.1988 21.3215 58.1071 21.2589 58.0109 21.158C57.9024 21.0434 57.7984 20.9441 57.6043 20.9899C57.5096 21.0128 57.4622 20.7591 57.2926 20.8646C57.1825 20.6109 57.1061 20.8355 56.9945 20.9395C57.0389 20.5987 56.8906 20.6017 56.6446 20.536C56.4 20.4703 56.0852 20.5635 55.882 20.3113C55.8086 20.2227 55.6711 20.1982 55.6756 20.3954C55.6772 20.4764 55.6069 20.4886 55.5885 20.455C55.4922 20.2823 55.2569 20.3786 55.156 20.2212C55.1224 20.1707 55.0674 20.1509 54.9986 20.1539C54.6028 20.1738 54.589 20.1493 54.7174 19.7856C54.9421 19.1437 55.0934 18.4774 55.4128 17.8691C55.6115 17.4917 55.668 17.4443 56.0531 17.6093C56.6675 17.8722 57.2742 18.1473 57.858 18.4774C58.0567 18.5905 58.2584 18.7021 58.506 18.7326C58.7826 18.7662 58.989 18.994 59.2396 19.1162C59.7592 19.3684 60.2483 19.6802 60.745 19.9766C61.0812 20.1769 61.3945 20.4275 61.7475 20.5941C62.1739 20.7958 62.5499 21.0755 62.9625 21.2925C64.2692 21.9802 65.4261 22.911 66.7252 23.6033C67.0446 23.7744 67.3472 23.9808 67.6864 24.129C67.8698 24.21 68.0593 24.3812 68.2565 24.5019C68.9152 24.9069 69.5937 25.2676 70.283 25.6206C71.1434 26.0592 71.9779 26.562 72.771 27.1137C73.3182 27.4943 73.6452 28.1025 73.8454 28.7368C73.8959 28.9003 73.85 29.1311 73.8622 29.3343C73.8913 29.8494 73.8546 30.3675 73.8515 30.884ZM17.8123 58.6729C17.9896 58.7294 18.1791 58.7844 18.3641 58.6606C18.4237 58.6209 18.5016 58.6285 18.5612 58.6805C18.8164 58.9036 19.1343 58.9464 19.4507 59.003C20.0329 59.1084 20.6259 59.168 21.199 59.33C21.5842 59.4401 21.9616 59.6326 22.3743 59.4294C22.4003 59.4171 22.4538 59.4416 22.4858 59.4615C23.0956 59.8221 23.7849 59.7335 24.4359 59.7411C24.9693 59.7472 25.5164 59.709 26.0498 59.709C26.5419 59.7106 26.7941 59.4798 27.0019 59.1313C27.3504 58.5475 27.8394 58.1318 28.4202 57.7895C28.7518 57.5954 29.0804 57.3738 29.3738 57.1369C29.6718 56.9 30.0035 56.7044 30.3168 56.5394C30.705 56.3346 31.0718 56.0901 31.4447 55.8715C32.1507 55.4589 32.9026 55.1731 33.6469 54.8613C34.1054 54.6703 34.6372 54.6901 35.0545 54.3753C35.1125 54.331 35.1339 54.4227 35.1752 54.4273C35.3785 54.4456 35.6444 54.5526 35.756 54.3325C36.2389 53.3865 36.7386 52.4497 37.0367 51.4166C37.2155 50.7976 37.4019 50.1786 37.6373 49.5734C38.0637 48.47 38.3968 47.3314 38.7254 46.1959C39.028 45.1506 39.4391 44.1419 39.7417 43.0935C40.0688 41.9549 40.5517 40.8607 40.9812 39.7527C41.2792 38.9794 41.5986 38.2152 41.9119 37.448C42.2955 36.5127 42.6562 35.5682 43.0719 34.6482C43.891 32.8341 44.7667 31.0445 45.5691 29.2243C46.1468 27.9146 46.7535 26.6186 47.3052 25.2951C47.8157 24.0694 48.3872 22.8636 49.0307 21.696C49.5503 20.75 50.0133 19.7764 50.4382 18.7846C50.5421 18.5401 50.6476 18.268 50.5926 18.0021C50.5559 17.8202 50.562 17.6475 50.6308 17.51C50.7454 17.2792 50.6292 17.1998 50.4596 17.1203C50.1478 16.9736 49.833 16.8299 49.5228 16.6786C49.3944 16.6159 49.2354 16.6297 49.2125 16.7443C49.1682 16.9675 49.0444 16.81 48.9909 16.7993C48.8442 16.7703 48.9879 16.7138 48.997 16.6679C49.0276 16.5044 48.8656 16.3638 48.6791 16.3653C48.5278 16.3653 48.4468 16.5029 48.3017 16.5411C48.3551 16.3928 48.4652 16.3363 48.6333 16.2675C48.2252 16.0841 47.9547 15.8029 47.6796 15.5354C47.5421 15.3994 47.3067 15.3612 47.2548 15.1457C47.2166 14.9807 47.345 14.7316 47.0072 14.7453C46.9598 14.7469 46.9827 14.6399 46.998 14.5833C47.0622 14.3388 46.9751 14.2013 46.7214 14.1539C46.5579 14.1218 46.4815 14.0362 46.6404 13.8895C46.7428 13.7978 46.7459 13.7244 46.5976 13.6786C46.5426 13.6602 46.5151 13.6159 46.5472 13.5624C46.6817 13.3271 46.5166 13.1697 46.3974 13.0077C46.3378 12.9282 46.2828 12.8518 46.347 12.7677C46.4158 12.6776 46.4005 12.5996 46.3516 12.5186C46.2492 12.3444 46.3928 12.0341 46.0597 11.9837C46.0581 11.9822 46.0551 11.9241 46.0673 11.9027C46.214 11.6475 46.133 11.5268 45.8304 11.5466C45.8549 11.4733 45.8656 11.4244 45.8854 11.3785C45.9802 11.1737 46.0963 10.9689 45.7846 10.8344C45.6822 10.7901 45.8243 10.6847 45.7494 10.6235C45.9619 10.46 45.8014 10.3332 45.7464 10.1605C45.6975 10.0137 45.7632 9.85481 45.5293 9.82883C45.4927 9.82424 45.5477 9.73102 45.589 9.6867C45.7876 9.47579 45.7739 9.3734 45.5278 9.23279C45.3643 9.13804 45.1962 9.0494 45.025 8.96993C44.9012 8.91033 44.9364 8.68872 44.8187 8.69942C44.5772 8.71929 44.4473 8.56646 44.267 8.47935C44.0866 8.39529 43.888 8.23941 43.7076 8.24705C43.5044 8.25469 43.347 8.20731 43.1758 8.13396C42.8426 7.98724 42.4468 8.15994 42.1152 7.92153C42.0479 7.87262 41.8401 7.77634 41.7209 7.95209C41.6811 8.01017 41.6414 7.9582 41.6337 7.92917C41.5803 7.71979 41.403 7.78704 41.2715 7.77022C41.1218 7.75188 40.9521 7.80079 40.8222 7.74577C40.3286 7.53487 39.835 7.36217 39.2863 7.41566C39.2175 7.4233 39.1426 7.41413 39.0968 7.34842C38.9959 7.20629 38.8844 7.13293 38.7254 7.27353C38.6796 7.31327 38.6398 7.29187 38.597 7.25061C38.3617 7.03359 38.0102 7.15891 37.7595 6.97093C37.7244 6.94342 37.6266 6.99233 37.5624 7.01525C37.5028 7.03512 37.431 7.0611 37.3882 7.02136C37.1024 6.75086 36.7234 6.74474 36.3734 6.68667C36.0662 6.63471 35.7346 6.52773 35.4488 6.78754C35.3464 6.41158 35.3433 6.40699 35.0025 6.56746C34.9062 6.61178 34.8986 6.57052 34.9032 6.49869C34.9062 6.4452 34.9078 6.39171 34.8436 6.38101C34.4508 6.3153 34.058 6.18081 33.6607 6.2832C33.4299 6.34128 33.2343 6.10745 33.0112 6.24652C33.0005 6.25264 32.9607 6.22054 32.9393 6.2022C32.6994 5.98977 32.4075 5.94392 32.1568 6.09981C32.0713 6.1533 32.0162 6.14107 31.9383 6.10439C31.573 5.93322 31.1115 5.86139 30.7432 5.921C30.6897 5.93017 30.6698 5.90877 30.6561 5.86904C30.5858 5.66425 30.4131 5.73608 30.274 5.72996C30.1441 5.72538 30.0081 5.95462 29.8812 5.71315C29.8721 5.69787 29.7437 5.70857 29.7192 5.74219C29.5618 5.96073 29.3203 5.67036 29.1629 5.84458C28.8787 5.54198 28.7488 5.9103 28.5302 5.97602C28.544 5.74677 28.4492 5.67342 28.2307 5.80485C28.1909 5.8293 28.1283 5.84611 28.087 5.83389C27.6942 5.71315 27.384 5.81096 27.1425 6.27556C27.1624 5.94239 27.1318 5.76358 26.8644 5.64132C26.6504 5.54504 26.6443 5.59853 26.6443 5.76511C26.6458 5.87821 26.626 5.92253 26.4884 5.95615C26.2806 6.00811 25.9306 5.95004 26.0116 6.37337C26.0284 6.46354 25.8955 6.48188 25.8022 6.49869C25.5317 6.5476 25.2536 6.70042 25.3116 6.97704C25.3972 7.38662 24.9112 7.75647 25.2719 8.15535C25.2796 8.16452 25.2643 8.19356 25.2673 8.21343C25.3269 8.60314 25.2857 8.98674 25.1497 9.352C24.9892 9.79062 24.8241 10.2323 24.4497 10.5502C23.9102 11.0087 23.3616 11.4519 22.7212 11.7713C22.3926 11.9348 22.0747 12.1289 21.7217 12.2328C21.5108 12.2955 21.2678 12.2527 21.1073 12.4544C21.0722 12.4987 21.0065 12.5354 20.9866 12.4789C20.9148 12.2741 20.8154 12.378 20.6886 12.4147C20.5113 12.4651 20.253 12.3016 20.1888 12.6256C20.1705 12.6195 20.1506 12.6134 20.1308 12.6073C20.0024 12.569 19.9168 12.6516 19.8419 12.728C19.4828 13.0902 19.1282 13.4555 18.7767 13.8253C18.6881 13.917 18.5383 14.0377 18.552 14.1248C18.604 14.4397 18.4374 14.7163 18.4359 15.0097C18.4298 15.8105 18.1654 16.5502 17.904 17.2838C17.606 18.1213 17.4456 19.0031 17.0956 19.8208C16.9351 20.1952 17.0176 20.6292 16.7808 20.9807C16.6111 21.2329 16.6829 21.5447 16.5912 21.806C16.4843 22.1132 16.3437 22.4081 16.2321 22.7184C15.8943 23.6644 15.6468 24.6364 15.39 25.6023C15.2372 26.1784 14.9315 26.7363 15.0018 27.3659C15.0064 27.4072 14.9636 27.4576 14.9331 27.4958C14.6457 27.855 14.5846 28.3196 14.5143 28.7276C14.4104 29.3267 14.1475 29.8784 14.0742 30.4851C14.0466 30.7281 13.9565 30.9879 13.877 31.2294C13.7364 31.6512 13.6707 32.0914 13.5148 32.5101C13.4308 32.7394 13.3161 32.9625 13.2565 33.1963C13.1755 33.5173 13.0701 33.8336 12.9982 34.153C12.9295 34.4633 12.7339 34.7231 12.6911 35.0226C12.659 35.2458 12.5933 35.4414 12.526 35.6523C12.3197 36.2957 12.1485 36.9513 11.985 37.6085C11.8597 38.1113 11.7359 38.6294 11.5387 39.094C11.2805 39.7099 11.2102 40.3777 10.9091 40.9753C10.6722 41.4445 10.7669 42.0008 10.4827 42.4898C10.2061 42.9697 10.1159 43.5535 9.8836 44.0731C9.71549 44.4491 9.55349 44.8296 9.40372 45.2117C9.16072 45.8307 8.84131 46.4068 8.50661 46.9769C8.33086 47.2749 8.15511 47.5622 8.10314 47.9168C8.0466 48.2973 8.15052 48.5678 8.45007 48.7711C8.60442 48.8765 8.76184 48.9988 8.86576 49.1501C9.23713 49.6865 9.6192 50.226 9.84845 50.8327C9.96765 51.1476 10.4307 51.334 10.2213 51.7742C10.2122 51.791 10.2397 51.8307 10.258 51.8536C10.3406 51.9576 10.3207 52.0752 10.3176 52.196C10.3054 52.7003 10.336 53.2077 10.2901 53.709C10.2443 54.2179 10.3727 54.739 10.1342 55.2388C9.97071 55.5842 9.88054 55.9663 9.75064 56.33C9.6727 56.5531 9.74452 56.7319 9.88207 56.9092C9.93862 56.9826 10.0059 57.0483 10.0746 56.9902C10.2259 56.8588 10.2687 56.978 10.3803 57.0529C10.5133 57.1415 10.5163 57.3096 10.6279 57.3769C10.7899 57.2424 10.8541 56.9169 11.1398 57.1996C11.1826 57.2409 11.2529 57.2347 11.2743 57.1935C11.3951 56.9703 11.4623 57.1599 11.5876 57.1935C12.0308 57.3157 12.4924 57.3799 12.957 57.3692C13.0227 57.3692 13.0915 57.2989 13.1557 57.3585C13.3604 57.5511 13.6447 57.5511 13.8862 57.6428C14.7008 57.9469 15.549 58.1563 16.3972 58.3351C16.8725 58.436 17.3477 58.5261 17.8123 58.6729ZM16.0793 55.6392C15.9922 55.7508 15.8837 55.5857 15.8133 55.5215C15.6819 55.3993 15.5704 55.2739 15.3732 55.3932C15.3518 55.4069 15.2968 55.413 15.2907 55.4039C15.1271 55.1257 14.8964 55.1884 14.6595 55.2724C14.6335 55.2816 14.58 55.277 14.5739 55.2632C14.47 55.0203 14.2071 55.1181 14.0298 55.0401C13.877 54.9729 13.6371 55.0157 13.4338 54.9897C13.3589 54.9805 13.2917 55.0096 13.2 54.9637C13.0151 54.8735 12.8546 54.9637 12.7262 55.115C12.6804 55.1685 12.6376 55.2892 12.5459 55.2036C12.5077 55.1685 12.3029 55.2036 12.4374 55.0279C12.4893 54.9591 12.3747 54.9484 12.3227 54.9561C12.2448 54.9683 12.1714 55.005 12.0935 55.0203C12.0049 55.0355 11.9223 55.0355 11.8505 54.95C11.7771 54.8598 11.8505 54.8063 11.8719 54.7345C12.0094 54.2913 12.2173 53.8756 12.3013 53.4079C12.3411 53.1863 12.0721 53.1741 12.15 53.009C12.2127 52.8761 12.4022 52.8348 12.3839 52.627C12.3472 52.2403 12.3212 51.8506 12.3441 51.4655C12.3625 51.1552 12.2876 50.8541 12.3059 50.55C12.3166 50.3666 12.1607 50.3284 12.066 50.2337C11.9865 50.1542 11.9865 50.1542 12.1134 50.1007C12.2203 50.0564 12.2097 49.9647 12.1607 49.9035C11.9544 49.6422 11.9284 49.2754 11.7221 49.0431C11.3737 48.6473 11.2835 48.0788 10.8097 47.7716C10.6905 47.6936 10.66 47.5026 10.5346 47.3895C10.3711 47.2428 10.2015 47.1236 9.95696 47.0732C10.4598 46.2188 10.903 45.3584 11.3003 44.4751C11.5005 44.0303 11.6809 43.5764 11.8826 43.1332C12.199 42.4409 12.4236 41.7135 12.7048 41.0074C12.7828 40.8102 12.8729 40.607 12.8836 40.4083C12.9035 40.0629 13.0823 39.7832 13.1709 39.4699C13.4002 38.6569 13.6982 37.8683 13.906 37.0476C14.0787 36.3675 14.2958 35.6966 14.5235 35.0287C14.8383 34.1133 15.0798 33.1734 15.3625 32.2473C15.4802 31.8667 15.6238 31.4938 15.7537 31.1163C15.8088 30.9543 15.8775 30.7954 15.9035 30.6288C16.0304 29.8173 16.3299 29.0501 16.5087 28.2523C16.6921 27.4362 16.9443 26.6354 17.1674 25.83C17.3615 25.1316 17.5556 24.4301 17.7527 23.7332C17.8628 23.348 17.9835 22.9629 18.0706 22.5671C18.2097 21.9329 18.4282 21.3154 18.6116 20.6888C18.9631 19.4998 19.3208 18.3108 19.6585 17.1172C19.8434 16.4646 20.0024 15.8044 20.1567 15.1427C20.2133 14.9088 20.3294 14.7942 20.5709 14.808C20.9637 14.8309 21.303 14.6628 21.6468 14.5084C21.9769 14.3617 22.3391 14.2654 22.6387 14.0713C23.1812 13.7168 23.7039 13.3286 24.1685 12.8701C24.9647 12.0846 25.6815 11.2303 26.1583 10.2094C26.4456 9.595 26.7987 9.00966 27.0172 8.36473C27.0982 8.12632 27.248 8.04226 27.4895 8.03615C27.9877 8.02392 28.4844 8.12784 28.9826 8.05601C29.4701 7.98571 29.9133 8.18745 30.3672 8.3036C30.6209 8.36778 30.8761 8.42433 31.1314 8.4549C31.8772 8.54812 32.597 8.76667 33.3382 8.87823C34.4554 9.04787 35.5527 9.3031 36.6485 9.57666C37.4493 9.77686 38.2654 9.91747 39.0739 10.0917C39.3367 10.1482 39.5935 10.2369 39.8563 10.295C40.6235 10.4661 41.3999 10.5792 42.1824 10.6755C42.676 10.7351 43.1681 10.8299 43.6664 10.8604C43.8345 10.8711 43.8742 10.9934 43.8727 11.1386C43.8635 11.8752 44.053 12.5904 44.1722 13.3087C44.2181 13.5762 44.1126 13.9552 44.4611 14.1386C44.4687 14.1432 44.4809 14.1569 44.4794 14.1615C44.2716 14.5772 44.6093 14.8875 44.6704 15.2451C44.7469 15.6852 45.0556 15.9924 45.1549 16.4005C45.2772 16.8972 45.7402 17.1065 46.0444 17.4504C46.2996 17.7392 46.593 17.9746 46.9354 18.1412C47.3954 18.3658 47.7469 18.7968 48.3154 18.8335C48.508 18.8472 48.6898 19.0169 48.7999 19.214C48.835 19.2752 48.835 19.3134 48.809 19.376C48.5401 20.0424 48.1702 20.6537 47.8019 21.2696C47.4275 21.8931 46.995 22.48 46.6786 23.1448C46.5701 23.3756 46.3623 23.6201 46.2629 23.8493C46.0352 24.372 45.6638 24.8259 45.537 25.399C45.4606 25.749 45.161 25.9981 45.0327 26.3404C44.8569 26.8066 44.6215 27.2513 44.3984 27.6991C44.2043 28.0842 44.053 28.4877 43.8498 28.8728C43.6037 29.3374 43.4096 29.8387 43.188 30.3201C42.9557 30.8229 42.6974 31.3196 42.4819 31.8316C42.2848 32.3053 41.9746 32.7302 41.8767 33.2468C41.8615 33.3293 41.7896 33.4011 41.7438 33.4775C41.4947 33.8947 41.3434 34.3548 41.163 34.8026C41.0973 34.963 41.001 35.122 40.8818 35.2488C40.6388 35.5086 40.5915 35.851 40.4845 36.1612C40.4096 36.3797 40.3515 36.5968 40.2124 36.7817C39.9756 37.095 39.8609 37.4664 39.7341 37.8255C39.4116 38.7333 39.0005 39.6029 38.6444 40.4969C38.3342 41.2764 38.0331 42.0604 37.7366 42.8444C37.6617 43.0446 37.4187 43.2158 37.6067 43.4725C37.6144 43.4817 37.6067 43.5107 37.5975 43.5245C37.2781 44.0013 37.1727 44.5454 37.0382 45.091C36.945 45.4669 36.7921 45.8368 36.679 46.2112C36.5812 46.5352 36.3902 46.8409 36.3535 47.1649C36.297 47.6692 36.0173 48.1032 35.9974 48.6213C35.9837 48.9484 35.7529 49.2617 35.6673 49.5933C35.5374 50.0915 35.3433 50.5684 35.2363 51.0773C35.1706 51.3936 34.9933 51.7008 34.9383 52.0355C34.9185 52.1608 34.8313 52.1868 34.7244 52.2067C34.5761 52.2357 34.3667 52.1792 34.3744 52.4558C34.3774 52.5322 34.2598 52.5215 34.194 52.5139C33.9908 52.4909 34.2659 52.4451 34.191 52.3901C34.1497 52.3595 34.1207 52.3213 34.0703 52.3381C33.7279 52.4573 33.3856 52.5826 33.0432 52.7034C32.9653 52.7309 32.9515 52.7905 32.9271 52.8593C32.866 53.0289 32.759 53.142 32.5664 53.0151C32.4778 52.9555 32.4151 53.0014 32.3494 53.0472C31.949 53.3315 31.4859 53.5027 31.0825 53.7992C30.7814 54.0208 30.4268 54.2041 30.1135 54.4273C29.2378 55.0539 28.3957 55.7263 27.6362 56.495C27.3687 56.7656 27.1211 57.0559 26.8659 57.3387C26.7589 57.4563 26.6504 57.5221 26.4701 57.4716C26.2867 57.4197 26.1339 57.1323 25.8985 57.3723C25.6922 57.0758 25.4079 57.2882 25.1603 57.2531C24.9663 57.2271 24.7798 57.1339 24.5918 57.0651C24.3519 56.9795 24.1975 57.1033 24.089 57.2745C23.9515 57.2454 24.2021 57.0299 23.9392 57.1079C23.8292 57.14 23.7757 57.0116 23.6871 56.9688C23.3554 56.8053 23.0284 56.9092 22.7105 56.981C22.5898 57.0086 22.5103 56.9963 22.4538 56.9214C22.2566 56.6525 21.9387 56.6479 21.6652 56.5547C21.4053 56.466 21.1211 56.492 20.8552 56.3896C20.7054 56.3315 20.5281 56.2765 20.3569 56.4339C20.2561 56.5241 20.0192 56.4599 19.9749 56.3758C19.8618 56.1649 19.7395 56.2154 19.5836 56.278C19.5531 56.2903 19.498 56.2811 19.4721 56.2597C19.1328 55.977 18.7308 55.9938 18.3289 56.0136C18.2372 56.0198 18.1898 55.9525 18.1226 55.9143C17.9132 55.7966 17.6962 55.6805 17.5266 55.9785C17.5036 56.0213 17.4547 56.0564 17.3997 56.0366C17.3309 56.0091 17.3248 55.9495 17.3401 55.8853C17.3554 55.8211 17.4563 55.7431 17.2729 55.7431C17.039 55.7431 16.8128 55.6973 16.5882 55.5827C16.4598 55.5169 16.2474 55.4222 16.0793 55.6392ZM19.4262 38.582C19.5271 39.0023 19.4797 39.447 19.6448 39.8459C19.7823 40.176 19.7961 40.5948 20.2072 40.7613C20.2225 40.7675 20.2362 40.8118 20.2301 40.8332C20.143 41.1327 20.3478 41.3161 20.5281 41.4659C21.2357 42.0573 21.818 42.7771 22.5806 43.3166C23.2836 43.8149 24.0722 44.0258 24.8807 44.1893C25.1848 44.2519 25.4996 44.3115 25.8328 44.2856C26.2301 44.2565 26.6336 44.2718 27.0356 44.2489C27.248 44.2382 27.4772 44.1954 27.679 44.2305C28.1833 44.3192 28.6678 44.1816 29.0315 43.9279C29.4564 43.6315 29.9531 43.4435 30.3168 43.0156C30.5965 42.6855 30.9663 42.392 31.2536 42.065C31.6922 41.5637 32.0086 40.9539 32.3601 40.3808C32.7483 39.7511 33.031 39.0665 33.3565 38.4047C34.0122 37.069 34.4921 35.6752 34.8329 34.2249C34.8971 33.9513 34.8344 33.693 34.8894 33.4301C35.0805 32.5162 34.9521 31.5947 34.9414 30.6762C34.9414 30.6028 34.8971 30.5646 34.8206 30.6028C34.7427 30.6426 34.6693 30.6991 34.5608 30.6976C34.6052 30.4454 34.9765 30.2269 34.5792 29.9778C34.5624 29.9671 34.5639 29.9227 34.5608 29.8937C34.541 29.5911 34.3301 29.3802 34.1543 29.18C33.8135 28.7964 33.4467 28.4327 32.9882 28.1759C32.7208 28.0277 32.5175 27.8015 32.1828 27.7281C31.9811 27.6838 31.8176 27.4377 31.573 27.346C31.382 27.2727 31.2154 27.3063 31.0458 27.2849C30.9159 27.2681 30.7844 27.022 30.5873 27.0358C30.0493 27.0694 29.5557 26.779 29.0101 26.8509C28.6571 26.8983 28.2414 26.6522 27.98 27.0923C27.9709 27.1076 27.9006 27.1046 27.899 27.1015C27.841 26.86 27.6316 26.9838 27.5124 26.9258C27.1823 26.7638 26.8583 26.8646 26.5343 26.857C26.2898 26.8509 26.0452 27.1565 25.7992 26.8539C25.7946 26.8493 25.7793 26.8524 25.7701 26.8555C25.5332 26.9258 25.2245 26.8463 25.1099 27.1733C25.0946 27.2131 25.0411 27.2589 24.9999 27.265C24.6713 27.3155 24.4436 27.5585 24.2205 27.7495C23.7742 28.1316 23.4074 28.6008 22.9963 29.0256C22.414 29.6278 21.8883 30.2865 21.3152 30.8993C21.0034 31.2325 20.7436 31.6008 20.5403 31.9981C20.2821 32.5025 20.172 33.0756 19.8664 33.5646C19.8266 33.6288 19.8205 33.7175 19.8159 33.7954C19.793 34.15 19.66 34.4801 19.6295 34.8377C19.6066 35.1189 19.5546 35.4078 19.498 35.6874C19.4553 35.8968 19.4675 36.0985 19.4598 36.3033C19.4446 36.6701 19.3376 37.0308 19.4125 37.4006C19.4446 37.5519 19.5317 37.7628 19.4644 37.85C19.278 38.1006 19.3804 38.3925 19.4262 38.582ZM21.7034 34.5091C21.7553 34.1255 21.6697 33.7175 21.821 33.3583C21.9204 33.1199 21.9525 32.8708 21.9815 32.6339C22.0625 32.0012 22.3758 31.5228 22.8175 31.0949C23.1629 30.7602 23.5679 30.5233 23.9882 30.3002C24.2938 30.1397 24.6071 29.9839 24.8944 29.8005C25.2016 29.6048 25.4966 29.5101 25.8496 29.5422C25.9994 29.5559 26.1507 29.5437 26.302 29.5437C26.8781 29.4856 27.4635 29.5269 28.0335 29.5559C28.816 29.5926 29.6199 29.6262 30.3794 29.9227C30.6912 30.0435 31.0213 30.1153 31.3025 30.3079C31.4003 30.3751 31.5379 30.4332 31.5791 30.5295C31.7213 30.8565 31.9597 31.1194 32.1645 31.396C32.5389 31.9049 32.519 32.4658 32.4931 33.0313C32.4808 33.3018 32.5939 33.5494 32.5511 33.8244C32.4977 34.1683 32.6551 34.5305 32.4533 34.8729C32.4014 34.9615 32.4457 35.1067 32.4411 35.2259C32.4167 35.8326 32.1828 36.3904 32.0346 36.9697C31.9169 37.4236 31.8099 37.8775 31.6632 38.3252C31.6051 38.501 31.4813 38.6202 31.4172 38.7868C31.165 39.4348 30.763 40.0048 30.3856 40.581C30.1762 40.8974 29.7834 41.0655 29.438 41.2412C28.7579 41.5881 28.0167 41.4659 27.2938 41.4857C27.2449 41.4873 27.1914 41.4582 27.1456 41.4705C26.9026 41.5347 26.6611 41.4766 26.4242 41.4796C25.9337 41.4873 25.4843 41.3115 25.0152 41.2718C24.0783 41.1923 23.6259 40.4465 23.0177 39.9131C22.8267 39.7466 22.7304 39.4837 22.4767 39.3752C22.4048 39.3446 22.4583 39.259 22.4324 39.2162C22.2581 38.9289 22.2459 38.5316 21.873 38.3757C21.7737 38.3359 21.8394 38.2687 21.8455 38.2015C21.8638 37.9936 22.0212 37.7506 21.7217 37.6054C21.7095 37.5993 21.7079 37.5504 21.7171 37.5275C21.8394 37.1729 21.7125 36.8245 21.7079 36.473C21.7049 36.1902 21.766 35.9075 21.7355 35.6141C21.6973 35.2458 21.6575 34.8453 21.7034 34.5091Z" fill="white"/>
</g>
</svg>
