<svg width="151" height="229" viewBox="0 0 151 229" fill="none" xmlns="http://www.w3.org/2000/svg">
<mask id="mask0_330_1843" style="mask-type:luminance" maskUnits="userSpaceOnUse" x="0" y="0" width="151" height="229">
<path d="M0 0.360474H151V228.597H0V0.360474Z" fill="white"/>
</mask>
<g mask="url(#mask0_330_1843)">
<path d="M134.984 190.216C134.984 189.888 134.458 189.532 134.369 188.916C134.244 188.117 134.208 187.342 134.202 186.544C134.192 185.369 134.671 184.007 132.952 183.401C132.932 183.396 132.952 183.295 132.952 183.208C133.447 182.987 134.463 182.9 133.338 182.14C133.202 182.044 133.296 181.813 133.385 181.635C133.661 181.105 133.494 180.975 132.864 181.067C132.489 181.12 131.973 181.052 131.702 180.836C131.364 180.566 132.025 180.6 132.036 180.374C132.036 180.316 132.051 180.234 132.02 180.205C131.479 179.676 131.604 178.81 130.947 178.362C130.291 177.919 130.202 177.096 129.515 176.673C129.031 176.374 128.239 176.307 128.322 175.494C128.327 175.446 128.176 175.383 128.104 175.325C126.572 174.098 125.025 172.876 123.275 171.927C121.979 171.225 120.848 170.108 119.13 170.286C118.968 170.306 118.88 170.132 118.775 170.012C118.265 169.41 117.484 169.03 116.781 169.242C116.041 169.463 115.682 168.371 115.005 168.992C114.994 168.91 114.958 168.828 114.968 168.751C115.041 168.328 114.708 168.313 114.416 168.304C113.864 168.289 113.218 168.241 112.817 168.048C112.036 167.663 112.072 168.082 111.984 168.674C111.551 167.558 110.838 167.317 109.755 167.562C109.354 167.649 108.598 167.683 108.406 167.533C107.447 166.763 106.619 167.187 105.749 167.577C105.64 167.63 105.452 167.764 105.432 167.663C105.249 166.735 104.468 167.596 104.015 167.254C103.734 167.047 103.39 167.408 103.598 167.789C103.031 167.947 103.312 167.153 102.89 167.302C101.937 167.649 100.749 166.994 99.9421 167.909C99.916 167.938 99.7441 167.914 99.7025 167.866C99.3796 167.49 98.9629 167.707 98.6035 167.74C95.1087 168.101 91.6139 168.525 88.1139 168.838C87.1921 168.92 86.3483 169.218 85.4629 169.367C84.7858 169.483 83.9264 169.213 83.4525 169.762C82.9733 170.32 81.8119 169.165 81.765 170.431C81.6764 170.421 81.541 170.445 81.5098 170.402C81.1608 169.959 80.7494 170.277 80.3535 170.286C79.4525 170.315 78.6869 170.772 77.8171 170.917C76.1087 171.196 74.541 171.913 72.8691 172.341C71.5358 172.688 70.3327 173.496 68.9369 173.819C68.4056 173.939 67.9421 174.353 67.4212 174.411C66.8952 174.464 66.4004 174.339 66.14 174.935C66.041 175.166 65.7441 175.176 65.5827 174.95C65.1296 174.315 64.5462 174.55 64.1816 174.911C63.7858 175.311 63.4004 175.47 62.8483 175.426C61.8014 175.34 61.0775 175.999 60.3952 176.533C59.8691 176.942 59.3639 176.48 58.8691 176.812C57.8483 177.501 56.8952 178.271 55.8171 178.896C54.6191 179.584 53.7129 180.59 52.765 181.548C50.7233 183.613 48.5827 185.605 46.7285 187.824C45.5254 189.268 44.515 190.822 43.4785 192.367C42.6869 193.546 42.6556 194.908 41.9056 196.039C41.8796 196.073 41.9421 196.15 41.9473 196.212C42.0514 197.271 41.916 198.359 42.3535 199.389C42.4837 199.697 42.3431 200.053 42.1139 200.327C41.9681 200.495 41.8639 200.645 41.8848 200.89C41.9577 201.771 41.9889 202.652 42.041 203.532C42.0619 203.893 42.2233 204.22 42.3327 204.562C42.5306 205.188 42.7337 204.48 42.9681 204.63C42.7389 205.082 42.2806 205.558 42.3275 205.982C42.5983 208.34 42.5879 210.751 43.9108 212.927C45.1035 214.9 45.9889 217.066 48.1973 218.346C48.2702 218.389 48.291 218.562 48.2806 218.668C48.2285 219.226 48.6035 219.563 49.0202 219.857C49.6608 220.309 50.3744 220.685 50.9733 221.18C51.6556 221.739 52.416 222.181 53.1296 222.687C53.7754 223.144 54.7389 222.961 55.1921 223.697C55.265 223.827 55.4056 223.649 55.515 223.611C55.8587 223.476 56.0879 223.616 56.3796 223.818C57.3119 224.458 58.2233 225.189 59.2754 225.603C60.6608 226.147 62.1504 226.532 63.6348 226.782C64.7754 226.98 65.9212 227.538 67.14 227.085C67.9525 227.846 69.0462 227.668 70.0358 227.803C71.2181 227.957 72.4108 228.048 73.5931 228.173C74.8379 228.298 76.0775 228.433 77.3171 228.563C80.4525 228.563 83.5879 228.563 86.7233 228.563C87.7441 228.245 88.8275 227.942 89.8691 228.053C91.5358 228.221 93.0983 227.658 94.7285 227.716C95.5671 227.745 96.39 227.461 97.1921 227.456C98.39 227.451 99.4837 227.119 100.624 226.956C101.713 226.797 102.645 225.959 103.843 226.33C103.9 226.344 104.01 226.243 104.077 226.186C104.702 225.632 105.52 225.43 106.301 225.175C107.942 224.641 109.458 223.909 110.916 223C111.551 222.6 112.229 221.642 113.322 222.335C113.494 222.441 113.624 222.258 113.645 222.1C113.697 221.671 114.057 221.488 114.406 221.344C115.187 221.022 115.807 220.482 116.624 220.155C117.541 219.785 118.479 219.145 119.322 218.538C120.822 217.455 122.572 216.685 123.984 215.54C125.072 214.654 126.041 213.567 126.838 212.402C127.562 211.343 127.479 209.818 128.979 209.202C129.015 209.182 129.051 209.081 129.036 209.043C128.76 208.523 128.942 208.427 129.505 208.537C129.718 208.581 129.942 208.359 129.999 208.157C130.223 207.387 129.979 206.425 131.077 206.03C131.098 206.02 131.114 205.89 131.083 205.862C130.723 205.501 130.994 205.395 131.322 205.222C131.833 204.947 132.275 204.615 131.645 204.033C131.562 203.956 131.541 203.662 131.598 203.629C132.432 203.147 132.239 202.276 132.572 201.622C133.374 200.048 133.822 198.388 134.4 196.756C134.577 196.251 134.713 195.813 134.067 195.428C133.676 195.202 133.729 194.735 134.088 194.403C134.307 194.205 134.546 194.032 134.807 193.82C133.916 193.541 133.791 193.373 134.291 192.747C134.916 191.972 134.994 191.063 134.984 190.216ZM68.0254 219.26C67.9681 219.443 67.8223 219.616 67.6087 219.563C67.0098 219.414 66.5306 219.693 66.015 219.871C65.9264 219.9 65.7702 219.953 65.7389 219.919C65.0254 219.164 63.916 219.616 63.0566 219.13C62.3535 218.736 61.4056 218.649 60.6608 219.366C60.2806 218.88 61.2494 218.505 60.5671 218.081C59.7129 217.552 59.515 218.572 58.9316 218.639C58.6764 218.399 58.9056 218.196 58.9369 217.975C59.0254 217.287 59.0514 216.652 58.0046 216.507C57.3171 216.406 57.0358 215.482 56.166 215.593C56.1452 215.598 56.0514 215.381 56.0671 215.285C56.1139 215.073 56.3275 215.083 56.4577 215.165C57.166 215.617 58.0358 215.651 58.8066 215.978C60.3744 216.642 61.9629 217.335 63.7129 217.556C64.2389 217.624 64.7389 216.974 65.291 217.552C65.9525 218.24 67.1191 218.211 67.7494 218.971C67.8275 219.068 68.0827 219.048 68.0254 219.26ZM99.8379 219.39C99.8119 219.51 99.4212 219.587 99.4212 219.202C99.4212 219.145 99.265 219.019 99.2337 219.034C98.39 219.395 97.3119 218.798 96.5879 219.568C96.291 219.886 96.1244 219.982 95.9316 219.515C95.8327 219.265 95.5879 219.265 95.3535 219.313C93.3431 219.737 91.265 219.558 89.2494 219.891C88.9421 219.943 88.416 219.741 88.3275 220.304C88.3066 220.454 88.1035 220.396 87.9941 220.362C86.6608 219.934 85.3275 220.251 83.9837 220.276C83.1608 220.29 82.3535 220.016 81.7025 220.699C81.666 220.733 81.5723 220.752 81.5202 220.738C79.3014 220.016 76.9941 220.3 74.7181 220.227C74.3744 220.218 74.2129 220.17 74.2181 219.871C74.2285 219.549 73.9889 219.352 73.8535 219.173C75.4629 219.173 77.1296 219.38 78.6816 219.096C79.5514 218.933 80.2962 218.89 81.1191 219.039C81.5619 219.116 81.916 218.562 82.4837 218.928C82.7025 219.068 82.7129 218.553 82.7858 218.302C82.9212 218.432 83.1556 218.663 83.166 218.659C83.9629 218.009 84.6139 219.13 85.3691 218.808C86.2441 218.432 87.166 218.812 88.0931 218.654C89.1191 218.48 90.1712 218.139 91.1816 218.153C92.2702 218.168 93.3483 218.052 94.4056 217.956C95.9994 217.811 97.6973 218.042 99.1556 217.123C99.6191 216.835 100.093 216.883 100.124 217.571C100.135 217.913 100.083 218.201 100.406 218.543C100.723 218.88 99.9212 219.005 99.8379 219.39ZM110.114 214.274C109.604 214.544 109.838 214.967 109.786 215.314C109.661 216.141 109.13 216.594 108.281 216.753C107.692 216.863 107.176 217.056 106.963 217.677C106.322 217.268 106.525 215.954 105.249 216.541C105.244 216.132 105.51 216.247 105.671 216.194C106.01 216.089 106.525 216.122 106.093 215.535C105.88 215.242 106.098 214.77 106.39 214.669C107.484 214.289 108.494 213.663 109.692 213.591C110.202 213.557 110.182 214.24 110.114 214.274ZM114.317 203.21C114.062 203.34 113.781 203.513 113.656 203.734C113.437 204.124 113.234 204.317 112.76 204.071C112.572 203.975 112.322 204.057 112.223 204.196C111.499 205.14 110.187 204.865 109.26 205.462C108.291 206.088 107.171 206.612 106.036 206.896C103.827 207.445 101.89 208.711 99.5619 208.908C98.2858 209.014 97.0046 209.11 95.7233 209.245C94.3535 209.384 92.9889 209.558 91.6244 209.736C91.2233 209.784 90.8848 210.463 90.7285 210.289C90.265 209.774 89.7337 210.063 89.2546 210.015C87.9837 209.885 86.7337 210.121 85.4889 210.357C85.0462 210.438 84.6921 210.775 84.14 210.467C83.7858 210.27 83.5202 210.804 83.0775 211.151C82.9629 210.405 82.5931 210.597 82.0462 210.578C80.2754 210.52 78.5254 210.78 76.7598 210.718C76.5098 210.713 76.1869 210.511 76.1244 211.006C76.0775 211.391 75.8171 211.29 75.6244 211.03C75.2441 210.52 75.1973 210.511 74.8223 211.045C74.6139 211.338 74.2598 211.608 74.0931 211.233C73.6504 210.217 72.64 210.631 71.9108 210.405C71.515 210.28 71.0358 210.227 70.5879 210.179C70.2754 210.14 69.8744 209.938 69.6191 210.347C69.4316 210.641 69.0723 210.515 68.916 210.414C67.7181 209.615 66.3223 209.755 64.9733 209.582C64.4212 209.51 63.8639 209.076 63.2858 208.841C62.2494 208.422 61.1921 208.09 60.0358 208.124C59.9525 208.124 59.8119 208.085 59.7806 208.027C59.2441 207.002 58.0202 207.228 57.14 206.877C56.6712 206.694 56.4212 206.362 56.0254 206.155C54.8744 205.573 53.7441 204.909 52.7181 204.187C52.1139 203.758 51.0046 203.455 50.9525 202.979C50.8744 202.214 50.3223 201.79 50.0931 201.174C49.5879 199.822 49.3119 198.44 50.0202 197.103C50.3379 196.506 49.8171 196.14 49.8483 195.649C49.8691 195.365 49.64 195.067 49.9316 194.72C50.3223 195.062 50.2546 195.75 51.0254 195.789C51.4316 195.808 51.6608 195.87 51.6504 195.437C51.64 194.836 51.7962 194.35 52.3639 193.95C52.7129 193.705 52.7858 193.224 52.8796 192.8C53.1243 191.635 53.7494 190.456 54.6608 189.84C55.5723 189.224 56.4264 188.42 57.541 188.035C58.2754 187.78 58.6764 187.111 59.3483 186.746C59.7181 186.539 59.7806 185.942 59.5358 185.23C60.2025 185.86 60.4577 185.523 60.9108 185.244C62.015 184.566 63.2858 184.123 64.416 183.478C66.0879 182.52 68.015 182.174 69.7858 181.442C70.7337 181.047 71.9316 180.946 72.9889 180.643C75.3223 179.965 77.7494 179.738 80.1035 179.223C82.1869 178.771 84.3171 178.728 86.3952 178.299C87.5775 178.059 88.8483 178.213 90.0671 178.117C90.9941 178.04 91.9785 178.213 92.8379 177.693C92.9889 177.602 93.2494 177.501 93.3796 177.563C94.4421 178.049 95.5046 177.645 96.5306 177.515C98.0671 177.327 99.6035 177.188 101.15 177.111C105.161 176.904 109.062 177.322 112.937 178.348C115.255 178.964 117.494 179.633 119.52 180.85C120.947 181.707 122.15 182.785 123.312 183.93C124.223 184.83 124.499 186.101 125.343 186.929C126.093 187.675 125.702 188.353 125.89 189.046C126.098 189.831 125.416 190.812 126.52 191.414C126.734 191.534 126.515 191.886 126.426 192.093C125.572 194.095 124.463 195.986 123.249 197.81C122.666 198.681 121.567 199.21 120.598 199.769C118.531 200.957 116.452 202.132 114.317 203.21ZM128.083 200.611C127.218 201.833 127.145 203.277 126.546 204.562C126.077 205.563 125.843 206.612 124.791 207.339C124.098 207.816 124.088 208.855 123.27 209.336C123.15 209.409 123.093 209.649 122.984 209.668C120.926 209.967 119.531 211.411 117.786 212.248C116.921 212.662 116.119 213.124 115.031 213.037C115.624 212.344 115.817 211.584 115.479 210.761C115.416 210.607 115.442 210.583 115.577 210.511C116.76 209.861 117.687 208.87 119.104 208.509C119.671 208.364 120.192 207.777 120.619 207.349C121.624 206.348 123.301 205.967 123.765 204.476C125.005 204.047 125.52 202.878 126.364 202.084C127.171 201.328 127.979 200.366 128.4 199.268C128.452 199.133 128.546 199.008 128.708 198.724C128.77 199.567 128.4 200.159 128.083 200.611ZM77.9369 56.4955C77.6244 56.8228 77.3952 57.2078 76.8744 56.6784C76.5827 56.3896 76.2494 56.6254 76.0723 56.8998C75.8379 57.2751 75.4473 57.511 75.1712 57.8334C74.6139 58.4879 73.5619 58.8441 73.6556 59.9173C73.6712 60.0713 73.4629 60.2397 73.2389 60.2301C72.5254 60.1868 72.5879 60.644 72.5514 61.0772C72.4941 61.7221 72.5046 62.3862 71.916 62.9012C71.6973 63.0985 71.5879 63.4305 71.6556 63.7434C71.7702 64.2535 71.4577 64.677 71.3848 65.1342C71.265 65.8802 70.3796 66.5925 71.416 67.5983C70.7962 67.4058 70.3327 67.0978 70.39 67.7908C70.4629 68.6716 69.7598 69.3213 69.5462 70.1442C69.1816 71.5399 68.5723 72.9067 68.1348 74.3216C67.89 75.1109 68.9108 74.8847 68.6556 75.443C68.5931 75.5874 69.1244 75.3612 69.3796 75.2986C69.5254 75.2649 69.6764 75.2312 69.8223 75.2023C69.1139 75.6836 69.3848 76.5932 68.791 77.0841C68.4473 77.3729 68.4577 77.6905 68.6973 78.0563C68.9785 78.4702 69.3431 78.4076 69.9056 78.0611C69.6764 78.5712 69.4941 78.807 69.7702 79.1728C70.4785 80.0872 70.666 81.3048 71.7025 82.046C71.8119 82.123 71.8535 82.3107 71.8848 82.455C72.0879 83.3261 72.6348 83.8988 73.5775 84.101C73.8587 84.1587 73.7702 84.3176 73.7337 84.4234C73.5723 84.8181 73.8744 85.0202 74.0879 85.2849C75.7598 87.3688 77.9473 88.9522 80.0046 90.6751C81.5046 91.9312 83.2598 92.8408 84.8952 93.8996C86.9994 95.2664 89.14 96.6091 91.4212 97.7353C92.5046 98.2743 93.5306 98.9192 94.541 99.5689C95.5462 100.219 96.791 100.127 97.8848 100.647C99.4473 101.388 101.223 101.773 102.947 102.177C104.848 102.625 106.801 102.914 108.708 103.318C110.109 103.616 111.609 103.265 112.921 103.982C113.15 104.112 113.557 104.179 113.77 104.074C114.551 103.703 115.4 103.987 116.077 104.078C117.708 104.29 119.359 104.531 120.989 104.844C121.859 105.007 123.072 105.667 123.833 104.401C123.906 104.906 124.14 105.32 124.713 105.113C125.812 104.714 126.921 105.147 128.051 104.954C128.801 104.824 129.921 105.262 130.479 104.868C131.275 104.305 131.932 104.632 132.666 104.56C133.27 104.502 133.817 104.098 134.489 104.415C134.749 104.536 134.827 104.179 135.015 104.098C135.432 103.92 135.525 103.034 136.051 103.429C136.359 103.66 135.739 104.204 135.416 104.555C135.4 104.574 135.452 104.651 135.484 104.733C136.067 104.694 136.484 104.42 136.817 103.973C137.557 102.962 137.994 101.788 138.859 100.839C139.614 100.021 140.135 99.0588 140.807 98.1829C141.827 96.8401 142.63 95.3578 143.531 93.9381C144.234 92.8215 145.005 91.7483 145.583 90.5596C146.161 89.3853 146.874 88.2688 147.593 87.157C148.265 86.1127 148.489 84.9721 148.458 83.6678C148.739 83.9566 148.473 84.3368 148.843 84.3609C149.15 84.3753 149.208 84.0577 149.327 83.8507C149.546 83.4705 149.38 83.0807 149.098 82.8786C148.635 82.5465 148.854 82.3588 149.031 81.993C149.52 80.9679 150.286 79.991 149.921 78.7493C149.708 78.0178 150.864 77.4787 150.296 76.6798C150.291 76.6702 150.38 76.598 150.437 76.5691C151.411 76.0205 150.666 75.8136 150.197 75.5729C149.343 75.1398 148.619 74.6633 149.13 73.5997C149.255 73.3447 148.968 73.3206 148.817 73.2532C147.588 72.7046 147.541 72.6757 147.963 71.487C148.119 71.049 148.119 70.6544 147.713 70.4667C147.119 70.1924 146.984 69.4368 146.234 69.3598C146.036 69.3405 146.02 69.1624 146.062 69.0036C146.187 68.479 145.744 68.2817 145.421 67.9882C144.848 67.4684 144.098 67.2133 143.468 66.7802C141.4 65.3797 139.223 64.1188 137.051 62.8482C135.775 62.1071 134.343 61.6306 133.14 60.7836C132.666 60.4515 131.994 60.3841 131.624 59.8932C131.327 59.4938 130.906 60.2397 130.614 59.7729C130.307 59.2916 129.822 59.0173 129.255 58.8296C128.062 58.4398 126.937 58.0115 125.874 57.2751C124.656 56.4329 122.979 56.2308 121.645 55.61C120.192 54.9266 118.739 54.3394 117.218 53.81C116.281 53.4828 115.27 53.2421 114.348 53.0496C113.619 52.9004 112.775 52.0823 111.864 52.7753C111.755 52.8619 111.479 52.7753 111.437 52.5298C111.39 52.2315 111.161 52.2603 110.906 52.1737C109.999 51.8609 109.031 51.7983 108.15 51.5721C106.775 51.2208 105.39 51.1967 104.025 50.9369C103.229 50.7877 102.317 50.6866 101.786 51.7887C101.864 50.8887 101.275 50.7443 100.687 50.7251C99.9212 50.6962 99.1504 50.624 98.3796 50.8502C98.0046 50.9609 97.6139 50.8695 97.5827 51.3844C97.5723 51.5192 97.3691 51.6299 97.1921 51.5769C97.0098 51.5192 97.0046 51.3411 97.0046 51.1919C96.9994 50.9754 97.1869 50.6096 96.7233 50.7155C96.1973 50.8358 95.4369 50.4604 95.1973 51.2882C95.1296 51.5047 94.9004 51.4614 94.7129 51.3459C93.8171 50.8069 93.2233 50.831 92.5671 51.4807C92.2702 51.7694 91.9889 51.7743 91.7546 51.5047C91.1348 50.7973 90.8952 51.0957 90.7181 51.7839C90.64 52.0967 90.39 52.294 90.0202 52.3229C89.8848 51.4999 89.8848 51.4999 89.166 51.9668C89.0983 52.0101 88.9421 52.063 88.9212 52.039C88.3952 51.4518 88.1087 51.9283 87.7858 52.2507C87.5931 52.4432 87.5046 52.2844 87.3327 52.1737C86.5358 51.6684 85.0046 52.2459 84.916 53.1074C84.7181 52.2748 84.3796 52.6309 84.0358 52.963C83.541 53.4394 83.1556 54.1373 82.2337 53.4491C81.9264 53.2181 81.4473 53.3961 81.0671 53.6608C79.89 54.4838 78.9056 55.48 77.9369 56.4955ZM99.6712 84.2069C99.2233 85.6892 98.2389 86.8538 97.265 88.0329C96.8327 88.5527 96.6452 89.1976 96.14 89.7029C95.6191 90.2227 95.1556 90.1505 94.7337 89.7799C93.8483 88.9907 92.6452 88.7789 91.6504 88.1918C91.5723 88.1436 91.4577 88.1292 91.3952 88.0714C90.1035 86.8827 88.2702 86.4303 86.9473 85.2993C86.3014 84.7507 85.6035 84.2694 84.9525 83.7352C84.6504 83.4801 84.0358 83.8796 83.916 83.1192C83.8379 82.6524 83.7598 82.2866 84.0202 81.892C84.9056 80.5492 85.5931 79.0814 86.9004 78.0033C87.2337 77.729 87.4525 77.421 87.5514 77.0264C87.5931 76.8483 87.6244 76.6654 87.9473 76.651C88.0671 76.7183 88.2441 76.7953 88.3952 76.906C90.14 78.2055 92.166 79.1054 93.9889 80.299C95.7546 81.4588 97.6191 82.4887 99.4421 83.5764C99.7025 83.7304 99.7806 83.8459 99.6712 84.2069ZM103.036 90.1024C102.296 90.9446 101.791 91.9553 101.182 92.8889C101.062 92.3114 100.744 92.0756 100.182 91.9264C99.7389 91.8109 99.5879 91.4981 99.8952 91.0264C100.921 89.4671 101.874 87.8693 102.671 86.1993C102.911 85.6988 103.171 85.4148 103.838 85.7758C104.364 86.0646 104.994 86.1849 105.619 86.2041C106.281 86.2234 106.301 86.5266 105.895 86.8442C104.713 87.7634 103.984 89.0147 103.036 90.1024ZM114.598 89.8618C113.531 91.3007 112.38 92.682 111.426 94.1883C111.192 94.5589 110.671 94.4867 110.343 94.3664C109.739 94.145 109.312 94.2461 108.952 94.8429C108.874 94.1402 107.63 93.5049 106.952 93.8803C106.244 94.275 106.156 93.5964 105.775 93.4809C105.51 93.3991 105.765 92.9274 105.921 92.7012C106.515 91.8494 106.958 90.9302 107.702 90.1361C108.208 89.6019 108.765 89.0532 109.176 88.4468C109.468 88.0185 109.708 88.0281 110.119 88.1629C111.036 88.4565 111.958 88.7452 112.89 89.0003C113.255 89.1013 113.64 89.2457 114.031 89.0917C114.296 88.9858 114.588 88.9666 114.739 89.188C114.88 89.3997 114.734 89.6789 114.598 89.8618ZM138.364 94.2702C138.005 94.7322 137.822 95.2953 137.348 95.6995C136.952 96.0316 136.723 96.4792 135.979 96.1567C135.432 95.9257 135.27 96.6428 134.932 96.9268C134.765 97.0615 134.661 97.331 134.4 97.2059C134.13 97.076 134.239 96.8498 134.395 96.6717C134.515 96.5321 134.541 96.4118 134.348 96.3059C134.156 96.9316 133.015 95.6947 133.057 96.8834C133.067 97.2396 132.64 97.3743 131.697 97.4802C131.718 97.1481 132.406 97.0663 132.114 96.7198C131.9 96.4551 131.489 96.4311 131.13 96.4262C130.416 96.4118 129.692 96.3685 128.984 96.4262C128.031 96.5032 127.124 96.0268 126.15 96.2915C125.364 96.5081 124.442 95.6899 123.692 96.5177C123.661 96.5562 123.452 96.5417 123.432 96.5032C122.76 95.3867 121.536 95.7669 120.63 95.8295C119.718 95.892 118.963 95.4878 118.093 95.5359C117.557 95.56 117.046 95.2953 116.416 95.3434C115.666 95.4011 115.968 94.6648 116.124 94.3231C116.505 93.4616 116.999 92.6435 117.452 91.8109C117.598 91.5414 117.77 91.2863 117.916 91.0168C117.999 90.8532 118.062 90.6222 118.26 90.6077C119.202 90.5211 120.156 90.7906 121.104 90.574C121.744 91.5703 122.864 91.089 123.755 91.2526C125.713 91.6136 127.723 91.6665 129.708 91.6039C131.791 91.5414 133.937 91.5799 135.932 90.9254C137.52 90.4056 139.234 90.1794 140.708 89.4431C141.343 89.1254 142.124 88.9714 142.567 88.3361C142.635 88.3939 142.708 88.4516 142.775 88.5046C141.307 90.4296 139.843 92.3547 138.364 94.2702ZM82.4577 59.3494C82.7181 58.9403 83.8014 58.8729 84.5254 58.8393C85.7389 58.7863 86.9473 58.7863 88.166 58.6756C89.6816 58.5409 91.2337 59.0943 92.7494 58.8489C94.3796 58.5794 95.8796 59.3831 97.5358 59.0895C98.515 58.9163 99.5723 59.5563 100.64 59.6959C106.895 60.5285 112.833 62.3092 118.525 64.8599C120.979 65.9572 123.447 67.0208 125.848 68.2192C129.937 70.2597 133.958 72.4062 137.854 74.7596C139.291 75.6307 140.025 77.0119 141.176 78.0707C142.015 78.8455 142.083 79.9717 143.02 80.7081C142.426 80.9535 141.89 81.1171 141.432 81.3481C140.541 81.7957 139.812 82.4165 138.64 82.0556C138.359 81.9738 137.786 82.301 137.286 82.3251C136.9 82.3444 136.437 82.4165 136.15 82.7679C136.046 82.893 136.124 83.1914 135.838 83.1481C135.416 83.0855 135.932 82.7005 135.447 82.4839C135.322 82.6524 135.202 82.9844 134.979 83.0614C134.734 83.1481 134.447 83.5572 134.041 82.9171C133.614 82.2481 132.666 82.8545 131.979 82.9796C131.624 83.047 131.385 83.3021 131.145 82.8641C131.088 82.7631 130.911 82.6861 130.807 82.7823C130.395 83.1673 130.041 82.8786 129.598 82.8112C128.26 82.6091 126.88 82.4069 125.546 82.4021C123.952 82.3925 122.515 81.6898 120.968 81.7813C119.755 81.8535 118.921 81.0738 117.859 80.8428C117.083 80.6744 116.338 80.3279 115.52 80.5396C115.239 80.6166 115.182 80.5204 115.135 80.3038C115.083 80.0728 114.864 79.9332 114.64 79.9188C112.749 79.8033 111.229 78.7589 109.51 78.2103C108.838 77.9937 108.208 77.6568 107.531 77.4787C105.187 76.8483 103.291 75.4189 101.14 74.4612C100.156 74.0232 99.3639 73.2532 98.166 73.0751C97.6973 73.0078 97.1816 72.2714 96.5931 71.9201C95.4264 71.2175 94.3066 70.4378 93.1244 69.7496C92.416 69.3405 92.3014 68.8689 92.8952 68.0026C91.9994 68.532 91.2858 68.9555 90.916 67.8871C89.4837 67.8582 88.9733 66.5973 87.9577 66.015C87.9264 66.0005 87.9056 65.962 87.8796 65.962C87.1764 65.9813 87.0931 65.2353 86.6452 65.062C85.9264 64.7925 85.7806 64.1669 85.3327 63.753C84.8535 63.3054 84.1556 63.0792 83.791 62.4776C83.5462 62.0782 83.3744 61.6354 83.1348 61.236C82.6816 60.4948 81.8691 60.2349 81.3171 59.6285C81.8014 59.744 82.0462 59.9991 82.4577 59.3494ZM79.89 70.202C80.8171 71.0057 81.8431 71.6939 82.6191 72.6613C83.0723 73.2291 84.2546 73.3928 84.1764 74.1965C84.1035 74.8847 83.5671 75.597 83.0619 76.1601C82.4316 76.8627 82.1191 77.7338 81.515 78.422C81.0879 78.9177 81.3275 79.6493 80.6348 80.0631C79.9681 79.3798 79.1452 78.8696 78.0827 78.7734C77.8744 78.7541 77.7025 78.5375 77.8275 78.3691C78.14 77.9504 78.291 77.6135 77.7181 77.2525C77.1816 76.9108 76.8431 77.2477 76.416 77.5606C76.14 76.7232 76.515 75.9387 75.9421 75.2986C75.2754 74.5623 74.64 73.8067 74.0462 73.0174C73.791 72.6805 73.6191 73.4361 73.0202 73.4409C74.1764 70.8806 75.8327 68.5753 76.2441 65.8513C76.6452 65.8754 76.7598 66.0823 76.8639 66.3085C77.5566 67.8149 78.6296 69.1047 79.89 70.202ZM0.858724 46.9616C0.0410159 47.183 0.317057 47.5535 0.582682 48.0156C1.13477 48.9781 1.72331 49.931 2.23372 50.8983C2.68164 51.755 3.77539 52.0823 3.99935 53.0496C4.02018 53.1459 4.32747 53.2084 4.51497 53.2517C4.71289 53.2951 4.87435 53.3721 5.00456 53.5213C5.85351 54.5223 6.81706 55.4223 7.99414 56.0912C9.18685 56.765 10.2546 57.612 11.6139 58.0837C12.8223 58.4976 13.9368 59.027 15.2389 58.5024C15.4837 58.4061 15.7233 58.358 15.9993 58.4254C16.64 58.5842 17.1087 58.3051 17.4941 57.8623C17.8691 58.2762 18.2806 58.4157 18.9264 58.3917C20.2285 58.3436 21.4316 57.8479 22.7858 57.9345C23.8171 58.0019 24.9681 57.588 25.9837 57.5591C28.916 57.4773 31.765 57.0249 34.6191 56.5051C35.5098 56.3463 36.3796 56.0768 37.2702 55.9132C37.7702 55.8169 38.3223 55.8747 38.4837 55.2538C38.515 55.1239 38.6191 55.095 38.7806 55.1624C39.1243 55.2971 40.7285 54.9602 41.0462 54.8159C41.8275 54.4645 42.3691 53.2566 43.541 54.2095C43.7441 54.3731 43.9473 54.0747 44.0983 53.9448C44.7546 53.3769 45.5306 53.0159 46.3952 52.8186C47.7546 52.5154 48.8587 51.6876 50.1712 51.2834C51.9473 50.7347 53.3848 49.6134 54.9994 48.7952C55.5254 48.5257 56.1608 48.5642 56.6035 48.1792C57.7025 47.2263 59.1973 46.9038 60.4369 46.1482C61.14 45.7247 61.9941 45.3397 62.6504 44.8584C63.64 44.1317 65.0306 43.8045 65.5671 42.5772C65.5879 42.5291 65.666 42.4569 65.7077 42.4665C66.4837 42.5772 66.7285 41.8313 67.2858 41.5666C68.1191 41.1671 68.765 40.3827 69.4837 39.757C71.0202 38.4047 72.2702 36.8405 73.5254 35.2909C74.3744 34.2369 75.0827 33.077 75.9108 32.023C77.9941 29.3809 78.9369 26.2093 80.765 23.4613C80.8796 23.288 81.0358 23.0185 80.9681 22.8742C80.5566 22.0079 80.8639 21.0935 80.6869 20.2176C80.6191 19.8951 80.5358 19.5486 80.1244 19.4379C79.7077 19.3272 79.515 19.6208 79.291 19.8903C79.4889 19.462 79.515 19.0192 79.8014 18.6246C80.6921 17.3925 80.4473 16.3193 79.1452 15.4386C78.916 15.2846 78.9837 15.0632 79.1452 14.991C79.8691 14.6637 79.5098 14.3557 79.1348 14.0862C78.4369 13.5905 78.2285 12.9649 78.4212 12.1948C78.4681 12.0216 78.5514 11.8291 78.2702 11.7617C78.0671 11.7184 78.0098 12.2237 77.7389 11.9109C77.5306 11.6654 77.8535 11.4729 77.8848 11.2467C77.916 11.0061 77.7077 10.8762 77.6348 10.7029C77.3796 10.111 76.7285 9.71631 76.9264 8.86447C77.0306 8.41208 75.8171 7.97894 76.3379 7.16078C76.2754 7.13672 76.2181 7.10784 76.1556 7.0934C75.4577 6.88165 75.3587 6.42925 75.6244 5.88061C75.8639 5.37528 75.7337 5.12983 75.166 4.93251C74.9212 4.84107 74.4525 4.89883 74.4264 4.4705C74.3639 3.41171 73.916 3.64272 73.4785 4.15286C72.6764 3.69566 73.7441 2.34811 72.2494 2.23742C72.2025 2.2326 72.1556 2.08823 72.1244 2.0016C72.0462 1.80428 72.0046 1.54439 71.7077 1.58771C71.4316 1.62621 71.4473 1.88609 71.3952 2.09304C71.0671 3.26733 70.4056 3.53203 69.7337 2.65612C69.2285 1.99197 68.6244 1.66471 67.9212 1.27007C66.2806 0.360475 64.7025 0.360474 63.0723 1.15938C62.8171 1.28451 62.4889 1.40964 62.4733 1.11125C62.4525 0.552982 62.0723 0.702174 61.7494 0.63961C61.1504 0.528918 60.6191 0.85618 60.0306 0.798428C57.9525 0.591483 55.9108 1.02944 53.8848 1.27488C51.8379 1.52514 49.8431 2.15079 47.8327 2.62724C47.6296 2.67537 47.3848 2.72831 47.3223 2.99301C47.1869 3.58497 47.1608 3.60903 46.7077 3.29621C46.515 3.16626 46.3952 3.00745 46.1296 3.13257C45.0983 3.61865 43.8014 3.65234 43.1035 4.69669C42.9941 4.86032 42.7077 5.1154 42.5879 4.8122C42.3587 4.25393 42.0931 4.663 41.8587 4.72557C41.3275 4.85551 41.166 5.41378 40.6556 5.67367C40.6973 5.45228 40.8119 5.22609 40.7441 5.1539C40.5462 4.96139 40.3275 5.13465 40.1348 5.2309C38.041 6.27044 35.9733 7.34366 33.8587 8.33507C29.4785 10.3949 25.4733 12.9456 21.7441 15.8862C21.1556 16.353 20.6296 16.8968 20.0098 17.3251C18.3066 18.485 16.765 19.8325 15.291 21.2138C12.8275 23.5287 10.4577 25.9446 8.18685 28.4232C6.70247 30.045 5.35352 31.7824 4.22852 33.6497C3.47331 34.8962 2.94206 36.2197 2.43164 37.5624C1.9681 38.7704 0.796225 39.7426 1.04102 41.1864C1.07227 41.3644 0.884765 41.4126 0.754557 41.504C-0.000652075 42.0286 0.587891 42.7794 0.410807 43.4098C0.301433 43.7997 0.561848 43.9296 0.988932 43.8718C1.13477 43.8526 1.17643 44.0259 1.09831 44.1462C0.520182 44.998 1.28581 44.9739 1.86914 45.0798C1.23893 45.4215 0.702474 45.7777 0.561849 46.4514C0.910808 46.591 0.968099 46.1001 1.28581 46.2493C1.39518 46.6151 1.16081 46.8798 0.858724 46.9616ZM37.3483 49.0407C36.9577 48.9925 36.5566 49.0551 36.2129 49.238C35.7025 49.5171 35.3535 49.8107 34.5723 49.5604C33.8379 49.3294 34.041 50.0898 34.291 50.5567C32.2754 50.1909 30.3691 49.9984 28.4368 50.4604C28.0879 50.5422 27.7598 50.4989 27.5775 50.8887C27.4681 51.1149 27.0618 51.2401 26.9108 51.0668C26.4004 50.4893 25.9004 50.8502 25.4473 51.0475C25.166 51.163 25.0358 51.2304 24.7025 51.086C24.3587 50.9417 23.7233 50.8983 23.4941 51.0909C22.7493 51.7117 22.0671 52.0967 20.9993 51.7454C20.8014 51.6828 20.5566 51.8176 20.3223 51.524C20.0254 51.1534 19.6348 51.3171 19.3691 51.6443C19.2181 51.8272 19.2129 52.1063 18.9629 52.2218C18.4837 52.0871 19.1296 51.4566 18.5879 51.4614C18.0306 51.4662 17.39 51.2449 16.916 51.7213C16.4421 52.1978 16.14 52.4143 15.5671 51.6876C15.3223 51.3796 14.6764 51.0235 14.14 50.8454C13.5358 50.6529 13.0983 50.2583 12.5254 49.9936C12.8639 49.7577 13.1868 49.6374 13.5566 49.6326C13.7129 49.6278 13.9525 49.6422 14.0202 49.5604C14.4733 48.9973 14.8796 48.4294 15.8066 48.9203C15.9004 48.9733 16.2077 48.5931 16.2337 49.1032C16.2441 49.3439 16.6243 49.3198 16.8118 49.2091C17.2702 48.9492 17.9316 49.1273 18.2702 48.5835C18.4212 48.338 18.6504 48.646 18.8431 48.6845C19.2702 48.776 19.6764 48.93 19.3483 48.2514C19.1868 47.9241 19.5098 47.876 19.7233 47.9482C20.5775 48.2225 21.4629 47.4429 22.3171 48.0541C22.5202 48.2033 22.8014 48.0059 23.0046 47.8327C23.2233 47.6546 23.4525 47.4284 23.765 47.4814C24.1035 47.5391 24.515 47.8375 24.6712 47.3658C24.7962 46.976 24.3796 46.7546 24.0046 46.5862C24.2441 46.4466 24.4473 46.4659 24.5983 46.5862C25.5046 47.2792 25.5046 47.2792 26.041 46.2541C26.3171 47.4188 26.7702 46.9905 27.5462 46.6728C28.4421 46.3071 29.4785 46.0472 30.4785 45.9557C31.3223 45.8787 31.6973 45.0991 32.515 45.0221C32.6035 45.0125 32.2806 44.2424 32.8223 43.9007C32.9316 44.0884 32.666 44.613 33.3587 44.382C34.4316 44.0259 35.5775 43.8478 36.6921 43.6023C37.0983 43.5109 37.4577 43.3906 37.5254 44.0451C37.5462 44.2617 37.5775 45.282 38.5775 44.7766C38.8223 44.6563 38.89 45.1135 38.791 45.2386C38.1244 46.052 38.5358 46.8316 38.8014 47.6257C39.1087 48.545 38.4316 49.185 37.3483 49.0407ZM49.3952 45.5467C48.3014 45.1568 47.515 45.3927 46.7858 45.9028C46.6244 46.0135 46.3431 45.9846 46.1191 46.0135C45.8223 46.052 45.5931 45.8787 45.4316 45.7199C45.2129 45.4937 45.4681 45.282 45.6191 45.1087C46.0462 44.6034 46.2181 44.175 45.2806 44.0595C44.8639 44.0114 44.765 43.7082 44.8796 43.482C45.416 42.404 44.5723 42.5243 43.6296 42.4521C44.5306 41.9468 44.2441 41.3211 44.166 40.7821C44.0775 40.195 44.3431 39.8485 44.8119 39.5934C45.3223 39.3142 45.9421 39.3191 46.3639 38.7608C46.5619 38.5009 46.9733 39.0592 47.0202 39.372C47.2129 40.758 47.9629 41.9757 48.3119 43.3136C48.4212 43.7323 48.9108 43.6938 49.4004 43.6986C49.0931 44.2617 48.9421 44.7911 49.3952 45.5467ZM60.2754 39.5356C59.1816 40.0987 58.0827 40.657 57.1191 41.1431C56.1921 41.1719 56.0202 40.5463 55.6921 40.142C55.5046 39.9062 55.4785 39.5645 55.041 39.6126C55.0098 39.6126 54.9473 39.5982 54.9473 39.5934C54.9421 38.4913 52.7754 38.3325 53.5566 36.879C53.6035 36.7924 53.5514 36.6432 53.5098 36.5325C53.1244 35.6037 53.5046 35.1176 54.5254 34.9395C55.1556 34.8288 55.5931 34.3764 56.0462 34.0059C56.3119 33.7893 56.666 33.361 56.8587 33.5775C57.14 33.9 57.7285 34.0396 57.6921 34.6075C57.666 34.9828 57.5879 35.3823 58.3171 35.3486C58.7181 35.3342 58.7441 35.7914 58.6244 36.1379C58.4108 36.7587 58.6139 37.2255 59.1608 37.6394C59.7077 38.0581 59.7233 38.8378 60.3483 39.2324C60.4525 39.2998 60.416 39.4683 60.2754 39.5356ZM71.9056 20.7181C72.0983 20.232 72.3171 19.77 72.7025 19.4283C74.0046 19.717 73.3744 20.7181 73.4681 21.4063C73.5514 22.0271 73.6452 22.6095 73.9837 23.1437C74.0723 23.288 74.1504 23.3987 74.0775 23.5527C73.7129 24.3853 74.265 24.8329 75.0202 25.2612C74.3223 25.4441 74.1035 25.8195 74.0931 26.4067C74.0723 27.7927 73.14 28.8226 72.4056 29.9343C71.4056 31.4455 70.1244 32.7546 68.916 34.1117C68.4004 34.6941 67.9525 35.5796 66.8952 34.5738C66.6296 34.3187 65.8796 34.4246 65.4212 34.7422C65.265 34.4053 65.4577 34.2561 65.5879 34.0925C65.9316 33.6594 66.2389 33.361 65.4681 32.8893C65.0462 32.6294 64.3066 32.0952 64.6764 31.2771C64.7754 31.0557 64.5202 30.7766 64.2337 30.7814C63.8171 30.7862 63.416 30.6129 63.4629 30.2953C63.541 29.79 63.5827 29.1499 64.2025 28.9044C65.4733 28.4039 66.3275 27.4847 67.2494 26.5799C67.8223 26.0216 68.5098 25.5885 69.0306 24.9195C70.0931 23.572 71.265 22.3063 71.9056 20.7181ZM6.14518 42.0286C6.74414 41.6628 7.23893 41.0612 6.88997 40.5174C5.82227 38.857 7.08268 37.6972 7.82227 36.4988C8.71289 35.0647 9.77539 33.693 10.9368 32.4369C11.6921 31.6188 12.6296 30.945 13.3743 30.0835C14.5098 28.7649 15.9212 27.6483 17.4421 26.7532C18.3275 26.2334 18.7806 25.2661 19.8848 24.9917C20.2546 24.9051 20.6452 24.4238 20.8743 24.1399C21.6921 23.11 23.1504 22.9223 23.9525 21.9164C24.3118 21.464 25.0618 21.5314 25.5306 21.0838C26.8066 19.8662 28.6556 19.4283 30.0618 18.4224C31.0462 17.7198 32.416 17.6524 33.1608 16.6562C33.9994 16.9064 34.3952 16.1894 34.9681 15.9006C36.0566 15.3471 37.2441 14.9862 38.3535 14.4664C39.0306 14.1488 39.9004 13.9755 40.6921 13.7445C42.7806 13.1237 44.7806 12.2718 46.9108 11.7617C47.8379 11.5403 48.9212 11.4441 49.64 10.9869C50.4994 10.443 51.4212 10.6692 52.2598 10.4478C53.2077 10.1928 54.3119 10.0243 55.3535 9.94732C56.7546 9.84625 58.1139 9.59118 59.4941 9.39867C59.8066 9.35055 60.0983 9.19173 60.4316 9.35055C60.5566 9.41311 60.8171 9.42755 60.8952 9.35536C61.9525 8.34951 63.2285 9.16767 64.3848 9.00885C64.9525 8.93184 65.6452 8.75859 65.9056 9.77888C66.0983 10.5248 67.3066 10.6933 68.1087 10.9484C68.6556 11.1216 68.515 10.3708 68.7025 10.0003C69.0983 10.3131 69.5306 10.5297 69.1087 11.0398C69.0098 11.1601 68.9108 11.3622 69.0671 11.4489C70.3483 12.1563 68.7025 13.2729 69.5098 14.0333C69.1244 15.4145 68.7441 16.7958 68.3535 18.1722C68.0098 19.3802 67.2337 20.2801 66.1035 20.9828C64.4369 22.0175 62.9369 23.3025 61.1139 24.0918C59.0879 24.9629 57.3119 26.1949 55.4056 27.2393C54.3327 27.8216 53.0723 28.2018 52.3691 29.2846C52.3066 29.3857 51.9733 29.4386 51.8327 29.3761C51.4316 29.2173 51.0775 29.3665 50.8171 29.5445C49.3223 30.5744 47.3691 31.0172 46.2754 32.5669C46.2129 32.6535 46.0671 32.7642 45.9785 32.7498C44.5462 32.5284 43.6244 33.4765 42.4994 33.9962C40.7181 34.8144 39.1869 36.0128 37.39 36.8165C36.0514 37.4181 34.5254 37.7068 33.416 38.7223C32.4629 38.4287 31.9368 39.1314 31.2806 39.5212C31.0879 39.6319 30.89 39.7618 30.7598 39.9255C30.5723 40.1757 30.4525 40.4645 30.0254 40.3923C29.5566 40.3057 29.8327 39.8821 29.5879 39.6078C29.1608 40.2142 28.2702 39.988 27.8014 40.5511C27.6296 40.7532 27.4264 40.6089 27.3587 40.4163C27.2181 40.0169 26.7077 40.1372 26.64 40.1998C25.8014 40.9794 24.6764 40.5848 23.7181 40.8399C22.6973 41.1046 21.6504 41.2874 20.6191 41.5233C19.8014 41.711 19.1816 41.9949 18.7389 42.6639C18.5618 42.9238 18.2077 42.9623 17.8587 42.8467C17.8066 42.5484 18.3848 42.4762 18.1556 42.1682C17.9108 41.8505 17.5462 42.0286 17.2493 42.0863C16.041 42.3366 14.8483 42.7457 13.6296 42.8275C12.7389 42.8901 11.8171 42.7842 10.9212 42.9526C10.3691 43.0585 9.77018 43.0296 9.4056 43.5783C9.25456 43.8045 8.8431 43.766 8.74414 43.5446C8.36393 42.712 7.77018 43.1499 7.22852 43.2895C6.95768 43.3569 6.67123 43.6023 6.43685 43.2991C6.17643 42.9623 5.94206 42.5869 5.7806 42.2019C5.70768 42.0238 6.02539 42.1008 6.14518 42.0286ZM36.89 160.536C37.0566 160.897 37.5514 160.584 37.8796 160.685C38.4681 160.863 39.0306 160.608 39.5983 160.608C40.2806 160.603 40.6139 159.982 41.2285 159.973C42.5827 159.958 43.8535 159.516 45.1452 159.251C46.1452 159.049 47.1712 158.654 48.1712 158.298C48.7441 158.091 49.3483 157.764 49.7441 157.47C50.2494 157.1 50.7754 156.845 51.3171 156.724C52.4629 156.464 53.4837 156.022 54.515 155.507C55.3691 155.078 56.2858 154.717 57.2233 154.405C58.1296 154.111 59.041 153.543 59.8691 152.951C61.3483 151.892 62.916 150.963 64.2754 149.731C65.2546 148.846 66.041 147.821 67.015 146.94C68.2494 145.828 69.515 144.717 70.4629 143.355C70.666 143.061 71.0046 142.816 71.3379 142.647C71.7337 142.44 71.9629 142.142 72.1764 141.795C72.6087 141.088 73.0671 140.409 73.6348 139.774C74.515 138.792 75.3691 137.757 76.0306 136.646C77.6764 133.869 79.0098 130.952 80.3535 128.046C81.2806 126.034 81.2546 123.844 81.4004 121.698C81.416 121.495 81.4941 121.187 81.265 121.115C80.4108 120.841 80.6764 120.451 81.015 119.96C81.2337 119.647 80.8796 117.665 80.6244 117.626C79.3431 117.424 79.8796 116.707 80.0827 116.086C80.1452 115.884 80.2285 115.711 80.14 115.484C79.6973 114.32 79.3379 113.141 78.1973 112.322C77.8379 112.067 77.3796 111.808 77.2025 111.365C76.7702 110.239 75.916 109.733 74.7077 109.907C74.4681 109.546 75.3171 109.127 74.5827 108.973C74.1504 108.886 73.666 109.122 73.6504 108.434C73.64 108.217 73.4264 108.309 73.2754 108.4C73.0254 108.545 73.0202 108.896 72.6816 108.987C72.4837 108.102 71.0358 108.256 70.9994 107.231C70.9994 107.207 70.8119 107.149 70.7285 107.173C70.3431 107.279 70.2025 107.038 70.0514 106.798C69.7129 106.268 69.2494 106.124 68.5671 106.201C68.1504 106.244 67.5462 106.576 67.2285 105.893C66.9525 105.306 66.5566 105.286 66.1608 105.835C65.9264 106.167 65.5827 106.292 65.0879 106.225C65.3587 105.662 65.5514 104.863 64.8223 104.805C63.9629 104.733 63.14 104.608 62.3119 104.41C62.0879 104.358 61.89 104.439 61.6296 104.266C61.2494 104.011 60.6869 103.679 60.3275 104.449C60.14 104.844 59.2858 104.834 59.265 104.723C59.166 104.141 58.1087 104.362 58.2702 103.616C58.3066 103.433 57.9837 103.409 57.791 103.462C57.4316 103.554 57.0723 103.376 56.765 103.4C56.0202 103.453 54.9837 102.851 54.6504 104.083C54.4577 103.722 54.6504 103.063 54.0827 103.135C53.2233 103.251 52.3796 102.928 51.5775 103.116C51.0566 103.236 50.2025 102.774 50.0202 103.717C50.0046 103.794 49.7337 103.64 49.6556 103.515C49.2181 102.837 48.9369 102.933 48.6504 103.626C48.5202 103.944 48.2077 104.059 47.9316 103.689C47.7077 103.385 47.4421 103.409 47.0827 103.496C46.5827 103.616 46.0514 103.616 45.5358 103.674C44.9525 103.737 44.3744 103.809 43.8744 104.136C43.5462 104.353 43.4369 105.296 42.7233 104.42C42.5983 104.266 42.1139 104.526 42.0619 104.897C42.041 105.036 42.0358 105.306 41.8587 105.118C41.3119 104.536 40.916 105.079 40.4889 105.224C39.6868 105.489 39.2337 106.254 38.1608 106.278C37.2754 106.292 36.4056 106.956 35.5254 107.317C33.9941 107.943 32.4994 108.674 31.0618 109.43C29.1139 110.46 27.2233 111.629 25.4108 112.9C22.9421 114.628 20.6868 116.548 18.5566 118.632C16.3431 120.798 14.2233 123.04 12.0566 125.245C10.6087 126.712 9.54623 128.416 8.37435 130.048C7.52018 131.231 7.45768 132.786 6.4056 133.922C6.23893 134.1 6.10872 134.417 6.06706 134.74C5.8431 136.468 5.55143 138.191 5.31706 139.918C5.24935 140.409 5.21289 140.833 4.82227 141.261C4.53581 141.574 3.55143 142.147 4.80664 142.585C4.91081 142.623 4.85352 142.715 4.82227 142.811C4.42122 143.894 4.56185 144.976 4.85352 146.055C4.9681 146.045 5.05143 146.059 5.08789 146.03C5.25456 145.872 5.36393 145.516 5.66602 145.732C5.97331 145.944 5.56706 146.055 5.48372 146.213C5.11914 146.897 4.65039 147.619 5.42122 148.278C5.85351 148.653 6.07227 149 5.95768 149.544C5.93685 149.64 6.12956 149.784 6.23893 149.89C7.45247 151.021 8.97331 151.782 10.2285 152.917C12.5618 155.03 15.5254 156.45 18.3223 158.014C19.0254 158.409 19.9577 158.447 20.6712 159.001C21.2025 159.41 22.0202 159.439 22.6243 159.723C24.8639 160.786 27.3275 160.786 29.7025 161.195C30.0462 161.253 30.2337 161.051 30.4525 160.863C30.7233 160.632 31.2129 160.367 31.4004 160.589C32.1087 161.397 33.1035 160.95 33.9212 161.2C34.8796 161.489 35.5514 160.776 36.3535 160.541C36.7962 160.406 36.5254 159.905 36.5462 159.564C36.5566 159.415 36.6556 159.265 36.8483 159.256C37.1191 159.246 37.3691 159.337 37.5514 159.516C37.6816 159.641 37.5879 159.795 37.4681 159.91C37.2493 160.112 36.7389 160.209 36.89 160.536ZM52.5723 148.721C51.7181 149.452 50.6139 149.755 49.5931 150.184C49.166 150.362 48.9369 149.938 48.7858 149.601C48.7285 149.457 48.9577 149.212 48.6504 149.164C48.3639 149.12 48.1608 149.265 48.0931 149.549C48.0619 149.688 48.015 149.871 47.8171 149.861C47.6087 149.857 47.6087 149.664 47.5462 149.529C47.2285 148.894 47.5671 148.057 48.2025 147.667C49.2754 147.007 50.4316 146.55 51.6504 146.189C52.3483 145.987 52.5983 146.266 52.6556 146.829C52.6191 147.373 52.3275 147.898 52.6973 148.418C52.7702 148.519 52.6764 148.629 52.5723 148.721ZM73.4316 130.447C73.5827 131.361 73.4369 132.184 72.7129 132.849C72.6452 132.911 72.5671 132.978 72.5306 133.055C70.8587 136.732 67.7962 139.452 64.9264 142.272C63.6712 143.504 62.0098 144.38 60.5202 145.405C60.3327 145.535 59.8796 145.742 59.8535 145.535C59.7806 144.976 58.6504 145.285 58.9785 144.529C59.1452 144.144 58.7233 144.115 58.5931 143.913C58.3535 143.547 58.0306 143.234 58.89 142.989C59.8639 142.71 60.9056 142.358 61.4421 141.381C61.8171 140.703 62.765 140.838 63.2962 140.313C63.9264 139.692 64.7702 139.245 65.4473 138.72C66.64 137.801 67.8796 136.838 68.7754 135.592C69.0775 135.178 69.7962 135.029 70.0983 134.615C71.1504 133.19 72.6556 132.074 73.4316 130.447ZM24.3848 143.87C23.5775 143.831 22.7754 143.711 21.9733 143.59C20.2025 143.326 18.5306 142.734 16.7702 142.435C16.0723 142.32 15.541 141.497 15.14 140.862C14.8379 140.395 14.166 140.173 14.2285 139.413C14.265 139.028 13.541 139.206 13.2025 139.235C12.4316 139.293 11.916 139.172 11.9212 138.335C11.9212 138.277 11.8952 138.195 11.8535 138.171C10.3743 137.32 11.4368 136.203 11.5462 135.231C11.6764 134.143 11.9733 133.099 12.7389 132.141C13.5983 131.068 14.2702 129.865 15.1921 128.811C15.6764 128.257 16.3483 127.973 16.8587 127.449C17.7962 126.486 18.4681 125.302 19.6608 124.547C20.5775 123.964 21.5098 123.348 22.3014 122.665C23.39 121.726 24.6816 121.048 25.8587 120.268C27.3639 119.277 28.8952 118.204 30.7441 117.674C31.4733 117.462 32.3066 117.318 32.8119 116.635C33.1139 116.221 33.7494 116.264 34.1816 116.076C36.4421 115.109 38.8535 114.45 41.1556 113.555C41.8275 113.29 42.6556 113.266 43.1816 112.688C43.2181 112.645 43.3223 112.602 43.3483 112.616C44.2598 113.198 45.1764 112.52 46.0879 112.631C46.8066 112.717 47.5098 112.52 48.2129 112.409C49.5566 112.193 50.8952 112.472 52.2389 112.481C55.0202 112.505 57.7181 113.237 60.4785 113.367C61.8171 113.429 63.0619 113.834 64.3327 114.065C65.5671 114.286 66.9004 114.652 67.9681 115.398C68.4577 115.739 68.89 115.802 69.4004 115.552C70.0619 115.225 70.2389 115.561 70.3535 116.086C70.5775 117.126 71.1035 118.151 71.1712 119.152C71.2389 120.1 71.7285 121.115 71.1244 122.121C70.6973 122.833 71.3639 123.7 71.0306 124.446C69.9577 126.833 68.6452 129.018 66.3327 130.678C63.765 132.526 61.1348 134.22 58.14 135.39C56.291 136.112 54.4577 136.877 52.7598 137.839C51.6973 138.446 50.4785 138.393 49.416 138.994C47.4889 140.096 45.2858 140.66 43.1244 141.266C43.0619 141.285 42.9889 141.304 42.9473 141.348C42.0723 142.243 40.7962 142.002 39.7129 142.257C37.7754 142.719 35.7858 142.989 33.8171 143.321C33.3379 143.403 32.7598 143.316 32.9421 144.173C32.5098 143.412 32.166 143.345 31.8171 144.004C31.5723 144.457 31.3587 144.399 31.2181 143.961C31.1608 143.788 31.0931 143.667 30.9108 143.696C29.3275 143.908 27.64 143.47 26.1764 144.351C26.0254 144.437 25.9316 144.587 25.8223 144.36C25.5202 143.74 24.9264 143.894 24.3848 143.87ZM32.8639 153.091C31.1712 153.023 29.4681 152.903 27.8014 152.715C27.2389 152.653 26.5983 152.446 25.9577 152.465C25.5514 152.479 25.4889 151.772 25.0514 151.815C25.4473 151.695 25.8431 151.748 26.2077 151.83C26.9108 151.989 27.5671 151.998 28.2285 151.714C28.3118 151.676 28.4264 151.642 28.4993 151.666C30.0254 152.215 31.4577 151.589 32.9212 151.377C33.1035 151.348 33.4056 151.276 33.4316 151.175C33.5723 150.641 33.8379 150.862 34.1139 151.036C34.7806 151.454 35.4212 151.483 36.0358 150.935C36.2285 150.761 36.416 150.708 36.7285 150.776C37.5254 150.944 38.1869 150.728 38.6087 149.828C38.9525 150.66 39.4994 150.54 40.0358 150.333C40.4941 150.155 40.9421 150.203 41.1764 150.554C41.4525 150.973 41.7494 151.502 41.6869 151.945C41.6296 152.359 40.9577 152.518 40.4889 152.542C37.9421 152.677 35.4316 153.197 32.8639 153.091Z" fill="#08BA9C"/>
</g>
</svg>
