<svg width="70" height="64" viewBox="0 0 70 64" fill="none" xmlns="http://www.w3.org/2000/svg">
<mask id="mask0_335_665" style="mask-type:luminance" maskUnits="userSpaceOnUse" x="0" y="0" width="70" height="64">
<path d="M0.0527344 0H69.9471V64H0.0527344V0Z" fill="white"/>
</mask>
<g mask="url(#mask0_335_665)">
<path d="M69.8491 37.7136C69.8662 37.6927 69.9226 37.6229 70.0072 37.5211C69.8981 37.5285 69.8319 37.5334 69.7522 37.5395C69.8307 37.379 69.8981 37.2405 69.9655 37.1032C69.9422 37.1044 69.9202 37.1044 69.8969 37.1056C69.8871 36.9512 69.8675 36.798 69.8699 36.6435C69.8736 36.5087 69.9312 36.3555 69.713 36.3567C69.713 36.2366 69.713 36.1226 69.713 36.0699C69.5586 36.0307 69.436 35.9988 69.387 35.9866C69.4139 35.8076 69.4997 35.6103 69.4434 35.5539C69.2424 35.3517 69.2632 35.1519 69.3894 34.9153C69.1639 34.9055 68.9298 34.8246 69.0291 34.6322C69.1075 34.4777 69.0254 34.3772 69.0658 34.2865C68.9531 34.2718 68.855 34.2596 68.7447 34.2461C68.9298 33.8967 68.9519 33.8722 68.692 33.6406C68.4935 33.4628 68.3304 33.3047 68.2557 33.0314C68.225 32.9223 68.1061 32.6784 67.8536 32.7765C67.7801 32.8046 67.6967 32.8071 67.6171 32.8206C67.6171 32.7237 67.6171 32.6257 67.6171 32.4847C67.7066 32.5681 67.7568 32.6159 67.8083 32.6637C67.8156 32.5644 67.7495 32.4811 67.7629 32.4124C67.8034 32.1991 67.6722 32.1599 67.5202 32.0937C67.4418 32.0606 67.3952 31.9417 67.3474 31.8547C67.2812 31.7334 67.2469 31.5912 67.1648 31.4846C67.0618 31.3497 66.9246 31.2419 66.7873 31.1095C66.5385 31.1696 66.3448 31.0764 66.1622 30.7442C66.3571 30.8398 66.5078 30.9122 66.6573 30.9857C66.6757 30.9612 66.6941 30.9354 66.7125 30.9109C66.585 30.7185 66.3374 30.6768 66.1376 30.5873C66.1989 30.4966 66.2504 30.4219 66.2786 30.3802C66.1744 30.2723 66.0886 30.1816 65.982 30.0689C65.9661 30.0738 65.8937 30.0958 65.8153 30.1191C65.8594 30.0284 65.8925 29.961 65.9256 29.8948C65.8986 29.9046 65.8704 29.9144 65.8435 29.9242C65.743 29.8054 65.6412 29.6877 65.5432 29.5725C65.4733 29.6092 65.3949 29.6705 65.3079 29.6865C65.2613 29.6963 65.1988 29.6301 65.1436 29.597C65.1841 29.5688 65.2208 29.5308 65.265 29.5136C65.4084 29.4585 65.4182 29.3482 65.3128 29.2808C64.9745 29.0675 64.8972 28.6728 64.6411 28.3774C64.5859 28.4031 64.5197 28.4338 64.4253 28.4791C64.4744 28.0134 64.1974 27.816 63.848 27.7413C63.8333 27.6003 63.8542 27.4741 63.8051 27.3895C63.7034 27.2167 63.5674 27.0622 63.4387 26.9066C63.3185 26.7583 63.1935 26.6124 63.0611 26.4751C63.0391 26.4518 62.9729 26.4714 62.9263 26.4714C63.0305 26.2177 63.0097 26.1944 62.7277 26.2226C62.6395 26.2324 62.5476 26.2239 62.4532 26.2239C62.5316 25.7385 62.2742 25.41 61.9543 25.4394C61.8072 25.2984 61.7043 25.1869 61.5842 25.0999C61.5719 25.0913 61.4555 25.2286 61.355 25.3303C61.3231 25.3132 61.2459 25.2715 61.1699 25.231C61.1748 25.2126 61.1809 25.1955 61.1858 25.1771C61.2361 25.1747 61.2863 25.1722 61.3488 25.1685C61.3415 25.1195 61.3427 25.0741 61.3268 25.0361C61.1785 24.677 60.7507 24.8229 60.5227 24.5973C60.459 24.5336 60.3401 24.5263 60.2028 24.4797C60.1366 24.5397 60.0337 24.6329 59.8939 24.7604C59.8939 24.666 59.916 24.5937 59.8903 24.5483C59.8388 24.4576 59.7628 24.3816 59.6966 24.2995C59.5802 24.4343 59.4711 24.3314 59.362 24.2885C59.2774 24.2542 59.199 24.1929 59.1119 24.1806C58.7675 24.1279 58.4206 24.0899 58.0774 24.047C57.9782 24.1205 57.8544 24.21 57.7122 24.3142C57.6484 24.1598 57.6006 24.0446 57.5406 23.9011C57.4401 23.9661 57.3506 24.0225 57.3003 24.0556C57.0454 23.819 56.7794 24.0213 56.5355 23.9882C56.5416 23.9208 56.549 23.8533 56.5551 23.7859C56.446 23.7859 56.3455 23.7859 56.2205 23.7859C56.2683 23.8497 56.3026 23.895 56.3369 23.9404C56.3222 23.9526 56.3075 23.9649 56.2928 23.9784C56.2328 23.9208 56.1715 23.8644 56.1053 23.8006C56.0992 23.857 56.0943 23.9011 56.0906 23.9416C55.8932 23.8435 55.7082 23.7528 55.5648 23.6817C55.4066 23.7908 55.2645 23.8901 55.1039 24.0017C55.0524 23.8607 55.0254 23.7835 55.0022 23.7185C54.7742 23.7933 54.5646 23.8632 54.3623 23.9293C54.3047 23.8668 54.2557 23.8141 54.1981 23.7516C54.138 23.8239 54.0964 23.8742 54.0461 23.9355C53.9971 23.857 53.9591 23.7957 53.899 23.6977C53.6992 23.8203 53.5154 23.933 53.3352 24.0433C53.3573 23.9588 53.3793 23.873 53.4026 23.7798C53.2175 23.8055 53.0754 23.8252 52.9319 23.846C52.9454 23.8668 52.9577 23.8889 52.9712 23.911C52.8241 24.0004 52.6758 24.0899 52.5213 24.1843C52.5115 24.0973 52.5054 24.0397 52.5005 23.9918C51.7148 23.9796 50.9622 24.0617 50.2746 24.4417C50.2562 24.3596 50.2415 24.2885 50.2293 24.237C50.1386 24.248 50.0626 24.2492 49.9915 24.2676C49.777 24.324 49.5453 24.3534 49.3553 24.4576C49.1825 24.552 49.0526 24.5667 48.8994 24.4552C48.8884 24.4478 48.8663 24.4576 48.8381 24.4601C48.794 24.5005 48.7437 24.5459 48.6824 24.601C48.6616 24.5434 48.6457 24.4993 48.6285 24.4539C48.5672 24.514 48.5059 24.5741 48.4716 24.6084C48.0953 24.3657 48.0009 24.7812 47.7791 24.9062C47.7546 24.8216 47.7362 24.7542 47.7129 24.6746C47.4543 24.7959 47.2239 24.9442 46.9714 25.0067C46.7593 25.0594 46.6061 25.1354 46.5007 25.3242C46.4749 25.3732 46.4235 25.4284 46.3732 25.4406C46.1477 25.4995 45.9111 25.5228 45.693 25.6C45.5189 25.6625 45.3669 25.8586 45.2027 25.8623C44.846 25.8696 44.5923 26.0719 44.3091 26.2202C43.9757 26.3942 43.6509 26.5842 43.3249 26.7717C42.9572 26.9838 42.5882 27.1983 42.2242 27.4177C41.6947 27.7376 41.1664 28.0587 40.6443 28.3897C40.4543 28.5098 40.279 28.6532 40.1062 28.7966C39.9322 28.94 39.7103 29.0675 39.6196 29.255C39.5166 29.4695 39.4713 29.358 39.3818 29.282C37.5445 30.7822 35.9511 32.5264 34.4104 34.3282C34.4263 34.1076 34.4741 33.9127 34.5182 33.7166C34.6727 33.0388 34.6714 32.3352 34.9141 31.6696C35.0845 31.199 35.1433 30.6879 35.3186 30.2196C35.5245 29.6656 35.4498 29.054 35.7133 28.5184C35.5 28.2144 35.804 28.0097 35.8591 27.7572C35.8702 27.7082 35.8861 27.6212 35.869 27.6126C35.7035 27.5255 35.8346 27.4422 35.869 27.3662C35.9033 27.2878 35.994 27.2191 35.9964 27.1431C36.0111 26.681 36.3286 26.2508 36.1398 25.7667C36.1276 25.7348 36.1778 25.6784 36.1987 25.6318C36.233 25.5546 36.2906 25.4786 36.298 25.399C36.3286 25.0852 36.3433 24.7702 36.3641 24.4564C36.3458 24.4417 36.3274 24.4282 36.3102 24.4135C36.2122 24.5066 36.1141 24.5998 36.0209 24.6905C35.9891 24.4895 36.0344 24.3265 36.2465 24.2394C36.2759 24.2284 36.2955 24.1684 36.3029 24.1279C36.3421 23.9085 36.3776 23.6891 36.4132 23.4685C36.4279 23.368 36.461 23.2638 36.445 23.167C36.4291 23.0738 36.3617 22.9892 36.2881 22.8434C36.4181 22.8863 36.4573 22.8997 36.5088 22.9169C36.4757 22.776 36.3972 22.6448 36.4291 22.5529C36.635 21.967 36.6632 21.6765 36.5198 21.1065C36.5137 21.082 36.5124 21.0489 36.5247 21.0293C36.8213 20.5317 36.4646 20.0414 36.4928 19.5413C36.5051 19.3415 36.4524 19.1013 36.4389 18.877C36.4352 18.8096 36.4107 18.7213 36.3629 18.6821C36.1472 18.5093 36.0786 18.258 36.1901 18.0104C36.2207 17.9418 36.2526 17.8584 36.2391 17.7898C36.1778 17.4871 36.0871 17.1917 36.0957 16.8717C36.0982 16.7541 35.9633 16.6327 35.8898 16.5102C36.1435 16.3349 35.8297 16.1032 35.9351 15.9182C35.8457 15.901 35.7746 15.8875 35.7366 15.8802C35.7844 15.7417 35.8212 15.6362 35.8591 15.5321C35.7966 15.51 35.7329 15.4879 35.6826 15.4708C35.7194 15.3641 35.7574 15.2575 35.8003 15.1313C35.6888 15.1533 35.6103 15.168 35.5331 15.184C35.5221 15.1643 35.5111 15.1447 35.4988 15.1239C35.5589 15.0712 35.6201 15.0185 35.6643 14.9805C35.6238 14.9523 35.5772 14.9204 35.5172 14.8788C35.5772 14.8493 35.6152 14.8297 35.625 14.8248C35.5454 14.7476 35.4302 14.6876 35.4081 14.6042C35.3836 14.5074 35.4338 14.3885 35.4645 14.2831C35.554 13.9815 35.5049 13.9043 35.1078 13.8528C35.1482 13.6322 35.1875 13.4153 35.2267 13.1995C35.0318 13.1101 34.8173 12.9642 34.9031 12.7277C34.9938 12.4801 34.87 12.3097 34.8124 12.1148C34.7756 11.9922 34.7499 11.779 34.506 11.9138C34.4717 11.9334 34.3687 11.828 34.2841 11.7716C34.6494 11.5449 34.6138 11.3696 34.2841 11.1808C34.2216 10.9087 34.1897 10.6991 34.1223 10.5018C34.0623 10.329 33.9605 10.1696 33.8772 10.0029C33.8294 10.0213 33.7362 10.0544 33.5769 10.112C33.6394 9.92202 33.7215 9.79332 33.7105 9.67198C33.7007 9.55186 33.5977 9.4391 33.5242 9.30182C33.4531 9.3962 33.3845 9.48567 33.3134 9.58005C33.2974 9.55309 33.2288 9.47954 33.2435 9.45871C33.42 9.1866 33.1957 8.99539 33.1038 8.7907C32.9763 8.51002 32.8096 8.24771 32.6454 7.95232C32.4247 8.0516 32.5105 7.86652 32.5681 7.73047C32.4934 7.70473 32.3953 7.68389 32.3953 7.66918C32.4174 7.38482 32.1784 7.47307 32.0815 7.3983C32.0203 7.19606 31.9602 6.98524 31.8352 6.82345C31.6685 6.60528 31.4515 6.42632 31.2566 6.23021C31.2064 6.17996 31.1365 6.13215 31.1169 6.06964C31.025 5.78283 31.0029 5.77057 30.6806 5.96301C30.7651 5.8147 30.8203 5.71787 30.8853 5.6051C30.7995 5.57569 30.7112 5.54504 30.6156 5.51072C30.5874 5.20062 30.3239 5.07683 30.1082 4.92484C30.0113 4.85742 29.8299 4.79614 29.9047 5.06334C29.6926 5.05231 29.5787 4.97264 29.6681 4.77163C29.7723 4.53752 29.6265 4.45172 29.4696 4.33528C29.2477 4.16858 29.0308 3.99576 28.8347 3.79352C28.7268 3.68075 28.5552 3.62927 28.4363 3.56308C28.3186 3.44051 28.2206 3.3204 28.1017 3.22602C28.0747 3.20518 27.9227 3.27137 27.9178 3.30814C27.8909 3.52754 27.7928 3.41723 27.6898 3.38168C27.7168 3.32162 27.7364 3.2775 27.756 3.2346C27.6053 3.1917 27.7879 2.87547 27.4692 2.91959C27.3368 2.93675 27.1873 2.6769 27.0182 2.60336C26.8711 2.5384 26.6872 2.55188 26.5193 2.54698C26.4776 2.54575 26.4347 2.60949 26.3918 2.64258C26.3783 2.58497 26.3722 2.52491 26.3514 2.46976C26.3122 2.36803 26.2827 2.2001 26.219 2.18417C26.0597 2.14617 25.9052 2.13759 25.7704 2.01625C25.6871 1.94148 25.5596 1.86426 25.4578 1.87162C25.0754 1.89981 24.8058 1.62525 24.4687 1.53577C24.3045 1.49165 24.1145 1.31637 24.0005 1.36172C23.8191 1.43404 23.7394 1.38501 23.6181 1.28573C23.5715 1.24773 23.4685 1.25631 23.3974 1.27225C23.2197 1.31147 23.0677 1.33353 22.9758 1.12026C22.9574 1.07859 22.8434 1.07001 22.7711 1.06388C22.7368 1.0602 22.678 1.11781 22.6632 1.10678C22.4953 0.971951 22.3176 0.97808 22.1239 1.03324C22.0798 1.04672 22.0014 1.01117 21.9658 0.973177C21.8175 0.819964 21.7133 0.843253 21.6337 1.03324C21.6251 1.0553 21.6214 1.07859 21.603 1.14845C21.5626 0.997691 21.543 0.9266 21.516 0.827318C21.3775 0.877572 21.2598 0.920472 21.114 0.973177C21.0968 0.94376 21.0564 0.873895 21.0024 0.780742C20.7941 0.81261 20.5391 0.789322 20.3663 0.897183C20.2057 0.997691 20.1383 1.05652 20.0402 0.833447C19.8674 0.982983 19.7142 1.24528 19.5156 0.922923C19.3134 0.967049 19.1774 1.34824 18.9481 1.0173C18.8207 1.09697 18.7055 1.16929 18.5461 1.26857C18.5461 1.26244 18.5461 1.32986 18.5461 1.37643C18.4186 1.34702 18.2998 1.31515 18.1796 1.29431C18.0938 1.2796 17.9492 1.24528 17.9259 1.28083C17.785 1.50268 17.7053 1.37643 17.6317 1.23548C17.2358 1.42424 16.7382 1.23793 16.4624 1.58725C16.3619 1.58725 16.2688 1.55906 16.2308 1.59216C16.0861 1.71963 15.9378 1.69021 15.7773 1.64854C15.7221 1.63506 15.6461 1.62893 15.6008 1.65467C15.4757 1.72576 15.3703 1.83975 15.2392 1.8949C15.0737 1.96477 14.8911 1.99419 14.7464 2.03218C14.7195 1.90839 14.706 1.8471 14.6925 1.78459C14.5847 1.83975 14.478 1.8949 14.353 1.95864C14.3248 1.95129 14.2549 1.91329 14.1937 1.9231C14.1226 1.93535 14.0576 2.02115 13.9914 2.0187C13.6789 2.00767 13.419 2.24913 13.1016 2.20133C13.0783 2.19765 13.0341 2.21114 13.0305 2.22584C12.9716 2.41828 12.8074 2.46118 12.6444 2.51634C12.5328 2.55433 12.4262 2.61439 12.3257 2.67935C12.11 2.81663 11.9053 2.96984 11.6883 3.10345C11.4738 3.2346 11.2458 3.34246 11.0301 3.47238C10.8683 3.56921 10.7212 3.68811 10.5631 3.78984C10.2015 4.01904 9.88163 4.30463 9.48206 4.48481C9.18666 4.61719 8.93294 4.85252 8.67554 5.05967C8.18281 5.45679 7.68273 5.84779 7.21818 6.27556C6.63107 6.81487 6.0648 7.37869 5.50956 7.9511C5.00825 8.46834 4.51674 8.99662 4.05097 9.54451C3.63914 10.0287 3.25059 10.5349 2.8841 11.0533C2.52497 11.5608 2.18545 12.0842 1.87413 12.6222C1.6008 13.0954 1.37036 13.593 1.13871 14.0882C0.998976 14.3873 0.88376 14.6974 0.775898 15.0087C0.724419 15.1607 0.76977 15.3715 0.680294 15.4818C0.394705 15.8336 0.496438 16.2785 0.342 16.656C0.335871 16.6695 0.35058 16.6903 0.346903 16.7075C0.318711 16.8681 0.289295 17.0274 0.258652 17.1966C0.400834 17.2627 0.403285 17.2885 0.281941 17.3841C0.242718 17.4147 0.209624 17.4723 0.205947 17.5201C0.188787 17.7248 0.196141 17.9332 0.169176 18.1367C0.152016 18.2666 0.0931824 18.3904 0.0527344 18.5179C0.0527344 18.535 0.0527344 18.5522 0.0527344 18.5693C0.0931824 18.6233 0.16795 18.6748 0.169176 18.7287C0.17653 18.9763 0.166725 19.2239 0.152016 19.4715C0.149565 19.5046 0.087054 19.534 0.0527344 19.5658C0.0527344 19.583 0.0527344 19.6014 0.0527344 19.6185C0.0833768 19.6394 0.139759 19.6565 0.143436 19.6798C0.181433 20.0034 0.212075 20.3282 0.246395 20.6604C0.305229 20.6285 0.344451 20.6065 0.383674 20.5844C0.388576 20.5942 0.39348 20.6028 0.398382 20.6126C0.335872 20.6812 0.272135 20.7499 0.208398 20.8185C0.234138 20.8185 0.258652 20.8197 0.284392 20.821C0.308906 21.0208 0.345677 21.2205 0.356708 21.4216C0.364063 21.5735 0.378771 21.6949 0.579786 21.679C0.402059 21.8211 0.405736 21.8199 0.475601 22.0847C0.500115 22.1766 0.517275 22.2771 0.505018 22.369C0.451087 22.798 0.741578 23.0468 0.983042 23.3238C0.693776 23.5763 0.671713 23.9857 0.913177 24.1573C0.913177 24.2946 0.884986 24.4208 0.919305 24.5275C0.984267 24.7211 1.13625 24.8952 1.15954 25.0901C1.19509 25.3769 1.23063 25.6527 1.36423 25.9125C1.56893 26.3084 1.75646 26.7117 1.96238 27.1064C2.05676 27.2865 2.19649 27.4459 2.28474 27.6285C2.44898 27.9705 2.53233 28.359 2.8743 28.5931C2.89023 28.6042 2.87185 28.6569 2.88656 28.6802C3.00055 28.853 3.11576 29.0258 3.24078 29.1913C3.25059 29.2048 3.33639 29.1594 3.43444 29.1251C3.42464 29.2354 3.41361 29.3469 3.40013 29.5002C3.66855 29.7281 4.062 29.9524 4.01665 30.4783C4.10858 30.4685 4.19561 30.4599 4.30102 30.4476C4.15638 30.6548 4.21276 30.8288 4.42604 30.9465C4.50816 30.9931 4.58783 31.0605 4.64544 31.1365C4.69569 31.2027 4.69569 31.3081 4.74717 31.373C4.92122 31.5875 5.10753 31.791 5.28893 31.9981C5.4115 32.1391 5.53775 32.2751 5.65542 32.4185C5.92997 32.7507 6.19105 33.0939 6.47541 33.4175C6.66049 33.6271 6.8897 33.7975 7.07723 34.0058C7.41307 34.3809 7.70969 34.7927 8.06269 35.1494C8.62406 35.7181 9.2124 36.2611 9.80196 36.8017C10.1513 37.1216 10.5116 37.4341 10.8941 37.7148C11.415 38.0984 11.9604 38.4502 12.4973 38.8106C12.675 38.9307 12.8601 39.0373 13.0427 39.1476C13.4264 39.3805 13.8076 39.6195 14.1973 39.8426C14.4474 39.986 14.7133 40.1025 14.9707 40.2336C15.184 40.3427 15.385 40.4824 15.6081 40.5621C16.0347 40.7141 16.4526 40.8967 16.8154 41.1566C17.0961 41.3588 17.4712 41.3257 17.7175 41.5966C17.8168 41.7045 18.0031 41.7327 18.1478 41.7964C17.8916 42.066 17.6526 42.2732 17.4687 42.522C17.1868 42.9056 16.6708 43.1398 16.6904 43.7256C16.699 43.9548 16.6524 44.1853 16.6487 44.4157C16.6438 44.7516 16.6671 45.0813 16.737 45.4171C16.7725 45.5875 16.7541 45.7603 16.8877 45.8939C16.9968 46.0018 17.112 46.0998 17.2248 46.2028C17.5582 46.5092 17.9566 46.7016 18.3708 46.8683C18.5584 46.9443 18.7447 47.0473 18.9396 47.073C19.3122 47.1221 19.6787 47.0963 20.0611 47.0436C20.4423 46.9897 20.8259 46.8953 21.2145 46.8696C21.4474 46.8536 21.6827 46.8389 21.9119 46.7985C22.2061 46.7458 22.4966 46.6661 22.776 46.6024C22.8912 46.8046 23.015 46.9664 23.08 47.1503C23.1486 47.3451 23.2271 47.4775 23.4636 47.4224C23.3594 47.7545 23.3643 47.7705 23.5249 47.8832C23.7002 48.4434 23.8436 48.9226 24.0042 49.3945C24.0397 49.4987 24.139 49.5808 24.2297 49.6997C24.1059 49.8112 24.1194 49.9559 24.2959 50.087C24.3155 50.103 24.3069 50.1532 24.3179 50.1851C24.3743 50.3542 24.4148 50.5332 24.5006 50.6864C24.5373 50.7514 24.7212 50.7379 24.7494 50.8004C24.78 50.8703 24.6771 50.9928 24.693 51.0798C24.7151 51.1902 24.7984 51.2882 24.856 51.3924C24.9332 51.363 24.9982 51.3385 25.0975 51.3005C24.872 51.6204 24.872 51.5971 25.0619 51.8876C25.1355 51.9991 25.1808 52.1291 25.2348 52.2516C25.4395 52.7162 25.638 53.1819 25.8501 53.6428C25.9739 53.9137 26.105 54.1833 26.2582 54.4383C26.3955 54.6687 26.5683 54.8771 26.7314 55.1038C26.7706 55.1014 26.8294 55.0965 26.8564 55.094C26.838 55.1896 26.7877 55.2865 26.8172 55.3404C26.9226 55.5365 27.0525 55.7204 27.1763 55.9079C27.4043 56.2511 27.5893 56.6384 27.8749 56.9252C28.2267 57.2807 28.6434 57.581 29.0675 57.8494C29.3482 58.0271 29.689 58.1092 30.0052 58.2306C30.042 58.2441 30.0898 58.2318 30.1314 58.2318C30.3263 58.2343 30.5212 58.2367 30.7149 58.2392C31.1463 58.2465 31.5778 58.2551 32.0092 58.2563C32.0423 58.2563 32.0754 58.2012 32.1085 58.1705C32.1514 58.1325 32.22 58.0529 32.2335 58.0614C32.4162 58.173 32.4603 57.9707 32.5681 57.9205C32.6208 57.8972 32.6625 57.8519 32.7091 57.8163C32.7275 57.8347 32.7459 57.8531 32.7643 57.8715C32.7079 57.9475 32.6503 58.0222 32.5816 58.1142C33.0915 58.1215 33.4543 57.8298 33.8809 57.5969C33.9176 57.63 34.0047 57.695 34.0721 57.7771C34.2339 57.9744 34.3748 58.1914 34.5476 58.3789C34.7389 58.5873 34.9803 58.7515 35.1581 58.9697C35.3296 59.1793 35.5895 59.2675 35.7574 59.4833C35.8763 59.6365 36.0663 59.7321 36.2171 59.8608C36.6522 60.2309 37.0665 60.6293 37.5212 60.9725C38.172 61.464 38.8413 61.9322 39.5228 62.3784C39.9322 62.6468 40.3808 62.8539 40.8098 63.0905C41.0292 63.2118 41.2412 63.3479 41.4631 63.4643C41.6396 63.555 41.8271 63.6261 42.0097 63.707C42.1825 63.7781 42.3566 63.9448 42.5196 63.935C42.6691 63.9252 42.8089 63.7266 42.9609 63.6041C43.1766 63.7548 43.3776 63.7181 43.5504 63.4876C43.5982 63.4227 43.6902 63.3896 43.7625 63.343C43.8017 63.3724 43.8409 63.4018 43.8801 63.4312C43.6129 63.4509 43.6742 63.6384 43.7355 63.6298C43.9206 63.6028 44.1682 63.7855 44.2601 63.5477C44.3962 63.5734 44.5052 63.6126 44.6143 63.6114C44.7712 63.609 44.9293 63.582 45.085 63.555C45.2946 63.5207 45.5324 63.5783 45.6917 63.3675C45.7052 63.3503 45.8008 63.3883 45.8547 63.4104C45.905 63.4325 45.9516 63.4962 45.9982 63.4938C46.2077 63.4852 46.4259 63.4803 46.5105 63.2829C46.611 63.3356 46.7029 63.4251 46.7789 63.4141C46.9616 63.3871 47.1381 63.3148 47.317 63.2584C47.431 63.2229 47.5487 63.191 47.659 63.1457C47.7264 63.1187 47.7791 63.0537 47.8465 63.0341C48.0353 62.979 48.2338 62.9532 48.4177 62.887C48.8687 62.7228 49.2892 62.4801 49.7611 62.3661C49.9486 62.3195 50.13 62.235 50.3028 62.1455C50.711 61.9322 51.1191 61.7177 51.515 61.4812C51.7847 61.3194 52.1573 61.3108 52.313 60.9664C52.3191 60.9516 52.373 60.9639 52.4012 60.9529C52.4674 60.9271 52.5311 60.8928 52.5961 60.8659C52.6549 60.8426 52.715 60.8242 52.7751 60.8046C52.84 60.7837 52.9136 60.7788 52.9687 60.7433C53.5289 60.3792 54.089 60.014 54.643 59.6414C54.7607 59.5629 54.8514 59.384 54.9654 59.3717C55.2914 59.3399 55.4716 59.1082 55.6984 58.9341C55.8847 58.7907 56.0661 58.6253 56.2769 58.5297C56.511 58.4255 56.6716 58.3176 56.6556 58.0333C56.6532 57.9818 56.7843 57.8739 56.7892 57.8764C56.9633 58.0112 56.9902 57.8629 57.1018 57.7685C57.4009 57.5123 57.7575 57.3248 58.0738 57.0858C58.2613 56.9448 58.4157 56.7585 58.5812 56.5894C58.6609 56.5085 58.7246 56.3553 58.808 56.3467C59.1205 56.3111 59.1867 55.9851 59.4269 55.8736C59.5164 55.8319 59.6047 55.7718 59.6733 55.7007C59.7995 55.5696 59.8866 55.3477 60.0349 55.2987C60.3499 55.197 60.4688 54.9028 60.7053 54.7275C60.9897 54.5179 61.2177 54.2311 61.469 53.9774C61.5278 53.9174 61.5842 53.8548 61.6467 53.796C61.8943 53.5631 62.1553 53.3413 62.3919 53.0949C62.6616 52.8142 62.9067 52.509 63.1678 52.2185C63.3811 51.9807 63.6237 51.7662 63.8162 51.5125C64.1434 51.0786 64.4413 50.6227 64.7526 50.1765C64.9745 49.8591 65.1975 49.5428 65.4488 49.1861C65.4562 49.256 65.45 49.2952 65.4635 49.3038C65.5027 49.3295 65.5665 49.3712 65.5922 49.3577C65.6817 49.3075 65.7589 49.2352 65.8423 49.1714C65.8655 49.0182 65.8925 48.8454 65.9195 48.6738C65.933 48.6897 65.9464 48.7057 65.9599 48.7216C66.0384 48.664 66.1168 48.6076 66.1953 48.55C66.1658 48.5365 66.1352 48.523 66.1058 48.5096C66.0776 48.4397 66.0482 48.3686 66.02 48.2987C66.1021 48.2718 66.1842 48.2448 66.2663 48.2166C66.2798 48.2387 66.2933 48.2607 66.3068 48.2828C66.4012 48.0989 66.4956 47.9163 66.6108 47.6945C66.4943 47.7263 66.4269 47.7447 66.3656 47.7619C66.7677 46.986 67.1599 46.2236 67.5595 45.4649C68.0865 44.4598 68.5731 43.4388 68.9175 42.3516C69.1798 41.5206 69.5819 40.7325 69.6799 39.8524C69.6983 39.6906 69.6186 39.4847 69.6934 39.3707C69.8454 39.1391 69.5819 38.8645 69.8123 38.6512C69.8491 38.6169 69.751 38.4355 69.7155 38.3228C69.74 38.3338 69.7657 38.3436 69.7902 38.3546C69.8711 38.2602 70.0023 38.1732 70.0182 38.069C70.0329 37.9722 69.9226 37.857 69.8491 37.7136ZM18.0411 39.2138C17.8573 39.128 17.6734 39.0447 17.4883 38.9601C17.4099 38.9246 17.3314 38.889 17.2383 38.8903C17.1513 38.8118 17.0765 38.7101 16.976 38.6598C16.4269 38.3816 15.8667 38.1242 15.3201 37.8435C14.8053 37.5788 14.2929 37.3066 13.7953 37.0112C13.5465 36.8629 13.3344 36.6509 13.0991 36.4768C13.0317 36.4266 12.9349 36.4143 12.865 36.3653C12.7914 36.3138 12.7387 36.2317 12.6677 36.1741C12.4875 36.027 12.3036 35.8861 12.0879 35.7157C12.0499 35.712 11.8305 35.9976 11.8991 35.609C11.9138 35.5257 11.6712 35.359 11.5204 35.2928C11.2213 35.1617 11.0338 34.9423 10.8597 34.68C10.7372 34.4961 10.5594 34.3478 10.4038 34.1848C10.2285 34.0009 10.0802 33.7631 9.8657 33.6528C9.65978 33.5462 9.59605 33.3231 9.43916 33.2361C9.13641 33.0718 9.04203 32.7703 8.84469 32.5399C8.66084 32.3266 8.43285 32.1501 8.22449 31.9565C8.211 31.9748 8.19629 31.992 8.18159 32.0104C8.19629 31.927 8.20978 31.8437 8.22694 31.7456C8.0725 31.7983 7.97322 31.8094 7.95238 31.6108C7.94135 31.5066 7.8629 31.3693 7.7771 31.3289C7.7195 31.3032 7.5957 31.4196 7.45475 31.498C7.50868 31.3412 7.6337 31.1659 7.58957 31.0556C7.53564 30.9183 7.34443 30.8337 7.19367 30.7111C7.2047 30.493 7.1569 30.455 6.88357 30.5101C6.86028 30.2564 6.65069 30.0015 6.39819 29.9353C6.58205 29.5614 6.17511 29.5492 6.03906 29.3715C5.89933 29.1876 5.81598 28.8665 5.46666 29.0037C5.55123 28.9449 5.68116 28.902 5.70812 28.8248C5.72773 28.766 5.61497 28.6618 5.56471 28.5772C5.5402 28.5343 5.51446 28.4889 5.50098 28.4411C5.4495 28.2634 5.35757 28.1494 5.07566 28.2487C5.10998 28.1053 5.1541 28.0109 5.14552 27.9227C5.1394 27.8626 5.06708 27.778 5.00824 27.7609C4.92122 27.7351 4.81704 27.7498 4.72388 27.767C4.68343 27.7744 4.65034 27.8295 4.55596 27.8344C4.59764 27.7278 4.6295 27.615 4.68343 27.5157C4.77781 27.3417 4.72021 27.1934 4.53022 27.1505C4.26424 27.0916 4.45055 26.8747 4.37333 26.7227C4.02891 26.7791 4.19438 26.4384 4.08161 26.2937C3.95537 26.1282 3.98233 26.1062 3.81319 26.2006C3.71145 25.9468 3.60849 25.6931 3.49818 25.4173C3.50799 25.4112 3.55579 25.383 3.6183 25.3463C3.54843 25.3463 3.48838 25.3463 3.40748 25.3463C3.41483 25.2126 3.43077 25.0754 3.41974 24.9405C3.41728 24.9222 3.28368 24.9136 3.20279 24.9271C3.00913 24.8278 3.51534 24.4993 3.04835 24.465C3.03609 24.3461 3.22608 24.1904 2.95887 24.1316C2.90862 24.1205 2.86572 23.8766 2.89023 23.7553C2.93191 23.553 2.85101 23.4893 2.6647 23.4869C2.8743 23.1719 2.61322 22.9316 2.58381 22.6644C2.57033 22.5455 2.56297 22.4254 2.55317 22.3065C2.54459 22.206 2.57523 22.0577 2.5213 22.0111C2.29332 21.8224 2.35338 21.6238 2.47104 21.3885C2.39628 21.3762 2.33867 21.3652 2.2639 21.3529C2.34234 20.8075 2.23571 20.2804 2.15604 19.7166C2.06779 19.7521 1.98076 19.7877 1.83245 19.849C1.86922 19.7362 1.87535 19.6541 1.91703 19.5989C2.21732 19.2018 2.20874 19.1234 1.8251 18.8182C1.77239 18.7765 1.73685 18.7115 1.73807 18.6208C1.79078 18.6784 1.84348 18.736 1.90845 18.8071C2.03347 18.4394 2.08127 18.1048 1.92193 17.769C1.91457 17.7543 1.90109 17.7248 1.90232 17.7236C2.16217 17.5704 1.99915 17.3191 2.02734 17.1206C2.07024 16.8141 2.0396 16.4967 2.0445 16.1841C2.0445 16.1437 2.07514 16.1045 2.08617 16.0628C2.17442 15.7294 2.36196 15.385 2.32641 15.0651C2.27616 14.5932 2.58136 14.2622 2.66593 13.8492C2.75173 13.4251 3.03364 13.0341 3.26285 12.648C3.4418 12.3452 3.66733 12.0707 3.87447 11.7851C4.15271 11.4014 4.42236 11.0117 4.71408 10.6391C4.90038 10.4013 5.12346 10.1917 5.32202 9.96247C5.51569 9.74062 5.68728 9.49793 5.88952 9.28588C6.08073 9.08609 6.30871 8.92185 6.5085 8.72942C6.91789 8.33229 7.30521 7.91187 7.73053 7.53191C8.00631 7.28431 8.32867 7.08943 8.6351 6.87738C9.0408 6.59424 9.45632 6.32459 9.85589 6.0341C10.2346 5.75954 10.5901 5.45312 10.9713 5.18224C11.1478 5.05599 11.366 4.98857 11.5559 4.87949C11.6822 4.80717 11.7925 4.70789 11.9384 4.60003C12.1136 4.6417 12.5353 4.3414 12.5451 4.0693C12.6051 4.17103 12.6444 4.23599 12.7032 4.33528C12.7792 4.24948 12.8454 4.17348 12.9128 4.09749C13.0488 4.24335 13.1567 4.28747 13.2621 4.05582C13.3062 3.95899 13.4215 3.86828 13.5244 3.83519C13.6127 3.80577 13.7953 3.83274 13.8223 3.88789C13.9363 4.13671 14.0882 3.97124 14.2182 3.94428C14.3996 3.90505 14.5773 3.84254 14.755 3.78739C14.8764 3.74939 14.9953 3.70404 15.0994 3.62682C15.325 3.58392 15.553 3.54838 15.7773 3.4969C15.9697 3.45277 16.1585 3.39149 16.4134 3.31917C16.3423 3.26156 16.2798 3.21131 16.2246 3.16718C16.4158 3.04584 16.4931 3.08506 16.5801 3.39026C16.6916 3.31059 16.797 3.1059 16.9392 3.34491C17.2775 3.27872 17.6158 3.21376 17.9553 3.14635C17.9762 3.14144 18.0068 3.10345 18.0117 3.10835C18.2593 3.31427 18.4775 3.04952 18.7128 3.06055C18.7582 3.063 18.8096 2.96372 18.8219 2.95023C18.9812 2.98088 19.1185 3.03236 19.2533 3.02745C19.7277 3.00662 20.2008 2.94533 20.6752 2.94043C20.8811 2.93798 21.0858 3.04952 21.2966 3.08016C21.5515 3.1157 21.8138 3.1059 22.0676 3.14635C22.1742 3.16228 22.2624 3.27995 22.3703 3.30814C22.8189 3.42458 23.2724 3.51528 23.7198 3.6354C23.851 3.67095 23.9576 3.79106 24.0875 3.83764C24.4381 3.96144 24.8205 4.01904 25.1453 4.18942C25.779 4.52036 26.3992 4.88684 26.9949 5.28397C27.3883 5.54872 27.7254 5.89805 28.0968 6.19712C28.1789 6.2633 28.3101 6.2633 28.3995 6.32336C28.4902 6.38587 28.5638 6.47903 28.6336 6.56728C28.8126 6.79158 28.983 7.02201 29.1619 7.24632C29.3838 7.52455 29.6068 7.80401 29.8397 8.07367C29.8961 8.13863 29.9954 8.16804 30.0996 8.22688C30.0787 8.51492 30.3668 8.82625 30.6217 8.78825C30.6156 8.83728 30.5874 8.89979 30.6082 8.93411C30.9355 9.4918 31.2652 10.0483 31.606 10.5986C31.6574 10.682 31.7678 10.7285 31.8817 10.8156C31.6489 11.0791 31.9945 11.2764 32.0852 11.5228C32.2764 12.04 32.5203 12.5364 32.7434 13.0414C32.877 13.3479 33.0327 13.6469 33.1393 13.9632C33.246 14.2794 33.2656 14.6287 33.3955 14.9339C33.5732 15.3543 33.5806 15.8201 33.7546 16.2246C33.9299 16.6327 33.8784 17.0581 33.9863 17.4638C34.0598 17.7432 34.1285 18.0239 34.1885 18.3058C34.2437 18.5657 34.2939 18.828 34.327 19.0915C34.3479 19.2533 34.3123 19.4237 34.343 19.583C34.3699 19.7227 34.4545 19.8502 34.5084 19.985C34.5244 20.023 34.528 20.0684 34.5256 20.1088C34.4864 20.6579 34.6236 21.1887 34.7033 21.7243C34.7119 21.7893 34.7683 21.8469 34.7646 21.842C34.7217 22.0074 34.6714 22.1276 34.6629 22.2501C34.6494 22.434 34.6616 22.6203 34.6727 22.8054C34.6776 22.8948 34.7009 22.9843 34.7168 23.0738C34.7192 23.0946 34.7266 23.1167 34.7242 23.1375C34.7156 23.2221 34.7045 23.3067 34.6935 23.3913C34.6886 23.4244 34.6911 23.4623 34.6727 23.4869C34.4373 23.8276 34.5734 24.2162 34.5305 24.5814C34.4864 24.954 34.4668 25.3303 34.4398 25.7054C34.414 26.0645 34.4545 26.4445 34.3515 26.7791C34.2437 27.1235 34.2204 27.4716 34.1701 27.8185C34.1444 27.9987 34.1689 28.1739 34.0267 28.3235C34.001 28.3517 34.0758 28.4718 34.1076 28.5637C33.8282 28.7083 33.9446 28.978 33.9091 29.206C33.8809 29.3862 33.8343 29.5627 33.7951 29.7404C33.6946 30.2123 33.5965 30.6854 33.4899 31.1561C33.4274 31.4282 33.3403 31.6942 33.2815 31.9663C33.1369 32.633 32.9898 33.2998 32.8672 33.9715C32.7888 34.3932 32.752 34.8234 32.6993 35.2499C32.6907 35.3149 32.6968 35.3835 32.703 35.4497C32.7299 35.739 32.5963 35.8922 32.3144 35.9547C32.1514 35.9902 32.0019 36.0834 31.845 36.1484C31.3449 36.3555 30.8448 36.5614 30.3447 36.7686C30.3129 36.782 30.2712 36.7955 30.2589 36.8213C30.1314 37.0836 29.8434 37.0358 29.6412 37.1522C29.4585 37.2576 29.2796 37.3692 29.1178 37.493C28.9866 37.5297 28.8506 37.5555 28.7243 37.6057C28.4093 37.732 28.0931 37.8594 27.7855 38.0041C27.6494 38.0678 27.5366 38.1793 27.4043 38.2541C27.3246 38.2982 27.2278 38.3105 27.142 38.3436C26.9226 38.4282 26.6578 38.4343 26.5438 38.6978C26.5316 38.7248 26.4899 38.7579 26.4641 38.7566C25.9923 38.7358 25.6478 39.0042 25.2826 39.2469C25.1551 39.3315 24.9639 39.3254 24.8009 39.3548C24.6023 39.3903 24.4626 39.4761 24.4466 39.7029C24.443 39.7507 24.3878 39.7948 24.3559 39.8414C24.3241 39.8083 24.291 39.7752 24.2885 39.7715C24.0875 39.9015 23.8902 40.0277 23.634 40.1932C23.6659 40.0976 23.6695 40.0694 23.683 40.0473C23.7014 40.0191 23.7284 39.9958 23.7517 39.9701C23.5764 39.8206 23.5764 39.8193 22.7135 40.1932C22.3838 40.3354 22.0982 40.5425 21.8665 40.8612C21.8138 40.7778 21.7758 40.7178 21.7342 40.6516C21.6435 40.6994 21.4853 40.7349 21.4719 40.7999C21.4032 41.121 21.1703 40.9911 20.9914 40.9997C20.8737 41.0046 20.7548 40.9862 20.62 40.9776C20.7058 40.7043 20.4239 40.6393 20.2633 40.507C20.0697 40.3488 19.8454 40.2287 19.6211 40.0841C19.5818 40.1209 19.5328 40.1662 19.4691 40.2263C19.5316 40.2765 19.5818 40.317 19.6309 40.3574C19.6125 40.377 19.5941 40.3979 19.5757 40.4175C19.523 40.3623 19.4151 40.2826 19.4262 40.2569C19.5487 39.9811 19.3649 39.8843 19.17 39.8083C18.9861 39.7372 18.7913 39.6943 18.5535 39.6257C18.5522 39.6195 18.5424 39.5399 18.5388 39.5056C18.4088 39.4247 18.3145 39.3634 18.2176 39.3058C18.1612 39.2727 18.1012 39.242 18.0411 39.2138ZM24.5582 44.2858C24.3976 44.2711 24.2187 44.4231 24.0532 44.5101C23.998 44.5395 23.9576 44.5947 23.8534 44.6927C23.8828 44.5358 23.8963 44.4574 23.9098 44.3863C23.8387 44.3618 23.7688 44.3373 23.7026 44.314C23.6585 44.3716 23.6058 44.439 23.5531 44.5089C23.4796 44.4819 23.4097 44.4549 23.3889 44.4476C23.1891 44.5751 23.0224 44.6805 22.8606 44.7846C22.8005 44.754 22.6902 44.6792 22.6755 44.6952C22.5235 44.8557 22.3053 44.7945 22.1313 44.8717C22.0774 44.8962 22.0063 44.9011 21.9462 44.8925C21.6079 44.8398 21.1042 44.879 20.908 45.1842C20.7156 44.9562 20.4692 44.9661 20.1481 45.2149C20.0268 45.0911 19.5205 45.0604 19.3747 45.1634C19.1528 45.0139 18.9347 44.8655 18.7153 44.7197C18.6748 44.6915 18.6221 44.6425 18.5866 44.6523C18.2961 44.7234 18.3488 44.5652 18.3782 44.3802C18.4003 44.2368 18.3696 44.0848 18.3549 43.9377C18.35 43.885 18.3071 43.836 18.3047 43.7845C18.285 43.4155 18.377 43.3665 18.7986 43.1888C19.311 42.9706 19.8662 42.9841 20.3834 42.8174C20.4386 42.8002 20.4938 42.7794 20.544 42.7537C20.859 42.5894 21.2034 42.5477 21.5479 42.5024C21.5797 42.4987 21.6165 42.4828 21.6373 42.4595C21.7685 42.3247 21.8947 42.1862 22.0553 42.0146C22.0737 42.1335 22.0859 42.2082 22.0982 42.283C22.1178 42.2842 22.1362 42.2867 22.1558 42.2879C22.1717 42.2487 22.1852 42.207 22.2036 42.1702C22.2882 42.0035 22.4071 41.9202 22.602 41.99C22.7883 42.0562 22.9366 42.0109 23.0126 41.8393C23.1045 41.8614 23.2075 41.9214 23.2773 41.8944C23.5752 41.7829 23.8632 41.6407 24.1574 41.5182C24.2628 41.474 24.3805 41.463 24.4859 41.4189C24.5802 41.3784 24.666 41.3135 24.7396 41.2681C24.8879 41.2179 25.0411 41.1982 25.1526 41.1198C25.3549 40.9752 25.5841 40.9654 25.8072 40.9016C26.0192 40.8403 26.1724 40.6099 26.4347 40.6369C26.458 40.6393 26.4813 40.5817 26.512 40.5658C26.6247 40.5082 26.7583 40.48 26.849 40.4003C27.0329 40.2361 27.2094 40.0865 27.4803 40.1503C27.4839 40.1503 27.5133 40.0363 27.5158 40.0277C27.7254 39.8512 28.06 40.1049 28.185 39.7409C28.1936 39.7151 28.2647 39.6821 28.2843 39.6931C28.4878 39.8034 28.5736 39.6257 28.7023 39.5411C28.8016 39.4761 28.9229 39.4479 29.0332 39.4001C29.2404 39.3094 29.4487 39.2187 29.6546 39.1231C29.9451 38.9859 30.2332 38.8449 30.5212 38.7039C30.7651 38.5838 31.0115 38.4674 31.253 38.3399C31.4638 38.2271 31.6636 38.0923 31.8781 37.9869C31.932 37.9599 32.0239 38.009 32.0901 38.0225C31.9688 38.3093 31.8621 38.5605 31.7567 38.813C31.6697 39.0214 31.5741 39.2285 31.5018 39.4418C31.3412 39.9186 31.1929 40.4003 31.0385 40.8783C31.0238 40.9249 31.014 40.9923 30.9809 41.0095C30.8338 41.0879 30.6867 41.175 30.5273 41.2166C30.0971 41.3331 29.7552 41.588 29.4205 41.8638C29.3715 41.9043 29.2624 41.8638 29.1999 41.8969C28.9903 42.006 28.7881 42.131 28.5834 42.2487C28.3431 42.386 28.1041 42.5245 27.8627 42.6593C27.6543 42.7745 27.4349 42.8738 27.2351 43.0013C27.1714 43.0429 27.1677 43.1692 27.1076 43.2268C27.0402 43.2893 26.9152 43.3775 26.8601 43.353C26.4592 43.1765 26.1982 43.4805 25.8917 43.6141C25.5792 43.7514 25.2777 43.9144 24.9725 44.0676C24.9283 44.0897 24.872 44.1117 24.8499 44.151C24.7813 44.2711 24.7237 44.3017 24.5582 44.2858ZM25.7373 48.0855C25.6478 47.9604 25.5939 47.8452 25.5056 47.7729C25.4027 47.6871 25.3782 47.6136 25.3696 47.4751C25.3561 47.2544 25.2568 47.0387 25.2005 46.8414C25.0411 46.8536 24.9198 46.8634 24.7972 46.8745C24.7935 46.8463 24.7886 46.8169 24.7849 46.7887C24.8695 46.7556 24.9529 46.7213 25.0779 46.671C24.9222 46.4933 25.0019 46.1942 24.7065 46.1011C24.682 46.0925 24.6758 46.0287 24.6599 45.9895C24.7053 45.976 24.7531 45.9638 24.7972 45.9454C24.8609 45.9184 24.9222 45.8878 24.9712 45.8277C25.3144 45.8547 25.4726 45.7517 25.6209 45.3889C25.6613 45.2896 25.7532 45.2124 25.8219 45.1254C25.8501 45.1487 25.8783 45.172 25.9052 45.194C25.855 45.2541 25.8059 45.3129 25.7471 45.384C26.1761 45.4012 26.5169 45.1781 26.8686 44.9942C27.1015 44.8729 27.3405 44.7614 27.5661 44.6278C27.9191 44.4157 28.3395 44.3128 28.6177 43.9757C28.652 43.934 28.7403 43.9352 28.8052 43.9205C28.8494 43.9107 28.9192 43.9254 28.9376 43.8997C29.1019 43.6742 29.3764 43.6729 29.5946 43.5602C29.6608 43.5259 29.7037 43.4462 29.776 43.3677C29.8777 43.4437 30.0003 43.4756 29.9782 43.2256C30.1462 43.1974 30.3116 43.1704 30.4881 43.1398C30.4183 43.4584 30.3374 43.7771 30.2773 44.1007C30.2442 44.2833 30.254 44.4745 30.2234 44.6584C30.1915 44.8496 30.1204 45.0335 30.0959 45.2259C30.0787 45.3558 30.0898 45.4796 30.0567 45.6181C29.9942 45.8731 29.89 46.0189 29.6461 46.1256C29.4328 46.2199 29.2563 46.3964 29.0626 46.535C29.0222 46.5644 28.9756 46.6171 28.9376 46.6122C28.6692 46.584 28.4902 46.747 28.2966 46.8892C28.2328 46.9345 28.1385 46.937 28.0637 46.9713C27.7511 47.1159 27.4668 47.2986 27.2339 47.5584C27.1898 47.6074 27.1273 47.6393 27.0733 47.6785C27.0586 47.6663 27.0451 47.654 27.0316 47.6405C27.0795 47.5964 27.1285 47.5511 27.1787 47.5045C26.8674 47.3954 26.7314 47.4444 26.6737 47.6172C26.512 47.6601 26.382 47.6699 26.2803 47.7276C26.0781 47.8415 25.8905 47.9825 25.7373 48.0855ZM28.5711 52.3852C28.3554 52.3301 28.3493 52.5115 28.1985 52.5593C28.2794 52.585 28.3186 52.5985 28.3566 52.6108C28.2672 52.7113 28.1789 52.8105 28.0747 52.9282C28 52.9172 27.8749 52.9 27.7242 52.878C27.8982 52.5421 27.6114 52.2774 27.4496 51.9599C27.365 51.9844 27.2866 52.0077 27.1554 52.0457C27.1971 51.852 27.2302 51.6915 27.2694 51.5101C27.1297 51.4745 27.1015 51.39 27.0905 51.211C27.077 50.983 26.9348 50.7514 26.8024 50.5516C26.7595 50.4842 26.5794 50.5075 26.4004 50.4793C26.6174 50.3579 26.6357 50.1692 26.5156 49.9902C26.295 49.6593 26.3207 49.6029 26.7228 49.4962C26.7755 49.4828 26.8208 49.4325 26.8674 49.397C26.9569 49.3283 27.0415 49.2536 27.1346 49.191C27.3356 49.0562 27.5734 49.0342 27.7965 48.9643C27.9595 48.914 28.0772 48.7179 28.2218 48.5806C28.3174 48.7449 28.4106 48.7461 28.5344 48.6542C28.6496 48.5684 28.7721 48.4838 28.9045 48.4348C29.059 48.3796 29.2318 48.3784 29.3874 48.3269C29.4745 48.3 29.537 48.1933 29.6228 48.1676C29.7968 48.1173 29.9807 48.0965 30.1805 48.0609C30.1731 48.1259 30.1817 48.1933 30.1633 48.2019C29.7662 48.3943 30.0653 48.7755 29.9329 49.0378C30.216 49.321 29.988 49.6764 30.0493 49.9963C30.0885 50.1986 30.1792 50.3555 30.2503 50.532C30.2798 50.608 30.3263 50.6778 30.395 50.7354C30.4195 50.8629 30.0187 50.9659 30.3766 51.1583C30.3545 51.2502 30.3337 51.3495 30.3055 51.4476C30.2896 51.5027 30.2736 51.5775 30.2344 51.6008C29.9022 51.7908 29.6314 52.0947 29.2195 52.1364C29.1546 52.1438 29.0921 52.1854 29.0295 52.2112C28.8751 52.2749 28.6998 52.4183 28.5711 52.3852ZM32.1257 56.3124C32.0558 56.3455 31.9197 56.3565 31.8793 56.3148C31.682 56.1077 31.6219 56.207 31.5753 56.4178C31.5716 56.4398 31.4785 56.4411 31.4111 56.4558C31.4834 56.3418 31.5336 56.2609 31.6182 56.1273C31.351 56.1273 31.1549 56.1297 30.9576 56.1236C30.9098 56.1224 30.8325 56.0623 30.8203 56.0758C30.7627 56.1408 30.6021 55.8993 30.6193 56.1444C30.531 56.1175 30.4072 56.1175 30.3594 56.0574C30.2013 55.8564 29.9917 55.9054 29.7576 55.8871C29.7662 55.6885 29.6694 55.5978 29.4831 55.6382C29.3923 55.3992 29.3078 55.1749 29.2109 54.9175C29.1264 55.0438 29.0565 55.1467 28.9646 55.2852C28.9646 54.9984 28.9891 54.7888 28.9535 54.5915C28.9339 54.4787 28.8077 54.388 28.739 54.2802C28.6324 54.1098 28.6667 54.0804 28.8347 54.0031C29.0688 53.8941 29.2796 53.7372 29.5076 53.6146C29.6583 53.5337 29.8238 53.481 29.9819 53.4111C30.2172 53.3082 30.4489 53.1942 30.6867 53.0974C30.7823 53.0594 30.8914 53.0532 30.9257 53.0471C31.0544 53.3131 31.1672 53.5472 31.2873 53.796C31.3424 53.8009 31.4197 53.8083 31.4429 53.8107C31.5925 54.2373 31.5716 54.7337 32.1771 54.8342C32.1097 55.3257 32.5069 55.6272 32.6785 55.9961C32.4934 56.1052 32.3156 56.2217 32.1257 56.3124ZM35.4988 54.8746C35.6925 54.7312 35.7403 54.6564 35.5135 54.5094C35.2806 54.3574 35.1176 54.1024 34.897 53.9272C34.8222 53.8671 34.6641 53.9112 34.5452 53.9137C34.4913 53.9137 34.414 53.9566 34.3895 53.9345C34.1505 53.7188 33.9176 53.4969 33.6909 53.2677C33.5634 53.1403 33.4568 52.9932 33.3293 52.8669C33.295 52.8338 33.219 52.8424 33.2202 52.8007C33.1209 52.6389 33.0437 52.4563 32.9162 52.3215C32.7532 52.1499 32.5387 52.0371 32.562 51.7381C32.5681 51.6572 32.4076 51.564 32.2776 51.428C32.149 50.7796 32.0068 50.0576 31.8695 49.3639C31.7739 49.3688 31.6587 49.3749 31.5312 49.381C31.5864 49.153 31.6256 48.9827 31.6697 48.8135C31.6869 48.7461 31.704 48.675 31.7371 48.615C31.8339 48.447 31.758 47.9776 31.6513 47.9102C31.6513 47.7128 31.6501 47.54 31.6513 47.3672C31.6525 47.2532 31.655 47.1404 31.6623 47.0265C31.666 46.9664 31.7065 46.8965 31.6869 46.8487C31.5545 46.5288 31.6832 46.2089 31.6734 45.8915C31.655 45.1989 31.867 44.5358 31.8928 43.8531C31.9014 43.619 31.9332 43.4241 32.0337 43.2035C32.1649 42.9142 32.1869 42.5723 32.2458 42.2523C32.3144 41.8859 32.3536 41.5145 32.4431 41.1553C32.4836 40.9948 32.6331 40.8649 32.7017 40.7067C32.7361 40.6295 32.6944 40.5229 32.6981 40.4285C32.7042 40.3084 32.7005 40.1821 32.7385 40.0706C32.9726 39.3867 33.1234 38.6782 33.4617 38.0261C33.8931 37.1939 34.3454 36.38 34.946 35.6532C35.0649 35.5085 35.1409 35.3271 35.261 35.1837C35.4277 34.9864 35.6177 34.8099 35.7954 34.6211C35.8959 34.5145 35.9903 34.4005 36.0908 34.2926C36.5786 33.7668 37.064 33.2385 37.5604 32.7213C37.8141 32.4553 38.074 32.1906 38.3596 31.9601C38.6537 31.7223 38.9896 31.5373 39.2948 31.3117C39.6073 31.0789 39.904 30.8239 40.2104 30.5824C40.2606 30.5432 40.3281 30.5273 40.3808 30.4905C40.5891 30.3447 40.784 30.1755 41.0034 30.0505C41.2486 29.9132 41.528 29.836 41.7683 29.6926C42.1004 29.4952 42.4093 29.2587 42.7574 29.0185C42.7672 29.0185 42.8555 29.0466 42.902 29.0135C43.1239 28.8554 43.3212 28.6581 43.5529 28.5171C43.7392 28.4044 43.9684 28.3639 44.1682 28.272C44.2822 28.2193 44.3974 28.1421 44.4746 28.0477C44.5898 27.9043 44.667 27.9509 44.7724 28.1114C44.8484 27.9864 44.9061 27.8908 44.9833 27.7621C45.0482 27.756 45.188 27.7719 45.302 27.7253C45.7322 27.5513 46.155 27.3613 46.5767 27.1689C46.6662 27.1284 46.7336 27.0402 46.8218 26.9936C46.9236 26.9397 47.0351 26.9017 47.1466 26.8698C47.2876 26.8293 47.4322 26.8024 47.5756 26.7681C47.5879 26.7644 47.5928 26.7313 47.6038 26.7301C47.8686 26.6921 47.8686 26.6933 47.8894 26.4629C48.05 26.5989 48.2093 26.7668 48.3883 26.5045C48.3969 26.4911 48.4606 26.5229 48.4986 26.5229C48.642 26.5229 48.7866 26.5327 48.9276 26.5119C49.2855 26.4604 49.6409 26.3955 49.9952 26.328C50.0221 26.3219 50.0356 26.2447 50.0479 26.2189C50.2048 26.2189 50.3739 26.2386 50.5357 26.2153C50.9573 26.1515 51.3765 26.0657 51.7969 25.9946C51.9146 25.9738 52.0494 26.0008 52.1524 25.9554C52.3142 25.8831 52.4564 25.7654 52.5753 25.6882C52.6696 25.7238 52.7812 25.7838 52.9001 25.7998C52.9454 25.8059 53.0055 25.7115 53.0741 25.649C53.2016 25.6637 53.3818 25.584 53.5043 25.7642C53.5178 25.7851 53.6 25.763 53.6502 25.7556C53.8046 25.7348 53.9603 25.7103 54.116 25.6882C54.1319 25.6858 54.1589 25.6943 54.165 25.6858C54.3856 25.383 54.6737 25.7005 54.9335 25.6085C55.0524 25.5657 55.3025 25.6367 55.2767 25.9052C55.3 25.915 55.3233 25.9248 55.3466 25.9346C55.3956 25.8439 55.4446 25.7532 55.501 25.6478C55.5464 25.7017 55.604 25.7679 55.6616 25.8353C55.6628 25.812 55.664 25.7887 55.6653 25.7654C55.995 25.7887 56.3259 25.8059 56.6544 25.8439C56.6973 25.8488 56.7279 25.9616 56.7806 26.0523C56.8284 25.9481 56.8775 25.8427 56.9388 25.7115C57.0491 25.9125 57.19 25.9995 57.407 25.9199C57.4536 25.9027 57.5296 25.9566 57.5884 25.9861C57.6411 26.0118 57.6877 26.0719 57.7404 26.0768C57.9438 26.0952 58.1522 26.0768 58.3508 26.1148C58.5138 26.1454 58.6658 26.2361 58.8239 26.2974C58.9048 26.3293 58.9906 26.3538 59.0727 26.3844C59.1217 26.4016 59.1781 26.4138 59.2149 26.4482C59.3804 26.5977 59.4502 26.6099 59.6022 26.5205C59.7003 26.5928 59.7763 26.6847 59.8694 26.7092C60.3291 26.8269 60.6355 27.1578 60.9897 27.4385C61.4395 27.7964 61.6369 28.3026 61.9127 28.7623C62.0757 29.0332 62.1676 29.3482 62.3331 29.7416C62.3502 29.6987 62.376 29.6399 62.4005 29.5835C62.4753 29.6999 62.0953 29.9647 62.5304 30.0174C62.3404 30.3594 62.5672 30.6695 62.6174 30.9992C62.6799 31.4122 62.7425 31.8241 62.8185 32.2347C62.8368 32.3266 62.9104 32.4087 62.9594 32.4958C62.9815 32.486 63.0035 32.4774 63.0256 32.4676C62.9704 32.6036 62.9153 32.7397 62.8528 32.8953C63.0011 32.8672 63.1102 32.8463 63.2193 32.8255C63.2229 32.8549 63.2278 32.8831 63.2327 32.9125C63.1469 32.9321 63.0611 32.9505 62.9545 32.975C63.0379 33.1295 62.8577 33.3194 63.0685 33.4776C63.1261 33.5205 63.0354 33.746 63.0354 33.8869C63.0305 34.5096 62.7608 35.0746 62.664 35.6765C62.6236 35.9265 62.5623 36.1729 62.5157 36.4217C62.4998 36.505 62.5022 36.5908 62.4936 36.7061C62.3576 36.7673 62.2632 36.885 62.2608 37.1069C62.2583 37.287 62.1566 37.4648 62.1026 37.6449C62.0573 37.7981 62.0266 37.9563 61.9703 38.1058C61.947 38.1683 61.8759 38.2137 61.8232 38.27C61.9519 38.4968 61.7533 38.65 61.6773 38.8277C61.4432 39.3744 61.1968 39.9162 60.9529 40.4591C60.8818 40.6173 60.8009 40.7705 60.7274 40.9261C60.633 41.1308 60.5558 41.3466 60.4443 41.5414C60.231 41.9116 59.9993 42.2707 59.7628 42.6237C59.6709 42.8039 59.5985 42.9976 59.4833 43.1618C59.1009 43.7073 58.7038 44.2441 58.3103 44.7834C57.7919 45.4943 57.3065 46.2347 56.7402 46.9051C56.3553 47.3586 55.8552 47.7141 55.4066 48.1137C55.1394 48.3539 54.8869 48.6137 54.6026 48.8331C54.1981 49.1445 53.7679 49.4215 53.356 49.723C53.1489 49.8738 52.9552 50.0429 52.7591 50.2072C52.4429 50.4707 52.1401 50.7538 51.8104 50.999C51.5494 51.1938 51.254 51.3422 50.977 51.5174C50.657 51.7197 50.3371 51.9231 50.0283 52.1425C49.9621 52.1891 49.9412 52.3006 49.8898 52.4036C49.5882 52.2296 49.4693 52.547 49.2634 52.65C49.147 52.7088 49.0465 52.7995 48.93 52.8583C48.7119 52.9674 48.4827 53.0557 48.2694 53.1721C48.2044 53.2077 48.1725 53.3057 48.1676 53.3131C47.9985 53.3768 47.8821 53.4148 47.7705 53.4626C47.507 53.5791 47.2471 53.7016 46.9836 53.8168C46.85 53.8757 46.6907 53.9014 46.5816 53.9884C46.4958 54.0571 46.47 54.1993 46.41 54.3267C46.3438 54.2434 46.2764 54.1576 46.2274 54.0951C45.8192 54.2949 45.4294 54.4861 45.0826 54.6552C44.933 54.6442 44.8215 54.6185 44.7161 54.6319C44.5849 54.6479 44.4562 54.7239 44.3275 54.7226C44.1522 54.7214 44.075 54.7778 44.0714 54.9531C44.0714 54.9751 44.0101 55.0131 43.9782 55.0119C43.95 55.0107 43.9108 54.9715 43.8973 54.9408C43.874 54.8869 43.8679 54.8268 43.8495 54.7472C43.7061 54.8746 43.6093 55.0965 43.3617 54.9286C43.3323 54.9077 43.1864 55.056 43.0785 55.1381C43.0675 55.0756 43.0577 55.0144 43.0356 54.8795C42.7378 54.996 42.4547 55.1063 42.174 55.2166C42.1715 55.1994 42.1617 55.1406 42.1507 55.0818C42.1274 55.0842 42.1053 55.0793 42.0955 55.0891C41.9386 55.2289 41.8112 55.3024 41.5587 55.2117C41.3246 55.1283 41.0255 55.219 40.7546 55.2362C40.6737 55.2411 40.5891 55.2423 40.5144 55.2681C40.3281 55.333 40.1467 55.4103 39.9469 55.4899C39.9469 55.4899 39.926 55.4299 39.9015 55.3563C39.8709 55.3857 39.8304 55.4225 39.7753 55.474C39.7446 55.4127 39.714 55.3514 39.6723 55.2693C39.6061 55.3563 39.5485 55.4299 39.475 55.5267C39.4051 55.4593 39.3365 55.3943 39.2678 55.3294C39.2678 55.3477 39.2678 55.3649 39.2678 55.3821C39.0913 55.3723 38.916 55.3624 38.7003 55.3502C38.6966 55.3575 38.677 55.4041 38.6611 55.4397C38.4674 55.5328 38.4086 54.9923 38.161 55.3453C38.0519 55.1124 38.0115 55.1087 37.8019 55.3269C37.7467 55.2779 37.6903 55.2289 37.618 55.1639C37.5555 55.2117 37.4893 55.2619 37.4219 55.3146C36.8544 54.9187 36.2011 54.8526 35.4988 54.8746ZM45.2934 61.8207C45.2505 61.882 45.047 61.8305 44.9171 61.7962C44.7933 61.8452 44.6989 62.0817 44.5028 61.8207C44.482 61.9273 44.466 62.0058 44.4513 62.0842C44.4342 62.0817 44.417 62.0805 44.3998 62.0793C44.3716 61.9972 44.3422 61.9138 44.3251 61.8636C44.1645 61.8722 44.0309 61.8783 43.8495 61.8881C43.8483 61.9052 43.8409 61.9886 43.8323 62.0891C43.5823 62.0119 43.3175 61.9641 43.0859 61.8501C42.7206 61.6687 42.3836 61.4346 42.0257 61.2372C41.7462 61.084 41.4496 60.9639 41.1726 60.8095C41.0488 60.7408 40.9544 60.6232 40.8453 60.53C40.7595 60.4552 40.6811 60.356 40.5806 60.3167C40.4126 60.253 40.23 60.2273 40.0535 60.1856C40.0719 60.1586 40.1197 60.0839 40.1871 59.9772C40.056 59.9306 39.9322 59.8877 39.7961 59.8399C39.8047 59.661 39.5706 59.4538 39.3475 59.4722C39.2923 59.3742 39.2703 59.2712 39.2114 59.2406C38.8719 59.0628 38.6145 58.7895 38.3351 58.537C38.0519 58.2821 37.7406 58.0553 37.4329 57.8286C37.3606 57.7759 37.2515 57.7746 37.1425 57.7452C37.1547 57.6962 37.1719 57.6239 37.1866 57.5614C37.0309 57.4216 36.8838 57.2893 36.7368 57.1557C36.7502 57.1373 36.7637 57.1177 36.776 57.098C37.3349 57.1802 37.8901 57.2929 38.4515 57.3346C38.9969 57.3751 39.5473 57.3432 40.1013 57.3432C40.1393 57.3113 40.2043 57.2562 40.2717 57.201C40.458 57.4498 40.6614 57.6275 40.9728 57.7268C41.3025 57.8335 41.604 58.0431 41.9019 58.233C42.2916 58.4819 42.6667 58.7552 43.0454 59.0212C43.2869 59.1915 43.5394 59.3497 43.7588 59.5458C44.0554 59.8117 44.3177 60.1157 44.6082 60.3878C44.7308 60.5018 44.8975 60.5668 45.0249 60.6759C45.1267 60.7617 45.188 60.8928 45.2848 60.986C45.4405 61.1367 45.6194 61.2618 45.7702 61.4162C45.8462 61.4946 45.8793 61.6135 45.9626 61.7716C45.6795 61.6589 45.4785 61.5571 45.2934 61.8207ZM47.773 60.7114C47.7987 60.6894 47.8244 60.6661 47.8502 60.644C47.9482 60.7592 48.0475 60.8757 48.1762 61.0276C47.8232 61.073 47.8477 60.8487 47.773 60.7114ZM49.3259 60.6722C49.3002 60.655 49.2168 60.6844 49.1874 60.7163C48.9876 60.9455 48.7229 60.997 48.4398 61.0019C48.4103 61.0031 48.3809 61.0154 48.3074 61.0325C48.3907 61.1245 48.4496 61.1882 48.5072 61.2519C48.4949 61.2716 48.4826 61.2912 48.4704 61.3108C48.376 61.2532 48.2816 61.1956 48.186 61.1367C48.2167 61.0191 48.2424 60.9186 48.262 60.8413C48.0782 60.6391 47.9004 60.4442 47.7092 60.2346C47.6087 60.3511 47.5474 60.4221 47.4285 60.5582C47.4285 60.432 47.4126 60.3645 47.431 60.3082C47.5021 60.0912 47.4273 59.9257 47.2226 59.8424C47.1442 59.8105 47.0768 59.7517 46.975 59.6855C46.9505 59.7345 46.9321 59.8142 46.8819 59.8559C46.8402 59.8914 46.7618 59.8841 46.676 59.8988C46.9137 59.5323 47.0045 59.4894 46.5877 59.3276C46.4823 59.2859 46.3585 59.1964 46.3181 59.0984C46.22 58.8594 46.0263 58.776 45.8155 58.6915C45.7763 58.6767 45.7518 58.6155 45.7322 58.5701C45.715 58.5321 45.7322 58.4647 45.7077 58.4488C45.4662 58.2808 45.2198 58.1203 44.8999 57.9082C44.7553 57.7121 44.5016 57.489 44.1939 57.3309C44.1621 57.3162 44.0922 57.3726 44.0419 57.3996C43.9855 57.429 43.9316 57.4609 43.8765 57.4927C43.8838 57.4314 43.8887 57.3702 43.8985 57.3101C43.9059 57.2672 43.9218 57.2267 43.9512 57.125C43.8017 57.1164 43.6693 57.1091 43.5271 57.1005C43.5271 57.0515 43.5271 56.9534 43.5271 56.875C44.0235 56.8051 44.5016 56.7475 44.9759 56.6654C45.34 56.6029 45.6047 56.723 45.7542 57.0576C45.8413 57.2525 45.9148 57.2844 46.1734 57.2169C46.2163 57.3334 46.2421 57.4633 46.3083 57.5687C46.5865 58.0173 46.899 58.4328 47.3342 58.7515C47.6504 58.9832 47.925 59.2712 48.2363 59.5102C48.6003 59.7897 48.9876 60.0397 49.3578 60.3118C49.4375 60.3694 49.4853 60.4699 49.5637 60.5717C49.5233 60.6219 49.5245 60.8058 49.3259 60.6722ZM60.9713 52.8449C60.6551 53.1537 60.3376 53.4626 60.0104 53.7592C59.7922 53.959 59.5544 54.1367 59.3301 54.3292C58.7356 54.8379 58.1461 55.3539 57.5479 55.8576C57.3114 56.0574 57.0577 56.2376 56.8076 56.4202C56.2315 56.8419 55.6407 57.2439 55.0463 57.6398C54.5928 57.9426 54.1233 58.2208 53.6845 58.5419C53.5031 58.6743 53.3058 58.7503 53.1146 58.852C52.7947 59.0212 52.4466 59.156 52.1573 59.3644C51.8546 59.5838 51.6204 59.3472 51.3569 59.3349C51.3238 59.3337 51.2969 59.1903 51.2294 59.1437C51.1755 59.0874 51.1302 59.0175 51.0652 58.977C50.8581 58.8483 50.9193 59.1143 50.7931 59.1609C50.8188 59.0383 50.8409 58.9268 50.8764 58.7515C50.7539 58.8447 50.684 58.8974 50.597 58.9623C50.597 58.8557 50.597 58.765 50.597 58.6743C50.5798 58.6853 50.5627 58.6964 50.5455 58.7074C50.4805 58.6216 50.4144 58.5382 50.3531 58.4512C50.2133 58.2502 49.9817 58.2196 49.766 58.3666C49.7292 58.3924 49.6753 58.3899 49.6238 58.4022C49.6569 57.8911 49.6569 57.8911 49.4853 57.9229C49.3063 57.7612 49.1261 57.6386 49.0023 57.4731C48.8773 57.3089 48.5783 57.4915 48.5194 57.163C48.4937 57.0184 48.2093 56.9215 48.0132 56.7818C47.9777 56.8088 47.898 56.8688 47.8061 56.9387C47.7435 56.8051 47.6651 56.6789 47.9102 56.6617C47.9017 56.6384 47.898 56.6225 47.8894 56.6102C47.7766 56.446 47.6602 56.2842 47.5511 56.1187C47.5045 56.0476 47.4702 55.9692 47.458 55.9459C47.7141 55.8037 47.9127 55.6897 48.1137 55.5831C48.2534 55.5083 48.3956 55.4384 48.539 55.3747C48.6236 55.3367 48.7523 55.3404 48.794 55.2791C48.9496 55.0523 49.2168 55.0462 49.4203 54.9224C49.6618 54.7753 49.8775 54.5878 50.1141 54.4309C50.1668 54.3954 50.2734 54.437 50.3261 54.4015C50.6325 54.1944 50.9291 53.9725 51.2307 53.7592C51.33 53.6894 51.4341 53.6256 51.5408 53.5705C51.8962 53.3866 52.1622 53.0949 52.4564 52.8338C52.9074 52.4342 53.3965 52.0763 53.8463 51.6755C54.0988 51.45 54.3047 51.1718 54.5376 50.9217C54.5732 50.8837 54.6344 50.869 54.6822 50.8408C54.746 50.8041 54.8134 50.771 54.8686 50.7232C55.262 50.3824 55.6555 50.0405 56.0415 49.6899C56.1788 49.5661 56.294 49.4166 56.4215 49.2817C56.4693 49.2315 56.522 49.1567 56.5772 49.1518C56.7537 49.1359 56.8113 49.0072 56.9032 48.8871C57.054 48.6922 57.2403 48.5243 57.4021 48.3563C57.4879 48.5034 57.5884 48.6284 57.6399 48.7706C57.8078 49.2352 58.0076 49.4362 58.4023 49.7855C58.6339 49.9914 58.8974 50.163 59.1377 50.3628C59.5434 50.6987 59.9405 51.0468 60.345 51.3863C60.6563 51.6486 60.9701 51.9072 61.2888 52.1597C61.3427 52.2038 61.4297 52.2075 61.5584 52.2467C61.3476 52.4624 61.1638 52.6586 60.9713 52.8449ZM62.8135 50.945C62.7278 51.059 62.7204 51.0492 62.6199 50.934C62.6052 50.9156 62.5549 50.9328 62.5243 50.923C62.4924 50.9119 62.4655 50.8874 62.4226 50.8617C62.5402 50.8028 62.6236 50.7624 62.7057 50.7207C62.6432 50.6509 62.5794 50.581 62.5353 50.5307C62.3956 50.5908 62.2963 50.6337 62.1958 50.6766C62.186 50.6533 62.1762 50.6312 62.1652 50.608C62.2203 50.57 62.2742 50.5332 62.3772 50.4633C62.2485 50.4633 62.1811 50.4633 62.1063 50.4633C62.1357 50.3714 62.159 50.2966 62.1884 50.2047C62.0695 50.2182 61.9972 50.2268 61.9249 50.2353C61.9335 50.1765 61.9519 50.1165 61.9445 50.0588C61.9396 50.0184 61.9078 49.9718 61.8747 49.9449C61.8122 49.897 61.7411 49.8615 61.6626 49.8162C61.6626 49.9044 61.6626 50.0135 61.6626 50.1643C61.4616 50.1508 61.263 50.1361 61.0363 50.1201C61.1944 49.9498 61.3415 49.7904 61.5008 49.6176C61.3133 49.511 61.1282 49.4239 60.9664 49.305C60.8831 49.2438 60.8635 49.0979 60.7801 49.0354C60.6698 48.9508 60.4982 48.9385 60.4001 48.8454C60.2102 48.6628 60.0361 48.474 59.7493 48.4556C59.7248 48.4532 59.7052 48.3907 59.6831 48.3576C59.6512 48.3612 59.6194 48.3649 59.5875 48.3686C59.6292 48.3122 59.6696 48.2546 59.6966 48.2191C59.5875 48.1075 59.4956 47.9629 59.3644 47.8967C59.2382 47.8342 59.0703 47.8575 58.9219 47.8342C58.8533 47.8244 58.7602 47.8158 58.7258 47.7692C58.6829 47.7116 58.6903 47.6172 58.6609 47.464C58.7883 47.5523 58.8398 47.5878 58.8913 47.6234C58.9146 47.605 58.9379 47.5866 58.9612 47.567C58.9097 47.5082 58.8496 47.453 58.8092 47.3868C58.7577 47.2998 58.7222 47.203 58.6633 47.0755C58.5947 47.0596 58.4831 47.0314 58.3961 47.0105C59.0899 46.0373 59.7848 45.0629 60.5019 44.0566C60.7078 44.363 60.9088 44.6596 61.1135 44.9661C61.1478 44.9575 61.2152 44.9391 61.2165 44.9391C61.263 45.0947 61.2851 45.2026 61.3268 45.3019C61.4015 45.4796 61.4873 45.6512 61.5805 45.8486C61.6295 45.8044 61.6589 45.7628 61.6994 45.7468C61.7325 45.7321 61.7815 45.737 61.8158 45.753C61.8305 45.7603 61.8342 45.8216 61.822 45.8473C61.7264 46.0447 61.8036 46.1648 61.9752 46.2751C62.0524 46.3241 62.0867 46.4357 62.1517 46.5092C62.3723 46.7605 62.5991 47.0056 62.8209 47.2557C62.9116 47.3574 62.9925 47.4702 63.0869 47.5694C63.1813 47.6675 63.2903 47.7508 63.386 47.8489C63.4644 47.9298 63.5281 48.023 63.6029 48.1063C63.647 48.1541 63.6961 48.1982 63.75 48.2338C63.7819 48.2546 63.8431 48.2399 63.864 48.2632C64.0221 48.4409 64.1729 48.6248 64.3763 48.8675C63.8677 49.5453 63.3431 50.2476 62.8135 50.945ZM66.5789 45.0175C66.4539 45.2676 66.3019 45.5041 66.172 45.7517C66.0592 45.9674 65.9673 46.1942 65.8557 46.4112C65.7589 46.5975 65.6461 46.7764 65.5444 46.9529C65.4084 46.9014 65.2527 46.8426 65.075 46.774C65.0909 46.7274 65.1093 46.6661 65.1326 46.5975C64.896 46.3646 64.6521 46.1231 64.4621 45.9356C64.2746 45.7125 64.1312 45.5409 63.9853 45.373C63.9302 45.308 63.8419 45.2602 63.8113 45.1867C63.6936 44.9109 63.5367 44.8337 63.2205 44.9489C63.2769 44.8202 63.3259 44.7123 63.3749 44.6008C63.2511 44.5493 63.1396 44.5015 63.0734 44.4733C63.0084 44.2956 62.9545 44.1448 62.8969 43.9855C62.7976 44.0394 62.7278 44.0774 62.5843 44.1546C62.7523 43.8286 62.7143 43.6533 62.4324 43.5308C62.3269 43.4854 62.2718 43.3212 62.1933 43.2096C62.1296 43.2207 62.0597 43.2317 61.9899 43.2427C61.9862 43.1618 61.9911 43.0797 61.9788 43C61.9641 42.9105 61.9629 42.7953 61.9078 42.739C61.4702 42.3026 61.4788 42.3124 61.7668 41.7633C62.0438 41.2375 62.2853 40.6933 62.5525 40.1625C62.6174 40.0326 62.7241 39.926 62.8319 39.7813C62.9006 39.9713 63.0771 40.1025 62.9496 40.3145C62.9422 40.3255 62.9435 40.3537 62.9533 40.3635C63.0918 40.5278 63.2327 40.6896 63.3945 40.8771C63.2989 41.0021 63.3553 41.1333 63.5343 41.273C63.6397 41.3564 63.6617 41.5365 63.7586 41.6395C64.2672 42.1837 64.7538 42.7573 65.3152 43.2403C65.6719 43.5467 65.9771 43.9254 66.4049 44.151C66.536 44.2208 66.6684 44.2882 66.8473 44.3802C66.7664 44.5763 66.6855 44.803 66.5789 45.0175ZM68.225 40.0081C68.0167 40.2079 68.0044 40.6675 68.149 40.8452C68.0448 41.1308 67.9517 41.3735 67.8671 41.6187C67.7874 41.8466 67.7298 42.082 67.6379 42.3038C67.5693 42.4693 67.4357 42.4387 67.2923 42.2389C67.1623 42.3075 67.0312 42.3786 66.8326 42.484C66.9871 42.2977 67.09 42.1727 67.2114 42.0231C66.8718 41.9141 66.8461 42.245 66.6806 42.3247C66.4441 42.0391 66.8118 41.9606 66.8216 41.7952C66.65 41.6015 66.498 41.414 66.3276 41.2448C66.1658 41.0843 65.9121 41.159 65.7148 41.0843C65.7185 41.0622 65.7234 41.0389 65.7283 41.0168C65.8153 41.0168 65.9035 41.0168 65.9906 41.0168C65.9967 40.9948 66.0016 40.9727 66.0065 40.9507C65.8913 40.9188 65.7761 40.8881 65.6449 40.8526C65.6572 40.7803 65.6682 40.7153 65.678 40.6553C65.602 40.6136 65.5125 40.5903 65.4611 40.5327C65.314 40.3635 65.189 40.176 65.0419 40.0081C64.9843 39.9419 64.8936 39.9076 64.7832 39.8353C64.7551 39.7691 64.706 39.6477 64.6546 39.5203C64.5504 39.5485 64.4204 39.584 64.2574 39.6281C64.239 39.546 64.2145 39.4345 64.1851 39.3033C64.4719 39.242 64.5062 39.1391 64.2697 38.9552C64.1557 38.867 64.0944 38.7113 63.9902 38.6047C63.9289 38.5422 63.8284 38.5189 63.7206 38.4649C63.7267 38.4588 63.6801 38.4993 63.6323 38.5397C63.6127 38.4527 63.5943 38.3644 63.5747 38.2774C63.5698 38.286 63.5637 38.2946 63.5576 38.3044C63.5232 38.2504 63.4485 38.1867 63.4595 38.1462C63.5477 37.8263 63.6568 37.5126 63.7537 37.1963C63.9007 36.7122 64.0466 36.228 64.1876 35.7426C64.3395 35.2242 64.5001 34.7057 64.63 34.1811C64.7416 33.7264 64.8225 33.2643 64.9021 32.8022C64.9169 32.7127 64.8617 32.611 64.8261 32.4614C64.8568 32.4124 64.9083 32.3278 64.9696 32.2298C65.1963 32.5742 65.4133 32.9174 65.6449 33.2496C65.7528 33.404 65.8692 33.5805 66.0874 33.469C66.0666 33.5425 66.02 33.6185 66.0359 33.6786C66.0641 33.7803 66.1095 33.9016 66.1879 33.9605C66.2933 34.0377 66.4208 34.0267 66.4049 34.2448C66.3926 34.3981 66.5446 34.6199 66.6868 34.7118C66.8767 34.8356 66.9209 34.9913 66.9871 35.1788C67.1084 35.5245 67.2763 35.8554 67.4234 36.1925C67.4884 36.342 67.5386 36.5014 67.6208 36.6411C67.6538 36.6962 67.7543 36.7122 67.7874 36.7281C67.7752 36.8102 67.7237 36.9218 67.758 36.9708C67.8757 37.1338 67.7985 37.428 68.0816 37.4917C67.9848 37.7503 68.0424 38.2541 68.1331 38.2909C68.1429 38.4993 68.1503 38.6819 68.1613 38.8657C68.1625 38.9037 68.1919 38.9564 68.176 38.976C68.0216 39.1587 68.2348 39.1722 68.2998 39.2531C68.0914 39.4553 68.0681 39.6845 68.225 40.0081ZM41.2461 9.65482C41.6506 9.38394 42.0686 9.13145 42.4841 8.8765C42.9658 8.57988 43.4438 8.27345 43.9402 8.0038C44.1645 7.88246 44.4329 7.84446 44.6768 7.75621C44.743 7.73292 44.7921 7.6606 44.8901 7.62874C44.8693 7.69615 44.8472 7.76479 44.8068 7.89594C45.1475 7.83098 45.4637 7.76969 45.7849 7.70841C45.7702 7.78685 45.7493 7.89471 45.715 8.08347C45.8376 8.00748 45.8964 7.95845 45.9638 7.93516C46.0202 7.91555 46.0864 7.92536 46.1477 7.9229C46.1489 7.97683 46.1673 8.03935 46.1465 8.08224C46.0729 8.22933 45.9785 8.36538 45.905 8.51124C45.7211 8.88018 45.563 9.26505 45.3547 9.6205C45.2113 9.86564 44.9894 10.0409 44.7014 10.1451C44.455 10.2346 44.2393 10.4111 44.0052 10.5386C43.7674 10.6685 43.521 10.7825 43.2832 10.9124C43.0369 11.046 42.7942 11.1869 42.5539 11.3316C42.1715 11.5608 41.7989 11.8072 41.4104 12.0241C41.0353 12.2349 40.648 12.4274 40.2582 12.6124C40.0658 12.7044 39.6478 12.5426 39.4885 12.355C39.4345 12.2913 39.3549 12.23 39.2764 12.208C38.9749 12.1234 38.8903 11.8525 39.1011 11.6208C39.4664 11.2188 39.8084 10.791 40.2043 10.4209C40.5168 10.1279 40.8882 9.89506 41.2461 9.65482ZM35.6263 5.36364C35.831 5.00941 36.0148 4.6319 36.2796 4.32792C36.9635 3.54102 37.6818 2.78354 38.3964 2.0236C38.7824 1.61422 39.1808 1.21587 39.5914 0.832221C39.7716 0.663075 39.9898 0.531924 40.2043 0.404451C40.2533 0.37626 40.3562 0.437546 40.4457 0.460834C40.5389 0.435094 40.659 0.399549 40.7803 0.372583C41.0941 0.302718 41.0941 0.30517 41.3344 0.0722864C41.3478 0.15686 41.3576 0.231628 41.3809 0.382389C41.441 0.213242 41.4765 0.116412 41.5145 0.00732422C41.6224 0.124992 41.7033 0.214468 41.7842 0.302718C41.9742 0.563793 41.8063 0.789322 41.6702 1.03936C41.4349 1.47081 41.2633 1.93903 41.0145 2.36067C40.7166 2.86566 40.3354 3.30936 39.8684 3.67707C39.5914 3.89402 39.345 4.14897 39.0827 4.3843C38.8879 4.5608 38.677 4.69563 38.4172 4.78511C38.2505 4.84272 38.1353 5.04251 37.9833 5.16262C37.8963 5.23126 37.7823 5.26313 37.683 5.31706C37.6058 5.35874 37.5322 5.40654 37.4587 5.45434C37.4464 5.46292 37.4379 5.49724 37.4329 5.49602C37.0775 5.41022 37.0223 5.92746 36.6681 5.87721C36.5933 5.86618 36.4879 6.00836 36.4107 6.09293C36.3029 6.2106 36.2416 6.15667 36.157 6.06229C36.0589 5.9532 35.929 5.87476 35.8297 5.7669C35.7255 5.6529 35.5049 5.57446 35.6263 5.36364ZM46.6257 17.3277C46.7569 17.3424 46.8623 17.2039 47.0375 17.3571C47.1626 17.4674 47.4371 17.4062 47.6308 17.4209C47.6014 17.5998 47.5744 17.7604 47.5401 17.9614C47.6234 17.9295 47.6651 17.9222 47.6957 17.9001C47.8244 17.8106 47.8367 17.563 48.0696 17.6194C48.2191 17.655 48.3674 17.6966 48.5108 17.7506C48.5893 17.78 48.6555 17.8413 48.7266 17.8891C48.6604 17.9724 48.5942 18.057 48.5108 18.1624C48.528 18.1882 48.5623 18.2433 48.5966 18.2985C48.5856 18.3156 48.5783 18.3303 48.5684 18.3426C48.463 18.4848 48.2743 18.6233 48.2694 18.7679C48.2596 19.0829 48.0279 19.2937 47.974 19.5805C47.9482 19.7129 47.5474 19.7742 47.3207 19.7068C47.0523 19.6247 46.7691 19.4457 46.5191 19.4837C46.1943 19.5315 45.9222 19.3624 45.617 19.3979C45.552 19.4053 45.4772 19.3366 45.4478 19.3232C45.2309 19.3232 45.0458 19.3366 44.8632 19.3207C44.4881 19.2864 44.1032 19.2754 43.7416 19.181C43.483 19.1136 43.1337 19.2876 43.0123 18.98C42.8849 19.0192 42.7954 19.0474 42.7047 19.0756C42.6839 18.9836 42.663 18.8917 42.6434 18.8035C42.5049 18.8586 42.3394 18.9505 42.1617 18.9885C41.9975 19.0241 41.7891 19.0792 41.7523 18.7912C41.7474 18.7507 41.6003 18.6809 41.5746 18.6993C41.2902 18.9101 41.1505 18.6098 40.9617 18.5215C40.8808 18.4835 40.8514 18.334 40.7987 18.2347C40.8306 18.2188 40.8637 18.2016 40.8956 18.1857C40.9336 18.2445 40.9715 18.3046 40.985 18.3267C41.0537 18.2494 41.1174 18.1783 41.1811 18.106C41.2204 18.0619 41.2571 18.0129 41.3013 17.9724C41.4324 17.8499 41.3613 17.5606 41.6408 17.5618C41.6408 17.4723 41.6408 17.3829 41.6408 17.3718C41.8835 17.286 42.109 17.2064 42.3639 17.1169C42.6066 17.3914 42.8395 16.9477 43.1423 17.0679C43.2452 17.1635 43.3923 17.3007 43.5161 17.4172C43.5762 17.2738 43.6301 17.1475 43.6644 17.0666C43.9341 17.0899 44.1743 17.1108 44.4464 17.1341C44.4856 17.2125 44.5518 17.3436 44.618 17.476C44.6401 17.465 44.6634 17.454 44.6854 17.4429C44.6585 17.3865 44.6315 17.3289 44.5849 17.2284C44.8117 17.1512 45.0311 17.0752 45.302 16.9821C45.2774 17.1255 45.2676 17.1794 45.2591 17.2333C45.411 17.2971 45.5704 16.8007 45.7175 17.2664C45.7898 17.237 45.867 17.2051 45.9442 17.1733C46.1305 17.3988 46.3965 17.3007 46.6257 17.3277ZM15.2392 18.0582C15.2845 17.6439 15.4917 17.302 15.7233 16.9723C15.7956 16.8705 15.8851 16.77 15.9881 16.7002C16.3276 16.4685 16.6781 16.2528 17.0213 16.026C17.1549 15.9378 17.2702 15.8189 17.4111 15.7453C17.6452 15.6203 17.8867 15.4536 18.1649 15.6313C18.2752 15.7024 18.3831 15.7919 18.464 15.8949C18.6111 16.0836 18.7594 16.2761 18.8673 16.4881C19.0315 16.808 19.0499 17.1573 18.9947 17.5116C18.969 17.6819 18.9077 17.8658 18.9469 18.0215C18.9972 18.2237 18.9653 18.3892 18.8881 18.5644C18.8648 18.6184 18.8636 18.6833 18.855 18.7434C18.7962 19.1699 18.7337 19.5965 18.6797 20.0243C18.6172 20.5329 18.5596 21.0416 18.5032 21.5503C18.4713 21.8285 18.4444 22.1067 18.4174 22.3837C18.4064 22.51 18.4223 22.6424 18.388 22.76C18.2985 23.0603 18.2605 23.3557 18.361 23.6597C18.3745 23.7014 18.3696 23.7528 18.3623 23.797C18.3267 24.0249 18.2777 24.2517 18.2519 24.4809C18.2397 24.5839 18.2372 24.7101 18.2863 24.7935C18.399 24.9896 18.2458 25.1514 18.2532 25.3205C18.2667 25.6318 18.3279 25.9432 18.388 26.2496C18.4481 26.5523 18.5277 26.8502 18.605 27.1493C18.6344 27.2583 18.6908 27.3613 18.7202 27.4704C18.8145 27.8209 18.9592 28.1384 19.2301 28.3921C19.3134 28.4693 19.4004 28.5637 19.4335 28.6667C19.5733 29.0969 19.8454 29.4144 20.2192 29.6668C20.0268 29.9181 20.2535 30.0198 20.4043 30.124C20.6396 30.2858 20.8946 30.4194 21.1397 30.5677C21.1973 30.6021 21.25 30.6437 21.3052 30.683C21.3223 30.6597 21.3407 30.6376 21.3579 30.6143C21.2856 30.5555 21.2132 30.4954 21.1348 30.4305C21.4449 30.4194 21.7452 30.4145 21.9045 30.7099C22.0124 30.6131 22.108 30.5273 22.2257 30.4207C22.2257 30.5371 22.2257 30.6008 22.2257 30.7062C22.3495 30.645 22.4757 30.5334 22.5309 30.5616C22.7417 30.6682 22.8765 30.5114 23.0224 30.4452C23.1977 30.3667 23.3386 30.2147 23.5065 30.113C23.7382 29.9745 23.9797 29.8495 24.2199 29.7245C24.2959 29.6852 24.4086 29.6877 24.4552 29.6301C24.5925 29.4646 24.7212 29.2869 24.8254 29.0981C25.0705 28.6483 25.2973 28.1874 25.5387 27.7351C25.5804 27.6567 25.6576 27.5954 25.73 27.5121C25.654 27.3417 25.7545 27.1591 25.9371 27.1321C25.9726 26.9397 25.9837 26.7546 26.045 26.5854C26.0989 26.4322 26.2068 26.2986 26.2938 26.1528C26.2729 26.1503 26.2166 26.1454 26.1724 26.1417C26.1565 25.8402 26.5438 25.5693 26.1994 25.2911C26.23 25.1759 26.257 25.0778 26.2827 24.9847C26.1896 25.0129 26.1283 25.0325 26.0486 25.057C26.1185 24.8915 26.1651 24.7837 26.23 24.6329C26.0915 24.6537 26.0241 24.6648 25.9543 24.6758C26.0266 24.4932 26.0891 24.3338 26.1565 24.1622C26.067 24.1622 26.0131 24.1622 26.007 24.1622C26.0388 23.8705 26.0695 23.5898 26.0989 23.3091C26.0707 23.2993 26.0425 23.2895 26.0143 23.2809C25.9518 23.3729 25.8905 23.466 25.828 23.5592C25.8059 23.3962 25.7851 23.151 25.8587 23.1179C26.1418 22.9917 26.0744 22.7122 26.1553 22.5149C26.2398 22.3077 26.1847 22.0479 26.2227 21.8162C26.2975 21.3541 26.3882 20.8945 26.4838 20.4373C26.5536 20.1015 26.6198 19.762 26.7326 19.4408C26.8049 19.2386 26.8931 19.0633 26.7497 18.8991C26.8049 18.8255 26.8699 18.7765 26.8846 18.7152C26.974 18.3132 27.0696 17.9124 27.1297 17.5067C27.1665 17.2566 27.0844 16.9784 27.1616 16.7492C27.3442 16.2123 27.1542 15.7012 27.1297 15.1803C27.1273 15.1325 27.0745 15.0871 27.0721 15.0381C27.066 14.9229 27.1236 14.7366 27.0709 14.701C26.8319 14.5368 26.9581 14.3358 26.9679 14.1446C26.9716 14.0857 26.9642 14.0281 26.9606 13.9607C26.8797 13.9607 26.8122 13.9607 26.7363 13.9607C26.8564 13.8149 27.0341 13.6812 26.7277 13.555C26.6921 13.5403 26.6786 13.4324 26.6823 13.3699C26.6909 13.2045 26.7142 13.039 26.7399 12.8024C26.5598 12.898 26.4543 12.952 26.3256 13.0206C26.1013 12.6737 26.4691 12.3648 26.485 11.9922C26.0854 12.17 26.3281 11.7287 26.1381 11.6858C26.1099 11.6785 26.1148 11.5216 26.0989 11.3892C26.0033 11.2335 25.8783 11.0288 25.741 10.8045C25.703 10.8609 25.6613 10.9234 25.5914 11.0276C25.5571 10.8487 25.4824 10.7003 25.5179 10.5864C25.5927 10.3412 25.5216 10.2003 25.2924 10.112C25.3316 10.0912 25.3598 10.0752 25.4309 10.0372C25.263 10.0115 25.1343 9.99066 24.9737 9.96492C25.0043 9.82397 25.0338 9.68301 25.0644 9.54083C24.8634 9.54083 24.6832 9.54083 24.503 9.54083C24.7469 9.35943 24.7408 9.30059 24.519 9.13512C24.4295 9.06893 24.3768 8.95004 24.3167 8.84953C24.2138 8.67916 24.1304 8.49163 23.8693 8.5713C23.7124 8.6191 23.5494 8.65097 23.346 8.70122C23.471 8.53085 23.5605 8.40828 23.6512 8.28449C23.6352 8.26242 23.6205 8.23913 23.6046 8.21707C23.4072 8.36661 23.3178 8.2661 23.2197 8.11044C23.1499 7.9989 23.0359 7.85426 22.9268 7.84201C22.7687 7.8224 22.6914 7.75253 22.5958 7.64957C22.5456 7.59564 22.4377 7.59196 22.3544 7.57603C22.2686 7.5601 22.1803 7.55764 22.0688 7.54661C22.0492 7.62261 22.0271 7.71208 22.0112 7.76969C21.69 7.79666 21.5675 7.527 21.4241 7.35173C21.2978 7.19729 21.1973 7.21445 21.0515 7.2169C20.9607 7.21813 20.8688 7.174 20.7205 7.136C20.7205 7.136 20.6151 7.21322 20.5979 7.19729C20.4472 7.05756 20.2584 7.17155 20.1162 7.11884C19.887 7.03427 19.7632 7.09065 19.6578 7.38482C19.637 7.25857 19.6358 7.22058 19.6247 7.18626C19.5978 7.09923 19.5769 6.94725 19.5353 6.94112C19.3575 6.91415 19.1259 6.86145 19.0021 6.94602C18.7459 7.1213 18.5939 6.96931 18.4003 6.84919C18.3304 6.93621 18.2654 7.01956 18.1527 7.15929C18.0963 6.89454 18.0436 6.63959 17.7335 6.8259C17.5937 6.65798 17.5227 6.77565 17.4467 6.89209C17.4356 6.91047 17.3891 6.92028 17.367 6.91293C17.2162 6.86635 17.0704 6.80016 16.9172 6.76462C16.7382 6.72294 16.5421 6.65185 16.3766 6.69107C16.232 6.72417 16.1205 6.89209 16.0077 6.98892C15.917 6.88841 15.8251 6.7879 15.7098 6.66288C15.591 6.93867 15.4108 6.99627 15.1313 6.7401C15.2098 6.89086 15.2502 6.96808 15.309 7.08085C15.1767 7.07349 15.0798 7.06736 14.9769 7.06001C14.9609 6.96931 14.9462 6.88596 14.9315 6.80384C14.782 6.8308 14.6226 6.83203 14.4841 6.88841C14.2439 6.98769 14.0122 7.11026 13.7879 7.24019C13.636 7.32721 13.5146 7.4743 13.3577 7.54294C13.0525 7.67776 12.6958 7.71821 12.577 8.11411C12.561 8.16927 12.4544 8.20481 12.3821 8.23301C12.2497 8.28326 12.1002 8.30165 11.9813 8.37274C11.8428 8.45363 11.7202 8.57007 11.605 8.68406C11.0228 9.26137 10.4283 9.82642 9.87305 10.4282C9.5078 10.8241 9.21485 11.285 8.86675 11.6981C8.44389 12.1982 8.17178 12.784 7.87761 13.3564C7.78078 13.5452 7.68885 13.7413 7.6337 13.9448C7.53687 14.3002 7.49519 14.6728 7.38365 15.0222C7.25005 15.4365 7.10419 15.8373 7.31134 16.2663C7.31992 16.2834 7.31379 16.319 7.30031 16.3337C7.15813 16.4869 7.12871 16.6217 7.18999 16.8534C7.25618 17.1034 7.13851 17.3976 7.13851 17.6721C7.13606 18.3671 7.38978 18.9763 7.8151 19.518C7.92787 19.6614 8.10927 19.7779 8.15707 19.9385C8.31519 20.4655 8.74296 20.7621 9.11189 21.0955C9.39871 21.3541 9.76397 21.5257 10.0998 21.7304C10.4013 21.9143 10.682 22.2158 11.084 21.9413C11.089 21.9376 11.111 21.9596 11.1257 21.9694C11.1429 22.2354 11.2078 22.2832 11.8501 21.9792C12.0168 22.2121 12.4789 22.2477 12.6909 22.0074C12.93 21.739 13.332 21.7746 13.5649 21.4473C13.6752 21.2929 13.9166 21.1776 14.0331 20.9729C14.049 20.9448 14.0551 20.8933 14.0748 20.8884C14.3983 20.8087 14.4437 20.4974 14.5638 20.2682C14.842 19.7338 15.0835 19.181 15.3397 18.6343C15.2563 18.5313 15.2171 18.4247 15.2073 18.3144C15.1987 18.2311 15.2294 18.144 15.2392 18.0582ZM14.2868 15.7821C13.9363 16.33 13.6764 16.9367 13.3933 17.5263C13.3516 17.6121 13.3994 17.7395 13.4092 17.8928C13.0562 18.0729 13.1138 18.4676 13.0819 18.8353C13.0721 18.9432 13.0256 19.0523 12.9753 19.1503C12.8711 19.355 12.9483 19.4494 13.1579 19.4702C13.1114 19.5953 13.0697 19.7068 13.028 19.8183C13.0746 19.8061 13.1212 19.7926 13.2474 19.7595C13.153 19.9507 13.0819 20.0953 13.0035 20.2547C12.952 20.2338 12.903 20.224 12.865 20.1983C12.6775 20.0733 12.5242 20.0341 12.295 20.1811C12.1541 20.2731 11.8967 20.1946 11.6932 20.1738C11.5988 20.164 11.5106 20.0978 11.415 20.0831C11.0534 20.0279 10.7936 19.7742 10.5509 19.5548C10.2604 19.2937 10.2935 19.5095 10.2481 19.6909C10.1562 19.6124 10.0679 19.5364 10.0018 19.48C10.0912 19.3918 10.2175 19.3232 10.2175 19.2545C10.2175 19.1589 10.1255 19.0596 10.0655 18.9677C10.0422 18.9309 9.98704 18.9138 9.96376 18.877C9.75171 18.5436 9.52618 18.2176 9.33865 17.8707C9.21853 17.6476 9.15479 17.3939 9.06532 17.1537C9.04816 17.1071 9.04325 17.0237 9.01751 17.0176C8.84714 16.9747 8.92068 16.8558 8.92804 16.7602C8.95378 16.3643 8.98442 15.9684 9.00281 15.5725C9.00526 15.5223 8.9452 15.4708 8.98442 15.4328C9.03835 15.0136 9.08738 14.5944 9.14744 14.1764C9.17686 13.9803 9.21853 13.7842 9.26756 13.5918C9.36316 13.2179 9.45754 12.8441 9.69778 12.5254C10.0226 12.094 10.3155 11.638 10.6636 11.2274C10.8867 10.9651 11.1858 10.7665 11.4518 10.5398C11.5363 10.4675 11.616 10.3866 11.7092 10.329C12.1688 10.0409 12.6309 9.76023 13.0917 9.47709C13.1346 9.45013 13.1824 9.42561 13.2143 9.38884C13.4362 9.13635 13.7499 9.08119 14.0478 8.98681C14.1079 8.96843 14.1569 8.91695 14.2022 8.8863C14.2966 8.8863 14.4167 8.89366 14.5356 8.88508C14.7906 8.86669 15.0455 8.83728 15.3005 8.81889C15.4733 8.80663 15.6461 8.7956 15.8189 8.80051C16.2112 8.81154 16.6034 8.8385 16.9956 8.84831C17.2506 8.85444 17.5055 8.83728 17.7604 8.84341C17.8438 8.84586 17.9259 8.89243 18.008 8.9194C18.0485 8.93411 18.0938 8.97333 18.1269 8.96352C18.426 8.87773 18.7006 9.00397 18.9874 9.03952C19.3208 9.07997 19.6738 9.01133 19.9973 9.08242C20.5636 9.20744 21.1225 9.38026 21.6704 9.57515C22.1644 9.75042 22.6338 10.0066 22.955 10.4344C23.1388 10.6771 23.4501 10.8107 23.5274 11.1489C23.5592 11.2862 23.6781 11.4235 23.8853 11.3389C23.8559 11.7544 24.1071 12.0351 24.3388 12.3293C24.4037 12.4102 24.4185 12.5291 24.465 12.6259C24.5778 12.86 24.6746 13.1064 24.8205 13.3197C24.9382 13.4913 24.8977 13.5771 24.7249 13.6616C24.7996 13.7928 25.2679 13.7744 24.8891 14.0293C25.0362 14.5515 25.046 15.1031 25.4027 15.5357C25.2201 15.6044 25.2433 15.7429 25.3512 15.9353C25.4076 16.037 25.3671 16.189 25.388 16.3153C25.4137 16.4673 25.4566 16.6156 25.4934 16.77C25.2029 16.8092 25.6025 17.0372 25.4762 17.1475C25.6062 17.286 25.4946 17.4245 25.486 17.5667C25.4713 17.8168 25.486 18.0705 25.5032 18.3218C25.5081 18.3855 25.5706 18.4456 25.6111 18.5154C25.3794 18.8267 25.2188 19.1773 25.2764 19.6051C25.2912 19.7129 25.225 19.8306 25.1931 19.9434C25.1894 19.9581 25.1637 19.9666 25.16 19.9814C25.0926 20.3013 25.0301 20.6212 24.9602 20.9399C24.9271 21.0918 24.8389 21.2451 24.8487 21.3909C24.8658 21.6201 24.5937 21.8064 24.7764 22.0614C24.8193 22.1202 24.7445 22.2648 24.7188 22.369C24.6587 22.6129 24.5888 22.8556 24.5349 23.1008C24.4834 23.3361 24.4344 23.5678 24.5067 23.8153C24.5373 23.9208 24.4614 24.0531 24.4479 24.1745C24.4393 24.2468 24.4332 24.3681 24.4687 24.3878C24.769 24.552 24.6464 24.7763 24.4859 24.8903C24.3081 25.0165 24.3927 25.1734 24.3927 25.2764C24.3915 25.5546 24.4344 25.8463 24.53 26.1074C24.7249 26.6418 24.4846 27.1088 24.3817 27.604C24.3032 27.9815 24.0875 28.1911 23.7566 28.3296C23.6794 28.3615 23.6083 28.424 23.5531 28.4889C23.281 28.8101 22.8287 28.6311 22.5247 28.8628C22.5039 28.8787 22.4291 28.8603 22.4071 28.8334C22.2955 28.7047 22.2012 28.5588 22.0859 28.435C21.9916 28.3333 21.88 28.2585 21.7734 28.4399C21.7464 28.4865 21.6766 28.5073 21.6042 28.5551C21.6275 28.3566 21.6435 28.2119 21.6606 28.0673C21.6398 28.0759 21.6189 28.0845 21.5993 28.093C21.5233 27.9496 21.4474 27.8062 21.3517 27.6285C21.1446 27.5868 20.9987 27.3319 21.0502 27.0071C20.8664 26.9617 20.7683 26.757 20.799 26.4531C20.4913 26.5082 20.4999 26.3722 20.6237 26.1638C20.6421 26.1319 20.6433 26.0645 20.6225 26.04C20.3896 25.7703 20.4889 25.4259 20.4092 25.1232C20.3283 24.8167 20.2535 24.5054 20.2217 24.1916C20.1984 23.9624 20.2609 23.7271 20.2621 23.493C20.2621 23.3925 20.2008 23.292 20.1751 23.2184C20.2094 22.9059 20.2474 22.6105 20.2707 22.3139C20.3062 21.8628 20.3651 21.4105 20.3503 20.9607C20.3381 20.5844 20.4901 20.2351 20.4754 19.8698C20.4496 19.1859 20.6592 18.5375 20.7377 17.8707C20.7757 17.5557 20.799 17.2382 20.8026 16.9208C20.8039 16.7541 20.7389 16.5886 20.7205 16.4195C20.7156 16.3704 20.7928 16.3153 20.7953 16.2614C20.8026 15.9892 20.799 15.7171 20.799 15.4365C20.6813 15.4266 20.6065 15.4205 20.5195 15.4132C20.5526 15.293 20.5845 15.1778 20.6163 15.0602C20.5048 15.0307 20.4227 15.0087 20.3773 14.9964C20.2646 14.6925 20.1616 14.413 20.0501 14.1115C19.8674 14.1899 19.7265 14.25 19.5647 14.3198C19.5549 14.25 19.5156 14.1556 19.5365 14.0759C19.6014 13.8173 19.5267 13.6641 19.2632 13.5758C19.1577 13.5403 19.0523 13.4864 18.9457 13.4815C18.8746 13.4778 18.8011 13.5464 18.714 13.5905C18.5817 13.2853 18.2434 13.2535 17.9602 13.1309C17.8352 13.077 17.7114 13.0169 17.5999 12.9422C17.5067 12.8784 17.1427 12.9201 17.0385 13.0194C16.8571 13.1922 16.7002 13.4435 16.4845 13.5133C15.9084 13.7033 15.6461 14.1924 15.2943 14.6054C14.9585 14.9989 14.5614 15.3507 14.2868 15.7821ZM27.1518 29.3862C26.8404 29.4033 26.5328 29.3751 26.2595 29.5247C26.1467 29.5308 26.0204 29.5063 25.9224 29.5492C25.6883 29.6509 25.4664 29.7821 25.2409 29.9046C25.0767 29.9953 24.8879 30.064 24.7555 30.1902C24.1292 30.7884 23.5078 31.3926 22.9035 32.0141C22.5235 32.4051 22.1325 32.7814 21.9315 33.3305C21.8334 33.6001 22.0026 33.5388 22.1301 33.632C21.9156 33.8514 21.7722 34.0843 21.9658 34.3735C22.0982 34.5721 22.2428 34.7633 22.3801 34.9594C22.4267 35.0232 22.4916 35.0844 22.51 35.1555C22.5922 35.4595 22.7564 35.7071 23.004 35.891C23.1768 36.0184 23.3778 36.1067 23.547 36.2378C24.0642 36.6386 24.6195 36.8887 25.2973 36.8752C25.6834 36.8678 26.045 36.8139 26.3857 36.646C26.6137 36.5332 26.8306 36.3972 27.05 36.266C27.1934 36.179 27.3197 36.054 27.4729 35.9964C27.9093 35.8346 28.2623 35.5331 28.489 35.1702C28.9915 34.365 29.4328 33.5131 29.624 32.5669C29.662 32.3769 29.5958 32.1648 29.5713 31.9062C29.7564 31.7322 29.4071 31.5213 29.4647 31.2885C29.4708 31.2627 29.4451 31.2223 29.4242 31.1965C29.309 31.0421 29.1779 30.8987 29.0773 30.7357C29.0026 30.6131 28.9658 30.4672 28.9021 30.3054C28.7121 30.303 28.5834 30.2049 28.6312 30.0113C28.4265 29.8507 28.2512 29.7122 28.0882 29.5847C27.8443 29.8127 27.8308 29.4952 27.7401 29.4622C27.5538 29.5136 27.3896 29.5578 27.2094 29.6068C27.1873 29.5234 27.1689 29.4536 27.1518 29.3862ZM27.7891 33.8269C27.7916 33.8698 27.7573 33.936 27.7193 33.9605C27.4104 34.1615 27.0966 34.3552 26.7841 34.55C26.7019 34.6015 26.6198 34.6518 26.5585 34.6885C26.0609 34.5966 25.6123 34.6628 25.2348 35.0673C25.3414 34.6469 25.3353 34.6493 24.9308 34.5182C24.7666 34.4642 24.6158 34.3674 24.4993 34.3098C24.3032 34.0107 24.1169 33.7288 23.9196 33.4298C23.8644 33.4445 23.786 33.4653 23.6892 33.491C23.6892 33.3648 23.6597 33.2263 23.6953 33.1086C23.7603 32.8966 23.9282 32.7679 24.1525 32.7519C24.3179 32.7409 24.4086 32.671 24.4663 32.5142C24.5521 32.2813 24.6709 32.0803 24.9467 32.003C25.1097 31.9577 25.2433 31.8155 25.4039 31.753C25.5927 31.6807 25.7949 31.6133 25.9947 31.6035C26.3048 31.5887 26.6186 31.6169 26.9287 31.6451C27.0035 31.6513 27.0954 31.7089 27.1383 31.7714C27.365 32.0999 27.5673 32.4345 27.6849 32.8316C27.783 33.165 27.7658 33.4947 27.7891 33.8269ZM14.5994 33.415C14.6839 33.4947 14.7673 33.5744 14.8666 33.6688C14.6643 33.9384 14.6141 34.327 14.3224 34.5182C14.2991 34.6542 14.2991 34.8099 14.2378 34.9349C14.2133 34.9852 14.0527 34.968 13.9301 34.9852C13.9301 34.9901 13.9301 35.0452 13.9301 35.1188C13.5293 34.8479 13.1408 34.5991 12.7682 34.327C12.5941 34.1995 12.4605 34.0193 12.2963 33.8771C12.2019 33.7938 12.0671 33.7546 11.9788 33.6675C11.2777 32.9713 10.5815 32.2727 9.89266 31.5667C9.79338 31.465 9.75294 31.3093 9.65978 31.199C9.50902 31.0237 9.31413 30.8815 9.18298 30.694C9.00893 30.4488 8.88759 30.1657 8.72457 29.912C8.66819 29.8237 8.52969 29.787 8.47208 29.6987C8.40344 29.5958 8.38138 29.4622 8.36667 29.3298C8.14481 29.1594 8.04431 28.902 7.91683 28.6299C7.84452 28.4755 7.84697 28.245 7.61164 28.1384C7.4572 28.0685 7.37017 27.8504 7.25128 27.6984C7.45842 27.5059 7.65699 27.3196 7.87761 27.1149C7.8629 27.0537 7.84084 26.9544 7.81878 26.8612C8.07618 26.7006 8.3299 26.5413 8.57871 26.3856C8.76379 26.5646 8.67432 26.6945 8.48433 26.8122C8.50762 26.8306 8.53091 26.8502 8.5542 26.8686C8.66942 26.8465 8.78463 26.8257 8.93784 26.7975C8.82263 27.1358 9.19034 27.1113 9.30433 27.2963C9.33252 27.3417 9.384 27.3723 9.42445 27.4103C9.38277 27.4201 9.30678 27.425 9.30433 27.4397C9.29207 27.5219 9.2982 27.6064 9.2982 27.6837C9.44896 27.6837 9.5605 27.6837 9.67326 27.6837C9.64998 27.7817 9.62669 27.8798 9.5985 27.9974C9.71616 28.0134 9.84731 28.0305 10.0067 28.0526C9.96988 28.2095 9.93802 28.3529 9.90492 28.4951C9.92944 28.5122 9.95518 28.5282 9.97969 28.5441C10.0005 28.4755 10.0226 28.4068 10.0434 28.3382C10.0704 28.3431 10.0974 28.3492 10.1243 28.3541C10.2359 28.5147 10.3486 28.674 10.4565 28.8358C10.4749 28.8628 10.4871 28.9045 10.481 28.9339C10.4589 29.0356 10.4933 29.0761 10.6048 29.0663C10.6305 29.0638 10.6563 29.0601 10.6832 29.0601C10.7176 29.0601 10.7519 29.065 10.8414 29.0712C10.7029 29.2942 11.0473 29.472 10.8524 29.7159C10.8119 29.7674 10.9786 29.9193 11.0693 29.8581C11.1122 29.7306 11.1392 29.6534 11.1833 29.5222C11.5694 30.086 12.0021 30.5114 12.4335 30.9636C12.3796 31.1463 12.3183 31.3485 12.2583 31.5508C12.2877 31.5642 12.3159 31.5777 12.3453 31.5912C12.4826 31.4858 12.6186 31.3792 12.7718 31.2603C13.3577 31.8547 13.9853 32.459 14.6459 33.0253C14.679 33.0081 14.7109 32.9922 14.7428 32.9762C14.7195 33.1184 14.6962 33.2606 14.6729 33.4016C14.6484 33.4065 14.6239 33.4101 14.5994 33.415ZM18.4101 35.8689C18.2544 36.1189 18.1429 36.3972 18.0117 36.6632C17.9517 36.7833 17.9161 36.9291 17.8254 37.0186C17.7433 37.0995 17.6023 37.1277 17.4834 37.1669C17.3462 37.2123 17.1782 37.173 17.0973 37.3643C17.0716 37.4268 16.9025 37.493 16.8436 37.4648C16.5494 37.3226 16.2675 37.1547 15.9881 36.9843C15.9587 36.9659 15.9415 36.8568 15.9648 36.8298C16.1106 36.6668 15.9991 36.6104 15.8508 36.5565C15.8778 36.4572 15.9023 36.3616 15.9403 36.217C15.8765 36.2636 15.8545 36.2832 15.83 36.2979C15.7601 36.342 15.689 36.3837 15.6179 36.4278C15.5824 36.3187 15.4831 36.1606 15.5235 36.1091C15.7258 35.8481 15.8741 35.5245 16.2185 35.3958C16.2749 35.3749 16.3423 35.3124 16.3533 35.2585C16.4453 34.8344 16.8019 34.6787 17.1169 34.4777C17.2358 34.403 17.3425 34.3074 17.4638 34.235C17.5129 34.2044 17.5852 34.2105 17.6465 34.2007C17.6538 34.2216 17.6612 34.2436 17.6697 34.2645C17.6109 34.338 17.5521 34.4115 17.4932 34.4839C17.5043 34.4986 17.5153 34.5133 17.5263 34.528C17.6317 34.4765 17.7335 34.3944 17.8438 34.3809C17.9921 34.3637 18.1502 34.3858 18.2985 34.4189C18.3353 34.4275 18.3463 34.5439 18.3696 34.6113C18.3022 34.6126 18.2348 34.6187 18.1674 34.6138C18.1429 34.6113 18.1208 34.5831 18.0693 34.5476C18.1478 34.778 18.3733 34.8467 18.5449 34.7033C18.5375 34.8418 18.6564 34.9656 18.5057 35.0844C18.4946 35.093 18.5388 35.1813 18.5645 35.2291C18.5853 35.2683 18.6172 35.3014 18.6454 35.3357C18.5976 35.3443 18.551 35.3529 18.4799 35.3651C18.627 35.5649 18.5142 35.7022 18.4101 35.8689ZM38.3841 52.7137C38.6832 52.786 38.959 52.8571 39.2372 52.9135C39.3021 52.927 39.3818 52.8657 39.4492 52.8755C39.6527 52.9049 39.8525 52.9552 40.0547 52.9932C40.0915 52.9993 40.1638 52.9895 40.165 52.9809C40.1994 52.7211 40.4028 52.813 40.5499 52.7689C40.5585 52.8461 40.5646 52.9025 40.5707 52.9564C41.4263 52.9441 43.1079 52.6267 43.2428 52.4575C43.4131 52.5948 43.5933 52.5605 43.7662 52.4747C43.9831 52.3681 44.1866 52.2345 44.4072 52.1389C44.7565 51.9856 45.1769 51.9268 45.4466 51.6903C45.6231 51.5346 45.7763 51.412 45.9932 51.3532C46.0006 51.3507 46.0055 51.3397 46.0129 51.3372C46.1293 51.2894 46.2629 51.2649 46.3573 51.1902C46.5338 51.0492 46.7998 51.0382 46.8954 50.7661C46.9897 50.4989 47.1258 50.4658 47.2422 50.6423C47.2717 50.5969 47.2986 50.5209 47.3244 50.5222C47.5989 50.5283 47.7546 50.3113 47.963 50.1949C48.4912 49.897 49.0183 49.5992 49.424 49.1347C49.4473 49.1678 49.4706 49.1996 49.5061 49.2499C49.739 49.0525 49.967 48.8564 50.1962 48.6628C50.6325 48.2938 51.1253 48.0156 51.6131 47.7214C52.0396 47.464 52.4147 47.1208 52.8131 46.8169C52.9675 46.6992 53.1942 46.6195 53.2641 46.4663C53.3891 46.1918 53.6576 46.1219 53.8365 45.9356C53.8941 45.8743 53.9333 45.7946 53.9971 45.7419C54.1295 45.6316 54.2839 45.5446 54.4077 45.4269C54.5339 45.3056 54.6112 45.1229 54.7509 45.0273C55.2485 44.6829 55.5758 44.1804 55.9705 43.7428C56.2573 43.4229 56.5269 43.0846 56.7721 42.7316C57.054 42.3247 57.3102 41.8981 57.559 41.4704C58.0235 40.6736 58.5138 39.8904 58.9219 39.0655C59.4331 38.0347 59.8988 36.9782 60.334 35.9118C60.6036 35.2511 60.7789 34.5525 60.9971 33.8661C60.8978 33.8661 60.8377 33.8661 60.7789 33.8661C60.8034 33.8134 60.8267 33.7595 60.8537 33.708C60.8733 33.6724 60.9235 33.6344 60.9174 33.6063C60.8733 33.4138 60.8169 33.2226 60.7654 33.0314C60.7495 32.9762 60.7029 32.9015 60.7237 32.8696C60.8769 32.6257 60.7654 32.3928 60.7127 32.1562C60.7066 32.1293 60.6992 32.0901 60.6808 32.079C60.4957 31.9761 60.405 31.8572 60.4651 31.6562C60.5632 31.3228 60.334 31.0654 60.3413 30.7773C60.2641 30.7994 60.2077 30.8166 60.1097 30.846C60.1758 30.732 60.2163 30.6633 60.2555 30.5972C60.0864 30.4672 59.9515 30.2895 59.7162 30.4047C59.6966 30.3471 59.6623 30.2907 59.661 30.2319C59.6574 30.0738 59.7064 29.901 59.6598 29.7588C59.6157 29.6203 59.4821 29.4119 59.3828 29.4095C59.0837 29.3996 59.1806 29.1631 59.1328 29.0797C58.9894 28.9547 58.6621 29.2452 58.7491 28.8236C58.7516 28.8125 58.7307 28.7954 58.7209 28.7819C58.4905 28.4865 58.1792 28.3063 57.8384 28.1739C57.809 28.1617 57.7416 28.2021 57.7183 28.2365C57.684 28.2855 57.673 28.3517 57.6313 28.4681C57.5479 28.245 57.5271 28.0391 57.4131 27.9276C57.2954 27.8136 57.0883 27.7927 56.9179 27.7315C56.9044 27.8099 56.891 27.8859 56.8787 27.9631C56.8272 27.8798 56.8346 27.7989 56.8248 27.7204C56.8186 27.669 56.788 27.6212 56.7696 27.5709C56.712 27.5966 56.6446 27.6126 56.5992 27.653C56.5711 27.6788 56.5735 27.74 56.5588 27.8026C56.473 27.7511 56.4093 27.7119 56.3222 27.6579C56.3946 27.6371 56.4424 27.6236 56.5625 27.5881C56.4227 27.5194 56.348 27.4692 56.2646 27.4459C56.082 27.3932 55.8957 27.3454 55.7082 27.3123C55.4802 27.2731 55.251 27.2302 55.0524 27.4238C54.8906 27.5832 54.5781 27.4998 54.5254 27.3638C54.3207 27.3858 54.1368 27.4042 53.9002 27.4299C53.9628 27.3172 53.9946 27.2596 54.04 27.1787C53.9002 27.2485 53.7924 27.3478 53.6858 27.3466C53.3242 27.3392 52.9601 27.213 52.612 27.4324C52.5557 27.4692 52.4576 27.452 52.3804 27.4434C52.3117 27.4361 52.2456 27.4018 52.1781 27.387C51.8913 27.3233 51.7381 27.5709 51.5886 27.6493C51.455 27.5881 51.368 27.5194 51.2772 27.5145C51.2098 27.5096 51.1375 27.5881 51.0505 27.6383C51.0382 27.6273 50.988 27.5452 50.9475 27.5501C50.7245 27.5758 50.5014 27.6126 50.2832 27.6641C50.1361 27.6984 49.9976 27.8001 49.8518 27.8087C49.6091 27.8222 49.348 27.6665 49.1801 27.892C48.9043 27.7707 48.7266 27.8516 48.5832 28.071C48.5341 28.0121 48.4876 27.9582 48.376 27.8258C48.2706 27.9852 48.1738 28.131 48.0708 28.2855C48.023 28.2156 48.0046 28.2009 48.0059 28.1874C48.0108 28.1225 48.0218 28.0587 48.0353 27.9631C47.7068 28.1237 47.2949 28.0612 47.067 28.4571C46.9321 28.4399 46.7336 28.3774 46.725 28.6569C46.4075 28.5282 46.2764 28.587 46.1318 28.9192C46.03 28.9192 45.8829 28.8738 45.8253 28.9277C45.6108 29.1239 45.3645 29.2317 45.0997 29.3433C44.7908 29.4744 44.5151 29.6889 44.2368 29.8838C44.0873 29.988 43.961 30.2307 43.8262 30.2282C43.6044 30.2258 43.5247 30.3667 43.3972 30.4648C43.2489 30.5788 43.1153 30.7124 42.9694 30.8288C42.5306 31.1757 42.071 31.5005 41.6506 31.8694C41.2314 32.2396 40.8465 32.649 40.4531 33.0473C39.8562 33.6528 39.2262 34.2314 38.6795 34.8798C37.8436 35.8677 36.977 36.8384 36.3274 37.9685C36.1264 38.3191 35.956 38.6868 35.7733 39.0471C35.6594 39.2751 35.549 39.5056 35.4363 39.7335C35.3088 39.9897 35.163 40.2385 35.0551 40.502C34.9386 40.7852 34.8737 41.0892 34.7536 41.3711C34.4876 41.995 34.4214 42.3614 34.5219 42.8358C34.5293 42.8701 34.4986 42.9155 34.479 42.951C34.4202 43.0515 34.3221 43.1447 34.3037 43.2525C34.2559 43.5455 34.2375 43.8445 34.2118 44.1412C34.1861 44.4402 34.0782 44.7136 34.1236 45.0396C34.1897 45.5017 34.1039 45.9822 34.1113 46.4541C34.1162 46.7825 34.191 47.1098 34.1946 47.4371C34.1983 47.7447 34.1873 48.0413 34.479 48.2448C34.3184 48.4066 34.3086 48.5831 34.392 48.7731C34.4189 48.8344 34.4778 48.9091 34.4618 48.9557C34.3675 49.2192 34.4398 49.4166 34.6776 49.5747C34.6261 49.6017 34.5795 49.6262 34.5415 49.6458C34.5758 49.7316 34.62 49.799 34.6261 49.8701C34.6433 50.0429 34.6298 50.2194 34.6518 50.391C34.6641 50.4854 34.7303 50.57 34.7597 50.6631C34.7977 50.7869 34.7854 50.9487 34.8627 51.0345C35.1777 51.3851 35.4963 51.7405 35.8579 52.0408C36.1729 52.3019 36.5345 52.5176 36.901 52.7002C37.1363 52.8179 37.417 52.8694 37.6818 52.8927C37.9477 52.9172 38.2775 53.0422 38.3841 52.7137ZM37.1939 50.429C37.1682 50.1299 37.0358 49.897 36.6362 50.0405C36.6497 49.8345 36.662 49.6715 36.6755 49.4791C36.6007 49.5048 36.5382 49.5257 36.4745 49.5477C36.4573 49.3921 36.4426 49.2438 36.4205 49.0391C36.4352 49.0096 36.684 48.9471 36.4242 48.8123C36.3936 48.7964 36.4683 48.5819 36.499 48.4397C36.4279 48.4201 36.3482 48.3968 36.2428 48.3661C36.2967 48.1958 36.3482 48.0352 36.4046 47.8575C36.3494 47.8452 36.3004 47.833 36.2673 47.8256C36.2195 47.6724 36.5063 47.4959 36.2416 47.404C36.2416 47.1968 36.2416 46.9995 36.2416 46.7813C36.0577 46.7923 35.9879 46.7899 36.0307 46.5227C36.1165 45.9956 36.0847 45.4478 36.0871 44.9084C36.0871 44.8361 36.0013 44.765 35.9486 44.6841C36.1325 44.2135 36.1313 44.2012 35.891 44.2037C35.9241 44.1081 35.9609 44.0235 35.9829 43.9352C36.0173 43.7906 36.2158 43.6484 35.994 43.494C35.978 43.483 35.9891 43.4278 35.9964 43.3947C36.0786 43.0282 36.1668 42.663 36.2465 42.2965C36.2955 42.0685 36.3372 41.8393 36.3752 41.6101C36.4046 41.4324 36.3972 41.2448 36.4487 41.0745C36.5786 40.6504 36.6988 40.2177 36.8863 39.8181C37.1682 39.2175 37.4673 38.6169 37.8289 38.0617C38.1659 37.5444 38.5937 37.086 38.9835 36.6031C39.2654 36.2538 39.5093 35.8603 39.8439 35.5723C40.0989 35.3541 40.1932 34.9766 40.5707 34.8761C40.6835 34.8467 40.7522 34.6653 40.8539 34.566C41.0512 34.3735 41.2571 34.1897 41.4618 34.0046C41.6776 33.8097 41.8921 33.6112 42.1151 33.4248C42.3823 33.2018 42.6593 32.9897 42.9302 32.7715C43.0283 32.6919 43.13 32.6134 43.2146 32.5215C43.4793 32.2371 43.8483 32.1232 44.1596 31.9185C44.2748 31.8412 44.3569 31.7162 44.4072 31.6623C44.5825 31.6096 44.7283 31.6035 44.8252 31.5311C45.2542 31.21 45.7175 30.9489 46.1918 30.705C46.2408 30.6793 46.2629 30.6033 46.2739 30.5861C46.6784 30.4991 47.0326 30.3974 47.1871 29.9524C47.1993 30.0223 47.2116 30.0922 47.2361 30.227C47.4506 30.1657 47.6639 30.048 47.871 30.0591C48.1247 30.0726 48.262 29.9573 48.3772 29.7784C48.4704 29.8593 48.5403 29.9193 48.5979 29.9708C48.7008 29.8446 48.7903 29.7343 48.8798 29.6239C48.8969 29.6362 48.9153 29.6497 48.9325 29.6619C48.908 29.7122 48.8847 29.7625 48.8406 29.8532C49.1372 29.8237 49.413 29.8152 49.6826 29.7649C50.1104 29.6852 50.5418 29.5994 50.9573 29.472C51.1498 29.4119 51.4023 29.4732 51.5371 29.2452C51.5494 29.2244 51.6474 29.2391 51.6977 29.2587C51.9109 29.342 52.069 29.293 52.2345 29.1239C52.2701 29.0871 52.3853 29.13 52.5128 29.1398C52.5226 29.1263 52.5655 29.0687 52.5802 29.0491C52.8314 29.0736 53.057 29.0957 53.3217 29.1214C53.3229 29.119 53.3462 29.0687 53.3695 29.0185C53.4247 29.0773 53.4762 29.1337 53.5276 29.1901C53.5522 29.1766 53.5754 29.1631 53.5987 29.1496C53.5644 29.0687 53.5289 28.9866 53.4896 28.8959C53.5203 28.9081 53.5693 28.9118 53.5865 28.9363C53.7483 29.1668 53.9836 29.2366 54.2275 29.1349C54.3047 29.1018 54.4003 29.1104 54.4874 29.0957C54.6013 29.0773 54.7153 29.0564 54.8293 29.0356C54.8269 29.0148 54.8232 28.9939 54.8208 28.9731C54.9507 29.0675 55.0708 29.1827 55.2142 29.2526C55.6616 29.4732 56.1224 29.6668 56.5698 29.8899C56.7353 29.972 56.8763 30.1032 57.0282 30.2135C57.0405 30.2221 57.0454 30.2478 57.0589 30.254C57.3739 30.3937 57.5148 30.7185 57.7686 30.9281C57.95 31.0776 58.048 31.3264 58.1878 31.5275C58.2564 31.6243 58.352 31.7052 58.4072 31.8094C58.4648 31.916 58.4856 32.041 58.5236 32.1575C58.6253 32.4688 58.808 32.7814 58.8067 33.0927C58.8055 33.4114 58.9538 33.6871 58.9403 34.0218C58.9268 34.3539 59.0077 34.7363 59.0298 35.093C59.0457 35.3566 58.9514 35.6274 58.8962 35.8934C58.8705 36.0172 58.8276 36.1373 58.7822 36.2562C58.6094 36.7097 58.4427 37.1657 58.2552 37.6131C58.1326 37.906 57.9855 38.1891 57.8409 38.4723C57.6288 38.8841 57.4192 39.2972 57.1888 39.698C56.9841 40.0522 56.7402 40.3844 56.5331 40.7374C56.2659 41.1921 56.0036 41.6481 55.6763 42.066C55.1848 42.6961 54.6871 43.3163 54.0657 43.8274C53.7801 44.0627 53.5374 44.352 53.247 44.5824C52.9295 44.8361 52.5789 45.0494 52.2431 45.2811C52.1941 45.3154 52.1377 45.346 52.0985 45.3901C51.8178 45.7015 51.4329 45.8804 51.1314 46.1574C50.9966 46.2812 50.8519 46.3241 50.7122 46.4038C50.5075 46.5215 50.3666 46.7482 50.1888 46.9186C50.1324 46.9725 50.0491 47.0007 49.9756 47.0338C49.8738 47.0792 49.7598 47.1037 49.6691 47.1625C49.3553 47.3672 49.0538 47.5903 48.74 47.7937C48.2534 48.1087 47.757 48.4115 47.2704 48.7277C47.1307 48.8184 47.0094 48.9373 46.8708 49.0513C46.8721 49.0525 46.8463 49.0121 46.8047 48.9447C46.6331 49.0869 46.4749 49.218 46.2899 49.3724C46.0741 49.2229 46.0006 49.5208 45.8364 49.609C45.666 49.6997 45.4981 49.7941 45.2921 49.9069C45.2848 49.897 45.2443 49.8529 45.2333 49.8591C44.8546 50.0772 44.482 50.3028 44.0824 50.5418C44.0726 50.532 44.0297 50.4842 43.9451 50.3935C43.5664 50.5626 43.1741 50.7489 42.7733 50.9132C42.6324 50.972 42.4596 51.0504 42.3407 50.8568C42.3309 50.8408 42.3603 50.7992 42.3689 50.7747C42.2831 50.7894 42.1874 50.8077 42.0931 50.8249C42.0857 50.885 42.0759 50.9744 42.0637 51.0725C41.9926 51.0688 41.9178 51.0872 41.8933 51.0602C41.5758 50.7134 41.4336 51.1007 41.2265 51.2147C41.2118 51.2233 41.1959 51.2318 41.1493 51.2588C41.1052 51.1656 41.061 51.0749 41.0046 50.9573C40.963 51.0173 40.9262 51.0713 40.8882 51.1252C40.8183 51.086 40.746 51.0455 40.6492 50.9916C40.6185 51.1007 40.5953 51.1853 40.5536 51.3348C40.431 50.9879 40.2717 50.858 40.0192 51.2625C40.0192 51.1154 40.0192 51.0541 40.0192 50.9867C39.7532 51.0798 39.5056 51.1669 39.2347 51.2625C39.2225 51.1326 39.2127 51.0235 39.2029 50.9144C39.0153 50.9364 38.807 51.108 38.6231 50.8752C38.3964 51.0382 38.2652 50.6717 38.0115 50.7734C37.8975 50.8176 37.694 50.6251 37.5286 50.5479C37.4305 50.5025 37.3251 50.4756 37.1939 50.429ZM38.0262 43.6595C37.8791 43.5124 37.7431 43.342 37.5678 43.239C37.2994 43.0821 37.4771 43.0184 37.6082 42.8542C37.5175 42.848 37.4268 42.8407 37.2871 42.8309C37.2871 42.7561 37.2466 42.6152 37.2957 42.5232C37.444 42.2438 37.6131 41.9717 37.7994 41.7167C37.9441 41.5206 38.1279 41.3527 38.2787 41.1897C38.7947 41.4667 39.2911 41.7339 39.79 41.9999C39.8966 42.0562 39.9873 42.0783 40.0216 42.2523C40.0486 42.3933 40.2692 42.5134 40.4249 42.6078C40.7877 42.8284 41.1628 43.027 41.5317 43.2366C41.6408 43.2991 41.7388 43.407 41.8528 43.4266C42.033 43.4597 42.223 43.4352 42.4436 43.4352C42.4571 43.4756 42.489 43.5724 42.5172 43.6595C42.739 43.6827 42.9658 43.7073 43.1913 43.733C43.2256 43.7367 43.2869 43.7477 43.2881 43.7612C43.3372 44.1412 43.5112 43.8911 43.6656 43.8531C43.7919 43.8212 43.9439 43.8298 44.0701 43.8703C44.5837 44.0321 45.0875 43.836 45.5949 43.8458C45.7003 43.8482 45.8045 43.8899 45.9307 43.9181C46.0251 43.8703 46.1648 43.7918 46.3107 43.7232C46.4345 43.6656 46.5718 43.6313 46.6907 43.5651C47.105 43.3359 47.1344 42.9375 47.2116 42.5183C47.2888 42.1004 47.1589 41.7376 47.0486 41.3858C46.9346 41.0168 46.6821 40.6835 46.4517 40.3623C46.2028 40.0179 45.9136 39.7017 45.6329 39.3818C45.5569 39.2947 45.4429 39.242 45.3522 39.166C45.1205 38.9724 44.8864 38.7812 44.6646 38.5777C44.1951 38.1462 43.7331 37.7074 43.2673 37.2723C43.2366 37.2429 43.1999 37.2135 43.1815 37.1767C43.081 36.9806 42.9805 36.7833 42.891 36.581C42.8738 36.5418 42.9045 36.4805 42.9241 36.358C42.739 36.13 43.032 35.9486 43.1717 35.7855C43.7625 35.0979 44.341 34.3858 45.0188 33.7901C45.3914 33.4628 45.7702 33.0412 46.3573 33.0044C46.5583 32.9922 46.7458 32.8328 46.9493 32.7777C47.1993 32.7115 47.4604 32.687 47.7154 32.6428C47.9188 32.6073 48.1223 32.5705 48.3638 32.5276C48.3687 32.6012 48.3638 32.6514 48.376 32.698C48.3846 32.7286 48.4177 32.7519 48.4398 32.7789C48.4508 32.7507 48.4581 32.7213 48.4716 32.6943C48.49 32.6563 48.5182 32.5877 48.5305 32.5901C48.6567 32.6147 48.8013 32.7078 48.9006 32.671C49.0416 32.6196 49.1298 32.5595 49.245 32.7078C49.2794 32.7532 49.4007 32.7691 49.4632 32.7458C49.6324 32.6821 49.7709 32.6784 49.8983 32.8292C49.929 32.8647 50.0319 32.8953 50.0479 32.8782C50.2709 32.6367 50.4977 32.8561 50.6767 32.9162C51.0113 33.0289 51.0137 33.0535 51.2662 32.7863C51.857 32.1624 52.4613 31.5495 53.0606 30.9342C53.1575 30.8349 53.2445 30.7136 53.3609 30.6511C53.4688 30.5935 53.5901 30.4096 53.7532 30.6253C53.7863 30.6707 53.991 30.5886 54.1429 30.5592C53.9137 31.0433 53.6821 31.5446 53.4382 32.0398C53.3928 32.1317 53.3156 32.2335 53.2273 32.2751C52.9454 32.4075 52.9038 32.6894 52.7873 32.9235C52.6893 33.1196 52.6157 33.3292 52.5238 33.5535C52.574 33.5462 52.6488 33.5364 52.7236 33.5254C52.715 33.5437 52.7064 33.5634 52.6978 33.5817C52.8486 33.6442 52.9981 33.7055 53.1844 33.7815C53.1673 33.8404 53.1428 33.9262 53.1072 34.0475C53.1771 34.0585 53.258 34.0978 53.3082 34.0745C53.6171 33.9274 53.6723 33.9531 53.709 34.3123C53.7544 34.251 53.7899 34.2032 53.8549 34.1161C53.8659 34.2216 53.8721 34.2841 53.8806 34.3662C54.1785 34.2044 54.1184 34.5415 54.2483 34.6224C54.3905 34.7106 54.5486 34.7743 54.6945 34.8467C54.5535 35.017 54.5854 35.1016 54.9531 35.3762C54.8428 35.4178 54.7533 35.4522 54.6663 35.4865C54.6492 35.6189 54.632 35.761 54.605 35.967C54.7251 36.1153 54.5008 36.2709 54.4469 36.4511C54.4212 36.5332 54.3709 36.6178 54.3084 36.6766C54.2704 36.711 54.1699 36.7244 54.127 36.6987C53.7495 36.4719 53.3818 36.2317 53.0067 36.0037C52.7113 35.8248 52.4184 35.6409 52.107 35.4938C51.9661 35.4264 51.7835 35.4534 51.6229 35.4215C51.1363 35.3247 50.6521 35.2058 50.1631 35.1212C49.7758 35.0538 49.3823 35.0219 48.9925 34.9778C48.7609 34.9508 48.5305 34.9227 48.2988 34.9067C48.0034 34.8871 47.7056 34.854 47.4126 34.8736C47.0277 34.8994 46.9824 34.9153 46.8365 34.8552C46.6355 34.968 46.4823 35.0759 46.3132 35.1421C46.0999 35.2229 45.8596 35.2426 45.655 35.3382C45.3902 35.4607 45.1487 35.6323 44.944 35.7549C44.9465 36.1704 45.3853 36.1165 45.5434 36.3825C45.6096 36.4965 45.7837 36.5418 45.8854 36.6411C45.9454 36.6999 45.9602 36.8029 45.9945 36.885C46.0913 36.9205 46.2188 36.9512 46.3279 37.0137C46.4271 37.0689 46.5044 37.1632 46.5963 37.2343C46.7667 37.3667 46.8549 37.5064 46.7152 37.7222C46.6882 37.7626 46.7422 37.8729 46.7863 37.9318C46.8022 37.9526 46.9137 37.9379 46.9493 37.9048C47.1319 37.7344 47.3329 37.7381 47.442 37.9845C47.545 38.221 47.7693 38.3203 47.9029 38.5127C47.9936 38.6451 48.1002 38.7652 48.2412 38.9442C48.4214 38.9699 48.5562 39.2482 48.4496 39.5693C48.5868 39.6992 48.8663 39.6906 48.881 39.964C48.892 40.1625 49.1813 40.3488 48.8945 40.5474C49.0747 40.7509 49.1764 40.9531 49.0195 41.2007C49.0109 41.2142 48.9901 41.235 48.9938 41.2399C49.2316 41.6334 48.93 41.9435 48.8013 42.256C48.566 42.8321 48.2792 43.3886 47.9789 43.9352C47.8404 44.1877 47.6173 44.3949 47.4396 44.6278C47.3354 44.7638 47.2668 44.9342 47.143 45.0457C46.8451 45.3142 46.5375 45.5765 46.2077 45.8032C46.0852 45.8866 45.8915 45.8657 45.7175 45.8951C45.7322 46.1489 45.465 46.0422 45.3338 46.068C45.0041 46.1292 44.6646 46.1329 44.3226 46.1611C44.33 46.1207 44.3361 46.0827 44.3422 46.041C44.2564 46.09 44.1743 46.1783 44.0922 46.177C43.7907 46.1734 43.4891 46.1476 43.1888 46.117C42.8432 46.0827 42.4988 46.0422 42.1556 45.9895C41.9962 45.965 41.8418 45.9074 41.6212 45.8473C40.8992 46.6796 40.1503 47.5425 39.3978 48.409C39.1538 48.3465 39.1563 47.9175 38.7726 48.0352C38.8204 47.9617 38.8462 47.92 38.8731 47.8783C38.8597 47.8636 38.8511 47.844 38.8376 47.8415C38.769 47.8268 38.7003 47.8158 38.6317 47.8036C38.6697 47.757 38.7089 47.7116 38.7457 47.6638C39.3279 46.9051 39.9089 46.1452 40.5009 45.3705C40.1957 45.1781 39.8893 44.933 39.5412 44.7773C39.0509 44.5579 38.4932 44.2306 38.1659 43.8592C38.112 43.798 38.0826 43.7158 38.0262 43.6595Z" fill="white"/>
</g>
</svg>
