<svg width="343" height="285" viewBox="0 0 343 285" fill="none" xmlns="http://www.w3.org/2000/svg">
<g filter="url(#filter0_d_325_569)">
<rect x="17" y="19" width="297" height="239" rx="25" fill="white" shape-rendering="crispEdges"/>
<rect x="17.5" y="19.5" width="296" height="238" rx="24.5" stroke="#CDCDCD" shape-rendering="crispEdges"/>
<path d="M61.1009 169.481C58.0663 169.8 55.3329 167.599 55.1658 164.552C54.4203 150.96 56.1919 137.331 60.4081 124.354C65.194 109.624 73.023 96.0652 83.3872 84.556C93.7514 73.0469 106.419 63.845 120.569 57.5474C134.719 51.2497 150.034 47.9969 165.522 48C181.01 48.0031 196.325 51.262 210.472 57.5653C224.619 63.8686 237.283 73.0756 247.643 84.5888C258.002 96.1021 265.826 109.665 270.606 124.396C274.817 137.374 276.583 151.004 275.832 164.596C275.664 167.643 272.93 169.843 269.895 169.523C266.861 169.202 264.677 166.482 264.828 163.435C265.427 151.385 263.828 139.311 260.096 127.807C255.793 114.548 248.752 102.342 239.429 91.98C230.105 81.618 218.707 73.3318 205.975 67.6588C193.242 61.9858 179.459 59.0528 165.52 59.05C151.581 59.0473 137.797 61.9748 125.062 67.6427C112.327 73.3105 100.926 81.5922 91.5985 91.9504C82.2708 102.309 75.2247 114.512 70.9173 127.769C67.1798 139.272 65.5768 151.345 66.1706 163.395C66.3207 166.443 64.1355 169.162 61.1009 169.481Z" fill="#C5FFF1"/>
<path d="M61.2062 170.439C58.1746 170.786 55.4211 168.61 55.2259 165.565C53.71 141.911 59.8431 118.39 72.716 98.4885C74.3733 95.9263 77.839 95.3714 80.3151 97.1546C82.7912 98.9378 83.3385 102.383 81.6956 104.955C70.4132 122.612 64.9956 143.389 66.2196 164.307C66.3978 167.353 64.2377 170.092 61.2062 170.439Z" fill="#39BB9C"/>
<path d="M100.909 170V162.577L118.254 146.517C119.729 145.089 120.966 143.804 121.966 142.662C122.981 141.52 123.75 140.402 124.273 139.308C124.797 138.197 125.059 137 125.059 135.715C125.059 134.287 124.733 133.058 124.083 132.027C123.433 130.98 122.545 130.179 121.418 129.624C120.292 129.053 119.015 128.767 117.588 128.767C116.097 128.767 114.796 129.069 113.686 129.672C112.575 130.274 111.719 131.139 111.116 132.265C110.513 133.391 110.212 134.731 110.212 136.286H100.433C100.433 133.098 101.155 130.33 102.598 127.982C104.042 125.635 106.064 123.819 108.665 122.534C111.267 121.249 114.265 120.607 117.659 120.607C121.149 120.607 124.186 121.225 126.772 122.462C129.373 123.684 131.395 125.381 132.839 127.554C134.282 129.727 135.004 132.217 135.004 135.025C135.004 136.865 134.639 138.681 133.909 140.473C133.196 142.266 131.919 144.256 130.079 146.445C128.239 148.618 125.645 151.228 122.299 154.273L115.185 161.244V161.577H135.646V170H100.909ZM143.765 170L163.965 130.028V129.695H140.434V121.273H174.624V129.814L154.401 170H143.765ZM207.083 160.864V158.294C207.083 156.343 207.496 154.551 208.321 152.917C209.161 151.267 210.375 149.951 211.961 148.967C213.563 147.968 215.514 147.468 217.814 147.468C220.146 147.468 222.105 147.96 223.691 148.944C225.293 149.927 226.498 151.243 227.307 152.893C228.132 154.527 228.544 156.327 228.544 158.294V160.864C228.544 162.815 228.132 164.615 227.307 166.265C226.482 167.898 225.269 169.207 223.667 170.19C222.065 171.19 220.114 171.689 217.814 171.689C215.482 171.689 213.523 171.19 211.937 170.19C210.351 169.207 209.145 167.898 208.321 166.265C207.496 164.615 207.083 162.815 207.083 160.864ZM214.007 158.294V160.864C214.007 161.99 214.277 163.053 214.816 164.052C215.371 165.051 216.371 165.551 217.814 165.551C219.257 165.551 220.241 165.059 220.764 164.076C221.304 163.092 221.573 162.022 221.573 160.864V158.294C221.573 157.136 221.319 156.058 220.812 155.058C220.304 154.059 219.305 153.559 217.814 153.559C216.386 153.559 215.395 154.059 214.84 155.058C214.285 156.058 214.007 157.136 214.007 158.294ZM182.077 132.979V130.409C182.077 128.442 182.498 126.642 183.338 125.008C184.179 123.359 185.393 122.042 186.979 121.059C188.581 120.075 190.516 119.583 192.784 119.583C195.132 119.583 197.098 120.075 198.685 121.059C200.271 122.042 201.476 123.359 202.301 125.008C203.126 126.642 203.538 128.442 203.538 130.409V132.979C203.538 134.946 203.118 136.746 202.277 138.38C201.453 140.013 200.239 141.322 198.637 142.305C197.051 143.273 195.1 143.757 192.784 143.757C190.468 143.757 188.509 143.265 186.907 142.282C185.321 141.282 184.116 139.974 183.291 138.356C182.482 136.722 182.077 134.93 182.077 132.979ZM189.049 130.409V132.979C189.049 134.137 189.318 135.207 189.858 136.191C190.413 137.174 191.388 137.666 192.784 137.666C194.243 137.666 195.235 137.174 195.758 136.191C196.297 135.207 196.567 134.137 196.567 132.979V130.409C196.567 129.251 196.313 128.173 195.806 127.173C195.298 126.174 194.291 125.674 192.784 125.674C191.372 125.674 190.397 126.182 189.858 127.197C189.318 128.212 189.049 129.283 189.049 130.409ZM185.218 170L218.718 121.273H224.952L191.452 170H185.218ZM49.5494 203V191.364H56.5267V192.614H50.9585V196.545H56.0039V197.795H50.9585V203H49.5494ZM58.4542 203V194.273H59.7951V203H58.4542ZM59.136 192.818C58.8747 192.818 58.6493 192.729 58.4599 192.551C58.2743 192.373 58.1815 192.159 58.1815 191.909C58.1815 191.659 58.2743 191.445 58.4599 191.267C58.6493 191.089 58.8747 191 59.136 191C59.3974 191 59.6209 191.089 59.8065 191.267C59.9959 191.445 60.0906 191.659 60.0906 191.909C60.0906 192.159 59.9959 192.373 59.8065 192.551C59.6209 192.729 59.3974 192.818 59.136 192.818ZM63.288 197.75V203H61.9471V194.273H63.2425V195.636H63.3562C63.5607 195.193 63.8713 194.837 64.288 194.568C64.7047 194.295 65.2425 194.159 65.9016 194.159C66.4925 194.159 67.0096 194.28 67.4528 194.523C67.8959 194.761 68.2406 195.125 68.4869 195.614C68.7331 196.098 68.8562 196.712 68.8562 197.455V203H67.5153V197.545C67.5153 196.86 67.3372 196.326 66.9812 195.943C66.6251 195.557 66.1365 195.364 65.5153 195.364C65.0872 195.364 64.7047 195.456 64.3675 195.642C64.0342 195.828 63.7709 196.098 63.5778 196.455C63.3846 196.811 63.288 197.242 63.288 197.75ZM73.5706 203.205C73.0176 203.205 72.5157 203.1 72.065 202.892C71.6142 202.68 71.2562 202.375 70.9911 201.977C70.7259 201.576 70.5934 201.091 70.5934 200.523C70.5934 200.023 70.6919 199.617 70.8888 199.307C71.0858 198.992 71.3491 198.746 71.6786 198.568C72.0081 198.39 72.3718 198.258 72.7695 198.17C73.171 198.08 73.5744 198.008 73.9797 197.955C74.51 197.886 74.94 197.835 75.2695 197.801C75.6028 197.763 75.8453 197.701 75.9968 197.614C76.1521 197.527 76.2297 197.375 76.2297 197.159V197.114C76.2297 196.553 76.0763 196.117 75.7695 195.807C75.4665 195.496 75.0062 195.341 74.3888 195.341C73.7487 195.341 73.2468 195.481 72.8831 195.761C72.5195 196.042 72.2638 196.341 72.1161 196.659L70.8434 196.205C71.0706 195.674 71.3737 195.261 71.7525 194.966C72.135 194.667 72.5517 194.458 73.0025 194.341C73.457 194.22 73.904 194.159 74.3434 194.159C74.6237 194.159 74.9456 194.193 75.3093 194.261C75.6767 194.326 76.0309 194.46 76.3718 194.665C76.7165 194.869 77.0025 195.178 77.2297 195.591C77.457 196.004 77.5706 196.557 77.5706 197.25V203H76.2297V201.818H76.1616C76.0706 202.008 75.9191 202.21 75.707 202.426C75.4949 202.642 75.2127 202.826 74.8604 202.977C74.5081 203.129 74.0782 203.205 73.5706 203.205ZM73.7752 202C74.3055 202 74.7525 201.896 75.1161 201.688C75.4835 201.479 75.76 201.21 75.9456 200.881C76.135 200.551 76.2297 200.205 76.2297 199.841V198.614C76.1729 198.682 76.0479 198.744 75.8547 198.801C75.6653 198.854 75.4456 198.902 75.1956 198.943C74.9494 198.981 74.7089 199.015 74.4741 199.045C74.243 199.072 74.0555 199.095 73.9116 199.114C73.5631 199.159 73.2373 199.233 72.9343 199.335C72.635 199.434 72.3926 199.583 72.207 199.784C72.0252 199.981 71.9343 200.25 71.9343 200.591C71.9343 201.057 72.1066 201.409 72.4513 201.648C72.7998 201.883 73.2411 202 73.7752 202ZM81.055 197.75V203H79.7141V194.273H81.0095V195.636H81.1232C81.3277 195.193 81.6383 194.837 82.055 194.568C82.4717 194.295 83.0095 194.159 83.6686 194.159C84.2595 194.159 84.7766 194.28 85.2198 194.523C85.6629 194.761 86.0076 195.125 86.2539 195.614C86.5001 196.098 86.6232 196.712 86.6232 197.455V203H85.2823V197.545C85.2823 196.86 85.1042 196.326 84.7482 195.943C84.3921 195.557 83.9035 195.364 83.2823 195.364C82.8542 195.364 82.4717 195.456 82.1345 195.642C81.8012 195.828 81.5379 196.098 81.3448 196.455C81.1516 196.811 81.055 197.242 81.055 197.75ZM92.3149 203.182C91.4967 203.182 90.7922 202.989 90.2013 202.602C89.6104 202.216 89.1558 201.684 88.8376 201.006C88.5195 200.328 88.3604 199.553 88.3604 198.682C88.3604 197.795 88.5232 197.013 88.849 196.335C89.1786 195.653 89.6369 195.121 90.224 194.739C90.8149 194.352 91.5043 194.159 92.2922 194.159C92.9058 194.159 93.4589 194.273 93.9513 194.5C94.4437 194.727 94.8471 195.045 95.1615 195.455C95.4759 195.864 95.671 196.341 95.7467 196.886H94.4058C94.3036 196.489 94.0763 196.136 93.724 195.83C93.3755 195.519 92.9058 195.364 92.3149 195.364C91.7922 195.364 91.3339 195.5 90.9399 195.773C90.5498 196.042 90.2448 196.422 90.0251 196.915C89.8092 197.403 89.7013 197.977 89.7013 198.636C89.7013 199.311 89.8073 199.898 90.0195 200.398C90.2354 200.898 90.5384 201.286 90.9286 201.562C91.3225 201.839 91.7846 201.977 92.3149 201.977C92.6634 201.977 92.9797 201.917 93.2638 201.795C93.5479 201.674 93.7884 201.5 93.9854 201.273C94.1823 201.045 94.3225 200.773 94.4058 200.455H95.7467C95.671 200.97 95.4835 201.434 95.1842 201.847C94.8888 202.256 94.4967 202.581 94.0081 202.824C93.5232 203.062 92.9589 203.182 92.3149 203.182ZM97.403 203V194.273H98.7439V203H97.403ZM98.0848 192.818C97.8234 192.818 97.598 192.729 97.4086 192.551C97.223 192.373 97.1302 192.159 97.1302 191.909C97.1302 191.659 97.223 191.445 97.4086 191.267C97.598 191.089 97.8234 191 98.0848 191C98.3461 191 98.5696 191.089 98.7552 191.267C98.9446 191.445 99.0393 191.659 99.0393 191.909C99.0393 192.159 98.9446 192.373 98.7552 192.551C98.5696 192.729 98.3461 192.818 98.0848 192.818ZM103.464 203.205C102.911 203.205 102.409 203.1 101.958 202.892C101.508 202.68 101.15 202.375 100.884 201.977C100.619 201.576 100.487 201.091 100.487 200.523C100.487 200.023 100.585 199.617 100.782 199.307C100.979 198.992 101.242 198.746 101.572 198.568C101.902 198.39 102.265 198.258 102.663 198.17C103.064 198.08 103.468 198.008 103.873 197.955C104.403 197.886 104.833 197.835 105.163 197.801C105.496 197.763 105.739 197.701 105.89 197.614C106.045 197.527 106.123 197.375 106.123 197.159V197.114C106.123 196.553 105.97 196.117 105.663 195.807C105.36 195.496 104.9 195.341 104.282 195.341C103.642 195.341 103.14 195.481 102.777 195.761C102.413 196.042 102.157 196.341 102.009 196.659L100.737 196.205C100.964 195.674 101.267 195.261 101.646 194.966C102.028 194.667 102.445 194.458 102.896 194.341C103.35 194.22 103.797 194.159 104.237 194.159C104.517 194.159 104.839 194.193 105.203 194.261C105.57 194.326 105.924 194.46 106.265 194.665C106.61 194.869 106.896 195.178 107.123 195.591C107.35 196.004 107.464 196.557 107.464 197.25V203H106.123V201.818H106.055C105.964 202.008 105.813 202.21 105.6 202.426C105.388 202.642 105.106 202.826 104.754 202.977C104.402 203.129 103.972 203.205 103.464 203.205ZM103.669 202C104.199 202 104.646 201.896 105.009 201.688C105.377 201.479 105.653 201.21 105.839 200.881C106.028 200.551 106.123 200.205 106.123 199.841V198.614C106.066 198.682 105.941 198.744 105.748 198.801C105.559 198.854 105.339 198.902 105.089 198.943C104.843 198.981 104.602 199.015 104.367 199.045C104.136 199.072 103.949 199.095 103.805 199.114C103.456 199.159 103.131 199.233 102.828 199.335C102.528 199.434 102.286 199.583 102.1 199.784C101.919 199.981 101.828 200.25 101.828 200.591C101.828 201.057 102 201.409 102.345 201.648C102.693 201.883 103.134 202 103.669 202ZM110.948 191.364V203H109.607V191.364H110.948ZM114.441 191.364V203H113.1V191.364H114.441ZM117.457 206.273C117.23 206.273 117.027 206.254 116.849 206.216C116.671 206.182 116.548 206.148 116.48 206.114L116.82 204.932C117.146 205.015 117.434 205.045 117.684 205.023C117.934 205 118.156 204.888 118.349 204.688C118.546 204.491 118.726 204.17 118.889 203.727L119.139 203.045L115.911 194.273H117.366L119.775 201.227H119.866L122.275 194.273H123.73L120.025 204.273C119.858 204.723 119.652 205.097 119.406 205.392C119.159 205.691 118.874 205.913 118.548 206.057C118.226 206.201 117.862 206.273 117.457 206.273ZM130.732 191.364V203H129.391V191.364H130.732ZM132.884 203V194.273H134.225V203H132.884ZM133.566 192.818C133.305 192.818 133.079 192.729 132.89 192.551C132.704 192.373 132.612 192.159 132.612 191.909C132.612 191.659 132.704 191.445 132.89 191.267C133.079 191.089 133.305 191 133.566 191C133.828 191 134.051 191.089 134.237 191.267C134.426 191.445 134.521 191.659 134.521 191.909C134.521 192.159 134.426 192.373 134.237 192.551C134.051 192.729 133.828 192.818 133.566 192.818ZM140.173 194.273V195.409H135.65V194.273H140.173ZM136.968 192.182H138.309V200.5C138.309 200.879 138.364 201.163 138.474 201.352C138.587 201.538 138.731 201.663 138.906 201.727C139.084 201.788 139.271 201.818 139.468 201.818C139.616 201.818 139.737 201.811 139.832 201.795C139.926 201.777 140.002 201.761 140.059 201.75L140.332 202.955C140.241 202.989 140.114 203.023 139.951 203.057C139.788 203.095 139.582 203.114 139.332 203.114C138.953 203.114 138.582 203.032 138.218 202.869C137.858 202.706 137.559 202.458 137.32 202.125C137.086 201.792 136.968 201.371 136.968 200.864V192.182ZM145.451 203.182C144.61 203.182 143.885 202.996 143.275 202.625C142.669 202.25 142.201 201.727 141.872 201.057C141.546 200.383 141.383 199.598 141.383 198.705C141.383 197.811 141.546 197.023 141.872 196.341C142.201 195.655 142.659 195.121 143.247 194.739C143.837 194.352 144.527 194.159 145.315 194.159C145.769 194.159 146.218 194.235 146.661 194.386C147.104 194.538 147.508 194.784 147.872 195.125C148.235 195.462 148.525 195.909 148.741 196.466C148.957 197.023 149.065 197.708 149.065 198.523V199.091H142.337V197.932H147.701C147.701 197.439 147.603 197 147.406 196.614C147.212 196.227 146.936 195.922 146.576 195.699C146.22 195.475 145.8 195.364 145.315 195.364C144.781 195.364 144.318 195.496 143.928 195.761C143.542 196.023 143.245 196.364 143.036 196.784C142.828 197.205 142.724 197.655 142.724 198.136V198.909C142.724 199.568 142.837 200.127 143.065 200.585C143.296 201.04 143.616 201.386 144.025 201.625C144.434 201.86 144.909 201.977 145.451 201.977C145.803 201.977 146.122 201.928 146.406 201.83C146.693 201.727 146.942 201.576 147.15 201.375C147.358 201.17 147.519 200.917 147.633 200.614L148.928 200.977C148.792 201.417 148.563 201.803 148.241 202.136C147.919 202.466 147.521 202.723 147.048 202.909C146.574 203.091 146.042 203.182 145.451 203.182ZM150.8 203V194.273H152.096V195.591H152.187C152.346 195.159 152.634 194.809 153.05 194.54C153.467 194.271 153.937 194.136 154.46 194.136C154.558 194.136 154.681 194.138 154.829 194.142C154.977 194.146 155.088 194.152 155.164 194.159V195.523C155.119 195.511 155.014 195.494 154.852 195.472C154.693 195.445 154.524 195.432 154.346 195.432C153.922 195.432 153.543 195.521 153.21 195.699C152.88 195.873 152.619 196.116 152.425 196.426C152.236 196.733 152.141 197.083 152.141 197.477V203H150.8ZM159.018 203.205C158.465 203.205 157.963 203.1 157.512 202.892C157.061 202.68 156.703 202.375 156.438 201.977C156.173 201.576 156.04 201.091 156.04 200.523C156.04 200.023 156.139 199.617 156.336 199.307C156.533 198.992 156.796 198.746 157.126 198.568C157.455 198.39 157.819 198.258 158.217 198.17C158.618 198.08 159.022 198.008 159.427 197.955C159.957 197.886 160.387 197.835 160.717 197.801C161.05 197.763 161.292 197.701 161.444 197.614C161.599 197.527 161.677 197.375 161.677 197.159V197.114C161.677 196.553 161.523 196.117 161.217 195.807C160.914 195.496 160.453 195.341 159.836 195.341C159.196 195.341 158.694 195.481 158.33 195.761C157.967 196.042 157.711 196.341 157.563 196.659L156.29 196.205C156.518 195.674 156.821 195.261 157.2 194.966C157.582 194.667 157.999 194.458 158.45 194.341C158.904 194.22 159.351 194.159 159.79 194.159C160.071 194.159 160.393 194.193 160.756 194.261C161.124 194.326 161.478 194.46 161.819 194.665C162.164 194.869 162.45 195.178 162.677 195.591C162.904 196.004 163.018 196.557 163.018 197.25V203H161.677V201.818H161.609C161.518 202.008 161.366 202.21 161.154 202.426C160.942 202.642 160.66 202.826 160.308 202.977C159.955 203.129 159.525 203.205 159.018 203.205ZM159.222 202C159.753 202 160.2 201.896 160.563 201.688C160.931 201.479 161.207 201.21 161.393 200.881C161.582 200.551 161.677 200.205 161.677 199.841V198.614C161.62 198.682 161.495 198.744 161.302 198.801C161.112 198.854 160.893 198.902 160.643 198.943C160.397 198.981 160.156 199.015 159.921 199.045C159.69 199.072 159.503 199.095 159.359 199.114C159.01 199.159 158.684 199.233 158.381 199.335C158.082 199.434 157.84 199.583 157.654 199.784C157.472 199.981 157.381 200.25 157.381 200.591C157.381 201.057 157.554 201.409 157.898 201.648C158.247 201.883 158.688 202 159.222 202ZM168.957 194.273V195.409H164.434V194.273H168.957ZM165.752 192.182H167.093V200.5C167.093 200.879 167.148 201.163 167.258 201.352C167.371 201.538 167.515 201.663 167.69 201.727C167.868 201.788 168.055 201.818 168.252 201.818C168.4 201.818 168.521 201.811 168.616 201.795C168.71 201.777 168.786 201.761 168.843 201.75L169.116 202.955C169.025 202.989 168.898 203.023 168.735 203.057C168.572 203.095 168.366 203.114 168.116 203.114C167.737 203.114 167.366 203.032 167.002 202.869C166.642 202.706 166.343 202.458 166.104 202.125C165.87 201.792 165.752 201.371 165.752 200.864V192.182ZM174.235 203.182C173.394 203.182 172.669 202.996 172.059 202.625C171.453 202.25 170.985 201.727 170.656 201.057C170.33 200.383 170.167 199.598 170.167 198.705C170.167 197.811 170.33 197.023 170.656 196.341C170.985 195.655 171.443 195.121 172.031 194.739C172.621 194.352 173.311 194.159 174.099 194.159C174.553 194.159 175.002 194.235 175.445 194.386C175.888 194.538 176.292 194.784 176.656 195.125C177.019 195.462 177.309 195.909 177.525 196.466C177.741 197.023 177.849 197.708 177.849 198.523V199.091H171.121V197.932H176.485C176.485 197.439 176.387 197 176.19 196.614C175.996 196.227 175.72 195.922 175.36 195.699C175.004 195.475 174.584 195.364 174.099 195.364C173.565 195.364 173.102 195.496 172.712 195.761C172.326 196.023 172.029 196.364 171.82 196.784C171.612 197.205 171.508 197.655 171.508 198.136V198.909C171.508 199.568 171.621 200.127 171.849 200.585C172.08 201.04 172.4 201.386 172.809 201.625C173.218 201.86 173.693 201.977 174.235 201.977C174.587 201.977 174.906 201.928 175.19 201.83C175.477 201.727 175.726 201.576 175.934 201.375C176.142 201.17 176.303 200.917 176.417 200.614L177.712 200.977C177.576 201.417 177.347 201.803 177.025 202.136C176.703 202.466 176.305 202.723 175.832 202.909C175.358 203.091 174.826 203.182 174.235 203.182ZM186.349 203.205C185.796 203.205 185.294 203.1 184.843 202.892C184.392 202.68 184.034 202.375 183.769 201.977C183.504 201.576 183.371 201.091 183.371 200.523C183.371 200.023 183.47 199.617 183.667 199.307C183.864 198.992 184.127 198.746 184.457 198.568C184.786 198.39 185.15 198.258 185.548 198.17C185.949 198.08 186.352 198.008 186.758 197.955C187.288 197.886 187.718 197.835 188.048 197.801C188.381 197.763 188.623 197.701 188.775 197.614C188.93 197.527 189.008 197.375 189.008 197.159V197.114C189.008 196.553 188.854 196.117 188.548 195.807C188.244 195.496 187.784 195.341 187.167 195.341C186.527 195.341 186.025 195.481 185.661 195.761C185.298 196.042 185.042 196.341 184.894 196.659L183.621 196.205C183.849 195.674 184.152 195.261 184.53 194.966C184.913 194.667 185.33 194.458 185.78 194.341C186.235 194.22 186.682 194.159 187.121 194.159C187.402 194.159 187.724 194.193 188.087 194.261C188.455 194.326 188.809 194.46 189.15 194.665C189.494 194.869 189.78 195.178 190.008 195.591C190.235 196.004 190.349 196.557 190.349 197.25V203H189.008V201.818H188.94C188.849 202.008 188.697 202.21 188.485 202.426C188.273 202.642 187.991 202.826 187.638 202.977C187.286 203.129 186.856 203.205 186.349 203.205ZM186.553 202C187.083 202 187.53 201.896 187.894 201.688C188.262 201.479 188.538 201.21 188.724 200.881C188.913 200.551 189.008 200.205 189.008 199.841V198.614C188.951 198.682 188.826 198.744 188.633 198.801C188.443 198.854 188.224 198.902 187.974 198.943C187.727 198.981 187.487 199.015 187.252 199.045C187.021 199.072 186.833 199.095 186.69 199.114C186.341 199.159 186.015 199.233 185.712 199.335C185.413 199.434 185.171 199.583 184.985 199.784C184.803 199.981 184.712 200.25 184.712 200.591C184.712 201.057 184.885 201.409 185.229 201.648C185.578 201.883 186.019 202 186.553 202ZM195.788 203.182C195.06 203.182 194.418 202.998 193.861 202.631C193.305 202.259 192.869 201.737 192.555 201.062C192.24 200.384 192.083 199.583 192.083 198.659C192.083 197.742 192.24 196.947 192.555 196.273C192.869 195.598 193.306 195.078 193.867 194.71C194.428 194.343 195.075 194.159 195.81 194.159C196.378 194.159 196.827 194.254 197.157 194.443C197.49 194.629 197.744 194.841 197.918 195.08C198.096 195.314 198.234 195.508 198.333 195.659H198.447V191.364H199.788V203H198.492V201.659H198.333C198.234 201.818 198.094 202.019 197.913 202.261C197.731 202.5 197.471 202.714 197.134 202.903C196.797 203.089 196.348 203.182 195.788 203.182ZM195.969 201.977C196.507 201.977 196.962 201.837 197.333 201.557C197.704 201.273 197.986 200.881 198.18 200.381C198.373 199.877 198.469 199.295 198.469 198.636C198.469 197.985 198.375 197.415 198.185 196.926C197.996 196.434 197.716 196.051 197.344 195.778C196.973 195.502 196.515 195.364 195.969 195.364C195.401 195.364 194.928 195.509 194.549 195.801C194.174 196.089 193.892 196.481 193.702 196.977C193.517 197.47 193.424 198.023 193.424 198.636C193.424 199.258 193.519 199.822 193.708 200.33C193.901 200.833 194.185 201.235 194.56 201.534C194.939 201.83 195.409 201.977 195.969 201.977ZM207.626 199.432V194.273H208.966V203H207.626V201.523H207.535C207.33 201.966 207.012 202.343 206.58 202.653C206.148 202.96 205.603 203.114 204.944 203.114C204.398 203.114 203.913 202.994 203.489 202.756C203.065 202.513 202.732 202.15 202.489 201.665C202.247 201.176 202.126 200.561 202.126 199.818V194.273H203.466V199.727C203.466 200.364 203.645 200.871 204.001 201.25C204.36 201.629 204.819 201.818 205.376 201.818C205.709 201.818 206.048 201.733 206.393 201.562C206.741 201.392 207.033 201.131 207.268 200.778C207.506 200.426 207.626 199.977 207.626 199.432ZM212.459 191.364V203H211.118V191.364H212.459ZM218.407 194.273V195.409H213.884V194.273H218.407ZM215.202 192.182H216.543V200.5C216.543 200.879 216.598 201.163 216.708 201.352C216.822 201.538 216.966 201.663 217.14 201.727C217.318 201.788 217.505 201.818 217.702 201.818C217.85 201.818 217.971 201.811 218.066 201.795C218.161 201.777 218.236 201.761 218.293 201.75L218.566 202.955C218.475 202.989 218.348 203.023 218.185 203.057C218.022 203.095 217.816 203.114 217.566 203.114C217.187 203.114 216.816 203.032 216.452 202.869C216.092 202.706 215.793 202.458 215.555 202.125C215.32 201.792 215.202 201.371 215.202 200.864V192.182ZM226.145 196.227L224.941 196.568C224.865 196.367 224.753 196.172 224.606 195.983C224.462 195.79 224.265 195.631 224.015 195.506C223.765 195.381 223.445 195.318 223.054 195.318C222.52 195.318 222.075 195.441 221.719 195.688C221.367 195.93 221.191 196.239 221.191 196.614C221.191 196.947 221.312 197.21 221.554 197.403C221.797 197.597 222.176 197.758 222.691 197.886L223.986 198.205C224.767 198.394 225.348 198.684 225.731 199.074C226.113 199.46 226.304 199.958 226.304 200.568C226.304 201.068 226.161 201.515 225.873 201.909C225.589 202.303 225.191 202.614 224.679 202.841C224.168 203.068 223.573 203.182 222.895 203.182C222.005 203.182 221.268 202.989 220.685 202.602C220.102 202.216 219.733 201.652 219.577 200.909L220.85 200.591C220.971 201.061 221.2 201.413 221.537 201.648C221.878 201.883 222.323 202 222.873 202C223.498 202 223.994 201.867 224.361 201.602C224.733 201.333 224.918 201.011 224.918 200.636C224.918 200.333 224.812 200.08 224.6 199.875C224.388 199.667 224.062 199.511 223.623 199.409L222.168 199.068C221.369 198.879 220.782 198.585 220.407 198.188C220.036 197.786 219.85 197.284 219.85 196.682C219.85 196.189 219.988 195.754 220.265 195.375C220.545 194.996 220.926 194.699 221.407 194.483C221.892 194.267 222.441 194.159 223.054 194.159C223.918 194.159 224.596 194.348 225.089 194.727C225.585 195.106 225.937 195.606 226.145 196.227ZM232.215 203V194.273H233.556V203H232.215ZM232.897 192.818C232.635 192.818 232.41 192.729 232.221 192.551C232.035 192.373 231.942 192.159 231.942 191.909C231.942 191.659 232.035 191.445 232.221 191.267C232.41 191.089 232.635 191 232.897 191C233.158 191 233.382 191.089 233.567 191.267C233.757 191.445 233.851 191.659 233.851 191.909C233.851 192.159 233.757 192.373 233.567 192.551C233.382 192.729 233.158 192.818 232.897 192.818ZM237.049 197.75V203H235.708V194.273H237.003V195.636H237.117C237.321 195.193 237.632 194.837 238.049 194.568C238.465 194.295 239.003 194.159 239.662 194.159C240.253 194.159 240.77 194.28 241.214 194.523C241.657 194.761 242.001 195.125 242.248 195.614C242.494 196.098 242.617 196.712 242.617 197.455V203H241.276V197.545C241.276 196.86 241.098 196.326 240.742 195.943C240.386 195.557 239.897 195.364 239.276 195.364C238.848 195.364 238.465 195.456 238.128 195.642C237.795 195.828 237.532 196.098 237.339 196.455C237.145 196.811 237.049 197.242 237.049 197.75ZM250.55 191.364V203H249.141V191.364H250.55ZM254.231 197.75V203H252.89V194.273H254.185V195.636H254.299C254.503 195.193 254.814 194.837 255.231 194.568C255.647 194.295 256.185 194.159 256.844 194.159C257.435 194.159 257.952 194.28 258.395 194.523C258.838 194.761 259.183 195.125 259.429 195.614C259.676 196.098 259.799 196.712 259.799 197.455V203H258.458V197.545C258.458 196.86 258.28 196.326 257.924 195.943C257.568 195.557 257.079 195.364 256.458 195.364C256.03 195.364 255.647 195.456 255.31 195.642C254.977 195.828 254.713 196.098 254.52 196.455C254.327 196.811 254.231 197.242 254.231 197.75ZM265.24 203.182C264.513 203.182 263.871 202.998 263.314 202.631C262.757 202.259 262.322 201.737 262.007 201.062C261.693 200.384 261.536 199.583 261.536 198.659C261.536 197.742 261.693 196.947 262.007 196.273C262.322 195.598 262.759 195.078 263.32 194.71C263.881 194.343 264.528 194.159 265.263 194.159C265.831 194.159 266.28 194.254 266.61 194.443C266.943 194.629 267.197 194.841 267.371 195.08C267.549 195.314 267.687 195.508 267.786 195.659H267.9V191.364H269.24V203H267.945V201.659H267.786C267.687 201.818 267.547 202.019 267.365 202.261C267.184 202.5 266.924 202.714 266.587 202.903C266.25 203.089 265.801 203.182 265.24 203.182ZM265.422 201.977C265.96 201.977 266.415 201.837 266.786 201.557C267.157 201.273 267.439 200.881 267.632 200.381C267.826 199.877 267.922 199.295 267.922 198.636C267.922 197.985 267.828 197.415 267.638 196.926C267.449 196.434 267.168 196.051 266.797 195.778C266.426 195.502 265.968 195.364 265.422 195.364C264.854 195.364 264.381 195.509 264.002 195.801C263.627 196.089 263.345 196.481 263.155 196.977C262.97 197.47 262.877 198.023 262.877 198.636C262.877 199.258 262.971 199.822 263.161 200.33C263.354 200.833 263.638 201.235 264.013 201.534C264.392 201.83 264.862 201.977 265.422 201.977ZM271.578 203V194.273H272.919V203H271.578ZM272.26 192.818C271.999 192.818 271.774 192.729 271.584 192.551C271.399 192.373 271.306 192.159 271.306 191.909C271.306 191.659 271.399 191.445 271.584 191.267C271.774 191.089 271.999 191 272.26 191C272.522 191 272.745 191.089 272.931 191.267C273.12 191.445 273.215 191.659 273.215 191.909C273.215 192.159 273.12 192.373 272.931 192.551C272.745 192.729 272.522 192.818 272.26 192.818ZM277.64 203.205C277.086 203.205 276.585 203.1 276.134 202.892C275.683 202.68 275.325 202.375 275.06 201.977C274.795 201.576 274.662 201.091 274.662 200.523C274.662 200.023 274.761 199.617 274.958 199.307C275.155 198.992 275.418 198.746 275.747 198.568C276.077 198.39 276.441 198.258 276.838 198.17C277.24 198.08 277.643 198.008 278.049 197.955C278.579 197.886 279.009 197.835 279.338 197.801C279.672 197.763 279.914 197.701 280.066 197.614C280.221 197.527 280.299 197.375 280.299 197.159V197.114C280.299 196.553 280.145 196.117 279.838 195.807C279.535 195.496 279.075 195.341 278.458 195.341C277.818 195.341 277.316 195.481 276.952 195.761C276.588 196.042 276.333 196.341 276.185 196.659L274.912 196.205C275.14 195.674 275.443 195.261 275.821 194.966C276.204 194.667 276.621 194.458 277.071 194.341C277.526 194.22 277.973 194.159 278.412 194.159C278.693 194.159 279.015 194.193 279.378 194.261C279.746 194.326 280.1 194.46 280.441 194.665C280.785 194.869 281.071 195.178 281.299 195.591C281.526 196.004 281.64 196.557 281.64 197.25V203H280.299V201.818H280.23C280.14 202.008 279.988 202.21 279.776 202.426C279.564 202.642 279.282 202.826 278.929 202.977C278.577 203.129 278.147 203.205 277.64 203.205ZM277.844 202C278.374 202 278.821 201.896 279.185 201.688C279.552 201.479 279.829 201.21 280.015 200.881C280.204 200.551 280.299 200.205 280.299 199.841V198.614C280.242 198.682 280.117 198.744 279.924 198.801C279.734 198.854 279.515 198.902 279.265 198.943C279.018 198.981 278.778 199.015 278.543 199.045C278.312 199.072 278.124 199.095 277.98 199.114C277.632 199.159 277.306 199.233 277.003 199.335C276.704 199.434 276.461 199.583 276.276 199.784C276.094 199.981 276.003 200.25 276.003 200.591C276.003 201.057 276.175 201.409 276.52 201.648C276.869 201.883 277.31 202 277.844 202Z" fill="#035276"/>
</g>
<defs>
<filter id="filter0_d_325_569" x="0.9" y="0.9" width="341.2" height="283.2" filterUnits="userSpaceOnUse" color-interpolation-filters="sRGB">
<feFlood flood-opacity="0" result="BackgroundImageFix"/>
<feColorMatrix in="SourceAlpha" type="matrix" values="0 0 0 0 0 0 0 0 0 0 0 0 0 0 0 0 0 0 127 0" result="hardAlpha"/>
<feOffset dx="6" dy="4"/>
<feGaussianBlur stdDeviation="11.05"/>
<feComposite in2="hardAlpha" operator="out"/>
<feColorMatrix type="matrix" values="0 0 0 0 0.898039 0 0 0 0 1 0 0 0 0 0.972549 0 0 0 1 0"/>
<feBlend mode="normal" in2="BackgroundImageFix" result="effect1_dropShadow_325_569"/>
<feBlend mode="normal" in="SourceGraphic" in2="effect1_dropShadow_325_569" result="shape"/>
</filter>
</defs>
</svg>
