<svg width="130" height="125" viewBox="0 0 130 125" fill="none" xmlns="http://www.w3.org/2000/svg">
<path d="M0.46327 25.5002C-0.0338512 26.0267 0.484652 26.6094 0.348344 27.1787C0.252128 27.5796 0.169274 28.0633 0.428525 28.5364C0.634323 28.9159 0.278854 29.3783 0.449907 29.8647C0.690449 30.5463 0.524742 31.3614 1.1261 31.9361C1.19024 31.9975 1.24904 32.0724 1.2143 32.1739C1.10204 32.492 1.27042 32.7833 1.45217 32.9544C1.94929 33.4221 1.89316 34.3388 2.73239 34.5152C2.75912 34.5206 2.79119 34.6114 2.78584 34.6569C2.71903 35.1353 3.06648 35.4106 3.30702 35.7313C4.28523 37.0329 5.48527 38.1046 6.75747 39.1149C8.03769 40.1332 9.31257 41.1382 10.7932 41.8625C11.6325 42.2714 12.3461 42.8995 13.2254 43.2496C13.5247 43.3672 13.9069 43.2549 14.094 43.4367C14.8611 44.1797 15.9489 44.1236 16.8255 44.602C17.5017 44.9708 18.3196 45.1125 19.092 45.2648C20.3374 45.508 21.5829 45.7192 22.8819 45.6844C23.7638 45.663 24.6645 45.8822 25.5706 45.8287C25.8004 45.8154 26.033 45.7833 26.2601 45.8047C27.5965 45.9356 28.8874 45.6737 30.173 45.3664C30.7529 45.2301 31.2394 44.8372 31.7686 44.6608C32.5891 44.3882 33.2359 43.8242 34.0404 43.5463C34.2114 43.4875 34.5054 43.3485 34.5535 43.2282C34.6898 42.8861 34.9731 42.7792 35.2431 42.6643C36.6356 42.0843 37.6245 40.9671 38.6374 39.9435C39.3804 39.1951 40.0539 38.3398 40.674 37.4418C41.5373 36.1937 42.2028 34.8653 42.911 33.5424C43.3948 32.6363 43.7984 31.6955 44.2367 30.7681C44.9263 29.3195 45.5036 27.8255 46.0942 26.3341C46.5459 25.1955 46.8159 24.0062 47.1045 22.8168C47.3531 21.7985 47.3745 20.7615 47.5215 19.7352C47.5321 19.6657 47.5428 19.5508 47.5054 19.5267C47.174 19.3102 47.3851 19.0697 47.4573 18.8318C47.4947 18.7142 47.5669 18.5779 47.5402 18.471C47.3424 17.6398 47.4199 16.7819 47.2622 15.9533C47.2114 15.6834 47.3825 15.229 46.8025 15.3012C46.6983 15.3119 46.7464 15.1702 46.7758 15.0847C46.9361 14.6517 46.5833 14.2829 46.3829 14.1225C46.1103 13.9087 46.2519 13.3608 45.7575 13.4009C45.7735 13.3795 45.7842 13.3555 45.8029 13.3341C46.121 12.9973 45.7334 12.7621 45.5918 12.7167C44.9557 12.5189 45.1561 11.8614 44.8568 11.4766C44.675 11.2414 44.6216 11.065 44.3115 11.2093C43.8839 11.4044 43.7316 11.073 43.7209 10.7897C43.7102 10.5064 43.4964 10.3246 43.4723 10.1509C43.4135 9.72862 43.2585 9.47204 42.8897 9.29831C42.8656 9.28495 42.9057 9.12993 42.9217 9.04174C42.9378 8.94552 42.9244 8.82257 42.8416 8.80654C42.3845 8.71299 42.2028 8.23993 41.8019 8.07689C41.556 7.97533 41.262 7.91386 41.5212 7.52899C41.6201 7.38199 41.433 7.2243 41.3208 7.1949C40.8664 7.08532 40.6874 6.64165 40.3212 6.4118C39.5648 5.93873 38.9849 5.22245 38.1617 4.8162C37.9933 4.73335 37.7367 4.89371 37.6325 4.59169C37.4908 4.18812 37.0605 4.08655 36.7238 3.92887C36.2667 3.71505 35.7669 3.61081 35.3874 3.2206C35.2083 3.03618 34.9518 2.92928 34.6043 3.00946C34.313 3.07895 33.7838 3.37562 33.7009 2.66468C33.6822 2.52035 33.4871 2.64062 33.3695 2.64864C33.1851 2.65933 32.8911 2.76624 32.859 2.52303C32.8136 2.1729 32.7815 1.98047 32.3886 2.21032C32.2978 2.26377 32.1989 2.20498 32.1935 2.09539C32.1828 1.8602 31.9797 1.90029 31.8514 1.82545C31.2715 1.47533 30.5899 1.63035 29.9645 1.42455C29.4353 1.25082 28.8767 1.18668 28.5159 0.732319C28.3502 0.521176 28.1551 0.37685 27.9413 0.422286C27.4415 0.529194 26.9764 0.58532 26.5568 0.216488C26.5274 0.187089 26.4392 0.189762 26.3991 0.211143C25.8325 0.539885 25.3675 0.133635 24.865 0C23.852 0 22.8391 0 21.8261 0C21.7727 0.0454364 21.7192 0.128289 21.6604 0.133635C20.6234 0.203125 19.8136 0.890008 18.8407 1.15193C18.2501 1.31229 17.7476 1.82011 17.1997 1.99918C15.8874 2.42414 14.8691 3.30613 13.7038 3.95025C13.041 4.31373 12.5118 4.87767 11.9051 5.31332C10.6222 6.2354 9.50768 7.32586 8.43593 8.46978C7.84526 9.09786 7.23054 9.70189 6.64255 10.3273C6.05455 10.9527 5.43181 11.5541 4.91598 12.2356C4.15159 13.2512 3.48876 14.3444 2.74041 15.3707C2.51056 15.6834 2.59074 16.0816 2.34218 16.3516C1.64193 17.1186 1.74082 18.2037 1.25706 19.0697C1.05661 19.4305 1.03523 19.9223 0.890902 20.3499C0.594233 21.2319 0.377744 22.1353 0.495343 23.0868C0.532761 23.3941 0.615615 23.8324 0.455252 24.0008C0.0890927 24.3937 0.281527 24.7305 0.375071 25.0993C0.412489 25.2356 0.567506 25.3906 0.46327 25.5002ZM5.42112 21.868C5.26076 19.9597 5.65899 18.1129 6.2069 16.3141C6.5196 15.2932 7.26261 14.4753 8.00562 13.7243C8.44662 13.278 8.78872 12.7461 9.30188 12.3639C9.90324 11.9176 10.4378 11.3803 11.0044 10.8886C12.1777 9.87294 13.482 9.03906 14.7435 8.15173C15.115 7.89248 15.4598 7.59313 15.9622 7.4595C16.3605 7.35526 16.6625 7.05592 17.1195 7.30715C17.3066 7.41139 17.4509 7.16016 17.5418 7.03454C18.1325 6.21669 18.9664 6.08573 19.8858 6.12582C21.3718 6.18997 22.8631 6.22739 24.3518 6.30757C24.7741 6.32895 25.1911 6.52138 25.608 6.51604C26.8 6.50802 27.9065 6.89823 29.0424 7.15214C29.1734 7.18154 29.2883 7.16817 29.4113 7.13076C29.5689 7.07998 29.7534 7.04523 29.8897 7.13343C31.0951 7.91653 32.5116 8.21587 33.7918 8.83059C35.5451 9.67249 37.0525 10.8699 38.2793 12.3265C39.6904 13.9996 41.1417 15.6727 42.1253 17.6692C42.2349 17.891 42.4353 18.0648 42.5877 18.2652C42.8603 18.6234 43.0206 18.9147 42.8255 19.4599C42.6411 19.9731 42.7373 20.6412 42.9057 21.2266C42.9832 21.5019 43.0901 21.7424 42.8683 22.0337C42.6251 22.3464 42.7507 22.7794 42.7614 23.1269C42.7908 24.0035 42.5101 24.8053 42.3231 25.6312C42.2776 25.8289 42.2375 26.0267 42.2723 26.2165C42.307 26.4062 42.315 26.6147 42.2108 26.7377C41.8366 27.184 41.8179 27.7426 41.6469 28.2558C41.3956 29.0014 41.1952 29.7872 40.8103 30.4634C40.3773 31.2251 40.102 32.0483 39.7225 32.8287C39.3163 33.668 38.8165 34.4431 38.3434 35.2395C38.0574 35.7206 37.6271 35.9772 37.1941 36.2712C36.1972 36.9474 35.2965 37.8053 34.1633 38.2249C33.0354 38.6392 32.0733 39.3875 30.8305 39.6094C29.9698 39.7617 29.0932 39.7403 28.254 39.9408C27.5404 40.1118 26.8134 40.0023 26.1319 39.9622C25.3621 39.9194 24.5763 39.8873 23.8013 39.8072C23.5527 39.7804 23.2961 39.7484 23.0609 39.8873C23.0075 39.9194 22.8819 39.9328 22.8631 39.906C22.5397 39.4276 22.0988 39.6842 21.7005 39.7216C21.5829 39.7323 21.5081 39.7778 21.4413 39.6361C21.3157 39.3688 21.0885 39.3956 20.8453 39.4437C20.5539 39.5025 20.2519 39.2459 19.9633 39.465C19.8323 39.1791 19.5223 39.1443 19.2924 38.9947C19.1027 38.8717 18.9076 38.7889 18.6911 38.9519C18.5761 39.0401 18.4532 39.0428 18.349 38.9359C17.8545 38.4067 17.1596 38.1715 16.5208 38.126C15.8126 38.0752 15.4651 37.4552 14.8237 37.3697C14.1181 37.2734 13.6477 36.6106 12.8806 36.5224C12.6588 36.4957 12.2793 36.0921 11.9559 35.8836C11.8436 35.8088 11.7661 35.6725 11.5817 35.7901C11.4293 35.8836 11.2904 35.8329 11.3732 35.6057C11.4668 35.3411 11.2075 35.1326 11.1086 35.17C10.6436 35.3384 10.5634 34.9322 10.4217 34.7183C10.1652 34.3361 9.66269 34.2266 9.47293 33.7936C8.86623 33.962 9.03194 33.4542 8.90365 33.1708C8.7513 32.8341 8.43325 32.6042 8.20875 32.3049C7.68757 31.602 7.12631 30.9338 6.78153 30.1186C6.7254 29.9877 6.65591 29.9128 6.49555 29.9369C6.09999 29.9984 6.09197 29.7498 6.1481 29.4638C6.1775 28.9213 5.8247 28.4803 5.72047 27.9671C5.54941 27.1439 5.45854 26.3314 5.39172 25.4922C5.29283 24.2708 5.52269 23.0734 5.42112 21.868ZM129.776 118.727C129.421 118.475 129.335 118.235 129.782 117.917C129.365 118.034 128.929 117.647 128.689 117.895C128.044 118.566 127.312 118.125 126.695 118.04C126.142 117.965 125.564 118.021 125.027 117.853C124.8 117.783 124.72 118.082 124.487 117.96C124.089 117.754 124.105 118.016 124.185 118.342C123.776 117.692 123.215 118.208 122.728 118.048C123.079 118.58 123.039 118.662 122.402 118.777C122.154 118.823 121.868 118.727 121.705 119.071C121.614 118.809 121.697 118.676 121.83 118.574C122.092 118.374 121.895 118.262 121.769 118.104C121.611 117.903 121.488 117.973 121.387 118.125C121.213 118.387 121.12 118.376 121.015 118.074C120.959 117.911 120.769 117.925 120.636 117.965C120.31 118.064 119.895 117.895 119.671 118.304C119.628 118.379 119.495 118.379 119.481 118.245C119.446 117.954 119.356 117.981 119.147 118.133C118.866 118.334 118.559 118.703 118.228 118.157C118.166 118.053 117.995 118.09 117.875 118.141C117.562 118.267 117.557 118.093 117.554 117.853C117.551 117.297 117.608 116.746 117.576 116.19C117.543 115.632 117.592 115.065 117.64 114.506C117.672 114.127 117.752 113.742 117.677 113.37C117.458 112.301 117.878 111.227 117.621 110.161C118.014 109.629 117.57 109.019 117.773 108.469C117.805 108.383 117.789 108.258 117.674 108.26C117.102 108.274 117.394 107.921 117.477 107.739C117.792 107.039 117.723 106.282 117.848 105.558C117.915 105.184 117.407 105.152 117.437 104.89C117.474 104.577 117.853 104.404 117.829 103.992C117.789 103.337 117.728 102.642 117.795 102.022C117.955 100.544 117.891 99.0983 117.723 97.639C117.715 97.5695 117.693 97.4546 117.725 97.4332C118.033 97.2247 117.926 96.9307 117.915 96.6501C117.872 95.5008 117.902 94.3462 117.899 93.1996C117.894 92.1519 117.95 91.0882 117.936 90.0378C117.923 89.1746 117.872 88.2952 117.912 87.4453C117.966 86.2907 118.027 85.1308 117.958 83.9868C117.918 83.3187 118.316 82.5757 117.763 81.9502C117.733 81.9155 117.752 81.7819 117.789 81.7578C118.118 81.544 118.059 81.2019 118.011 80.9213C117.87 80.066 118.022 79.2188 118.025 78.3662C118.03 77.5563 117.947 76.7438 117.958 75.9447C117.968 75.1669 117.918 74.3812 117.982 73.59C118.131 71.6924 118.057 69.7761 118.022 67.8678C117.998 66.6303 117.88 65.3982 118 64.1581C118.027 63.8882 118.115 63.4391 117.963 63.3349C117.621 63.097 117.8 62.9126 117.904 62.7175C118.011 62.5144 118.022 62.3487 117.864 62.175C117.792 62.0975 117.69 62.0093 117.744 61.8943C118.019 61.3144 117.837 60.6916 117.91 60.0903C118.027 59.0987 118.011 58.0831 117.942 57.0861C117.899 56.4287 118.198 55.6643 117.519 55.1297C117.482 55.1003 117.498 54.9319 117.543 54.8785C118.158 54.1782 117.867 53.3337 117.915 52.5479C117.931 52.2753 118.03 51.9091 117.546 51.8503C117.415 51.8343 117.466 51.6873 117.525 51.5831C118.185 50.4204 117.76 49.1643 117.827 47.9509C117.327 47.566 118.081 46.9833 117.61 46.5958C117.87 46.1708 117.765 45.7833 117.522 45.3904C117.453 45.2808 117.565 45.1552 117.589 45.0376C117.715 44.4443 117.653 43.8536 117.45 43.2897C117.383 43.1026 117.37 42.9716 117.431 42.7845C117.685 42.0148 117.864 41.2317 117.45 40.4566C117.364 40.2963 117.351 40.1974 117.525 40.1065C117.64 40.0504 117.645 39.9408 117.618 39.8259C117.415 38.984 117.546 38.118 117.429 37.2654C117.351 36.7095 117.391 36.7042 116.803 36.7175C116.955 36.3166 117.362 35.8703 116.683 35.5923C116.669 35.587 116.667 35.5201 116.677 35.4881C116.782 35.1807 116.643 34.8734 116.6 34.5874C116.56 34.3067 116.498 33.8283 115.953 33.9352C115.734 33.978 115.603 33.9459 115.616 33.6279C115.635 33.2056 115.456 32.8528 115.015 32.6443C114.748 32.516 114.411 32.4653 114.221 32.2701C113.898 31.9361 113.558 31.7917 113.131 31.9307C112.813 32.035 112.703 31.9067 112.647 31.634C112.634 31.5646 112.618 31.4389 112.591 31.4363C111.966 31.3588 111.466 30.6692 110.741 31.0648C110.584 31.1503 110.359 31.0701 110.3 30.9498C110.127 30.5944 109.905 30.6585 109.64 30.8002C109.381 30.9391 109.135 30.9979 108.94 30.6906C108.865 30.5676 108.726 30.5703 108.601 30.565C108.205 30.5436 107.804 30.5569 107.414 30.5008C107.021 30.4447 106.628 30.7708 106.364 30.6772C105.842 30.4955 105.455 30.5062 105.105 30.9365C104.824 30.4821 104.616 30.4447 104.279 30.7815C104.092 30.9685 103.934 30.9017 103.747 30.8082C103.031 30.45 102.325 30.7708 101.62 30.8643C101.47 30.883 101.339 31.0621 101.122 31.2278C101.28 30.6745 100.986 30.6532 100.625 30.589C99.6898 30.426 98.9735 31.2519 98.0301 31.1102C97.7842 31.0728 97.6746 31.1717 97.7388 30.8616C97.8083 30.5302 97.5864 30.5917 97.3779 30.589C96.9049 30.581 96.4372 30.5489 96.1672 31.0567C96.1619 31.0674 96.079 31.038 96.0683 31.0354C95.932 30.8563 96.3436 30.7574 96.0924 30.6131C95.9427 30.5249 95.7904 30.6451 95.6434 30.7253C95.4349 30.8429 95.4135 31.1931 95.1088 31.177C94.9886 31.022 95.2505 30.7761 95.0233 30.7333C94.585 30.6558 93.9997 30.4661 93.727 30.7788C93.3742 31.1824 93.2353 30.8937 93.0134 30.7654C92.5885 30.5195 92.3132 30.6318 92.2143 31.0835C91.8134 30.6906 91.2441 30.859 90.771 30.6933C90.7443 30.6826 90.6748 30.7093 90.6748 30.72C90.6534 31.4015 90.2365 30.8884 90.0574 30.883C89.6806 30.8697 89.3545 30.9472 89.0471 31.1396C88.8333 31.2732 88.8307 31.2839 88.7451 31.0113C88.705 30.8857 88.6035 30.883 88.534 30.9124C87.954 31.169 87.1522 30.9097 86.7861 31.6688C86.7273 31.7891 86.6337 31.7998 86.5241 31.7009C86.3825 31.5726 86.2569 31.6902 86.1286 31.7463C85.5245 32.0082 85.0354 32.4546 84.5517 32.8662C83.8675 33.4461 83.2394 34.1143 82.6915 34.8226C82.1489 35.5228 81.2135 35.9611 81.1467 37.0035C81.144 37.0436 81.0398 37.081 80.9756 37.1077C80.7965 37.1879 80.7564 37.3269 80.687 37.5113C80.564 37.8507 80.6736 38.1795 80.6095 38.5136C80.4036 39.572 80.5426 40.6544 80.5774 41.7128C80.6041 42.4852 80.5694 43.2683 80.58 44.038C80.5881 44.6234 80.5694 45.206 80.6522 45.7887C80.6843 46.0025 80.7083 46.2136 80.7431 46.4248C80.858 47.1009 80.5373 47.8306 81.0023 48.4667C81.0798 48.5736 81.0772 48.7153 80.9783 48.8195C80.8259 48.9799 80.8928 49.1643 80.9141 49.3353C81.0371 50.375 81.0879 51.4174 81.128 52.4624C81.1467 52.9515 81.1573 53.4112 81.0451 53.8869C80.8286 54.817 81.3177 55.7391 81.1012 56.6799C81.0291 56.9873 80.9703 57.3 80.9863 57.6314C81.0291 58.516 80.9088 59.4274 81.0772 60.2854C81.1894 60.8573 81.0424 61.3865 81.0772 61.9344C81.1012 62.2926 81.005 62.648 81.2215 62.9848C81.3044 63.1131 81.2429 63.2333 81.1386 63.3215C81.0371 63.4097 80.9649 63.5033 80.989 63.6476C81.0825 64.2196 81.1467 64.7942 81.0825 65.3769C81.0398 65.7617 81.1547 66.2081 81.0558 66.5154C80.9195 66.935 81.1173 67.3039 81.0104 67.7208C80.9061 68.1271 81.0638 68.6482 81.013 69.14C80.8901 70.3374 80.9302 71.5481 80.9409 72.7455C80.9462 73.5874 80.8206 74.4213 80.8901 75.2632C80.9542 76.0489 81.1734 76.8213 80.9943 77.6419C80.9008 78.0615 81.3097 78.5372 81.0424 79.021C81.0157 79.0718 81.1253 79.2081 81.1841 79.2936C81.2429 79.3845 81.3284 79.4646 81.2696 79.5849C81.0077 80.1275 81.2295 80.7288 81.0665 81.2901C81.0157 81.4692 81.0451 81.683 81.136 81.8727C81.4059 82.4394 81.3418 83.0755 81.1948 83.61C81.0638 84.0884 81.0879 84.5615 81.1814 84.9517C81.3872 85.8417 81.2135 86.7264 81.2562 87.603C81.283 88.199 81.3311 88.8298 81.291 89.4472C81.2723 89.7438 81.3311 90.281 81.3979 90.3372C81.8736 90.7113 81.4888 90.9572 81.3525 91.2486C81.3257 91.3047 81.3231 91.3929 81.3471 91.4544C81.5449 91.9836 81.3391 92.5421 81.4647 93.0713C81.5529 93.4375 81.4914 93.7823 81.3925 94.1244C81.3177 94.389 81.7106 94.5333 81.5556 94.7658C81.3418 95.0785 81.4888 95.3431 81.5743 95.6345C81.6251 95.8189 81.732 96.0273 81.6384 96.2144C81.4166 96.6501 81.5075 97.1445 81.6117 97.5187C81.8736 98.4568 81.6358 99.3896 81.7133 100.32C81.7453 100.718 81.9351 101.175 81.8309 101.485C81.5262 102.396 81.871 103.286 81.8202 104.184C81.7801 104.839 81.6892 105.529 81.7373 106.21C81.8041 107.143 81.9698 108.076 81.8923 109.017C81.887 109.059 81.9378 109.148 81.9592 109.145C82.3093 109.137 82.1088 109.311 82.0527 109.423C81.7266 110.064 81.5689 110.733 81.6678 111.457C81.6865 111.59 81.6785 111.716 81.8335 111.751C82.1302 111.818 81.9672 112.005 81.9672 112.17C81.9698 112.47 81.5636 112.601 81.6572 112.887C81.8496 113.491 81.5823 114.065 81.5609 114.653C81.5449 115.089 81.5663 115.557 81.4433 116.016C81.3017 116.543 81.3605 117.126 81.3632 117.676C81.3658 118.147 81.2001 118.497 80.7351 118.352C80.1551 118.171 79.5965 118.387 79.0219 118.307C78.3564 118.213 77.7096 118.58 77.0013 118.433C76.6966 118.368 76.3331 118.366 75.9964 118.358C75.7451 118.35 75.5901 118.232 75.6088 117.901C75.6623 116.997 75.7131 116.083 75.6516 115.183C75.6302 114.875 75.9215 114.277 75.1999 114.239C75.2908 114.063 75.4084 113.942 75.4725 113.766C75.6409 113.312 75.5901 112.865 75.5554 112.408C75.5046 111.772 75.9696 111.083 75.3603 110.497C75.2935 110.433 75.3763 110.441 75.4244 110.428C75.7719 110.313 75.6035 110.064 75.4966 109.928C75.3362 109.72 75.2881 109.591 75.5046 109.388C75.6569 109.244 75.6596 108.939 75.5794 108.827C75.2053 108.308 75.5874 107.822 75.5848 107.325C75.5848 107.309 75.5874 107.29 75.5874 107.271C75.5447 106.253 75.5019 105.237 75.4618 104.219C75.4565 104.126 75.4672 104.027 75.3576 103.995C74.9407 103.877 75.1358 103.698 75.2961 103.503C75.5955 103.137 75.6382 102.656 75.4779 102.289C75.3068 101.907 75.0663 101.562 75.0476 101.13C75.0422 100.969 75.0101 100.718 75.0903 100.664C75.5901 100.338 75.4645 99.844 75.4939 99.3896C75.5581 98.3499 75.256 97.2969 75.4886 96.2839C75.7157 95.2897 74.93 94.3168 75.5206 93.3493C75.5901 93.237 75.4779 93.1088 75.411 93.0019C75.2053 92.6571 75.2106 92.1813 75.3095 91.9194C75.5286 91.3528 75.6169 90.8637 75.3175 90.3238C75.2453 90.1902 75.3335 90.0432 75.3335 89.9122C75.3362 89.3109 75.7024 88.6854 75.248 88.1055C75.1839 88.0226 75.1571 87.9558 75.3148 87.9371C75.5447 87.9077 75.4511 87.7126 75.4538 87.5896C75.4645 86.4725 75.4752 85.3553 75.4164 84.2354C75.3923 83.7917 75.6462 83.332 75.2881 82.9204C75.7959 82.3699 75.2427 81.7685 75.3817 81.1725C75.5794 80.3119 75.24 79.3791 75.4271 78.5372C75.5928 77.7889 75.0877 77.0966 75.4378 76.3884C75.4672 76.3322 75.4191 76.2013 75.3656 76.1398C75.0957 75.8298 75.1785 75.2952 75.2641 75.1509C75.8146 74.2021 75.2026 73.2399 75.3817 72.2884C75.4458 71.9463 75.5019 71.492 75.4458 71.0964C75.3523 70.4443 75.3817 69.7921 75.371 69.1373C75.3523 68.0736 75.534 66.9885 75.0957 65.9568C75.077 65.9141 75.0823 65.8419 75.109 65.8018C75.5901 65.0829 75.3229 64.2971 75.2908 63.538C75.2747 63.1051 75.1759 62.6079 75.2186 62.2444C75.2908 61.6511 75.0663 61.0711 75.24 60.4885C75.2988 60.3014 75.1331 60.1517 74.9433 60.0261C74.8017 59.9299 74.5531 59.7241 74.8177 59.5049C75.1491 59.2296 75.1117 58.8475 75.0048 58.5561C74.807 58.0136 74.9968 57.3347 74.4328 56.9178C74.3687 56.8697 74.3527 56.7146 74.3607 56.6131C74.4222 55.675 74.0025 54.8625 73.6818 54.0286C73.5829 53.772 73.5027 53.4058 73.0671 53.4673C72.9602 53.4833 72.9014 53.3898 72.9522 53.2829C73.1099 52.9568 72.9094 52.7804 72.7651 52.5025C72.5593 52.1042 72.1985 51.9947 71.9553 51.7247C71.6853 51.428 71.4314 51.1795 71.0359 51.0672C70.7445 50.9817 70.4452 50.8641 70.2046 50.6877C69.6086 50.2574 68.8469 50.1745 68.2268 50.5327C68.136 50.5861 68.0718 50.6075 67.9916 50.53C67.6976 50.2467 67.2914 50.3616 66.9439 50.2467C66.7782 50.1906 66.4869 50.1585 66.4522 50.4979C66.4415 50.6022 66.38 50.661 66.2704 50.6476C66.1662 50.6343 66.1021 50.5648 66.1047 50.4659C66.1127 50.1077 65.939 50.0997 65.7038 50.2654C65.5809 50.3536 65.4686 50.359 65.3484 50.3109C64.4557 49.942 63.5175 50.3509 62.6142 50.1558C62.403 50.1104 62.2988 50.3055 62.1598 50.4071C62.0529 50.4846 62.0583 50.7037 61.8204 50.6396C61.9166 50.1451 61.6868 49.9955 61.2244 50.1184C61.1736 50.1318 61.1121 50.1345 61.0613 50.1211C60.5936 49.9981 60.1393 50.6797 59.6635 50.1451C59.3161 50.4899 58.9098 50.1692 58.5383 50.1933C58.247 50.2146 57.953 50.4792 57.6911 50.3162C56.9775 49.8752 56.2585 50.5113 55.5529 50.2627C55.5449 50.2601 55.5182 50.2815 55.5128 50.2948C55.3819 50.7278 55.2242 50.538 55.0772 50.3109C54.9756 50.1585 54.842 50.1799 54.6923 50.1986C54.0161 50.2895 53.3052 50.0917 52.6611 50.4472C52.629 50.4659 52.5461 50.4525 52.5221 50.4231C52.1719 50.0329 51.7042 50.3296 51.3194 50.2093C50.9372 50.0917 51.0521 50.5487 50.7902 50.5995C50.4427 50.6663 50.6806 50.1371 50.3278 50.2253C50.0044 50.3082 49.7131 50.3991 49.5206 50.7064C49.3576 50.244 48.799 50.0623 48.3446 50.391C48.064 50.5942 47.7192 50.367 47.5001 50.6423C47.1526 50.1184 46.6368 50.4124 46.2813 50.5113C45.6292 50.6957 44.7846 50.4579 44.3356 51.2864C44.0924 50.7118 43.785 50.947 43.4857 51.1902C43.3467 51.3051 43.2157 51.4334 43.0981 51.567C42.3712 52.3982 41.7324 53.3069 40.8745 54.0152C40.6446 54.2076 40.7087 54.6246 40.5323 54.6941C40.1047 54.8571 40.2357 55.1083 40.2945 55.3836C40.3479 55.6322 40.4041 55.8808 40.1956 56.0999C40.1074 56.1908 40.0994 56.3137 40.1101 56.4527C40.1475 56.9231 40.2624 57.4256 40.1475 57.8639C40.0432 58.2701 40.4629 58.6791 40.0753 59.0345C40.4201 59.5023 39.9978 59.9486 40.0352 60.411C40.0593 60.7397 40.2223 61.0444 40.0914 61.4159C40.0272 61.603 40.0379 62.0387 40.1047 62.1322C40.4388 62.6079 40.0726 63.0356 40.0887 63.4739C40.102 63.7812 39.8989 64.1634 39.9524 64.4788C40.1261 65.457 39.9898 66.4433 39.9711 67.4081C39.9497 68.4424 40.1208 69.4581 40.0833 70.487C40.0646 71.0136 40.3747 71.5962 40.233 72.0639C39.9978 72.8497 40.1822 73.582 40.2384 74.3331C40.2891 74.9692 40.5885 75.624 40.5056 76.2307C40.3292 77.5082 40.6847 78.7243 40.7328 79.9698C40.7809 81.234 41.1684 82.4661 41.1284 83.7436C41.1257 83.8666 41.1524 84.0056 41.2112 84.1098C41.54 84.6844 41.0909 85.3766 41.4892 85.9406C41.4972 85.9513 41.4544 85.9994 41.4384 86.0315C41.2727 86.411 41.3475 86.7878 41.3823 87.1861C41.433 87.7313 41.4918 88.2792 41.5186 88.8271C41.5346 89.1318 41.3983 89.5193 41.6656 89.8026C41.8019 89.9496 41.7752 90.11 41.6763 90.249C41.27 90.8022 41.9997 91.3715 41.6469 91.9221C42.0718 92.1787 41.7912 92.5261 41.7564 92.8388C41.7217 93.1756 41.5266 93.5498 42.0424 93.7074C42.2616 93.7743 42.0504 93.8598 42.0371 93.9346C41.9863 94.234 41.6923 94.4932 41.9435 94.8407C42.1306 95.1026 42.152 95.3832 41.9809 95.6959C41.8874 95.8723 41.8393 96.1663 41.9248 96.324C42.16 96.765 41.8393 97.2327 42.0905 97.6844C42.4006 98.2484 41.8286 98.9646 42.3097 99.5419C42.3204 99.5526 42.2776 99.6275 42.2429 99.6515C41.9328 99.8493 42.0825 100.149 42.0397 100.416C41.9462 101.012 42.2562 101.554 42.1493 102.167C42.0852 102.543 42.0424 102.979 42.0852 103.399C42.1066 103.594 42.3097 103.722 42.2108 103.947C41.9168 104.612 42.2509 105.323 42.1039 106.005C42.0798 106.117 42.1173 106.269 42.1814 106.368C42.3685 106.665 42.3284 106.953 42.2055 107.25C42.1413 107.405 42.1734 107.568 42.1493 107.72C42.0451 108.41 42.4246 109.057 42.291 109.741C42.2242 110.078 42.1173 110.431 42.2562 110.754C42.438 111.176 42.3765 111.585 42.3337 112.01C42.299 112.374 42.2509 112.734 42.283 113.111C42.3498 113.862 42.3311 114.619 42.3578 115.375C42.3819 116.059 42.4647 116.738 42.3792 117.43C42.3418 117.764 42.5369 118.117 42.5877 118.467C42.6251 118.735 42.6304 119.085 42.2562 119.085C41.7645 119.082 41.3154 119.675 40.7943 119.189C40.7756 119.17 40.6927 119.234 40.6446 119.226C40.3052 119.176 39.9524 119.226 39.6316 119.258C38.7176 119.352 37.7768 119.045 36.8868 119.451C36.6462 119.56 36.0823 119.087 36.1545 118.828C36.3656 118.088 36.2801 117.289 36.6222 116.575C36.6489 116.516 36.6543 116.385 36.6356 116.377C36.0663 116.145 36.5099 115.91 36.6168 115.661C36.681 115.517 36.6997 115.351 36.7211 115.191C36.7745 114.782 36.7799 114.357 36.7638 113.958C36.7478 113.579 36.9723 113.095 36.6222 112.799C36.4004 112.609 36.4485 112.488 36.534 112.304C36.9002 111.532 37.0177 110.746 36.5981 109.955C36.55 109.867 36.542 109.818 36.6222 109.792C36.9616 109.674 36.8307 109.415 36.8039 109.198C36.7211 108.495 36.7104 107.798 36.8895 107.106C36.9242 106.972 36.9402 106.814 36.7852 106.79C36.3442 106.718 36.4859 106.523 36.681 106.336C36.828 106.192 36.8574 106.021 36.852 105.839C36.8146 104.751 36.9135 103.663 36.9082 102.573C36.9028 101.987 36.7932 101.405 36.8975 100.801C36.9643 100.411 37.0899 99.9589 36.812 99.5419C36.6837 99.3549 36.379 99.0475 36.8868 98.8577C37.0017 98.815 36.9857 98.5985 36.9082 98.4595C36.8494 98.3472 36.7532 98.227 36.8173 98.1067C37.3117 97.2113 36.836 96.2625 36.983 95.3244C37.1647 94.1484 37.0311 92.9163 36.9563 91.7109C36.8681 90.2516 36.9055 88.7897 36.8601 87.3331C36.8253 86.2105 36.828 85.0693 36.8734 83.9414C36.8948 83.3721 36.6329 82.8002 36.8788 82.2336C36.9028 82.1748 36.8387 82.0598 36.7879 81.9877C36.6676 81.8166 36.7024 81.6723 36.7852 81.4905C36.8654 81.3195 36.959 81.0335 36.8761 80.9293C36.542 80.4963 37.0017 79.935 36.6062 79.5181C36.542 79.4513 36.558 79.184 36.7238 79.0851C36.8975 78.9836 36.8467 78.8285 36.828 78.7002C36.7532 78.1871 36.5901 77.714 36.697 77.1501C36.8226 76.4899 36.2747 75.9447 36.0021 75.3594C35.9059 75.1482 35.7215 74.9264 35.4034 74.9932C35.2564 75.0253 35.2217 74.9317 35.2083 74.8035C35.1763 74.4587 34.901 74.3678 34.6364 74.3732C34.2809 74.3812 34.1232 74.2235 33.9174 73.9428C33.5593 73.4537 32.9766 73.1972 32.3806 73.2052C32.0439 73.2105 31.6884 73.2934 31.3383 73.3014C31.2447 73.1143 31.4719 72.847 31.1645 72.7294C30.8759 72.6172 30.7342 72.8444 30.5605 72.9807C30.4937 73.0315 30.5151 73.2346 30.3601 73.0956C30.2692 73.0127 30.2665 72.9058 30.4162 72.847C30.5071 72.8123 30.5739 72.7535 30.5044 72.6439C29.9511 72.545 29.4059 72.7107 28.8313 72.6279C28.3716 72.5637 27.8397 72.3472 27.2998 72.6118C27.1822 72.6706 26.8428 72.9433 26.6691 72.7642C26.3109 72.4034 25.9154 72.5557 25.5145 72.537C24.9799 72.5103 24.4855 72.7241 23.9269 72.6412C23.1144 72.5183 22.2752 72.5798 21.4493 72.5718C21.0457 72.5691 20.6555 72.6199 20.4069 72.9994C20.2466 73.2399 20.0274 73.1998 19.8323 73.0929C19.6693 73.0021 19.5223 72.9646 19.3325 72.9673C18.2634 72.9914 17.2959 73.3014 16.3845 73.86C16.0879 74.0417 15.7778 74.5282 15.417 74.285C14.6072 73.7424 13.923 74.2662 13.3697 74.5816C12.1082 75.3006 11.2743 76.5407 10.2988 77.5911C9.55311 78.3929 9.23774 79.4459 8.97848 80.5016C8.91968 80.7422 8.72992 80.9587 8.71122 81.1965C8.63638 82.1774 8.18469 83.0755 8.13124 84.059C8.09115 84.7379 7.80784 85.3766 7.81052 86.0796C7.81052 86.3442 8.04037 86.6034 7.83992 86.8894C7.63412 87.1807 7.66886 87.5308 7.69024 87.8729C7.72232 88.4102 7.80784 88.9554 7.7437 89.4846C7.70361 89.8374 7.63946 90.0966 8.09649 90.2463C7.68757 90.3104 7.56195 90.5831 7.66886 90.8396C7.97355 91.5639 7.74637 92.3203 7.73568 93.0259C7.72232 94.2233 7.9388 95.426 7.78379 96.61C7.71964 97.1151 8.11788 97.5187 7.8907 98.0372C7.73033 98.406 7.82655 98.8551 7.81052 99.2613C7.78913 99.884 7.83992 100.507 7.78379 101.116C7.7437 101.53 8.04037 101.739 8.07511 102.094C8.13658 102.714 7.85328 103.284 8.00028 103.947C8.13658 104.561 7.90673 105.259 8.32367 105.855C8.34505 105.89 8.34238 105.986 8.31833 106.005C7.94682 106.288 8.17668 106.609 8.29962 106.87C8.44929 107.194 8.42791 107.477 8.33704 107.798C8.19538 108.303 8.08313 108.819 8.47602 109.281C8.51343 109.324 8.51878 109.434 8.48938 109.479C8.09649 110.056 8.26487 110.746 8.27557 111.337C8.30229 112.665 8.09382 113.999 8.32367 115.324C8.33436 115.394 8.34238 115.479 8.31298 115.538C8.06977 116.049 7.99226 116.538 8.39584 117.016C8.48938 117.128 8.44127 117.291 8.40653 117.436C8.27289 117.954 7.96286 118.403 7.8613 118.943C7.80784 119.21 7.48445 119.555 7.16372 119.285C6.77885 118.962 6.56504 119.413 6.29242 119.363C5.99308 119.307 5.97704 118.724 5.50398 118.884C5.48527 119.034 5.78728 119.157 5.59752 119.285C5.46389 119.376 5.34362 119.536 5.04695 119.4C4.46697 119.133 3.79078 119.186 3.152 119.141C2.8393 119.119 2.48116 118.938 2.28605 119.376C2.25665 119.44 2.12569 119.467 2.115 119.384C2.09094 119.226 2.14707 119.018 1.87713 119.17C1.70607 119.269 1.53502 119.328 1.54839 119.635C1.56175 120.02 1.20628 120.314 0.917629 120.477C0.514051 120.704 -0.0953234 120.683 0.270836 121.421C0.313599 121.509 0.230746 121.661 0.198673 121.781C0.15591 121.953 0.145219 122.1 0.190655 122.292C0.318945 122.824 0.658377 123.03 1.12075 123.267C1.78626 123.612 2.45176 123.789 3.17606 123.802C3.30969 123.805 3.40056 123.77 3.48342 123.914C3.66249 124.235 3.96718 124.291 4.31195 124.315C4.80908 124.353 5.34629 124.163 5.7659 124.278C6.49288 124.481 7.19312 124.321 7.89604 124.393C8.07779 124.411 8.14193 124.133 8.30764 124.224C8.6738 124.43 8.99987 124.468 9.30188 124.117C9.3687 124.037 9.46759 124.037 9.50501 124.155C9.65468 124.59 10.0182 124.548 10.3389 124.489C10.6489 124.435 10.9509 124.417 11.2529 124.454C12.445 124.606 13.645 124.486 14.8424 124.59C16.3177 124.719 17.8064 124.556 19.2924 124.631C20.7277 124.705 22.1682 124.636 23.6088 124.708C24.6699 124.762 25.7363 124.617 26.808 124.681C27.6393 124.732 28.4785 124.524 29.3124 124.724C29.3792 124.74 29.4594 124.748 29.5262 124.729C30.2371 124.521 30.9641 124.7 31.6884 124.641C32.8403 124.548 34.0217 124.684 35.1816 124.577C36.101 124.489 37.0338 124.433 37.9425 124.443C39.1372 124.457 40.3239 124.361 41.5159 124.355C42.5877 124.353 43.6594 124.251 44.7312 124.224C45.4822 124.206 46.2706 124.481 46.9201 123.872C46.9388 123.853 46.9976 123.847 47.0136 123.861C47.6711 124.446 48.4168 124.166 49.1438 124.075C49.232 124.064 49.3229 124.043 49.4057 124.056C49.9028 124.141 50.408 124.206 50.8997 124.128C51.4717 124.04 52.041 124.131 52.6076 124.053C53.1208 123.984 53.6206 124 54.1471 124.037C55.4754 124.133 56.8198 123.944 58.1534 123.97C58.5971 123.981 58.9766 123.7 59.3749 123.794C60.3504 124.027 61.334 123.922 62.2988 123.853C62.7906 123.815 63.3759 124.206 63.8035 123.652C64.2846 124.136 64.8967 123.757 65.4365 123.834C66.3132 123.96 67.2486 123.839 68.152 123.762C69.4563 123.65 70.7606 123.743 72.0595 123.719C73.297 123.695 74.5424 123.679 75.7852 123.684C76.3305 123.687 76.8703 123.564 77.4316 123.639C77.7871 123.687 78.2174 123.676 78.4259 123.096C78.4793 123.516 78.6717 123.561 78.9363 123.578C80.0535 123.644 81.168 123.385 82.2826 123.561C82.3814 123.578 82.5311 123.556 82.5926 123.492C82.8011 123.267 83.0844 123.305 83.3009 123.353C84.2229 123.559 85.1584 123.58 86.0858 123.519C87.4115 123.436 88.7719 123.773 90.0681 123.233C90.1082 123.217 90.175 123.243 90.2205 123.267C90.9768 123.671 91.7439 123.428 92.5217 123.366C92.9493 123.332 93.401 123.318 93.8313 123.292C94.2803 123.265 94.7079 123.374 95.1543 123.348C95.8037 123.31 96.4398 122.995 97.1133 123.254C97.5837 123.433 98.0782 123.238 98.562 123.251C99.5054 123.275 100.452 123.297 101.395 123.292C103.17 123.281 104.939 123.08 106.711 123.187C107.43 123.23 108.103 122.915 108.817 123.006C108.916 123.016 108.956 122.925 109.002 122.84C109.189 122.46 109.191 122.463 109.59 122.551C109.584 122.722 109.239 122.784 109.418 122.995C109.568 123.171 109.771 123.251 109.966 123.014C109.99 122.984 110.079 122.973 110.119 122.992C110.795 123.353 111.436 122.992 112.094 122.917C112.276 122.899 112.481 122.981 112.369 122.658C112.337 122.565 112.382 122.431 112.508 122.402C112.639 122.369 112.714 122.468 112.741 122.578C112.823 122.915 113.059 122.944 113.329 122.861C113.74 122.733 114.149 122.765 114.558 122.851C115.531 123.054 116.539 122.965 117.469 122.81C118.089 122.706 118.693 122.84 119.315 122.706C120.005 122.557 120.783 122.821 121.464 122.399C121.518 122.367 121.657 122.377 121.691 122.42C121.937 122.722 122.207 122.578 122.405 122.415C122.651 122.212 122.833 122.222 123.081 122.38C123.365 122.559 123.624 122.639 123.822 122.212C123.945 121.953 124.185 121.915 124.292 122.273C124.324 122.377 124.329 122.543 124.468 122.452C124.859 122.196 125.377 122.281 125.765 121.835C125.588 122.303 125.709 122.532 126.053 122.46C126.518 122.367 126.954 122.124 127.451 122.19C127.489 122.196 127.574 122.121 127.569 122.097C127.454 121.538 127.895 121.934 128.028 121.8C127.855 121.969 127.86 122.057 128.098 122.142C128.71 122.361 128.624 121.765 128.79 121.517C128.951 121.279 128.747 121.111 128.298 121.145C128.611 121.006 128.758 120.942 128.905 120.875C129.285 120.699 129.661 120.004 129.464 119.657C129.242 119.266 129.448 119.168 129.72 119.103C130.113 119.01 129.953 118.85 129.776 118.727ZM32.6452 83.896C32.696 84.5214 32.7628 85.1922 32.688 85.7909C32.6105 86.411 32.5089 87.0391 32.5944 87.6351C32.7013 88.3594 32.549 89.0596 32.5517 89.7679C32.5543 90.6846 32.4688 91.6281 32.549 92.5181C32.6238 93.2985 32.3913 94.0415 32.5303 94.8407C32.6452 95.4955 32.68 96.2866 32.5009 96.9842C32.4154 97.3209 32.5437 97.5802 32.5597 97.8742C32.5971 98.5637 32.3085 99.2052 32.3512 99.8974C32.4047 100.769 32.2817 101.64 32.3432 102.525C32.386 103.137 32.2042 103.834 32.3085 104.404C32.4501 105.187 31.9263 105.972 32.4234 106.705C32.1347 107.148 32.5811 107.688 32.2283 108.148C32.1534 108.244 32.1989 108.546 32.239 108.699C32.394 109.292 31.6911 109.8 32.1053 110.39C31.7659 110.888 32.0599 111.312 32.2336 111.764C32.2897 111.906 32.1588 112.058 32.0225 112.173C31.7552 112.392 31.6617 112.705 31.659 113.039C31.6563 113.75 31.5013 114.496 31.6242 115.156C31.7445 115.808 31.3677 116.399 31.6109 117.048C31.6937 117.267 31.5548 117.687 31.5387 118.024C31.528 118.304 31.4318 118.569 31.5948 118.86C31.643 118.946 31.6857 119.357 31.5227 119.36C31.1645 119.368 31.0095 119.905 30.5605 119.651C30.1062 119.395 29.6491 119.392 29.3471 120.197C29.3097 119.421 28.9569 119.593 28.5667 119.536C27.4842 119.384 26.4152 119.558 25.3461 119.555C24.8703 119.552 24.277 119.323 23.82 119.737C23.5367 119.408 23.1732 119.593 22.8364 119.568C22.2992 119.531 21.7673 119.617 21.2275 119.542C20.733 119.475 21.2569 119.868 21.0056 120.001C20.6742 119.536 20.1798 119.488 19.6265 119.566C19.2871 119.614 19.0225 119.745 18.7606 119.959C18.4799 120.189 18.1592 120.346 18.2982 119.702C17.9962 119.723 17.8117 120.156 17.5552 119.713C17.4884 119.601 17.0714 119.544 16.9538 119.635C16.6171 119.905 16.2482 119.681 15.9409 119.697C15.6308 119.713 15.2486 119.769 14.9065 119.67C14.5003 119.552 14.0807 119.451 13.8615 119.996C13.8134 120.116 13.6397 120.135 13.6397 119.983C13.637 119.483 13.2735 119.707 13.0517 119.675C12.8913 119.649 12.6962 119.686 12.6347 119.507C12.5813 119.355 12.6294 119.197 12.7978 119.09C13.0463 118.93 13.0249 118.62 12.9341 118.454C12.6428 117.922 12.8512 117.436 12.9768 116.939C13.049 116.65 12.894 116.42 12.8566 116.166C12.7924 115.765 12.9287 115.3 12.8325 114.939C12.6481 114.25 12.8539 113.56 12.6695 112.887C12.4717 112.165 12.763 111.366 12.5519 110.714C12.2124 109.669 12.8298 108.731 12.6214 107.742C12.4931 107.135 12.7016 106.472 12.2312 105.916C12.0574 105.708 12.2418 105.363 12.3568 105.144C12.5171 104.831 12.5439 104.529 12.4904 104.214C12.3594 103.412 12.6214 102.567 12.2258 101.79C12.1911 101.723 12.2365 101.616 12.2445 101.528C12.2739 101.17 12.477 100.811 12.1643 100.456C12.0842 100.368 12.1964 100.114 12.2178 99.9348C12.2365 99.7745 12.3274 99.5607 12.2552 99.4644C11.9024 98.9753 12.1189 98.4595 12.1777 97.9704C12.2205 97.6283 12.0093 97.3744 12.0494 97.0136C12.1777 95.8349 12.2712 94.6375 12.1724 93.4509C12.0441 91.9301 12.3006 90.404 12.1456 88.9019C12.0387 87.897 12.2819 86.9268 12.1884 85.9406C12.1617 85.6573 12.2579 85.3339 11.881 85.1815C11.734 85.1201 11.8757 85.0319 11.9211 84.9864C12.1884 84.7138 12.1536 84.3771 12.1857 84.0296C12.2712 83.169 12.2205 82.3057 12.4289 81.4398C12.5946 80.7449 12.6962 80.0019 12.7122 79.2695C12.7203 78.9942 12.8218 78.8713 13.0517 78.8018C13.2976 78.727 13.6183 78.7938 13.7011 78.4303C13.7065 78.4116 13.7359 78.3849 13.7519 78.3875C14.5965 78.5452 14.5911 78.5319 15.7939 78.2058C16.8282 77.9252 17.9026 77.8717 18.961 77.7568C19.8564 77.6632 20.7731 77.6713 21.6658 77.6044C22.3553 77.551 23.0716 77.5777 23.7264 77.5991C24.865 77.6365 26.0116 77.7301 27.1475 77.6713C28.3983 77.6044 29.577 77.8076 30.7717 78.1363C32.3272 78.5639 32.6559 79.6009 32.7174 80.9881C32.7601 81.9609 32.5677 82.9178 32.6452 83.896ZM71.2764 65.7965C70.7525 66.3497 71.0652 66.9618 71.1401 67.5578C71.1935 67.9774 70.9877 68.3596 70.9771 68.7899C70.9583 69.4955 70.9102 70.2064 70.969 70.9067C71.0171 71.4706 70.822 72.0051 70.9049 72.5691C71.0599 73.6328 70.9877 74.7259 70.8915 75.771C70.8194 76.5648 70.8354 77.3639 70.822 78.147C70.814 78.5666 70.512 79.1199 70.9771 79.5288C71.0519 79.5956 70.9209 79.6785 70.8595 79.7346C70.6269 79.9431 70.6563 80.3172 70.7579 80.4322C71.0679 80.793 70.8007 81.0683 70.79 81.3917C70.7712 81.9182 70.6269 82.4554 70.7231 82.9685C70.9129 83.9815 70.7018 84.9838 70.7472 85.9914C70.7552 86.1303 70.8461 86.2667 70.8434 86.4056C70.8434 86.7103 71.1855 87.0524 70.7472 87.3197C70.6643 87.3705 70.7312 87.4854 70.7579 87.5709C71.0225 88.4235 70.7579 89.2841 70.7739 90.1421C70.7846 90.7995 70.6991 91.4624 70.7579 92.1145C70.7926 92.5208 70.5307 92.8949 70.6697 93.2718C70.8969 93.8945 70.6403 94.5921 70.9851 95.1908C70.9984 95.2148 71.0038 95.2763 70.9904 95.287C70.2421 95.7761 70.7392 96.4924 70.7579 97.0563C70.7793 97.6283 70.5254 98.2724 70.9316 98.823C70.9744 98.8791 70.9129 99.0315 70.8728 99.1303C70.5628 99.8787 70.6617 100.608 70.8648 101.373C70.9637 101.744 70.8728 102.191 70.7766 102.583C70.6831 102.968 70.7712 103.038 71.1989 102.88C70.6055 103.22 70.6964 103.647 70.8595 104.091C70.953 104.347 71.0465 104.593 70.7846 104.823C70.7098 104.89 70.667 105.016 70.7178 105.125C71.1615 106.074 70.7285 107.111 70.9637 108.033C71.1748 108.854 70.9022 109.594 70.961 110.374C71.0118 111.037 70.9289 111.743 70.6937 112.406C70.5521 112.801 70.6724 113.223 70.7124 113.619C70.7472 113.956 70.9129 113.448 71.1321 113.662C70.953 113.822 70.7606 113.958 70.6136 114.132C70.4372 114.341 70.381 114.584 70.5922 114.819C70.8835 115.148 70.8033 115.533 70.6109 115.824C70.3409 116.233 70.4372 116.661 70.6483 116.922C71.0626 117.436 70.6964 117.799 70.5414 118.197C70.3891 118.598 69.9294 118.577 69.6648 118.51C69.2398 118.403 69.0981 118.534 69.0153 118.89C68.9886 119.002 68.9378 119.103 68.8068 119.103C68.6625 119.101 68.6384 118.975 68.6411 118.868C68.6518 118.561 68.4754 118.529 68.2268 118.534C67.6923 118.547 67.1604 118.483 66.7034 118.884C66.4575 119.095 66.4548 118.983 66.217 118.713C66.0326 118.505 65.645 118.47 65.3403 118.617C65.2201 118.676 65.1185 118.799 65.0303 118.911C64.9234 119.042 64.902 119.24 64.6347 119.176C64.3888 119.117 64.4717 118.932 64.4263 118.796C64.3888 118.689 64.437 118.523 64.2178 118.577C63.8009 118.678 63.3786 118.558 62.959 118.582C62.836 118.59 62.7532 118.649 62.6783 118.719C62.4271 118.948 62.2026 119.301 62.0021 118.654C61.9407 118.459 61.5825 118.499 61.5531 118.705C61.4997 119.066 61.3874 118.951 61.211 118.823C60.7273 118.473 60.4947 118.483 60.2141 118.956C60.0778 119.189 60.0003 119.103 59.9281 118.972C59.7116 118.593 59.423 118.561 59.0141 118.644C58.5784 118.732 58.1187 118.697 57.6697 118.713C57.4345 118.721 57.1672 118.588 57.0657 118.978C57.0309 119.109 56.7904 119.114 56.638 119.007C56.1596 118.678 55.8469 118.694 55.5529 119.133C55.3738 119.4 55.2616 119.408 55.1921 119.103C55.1092 118.74 54.8473 118.743 54.5907 118.775C54.2834 118.809 53.9707 118.769 53.6767 118.812C53.2784 118.874 52.8963 118.833 52.5034 118.82C52.2281 118.809 51.9341 118.922 51.7443 119.173C51.6053 119.357 51.4931 119.376 51.314 119.194C50.9185 118.791 49.8975 118.807 49.4672 119.205C49.2053 119.448 48.8578 119.384 48.5504 119.454C48.521 119.462 48.4435 119.392 48.4462 119.365C48.4997 118.692 48.1175 118.956 47.8074 119.063C47.746 119.087 47.6391 119.149 47.6257 119.133C47.5001 118.967 47.3451 118.932 47.15 118.986C46.9789 119.031 46.8025 119.055 46.5673 119.103C46.9602 118.703 46.6314 118.253 46.7624 117.815C47.0511 116.869 46.9602 115.877 46.8372 114.907C46.7891 114.517 47.019 114.028 46.5272 113.742C46.5005 113.729 46.5245 113.563 46.5673 113.496C46.8453 113.093 46.8827 112.692 46.6421 112.251C46.5032 111.994 46.8105 111.796 46.8025 111.537C46.7651 110.516 46.8292 109.482 46.6983 108.471C46.562 107.429 46.8159 106.411 46.717 105.379C46.6635 104.81 46.8613 104.12 46.6929 103.693C46.439 103.038 46.9709 102.447 46.602 101.873C46.5566 101.803 46.6074 101.659 46.6395 101.557C46.864 100.779 46.7303 99.9856 46.7464 99.1972C46.7678 97.9891 46.8052 96.7784 46.7571 95.5703C46.741 95.1641 46.9174 94.6643 46.4818 94.3382C46.4363 94.3035 46.3962 94.3035 46.4631 94.2473C47.1232 93.6941 46.7357 92.9457 46.7464 92.3123C46.7597 91.155 46.6475 89.9871 46.5192 88.8324C46.3455 87.2395 46.3401 85.6386 46.2466 84.043C46.1985 83.1957 46.0809 82.3458 46.0755 81.4905C46.0729 81.258 46.1905 80.9186 45.7922 80.8197C45.6506 80.785 45.6666 80.678 45.7307 80.5658C46.1691 79.8067 45.7976 79.0798 45.6319 78.3501C45.5944 78.1791 45.5356 78.0428 45.5891 77.845C45.6586 77.5884 45.9472 77.1768 45.3218 77.1314C45.2577 77.126 45.0733 76.9416 45.2898 76.7519C45.5356 76.5407 45.6319 76.2841 45.2229 76.0757C44.9637 75.9447 44.9984 75.7603 45.2764 75.5759C45.4929 75.4315 45.4074 74.897 45.108 74.6939C44.7499 74.4507 44.7873 74.1807 45.0733 73.9696C45.2764 73.8172 45.3272 73.6622 45.2764 73.4644C45.1588 73.0154 45.1561 72.5611 45.1828 72.104C45.1989 71.8555 45.0519 71.7566 44.8701 71.655C44.5467 71.4733 44.4692 71.2595 44.6857 70.904C45.1615 70.1236 44.8942 69.2576 44.8862 68.4264C44.8808 67.8892 44.8033 67.352 44.7659 66.8148C44.7499 66.5822 44.7552 66.347 44.5521 66.1733C44.504 66.1306 44.4452 66.0343 44.4639 65.9942C44.651 65.5773 44.4692 65.163 44.4879 64.7621C44.5494 63.391 44.3623 62.036 44.3516 60.6729C44.3383 59.072 44.3276 57.4683 44.3276 55.8647C44.3276 55.3703 44.7071 55.1324 45.1828 55.2286C45.8537 55.3649 46.5459 55.3035 47.19 55.1324C47.5883 55.0255 47.8235 55.3088 48.1709 55.2928C49.7986 55.2046 51.4236 55.3729 53.0539 55.3836C54.5186 55.3943 55.9859 55.4531 57.4505 55.4291C58.1722 55.4157 58.9125 55.5146 59.6181 55.2714C59.8586 55.1885 59.9736 55.4317 60.166 55.4264C60.7326 55.4104 61.3019 55.4718 61.8685 55.3649C62.4672 55.2473 63.0605 55.4692 63.6726 55.4077C64.4717 55.3275 65.2896 55.405 66.086 55.3409C66.5537 55.3035 67.0188 55.3596 67.4838 55.3088C67.6095 55.2954 67.7297 55.3168 67.8179 55.1912C67.9516 54.9907 67.6308 55.0148 67.6522 54.8945C68.7293 55.111 69.1302 56.0037 69.5472 56.8456C70.1191 58.0056 70.4104 59.2564 70.6964 60.5206C70.9209 61.5095 70.7178 62.5411 71.124 63.5006C71.2176 63.7225 71.0572 64.0432 71.0572 64.3185C71.0572 64.7514 70.8942 65.2085 71.2336 65.5987C71.2737 65.6468 71.3031 65.7671 71.2764 65.7965ZM113.671 102.666C113.345 103.476 113.371 104.246 113.601 105.109C113.711 105.521 113.561 106.138 113.494 106.659C113.427 107.183 113.566 107.728 113.326 108.234C113.305 108.279 113.297 108.359 113.323 108.391C113.839 109.043 113.184 109.677 113.299 110.316C113.361 110.666 113.19 111.016 113.403 111.371C113.569 111.649 113.203 111.898 113.2 112.205C113.2 112.315 113.12 112.435 113.192 112.553C113.401 112.895 113.286 113.245 113.232 113.598C113.112 114.378 112.949 115.164 113.259 115.942C113.278 115.984 113.272 116.062 113.246 116.094C112.676 116.754 113.302 117.489 113.056 118.2C112.66 118.149 112.233 118.181 111.904 118.566C111.741 118.759 111.559 118.719 111.343 118.553C110.945 118.243 110.52 117.847 110.02 118.446C109.929 118.553 109.835 118.392 109.766 118.326C109.483 118.04 109.138 118.106 108.809 118.173C108.504 118.237 108.617 118.542 108.585 118.737C108.2 118.694 108.467 118.205 108.093 118.157C107.588 118.09 107.088 118.165 106.591 118.197C106.348 118.213 106.246 118.609 105.882 118.63C105.96 118.248 105.81 117.986 105.415 118.176C105.022 118.363 104.701 118.098 104.34 118.112C103.977 118.123 103.702 118.163 103.434 118.446C103.047 118.863 102.293 118.769 101.943 118.307C101.769 118.077 101.323 118.147 101.12 118.446C101.064 118.529 101.08 118.676 100.911 118.606C100.81 118.566 100.775 118.497 100.799 118.395C100.922 117.861 100.494 118.037 100.361 118.131C100.096 118.318 99.8956 118.339 99.6417 118.149C99.5909 118.112 99.4546 118.128 99.3932 118.171C99.3103 118.227 99.2435 118.414 99.2034 118.406C99.0698 118.374 99.2595 118.227 99.1553 118.152C99.0698 118.088 98.9602 118.101 98.9094 118.165C98.4738 118.694 98.0274 118.296 97.6238 118.152C96.9931 117.922 96.4158 118.074 96.1592 118.676C95.8572 117.802 95.2131 118.211 94.6571 118.187C94.2776 118.173 93.9649 118.425 93.5426 118.286C93.0402 118.12 93.3021 118.558 93.3448 118.812C93.0295 118.735 92.7675 118.711 92.4949 118.745C92.2277 118.777 91.9444 118.735 91.7386 118.523C91.5087 118.286 91.2789 118.098 90.9528 118.355C90.8165 118.462 90.7603 118.323 90.6721 118.283C90.29 118.112 90.004 118.152 89.9211 118.657C89.6833 118.203 88.9803 118.056 88.5233 118.344C88.3736 118.438 88.2427 118.569 88.0983 118.678C87.8311 118.879 87.6119 118.89 87.505 118.507C87.4836 118.438 87.4435 118.315 87.4222 118.318C86.6872 118.387 86.8769 117.564 86.4413 117.305C86.166 117.142 86.0323 116.749 86.2809 116.388C86.1499 116.23 85.9682 116.516 85.8159 116.3C86.1767 115.947 86.174 115.57 85.7972 115.209C85.6368 115.052 85.6796 114.873 85.7838 114.712C86.1339 114.178 86.1286 113.483 85.9896 113.012C85.8773 112.638 85.9522 112.355 85.9949 112.074C86.1606 110.93 86.1339 109.773 86.0778 108.64C86.0377 107.787 86.2301 106.964 86.1794 106.138C86.1179 105.136 86.1981 104.139 86.1606 103.139C86.1286 102.308 86.2462 101.458 86.2435 100.616C86.2382 99.6328 86.2782 98.6493 86.1687 97.6684C86.1312 97.3183 86.2301 96.9628 86.182 96.6046C86.1633 96.463 86.2221 96.3294 86.0484 96.2412C85.9121 96.1743 85.8934 96.0327 85.9682 95.9151C86.4493 95.1667 86.2034 94.3382 86.0644 93.6059C85.8666 92.5876 86.0698 91.596 86.003 90.5964C85.9629 90.0058 86.0217 89.4071 86.0083 88.8137C86.0056 88.6721 86.0858 88.2204 85.6929 88.616C85.6448 88.6641 85.5967 88.64 85.5753 88.5812C85.5566 88.5331 85.5299 88.4449 85.5486 88.4289C85.9976 88.0894 86.1339 87.7126 85.7063 87.2582C85.9736 87.023 85.8105 86.7317 85.8319 86.4564C85.888 85.7188 85.7384 84.9918 85.7277 84.2568C85.7223 83.741 85.7571 83.2545 85.8479 82.7601C85.856 82.7066 85.8747 82.6398 85.8506 82.5997C85.1397 81.389 86.2595 80.0927 85.578 78.8686C85.4951 78.7858 85.5138 79.0798 85.3187 78.9648C85.6983 78.2512 85.6956 77.4949 85.4951 76.7251C85.4524 76.5567 85.6234 76.4605 85.6208 76.2681C85.5833 74.5843 85.586 72.8978 85.5753 71.2113C85.5753 70.8078 85.5593 70.4042 85.3241 70.0487C85.268 69.9605 85.276 69.883 85.3214 69.7975C85.7063 69.1079 85.447 68.3756 85.5005 67.67C85.5566 66.9511 85.5085 66.2428 85.5406 65.5292C85.5539 65.2405 85.6021 64.9626 85.2974 64.7595C85.1664 64.6713 85.0702 64.4361 85.2305 64.3372C85.7571 64.0111 85.5379 63.4926 85.5887 63.0569C85.6341 62.6828 85.7357 62.2044 85.5566 61.9424C85.2118 61.4293 85.5112 60.9455 85.5165 60.4858C85.5272 59.7909 85.5833 59.0826 85.5513 58.3851C85.5219 57.7035 85.6582 56.9552 85.4978 56.3645C85.3455 55.8113 85.5379 55.3409 85.4738 54.8357C85.4069 54.2958 85.4898 53.6891 85.4791 53.1306C85.4738 52.7403 85.7651 52.2272 85.3134 51.8583C85.2706 51.8236 85.3829 51.5964 85.4283 51.4628C85.5566 51.0993 85.6208 50.7599 85.4203 50.3723C85.3107 50.1558 85.3909 49.8324 85.415 49.5785C85.4711 48.9879 85.3027 48.4426 85.2546 47.8787C85.2038 47.2773 85.2573 46.668 85.1263 46.072C85.0648 45.786 85.1824 45.4412 84.8644 45.2301C84.835 45.2113 84.8163 45.1205 84.8377 45.0911C85.137 44.6474 84.9071 44.2064 84.8831 43.7521C84.8617 43.303 84.8884 42.8888 84.5249 42.5681C84.4421 42.4932 84.4715 42.4852 84.5303 42.4211C84.8564 42.0816 84.7922 41.6112 84.7281 41.2558C84.565 40.3257 84.859 39.3635 84.4795 38.4628C84.8029 37.979 84.6506 37.4391 84.6693 36.918C84.6773 36.7576 84.843 36.7042 84.9553 36.6133C85.5433 36.1402 86.2675 35.7981 86.9518 35.7527C87.5692 35.7126 88.1919 35.5282 88.82 35.603C88.8574 35.6083 88.8975 35.6137 88.9269 35.6003C89.7207 35.2689 90.5278 35.5041 91.3163 35.5816C92.1635 35.6671 93.0108 35.619 93.85 35.6137C95.3333 35.6003 96.822 35.7447 98.308 35.5789C98.8559 35.5175 99.4039 35.6324 99.9544 35.6404C101.04 35.6538 102.125 35.6912 103.21 35.6698C103.846 35.6565 104.49 35.75 105.115 35.6698C105.77 35.5896 106.409 35.6912 107.056 35.6671C108.724 35.603 110.292 36.0654 111.824 36.6587C112.23 36.8137 112.554 37.1719 112.687 37.6343C112.765 37.8988 112.893 38.0993 113.259 38.0271C113.045 38.1848 113.003 38.3265 113.061 38.5831C113.28 39.5185 113.398 40.462 113.433 41.4348C113.46 42.2206 113.361 43.0171 113.561 43.8189C113.668 44.2492 113.855 44.7516 113.508 45.2701C113.219 45.7085 113.43 46.3152 113.403 46.839C113.387 47.1891 113.371 47.574 113.385 47.9428C113.411 48.6458 113.46 49.3433 113.516 50.0436C113.572 50.7331 113.425 51.4387 113.449 52.1363C113.489 53.2963 113.457 54.4642 113.446 55.6188C113.438 56.271 113.692 56.9391 113.406 57.6314C113.19 58.1552 113.508 58.7699 113.422 59.366C113.286 60.2987 113.363 61.2368 113.436 62.1776C113.47 62.6748 113.289 63.1852 113.286 63.6984C113.286 63.8213 113.208 63.9416 113.289 64.0646C113.639 64.6044 113.31 65.1711 113.315 65.719C113.318 65.9969 113.294 66.2535 113.374 66.5341C113.444 66.7667 113.417 67.0366 113.39 67.2852C113.302 68.0736 113.347 68.8701 113.297 69.6532C113.256 70.2786 113.66 70.9361 113.206 71.5347C113.47 71.9998 113.109 72.513 113.323 72.9994C113.387 73.1464 113.476 73.3976 113.278 73.6034C113.125 73.7691 113.187 74.0257 113.192 74.2342C113.208 75.0921 113.395 75.9313 113.289 76.8133C113.195 77.5697 113.337 78.3528 113.198 79.1252C113.15 79.4032 113.358 79.6544 113.382 79.9698C113.438 80.7769 113.289 81.56 113.275 82.3512C113.262 83.2064 113.174 84.0617 113.238 84.9089C113.275 85.4248 113.355 85.9379 113.347 86.4564C113.342 86.7371 113.361 87.015 113.323 87.2983C113.305 87.4266 112.877 87.8489 113.476 87.8596C113.444 87.9184 113.403 87.9745 113.379 88.036C113.259 88.3514 113.142 88.6534 113.313 89.0088C113.476 89.3536 113.278 89.7305 113.251 90.0779C113.198 90.7995 113.382 91.4838 113.411 92.1867C113.427 92.6116 113.387 93.0419 113.363 93.4509C113.31 94.3569 113.39 95.263 113.318 96.1556C113.267 96.7784 113.73 97.3664 113.358 98.0185C113.28 98.1575 113.489 98.5691 113.382 98.8711C113.353 98.9593 113.444 98.9807 113.521 98.9914C113.588 98.9994 113.7 98.8444 113.711 99.0288C113.713 99.0822 113.636 99.1838 113.591 99.1865C113.305 99.1972 113.462 99.3682 113.417 99.5019C113.243 100.031 113.818 100.552 113.358 101.092C113.211 101.263 113.321 101.696 113.542 101.923C113.772 102.159 113.78 102.402 113.671 102.666ZM12.7764 30.4981C13.1853 29.83 13.7786 29.3222 14.2784 28.7368C14.6045 28.3573 14.9573 27.9912 15.2673 27.6009C15.4838 27.3257 15.7698 27.2 16.013 27.3257C16.3525 27.5021 16.0157 27.7827 15.9649 28.0259C16.1734 28.0446 16.2643 27.9484 16.3177 27.7667C16.4193 27.4112 16.6171 27.3791 16.9699 27.5047C17.622 27.7319 18.3142 27.8255 18.945 28.1435C19.9178 28.6326 20.9762 28.9159 21.9624 29.3997C22.5879 29.7044 23.3923 29.7899 24.122 29.9476C24.4374 30.0144 24.4614 29.6322 24.702 29.6322C24.8356 29.6322 25.0173 29.3783 25.0708 29.5787C25.2953 30.4367 26.0036 29.9957 26.4633 30.0678C26.939 30.1427 27.4655 30.0278 27.9707 30.0358C28.3315 30.0438 28.4224 29.8834 28.4304 29.5413C28.4544 28.1221 27.8263 27.3043 26.3483 26.8633C25.7978 26.7002 25.2606 26.4704 24.702 26.3368C24.0685 26.1844 23.4164 26.1256 22.7749 26.0187C21.6203 25.8263 20.4711 25.6419 19.3352 25.3425C18.1592 25.0352 17.2451 24.3269 16.283 23.656C15.7538 23.2872 15.3716 22.8516 15.1177 22.2689C14.837 21.6275 14.7969 20.9807 14.9974 20.3152C15.0749 20.0586 15.2379 19.8047 15.2273 19.5535C15.2059 19.0617 15.4865 18.7436 15.7511 18.4149C16.9752 16.9021 18.2127 15.3974 19.6238 14.0557C20.2011 13.5078 20.7784 12.9225 21.6016 12.7033C21.9518 12.6098 22.1175 12.3719 21.8769 12.0058C21.6872 11.7225 21.6203 11.5434 22.0052 11.2734C22.2832 11.0783 22.7108 10.7148 22.3954 10.1937C22.8017 10.207 23.1358 10.1723 23.0182 9.65913C22.9807 9.49609 23.0716 9.47471 23.1865 9.456C23.2854 9.44264 23.4324 9.47471 23.3843 9.29297C23.24 8.75843 23.6917 8.80921 23.959 8.7611C24.1808 8.72101 24.3973 8.74239 24.4935 8.4965C24.6245 8.16242 24.9265 8.13836 25.2044 8.11698C25.6962 8.08224 25.8779 8.33882 25.6748 8.7905C25.5145 9.14597 25.5465 9.41057 25.7764 9.73664C26.0837 10.1669 26.0463 10.6935 25.7924 11.1238C25.5145 11.5995 25.9555 11.987 25.8539 12.42C25.8512 12.4334 26.0036 12.4868 26.0864 12.5082C26.7038 12.6739 27.3212 12.8477 27.9413 13C28.719 13.1871 29.438 13.5907 30.2451 13.6575C30.6567 13.6896 30.2024 14.013 30.312 14.0504C30.5685 14.192 30.6754 14.045 30.8064 14.0236C30.8946 14.0076 30.9828 13.9862 31.071 13.9622C31.1966 13.9274 31.4024 13.9034 31.3944 14.0343C31.3623 14.5582 32.7601 14.2829 32.0225 15.0767C31.5868 15.5444 31.6536 16.1565 31.2715 16.6349C30.8973 17.1026 30.7129 17.7307 30.483 18.3026C30.3841 18.5458 30.2291 18.5966 30.0768 18.4657C29.7507 18.1824 29.3337 18.2091 28.9997 18.2385C28.0696 18.3267 27.217 18.0086 26.3296 17.8803C25.4958 17.7574 24.6458 17.7387 23.812 17.6131C22.8658 17.4688 21.9224 17.5436 21.019 17.7307C20.5165 17.8322 19.8965 17.9071 19.5811 18.5646C19.2978 19.1606 19.3486 19.6417 19.9713 19.8982C20.121 19.9597 20.2706 20.0265 20.423 20.0746C20.7918 20.1869 21.2087 20.219 21.5241 20.4141C22.0453 20.7401 22.6119 20.2804 23.0583 20.545C23.5687 20.8497 24.1701 20.5664 24.6752 20.9272C24.8222 21.0341 25.2178 20.7669 25.5412 20.8176C27.2303 21.0849 28.8206 21.6435 30.205 22.6324C30.8518 23.0975 31.5574 23.5224 32.0786 24.1612C32.3405 24.4792 32.4635 24.8882 32.533 25.2463C32.7468 26.3662 32.8911 27.5341 32.5597 28.638C32.3138 29.4505 31.9476 30.2496 31.4372 30.9579C31.3944 31.014 31.3383 31.0701 31.3222 31.1343C31.0817 32.2007 30.4723 33.0693 29.7587 33.8497C29.3979 34.2426 28.8634 34.4484 28.3689 34.6836C27.6018 35.0444 26.7599 34.9803 25.9608 35.162C25.8111 35.1968 25.7443 35.285 25.6962 35.3999C25.4877 35.905 25.2525 36.3914 24.996 36.8725C24.7661 37.3002 24.5844 37.84 24.3812 38.3292C24.293 38.5456 24.269 38.9359 23.9884 38.9011C23.673 38.861 23.3416 38.6713 23.1251 38.396C22.8899 38.094 22.7856 37.6289 22.2297 37.8053C22.1201 37.84 22.0106 37.7305 21.9838 37.6316C21.8743 37.2574 21.7032 36.8725 21.7192 36.4984C21.7326 36.1456 21.8074 35.8275 21.7379 35.4426C21.6685 35.0658 21.5428 34.9856 21.2542 34.8974C19.7521 34.4431 18.2982 33.8497 16.8416 33.2644C16.5289 33.1388 16.1894 33.0319 15.9863 32.7192C15.9596 32.6764 15.9008 32.631 15.8553 32.631C14.5671 32.6123 13.8374 31.5886 12.8753 30.9873C12.616 30.8269 12.6321 30.7333 12.7764 30.4981Z" fill="url(#paint0_linear_325_566)"/>
<defs>
<linearGradient id="paint0_linear_325_566" x1="-44.5131" y1="166.57" x2="161.149" y2="87.0401" gradientUnits="userSpaceOnUse">
<stop stop-color="#088F99"/>
<stop offset="0.581731" stop-color="#09BE9D"/>
<stop offset="0.860577" stop-color="#7ECCA2"/>
</linearGradient>
</defs>
</svg>
