<svg width="90" height="85" viewBox="0 0 90 85" fill="none" xmlns="http://www.w3.org/2000/svg">
<mask id="mask0_395_1146" style="mask-type:luminance" maskUnits="userSpaceOnUse" x="0" y="0" width="90" height="85">
<path d="M0.824219 0.213684H89.1793V85.0001H0.824219V0.213684Z" fill="white"/>
</mask>
<g mask="url(#mask0_395_1146)">
<path d="M86.5169 34.9786C85.9218 34.853 85.3193 34.9066 84.7667 35.1228L85.6926 30.7206C85.8571 29.9388 85.7074 29.1386 85.2713 28.4659C84.8333 27.7968 84.1605 27.3367 83.3769 27.1703C82.8003 27.0502 82.2274 27.1075 81.7118 27.2997L82.0943 25.4885C82.4344 23.8714 81.3939 22.2783 79.7786 21.9383C78.1597 21.5982 76.5685 22.6369 76.2284 24.254L76.1175 24.7752C75.7146 24.3815 75.2101 24.108 74.6464 23.9897C73.0275 23.6496 71.4362 24.6883 71.0962 26.3054L67.411 43.8238C67.2059 43.602 67.0173 43.371 66.8547 43.1215C66.6939 42.8794 66.4278 42.349 66.0767 41.2031C67.7566 36.8545 68.4755 27.5344 68.7564 22.3024C68.8507 20.5577 67.5625 19.0312 65.8235 18.8316C65.1286 18.7503 64.4429 18.8907 63.8404 19.2215L64.4281 14.1651C64.6333 12.3983 63.3618 10.7904 61.5913 10.5834C60.9296 10.5076 60.2772 10.637 59.7025 10.9438L59.952 8.79073C60.1571 7.02023 58.8838 5.41421 57.1151 5.20907C55.3483 5.00208 53.7386 6.27543 53.5353 8.04594L53.4503 8.75746C52.9605 8.32685 52.3562 8.05148 51.6927 7.97571C49.9259 7.77057 48.318 9.04207 48.111 10.8126L45.8249 30.5339C45.5348 30.2844 45.2705 30.0183 45.0321 29.7226C44.7955 29.425 44.5183 28.9205 44.2152 28.2385C44.6236 26.4329 45.0284 24.5053 45.422 22.5038C45.8526 20.3064 44.5571 18.1773 42.404 17.549C41.2637 17.2182 40.0255 17.3753 39.0053 17.9814C37.9852 18.5895 37.2533 19.6023 37.002 20.761C36.8578 21.4208 36.7118 22.0436 36.5695 22.6202C35.4902 23.5498 34.9894 25.0173 35.3442 26.4662C35.237 26.7027 35.1298 26.8986 35.0319 27.0483C34.7602 27.4605 34.4442 27.8283 34.0912 28.1849L29.4265 6.01115C29.2306 5.07785 28.6817 4.27761 27.8852 3.75829C27.0868 3.23712 26.135 3.05785 25.2017 3.25375C24.4236 3.41823 23.738 3.83037 23.2298 4.42731L23.0246 3.4515C22.8287 2.52005 22.2817 1.71981 21.4833 1.19864C20.6867 0.679315 19.7331 0.500047 18.7998 0.695948C17.8683 0.891849 17.0681 1.43889 16.5469 2.23728C16.0276 3.03567 15.8502 3.98746 16.0442 4.92076L16.5894 7.50259C15.8816 7.16253 15.0888 7.06089 14.3089 7.22537C12.3868 7.63011 11.1504 9.52628 11.5552 11.4483L12.7786 17.2718C12.0431 16.9021 11.2114 16.7931 10.3927 16.9631C8.50205 17.3623 7.23978 19.1716 7.5207 21.0808C7.63343 21.857 7.75172 22.6369 7.87369 23.4094C7.32295 24.1209 7.09193 25.0709 7.33774 26.0042L7.80531 27.795C7.2712 27.6231 6.69459 27.6028 6.1383 27.7506C4.53968 28.1683 3.57865 29.8094 3.99818 31.4081L5.13662 35.7586C4.57479 35.57 3.96861 35.546 3.38275 35.7013C1.81369 36.1115 0.828643 37.6788 1.13913 39.2681C2.16668 44.5002 4.23104 53.7334 6.51717 56.8179C7.4708 58.1042 8.63327 59.1225 9.96762 59.8544L10.2744 62.2976L8.3542 62.5397C7.97164 62.5859 7.69997 62.9352 7.74802 63.3159L10.3853 84.3734C10.4278 84.7209 10.7253 84.9833 11.0765 84.9833H31.8235C32.0231 84.9833 32.2135 84.8983 32.3465 84.7486C32.4778 84.5971 32.5406 84.3975 32.5147 84.1979L29.5596 60.5862C29.5115 60.2037 29.1641 59.9339 28.7797 59.9819L26.8595 60.2222L26.512 57.4389C26.488 57.2559 26.3937 57.0877 26.2459 56.975C26.1461 56.8974 26.026 56.8493 25.9003 56.8364C26.8909 55.9308 27.8685 54.7868 28.5634 53.386C29.968 50.5546 31.2044 43.1104 31.8161 38.9225C32.0712 37.1816 31.0455 35.5534 29.4025 35.0082C29.6039 34.6848 29.8146 34.3669 30.0364 34.0583C31.0787 32.6038 32.2431 31.6317 33.3667 30.691C34.2889 29.9222 35.1649 29.1903 35.8728 28.2681C36.8671 31.5504 38.2642 35.851 39.6208 38.9521C39.508 39.1905 39.399 39.4049 39.2936 39.5953C38.1737 41.6023 36.4438 43.0124 34.8637 43.9642C34.8618 43.9642 34.86 43.9642 34.8581 43.9661C34.8563 43.9661 34.8545 43.9679 34.8526 43.9698C34.3721 44.2581 33.9027 44.5076 33.4721 44.7164C33.1246 44.8809 32.9786 45.2986 33.1468 45.6442C33.2669 45.8955 33.5146 46.0415 33.7751 46.0415C33.8768 46.0415 33.9803 46.0175 34.0764 45.9731C34.2963 45.8659 34.5273 45.7477 34.762 45.6238C34.7657 45.6349 34.7676 45.6442 34.7713 45.6534C34.921 46.2337 35.1391 47.0635 35.4015 48.056C35.8654 49.8098 36.5178 52.2531 37.342 55.3172C38.6098 60.0503 39.885 64.7759 40.1345 65.7C39.9368 66.7719 39.9072 67.9325 40.1697 69.1412C40.275 69.6384 40.4376 70.1115 40.6446 70.5587C38.8187 74.8981 37.8909 79.5147 37.8909 84.2866C37.8909 84.671 38.2033 84.9833 38.5877 84.9833C38.9739 84.9833 39.2863 84.671 39.2863 84.2866C39.2863 80.0488 40.0477 75.9423 41.5447 72.0538C44.0027 75.3084 48.5823 76.8534 48.8263 76.9329C48.8983 76.9551 48.9723 76.968 49.0443 76.968C49.3382 76.968 49.6099 76.7813 49.7078 76.4875C49.8279 76.1216 49.6284 75.7279 49.2624 75.6078C49.194 75.5856 42.4983 73.3328 41.5336 68.8474C40.8054 65.4782 42.8069 62.414 43.8678 61.076C45.7307 64.1513 48.7505 66.9697 48.9279 67.136C49.0628 67.2598 49.2329 67.3208 49.4029 67.3208C49.5895 67.3208 49.7762 67.245 49.913 67.0972C50.1754 66.8144 50.1588 66.3727 49.8742 66.1121C49.8298 66.0696 46.2075 62.6099 44.5626 59.4848C44.1561 58.6827 43.8788 57.8954 43.8252 57.1838C43.6367 54.626 45.0709 53.6188 45.7066 53.2991C46.7785 54.0402 50.2641 56.2191 54.2653 56.2191C57.8544 56.2191 60.8871 54.626 62.1993 53.8166C62.2067 53.8332 62.2159 53.8498 62.2252 53.8665C63.0698 55.3838 64.2766 56.5148 65.4557 57.3372C63.188 59.3794 60.7226 60.5862 57.9449 61.0132C57.5642 61.0723 57.3018 61.429 57.3609 61.8097C57.4145 62.1535 57.712 62.4011 58.0503 62.4011C58.0854 62.4011 58.1205 62.3974 58.1574 62.3919C60.8465 61.9779 63.3414 60.8542 65.5961 59.0505C64.7626 64.1365 62.3989 78.1619 61.3843 84.1683C61.3399 84.4363 61.4527 84.7043 61.6763 84.8595C61.7946 84.9408 61.9332 84.9833 62.0718 84.9833H78.1505C78.5182 84.9833 78.8213 84.7006 78.8472 84.3365L80.6584 59.6899C80.6676 59.6844 80.675 59.6807 80.6824 59.677C82.1683 58.8656 83.4231 57.7032 84.41 56.2247C86.5446 53.033 88.158 43.7073 88.9287 38.4346C89.1634 36.8305 88.1044 35.3132 86.5169 34.9786ZM17.715 2.99871C18.0328 2.51265 18.5207 2.17999 19.0881 2.06171C19.6555 1.94158 20.2339 2.05062 20.7218 2.3685C21.2079 2.68453 21.5406 3.17243 21.6588 3.73796L25.782 23.3336C24.5253 23.3244 22.9821 23.4223 21.4389 23.7864L17.41 4.63245C17.2899 4.06508 17.3989 3.48477 17.715 2.99871ZM14.5972 8.58928C15.1664 8.471 15.7449 8.5782 16.2309 8.89607C16.717 9.21395 17.0515 9.70001 17.1698 10.2692L20.0972 24.1782C19.8458 24.2669 19.5963 24.363 19.3524 24.4684C18.8423 24.692 18.3489 24.9618 17.8776 25.2686C17.6392 24.9452 17.3342 24.668 16.9775 24.4573C16.5599 24.2133 16.0997 24.0803 15.6321 24.0544L14.7376 19.8V19.7982L12.9209 11.1637C12.6733 9.99201 13.4255 8.83693 14.5972 8.58928ZM10.6791 18.3289C11.2742 18.2051 11.8804 18.3197 12.3905 18.6505C12.8969 18.9813 13.2462 19.4914 13.3719 20.0828L14.259 24.3039C13.8782 24.4721 13.5437 24.7105 13.2721 25.0062L13.1371 24.4868C12.9339 23.7143 12.4423 23.0638 11.7511 22.6609C11.0599 22.2562 10.2522 22.1434 9.47786 22.3467C9.36143 22.3781 9.2487 22.4169 9.13781 22.4595C9.05649 21.9327 8.97517 21.4042 8.8994 20.8793C8.72752 19.6965 9.50928 18.5765 10.6791 18.3289ZM9.8327 23.6958C10.6865 23.4722 11.5625 23.986 11.788 24.8417L15.8095 40.2051C14.8633 40.2532 13.7452 40.3863 12.6252 40.6949L8.68871 25.653C8.46324 24.7973 8.97702 23.9213 9.8327 23.6958ZM5.51548 29.8409C5.73172 29.4712 6.07731 29.207 6.49129 29.0998C6.90712 28.9907 7.33774 29.0499 7.70736 29.2679C8.07514 29.4823 8.33757 29.8261 8.44661 30.2401L11.302 41.1514C11.1393 41.2198 10.9785 41.2918 10.8214 41.3695C9.86597 41.8426 9.099 42.4506 8.49466 43.079L5.34731 31.0551C5.24011 30.6411 5.29925 30.2105 5.51548 29.8409ZM11.6586 62.1239L11.3981 60.0337L23.579 58.509C23.5809 58.5071 23.5846 58.5071 23.5883 58.5071L25.2146 58.3038L25.4752 60.394L11.6586 62.1239ZM30.4356 38.7229C29.4136 45.7052 28.277 50.8245 27.3141 52.765C26.2976 54.8146 24.5623 56.2653 23.2371 57.1469L10.7789 58.7049C9.56103 58.0691 8.50575 57.1561 7.63898 55.9881C5.43602 53.0145 3.31807 43.1178 2.50859 39.0002C2.33856 38.1315 2.87636 37.274 3.73389 37.0485C4.17005 36.9358 4.62469 36.9986 5.01095 37.2241C5.39905 37.4514 5.67627 37.8155 5.78901 38.2517C5.78901 38.2517 5.78901 38.2517 5.79086 38.2517L7.40796 44.441C6.75558 45.4335 6.49129 46.2411 6.47096 46.3095C6.35453 46.6754 6.55598 47.0654 6.92191 47.1837C6.99398 47.2058 7.06421 47.2169 7.13444 47.2169C7.43014 47.2169 7.70366 47.0284 7.79977 46.7327C7.80716 46.705 8.72383 43.9642 11.4406 42.6206C14.2497 41.2308 18.0587 41.6319 18.0975 41.6356C18.4782 41.6781 18.8238 41.4027 18.8682 41.0183C18.9088 40.6376 18.6335 40.292 18.2528 40.2476C18.201 40.2439 17.8277 40.2033 17.2455 40.1867L13.9115 27.4494C13.8782 27.3163 13.8598 27.1796 13.8598 27.0465C13.8598 26.335 14.3384 25.6844 15.0573 25.4959C15.4713 25.3869 15.9038 25.446 16.2734 25.6623C16.6412 25.8785 16.9036 26.2259 17.0145 26.6399L21.7568 44.7645C21.6718 44.8421 21.5849 44.9234 21.4962 45.0047C20.6165 45.816 19.6185 46.7346 18.7536 48.0744C17.1254 50.5971 16.8038 52.7243 16.789 52.8149C16.7354 53.1956 16.9979 53.5467 17.3786 53.6022C17.7612 53.6613 18.1123 53.3952 18.1696 53.0145C18.1714 52.9979 18.4745 51.0813 19.9253 48.8285C20.6941 47.6401 21.5831 46.8214 22.4406 46.0323C23.2667 45.2708 24.0485 44.5501 24.6177 43.5891C25.137 42.7112 25.6379 40.8446 26.1091 38.0447C26.2108 37.4403 26.5471 36.9192 27.0572 36.581C27.571 36.2428 28.1809 36.1356 28.776 36.2779C29.8867 36.544 30.6001 37.5956 30.4356 38.7229ZM32.4722 29.6209C31.3356 30.5709 30.0475 31.6465 28.9016 33.247C28.532 33.7626 28.1883 34.3004 27.8759 34.8493C27.3123 34.9121 26.7671 35.1006 26.2884 35.4185C25.4623 35.9637 24.8949 36.8379 24.7323 37.8137C24.1538 41.2641 23.6604 42.4672 23.4183 42.8775C23.2649 43.1344 23.0893 43.3728 22.8952 43.6038L18.4376 26.5697C18.9033 26.2481 19.3967 25.9709 19.9105 25.7491C23.5402 24.1671 28.3121 24.9064 28.3601 24.9138C28.7409 24.9747 29.0975 24.716 29.1604 24.3353C29.2214 23.9564 28.9626 23.596 28.5819 23.5351C28.5191 23.5258 28.0072 23.4464 27.2199 23.3891L23.8101 7.19025C23.7786 7.04056 23.7639 6.89086 23.7639 6.74116C23.7639 6.32348 23.884 5.91505 24.1169 5.55651C24.4347 5.0723 24.9208 4.73779 25.49 4.61951C26.6617 4.37187 27.8149 5.12405 28.0626 6.29576L32.8954 29.2679C32.7568 29.3844 32.6182 29.5027 32.4722 29.6209ZM83.0886 28.5361C83.51 28.6248 83.8685 28.8706 84.1014 29.2291C84.3361 29.5877 84.4156 30.0146 84.3269 30.436L81.7691 42.5966C81.1333 42.0015 80.3386 41.4286 79.3628 41.0035C79.2002 40.9333 79.0357 40.8686 78.8712 40.8076L81.1925 29.7743C81.3736 28.9094 82.2256 28.355 83.0886 28.5361ZM77.5923 24.5423C77.7753 23.6774 78.6254 23.1211 79.4903 23.304C80.3553 23.4852 80.9115 24.3353 80.7286 25.2002L79.8267 29.486C79.8267 29.486 79.8267 29.486 79.8267 29.4879L77.5276 40.4158C76.3929 40.1626 75.2692 40.085 74.323 40.0832L77.5923 24.5423ZM59.3957 13.5829C59.453 13.095 59.6951 12.6589 60.0795 12.3558C60.4639 12.0508 60.9426 11.9141 61.4323 11.9695C62.4359 12.0878 63.1585 13.0008 63.042 14.0043L62.1438 21.7442L61.4508 27.7285C60.6801 27.113 59.7284 26.5401 58.5714 26.1575C58.3681 26.091 58.163 26.0319 57.956 25.9783L59.3957 13.5829ZM54.9195 8.20487C55.036 7.1995 55.9489 6.47688 56.9543 6.59331C57.9597 6.70974 58.6842 7.62272 58.5659 8.62994L56.5847 25.7122C55.2614 25.5347 53.9622 25.568 52.8921 25.6678L54.9195 8.20487ZM38.364 21.0586C38.5378 20.262 39.0183 19.5967 39.7187 19.1827C40.4173 18.7651 41.2323 18.6616 42.0141 18.8889C43.4667 19.3121 44.3446 20.7518 44.0526 22.2358C43.8068 23.4852 43.5573 24.7049 43.3041 25.8859C43.1414 25.4165 42.9751 24.9156 42.8051 24.3797C42.4817 23.3595 41.7424 22.5112 40.7758 22.051C39.9738 21.6666 39.0608 21.5779 38.2033 21.7812C38.2568 21.5446 38.3104 21.3062 38.364 21.0586ZM45.1319 52.0239C43.901 52.6097 42.21 54.2176 42.4336 57.2873C42.4927 58.0709 42.7589 58.9063 43.1525 59.749C42.6369 60.3368 41.6519 61.5805 40.9145 63.2328C38.9776 56.0454 36.5473 46.9988 36.0151 44.8901C37.5693 43.8884 39.2068 42.4691 40.3619 40.5249C40.6317 41.0534 40.8978 41.5173 41.1547 41.8906C42.356 43.6426 44.0008 44.8273 45.507 45.6127C45.4719 46.2873 45.3777 47.971 45.1319 52.0239ZM54.2653 54.8238C50.7114 54.8238 47.4882 52.8241 46.5198 52.1643C46.6381 50.2257 46.7379 48.542 46.81 47.3149C46.834 46.9046 46.8525 46.5424 46.871 46.243C48.2626 46.8066 49.316 47.0062 49.4121 47.0247C49.4565 47.0321 49.4971 47.0358 49.5396 47.0358C49.8686 47.0358 50.1625 46.7992 50.2253 46.4629C50.2937 46.084 50.0423 45.7218 49.6635 45.6516C49.6154 45.6442 44.7881 44.7238 42.3061 41.1033C40.9533 39.1295 38.9185 33.7145 36.7266 26.2481C36.3607 25.0099 36.9946 23.7162 38.1996 23.2412C38.8464 22.9862 39.5487 23.0102 40.177 23.3096C40.8036 23.609 41.2656 24.1375 41.4763 24.7992C42.417 27.7747 43.2468 29.7244 43.9454 30.5949C44.7068 31.5485 45.666 32.2083 46.6806 32.9087C47.7414 33.6425 48.8411 34.3983 49.8668 35.5848C51.8091 37.8303 52.4357 39.8854 52.4412 39.9057C52.5502 40.2754 52.9383 40.4861 53.308 40.377C53.6776 40.2698 53.8883 39.8817 53.7811 39.5121C53.7534 39.4178 53.0751 37.1631 50.9202 34.6719C49.7781 33.3523 48.5527 32.5059 47.4716 31.7611C47.3515 31.676 47.2313 31.5947 47.1149 31.5134L49.4971 10.9734C49.5544 10.4855 49.7984 10.0512 50.1809 9.74621C50.5672 9.43942 51.044 9.30451 51.5319 9.3618C52.0198 9.41724 52.456 9.65935 52.7609 10.0456C53.0659 10.4282 53.2008 10.9087 53.1435 11.3966L51.4672 25.8526C50.8093 25.9653 50.3898 26.0688 50.3343 26.0836C49.961 26.1797 49.7374 26.5586 49.8335 26.9319C49.9277 27.3052 50.3085 27.5307 50.6818 27.4346C50.7224 27.4235 54.8345 26.3941 58.1334 27.4827C61.3344 28.5398 62.7648 31.4155 62.7796 31.4413C62.8997 31.6908 63.1492 31.8368 63.408 31.8368C63.5096 31.8368 63.6131 31.8147 63.7111 31.7666C64.0567 31.6021 64.2027 31.1844 64.0363 30.8388C64.0031 30.7686 63.5872 29.9222 62.7149 28.9353L63.5299 21.905C63.5909 21.3968 63.8441 20.9384 64.247 20.6187C64.6499 20.299 65.1526 20.1567 65.6627 20.2158C66.6718 20.3323 67.4165 21.2175 67.363 22.2284C67.1707 25.8119 66.6292 33.7533 65.4095 38.6398C65.3707 38.4753 65.3319 38.3034 65.2931 38.1278C65.0824 37.1631 64.4743 36.3167 63.6242 35.8103C62.7741 35.3058 61.741 35.1745 60.7892 35.4518C58.9946 35.9729 57.9153 37.749 58.2739 39.5805C58.6213 41.3473 59.1092 43.6944 59.6729 46.0212C58.5991 46.5035 57.8137 46.6163 57.8063 46.6163C57.4237 46.6662 57.1539 47.0155 57.2057 47.398C57.25 47.7492 57.5494 48.0061 57.895 48.0061C57.9246 48.0061 57.9542 48.0042 57.9856 47.9987C58.0281 47.9931 58.8616 47.8804 60.0148 47.3943C60.5138 49.3275 61.059 51.1608 61.6097 52.5377C60.5323 53.2178 57.6363 54.8238 54.2653 54.8238ZM87.55 38.2332C86.9401 42.3841 85.3064 52.3732 83.2513 55.4503C82.39 56.7403 81.2997 57.7494 80.0134 58.4535C78.363 59.3572 76.9492 59.4293 76.9399 59.4293C76.611 59.4423 76.3356 59.6807 76.2783 60.0041C76.2487 60.1667 73.325 75.7815 63.0199 82.8617C63.4209 80.4813 64.2304 75.6854 65.0362 70.8877C65.6017 67.5093 66.1691 64.1272 66.5886 61.5879C66.7993 60.3201 66.9748 59.2611 67.095 58.5182C67.1061 58.4535 67.1135 58.3962 67.1245 58.3371C68.3092 58.9396 69.2166 59.202 69.3016 59.226C69.3645 59.2445 69.4273 59.2519 69.4901 59.2519C69.7951 59.2519 70.0742 59.0505 70.161 58.7437C70.2645 58.3722 70.0483 57.9859 69.6786 57.8824C69.6361 57.8695 65.3651 56.6313 63.4412 53.1864C62.3878 51.2957 61.0017 46.2393 59.6433 39.3125C59.4234 38.1944 60.0832 37.1095 61.181 36.7917C61.7687 36.6179 62.3841 36.6974 62.9127 37.0097C63.4375 37.3239 63.8016 37.8266 63.931 38.4254C64.5372 41.2013 65.1286 43.0402 65.6886 43.8903C66.304 44.8236 67.1208 45.5037 67.9839 46.2263C68.8784 46.973 69.8062 47.7455 70.6286 48.8969C72.1921 51.0758 72.5839 52.9738 72.5876 52.9905C72.6615 53.3693 73.0275 53.617 73.4063 53.5412C73.7833 53.4691 74.031 53.1032 73.9571 52.7243C73.9404 52.6356 73.5135 50.5269 71.7633 48.0837C70.8356 46.7882 69.7951 45.9214 68.8766 45.1526C68.7842 45.0768 68.6936 44.9992 68.603 44.9252L72.4619 26.5919C72.643 25.7269 73.4932 25.1725 74.3581 25.3536C74.7776 25.4423 75.1362 25.6881 75.3709 26.0467C75.6056 26.4033 75.6851 26.8321 75.5963 27.2516L72.887 40.1349C72.3067 40.1811 71.9352 40.2384 71.8872 40.2458C71.5064 40.3068 71.2477 40.6653 71.3087 41.046C71.3697 41.4249 71.7282 41.6855 72.1071 41.6227C72.1459 41.6171 75.9235 41.0276 78.8047 42.2824C81.5843 43.493 82.6303 46.1875 82.6414 46.2115C82.7449 46.4925 83.011 46.6662 83.2956 46.6662C83.3751 46.6662 83.4564 46.6514 83.5377 46.6218C83.8981 46.4869 84.0811 46.0859 83.9462 45.7255C83.9221 45.659 83.619 44.8661 82.9205 43.9032L84.2363 37.6436C84.2825 37.4237 84.3712 37.2204 84.4932 37.0393C84.617 36.86 84.776 36.7048 84.9626 36.581C85.3397 36.3352 85.7906 36.252 86.2286 36.3444C87.0972 36.5255 87.6775 37.3553 87.55 38.2332Z" fill="white"/>
</g>
</svg>
