<svg width="109" height="109" viewBox="0 0 109 109" fill="none" xmlns="http://www.w3.org/2000/svg">
<mask id="mask0_395_1128" style="mask-type:luminance" maskUnits="userSpaceOnUse" x="-1" y="0" width="73" height="72">
<path d="M-0.00390625 0.0766602H71.2867V71.8023H-0.00390625V0.0766602Z" fill="white"/>
</mask>
<g mask="url(#mask0_395_1128)">
<path d="M5.7115 71.6843C4.36468 71.6942 3.02032 71.6376 1.67841 71.5123C1.45476 71.5025 1.24094 71.4509 1.03695 71.3575C0.83296 71.2641 0.656006 71.1338 0.503628 70.9691C0.35125 70.8045 0.235739 70.6152 0.15955 70.4063C0.080903 70.195 0.0464952 69.9762 0.056326 69.7526C0.0661568 69.5289 0.117768 69.3151 0.211161 69.1111C0.304554 68.9071 0.434812 68.7302 0.599479 68.5778C0.764145 68.4254 0.950931 68.3099 1.16229 68.2313C1.37366 68.1551 1.58993 68.1207 1.81358 68.128C5.76803 68.0052 10.7965 59.8407 11.1504 55.6306C10.7252 55.1047 10.3148 54.5689 9.91909 54.0184C9.52586 53.4703 9.14738 52.9099 8.78855 52.3373C8.42727 51.7646 8.08319 51.1846 7.75877 50.5923C7.4319 50 7.12468 49.3979 6.83467 48.7859C6.54467 48.1764 6.27432 47.5571 6.02117 46.9303C5.76803 46.3036 5.53455 45.6695 5.32073 45.0281C5.10691 44.3866 4.91029 43.7402 4.7358 43.0865C4.55884 42.4352 4.40401 41.7765 4.26637 41.1154C4.1312 40.4518 4.01323 39.7858 3.91738 39.1173C3.82153 38.4488 3.74288 37.7779 3.68636 37.1044C3.63229 36.4286 3.59542 35.7552 3.57822 35.0793C3.56347 34.4034 3.56839 33.7276 3.59296 33.0517C3.61754 32.3758 3.66178 31.7024 3.72568 31.029C3.79204 30.3556 3.8756 29.6871 3.98128 29.0186C4.08696 28.3501 4.2123 27.6865 4.35731 27.0254C4.50231 26.3667 4.66698 25.7105 4.85131 25.0592C5.03318 24.4104 5.23717 23.764 5.46082 23.1275C5.68447 22.4885 5.92532 21.8568 6.18584 21.2326C6.44636 20.6108 6.72654 19.9939 7.02392 19.3869C7.3213 18.7798 7.63589 18.1826 7.97013 17.5952C8.30192 17.0053 8.65338 16.4278 9.02203 15.8625C9.38823 15.2948 9.77409 14.7393 10.1747 14.1937C10.5753 13.6506 10.9931 13.1197 11.4257 12.5987C11.8582 12.0801 12.308 11.5738 12.77 11.0823C13.2345 10.5907 13.7113 10.1115 14.2029 9.64943C14.6944 9.18492 15.2007 8.73762 15.7193 8.3026C16.2379 7.87005 16.7712 7.45224 17.3143 7.05163C17.8575 6.64857 18.4129 6.26517 18.9806 5.89651C19.5459 5.52786 20.1235 5.1764 20.7133 4.84216C21.3007 4.51037 21.8979 4.19332 22.505 3.89594C23.1121 3.59856 23.7265 3.31838 24.3507 3.05786C24.975 2.79735 25.6042 2.55403 26.2432 2.33038C26.8822 2.10919 27.5261 1.9052 28.1749 1.72087C28.8262 1.53409 29.4824 1.36942 30.1411 1.22442C30.8022 1.07941 31.4658 0.954068 32.1343 0.848386C32.8028 0.742705 33.4713 0.656686 34.1447 0.592785C34.8181 0.526427 35.4915 0.482188 36.1674 0.457611C36.8432 0.433034 37.5191 0.428119 38.195 0.442865C38.8709 0.457612 39.5443 0.494477 40.2201 0.551004C40.8935 0.605074 41.5645 0.681263 42.233 0.777113C42.9015 0.875421 43.5675 0.990933 44.2311 1.12611C44.8922 1.26374 45.5509 1.41857 46.2022 1.59307C46.8559 1.77003 47.5023 1.96418 48.1438 2.178C48.7852 2.39182 49.4193 2.62531 50.046 2.87845C50.6727 3.13159 51.2921 3.40194 51.9041 3.68949C52.516 3.9795 53.1157 4.28671 53.7105 4.61359C54.3028 4.93801 54.8853 5.28209 55.4554 5.64091C56.0281 6.00219 56.5884 6.37822 57.139 6.77145C57.687 7.16714 58.2253 7.57512 58.7488 8.00276C59.2747 8.42795 59.7859 8.87033 60.2848 9.32747C60.7837 9.78214 61.2679 10.254 61.7373 10.7406C62.2092 11.2273 62.6639 11.7262 63.1038 12.2374C63.5437 12.751 63.9689 13.277 64.3769 13.8152C64.7849 14.3535 65.1781 14.904 65.5541 15.4668C65.9302 16.0272 66.289 16.5998 66.6306 17.1847C66.9722 17.7672 67.2942 18.362 67.6014 18.9641C67.9062 19.5663 68.1937 20.1782 68.4641 20.7976C68.732 21.4194 68.9826 22.0461 69.2161 22.6802C69.4472 23.3167 69.6585 23.9582 69.8527 24.6046C70.0468 25.2534 70.2189 25.9071 70.3737 26.5658C70.5285 27.222 70.6613 27.8856 70.7768 28.5516C70.8923 29.2177 70.9857 29.8862 71.0594 30.5596C71.1331 31.2305 71.1897 31.9039 71.2216 32.5798C71.256 33.2557 71.2708 33.9291 71.2634 34.605C71.256 35.2833 71.2314 35.9567 71.1847 36.6326C71.1356 37.306 71.0692 37.9794 70.9832 38.6479C70.8947 39.3188 70.7891 39.9873 70.6613 40.6509C70.5335 41.3145 70.386 41.9732 70.2189 42.6294C70.0542 43.2856 69.8674 43.9344 69.661 44.5783C69.4545 45.2222 69.2309 45.8588 68.9876 46.4904C68.7442 47.1196 68.4813 47.7438 68.1986 48.3583C67.9185 48.9727 67.6186 49.5773 67.3016 50.1745C66.9845 50.7717 66.6503 51.3591 66.2964 51.9367C65.9449 52.5118 65.5738 53.0795 65.188 53.6325C64.8021 54.1879 64.399 54.7311 63.9788 55.262C63.5609 55.7904 63.1259 56.3089 62.6762 56.8128C62.2264 57.3166 61.7619 57.8081 61.2827 58.2849C60.8034 58.7617 60.3094 59.2238 59.8031 59.6711C59.2944 60.1184 58.7758 60.5485 58.2425 60.9663C57.7092 61.3816 57.1635 61.7798 56.6081 62.1632C56.0502 62.5466 55.4825 62.9128 54.9049 63.2618C54.3249 63.6108 53.735 63.9426 53.1378 64.2572C52.5381 64.5717 51.9311 64.8667 51.3142 65.1444C50.6973 65.4221 50.0731 65.6802 49.4414 65.921C48.8098 66.1619 48.1708 66.3831 47.5269 66.5846C46.8805 66.7861 46.2317 66.968 45.5755 67.1327C44.9193 67.2949 44.2581 67.4374 43.5946 67.5603C42.9285 67.6857 42.26 67.7889 41.5891 67.8724C40.9181 67.9535 40.2472 68.0174 39.5713 68.0617C38.8979 68.1035 38.222 68.1256 37.5462 68.128C36.8703 68.1305 36.1944 68.1133 35.5185 68.0764C34.8451 68.0371 34.1717 67.9806 33.4983 67.9019C32.8274 67.8233 32.1589 67.725 31.4928 67.607C30.8292 67.489 30.1657 67.3514 29.5095 67.1917C28.8532 67.0344 28.1995 66.8574 27.5531 66.6608C26.9067 66.4642 26.2653 66.2479 25.6337 66.012C24.1787 67 22.6525 67.8675 21.0599 68.6147C19.4648 69.3594 17.8231 69.9713 16.1297 70.453C14.4364 70.9372 12.7184 71.2813 10.971 71.4877C9.22356 71.6942 7.46876 71.7581 5.7115 71.6843ZM37.3889 3.85662C35.9437 3.85662 34.506 3.95738 33.078 4.16137C31.6477 4.36536 30.2394 4.66766 28.8532 5.07318C27.4671 5.47624 26.1154 5.97761 24.8005 6.57238C23.4856 7.1696 22.2199 7.8553 21.0033 8.63439C19.7868 9.41103 18.6292 10.2688 17.5355 11.2101C16.4394 12.1514 15.417 13.1664 14.4658 14.2527C13.5147 15.339 12.6471 16.4892 11.8607 17.6984C11.0718 18.9101 10.3762 20.1709 9.76672 21.4808C9.15966 22.7908 8.64846 24.1376 8.23311 25.5188C7.81776 26.9025 7.50071 28.3083 7.28443 29.7362C7.06816 31.1642 6.9551 32.5995 6.94527 34.0421C6.93298 35.4873 7.02392 36.925 7.21808 38.3554C7.40978 39.7858 7.7047 41.1965 8.09793 42.5851C8.49363 43.9737 8.98271 45.3304 9.5701 46.6477C10.1575 47.9675 10.8358 49.2381 11.6026 50.4621C12.3719 51.6835 13.2222 52.846 14.1562 53.9495C14.4118 54.2543 14.5445 54.6058 14.5543 55.0039C14.2717 57.4936 13.5884 59.8702 12.5071 62.1312C11.4257 64.3923 10.0027 66.415 8.24294 68.1969C11.1185 68.1895 13.9202 67.725 16.6458 66.8058C19.369 65.8842 21.8783 64.557 24.1713 62.8194C24.4097 62.5958 24.6899 62.4581 25.0119 62.4016C25.3314 62.3426 25.6435 62.377 25.9433 62.5048C26.4619 62.7137 26.9854 62.9103 27.5163 63.0922C28.0447 63.2741 28.578 63.4412 29.1162 63.5936C29.6545 63.746 30.1976 63.8836 30.7432 64.0065C31.2888 64.1294 31.8394 64.2375 32.3899 64.3284C32.9429 64.4218 33.4983 64.498 34.0538 64.5595C34.6092 64.6234 35.1671 64.6676 35.725 64.6995C36.2853 64.7315 36.8432 64.7462 37.4036 64.7462C37.964 64.7462 38.5219 64.7315 39.0822 64.6995C39.6401 64.6701 40.198 64.6234 40.7535 64.5619C41.3113 64.5005 41.8643 64.4243 42.4173 64.3333C42.9678 64.24 43.5184 64.1343 44.064 64.0114C44.6096 63.8885 45.1527 63.7509 45.691 63.5985C46.2292 63.4461 46.7625 63.279 47.2934 63.0996C47.8218 62.9177 48.3453 62.7211 48.8639 62.5097C49.3825 62.3008 49.8961 62.0747 50.4024 61.8363C50.9087 61.5979 51.4076 61.3448 51.8991 61.0793C52.3907 60.8115 52.8773 60.5337 53.3541 60.2388C53.8309 59.9463 54.2979 59.6416 54.7575 59.3221C55.217 59.0026 55.6693 58.6708 56.1116 58.3267C56.5516 57.9851 56.9841 57.6287 57.4069 57.2601C57.8296 56.8939 58.24 56.5154 58.6406 56.1246C59.0412 55.7338 59.432 55.3332 59.8105 54.9203C60.1914 54.5099 60.5576 54.0872 60.914 53.6546C61.2704 53.2245 61.612 52.7821 61.9438 52.3324C62.2756 51.8802 62.5951 51.4206 62.8998 50.9511C63.207 50.4842 63.4995 50.0074 63.7797 49.5232C64.0599 49.0366 64.3253 48.5451 64.5784 48.0461C64.8316 47.5472 65.07 47.0409 65.2936 46.5273C65.5197 46.0161 65.7286 45.4975 65.9253 44.974C66.1219 44.4481 66.3037 43.9197 66.4709 43.3863C66.638 42.8506 66.7904 42.3123 66.928 41.7692C67.0632 41.2285 67.1861 40.6829 67.2942 40.1323C67.3999 39.5843 67.4933 39.0313 67.5695 38.4758C67.6457 37.9229 67.7071 37.3674 67.7538 36.8095C67.8005 36.2516 67.83 35.6913 67.8447 35.1334C67.8619 34.573 67.8619 34.0151 67.8447 33.4548C67.83 32.8944 67.798 32.3365 67.7538 31.7786C67.7071 31.2207 67.6457 30.6653 67.567 30.1098C67.4908 29.5568 67.3974 29.0038 67.2917 28.4558C67.1836 27.9053 67.0607 27.3596 66.9231 26.8165C66.7855 26.2758 66.6331 25.7376 66.466 25.2018C66.2988 24.6685 66.117 24.1401 65.9203 23.6166C65.7237 23.0906 65.5124 22.572 65.2887 22.0608C65.0626 21.5472 64.8242 21.0433 64.5711 20.5444C64.3179 20.0431 64.0525 19.5515 63.7723 19.0673C63.4921 18.5832 63.1997 18.1064 62.8925 17.637C62.5852 17.17 62.2657 16.7104 61.9339 16.2582C61.6046 15.8084 61.2605 15.366 60.9042 14.9359C60.5478 14.5034 60.1791 14.0807 59.8007 13.6702C59.4222 13.2598 59.0314 12.8567 58.6308 12.4684C58.2277 12.0776 57.8173 11.6992 57.3946 11.333C56.9718 10.9643 56.5393 10.6079 56.0969 10.2663C55.657 9.92223 55.2048 9.59044 54.7452 9.2734C54.2856 8.95389 53.8162 8.64914 53.3394 8.35422C52.8626 8.06175 52.3784 7.78403 51.8844 7.51614C51.3929 7.25071 50.8939 6.99756 50.3877 6.75917C49.8814 6.52077 49.3677 6.29712 48.8491 6.08821C48.3306 5.87685 47.8071 5.68023 47.2787 5.50082C46.7478 5.31895 46.2145 5.15183 45.6762 4.99945C45.138 4.84707 44.5948 4.7119 44.0492 4.58901C43.5012 4.46613 42.9531 4.36045 42.4001 4.26951C41.8496 4.17612 41.2941 4.09993 40.7387 4.03849C40.1808 3.97704 39.6254 3.93281 39.065 3.90086C38.5071 3.87136 37.9468 3.85662 37.3889 3.85662Z" fill="white"/>
</g>
<path d="M37.3866 51.2166C36.8311 51.2166 36.2782 51.1871 35.7276 51.133C35.1771 51.0789 34.629 50.9978 34.0859 50.8897C33.5427 50.7816 33.0069 50.6488 32.4761 50.4866C31.9452 50.3269 31.4242 50.1401 30.913 49.9287C30.4018 49.7149 29.9004 49.479 29.4113 49.2185C28.9247 48.9579 28.4504 48.6729 27.9883 48.3656C27.5287 48.056 27.0839 47.7266 26.6562 47.3752C26.2261 47.0237 25.8182 46.6526 25.4249 46.2618C25.0342 45.8686 24.663 45.4606 24.3116 45.0305C23.9601 44.6029 23.6308 44.158 23.3211 43.6985C23.0139 43.2389 22.7288 42.7645 22.4683 42.2754C22.2078 41.7864 21.9719 41.285 21.758 40.7738C21.5467 40.2626 21.3599 39.7416 21.2001 39.2107C21.0404 38.6823 20.9052 38.144 20.7971 37.6009C20.6889 37.0577 20.6078 36.5097 20.5538 35.9591C20.4997 35.4086 20.4727 34.8556 20.4727 34.3027C20.4727 33.7472 20.4997 33.1942 20.5538 32.6437C20.6078 32.0932 20.6889 31.5451 20.7971 31.002C20.9052 30.4588 21.0404 29.923 21.2001 29.3922C21.3599 28.8613 21.5467 28.3403 21.758 27.8291C21.9719 27.3179 22.2078 26.8165 22.4683 26.3274C22.7288 25.8408 23.0139 25.3664 23.3211 24.9044C23.6308 24.4448 23.9601 24 24.3116 23.5723C24.663 23.1447 25.0342 22.7342 25.4249 22.341C25.8182 21.9502 26.2261 21.5791 26.6562 21.2277C27.0839 20.8762 27.5287 20.5469 27.9883 20.2372C28.4504 19.93 28.9247 19.6474 29.4113 19.3844C29.9004 19.1239 30.4018 18.8879 30.913 18.6766C31.4242 18.4627 31.9452 18.276 32.4761 18.1162C33.0069 17.9565 33.5427 17.8213 34.0859 17.7131C34.629 17.605 35.1771 17.5239 35.7276 17.4698C36.2782 17.4158 36.8311 17.3887 37.3866 17.3887C37.9396 17.3887 38.4925 17.4158 39.0431 17.4698C39.5936 17.5239 40.1417 17.605 40.6848 17.7131C41.228 17.8213 41.7662 17.9565 42.2946 18.1162C42.8255 18.276 43.3465 18.4627 43.8577 18.6766C44.3689 18.8879 44.8703 19.1239 45.3594 19.3844C45.846 19.6474 46.3228 19.93 46.7824 20.2372C47.242 20.5469 47.6868 20.8762 48.1145 21.2277C48.5446 21.5791 48.9525 21.9502 49.3458 22.341C49.7365 22.7342 50.1077 23.1447 50.4591 23.5723C50.8106 24 51.1399 24.4448 51.4496 24.9044C51.7568 25.3664 52.0419 25.8408 52.3024 26.3274C52.5629 26.8165 52.7988 27.3179 53.0127 27.8291C53.224 28.3403 53.4108 28.8613 53.5706 29.3922C53.7328 29.923 53.8655 30.4588 53.9736 31.002C54.0818 31.5451 54.1629 32.0932 54.2169 32.6437C54.271 33.1942 54.298 33.7472 54.298 34.3027C54.298 34.8556 54.271 35.4086 54.2169 35.9591C54.1604 36.5097 54.0793 37.0577 53.9712 37.6009C53.863 38.144 53.7279 38.6798 53.5656 39.2082C53.4059 39.7391 53.2191 40.2601 53.0053 40.7713C52.7939 41.2825 52.558 41.7814 52.295 42.2705C52.0345 42.7596 51.7494 43.234 51.4422 43.6935C51.135 44.1531 50.8056 44.598 50.4542 45.0256C50.1027 45.4533 49.7316 45.8637 49.3384 46.2545C48.9476 46.6477 48.5372 47.0188 48.1095 47.3703C47.6819 47.7217 47.2371 48.0511 46.7775 48.3583C46.3179 48.6655 45.8435 48.9506 45.3545 49.2111C44.8654 49.4741 44.3665 49.71 43.8553 49.9214C43.3441 50.1352 42.823 50.322 42.2922 50.4817C41.7638 50.6439 41.228 50.7791 40.6848 50.8872C40.1417 50.9954 39.5936 51.0765 39.0431 51.133C38.4925 51.1871 37.9396 51.2141 37.3866 51.2166ZM37.3866 20.7705C36.9417 20.7705 36.4993 20.7927 36.0594 20.8369C35.617 20.8787 35.1796 20.945 34.7445 21.0311C34.312 21.1171 33.8819 21.2252 33.4567 21.353C33.034 21.4808 32.6162 21.6307 32.2082 21.8003C31.7978 21.9699 31.3972 22.1591 31.0064 22.368C30.6156 22.5769 30.2371 22.8055 29.8685 23.0513C29.4998 23.2971 29.1434 23.56 28.8018 23.8427C28.4577 24.1228 28.1309 24.4202 27.8187 24.7348C27.5041 25.0469 27.2068 25.3763 26.9266 25.7179C26.644 26.0595 26.381 26.4159 26.1352 26.7845C25.8894 27.1532 25.6609 27.5317 25.452 27.9225C25.2431 28.3132 25.0538 28.7138 24.8842 29.1243C24.7147 29.5323 24.5647 29.9501 24.4369 30.3728C24.3091 30.798 24.201 31.2281 24.115 31.6631C24.029 32.0956 23.9626 32.5356 23.9208 32.9755C23.8766 33.4154 23.8545 33.8578 23.8545 34.3027C23.8545 34.745 23.8766 35.1874 23.9208 35.6274C23.9626 36.0697 24.029 36.5072 24.115 36.9422C24.201 37.3772 24.3091 37.8049 24.4369 38.2301C24.5647 38.6528 24.7147 39.0706 24.8842 39.4786C25.0538 39.889 25.2431 40.2896 25.452 40.6804C25.6609 41.0712 25.8894 41.4497 26.1352 41.8183C26.381 42.187 26.644 42.5433 26.9266 42.885C27.2068 43.229 27.5041 43.5559 27.8187 43.8705C28.1309 44.1826 28.4577 44.48 28.8018 44.7602C29.1434 45.0428 29.4998 45.3058 29.8685 45.5516C30.2371 45.7973 30.6156 46.0259 31.0064 46.2348C31.3972 46.4437 31.7978 46.633 32.2082 46.8025C32.6162 46.9721 33.034 47.122 33.4567 47.2498C33.8819 47.3776 34.312 47.4858 34.7445 47.5718C35.1796 47.6603 35.617 47.7242 36.0594 47.7684C36.4993 47.8102 36.9417 47.8323 37.3866 47.8323C37.829 47.8323 38.2714 47.8102 38.7113 47.7684C39.1537 47.7242 39.5911 47.6603 40.0262 47.5718C40.4587 47.4858 40.8888 47.3776 41.314 47.2498C41.7367 47.122 42.1545 46.9721 42.5625 46.8025C42.9729 46.633 43.3735 46.4437 43.7643 46.2348C44.1551 46.0259 44.5336 45.7973 44.9022 45.5516C45.2709 45.3058 45.6273 45.0428 45.9689 44.7602C46.313 44.48 46.6398 44.1826 46.9544 43.8705C47.2665 43.5559 47.5639 43.229 47.8441 42.885C48.1267 42.5433 48.3897 42.187 48.6355 41.8183C48.8813 41.4497 49.1098 41.0712 49.3187 40.6804C49.5276 40.2896 49.7169 39.889 49.8865 39.4786C50.056 39.0706 50.206 38.6528 50.3338 38.2301C50.4616 37.8049 50.5697 37.3772 50.6557 36.9422C50.7417 36.5072 50.8081 36.0697 50.8523 35.6274C50.8941 35.1874 50.9162 34.745 50.9162 34.3027C50.9162 33.8578 50.8941 33.4154 50.8523 32.9755C50.8081 32.5356 50.7417 32.0956 50.6557 31.6631C50.5697 31.2281 50.4616 30.798 50.3338 30.3728C50.206 29.9501 50.056 29.5323 49.8865 29.1243C49.7169 28.7138 49.5276 28.3132 49.3187 27.9225C49.1098 27.5317 48.8813 27.1532 48.6355 26.7845C48.3897 26.4159 48.1267 26.0595 47.8441 25.7179C47.5639 25.3763 47.2665 25.0469 46.9544 24.7348C46.6398 24.4202 46.313 24.1228 45.9689 23.8427C45.6273 23.56 45.2709 23.2971 44.9022 23.0513C44.5336 22.8055 44.1551 22.5769 43.7643 22.368C43.3735 22.1591 42.9729 21.9699 42.5625 21.8003C42.1545 21.6307 41.7367 21.4808 41.314 21.353C40.8888 21.2252 40.4587 21.1171 40.0262 21.0311C39.5911 20.945 39.1537 20.8787 38.7113 20.8369C38.2714 20.7927 37.829 20.7705 37.3866 20.7705Z" fill="white"/>
<path d="M49.2269 54.5982C48.76 54.5982 48.3594 54.4335 48.03 54.1042L34.4979 40.572C34.3406 40.4147 34.2177 40.2304 34.1317 40.024C34.0457 39.8151 34.0039 39.6012 34.0039 39.3751C34.0039 39.1515 34.0457 38.9352 34.1317 38.7288C34.2177 38.5199 34.3406 38.338 34.4979 38.1782C34.6577 38.0209 34.842 37.8981 35.0484 37.812C35.2549 37.726 35.4712 37.6842 35.6948 37.6842C35.9209 37.6818 36.1372 37.726 36.3436 37.812C36.5501 37.8981 36.7344 38.0185 36.8942 38.1782L50.4238 51.7079C50.6671 51.9512 50.822 52.2388 50.8883 52.5755C50.9547 52.9122 50.9227 53.2391 50.7925 53.5536C50.6598 53.8707 50.4533 54.1238 50.1682 54.3131C49.8831 54.5048 49.5685 54.5982 49.2269 54.5982Z" fill="white"/>
<mask id="mask1_395_1128" style="mask-type:luminance" maskUnits="userSpaceOnUse" x="37" y="38" width="72" height="71">
<path d="M37.3125 38.456H109.001V108.923H37.3125V38.456Z" fill="white"/>
</mask>
<g mask="url(#mask1_395_1128)">
<path d="M102.89 108.894C101.131 108.97 99.3782 108.904 97.6308 108.697C95.8834 108.491 94.163 108.147 92.4696 107.665C90.7787 107.181 89.1345 106.569 87.5395 105.824C85.9469 105.077 84.4207 104.212 82.9657 103.221C82.3808 103.438 81.7909 103.639 81.1961 103.824C80.6014 104.008 80.0017 104.175 79.3971 104.327C78.7925 104.48 78.1855 104.612 77.5735 104.73C76.9615 104.848 76.3471 104.949 75.7278 105.033C75.1109 105.116 74.4915 105.183 73.8697 105.232C73.2504 105.281 72.6286 105.313 72.0043 105.328C71.3825 105.342 70.7583 105.342 70.1365 105.323C69.5147 105.303 68.8929 105.266 68.2711 105.212C67.6493 105.158 67.0324 105.087 66.4155 104.998C65.7986 104.912 65.1842 104.807 64.5722 104.684C63.9627 104.563 63.3557 104.423 62.7511 104.268C62.1489 104.111 61.5493 103.939 60.9545 103.752C60.3622 103.563 59.7723 103.357 59.1899 103.135C58.6074 102.914 58.0323 102.678 57.4621 102.425C56.8944 102.172 56.3316 101.904 55.7761 101.619C55.2231 101.336 54.6751 101.037 54.1393 100.722C53.601 100.407 53.0702 100.078 52.5516 99.7339C52.0306 99.3923 51.5218 99.0335 51.0229 98.6624C50.5215 98.2913 50.0325 97.9054 49.5532 97.5048C49.0739 97.1067 48.607 96.6962 48.1523 96.271C47.6952 95.8459 47.2528 95.4084 46.8202 94.9586C46.3877 94.5113 45.9699 94.0493 45.5619 93.5774C45.1564 93.1055 44.7631 92.6213 44.3846 92.1273C44.0037 91.6333 43.64 91.1295 43.2861 90.6159C42.9346 90.0997 42.5979 89.5763 42.2759 89.0429C41.954 88.5096 41.6443 87.9689 41.3518 87.4184C41.0594 86.8703 40.7817 86.3124 40.5211 85.7471C40.2582 85.1819 40.0124 84.6092 39.7814 84.0292C39.5503 83.4517 39.3365 82.8667 39.1399 82.2744C38.9408 81.6846 38.759 81.0873 38.5943 80.4877C38.4296 79.888 38.2822 79.2809 38.1495 78.6739C38.0192 78.0644 37.9037 77.4524 37.8054 76.8355C37.771 76.6143 37.7808 76.3956 37.8324 76.1768C37.884 75.9581 37.9774 75.759 38.1101 75.5772C38.2404 75.3978 38.4026 75.2478 38.5943 75.1299C38.786 75.0144 38.9924 74.9382 39.2136 74.9038C39.4348 74.8669 39.6536 74.8767 39.8723 74.9283C40.091 74.9799 40.2901 75.0733 40.472 75.2061C40.6539 75.3363 40.8013 75.4985 40.9193 75.6902C41.0373 75.8819 41.1134 76.0859 41.1479 76.3096C41.2388 76.8724 41.3445 77.4327 41.4649 77.9882C41.5853 78.5461 41.723 79.0991 41.8753 79.6496C42.0277 80.2001 42.1948 80.7433 42.3792 81.284C42.561 81.8246 42.7601 82.358 42.9739 82.8888C43.1853 83.4172 43.4139 83.9383 43.6572 84.4544C43.898 84.9705 44.1561 85.4817 44.4264 85.9831C44.6968 86.4845 44.9819 86.9785 45.2817 87.4626C45.5816 87.9492 45.8937 88.426 46.2181 88.8955C46.545 89.3624 46.8817 89.822 47.2356 90.2693C47.587 90.7191 47.9508 91.159 48.3268 91.5867C48.7028 92.0168 49.0912 92.4321 49.4893 92.8401C49.8899 93.2481 50.3003 93.6413 50.7231 94.0272C51.1433 94.4106 51.5759 94.7817 52.0183 95.1405C52.4631 95.4993 52.9153 95.8459 53.3774 96.1801C53.8394 96.5144 54.3113 96.8363 54.7906 97.1435C55.2723 97.4507 55.7589 97.7432 56.2554 98.0234C56.7543 98.3036 57.2581 98.569 57.7693 98.8221C58.2805 99.0728 58.7991 99.3112 59.325 99.5324C59.851 99.7561 60.3818 99.9625 60.9176 100.154C61.4534 100.348 61.9966 100.525 62.5422 100.688C63.0902 100.85 63.6408 100.997 64.1962 101.127C64.7516 101.258 65.3095 101.373 65.8699 101.474C66.4327 101.575 66.9955 101.658 67.5633 101.725C68.1285 101.793 68.6963 101.845 69.2664 101.882C69.8342 101.919 70.4044 101.939 70.9746 101.941C71.5447 101.946 72.1149 101.934 72.6851 101.907C73.2553 101.88 73.823 101.835 74.3908 101.774C74.956 101.715 75.5213 101.639 76.0841 101.548C76.6469 101.454 77.2073 101.349 77.7652 101.226C78.3206 101.1 78.8736 100.963 79.4241 100.808C79.9722 100.653 80.5154 100.484 81.0561 100.299C81.5968 100.115 82.1301 99.9158 82.6585 99.6995C82.9583 99.5791 83.2704 99.5447 83.59 99.6012C83.9095 99.6578 84.1896 99.7954 84.4305 100.014C86.7211 101.754 89.2304 103.086 91.956 104.01C94.6816 104.934 97.4834 105.399 100.359 105.411C98.5967 103.627 97.1761 101.607 96.0947 99.3456C95.0134 97.0845 94.3301 94.7079 94.0475 92.2183C94.0549 91.8177 94.19 91.4662 94.4456 91.1615C94.8585 90.6773 95.2542 90.1784 95.6327 89.6672C96.0136 89.156 96.3749 88.6349 96.7239 88.1016C97.0705 87.5683 97.3998 87.0227 97.7119 86.4697C98.0265 85.9143 98.3214 85.3515 98.5992 84.7788C98.8769 84.2062 99.1349 83.6261 99.3758 83.0363C99.6166 82.4464 99.8403 81.8517 100.044 81.2495C100.248 80.645 100.433 80.0379 100.597 79.421C100.764 78.8066 100.909 78.1897 101.037 77.5654C101.163 76.9412 101.271 76.3145 101.357 75.6828C101.445 75.0537 101.512 74.422 101.561 73.7855C101.607 73.1514 101.637 72.5149 101.644 71.8808C101.652 71.2442 101.639 70.6077 101.607 69.9711C101.575 69.3371 101.524 68.703 101.453 68.0689C101.381 67.4372 101.29 66.8081 101.177 66.1814C101.067 65.5546 100.936 64.9328 100.787 64.3135C100.637 63.6942 100.467 63.0822 100.278 62.4751C100.089 61.8656 99.8821 61.266 99.6535 60.6712C99.4274 60.0764 99.1841 59.489 98.9211 58.909C98.6557 58.329 98.3755 57.7588 98.0757 57.196C97.7783 56.6356 97.4612 56.0827 97.127 55.542C96.7952 54.9988 96.4437 54.4679 96.0775 53.9494C95.7089 53.4283 95.3279 52.9196 94.9273 52.4231C94.5292 51.9291 94.1163 51.445 93.6862 50.9755C93.2561 50.5061 92.8137 50.049 92.3566 49.6066C91.8994 49.1642 91.4276 48.7366 90.9434 48.3237C90.4592 47.9108 89.9603 47.5151 89.4516 47.1342C88.9428 46.7507 88.4218 46.387 87.8885 46.038C87.3576 45.689 86.8145 45.3572 86.2615 45.0426C85.7085 44.7281 85.1457 44.4307 84.573 44.1505C84.0028 43.8703 83.4228 43.6098 82.833 43.3665C82.2456 43.1232 81.6508 42.8995 81.0487 42.6931C80.4465 42.4866 79.837 42.2998 79.2251 42.1327C79.0162 42.0664 78.8294 41.9631 78.6623 41.8255C78.4951 41.6854 78.36 41.5208 78.2543 41.3291C78.1511 41.1374 78.0872 40.9334 78.0626 40.7171C78.0355 40.5008 78.0527 40.2894 78.1093 40.0781C78.1658 39.8692 78.2616 39.6775 78.3919 39.503C78.5222 39.3285 78.6819 39.1859 78.8687 39.0729C79.0555 38.9623 79.2546 38.8886 79.4708 38.8517C79.6847 38.8173 79.8985 38.8247 80.1098 38.8713C80.7857 39.0557 81.4542 39.2621 82.1178 39.4882C82.7814 39.7143 83.4351 39.9601 84.084 40.2255C84.7303 40.4934 85.3693 40.781 85.9985 41.0857C86.6301 41.393 87.2495 41.7174 87.859 42.0639C88.4685 42.408 89.0657 42.7717 89.6531 43.1527C90.2405 43.5361 90.8156 43.9367 91.376 44.3545C91.9388 44.7698 92.4868 45.2049 93.0226 45.6571C93.5584 46.1093 94.0794 46.5763 94.5833 47.0604C95.0896 47.5446 95.5811 48.046 96.0554 48.5596C96.5298 49.0733 96.9894 49.6041 97.4317 50.1473C97.8741 50.688 98.2993 51.2459 98.7073 51.8161C99.1128 52.3838 99.5036 52.9663 99.8747 53.5586C100.246 54.1534 100.6 54.758 100.934 55.3724C101.268 55.9893 101.583 56.6135 101.878 57.2501C102.173 57.8842 102.448 58.5281 102.701 59.1794C102.957 59.8331 103.193 60.4918 103.406 61.1578C103.62 61.8263 103.814 62.4997 103.986 63.178C104.158 63.8564 104.308 64.5396 104.439 65.2278C104.569 65.9159 104.677 66.6065 104.766 67.3021C104.852 67.9976 104.918 68.6931 104.962 69.3936C105.004 70.0916 105.026 70.792 105.026 71.4925C105.026 72.1929 105.006 72.8909 104.962 73.5913C104.92 74.2893 104.854 74.9873 104.768 75.6828C104.682 76.3759 104.574 77.069 104.444 77.7571C104.316 78.4453 104.163 79.1285 103.991 79.8069C103.819 80.4852 103.628 81.1586 103.414 81.8271C103.2 82.4931 102.966 83.1518 102.711 83.8056C102.455 84.4569 102.182 85.1008 101.888 85.7373C101.593 86.3714 101.278 86.9981 100.944 87.6125C100.612 88.2294 100.258 88.834 99.887 89.4288C99.5159 90.0211 99.1276 90.6036 98.7196 91.1738C98.3141 91.7439 97.8889 92.2994 97.4465 92.8425C97.8029 97.055 102.829 105.217 106.783 105.36C107.007 105.35 107.226 105.384 107.435 105.463C107.646 105.539 107.833 105.655 108 105.807C108.165 105.959 108.292 106.139 108.388 106.34C108.482 106.544 108.533 106.758 108.541 106.984C108.55 107.208 108.516 107.424 108.44 107.635C108.361 107.847 108.246 108.034 108.093 108.198C107.943 108.363 107.764 108.493 107.56 108.587C107.356 108.682 107.142 108.734 106.918 108.741C105.579 108.859 104.235 108.911 102.89 108.894Z" fill="white"/>
</g>
<path d="M86.4339 88.4263C86.1292 88.4263 85.8441 88.3476 85.5811 88.1952C85.3157 88.0404 85.1092 87.829 84.9593 87.5636L71.2109 63.1193L57.465 87.5636C57.3544 87.7578 57.2118 87.9249 57.0349 88.065C56.8579 88.2026 56.6613 88.3034 56.4475 88.3624C56.2312 88.4238 56.01 88.441 55.7888 88.414C55.5652 88.3869 55.3562 88.3181 55.1596 88.21C54.9655 88.0994 54.7983 87.9568 54.6583 87.7799C54.5206 87.6029 54.4223 87.4063 54.3609 87.19C54.2994 86.9762 54.2822 86.755 54.3093 86.5338C54.3363 86.3102 54.4051 86.1013 54.5157 85.9047L69.7363 58.8429C69.8174 58.72 69.9108 58.6094 70.0189 58.5111C70.1271 58.4103 70.245 58.3268 70.3728 58.2555C70.5006 58.1867 70.6383 58.1326 70.7783 58.0982C70.9209 58.0613 71.0659 58.0441 71.2109 58.0441C71.3584 58.0441 71.5034 58.0613 71.6459 58.0982C71.786 58.1326 71.9212 58.1867 72.0514 58.2555C72.1792 58.3268 72.2972 58.4103 72.4053 58.5111C72.5135 58.6094 72.6069 58.72 72.688 58.8429L87.9085 85.9047C87.9823 86.0349 88.0363 86.1701 88.0732 86.3126C88.1101 86.4552 88.1273 86.6002 88.1248 86.7501C88.1248 86.8976 88.1052 87.0426 88.0658 87.1851C88.0265 87.3252 87.97 87.4604 87.8938 87.5882C87.8201 87.716 87.7291 87.8315 87.6259 87.9347C87.5202 88.0404 87.4047 88.1289 87.2769 88.2026C87.1467 88.2763 87.0115 88.3304 86.8689 88.3697C86.7264 88.4066 86.5814 88.4263 86.4339 88.4263Z" fill="white"/>
<path d="M80.7277 78.2782H61.7026C61.479 78.2782 61.2627 78.234 61.0562 78.148C60.8473 78.062 60.6655 77.9415 60.5057 77.7818C60.3484 77.6245 60.2255 77.4402 60.1395 77.2337C60.0535 77.0248 60.0117 76.811 60.0117 76.5849C60.0117 76.3612 60.0535 76.145 60.1395 75.9385C60.2255 75.7321 60.3484 75.5477 60.5057 75.3904C60.6655 75.2307 60.8473 75.1103 61.0562 75.0242C61.2627 74.9382 61.479 74.894 61.7026 74.894H80.7277C80.9514 74.894 81.1676 74.9382 81.3741 75.0242C81.5805 75.1103 81.7649 75.2307 81.9222 75.3904C82.0819 75.5477 82.2048 75.7321 82.2908 75.9385C82.3768 76.145 82.4186 76.3612 82.4186 76.5849C82.4186 76.811 82.3768 77.0248 82.2908 77.2337C82.2048 77.4402 82.0819 77.6245 81.9222 77.7818C81.7649 77.9415 81.5805 78.062 81.3741 78.148C81.1676 78.234 80.9514 78.2782 80.7277 78.2782Z" fill="white"/>
</svg>
