<svg width="94" height="92" viewBox="0 0 94 92" fill="none" xmlns="http://www.w3.org/2000/svg">
<mask id="mask0_395_1106" style="mask-type:luminance" maskUnits="userSpaceOnUse" x="0" y="12" width="94" height="80">
<path d="M0 12.7953H94V91.3724H0V12.7953Z" fill="white"/>
</mask>
<g mask="url(#mask0_395_1106)">
<path d="M91.8108 85.3383C85.5394 82.901 61.2256 74.7159 49.8762 89.2868H44.0435C32.6962 74.7159 8.37814 82.901 2.10682 85.3383V36.06C2.95458 35.564 4.91715 34.5679 7.18492 34.4513V78.09C7.18492 78.4227 7.34175 78.7343 7.61092 78.9314C7.87796 79.1264 8.22343 79.1857 8.53922 79.084C8.79355 79.0034 34.2116 71.1998 46.1841 84.5372C46.1884 84.5415 46.1905 84.5436 46.1947 84.5457C46.199 84.552 46.2053 84.5584 46.2117 84.5648C46.2414 84.5944 46.2689 84.6199 46.3007 84.6453C46.3092 84.6517 46.3156 84.658 46.324 84.6644C46.4024 84.7258 46.4851 84.7725 46.5741 84.8085C46.5784 84.8106 46.5826 84.8127 46.5868 84.8148C46.5911 84.817 46.5974 84.817 46.6017 84.8191C46.6547 84.8382 46.7098 84.853 46.7649 84.8636C46.7712 84.8657 46.7797 84.8657 46.7882 84.8678C46.8433 84.8763 46.9026 84.8827 46.9599 84.8827C47.015 84.8827 47.0701 84.8763 47.1273 84.8678C47.1358 84.8657 47.1464 84.8657 47.157 84.8636C47.2078 84.853 47.2608 84.8403 47.3096 84.8212C47.3202 84.817 47.3307 84.8127 47.3435 84.8085C47.3943 84.7894 47.4431 84.764 47.4897 84.7364C47.4961 84.7322 47.5045 84.728 47.5109 84.7237C47.5914 84.6729 47.6699 84.6114 47.7356 84.5372C59.7102 71.1998 85.1262 79.0034 85.3784 79.084C85.6963 79.1857 86.0417 79.1264 86.3088 78.9314C86.5758 78.7343 86.7348 78.4227 86.7348 78.09V34.4132C88.8542 34.3411 90.7278 34.3708 91.8108 34.4026V85.3383ZM9.2683 29.8777C12.3372 29.032 24.5323 26.067 35.123 28.9854C35.6295 30.6258 36.473 32.156 37.6196 33.4679C38.9337 34.9727 39.6564 36.9946 39.6585 39.1586L39.6606 42.5115C39.6606 43.0879 40.1269 43.5542 40.7012 43.5542H53.2163C53.7928 43.5542 54.2591 43.0879 54.2591 42.5115V38.9848C54.2591 36.9819 55.0284 34.9727 56.423 33.3281C56.423 33.3281 56.423 33.3281 56.423 33.3259C57.5209 32.031 58.322 30.558 58.8073 28.9833C69.3938 26.0691 81.5804 29.032 84.6493 29.8777V76.706C79.2914 75.2669 59.6954 70.9645 48.0005 81.3369V48.3547H53.0765C53.6551 48.3547 54.1192 47.8884 54.1192 47.3119C54.1192 46.7376 53.6551 46.2713 53.0765 46.2713H40.8411C40.2668 46.2713 39.8005 46.7376 39.8005 47.3119C39.8005 47.8884 40.2668 48.3547 40.8411 48.3547H45.9171V81.3411C34.2243 70.9666 14.6283 75.2669 9.2683 76.706V29.8777ZM40.0887 17.6338C42.3056 15.6522 45.169 14.7451 48.1531 15.0778C52.9281 15.6119 56.7388 19.4735 57.2178 24.2591C57.3386 25.4757 57.2496 26.6731 56.9656 27.8155C56.9507 27.86 56.9401 27.9066 56.9317 27.9532C56.5459 29.4178 55.8381 30.7911 54.8313 31.9801C53.1189 34.002 52.1757 36.4902 52.1757 38.9848V41.4687H41.744L41.7419 39.1564C41.7419 36.4902 40.8348 33.9808 39.1901 32.0967C38.1368 30.8929 37.3886 29.4644 36.988 27.9363C36.9817 27.9087 36.9753 27.8791 36.9668 27.8494C36.7591 27.0292 36.6511 26.1814 36.6511 25.3209C36.6511 22.3898 37.9036 19.5879 40.0887 17.6338ZM92.9086 32.3595C92.7878 32.3531 90.1068 32.2154 86.7348 32.3277V29.0956C86.7348 28.6399 86.4402 28.2394 86.0057 28.1016C85.408 27.913 71.7633 23.6911 59.2757 26.7091C59.3732 25.8381 59.3796 24.95 59.2906 24.0535C58.7162 18.2951 54.1319 13.6494 48.3862 13.0072C44.8553 12.6066 41.3243 13.732 38.7005 16.0803C36.0725 18.4307 34.5656 21.7985 34.5656 25.3209C34.5656 25.7872 34.5952 26.2514 34.6461 26.7113C22.1585 23.6911 8.50955 27.913 7.91187 28.1016C7.47952 28.2394 7.18492 28.6399 7.18492 29.0956V32.3595C3.50563 32.4994 0.595677 34.5404 0.464274 34.6336C0.188751 34.8286 0.0234375 35.1465 0.0234375 35.4835V86.8876C0.0234375 87.2395 0.199349 87.568 0.493946 87.7608C0.788544 87.9537 1.16156 87.9834 1.48159 87.8435C1.77619 87.7142 31.0389 75.1991 42.6871 90.9484C42.8842 91.2133 43.1937 91.3702 43.5243 91.3702H50.3933C50.7239 91.3702 51.0334 91.2133 51.2305 90.9484C62.8808 75.2012 92.1414 87.7142 92.4381 87.8435C92.7581 87.9834 93.1312 87.9537 93.4236 87.7608C93.7182 87.568 93.8963 87.2395 93.8963 86.8876V33.4001C93.8963 32.8448 93.4618 32.3892 92.9086 32.3595Z" fill="white"/>
</g>
<mask id="mask1_395_1106" style="mask-type:luminance" maskUnits="userSpaceOnUse" x="45" y="0" width="4" height="11">
<path d="M45.5781 0.627625H48.291V10.6249H45.5781V0.627625Z" fill="white"/>
</mask>
<g mask="url(#mask1_395_1106)">
<path d="M46.9607 10.4786C47.5372 10.4786 48.0013 10.0123 48.0013 9.43796V1.67245C48.0013 1.09597 47.5372 0.6297 46.9607 0.6297C46.3842 0.6297 45.918 1.09597 45.918 1.67245V9.43796C45.918 10.0123 46.3842 10.4786 46.9607 10.4786Z" fill="white"/>
</g>
<path d="M34.9715 12.4815C35.175 12.7676 35.495 12.9202 35.8214 12.9202C36.0312 12.9202 36.241 12.8566 36.4254 12.7252C36.8938 12.3924 37.0019 11.7397 36.6691 11.2713L32.159 4.94907C31.8242 4.48068 31.1756 4.37259 30.7051 4.70746C30.2389 5.04021 30.1287 5.69087 30.4635 6.15926L34.9715 12.4815Z" fill="white"/>
<path d="M21.8897 18.1194L28.8286 21.608C28.9791 21.6843 29.1381 21.7182 29.2949 21.7182C29.6764 21.7182 30.043 21.5084 30.2274 21.1459C30.486 20.6309 30.2783 20.0057 29.7633 19.745L22.8265 16.2565C22.3093 15.9979 21.6862 16.2056 21.4277 16.7206C21.1691 17.2335 21.3768 17.8609 21.8897 18.1194Z" fill="white"/>
<path d="M57.4953 12.7254C57.6797 12.8568 57.8895 12.9204 58.0993 12.9204C58.4257 12.9204 58.7457 12.7678 58.9492 12.4817L63.4572 6.15952C63.792 5.69113 63.6818 5.04047 63.2134 4.70772C62.745 4.37285 62.0944 4.48307 61.7595 4.94933L57.2515 11.2715C56.9188 11.7399 57.0269 12.3927 57.4953 12.7254Z" fill="white"/>
<path d="M63.6893 21.1456C63.8716 21.508 64.2404 21.7178 64.6219 21.7178C64.7787 21.7178 64.9398 21.6839 65.0881 21.6076L72.0271 18.119C72.54 17.8605 72.7477 17.2331 72.4891 16.7202C72.2305 16.2073 71.6032 15.9975 71.0903 16.2561L64.1535 19.7446C63.6385 20.0053 63.4308 20.6305 63.6893 21.1456Z" fill="white"/>
<path d="M17.9907 51.6082C18.1115 51.5658 30.2663 47.5962 38.7037 53.9587C38.8923 54.1007 39.1106 54.1685 39.331 54.1685C39.6468 54.1685 39.9583 54.0265 40.1639 53.7531C40.5094 53.2953 40.4183 52.6425 39.9583 52.2949C30.6329 45.2627 17.8635 49.4528 17.3252 49.6329C16.7805 49.8173 16.488 50.4065 16.6724 50.9533C16.8547 51.498 17.446 51.7926 17.9907 51.6082Z" fill="white"/>
<path d="M38.7037 66.4672C38.8923 66.6092 39.1127 66.677 39.331 66.677C39.6468 66.677 39.9583 66.5329 40.1639 66.2616C40.5094 65.8017 40.4183 65.1489 39.9583 64.8034C30.6329 57.7712 17.8635 61.9592 17.3252 62.1415C16.7805 62.3259 16.488 62.915 16.6724 63.4619C16.8547 64.0065 17.446 64.3033 17.9907 64.1168C18.1115 64.0744 30.2663 60.1047 38.7037 66.4672Z" fill="white"/>
<path d="M53.7524 53.7527C53.958 54.0261 54.2695 54.1681 54.5853 54.1681C54.8036 54.1681 55.024 54.1003 55.2127 53.9583C63.6479 47.5958 75.8027 51.5655 75.9235 51.6079C76.4724 51.7923 77.0595 51.4977 77.2439 50.953C77.4262 50.4062 77.1358 49.817 76.589 49.6326C76.0507 49.4524 63.2834 45.2602 53.958 52.2946C53.4981 52.6421 53.4069 53.2949 53.7524 53.7527Z" fill="white"/>
<path d="M76.589 62.1415C76.0507 61.9592 63.2812 57.7712 53.958 64.8034C53.4981 65.1489 53.4069 65.8017 53.7524 66.2616C53.958 66.5329 54.2695 66.677 54.5853 66.677C54.8036 66.677 55.024 66.6092 55.2127 66.4672C63.6479 60.1047 75.8027 64.0744 75.9235 64.1168C76.4724 64.3033 77.0595 64.0065 77.2439 63.4619C77.4262 62.915 77.1358 62.3259 76.589 62.1415Z" fill="white"/>
</svg>
