<svg width="153" height="175" viewBox="0 0 153 175" fill="none" xmlns="http://www.w3.org/2000/svg">
<path d="M146.013 115.281C145.987 114.634 145.602 114.062 145.586 113.455C145.57 112.844 145.453 112.275 145.242 111.742C144.65 110.246 144.47 108.63 143.86 107.143C143.725 106.812 143.594 106.5 143.194 106.385C143.037 106.342 142.73 106.185 143.193 106.053C143.344 106.011 143.385 105.798 143.302 105.652C142.801 104.771 142.455 103.83 142.168 102.862C142.124 102.717 142.045 102.649 141.879 102.647C141.748 102.647 141.482 102.872 141.505 102.53C141.521 102.325 141.122 102.097 141.551 101.901C141.779 101.799 141.711 101.516 141.598 101.399C141.341 101.122 141.383 100.799 141.303 100.477C140.828 98.5274 140.282 96.5974 139.508 94.7373C139.306 94.253 138.993 93.8002 139.097 93.2278C139.108 93.1662 139.059 93.0369 139.022 93.0295C138.434 92.9225 138.774 92.4627 138.66 92.1921C138.339 91.4326 138.457 90.5638 137.982 89.853C137.697 89.4213 137.692 88.8678 137.576 88.3812C137.383 87.584 136.786 86.9155 136.866 86.0456C136.876 85.9458 136.813 85.837 136.7 85.8537C136.145 85.9387 136.35 85.6455 136.412 85.3513C136.551 84.6859 136.26 84.0655 135.883 83.602C135.646 83.3116 135.542 83.0569 135.61 82.7792C135.747 82.221 135.492 81.7625 135.349 81.2753C135.307 81.1414 135.231 80.9078 135.018 81.2056C134.895 81.3756 134.794 81.1677 134.738 81.0663C134.692 80.9865 134.498 80.8032 134.827 80.8439C134.912 80.8563 134.942 80.7702 134.962 80.6921C135.022 80.4606 134.603 79.3621 134.393 79.2204C134.365 79.1994 134.289 79.1909 134.289 79.1881C134.414 78.6173 133.635 78.3412 133.823 77.7579C133.887 77.5612 133.835 77.4056 133.764 77.2153C133.412 76.2872 133.028 75.3683 132.813 74.3887C132.693 73.8348 132.461 73.3004 132.381 72.7413C132.329 72.3931 131.782 72.343 131.991 71.8503C132.142 71.4939 131.842 71.1214 131.719 70.7636C131.311 69.5471 131.099 68.2558 130.498 67.1256C130.202 66.5685 130.14 65.994 129.967 65.4299C129.878 65.1336 129.84 64.8566 129.357 64.8737C129.826 64.6429 129.672 64.3923 129.567 64.1051C129.279 63.3211 128.983 62.5446 128.618 61.7909C128.512 61.575 128.627 61.2585 128.547 61.0226C128.445 60.7229 128.33 60.3132 127.808 60.6524C127.899 60.2071 128.19 59.8254 127.933 59.4028C127.816 59.204 127.617 59.3331 127.449 59.2928C127.562 58.7244 127.489 58.1995 127.337 57.6462C127.139 56.9123 126.988 56.1657 126.695 55.4598C126.682 55.4268 126.698 55.3555 126.682 55.3498C126.036 55.0884 126.482 54.5629 126.406 54.1691C126.161 52.9257 125.752 51.7303 125.407 50.5189C125.095 49.4254 124.887 48.2993 124.501 47.2356C124.028 45.9462 123.916 44.5664 123.346 43.2817C123.022 42.5553 122.899 41.6492 122.656 40.8384C122.5 40.3124 122.569 39.6403 121.989 39.2739C121.938 39.2426 121.897 39.1292 121.915 39.0722C122.138 38.3218 121.68 37.8447 121.254 37.3493C121.196 37.2781 121.105 37.1808 121.117 37.1101C121.245 36.2988 120.686 35.6611 120.525 34.9168C120.364 34.1931 120.092 33.3527 119.379 32.8171C119.086 32.6003 118.933 32.2043 118.705 31.8974C118.589 31.7368 118.517 31.5379 118.213 31.6614C118.031 31.7334 117.914 31.5495 118.022 31.335C118.154 31.0744 118.096 30.9793 117.8 31.0685C117.596 31.1303 117.673 30.9666 117.65 30.8675C117.51 30.2612 117.19 29.6881 116.644 29.4807C116.163 29.2989 116.032 28.9576 115.764 28.629C115.401 28.1774 115.031 27.6381 114.344 27.5807C114.301 27.5745 114.229 27.509 114.231 27.476C114.27 26.9196 113.776 26.6871 113.46 26.4896C112.683 25.9998 112.086 25.26 111.214 24.9019C110.832 24.7445 110.578 24.3806 110.252 24.129C109.078 23.2178 107.823 22.4446 106.531 21.7262C106.22 21.5516 105.967 21.3091 105.625 21.1584C104.82 20.8134 104.071 20.3474 103.281 19.9699C102.967 19.8226 102.507 19.9417 102.28 19.6495C101.822 19.0539 101.109 18.9156 100.523 18.5532C100.246 18.3837 99.9365 18.274 99.6003 18.3268C99.4971 18.3446 99.4133 18.3407 99.3346 18.2736C97.923 17.0782 96.1236 16.6665 94.4977 15.9086C93.977 15.6635 93.3617 15.479 92.7421 15.4495C92.2365 15.4267 91.7222 15.3464 91.6022 16.0613C91.5836 16.1747 91.4093 16.281 91.2708 16.2851C91.0656 15.8402 92.118 15.4861 91.3565 15.0464C90.9601 14.8149 90.5093 14.4016 89.9712 14.8804C90.0362 14.3485 89.6058 14.361 89.2735 14.3152C88.1492 14.1649 87.0869 13.7768 85.999 13.4828C85.6791 13.396 85.3705 13.2031 85.0414 13.5125C84.8547 13.6894 84.6447 13.4856 84.5414 13.37C84.0483 12.8199 83.3348 12.9724 82.7436 12.8482C81.7903 12.6487 80.769 12.789 79.814 12.5364C79.4787 12.4468 79.2164 12.3661 78.8962 12.5136C78.7555 12.5804 78.5902 12.5692 78.5017 12.3943C78.452 12.2946 78.3533 12.2315 78.269 12.2692C77.5449 12.6046 76.7984 11.7824 76.0728 12.3168C75.9959 12.3767 75.7496 12.3462 75.6971 12.2767C75.3483 11.7807 75.1971 12.1787 75.027 12.4531C74.7036 11.7888 74.4402 11.6877 73.8443 11.9973C73.6273 12.1121 73.4597 12.1192 73.2117 12.0653C72.6239 11.9435 72.0312 12.0182 71.5009 12.3443C71.3642 12.4311 71.2509 12.5458 71.1679 12.2957C71.0673 12.0017 70.8005 12.002 70.5914 12.0678C69.9527 12.2675 69.2302 12.066 68.6425 12.4748C68.4944 12.5787 68.3986 12.5298 68.3021 12.4187C68.1748 12.2724 68.013 12.2931 67.8843 12.3753C67.4315 12.674 67.0585 12.5296 66.7059 12.2063C66.5062 12.0241 66.2513 11.9805 66.0148 11.9985C65.7435 12.0204 65.6926 11.8558 65.6211 11.6774C65.5442 11.6929 65.4701 11.7078 65.396 11.7227C65.067 12.1358 65.1426 12.3785 65.6983 12.3853C65.6807 12.46 65.6728 12.5238 65.6637 12.5227C65.0481 12.528 64.5358 12.6488 64.5846 13.4365C64.3235 13.3912 64.1983 14.0212 63.8176 13.5582C63.5704 13.2581 63.1035 13.2365 62.8011 13.4129C61.8043 13.9989 60.6262 14.1559 59.6568 14.7897C58.8076 15.343 57.7362 15.4845 56.9703 16.113C56.4538 16.5371 55.8473 16.5435 55.3432 16.8524C54.8864 17.1311 54.3182 17.1951 53.9722 17.7301C53.8141 17.9754 53.302 17.8027 52.9476 17.9126C52.4143 18.0762 51.9267 18.3937 51.5349 18.7008C51.2992 18.8846 51.2102 18.8551 50.9783 18.9107C50.4979 19.0281 49.9063 19.0789 49.6134 19.627C49.507 19.8204 49.4035 19.9835 49.0733 19.8602C48.7243 19.7318 48.5628 20.0341 48.6592 20.6017C48.5125 19.9316 48.2437 20.0983 47.849 20.3615C47.5932 20.5345 47.3308 20.8067 46.9437 20.7394C46.8821 20.728 46.7602 20.8296 46.7278 20.9043C46.5653 21.2898 46.4203 21.6007 45.9012 21.2901C45.7084 21.1717 45.5275 21.4512 45.4256 21.6229C45.1645 22.0786 44.9411 22.5594 44.2721 22.196C44.1392 22.1249 44.0299 22.2743 43.9097 22.3252C43.4254 22.5264 42.9018 22.6792 42.7172 23.2648C42.7087 23.2962 42.7652 23.356 42.65 23.3139C41.976 23.073 41.8359 23.1872 41.892 23.8933C41.8618 23.8905 41.8179 23.8934 41.8059 23.8781C41.4205 23.2737 41.1343 23.2661 40.5343 23.9382C40.384 24.1049 40.3112 24.2144 40.0928 24.1308C39.916 24.0627 39.8044 24.1711 39.7008 24.2898C39.538 24.4678 39.3631 24.5415 39.0986 24.5236C38.5907 24.4894 38.2481 24.923 37.8025 25.0957C37.3564 25.2655 36.7796 25.3015 36.6093 25.9287C36.573 26.0724 36.3313 26.0054 36.1887 25.96C35.781 25.8345 35.4328 25.9164 35.1471 26.2348C34.9171 26.4915 34.5499 26.346 34.2964 26.5304C33.7235 26.9392 33.0059 27.0125 32.405 27.3557C32.1948 27.4751 31.9092 27.4555 31.9285 27.8607C31.9396 28.0779 31.5679 28.0282 31.3906 28.0164C30.8696 27.9908 30.4513 28.1076 30.1452 28.5605C30.0337 28.7282 29.8884 28.8019 29.6597 28.6523C29.2735 28.3979 28.6725 28.7115 28.6618 28.8501C28.592 29.5786 28.0969 29.2839 27.7475 29.3305C27.4472 29.3702 27.1851 29.4674 27.0595 29.7713C27.0146 29.8871 26.9828 29.9795 26.8197 29.9204C26.2922 29.73 25.8456 29.9415 25.3762 30.1723C25.0446 30.3368 24.6228 30.318 24.2907 30.4796C23.5695 30.8293 22.8242 31.1186 22.0641 31.3486C21.6499 31.4705 21.2653 31.5924 20.9464 31.8937C20.8889 31.9468 20.7413 31.9795 20.6803 31.9413C20.2086 31.6746 20.0881 32.0042 19.9683 32.3959C19.6657 31.938 19.3291 32.1361 19.0186 32.3024C18.5099 32.5737 18.1155 33.0741 17.4737 33.0816C17.456 33.0822 17.4281 33.0908 17.4218 33.1039C17.0499 33.8636 16.185 33.6315 15.6188 34.0004C15.0447 34.3738 14.4369 34.6977 13.8747 35.0865C13.4351 35.3914 12.8721 35.5255 12.5111 35.8679C11.8563 36.4888 11.0273 36.8038 10.3389 37.39C8.68295 38.7964 7.92311 40.737 6.83759 42.4882C6.33409 43.301 5.86935 44.115 5.61109 45.0563C5.48965 45.5136 5.68567 45.9574 5.55559 46.3423C5.39993 46.7916 5.41812 47.2357 5.40837 47.6734C5.39101 48.427 5.30872 49.2262 5.89656 49.8639C5.99072 49.9636 5.86203 50.0754 5.83879 50.1809C5.72139 50.6878 5.93395 51.1401 6.06104 51.6097C6.16066 51.9869 6.44772 52.2938 6.22714 52.7888C6.09808 53.0756 6.31296 53.5542 6.4593 53.9131C6.56563 54.1763 6.63545 54.4202 6.5856 54.6882C6.53181 54.9955 6.60278 55.245 6.80996 55.4791C6.92411 55.6043 7.03481 55.7125 6.9137 55.9652C6.72889 56.3433 6.96425 56.791 7.10541 57.1095C7.37572 57.7162 7.14675 58.3464 7.35375 58.9184C7.67511 59.7935 7.43684 60.7605 7.86991 61.631C8.01903 61.9301 7.91464 62.3543 8.24785 62.64C8.39106 62.7624 7.98297 62.7823 8.10128 63.0608C8.24531 63.3936 8.28964 63.776 8.40976 64.1372C8.6237 64.7879 8.45354 65.504 8.68973 66.1769C8.87272 66.6886 8.89277 67.2597 9.07291 67.7719C9.3274 68.4915 9.37783 69.2136 9.32626 69.9593C9.90875 72.8542 10.4918 75.752 11.0743 78.6469C11.4698 79.0654 11.369 79.64 11.495 80.1335C11.6221 80.6327 11.7714 81.1244 11.9174 81.6139C12.1731 82.4726 12.4654 83.321 12.7269 84.1785C12.7681 84.3096 12.8115 84.4224 12.8989 84.5323C13.1306 84.8295 13.5447 85.0605 13.1725 85.5534C13.0439 85.7245 13.3081 85.9323 13.3465 86.1232C13.5809 87.2441 14.184 88.2523 14.3347 89.399C14.3588 89.5779 14.4821 89.7488 14.5695 89.918C14.8483 90.4637 14.7961 91.1027 15.0846 91.6524C15.3748 92.2107 15.5989 92.8089 15.9085 93.3603C16.2055 93.8935 16.1566 94.52 16.4668 95.0594C16.6307 95.3437 16.7352 95.5391 17.092 95.4999C16.9203 95.8694 16.8431 96.1637 17.0049 96.5847C17.5612 98.0085 18.1095 99.4368 18.5398 100.913C18.842 101.943 19.1664 102.98 19.554 103.993C19.8771 104.833 20.1437 105.716 20.375 106.6C20.56 107.313 20.7814 108.03 21.1008 108.69C21.2968 109.089 21.3303 109.521 21.5109 109.917C21.5955 110.102 21.6339 110.293 21.8079 110.421C21.906 110.496 21.9415 110.599 21.9428 110.723C21.9362 111.442 22.0738 112.155 22.3835 112.781C22.8943 113.816 22.9008 115.013 23.4178 116.006C23.8851 116.914 24.0863 117.884 24.4311 118.817C24.8725 120.009 25.1869 121.247 25.6306 122.436C25.8502 123.026 25.8492 123.699 26.2819 124.214C26.3641 124.313 26.3808 124.455 26.365 124.597C26.3233 125.053 26.4834 125.451 26.7227 125.83C26.8877 126.09 27.022 126.389 26.9973 126.694C26.9579 127.161 27.1254 127.566 27.3088 127.962C27.9505 129.324 28.2811 130.79 28.7251 132.216C28.8069 132.475 28.8785 132.728 29.0446 132.949C29.2216 133.18 29.3637 133.356 29.2621 133.75C29.1821 134.06 29.5349 134.487 29.7046 134.859C29.7583 134.979 29.9158 135.098 29.8971 135.197C29.7855 135.836 30.2564 136.334 30.2793 136.964C30.2976 137.467 30.406 138.065 30.8072 138.482C31.1028 138.788 30.8474 139.198 31.0558 139.512C31.5965 140.328 31.364 141.368 31.821 142.195C32.3562 143.175 32.2886 144.312 32.7925 145.329C33.157 146.065 33.3222 146.974 33.4207 147.847C33.4835 148.394 33.6277 148.935 33.98 149.389C34.0479 149.476 34.1199 149.598 34.1103 149.697C34.0576 150.452 34.5314 151.068 34.6422 151.781C34.8915 153.373 35.584 154.826 36.1039 156.334C36.5168 157.532 36.9053 158.74 37.3945 159.905C37.6517 160.52 37.9414 161.135 38.2294 161.741C38.5883 162.493 39.032 163.181 39.454 163.893C39.9743 164.77 40.4934 165.611 41.2666 166.33C42.0906 167.095 42.8695 167.887 43.8256 168.498C44.7445 169.087 45.8022 169.408 46.7235 169.993C46.9003 170.106 47.1728 170.149 47.3527 169.923C47.5325 169.697 47.6933 169.686 47.84 169.944C48.0103 170.244 48.2593 170.245 48.5728 170.226C49.9305 170.152 51.268 169.918 52.5735 169.584C53.169 169.435 53.7611 169.387 54.3521 169.274C54.5948 169.228 54.8314 169.195 55.0255 168.996C55.2373 168.781 55.4851 168.702 55.8255 168.788C56.3102 168.912 56.7984 168.687 57.2909 168.674C57.4619 168.669 57.6317 168.673 57.8033 168.671C59.3818 168.354 60.9604 168.036 62.536 167.719C62.6354 167.417 62.7355 167.222 63.149 167.376C63.3959 167.469 63.8618 167.633 63.8804 167.019C63.8876 166.804 64.0497 166.99 64.1352 167.003C65.0137 167.111 65.8138 166.991 66.3898 166.229C66.441 166.159 66.4626 166.134 66.5624 166.159C67.2415 166.322 67.8767 166.06 68.4156 165.747C68.9937 165.409 69.6811 165.362 70.2141 164.947C70.332 164.855 70.5452 164.868 70.7139 164.867C71.1226 164.865 71.3259 164.741 71.0728 164.234C71.5835 164.695 71.9569 164.252 72.3895 164.177C73.1457 164.045 73.8751 163.884 74.5325 163.497C75.1869 163.11 75.8609 162.85 76.6241 162.767C76.9261 162.736 77.2606 162.616 77.3421 162.152C77.3914 161.866 77.659 161.605 78.0839 161.875C78.2574 161.985 78.5605 161.93 78.7965 161.895C79.1772 161.842 79.4795 161.547 79.9001 161.545C80.1971 161.548 80.0657 161.233 80.1081 160.958C80.5089 161.52 80.9475 161.239 81.3714 161.136C81.425 161.123 81.5127 161.087 81.515 161.054C81.575 160.262 82.1688 160.605 82.5547 160.593C82.8317 160.585 83.0859 160.581 83.3097 160.411C83.7459 160.075 84.3171 160.129 84.7729 159.933C85.583 159.583 86.5754 159.609 87.1867 158.831C87.5678 159.074 87.87 158.72 88.2183 158.697C88.8418 158.658 89.443 158.537 89.9361 158.114C90.0699 157.999 90.1961 158.124 90.3146 158.095C90.7619 157.975 91.2447 158.017 91.641 157.659C91.9918 157.339 92.5358 157.582 92.9448 157.346C92.9739 157.328 93.0195 157.334 93.0565 157.341C93.4465 157.408 93.5113 156.802 93.8187 156.9C94.2081 157.024 94.3857 156.786 94.6729 156.666C95.2927 156.402 95.9823 156.308 96.6204 156.076C97.3548 155.806 98.2005 156.075 98.8793 155.574C99.0422 155.455 99.253 155.398 99.2607 155.127C99.2671 154.775 99.5293 154.782 99.6709 154.97C100.105 155.538 100.604 155.099 100.996 155.014C101.832 154.835 102.623 154.45 103.46 154.219C104.395 153.96 105.305 153.608 106.233 153.309C106.737 153.148 107.254 153.02 107.764 152.873C108.038 152.791 108.32 152.749 108.241 152.312C108.194 152.034 108.459 151.995 108.644 152.121C108.998 152.361 109.301 152.353 109.698 152.173C110.272 151.915 110.99 152.008 111.465 151.479C112.268 151.715 112.861 151.08 113.556 150.895C114.243 150.716 114.964 150.585 115.651 150.346C116.214 150.15 116.72 149.737 117.377 149.803C117.498 149.817 117.664 149.695 117.764 149.592C117.997 149.361 118.283 149.209 118.583 149.223C119.241 149.256 119.719 148.799 120.311 148.65C121.096 148.453 121.911 148.307 122.57 147.777C123.55 148.022 124.315 147.287 125.229 147.174C125.683 147.118 126.25 147.075 126.643 146.685C126.715 146.614 126.854 146.601 126.966 146.584C127.916 146.441 128.819 146.114 129.743 145.883C130.784 145.62 131.763 145.225 132.76 144.861C132.92 144.802 133.088 144.768 133.243 144.699C133.696 144.489 134.087 144.12 134.659 144.254C134.796 144.285 135.017 144.176 135.124 144.059C135.658 143.469 136.454 143.391 137.096 143.016C137.553 142.749 137.904 142.388 138.286 142.05C138.514 141.853 138.361 141.579 138.445 141.348C138.656 141.792 138.957 141.687 139.21 141.441C139.456 141.201 139.713 140.933 139.829 140.628C139.942 140.318 140.204 140.425 140.374 140.314C141.381 139.661 142.152 138.75 143.057 137.986C143.645 137.489 144.161 136.914 144.685 136.366C145.263 135.764 145.715 135.003 146.093 134.245C147.09 132.245 147.413 130.033 147.939 127.891C148.309 126.381 147.961 124.874 147.558 123.417C147.467 123.082 147.449 122.771 147.413 122.447C147.244 121.016 146.769 119.644 146.605 118.21C146.557 117.792 146.58 117.287 146.369 116.947C146.038 116.408 146.036 115.852 146.013 115.281ZM79.44 18.3987C79.5898 18.3034 79.8858 18.4039 80.1081 18.4481C82.1395 18.8488 84.1867 19.1513 86.1609 19.8421C86.9871 20.1325 87.834 20.5105 88.7602 20.4872C88.9255 20.4836 89.1216 20.5153 89.258 20.6035C90.0822 21.1343 91.0724 21.1782 91.9472 21.5329C93.1807 22.0347 94.4102 22.5463 95.6306 23.0864C96.9201 23.66 98.1236 24.3962 99.396 25.0029C100.422 25.4902 101.435 26.0186 102.422 26.6056C103.487 27.2422 104.46 28.0249 105.612 28.5342C106.136 28.7668 106.516 29.3278 107.045 29.6572C108.472 30.547 109.815 31.5515 111.03 32.7271C111.593 33.2719 112.235 33.7329 112.863 34.2497C112.67 34.3212 112.346 34.1107 112.215 34.4454C112.149 34.6188 112.065 34.4963 112.021 34.4251C111.658 33.831 110.989 33.8324 110.505 33.9179C109.841 34.0366 109.32 33.6998 108.725 33.6623C108.653 33.659 108.578 33.5821 108.512 33.5924C107.309 33.7723 106.109 33.4356 104.909 33.5585C104.61 33.589 104.587 34.0353 104.232 34.0654C104.122 33.862 104.476 33.8058 104.303 33.639C104.189 33.5314 104.052 33.6569 103.932 33.6542C103.482 33.6411 103.027 33.5726 102.701 34.0028C102.682 34.0273 102.603 34.0462 102.602 34.0405C102.224 33.3102 101.631 33.9898 101.146 33.8324C100.695 33.6859 100.228 34.1179 99.7091 33.9703C99.505 33.9136 99.4233 34.2443 99.2627 34.3892C99.1246 34.2777 99.1465 33.9887 98.8576 34.0853C98.0833 34.3479 97.1615 34.2161 96.5065 34.6889C96.1056 34.98 95.7349 34.8322 95.3937 34.978C94.4154 35.3912 93.3989 35.7025 92.4184 36.1192C91.5559 36.4884 90.6802 36.8217 89.8194 37.1995C89.465 37.3538 89.3582 37.6777 89.1151 37.8986C88.788 37.4515 88.4333 37.8549 88.271 37.9913C87.6663 38.5073 86.8415 38.5339 86.2316 38.9798C85.715 39.3594 85.5555 38.9646 85.4759 38.6278C85.3619 38.1497 85.2947 37.6385 85.3271 37.1517C85.3949 36.1034 85.2147 35.0753 85.1599 34.0369C85.0811 32.4518 84.6963 30.9075 84.3274 29.369C83.9648 27.8469 83.2883 26.4444 82.5594 25.0613C82.3206 24.6112 82.2191 24.0773 81.9387 23.6267C81.2974 22.6055 80.8868 21.4637 80.3099 20.4087C80.1563 20.1313 80.0544 19.8019 79.6895 19.6975C79.5384 19.6538 79.5211 19.509 79.5392 19.3631C79.5487 19.2485 79.5184 19.1271 79.5508 19.0228C79.6177 18.781 79.1114 18.6072 79.44 18.3987ZM144.447 128.747C144.518 129.261 144.607 129.789 144.635 130.284C144.689 131.156 144.256 131.922 143.585 132.535C142.15 133.846 140.664 135.097 139.243 136.43C138.806 136.838 138.206 137.157 137.695 137.536C137.038 138.026 136.293 138.419 135.567 138.717C135.071 138.917 134.497 139.145 133.907 139.232C133.08 139.351 132.317 139.744 131.525 140.022C131.166 140.151 130.767 140.16 130.682 140.708C130.621 140.32 130.42 140.262 130.127 140.351C129.308 140.602 128.497 140.886 127.663 141.06C127.211 141.154 126.812 141.16 126.757 141.741C126.75 141.825 126.554 141.838 126.545 141.718C126.487 141.033 126.122 141.388 125.947 141.577C125.701 141.84 125.521 141.874 125.16 141.789C124.608 141.657 124.08 141.965 123.565 142.146C123.239 142.262 122.933 142.362 122.579 142.386C122.266 142.407 121.854 142.395 121.775 142.87C121.756 142.999 121.651 143.106 121.53 143.038C120.827 142.637 120.301 143.146 119.721 143.376C119.652 143.401 119.586 143.453 119.515 143.468C117.849 143.797 116.32 144.537 114.715 145.047C113.965 145.284 113.201 145.491 112.44 145.689C112.116 145.774 112.066 146.244 111.665 146.197C111 146.121 110.502 146.399 110.171 146.993C109.99 146.757 110.268 146.621 110.168 146.451C109.306 146.467 109.013 146.633 108.161 147.584C107.892 146.716 107.319 147.306 106.954 147.388C105.827 147.642 104.66 147.897 103.658 148.428C103.19 148.676 102.476 148.432 102.224 149.093C101.849 148.819 101.616 149.387 101.261 149.26C101.226 149.246 101.164 149.232 101.152 149.246C100.809 149.739 100.274 149.42 99.8482 149.559C99.5786 149.649 99.308 149.748 99.0996 149.965C98.8884 150.182 98.3689 149.928 98.4056 150.641C98.101 149.997 97.8073 150.275 97.4562 150.313C96.7386 150.386 96.0994 150.657 95.4236 150.835C94.982 150.953 94.695 151.192 94.5039 151.583C94.3256 151.154 93.9226 151.14 93.56 151.563C93.4495 151.692 93.3893 151.864 93.2829 151.998C93.1696 152.142 93.0752 152.292 92.8242 152.105C92.5674 151.92 92.1489 152.271 91.8874 151.914C91.8834 151.909 91.843 151.914 91.8333 151.925C91.4486 152.489 90.7436 152.064 90.2283 152.494C89.771 152.874 89.0158 152.892 88.3953 153.079C88.1713 153.145 87.8778 153.13 87.8879 153.504C87.8915 153.699 87.7335 153.592 87.6332 153.594C86.9259 153.615 86.155 153.468 85.7941 154.356C85.7464 154.472 85.5717 154.709 85.3947 154.507C85.0249 154.083 84.5885 154.272 84.2974 154.476C83.8811 154.764 83.4286 154.843 82.9779 154.99C82.4383 155.167 81.7366 155.068 81.4695 155.774C81.4365 155.861 81.3727 155.912 81.302 155.855C80.647 155.341 80.9837 156.13 80.7746 156.24C80.4975 156.174 80.7394 155.874 80.5751 155.735C80.1801 155.776 80.1555 156.169 79.9239 156.462C79.8477 156.157 79.75 155.951 79.3962 156.123C79.0106 156.313 78.6078 156.478 78.1684 156.533C77.9199 156.566 77.6481 156.688 77.5361 156.898C77.3945 157.166 77.3252 157.382 76.9352 157.271C76.6809 157.2 76.7633 157.536 76.6723 157.659C76.4049 157.656 76.5212 157.099 76.1942 157.316C75.9795 157.457 75.4698 157.34 75.5981 157.875C75.6284 157.996 75.4757 158.048 75.4004 157.997C74.7638 157.574 74.5554 158.203 74.2068 158.475C74.0047 158.634 73.9351 159.099 73.5333 158.649C73.4072 158.508 73.2137 158.769 73.2076 158.975C73.1987 159.152 73.1321 159.234 72.9634 159.205C72.8648 159.187 72.6727 159.19 72.7329 159.032C72.8733 158.669 72.6198 158.809 72.4767 158.805C71.8206 158.786 71.3901 159.107 71.1304 159.776C70.902 159.466 70.7593 159.287 70.4497 159.723C70.2887 159.954 69.7363 159.949 69.3626 160.066C68.1762 160.432 66.943 160.669 65.9922 161.557C65.954 161.588 65.916 161.694 65.8857 161.631C65.5498 160.993 65.2067 161.572 64.9618 161.681C64.2337 161.996 63.4535 162.097 62.7036 162.319C62.4153 162.404 62.2723 162.504 62.3098 162.852C61.9382 162.449 60.8086 162.537 60.5007 162.922C60.2275 163.259 59.9611 163.571 59.5928 163.007C59.482 162.84 59.3112 162.978 59.1738 163.018C58.7368 163.144 58.3026 163.24 57.8466 163.302C57.4027 163.365 56.976 163.543 56.4994 163.547C56.162 163.549 56.0016 163.843 55.7996 164.12C55.5441 164.471 55.5357 163.693 55.0583 163.854C53.9296 164.242 52.7334 164.485 51.5629 164.679C50.4761 164.862 49.3753 165.226 48.2213 165.002C47.5605 164.871 47.1524 164.375 46.5992 164.101C45.7226 163.664 45.2622 162.79 44.5763 162.151C44.3024 161.895 44.0456 161.62 43.7808 161.351C43.7294 161.302 43.6495 161.243 43.6472 161.188C43.6068 160.28 42.8087 159.702 42.6327 158.857C42.0004 158.705 42.2641 158.012 41.924 157.648C41.7653 157.478 41.4241 157.197 41.5991 156.726C41.6957 156.469 41.4831 155.958 41.244 155.742C40.7231 155.274 40.838 154.638 40.6561 154.087C40.2466 152.862 39.8997 151.61 39.3529 150.439C39.0969 149.889 39.0688 149.307 38.8795 148.75C38.462 147.529 38.1801 146.261 37.8486 145.011C37.8102 144.865 37.8203 144.708 37.8013 144.555C37.7622 144.228 37.7054 143.946 37.2444 144.042C36.8974 144.114 36.8025 143.923 36.9994 143.649C37.3141 143.209 37.2156 142.808 37.0885 142.309C36.8165 141.222 36.3843 140.18 36.2325 139.057C36.1676 138.572 35.8348 138.156 35.7299 137.664C35.6617 137.354 35.5901 137.043 35.5191 136.734C35.3071 135.798 35.013 134.882 34.7554 133.955C34.716 133.818 34.5621 133.819 34.5198 133.757C34.3531 133.503 33.9572 133.289 34.2971 132.9C34.3665 132.818 34.355 132.732 34.3258 132.631C34.0563 131.718 33.915 130.766 33.4865 129.903C33.4299 129.784 33.3745 129.656 33.3515 129.527C33.1828 128.571 33.0773 128.518 32.2458 129.1C32.3889 128.677 32.5089 128.374 32.753 128.085C33.119 127.65 32.4777 126.599 31.7942 126.532C32.0784 126.294 32.0815 126.059 32.0737 125.711C32.0556 124.884 31.4182 124.28 31.423 123.479C31.4224 123.461 31.4247 123.428 31.415 123.424C30.791 123.093 31.175 122.438 30.9533 121.969C30.6927 121.426 30.545 120.839 30.4081 120.247C30.2723 119.675 30.1098 119.103 29.8954 118.553C29.6741 117.984 29.6921 117.278 29.0425 116.923C28.9352 116.861 29.0799 116.755 29.0827 116.68C29.0961 116.025 29.2116 115.332 28.5288 114.885C28.4706 114.847 28.3804 114.737 28.3827 114.734C28.9611 114.131 27.8316 113.792 28.1484 113.231C28.166 113.2 28.1209 113.094 28.0855 113.08C27.4719 112.845 27.7147 112.283 27.6047 111.855C27.4851 111.392 27.5277 110.838 26.9353 110.634C26.8395 110.6 26.8365 110.527 26.8649 110.447C27.1121 109.775 26.7849 109.283 26.4275 108.744C26.2625 108.499 26.36 108.07 26.2958 107.721C26.2057 107.244 25.9687 106.833 25.8245 106.381C25.7193 106.05 25.5542 106.29 25.328 106.374C25.5442 105.99 25.6937 105.643 25.4944 105.286C25.3767 105.069 25.366 104.692 24.933 104.853C24.8452 104.888 24.6679 104.847 24.6814 104.693C24.7157 104.289 24.1943 103.893 24.5871 103.517C24.8035 103.311 24.7459 103.26 24.6464 103.031C24.4184 102.517 24.269 101.966 24.1293 101.419C23.9901 100.86 23.8379 100.309 23.5722 99.7993C23.2203 99.1259 23.2661 98.337 22.9182 97.6688C22.4275 96.718 22.4615 95.5905 21.8847 94.6689C21.8094 94.5448 21.8365 94.3703 21.5977 94.4065C21.4769 94.4249 21.3821 94.3076 21.4857 94.1741C21.7521 93.8329 21.5557 93.5196 21.4362 93.2057C20.9273 91.8702 20.48 90.5016 19.8578 89.2215C19.6566 88.8114 19.6292 88.2329 19.1284 87.969C19.0217 87.9104 19.1202 87.7957 19.1144 87.7079C19.1103 87.5546 19.131 87.2747 19.0945 87.2702C18.2866 87.1007 18.9721 86.3669 18.5903 85.9871C18.2085 85.6074 18.3719 84.9608 18.1434 84.4583C17.9096 83.945 17.8035 83.3735 17.6541 82.8224C17.3994 81.8805 17.025 80.9775 16.6927 80.0631C16.2953 78.9571 15.9013 77.8387 15.6058 76.7093C15.3888 75.8813 15.1593 75.0352 15.0049 74.1798C14.846 73.3164 14.7447 72.4148 14.4559 71.5983C14.1356 70.6844 13.9488 69.7852 13.9277 68.8259C13.9199 68.4924 13.8226 68.1563 13.633 67.8475C13.5176 67.6573 13.1959 67.4433 13.537 67.1642C13.5626 67.1442 13.5488 67.0462 13.5249 67.0006C12.8812 65.9235 13.4069 64.5874 12.7633 63.5251C12.4446 63.0022 12.6925 62.4217 12.4701 61.9061C12.2329 61.3609 12.2352 61.3574 11.754 61.7359C11.6778 61.431 11.7562 61.2018 11.96 60.9325C12.3089 60.471 11.9867 59.931 11.9799 59.4254C11.9778 59.1057 11.8777 58.7849 11.8078 58.4669C11.7556 58.2372 11.823 57.8501 11.3616 58.106C11.2414 58.1717 11.2464 58.0343 11.2406 57.9762C11.2158 57.75 11.1203 57.4816 11.2056 57.3014C11.4689 56.7385 11.3702 56.1891 11.1616 55.6826C10.8015 54.8212 10.9167 53.8908 10.6569 53.0122C10.0405 50.9216 9.84363 48.7347 9.28542 46.6235C9.10165 45.9312 8.88309 45.2281 8.91072 44.4813C8.92004 44.1593 9.04287 43.9152 9.15768 43.6312C9.51292 42.7592 10.3252 42.2875 10.9927 41.8626C11.5686 41.4977 12.0444 40.9009 12.7961 40.7616C13.3335 40.6623 13.7359 40.2019 14.1916 39.9175C14.9474 39.4452 15.8643 39.2578 16.5117 38.6146C16.6779 38.4537 16.8939 38.4221 17.0723 38.3654C18.0534 38.0554 18.8888 37.3744 19.8884 37.1851C20.6019 37.0475 21.2713 36.7942 21.9597 36.6053C22.7637 36.3872 23.5259 36.0204 24.3459 35.8079C25.2873 35.5652 26.2314 35.307 27.143 34.9309C27.8221 34.6519 28.5189 34.402 29.1866 34.0957C29.8082 33.8106 30.4206 33.5243 31.0993 33.3759C31.5899 33.2653 32.0536 32.9763 32.4808 32.7273C33.1045 32.3646 33.8278 32.3199 34.4327 31.9521C35.0723 31.5655 35.7834 31.3275 36.4774 31.0634C37.2876 30.7581 38.0589 30.3627 38.8422 30.0124C39.3185 29.801 39.7417 29.5024 40.2168 29.3C40.5632 29.1503 40.8673 28.8934 41.28 28.9408C41.3342 28.9448 41.4003 28.9344 41.4447 28.9047C42.4016 28.2823 43.5419 28.0558 44.5085 27.4967C45.0741 27.1694 45.7025 26.9036 46.2064 26.402C46.4461 26.1641 47.0241 26.1486 47.3982 25.8865C47.7497 25.6438 48.2724 25.678 48.4787 25.171C48.5105 25.0935 48.8766 25.2184 49.0902 25.1013C49.853 24.6781 50.6043 24.2275 51.4785 24.0634C51.5155 24.056 51.5691 24.0423 51.5816 24.016C51.8885 23.2724 52.6058 23.4482 53.179 23.2469C53.9424 22.9747 54.6567 22.5316 55.3442 22.0879C55.7696 21.8155 56.2815 21.8252 56.6961 21.5135C57.7742 20.6977 59.0355 20.1741 60.2181 19.5537C61.4383 18.9139 62.6933 18.2404 64.1009 18.0313C64.1961 18.0181 64.3534 18.0338 64.3767 17.9876C64.8515 16.9879 65.6637 17.871 66.2915 17.6468C67.0072 17.3872 67.7812 17.3886 68.5427 17.3421C69.6758 17.2712 70.7888 17.5721 71.9149 17.467C72.2033 17.4416 72.3813 17.5451 72.5491 17.7604C72.8979 18.212 73.2376 18.6773 73.7976 18.8967C73.8752 18.9285 73.9471 18.9911 73.885 19.0658C73.556 19.4493 73.9285 19.6649 74.1071 19.8898C74.6774 20.617 74.9959 21.4779 75.4403 22.272C76.0155 23.3036 76.279 24.4809 76.8799 25.4925C77.2894 26.1869 77.3906 26.9848 77.7898 27.6723C78.6511 29.1533 79.1711 30.78 79.8028 32.3576C80.0572 32.9883 80.1914 33.655 80.3734 34.2796C80.6801 35.3326 80.8695 36.4507 80.9814 37.5666C81.1388 39.1596 81.2308 40.7657 81.6139 42.3311C81.7038 42.6895 82.9133 43.6468 83.276 43.7399C83.8627 43.8857 84.4357 44.0817 85.0037 44.2816C85.4975 44.4521 86.3767 44.1507 86.5585 43.6545C86.6557 43.4008 86.7015 43.6139 86.7602 43.6258C87.1901 43.7142 87.532 43.5713 87.9353 43.3953C88.5324 43.1358 88.9711 42.5169 89.7504 42.6032C90.0565 42.6365 90.3948 42.4024 90.7139 42.2789C91.4181 42.0067 92.1034 41.6702 92.8277 41.4681C94.063 41.1247 95.3218 40.8685 96.5727 40.5723C96.8274 40.5122 97.134 40.5186 97.2962 40.2785C97.505 39.9756 97.591 40.3733 97.8059 40.336C99.2904 40.067 100.804 40.0738 102.309 39.9962C102.57 39.9822 102.853 39.9876 103.064 39.785C103.171 39.6834 103.263 39.6827 103.362 39.7755C103.652 40.0551 104.049 40.0255 104.338 39.926C105.119 39.6561 105.867 39.9681 106.632 39.9536C107.644 39.9307 108.656 40.2875 109.637 40.2265C110.603 40.1655 111.424 40.5784 112.306 40.7182C113.818 40.9564 115.336 41.5138 116.706 42.2224C117.441 42.6052 118.253 43.2095 118.449 44.2997C118.65 45.4184 119.103 46.5014 119.401 47.6006C119.664 48.5705 120.045 49.5196 120.138 50.5415C120.175 50.9314 120.313 51.3245 120.443 51.6897C120.76 52.5894 120.853 53.552 121.216 54.4277C121.464 55.027 121.455 55.7196 121.906 56.2486C122.041 56.4052 122.081 56.6343 121.997 56.8943C121.914 57.1452 121.863 57.4639 122.182 57.6664C122.246 57.704 122.272 57.8322 122.281 57.9222C122.396 58.9339 122.676 59.9003 122.994 60.862C123.388 62.0517 123.594 63.2998 124.052 64.4706C124.101 64.5943 124.164 64.715 124.246 64.817C124.766 65.4684 125.105 66.18 125.056 67.0407C125.047 67.2026 125.189 67.3045 125.292 67.4201C125.505 67.6558 125.658 67.9423 125.559 68.2588C125.447 68.6163 125.616 68.9114 125.765 69.1688C126.03 69.6165 126.29 70.021 126.197 70.5939C126.146 70.9126 126.524 71.127 126.58 71.5072C126.738 72.59 127.237 73.5926 127.559 74.6365C127.761 75.2866 127.878 76.0309 128.311 76.6346C128.518 76.925 128.298 77.3636 128.544 77.7173C128.806 78.0915 128.797 78.5914 129.069 78.9992C129.243 79.2635 129.206 79.6534 129.332 79.9867C129.82 81.2584 130.251 82.5501 130.694 83.8366C130.751 84.003 130.793 84.1637 130.945 84.2724C131.088 84.3799 131.22 84.4898 131.069 84.698C130.953 84.8577 131.06 85.0526 131.168 85.102C131.679 85.3431 131.505 85.8198 131.598 86.2073C131.742 86.8039 131.933 87.3851 132.261 87.9091C132.313 87.9934 132.389 88.0612 132.365 88.1638C132.251 88.6581 132.535 89.0517 132.705 89.4681C133.167 90.5996 133.422 91.7935 133.794 92.949C134.111 93.9376 134.288 95.0078 134.932 95.8803C134.973 95.9373 135.004 96.0319 134.987 96.0946C134.759 96.923 135.423 97.5424 135.55 98.3055C135.688 99.1227 136.037 100.001 136.5 100.771C136.625 100.98 136.679 101.233 136.744 101.469C136.778 101.592 136.826 101.701 136.942 101.728C137.144 101.777 137.071 101.531 137.204 101.456C136.809 102.796 137.562 103.94 137.8 105.17C138.022 106.332 138.609 107.376 139.009 108.484C139.133 108.818 139.276 109.189 139.818 109.128C139.503 109.446 139.461 109.754 139.668 110.092C139.948 110.539 140.25 111.012 140.425 111.469C140.602 111.92 140.612 112.499 140.813 112.968C141.346 114.219 141.511 115.57 141.938 116.851C142.215 117.682 142.308 118.6 142.49 119.473C142.738 120.648 142.722 121.908 143.386 122.972C143.538 123.211 143.343 123.36 143.364 123.57C143.47 124.55 143.912 125.452 143.947 126.465C143.961 126.918 144.035 127.553 144.439 127.981C144.666 128.226 144.412 128.497 144.447 128.747ZM125.305 104.746C125.266 104.511 125.173 104.224 124.978 104.168C124.458 104.015 124.439 103.583 124.406 103.21C124.322 102.237 123.945 101.319 123.886 100.35C123.829 99.4158 122.819 98.7712 123.124 97.7403C123.14 97.6867 123.059 97.6081 123.024 97.5381C122.406 96.2335 121.685 94.9763 121.142 93.6357C121.052 93.4107 120.819 93.2383 120.74 93.0793C120.553 92.7136 120.196 92.3202 120.157 92.0551C120.082 91.5069 119.956 91.0254 119.674 90.5691C119.076 89.5986 118.724 88.4835 117.943 87.6208C117.863 87.5332 117.829 87.4124 117.863 87.2989C117.933 87.0566 117.734 86.9245 117.672 86.7473C117.574 86.4499 117.148 86.4704 117.159 86.1569C117.17 85.8166 117.268 85.4767 116.712 85.5708C116.606 85.5892 116.595 85.449 116.644 85.3503C116.89 84.8234 116.41 84.4665 116.328 84.0175C116.305 83.8858 116.186 83.7703 116.029 83.8109C115.614 83.918 115.741 83.6345 115.775 83.4498C115.845 83.0593 115.761 82.7174 115.471 82.4527C115.289 82.2876 115.206 82.0791 115.109 81.8763C114.664 80.946 114.235 80.0094 113.79 79.082C113.721 78.9298 113.637 78.7008 113.445 78.7483C112.977 78.8692 113.158 78.5184 113.149 78.3542C113.117 77.7706 113.037 77.1939 112.619 76.768C112.422 76.5704 112.317 76.4018 112.256 76.1266C112.174 75.7636 112.164 75.2705 111.515 75.3448C111.332 75.3639 111.126 75.005 111.271 74.7683C111.412 74.5413 111.319 74.4177 111.257 74.2108C111.051 73.5436 110.537 73.0363 110.334 72.3953C110.145 71.7959 109.633 71.4454 109.437 70.797C109.13 69.7679 108.342 68.9035 107.884 67.8929C107.776 67.6508 107.669 67.1356 107.126 67.3249C107.01 67.3661 106.901 67.1952 106.975 67.0914C107.201 66.7702 106.984 66.5767 106.834 66.3312C106.639 66.0116 106.43 65.6801 106.347 65.3234C106.236 64.8624 106.048 64.6067 105.463 64.7334C105.746 64.3118 105.654 63.9596 105.52 63.6161C105.371 63.2309 105.15 62.973 104.674 63.14C104.566 63.1766 104.564 63.0198 104.548 62.9252C104.532 62.8158 104.522 62.6785 104.451 62.6039C104.102 62.2292 103.942 61.8019 104.002 61.2888C104.011 61.2011 103.981 61.0232 103.918 61.0478C103.481 61.2336 103.683 60.8788 103.675 60.7529C103.648 60.3847 103.393 60.1307 103.224 59.8385C103.037 59.5116 102.952 59.991 102.78 59.9308C102.633 59.8774 102.535 59.7578 102.588 59.6227C102.87 58.9047 102.333 58.5502 101.961 58.1004C101.566 57.6254 101.13 57.476 100.572 57.8136C100.592 57.19 100.314 56.7776 99.7646 56.6568C99.3426 56.5638 99.366 57.0483 99.1417 57.2743C99.0182 56.4394 99.0312 56.4012 98.5819 56.2455C98.2278 56.1211 97.8634 56.0195 97.5224 55.8569C97.4043 55.8006 97.2869 55.8064 97.2044 55.8971C97 56.1191 96.7851 56.1416 96.4966 56.0633C96.3085 56.0122 96.0868 56.0746 95.8846 56.1597C95.5017 56.3198 94.962 55.9066 94.6822 56.4758C94.6183 56.4086 94.5589 56.3346 94.4882 56.2776C94.4528 56.2492 94.3913 56.2527 94.3479 56.2436C94.2552 56.3868 94.3352 56.5782 94.1552 56.6856C93.9508 56.3472 93.6595 56.3436 93.3028 56.442C92.8361 56.5686 92.3574 56.6649 91.8781 56.7287C91.6616 56.7575 91.4723 56.7748 91.3255 56.9585C91.21 57.1063 91.059 57.2107 90.8912 57.0399C90.7355 56.8845 90.58 56.981 90.4141 56.9818C90.0584 56.9822 89.8592 57.1853 89.6018 57.3943C89.4639 57.505 89.0628 57.1025 88.7112 57.2414C88.5762 57.2923 88.3943 57.2429 88.3256 57.4317C88.3074 57.4887 88.3281 57.6357 88.2117 57.5583C87.6424 57.1748 87.1191 57.624 86.5834 57.6725C86.2078 57.7066 85.7268 57.7619 85.4387 58.0985C85.153 58.4317 84.9616 58.5266 84.5345 58.3931C84.4239 58.359 84.3504 58.4212 84.2798 58.4829C84.0372 58.6918 83.7295 58.7241 83.4383 58.8093C83.0349 58.9261 82.6251 58.9967 82.2217 59.1134C81.469 59.336 80.9528 60.0565 80.1144 60.0592C80.0819 60.0598 80.0523 60.1043 80.0192 60.1169C79.2933 60.3549 78.5897 60.6299 77.8981 60.9647C76.9547 61.4184 75.9456 61.737 74.9645 62.1064C74.5868 62.2476 74.2826 62.46 74.1492 62.8574C74.0958 63.0194 73.9717 63.1985 73.8353 63.051C73.486 62.6707 73.1192 62.8957 72.8509 63.0505C72.2984 63.3692 71.6669 63.4577 71.1115 63.7473C70.4405 64.0958 69.5913 64.1926 69.2862 65.0781C69.1908 65.3553 68.9484 65.2261 68.7607 65.1038C68.4299 64.8887 68.1826 65.0007 67.9892 65.3065C67.885 65.4668 67.7992 65.6442 67.6694 65.78C67.4906 65.9671 67.2851 66.1538 67.1119 65.7498C66.9433 65.3539 66.6653 65.4899 66.4124 65.6475C66.3042 65.7137 66.1836 65.9248 66.1379 65.9043C65.5945 65.6786 65.4262 66.0653 65.267 66.4383C65.0971 66.3746 65.2021 66.0274 64.9048 66.1702C63.7033 66.741 62.1888 66.7137 61.3998 68.0821C61.2371 67.8332 61.1364 67.554 60.8145 67.6781C60.3963 67.8393 60.1405 68.4689 59.5468 68.111C59.2241 68.5554 58.6973 68.442 58.2642 68.5885C57.9788 68.6874 57.8058 68.9624 57.4165 68.9725C56.9155 68.9873 56.2399 68.8564 56.0396 69.629C56.0328 69.6541 55.6538 70.1573 55.3967 69.6606C55.3093 69.4914 55.1287 69.6255 54.9828 69.6371C54.768 69.6596 54.6491 69.8643 54.4045 69.8424C53.8989 69.8048 53.5429 70.0395 53.4507 70.6124C53.1468 70.1044 52.835 70.0722 52.4291 70.4711C52.3596 70.5385 52.3112 70.6075 52.2029 70.6145C51.7493 70.6435 51.3601 70.7722 51.136 71.2205C51.0826 71.3231 50.9277 71.4373 50.8205 71.4352C50.6119 71.4297 50.7314 71.2426 50.7107 71.1252C50.6545 70.8015 50.4215 70.9403 50.2711 71.0032C49.9304 71.1518 49.611 71.4651 49.2753 71.4763C48.2283 71.518 47.3591 72.0901 46.383 72.3221C45.9698 72.4201 46.1114 73.0794 45.7379 73.0063C45.405 72.9428 45.1346 72.7927 44.778 72.9652C44.5593 73.0715 44.3291 73.1801 44.0687 73.2414C43.2384 73.4321 42.4265 73.7141 41.6186 73.9864C40.985 74.1968 40.3806 74.5082 39.7372 74.6554C39.1708 74.7872 38.8755 75.2943 38.2019 75.3794C37.1088 75.5163 36.3005 76.4943 35.3019 76.9976C35.0866 77.1061 35.1149 77.4236 34.8397 77.5442C34.356 77.7631 33.9181 78.0765 33.5674 78.485C33.1331 78.9934 32.6754 79.4887 32.6438 80.2155C32.6393 80.3409 32.4821 80.3696 32.412 80.4489C31.7717 81.1855 31.1079 81.909 31.2824 83.0124C31.3043 83.1651 31.4708 83.2561 31.4083 83.4317C31.2009 84.0071 31.3732 84.5683 31.5135 85.1182C31.8261 86.3331 32.1501 87.5457 32.5306 88.744C32.6238 89.0306 32.5657 89.5374 33.1004 89.5424C33.5489 89.547 33.5349 89.7574 33.3312 90.0415C33.1383 90.3056 33.1015 90.5354 33.2142 90.8744C33.4962 91.7308 33.6961 92.6066 33.993 93.463C34.3756 94.5541 34.3268 95.7853 35.0103 96.7952C35.0486 96.8527 35.0487 96.9416 35.0488 97.0157C35.0506 97.5994 35.2552 98.1156 35.5078 98.634C35.81 99.2521 36.1801 99.8832 36.2744 100.543C36.3514 101.073 36.5799 101.516 36.7805 101.953C37.0639 102.566 37.1241 103.367 36.6392 103.992C37.0398 103.89 37.2956 103.806 37.4278 104.213C37.8408 105.499 38.2453 106.787 38.7461 108.039C39.1514 109.051 39.3624 110.144 39.9574 111.083C40.0008 111.151 39.985 111.264 39.9766 111.355C39.9479 111.713 40.0156 112.079 40.2308 112.338C40.648 112.835 40.7866 113.406 40.9156 114.018C41.1455 115.131 41.7405 116.114 42.0861 117.197C42.4654 118.375 42.9666 119.525 43.3123 120.728C43.5675 121.613 44.061 122.43 44.2683 123.313C44.5146 124.346 44.9045 125.311 45.2624 126.294C45.5112 126.971 45.92 127.603 46.1254 128.27C46.4556 129.336 46.8746 130.373 47.1677 131.446C47.3245 132.019 47.8466 132.448 47.7806 133.093C47.7592 133.31 47.8444 133.483 47.9255 133.68C48.1622 134.237 48.3247 134.824 48.5175 135.399C48.6799 135.882 48.7495 136.39 48.9045 136.881C49.1082 137.525 49.4315 138.144 49.4734 138.839C49.5077 139.407 49.8274 139.891 49.9256 140.452C49.9738 140.736 50.1143 141.037 50.178 141.353C50.2944 141.932 50.4438 142.512 50.6582 143.062C50.7731 143.353 51.1672 143.544 50.8314 143.937C50.7596 144.023 50.8426 144.273 50.9458 144.285C51.5073 144.35 51.2205 144.737 51.2242 144.991C51.2273 145.213 51.2452 145.405 51.4221 145.562C51.5225 145.648 51.6611 145.763 51.6168 145.896C51.3907 146.555 52.1082 146.894 52.2934 146.842C52.8341 146.686 53.0113 147.125 53.3279 147.283C53.6569 147.445 54.0512 147.313 54.3708 147.663C54.5084 147.816 55.1025 147.97 55.3794 147.887C55.984 147.709 56.6008 147.813 57.1862 147.776C58.0462 147.718 58.8582 147.496 59.6851 147.347C60.2972 147.236 60.9069 147.039 61.5259 147.021C63.5128 146.965 65.2735 145.991 67.1912 145.665C67.2453 145.654 67.2943 145.617 67.3456 145.592C67.9853 145.265 68.6724 144.996 69.3276 144.746C70.2335 144.4 71.052 143.856 72.0007 143.606C72.5187 143.469 72.9867 142.966 73.4809 142.961C74.5348 142.954 75.2899 142.316 76.1467 141.918C76.5016 141.752 76.8751 141.929 77.1582 141.7C77.8421 141.15 78.7185 140.968 79.4888 140.626C80.3787 140.23 81.209 139.628 82.2189 139.49C82.4959 139.452 82.7105 139.237 82.9966 139.155C83.8017 138.928 84.5411 138.521 85.3519 138.278C85.9861 138.085 86.6853 137.921 87.1406 137.34C87.1714 137.301 87.2534 137.267 87.2973 137.279C87.9781 137.465 88.5277 137.058 89.0746 136.815C90.2448 136.295 91.4549 135.87 92.6245 135.347C93.4438 134.984 94.3149 134.672 95.1913 134.416C96.0705 134.159 96.8148 133.585 97.726 133.354C98.3978 133.187 99.0232 132.803 99.6402 132.465C100.206 132.153 100.635 131.589 101.36 131.583C101.425 131.581 101.504 131.459 101.544 131.377C101.638 131.183 101.791 131.146 101.975 131.189C102.131 131.229 102.277 131.232 102.42 131.162C103.9 130.416 105.394 129.695 106.856 128.914C108.027 128.293 109.137 127.563 110.297 126.92C110.922 126.575 111.532 126.162 112.151 125.806C113.06 125.282 113.935 124.682 114.906 124.276C115.213 124.15 115.272 123.826 115.572 123.698C116.115 123.464 116.616 123.138 117.141 122.86C117.833 122.496 118.379 121.926 119.072 121.556C119.921 121.1 120.757 120.6 121.29 119.743C121.337 119.668 121.427 119.585 121.505 119.575C122.271 119.462 122.579 118.858 122.928 118.292C123.009 118.164 123.092 117.975 123.21 117.939C123.937 117.737 124.061 117.027 124.398 116.52C124.984 115.646 125.028 114.567 125.297 113.579C125.528 112.723 125.877 111.876 125.817 110.961C125.765 110.188 125.561 109.438 125.681 108.637C125.758 108.135 126.048 107.528 125.49 107.068C125.462 107.045 125.467 106.952 125.49 106.903C125.824 106.15 125.419 105.461 125.305 104.746ZM72.2887 68.7135C73.5544 68.0497 74.8807 67.4804 76.2425 66.9989C76.6715 66.8474 77.1792 66.7037 77.5852 66.3789C78.1883 65.8988 79.0183 65.9571 79.6819 65.5716C80.8524 64.8914 82.1768 64.5923 83.4256 64.1098C83.5162 64.0738 83.6085 64.0463 83.6866 63.992C84.8547 63.2115 86.2317 63.1153 87.5418 62.7894C89.2296 62.3668 90.9467 62.0895 92.634 61.664C93.805 61.3691 94.9868 61.0246 96.2024 60.9075C96.7348 60.8567 97.1813 61.0129 97.6354 61.3396C98.612 62.0384 99.0408 63.1084 99.6523 64.0556C100.861 65.9232 101.616 68.0245 102.727 69.9355C103.009 70.4242 103.028 71.0934 103.739 71.3981C103.193 71.5583 102.809 71.76 102.523 72.1468C102.348 72.3835 101.971 72.1776 101.723 72.358C100.79 73.0408 99.6266 73.3135 98.7172 74.0687C98.4353 74.3033 98.0372 74.5198 97.5841 74.5961C96.6632 74.7488 95.9018 75.3704 95.0038 75.6371C94.7269 75.7195 94.5608 76.0434 94.4414 76.3343C94.3914 76.454 94.354 76.6068 94.1744 76.5837C94.0102 76.5633 94.0505 76.4396 94.0447 76.3222C94.0232 75.9945 93.8182 76.1543 93.6821 76.2143C92.2783 76.8407 90.926 77.5753 89.5005 78.1526C89.0755 78.3241 88.776 78.6482 88.2375 78.7269C87.5673 78.8292 86.9923 79.4785 86.3142 79.6446C85.5284 79.8353 85.095 80.5837 84.3108 80.7088C84.1991 80.7283 84.1138 80.8789 84.0124 80.9645C83.9133 81.0467 83.8394 81.2395 83.6969 81.1644C83.2075 80.913 82.7593 81.2345 82.4837 81.4411C81.876 81.8984 81.0832 81.9512 80.5281 82.4928C80.3174 82.6982 79.9378 82.6827 79.6392 82.805C79.0775 83.0337 78.6026 83.4435 77.9985 83.565C77.807 83.6006 77.7223 83.754 77.6267 83.8978C77.3581 84.3165 76.7905 84.3388 76.6104 83.8859C76.4486 83.4796 76.1973 83.5124 75.7459 83.5973C76.3279 82.5997 75.5771 82.0066 75.3214 81.2961C75.2231 81.0135 74.9914 80.7904 74.9141 80.4798C74.8568 80.2542 74.7237 79.9756 74.4865 80.388C74.4228 80.4986 74.3288 80.5768 74.2096 80.4852C74.0909 80.3964 74.1392 80.2681 74.2104 80.1797C74.6663 79.6165 74.1323 79.217 73.975 78.7595C73.9544 78.7014 73.8403 78.6206 73.7987 78.6349C72.7384 78.9935 73.301 78.0472 73.3065 77.8682C73.3197 77.4179 73.0623 77.1851 72.9143 76.8472C72.6754 76.3083 71.916 76.1291 72.0131 75.3743C72.0606 75.006 71.8891 74.6106 71.3425 74.6494C71.0325 74.6703 71.1656 74.4479 71.1933 74.2911C71.246 73.9929 71.4417 73.6986 70.9439 73.5082C70.7095 73.419 70.8663 72.9457 70.6745 72.6849C70.5306 72.4855 70.5485 72.1618 70.1252 72.3863C69.9167 72.4994 69.754 72.2653 69.8785 72.0001C70.098 71.529 69.9416 71.2966 69.4337 71.3366C69.0633 71.3666 69.0019 71.0321 69.1026 70.914C69.6286 70.3012 68.9994 70.3715 68.7621 70.2532C69.7432 69.3235 71.1357 69.319 72.2887 68.7135ZM40.7584 98.4135C40.3465 97.1919 39.9011 95.9801 39.3326 94.8196C39.288 94.7308 39.2509 94.6641 39.1301 94.6529C38.6193 94.6044 38.47 94.2016 38.5756 93.8276C38.7374 93.2614 38.5482 92.7777 38.3128 92.3448C37.9056 91.6025 37.7684 90.7733 37.4563 90.0031C37.3528 89.7541 37.2739 89.5239 37.1043 89.3001C36.8571 88.9703 36.9871 88.5262 36.9171 88.1341C36.795 87.4679 36.6579 86.7276 36.2863 86.2658C35.8513 85.7248 35.9151 85.2169 35.8358 84.6606C35.795 84.3842 35.6243 84.1102 35.4877 83.8442C35.2838 83.4494 35.3168 82.9358 35.2216 82.4777C35.091 81.8428 35.5805 81.7414 35.9718 81.5055C38.0326 80.2696 40.3461 79.6707 42.5756 78.8604C43.5202 78.5162 44.5318 78.3423 45.4261 77.8807C46.0949 77.5357 46.8295 77.4294 47.5029 77.1516C48.7381 76.6451 50.0397 76.3951 51.3046 76.0071C52.2898 75.7022 53.3087 75.4912 54.2716 75.1492C55.3781 74.7547 56.5595 74.6 57.6128 74.0589C58.3084 73.6996 59.0525 73.4787 59.8237 73.4066C60.1326 73.38 60.2252 73.1034 60.5021 73.0359C61.3529 72.8291 62.1979 72.6235 62.9789 72.158C63.3047 71.965 63.7754 71.8732 64.2125 71.8209C64.7944 71.7512 65.1037 72.0358 65.2336 72.5196C65.5393 73.6558 66.2637 74.5744 66.7677 75.6055C67.0642 76.2099 67.5442 76.7834 67.7627 77.3679C68.1458 78.3878 68.7595 79.2871 69.0788 80.3435C69.3323 81.176 69.6611 82.0734 70.2963 82.7401C70.5097 82.961 70.5974 83.308 70.6312 83.4613C70.8364 84.4666 71.6284 85.2055 71.7949 86.2096C71.815 86.3242 71.8219 86.4177 71.7296 86.4451C71.1911 86.6128 70.9091 87.215 70.3512 87.3154C69.3642 87.4933 68.5841 88.1691 67.6769 88.4346C66.9493 88.6492 66.4141 89.1571 65.6921 89.3557C64.9759 89.5532 64.3078 90.0493 63.6241 90.2758C62.1341 90.7683 60.847 91.7092 59.3107 92.0598C59.2195 92.0782 59.1347 92.1279 59.0492 92.1747C58.6083 92.4146 58.3377 93.0442 57.6756 92.7742C57.0424 93.3256 56.1784 93.3779 55.4641 93.7914C55.0181 94.0501 54.4818 94.1254 54.2404 94.8411C54.192 94.4091 54.0625 94.3402 53.8216 94.4836C53.1517 94.8822 52.2523 94.8764 51.8052 95.675C51.7176 95.8289 51.5952 95.486 51.3878 95.5751C51.1007 95.6952 50.8512 95.8699 50.604 96.0411C50.0186 96.4465 49.3016 96.5374 48.6773 96.9121C48.1453 97.2296 47.3669 97.3833 46.6934 97.587C45.9914 97.7964 45.2997 98.0423 44.6166 98.3013C44.432 98.3711 44.2933 98.2418 44.099 98.3076C43.8625 98.3848 43.6186 98.3954 43.4558 98.6179C43.371 98.7269 43.2703 98.8301 43.1151 98.7665C42.4183 98.4857 42.6212 98.9785 42.6455 99.3205C42.4888 99.3076 42.3463 99.2918 42.293 99.1009C42.2261 98.8564 42.0517 98.9034 41.8796 98.9765C41.2934 99.2309 40.9586 99.0107 40.7584 98.4135ZM48.2573 118.502C48.0938 118.073 47.7325 117.692 47.8259 117.169C47.8475 117.055 47.7607 116.933 47.6495 116.896C47.2771 116.77 47.1778 116.63 47.4184 116.234C47.53 116.052 47.3585 115.671 47.0534 115.54C46.8903 115.466 46.7044 115.411 46.7435 115.193C46.9332 114.147 46.3662 113.303 46.034 112.389C45.6434 111.317 45.3104 110.222 44.9364 109.144C44.7745 108.679 44.5626 108.229 44.3836 107.767C44.0274 106.837 43.6678 105.904 43.3361 104.963C43.2486 104.719 43.1663 104.502 42.9467 104.353C42.7481 104.221 42.6772 104.031 42.7323 103.803C42.7941 103.551 42.9752 103.42 43.2346 103.412C44.1095 103.384 44.9516 103.135 45.8128 103.009C46.2618 102.942 46.7355 102.924 47.0616 102.526C47.1072 102.473 47.1932 102.443 47.2644 102.429C48.7883 102.149 50.2297 101.577 51.6118 100.932C52.4897 100.521 53.3568 100.145 54.2902 99.9214C54.5677 99.8567 54.7094 99.6177 54.9726 99.5262C57.0118 98.8164 59.0121 97.987 61.0141 97.181C62.1633 96.7185 63.3593 96.3267 64.4747 95.7554C65.1332 95.4183 65.9042 95.2869 66.5416 94.9185C67.1819 94.5495 67.873 94.3156 68.5253 93.9917C69.1588 93.6774 69.8105 93.3951 70.4766 93.1543C70.9745 92.9771 71.4167 92.8169 71.319 92.1547C71.3092 92.0915 71.3599 92.019 71.3815 91.9495C71.4066 92.0007 71.4272 92.0588 71.4626 92.1021C71.7412 92.4552 72.0599 92.5215 72.4563 92.2668C72.7109 92.1029 73.0117 92.0068 73.2709 91.8509C74.1019 91.3546 74.5577 91.6157 74.7047 92.5971C74.7679 93.0143 75.0739 93.3707 75.2334 93.7804C75.6725 94.9164 76.1138 96.0639 76.6258 97.1645C77.1778 98.3461 77.6039 99.5796 78.1223 100.771C78.4961 101.627 78.8061 102.563 79.0865 103.485C79.2781 104.114 79.2693 104.88 79.8832 105.353C79.9431 105.4 79.9986 105.543 79.973 105.607C79.7445 106.137 80.2231 106.482 80.3188 106.928C80.3939 107.272 80.2103 107.76 79.8262 107.81C79.2449 107.883 78.7533 108.121 78.3839 108.584C78.3059 108.682 78.2285 108.769 78.1076 108.758C77.3916 108.691 76.9318 109.309 76.2839 109.433C76.0787 109.474 76.1754 109.778 76.069 109.971C75.8731 109.616 75.5717 109.695 75.3718 109.88C74.8115 110.396 74.0494 110.336 73.4216 110.635C72.9698 110.85 72.4444 110.965 72.1594 111.449C72.0837 111.574 71.9612 111.598 71.817 111.604C70.9575 111.649 70.2181 111.997 69.5677 112.537C69.3998 112.674 69.265 112.506 69.0907 112.582C68.2971 112.926 67.4858 113.225 66.6939 113.577C65.8387 113.954 64.8836 114.128 64.0725 114.576C63.1622 115.076 62.1169 115.142 61.2169 115.664C60.8159 115.895 60.7464 115.978 61.2575 116.263C60.7223 116.329 60.4913 116.669 60.1667 116.927C60.3072 116.683 60.2842 116.45 60.1261 116.268C59.9137 116.024 59.8065 116.419 59.6548 116.387C59.0972 116.268 58.5868 116.56 58.1869 116.768C57.4304 117.164 56.5429 117.099 55.8378 117.573C55.6658 117.691 55.4868 117.744 55.2468 117.686C54.9321 117.61 54.5532 117.76 54.484 118.035C54.3671 118.5 53.9908 118.413 53.7208 118.545C53.6074 118.6 53.4426 118.577 53.4533 118.438C53.4747 118.176 53.4471 117.995 53.1452 118.144C53.0022 118.215 52.4879 118.045 52.8088 118.535C52.8179 118.551 52.7957 118.588 52.7895 118.616C52.27 118.466 51.8871 119.068 51.3819 118.885C51.0808 118.773 50.939 118.894 50.7631 119.095C50.5189 119.37 50.2684 119.613 49.8241 119.409C49.5795 119.298 49.4561 119.539 49.4147 119.761C49.3762 119.982 49.3565 120.208 49.3209 120.488C49.1896 120.292 49.1074 120.149 49.1299 119.966C49.1367 119.912 49.1429 119.824 49.1127 119.807C48.419 119.35 48.5843 119.362 48.2573 118.502ZM89.5171 131.116C88.9874 130.974 88.6031 131.333 88.1552 131.45C87.9187 131.512 88.1077 131.744 88.1039 131.902C88.0994 131.998 88.0722 132.113 87.969 132.131C87.8522 132.154 87.8054 132.054 87.8075 131.947C87.8127 131.501 87.5022 131.667 87.3382 131.75C86.8511 131.997 86.4286 132.357 85.8427 132.392C85.6381 132.407 85.5922 132.65 85.638 132.863C85.6948 133.131 85.4982 133.215 85.309 133.232C85.0708 133.256 85.1327 133.078 85.1296 132.915C85.1276 132.596 84.8347 132.732 84.7641 132.793C84.5005 133.015 84.231 133.149 83.8827 133.098C83.8519 133.092 83.8075 133.122 83.7796 133.145C83.4505 133.44 83.0499 133.571 82.6488 133.744C81.9726 134.037 81.2259 134.098 80.5874 134.476C79.9033 134.877 79.1432 135.122 78.4397 135.501C78.0415 135.717 77.5663 135.801 77.1721 136.067C77.0388 136.156 76.8496 136.144 76.9132 136.416C76.9716 136.677 76.654 136.586 76.6107 136.562C75.8623 136.129 75.6215 136.847 75.2286 137.178C75.097 137.291 75.0255 137.495 74.8193 137.634C74.6835 137.018 74.3838 137.12 73.9503 137.353C73.2001 137.764 72.3841 138.041 71.5825 138.345C70.9404 138.587 70.3578 138.977 69.7248 139.235C69.4017 139.368 69.0959 139.557 68.7557 139.634C68.3727 139.72 68.0834 139.932 67.7565 140.12C67.4773 140.28 67.0636 140.345 66.6989 140.419C66.2293 140.516 65.6792 140.478 65.469 141.069C65.44 141.146 65.3712 141.216 65.2936 141.185C64.4371 140.847 63.6739 141.371 62.8646 141.445C62.6788 141.465 62.4925 141.541 62.353 141.687C62.1127 141.937 61.8885 142.237 61.5636 141.772C61.5339 141.728 61.3744 141.745 61.2912 141.773C60.3419 142.095 59.2737 142.031 58.4143 142.652C58.3288 142.713 58.2543 142.8 58.0774 142.687C57.738 142.474 57.3619 142.564 57.0219 142.775C56.7007 142.976 56.3761 143.234 56.0034 142.855C55.9703 142.823 55.8991 142.823 55.8455 142.822C55.2686 142.828 55.1025 142.577 55.0214 141.923C54.8729 140.699 54.77 139.466 54.434 138.267C54.3264 137.88 54.2324 137.487 54.2491 137.083C54.2612 136.76 54.1868 136.509 53.8607 136.405C53.766 136.377 53.7216 136.436 53.7642 136.265C53.94 135.503 53.844 134.76 53.4618 134.069C53.3927 133.947 53.3755 133.832 53.3799 133.692C53.3847 133.465 53.418 133.159 53.2942 133.03C52.7646 132.49 53.0111 131.77 52.7847 131.176C52.3794 130.119 52.1227 129.02 51.7686 127.953C51.5787 127.377 51.0961 127.483 50.571 127.423C51.6056 126.981 51.1551 126.318 50.9543 125.689C50.8136 125.255 50.715 124.809 50.4957 124.396C50.3626 124.148 50.4199 123.946 50.7007 123.78C50.9958 123.611 51.2002 123.419 51.6237 123.416C52.4405 123.409 53.2341 123.021 54.0817 123.079C54.5389 123.112 54.5838 122.524 55.0141 122.467C55.1959 122.443 55.4432 122.331 55.5607 122.399C56.2286 122.786 56.8911 122.425 57.4552 122.267C58.5464 121.958 59.6827 121.786 60.735 121.343C61.6477 120.958 62.6136 120.749 63.5446 120.425C63.7389 120.359 63.9177 120.231 64.0857 120.109C64.3056 119.949 64.5564 119.928 64.8002 119.858C65.3125 119.708 65.9104 119.688 66.3038 119.241C66.347 119.191 66.3664 119.169 66.4262 119.172C67.5708 119.232 68.4523 118.486 69.4723 118.192C70.433 117.912 71.2171 117.242 72.2064 117.09C72.525 117.038 72.6312 116.726 72.9316 116.671C73.8724 116.5 74.7463 116.099 75.614 115.725C76.7893 115.216 77.972 114.7 79.04 113.981C79.3868 113.745 79.7772 113.666 80.1401 113.555C80.7077 113.384 81.0177 112.848 81.5886 112.694C81.8029 112.639 81.946 112.658 82.0203 112.806C82.3134 113.393 82.4902 114.022 82.6676 114.653C82.8497 115.292 82.9012 116.02 83.6273 116.417C83.5779 116.599 83.0287 116.786 83.5721 117.012C83.4098 118.091 84.1341 118.935 84.3638 119.915C84.5861 120.872 85.0551 121.774 85.3435 122.721C85.6388 123.702 86.3402 124.522 86.4424 125.574C86.4556 125.699 86.5077 125.87 86.6001 125.931C87.1563 126.308 87.2254 126.932 87.466 127.479C87.6775 127.956 87.9869 128.403 88.3277 128.8C88.4943 128.995 88.6012 129.202 88.7126 129.416C88.9051 129.784 89.1425 130.05 89.5789 129.802C89.7118 129.948 89.2315 130.065 89.6238 130.203C89.8313 130.276 89.8032 130.564 89.8855 130.752C90.0781 131.178 89.7338 131.177 89.5171 131.116ZM85.0598 104.249C84.5583 103.377 84.478 102.403 84.1754 101.489C84.1519 101.417 84.1718 101.324 84.1307 101.267C83.4278 100.249 83.3779 98.9989 82.9075 97.8988C82.6166 97.2191 82.3034 96.5469 82.0011 95.8695C81.9468 95.747 81.9148 95.6468 81.7233 95.6527C81.5791 95.658 81.4684 95.5794 81.6568 95.3814C81.9022 95.1275 81.6517 94.3834 81.305 94.296C81.2149 94.2756 81.1278 94.3139 81.1231 94.1873C81.0632 92.7111 80.0963 91.5597 79.6878 90.207C79.6563 90.1096 79.5507 90.027 79.468 89.9547C79.0709 89.6018 79.1375 89.0785 79.6514 88.892C80.0634 88.7439 80.5039 88.6642 80.7229 88.2347C80.848 87.9872 80.9207 88.3194 81.0819 88.2218C81.893 87.7295 82.8441 87.5055 83.6055 86.9135C83.7416 86.8091 83.8647 86.7873 84.0249 86.7876C84.1737 86.7903 84.3811 86.7901 84.4614 86.7028C84.9248 86.1915 85.6258 86.1542 86.1521 85.823C87.0977 85.2325 88.0781 84.7714 89.1373 84.4515C89.2883 84.4063 89.3959 84.2335 89.528 84.1239C89.6288 84.0354 89.6604 83.8097 89.8796 84.0591C90.0217 84.2202 90.1058 83.9899 90.1718 83.8461C90.2849 83.5981 90.3993 83.4446 90.7682 83.5097C91.1159 83.5731 91.4988 83.4724 91.8052 83.1676C92.2242 82.7454 92.838 82.6574 93.3415 82.3901C93.7842 82.1587 94.4009 82.174 94.6653 81.6168C94.7438 81.4468 94.9194 81.5241 95.0733 81.5376C95.5795 81.5781 96.1291 81.1562 96.2836 80.6567C96.3199 80.5427 96.3465 80.3802 96.5524 80.5048C97.1787 80.8917 97.7483 80.4806 98.1686 80.1826C98.5262 79.9268 98.901 79.6676 99.2741 79.4443C99.9889 79.0188 100.491 78.3011 101.346 78.0579C101.75 77.9411 102.101 77.6244 102.456 77.3692C102.878 77.0677 103.395 76.9697 103.82 76.65C104.157 76.3954 104.594 76.2808 104.938 75.9892C105.562 75.4635 105.992 75.6289 106.278 76.3986C106.445 76.8453 106.678 77.2668 107.03 77.605C107.31 77.8777 107.454 78.2104 107.499 78.5957C107.505 78.6686 107.496 78.7684 107.539 78.8071C108.571 79.7526 108.618 81.2078 109.35 82.2996C109.765 82.9159 109.899 83.6864 110.461 84.2107C110.488 84.238 110.524 84.2693 110.527 84.3013C110.69 85.4485 111.445 86.3014 111.97 87.2721C112.513 88.2775 112.96 89.3378 113.467 90.3683C113.641 90.7158 113.93 90.972 113.32 91.2725C112.999 91.4319 112.82 91.9275 112.396 92.0722C112.31 92.1042 112.217 92.1111 112.114 92.1318C112.131 91.9625 112.478 91.9221 112.301 91.7325C112.165 91.5879 112.034 91.7921 111.909 91.8647C110.962 92.4141 109.928 92.8622 109.085 93.5477C108.221 94.2493 107.159 94.4956 106.242 95.0655C105.639 95.4419 104.861 95.628 104.211 96.0255C104.058 96.1186 103.928 96.2071 103.837 96.3588C103.718 96.5516 103.629 96.961 103.406 96.4129C103.376 96.3388 103.271 96.3629 103.201 96.3949C103.146 96.4178 103.096 96.4486 103.044 96.4737C102.196 96.8965 101.367 97.3626 100.499 97.7598C99.9153 98.0284 99.2817 98.2685 98.7076 98.5975C98.0582 98.9653 97.3186 99.1645 96.6646 99.5244C95.7247 100.04 94.678 100.348 93.8832 101.157C93.5638 101.485 92.9426 101.507 92.4788 101.707C91.451 102.154 90.4244 102.591 89.4441 103.141C88.9434 103.423 88.3467 103.522 87.854 103.844C87.346 104.177 86.7922 104.416 86.223 104.623C85.9547 104.718 85.8728 104.901 85.9677 105.166C86.0495 105.396 86.1022 105.613 85.7245 105.755C85.9989 105.012 85.3277 104.711 85.0598 104.249ZM121.169 108.285C120.89 108.575 121.166 108.899 121.231 109.194C121.454 110.217 121.715 111.232 121.956 112.253C122.052 112.658 121.826 113.006 121.7 113.354C121.32 114.38 120.863 115.337 119.742 115.823C119.151 116.082 118.672 116.587 118.097 116.899C117.335 117.313 116.548 117.673 115.841 118.18C114.515 119.134 112.975 119.717 111.625 120.629C111.481 120.723 111.36 120.813 111.283 120.991C111.137 121.338 111.125 121.278 110.768 121.142C110.483 121.037 110.258 121.363 110.091 121.536C109.871 121.768 109.759 121.918 109.358 121.915C108.789 121.914 108.32 122.397 107.79 122.637C107.391 122.818 106.936 122.99 106.833 123.526C106.816 123.63 106.68 123.646 106.601 123.567C106.5 123.463 106.354 123.442 106.302 123.535C106.039 124 105.527 123.931 105.133 124.093C104.804 124.228 104.564 124.371 104.574 124.82C104.289 124.497 104.08 124.605 103.78 124.736C103.177 124.997 102.63 125.386 101.979 125.54C101.912 125.557 101.828 125.612 101.799 125.675C101.454 126.393 100.668 126.258 100.113 126.565C99.5083 126.903 98.7606 127.003 98.3115 127.615C98.2581 127.688 98.1584 127.797 98.078 127.737C97.6587 127.421 97.377 127.789 97.0374 127.913C96.5542 128.091 96.1236 128.382 95.6102 128.497C95.2871 128.571 95.0497 128.82 94.8905 129.119C94.8233 129.242 94.8669 129.489 94.6531 129.443C94.3835 129.384 94.7862 129.131 94.5358 129.007C94.0283 129.299 93.8472 128.973 93.6996 128.52C93.6144 128.258 93.4448 128.02 93.3111 127.768C93.4803 127.636 93.7139 128.06 93.8349 127.719C93.9519 127.387 93.6339 127.397 93.4691 127.33C92.8931 127.09 92.4453 126.809 92.8326 126.082C92.8622 126.023 92.8119 125.876 92.7514 125.826C92.1791 125.339 92.1076 124.586 91.7341 123.997C91.625 123.823 91.571 123.451 91.1449 123.617C90.9802 123.683 90.7263 122.951 90.8851 122.768C91.119 122.502 90.9375 122.263 90.8819 122.016C90.8109 121.707 90.5729 121.939 90.3733 121.89C90.5707 121.545 90.4792 121.237 90.3408 120.903C90.099 120.306 89.7792 119.733 89.6576 119.084C89.6352 118.958 89.582 118.752 89.3904 118.758C89.2251 118.762 89.4158 118.973 89.2084 119.062C89.225 118.614 88.9891 118.222 89.1659 117.775C89.2443 117.575 89.2223 117.259 89.0705 117.183C88.6399 116.959 88.773 116.647 88.8244 116.314C88.8878 115.892 88.5944 115.524 88.4247 115.226C87.9844 114.452 87.9571 113.58 87.6968 112.772C87.4732 112.073 87.1338 111.403 87.0013 110.671C86.9795 110.563 86.895 110.438 87.0123 110.358C87.4873 110.037 87.9405 109.548 88.4619 109.458C89.2125 109.328 89.8014 108.954 90.412 108.6C90.7942 108.378 91.0978 108.133 91.5924 108.043C92.0409 107.958 92.6187 107.765 92.9916 107.408C93.3395 107.074 93.7977 107.053 94.1537 106.819C95.1185 106.177 96.1565 105.678 97.1893 105.167C98.0142 104.758 98.9099 104.48 99.6925 104.008C100.645 103.437 101.666 103.018 102.628 102.478C103.433 102.029 104.311 101.692 105.066 101.172C105.423 100.928 105.763 100.819 106.147 100.723C106.314 100.684 106.462 100.595 106.511 100.398C106.541 100.282 106.613 100.167 106.74 100.165C107.565 100.156 108.08 99.6496 108.641 99.1217C108.983 98.801 109.515 98.59 109.991 98.5239C110.744 98.4199 111.339 98.1342 111.761 97.5215C111.965 97.2254 112.268 97.2861 112.52 97.271C112.834 97.2552 113.07 97.178 113.258 96.9327C113.404 96.7433 113.597 96.6245 113.841 96.602C113.934 96.5922 114.082 96.5772 114.107 96.5219C114.476 95.7035 115.443 96.241 115.953 95.6938C116.114 95.522 116.264 95.7972 116.349 95.9698C116.7 96.6938 117.023 97.447 117.435 98.1231C118.57 99.9908 119.378 102.004 120.093 104.039C120.337 104.737 120.643 105.509 120.634 106.302C120.631 106.771 121.046 107.171 120.856 107.672C120.849 107.694 120.99 107.793 121.075 107.829C121.32 107.943 121.402 108.039 121.169 108.285ZM32.6692 70.2046C33.2163 70.1389 33.4729 70.2207 33.6325 70.7489C33.8396 71.4247 34.2552 71.8985 35.0106 72.0578C35.2888 72.1144 35.6308 72.1346 35.8511 72.3748C36.1959 72.7472 36.4499 72.5805 36.7334 72.2803C37.1074 71.8849 36.9535 71.3407 37.1519 70.8828C37.2729 70.6005 37.5239 70.2268 37.4478 69.9813C37.2538 69.3414 37.7334 69.0285 38.0501 68.8491C38.7849 68.4344 39.6534 68.2715 40.3665 67.7782C40.4861 67.6949 40.648 67.7779 40.6219 67.884C40.517 68.3201 40.9904 68.5658 40.8979 68.9609C41.0895 68.9995 41.0995 68.7395 41.2683 68.8123C41.19 69.6167 41.8815 70.696 42.48 71.1656C43.0402 71.6072 43.7893 71.6611 44.2784 72.2208C44.5638 72.5488 44.9643 72.3733 45.1462 71.9513C45.4879 71.174 45.4173 70.3077 45.7185 69.5208C45.9293 68.9625 46.0312 68.3639 46.197 67.788C46.411 67.0393 45.8286 66.6199 45.4655 66.1564C45.2897 65.9308 45.5329 65.3423 44.8719 65.4901C45.343 65.2086 45.8251 65.0849 46.1969 64.767C46.5665 64.4525 46.9172 64.1181 47.3672 63.9089C47.8042 63.7083 48.2805 63.5265 48.2433 62.8996C48.238 62.785 48.3577 62.7461 48.4563 62.7648C49.287 62.9297 49.5593 62.3087 49.8049 61.7463C50.3853 60.417 50.3716 58.9048 51.0267 57.5931C51.0438 57.56 51.0352 57.5172 51.0454 57.4796C51.3316 56.5889 50.9698 55.719 50.9522 54.8361C50.9466 54.4103 50.7481 54.2338 50.3179 54.4389C50.2919 54.1032 50.6968 53.7431 50.1791 53.6605C49.9003 53.6158 49.8027 53.5139 49.6685 53.2889C49.5823 53.1402 49.4287 52.9665 49.2103 52.883C48.2569 52.5204 47.4001 51.9605 46.3323 51.8107C45.7953 51.735 45.1984 51.6416 44.6413 51.481C43.9765 51.2857 43.2185 51.4382 42.4978 51.2452C41.9619 51.101 41.3709 51.1696 40.8037 51.1503C40.3887 51.1359 39.8509 51.3657 39.8255 50.6207C39.8202 50.4765 39.6942 50.4693 39.5637 50.4837C39.0251 50.5328 39.0738 50.2146 39.2769 49.9277C39.4135 49.7372 39.423 49.5633 39.3658 49.3969C39.1811 48.8767 38.9742 48.364 38.7541 47.8598C38.7101 47.7589 38.6243 47.5242 38.4843 47.6384C38.2052 47.8724 38.2636 47.5582 38.284 47.5126C38.6593 46.7108 38.0339 46.1221 37.7744 45.5102C37.4292 44.6933 37.4585 44.3968 38.3024 44.2003C39.0671 44.0227 39.821 43.8207 40.5772 43.6151C40.7458 43.5693 40.8425 43.3276 41.0293 43.6813C41.2492 44.0966 41.7991 43.9711 42.0317 43.5359C42.2416 43.1498 42.2217 42.7121 42.382 42.3152C42.6412 41.673 42.381 40.9694 42.7581 40.2798C43.0351 39.7705 42.7919 38.9448 42.2013 38.8976C41.617 38.8522 41.0502 38.6282 40.4501 38.7401C39.9019 38.8445 39.3879 38.9568 38.7893 38.9142C37.8847 38.8531 36.9536 39.162 36.0396 39.334C35.6743 39.4046 35.4519 39.3307 35.3562 38.9438C35.1833 38.2611 34.983 37.5899 34.8101 36.9073C34.7637 36.7209 34.7173 36.5494 34.4922 36.5947C34.0574 36.6881 34.0565 36.3889 34.071 36.1221C34.0917 35.7681 33.911 35.7392 33.6449 35.8017C33.1012 35.9289 32.8168 36.4011 32.5807 36.8044C32.3583 37.1871 32.1461 37.5322 31.809 37.8313C31.1149 38.4483 30.9777 39.638 31.5012 40.3243C31.6742 40.5504 31.6259 40.6342 31.406 40.7496C30.5355 41.2123 29.6137 41.552 28.7101 41.9383C28.4617 42.0446 28.3754 41.8663 28.251 41.7194C28.1374 41.5822 28.2837 41.366 28.092 41.2533C27.9108 41.2809 27.9614 41.6502 27.6768 41.5326C27.3631 41.403 27.4153 41.1168 27.2895 40.8159C27.5136 40.928 27.6484 41.1558 27.8147 40.9801C27.9775 40.802 27.8439 40.6244 27.7075 40.4769C27.6812 40.4496 27.6573 40.4188 27.6333 40.388C27.3747 40.0458 26.9008 39.901 26.8779 39.3156C26.8679 39.0597 26.4452 38.6971 26.0387 39.1228C25.9846 39.1781 25.796 39.2724 25.8397 39.062C25.9196 38.6487 25.5489 38.5009 25.3527 38.41C25.0521 38.2718 25.0019 38.6851 24.8887 38.8739C24.6668 39.2447 24.7556 39.6418 24.9562 40.1084C24.671 39.8842 24.3875 39.713 24.2055 40.0609C23.9996 40.4521 23.577 40.7684 23.7008 41.2949C23.7266 41.4083 23.672 41.5053 23.5779 41.5242C22.8439 41.663 23.5434 42.2219 23.2907 42.5574C23.1809 42.704 23.6176 42.8266 23.8537 42.8947C23.9449 42.9209 24.1887 42.7918 24.0836 43.0649C23.9694 43.3666 24.238 43.5082 24.3141 43.7241C24.4496 44.1178 24.9545 44.4461 24.5669 44.951C23.6215 46.1759 22.7304 47.4344 21.9373 48.768C21.1745 50.0451 20.3129 51.2739 19.947 52.7409C19.8267 53.2335 19.702 53.7923 19.9414 54.2896C20.1676 54.751 20.3642 55.2125 20.4942 55.7111C20.5715 56.0068 20.7097 56.2666 21.1017 56.1077C21.1889 56.0694 21.3422 56.0356 21.2757 56.1913C21.1318 56.5226 21.4459 56.5069 21.5639 56.5631C22.4497 57.0016 23.3666 57.3448 24.3194 57.6452C25.3059 57.9507 26.2723 57.6999 27.2324 57.904C27.6749 57.9959 28.2167 57.7564 28.6432 57.9463C29.1394 58.1726 29.082 58.7859 29.2529 59.2378C29.7201 60.4838 30.1866 61.727 30.6618 62.9685C30.8607 63.4858 31.0842 63.9923 31.3145 64.5478C30.9178 64.5653 30.6141 64.662 30.4275 64.9723C30.2409 65.2826 30.1133 65.7826 29.6646 65.1881C29.636 65.1493 29.5175 65.1643 29.4451 65.1729C29.0154 65.2327 28.5827 65.2338 28.397 65.7841C28.2402 66.2573 27.5007 66.501 27.8315 67.1875C27.8326 67.1932 27.7364 67.2748 27.705 67.2663C27.3264 67.1527 27.2664 67.4583 27.1338 67.6836C26.8187 68.2244 26.5292 68.7896 26.1621 69.2933C25.869 69.6932 26.0471 69.856 26.3943 69.9462C26.7877 70.045 27.1419 70.2287 27.5183 70.3605C28.2071 70.6013 28.8976 70.8359 29.6596 70.7182C30.6655 70.5603 31.6547 70.3197 32.6692 70.2046ZM42.5013 57.6868C42.4378 57.5039 42.6167 57.4204 42.79 57.4419C43.8629 57.5729 44.9556 57.5517 46.007 57.856C46.1513 57.8951 46.303 57.9565 46.4188 58.0459C46.9243 58.4363 46.9246 58.7623 46.3755 59.0685C45.6151 59.4883 44.8049 59.8085 44.0639 60.2659C43.6179 60.5394 43.2798 60.4652 43.2049 59.8428C43.1606 59.49 42.9723 59.2611 42.5589 59.6526C42.3449 58.9427 42.7164 58.3135 42.5013 57.6868ZM36.6498 58.206C36.7965 58.9502 36.965 59.7287 37.3278 60.4265C37.5148 61.0025 37.7714 61.5557 37.9403 62.1443C38.1606 62.9005 37.493 62.8095 37.1501 63.006C36.7622 63.2293 36.6171 62.9353 36.5055 62.6168C36.119 61.5354 35.7187 60.4597 35.3435 59.376C35.2309 59.0518 35.0009 58.7927 34.9355 58.4383C34.8712 58.1043 34.6543 58.3229 34.5074 58.4177C34.4071 58.4794 34.3052 58.5769 34.2008 58.4705C34.0804 58.3435 34.241 58.2726 34.2945 58.1848C34.4322 57.9703 34.7033 57.815 34.6146 57.4919C34.6054 57.4611 34.6738 57.3881 34.7153 57.3738C35.1279 57.2582 35.5713 57.2223 35.9653 57.309C36.3598 57.3986 36.5477 57.6988 36.6498 58.206ZM30.9336 46.7414C31.287 46.7592 31.4095 46.2632 31.7876 46.4184C31.8258 46.4166 31.8646 46.4177 31.901 46.4074C32.1837 46.3387 32.4221 45.9468 32.685 46.1044C32.9371 46.2523 32.6845 46.647 32.8102 46.9478C33.0543 47.5273 33.1508 48.1541 33.4279 48.7358C33.6445 49.1932 33.5933 49.7639 33.8389 50.2481C34.0783 50.7158 34.0515 50.7301 34.5991 51.0053C34.6384 51.0241 34.6721 51.1033 34.6653 51.1432C34.6449 51.2332 34.5824 51.3941 34.5642 51.3918C33.9718 51.2768 33.4255 51.5083 32.8647 51.6092C32.5302 51.6706 32.3755 51.4764 32.2389 51.1956C31.6218 49.9115 31.2714 48.5234 30.693 47.2256C30.5747 46.9619 30.6223 46.727 30.9336 46.7414ZM26.8572 51.8397C27.0073 52.0703 26.8046 52.1971 26.6005 52.2293C25.8962 52.3384 25.2006 52.2115 24.5363 52.0043C24.0779 51.8623 24.0654 51.4023 24.4657 51.0935C24.5865 51.001 24.7049 50.9268 24.7378 50.7512C24.8448 50.1782 25.5037 50.1523 25.7922 49.7296C25.9021 49.5682 26.2078 49.7616 26.2947 49.9576C26.4404 50.2841 26.6938 50.571 26.6863 50.9609C26.8069 51.2361 26.6693 51.5543 26.8572 51.8397Z" fill="white"/>
</svg>
