<svg width="92" height="108" viewBox="0 0 92 108" fill="none" xmlns="http://www.w3.org/2000/svg">
<mask id="mask0_395_1110" style="mask-type:luminance" maskUnits="userSpaceOnUse" x="0" y="0" width="92" height="66">
<path d="M0 0.857178H92V65.3103H0V0.857178Z" fill="white"/>
</mask>
<g mask="url(#mask0_395_1110)">
<path d="M83.0335 0.879517H22.933C22.3482 0.881749 21.7701 0.937552 21.1987 1.05362C20.625 1.16746 20.0692 1.33711 19.529 1.56032C18.9911 1.78353 18.4777 2.05809 17.9933 2.38175C17.5067 2.70764 17.058 3.07595 16.6451 3.48889C16.2321 3.90184 15.8638 4.3505 15.5402 4.83487C15.2143 5.31925 14.942 5.83264 14.7165 6.37282C14.4933 6.91077 14.3237 7.46657 14.2098 8.04023C14.096 8.61166 14.0379 9.18979 14.0379 9.77461V14.5626C13.4107 14.6184 12.7946 14.7322 12.1875 14.9041C11.5826 15.0737 10.9978 15.2992 10.4353 15.5782C9.87054 15.8594 9.33705 16.1876 8.83482 16.567C8.33259 16.9443 7.8683 17.3661 7.4442 17.8304C7.02009 18.2947 6.64063 18.7947 6.31027 19.3304C5.97768 19.8639 5.69866 20.4242 5.47098 21.0112C5.2433 21.5983 5.07143 22.2009 4.95536 22.8193C4.83929 23.4376 4.78125 24.0626 4.78125 24.6898C4.78125 25.3193 4.83929 25.9443 4.95536 26.5626C5.07143 27.1809 5.2433 27.7835 5.47098 28.3706C5.69866 28.9576 5.97768 29.5179 6.31027 30.0514C6.64063 30.5871 7.02009 31.0871 7.4442 31.5514C7.8683 32.0157 8.33259 32.4376 8.83482 32.8148C9.33705 33.1943 9.87054 33.5224 10.4353 33.8014C10.9978 34.0826 11.5826 34.3081 12.1875 34.4777C12.7946 34.6496 13.4107 34.7634 14.0379 34.8193V37.1563H9.52679C8.9375 37.1585 8.35268 37.2166 7.77455 37.3304C7.19866 37.4465 6.63616 37.6161 6.09152 37.8438C5.54688 38.0693 5.03125 38.346 4.54018 38.6742C4.05134 39.0001 3.59598 39.3728 3.1808 39.7902C2.76339 40.2054 2.39063 40.6608 2.06473 41.1496C1.73661 41.6407 1.45982 42.1563 1.23438 42.7009C1.0067 43.2456 0.837054 43.8081 0.720982 44.3862C0.607143 44.9621 0.546875 45.5469 0.546875 46.1362V64.3014C0.546875 64.4309 0.571428 64.5559 0.622768 64.6764C0.671875 64.7969 0.743304 64.9018 0.834821 64.9934C0.92634 65.0871 1.03348 65.1563 1.15179 65.2076C1.27232 65.2568 1.39732 65.2813 1.52679 65.2813H22.529C22.5737 65.2768 22.6161 65.2679 22.6585 65.2568C22.7478 65.2568 22.8371 65.2746 22.9286 65.2746H83.0335C83.6161 65.2724 84.1942 65.2166 84.7679 65.1027C85.3393 64.9867 85.8973 64.8193 86.4353 64.596C86.9754 64.3706 87.4888 64.0983 87.9732 63.7724C88.4598 63.4487 88.9085 63.0804 89.3214 62.6675C89.7344 62.2545 90.1027 61.8036 90.4286 61.3193C90.7522 60.8326 91.0268 60.3215 91.25 59.7813C91.4732 59.2434 91.6429 58.6853 91.7567 58.1139C91.8705 57.5402 91.9286 56.9621 91.9286 56.3795V9.77461C91.9286 9.18979 91.8705 8.61166 91.7567 8.038C91.6429 7.46657 91.4732 6.91077 91.25 6.37059C91.0268 5.83264 90.7522 5.31925 90.4263 4.83487C90.1027 4.34827 89.7344 3.89961 89.3214 3.48666C88.9085 3.07371 88.4576 2.70541 87.9732 2.38175C87.4866 2.05586 86.9754 1.78353 86.4353 1.55809C85.8951 1.33487 85.3393 1.16746 84.7679 1.05139C84.1942 0.937552 83.6161 0.881749 83.0335 0.879517ZM6.75 24.6898C6.75 24.1496 6.80357 23.6117 6.91071 23.0804C7.01563 22.5492 7.17411 22.0335 7.3817 21.5313C7.58705 21.0313 7.84152 20.5559 8.14286 20.105C8.4442 19.6541 8.78572 19.2367 9.16964 18.8527C9.55357 18.4688 9.96875 18.1273 10.4196 17.8259C10.8705 17.5246 11.346 17.2679 11.846 17.0603C12.346 16.8527 12.8616 16.6942 13.3929 16.5871C13.9241 16.48 14.4621 16.4264 15.0045 16.4264H15.029C15.5714 16.4264 16.1094 16.48 16.6406 16.5871C17.1741 16.692 17.6897 16.8505 18.192 17.0581C18.692 17.2679 19.1696 17.5224 19.6205 17.8237C20.0714 18.1273 20.4866 18.4688 20.8705 18.855C21.2545 19.2389 21.596 19.6563 21.8973 20.1072C22.1987 20.5603 22.4531 21.0358 22.6585 21.538C22.8661 22.0402 23.0223 22.5559 23.1272 23.0893C23.2321 23.6206 23.2857 24.1585 23.2857 24.7009C23.2835 25.2434 23.2299 25.7813 23.125 26.3126C23.0179 26.846 22.8616 27.3617 22.6518 27.8639C22.4442 28.3639 22.1897 28.8416 21.8884 29.2925C21.5848 29.7434 21.2433 30.1608 20.8594 30.5447C20.4754 30.9264 20.0558 31.2701 19.6049 31.5715C19.154 31.8728 18.6763 32.1251 18.1763 32.3326C17.6741 32.5402 17.1562 32.6965 16.625 32.8036C16.0915 32.9085 15.5558 32.9599 15.0112 32.9599C14.4688 32.9599 13.933 32.9063 13.3996 32.8014C12.8683 32.6943 12.3504 32.538 11.8504 32.3304C11.3482 32.1206 10.8728 31.8661 10.4219 31.5648C9.96875 31.2634 9.55357 30.9197 9.16964 30.5358C8.78572 30.1518 8.44196 29.7344 8.14063 29.2835C7.83929 28.8326 7.58482 28.355 7.37723 27.855C7.16964 27.3527 7.01339 26.8349 6.90848 26.3036C6.80357 25.7701 6.75 25.2344 6.75 24.6898ZM21.5513 63.3215H2.50893V46.1362C2.50893 45.6764 2.55357 45.2188 2.64509 44.7679C2.73438 44.3148 2.8683 43.8773 3.04464 43.4509C3.22098 43.0268 3.4375 42.6228 3.6942 42.2389C3.94866 41.855 4.24107 41.5023 4.56696 41.1764C4.89286 40.8505 5.24554 40.5581 5.62946 40.3036C6.01339 40.0469 6.41741 39.8304 6.84152 39.6541C7.26786 39.4777 7.70536 39.3438 8.15848 39.2545C8.60938 39.163 9.06696 39.1184 9.52679 39.1184H19.3147C19.8817 39.1184 20.442 39.1853 20.9933 39.3215C21.5424 39.4576 22.0692 39.6563 22.5737 39.9197C23.0759 40.1831 23.5402 40.5045 23.9643 40.8795C24.3906 41.2545 24.7634 41.6764 25.0871 42.1429L30.4531 49.9018C30.5826 50.0849 30.7545 50.2121 30.971 50.2768C31.1875 50.3438 31.3996 50.3371 31.6116 50.259L35.2946 48.8416C35.4665 48.7768 35.6429 48.7277 35.8237 48.6965C36.0067 48.6652 36.1897 48.6541 36.3728 48.6585C36.558 48.6652 36.7388 48.6898 36.9174 48.7322C37.0982 48.7746 37.2701 48.8349 37.4375 48.913C37.6049 48.9911 37.7634 49.0826 37.9107 49.192C38.0603 49.3014 38.1964 49.4242 38.3192 49.5626C38.442 49.6987 38.5513 49.846 38.6451 50.0045C38.7388 50.163 38.817 50.3304 38.8772 50.5023L38.9152 50.5983C38.971 50.7612 39.0134 50.9286 39.0379 51.1005C39.0647 51.2701 39.0737 51.4443 39.067 51.6161C39.0603 51.7902 39.0379 51.9599 38.9978 52.1295C38.9598 52.2992 38.9062 52.4621 38.8348 52.6206C38.7656 52.7791 38.6808 52.9309 38.5826 53.0737C38.4844 53.2166 38.375 53.3483 38.2522 53.4688C38.1272 53.5916 37.9955 53.7009 37.8504 53.7969C37.7076 53.8951 37.5558 53.9777 37.3973 54.0447L30.4107 57.0157C30.1317 57.134 29.8415 57.2032 29.5379 57.2255C29.2366 57.2478 28.9375 57.221 28.6451 57.1451C28.3504 57.0693 28.0781 56.9487 27.8237 56.7813C27.5714 56.6161 27.3504 56.413 27.1629 56.1742L23.308 51.2233C23.1808 51.0581 23.0156 50.9443 22.8147 50.884C22.6138 50.8237 22.4129 50.8282 22.2143 50.8974C22.0156 50.9643 21.8571 51.0849 21.7344 51.2568C21.6138 51.4264 21.5536 51.6184 21.5536 51.8259L21.5513 63.3215ZM89.9688 56.3795C89.9688 56.8326 89.9241 57.2835 89.8348 57.73C89.7455 58.1764 89.6138 58.6094 89.4397 59.0313C89.2656 59.4509 89.0513 59.8505 88.7991 60.23C88.5446 60.6072 88.2589 60.9576 87.9375 61.2791C87.6138 61.6005 87.2656 61.8884 86.8862 62.1407C86.5089 62.3951 86.1094 62.6072 85.6875 62.7835C85.2679 62.9576 84.8348 63.0893 84.3884 63.1786C83.942 63.2679 83.4911 63.3126 83.0357 63.3126H23.5134V54.6853L25.6161 57.384C25.9353 57.7947 26.3125 58.1407 26.7478 58.4264C27.1808 58.7099 27.6496 58.9175 28.154 59.0492C28.6563 59.1786 29.1652 59.2233 29.683 59.1853C30.2009 59.1474 30.7009 59.0268 31.1786 58.8237L38.1652 55.8527C38.6429 55.6474 39.0759 55.3706 39.4643 55.0224C39.8504 54.6742 40.1719 54.2746 40.4263 53.8193C40.6808 53.3661 40.8549 52.8818 40.9509 52.3706C41.0446 51.8572 41.0536 51.3438 40.9799 50.8282L52.7589 45.567C52.8772 45.5134 52.9821 45.4398 53.0714 45.346C53.1607 45.2523 53.2277 45.1429 53.2746 45.0224C53.3214 44.9018 53.3438 44.7746 53.3393 44.6451C53.3348 44.5157 53.308 44.3907 53.2545 44.2724C53.2009 44.1541 53.1272 44.0492 53.0335 43.9599C52.9375 43.8706 52.8304 43.8036 52.7098 43.7568C52.5871 43.7099 52.4621 43.6876 52.3326 43.692C52.2009 43.6965 52.0781 43.7233 51.9576 43.7768L40.3147 48.9777C40.1719 48.7434 40.0112 48.5224 39.8304 48.3148C39.6496 48.1072 39.4531 47.9175 39.2411 47.7456C39.0268 47.5737 38.7991 47.4197 38.558 47.288C38.3192 47.1563 38.0692 47.0447 37.808 46.9554C37.5491 46.8661 37.2835 46.8014 37.0134 46.759C36.7411 46.7166 36.4688 46.6965 36.1942 46.7032C35.9196 46.7076 35.6473 46.7367 35.3795 46.7902C35.1094 46.8416 34.846 46.9175 34.5893 47.0157L31.6272 48.1563L26.6987 41.0313C26.2857 40.4353 25.808 39.8974 25.2634 39.4152C24.7188 38.9353 24.125 38.5268 23.4821 38.1898C22.8393 37.8527 22.1652 37.596 21.4598 37.4242C20.7545 37.2501 20.0402 37.163 19.3147 37.163H15.9978V34.8193C16.625 34.7612 17.2411 34.6474 17.846 34.4755C18.4509 34.3059 19.0335 34.0804 19.5982 33.7992C20.1607 33.5201 20.6942 33.1898 21.1964 32.8126C21.6987 32.4331 22.1607 32.0112 22.5848 31.5469C23.0089 31.0826 23.3862 30.5826 23.7188 30.0492C24.0491 29.5134 24.3281 28.9532 24.5558 28.3684C24.7835 27.7813 24.9554 27.1786 25.0714 26.5603C25.1875 25.942 25.2455 25.3193 25.2455 24.6898C25.2455 24.0603 25.1875 23.4376 25.0714 22.8193C24.9554 22.2009 24.7835 21.5983 24.5558 21.0112C24.3281 20.4264 24.0491 19.8661 23.7188 19.3304C23.3862 18.7969 23.0089 18.2969 22.5848 17.8326C22.1607 17.3684 21.6987 16.9465 21.1964 16.567C20.6942 16.1898 20.1607 15.8594 19.5982 15.5804C19.0335 15.3014 18.4509 15.0737 17.846 14.9041C17.2411 14.7322 16.625 14.6184 15.9978 14.5603V9.77461C15.9978 9.31925 16.0424 8.86836 16.1317 8.42193C16.221 7.9755 16.3527 7.54246 16.529 7.12059C16.7031 6.70095 16.9152 6.30139 17.1696 5.92416C17.4219 5.54469 17.7098 5.19425 18.0312 4.87282C18.3527 4.55139 18.7031 4.26345 19.0826 4.01121C19.4598 3.75898 19.8594 3.54469 20.279 3.37059C20.7009 3.19648 21.1339 3.06478 21.5804 2.9755C22.0268 2.88621 22.4777 2.84157 22.933 2.84157H83.0335C83.4866 2.84157 83.9375 2.88621 84.3839 2.9755C84.8304 3.06478 85.2656 3.19648 85.6853 3.37059C86.1049 3.54469 86.5045 3.75898 86.8839 4.01121C87.2634 4.26345 87.6116 4.55139 87.9353 4.87282C88.2567 5.19425 88.5446 5.5447 88.7969 5.92193C89.0491 6.30139 89.2634 6.70095 89.4375 7.12059C89.6138 7.54246 89.7455 7.9755 89.8348 8.42193C89.9241 8.86836 89.9688 9.31925 89.9688 9.77461V56.3795Z" fill="white"/>
</g>
<mask id="mask1_395_1110" style="mask-type:luminance" maskUnits="userSpaceOnUse" x="3" y="72" width="89" height="36">
<path d="M3.42578 72.1674H91.9972V107.143H3.42578V72.1674Z" fill="white"/>
</mask>
<g mask="url(#mask1_395_1110)">
<path d="M83.0324 92.6161H82.8471C83.3292 92.2835 83.7824 91.9152 84.2042 91.5112C84.6283 91.1071 85.0167 90.6696 85.3694 90.2031C85.7243 89.7366 86.0391 89.2455 86.3136 88.7277C86.5882 88.2121 86.8203 87.6763 87.0078 87.1228C87.1975 86.567 87.3426 86.0022 87.4408 85.4241C87.5391 84.8482 87.5904 84.2656 87.5971 83.6808C87.6016 83.096 87.5614 82.5134 87.4721 81.9353C87.385 81.3549 87.2511 80.7879 87.0725 80.2299V80.2031C86.9408 79.7879 86.7824 79.3817 86.6016 78.9866C86.4208 78.5893 86.2154 78.2054 85.99 77.8348C85.7623 77.4621 85.5145 77.1049 85.2444 76.7634C84.9743 76.4196 84.6864 76.096 84.3783 75.7879C84.0703 75.4799 83.7467 75.1897 83.4029 74.9196C83.0614 74.6518 82.7042 74.404 82.3315 74.1763C81.9609 73.9487 81.577 73.7455 81.1797 73.5625C80.7846 73.3817 80.3783 73.2254 79.9632 73.0915C79.5502 72.9576 79.1283 72.8504 78.6998 72.7656C78.2734 72.683 77.8426 72.625 77.4074 72.5938C76.9721 72.5625 76.5391 72.5558 76.1038 72.5759C75.6685 72.596 75.2355 72.6406 74.8047 72.7121C74.3761 72.7835 73.952 72.8795 73.5324 73C73.115 73.1228 72.7042 73.2679 72.3047 73.4375C71.9029 73.6071 71.5145 73.8013 71.135 74.0179C70.7578 74.2344 70.394 74.471 70.0435 74.7321C69.6931 74.9911 69.3605 75.2701 69.0435 75.5692C68.7266 75.8683 68.4297 76.1853 68.1507 76.5201C67.8717 76.8549 67.6127 77.2054 67.3761 77.5714C67.1395 77.9353 66.9252 78.3147 66.731 78.7054C66.5391 79.096 66.3717 79.4978 66.2266 79.9085C66.0815 80.3192 65.9609 80.7366 65.8672 81.1607C65.7712 81.5871 65.702 82.0156 65.6574 82.4487C65.6127 82.8817 65.5949 83.317 65.6016 83.7522C65.6105 84.1875 65.644 84.6228 65.702 85.0536C65.76 85.4844 65.8449 85.9107 65.9542 86.3326C66.0658 86.7545 66.1998 87.1696 66.3583 87.5737C66.5167 87.9799 66.6998 88.375 66.9051 88.7589C67.1105 89.1429 67.3382 89.5134 67.5882 89.8705C67.8382 90.2277 68.1083 90.567 68.3984 90.8929C68.6886 91.2165 68.9967 91.5246 69.3248 91.8125C69.6507 92.1004 69.9922 92.3683 70.3516 92.6161H70.1618C69.3382 92.6183 68.5324 92.7321 67.74 92.9598C66.9498 93.1853 66.2042 93.5156 65.5056 93.9509C64.8069 94.3862 64.1797 94.9063 63.6261 95.5156C63.0725 96.125 62.6105 96.7969 62.2444 97.5335C61.8783 96.7969 61.4185 96.125 60.865 95.5156C60.3114 94.9085 59.6842 94.3862 58.9855 93.9509C58.2868 93.5179 57.5435 93.1875 56.7533 92.9598C55.9609 92.7321 55.1551 92.6183 54.3315 92.6161H54.1507C54.6328 92.2835 55.0859 91.9129 55.5078 91.5089C55.9319 91.1027 56.3203 90.6674 56.673 90.2009C57.0257 89.7321 57.3404 89.2411 57.615 88.7232C57.8895 88.2054 58.1217 87.6696 58.3092 87.1138C58.4989 86.5603 58.6417 85.9933 58.74 85.4174C58.8382 84.8393 58.8895 84.2567 58.8962 83.6719C58.9007 83.0848 58.8583 82.5022 58.7712 81.9241C58.6819 81.3438 58.5502 80.7768 58.3694 80.2188C58.2377 79.8036 58.0792 79.3973 57.8984 79.0022C57.7176 78.6049 57.5145 78.221 57.2868 77.8482C57.0614 77.4777 56.8114 77.1205 56.5435 76.7768C56.2734 76.4353 55.9855 76.1094 55.6775 75.8013C55.3694 75.4933 55.0458 75.2031 54.702 74.933C54.3605 74.6652 54.0033 74.4152 53.6306 74.1875C53.26 73.9621 52.8761 73.7567 52.4788 73.5759C52.0837 73.3929 51.6775 73.2366 51.2645 73.1027C50.8493 72.9688 50.4275 72.8616 49.9989 72.7768C49.5725 72.6942 49.1417 72.6362 48.7065 72.6049C48.2712 72.5714 47.8382 72.5647 47.4029 72.5848C46.9676 72.6049 46.5346 72.6496 46.1038 72.721C45.6752 72.7924 45.2511 72.8884 44.8315 73.0089C44.4141 73.1295 44.0033 73.2768 43.6016 73.4464C43.202 73.6161 42.8114 73.8103 42.4342 74.0268C42.0547 74.2411 41.6908 74.4799 41.3404 74.7388C40.9922 75 40.6574 75.279 40.3404 75.5781C40.0257 75.8772 39.7266 76.1942 39.4475 76.529C39.1685 76.8638 38.9096 77.2143 38.673 77.5781C38.4364 77.9442 38.2199 78.3214 38.0279 78.7121C37.8359 79.1027 37.6663 79.5045 37.5212 79.9152C37.3761 80.3259 37.2578 80.7433 37.1618 81.1696C37.0658 81.5938 36.9967 82.0246 36.952 82.4576C36.9074 82.8906 36.8895 83.3259 36.8984 83.7612C36.9051 84.1964 36.9386 84.6295 36.9967 85.0625C37.0569 85.4933 37.1395 85.9196 37.2489 86.3415C37.3605 86.7634 37.4944 87.1763 37.6529 87.5826C37.8114 87.9888 37.9944 88.3839 38.1998 88.7679C38.4051 89.1518 38.6328 89.5223 38.8828 89.8795C39.1328 90.2366 39.4029 90.5781 39.6931 90.9018C39.9833 91.2277 40.2913 91.5335 40.6194 91.8214C40.9453 92.1094 41.2891 92.3772 41.6462 92.625H41.4632C40.6395 92.6272 39.8337 92.7411 39.0435 92.9665C38.2511 93.1942 37.5078 93.5246 36.8092 93.9576C36.1083 94.3906 35.4833 94.9107 34.9275 95.5179C34.3739 96.1272 33.9141 96.7969 33.5458 97.5335C33.1797 96.7969 32.7199 96.125 32.1663 95.5156C31.6127 94.9085 30.9855 94.3862 30.2868 93.9509C29.5882 93.5179 28.8449 93.1875 28.0525 92.9598C27.2623 92.7321 26.4565 92.6183 25.6328 92.6161H25.4498C25.769 92.3951 26.077 92.1585 26.3717 91.9062C26.6641 91.6518 26.9453 91.3839 27.2109 91.1027C27.4766 90.8192 27.7266 90.5223 27.9609 90.2143C28.1953 89.9063 28.4141 89.5848 28.615 89.2522C28.8136 88.9196 28.9967 88.5781 29.1618 88.2277C29.327 87.875 29.4721 87.5156 29.5971 87.1496C29.7243 86.7835 29.8315 86.4107 29.9185 86.0313C30.0056 85.654 30.0725 85.2723 30.1194 84.8884C30.1663 84.5022 30.1908 84.1161 30.1975 83.7277C30.202 83.3393 30.1886 82.9531 30.1529 82.567C30.1172 82.1808 30.0614 81.7969 29.9855 81.4152C29.9096 81.0357 29.8158 80.6607 29.6998 80.2902C29.5837 79.9196 29.4498 79.5558 29.2958 79.1987C29.1417 78.8438 28.9699 78.4955 28.7779 78.1585C28.5882 77.8214 28.3806 77.4933 28.1551 77.1786C27.9297 76.8616 27.6886 76.558 27.4297 76.2679C27.173 75.9777 26.9007 75.7009 26.615 75.4397C26.3292 75.1786 26.0279 74.933 25.7154 74.7031C25.4029 74.4732 25.0792 74.2612 24.7444 74.0647C24.4096 73.8683 24.0658 73.692 23.7109 73.5335C23.3583 73.3728 22.9967 73.2321 22.6283 73.1116C22.26 72.9911 21.885 72.8906 21.5056 72.808C21.1261 72.7277 20.7444 72.6652 20.3583 72.625C19.9721 72.5848 19.5859 72.5625 19.1975 72.5625C18.8092 72.5625 18.423 72.5848 18.0368 72.625C17.6507 72.6652 17.269 72.7277 16.8895 72.808C16.51 72.8906 16.135 72.9911 15.7667 73.1116C15.3984 73.2321 15.0368 73.3728 14.6819 73.5335C14.3292 73.692 13.9855 73.8683 13.6507 74.0647C13.3136 74.2612 12.99 74.4732 12.6775 74.7031C12.365 74.933 12.0658 75.1786 11.7801 75.4397C11.4922 75.7009 11.2221 75.9777 10.9632 76.2679C10.7065 76.558 10.4654 76.8616 10.24 77.1786C10.0145 77.4933 9.80692 77.8214 9.61719 78.1585C9.42522 78.4955 9.25335 78.8438 9.09933 79.1987C8.94531 79.5558 8.81138 79.9196 8.69531 80.2902C8.57924 80.6607 8.48326 81.0357 8.40737 81.4152C8.33147 81.7969 8.27567 82.1808 8.24219 82.567C8.20647 82.9531 8.19085 83.3393 8.19755 83.7277C8.20201 84.1161 8.2288 84.5022 8.27567 84.8884C8.32254 85.2723 8.38951 85.654 8.47656 86.0313C8.56362 86.4107 8.67076 86.7835 8.79576 87.1496C8.92299 87.5156 9.06808 87.875 9.23326 88.2277C9.39621 88.5781 9.57924 88.9196 9.78013 89.2522C9.98103 89.5848 10.1975 89.9063 10.4342 90.2143C10.6685 90.5223 10.9185 90.8192 11.1842 91.1027C11.4498 91.3839 11.7288 91.6518 12.0234 91.9062C12.3181 92.1585 12.6239 92.3951 12.9431 92.6161H12.76C12.1752 92.6161 11.5971 92.6741 11.0257 92.7879C10.452 92.9018 9.89621 93.0714 9.35826 93.2946C8.81808 93.5179 8.30692 93.7924 7.82031 94.1183C7.33594 94.442 6.88728 94.8103 6.47433 95.2232C6.06138 95.6362 5.69308 96.0848 5.36942 96.5714C5.04353 97.0558 4.77121 97.567 4.54799 98.1071C4.32254 98.6473 4.15513 99.2031 4.04129 99.7746C3.92522 100.346 3.86942 100.924 3.86719 101.509V106.138C3.86719 106.268 3.89397 106.393 3.94308 106.513C3.99219 106.634 4.06362 106.741 4.15513 106.833C4.24665 106.924 4.35379 106.996 4.47433 107.045C4.59263 107.094 4.71763 107.118 4.84933 107.118H90.9475C91.077 107.118 91.202 107.094 91.3225 107.045C91.4431 106.996 91.5502 106.924 91.6417 106.833C91.7333 106.741 91.8047 106.634 91.8538 106.513C91.9029 106.393 91.9275 106.268 91.9275 106.138V101.509C91.9275 100.924 91.8694 100.346 91.7556 99.7746C91.6417 99.2009 91.4721 98.6451 91.2489 98.1071C91.0257 97.567 90.7511 97.0536 90.4252 96.5692C90.1016 96.0826 89.7333 95.6339 89.3203 95.221C88.9074 94.808 88.4565 94.4397 87.9721 94.1161C87.4855 93.7924 86.9743 93.5179 86.4342 93.2946C85.894 93.0714 85.3382 92.9018 84.7667 92.7879C84.1931 92.6741 83.615 92.6161 83.0324 92.6161ZM76.5926 74.5335C77.0614 74.5357 77.5234 74.5714 77.9855 74.6451C78.4475 74.7188 78.8984 74.8281 79.3426 74.971C79.7868 75.1161 80.2176 75.2924 80.635 75.5022C81.0525 75.7143 81.4498 75.9554 81.8292 76.2277C82.2087 76.5 82.5636 76.7991 82.8962 77.1272C83.2288 77.4554 83.5346 77.8058 83.8136 78.1808C84.0904 78.5558 84.3382 78.9509 84.5547 79.3638C84.7712 79.7768 84.9565 80.2054 85.106 80.6473C84.952 81.0871 84.7667 81.5112 84.5458 81.9196C84.327 82.3304 84.0792 82.7188 83.798 83.0915C83.519 83.4621 83.2132 83.8103 82.8806 84.1339C82.5458 84.4576 82.1908 84.7522 81.8114 85.0223C81.4319 85.2902 81.0346 85.529 80.6194 85.7366C80.2042 85.9442 79.7734 86.1183 79.3315 86.2589C78.8895 86.3996 78.4386 86.5067 77.9788 86.5781C77.519 86.6473 77.0592 86.683 76.5926 86.683C76.1283 86.683 75.6663 86.6473 75.2087 86.5781C74.7489 86.5067 74.298 86.3996 73.856 86.2589C73.4118 86.1183 72.9833 85.9442 72.5681 85.7366C72.1529 85.529 71.7556 85.2902 71.3761 85.0223C70.9967 84.7522 70.6395 84.4576 70.3069 84.1339C69.9743 83.8103 69.6685 83.4621 69.3873 83.0915C69.1083 82.7188 68.8583 82.3304 68.6395 81.9196C68.4208 81.5112 68.2355 81.0871 68.0815 80.6473C68.231 80.2054 68.4141 79.7768 68.6328 79.3638C68.8493 78.9509 69.0971 78.5558 69.3739 78.1808C69.6529 77.8058 69.9565 77.4554 70.2913 77.1272C70.6239 76.7991 70.9788 76.5 71.3583 76.2277C71.7377 75.9554 72.135 75.7143 72.5525 75.5022C72.9676 75.2924 73.3984 75.1161 73.8426 74.971C74.2868 74.8281 74.74 74.7188 75.202 74.6451C75.6618 74.5714 76.1261 74.5357 76.5926 74.5335ZM67.5926 83.9688C67.8449 84.3304 68.1194 84.6741 68.4118 85C68.7065 85.3281 69.019 85.6362 69.3493 85.9263C69.6797 86.2165 70.0279 86.4844 70.3917 86.7321C70.7533 86.9799 71.1306 87.2054 71.5212 87.4085C71.9118 87.6116 72.3136 87.7902 72.7243 87.9442C73.135 88.1004 73.5547 88.2299 73.9833 88.3348C74.4096 88.4375 74.8426 88.5179 75.2779 88.5692C75.7154 88.6228 76.1529 88.6496 76.5926 88.6496C77.0324 88.6496 77.4721 88.6228 77.9074 88.5692C78.3449 88.5179 78.7779 88.4375 79.2042 88.3348C79.6306 88.2299 80.0502 88.1004 80.4632 87.9442C80.8739 87.7902 81.2757 87.6116 81.6663 87.4085C82.0569 87.2054 82.4319 86.9799 82.7958 86.7321C83.1596 86.4844 83.5056 86.2165 83.8382 85.9263C84.1685 85.6362 84.481 85.3281 84.7734 85C85.0681 84.6741 85.3426 84.3304 85.5949 83.9688C85.5703 84.5446 85.4922 85.1116 85.3583 85.6719C85.2266 86.2321 85.0413 86.7746 84.8047 87.2991C84.5681 87.8237 84.2824 88.3214 83.952 88.7924C83.6194 89.2634 83.2444 89.6964 82.8292 90.096C82.4141 90.4933 81.9632 90.8504 81.481 91.1607C80.9967 91.4732 80.4877 91.7366 79.9542 91.9531C79.4208 92.1674 78.8694 92.3281 78.3047 92.4375C77.74 92.5469 77.1685 92.6027 76.5926 92.6027C76.0167 92.6027 75.4475 92.5469 74.8828 92.4375C74.3158 92.3281 73.7667 92.1674 73.2333 91.9531C72.6998 91.7366 72.1908 91.4732 71.7065 91.1607C71.2221 90.8504 70.7734 90.4933 70.3583 90.096C69.9431 89.6964 69.5681 89.2634 69.2355 88.7924C68.9029 88.3214 68.6194 87.8237 68.3828 87.2991C68.1462 86.7746 67.9609 86.2321 67.827 85.6719C67.6953 85.1116 67.6172 84.5446 67.5926 83.9688ZM47.8962 74.5335C48.3627 74.5357 48.827 74.5714 49.2868 74.6451C49.7489 74.7188 50.202 74.8281 50.6462 74.971C51.0904 75.1161 51.519 75.2924 51.9364 75.5022C52.3538 75.7143 52.7511 75.9554 53.1306 76.2277C53.51 76.5 53.865 76.7991 54.1975 77.1272C54.5301 77.4554 54.8359 77.8058 55.1127 78.1808C55.3917 78.5558 55.6395 78.9487 55.856 79.3638C56.0725 79.7768 56.2556 80.2031 56.4074 80.6451C56.2533 81.0848 56.0658 81.5089 55.8471 81.9174C55.6283 82.3281 55.3783 82.7188 55.0993 83.0893C54.8203 83.4598 54.5145 83.808 54.1797 84.1317C53.8471 84.4554 53.4922 84.7522 53.1127 85.0201C52.7333 85.2879 52.3359 85.5268 51.9208 85.7344C51.5033 85.942 51.0748 86.1161 50.6328 86.2567C50.1908 86.3973 49.74 86.5045 49.2801 86.5759C48.8203 86.6473 48.3583 86.683 47.894 86.683C47.4297 86.683 46.9676 86.6473 46.5078 86.5759C46.0502 86.5045 45.5993 86.3973 45.1551 86.2567C44.7132 86.1161 44.2846 85.942 43.8694 85.7344C43.452 85.5268 43.0547 85.2879 42.6775 85.0201C42.298 84.7522 41.9408 84.4554 41.6083 84.1317C41.2757 83.808 40.9676 83.4598 40.6886 83.0893C40.4096 82.7188 40.1596 82.3281 39.9408 81.9174C39.7221 81.5089 39.5346 81.0848 39.3806 80.6451C39.5324 80.2031 39.7154 79.7768 39.9319 79.3616C40.1507 78.9487 40.3984 78.5558 40.6752 78.1808C40.9542 77.8058 41.26 77.4531 41.5926 77.125C41.9252 76.7991 42.2801 76.4978 42.6596 76.2254C43.0391 75.9531 43.4386 75.7121 43.8538 75.5022C44.2712 75.2902 44.702 75.1138 45.1462 74.971C45.5904 74.8259 46.0435 74.7188 46.5033 74.6451C46.9654 74.5714 47.4297 74.5335 47.8962 74.5335ZM38.8962 83.971C39.1484 84.3326 39.4208 84.6741 39.7154 85.0022C40.01 85.3304 40.3225 85.6384 40.6529 85.9286C40.9833 86.2165 41.3315 86.4866 41.6931 86.7344C42.0569 86.9821 42.4342 87.2076 42.8248 87.4107C43.2154 87.6138 43.615 87.7924 44.0279 87.9464C44.4386 88.1027 44.8583 88.2321 45.2846 88.3371C45.7132 88.4397 46.144 88.5179 46.5815 88.5714C47.019 88.625 47.4565 88.6496 47.8962 88.6496C48.3359 88.6496 48.7734 88.625 49.2109 88.5714C49.6484 88.5179 50.0792 88.4397 50.5078 88.3371C50.9342 88.2321 51.3538 88.1027 51.7645 87.9464C52.1775 87.7924 52.5792 87.6138 52.9676 87.4107C53.3583 87.2076 53.7355 86.9821 54.0993 86.7344C54.4609 86.4866 54.8092 86.2165 55.1395 85.9286C55.4699 85.6384 55.7824 85.3304 56.077 85.0022C56.3717 84.6741 56.644 84.3326 56.8962 83.971C56.8739 84.5469 56.7958 85.1138 56.6618 85.6741C56.5301 86.2344 56.3449 86.7768 56.1083 87.3013C55.8717 87.8259 55.5859 88.3237 55.2533 88.7946C54.9208 89.2656 54.548 89.6987 54.1328 90.0982C53.7176 90.4955 53.2667 90.8504 52.7846 91.1629C52.3002 91.4754 51.7913 91.7388 51.2578 91.9554C50.7221 92.1696 50.173 92.3304 49.6083 92.4397C49.0435 92.5491 48.4721 92.6049 47.8962 92.6049C47.3203 92.6049 46.7511 92.5491 46.1842 92.4397C45.6194 92.3304 45.0703 92.1696 44.5368 91.9554C44.0011 91.7388 43.4922 91.4754 43.01 91.1629C42.5257 90.8504 42.077 90.4955 41.6596 90.0982C41.2444 89.6987 40.8717 89.2656 40.5391 88.7946C40.2065 88.3237 39.923 87.8259 39.6842 87.3013C39.4475 86.7768 39.2645 86.2344 39.1306 85.6741C38.9989 85.1138 38.9185 84.5469 38.8962 83.971ZM19.1975 74.5335C19.6641 74.5357 20.1283 74.5714 20.5882 74.6451C21.0502 74.7188 21.5011 74.8281 21.9453 74.971C22.3895 75.1138 22.8203 75.2924 23.2377 75.5022C23.6529 75.7121 24.0502 75.9531 24.4297 76.2254C24.8092 76.4978 25.1641 76.7969 25.4967 77.125C25.8292 77.4509 26.135 77.8036 26.4141 78.1786C26.6908 78.5536 26.9386 78.9464 27.1574 79.3594C27.3739 79.7723 27.5569 80.2009 27.7087 80.6429C27.5547 81.0804 27.3694 81.5045 27.1484 81.9152C26.9297 82.3237 26.6819 82.7143 26.4029 83.0848C26.1239 83.4576 25.8158 83.8058 25.4833 84.1295C25.1507 84.4531 24.7958 84.75 24.4163 85.0179C24.0368 85.2879 23.6395 85.5246 23.2243 85.7321C22.8092 85.9397 22.3806 86.1161 21.9364 86.2567C21.4944 86.3973 21.0435 86.5045 20.5859 86.5759C20.1261 86.6473 19.6641 86.683 19.1998 86.683C18.7355 86.6853 18.2734 86.6496 17.8136 86.5781C17.3538 86.5067 16.9029 86.4018 16.4609 86.2612C16.019 86.1205 15.5882 85.9464 15.173 85.7388C14.7578 85.5313 14.3605 85.2946 13.981 85.0246C13.6016 84.7567 13.2444 84.4621 12.9118 84.1384C12.577 83.8147 12.2712 83.4665 11.9922 83.096C11.7109 82.7254 11.4632 82.3348 11.2422 81.9263C11.0234 81.5156 10.8359 81.0915 10.6819 80.654C10.8337 80.2121 11.0167 79.7835 11.2333 79.3683C11.4498 78.9554 11.6975 78.5603 11.9743 78.1853C12.2533 77.8103 12.5592 77.4576 12.8917 77.1295C13.2243 76.8013 13.5792 76.5022 13.9587 76.2299C14.3382 75.9576 14.7377 75.7143 15.1529 75.5045C15.5703 75.2924 16.0011 75.1161 16.4453 74.971C16.8895 74.8281 17.3426 74.7188 17.8047 74.6451C18.2667 74.5714 18.731 74.5357 19.1975 74.5335ZM10.1953 83.9732C10.4498 84.3326 10.7221 84.6763 11.0167 85.0045C11.3092 85.3326 11.6217 85.6406 11.9542 85.9308C12.2846 86.2188 12.6306 86.4888 12.9944 86.7366C13.3583 86.9844 13.7355 87.2098 14.1261 87.4129C14.5145 87.6161 14.9163 87.7946 15.327 87.9487C15.74 88.1049 16.1596 88.2344 16.5859 88.3371C17.0145 88.442 17.4453 88.5201 17.8828 88.5737C18.3181 88.625 18.7578 88.6518 19.1975 88.6518C19.6373 88.6518 20.0748 88.625 20.5123 88.5737C20.9498 88.5201 21.3806 88.442 21.8069 88.3371C22.2355 88.2344 22.6551 88.1049 23.0658 87.9487C23.4788 87.7946 23.8783 87.6161 24.269 87.4129C24.6596 87.2098 25.0368 86.9844 25.4007 86.7366C25.7623 86.4888 26.1105 86.2188 26.4408 85.9308C26.7712 85.6406 27.0837 85.3326 27.3783 85.0045C27.673 84.6763 27.9453 84.3326 28.1975 83.9732C28.1752 84.5491 28.0949 85.1161 27.9632 85.6763C27.8292 86.2366 27.6462 86.779 27.4074 87.3036C27.1708 87.8281 26.8873 88.3259 26.5547 88.7969C26.2221 89.2656 25.8493 89.7009 25.4342 90.1004C25.0167 90.4978 24.5681 90.8527 24.0837 91.1652C23.6016 91.4777 23.0926 91.7411 22.5569 91.9554C22.0234 92.1719 21.4743 92.3326 20.9096 92.442C20.3426 92.5513 19.7734 92.6071 19.1975 92.6071C18.6217 92.6071 18.0502 92.5513 17.4855 92.442C16.9208 92.3326 16.3717 92.1719 15.8359 91.9554C15.3025 91.7411 14.7935 91.4777 14.3092 91.1652C13.827 90.8527 13.3761 90.4978 12.9609 90.1004C12.5458 89.7009 12.173 89.2656 11.8404 88.7969C11.5078 88.3259 11.2221 87.8281 10.9855 87.3036C10.7489 86.779 10.5636 86.2366 10.4319 85.6763C10.298 85.1161 10.2199 84.5491 10.1953 83.9732ZM5.82924 101.509C5.82924 101.054 5.87388 100.603 5.96317 100.156C6.05246 99.7098 6.18415 99.2768 6.35826 98.8571C6.53237 98.4375 6.74665 98.0379 6.99888 97.6585C7.25112 97.2813 7.53906 96.9308 7.86049 96.6094C8.18192 96.2879 8.53237 96 8.9096 95.7478C9.28906 95.4955 9.68862 95.2813 10.1083 95.1071C10.5279 94.933 10.9609 94.8013 11.4074 94.7121C11.8538 94.6228 12.3047 94.5781 12.76 94.5759H25.6328C26.0882 94.5781 26.5391 94.6228 26.9855 94.7121C27.4319 94.8013 27.865 94.933 28.2846 95.1071C28.7042 95.2813 29.1038 95.4933 29.4833 95.7478C29.8605 96 30.2109 96.2879 30.5324 96.6094C30.8538 96.9308 31.1417 97.2813 31.394 97.6585C31.6484 98.0379 31.8605 98.4375 32.0346 98.8571C32.2109 99.2768 32.3426 99.7098 32.4297 100.156C32.519 100.603 32.5658 101.054 32.5658 101.509V105.158H5.82924V101.509ZM34.5257 101.509C34.5257 101.054 34.5703 100.603 34.6596 100.156C34.7489 99.7098 34.8806 99.2768 35.0547 98.8571C35.2288 98.4375 35.4431 98.0379 35.6953 97.6585C35.9498 97.2813 36.2355 96.9308 36.5592 96.6094C36.8806 96.2879 37.231 96 37.6083 95.7478C37.9877 95.4933 38.385 95.2813 38.8069 95.1049C39.2266 94.9308 39.6596 94.7991 40.106 94.7098C40.5525 94.6228 41.0033 94.5759 41.4587 94.5759H54.3315C54.7868 94.5781 55.2377 94.6228 55.6842 94.7121C56.1306 94.8013 56.5636 94.933 56.9833 95.1071C57.4051 95.2813 57.8025 95.4933 58.1819 95.7478C58.5592 96 58.9096 96.2879 59.231 96.6094C59.5525 96.9308 59.8404 97.2813 60.0926 97.6585C60.3471 98.0379 60.5592 98.4375 60.7355 98.8571C60.9096 99.2768 61.0413 99.7098 61.1306 100.156C61.2199 100.603 61.2645 101.054 61.2645 101.509V105.158H34.5257V101.509ZM89.9676 105.158H63.2243V101.509C63.2266 101.054 63.2712 100.603 63.3605 100.156C63.4498 99.7098 63.5815 99.2768 63.7556 98.8571C63.9297 98.4353 64.144 98.0357 64.3962 97.6585C64.6507 97.279 64.9364 96.9286 65.26 96.6071C65.5815 96.2857 65.9319 95.9978 66.3092 95.7455C66.6886 95.4933 67.0882 95.279 67.5078 95.1049C67.9297 94.9308 68.3627 94.7991 68.8092 94.7098C69.2556 94.6205 69.7065 94.5759 70.1618 94.5759H83.0346C83.49 94.5781 83.9408 94.6228 84.3873 94.7121C84.8337 94.8013 85.2667 94.933 85.6864 95.1071C86.1083 95.2813 86.5056 95.4933 86.885 95.7478C87.2623 96 87.6127 96.2879 87.9342 96.6094C88.2556 96.9308 88.5435 97.2813 88.7958 97.6585C89.0502 98.0379 89.2623 98.4375 89.4386 98.8571C89.6127 99.2768 89.7444 99.7098 89.8337 100.156C89.923 100.603 89.9676 101.054 89.9676 101.509V105.158Z" fill="white"/>
</g>
<path d="M78.4866 23.7098C77.7589 23.712 77.0536 23.8437 76.3728 24.1004C75.692 24.3593 75.0759 24.7276 74.529 25.2076L66.5402 18.5401C67.1161 17.5915 67.4062 16.5602 67.4129 15.4486C67.4129 15.0491 67.375 14.654 67.2969 14.2611C67.2187 13.8683 67.1027 13.4888 66.9487 13.1183C66.7969 12.75 66.6094 12.3995 66.3862 12.0669C66.1652 11.7343 65.9129 11.4263 65.6295 11.1428C65.3482 10.8616 65.0402 10.6093 64.7076 10.3861C64.375 10.1651 64.0246 9.97764 63.654 9.82363C63.2857 9.67184 62.904 9.55577 62.5134 9.47764C62.1205 9.39952 61.7254 9.36157 61.3259 9.36157C60.9263 9.36157 60.529 9.39952 60.1384 9.47764C59.7455 9.55577 59.3638 9.67184 58.9955 9.82363C58.625 9.97764 58.2746 10.1651 57.942 10.3861C57.6094 10.6093 57.3036 10.8616 57.0201 11.1428C56.7366 11.4263 56.4844 11.7343 56.2634 12.0669C56.0402 12.3995 55.8527 12.75 55.7009 13.1183C55.5469 13.4888 55.433 13.8683 55.3549 14.2611C55.2768 14.654 55.2366 15.0491 55.2366 15.4486C55.2433 16.4084 55.4665 17.3147 55.9062 18.1674L42.2165 28.1138C42.0312 27.9241 41.8326 27.7477 41.625 27.5826C41.4174 27.4151 41.2009 27.2634 40.9732 27.125C40.7455 26.9866 40.5112 26.8638 40.2701 26.7544C40.0268 26.6451 39.779 26.5513 39.5246 26.4732C39.2723 26.3951 39.0134 26.3348 38.7522 26.2879C38.4911 26.241 38.2277 26.212 37.9621 26.1986C37.6964 26.1852 37.4308 26.1897 37.1652 26.2098C36.9018 26.2299 36.6384 26.2656 36.3772 26.3169C36.1161 26.3705 35.8616 26.4397 35.6094 26.5245C35.3571 26.6093 35.1116 26.7076 34.8728 26.8236C34.6317 26.9397 34.4018 27.0692 34.1786 27.212C33.9554 27.3571 33.7411 27.5134 33.5379 27.6852C33.3348 27.8549 33.1406 28.0379 32.9598 28.2321C32.779 28.4263 32.6116 28.6317 32.4554 28.8482C32.3013 29.0625 32.1607 29.2879 32.0312 29.5201C31.904 29.7544 31.7924 29.9933 31.6942 30.241C31.5982 30.4888 31.5156 30.741 31.4509 30.9977C31.3839 31.2544 31.3348 31.5156 31.3013 31.779C31.2679 32.0424 31.25 32.308 31.25 32.5736C31.25 32.8393 31.2656 33.1049 31.2969 33.3683C31.3304 33.6317 31.3795 33.8928 31.4442 34.1495C31.5089 34.4062 31.5893 34.6607 31.6853 34.9084C31.7813 35.154 31.8929 35.3951 32.0201 35.6294C32.1473 35.8638 32.2879 36.087 32.442 36.3035C32.596 36.5201 32.7634 36.7254 32.9442 36.9218C33.1228 37.116 33.3147 37.2991 33.5179 37.4709C33.721 37.6428 33.933 37.8013 34.1562 37.9464C34.3795 38.0915 34.6094 38.2209 34.8504 38.337C35.0893 38.4531 35.3326 38.5535 35.5848 38.6406C35.8371 38.7254 36.0937 38.7946 36.3527 38.8482C36.6138 38.9018 36.875 38.9397 37.1406 38.962C37.4062 38.9821 37.6696 38.9866 37.9353 38.9732C38.2009 38.962 38.4643 38.933 38.7277 38.8884C38.9888 38.8437 39.2478 38.7834 39.5022 38.7053C39.7545 38.6272 40.0045 38.5357 40.2455 38.4263C40.4888 38.3192 40.7254 38.1964 40.9509 38.058C41.1786 37.9218 41.3973 37.7701 41.6049 37.6071C41.8147 37.4419 42.0112 37.2656 42.1987 37.0759C42.3839 36.8861 42.558 36.6852 42.721 36.4754C42.8817 36.2634 43.0312 36.0446 43.1652 35.8147C43.2991 35.5848 43.4174 35.3482 43.5223 35.1049C43.6272 34.8593 43.7165 34.6093 43.7902 34.3549C43.8638 34.1004 43.9196 33.8415 43.9621 33.5781C44.0022 33.3147 44.0268 33.0513 44.0357 32.7857C44.0446 32.5201 44.0357 32.2544 44.0112 31.991C43.9866 31.7254 43.9464 31.4643 43.8884 31.2053C43.8304 30.9464 43.7567 30.6897 43.6696 30.4397C43.5804 30.1897 43.4754 29.9464 43.3549 29.7098L57.0402 19.7589C57.308 20.0268 57.5982 20.2678 57.9107 20.4821C58.2254 20.6942 58.5558 20.8772 58.904 21.029C59.25 21.1785 59.6094 21.2968 59.9799 21.3794C60.3504 21.462 60.7232 21.5111 61.1027 21.5223C61.4821 21.5357 61.8594 21.5134 62.2344 21.4553C62.6071 21.3951 62.9732 21.3035 63.3304 21.1763C63.6875 21.0491 64.0312 20.8884 64.3571 20.6964C64.683 20.5044 64.9911 20.2834 65.2746 20.0334L73.2656 26.7009C72.692 27.6495 72.404 28.6785 72.3973 29.7879C72.3973 30.1875 72.4375 30.5826 72.5156 30.9732C72.5915 31.3638 72.7076 31.7455 72.8616 32.1138C73.0134 32.4821 73.2009 32.8326 73.4219 33.1651C73.6451 33.4955 73.8951 33.8035 74.1786 34.087C74.4598 34.3683 74.7679 34.6205 75.1004 34.8415C75.4308 35.0647 75.7812 35.25 76.1496 35.404C76.5201 35.5558 76.8996 35.6718 77.2902 35.75C77.683 35.8281 78.0781 35.866 78.4777 35.866C78.875 35.866 79.2723 35.8281 79.6629 35.75C80.0536 35.6718 80.4353 35.5558 80.8036 35.404C81.1719 35.25 81.5223 35.0647 81.8549 34.8415C82.1853 34.6205 82.4933 34.3683 82.7746 34.087C83.058 33.8035 83.3103 33.4955 83.5312 33.1651C83.7522 32.8326 83.9397 32.4821 84.0937 32.1138C84.2455 31.7455 84.3616 31.3638 84.4397 30.9732C84.5179 30.5826 84.5558 30.1875 84.5558 29.7879C84.5558 29.3884 84.5179 28.9933 84.4397 28.6004C84.3616 28.2098 84.2455 27.8303 84.0937 27.462C83.9397 27.0915 83.7522 26.741 83.5312 26.4107C83.3103 26.0781 83.058 25.7701 82.7746 25.4888C82.4933 25.2076 82.1853 24.9553 81.8549 24.7321C81.5223 24.5111 81.1719 24.3236 80.8036 24.1718C80.4353 24.0178 80.0536 23.904 79.6629 23.8259C79.2723 23.7477 78.875 23.7076 78.4777 23.7076L78.4866 23.7098ZM37.9487 36.5759C37.6786 36.5759 37.4107 36.5491 37.1473 36.4955C36.8817 36.4419 36.625 36.3638 36.375 36.2589C36.125 36.1562 35.8884 36.029 35.6629 35.8772C35.4397 35.7276 35.2321 35.5558 35.0402 35.3638C34.8504 35.1718 34.6808 34.9643 34.5312 34.7388C34.3817 34.5156 34.2545 34.2768 34.1518 34.0268C34.0491 33.7768 33.971 33.5201 33.9196 33.2544C33.8661 32.9888 33.8393 32.7209 33.8415 32.4509C33.8415 32.1808 33.8683 31.9129 33.9219 31.6495C33.9732 31.3839 34.0536 31.1272 34.1562 30.8772C34.2612 30.6272 34.3884 30.3906 34.5379 30.1651C34.6875 29.9419 34.8594 29.7343 35.0513 29.5424C35.2411 29.3526 35.4509 29.1808 35.6741 29.0312C35.8996 28.8817 36.1362 28.7544 36.3862 28.6518C36.6362 28.5491 36.8929 28.4709 37.1585 28.4196C37.4241 28.366 37.692 28.3393 37.9621 28.3393C38.2321 28.3415 38.5 28.366 38.7656 28.4196C39.029 28.4732 39.2879 28.5513 39.5379 28.654C39.7857 28.7589 40.0246 28.8861 40.2478 29.0357C40.4732 29.1852 40.6808 29.3571 40.8728 29.5468C41.0625 29.7388 41.2344 29.9464 41.3839 30.1718C41.5335 30.3951 41.6607 30.6339 41.7634 30.8839C41.8661 31.1339 41.9442 31.3906 41.9978 31.6562C42.0513 31.9196 42.0759 32.1875 42.0759 32.4576C42.0759 32.7299 42.0491 32.9977 41.9955 33.2611C41.942 33.5268 41.8638 33.7857 41.7589 34.0334C41.654 34.2834 41.5268 34.5223 41.3772 34.7455C41.2254 34.9709 41.0558 35.1785 40.8638 35.3705C40.6719 35.5602 40.4643 35.7321 40.2388 35.8817C40.0134 36.0312 39.7768 36.1584 39.5268 36.2611C39.2768 36.366 39.0179 36.4442 38.7522 36.4955C38.4866 36.5491 38.2187 36.5759 37.9487 36.5759ZM61.3237 19.5692C61.0536 19.5692 60.7857 19.5424 60.5201 19.4888C60.2545 19.4375 59.9978 19.3593 59.7478 19.2544C59.4978 19.1518 59.2612 19.0245 59.0357 18.875C58.8103 18.7254 58.6027 18.5535 58.4129 18.3616C58.221 18.1718 58.0491 17.9643 57.8996 17.7388C57.75 17.5134 57.6228 17.2768 57.5201 17.0268C57.4152 16.7768 57.3371 16.5201 57.2857 16.2544C57.2321 15.9888 57.2054 15.7209 57.2054 15.4509C57.2054 15.1808 57.2321 14.9129 57.2857 14.6473C57.3371 14.3817 57.4152 14.125 57.5201 13.875C57.6228 13.625 57.75 13.3884 57.8996 13.1629C58.0491 12.9375 58.221 12.7299 58.4129 12.5379C58.6027 12.3482 58.8103 12.1763 59.0357 12.0268C59.2612 11.8772 59.4978 11.75 59.7478 11.6451C59.9978 11.5424 60.2545 11.4643 60.5201 11.4107C60.7857 11.3593 61.0536 11.3326 61.3237 11.3326C61.5937 11.3326 61.8616 11.3593 62.1272 11.4107C62.3929 11.4643 62.6496 11.5424 62.8996 11.6451C63.1496 11.75 63.3862 11.8772 63.6116 12.0268C63.8371 12.1763 64.0446 12.3482 64.2366 12.5379C64.4263 12.7299 64.5982 12.9375 64.7478 13.1629C64.8973 13.3884 65.0246 13.625 65.1295 13.875C65.2321 14.125 65.3103 14.3817 65.3638 14.6473C65.4152 14.9129 65.442 15.1808 65.442 15.4509C65.442 15.7209 65.4152 15.9888 65.3616 16.2522C65.308 16.5178 65.2299 16.7745 65.125 17.0245C65.0223 17.2745 64.8951 17.5111 64.7455 17.7366C64.5937 17.9598 64.4241 18.1674 64.2321 18.3593C64.0424 18.5491 63.8348 18.7209 63.6094 18.8705C63.3839 19.0223 63.1473 19.1473 62.8973 19.2522C62.6496 19.3549 62.3906 19.4352 62.1272 19.4866C61.8616 19.5401 61.5937 19.5669 61.3237 19.5692ZM78.4866 33.9241C78.2165 33.9218 77.9487 33.8951 77.683 33.8415C77.4196 33.7879 77.1607 33.7098 76.9129 33.6071C76.6629 33.5022 76.4263 33.375 76.2009 33.2254C75.9777 33.0736 75.7701 32.9018 75.5781 32.712C75.3884 32.5201 75.2187 32.3125 75.0692 32.087C74.9174 31.8616 74.7924 31.625 74.6897 31.375C74.5871 31.125 74.5089 30.866 74.4554 30.6026C74.404 30.337 74.3772 30.0692 74.3795 29.7991C74.3795 29.529 74.4062 29.2611 74.4576 28.9955C74.5112 28.7299 74.5893 28.4732 74.6942 28.2232C74.7969 27.9754 74.9241 27.7366 75.0759 27.5134C75.2254 27.2879 75.3973 27.0803 75.5871 26.8906C75.779 26.6986 75.9866 26.529 76.2121 26.3794C76.4375 26.2276 76.6741 26.1026 76.9241 26C77.1741 25.8951 77.4308 25.8169 77.6964 25.7656C77.9621 25.712 78.2299 25.6875 78.5 25.6875C78.7701 25.6875 79.0379 25.7143 79.3036 25.7656C79.567 25.8192 79.8259 25.8973 80.0737 26.0022C80.3237 26.1049 80.5625 26.2321 80.7857 26.3817C81.0112 26.5334 81.2187 26.7031 81.4085 26.8951C81.6004 27.0848 81.7701 27.2924 81.9219 27.5178C82.0714 27.7433 82.1987 27.9799 82.3013 28.2299C82.404 28.4799 82.4821 28.7366 82.5357 29.0022C82.5893 29.2678 82.6138 29.5357 82.6138 29.8058C82.6138 30.0759 82.5871 30.3437 82.5335 30.6093C82.4799 30.875 82.3996 31.1317 82.2969 31.3817C82.192 31.6317 82.0647 31.8683 81.9152 32.0937C81.7634 32.3169 81.5915 32.5245 81.4018 32.7165C81.2098 32.9084 81 33.0781 80.7768 33.2276C80.5513 33.3794 80.3125 33.5044 80.0625 33.6093C79.8125 33.712 79.5558 33.7901 79.2902 33.8437C79.0246 33.8973 78.7567 33.9218 78.4866 33.9241Z" fill="white"/>
<path d="M83.5949 42.7186H63.3471C63.2176 42.7186 63.0926 42.7432 62.9721 42.7923C62.8516 42.8414 62.7444 42.9128 62.6529 43.0043C62.5614 43.0981 62.49 43.203 62.4408 43.3235C62.3917 43.4441 62.3672 43.5691 62.3672 43.6985C62.3672 43.828 62.3917 43.953 62.4408 44.0735C62.49 44.1941 62.5614 44.299 62.6529 44.3927C62.7444 44.4843 62.8516 44.5557 62.9721 44.6048C63.0926 44.6539 63.2176 44.6784 63.3471 44.6784H83.5949C83.7243 44.6784 83.8493 44.6539 83.9699 44.6048C84.0882 44.5557 84.1953 44.4843 84.2868 44.3927C84.3783 44.299 84.4498 44.1941 84.4989 44.0735C84.5502 43.953 84.5748 43.828 84.5748 43.6985C84.5748 43.5691 84.5502 43.4441 84.4989 43.3235C84.4498 43.203 84.3783 43.0981 84.2868 43.0043C84.1953 42.9128 84.0882 42.8414 83.9699 42.7923C83.8493 42.7432 83.7243 42.7186 83.5949 42.7186Z" fill="white"/>
<path d="M83.5965 52.2209H57.1791C57.0497 52.2209 56.9247 52.2454 56.8041 52.2968C56.6836 52.3459 56.5787 52.4173 56.4849 52.5088C56.3934 52.6004 56.322 52.7053 56.2729 52.8258C56.2238 52.9463 56.1992 53.0713 56.1992 53.2008C56.1992 53.3325 56.2238 53.4575 56.2729 53.5758C56.322 53.6963 56.3934 53.8035 56.4849 53.895C56.5787 53.9865 56.6836 54.0579 56.8041 54.107C56.9247 54.1562 57.0497 54.1829 57.1791 54.1829H83.5965C83.726 54.1829 83.851 54.1562 83.9715 54.107C84.0898 54.0579 84.197 53.9865 84.2885 53.895C84.38 53.8035 84.4515 53.6963 84.5006 53.5758C84.5519 53.4575 84.5765 53.3325 84.5765 53.2008C84.5765 53.0713 84.5519 52.9463 84.5006 52.8258C84.4515 52.7053 84.38 52.6004 84.2885 52.5088C84.197 52.4173 84.0898 52.3459 83.9715 52.2968C83.851 52.2454 83.726 52.2209 83.5965 52.2209Z" fill="white"/>
</svg>
