<svg width="101" height="72" viewBox="0 0 101 72" fill="none" xmlns="http://www.w3.org/2000/svg">
<mask id="mask0_378_600" style="mask-type:luminance" maskUnits="userSpaceOnUse" x="0" y="0" width="101" height="72">
<path d="M101 0.878174H-0.000457764V71.9335H101V0.878174Z" fill="white"/>
</mask>
<g mask="url(#mask0_378_600)">
<path d="M0.279579 22.8013C0.396896 22.146 0.873741 21.6333 1.25408 21.085C1.28057 21.0476 1.36005 21.0188 1.41303 21.0188C1.67226 21.0239 1.74228 20.9237 1.65334 20.7098C1.59847 20.5808 1.6628 20.4229 1.76499 20.3839C2.25887 20.1988 2.21723 19.6879 2.54838 19.4027C2.88898 19.1073 3.14443 18.7168 3.52099 18.4758C3.91647 18.2228 4.17003 17.8459 4.61282 17.6354C4.93829 17.4827 5.19373 17.189 5.40567 16.9309C5.56083 16.7425 5.50785 16.3826 5.47189 16.1076C5.43216 15.8173 5.32809 15.5389 5.33187 15.235C5.33755 14.8106 4.93261 14.5594 4.70554 14.2317C4.68472 14.1995 4.59011 14.1774 4.59389 14.1655C4.69418 13.8005 4.24572 13.7004 4.15678 13.4288C4.153 13.4186 4.13408 13.4101 4.13597 13.4033C4.2268 13.1249 3.85592 12.9483 3.93729 12.6699C3.96188 12.5816 3.89944 12.4968 3.83321 12.4306C3.60614 12.1963 3.61182 11.9043 3.59668 11.6225C3.58722 11.4154 3.84267 11.2898 4.07163 11.3916C4.70554 11.6751 5.31295 12.0112 5.75384 12.5154C5.97523 12.7684 6.24961 12.9653 6.47857 13.2081C7.01597 13.7751 7.54391 14.3438 8.06616 14.9193C8.26674 15.1416 8.23079 15.4404 8.48057 15.6255C8.65655 15.7545 8.75873 15.8445 8.96877 15.6204C9.12961 15.4472 9.45885 15.5083 9.70863 15.4795C10.9178 15.3301 12.1307 15.2995 13.3323 15.5525C13.7315 15.3606 14.11 15.5796 14.4922 15.5813C14.7609 15.583 15.0107 15.5864 15.251 15.673C15.4062 15.7273 15.5405 15.6713 15.6711 15.6526C15.7846 15.6374 15.9644 15.5219 15.9701 15.4421C15.9871 15.2045 16.146 15.3742 16.2085 15.3403C16.3201 15.2758 16.2653 15.1145 16.3164 15.0041C16.3637 14.904 16.428 14.8055 16.5056 14.724C16.8405 14.376 17.1357 13.9771 17.5368 13.7072C17.9645 13.4186 18.2029 12.9993 18.587 12.6988C19.1699 12.2472 19.6751 11.7125 20.2939 11.3118C20.8823 10.9299 21.3686 10.4376 21.9893 10.1031C22.5399 9.80435 22.9922 9.37825 23.5788 9.127C23.6904 9.07947 23.7737 8.96403 23.8551 9.15077C23.9289 9.31374 24.0405 9.20509 24.0405 9.13549C24.0386 8.68223 24.4852 8.58716 24.7823 8.40382C25.0093 8.26461 25.2496 8.09146 25.5013 8.02695C25.9195 7.92169 26.2355 7.67215 26.6026 7.50408C27.0038 7.31904 27.4484 7.22737 27.8231 6.99819C27.9026 6.95066 27.9802 6.97273 28.0672 6.97782C28.2413 6.98801 28.3851 6.99819 28.4986 6.78429C28.5895 6.61114 28.8979 6.5653 29.1401 6.53984C29.1912 6.53474 29.2517 6.59416 29.3047 6.53984C29.7078 6.12222 30.3114 6.08657 30.8374 5.93209C31.0096 5.88116 31.2348 6.01358 31.3162 5.74196C31.3332 5.68594 31.4713 5.66557 31.5527 5.69952C31.6814 5.75384 31.7306 5.68763 31.8347 5.63331C32.0031 5.54673 32.2434 5.52127 32.4421 5.54843C32.6351 5.57389 32.7959 5.53655 32.9681 5.49411C33.0268 5.47883 33.0892 5.4245 33.1365 5.43469C33.865 5.58578 34.5557 5.17665 35.2899 5.32944C35.4659 5.36509 35.6305 5.18005 35.8405 5.16647C36.2038 5.1427 36.5653 5.18684 36.9305 5.11214C37.1235 5.0731 37.343 5.20891 37.5568 5.09177C37.6325 5.05103 37.7271 5.10196 37.746 5.19702C37.7839 5.39734 37.9409 5.27342 37.9845 5.23946C38.3288 4.98482 38.6903 4.91692 39.0914 5.11724C39.1652 5.15628 39.2277 5.18854 39.2333 5.0731C39.2352 5.02557 39.2504 4.99501 39.2996 4.96785C39.5929 4.80827 39.8407 5.11045 40.0943 5.04254C40.399 4.96106 40.6336 4.94068 40.8153 5.214C40.8644 5.287 40.9364 5.37018 41.0177 5.39904C41.2221 5.47204 41.2486 5.31246 41.2467 5.20212C41.2448 5.11384 41.1275 5.0018 41.2864 4.95936C41.3943 4.9305 41.5267 4.92541 41.6384 5.00519C41.7425 5.08159 41.8617 5.2853 41.9733 5.00519C41.979 4.98822 42.0452 4.97124 42.0717 4.98143C42.3044 5.05782 42.5221 5.10875 42.7718 5.0001C42.8929 4.94747 42.9951 5.11214 43.1579 5.13931C43.3887 5.17835 43.5306 5.03236 43.7198 5.06461C43.9545 5.10535 44.1305 5.18854 44.1607 5.43639C44.1778 5.5722 44.2705 5.67915 44.5316 5.67915C44.3083 5.5722 44.314 5.47713 44.3897 5.31586C44.4881 5.10026 44.666 5.16986 44.7833 5.19872C45.0444 5.25984 45.3491 5.23098 45.5496 5.44148C45.6026 5.4958 45.667 5.53485 45.7427 5.4958C46.2157 5.25305 46.649 5.5671 47.1051 5.57389C47.3246 5.57729 47.527 5.67745 47.7674 5.64859C48.0058 5.61973 48.1231 5.8557 48.3104 5.95416C48.4505 6.02716 48.5526 6.1392 48.617 5.90832C48.6321 5.8523 48.6586 5.781 48.7305 5.83363C48.9273 5.97962 48.8914 5.81156 48.8459 5.75554C48.6756 5.54503 48.8043 5.45846 48.9916 5.34302C49.1941 5.22079 49.5007 5.10366 49.1809 4.79808C49.0635 4.68774 49.179 4.53665 49.2774 4.41442C49.5253 4.11055 49.7599 3.79819 50.0002 3.48922C50.0135 3.47225 50.0229 3.4383 50.0399 3.4366C50.5338 3.37718 50.6265 2.87808 51.0466 2.71002C51.62 2.47914 52.1593 2.19904 52.8197 2.37898C52.9294 2.40954 53.0354 2.3671 53.1394 2.32975C53.516 2.20243 53.8963 2.03946 54.2672 2.34673C54.3183 2.38917 54.3751 2.39087 54.43 2.34843C54.6797 2.1532 54.973 2.16848 55.2531 2.24827C55.7186 2.37898 56.1954 2.45538 56.6533 2.64891C56.9656 2.78132 57.3648 2.83225 57.7092 2.95448C58.3488 3.18196 58.8957 3.56052 59.4709 3.89326C59.6223 3.97983 59.8721 4.31596 60.0026 3.85421C60.3432 3.85591 60.2808 3.68275 60.1975 3.49941C60.1899 3.48243 60.1975 3.44339 60.2108 3.4383C60.5646 3.29739 60.4889 2.8679 60.822 2.70662C60.9639 2.63872 61.0301 2.51479 61.0661 2.35861C61.1228 2.11246 61.2118 1.8714 61.6091 1.92742C61.7208 1.9427 61.804 1.81538 61.8248 1.69485C61.8722 1.41474 62.3641 1.07691 62.6669 1.15161C62.8221 1.18896 62.858 1.0871 62.9488 1.05145C63.1683 0.96657 63.2251 1.22461 63.3784 1.21951C63.5752 1.21442 63.3973 0.917339 63.6509 0.893572C63.7852 0.881689 63.9006 0.925827 63.9971 0.964872C64.2772 1.08201 64.5762 0.956384 64.8581 1.06333C65.2044 1.19745 65.5866 1.26874 65.8989 1.45888C66.7579 1.98005 67.6397 2.46726 68.4231 3.09028C69.0173 3.56222 69.6209 4.02567 70.2037 4.51119C71.0231 5.19533 71.7497 5.95246 72.5179 6.67734C73.0156 7.14589 73.5076 7.61782 73.9958 8.09485C74.5559 8.64148 75.0497 9.24244 75.5266 9.8417C76.0394 10.4885 76.4992 11.176 76.8871 11.906C77.1104 12.327 77.3432 12.7633 77.5286 13.1928C77.6383 13.4457 77.8314 13.7004 77.8503 13.9771C77.8862 14.5237 78.259 14.8717 78.6564 15.2146C79.6025 16.0295 80.4824 16.8987 81.3869 17.7475C82.2479 18.5539 82.9915 19.4366 83.6803 20.3516C84.1306 20.9475 84.5848 21.5552 84.8762 22.2428C84.9954 22.5246 85.2262 22.7639 85.3738 23.0373C85.5687 23.3937 85.7296 23.7638 85.9018 24.1288C86.108 24.56 86.2386 25.0014 86.3256 25.4682C86.3843 25.7891 86.6946 26.0692 86.7533 26.4189C86.8214 26.8229 87.109 27.1777 87.0598 27.6157C87.0333 27.8415 87.1355 28.0265 87.4723 27.9773C87.7467 27.9349 88.0306 28.0079 88.3087 27.9009C88.5074 27.8245 88.6777 27.9586 88.8537 28.1029C88.9123 27.85 89.077 27.8126 89.3173 27.8194C89.7071 27.8313 90.1007 27.6548 90.5018 27.8568C90.5302 27.8721 90.8632 27.6989 91.0846 27.6683C91.3874 27.6293 91.6826 27.597 91.991 27.6446C92.1992 27.6751 92.3695 27.4731 92.6003 27.5156C92.6684 27.5274 92.746 27.4918 92.8179 27.4935C93.1093 27.4969 93.3497 27.614 93.7016 27.4935C94.2371 27.3101 94.801 27.6072 95.276 27.8704C96.2429 28.4068 96.839 29.2879 97.6356 29.9805C98.3036 30.5628 98.6214 31.3284 99.0945 32.0091C99.3083 32.3147 99.4124 32.6899 99.5222 33.0464C99.6433 33.4334 99.7852 33.812 99.946 34.1906C100.158 34.6863 100.302 35.199 100.37 35.7371C100.434 36.2532 100.686 36.7625 100.633 37.2819C100.574 37.854 100.917 38.3616 100.849 38.9201C100.811 39.224 100.822 39.5228 101 39.7978C101 39.8199 101 39.8419 101 39.864C100.82 39.9268 100.629 39.9828 100.869 40.1916C100.907 40.2256 100.921 40.3461 100.888 40.3733C100.659 40.5719 100.701 40.8639 100.561 41.0931C100.523 41.1576 100.482 41.1932 100.4 41.2051C100.247 41.2272 100.251 41.3002 100.355 41.3766C100.442 41.4411 100.442 41.5412 100.381 41.5769C100.01 41.7874 100.194 42.3968 99.5997 42.4393C99.5789 42.441 99.5505 42.4868 99.5486 42.514C99.5146 43.0623 99.0964 43.3339 98.6517 43.6361C98.4625 43.7634 98.2373 43.9026 98.0765 44.0792C97.6015 44.6054 96.9563 44.9568 96.3394 45.3015C95.8039 45.6002 95.3119 45.9907 94.7329 46.1961C94.1066 46.4168 93.5275 46.8157 92.7914 46.7478C92.5227 46.7224 92.3259 47.0059 92.0724 46.9447C91.5918 46.8293 91.1755 47.0568 90.7327 47.1128C90.3902 47.1553 90.3277 46.8378 90.1309 46.8616C89.955 46.8819 89.8339 47.1926 89.5784 46.9532C89.48 46.8599 89.5027 46.9583 89.4895 47.0008C89.463 47.0823 89.3892 47.0924 89.3135 47.084C88.8631 47.0279 88.3163 47.1926 87.9832 46.9329C87.6824 46.6969 87.6124 46.7614 87.4364 46.9702C87.3853 47.0296 87.2623 47.0262 87.2036 46.9583C87.005 46.7275 86.8365 46.8344 86.583 46.9125C86.3143 46.9974 86.0304 47.0772 85.7542 47.14C84.9519 47.3233 84.4088 47.7511 84.0247 48.3758C83.8846 48.605 83.6046 48.7221 83.4627 48.9581C83.4173 49.0328 83.3245 49.0753 83.3075 49.189C83.2659 49.4487 83.0937 49.5964 82.7625 49.5438C82.9139 50.0429 82.473 50.3128 82.2706 50.671C82.2403 50.7236 82.1778 50.7338 82.1097 50.7219C82.0284 50.7067 81.9829 50.5352 81.877 50.6642C81.8183 50.7372 81.9186 50.8034 81.9527 50.8713C82.0397 51.0513 81.8353 51.3025 81.4872 51.4264C81.4077 51.4553 81.2677 51.4197 81.455 51.5164C81.5231 51.5521 81.4966 51.6234 81.455 51.659C81.1295 51.9408 80.9592 52.3313 80.6073 52.5961C80.4464 52.7183 80.3007 52.8151 80.0547 52.7081C80.3234 52.9203 80.0888 53.0782 79.9847 53.1801C79.173 53.9661 78.3328 54.7215 77.4094 55.4141C76.8644 55.8233 76.2721 56.1662 75.7272 56.5702C74.8057 57.251 73.8387 57.8893 72.7828 58.4019C72.5085 58.5361 72.2965 58.7432 71.9919 58.8518C71.8027 58.918 71.9389 59.1981 72.0146 59.3543C72.482 60.3321 73.078 61.2387 73.8122 62.0875C74.1623 62.4932 74.537 62.9244 74.6789 63.4727C74.747 63.7409 74.976 63.9701 74.8492 64.2774C74.8321 64.3164 74.904 64.3945 74.9476 64.4455C75.2995 64.8597 75.2806 65.3469 74.9268 65.7611C74.7262 65.9988 74.6997 66.3264 74.3875 66.5165C73.5378 67.036 72.7791 67.6743 71.8746 68.114C71.4639 68.3126 71.0117 68.4637 70.5841 68.6301C70.0012 68.8576 69.4184 69.0732 68.8129 69.2412C68.1828 69.4144 67.5565 69.6079 66.9131 69.7301C66.4873 69.8116 66.0332 69.7726 65.5942 69.8065C65.4012 69.8201 65.3463 69.5739 65.3236 69.6079C65.2195 69.759 65.0984 69.7437 64.9452 69.7199C64.2412 69.613 63.5165 69.6758 62.8164 69.5145C62.4039 69.4178 62.086 69.6469 61.804 69.8642C61.4729 70.1223 61.1834 70.4024 60.6819 70.3905C60.5135 70.3854 60.3167 70.5059 60.1748 70.6146C59.925 70.8098 59.628 70.9066 59.3252 70.9881C58.6516 71.1697 57.9703 71.331 57.2929 71.5007C57.2702 71.5058 57.2418 71.5041 57.2229 71.516C56.9958 71.6365 56.7555 71.3649 56.5644 71.5041C56.3373 71.6654 56.1065 71.5602 55.8889 71.5992C55.5558 71.6586 55.219 71.6654 54.8936 71.7231C54.2105 71.8437 53.5406 71.9947 52.8329 71.9082C52.6777 71.8895 52.4847 71.9014 52.3561 72.0355C51.8887 72.0355 51.4213 72.0355 50.9558 72.0355C50.8517 71.9404 50.7268 71.9217 50.583 71.9336C50.0343 71.9829 49.4988 71.9489 48.9841 71.7384C48.7608 71.6467 48.5053 71.7265 48.2631 71.6552C47.9604 71.5652 47.6633 71.4413 47.3113 71.4956C47.1467 71.5194 46.931 71.4566 46.7985 71.2868C46.7058 71.168 46.5166 71.129 46.369 71.1374C45.7654 71.1697 45.3055 70.9117 44.8893 70.5738C44.6868 70.4092 44.4275 70.3413 44.2213 70.1749C43.5155 69.6028 43.1711 68.8389 42.7718 68.1038C42.5599 67.7117 42.3499 67.3161 42.1701 66.9104C41.979 66.4758 41.7519 66.0463 41.7235 65.5659C41.716 65.4046 41.6554 65.2314 41.8087 65.0956C41.8787 65.0345 41.8295 64.9989 41.8144 64.9361C41.7122 64.5235 41.4416 64.1161 41.7443 63.6815C41.8333 63.5525 41.7406 63.4405 41.6573 63.3216C41.4454 63.0229 41.4813 62.7682 41.7197 62.6307C41.5457 62.5102 41.4548 61.8854 41.6441 61.7632C41.9922 61.5374 41.716 61.2726 41.7557 61.0332C41.7727 60.9365 41.6213 60.9552 41.5476 60.9704C41.1445 61.0485 40.7301 60.928 40.3195 61.1062C40.0943 61.2047 39.7802 61.1589 39.4945 61.0876C38.9968 60.9653 38.4651 61.0859 37.9617 60.9704C37.5398 60.8737 37.1235 60.7701 36.658 60.9263C37.0951 61.2522 36.8718 61.6783 36.8396 62.0518C36.8113 62.3795 36.815 62.7122 36.7715 63.0279C36.7034 63.5186 36.8869 64.0126 36.6939 64.4913C36.6826 64.5201 36.6712 64.566 36.6883 64.5864C36.9816 64.9615 36.7621 65.3571 36.7412 65.7407C36.728 66.0344 36.5747 66.2721 36.2568 66.3892C36.0506 66.4656 35.8727 66.5777 35.7024 66.6999C35.1385 67.1056 34.4895 67.1837 33.7856 67.2143C33.2576 67.2363 32.7354 67.2448 32.2093 67.2261C32.0258 67.2194 31.8517 67.2329 31.6776 67.1481C31.3711 67.0038 31.0361 67.1345 30.7126 67.1124C30.3228 67.0869 29.9632 67.1158 29.7683 66.7101C29.6453 66.8578 29.9538 66.9274 29.7778 67.0038C29.6018 67.0801 29.3747 67.053 29.2782 66.9053C29.0285 66.5233 29.019 66.7304 28.8865 66.9766C28.6254 67.4655 28.1769 67.8339 27.6471 68.0851C27.42 68.1921 27.1949 68.3262 26.9981 68.4501C26.5591 68.7268 26.0614 68.754 25.5846 68.844C25.1512 68.9272 24.699 68.9628 24.2543 68.9883C23.6393 69.0256 23.03 69.1139 22.4151 69.1377C22.2921 69.1428 22.1218 69.1597 22.1293 68.9713C22.1312 68.9034 22.1028 68.8898 22.0518 68.9204C21.6109 69.1699 21.2059 68.8626 20.7858 68.8609C20.2863 68.8592 19.8776 68.5486 19.378 68.5723C19.3023 68.5757 19.2209 68.5163 19.1453 68.4807C18.9447 68.3873 18.7668 68.226 18.5057 68.3109C18.4792 68.3194 18.4338 68.2973 18.4035 68.2804C17.8869 67.9748 17.306 67.8322 16.7232 67.6692C16.4999 67.6064 16.1574 67.5249 16.0249 67.2516C15.9795 67.1582 15.9057 67.2075 15.8452 67.2414C15.6995 67.3263 15.5576 67.2873 15.427 67.2211C15.0523 67.0343 14.7023 66.7882 14.303 66.6608C14.0362 66.576 13.7372 66.559 13.4761 66.4317C13.0276 66.211 12.5375 66.0565 12.0664 65.9122C11.4949 65.739 11.001 65.4454 10.4977 65.1941C9.86191 64.8783 9.15988 64.656 8.59978 64.1755C8.2516 63.8768 7.94695 63.5253 7.52877 63.2639C7.20519 63.0602 7.06517 62.6103 6.86837 62.2589C6.59021 61.7615 6.33287 61.2539 6.07174 60.7497C5.9828 60.5817 5.92793 60.4068 5.89954 60.2167C5.84467 59.8279 5.76141 59.4409 5.65923 59.0589C5.60057 58.8399 5.6176 58.6226 5.60435 58.4036C5.59679 58.2695 5.60246 58.1388 5.77087 58.0675C5.85603 58.0302 5.9109 57.9504 5.85223 57.8757C5.67248 57.6465 5.82953 57.4258 5.94117 57.2696C6.2023 56.9063 6.43316 56.5227 6.72835 56.173C6.90244 55.9676 7.20898 55.7656 7.18249 55.4345C7.1787 55.3921 7.25629 55.3021 7.27521 55.3055C7.75016 55.4124 7.46443 55.1205 7.48146 54.9931C7.52119 54.7062 7.80504 54.511 8.21187 54.5348C7.92046 54.3158 8.02832 54.1987 8.23457 53.9932C8.38217 53.8472 8.36135 53.5536 8.54301 53.3566C8.789 53.0884 8.86658 52.6929 9.31316 52.5774C9.39831 52.5571 9.4475 52.4637 9.43237 52.3873C9.34532 51.9595 9.73134 51.6964 9.87326 51.3484C9.94516 51.1701 10.0814 51.07 10.3198 51.1396C10.5866 51.2176 10.5734 51.0309 10.4977 50.9274C10.2366 50.5624 10.4542 50.2873 10.668 50.0038C10.8042 49.8205 10.9329 49.6321 11.0767 49.4555C11.1694 49.3384 11.2395 49.1296 11.5176 49.4216C11.3019 48.9802 11.5706 48.7985 11.7996 48.6254C12.0115 48.4658 12.0588 48.3521 11.9112 48.1042C11.4703 47.3708 11.0654 46.6188 10.6831 45.8583C10.2687 45.0298 9.85244 44.1963 9.51752 43.339C9.22233 42.587 9.02932 41.8044 8.98769 40.998C8.95363 40.341 8.85145 39.6874 8.83253 39.0322C8.82684 38.7622 8.80981 38.5076 8.72466 38.2496C8.67925 38.1138 8.68682 37.9389 8.92525 37.9423C9.05013 37.944 9.06527 37.8897 9.06527 37.815C9.06338 37.6826 8.9612 37.7725 8.91578 37.7759C8.67547 37.7861 8.58464 37.708 8.6925 37.5009C8.77008 37.3532 8.69439 37.231 8.64898 37.0935C8.5695 36.8422 8.31026 36.5638 8.71331 36.3381C8.73602 36.3245 8.74927 36.2719 8.73981 36.2447C8.67925 36.0478 8.44272 35.895 8.73034 35.6352C8.85334 35.5266 8.5941 35.204 8.4957 34.98C8.31973 34.581 8.4465 34.1566 8.41434 33.7441C8.38596 33.3927 8.38217 33.0396 8.40488 32.6882C8.41812 32.4947 8.26295 32.2451 8.58275 32.1144C8.63762 32.0923 8.5941 32.0142 8.56383 31.965C8.52787 31.9056 8.48435 31.8309 8.58842 31.8088C8.63383 31.8003 8.69817 31.8716 8.75494 31.9073C8.78333 31.5932 8.46543 31.3607 8.51841 31.0381C8.55626 30.8055 8.50706 30.5543 8.82495 30.4338C8.9101 30.4015 8.91957 30.3183 8.83253 30.2436C8.63194 30.0756 8.70196 29.8566 8.71331 29.6512C8.71899 29.5493 8.78143 29.4322 8.89875 29.4339C9.27152 29.439 9.14853 29.2879 9.08608 29.0909C8.96498 28.7192 8.86658 28.3525 9.16745 27.9739C9.26774 27.8483 9.19772 27.5767 9.23179 27.373C9.25071 27.2609 9.28098 27.1081 9.39452 27.0996C9.75215 27.0691 9.59321 26.8942 9.55347 26.7414C9.4967 26.5208 9.45885 26.3018 9.76919 26.1965C9.83352 26.1744 9.8373 26.1354 9.81271 26.093C9.67836 25.8706 9.74648 25.6991 9.95652 25.5463C10.0057 25.5107 10.0398 25.4241 10.0284 25.3681C9.91867 24.7671 10.2593 24.3071 10.6131 23.8521C10.6415 23.8182 10.6794 23.7961 10.6794 23.7452C10.6888 23.0831 11.1392 22.5568 11.3814 21.9661C11.5176 21.635 11.8261 21.3668 11.915 21.0018C11.9339 20.9271 12.0474 20.9135 12.1269 20.8847C12.318 20.8185 12.46 20.6521 12.4297 20.5095C12.3824 20.2854 12.6132 20.1275 12.5375 19.9119C12.5148 19.8474 12.5811 19.7354 12.6776 19.749C13.1014 19.8084 12.9936 19.513 13.0428 19.3263C13.0636 19.2448 13.003 19.1599 13.0655 19.0716C13.3171 18.7151 13.3209 18.6998 12.9217 18.5555C12.8025 18.5114 12.6662 18.5318 12.6246 18.3858C12.6151 18.3501 12.5811 18.3366 12.547 18.3722C12.2423 18.6931 11.8809 18.5403 11.5271 18.4758C11.4438 18.4605 11.3435 18.4384 11.2716 18.4656C10.6415 18.71 9.95274 18.6998 9.29424 18.817C9.03121 18.8645 8.97255 18.9222 9.02554 19.2023C9.13718 19.788 9.20908 20.3873 9.12772 20.9916C9.08987 21.2751 9.13718 21.5688 9.13339 21.8574C9.11447 23.3343 8.86658 24.7807 8.35946 26.188C8.02832 27.1081 7.52877 27.9535 6.93839 28.7582C6.72646 29.0468 6.4483 29.2777 6.11526 29.4559C5.95821 29.5408 5.79926 29.6257 5.65544 29.7292C4.80015 30.3404 3.82943 30.4168 2.89845 30.0043C2.44052 29.8022 2.00909 29.4033 1.75363 28.9704C1.28057 28.164 0.860497 27.3322 0.455551 26.4953C0.184967 25.9368 0.190643 25.3205 0.1036 24.7247C0.0884552 24.616 0.0525055 24.5108 0.0260162 24.4055C0.0260162 24.1848 0.0260162 23.9641 0.0260162 23.7452C0.152794 23.4396 0.220917 23.1255 0.279579 22.8013ZM87.5934 38.8505C87.5007 39.4294 87.8016 39.9523 87.7391 40.5244C87.6805 41.0778 88.0873 41.5311 88.3712 41.9962C88.7326 42.5921 89.3476 42.9112 90.0212 43.1591C90.2028 43.227 90.3769 43.3068 90.5529 43.3832C91.1944 43.665 91.834 43.648 92.5265 43.4918C92.9712 43.3916 93.3875 43.2219 93.7849 43.0657C94.3412 42.845 94.7745 42.3867 95.3119 42.1099C95.8682 41.823 96.1369 41.2781 96.6876 41.0031C96.7349 40.9793 96.7557 40.9165 96.7879 40.8707C97.0547 40.4938 97.2628 40.0711 97.4483 39.6773C97.6602 39.224 97.9611 38.7606 97.9951 38.236C98.0197 37.8642 97.9005 37.506 97.8986 37.1325C97.8948 36.4009 97.6961 35.6862 97.6753 34.9477C97.6583 34.3009 97.4066 33.6558 97.2231 33.0192C97.1001 32.5829 96.9014 32.1653 96.7652 31.7324C96.5059 30.9057 95.7812 30.6154 94.9524 30.4473C94.7291 30.4015 94.4907 30.4151 94.2598 30.3998C93.7167 30.3574 93.1661 30.4694 92.676 30.5831C92.2067 30.6935 91.6391 30.6409 91.2436 31.0347C90.886 31.3912 90.4167 31.6475 90.042 31.9973C89.6825 32.3334 89.4119 32.7425 88.988 33.0192C88.8442 33.1143 88.9067 33.2552 88.8442 33.3706C88.532 33.9648 88.0854 34.5199 87.9397 35.165C87.7751 35.8967 87.5178 36.6114 87.5102 37.3804C87.5045 37.8795 87.6672 38.3718 87.5934 38.8505ZM73.6665 11.2253C73.1329 10.5072 72.552 9.81963 71.9692 9.13379C71.4564 8.52944 70.7998 8.0575 70.2245 7.51257C70.2075 7.49559 70.1905 7.47692 70.1678 7.47013C69.5906 7.29018 69.3484 6.7792 68.9151 6.46344C68.4439 6.11883 67.9709 5.77082 67.4543 5.47374C67.0361 5.23437 66.6576 4.93899 66.2338 4.71151C65.9689 4.56891 65.6548 4.501 65.3596 4.40933C65.0606 4.31766 64.7465 4.28371 64.4532 4.15978C64.2129 4.05792 63.9725 4.18694 63.8022 4.34652C63.6244 4.51289 63.4976 4.71999 63.3254 4.89145C63.0132 5.20381 62.8864 5.62822 62.5231 5.91511C62.3471 6.05602 62.578 6.14769 62.6669 6.21729C63.2081 6.64679 63.7739 7.05082 64.3094 7.48711C65.0587 8.09825 65.8553 8.67034 66.493 9.38673C66.686 9.60403 66.9812 9.70758 67.2196 9.86376C67.3351 9.94016 67.6965 9.74663 67.8649 10.0182C68.2377 9.70249 68.5934 9.94865 68.917 10.0777C69.4411 10.2865 69.9899 10.4274 70.5084 10.6549C70.8736 10.8144 71.305 10.9095 71.7005 11.0453C72.3987 11.2847 73.0213 11.6598 73.6817 11.9688C73.7971 12.0214 73.8974 12.1148 74.0601 12.0978C74.0147 11.7719 73.8576 11.4833 73.6665 11.2253ZM62.2714 62.0773C62.296 62.1757 62.3093 62.2708 62.3017 62.371C62.2847 62.6477 62.2771 62.9108 62.3793 63.1926C62.5174 63.578 62.5174 63.9973 62.4928 64.4064C62.4815 64.6101 62.6555 64.7833 62.6593 64.97C62.665 65.3808 62.7596 65.7798 62.7956 66.1855C62.8012 66.2381 62.8012 66.2975 62.7785 66.3451C62.6537 66.6269 62.7445 66.7559 63.1154 66.7966C63.2119 66.8085 63.3103 66.8017 63.4068 66.8017C63.4938 66.8017 63.579 66.8017 63.7076 66.8017C64.4078 66.8306 65.1552 66.9308 65.897 66.8476C66.3227 66.7983 66.7333 66.6337 67.1496 66.5148C67.5773 66.3926 68.0333 66.3298 68.4382 66.2042C68.7997 66.0921 69.2027 65.9988 69.5509 65.8035C69.8215 65.6491 70.1488 65.5455 70.4478 65.4725C70.849 65.374 71.0817 65.0651 71.4545 64.97C72.1224 64.8003 72.2776 64.2248 72.6277 63.8038C72.6863 63.7342 72.6996 63.6612 72.6693 63.5865C72.5198 63.2266 72.3628 62.8684 72.1262 62.5441C71.6797 61.9347 71.182 61.3541 70.9038 60.6564C70.8849 60.6054 70.8698 60.5494 70.8357 60.5053C70.6332 60.2574 70.5841 59.738 70.3418 59.7465C69.8972 59.7617 69.4714 60.0418 69.0248 60.181C68.1525 60.4527 67.2991 60.7633 66.3492 60.8193C65.8875 60.8465 65.4201 61.0231 64.9452 61.0757C64.3226 61.1436 63.6944 61.2115 63.0699 61.2013C62.4512 61.1911 62.1427 61.5612 62.2714 62.0773ZM29.9916 64.3198C30.2168 64.347 30.4268 64.4302 30.6709 64.3759C30.811 64.3453 30.985 64.3691 31.1232 64.4658C31.2348 64.5422 31.3692 64.5813 31.4978 64.4913C31.7609 64.3062 31.9558 64.7273 32.0788 64.605C32.3418 64.3453 32.4629 64.532 32.6313 64.6577C32.6862 64.6984 32.7732 64.7663 32.8073 64.6729C32.9284 64.3368 33.2349 64.5677 33.4412 64.4998C33.4923 64.4845 33.5604 64.5388 33.6455 64.5201C34.1602 64.4013 34.3457 64.1619 34.2529 63.6798C34.1981 63.3878 34.1432 63.1026 34.357 62.8412C34.4024 62.7835 34.3476 62.7393 34.3249 62.6901C33.9805 61.972 34.2624 61.2539 34.2908 60.5358C34.4724 60.5308 34.5216 60.6649 34.6844 60.7158C34.7279 60.5223 34.6617 60.4017 34.4649 60.3321C34.2151 60.2439 33.9313 60.1997 33.7212 60.0622C33.11 59.6616 32.3153 59.6446 31.7041 59.2558C31.494 59.1234 31.3919 59.1506 31.2632 59.3866C31.0096 59.8517 30.9226 60.4034 30.4533 60.7684C30.4287 60.7871 30.4117 60.8278 30.4136 60.8567C30.4609 61.4118 30.1846 61.9194 30.0446 62.4338C29.9027 62.9566 29.9083 63.488 29.757 64.0007C29.704 64.1738 29.7645 64.2944 29.9916 64.3198ZM12.9368 27.4765C12.8517 27.6938 12.8327 27.9247 12.7362 28.142C12.6757 28.2778 12.6019 28.3304 12.4108 28.2727C12.6038 28.5188 12.6511 28.7141 12.354 28.8601C12.2821 28.894 12.248 28.9619 12.2537 29.0264C12.3199 29.6817 11.9528 30.2725 11.898 30.9057C11.8034 31.9973 11.5328 33.0735 11.5479 34.1753C11.5498 34.2772 11.546 34.3756 11.476 34.4588C11.3076 34.6574 11.3057 34.8628 11.4325 35.075C11.4495 35.1039 11.4855 35.1429 11.476 35.1633C11.2414 35.6743 11.6841 36.1887 11.4609 36.703C11.4022 36.8389 11.5195 36.973 11.5384 37.1139C11.6084 37.6452 11.4438 38.1766 11.5687 38.7045C11.7504 39.4854 11.8109 40.2799 11.8715 41.0744C11.8771 41.1457 11.915 41.2289 11.9699 41.2832C12.5148 41.8264 12.5565 42.5106 12.6378 43.1811C12.7533 44.1437 13.0295 45.0485 13.671 45.8498C14.1743 46.4813 14.513 47.2215 15.1261 47.7749C15.5462 48.1535 15.6068 48.6661 15.8603 49.1007C15.9795 49.3044 16.2312 49.7832 15.7241 50.0378C15.6938 50.0531 15.6862 50.1159 15.6806 50.1583C15.6446 50.4537 15.4308 50.6557 15.2737 50.8985C14.9937 51.3348 14.5509 51.6471 14.3011 52.0902C13.8943 52.81 13.2888 53.411 12.81 54.0866C12.547 54.4567 12.0834 54.6536 11.8753 55.0644C11.7068 55.3972 11.4022 55.6654 11.2565 56.0134C11.1884 56.1781 11.0219 56.2833 10.8743 56.3563C10.6529 56.465 10.5488 56.6364 10.4069 56.8011C9.94328 57.3392 9.60267 57.9504 9.11258 58.4766C8.7417 58.8722 8.5203 59.3611 8.35378 59.8619C8.31973 59.9638 8.35378 60.0571 8.36135 60.1539C8.38028 60.4102 8.48435 60.6717 8.29134 60.9144C8.25728 60.9569 8.23079 61.0265 8.31973 61.0468C8.53922 61.0944 8.50517 61.2624 8.50706 61.3881C8.51084 61.5867 8.6414 61.7276 8.80035 61.7717C9.58564 61.9941 10.2044 62.5204 11.0029 62.7173C11.0824 62.736 11.194 62.7818 11.2149 62.8378C11.317 63.1247 11.7125 63.1841 11.8393 63.1553C12.2821 63.05 12.5489 63.3488 12.8744 63.4506C13.8829 63.7664 14.8536 64.1823 15.8282 64.5796C16.4166 64.8189 17.0487 64.9513 17.6182 65.2552C17.8831 65.3961 18.2332 65.4386 18.5322 65.5998C18.6949 65.6881 19.0014 65.5845 19.2209 65.6966C19.6183 65.8969 20.0668 65.8884 20.4963 65.958C20.6666 65.9852 20.854 65.9784 20.8256 66.2144C20.818 66.2755 20.8842 66.3128 20.9524 66.3043C21.0129 66.2975 21.0167 66.25 21.0129 66.2025C20.9921 65.9818 21.1151 66.0463 21.2192 66.1278C21.4557 66.3128 21.6941 66.2755 21.942 66.155C21.9515 66.1499 21.9704 66.138 21.9723 66.1414C22.3715 66.4843 22.7992 65.9512 23.2022 66.1753C23.223 66.1855 23.2571 66.2042 23.2685 66.1974C23.5882 66.0107 23.8929 66.0242 24.1843 66.2466C24.1957 66.2534 24.243 66.2449 24.2505 66.2313C24.5003 65.8256 24.9734 65.975 25.3443 65.8884C25.77 65.79 26.0747 65.5183 26.2904 65.2501C26.4399 65.0651 26.4077 64.712 26.5307 64.4488C26.7786 63.9226 26.8562 63.3641 26.911 62.8022C26.9224 62.7054 26.9375 62.6052 26.9716 62.5119C27.0473 62.3082 27.1646 62.1146 27.0567 61.8854C27.0265 61.8226 27.0227 61.6868 27.1854 61.7225C27.3046 61.7496 27.2933 61.7208 27.2308 61.6631C27.0719 61.5188 27.1078 61.3643 27.1892 61.2064C27.3463 60.9042 27.193 60.4934 27.5979 60.2778C27.4428 60.0656 27.7966 59.9009 27.649 59.6395C27.5695 59.4986 27.772 59.2151 27.8799 59.0097C28.1031 58.5836 28.3529 58.1694 28.5819 57.745C28.6292 57.655 28.6879 57.6024 28.7862 57.5752C28.8336 57.5633 28.8771 57.543 28.9225 57.526C28.6519 57.2747 29.1041 57.2544 29.1079 57.0625C29.1136 56.7909 29.5261 56.6772 29.7721 56.8554C29.8327 56.8996 29.8913 56.9505 29.9576 56.8877C30.0276 56.8215 29.933 56.7994 29.897 56.7621C29.8232 56.6823 29.8345 56.5957 29.8989 56.521C29.9803 56.4225 30.0635 56.4616 30.143 56.5346C30.1638 56.5532 30.2225 56.5651 30.2433 56.5532C30.9037 56.1798 31.4846 56.6042 32.039 56.7688C33.1725 57.1033 34.27 57.5124 35.464 57.6991C36.0108 57.784 36.5728 57.7891 37.1102 57.9334C37.307 57.986 37.5303 57.9657 37.6325 58.1813C37.6684 58.2593 37.8009 58.2526 37.8142 58.2067C37.9012 57.8876 38.1794 58.0692 38.2986 58.1032C38.4916 58.1575 38.6978 58.1762 38.8908 58.2339C39.046 58.2814 39.2655 58.1575 39.4736 58.1745C39.6534 58.1897 39.8218 58.1779 40.0073 58.2424C40.2022 58.312 40.4008 58.1083 40.6431 58.1541C40.7585 58.1762 40.8455 58.1609 40.8853 58.2814C40.9591 58.5004 41.154 58.4868 41.3526 58.4851C41.3829 58.3425 41.1218 58.2644 41.2845 58.1218C41.4283 57.9962 41.5873 58.0658 41.7349 58.1066C41.9222 58.1575 42.1039 58.256 42.2609 58.0556C42.2988 58.0064 42.3745 58.0047 42.4312 58.0268C42.6413 58.1151 42.7586 58.0794 42.9005 57.8859C43.0292 57.7144 43.279 57.8061 43.453 57.9096C44.0302 58.2526 44.5505 58.66 44.9006 59.1947C45.0842 59.4731 45.1371 59.8245 45.1542 60.1556C45.1731 60.5426 45.0747 60.9518 44.9782 61.2981C44.8628 61.7004 45.1504 62.2352 44.6073 62.5322C44.5638 62.556 44.5241 62.5968 44.5524 62.6409C44.8419 63.0704 44.5146 63.4574 44.4616 63.8632C44.4067 64.274 44.4086 64.6916 44.3783 65.1058C44.3235 65.8579 44.4635 66.6031 44.507 67.3518C44.5222 67.5911 44.4995 67.9493 44.9574 68.0223C45.1315 68.0512 45.1258 68.3075 45.2299 68.3822C45.3264 68.4518 45.4588 68.1666 45.6518 68.1921C45.8392 68.2159 45.9868 68.316 46.106 68.4501C46.2857 68.6555 46.4693 68.8491 46.7247 68.5163C46.7474 68.4858 46.8156 68.4552 46.8515 68.4637C47.3832 68.5757 47.9831 68.4586 48.4334 68.8508C48.5526 68.9543 48.6946 69.2684 48.8838 68.8609C48.9633 68.6912 49.2017 68.8134 49.3531 68.8508C49.5366 68.8966 49.6842 68.9272 49.898 68.9102C50.2557 68.8813 50.6738 68.8304 51.005 68.9441C51.321 69.0528 51.5537 68.9288 51.8187 68.9051C52.129 68.8796 52.428 68.8202 52.6664 69.0698C52.7118 69.1156 52.7894 69.1461 52.8594 69.0782C53.2492 68.6929 53.2738 68.6895 53.7771 68.9526C53.7866 68.956 53.8017 68.956 53.8528 68.9628C53.7374 68.7761 53.832 68.7353 54.0193 68.7268C54.4527 68.7031 54.8784 68.6046 55.3212 68.72C55.4347 68.7506 55.6145 68.5639 55.7962 68.6182C56.0743 68.6997 56.3298 68.7455 56.5531 68.5027C56.6004 68.4501 56.7461 68.4314 56.8312 68.4501C57.3156 68.5503 57.783 68.389 58.1615 68.2142C58.468 68.0699 58.8559 68.097 59.1038 67.839C59.1852 67.7541 59.3347 67.7083 59.4633 67.6811C60.2183 67.5283 60.2656 67.1073 60.2032 66.6252C60.0916 65.7713 59.9913 64.9123 59.9137 64.0567C59.8437 63.2877 59.715 62.5238 59.6847 61.7496C59.6601 61.1538 59.6223 60.5596 59.6317 59.9638C59.6355 59.7974 59.6336 59.6225 59.7623 59.4952C60.0329 59.2287 60.0178 58.823 60.3546 58.5853C60.4719 58.5038 60.5665 58.4461 60.7084 58.4614C60.9166 58.4834 61.0755 58.4104 61.1569 58.2407C61.2439 58.0573 61.3612 58.003 61.5561 58.11C61.6148 58.1422 61.6489 58.1796 61.7378 58.115C62.0481 57.891 62.4474 58.0845 62.7899 57.9657C62.8467 57.947 62.9318 58.0064 62.9961 57.9504C63.2819 57.7093 63.5373 57.8197 63.8193 58.0488C63.8287 57.9045 63.7474 57.7891 63.895 57.7382C64.052 57.6839 64.1315 57.8214 64.3075 57.9045C64.1447 57.6805 64.3075 57.6839 64.4361 57.6584C64.5402 57.6397 64.6481 57.5752 64.7446 57.6703C64.7824 57.7076 64.7805 57.745 64.737 57.784C64.6973 57.818 64.5497 57.8044 64.6462 57.9045C64.7332 57.9962 64.8316 57.9096 64.8524 57.8553C65.0587 57.3155 65.5734 57.4054 66.0105 57.4309C66.2546 57.4445 66.3 57.2561 66.4741 57.217C66.9358 57.1135 67.3843 56.9658 67.8498 56.8758C68.1544 56.8164 68.4288 56.7298 68.6672 56.5482C68.8091 56.4378 68.9435 56.4497 69.0665 56.6721C69.0532 56.1339 69.5622 56.1781 69.8593 56.0066C70.6768 55.5347 71.5586 55.1629 72.3647 54.6655C72.9683 54.2903 73.5946 53.9372 74.1453 53.5094C74.7073 53.0714 75.3866 52.7676 75.8634 52.2243C76.117 51.9357 76.5049 51.7354 76.7963 51.4587C76.9193 51.3416 77.0404 51.4095 77.1653 51.4519C77.3526 51.513 77.3602 51.6285 77.2485 51.7982C77.5854 51.6437 77.4321 51.4502 77.3488 51.3076C77.2145 51.0733 77.2485 50.9579 77.5343 50.8611C77.9449 50.7219 78.2344 50.4571 78.3195 50.0582C78.346 49.9309 78.4085 49.8612 78.5353 49.8222C78.5826 49.8086 78.6526 49.795 78.6658 49.7662C78.838 49.3469 79.1238 49.5879 79.3697 49.7068C79.3868 49.644 79.4038 49.6117 79.3962 49.6066C79.1067 49.4046 79.1313 49.4148 79.2619 49.1432C79.4171 48.8172 79.7709 48.6135 79.875 48.257C79.9412 48.0312 80.174 48.2112 80.3405 48.1484C79.9904 47.7783 80.4199 47.6628 80.6338 47.527C80.7568 47.4472 80.7965 47.3997 80.7946 47.2826C80.7889 47.0687 80.8552 46.9244 81.1428 47.0313C81.2166 47.0585 81.3169 47.0585 81.3036 46.9651C81.2525 46.5577 81.5818 46.298 81.771 45.9873C81.8826 45.804 82.07 45.6597 82.3406 45.6851C82.439 45.6936 82.5317 45.6664 82.5336 45.5782C82.5411 45.3711 82.7209 45.2454 82.8685 45.2268C83.1883 45.186 83.2526 44.872 83.5289 44.8075C83.5611 44.8007 83.6084 44.7684 83.6084 44.748C83.6103 44.2506 84.1287 44.271 84.4391 44.0911C84.581 44.0079 84.7418 43.9569 84.8648 43.8415C85.1449 43.5784 85.2225 43.6021 85.3209 43.9145C85.8412 43.8636 86.3502 43.7923 86.8725 43.8398C86.1875 42.9452 85.739 41.93 85.2433 40.9318C84.8724 40.1882 84.4277 39.4685 84.3028 38.6587C84.1931 37.9338 84.0436 37.2055 84.0947 36.4654C84.1023 36.3584 84.072 36.2481 84.0512 36.1411C84.0114 35.9391 84.0133 35.7286 84.1514 35.5707C84.3104 35.3908 84.3463 35.2567 84.1458 35.092C84.072 35.0309 84.0549 34.9172 84.106 34.8442C84.2726 34.6099 84.1079 34.2483 84.5185 34.0819C84.6207 34.0395 84.5583 33.6796 84.581 33.4674C84.5905 33.3774 84.3426 33.1364 84.7343 33.2382C84.7986 33.2552 84.7816 33.1839 84.7797 33.1431C84.7551 32.7697 84.8364 32.4403 85.2508 32.2502C85.3322 32.2129 85.2754 32.1534 85.2546 32.1093C85.2206 32.0397 85.2414 31.9327 85.2736 31.9243C85.6406 31.8394 85.4628 31.2758 85.9548 31.3012C85.9718 31.3029 86.004 31.2113 86.0153 31.1603C86.0267 31.1077 85.9964 31.0262 86.0286 30.9991C86.4354 30.6629 86.1856 30.4066 85.9434 30.1078C85.6179 29.7106 85.4666 29.2318 85.2792 28.7701C85.1808 28.5324 84.9897 28.3389 84.8762 28.0927C84.598 27.485 84.5185 26.8569 84.4012 26.2203C84.1912 25.0761 83.8487 23.9675 83.1618 22.9473C82.6528 22.1884 82.0984 21.4534 81.5193 20.7438C81.0936 20.2209 80.647 19.6862 80.0756 19.2516C79.5552 18.856 79.0935 18.3926 78.6374 17.9359C78.2798 17.576 77.7973 17.3842 77.381 17.1058C77.2712 17.0345 77.1483 16.9903 77.1142 16.8579C77.0972 16.7934 77.0631 16.7408 76.9855 16.7102C76.3005 16.4352 75.7385 15.9701 75.0743 15.6849C74.6259 15.4897 74.2588 15.1688 73.7782 15.0517C73.5378 14.9923 73.3978 14.8191 73.184 14.741C72.5274 14.5016 71.8519 14.2962 71.2274 14.0025C70.6806 13.7445 70.0864 13.5917 69.5566 13.2946C69.2292 13.113 68.7883 13.1028 68.4231 12.9653C68.1203 12.8516 67.846 12.7293 67.4997 12.6937C67.2688 12.6682 67.0077 12.5409 66.7523 12.4781C66.6633 12.456 66.5971 12.4136 66.5706 12.3304C66.4362 11.8975 66.0067 11.6938 65.6926 11.3933C65.2933 11.0147 64.8127 10.7075 64.4626 10.295C64.0709 9.83491 63.5563 9.51406 63.0851 9.13888C62.6404 8.78408 62.1957 8.43098 61.7246 8.10504C61.4824 7.93867 61.2364 7.7757 61.0509 7.55671C60.9014 7.37846 60.6441 7.41581 60.4473 7.28848C60.154 7.09496 59.8739 6.8505 59.4993 6.76053C59.4652 6.75204 59.4331 6.73167 59.4047 6.71469C58.222 6.01358 56.8842 5.65198 55.5161 5.45336C55.0166 5.38037 54.4394 5.24795 53.8963 5.47034C53.6163 5.58578 53.2946 5.46694 52.9881 5.5009C52.6929 5.53485 52.5055 5.60785 52.4677 5.89474C52.4545 5.98641 52.3958 6.08827 52.3239 6.15618C51.9019 6.55681 51.8243 7.07289 51.6711 7.57538C51.5083 8.10843 51.4118 8.65337 51.3342 9.19151C51.2869 9.53273 51.3229 9.90621 51.321 10.2627C51.3153 10.8925 51.3418 11.5291 51.4175 12.1437C51.4781 12.6258 51.3891 13.1164 51.5727 13.6138C51.7222 14.0161 51.7411 14.5186 51.6351 14.9736C51.5992 15.1213 51.6256 15.2401 51.6559 15.3793C51.9114 16.5829 52.3409 17.7526 52.5718 18.9613C52.6758 19.5045 52.4507 20.0376 51.9057 20.2854C51.6673 20.3941 51.374 20.5061 51.0655 20.4637C50.7382 20.4195 50.6209 20.1819 50.4808 19.9663C49.7675 18.873 49.3266 17.6932 49.0919 16.4437C48.863 15.2163 48.7078 13.9856 48.6151 12.7412C48.5451 11.8313 48.4353 10.9129 48.3237 10.0013C48.2556 9.44955 48.4069 8.89273 48.2839 8.33931C48.2556 8.21368 48.2366 8.09315 48.1023 8.03713C47.9471 7.97262 47.9358 8.1288 47.8639 8.18992C47.7182 8.31384 47.5535 8.30196 47.3832 8.25952C47.1108 8.18992 46.8458 8.12371 46.5563 8.20689C46.3349 8.2714 46.0946 8.16106 45.9394 8.07618C45.6821 7.93358 45.4721 8.08297 45.2696 8.05241C44.8287 7.9862 44.3613 8.21199 43.9469 7.94716C43.928 7.93528 43.928 7.86907 43.8845 7.92C43.5874 8.26291 43.1597 8.09485 42.8135 8.09315C41.2826 8.08806 39.7613 8.21708 38.238 8.31384C37.7139 8.3461 37.1821 8.39533 36.6561 8.4123C36.1774 8.42928 35.6646 8.32912 35.2104 8.46663C34.0789 8.80615 32.847 8.71957 31.7476 9.1287C31.0134 9.40032 30.2281 9.57347 29.5621 9.98769C29.2007 10.2118 28.7484 10.1999 28.3548 10.3612C27.7001 10.6294 27.1665 11.064 26.5231 11.3441C25.8211 11.648 25.2175 12.0961 24.5476 12.4492C24.2146 12.6258 23.9648 12.9398 23.6488 13.1656C22.7008 13.8498 21.8285 14.6086 20.977 15.3878C20.1481 16.1483 19.4196 16.9819 18.6798 17.812C18.1726 18.3824 17.7299 18.9935 17.2114 19.5571C16.92 19.8729 16.744 20.3279 16.4526 20.681C16.0817 21.1308 15.902 21.6707 15.5519 22.1222C15.0239 22.8047 14.7685 23.6178 14.2235 24.2901C14.2784 24.8147 13.7656 25.1287 13.6237 25.604C13.4364 26.2322 13.1771 26.8552 12.9368 27.4765ZM3.19363 26.879C3.19553 27.0165 3.21634 27.1709 3.39799 27.2388C3.5929 27.3101 3.714 27.2083 3.84646 27.0996C4.35547 26.682 4.51064 26.0896 4.7869 25.5599C5.0064 25.1389 5.17481 24.6924 5.32998 24.2477C5.41891 23.9896 5.43216 23.7112 5.47946 23.443C5.57408 22.915 5.71978 22.3939 5.75005 21.8574C5.75384 21.7827 5.78223 21.6893 5.68194 21.652C5.57976 21.6147 5.52299 21.7012 5.47946 21.7589C4.70932 22.8217 3.77644 23.8029 3.35258 25.0438C3.27689 25.2696 3.14443 25.4869 3.15768 25.7976C3.2485 26.115 3.19174 26.497 3.19363 26.879ZM25.208 16.2298C25.454 16.2502 25.5657 16.2807 25.3916 16.0278C25.3575 15.9786 25.4332 15.9276 25.4881 15.9039C25.9763 15.7002 26.3566 15.3284 26.8259 15.1281C27.3746 14.8921 27.8628 14.5848 28.3813 14.3183C28.8638 14.0705 29.3634 13.8481 29.8705 13.6494C30.5555 13.3795 31.2121 13.0298 31.9387 12.8838C32.2623 12.8193 32.4723 12.5969 32.7883 12.5613C33.216 12.5137 33.5944 12.3134 34.0051 12.2251C34.6617 12.0825 35.3012 11.7532 36.0146 12.0062C36.0771 12.0282 36.1225 11.9807 36.1679 11.9399C36.3666 11.7549 36.9305 11.6293 37.1575 11.7396C37.3487 11.8313 37.5209 12.0248 37.6363 11.6734C37.6552 11.6123 37.7839 11.6174 37.8728 11.6191C38.3364 11.6276 38.8133 11.5733 39.2617 11.6531C39.7688 11.743 40.3611 11.5512 40.785 11.9739C40.8361 12.0248 40.9042 11.9552 40.9685 11.9179C41.2561 11.7481 41.7387 11.9043 41.7803 12.2031C42.0074 11.9332 42.2515 11.9264 42.4104 12.164C42.4539 12.2302 42.5145 12.2998 42.5637 12.2438C42.7662 12.0062 42.8097 12.2353 42.9156 12.3219C43.1389 12.5053 43.3736 12.6767 43.453 12.9602C43.4757 13.04 43.5647 13.0638 43.6479 13.0943C44.0018 13.2233 44.3273 13.4661 44.4294 13.7513C44.5316 14.0314 44.8117 14.3081 44.6584 14.6578C44.6035 14.7784 44.63 14.9261 44.7682 15.016C44.9176 15.1145 44.9555 15.2537 44.9366 15.3963C44.8647 15.9684 45.3093 16.5201 45.0085 17.1007C44.9839 17.1465 45.0331 17.2246 45.052 17.2874C45.1958 17.7424 44.946 18.177 44.4351 18.2737C44.261 18.306 44.1816 18.3756 44.1078 18.4876C43.9829 18.6778 43.8277 18.7576 43.5931 18.6302C43.3963 18.5233 43.0897 18.7015 42.9516 18.435C42.8475 18.688 42.6129 18.5691 42.4483 18.5488C41.9033 18.4826 41.4037 18.6829 40.9326 18.8272C39.6742 19.2142 38.414 19.5911 37.1462 19.9476C36.6012 20.1004 36.0279 20.2243 35.5132 20.4059C34.9834 20.5927 34.4232 20.7183 33.9123 20.9441C33.6153 21.0748 33.2879 21.1156 32.9965 21.2259C32.4383 21.4364 31.9122 21.6927 31.3162 21.8336C30.8753 21.9389 30.4495 22.1647 30.0578 22.3514C29.6245 22.5568 29.1344 22.6349 28.72 22.8879C28.4797 23.0339 28.1277 23.0474 27.912 23.2783C27.8855 23.3055 27.8307 23.3123 27.789 23.3292C27.6831 23.1069 27.3292 23.0967 27.2516 22.8845C27.0151 22.2309 26.7123 21.6113 26.3244 21.0154C26.1977 20.8202 26.0766 20.6029 26.0217 20.3448C25.9668 20.0902 25.9952 19.8118 25.8703 19.5504C25.6243 19.0343 25.6678 18.4367 25.3575 17.9308C25.3518 17.9223 25.3556 17.9088 25.3556 17.8986C25.3424 17.6287 25.1058 17.4012 25.1777 17.1092C25.2023 17.0073 25.0585 16.9937 24.9715 16.9598C24.8371 16.9089 24.6479 16.8461 24.7633 16.6848C24.8844 16.515 24.892 16.2044 25.208 16.2298ZM27.8515 19.5656C28.0483 19.6828 28.2072 19.5436 28.3832 19.496C28.6803 19.4179 28.9301 19.2448 29.2158 19.1599C29.4183 19.1005 29.5772 19.2974 29.791 19.3976C29.6056 19.1837 29.7343 19.0971 29.9083 18.9783C30.1846 18.7915 30.529 18.6998 30.792 18.542C31.1288 18.3383 31.5073 18.2805 31.8365 18.1091C32.0182 18.0157 32.1904 17.9885 32.3929 17.9919C32.6483 17.997 32.7467 17.7356 33.0022 17.6847C33.2292 17.6388 33.4222 17.4555 33.6872 17.5879C33.742 17.6168 33.8026 17.5913 33.8518 17.5489C34.1886 17.2518 34.6219 17.1754 35.0553 17.0498C35.3486 16.9649 35.6021 16.9615 35.8803 16.9309C36.0752 16.9106 36.3779 16.8359 36.5899 16.6474C36.7526 16.5014 37.0591 16.5031 37.3127 16.4624C37.5473 16.4267 37.7687 16.5235 38.0091 16.4573C38.1585 16.4149 38.2986 16.4318 38.2759 16.2383C38.2683 16.1738 38.3402 16.1585 38.4045 16.1466C38.9438 16.0363 39.4831 15.9259 40.0224 15.8105C40.1246 15.7884 40.2022 15.7935 40.2911 15.8563C40.5276 16.0176 40.8134 15.9769 40.9818 15.7749C41.1464 15.5779 41.3053 15.7273 41.4018 15.819C41.6251 16.0278 41.8144 16.0821 42.032 15.8275C42.0603 15.7969 42.1133 15.7545 42.1474 15.7579C42.594 15.8105 42.4369 15.5423 42.4237 15.3505C42.4161 15.252 42.3991 15.1518 42.4085 15.0551C42.4218 14.943 42.6072 14.8242 42.3801 14.724C42.2117 14.6493 42.0944 14.4558 41.8465 14.6714C41.6157 14.8717 41.2883 14.7003 41.0045 14.7054C40.1076 14.7206 39.2295 14.8208 38.344 14.9702C37.6098 15.0924 36.9116 15.3946 36.1319 15.3403C35.9333 15.3267 35.7213 15.5151 35.5094 15.5915C34.902 15.8122 34.287 16.0074 33.6493 16.1602C33.3693 16.2281 33.0911 16.4675 32.7732 16.5167C32.1563 16.6152 31.6946 16.9937 31.1326 17.1822C30.2811 17.4657 29.5185 17.9054 28.7011 18.2449C28.3586 18.3875 28.0558 18.6048 27.6812 18.6931C27.6282 18.7049 27.5771 18.7491 27.5412 18.7898C27.4976 18.8391 27.7625 19.513 27.8515 19.5656ZM69.3636 24.4276C69.3427 25.346 69.6058 26.1031 70.0372 26.8195C70.1961 27.0844 70.9019 27.3084 71.1952 27.1675C71.6929 26.9299 72.2265 26.6837 72.429 26.1846C72.6542 25.6295 72.9758 25.0676 72.7299 24.4378C72.7072 24.3818 72.7147 24.3054 72.7374 24.2477C72.9872 23.611 72.5842 22.7605 71.9011 22.404C71.6002 22.2479 71.2728 22.1749 70.9587 22.0662C70.6105 21.9457 70.0126 22.2292 69.8461 22.5976C69.5641 23.2121 69.3314 23.8419 69.3636 24.4276ZM75.7896 24.8571C75.8085 25.5888 76.1586 26.2254 76.5598 26.8297C76.8814 27.3135 77.4699 27.3967 78.0565 27.1047C78.6147 26.828 78.8797 26.4223 78.9781 25.8247C79.1219 24.9369 78.8891 24.1237 78.6147 23.3055C78.4425 22.7894 77.6573 22.3022 77.0688 22.2869C76.6165 22.2767 76.0943 22.511 76.0999 22.8743C76.1075 23.297 75.7556 23.6365 75.8899 24.0966C75.941 24.2731 75.7839 24.5923 75.7896 24.8571ZM90.4469 37.9796C90.3448 38.7419 90.587 39.409 90.9976 40.049C91.1603 40.3054 91.4215 40.3699 91.7337 40.2511C92.6041 39.9217 92.958 39.2732 93.0677 38.4872C93.1453 37.9287 93.2267 37.3668 93.238 36.8066C93.2513 36.1683 93.1339 35.547 92.57 35.075C92.4735 34.9918 92.3808 34.9036 92.2919 34.8119C91.9286 34.4367 91.5653 34.4673 91.1755 34.8323C90.8519 35.1361 90.8349 35.5062 90.7554 35.8678C90.6494 36.574 90.5397 37.2751 90.4469 37.9796ZM94.1822 37.0239C94.1406 37.4704 94.029 37.9219 94.0895 38.3837C94.1444 38.803 94.3677 39.1561 94.5645 39.5143C94.6837 39.7316 95.2305 39.6874 95.399 39.46C95.5314 39.2834 95.6998 39.1493 95.8701 39.005C96.3053 38.6349 96.2902 38.0951 96.487 37.6503C96.3356 37.2174 96.5551 36.8338 96.5816 36.4348C96.6157 35.9153 96.4965 35.4536 96.0537 35.1005C95.8077 34.9036 95.6714 34.5759 95.257 34.5691C94.9316 34.5624 94.5985 34.7712 94.5134 35.0564C94.3204 35.7015 94.2447 36.3669 94.1822 37.0239Z" fill="white"/>
</g>
</svg>
