<svg width="115" height="120" viewBox="0 0 115 120" fill="none" xmlns="http://www.w3.org/2000/svg">
<mask id="mask0_378_593" style="mask-type:luminance" maskUnits="userSpaceOnUse" x="0" y="1" width="115" height="117">
<path d="M0 22.8213L78.9888 1.84397L114.677 96.9196L35.6879 117.897L0 22.8213Z" fill="white"/>
</mask>
<g mask="url(#mask0_378_593)">
<path d="M106.566 75.1178C106.48 74.7016 106.164 74.3488 106.09 73.9576C106.015 73.5645 105.877 73.2022 105.681 72.8674C105.13 71.9266 104.84 70.8924 104.278 69.9586C104.153 69.7504 104.033 69.5548 103.755 69.497C103.646 69.4761 103.425 69.3872 103.719 69.2832C103.816 69.2496 103.82 69.1107 103.75 69.0198C103.324 68.4725 102.994 67.8798 102.702 67.2673C102.657 67.1755 102.598 67.1354 102.487 67.1409C102.4 67.1461 102.247 67.3025 102.226 67.0806C102.214 66.948 101.925 66.8174 102.19 66.6732C102.331 66.5978 102.256 66.4183 102.169 66.3477C101.968 66.1795 101.962 65.9697 101.876 65.7653C101.354 64.5274 100.789 63.3053 100.078 62.1377C99.8928 61.8337 99.6366 61.5547 99.6459 61.1812C99.6469 61.141 99.6002 61.0596 99.5748 61.0564C99.1722 61.0117 99.3505 60.7011 99.2464 60.5313C98.9524 60.0548 98.9402 59.4896 98.5493 59.0508C98.3139 58.7842 98.2527 58.4274 98.1245 58.1184C97.9123 57.6122 97.4447 57.2058 97.4066 56.6414C97.4025 56.5767 97.3488 56.5092 97.2758 56.5246C96.9152 56.6024 97.0208 56.4048 97.0314 56.2125C97.054 55.7776 96.7952 55.3895 96.495 55.1062C96.3072 54.9287 96.2108 54.7688 96.2273 54.5869C96.2598 54.2212 96.0416 53.936 95.8956 53.6277C95.8537 53.5431 95.7782 53.3956 95.6678 53.5965C95.6038 53.7112 95.5146 53.5813 95.4667 53.5182C95.4279 53.4687 95.2795 53.3585 95.5024 53.3711C95.5606 53.3756 95.5716 53.3188 95.5766 53.2676C95.5924 53.1158 95.1976 52.4248 95.0434 52.3421C95.0226 52.3296 94.9712 52.3273 94.9705 52.3255C94.994 51.9522 94.4465 51.8064 94.5103 51.4224C94.5324 51.2929 94.4814 51.1947 94.4142 51.0749C94.0819 50.491 93.7301 49.9142 93.4842 49.2913C93.3459 48.9391 93.1353 48.604 93.0234 48.2468C92.9521 48.0243 92.5829 48.0147 92.6704 47.6882C92.7332 47.4521 92.4942 47.2244 92.3752 46.9987C91.9759 46.231 91.6989 45.4069 91.1802 44.7029C90.9247 44.3559 90.8229 43.9879 90.6487 43.6313C90.5581 43.4439 90.5038 43.2668 90.1842 43.2978C90.4724 43.1295 90.3435 42.9743 90.2433 42.7935C89.9691 42.2998 89.6908 41.8112 89.3685 41.3402C89.2755 41.2053 89.3183 40.9965 89.2402 40.8477C89.141 40.6586 89.0214 40.3991 88.7097 40.6395C88.7236 40.3485 88.8772 40.0903 88.6617 39.8284C88.5629 39.7051 88.4437 39.7965 88.3275 39.7775C88.3437 39.4062 88.2399 39.0707 88.0801 38.7202C87.8712 38.2551 87.6928 37.7798 87.4234 37.3367C87.4116 37.3159 87.4143 37.2693 87.4031 37.2663C86.9459 37.1244 87.1874 36.7671 87.0953 36.5163C86.8021 35.7244 86.4039 34.9704 86.0474 34.2034C85.7249 33.5111 85.4676 32.7935 85.099 32.1234C84.6487 31.3115 84.4296 30.4262 83.9153 29.6212C83.6233 29.1662 83.4463 28.5869 83.1992 28.074C83.04 27.7413 83.0156 27.3049 82.5905 27.0927C82.5534 27.0746 82.5145 27.0032 82.5206 26.9656C82.59 26.4725 82.2352 26.1837 81.8997 25.8818C81.8531 25.8384 81.7824 25.7793 81.7833 25.7332C81.7829 25.2047 81.3443 24.8165 81.1586 24.3432C80.9757 23.8831 80.7058 23.3524 80.1752 23.0365C79.9576 22.9088 79.8137 22.6598 79.6298 22.4713C79.5362 22.3725 79.4669 22.2472 79.2774 22.3394C79.1643 22.3934 79.0671 22.2796 79.1165 22.1368C79.1766 21.9633 79.1282 21.9043 78.9403 21.9742C78.811 22.0225 78.8449 21.9137 78.8192 21.8507C78.6625 21.4655 78.3894 21.1091 78.0043 20.998C77.6648 20.9006 77.5418 20.686 77.3291 20.4851C77.0396 20.2089 76.737 19.8764 76.2733 19.8679C76.2442 19.8656 76.1891 19.8264 76.1871 19.805C76.1548 19.4446 75.8012 19.315 75.5705 19.2008C75.0015 18.9171 74.5267 18.4647 73.9082 18.2699C73.6377 18.1841 73.4303 17.9599 73.1867 17.8112C72.3097 17.2721 71.3928 16.8255 70.4573 16.4157C70.232 16.3159 70.0379 16.17 69.7946 16.087C69.2227 15.8978 68.6752 15.6283 68.1093 15.4175C67.8847 15.3355 67.5914 15.4314 67.4091 15.2524C67.0418 14.8872 66.5528 14.8275 66.1248 14.618C65.9224 14.5202 65.7048 14.4623 65.4865 14.5103C65.4197 14.526 65.3635 14.527 65.304 14.4869C64.2388 13.7745 62.9976 13.5834 61.8356 13.162C61.4632 13.0255 61.0343 12.932 60.6187 12.9386C60.2797 12.9449 59.9289 12.9143 59.9241 13.3804C59.9236 13.4543 59.8187 13.5301 59.7269 13.5385C59.5436 13.26 60.2071 12.9881 59.654 12.736C59.3657 12.6031 59.0222 12.3552 58.7143 12.6864C58.7017 12.3406 58.4165 12.3665 58.1904 12.3507C57.4262 12.3004 56.6782 12.0941 55.9231 11.9495C55.7011 11.9068 55.4754 11.7951 55.2888 12.0083C55.183 12.1301 55.0218 12.0074 54.9409 11.9371C54.5549 11.6028 54.0959 11.7306 53.6893 11.6751C53.0337 11.5859 52.3686 11.7186 51.7062 11.5953C51.4736 11.5513 51.2906 11.5102 51.0929 11.6186C51.0062 11.6675 50.895 11.6671 50.8177 11.558C50.7741 11.4958 50.7018 11.4591 50.6496 11.4869C50.2028 11.7332 49.6195 11.2339 49.1926 11.6086C49.1477 11.6504 48.9806 11.6409 48.9383 11.5983C48.654 11.2928 48.5952 11.5558 48.5107 11.7398C48.2257 11.3248 48.0397 11.2705 47.6755 11.4948C47.5431 11.5779 47.4323 11.5894 47.2615 11.5649C46.8574 11.5106 46.4707 11.5834 46.1519 11.8157C46.07 11.8773 46.0066 11.956 45.9251 11.7981C45.8272 11.6127 45.6497 11.6239 45.5174 11.675C45.1131 11.8302 44.611 11.7302 44.2627 12.0182C44.175 12.0913 44.1061 12.0638 44.0302 11.9962C43.9301 11.907 43.8245 11.9271 43.7475 11.9855C43.4774 12.1968 43.214 12.1192 42.9452 11.9252C42.7932 11.816 42.6189 11.7985 42.4634 11.8198C42.2851 11.8452 42.2339 11.7412 42.1676 11.6291C42.118 11.6423 42.0702 11.655 42.0225 11.6676C41.8468 11.9477 41.9226 12.1011 42.2933 12.0824C42.2894 12.1313 42.2909 12.1728 42.2847 12.1725C41.8754 12.2014 41.5471 12.3005 41.6623 12.8065C41.4837 12.7881 41.4665 13.1996 41.1644 12.9168C40.9683 12.7335 40.6553 12.7388 40.4724 12.8652C39.8704 13.2844 39.1026 13.4344 38.5238 13.8834C38.0166 14.2754 37.3182 14.411 36.8743 14.848C36.575 15.143 36.1719 15.1722 35.8688 15.3923C35.5939 15.591 35.2224 15.6558 35.0483 16.0152C34.9687 16.1799 34.6097 16.0898 34.3853 16.1753C34.0474 16.3029 33.7562 16.5279 33.5276 16.7422C33.39 16.8705 33.3276 16.8551 33.1791 16.9006C32.8716 16.9962 32.4831 17.0535 32.3457 17.4191C32.2952 17.5482 32.2434 17.6577 32.0106 17.5919C31.7648 17.5235 31.689 17.7251 31.8128 18.0872C31.6448 17.6611 31.4833 17.7798 31.2482 17.9659C31.0961 18.0881 30.95 18.2745 30.6852 18.247C30.643 18.2423 30.5726 18.3129 30.5588 18.3624C30.4911 18.6178 30.4272 18.8242 30.049 18.6454C29.9083 18.5771 29.8172 18.7648 29.7674 18.8798C29.6414 19.1845 29.5432 19.5038 29.0596 19.2971C28.9637 19.2568 28.9066 19.3577 28.8319 19.3955C28.5307 19.5453 28.1981 19.6655 28.1367 20.0509C28.1344 20.0714 28.1783 20.1077 28.0972 20.0853C27.6232 19.9579 27.5419 20.0373 27.6534 20.4904C27.633 20.4898 27.6041 20.4935 27.5945 20.4841C27.2744 20.1103 27.0831 20.1172 26.7543 20.5756C26.6717 20.6893 26.6347 20.7629 26.4806 20.7181C26.3557 20.6814 26.2928 20.756 26.2363 20.8368C26.1466 20.9584 26.0379 21.0132 25.86 21.0126C25.5182 21.0116 25.3357 21.3054 25.0572 21.4352C24.778 21.5632 24.3978 21.6103 24.3503 22.0219C24.3413 22.116 24.1733 22.0829 24.0736 22.0595C23.789 21.9954 23.5658 22.0627 23.409 22.2798C23.2829 22.455 23.0231 22.3763 22.8738 22.5058C22.5353 22.7931 22.0653 22.8701 21.7013 23.1164C21.5739 23.202 21.3817 23.2012 21.4371 23.4618C21.4673 23.6014 21.2146 23.5847 21.0953 23.5845C20.7458 23.5895 20.4796 23.6821 20.3234 23.9869C20.2668 24.0997 20.1778 24.1533 20.0098 24.0662C19.726 23.9182 19.3588 24.1454 19.3663 24.2351C19.3963 24.7079 19.0358 24.5383 18.8081 24.5829C18.6123 24.6209 18.448 24.6944 18.3963 24.8957C18.3786 24.9722 18.3671 25.0331 18.2523 25.0017C17.8812 24.9008 17.6061 25.0557 17.3178 25.224C17.1144 25.3438 16.8316 25.3491 16.6275 25.4672C16.184 25.7225 15.7183 25.94 15.2364 26.1198C14.9735 26.2156 14.7302 26.3101 14.5496 26.5177C14.5169 26.5543 14.4221 26.5814 14.3774 26.5594C14.0354 26.4069 13.9898 26.6244 13.9512 26.882C13.7016 26.5992 13.4983 26.741 13.3091 26.8611C12.999 27.0571 12.7889 27.3962 12.3625 27.4276C12.3508 27.4287 12.3331 27.4354 12.3303 27.4441C12.1625 27.9495 11.5623 27.8356 11.2241 28.097C10.8811 28.3616 10.5105 28.5957 10.1771 28.8697C9.91642 29.0846 9.55569 29.1943 9.35134 29.4301C8.98065 29.8577 8.46186 30.0952 8.0651 30.5018C7.1104 31.4774 6.80835 32.7604 6.26959 33.9348C6.01975 34.4799 5.79584 35.0241 5.72277 35.6419C5.68993 35.9418 5.86704 36.2199 5.82086 36.4736C5.76442 36.7698 5.82315 37.0554 5.86263 37.3382C5.93021 37.8249 5.95935 38.3437 6.41766 38.7307C6.49081 38.791 6.41689 38.8685 6.41249 38.9375C6.38756 39.2693 6.57657 39.5522 6.71048 39.8498C6.81641 40.0889 7.03974 40.275 6.94488 40.6033C6.88909 40.7937 7.08239 41.0934 7.2175 41.3189C7.31592 41.4842 7.38802 41.6386 7.38297 41.8135C7.37943 42.0139 7.45288 42.1719 7.61538 42.3143C7.70453 42.3903 7.78959 42.4555 7.73549 42.6235C7.65216 42.875 7.85587 43.154 7.98328 43.3536C8.22695 43.7337 8.14069 44.1496 8.33856 44.5099C8.6444 45.061 8.58732 45.6945 8.96703 46.238C9.09771 46.4247 9.07276 46.7026 9.3246 46.8731C9.43279 46.9461 9.1632 46.9758 9.27122 47.1506C9.40204 47.3592 9.47171 47.604 9.58961 47.832C9.80036 48.2428 9.76228 48.7117 9.99018 49.1359C10.1657 49.4583 10.239 49.8258 10.4128 50.1487C10.6578 50.6023 10.7672 51.0659 10.8111 51.5489C11.5029 53.3919 12.1953 55.2366 12.8871 57.0795C13.1944 57.333 13.1876 57.7079 13.3233 58.0209C13.4603 58.3376 13.6114 58.6485 13.7599 58.9582C14.0204 59.5014 14.304 60.0364 14.5682 60.5787C14.6094 60.6615 14.6501 60.7324 14.7198 60.7997C14.9053 60.9818 15.2052 61.1136 15.0092 61.4469C14.9416 61.5626 15.1392 61.6857 15.1849 61.8072C15.4586 62.5204 15.966 63.1457 16.1867 63.879C16.2216 63.9934 16.3216 64.0985 16.3976 64.204C16.6405 64.5444 16.6728 64.9587 16.9226 65.3013C17.1744 65.6493 17.3864 66.0258 17.6504 66.3686C17.9041 66.7002 17.9374 67.1063 18.2005 67.4413C18.3395 67.6178 18.4296 67.7395 18.663 67.6995C18.5875 67.9449 18.567 68.1379 18.7189 68.4027C19.2388 69.298 19.7538 70.1964 20.1952 71.1304C20.5046 71.7823 20.8295 72.4381 21.1939 73.0754C21.4971 73.6032 21.7674 74.1618 22.0142 74.7226C22.2122 75.1747 22.4349 75.6282 22.7168 76.04C22.8892 76.2895 22.9569 76.5667 23.1188 76.8149C23.1944 76.9305 23.2401 77.052 23.3693 77.1274C23.4426 77.1718 23.4769 77.2365 23.4908 77.3165C23.5619 77.7804 23.7285 78.2348 24.0003 78.6254C24.4491 79.2722 24.5791 80.0436 25.0275 80.6625C25.434 81.2288 25.6699 81.8464 25.9973 82.4336C26.4164 83.184 26.7557 83.9696 27.1759 84.7178C27.384 85.0893 27.4541 85.5235 27.7962 85.8376C27.8613 85.8981 27.8873 85.989 27.8918 86.0815C27.9119 86.3774 28.0603 86.6272 28.2593 86.8616C28.3965 87.0226 28.5173 87.21 28.5328 87.4073C28.5557 87.7104 28.7098 87.9647 28.8734 88.2125C29.4437 89.0644 29.8177 89.9963 30.263 90.8974C30.3447 91.0612 30.4188 91.221 30.5527 91.357C30.6948 91.4988 30.8079 91.6064 30.7816 91.8647C30.7609 92.0677 31.0406 92.3286 31.1926 92.5615C31.2409 92.6364 31.3583 92.707 31.3562 92.7713C31.3491 93.1881 31.7148 93.49 31.7963 93.8952C31.8613 94.219 31.9962 94.6001 32.3071 94.8526C32.536 95.0372 32.409 95.3123 32.5807 95.5061C33.0264 96.0101 32.9808 96.6904 33.3719 97.2049C33.8311 97.815 33.9055 98.5513 34.3477 99.1858C34.6677 99.6454 34.8732 100.225 35.0304 100.784C35.1297 101.134 35.2824 101.477 35.5646 101.755C35.619 101.808 35.6797 101.884 35.6838 101.949C35.7279 102.438 36.1081 102.815 36.2567 103.271C36.5899 104.287 37.2034 105.196 37.7079 106.147C38.1086 106.902 38.4941 107.665 38.9421 108.396C39.1779 108.782 39.4353 109.167 39.6907 109.546C40.0086 110.016 40.3761 110.441 40.7319 110.883C41.1704 111.427 41.6043 111.948 42.1945 112.38C42.8234 112.839 43.4251 113.317 44.1258 113.672C44.7994 114.014 45.5372 114.177 46.212 114.516C46.3415 114.582 46.5274 114.598 46.6235 114.445C46.7195 114.292 46.8252 114.278 46.9501 114.438C47.095 114.625 47.2608 114.615 47.4675 114.59C48.3635 114.485 49.2294 114.279 50.0635 114.01C50.4442 113.889 50.8334 113.833 51.2149 113.736C51.3717 113.696 51.5257 113.666 51.634 113.529C51.7525 113.382 51.9092 113.32 52.1448 113.361C52.4805 113.422 52.7818 113.256 53.1083 113.227C53.2216 113.217 53.3352 113.213 53.4492 113.205C54.4667 112.934 55.4842 112.664 56.4999 112.394C56.5344 112.196 56.5805 112.066 56.8719 112.148C57.046 112.197 57.3734 112.284 57.3213 111.887C57.3035 111.748 57.431 111.862 57.4893 111.866C58.0854 111.9 58.6056 111.789 58.9089 111.274C58.9357 111.227 58.9475 111.21 59.0165 111.221C59.4856 111.298 59.8811 111.103 60.207 110.879C60.5563 110.637 61.009 110.579 61.3202 110.288C61.389 110.224 61.5324 110.224 61.6446 110.216C61.9164 110.198 62.0388 110.11 61.8171 109.793C62.2054 110.069 62.4075 109.768 62.6876 109.702C63.1772 109.586 63.6458 109.451 64.0428 109.174C64.4379 108.898 64.8592 108.702 65.3586 108.618C65.5564 108.585 65.7664 108.493 65.772 108.191C65.7748 108.004 65.9255 107.825 66.2368 107.981C66.3638 108.045 66.5598 107.997 66.7132 107.965C66.9611 107.915 67.1313 107.712 67.4112 107.693C67.6092 107.683 67.4886 107.485 67.488 107.306C67.8139 107.652 68.0763 107.453 68.3477 107.369C68.382 107.358 68.4366 107.331 68.4347 107.31C68.3915 106.797 68.8228 106.993 69.0784 106.969C69.2619 106.953 69.4308 106.94 69.562 106.821C69.817 106.586 70.2029 106.597 70.4858 106.452C70.9884 106.193 71.6518 106.168 71.977 105.641C72.2562 105.782 72.4203 105.541 72.6497 105.512C73.0607 105.461 73.4482 105.358 73.7321 105.065C73.809 104.985 73.9062 105.061 73.982 105.037C74.2672 104.941 74.5931 104.948 74.8193 104.701C75.0192 104.48 75.407 104.615 75.6544 104.445C75.6719 104.432 75.7028 104.434 75.7283 104.437C75.9949 104.464 75.9744 104.071 76.1893 104.121C76.4616 104.185 76.5548 104.024 76.7334 103.935C77.1183 103.739 77.5675 103.65 77.9679 103.474C78.4286 103.27 79.0197 103.408 79.419 103.056C79.515 102.973 79.6493 102.927 79.6259 102.752C79.5933 102.525 79.7686 102.519 79.8826 102.634C80.2314 102.982 80.5174 102.679 80.7695 102.608C81.3068 102.457 81.7932 102.176 82.3262 101.993C82.9215 101.787 83.4906 101.522 84.0763 101.291C84.3951 101.166 84.7258 101.063 85.0499 100.947C85.2237 100.882 85.4071 100.844 85.3085 100.565C85.2479 100.387 85.4203 100.352 85.5569 100.425C85.8176 100.565 86.019 100.548 86.264 100.415C86.6189 100.225 87.1068 100.255 87.3674 99.8943C87.927 100.013 88.2548 99.5788 88.6982 99.4311C89.1368 99.2867 89.6031 99.1729 90.0354 98.9902C90.3892 98.8404 90.6832 98.5529 91.1274 98.5686C91.2097 98.5726 91.3068 98.487 91.3631 98.4162C91.4935 98.2579 91.6682 98.1477 91.8689 98.1443C92.3111 98.1385 92.5807 97.8236 92.9596 97.703C93.4613 97.5438 93.9888 97.4157 94.3714 97.0468C95.0496 97.1639 95.4818 96.6582 96.0786 96.5476C96.3751 96.4927 96.7477 96.4416 96.9683 96.1736C97.0086 96.125 97.1002 96.1107 97.1732 96.0953C97.7902 95.9633 98.3574 95.715 98.9478 95.5283C99.6132 95.3156 100.223 95.02 100.849 94.7441C100.949 94.6995 101.058 94.6707 101.153 94.6193C101.433 94.4653 101.655 94.211 102.05 94.2736C102.144 94.2884 102.28 94.2085 102.339 94.129C102.632 93.726 103.154 93.6432 103.542 93.3746C103.818 93.1837 104.014 92.9362 104.233 92.7024C104.364 92.566 104.233 92.3953 104.265 92.2432C104.452 92.5207 104.642 92.4403 104.784 92.2708C104.922 92.1065 105.065 91.9228 105.111 91.7212C105.153 91.5165 105.339 91.575 105.44 91.4961C106.042 91.0331 106.46 90.4135 106.982 89.8838C107.321 89.5385 107.604 89.1462 107.896 88.7715C108.218 88.3589 108.438 87.8495 108.611 87.345C109.064 86.0137 109.047 84.5741 109.172 83.1704C109.26 82.1818 108.87 81.2241 108.449 80.3007C108.353 80.0888 108.308 79.8892 108.25 79.6811C107.987 78.7655 107.527 77.9003 107.267 76.982C107.191 76.7149 107.154 76.3879 106.978 76.1773C106.701 75.8439 106.641 75.4848 106.566 75.1178ZM52.0729 15.3916C52.1626 15.3239 52.3702 15.3765 52.5229 15.3958C53.9173 15.5701 55.3119 15.6804 56.6987 16.0442C57.2792 16.1972 57.8827 16.4059 58.4969 16.3526C58.6066 16.3434 58.7404 16.3557 58.8405 16.4069C59.4449 16.7152 60.1087 16.7024 60.7283 16.895C61.6022 17.1675 62.4744 17.4466 63.3436 17.7443C64.2622 18.0609 65.1408 18.4858 66.0515 18.8244C66.7857 19.0962 67.5159 19.395 68.2345 19.7328C69.0103 20.0992 69.7401 20.5637 70.5605 20.8445C70.9338 20.9727 71.2455 21.3188 71.6321 21.5094C72.6756 22.0241 73.6755 22.6163 74.6078 23.3242C75.0399 23.6523 75.5152 23.923 75.988 24.2303C75.867 24.2844 75.6292 24.162 75.5769 24.3834C75.5512 24.4979 75.4825 24.4224 75.4457 24.3783C75.1419 24.0102 74.6962 24.0388 74.3831 24.114C73.9536 24.2181 73.5711 24.0224 73.1714 24.0229C73.1232 24.0237 73.0654 23.9772 73.0225 23.9866C72.2404 24.1524 71.4061 23.985 70.6203 24.1139C70.4243 24.146 70.456 24.4348 70.2224 24.4689C70.1284 24.3423 70.3577 24.2914 70.2251 24.1909C70.1382 24.1262 70.0596 24.2129 69.98 24.2161C69.6789 24.2263 69.3684 24.201 69.1969 24.4919C69.187 24.5085 69.1362 24.524 69.1348 24.5204C68.8064 24.065 68.4833 24.5278 68.1437 24.4465C67.8284 24.3706 67.5626 24.6686 67.2017 24.5949C67.0598 24.5668 67.0402 24.7834 66.9485 24.8836C66.8448 24.8173 66.8291 24.63 66.6469 24.7043C66.159 24.9057 65.5315 24.8589 65.1451 25.1909C64.9088 25.3953 64.6465 25.3154 64.4346 25.4235C63.8268 25.7306 63.1828 25.9734 62.5738 26.2827C62.0383 26.5566 61.4904 26.8078 60.957 27.0871C60.7373 27.2013 60.7002 27.4146 60.5615 27.5672C60.2968 27.2924 60.1031 27.5672 60.0093 27.6619C59.6609 28.0198 59.1147 28.0711 58.7554 28.3839C58.4514 28.6501 58.3038 28.4021 58.2154 28.1882C58.0893 27.8846 57.9909 27.5577 57.9614 27.2424C57.8964 26.5635 57.6685 25.9079 57.523 25.2404C57.3041 24.2214 56.8857 23.2414 56.4786 22.2643C56.0774 21.2977 55.4797 20.4212 54.8492 19.5594C54.643 19.279 54.5193 18.9388 54.2853 18.6599C53.7512 18.0278 53.3579 17.3084 52.8631 16.6519C52.7317 16.4793 52.6293 16.2712 52.3754 16.2189C52.2702 16.197 52.2435 16.1043 52.2402 16.0094C52.2345 15.9352 52.2016 15.8581 52.2122 15.7895C52.2314 15.6308 51.876 15.5397 52.0729 15.3916ZM106.938 83.8676C107.039 84.1958 107.153 84.5325 107.224 84.8508C107.351 85.4113 107.144 85.9233 106.761 86.346C105.944 87.2513 105.086 88.1194 104.279 89.0378C104.031 89.319 103.666 89.5498 103.365 89.8151C102.979 90.1589 102.525 90.4433 102.073 90.665C101.763 90.815 101.405 90.9859 101.021 91.0659C100.483 91.1769 100.017 91.4623 99.5189 91.6744C99.293 91.7723 99.0287 91.7946 99.0294 92.1514C98.9485 91.9036 98.8085 91.875 98.6224 91.9444C98.104 92.1399 97.5938 92.3572 97.057 92.5037C96.7657 92.5831 96.5007 92.6036 96.5249 92.9801C96.5293 93.0348 96.4001 93.0512 96.3814 92.9744C96.271 92.5349 96.0657 92.779 95.9688 92.9084C95.8324 93.0883 95.716 93.1172 95.4668 93.0776C95.0859 93.0152 94.7667 93.2356 94.4428 93.3735C94.2376 93.4619 94.0445 93.5391 93.8113 93.5691C93.6053 93.5959 93.33 93.6052 93.3272 93.9151C93.3283 93.9986 93.269 94.0722 93.1818 94.0335C92.6715 93.804 92.3747 94.1541 92.0131 94.326C91.9699 94.3454 91.931 94.3817 91.8851 94.3939C90.8111 94.6751 89.8709 95.216 88.8559 95.6112C88.3816 95.795 87.8943 95.9604 87.4086 96.1193C87.2022 96.188 87.2177 96.4931 86.946 96.4795C86.4954 96.4575 86.1928 96.6576 86.0348 97.0546C85.8896 96.9096 86.0603 96.8104 85.9764 96.7051C85.404 96.7514 85.2265 96.8703 84.759 97.5191C84.4885 96.9706 84.1695 97.3744 83.9346 97.4428C83.2116 97.6528 82.4615 97.8659 81.8502 98.2497C81.5641 98.4294 81.0635 98.301 80.965 98.7381C80.6863 98.5767 80.5913 98.953 80.3418 98.8857C80.3168 98.8783 80.274 98.8717 80.2675 98.8814C80.0912 99.2135 79.7011 99.0299 79.4324 99.1371C79.2624 99.2062 79.0926 99.2812 78.9767 99.4297C78.8589 99.5787 78.4863 99.4363 78.5856 99.8946C78.3152 99.4917 78.1489 99.6834 77.9192 99.7225C77.4492 99.7995 77.0521 100.001 76.6208 100.143C76.3393 100.238 76.1733 100.404 76.0871 100.664C75.9233 100.394 75.6536 100.402 75.4566 100.69C75.3966 100.777 75.3746 100.891 75.3178 100.982C75.2576 101.08 75.2104 101.18 75.0237 101.07C74.8333 100.961 74.5915 101.205 74.38 100.986C74.3768 100.982 74.3504 100.987 74.3451 100.995C74.1482 101.374 73.6343 101.13 73.3364 101.428C73.0718 101.692 72.571 101.735 72.1776 101.882C72.0354 101.933 71.8384 101.936 71.8845 102.177C71.9074 102.302 71.7909 102.24 71.7243 102.245C71.2556 102.288 70.727 102.225 70.58 102.813C70.5604 102.89 70.469 103.05 70.33 102.927C70.0393 102.669 69.7686 102.809 69.5962 102.952C69.3494 103.155 69.0564 103.225 68.7718 103.339C68.4312 103.475 67.9536 103.44 67.85 103.907C67.8371 103.964 67.8 104 67.747 103.966C67.2569 103.661 67.5639 104.156 67.4363 104.236C67.2449 104.205 67.3744 104.001 67.2504 103.918C66.9918 103.961 67.0167 104.216 66.8932 104.414C66.8105 104.221 66.7238 104.092 66.5064 104.218C66.2696 104.356 66.0187 104.479 65.732 104.533C65.57 104.564 65.402 104.654 65.3494 104.794C65.2833 104.973 65.2598 105.115 64.9885 105.059C64.8118 105.025 64.902 105.238 64.8542 105.321C64.676 105.33 64.6949 104.966 64.5 105.119C64.3719 105.219 64.0203 105.165 64.1618 105.504C64.1948 105.581 64.0985 105.621 64.0431 105.592C63.5749 105.345 63.5021 105.759 63.2986 105.949C63.1808 106.06 63.1833 106.363 62.8685 106.089C62.7698 106.004 62.6684 106.18 62.686 106.313C62.6986 106.428 62.6629 106.483 62.5476 106.472C62.4799 106.464 62.3524 106.474 62.3759 106.37C62.4312 106.13 62.2772 106.23 62.1815 106.234C61.7428 106.249 61.4898 106.473 61.3872 106.916C61.2026 106.725 61.0888 106.616 60.9285 106.91C60.8456 107.065 60.4774 107.085 60.2408 107.176C59.4895 107.461 58.6934 107.665 58.1536 108.277C58.1315 108.299 58.1172 108.368 58.0905 108.33C57.7999 107.932 57.6324 108.32 57.4807 108.4C57.0291 108.633 56.5203 108.731 56.0444 108.905C55.8613 108.971 55.7767 109.042 55.8382 109.265C55.5486 109.021 54.8058 109.124 54.6412 109.385C54.4947 109.614 54.3501 109.826 54.0457 109.478C53.9544 109.374 53.8552 109.47 53.7679 109.501C53.4902 109.601 53.2113 109.681 52.9143 109.74C52.6253 109.799 52.3599 109.931 52.0431 109.954C51.8187 109.969 51.7427 110.165 51.6374 110.353C51.5041 110.589 51.4169 110.088 51.116 110.212C50.4052 110.508 49.6345 110.715 48.8756 110.889C48.1713 111.052 47.4767 111.332 46.6849 111.235C46.2313 111.178 45.9075 110.875 45.5104 110.721C44.881 110.475 44.4827 109.931 43.959 109.547C43.7497 109.393 43.55 109.227 43.3453 109.064C43.306 109.034 43.2467 109 43.2393 108.964C43.1171 108.38 42.5251 108.041 42.3192 107.503C41.8824 107.432 41.9851 106.974 41.7204 106.753C41.5969 106.65 41.3403 106.483 41.4073 106.172C41.4447 106.002 41.2494 105.681 41.0676 105.552C40.6717 105.272 40.6814 104.856 40.5025 104.509C40.1012 103.736 39.7387 102.942 39.2518 102.21C39.0235 101.866 38.9438 101.492 38.7592 101.14C38.3531 100.37 38.0322 99.5638 37.6803 98.7715C37.6394 98.6787 37.6297 98.5775 37.601 98.4794C37.5406 98.2701 37.4732 98.0905 37.1763 98.1713C36.9529 98.2327 36.8697 98.1131 36.972 97.9284C37.1353 97.6317 37.0276 97.377 36.8906 97.0604C36.5954 96.3708 36.1982 95.7163 35.9792 94.9985C35.8851 94.6884 35.6198 94.4337 35.4983 94.1208C35.4204 93.9241 35.34 93.726 35.2603 93.5298C35.0209 92.9351 34.729 92.3564 34.4602 91.7695C34.4195 91.6826 34.3172 91.6898 34.2825 91.6511C34.1448 91.4942 33.8588 91.3727 34.0442 91.108C34.0819 91.0521 34.0651 90.9967 34.0351 90.9329C33.7598 90.3557 33.5657 89.747 33.1899 89.2085C33.1397 89.1341 33.0893 89.0537 33.0605 88.9716C32.8478 88.3618 32.772 88.3321 32.2796 88.7421C32.3305 88.4633 32.3785 88.2631 32.5107 88.0664C32.7086 87.7705 32.1713 87.1192 31.7093 87.1043C31.8734 86.939 31.8509 86.7874 31.8091 86.5632C31.7103 86.0309 31.2225 85.6677 31.1415 85.1507C31.1393 85.1393 31.1373 85.1179 31.1304 85.1157C30.6803 84.9281 30.8671 84.4895 30.6703 84.1966C30.4398 83.8569 30.2798 83.4845 30.1265 83.1083C29.9761 82.7453 29.8078 82.3831 29.6074 82.0374C29.4003 81.6795 29.3381 81.2232 28.8683 81.0209C28.7905 80.9857 28.8756 80.9112 28.8696 80.8629C28.8098 80.44 28.8139 79.9881 28.3124 79.7283C28.2696 79.7058 28.1981 79.639 28.1993 79.6367C28.521 79.2241 27.7335 79.0523 27.8854 78.6768C27.894 78.6566 27.8527 78.5897 27.8277 78.5824C27.3946 78.4561 27.4972 78.0837 27.379 77.8119C27.2508 77.5188 27.221 77.1597 26.8052 77.0527C26.7378 77.0347 26.7281 76.9874 26.7387 76.9347C26.8326 76.4909 26.5632 76.1874 26.2686 75.8548C26.133 75.7033 26.1529 75.4227 26.0735 75.2004C25.9635 74.8965 25.7625 74.6407 25.6191 74.3557C25.5142 74.1462 25.4296 74.3083 25.2879 74.3718C25.3914 74.1149 25.4544 73.8848 25.2842 73.6627C25.1832 73.5279 25.1364 73.285 24.8651 73.407C24.8104 73.4334 24.688 73.4141 24.6808 73.3143C24.6612 73.0522 24.2725 72.8183 24.4946 72.5598C24.6169 72.4176 24.5732 72.3874 24.483 72.2438C24.2772 71.9214 24.1198 71.5722 23.9694 71.2252C23.818 70.8705 23.6589 70.5218 23.4285 70.204C23.1235 69.7843 23.0712 69.2736 22.7694 68.857C22.3429 68.2642 22.2471 67.5356 21.7664 66.9651C21.7031 66.8881 21.7029 66.7745 21.5477 66.8077C21.4692 66.8246 21.3938 66.7528 21.4488 66.6625C21.5903 66.4314 21.4266 66.2375 21.3141 66.04C20.8351 65.1997 20.3936 64.3356 19.8449 63.5358C19.668 63.2796 19.5889 62.9076 19.2278 62.7582C19.1507 62.7248 19.2042 62.6467 19.1911 62.5904C19.1722 62.4917 19.1567 62.3103 19.1319 62.3089C18.5763 62.233 18.9555 61.7314 18.6615 61.5023C18.3675 61.2732 18.4084 60.8494 18.2034 60.5348C17.9939 60.2134 17.8632 59.8492 17.7059 59.5C17.4374 58.9031 17.0933 58.3362 16.7761 57.7602C16.3954 57.0634 16.0157 56.3584 15.7004 55.6422C15.469 55.1172 15.2273 54.581 15.0347 54.0357C14.8383 53.4855 14.6761 52.9082 14.3981 52.3936C14.089 51.8174 13.8701 51.2452 13.7554 50.6274C13.7152 50.4127 13.6151 50.1999 13.4565 50.0086C13.3597 49.8907 13.123 49.766 13.3208 49.5719C13.3358 49.558 13.3163 49.4953 13.2955 49.4669C12.7539 48.7989 12.9636 47.9154 12.4236 47.2569C12.1565 46.9329 12.2605 46.5482 12.0584 46.2249C11.8432 45.8831 11.8444 45.8808 11.5638 46.1448C11.4811 45.9513 11.5092 45.8003 11.6165 45.6182C11.8003 45.306 11.5292 44.9711 11.4715 44.6453C11.4366 44.4392 11.3362 44.2364 11.2563 44.0343C11.1975 43.8883 11.2017 43.6359 10.9214 43.82C10.8483 43.8674 10.8371 43.7785 10.8272 43.7413C10.7869 43.5964 10.6952 43.4273 10.733 43.3075C10.8492 42.9336 10.7258 42.5834 10.5337 42.2653C10.2035 41.7247 10.1825 41.1199 9.9173 40.564C9.28746 39.2412 8.92673 37.8389 8.33342 36.5005C8.13837 36.0616 7.91904 35.6171 7.85902 35.1344C7.8314 34.9263 7.88754 34.7638 7.93415 34.5759C8.07907 33.9988 8.57028 33.6609 8.97006 33.3592C9.3151 33.1001 9.56919 32.6955 10.055 32.5744C10.4023 32.4882 10.6219 32.1745 10.8953 31.9723C11.3489 31.6364 11.9397 31.4775 12.3031 31.0359C12.3968 30.9252 12.5373 30.8959 12.6501 30.852C13.2707 30.6114 13.7554 30.1376 14.4009 29.9741C14.8614 29.8558 15.2805 29.6647 15.7189 29.5144C16.2313 29.3404 16.7002 29.0723 17.2237 28.9013C17.8249 28.7057 18.4264 28.5001 18.9937 28.2198C19.4165 28.0118 19.8542 27.8217 20.2665 27.5965C20.6503 27.3869 21.028 27.1769 21.4642 27.0531C21.7792 26.9614 22.0575 26.7559 22.3158 26.5776C22.6929 26.3178 23.1697 26.259 23.5338 25.9968C23.9191 25.7209 24.3675 25.538 24.8017 25.3389C25.309 25.1084 25.781 24.8215 26.2657 24.5632C26.5605 24.4071 26.8109 24.1969 27.1059 24.0468C27.3208 23.9359 27.4963 23.7576 27.776 23.7711C27.8125 23.7714 27.8554 23.762 27.8819 23.741C28.4535 23.2999 29.1889 23.1066 29.7736 22.706C30.1158 22.4715 30.5063 22.274 30.789 21.9297C30.9236 21.7663 31.3067 21.7323 31.5283 21.5478C31.7368 21.3768 32.0884 21.3771 32.1725 21.0416C32.1855 20.9903 32.4423 21.0557 32.5723 20.9714C33.0356 20.6668 33.4884 20.3451 34.0532 20.2031C34.077 20.1967 34.1113 20.1857 34.1168 20.1682C34.2431 19.6759 34.739 19.7596 35.0995 19.606C35.5792 19.3989 36.0081 19.0835 36.4192 18.7689C36.6738 18.5756 37.0156 18.5606 37.2589 18.3424C37.8909 17.7716 38.6757 17.3817 39.3978 16.9326C40.1429 16.4694 40.9076 15.9831 41.8228 15.7899C41.8847 15.7774 41.9911 15.7811 42.0018 15.7503C42.2129 15.0859 42.8463 15.6218 43.2407 15.4512C43.6899 15.2542 44.2053 15.223 44.7074 15.1615C45.4542 15.0689 46.2268 15.2168 46.9655 15.1024C47.1548 15.074 47.2841 15.1334 47.4185 15.2653C47.6981 15.5421 47.9731 15.8281 48.3689 15.9464C48.4239 15.9637 48.4783 16.0012 48.4449 16.0519C48.2661 16.3128 48.5367 16.4365 48.6793 16.5741C49.1353 17.0195 49.4377 17.5616 49.8169 18.0553C50.3082 18.6968 50.6073 19.4452 51.1135 20.0727C51.459 20.5036 51.6102 21.014 51.9482 21.4408C52.6771 22.3603 53.1941 23.3879 53.7803 24.3792C54.0159 24.7755 54.1752 25.1999 54.3619 25.5951C54.6767 26.2616 54.9202 26.9748 55.1119 27.6899C55.384 28.7108 55.6138 29.7428 56.0333 30.7365C56.1308 30.964 57.0365 31.5313 57.2877 31.5763C57.6936 31.646 58.0957 31.7487 58.4948 31.8541C58.8414 31.9436 59.395 31.7128 59.464 31.3853C59.502 31.2176 59.5549 31.3532 59.5953 31.3584C59.8907 31.3976 60.1033 31.2913 60.3533 31.1611C60.7236 30.969 60.9507 30.5516 61.4785 30.575C61.6858 30.5838 61.8864 30.4188 62.0859 30.326C62.5261 30.1213 62.947 29.8759 63.4079 29.7156C64.1942 29.4429 65.0054 29.2255 65.807 28.9827C65.9702 28.9334 66.175 28.9248 66.2578 28.7632C66.365 28.5592 66.464 28.8122 66.6031 28.7792C67.5631 28.5442 68.5713 28.4859 69.5653 28.3736C69.7376 28.3537 69.9264 28.3455 70.0457 28.2061C70.1063 28.1361 70.1673 28.1319 70.2428 28.1876C70.4655 28.3559 70.7269 28.3204 70.9084 28.2443C71.4004 28.0378 71.9309 28.2081 72.4386 28.167C73.1101 28.1104 73.821 28.2986 74.4676 28.2186C75.1043 28.1393 75.6944 28.3715 76.2963 28.4251C77.3282 28.5161 78.3969 28.8128 79.3833 29.2131C79.9129 29.4295 80.5172 29.7856 80.7619 30.4806C81.0135 31.1938 81.4282 31.8735 81.7422 32.5701C82.0193 33.1847 82.3724 33.7811 82.5416 34.4363C82.6072 34.6862 82.7406 34.934 82.8653 35.1642C83.1711 35.7312 83.3341 36.3482 83.6676 36.8979C83.8957 37.2742 83.9625 37.7212 84.3179 38.0438C84.4244 38.1392 84.4752 38.2853 84.4465 38.4564C84.4177 38.6217 84.4169 38.8293 84.6508 38.9467C84.6973 38.9683 84.7279 39.0499 84.7435 39.1076C84.926 39.7553 85.2142 40.367 85.5269 40.9741C85.9138 41.7251 86.1825 42.5215 86.6103 43.2576C86.6556 43.3353 86.7101 43.4106 86.7759 43.4729C87.1901 43.8716 87.4904 44.3164 87.5481 44.8736C87.5592 44.9784 87.6644 45.0382 87.7453 45.1085C87.9122 45.2517 88.0438 45.4301 88.0109 45.6384C87.974 45.8736 88.1175 46.0569 88.2441 46.2167C88.4676 46.4945 88.6826 46.7446 88.6814 47.1179C88.6806 47.3256 88.9548 47.4482 89.0319 47.6911C89.2511 48.3829 89.6881 49.0088 90.0125 49.6687C90.2153 50.0796 90.3714 50.5548 90.7229 50.9262C90.891 51.105 90.7905 51.397 90.9915 51.6149C91.2052 51.8454 91.2517 52.1682 91.4754 52.4199C91.6195 52.5831 91.6357 52.8361 91.7548 53.0459C92.2127 53.8458 92.6358 54.661 93.0656 55.4724C93.1211 55.5773 93.1655 55.6793 93.2783 55.7431C93.3849 55.8065 93.4842 55.8719 93.4056 56.0124C93.3451 56.1203 93.4371 56.2415 93.514 56.2689C93.8795 56.4032 93.8139 56.7179 93.9163 56.964C94.0747 57.3428 94.2629 57.7097 94.5361 58.0341C94.58 58.0863 94.6376 58.1268 94.6325 58.194C94.6085 58.5175 94.8388 58.7596 94.9955 59.0212C95.4218 59.7318 95.717 60.4912 96.0859 61.221C96.401 61.8454 96.6311 62.5284 97.1515 63.0644C97.1848 63.0994 97.2153 63.1591 97.2105 63.2003C97.146 63.744 97.6532 64.116 97.8178 64.6029C97.9953 65.1242 98.3198 65.6764 98.7089 66.1535C98.8141 66.2832 98.8766 66.4441 98.9448 66.5936C98.9802 66.6719 99.024 66.7401 99.1035 66.7529C99.2433 66.7756 99.1687 66.6198 99.2497 66.5664C99.1276 67.4466 99.7484 68.1534 100.036 68.9367C100.306 69.6769 100.806 70.326 101.19 71.0241C101.307 71.2343 101.441 71.468 101.795 71.4058C101.619 71.6242 101.623 71.8245 101.797 72.0338C102.03 72.3109 102.281 72.6033 102.446 72.8907C102.611 73.1741 102.678 73.5471 102.861 73.8416C103.347 74.626 103.599 75.4907 104.018 76.2991C104.289 76.8234 104.448 77.4117 104.66 77.9676C104.949 78.7148 105.07 79.5283 105.625 80.1869C105.751 80.3349 105.637 80.4391 105.673 80.5731C105.846 81.2013 106.235 81.7643 106.364 82.4161C106.422 82.7081 106.538 83.1141 106.851 83.3739C107.028 83.5224 106.888 83.7074 106.938 83.8676ZM91.6734 69.1809C91.6231 69.0307 91.5309 68.8497 91.3952 68.8219C91.0329 68.7446 90.9751 68.4667 90.9137 68.2277C90.756 67.6033 90.4086 67.0274 90.2677 66.4045C90.1313 65.8044 89.3911 65.4305 89.4862 64.753C89.4911 64.7178 89.4289 64.6704 89.3984 64.6267C88.8498 63.8109 88.2375 63.03 87.7356 62.1879C87.6522 62.0465 87.4788 61.9449 87.4092 61.8457C87.2468 61.6175 86.9673 61.3786 86.9138 61.2093C86.8065 60.8588 86.6717 60.5535 86.4364 60.2709C85.936 59.6697 85.5847 58.9651 84.974 58.4412C84.9116 58.3879 84.8768 58.3114 84.8872 58.2368C84.9082 58.0776 84.7622 58.0007 84.7021 57.889C84.6053 57.7013 84.324 57.7321 84.2985 57.5294C84.2704 57.3095 84.2998 57.0863 83.9394 57.17C83.8707 57.1862 83.8491 57.0962 83.8709 57.0306C83.9798 56.6805 83.6222 56.4703 83.5208 56.1841C83.4913 56.1001 83.4005 56.0305 83.2997 56.0632C83.0352 56.1495 83.0898 55.9614 83.0931 55.8409C83.0984 55.5861 83.0068 55.3691 82.7857 55.2104C82.6476 55.1114 82.5701 54.9804 82.4841 54.8536C82.0901 54.2721 81.7065 53.6858 81.3131 53.106C81.2511 53.0108 81.1707 52.8666 81.0479 52.9052C80.7491 53.0025 80.8331 52.7688 80.8096 52.6633C80.7274 52.2882 80.6133 51.9195 80.2904 51.6622C80.1386 51.5429 80.051 51.4385 79.9813 51.2636C79.8886 51.0328 79.83 50.7153 79.4056 50.7901C79.2858 50.8099 79.1113 50.587 79.183 50.4283C79.2531 50.2761 79.1782 50.2002 79.1149 50.0694C78.9081 49.6476 78.5126 49.3417 78.31 48.9367C78.1214 48.5579 77.7436 48.3531 77.5452 47.943C77.2322 47.2921 76.6171 46.7672 76.2059 46.1344C76.1085 45.9827 75.9834 45.6549 75.6418 45.7995C75.5688 45.8308 75.4786 45.7251 75.517 45.6551C75.6336 45.4386 75.469 45.3228 75.3432 45.1706C75.18 44.9726 75.006 44.7675 74.9129 44.5409C74.7909 44.2481 74.639 44.091 74.2627 44.1969C74.4067 43.9133 74.3087 43.69 74.1832 43.474C74.0438 43.2318 73.8697 43.0745 73.5701 43.202C73.5019 43.2301 73.4842 43.1291 73.4635 43.0687C73.4413 42.9988 73.4204 42.9106 73.365 42.8655C73.0939 42.6383 72.9425 42.3693 72.9284 42.0359C72.9252 41.9789 72.8867 41.8655 72.8471 41.884C72.5758 42.0219 72.6725 41.7847 72.6543 41.7038C72.5979 41.4674 72.401 41.3143 72.2582 41.1328C72.0991 40.9297 72.0933 41.2424 71.9723 41.2107C71.8688 41.1823 71.7909 41.1093 71.8119 41.0199C71.9245 40.5452 71.5299 40.3388 71.2349 40.0641C70.9221 39.7741 70.616 39.6958 70.2802 39.9366C70.2279 39.5336 69.9991 39.2792 69.6209 39.2241C69.3303 39.1816 69.3967 39.493 69.2711 39.6481C69.1012 39.1147 69.1059 39.0896 68.7904 39.0078C68.5416 38.9422 68.2884 38.8918 68.0443 38.801C67.9598 38.7696 67.8822 38.7782 67.8368 38.8401C67.724 38.9918 67.5834 39.0152 67.3831 38.9766C67.2524 38.9514 67.1114 39.0009 66.9857 39.0642C66.7477 39.1832 66.345 38.9391 66.2185 39.3178C66.1689 39.2771 66.1216 39.2318 66.0685 39.198C66.042 39.1811 66.0014 39.1859 65.9716 39.1819C65.9249 39.2781 65.9982 39.3982 65.8897 39.4749C65.7181 39.2652 65.5238 39.2749 65.2966 39.3532C64.9992 39.4541 64.6907 39.536 64.3783 39.597C64.2372 39.6246 64.113 39.6436 64.0345 39.7681C63.9731 39.8682 63.8836 39.9418 63.754 39.8386C63.634 39.7448 63.5406 39.8135 63.4302 39.8209C63.1935 39.8359 63.0822 39.9752 62.9328 40.1206C62.8527 40.1977 62.5433 39.9547 62.3239 40.0589C62.2393 40.0973 62.1131 40.073 62.0871 40.1975C62.081 40.2351 62.1102 40.329 62.0246 40.2839C61.6053 40.0602 61.3041 40.3716 60.9526 40.425C60.7061 40.4626 60.3917 40.5181 60.2353 40.7472C60.0801 40.9739 59.9626 41.043 59.6643 40.9746C59.587 40.9572 59.5447 41.0004 59.5041 41.0431C59.3646 41.1879 59.1631 41.2214 58.9782 41.2885C58.7219 41.3805 58.4565 41.443 58.2002 41.535C57.7225 41.7097 57.4546 42.1958 56.8967 42.2322C56.8751 42.234 56.8601 42.2639 56.8394 42.2734C56.3811 42.4569 55.9416 42.6634 55.5163 42.908C54.9359 43.2397 54.2976 43.487 53.6833 43.7658C53.4466 43.8725 53.2665 44.0221 53.2193 44.284C53.2008 44.3906 53.137 44.5113 53.0307 44.4218C52.7583 44.191 52.5377 44.3513 52.3754 44.4622C52.041 44.6907 51.6299 44.7739 51.2906 44.9837C50.8804 45.2362 50.3253 45.3338 50.2152 45.9176C50.1807 46.1003 50.0058 46.027 49.868 45.9559C49.6252 45.8309 49.4724 45.9134 49.3757 46.1186C49.3232 46.2263 49.2847 46.3442 49.2125 46.4372C49.1132 46.5653 48.9959 46.6942 48.8382 46.4409C48.6844 46.1925 48.5136 46.2917 48.3618 46.4038C48.2967 46.451 48.2386 46.5921 48.2061 46.5808C47.8206 46.4578 47.7491 46.7141 47.6823 46.9612C47.5625 46.9272 47.596 46.6989 47.413 46.8034C46.6731 47.2213 45.662 47.2664 45.2805 48.1816C45.146 48.0278 45.0497 47.8519 44.8484 47.9453C44.5869 48.0666 44.4828 48.4832 44.0499 48.277C43.8818 48.577 43.5191 48.5257 43.2462 48.638C43.0666 48.7137 42.9803 48.8982 42.7222 48.9208C42.3902 48.9511 41.9267 48.8947 41.8745 49.4013C41.8726 49.4177 41.6731 49.7579 41.4498 49.4482C41.3739 49.3427 41.2678 49.4367 41.1719 49.4502C41.0312 49.4736 40.9735 49.6106 40.8084 49.6066C40.4679 49.6033 40.2555 49.7694 40.2543 50.1427C39.9987 49.8276 39.7877 49.8198 39.5593 50.0939C39.5202 50.1402 39.4952 50.1867 39.4239 50.1957C39.1249 50.2332 38.8793 50.3323 38.7772 50.6307C38.7524 50.6992 38.6613 50.7792 38.5897 50.7823C38.4503 50.7874 38.5102 50.6618 38.4841 50.5869C38.4126 50.3805 38.2721 50.4796 38.1786 50.5264C37.9674 50.6364 37.7877 50.8517 37.5654 50.8728C36.8727 50.943 36.3542 51.348 35.7287 51.5381C35.4639 51.6184 35.6274 52.0377 35.3711 52.0061C35.1428 51.9789 34.9471 51.8933 34.7278 52.0193C34.5933 52.0969 34.4515 52.1765 34.2846 52.2268C33.7519 52.3842 33.241 52.5997 32.7317 52.8087C32.332 52.9707 31.9623 53.1966 31.5495 53.3182C31.1862 53.4266 31.0429 53.7659 30.6034 53.8487C29.8901 53.9823 29.4547 54.6465 28.8428 55.0124C28.7108 55.0914 28.763 55.2949 28.5925 55.3841C28.2935 55.5453 28.0348 55.7656 27.8443 56.0436C27.6085 56.3894 27.3558 56.7278 27.4111 57.1979C27.4213 57.2789 27.3196 57.3039 27.2813 57.358C26.9324 57.8596 26.5665 58.3537 26.7985 59.0581C26.8291 59.1557 26.9495 59.2075 26.9264 59.3233C26.8487 59.703 27.0223 60.0578 27.1735 60.4067C27.5092 61.1772 27.8522 61.9459 28.2313 62.7029C28.3235 62.8839 28.338 63.2132 28.6945 63.1943C28.9936 63.1787 29.0064 63.3149 28.9006 63.5066C28.7999 63.6849 28.7995 63.8346 28.9102 64.0486C29.1878 64.5892 29.4129 65.1458 29.7004 65.6858C30.0697 66.3737 30.1666 67.1698 30.7276 67.7928C30.7591 67.8283 30.7685 67.8856 30.7764 67.9334C30.8389 68.3098 31.0293 68.6342 31.2519 68.9581C31.518 69.3442 31.8307 69.7359 31.9627 70.1576C32.0696 70.4963 32.2683 70.7726 32.4477 71.0461C32.7008 71.4298 32.8249 71.9433 32.5677 72.3667C32.8238 72.2847 32.9852 72.2199 33.1159 72.4765C33.5259 73.2891 33.9305 74.1032 34.3953 74.8894C34.7714 75.5256 35.0267 76.2218 35.5214 76.8025C35.5574 76.8448 35.5588 76.9182 35.5627 76.977C35.5812 77.2095 35.6647 77.4426 35.8352 77.6008C36.1652 77.9042 36.3174 78.2667 36.4674 78.6557C36.7373 79.3639 37.2367 79.9734 37.5806 80.658C37.9568 81.4019 38.4112 82.1229 38.7676 82.884C39.0305 83.4445 39.4448 83.9509 39.6756 84.512C39.948 85.1677 40.3089 85.774 40.6504 86.3934C40.887 86.8193 41.2256 87.2101 41.4324 87.6319C41.7642 88.3058 42.1519 88.9568 42.4598 89.6371C42.6244 90.0003 43.0169 90.2551 43.0407 90.6736C43.0494 90.8149 43.1242 90.9227 43.1989 91.0465C43.4149 91.3961 43.5848 91.7679 43.7735 92.1307C43.9324 92.4355 44.032 92.7602 44.1867 93.0701C44.3899 93.477 44.6703 93.8633 44.771 94.3093C44.8535 94.6743 45.1172 94.9733 45.2415 95.3313C45.3034 95.5123 45.4286 95.7005 45.5041 95.9019C45.6424 96.2701 45.8028 96.6384 46.0033 96.9841C46.1104 97.1671 46.3927 97.2736 46.2105 97.5414C46.1717 97.5996 46.2532 97.7575 46.3231 97.7609C46.7038 97.7795 46.5534 98.0408 46.5826 98.2046C46.608 98.3475 46.64 98.4706 46.7743 98.5646C46.8502 98.6163 46.9546 98.6843 46.9391 98.7722C46.8578 99.2067 47.371 99.3955 47.4888 99.3543C47.8324 99.2311 47.9964 99.5067 48.2238 99.5959C48.4599 99.6868 48.7085 99.5849 48.9581 99.7979C49.0657 99.891 49.4773 99.9652 49.653 99.9006C50.0368 99.7607 50.4584 99.8024 50.8441 99.7538C51.4106 99.6811 51.9278 99.5039 52.4627 99.3738C52.8585 99.2767 53.2437 99.1245 53.6539 99.0874C54.9708 98.969 56.0407 98.268 57.283 97.978C57.3179 97.9687 57.3467 97.9431 57.3781 97.9248C57.7696 97.6872 58.1989 97.4854 58.6087 97.2968C59.1756 97.0365 59.6633 96.6517 60.2686 96.451C60.5991 96.3413 60.8577 95.9974 61.1863 95.974C61.8871 95.9255 62.3227 95.4826 62.8514 95.1906C63.0702 95.0687 63.3374 95.1673 63.5018 95.0079C63.8994 94.6251 64.4637 94.4712 64.9406 94.2189C65.4915 93.927 65.981 93.5038 66.6388 93.373C66.8192 93.337 66.9395 93.1894 67.1214 93.1251C67.6335 92.9452 68.083 92.6523 68.5973 92.4619C68.9992 92.3113 69.4474 92.1763 69.6896 91.7828C69.7059 91.7565 69.757 91.731 69.7874 91.7369C70.2602 91.8288 70.5833 91.5435 70.9219 91.3638C71.6463 90.9799 72.4073 90.6561 73.1311 90.2705C73.6383 90.0021 74.1855 89.765 74.742 89.5634C75.3003 89.3612 75.7356 88.9604 76.3179 88.7738C76.7475 88.6378 77.1236 88.3644 77.4988 88.1211C77.8426 87.8962 78.0691 87.5149 78.5511 87.4806C78.5942 87.4771 78.634 87.3948 78.6518 87.3402C78.6943 87.2112 78.7921 87.1812 78.9189 87.2014C79.0271 87.2206 79.1245 87.2166 79.2124 87.1654C80.1197 86.6232 81.0387 86.0959 81.9298 85.5321C82.6439 85.0831 83.3063 84.5661 84.0112 84.1037C84.3906 83.8553 84.7537 83.5634 85.1285 83.3083C85.6783 82.9328 86.1981 82.5096 86.8018 82.2076C86.9925 82.1131 86.9981 81.9021 87.1845 81.8068C87.5214 81.6335 87.8205 81.4025 88.141 81.2017C88.5631 80.938 88.8671 80.5481 89.2897 80.2803C89.8065 79.9515 90.3107 79.5942 90.5755 79.0192C90.5991 78.9691 90.6503 78.9116 90.7012 78.902C91.1993 78.7977 91.341 78.395 91.5138 78.016C91.5541 77.9295 91.5899 77.8043 91.6643 77.7766C92.1271 77.6158 92.1351 77.1529 92.3061 76.8122C92.6045 76.2243 92.5203 75.5266 92.5961 74.8781C92.66 74.3166 92.803 73.756 92.667 73.1678C92.5515 72.6718 92.3367 72.1963 92.3328 71.6747C92.3313 71.348 92.4606 70.9446 92.0409 70.6711C92.0194 70.6569 92.013 70.5967 92.023 70.5641C92.1669 70.0651 91.8246 69.6374 91.6734 69.1809ZM52.5957 48.1378C53.3687 47.6573 54.1918 47.2352 55.0478 46.8683C55.3175 46.7528 55.6404 46.6391 55.8766 46.4128C56.2277 46.0782 56.7863 46.0814 57.1876 45.8053C57.8954 45.3181 58.7457 45.0704 59.5264 44.7075C59.5829 44.6805 59.6415 44.6589 59.6877 44.6207C60.3834 44.0689 61.29 43.9499 62.128 43.6854C63.2072 43.343 64.3212 43.093 65.3998 42.7487C66.1484 42.51 66.8989 42.2389 67.6959 42.113C68.045 42.0582 68.3586 42.1405 68.6952 42.3323C69.4188 42.7426 69.8166 43.4149 70.3232 44.0004C71.324 45.1549 72.0472 46.4788 72.9874 47.6653C73.2266 47.9688 73.3095 48.3996 73.8146 48.5667C73.468 48.6927 73.2339 48.8386 73.0836 49.0999C72.9922 49.2599 72.7199 49.1427 72.5736 49.2693C72.0243 49.7483 71.2782 49.9723 70.7521 50.497C70.5891 50.66 70.3468 50.8161 70.0532 50.8841C69.4561 51.0208 69.0145 51.4532 68.4447 51.6624C68.269 51.727 68.1925 51.9428 68.1436 52.1353C68.1228 52.2146 68.114 52.3147 67.992 52.3072C67.8805 52.3009 67.8944 52.2194 67.8782 52.1439C67.8295 51.9335 67.7098 52.0451 67.6254 52.0894C66.7567 52.5515 65.9336 53.0813 65.0452 53.5127C64.7803 53.6409 64.615 53.8623 64.2647 53.9354C63.8293 54.0291 63.5147 54.4717 63.0807 54.6069C62.5776 54.7624 62.3677 55.263 61.8588 55.3762C61.7864 55.3934 61.7455 55.4941 61.687 55.5535C61.6296 55.6106 61.6007 55.738 61.4979 55.6955C61.1457 55.5536 60.8811 55.7795 60.7193 55.9242C60.3628 56.2443 59.8405 56.3111 59.5279 56.6834C59.4092 56.8246 59.1548 56.8304 58.9689 56.9216C58.619 57.0923 58.3458 57.3763 57.9565 57.4797C57.8327 57.5106 57.7924 57.6131 57.7439 57.7097C57.6091 57.9909 57.2335 58.0288 57.066 57.7441C56.9157 57.4888 56.7518 57.5204 56.4603 57.5938C56.7429 56.9263 56.1808 56.5749 55.936 56.1273C55.8409 55.9491 55.6632 55.8148 55.5791 55.6177C55.5173 55.4745 55.3994 55.3004 55.2848 55.5761C55.254 55.6502 55.1997 55.7045 55.1107 55.6503C55.0224 55.598 55.041 55.5132 55.0791 55.4532C55.3235 55.0712 54.926 54.8356 54.7733 54.5471C54.7535 54.5104 54.669 54.463 54.6429 54.474C53.9746 54.7492 54.2498 54.1156 54.2347 53.9999C54.1961 53.709 54.0004 53.5695 53.8663 53.3577C53.6507 53.02 53.1263 52.9359 53.1117 52.4451C53.1047 52.2056 52.949 51.9577 52.5892 52.0054C52.385 52.0317 52.4502 51.8827 52.4522 51.7804C52.456 51.5859 52.5554 51.388 52.204 51.2858C52.0386 51.238 52.0933 50.9263 51.9382 50.766C51.8215 50.6434 51.7993 50.4338 51.5412 50.5961C51.4142 50.6777 51.2813 50.5335 51.3364 50.3573C51.433 50.0444 51.3045 49.901 50.9706 49.9478C50.7271 49.9825 50.6511 49.7693 50.7058 49.689C50.9916 49.272 50.5801 49.3434 50.4097 49.2769C50.9652 48.6367 51.8917 48.5761 52.5957 48.1378ZM34.7242 68.5985C34.3217 67.8277 33.8979 67.0645 33.3976 66.3397C33.3586 66.2842 33.3269 66.2427 33.2453 66.2405C32.9001 66.2304 32.7585 65.9768 32.7895 65.7312C32.8377 65.3593 32.661 65.0552 32.4588 64.7857C32.1098 64.3239 31.9314 63.7948 31.6427 63.311C31.5477 63.1547 31.4709 63.0095 31.3346 62.8722C31.1354 62.6697 31.1753 62.3779 31.0875 62.1279C30.9362 61.7033 30.7672 61.2316 30.4713 60.9491C30.125 60.6182 30.1141 60.288 30.0029 59.9325C29.9467 59.7559 29.8043 59.5863 29.6854 59.4204C29.5082 59.1742 29.4763 58.8416 29.3648 58.5501C29.2111 58.1461 29.5264 58.0604 29.7621 57.892C31.0042 57.0096 32.4815 56.5275 33.8806 55.9126C34.4733 55.6515 35.1285 55.4974 35.6754 55.1627C36.0844 54.9124 36.5623 54.8135 36.9814 54.6064C37.7505 54.2286 38.5908 54.0135 39.3921 53.7109C40.0159 53.4734 40.6721 53.2951 41.2772 53.0347C41.9724 52.7344 42.7426 52.5857 43.387 52.1931C43.8123 51.9326 44.2846 51.7593 44.7903 51.6808C44.9932 51.6509 45.0258 51.4687 45.2031 51.4136C45.7477 51.2451 46.2887 51.0775 46.7597 50.7449C46.9563 50.6069 47.2601 50.5283 47.5456 50.4764C47.9256 50.4074 48.1614 50.5781 48.2987 50.8848C48.6216 51.6049 49.2003 52.1673 49.644 52.8114C49.9049 53.189 50.2847 53.5389 50.4915 53.9069C50.8536 54.5488 51.3567 55.1034 51.6802 55.7715C51.9363 56.2978 52.2494 56.863 52.7423 57.2667C52.9076 57.4003 53.0024 57.6205 53.041 57.718C53.2832 58.3578 53.888 58.8015 54.1043 59.4423C54.1297 59.5153 54.1441 59.5753 54.0856 59.5968C53.7447 59.7273 53.6202 60.1274 53.2593 60.2152C52.6209 60.3708 52.1725 60.8389 51.5965 61.0478C51.1347 61.2163 50.8317 61.5661 50.3719 61.7241C49.9158 61.8811 49.5232 62.2287 49.0918 62.4031C48.1516 62.7825 47.3936 63.4426 46.4077 63.7323C46.3489 63.7479 46.2976 63.7835 46.2456 63.8172C45.9773 63.9902 45.8633 64.4075 45.3942 64.2608C45.0305 64.6426 44.4608 64.7121 44.0287 65.0084C43.759 65.1937 43.4099 65.2645 43.3243 65.7361C43.2467 65.4594 43.1533 65.4204 43.0079 65.5228C42.6039 65.8077 42.0045 65.8412 41.7907 66.3747C41.7485 66.4777 41.631 66.2615 41.5024 66.3276C41.3238 66.4169 41.1761 66.5399 41.0295 66.6606C40.6823 66.9463 40.2146 67.0346 39.8383 67.3021C39.5175 67.529 39.0154 67.6603 38.5884 67.8196C38.1431 67.9837 37.7084 68.171 37.2809 68.3663C37.1653 68.4189 37.0594 68.3413 36.937 68.3918C36.7877 68.4514 36.6264 68.4683 36.5414 68.6185C36.4964 68.6923 36.4401 68.7631 36.3302 68.7285C35.8368 68.5763 36.0236 68.8857 36.0757 69.1052C35.97 69.1034 35.8735 69.0991 35.818 68.9782C35.7477 68.8233 35.6366 68.8608 35.5297 68.9151C35.1662 69.1034 34.9201 68.9753 34.7242 68.5985ZM41.8259 81.244C41.6719 80.9737 41.3914 80.743 41.3988 80.402C41.4011 80.3276 41.3305 80.2525 41.2526 80.2333C40.9915 80.1671 40.9106 80.0808 41.0293 79.8159C41.0844 79.6936 40.9303 79.4552 40.7134 79.3832C40.597 79.3423 40.4676 79.3148 40.4706 79.1724C40.4871 78.4898 40.021 77.9693 39.7038 77.3933C39.3313 76.7182 38.9946 76.0257 38.6324 75.346C38.4758 75.0524 38.2874 74.7713 38.1198 74.4807C37.785 73.8955 37.4476 73.3088 37.128 72.7155C37.0442 72.5622 36.9665 72.4253 36.8047 72.3386C36.6587 72.2617 36.5915 72.1419 36.6042 71.9929C36.6189 71.8274 36.7257 71.7352 36.8975 71.7195C37.477 71.6653 38.0115 71.4695 38.5715 71.3527C38.8635 71.2912 39.1769 71.2598 39.3523 70.9898C39.3769 70.9533 39.4312 70.931 39.4771 70.9188C40.4621 70.6751 41.3617 70.2467 42.214 69.773C42.7552 69.4717 43.293 69.1932 43.8909 69.0105C44.0689 68.9573 44.1381 68.7973 44.3037 68.7273C45.5867 68.1851 46.8313 67.5674 48.0794 66.9646C48.7959 66.6188 49.5509 66.3165 50.2335 65.9019C50.6365 65.6572 51.136 65.5405 51.5216 65.2765C51.9091 65.0121 52.3446 64.8326 52.7449 64.5966C53.1336 64.3677 53.5378 64.1586 53.9559 63.9758C54.2688 63.8408 54.5464 63.7192 54.4118 63.2962C54.3986 63.2558 54.4248 63.207 54.4318 63.1612C54.4539 63.1932 54.4737 63.2299 54.5018 63.2563C54.7244 63.4725 54.9435 63.5021 55.1807 63.3214C55.333 63.2052 55.5231 63.1307 55.6793 63.0194C56.1804 62.6649 56.5112 62.8144 56.7122 63.4413C56.7981 63.7077 57.0392 63.9249 57.1884 64.1825C57.6 64.897 58.0143 65.6188 58.4707 66.3074C58.9623 67.0466 59.3755 67.8245 59.8457 68.5714C60.1844 69.1078 60.4891 69.699 60.7726 70.282C60.9662 70.6794 61.0408 71.1742 61.4991 71.4535C61.544 71.4815 61.5959 71.5714 61.5856 71.614C61.4891 71.9648 61.844 72.1677 61.9546 72.4516C62.0406 72.6701 61.9696 72.9921 61.7192 73.0407C61.3398 73.1115 61.0376 73.2855 60.8402 73.5992C60.7987 73.6661 60.7563 73.7253 60.6746 73.723C60.191 73.7098 59.9497 74.127 59.5314 74.2341C59.3992 74.2692 59.4954 74.461 59.4449 74.5901C59.2772 74.3694 59.0848 74.4325 58.9712 74.5604C58.6524 74.9163 58.1387 74.9091 57.7521 75.1275C57.474 75.2851 57.1362 75.3808 56.9974 75.7049C56.9601 75.7886 56.8811 75.8096 56.7857 75.819C56.2183 75.8839 55.7625 76.1386 55.3863 76.5138C55.2889 76.6095 55.1815 76.5063 55.0735 76.5629C54.5812 76.8173 54.0726 77.0442 53.5824 77.304C53.0526 77.5823 52.4351 77.7344 51.9421 78.0568C51.3887 78.4172 50.6996 78.5024 50.1553 78.8764C49.9127 79.0426 49.8751 79.0984 50.2453 79.2614C49.896 79.3263 49.7779 79.5551 49.5889 79.7349C49.6567 79.5713 49.6169 79.4223 49.4926 79.3117C49.3256 79.1626 49.2956 79.4219 49.1913 79.4077C48.8076 79.354 48.4986 79.5637 48.2542 79.7144C47.7921 80.0007 47.1944 79.9958 46.7748 80.3307C46.6727 80.4137 46.5592 80.4558 46.3933 80.428C46.1758 80.392 45.9393 80.5047 45.9221 80.6848C45.8931 80.9897 45.6335 80.949 45.4675 81.0449C45.3978 81.0853 45.2857 81.0772 45.2783 80.9874C45.265 80.8174 45.2276 80.7017 45.0423 80.8107C44.9545 80.862 44.5943 80.7741 44.8594 81.0767C44.8671 81.0866 44.8563 81.1115 44.855 81.1298C44.4934 81.0542 44.3017 81.4582 43.9462 81.3611C43.734 81.3018 43.6523 81.3853 43.5563 81.5225C43.4226 81.7096 43.2813 81.8768 42.9642 81.7636C42.7896 81.7022 42.7328 81.8629 42.7286 82.0077C42.7262 82.1519 42.7368 82.2987 42.7425 82.4807C42.6345 82.3598 42.5647 82.2706 42.5606 82.152C42.5594 82.1164 42.5543 82.0599 42.5323 82.0498C42.0226 81.7842 42.1339 81.7846 41.8259 81.244ZM70.6181 87.6705C70.2505 87.6005 70.0323 87.848 69.7464 87.9418C69.5956 87.9919 69.7457 88.1335 69.7597 88.2355C69.7668 88.2975 69.7608 88.3729 69.694 88.3886C69.6187 88.4086 69.577 88.3459 69.5671 88.2767C69.5238 87.989 69.3346 88.1091 69.2341 88.1697C68.9357 88.3486 68.6923 88.5988 68.3059 88.6456C68.1712 88.6634 68.1662 88.8223 68.2191 88.9578C68.285 89.1279 68.1629 89.1902 68.0388 89.2092C67.8827 89.2347 67.9052 89.117 67.8861 89.0124C67.8512 88.8062 67.6705 88.9061 67.63 88.9487C67.4778 89.1028 67.3125 89.2006 67.0752 89.1818C67.0541 89.1795 67.0277 89.2004 67.0115 89.2167C66.8234 89.4203 66.5705 89.5213 66.3216 89.6493C65.9022 89.8664 65.4116 89.9368 65.0261 90.2067C64.6129 90.494 64.1326 90.6834 63.704 90.9568C63.4617 91.1129 63.1541 91.1866 62.9196 91.3746C62.8402 91.4375 62.713 91.4374 62.7838 91.6101C62.8502 91.776 62.6292 91.7309 62.5979 91.7173C62.0542 91.4688 61.9693 91.9421 61.7425 92.1719C61.6667 92.2499 61.6405 92.3845 61.5179 92.4829C61.3628 92.0912 61.1739 92.1693 60.9098 92.3372C60.4536 92.6339 59.9395 92.8462 59.4377 93.0752C59.0356 93.2578 58.6887 93.5334 58.2944 93.7259C58.0933 93.8252 57.9096 93.9598 57.6912 94.0237C57.4453 94.095 57.275 94.244 57.077 94.3784C56.908 94.4931 56.6394 94.5524 56.4043 94.6148C56.102 94.6971 55.7318 94.6957 55.6539 95.0854C55.6427 95.1363 55.6042 95.1844 55.5492 95.1671C54.9436 94.9848 54.4905 95.3545 53.9595 95.4357C53.8379 95.456 53.7218 95.5127 53.6444 95.6131C53.5107 95.7842 53.3929 95.9871 53.1278 95.7004C53.1034 95.673 52.999 95.6908 52.9466 95.7126C52.3484 95.9593 51.6305 95.9624 51.1236 96.3982C51.0732 96.4415 51.0326 96.5002 50.903 96.4349C50.6547 96.3113 50.4138 96.3853 50.2096 96.5353C50.0168 96.6782 49.8278 96.8581 49.54 96.6293C49.5146 96.6101 49.4671 96.6127 49.4313 96.6143C49.048 96.6423 48.911 96.4872 48.7884 96.0689C48.5609 95.2855 48.3629 94.4944 48.0134 93.7354C47.9011 93.49 47.7973 93.2403 47.766 92.9793C47.7402 92.7707 47.6642 92.6114 47.4362 92.5582C47.3702 92.5438 47.3469 92.584 47.3572 92.4715C47.3943 91.973 47.2523 91.498 46.9254 91.0682C46.8665 90.9921 46.843 90.9185 46.8312 90.8279C46.8106 90.6818 46.8006 90.483 46.7046 90.4047C46.2954 90.0786 46.3839 89.6042 46.1708 89.23C45.7899 88.5652 45.5037 87.8672 45.1559 87.1936C44.9691 86.8303 44.6589 86.9187 44.303 86.9015C44.9453 86.5733 44.5758 86.1648 44.376 85.767C44.2368 85.4928 44.1243 85.2095 43.935 84.9526C43.8203 84.7976 43.8373 84.6654 44.0068 84.5466C44.1855 84.4253 44.3013 84.2928 44.583 84.2739C45.1261 84.2354 45.6136 83.9523 46.184 83.9544C46.4917 83.9565 46.46 83.5759 46.7404 83.5214C46.8589 83.4979 47.0117 83.4154 47.0971 83.4546C47.5824 83.6768 47.9855 83.4161 48.3445 83.2909C49.0385 83.0467 49.7769 82.8885 50.4309 82.5593C50.9981 82.273 51.6191 82.0981 52.2049 81.8508C52.3273 81.8003 52.433 81.7104 52.5319 81.6243C52.6615 81.5121 52.8262 81.4883 52.9813 81.4332C53.3065 81.3149 53.7025 81.2775 53.9174 80.9731C53.9409 80.9389 53.9516 80.9241 53.9917 80.9235C54.76 80.9149 55.2684 80.3969 55.9166 80.1649C56.5268 79.945 56.9784 79.48 57.6211 79.3412C57.8277 79.2943 57.8656 79.0888 58.0598 79.0412C58.6682 78.8916 59.2078 78.5967 59.7463 78.32C60.4752 77.9429 61.2083 77.5607 61.8438 77.0529C62.0499 76.8864 62.3015 76.8196 62.5315 76.7326C62.8914 76.5991 63.0414 76.2402 63.4054 76.1176C63.5422 76.0732 63.6395 76.0793 63.7045 76.1718C63.9612 76.5384 64.145 76.9364 64.3294 77.3363C64.5177 77.7411 64.6285 78.2083 65.1535 78.434C65.1397 78.5533 64.7937 78.697 65.1792 78.8201C65.1845 79.5228 65.7554 80.0374 66.0112 80.6597C66.2597 81.2679 66.6666 81.8301 66.958 82.4289C67.2576 83.0495 67.8107 83.5489 67.9892 84.2236C68.0111 84.3035 68.0637 84.4112 68.1316 84.4471C68.5415 84.6673 68.653 85.0666 68.8707 85.4097C69.0615 85.7081 69.3145 85.984 69.583 86.2259C69.7144 86.3446 69.8073 86.4735 69.904 86.6074C70.0707 86.8364 70.2568 86.9984 70.5212 86.8205C70.625 86.9086 70.3175 87.0043 70.5931 87.0767C70.7391 87.1157 70.7505 87.3022 70.825 87.42C70.998 87.6872 70.7686 87.7003 70.6181 87.6705ZM64.8294 70.5272C64.404 69.9859 64.2482 69.361 63.9507 68.7837C63.9275 68.738 63.931 68.6773 63.8976 68.6422C63.3229 68.0149 63.1584 67.2109 62.7297 66.5208C62.4647 66.0945 62.1856 65.674 61.9132 65.2496C61.8642 65.1729 61.8323 65.1095 61.7055 65.1213C61.61 65.1307 61.5281 65.0846 61.6328 64.9491C61.7694 64.7751 61.5245 64.3056 61.2846 64.2636C61.2224 64.2542 61.1684 64.2825 61.152 64.2011C60.9572 63.2515 60.1925 62.5489 59.7785 61.6934C59.7473 61.6319 59.6684 61.583 59.6057 61.5398C59.3043 61.3287 59.2937 60.9884 59.6163 60.8469C59.8749 60.7343 60.1598 60.6646 60.2605 60.3786C60.3178 60.2137 60.4011 60.425 60.4982 60.3553C60.9865 60.0042 61.5961 59.8204 62.0408 59.4071C62.1204 59.3341 62.2001 59.3149 62.3068 59.3085C62.4061 59.3041 62.5442 59.2953 62.5885 59.2357C62.8432 58.8868 63.306 58.8337 63.6216 58.5983C64.1891 58.1783 64.7933 57.8403 65.4649 57.5901C65.5607 57.5547 65.6141 57.4388 65.6906 57.3627C65.7484 57.3014 65.7457 57.1545 65.9178 57.3063C66.0294 57.4043 66.0612 57.2523 66.09 57.1568C66.1392 56.9922 66.1993 56.8884 66.4517 56.9152C66.6899 56.9417 66.9342 56.8608 67.1061 56.6516C67.3407 56.3619 67.7401 56.2798 68.0473 56.0865C68.3176 55.919 68.7298 55.9032 68.8473 55.5329C68.8817 55.4201 69.0068 55.4627 69.1106 55.465C69.4519 55.4701 69.7734 55.1753 69.8238 54.8467C69.836 54.7717 69.8367 54.6658 69.9868 54.7376C70.4444 54.9612 70.7804 54.6725 71.0289 54.4629C71.2402 54.2831 71.4624 54.1004 71.6873 53.9409C72.1186 53.6369 72.3773 53.1533 72.9212 52.961C73.1775 52.869 73.3781 52.6501 73.5875 52.4708C73.8372 52.2589 74.171 52.1743 74.4202 51.9505C74.6179 51.7723 74.8965 51.6804 75.0952 51.478C75.4551 51.1131 75.7591 51.202 76.0299 51.6866C76.1879 51.9678 76.3873 52.23 76.6576 52.4335C76.8728 52.5977 77.0036 52.8063 77.074 53.053C77.0855 53.0998 77.0896 53.1645 77.1225 53.1877C77.909 53.7548 78.0929 54.6913 78.6952 55.3651C79.0359 55.7454 79.2062 56.2368 79.6355 56.5517C79.6558 56.5682 79.683 56.5869 79.6887 56.6073C79.9174 57.3405 80.5101 57.8593 80.9611 58.4636C81.4283 59.0896 81.8376 59.7548 82.2832 60.3985C82.4353 60.6154 82.6544 60.7686 82.2802 60.9877C82.0834 61.1038 82.0163 61.4308 81.7489 61.5417C81.6954 61.5659 81.6339 61.5742 81.5677 61.5918C81.5608 61.4819 81.7881 61.4415 81.65 61.3266C81.5444 61.239 81.4787 61.3761 81.4033 61.428C80.83 61.8216 80.189 62.1534 79.6996 62.6305C79.1981 63.1187 78.5169 63.3216 77.9662 63.7271C77.6042 63.9948 77.1059 64.1471 76.7154 64.4304C76.6232 64.4967 76.5456 64.5592 76.501 64.6608C76.4424 64.7901 76.4258 65.0578 76.2198 64.7136C76.1923 64.667 76.125 64.6869 76.0813 64.7105C76.0473 64.7275 76.0172 64.7494 75.9857 64.7678C75.465 65.0756 74.9626 65.4105 74.4259 65.7026C74.0658 65.9 73.6692 66.0811 73.3215 66.3171C72.9278 66.5812 72.4564 66.7403 72.0588 66.9995C71.4872 67.3707 70.8228 67.613 70.3786 68.1678C70.2005 68.3926 69.7891 68.4321 69.5014 68.5803C68.8641 68.9111 68.2266 69.236 67.6318 69.6313C67.328 69.8337 66.9412 69.9224 66.647 70.1502C66.3438 70.3863 66.0002 70.5633 65.643 70.72C65.4744 70.7927 65.439 70.9138 65.5301 71.0811C65.6087 71.2258 65.6666 71.364 65.43 71.4707C65.5346 70.9802 65.0562 70.814 64.8294 70.5272ZM89.2921 71.6345C89.1365 71.8334 89.3541 72.0309 89.4286 72.2186C89.6847 72.8687 89.9647 73.5124 90.2325 74.1614C90.3391 74.4183 90.2249 74.6521 90.1779 74.882C90.0321 75.5591 89.8287 76.1955 89.1337 76.5556C88.7672 76.7467 88.5012 77.0926 88.1512 77.3172C87.6877 77.6159 87.2014 77.8807 86.7837 78.2369C86.0013 78.9075 85.0372 79.347 84.2348 79.991C84.1487 80.0577 84.0774 80.1206 84.045 80.2389C83.9838 80.4686 83.9695 80.4305 83.718 80.3576C83.5171 80.3013 83.4018 80.5214 83.3089 80.6398C83.1865 80.798 83.1276 80.8994 82.8606 80.9145C82.4814 80.9374 82.2198 81.2682 81.8923 81.4449C81.6454 81.5783 81.3608 81.7077 81.3488 82.058C81.3481 82.126 81.2591 82.1417 81.1987 82.0939C81.1205 82.0309 81.0208 82.0234 80.9958 82.0859C80.87 82.3966 80.522 82.3733 80.2766 82.4944C80.0718 82.5946 79.9265 82.697 79.9804 82.9859C79.7573 82.7898 79.629 82.8678 79.4433 82.965C79.0694 83.158 78.7459 83.4314 78.3289 83.5581C78.2855 83.5717 78.2356 83.6109 78.2228 83.6521C78.0689 84.1299 77.5313 84.0752 77.1942 84.2963C76.827 84.5395 76.3397 84.635 76.1051 85.0484C76.0771 85.0977 76.0223 85.1721 75.9623 85.1361C75.65 84.9498 75.5011 85.1988 75.2881 85.2932C74.9851 85.4276 74.729 85.6332 74.3993 85.7288C74.192 85.7898 74.0601 85.9605 73.9855 86.1598C73.9537 86.242 74.0086 86.399 73.8615 86.3783C73.6758 86.3518 73.9173 86.1719 73.7376 86.102C73.4303 86.3112 73.2756 86.109 73.1298 85.8225C73.0456 85.6574 72.9076 85.5105 72.7922 85.3537C72.8909 85.2616 73.091 85.5257 73.1357 85.3003C73.1788 85.0815 72.9682 85.1015 72.8513 85.0647C72.4427 84.9338 72.1152 84.7715 72.2967 84.2864C72.3101 84.247 72.2612 84.1542 72.2156 84.1244C71.7836 83.8343 71.6568 83.3513 71.3463 82.9869C71.2555 82.8794 71.1805 82.642 70.9142 82.7666C70.8115 82.8158 70.5656 82.3545 70.6521 82.2298C70.7799 82.0482 70.6339 81.9015 70.571 81.7447C70.4913 81.5484 70.3572 81.7077 70.2192 81.6845C70.3144 81.4538 70.2211 81.2591 70.094 81.0495C69.8702 80.6741 69.5971 80.3178 69.4481 79.9045C69.4199 79.8242 69.3629 79.6938 69.236 79.7055C69.1264 79.7147 69.2754 79.8427 69.1467 79.9088C69.1107 79.6191 68.9126 79.3765 68.9832 79.0805C69.0145 78.9485 68.9667 78.7458 68.8577 78.7029C68.5474 78.5759 68.6032 78.3695 68.6025 78.1523C68.6004 77.8776 68.3664 77.6525 68.2222 77.4674C67.8477 76.9864 67.738 76.4251 67.48 75.9151C67.2576 75.4735 66.9614 75.0555 66.7963 74.5887C66.7704 74.5198 66.701 74.4425 66.7707 74.386C67.0532 74.1594 67.3036 73.8256 67.6413 73.7459C68.1272 73.6308 68.4801 73.3656 68.8494 73.1119C69.0805 72.9528 69.2569 72.7823 69.5767 72.7033C69.8664 72.6304 70.2307 72.4818 70.4415 72.2363C70.638 72.0066 70.9409 71.974 71.1532 71.8079C71.7281 71.354 72.3667 70.989 73.0007 70.6171C73.5069 70.3191 74.074 70.1027 74.5454 69.766C75.1195 69.3583 75.7555 69.0457 76.3389 68.6574C76.8275 68.3342 77.3767 68.0806 77.8249 67.7142C78.037 67.5422 78.2515 67.4573 78.4972 67.3801C78.6042 67.3477 78.6935 67.2841 78.7057 67.1552C78.7135 67.0793 78.7492 67.002 78.8336 66.9956C79.3821 66.9556 79.6715 66.6075 79.9894 66.2438C80.1832 66.0228 80.5157 65.8646 80.8255 65.8023C81.3158 65.704 81.6817 65.4951 81.8985 65.0825C82.0034 64.8831 82.2113 64.9097 82.3774 64.8895C82.5848 64.8663 82.7341 64.8067 82.8334 64.6407C82.9105 64.5125 83.0262 64.428 83.1866 64.4033C83.2474 64.3931 83.3445 64.3773 83.355 64.3407C83.5147 63.7976 84.2155 64.1041 84.4972 63.7301C84.5864 63.6127 84.7153 63.7839 84.7901 63.8917C85.0993 64.3442 85.3938 64.8165 85.7389 65.2355C86.6905 66.3931 87.44 67.6581 88.1296 68.9411C88.3655 69.3812 88.6505 69.866 88.7276 70.3781C88.7746 70.6808 89.0931 70.9213 89.0193 71.2521C89.0167 71.2668 89.1213 71.3248 89.1813 71.3447C89.3565 71.4079 89.421 71.4666 89.2921 71.6345ZM26.3767 50.7404C26.7341 50.6754 26.9135 50.7175 27.0752 51.0516C27.2841 51.4788 27.6105 51.7671 28.1301 51.8386C28.3213 51.8636 28.5511 51.8624 28.723 52.0083C28.9916 52.2342 29.1432 52.1161 29.3004 51.9108C29.5078 51.6403 29.3482 51.2957 29.4322 50.9921C29.4832 50.805 29.611 50.5537 29.5345 50.3984C29.3382 49.9938 29.6246 49.7721 29.8166 49.6433C30.2622 49.3454 30.8233 49.2044 31.2462 48.8567C31.3171 48.798 31.4336 48.8449 31.4274 48.9143C31.4033 49.2 31.7443 49.3388 31.7242 49.5975C31.8558 49.6144 31.8351 49.4464 31.9552 49.4863C31.9875 50.0083 32.5612 50.6758 33.0089 50.9538C33.4283 51.2155 33.9326 51.2192 34.317 51.5599C34.5414 51.7596 34.7896 51.6299 34.8664 51.3502C35.0122 50.8347 34.8743 50.2789 34.9922 49.7589C35.0739 49.3901 35.0789 48.9998 35.1287 48.6215C35.1926 48.1298 34.7608 47.8835 34.4704 47.5995C34.3297 47.4614 34.4299 47.0717 34.0053 47.1945C34.2894 46.9934 34.5973 46.8936 34.8114 46.6732C35.0244 46.455 35.2228 46.2248 35.5005 46.0713C35.7703 45.9239 36.0683 45.7869 35.9777 45.3841C35.9621 45.3104 36.0377 45.2803 36.1053 45.2883C36.6757 45.3603 36.7917 44.9484 36.8962 44.5756C37.143 43.6942 36.975 42.7195 37.2734 41.8464C37.2813 41.8244 37.2711 41.7971 37.2739 41.7724C37.371 41.1862 37.0387 40.6401 36.9343 40.0714C36.8859 39.797 36.7351 39.6914 36.4704 39.8415C36.4178 39.6261 36.6495 39.3771 36.2962 39.3452C36.1059 39.3279 36.0302 39.2662 35.9172 39.1267C35.8442 39.0344 35.7238 38.9287 35.5696 38.8839C34.8968 38.6896 34.2676 38.364 33.541 38.3116C33.1756 38.285 32.7684 38.2495 32.3807 38.1689C31.9176 38.0705 31.429 38.2002 30.929 38.1056C30.557 38.0349 30.1708 38.1035 29.7912 38.1146C29.5134 38.1225 29.1795 38.293 29.0844 37.8136C29.0657 37.7208 28.9811 37.7213 28.8957 37.736C28.5423 37.79 28.5413 37.5828 28.6464 37.3893C28.7173 37.2608 28.7054 37.1483 28.6498 37.0433C28.4722 36.7155 28.2806 36.3933 28.0812 36.0773C28.0413 36.0141 27.9595 35.8662 27.8783 35.9457C27.7171 36.1082 27.7229 35.9031 27.7318 35.8729C27.8974 35.3402 27.4192 34.9864 27.1822 34.6025C26.8666 34.0899 26.855 33.8976 27.3962 33.7359C27.8866 33.5897 28.3673 33.4281 28.8491 33.2642C28.9566 33.2277 28.9955 33.0678 29.157 33.2882C29.347 33.5469 29.6999 33.4432 29.8091 33.1529C29.9083 32.8952 29.8491 32.6137 29.9141 32.3511C30.0192 31.9262 29.7721 31.4832 29.9507 31.0228C30.0817 30.6829 29.833 30.1605 29.4349 30.1545C29.0412 30.1493 28.6403 30.0284 28.2526 30.1254C27.8986 30.2154 27.5682 30.3091 27.1652 30.3064C26.5566 30.3045 25.9692 30.5423 25.3787 30.6911C25.143 30.7517 24.9872 30.7133 24.8829 30.4677C24.6961 30.0346 24.4922 29.61 24.3054 29.1769C24.255 29.0587 24.2061 28.95 24.061 28.9885C23.7813 29.0667 23.7493 28.8738 23.731 28.7011C23.7076 28.472 23.5842 28.4608 23.4136 28.5121C23.0651 28.6167 22.9253 28.9331 22.8105 29.2029C22.7026 29.459 22.5976 29.6903 22.4046 29.8972C22.0073 30.3238 22.0409 31.0968 22.4615 31.5177C22.6004 31.6564 22.577 31.7124 22.4427 31.796C21.9118 32.1304 21.3338 32.3877 20.7729 32.6743C20.6187 32.7531 20.5425 32.6417 20.4442 32.5521C20.3542 32.4683 20.4288 32.3228 20.2894 32.2581C20.1717 32.2834 20.2441 32.5195 20.0423 32.4554C19.8199 32.3848 19.8246 32.1981 19.7093 32.0093C19.8702 32.0722 19.9839 32.2136 20.0761 32.0934C20.1658 31.9718 20.0582 31.8627 19.9519 31.7733C19.9316 31.7567 19.9124 31.7379 19.8932 31.719C19.6851 31.509 19.3544 31.4353 19.2777 31.0587C19.2442 30.894 18.9247 30.6777 18.6988 30.9691C18.6686 31.007 18.5529 31.0756 18.5599 30.9381C18.5697 30.6682 18.3074 30.5883 18.1672 30.5377C17.9526 30.4611 17.9626 30.7297 17.9071 30.8562C17.7983 31.1045 17.8991 31.357 18.0817 31.6496C17.8682 31.5168 17.6615 31.4181 17.5769 31.65C17.4809 31.9109 17.2328 32.1323 17.3705 32.4668C17.3995 32.5389 17.3734 32.6037 17.3128 32.6198C16.8387 32.7397 17.363 33.0712 17.23 33.298C17.1723 33.3971 17.476 33.4581 17.6403 33.4923C17.7037 33.5053 17.8525 33.412 17.8112 33.5925C17.7668 33.7918 17.9605 33.872 18.0338 34.0081C18.1654 34.2564 18.536 34.4472 18.331 34.7889C17.8303 35.618 17.3692 36.4666 16.9813 37.3595C16.6075 38.2148 16.163 39.0429 16.0734 40.0042C16.0451 40.3269 16.0207 40.6925 16.2323 41.0033C16.4314 41.2915 16.6108 41.581 16.7496 41.8972C16.8322 42.0847 16.9515 42.2465 17.1957 42.1278C17.2497 42.0995 17.3482 42.0713 17.3203 42.1745C17.2593 42.3941 17.4668 42.371 17.5513 42.4024C18.187 42.6485 18.8334 42.8319 19.4993 42.9861C20.1881 43.1423 20.8051 42.9406 21.4657 43.0324C21.7699 43.0733 22.1054 42.8964 22.4093 43.0012C22.7634 43.1266 22.7896 43.5246 22.9509 43.8089C23.3927 44.5932 23.8338 45.3757 24.2805 46.1567C24.4673 46.4821 24.6692 46.7995 24.8809 47.1482C24.6187 47.1759 24.4266 47.2509 24.335 47.4587C24.2434 47.6666 24.2109 47.9943 23.8497 47.6295C23.8267 47.6057 23.7493 47.6202 23.702 47.6288C23.4222 47.6851 23.1344 47.7038 23.0685 48.0663C23.0138 48.3781 22.5471 48.5659 22.8394 48.9949C22.8407 48.9985 22.7852 49.0551 22.7635 49.0509C22.4995 48.9934 22.4916 49.193 22.427 49.3438C22.274 49.7056 22.1406 50.0821 21.9492 50.4221C21.7961 50.6922 21.9317 50.7898 22.1723 50.8336C22.4446 50.881 22.6997 50.9848 22.9641 51.0542C23.4479 51.1811 23.9323 51.3038 24.4272 51.1963C25.0802 51.0528 25.7135 50.8567 26.3767 50.7404ZM31.6077 42.2599C31.5463 42.1446 31.6566 42.0834 31.7742 42.09C32.5022 42.1301 33.2274 42.0711 33.9593 42.2239C34.0595 42.2431 34.1669 42.2764 34.2534 42.3293C34.6309 42.5601 34.6654 42.7704 34.332 42.9906C33.8698 43.2929 33.3641 43.5329 32.9188 43.8586C32.6506 44.0535 32.4177 44.0196 32.3025 43.6213C32.236 43.3956 32.0866 43.2558 31.8525 43.5254C31.6355 43.0764 31.8167 42.6552 31.6077 42.2599ZM27.7667 42.8371C27.9426 43.3111 28.1365 43.8061 28.4513 44.2412C28.6363 44.6049 28.8652 44.9511 29.0394 45.3237C29.2655 45.8022 28.8115 45.7712 28.6039 45.9121C28.3691 46.0722 28.2416 45.8886 28.1339 45.6878C27.763 45.0064 27.3836 44.3292 27.02 43.6458C26.911 43.4414 26.7306 43.2838 26.6499 43.0579C26.5721 42.8452 26.4506 42.9952 26.3627 43.0624C26.3025 43.1063 26.2449 43.1735 26.1642 43.1091C26.0707 43.0322 26.1702 42.9799 26.1966 42.921C26.2657 42.777 26.4299 42.6656 26.3369 42.4609C26.3276 42.4414 26.3654 42.3915 26.3916 42.3805C26.6541 42.2889 26.9455 42.2474 27.2169 42.287C27.4889 42.3285 27.6455 42.5143 27.7667 42.8371ZM22.7574 35.6799C22.9946 35.6768 23.0241 35.3518 23.2921 35.4362C23.3173 35.4335 23.3432 35.4326 23.3664 35.4244C23.5474 35.3684 23.6649 35.1058 23.8565 35.1965C24.0399 35.2815 23.9132 35.5465 24.0285 35.7353C24.2518 36.0989 24.3818 36.4992 24.6274 36.8629C24.8196 37.1489 24.8455 37.5191 25.0598 37.8212C25.2683 38.1129 25.252 38.1232 25.6454 38.2781C25.6736 38.2885 25.7043 38.3382 25.704 38.3642C25.6999 38.4232 25.6751 38.5295 25.6628 38.5288C25.2563 38.4791 24.9169 38.651 24.5542 38.7394C24.3379 38.7928 24.2146 38.674 24.0942 38.4985C23.5485 37.6959 23.1694 36.8152 22.6481 36.0022C22.5417 35.8369 22.5487 35.6835 22.7574 35.6799ZM20.5791 39.1368C20.7033 39.2794 20.5816 39.3695 20.4491 39.3987C19.9917 39.4983 19.5153 39.4452 19.0513 39.3391C18.7312 39.2665 18.6746 38.9704 18.9087 38.7546C18.9793 38.69 19.0504 38.6372 19.0538 38.5226C19.0649 38.1486 19.5009 38.1046 19.6485 37.8201C19.7047 37.7114 19.9285 37.8235 20.007 37.9463C20.1382 38.1508 20.3371 38.3254 20.373 38.5772C20.4822 38.7496 20.424 38.9606 20.5791 39.1368Z" fill="white"/>
</g>
</svg>
