<svg width="70" height="81" viewBox="0 0 70 81" fill="none" xmlns="http://www.w3.org/2000/svg">
<mask id="mask0_335_660" style="mask-type:luminance" maskUnits="userSpaceOnUse" x="0" y="0" width="70" height="81">
<path d="M0 0.556274H70.0004V80.4437H0V0.556274Z" fill="white"/>
</mask>
<g mask="url(#mask0_335_660)">
<path d="M27.7092 10.7002C27.7285 10.8522 27.6682 11.0126 27.6658 11.1693C27.6585 11.6071 27.96 11.905 28.2085 12.2005C28.4002 12.4296 28.6921 12.5768 28.9454 12.7504C29.2131 12.9338 29.4905 13.1002 29.7582 13.2823C29.9825 13.4343 30.1815 13.6381 30.424 13.7514C31.1512 14.0928 31.841 14.5269 32.6443 14.6934C32.8022 14.7271 32.9639 14.7573 33.1134 14.8152C33.4945 14.9647 33.8611 15.1541 34.2495 15.2783C34.6173 15.3953 35.0057 15.4447 35.3844 15.5303C35.5267 15.5629 35.6629 15.628 35.8065 15.6497C36.0718 15.6883 36.3492 15.8511 36.5325 15.6594C36.6808 15.7486 36.8774 15.903 36.904 15.8777C37.0619 15.7281 37.1488 15.897 37.2658 15.9151C37.3948 15.9356 37.5299 15.9223 37.6613 15.9247C37.6939 15.9247 37.7265 15.9271 37.7566 15.9344C38.1365 16.0188 38.5152 16.1056 38.8939 16.1912C38.8927 16.1611 38.8915 16.1322 38.8891 16.102C38.947 16.0345 39.0037 15.9657 39.0615 15.8982C39.0567 16.1527 39.0869 16.1695 39.3136 16.1997C39.7369 16.2552 40.1759 16.1213 40.5872 16.3131C40.7717 16.3999 40.9731 16.3685 41.154 16.3408C41.4495 16.2962 41.7836 16.4517 42.0404 16.1864C42.0416 16.1852 42.0646 16.213 42.0802 16.2166C42.243 16.254 42.4083 16.2889 42.5723 16.3251C42.5554 16.2962 42.5385 16.2672 42.5216 16.2383C42.6422 16.0996 42.7411 15.8825 42.8907 15.8391C43.1415 15.7655 43.4262 15.8029 43.6963 15.7933C43.6794 15.7486 43.6625 15.704 43.6469 15.6594C43.6987 15.6196 43.788 15.5364 43.7976 15.5448C43.9737 15.6968 44.1425 15.6136 44.321 15.5545C44.5984 15.464 44.877 15.3699 45.1616 15.306C45.4137 15.2493 45.5126 14.9744 45.796 14.9346C45.9926 14.9068 46.1687 14.7114 46.3472 14.5824C46.5498 14.4365 46.7982 14.3171 46.9321 14.1217C47.2674 13.6357 47.5616 13.1207 47.8463 12.6045C48.0525 12.2306 48.2322 11.8411 48.3938 11.4479C48.5482 11.0741 48.6748 10.6881 48.793 10.301C48.8762 10.0236 48.9389 9.73778 48.9872 9.45195C49.0463 9.09497 49.0619 8.72954 49.1319 8.37497C49.1753 8.15306 49.1271 8.0011 48.9438 7.91185C49.0004 7.78281 49.1138 7.65135 49.0836 7.57175C48.9775 7.28351 49.1536 7.04833 49.1886 6.79145C49.2211 6.55024 49.1271 6.24271 48.9052 6.10642C48.8304 6.05939 48.7556 6.01356 48.6977 5.97859C48.7194 5.81577 48.7797 5.66381 48.746 5.53597C48.7146 5.41296 48.5856 5.31527 48.483 5.18622C48.4432 5.18019 48.2913 5.17175 48.2901 5.15366C48.2744 4.91728 48.0043 4.81115 47.9693 4.6821C47.8812 4.34924 47.593 4.27688 47.4 4.102C47.0804 3.81256 46.6607 3.62803 46.3665 3.31929C45.9371 2.86944 45.3823 2.64632 44.8758 2.33517C44.8433 2.31467 44.7902 2.32793 44.7468 2.32673C44.4115 2.31828 44.075 2.32914 43.7434 2.29416C43.4889 2.26763 43.2501 2.03487 42.9679 2.28934C42.8859 1.74663 42.4324 1.76713 42.0887 1.63929C42.0018 1.60673 41.8849 1.65256 41.8149 1.65979C41.6569 1.55366 41.5255 1.41859 41.3675 1.37034C41.1154 1.29316 40.803 1.34261 40.5944 1.21235C40.3243 1.04351 40.1241 1.0809 39.8889 1.21597C39.8804 1.2208 39.8611 1.20753 39.8467 1.2015C39.8587 1.15326 39.872 1.10502 39.8913 1.03024C39.6428 1.03024 39.4149 1.03024 39.1677 1.03024C39.1653 1.01457 39.1544 0.933762 39.1375 0.816777C39.0133 0.874666 38.9108 0.922908 38.8095 0.971149C38.8059 0.94341 38.8022 0.915671 38.7986 0.887933C38.7142 0.881902 38.6298 0.885521 38.5478 0.869842C38.2101 0.807129 37.8724 0.688937 37.5347 0.690144C37.3044 0.690144 37.1078 0.673259 36.9172 0.556274C36.8979 0.556274 36.8798 0.556274 36.8605 0.556274C36.6965 0.731149 36.5566 1.07125 36.3033 0.628636C36.2828 0.592455 36.1586 0.598486 36.0875 0.611752C35.8233 0.659993 35.5616 0.717882 35.2879 0.774566C35.2734 0.746827 35.2396 0.682907 35.2022 0.612958C35.1576 0.641903 35.1263 0.681701 35.0961 0.680496C34.9068 0.675671 34.7307 0.682908 34.6354 0.891551C34.6282 0.907229 34.5064 0.869842 34.4376 0.857782C34.4581 0.805923 34.4786 0.754063 34.5088 0.678083C34.1856 0.766124 33.7972 0.649139 33.626 1.09899C33.3353 0.886727 33.0495 0.722707 32.8505 1.10381C32.7251 1.06643 32.6141 0.990445 32.5442 1.01818C32.1606 1.16894 31.6818 1.09658 31.3996 1.49095C31.3791 1.51748 31.3381 1.54401 31.3068 1.54522C30.9076 1.56331 30.6591 1.86482 30.3552 2.05537C30.2057 2.14944 30.0875 2.30261 29.9705 2.44251C29.4012 3.11909 28.6873 3.67869 28.2796 4.48552C28.1711 4.70019 28.0625 4.93537 28.0445 5.16813C28.0071 5.63125 28.0336 6.10039 28.0336 6.57798C28.065 6.58522 28.1337 6.6009 28.2531 6.62864C28.1313 6.7022 28.0577 6.74683 27.9745 6.79627C28.1337 7.28833 27.7212 7.72492 27.8744 8.20853C27.5596 8.56673 27.7478 9.03587 27.6043 9.43507C27.5512 9.58341 27.5355 9.75828 27.5548 9.91507C27.5874 10.1792 27.6766 10.4361 27.7092 10.7002ZM33.1858 10.693C33.1749 10.7207 33.0772 10.7171 33.07 10.7412C33.0531 10.8015 33.0386 10.9028 33.07 10.9293C33.1737 11.015 33.1846 11.097 33.0724 11.191C33.0519 11.2079 33.0229 11.2308 33.0217 11.2526C33.0097 11.4913 33.0049 11.7301 32.9916 11.9677C32.9832 12.1173 32.9639 12.2656 32.9434 12.4911C32.8083 12.3814 32.7419 12.3175 32.666 12.268C32.5924 12.2198 32.4718 12.1318 32.4332 12.1559C32.0521 12.4043 32.1064 11.8495 31.864 11.858C31.876 11.8073 31.8881 11.7579 31.8929 11.7362C31.999 11.7567 32.0859 11.7736 32.1727 11.7892C32.1618 11.6952 32.1606 11.5987 32.1377 11.507C32.0907 11.3153 31.8024 11.1042 32.1968 10.9559C32.2209 10.9462 32.2426 10.8497 32.2318 10.8425C32.1667 10.7967 32.0907 10.7653 32.0123 10.7255C32.3958 10.5036 32.1727 10.0815 32.3355 9.76552C32.227 9.74622 32.1317 9.72813 32.0316 9.70884C32.0195 9.47487 32.0087 9.2421 31.9954 8.95627C32.1172 8.99004 32.2559 9.00934 32.3765 9.06361C32.6322 9.17939 32.8806 9.31326 33.1291 9.44351C33.1653 9.4616 33.2014 9.50019 33.2159 9.53758C33.3667 9.92592 33.3353 10.3131 33.1858 10.693ZM40.2326 11.2284C40.1373 11.3418 39.9926 11.4298 40.112 11.6288C40.153 11.6964 40.0903 11.8327 40.0638 11.9352C40.0384 12.0353 39.9986 12.1318 39.96 12.2427C40.0541 12.2487 40.1072 12.2524 40.1699 12.2572C40.1699 12.3693 40.1699 12.4755 40.1699 12.6045C39.8937 12.4875 39.8804 12.6238 39.9323 12.8421C40.024 13.2292 39.8322 13.5802 39.79 14.0385C39.6911 13.9082 39.638 13.8383 39.5825 13.7659C39.304 13.9179 38.6141 13.86 38.4609 13.6489C38.3464 13.7599 38.2306 13.8708 38.0847 14.0107C38.0774 13.6634 37.8724 13.4331 37.7506 13.5597C37.6746 13.6405 37.677 13.6381 37.5829 13.5983C37.3707 13.5078 37.144 13.4499 36.9196 13.3896C36.8629 13.3752 36.7954 13.4041 36.7327 13.4077C36.5289 13.4222 36.3323 13.468 36.1466 13.2907C36.0742 13.2232 35.8824 13.2799 35.7438 13.2799C35.7341 13.3438 35.7245 13.4005 35.716 13.4572C35.6979 13.4608 35.6798 13.4644 35.6617 13.468C35.6231 13.3354 35.5834 13.2015 35.5628 13.1315C35.353 13.0954 35.1721 13.0857 35.0093 13.029C34.8428 12.9699 34.6921 12.8626 34.5003 12.7589C34.9562 12.3971 34.9743 12.0341 34.4581 11.6771C34.51 11.6891 34.563 11.7072 34.6161 11.7084C34.6704 11.7096 34.7247 11.694 34.8006 11.6578C34.4774 11.5372 34.4979 11.3358 34.598 11.0934C34.6342 11.0077 34.6161 10.8992 34.6185 10.8003C34.6197 10.7738 34.5908 10.7303 34.6004 10.7219C34.8296 10.4976 34.5739 10.2298 34.6692 9.99225C35.0201 9.9621 35.3216 10.0526 35.6581 10.1973C36.1297 10.3987 36.6724 10.4361 37.1874 10.5326C37.5769 10.6061 37.9677 10.6737 38.3596 10.7231C38.7058 10.7665 39.0591 10.7617 39.4053 10.8124C39.7273 10.8594 40.0445 10.951 40.4316 11.0379C40.3436 11.1211 40.282 11.1693 40.2326 11.2284ZM43.2826 11.5287C43.1946 11.577 43.1162 11.7736 43.396 11.8532C43.3104 11.8942 43.2248 11.934 43.1391 11.9738C43.2175 12.1112 43.3056 12.2644 43.3936 12.4176C43.3671 12.4345 43.3405 12.4513 43.314 12.4682C43.2839 12.4236 43.2525 12.3778 43.185 12.2765C43.1488 12.4103 43.121 12.4948 43.1029 12.5816C43.0885 12.6515 43.0933 12.7251 43.0752 12.7927C43.0619 12.8409 42.9908 12.9084 43.0041 12.9241C43.2067 13.1979 42.9257 13.4282 42.9413 13.6863C42.9498 13.825 42.6688 14.0047 42.4855 14.0445C42.4396 14.0542 42.4167 14.1639 42.3805 14.2302C42.1104 13.9324 41.9029 13.9275 41.6557 14.1217C41.5942 14.1699 41.464 14.1313 41.3663 14.1313C41.3904 14.065 41.4145 13.9987 41.4398 13.9324C41.4857 13.8081 41.5411 13.6863 41.5761 13.5585C41.6075 13.4415 41.7293 13.3052 41.5375 13.2003C41.5315 13.1967 41.6099 13.0375 41.6654 12.9121C41.6039 12.9012 41.523 12.8867 41.4266 12.8698C41.4519 12.7155 41.2662 12.4694 41.517 12.3151C41.7631 11.9159 41.5423 11.4733 41.6183 11.0729C42.2069 11.0258 42.7653 10.9824 43.3743 10.933C43.5431 11.132 43.63 11.337 43.2826 11.5287ZM47.3916 9.8825C47.3036 10.0851 47.2167 10.2359 47.1709 10.3975C47.0382 10.869 46.92 11.3442 46.7994 11.8182C46.7801 11.8978 46.7898 11.9858 46.7693 12.0642C46.6583 12.4731 46.399 12.7336 45.9842 12.8349C45.9395 12.8457 45.8937 12.8626 45.8551 12.8879C45.7224 12.9736 44.8493 13.2883 44.6841 13.3016C44.6611 13.3028 44.637 13.2775 44.6057 13.2606C44.7311 13.0725 44.7697 12.9012 44.6238 12.6889C44.5261 12.5478 44.5104 12.3488 44.4525 12.1583C44.5562 12.1583 44.643 12.1583 44.6467 12.1583C44.7118 11.9894 44.7721 11.8676 44.801 11.7398C44.8203 11.6554 44.8119 11.5553 44.7829 11.4745C44.7709 11.4419 44.6527 11.4612 44.6105 11.425C44.5574 11.3792 44.5321 11.3008 44.4742 11.2007C44.8818 11.1754 44.7576 10.9474 44.7214 10.7219C45.3064 10.5157 45.8961 10.3082 46.4943 10.0984C46.4847 10.0779 46.5052 10.1225 46.5281 10.1732C46.9188 9.77155 47.2565 9.69436 47.3916 9.8825ZM30.6266 4.00311C30.8244 3.90301 31.0294 3.81859 31.238 3.74261C31.3297 3.70884 31.4382 3.7209 31.5335 3.69436C31.6493 3.6618 31.759 3.60874 31.8712 3.56532C32.3705 3.61356 32.8396 3.46884 33.3124 3.35065C33.4089 3.32653 33.5114 3.32653 33.6115 3.3205C34.2531 3.27708 34.8971 3.17939 35.5339 3.21678C35.8921 3.23849 36.2406 3.09738 36.6169 3.23728C36.8991 3.3422 37.2489 3.2614 37.5661 3.2819C37.8398 3.29879 38.1124 3.33738 38.3825 3.37718C38.7046 3.42421 39.0242 3.4809 39.345 3.53517C39.6923 3.59547 40.0384 3.69195 40.3882 3.71246C40.8633 3.7414 41.277 3.98381 41.751 4.03929C42.2443 4.09718 42.7279 4.28532 43.1994 4.45899C43.6638 4.63024 44.1172 4.83647 44.5598 5.05959C44.8071 5.18381 45.0181 5.37798 45.2521 5.53115C45.4378 5.65175 45.6537 5.73376 45.8201 5.87487C46.1301 6.13658 46.428 6.41758 46.7054 6.71426C46.9044 6.92773 47.0672 7.17497 47.2372 7.41256C47.3313 7.54522 47.2264 7.68391 47.0358 7.73457C46.867 7.77919 46.7078 7.85637 46.5027 7.93477C46.3508 7.82502 45.7924 7.98904 45.1279 8.39909C45.0217 8.16753 44.8264 8.14703 44.6057 8.34482C44.4187 8.51125 44.4187 8.51125 44.2981 8.27728C43.9532 8.36411 43.6047 8.45095 43.2392 8.5414C43.2658 8.4811 43.2814 8.44853 43.2959 8.41718C43.1464 8.43044 42.9968 8.43286 42.8521 8.4606C42.7279 8.48351 42.6097 8.53416 42.4698 8.57879C42.4686 8.57637 42.4457 8.51125 42.4131 8.41838C42.2816 8.45577 42.1478 8.49436 41.9958 8.53657C41.8294 8.33276 41.5689 8.34482 41.224 8.62582C41.1902 8.52813 41.1576 8.44009 41.1202 8.33396C41.0491 8.37858 40.9803 8.42321 40.9104 8.46663C40.8621 8.41959 40.8163 8.33879 40.7657 8.33517C40.4895 8.31225 40.2085 8.32673 39.9347 8.29296C39.632 8.25678 39.3365 8.17477 39.035 8.12411C38.8022 8.08552 38.5659 8.06502 38.3307 8.03728C38.0931 8.00954 37.8555 7.97939 37.6167 7.96009C37.5407 7.95406 37.4623 7.9818 37.384 7.99024C37.2778 8.00351 37.1259 8.12652 37.1198 7.88049C37.1186 7.85879 37.0258 7.83346 36.9727 7.82019C36.6073 7.72854 36.2418 7.62482 35.8716 7.55366C35.6955 7.51989 35.5062 7.54763 35.3385 7.51024C35.195 7.47165 35.0527 7.43185 34.9092 7.39567C34.6065 7.3209 34.2905 7.33296 34.0143 7.11828C33.8165 6.96391 33.5102 6.94944 33.3088 6.79748C33.0278 6.58401 32.6997 6.45497 32.432 6.20894C32.1534 5.95205 31.7928 5.78562 31.4732 5.57095C31.4334 5.54441 31.4334 5.46361 31.3972 5.42381C31.3731 5.39728 31.3188 5.39849 31.2501 5.37919C31.0366 5.14039 30.7797 4.86904 30.5434 4.5808C30.4613 4.47949 30.395 4.33597 30.395 4.21175C30.395 4.1406 30.5325 4.05014 30.6266 4.00311ZM29.5231 7.89859C29.4857 7.61034 29.5846 7.37034 29.6316 7.05075C30.1731 7.48371 30.6929 7.901 31.2043 8.31105C31.0824 8.42321 30.922 8.51125 30.8581 8.64512C30.7641 8.84653 30.8002 9.09738 30.6374 9.28431C30.6012 9.32652 30.5976 9.40974 30.6049 9.47004C30.6157 9.56652 30.6254 9.67748 30.6784 9.75105C30.7423 9.83909 30.8533 9.89456 30.9462 9.96572C30.8268 10.0731 30.6712 10.1502 30.635 10.266C30.6109 10.3396 30.7616 10.4698 30.8388 10.5796C30.7194 10.6122 30.5928 10.6242 30.5892 10.652C30.5699 10.8063 30.5795 10.9643 30.5795 11.1621C30.4047 11.0463 30.1948 10.9137 29.9898 10.7726C29.8463 10.6737 29.7305 10.5253 29.5243 10.5446C29.5134 10.5446 29.4772 10.3951 29.4748 10.3143C29.4736 10.2564 29.5255 10.1961 29.5243 10.1382C29.5098 9.75225 29.4712 9.36632 29.4724 8.9816C29.4748 8.61979 29.5701 8.25075 29.5231 7.89859ZM69.6573 54.9253C69.9805 54.6913 70.0746 54.3006 69.9359 54.0353C69.7864 53.7506 69.9612 53.5215 69.8828 53.2779C69.8382 53.1416 69.8237 52.9957 69.7948 52.8534C69.7755 52.8558 69.755 52.857 69.7357 52.8594C69.7357 52.7026 69.7357 52.5446 69.7357 52.3721C69.7019 52.3601 69.6332 52.336 69.6308 52.336C69.6633 52.1539 69.6875 52.0152 69.7116 51.8849C69.597 51.9307 69.5259 51.9597 69.4547 51.9874C69.4511 51.9151 69.4414 51.8439 69.4438 51.7715C69.4463 51.6811 69.4583 51.5894 69.4607 51.5617C69.3039 51.4447 69.0796 51.3145 69.0929 51.2795C69.2268 50.9418 68.9035 50.8972 68.8264 50.7814C68.6853 50.7705 68.5538 50.7959 68.5249 50.7524C68.3512 50.4944 68.3596 50.4956 68.0545 50.5486C67.9665 50.5643 67.8615 50.5535 67.7795 50.5209C67.706 50.4919 67.6529 50.4148 67.5914 50.3581C67.5914 50.4497 67.5926 50.5402 67.589 50.6318C67.589 50.6403 67.56 50.6475 67.5238 50.6656C67.4816 50.5969 67.4394 50.5269 67.39 50.4437C67.3176 50.5125 67.2633 50.5643 67.1765 50.6463C67.1765 50.533 67.1765 50.4666 67.1765 50.4196C67.0885 50.4256 66.992 50.463 66.9474 50.4316C66.7146 50.2616 66.7532 50.4714 66.723 50.5836C66.5699 50.6427 66.4674 50.4136 66.3033 50.5185C66.2346 50.5619 66.1405 50.5607 66.0658 50.5945C65.9982 50.6246 65.9464 50.6922 65.8788 50.7127C65.757 50.7512 65.628 50.7669 65.5098 50.7898C65.3313 50.5824 65.4447 50.4087 65.5858 50.2688C65.8607 49.9999 66.1719 49.7671 66.4348 49.4873C66.7568 49.1472 67.0752 48.7963 67.3393 48.4103C67.712 47.8652 68.069 47.302 68.3657 46.7122C68.6467 46.1551 68.8469 45.5569 69.0652 44.9707C69.1074 44.8598 69.0471 44.7139 69.0724 44.592C69.1025 44.4437 69.1737 44.3038 69.2268 44.1591C69.2038 44.1651 69.1797 44.1699 69.1568 44.1748C69.1243 44.1157 69.0652 44.0554 69.0664 43.9963C69.0688 43.8684 69.117 43.7406 69.117 43.6128C69.117 43.3981 69.0989 43.1834 69.0784 42.9687C69.0543 42.7287 69.0832 42.4538 68.9747 42.2584C68.8589 42.0509 68.7781 41.8905 68.8686 41.6614C68.883 41.6228 68.7962 41.5106 68.7359 41.4877C68.6828 41.4672 68.5827 41.5058 68.5369 41.5516C68.5007 41.5866 68.5152 41.6735 68.5068 41.7374C68.4658 41.6976 68.4235 41.659 68.3813 41.6204C68.4501 41.4154 68.5176 41.2103 68.5912 40.9896C68.397 40.9547 68.2487 40.8811 68.3536 40.6363C68.362 40.6158 68.2704 40.5169 68.2209 40.5133C68.04 40.4976 67.8567 40.506 67.6565 40.506C67.6131 40.3673 67.6131 40.3673 66.951 40.1876C66.9341 40.1273 66.9184 40.0682 66.9027 40.0115C66.6724 40.0115 66.4565 39.9971 66.243 40.0164C66.0959 40.0284 65.9524 40.0899 65.8053 40.1201C65.7136 40.1382 65.6099 40.1189 65.5255 40.1527C65.2071 40.2769 64.8899 40.4095 64.5775 40.5531C64.0312 40.8039 63.4849 41.0584 62.9446 41.3225C62.6563 41.4624 62.3789 41.6252 62.0967 41.7772C62.081 41.7591 62.0654 41.7398 62.0485 41.7217C62.0919 41.6325 62.1232 41.5348 62.1787 41.4552C62.3584 41.1947 62.5803 40.9595 62.7239 40.6821C63.082 39.991 63.4077 39.2819 63.7429 38.5788C63.7936 38.4714 63.8491 38.3593 63.8635 38.2435C63.8985 37.9818 63.8539 37.6984 63.9407 37.4584C64.071 37.0966 64.0625 36.8023 63.7864 36.5225C63.7502 36.4863 63.7502 36.3874 63.7671 36.3271C63.9661 35.6107 63.6428 35.0198 63.2412 34.5012C62.9795 34.1659 62.5755 33.9344 62.2161 33.6823C61.9628 33.505 61.6855 33.3313 61.349 33.5267C61.3188 33.5448 61.2175 33.511 61.2043 33.4785C61.0921 33.1914 60.9003 33.2276 60.6784 33.3253C60.594 33.3615 60.4951 33.3615 60.4107 33.3965C59.8993 33.6087 59.3892 33.8258 58.8706 34.0453C58.7886 33.8451 58.627 33.9754 58.4871 34.0501C58.3062 34.1478 58.1409 34.2733 57.9588 34.3685C57.8635 34.418 57.7478 34.4252 57.6199 34.4578C57.4414 34.2817 57.2907 34.4481 57.1315 34.5639C57.0362 34.6327 56.9421 34.7038 56.842 34.7653C56.7685 34.8111 56.6865 34.8437 56.5864 34.8944C56.5622 34.863 56.5188 34.8075 56.4766 34.7533C56.0967 35.0077 55.5299 34.904 55.3068 35.495C55.2561 35.3478 55.2356 35.2851 55.197 35.1705C55.0354 35.4588 54.828 35.6264 54.506 35.5155C54.4987 35.5131 54.4867 35.5179 54.4782 35.5215C54.2563 35.6144 54.0344 35.7096 53.8113 35.8013C53.6063 35.8845 53.3952 35.9569 53.1914 36.0449C53.0744 36.0956 52.9297 36.1426 52.8633 36.2367C52.7331 36.4212 52.5655 36.4646 52.3628 36.4839C52.1446 36.5044 51.9636 36.584 51.9697 36.7661C51.7212 36.8674 51.4861 36.9241 51.2979 37.0495C51.0965 37.1858 50.9397 37.3872 50.7239 37.5995C50.7347 37.4162 50.7407 37.3221 50.748 37.2111C50.6418 37.3076 50.5454 37.4548 50.4851 37.4403C50.1534 37.3667 49.9894 37.6791 49.7192 37.7563C49.5624 37.8009 49.4286 37.9806 49.2115 38.024C49.0161 38.0638 48.8461 38.2242 48.6627 38.3279C48.5518 38.3906 48.4396 38.4485 48.3275 38.5088C48.2696 38.5498 48.1864 38.5631 48.12 38.6041C47.8523 38.7705 47.6099 39.0238 47.3204 39.0998C46.8694 39.218 46.592 39.6292 46.1156 39.7016C45.9046 39.7342 45.7261 39.9597 45.5271 40.0899C45.3848 40.184 45.2268 40.3456 45.0869 40.3348C44.7733 40.3106 44.6105 40.4674 44.4248 40.6688C44.3295 40.7726 44.1558 40.8015 44.0219 40.8727C43.8386 40.9691 43.6589 41.0741 43.478 41.1742C43.2549 41.2972 43.0426 41.46 42.8039 41.5299C42.4469 41.6349 42.1972 41.8592 42.0079 42.1462C41.8004 42.461 41.6026 42.5394 41.2782 42.3693C41.2252 42.3416 41.1468 42.3512 41.0841 42.3621C40.7102 42.4212 40.5064 42.8614 40.0758 42.8144C40.0227 42.8083 39.954 42.9277 39.8949 42.9904C39.8684 43.0194 39.8527 43.0761 39.8238 43.0821C39.6151 43.1243 39.398 43.134 39.1978 43.2003C39.0652 43.2437 38.7685 43.146 38.8806 43.4946C38.719 43.3764 38.6322 43.4077 38.5514 43.5742C38.5128 43.6525 38.3886 43.6887 38.2523 43.7756C38.3126 43.5826 38.3464 43.4741 38.3801 43.3655C38.3512 43.3486 38.321 43.3317 38.2909 43.3161C38.1932 43.4077 38.0955 43.5006 37.9797 43.6103C37.9327 43.5874 37.8531 43.5488 37.7892 43.5175C37.5649 43.579 37.513 43.9613 37.1717 43.8202C37.2634 43.6972 37.3333 43.6031 37.4201 43.4849C37.2754 43.4765 37.197 43.4716 37.1186 43.4668C37.1307 43.4849 37.1427 43.503 37.1548 43.5211C37.0426 43.6128 36.9305 43.7044 36.8014 43.8093C36.7701 43.7153 36.752 43.661 36.7279 43.5886C36.6808 43.6248 36.6531 43.6489 36.6229 43.6682C36.5904 43.6887 36.5542 43.7056 36.5204 43.7237C36.4999 43.7068 36.4782 43.6899 36.4565 43.6731C37.6324 41.9508 38.801 40.2262 39.4728 38.2049C39.3401 38.2049 39.2605 38.2049 39.1665 38.2049C39.2087 38.1277 39.2581 38.0674 39.2762 37.9987C39.3425 37.7442 39.4559 37.4849 39.4426 37.2329C39.4246 36.906 39.2726 36.584 39.5427 36.2921C39.5633 36.2704 39.5524 36.2198 39.556 36.1691C39.4221 36.2198 39.3064 36.2632 39.1315 36.3283C39.4402 35.7953 39.2847 35.3527 39.1484 34.8968C39.029 34.951 38.947 34.9884 38.8638 35.027C38.8433 35.0089 38.824 34.9921 38.8035 34.974C38.8613 34.8003 38.9192 34.6266 38.9783 34.453C38.9397 34.4312 38.8481 34.3794 38.7552 34.3287C38.672 34.342 38.5634 34.3601 38.4127 34.3842C38.5502 34.2371 38.6467 34.1334 38.7395 34.0333C38.6527 33.979 38.5502 33.9525 38.5164 33.8885C38.397 33.6594 38.2101 33.6003 37.9785 33.6365C37.7844 33.6666 37.7132 33.587 37.7518 33.3253C37.6867 33.4616 37.6553 33.5255 37.6312 33.575C37.5745 33.4978 37.5239 33.3772 37.478 33.3796C37.3827 33.3832 37.2899 33.4544 37.1946 33.4942C37.0873 33.5376 36.9775 33.5774 36.869 33.6184C36.8629 33.5979 36.8569 33.5774 36.8509 33.5569C36.8907 33.5074 36.9317 33.4568 36.9546 33.429C36.6193 33.429 36.2841 33.4025 35.9548 33.4351C35.4109 33.4869 34.8694 33.5641 34.3315 33.6594C34.1747 33.6871 34.0348 33.8113 33.8491 33.9114C33.8346 33.9054 33.7442 33.8536 33.6489 33.8379C33.6248 33.8331 33.5813 33.95 33.5512 34.0067C33.3872 33.8403 32.9144 33.9609 32.6744 34.2431C32.6262 34.2178 32.5707 34.1623 32.5405 34.1744C32.2909 34.266 32.0449 34.3673 31.8012 34.4723C31.671 34.5289 31.5504 34.6061 31.4189 34.6592C31.1657 34.7593 30.9027 34.8353 30.6543 34.9462C30.2165 35.1416 29.7836 35.3502 29.3554 35.5649C29.2324 35.6264 29.1335 35.7326 29.0189 35.8121C28.9695 35.8471 28.9007 35.8966 28.8549 35.8857C28.6306 35.8314 28.5064 35.9291 28.4147 36.1209C28.3954 36.1619 28.3182 36.1872 28.264 36.1993C28.1904 36.215 28.1023 36.1896 28.0372 36.2198C27.8961 36.2861 27.7707 36.3886 27.6284 36.4538C27.31 36.5997 26.9868 36.7287 26.666 36.8686C26.6262 36.8867 26.596 36.9289 26.5586 36.9567C26.3017 37.1496 26.0545 37.3607 25.7819 37.5307C25.4563 37.7346 25.0981 37.8889 24.7737 38.0952C24.553 38.2339 24.3757 38.4389 24.1622 38.592C23.8366 38.826 23.4941 39.0383 23.1612 39.265C22.9007 39.4423 22.6451 39.6268 22.3858 39.8065C22.1639 39.9609 21.9263 40.096 21.7224 40.2708C21.0845 40.8208 20.4549 41.3828 19.829 41.946C19.4443 42.2909 19.0595 42.6371 18.6965 43.0025C17.9922 43.7141 17.2987 44.4353 16.6089 45.1601C16.235 45.5533 15.8672 45.9537 15.515 46.3661C15.2292 46.7002 14.9699 47.0584 14.6973 47.4045C14.6129 47.5106 14.5261 47.6144 14.3898 47.4383C14.4525 47.3539 14.5128 47.2718 14.5791 47.1814C14.2282 47.1283 13.9134 47.0801 13.6601 47.0415C13.5118 47.1621 13.384 47.2646 13.2043 47.4093C13.2223 47.2284 13.2344 47.1054 13.2453 47.0029C13.1476 46.9607 13.0451 46.9173 12.9546 46.8787C12.863 46.9426 12.7713 47.0053 12.6796 47.0692C12.6603 47.0451 12.641 47.021 12.6217 46.9969C12.67 46.9064 12.7194 46.8172 12.7761 46.7122C12.4505 46.5736 12.2551 46.7967 12.0079 46.9993C12.0079 46.8316 12.0079 46.7388 12.0079 46.6013C11.8632 46.6351 11.7377 46.664 11.5785 46.7014C11.4266 46.5953 11.1395 46.6821 11.0515 46.8823C11.0213 46.9535 10.9333 47.0415 10.8658 47.0463C10.6463 47.062 10.4219 47.015 10.2073 47.0439C9.98174 47.0741 9.83581 47.2972 9.55722 47.2827C9.30637 47.2706 9.06154 47.4925 8.77692 47.384C8.74074 47.3707 8.68164 47.39 8.64305 47.4117C8.32466 47.5939 8.01109 47.788 7.68788 47.9629C7.56727 48.0268 7.41411 48.028 7.29109 48.0883C6.92205 48.2692 6.56506 48.4779 6.1936 48.6503C5.77511 48.8445 5.34456 49.0134 4.91883 49.1918C4.65833 49.3004 4.46054 49.4704 4.36165 49.7804C4.30858 49.667 4.26516 49.5766 4.22898 49.4982C3.87803 49.6574 3.5126 49.7756 3.19903 49.9758C2.74074 50.2688 2.29089 50.5884 1.8917 50.9563C1.4322 51.3808 1.02456 51.8644 0.60848 52.336C0.484258 52.4759 0.255113 52.6532 0.600037 52.8727C0.520439 52.8859 0.442047 52.898 0.328681 52.9161C0.185163 53.1995 0.00787641 53.5444 0.415515 53.8568C0.0935046 54.0341 0.0537056 54.3199 0.46255 54.8542C0.510791 54.7951 0.555414 54.7396 0.600037 54.6841C0.62657 54.6986 0.653103 54.7131 0.678429 54.7275C0.636218 54.8059 0.601243 54.8927 0.546972 54.9627C0.376922 55.1822 0.451696 55.4596 0.706168 55.5175C0.741143 55.5247 0.780942 55.5042 0.842449 55.4909C0.801444 55.5766 0.776117 55.6308 0.751997 55.6803C0.882248 55.7647 1.00044 55.8419 1.14516 55.9372C1.06195 55.9878 1.00647 56.0216 0.963052 56.0481C1.0125 56.1531 1.05471 56.2399 1.09572 56.3267C1.14999 56.3122 1.20546 56.2978 1.26094 56.2821C1.2718 56.3255 1.28144 56.3689 1.29109 56.4111C1.24165 56.4196 1.19099 56.4268 1.12587 56.4353C1.20305 56.6523 1.20185 56.9406 1.55883 56.7971C1.51903 56.943 1.48406 57.0733 1.44185 57.224C1.47923 57.2481 1.53833 57.2867 1.59742 57.3241C1.52989 57.6208 1.55039 57.8934 1.78918 58.1285C1.80727 58.0598 1.82054 58.0115 1.83381 57.9633C1.92788 58.0333 2.02315 58.1032 2.11722 58.1719C2.08104 58.1587 2.04366 58.1454 2.00627 58.1309C1.93511 58.2262 1.86275 58.3227 1.83139 58.3625C1.95441 58.734 2.02436 59.0198 2.14255 59.2827C2.25471 59.5323 2.41752 59.7603 2.54054 59.9689C2.52969 59.9677 2.47421 59.9629 2.41029 59.9569C2.44285 60.0811 2.45129 60.186 2.49592 60.2729C2.53692 60.3512 2.63099 60.4767 2.67803 60.4658C2.89511 60.42 2.83963 60.5213 2.81793 60.6503C2.80466 60.7287 2.87823 60.8228 2.86134 60.9C2.81793 61.1038 2.92406 61.2341 3.04466 61.3667C3.06034 61.3824 3.07119 61.4234 3.06154 61.4379C2.85893 61.743 3.11461 61.942 3.24486 62.1518C3.37632 62.3617 3.57411 62.5305 3.54637 62.8128C3.54275 62.8586 3.5717 62.9116 3.59461 62.9563C3.673 63.1179 3.75019 63.2807 3.84064 63.4351C3.89129 63.5219 3.95159 63.6353 4.0336 63.6642C4.17712 63.7161 4.17712 63.6907 4.14577 63.8113C4.13009 63.8765 4.13129 63.9597 4.15903 64.02C4.22416 64.1623 4.30496 64.2998 4.393 64.4312C4.43159 64.4891 4.50034 64.5253 4.58355 64.5941C4.58355 64.4915 4.58355 64.4481 4.58355 64.3818C4.66918 64.4566 4.7319 64.5108 4.85612 64.6194C4.75843 64.6495 4.69813 64.6676 4.64747 64.6833C4.74637 64.816 4.83441 64.898 4.87783 65.0005C4.97069 65.2164 5.01772 65.4528 5.12506 65.6602C5.22154 65.8483 5.40486 65.9955 5.49049 66.1872C5.60747 66.4489 5.88607 66.6045 5.94154 66.906C5.94999 66.9518 6.07903 66.9772 6.10677 66.9904C6.12245 67.1183 6.10677 67.2377 6.15381 67.3233C6.34798 67.6815 6.553 68.0337 6.77129 68.3774C6.8521 68.504 6.992 68.7066 7.08245 68.6946C7.50094 68.6403 7.16928 68.8513 7.20667 68.9189C7.47682 69.616 8.07501 70.1056 8.35119 70.8015C8.42958 70.9993 8.54536 71.1886 8.6732 71.3599C8.73471 71.4407 8.86496 71.4696 8.93973 71.5094C8.94456 71.5842 8.92526 71.6855 8.95903 71.7639C9.02777 71.9219 9.11582 72.0739 9.2123 72.2174C9.62114 72.8276 10.0553 73.4234 10.4424 74.0481C10.6475 74.3774 10.8151 74.7259 11.1287 74.9719C11.154 74.9924 11.1637 75.0335 11.1817 75.0636C11.2915 75.2409 11.3868 75.4314 11.517 75.5918C11.7522 75.8837 12.0139 76.1539 12.2563 76.4397C12.3299 76.5265 12.3709 76.6411 12.442 76.7315C12.6615 77.0113 12.8859 77.2863 13.1138 77.5601C13.1994 77.6626 13.3333 77.7374 13.3876 77.8519C13.5926 78.2789 13.7892 78.6998 14.3307 78.7806C14.35 78.783 14.3669 78.8047 14.3934 78.824C14.3222 78.8469 14.2692 78.8638 14.1582 78.8988C14.6262 79.2027 15.0459 79.4753 15.4656 79.7466C15.4957 79.7659 15.5343 79.7731 15.5705 79.7792C15.8997 79.8286 16.2302 79.8769 16.4629 79.9106C16.5968 80.0337 16.6583 80.1338 16.7415 80.1579C16.9707 80.2254 17.2083 80.2749 17.4447 80.3038C17.5821 80.3195 17.7281 80.2592 17.8668 80.2712C18.155 80.2978 18.4396 80.375 18.7255 80.381C18.8774 80.3846 19.0306 80.2809 19.185 80.2314C19.2151 80.2218 19.2549 80.2351 19.2899 80.2435C19.5034 80.2917 19.8579 80.1181 19.8905 80.0204C20.1462 79.9613 20.3536 79.9191 20.5574 79.8624C20.666 79.8322 20.7673 79.7792 20.8047 79.7635C21.0073 79.661 21.1351 79.5705 21.2786 79.5283C21.6682 79.4125 22.0963 79.4041 22.4159 79.1014C22.434 79.0845 22.4762 79.0712 22.4955 79.0809C22.6909 79.1786 22.8091 79.0013 22.9659 78.9603C23.1637 78.9072 23.2734 78.701 23.5544 78.748C23.7425 78.7794 23.9777 78.5333 24.2503 78.379C24.4433 78.4369 24.8473 78.2463 24.9438 77.9918C25.0571 77.9786 25.1801 77.9967 25.2609 77.946C25.507 77.7941 25.7361 77.6144 25.9713 77.4467C25.876 77.4178 25.7747 77.3876 25.6143 77.3382C25.8242 77.3189 25.9677 77.3273 26.0967 77.2887C26.4428 77.1838 26.5852 76.8763 26.7359 76.5904C27.0133 76.0658 27.2798 75.5352 27.5476 75.0057C27.5874 74.9273 27.6103 74.8405 27.6489 74.7332C27.5343 74.7332 27.4607 74.7332 27.3872 74.7332C27.5452 74.5812 27.6814 74.4304 27.8406 74.3086C27.8865 74.2724 27.9998 74.3026 28.0734 74.3279C28.1482 74.3532 28.2193 74.4546 28.276 74.4437C28.3604 74.4268 28.4304 74.34 28.551 74.2507C28.5703 74.2568 28.6547 74.2821 28.7355 74.305C28.7029 74.3689 28.6764 74.422 28.6487 74.4751C28.6704 74.4968 28.6921 74.5173 28.7126 74.5378C28.791 74.4666 28.8694 74.3955 28.9188 74.3508C29.0165 74.3931 29.1166 74.4751 29.2119 74.4702C29.5086 74.4534 29.7944 74.3979 30.1044 74.4111C30.4047 74.4244 30.7363 74.3569 31.0571 74.3472C31.2284 74.3424 31.4057 74.2688 31.5661 74.299C31.8229 74.346 32.0449 74.3472 32.2041 74.1651C32.2656 74.2025 32.309 74.2519 32.3548 74.2532C32.5972 74.2592 32.842 74.2712 33.082 74.2483C33.4053 74.2182 33.7466 74.0674 34.042 74.135C34.3834 74.2146 34.5522 73.9553 34.7271 73.9324C34.8501 73.9878 34.9031 74.0264 34.9598 74.0349C35.0648 74.0505 35.1721 74.0542 35.277 74.0529C35.4326 74.0517 35.6617 74.1048 35.7281 74.0252C35.9307 73.7828 36.1695 73.9541 36.3829 73.9118C36.6302 73.8612 36.9257 73.9553 37.1379 73.8552C37.4213 73.7213 37.7397 73.7937 37.9906 73.6525C38.3717 73.4391 38.8758 73.7539 39.1942 73.3414C39.2026 73.3305 39.2304 73.3354 39.2485 73.3342C39.4885 73.3088 39.7309 73.2968 39.9685 73.257C40.2676 73.2087 40.557 73.1364 40.8441 73.0121C41.1239 72.8903 41.4555 72.8927 41.7606 72.8228C41.8547 72.8011 41.9295 72.6877 42.0236 72.6684C42.3745 72.5997 42.7375 72.5792 43.0837 72.4899C43.6203 72.3512 44.1655 72.2186 44.6358 71.8942C44.6768 71.8664 44.7444 71.8797 44.795 71.8616C44.8879 71.8278 44.9783 71.7856 45.076 71.7446C45.1411 71.9569 45.2557 71.8109 45.3546 71.7543C45.4077 71.7253 45.4451 71.665 45.4993 71.6409C45.7429 71.5348 46.0481 71.6168 46.2555 71.4129C46.4014 71.2694 46.557 71.2477 46.7391 71.3044C46.7536 71.3092 46.7729 71.2972 46.7862 71.2936C46.8115 71.2176 46.8368 71.144 46.8633 71.0668C46.9948 71.1163 47.1021 71.1573 47.2022 71.1959C47.2553 71.0849 47.2951 71.0029 47.3361 70.9197C47.669 70.8111 48.0537 70.9342 48.3407 70.6688C48.3854 70.6278 48.436 70.5808 48.4927 70.5639C48.9196 70.4385 49.3478 70.3408 49.7578 70.1394C50.4187 69.8138 51.1255 69.5846 51.8032 69.2915C52.1192 69.1553 52.4304 68.9924 52.7102 68.7934C52.9128 68.6475 53.2095 68.6958 53.3542 68.4401C53.3928 68.3726 53.511 68.3171 53.5942 68.3122C53.8306 68.3014 54.0139 68.1928 54.1924 68.059C54.3239 67.9601 54.4625 67.8708 54.6495 67.7406C54.8666 67.784 55.7132 67.3679 55.7735 67.2087C56.1703 67.0218 56.4983 66.8674 56.8288 66.7118C56.8022 66.66 56.7805 66.6202 56.76 66.5792C56.8059 66.5732 56.8529 66.5587 56.8987 66.5611C56.9663 66.5647 57.0495 66.6105 57.0965 66.5852C57.427 66.4031 57.7429 66.1969 58.077 66.022C58.3363 65.8857 58.6197 65.7965 58.8814 65.6638C59.0406 65.5842 59.1697 65.4467 59.3265 65.3635C59.4193 65.3141 59.5942 65.3575 59.6376 65.2948C59.8041 65.0511 60.0706 65.0379 60.3009 64.9342C60.4698 64.857 60.6049 64.705 60.7833 64.5651C60.9365 64.6242 61.1307 64.5301 61.232 64.3239C61.273 64.2431 61.4201 64.1237 61.431 64.1321C61.6613 64.3179 61.7156 64.0538 61.8374 63.979C61.9544 63.9078 62.0617 63.7619 62.1775 63.7583C62.4754 63.7486 62.672 63.5738 62.8915 63.4218C63.0639 63.3024 63.2473 63.2011 63.4221 63.0877C63.521 63.0238 63.6139 62.9502 63.7104 62.8803C63.7827 62.8308 63.8949 62.8308 63.9793 62.7826C64.159 62.6777 64.3218 62.5462 64.4943 62.4304C64.5703 62.3786 64.6824 62.3593 64.7307 62.2917C64.8742 62.0915 65.043 61.9408 65.2782 61.8612C65.359 61.8335 65.435 61.7707 65.4953 61.7068C65.6497 61.5404 65.7763 61.3414 65.9488 61.1979C66.1912 60.9941 66.4975 60.859 66.7194 60.6371C67.1295 60.227 67.5335 59.8025 67.8736 59.3346C68.2909 58.7605 68.6732 58.1551 69.0109 57.5303C69.3462 56.9104 69.6115 56.2519 69.8973 55.6055C69.9564 55.4716 70.0215 55.3028 69.9866 55.1786C69.9576 55.0761 69.7827 55.0158 69.6573 54.9253ZM62.3777 43.6357C62.7106 43.7442 62.8951 43.4837 63.1327 43.3824C63.2123 43.3486 63.2714 43.2666 63.351 43.2292C63.8539 42.9929 64.3411 42.6865 64.8718 42.5527C65.3301 42.4369 65.7691 42.1679 66.2792 42.2632C66.395 42.2849 66.5277 42.2174 66.6664 42.1884C67.0101 42.7131 67.2043 43.3052 67.2392 43.9504C67.2633 44.4027 67.2573 44.8586 67.3152 45.306C67.4575 46.4047 66.8871 47.1778 66.1622 47.8712C65.7413 48.2753 65.277 48.6347 64.8248 49.0037C64.6101 49.1786 64.3773 49.3305 64.1506 49.4897C63.7007 49.8081 63.2545 50.1313 62.7974 50.4377C62.3126 50.7633 61.8205 51.0793 61.3249 51.388C60.7532 51.7438 60.1719 52.0839 59.5978 52.4361C59.4736 52.512 59.3735 52.6339 59.2432 52.6966C59.0334 52.7979 58.797 52.8461 58.592 52.9547C58.1928 53.1669 57.8093 53.4081 57.4149 53.63C57.2014 53.7494 56.9771 53.8495 56.7636 53.9689C56.6865 54.0123 56.6274 54.0847 56.5598 54.1438C56.4223 54.2644 56.385 54.4658 56.192 54.5527C56.1076 54.59 56.0786 54.7396 56.0099 54.8276C55.9628 54.8879 55.8953 54.9386 55.8278 54.9784C55.7228 55.0411 55.6119 55.0905 55.4382 55.1786C55.5395 54.9615 55.6215 54.7866 55.6734 54.6769C55.5202 54.5671 55.3972 54.4791 55.2754 54.3923C55.3562 54.2849 55.4262 54.192 55.4949 54.0992C55.4756 54.0823 55.4563 54.0666 55.4358 54.0497C55.3791 54.1124 55.3212 54.1764 55.2585 54.2451C55.1717 54.1124 55.0921 53.9906 55.0161 53.8749C55.1138 53.8266 55.197 53.7868 55.279 53.747C55.273 53.7253 55.2658 53.7024 55.2585 53.6807C55.2151 53.6807 55.1729 53.6807 55.1042 53.6807C55.1174 53.6047 55.1319 53.5287 55.1488 53.4322C55.0824 53.4298 55.0089 53.4479 54.9643 53.419C54.8931 53.3732 54.7833 53.2501 54.7918 53.2381C54.9787 52.9933 54.8087 52.8256 54.7062 52.6725C54.6169 52.6881 54.5277 52.7327 54.483 52.705C54.4276 52.6725 54.3914 52.5808 54.3793 52.5096C54.3552 52.3649 54.3588 52.2166 54.3407 52.0706C54.3082 51.8065 54.1622 51.6968 53.921 51.7269C53.874 51.6389 53.827 51.5593 53.7872 51.4773C53.7474 51.3953 53.6617 51.2831 53.6883 51.23C53.7884 51.0286 53.6449 50.9575 53.5279 50.8731C53.4615 50.8236 53.3783 50.7971 53.3048 50.7573C53.2324 50.7199 53.1624 50.6765 53.0973 50.6403C53.107 50.5076 53.1588 50.2785 53.1178 50.2604C52.8983 50.1639 52.9164 49.9275 52.7645 49.7635C53.0455 49.5597 53.3241 49.3583 53.6026 49.1569C53.6171 49.146 53.6364 49.1352 53.6437 49.1195C53.8595 48.6359 54.4083 48.6021 54.7616 48.2982C55.0909 48.016 55.4672 47.7832 55.8374 47.5529C56.2004 47.3285 56.59 47.1464 56.9542 46.9245C57.4028 46.6519 57.837 46.3541 58.2808 46.0743C58.3858 46.0079 58.5136 45.9754 58.6221 45.9114C58.75 45.8367 58.8682 45.745 58.99 45.6594C59.0032 45.6485 59.0081 45.622 59.0225 45.6148C59.3614 45.4532 59.7027 45.2928 60.0416 45.1299C60.1056 45.0986 60.1659 45.06 60.2238 45.0202C60.2997 44.9695 60.3673 44.9056 60.4457 44.8598C60.9136 44.5896 61.3815 44.3171 61.8567 44.059C62.0557 43.9504 62.3403 43.9625 62.3777 43.6357ZM25.9351 75.6835C25.87 75.7185 25.7964 75.7366 25.718 75.7655C25.7253 75.8753 25.7313 75.9802 25.7385 76.0851C25.7192 76.0936 25.7011 76.102 25.6818 76.1092C25.6445 76.0357 25.6059 75.9621 25.5854 75.9223C25.2839 76.0405 24.9872 76.1551 24.7038 76.266C24.6302 76.3529 24.5506 76.4481 24.4638 76.5494C24.3998 76.4759 24.3576 76.4288 24.354 76.424C24.0778 76.5193 23.8342 76.6037 23.5894 76.6881C23.3819 76.7593 23.1649 76.8123 22.9707 76.91C22.8646 76.9631 22.797 77.0946 22.7307 77.1705C22.6897 77.1464 22.6197 77.0692 22.5691 77.0801C22.4123 77.1151 22.264 77.185 22.1108 77.2381C21.8322 77.3334 21.5488 77.419 21.2726 77.5227C21.1834 77.5565 21.1134 77.6445 21.0254 77.6867C20.9385 77.7277 20.8831 77.9267 20.7251 77.7446C20.6997 77.7157 20.4682 77.8616 20.3355 77.9327C20.2041 78.0027 20.1269 78.3054 19.9086 78.0232C19.8989 78.0099 19.6384 77.9774 19.6083 78.186C19.6035 78.227 19.5094 78.256 19.4563 78.2909C19.3912 78.3344 19.3261 78.379 19.2465 78.432C19.2465 78.3657 19.2465 78.2692 19.2465 78.1619C19.0897 78.1619 18.8388 78.2282 18.6531 78.1462C18.3866 78.0292 18.3359 78.2439 18.1598 78.3211C17.874 78.1522 17.5954 77.7796 17.148 78.1269C17.1202 78.0099 17.1021 77.9303 17.0913 77.8845C16.8573 77.8134 16.6366 77.7446 16.3761 77.665C16.3411 77.6686 16.2519 77.6771 16.1639 77.6855C16.1795 77.5661 16.1952 77.4467 16.2133 77.3092C16.1397 77.2465 16.0457 77.1669 15.9166 77.0572C15.9239 77.1959 15.9275 77.255 15.9299 77.3141C15.8539 77.3092 15.7779 77.3032 15.6911 77.2984C15.761 77.1488 15.8177 77.0282 15.8443 76.9727C15.6899 76.7991 15.5789 76.6688 15.4595 76.5446C15.4101 76.4928 15.3438 76.4578 15.2883 76.4107C15.1809 76.3203 15.082 76.2178 14.9651 76.1394C14.8746 76.0779 14.7359 76.0706 14.6684 75.9959C14.6141 75.9356 14.6503 75.8017 14.6141 75.7137C14.5864 75.6473 14.508 75.6015 14.4344 75.5279C14.3994 75.534 14.3054 75.5472 14.2113 75.5605C14.2065 75.5448 14.2004 75.5279 14.1956 75.511C14.2487 75.4688 14.3017 75.4266 14.3271 75.4073C14.2619 75.3157 14.2173 75.2373 14.1582 75.1721C14.0147 75.0154 13.9797 74.7524 13.6843 74.738C13.6107 74.7344 13.4937 74.5824 13.4853 74.4895C13.4732 74.3786 13.3924 74.3376 13.3683 74.2833C13.2501 74.0035 13.1403 74.1265 12.9703 74.3243C12.9992 74.1832 13.0137 74.1181 13.0246 74.0529C13.033 73.9987 13.0632 73.9251 13.039 73.8901C12.904 73.6839 12.7231 73.5018 12.6193 73.2811C12.5253 73.0785 12.2611 73.0097 12.2479 72.742C12.2431 72.6636 12.0766 72.5937 11.9669 72.5056C11.9693 72.5008 12.0091 72.4224 12.0477 72.344C12.0223 72.3537 11.997 72.3633 11.9717 72.3729C11.8704 72.2415 11.7124 72.1221 11.6786 71.975C11.6219 71.7289 11.5616 71.5215 11.3265 71.384C11.2782 71.3563 11.2951 71.2188 11.2758 71.097C11.183 71.1766 11.0997 71.2477 10.9514 71.3756C11.0177 71.2152 11.0527 71.1331 11.0877 71.0499C11.0744 71.0379 11.0599 71.0258 11.0467 71.0138C10.9791 71.0572 10.9128 71.1018 10.8477 71.144C10.8477 70.9245 10.8477 70.7231 10.8477 70.5313C10.7801 70.4312 10.6812 70.3299 10.6366 70.2093C10.5811 70.061 10.522 70.0526 10.399 70.1261C10.3472 70.1563 10.2712 70.1454 10.2061 70.1539C10.2181 70.0911 10.2157 70.0224 10.2435 69.9681C10.4111 69.6449 10.0818 69.4833 10.0083 69.2397C9.97571 69.1323 9.92024 69.0286 9.86235 68.9309C9.80325 68.832 9.72245 68.744 9.66335 68.6451C9.62838 68.586 9.61632 68.5137 9.5934 68.4461C9.53913 68.4618 9.48004 68.4787 9.40526 68.5004C9.34014 68.2857 9.27622 68.0807 9.20265 67.8419C9.17009 67.8443 9.0929 67.8515 9.0133 67.8588C8.98918 67.7768 8.95782 67.6755 8.93009 67.5742C8.90958 67.4994 8.8927 67.4234 8.86979 67.3257C8.68647 67.3185 8.5719 67.2509 8.60928 66.9663C8.62617 66.8385 8.42597 66.6829 8.32587 66.5394C8.25712 66.4381 8.18958 66.3368 8.15099 66.2138C7.97973 66.0461 7.79401 65.893 7.8121 65.6023C7.82054 65.454 7.57571 65.1922 7.41772 65.1778C7.42134 65.103 7.42496 65.027 7.42737 64.951C7.40808 64.9414 7.38878 64.9305 7.36948 64.9209C7.30315 65.0005 7.23561 65.0813 7.18375 65.1428C7.18375 64.9414 7.18375 64.7086 7.18375 64.4771C7.16084 64.4867 7.13913 64.4964 7.11622 64.5048C6.92084 64.2383 6.72546 63.9705 6.49873 63.6594C6.57471 63.4146 6.50355 63.2481 6.21169 63.0769C6.17551 63.0552 6.16828 62.9768 6.15501 62.9225C6.13933 62.855 6.12968 62.7862 6.12004 62.7307C5.84747 62.6946 6.2129 63.2095 5.83783 63.0298C5.85109 62.7959 5.86556 62.5776 5.87521 62.3581C5.87642 62.3255 5.8523 62.2616 5.84386 62.2616C5.50134 62.2869 5.68345 62.0083 5.60747 61.8805C5.552 61.7888 5.41933 61.743 5.31079 61.6706C5.3325 61.6128 5.36386 61.5332 5.41692 61.3981C5.29149 61.456 5.21672 61.4921 5.08285 61.5549C5.1335 61.4113 5.1721 61.3016 5.22757 61.1448C5.12506 60.9313 5.06958 60.6033 4.70175 60.4755C4.76808 60.4272 4.82235 60.3898 4.84526 60.373C4.64265 59.8387 4.44245 59.3116 4.23501 58.7617C4.19401 58.7569 4.12888 58.7496 4.05773 58.74C4.10717 58.5941 4.24948 58.4119 3.93953 58.3902C3.95401 58.2105 3.54999 58.0718 3.94195 57.8644C3.68265 57.7221 3.50416 57.575 3.66818 57.3748C3.62355 57.2144 3.5922 57.1082 3.56325 57.0009C3.54878 56.9454 3.55119 56.8839 3.52707 56.8333C3.42335 56.6246 3.29431 56.4256 3.2123 56.2097C3.15441 56.053 3.17612 55.8672 3.12667 55.7056C3.09049 55.5886 2.99642 55.4897 2.93612 55.3957C2.91441 55.2642 2.89391 55.1243 2.86737 54.9856C2.86617 54.9772 2.82878 54.9736 2.80828 54.9699C2.74918 54.9603 2.68165 54.9639 2.6322 54.9362C2.61531 54.9265 2.64185 54.8409 2.64546 54.7902C2.65632 54.6528 2.68768 54.5129 2.66958 54.3802C2.64305 54.1812 2.58516 53.9858 2.5321 53.7904C2.5128 53.7169 2.46938 53.6505 2.43562 53.5758C2.62255 53.3466 2.80948 53.0668 3.04828 52.8413C3.28345 52.6182 3.5729 52.4517 3.83461 52.2552C4.0529 52.0911 4.25793 51.9078 4.48225 51.7523C4.76205 51.5593 5.05873 51.3916 5.34215 51.2023C5.40124 51.1625 5.43501 51.0841 5.50617 51.0745C5.61953 51.0105 5.73169 50.9454 5.84627 50.8839C6.0127 50.7959 6.1731 50.6873 6.35039 50.6331C6.553 50.5703 6.73994 50.5245 6.91481 50.3701C7.11501 50.1941 7.38516 50.094 7.6324 49.9758C7.87602 49.8588 8.21491 49.8262 8.3524 49.6393C8.49712 49.4439 8.66476 49.5428 8.75401 49.4729C8.92647 49.339 9.13752 49.3607 9.29551 49.2509C9.36064 49.2051 9.38355 49.099 9.42456 49.023C9.48365 49.0556 9.54637 49.0905 9.61632 49.1279C9.72365 49.0146 9.82255 48.9108 9.9323 48.7951C9.94918 48.8614 9.96486 48.9193 9.9926 49.023C10.2109 48.9133 10.4147 48.789 10.6342 48.7082C10.832 48.6347 11.0479 48.6093 11.2348 48.5418C11.8053 48.5478 11.8234 49.0109 11.9524 49.415C12.1068 49.8986 12.3106 50.3665 12.4939 50.8417C12.5434 50.9695 12.4734 51.2168 12.7629 51.1215C12.7713 51.1179 12.8364 51.2119 12.8304 51.2542C12.7689 51.6268 12.8159 51.8584 12.9848 52.1925C13.0909 52.4035 13.1608 52.6327 13.2513 52.8642C13.3019 52.8558 13.3635 52.8473 13.4286 52.8377C13.3212 53.4166 13.4792 53.893 13.8917 54.2113C13.8567 54.3271 13.7807 54.4369 13.8085 54.5044C13.9821 54.9253 14.1872 55.333 14.3657 55.7514C14.4465 55.942 14.6804 56.065 14.6141 56.3267C14.6081 56.3508 14.7516 56.4148 14.8505 56.4751C14.7745 56.4895 14.7202 56.4992 14.6105 56.5185C14.7202 56.6656 14.8047 56.779 14.8999 56.9056C14.7721 57.0576 14.8855 57.4097 15.2376 57.7257C15.2183 57.6304 15.2039 57.5629 15.187 57.4773C15.2219 57.4893 15.2557 57.4917 15.2617 57.505C15.3184 57.6268 15.5403 57.7209 15.3208 57.8921C15.2907 57.9163 15.3015 58.0296 15.3281 58.0839C15.4366 58.3022 15.5633 58.5108 15.673 58.7279C15.7393 58.8606 15.7888 59.0017 15.8539 59.1597C15.8865 59.1054 15.9178 59.056 15.9432 59.0138C15.9914 59.1573 16.0288 59.3165 16.0963 59.4648C16.2748 59.8604 16.4678 60.2499 16.6499 60.6443C16.7343 60.8276 16.7958 61.0194 16.8814 61.2003C17.0286 61.509 17.1335 61.86 17.353 62.106C17.757 62.5595 17.8499 63.1649 18.1936 63.6377C18.348 63.8511 18.5277 64.0489 18.6688 64.2696C18.8449 64.5446 18.9896 64.8389 19.156 65.1199C19.267 65.3068 19.396 65.4817 19.5094 65.6662C19.6481 65.8954 19.7783 66.1305 19.9146 66.3609C20.0352 66.5635 20.1208 66.83 20.4839 66.672C20.2499 67.0809 20.4477 67.3124 20.7214 67.5585C20.8505 67.6743 20.8903 67.8889 20.9711 68.059C21.0012 68.1241 21.0217 68.1977 21.064 68.2556C21.2412 68.5052 21.4378 68.7428 21.6031 69.0009C21.7719 69.265 21.9034 69.552 22.0686 69.8186C22.147 69.944 22.1518 70.1949 22.4364 70.0851C22.4642 70.0743 22.6113 70.3673 22.6969 70.5229C22.7066 70.541 22.6559 70.5928 22.6656 70.6109C22.7958 70.8449 22.9309 71.0777 23.066 71.3092C23.2167 71.5649 23.3349 71.8507 23.5291 72.0678C23.7257 72.2861 23.8583 72.5394 24.0332 72.7673C24.0766 72.824 24.1442 72.8698 24.2093 72.9012C24.4131 72.9989 24.4143 72.9953 24.3118 73.216C24.424 73.2883 24.5397 73.3631 24.6965 73.4656C24.7001 73.4909 24.6893 73.5874 24.7255 73.6622C24.7568 73.7261 24.8388 73.7973 24.9052 73.8045C25.1186 73.8274 25.1379 73.8503 25.0366 74.0602C25.0933 74.1181 25.15 74.1711 25.2006 74.2302C25.2658 74.3038 25.314 74.4003 25.3924 74.4546C25.5854 74.5908 25.7964 74.7018 25.9906 74.8369C26.2728 75.0335 26.239 75.5219 25.9351 75.6835ZM68.1172 56.2411C68.1365 56.791 67.8567 57.2083 67.5781 57.6485C67.1645 58.2986 66.6748 58.8727 66.0585 59.3297C65.5894 59.6783 65.0961 59.9943 64.6065 60.3151C64.1663 60.6033 63.714 60.8747 63.2702 61.1581C62.9253 61.3788 62.6093 61.7177 62.2366 61.7973C61.9399 61.8612 61.7542 62.0542 61.4985 62.1446C61.3128 62.2097 61.1645 62.3786 60.9944 62.4932C60.9353 62.5342 60.8617 62.5522 60.793 62.58C60.5687 62.6716 60.3383 62.7561 60.1176 62.8586C59.9126 62.9539 59.7136 63.066 59.5182 63.1806C59.4447 63.224 59.3904 63.2964 59.3289 63.3543C59.2553 63.3434 59.1492 63.2915 59.0925 63.3241C58.7801 63.5026 58.4871 63.7173 58.1711 63.8909C57.9624 64.0043 57.7236 64.0622 57.5042 64.1587C57.1592 64.3118 56.8179 64.4722 56.4802 64.6411C56.4392 64.6616 56.4344 64.752 56.4332 64.7557C56.1872 64.8461 55.952 64.9004 55.7542 65.0174C55.6107 65.1018 55.4853 65.1766 55.3176 65.2248C55.068 65.296 54.8521 65.4769 54.6121 65.5927C54.2262 65.7808 53.8318 65.9557 53.441 66.1354C53.4242 66.1426 53.3916 66.1354 53.388 66.1438C53.2143 66.5623 52.7283 66.379 52.4412 66.6443C52.2 66.8674 51.7984 66.9145 51.4692 67.0435C51.3027 67.1086 51.1339 67.1738 50.9771 67.2582C50.9265 67.2871 50.9096 67.3776 50.8638 67.4644C50.8167 67.4548 50.7311 67.4379 50.6153 67.4126C50.6201 67.4849 50.6238 67.538 50.6286 67.6043C49.8145 67.509 49.1765 67.901 48.5361 68.3701C48.5325 68.3291 48.5253 68.3026 48.5277 68.2761C48.5313 68.2495 48.5421 68.2242 48.5759 68.1157C48.2804 68.2724 48.0525 68.4654 47.7992 68.5088C47.5761 68.5474 47.4169 68.5981 47.2951 68.7814C47.2843 68.7971 47.2179 68.7934 47.1914 68.7778C47.0274 68.6813 46.8706 68.703 46.7427 68.832C46.6342 68.9418 46.5124 69.0395 46.3978 69.142C46.3773 69.1263 46.358 69.1106 46.3387 69.095C46.346 69.0419 46.3544 68.9888 46.3628 68.9358C46.2205 69.095 45.8696 68.9647 45.8527 69.3108C45.8503 69.3482 45.6356 69.3748 45.5042 69.4109C45.5138 69.3422 45.521 69.2964 45.5295 69.2324C45.3353 69.2867 45.1628 69.335 45.0229 69.3736C45.035 69.4821 45.0434 69.5557 45.0519 69.6304C44.9651 69.5943 44.8782 69.5569 44.7552 69.5062C44.6816 69.5834 44.4211 69.511 44.4175 69.7764C44.3283 69.7619 44.239 69.7462 44.151 69.7317C44.1534 69.7064 44.1546 69.6799 44.157 69.6546C44.0449 69.6859 43.999 69.9802 43.8193 69.7474C43.7542 69.8138 43.6879 69.8789 43.6059 69.9609C43.2875 69.7462 42.9643 70.0369 42.6362 70.1213C42.3058 70.2069 42.0079 70.4132 41.6871 70.5699C41.6871 70.5567 41.6822 70.4747 41.6786 70.3926C41.4435 70.4385 41.1986 70.4783 40.9598 70.5386C40.8875 70.5555 40.8368 70.6447 40.7657 70.6785C40.6812 70.7207 40.5546 70.7906 40.4991 70.7581C40.2784 70.6266 40.1602 70.7352 40.0457 70.9269C40.0047 70.8582 39.9745 70.8075 39.9552 70.7738C39.79 70.8184 39.6223 70.8304 39.4933 70.9064C39.3811 70.974 39.3124 71.1126 39.1906 71.2598C39.1906 71.1187 39.1906 71.0331 39.1906 70.9245C38.6189 71.0692 38.0678 71.2103 37.4853 71.3587C37.4828 71.3563 37.3815 71.2743 37.3586 71.2924C37.1934 71.419 37.0089 71.3394 36.8388 71.3719C36.5096 71.4335 36.1888 71.5468 35.8535 71.6421C35.7727 71.4805 35.3084 71.5275 35.1202 71.7916C35.0816 71.7229 35.0503 71.6638 34.9984 71.5697C34.6463 71.7289 34.2941 71.893 33.9371 72.0485C33.8877 72.0702 33.8213 72.0509 33.708 72.0509C33.7996 71.9364 33.8491 71.8724 33.9154 71.7892C33.7454 71.7892 33.5922 71.7892 33.4125 71.7892C33.4595 71.8483 33.4981 71.8954 33.5572 71.9689C33.1906 71.9967 32.8059 71.5878 32.5044 72.0895C32.4489 72.0316 32.3982 71.9786 32.3379 71.9159C32.0376 71.9315 31.6975 71.934 31.3635 71.9762C31.2248 71.9943 31.0993 72.1028 30.9655 72.1631C30.869 72.2053 30.7677 72.2367 30.6205 72.2909C30.6024 72.3271 30.6205 72.5478 30.4324 72.3947C30.4613 72.2994 30.483 72.2234 30.506 72.1486C30.4264 72.1643 30.3335 72.1595 30.2708 72.2005C30.1731 72.2632 30.0971 72.3585 29.9982 72.455C29.9427 72.4043 29.8824 72.3621 29.8414 72.3066C29.7015 72.1185 29.5797 72.1233 29.4169 72.2934C29.1624 72.5611 28.7391 72.502 28.6414 72.2487C28.5341 72.2198 28.4545 72.18 28.3785 72.1848C28.2953 72.1908 28.2145 72.2367 28.1337 72.2668C28.1144 72.2753 28.0867 72.3066 28.0818 72.303C27.8418 72.1004 27.7044 72.3874 27.5174 72.4128C27.3655 72.432 27.2026 72.3621 27.0278 72.3283C27.0254 72.3537 27.0133 72.4429 26.9988 72.549C26.9241 72.5527 26.8469 72.5575 26.7456 72.5635C26.7649 72.5008 26.7817 72.4465 26.7938 72.4067C26.6141 72.3392 26.4356 72.2729 26.2559 72.2065C26.2704 72.1715 26.2849 72.1378 26.2993 72.1028C26.3886 72.145 26.4778 72.1884 26.5936 72.2427C26.6238 72.1715 26.6539 72.1004 26.6816 72.0329C26.6455 72.0111 26.6238 71.9918 26.6177 71.9955C26.438 72.1269 26.3138 71.9774 26.1896 71.8966C26.0026 71.7748 25.9038 71.7748 25.8917 72.0437C25.7554 71.8737 25.7626 71.6867 25.8012 71.5468C25.63 71.3442 25.4804 71.1669 25.3478 71.0089C25.2621 71.0536 25.1789 71.1042 25.0885 71.1356C25.0728 71.1404 24.9944 71.0427 25.0041 71.0246C25.0499 70.939 25.1162 70.8642 25.2199 70.7279C25.1572 70.6616 25.0583 70.5699 24.9775 70.465C24.9341 70.4071 24.9076 70.3275 24.9003 70.2552C24.8931 70.1756 24.9172 70.0923 24.9305 69.9874C24.8195 70.0188 24.7351 70.0429 24.6229 70.0755C24.6229 69.9114 24.6133 69.7667 24.6254 69.6232C24.6531 69.2927 24.2563 69.1914 24.2382 68.8803C24.225 68.6789 24.1092 68.5522 23.8619 68.6198C23.8788 68.4365 24.0489 68.2435 23.7522 68.1362C23.675 68.1084 23.6762 67.8938 23.6147 67.7792C23.5327 67.6296 23.4242 67.4946 23.3277 67.3535C23.3048 67.3691 23.2818 67.3848 23.2589 67.4005C23.2662 67.3076 23.2734 67.2148 23.2843 67.0712C23.1516 67.0495 23.0069 67.0435 22.879 66.9953C22.8477 66.9832 22.8706 66.8312 22.867 66.7444C22.8634 66.6383 22.8911 66.5153 22.8477 66.4296C22.6885 66.1209 22.627 66.1173 22.3327 66.3356C22.3858 66.1571 22.4376 65.9786 22.4895 65.8037C22.3761 65.7663 22.2603 65.7289 22.2037 65.7096C22.2121 65.5034 22.2193 65.3575 22.2266 65.1874C22.0445 65.1874 21.8997 65.1874 21.7309 65.1874C21.9419 64.6121 21.3281 64.3251 21.2509 63.8379C21.2473 63.8174 21.2256 63.7896 21.2051 63.7824C20.9928 63.704 20.9602 63.5484 20.9952 63.3386C20.9663 63.3844 20.9373 63.4302 20.9108 63.4712C20.8191 63.4109 20.7178 63.3446 20.6117 63.2759C20.6117 63.1203 20.6117 62.9466 20.6117 62.8152C20.4429 62.7404 20.3078 62.6801 20.1679 62.6174C20.268 62.504 20.3319 62.4292 20.397 62.3557C20.3717 62.334 20.3464 62.3122 20.321 62.2905C20.2776 62.352 20.2342 62.4123 20.2185 62.4341C20.0581 62.1736 19.8664 61.9191 19.7373 61.6369C19.6191 61.3776 19.5685 61.0869 19.4901 60.8168C19.3502 60.8264 19.2513 60.8337 19.1874 60.8385C19.1536 60.7263 19.1512 60.6154 19.0945 60.5551C18.9341 60.3826 18.8798 60.2065 19.0004 59.9894C18.7592 59.8495 18.4758 59.747 18.6519 59.3707C18.6808 59.3104 18.6109 59.1717 18.5494 59.1042C18.4071 58.951 18.2406 58.8184 18.0465 58.6423C17.991 58.4819 18.073 58.2178 17.8861 58.0308C17.827 57.9705 17.7401 57.9368 17.6461 57.8789C17.9259 57.6172 17.4905 57.5219 17.4712 57.2976C17.4603 57.1625 17.3277 57.0395 17.2601 56.9056C17.2264 56.8369 17.2143 56.7561 17.1938 56.6861C17.1154 56.6765 17.0286 56.6656 16.8911 56.6475C17.2264 56.387 16.867 56.3243 16.8718 56.2001C16.6981 56.2471 16.5425 56.2881 16.352 56.34C16.4581 56.0457 16.5474 55.7985 16.6451 55.5283C16.5727 55.509 16.5076 55.4934 16.4931 55.4897C16.4461 55.2678 16.4232 55.064 16.3556 54.8759C16.2893 54.695 16.1771 54.5297 16.0625 54.3175C15.9058 54.3452 15.8684 54.2258 15.8985 54.0232C15.9299 53.8206 15.784 53.5311 15.6272 53.3912C15.5934 53.3599 15.5608 53.2839 15.5753 53.2465C15.6501 53.0536 15.5741 52.9595 15.3811 52.9366C15.5138 52.6797 15.5042 52.6616 15.1942 52.6037C15.2075 52.459 15.3064 52.2974 15.0796 52.1925C15.0193 52.1659 15.0338 51.9199 15.0567 51.7824C15.0953 51.552 15.0326 51.4363 14.7842 51.4616C14.8951 51.1878 14.8891 51.1685 14.6901 51.0889C14.7226 50.9406 14.7637 50.8007 14.7817 50.6572C14.8336 50.2773 14.8348 49.8998 15.0748 49.5549C15.4583 49.0025 15.7743 48.4007 16.1626 47.8507C16.4955 47.3792 16.8766 46.9402 17.2601 46.5072C17.5436 46.1888 17.8656 45.9054 18.1683 45.6039C18.2587 45.5122 18.3468 45.417 18.424 45.3133C18.7255 44.9129 19.1801 44.6897 19.5371 44.3545C19.7192 44.1832 19.87 43.9758 20.0557 43.8081C20.1992 43.6779 20.3645 43.5657 20.5381 43.4789C20.8517 43.3233 21.0012 42.9929 21.2533 42.8083C21.4644 42.654 21.6537 42.543 21.7454 42.2885C21.7647 42.2355 21.9154 42.2415 21.9842 42.192C22.3556 41.9207 22.7572 41.6771 23.0708 41.349C23.2517 41.1609 23.4169 41.0704 23.6545 41.0077C23.7775 40.9752 23.8463 40.7677 23.9705 40.6905C24.19 40.5555 24.1996 40.5723 24.1996 40.3046C24.272 40.336 24.3311 40.3625 24.3914 40.3878C24.5072 40.4542 25.2272 39.9078 25.2525 39.7547C25.4431 39.7137 25.6577 39.7607 25.753 39.4821C25.7831 39.3965 26.0617 39.417 26.2016 39.3434C26.5791 39.1468 26.9409 38.9213 27.3136 38.7151C27.3908 38.6716 27.4921 38.6741 27.5717 38.6343C27.9926 38.4208 28.4039 38.1904 28.8284 37.9866C29.1564 37.8286 29.4953 37.696 29.833 37.5597C30.2382 37.3945 30.6471 37.2389 31.0535 37.0773C31.0873 37.064 31.1186 37.0399 31.1464 37.0146C31.3224 36.8602 31.5178 36.7685 31.7578 36.7251C32.0738 36.6672 32.3741 36.5297 32.6865 36.4429C32.8843 36.3886 33.0977 36.3838 33.2931 36.3223C33.6453 36.2113 33.989 36.0751 34.3375 35.952C34.3556 35.946 34.3809 35.9617 34.4026 35.9641C35.0129 36.0111 35.6002 35.8628 36.1948 35.7663C36.4601 35.7229 36.6266 35.9376 36.8316 36.0522C36.9425 36.1149 37.0644 36.1583 37.2018 36.186C37.3791 36.5153 37.4937 36.8686 37.4961 37.2763C37.4997 37.6996 37.5323 38.1253 37.4431 38.539C37.3659 38.8972 37.2163 39.2385 37.1114 39.5906C36.8786 40.3818 36.3829 41.0162 35.9066 41.6662C35.6424 42.028 35.4242 42.4224 35.1552 42.7794C34.8995 43.1183 34.6221 43.4451 34.2338 43.655C34.1614 43.6936 34.1228 43.7973 34.0698 43.8708C34.0408 43.8178 34.0071 43.7539 33.9649 43.6767C33.7466 43.901 33.5343 44.1096 33.3401 44.3328C33.3112 44.3653 33.3655 44.4702 33.3727 44.5028C33.3124 44.6632 33.2135 44.8103 33.2123 44.9587C33.2087 45.4073 33.2412 45.8572 33.2654 46.3058C33.2702 46.3878 33.2895 46.4759 33.3257 46.5482C33.4378 46.7713 33.5669 46.986 33.6742 47.2115C33.7007 47.2658 33.6658 47.349 33.6694 47.4178C33.6718 47.4998 33.6585 47.6011 33.6995 47.6602C33.9685 48.0413 33.8804 48.5249 34.0746 48.9265C34.0927 48.9627 34.0541 49.0664 34.0143 49.0857C33.8165 49.181 33.6163 49.2787 33.4053 49.3354C33.2039 49.3908 32.9795 49.3643 32.7842 49.4306C32.2511 49.6115 31.7132 49.7949 31.2055 50.0361C30.9667 50.1494 30.7918 50.3967 30.5783 50.5908C30.5651 50.5728 30.5313 50.5209 30.4553 50.4051C30.1647 50.7163 29.8897 51.0081 29.6171 51.3024C29.347 51.5943 29.0756 51.8849 28.8127 52.1828C28.7379 52.2684 28.6909 52.3794 28.6282 52.4759C28.4232 52.7894 28.159 53.0801 28.0276 53.4214C27.9021 53.7482 27.7514 54.1076 27.9311 54.4972C27.9781 54.6009 27.8551 54.7914 27.7936 54.935C27.6983 55.1581 27.7092 55.3619 27.7852 55.462C27.7852 55.7635 27.7719 55.9661 27.7876 56.1675C27.8129 56.5028 27.8539 56.8369 27.8925 57.1709C27.9552 57.7305 27.995 58.2962 28.0999 58.8485C28.1446 59.0861 28.3243 59.3008 28.4581 59.5155C28.4786 59.5492 28.5884 59.5215 28.6523 59.5372C28.6921 59.5468 28.7548 59.5866 28.7548 59.6107C28.75 59.8266 28.9128 59.8724 29.0611 59.952C29.1733 60.0123 29.2493 60.1378 29.3614 60.1993C29.4422 60.2427 29.5556 60.2258 29.6533 60.2367C29.6629 60.2101 29.6714 60.1836 29.681 60.1583C29.7003 60.2415 29.7208 60.3259 29.7462 60.432C29.8402 60.3959 29.921 60.3657 29.9343 60.3609C30.1104 60.4333 30.2322 60.5261 30.3516 60.5237C30.5844 60.5189 30.7665 60.5768 30.9329 60.7396C30.9908 60.7963 31.0993 60.8059 31.1874 60.8264C31.2826 60.8481 31.3864 60.8445 31.4768 60.8771C31.6553 60.941 31.7626 61.0049 31.5866 61.2268C31.3176 61.5645 31.0197 61.9155 30.8786 62.3135C30.6748 62.8899 30.1876 63.2493 29.9331 63.7691C29.8065 64.026 29.7558 64.3191 29.6702 64.5965C29.7811 64.6435 29.8824 64.6869 29.9994 64.7376C29.9645 64.7846 29.9367 64.8232 29.8933 64.8811C29.962 64.8871 30.0284 64.9149 30.0634 64.8932C30.5023 64.6218 30.9848 64.4349 31.355 64.0345C31.8254 63.5267 32.1522 62.9334 32.5224 62.3653C32.7335 62.0421 32.9301 61.7104 33.1267 61.392C33.6778 61.5114 34.2495 61.626 34.8163 61.7623C35.3144 61.8829 35.8028 62.0433 36.3046 62.1494C36.4215 62.1748 36.5699 62.0554 36.7544 61.983C36.7785 62.0144 36.8473 62.1072 36.9027 62.1796C37.1982 62.2085 37.4841 62.2411 37.7711 62.2628C38.0159 62.2797 38.2631 62.2966 38.508 62.2917C38.795 62.2857 39.0965 62.1892 39.3618 62.2544C39.6368 62.3231 39.8973 62.3219 40.1699 62.3231C40.7584 62.3255 41.353 62.387 41.9355 62.3279C42.2057 62.3002 42.4698 62.2616 42.7411 62.2869C42.7677 62.2893 42.8111 62.2857 42.8183 62.2712C42.9438 62.018 43.1295 62.0903 43.3466 62.1289C43.4816 62.1531 43.6987 62.223 43.7904 61.989C43.8 61.9649 43.8941 61.9613 43.9448 61.9685C44.3126 62.0252 44.6358 61.9131 44.9626 61.7514C45.2569 61.6067 45.5813 61.5235 45.8889 61.4041C45.9721 61.3715 46.0565 61.3209 46.1144 61.257C46.2073 61.1533 46.3954 61.3125 46.4678 61.0797C46.5088 60.9482 46.7476 60.8783 46.9514 60.7456C46.8983 60.8771 46.8694 60.9482 46.8404 61.0194C46.8573 61.0459 46.873 61.0724 46.8887 61.0978C47.0551 61.0097 47.2227 60.9217 47.3892 60.8337C47.3904 60.8421 47.3904 60.8493 47.3916 60.8578C47.5568 60.7987 47.722 60.7384 47.9078 60.672C47.8788 60.5997 47.8571 60.543 47.8113 60.4308C48.266 60.6841 48.5192 60.4875 48.6615 60.0763C48.8087 60.2475 48.8449 60.303 49.039 60.1317C49.6722 59.5709 49.8254 58.7786 50.1534 58.0694C50.2402 57.8825 50.3874 57.7016 50.2535 57.4761C50.4356 57.3929 50.3777 57.218 50.4127 57.0757C50.4802 56.7922 50.52 56.5245 50.4272 56.2254C50.3741 56.053 50.4899 55.8322 50.508 55.6308C50.5514 55.1436 50.5912 54.6564 50.6117 54.1667C50.6141 54.0968 50.508 54.0208 50.4646 53.9641C50.4646 53.8471 50.4646 53.7265 50.4646 53.5589C50.5876 53.4515 50.6623 53.308 50.4199 53.1428C50.2921 53.0548 50.3476 52.6254 50.4899 52.4928C50.6286 52.3613 50.6238 52.2142 50.4621 52.1575C50.1835 52.061 50.1956 51.9054 50.2945 51.6932C50.3054 51.6702 50.2957 51.6377 50.2957 51.5955C50.1944 51.5846 50.0931 51.5738 49.9858 51.5617C49.9315 51.4917 50.0545 51.2095 49.8314 51.3518C49.7325 51.1951 49.6396 51.0407 49.5407 50.8899C49.4865 50.8079 49.4032 50.7392 49.3719 50.6499C49.3044 50.463 48.9377 50.2712 48.6121 50.2749C48.5072 49.9589 48.2117 49.9239 47.9548 49.8274C47.8619 49.7924 47.7799 49.7297 47.6859 49.6948C47.5677 49.6525 47.4386 49.5862 47.3228 49.6019C47.1226 49.6284 47.0406 49.4765 46.9104 49.3969C46.7681 49.3112 46.6221 49.2316 46.4352 49.1243C46.4581 49.0688 46.5003 48.9663 46.5233 48.9108C46.3592 48.8264 46.1988 48.7432 46.001 48.6407C46.001 48.6407 45.9612 48.7082 45.9492 48.7794C45.9202 48.9422 45.843 48.9518 45.7104 48.8843C45.6139 48.8361 45.5042 48.8107 45.3956 48.7734C45.3992 48.707 45.4583 48.4984 45.4016 48.461C45.1809 48.3127 45.1001 48.5539 45.0374 48.6636C44.9626 48.5732 44.9168 48.4658 44.8638 48.4634C44.6684 48.4525 44.5152 48.2584 44.2716 48.385C44.1401 48.4538 43.917 48.3488 43.7542 48.2668C43.6131 48.309 43.4732 48.3573 43.3297 48.3923C43.2802 48.4043 43.1874 48.3971 43.1765 48.3717C43.0764 48.1486 42.91 48.1281 42.6965 48.1728C42.518 48.2089 42.3371 48.1281 42.1514 48.2885C42.0477 48.3778 41.7582 48.3585 41.6183 48.2753C41.4242 48.1595 41.2891 48.1957 41.1311 48.2909C40.8525 47.9786 40.8525 47.9786 40.5124 48.1957C40.4847 48.2138 40.4437 48.2126 40.4075 48.2198C40.1988 48.2596 40.0022 48.2644 39.9251 47.9882C39.8177 48.0763 39.7333 48.1462 39.6959 48.1764C39.5066 48.145 39.3643 48.0944 39.2256 48.1028C38.953 48.1173 38.6816 48.1619 38.4115 48.2029C38.3825 48.2077 38.3669 48.2909 38.3367 48.2958C38.2402 48.3151 38.0967 48.3585 38.0509 48.3127C37.8459 48.1076 37.6686 48.1812 37.5178 48.3476C37.4153 48.4622 37.3634 48.5587 37.2296 48.385C37.197 48.344 37.0716 48.3512 36.998 48.3705C36.6833 48.4598 36.3624 48.5129 36.0621 48.3633C35.9862 48.3259 35.9825 48.1438 35.9222 47.9605C35.71 47.9074 35.7667 47.7241 35.9283 47.5553C36.1514 47.3237 35.9645 47.0934 35.9319 46.8739C35.9126 46.7364 35.7944 46.629 35.9138 46.4674C35.9584 46.4059 35.9271 46.2431 35.874 46.1659C35.8233 46.0924 35.6979 46.0706 35.5761 46.0128C35.6883 45.7969 35.7594 45.5412 35.3783 45.4073C35.3856 45.3856 35.394 45.3639 35.4024 45.3422C35.5315 45.3482 35.6605 45.3555 35.8125 45.3627C35.8125 45.3482 35.8077 45.3181 35.8137 45.2903C35.8209 45.259 35.8366 45.2288 35.903 45.1999C35.9078 45.2807 35.9138 45.3603 35.9198 45.4592C35.9741 45.4471 36.0284 45.4423 36.0766 45.4242C36.2539 45.3555 36.4215 45.1348 36.6024 45.4568C36.641 45.5279 36.9088 45.5255 37.0414 45.4761C37.2453 45.3989 37.5383 45.6678 37.6782 45.3108C37.6915 45.2771 37.9243 45.2988 38.0364 45.3422C38.2209 45.4134 38.268 45.3277 38.2849 45.1529C38.6551 45.4182 38.9651 45.1215 39.2967 45.072C39.5114 45.0395 39.7152 44.9309 39.9214 44.8477C39.9685 44.8284 39.9998 44.7717 40.0396 44.7344C40.0927 44.6849 40.1542 44.592 40.2024 44.5969C40.5365 44.6355 40.791 44.4473 41.0672 44.3207C41.3518 44.1904 41.6424 44.0698 41.9174 43.9227C42.319 43.7092 42.7086 43.4741 43.1054 43.2509C43.2163 43.1894 43.3285 43.1183 43.4479 43.0893C43.7699 43.0146 44.0039 42.8059 44.2499 42.6105C44.2704 42.5937 44.2969 42.5659 44.315 42.5683C44.6877 42.631 44.883 42.3235 45.1568 42.1788C45.3184 42.0919 45.5078 42.0594 45.6742 41.981C45.9251 41.8616 46.194 41.7651 46.3411 41.4962C46.3653 41.4528 46.4412 41.4383 46.4955 41.4142C46.6318 41.3563 46.7693 41.2996 46.8899 41.2031C47.1564 41.2188 47.3602 41.1114 47.5773 40.9233C47.6943 40.8208 47.8559 40.7738 47.9271 40.6061C47.9343 40.5892 48.0706 40.6495 48.1261 40.6254C48.3431 40.5301 48.5494 40.4119 48.7628 40.3094C48.986 40.2033 49.2175 40.1129 49.4382 40.0019C49.6975 39.8704 49.9448 39.7161 50.2028 39.5846C50.4187 39.4749 50.6467 39.388 50.8638 39.2795C50.9856 39.2192 51.0941 39.1336 51.2026 39.0636C51.2979 39.0371 51.4041 39.019 51.5017 38.978C51.6754 38.9044 51.8467 38.8236 52.0143 38.7356C52.3363 38.5667 52.6451 38.3677 52.9767 38.2242C53.3783 38.0505 53.8004 37.9239 54.2117 37.7732C54.5132 37.6622 54.8135 37.5476 55.1138 37.4318C55.5588 37.2618 56.0051 37.0942 56.4465 36.9169C56.8336 36.7601 57.2075 36.5683 57.6018 36.4345C58.0179 36.2934 58.4955 36.2765 58.8646 36.0654C59.1902 35.8785 59.523 35.905 59.8414 35.8459C60.2141 35.776 60.6157 35.8652 61.0053 35.8821C61.0776 35.8857 61.1512 35.8761 61.2235 35.87C61.2513 35.8688 61.2863 35.8507 61.3068 35.8616C61.4708 35.9569 61.6288 36.063 61.7964 36.1523C62.1763 36.3537 62.1064 36.7444 62.1715 37.0664C62.2221 37.3173 62.1787 37.585 62.2137 37.8395C62.2824 38.3255 62.2969 38.8079 62.1437 39.2759C61.9568 39.8451 61.6855 40.3842 61.2561 40.8015C60.4951 41.5396 59.7124 42.2596 58.908 42.9506C58.3448 43.4331 57.7297 43.8564 57.1375 44.3062C56.6732 44.6584 56.2185 45.0238 55.7421 45.3591C55.4925 45.534 55.1994 45.6449 54.9389 45.8077C54.4505 46.1129 53.9994 46.4915 53.4832 46.734C52.9176 46.9993 52.6028 47.5046 52.1651 47.8893C51.995 48.0389 51.8756 48.2451 51.7237 48.4164C51.6802 48.467 51.6018 48.4863 51.5693 48.5044C51.4933 48.3633 51.4595 48.1969 51.3582 48.1317C51.0362 47.9219 50.8481 47.5758 50.5333 47.3635C50.4875 47.3321 50.4308 47.308 50.4006 47.2646C50.3283 47.1621 50.0762 47.191 50.1703 46.9595C50.1739 46.9498 50.1112 46.9161 50.0822 46.8907C49.9858 46.8075 49.8688 46.7376 49.8 46.6363C49.6637 46.4337 49.5106 46.4071 49.3152 46.6121C49.2971 46.2612 49.0113 46.2178 48.7858 46.108C48.313 45.8789 47.8451 45.6425 47.3663 45.429C47.0901 45.3048 46.6764 45.546 46.6306 45.8427C46.6246 45.8801 46.6861 45.9295 46.7524 46.0236C46.8453 45.8222 46.9188 45.6654 46.9912 45.5086C47.0141 45.5147 47.0382 45.5207 47.0623 45.5279C47.0238 45.6473 46.9924 45.7715 46.9454 45.8885C46.8453 46.1297 46.7765 46.3637 47.078 46.5892C47.0418 46.494 47.0225 46.4385 46.9972 46.3709C47.0672 46.336 47.1383 46.2998 47.2625 46.2359C47.2131 46.4505 47.1757 46.6194 47.1371 46.787C47.119 46.7834 47.1009 46.7798 47.0816 46.775C47.0877 46.7931 47.0889 46.8172 47.1009 46.8268C47.552 47.1995 47.8185 47.7253 48.2032 48.1535C48.6085 48.6021 49.0065 49.0568 49.3888 49.5247C49.5733 49.7527 49.7035 50.0252 49.8784 50.2616C50.0268 50.4606 50.2077 50.6355 50.3693 50.8248C50.4682 50.943 50.5562 51.0696 50.6479 51.1939C50.7854 51.3772 50.9241 51.5605 51.0579 51.7486C51.2424 52.0079 51.4209 52.272 51.6043 52.5326C51.6983 52.6664 51.8045 52.7918 51.8937 52.9281C51.9661 53.0355 52.0215 53.1537 52.0843 53.2682C52.1421 53.2381 52.2254 53.1935 52.3303 53.1392C52.3677 53.2634 52.399 53.3719 52.4316 53.4805C52.4135 53.4841 52.3966 53.4889 52.3785 53.4938C52.3363 53.4298 52.2941 53.3659 52.2519 53.302C52.2217 53.3177 52.1928 53.3346 52.1626 53.3502C52.3496 53.7157 52.5365 54.0811 52.756 54.5092C52.8308 54.3585 52.8585 54.303 52.8863 54.2475C52.908 54.2487 52.9285 54.2499 52.9502 54.2511C52.9586 54.3874 52.9671 54.5249 52.9767 54.6612C52.9852 54.7746 52.9586 54.9133 53.0153 54.9977C53.1926 55.263 53.2143 55.6212 53.5243 55.8166C53.5906 55.8588 53.5303 56.071 53.5677 56.1929C53.6256 56.3798 53.7112 56.5595 53.798 56.7356C53.8788 56.8984 54.0006 57.0443 54.0609 57.2132C54.1996 57.5955 54.2925 57.9959 54.4408 58.3734C54.5011 58.5265 54.6603 58.6411 54.787 58.7436C54.8244 58.8413 54.8642 58.939 54.8967 59.0379C54.91 59.0777 54.916 59.1223 54.91 59.1621C54.8497 59.5408 54.8798 59.8809 55.2428 60.1185C55.2839 60.1462 55.2368 60.3054 55.2272 60.4658C55.2537 60.4658 55.3345 60.4658 55.4539 60.4658C55.4045 60.549 55.3454 60.6528 55.2585 60.8011C55.2983 60.8493 55.3683 60.9325 55.4213 60.9965C55.3755 61.0978 55.2959 61.1943 55.3044 61.2811C55.3104 61.3414 55.437 61.3908 55.519 61.4511C55.4455 61.6007 55.3562 61.7816 55.2344 62.0276C55.4828 62.1603 55.7518 62.305 55.9833 62.428C56.0014 62.4268 55.9472 62.4316 55.8374 62.4413C55.905 62.5438 55.9544 62.6198 56.04 62.7488C56.2752 62.381 56.4706 62.053 56.4887 61.6477C56.4947 61.5295 56.5188 61.5633 56.6286 61.462C56.7468 61.3535 56.7974 61.1713 56.8782 61.0218C56.8553 61.0037 56.8324 60.9856 56.8107 60.9687C56.8674 60.9482 56.9253 60.9265 57.0133 60.8952C56.9988 60.7842 56.9807 60.6588 56.9651 60.5321C56.9578 60.467 56.9228 60.3802 56.9518 60.3404C57.1146 60.1149 57.2292 59.8917 57.0796 59.6095C57.07 59.5914 57.1592 59.5191 57.2111 59.4636C57.1423 59.4069 57.076 59.3526 56.9952 59.2863C56.9747 59.4093 56.9566 59.5131 56.9337 59.6493C56.6696 59.4033 56.8131 59.226 56.9313 59.0861C56.8939 58.8353 56.8625 58.617 56.8276 58.383C56.8698 58.3709 56.918 58.3553 56.9253 58.3541C56.8445 57.9488 56.7649 57.5545 56.6853 57.1529C56.596 57.1794 56.5056 57.2071 56.3645 57.2505C56.4175 56.8369 56.1353 56.4244 56.5104 56.0698C56.5622 56.0204 56.6189 55.9601 56.6841 55.9432C57.0012 55.8588 57.322 55.7876 57.6416 55.7092C57.667 55.7032 57.6971 55.6899 57.7128 55.6694C57.9431 55.3812 58.2893 55.3149 58.6077 55.1931C58.7319 55.146 58.838 55.0544 58.955 54.988C59.2312 54.8337 59.5074 54.6793 59.7872 54.5334C59.9078 54.4694 60.0404 54.4272 60.1671 54.3705C60.5433 54.2041 60.9136 54.0196 61.2959 53.8688C61.7228 53.7012 62.1618 53.5625 62.5948 53.4093C62.8336 53.3249 63.07 53.2345 63.3088 53.1525C63.4619 53.0994 63.6163 53.0403 63.7755 53.0138C64.5896 52.8763 65.4024 52.7303 66.2213 52.6254C66.5759 52.5808 66.9437 52.6158 67.3044 52.6363C67.3912 52.6423 67.5021 52.7171 67.5528 52.7931C67.8109 53.1802 67.9339 53.6119 67.9677 54.0787C68.0002 54.5237 68.0955 54.9639 68.1329 55.4077C68.1558 55.6839 68.1076 55.9637 68.1172 56.2411ZM49.0028 55.737C48.9064 55.9408 48.8099 56.1434 48.6881 56.3979C48.8617 56.3786 48.951 56.3677 49.0523 56.3557C49.039 56.4461 49.0246 56.5426 49.0113 56.627C48.9486 56.6415 48.8424 56.6608 48.8437 56.668C48.8702 56.9358 48.5518 57.1866 48.7315 57.3856C48.7146 57.5701 48.6929 57.6811 48.6965 57.7908C48.7025 57.9114 48.7846 58.0562 48.7411 58.1454C48.6362 58.3565 48.4843 58.693 48.3371 58.7002C48.1104 58.7122 48.0682 58.8256 47.9536 58.9402C47.8414 59.0536 47.6762 59.1127 47.5025 59.214C47.4748 59.1332 47.4435 59.0391 47.4049 58.9269C46.9019 59.1018 46.4075 59.2755 45.878 59.46C45.8708 59.3297 45.913 59.1211 45.8491 59.0813C45.6187 58.9366 45.8225 58.7955 45.7779 58.6712C45.7285 58.5784 45.6802 58.4855 45.6187 58.3685C45.597 58.4505 45.5789 58.5181 45.5596 58.5856C45.5198 58.3625 45.3848 58.1912 45.4957 57.909C45.6043 57.6365 45.6959 57.2771 45.5355 56.937C45.4559 56.7693 45.4668 56.5595 45.433 56.3412C46.0396 56.1916 46.6644 56.0903 47.2625 55.743C47.5532 55.8142 48.4035 55.2075 48.7846 54.8433C48.8207 55.0387 48.8557 55.2353 48.8967 55.4596C48.875 55.5199 48.8352 55.6272 48.7833 55.7683C48.8967 55.7514 48.9606 55.743 49.0028 55.737ZM48.073 53.3249C47.8837 53.4347 47.6907 53.5372 47.4989 53.6409C47.4772 53.653 47.4386 53.659 47.4205 53.6481C47.1407 53.4769 46.92 53.7362 46.6656 53.7579C46.5606 53.7675 46.4678 53.9207 46.3387 54.0365C46.3182 53.9484 46.3062 53.9002 46.2808 53.7929C46.0432 53.9026 45.8141 54.0087 45.5427 54.1342C45.544 54.1366 45.5029 54.0666 45.4559 53.9834C45.4209 54.0244 45.3667 54.0811 45.3196 54.1426C45.2159 54.2789 44.9204 54.3187 44.8384 54.1788C44.6997 53.9388 44.52 54.1173 44.3922 54.139C44.2583 54.1607 44.1486 54.3283 43.993 54.4622C43.9472 54.3525 43.9122 54.268 43.8676 54.1595C43.7807 54.2367 43.6951 54.3139 43.5938 54.4043C43.56 54.338 43.5287 54.2777 43.4877 54.1957C43.3948 54.2548 43.3007 54.3139 43.2634 54.338C43.0692 54.3066 42.9208 54.2572 42.7761 54.2656C42.477 54.2849 42.1622 54.4115 41.8861 54.35C41.5641 54.2789 41.4314 54.549 41.1854 54.5961C40.9502 54.6395 40.7801 54.7022 40.7862 54.3428C40.3954 54.4091 40.0324 54.4875 39.6658 54.5285C39.427 54.5551 39.1809 54.5153 38.9397 54.5261C38.4851 54.5466 38.0316 54.5695 37.5793 54.6166C37.4105 54.6335 37.2585 54.654 37.0812 54.6202C36.904 54.5852 36.7038 54.6733 36.4686 54.7155C36.3154 54.5442 36.0561 54.5888 35.7872 54.5961C35.5809 54.5997 35.2999 54.5744 35.1805 54.4453C34.9912 54.2391 34.9116 54.3923 34.7862 54.4622C34.762 54.4755 34.7367 54.4899 34.7126 54.5044C34.6812 54.2572 34.5196 54.1571 34.2603 54.221C34.2266 54.2294 34.1771 54.2403 34.1542 54.2234C33.9166 54.0509 33.6513 54.0497 33.3727 54.0594C33.1942 54.0654 33.1025 53.8616 32.8782 53.8435C32.5671 53.8182 32.2704 53.6228 31.9665 53.5034C31.6879 53.3937 31.4057 53.2899 31.1271 53.1814C31.0788 53.1621 31.0378 53.1295 30.9932 53.103C30.7665 52.9643 30.5397 52.8256 30.2841 52.6688C30.3576 52.6266 30.4481 52.5627 30.5482 52.5193C30.8702 52.3794 31.1898 52.231 31.5214 52.1201C31.8097 52.0224 32.1184 51.985 32.4103 51.8946C32.6334 51.8234 32.9168 51.8934 33.0688 51.6256C33.0977 51.575 33.2063 51.5303 33.2666 51.5424C33.6441 51.6148 33.9588 51.4712 34.2881 51.3145C34.4666 51.2288 34.6861 51.2312 34.8875 51.1939C34.9876 51.1758 35.0889 51.1589 35.1866 51.1348C35.6473 51.0202 36.1044 50.896 36.5663 50.7898C37.0523 50.6789 37.5419 50.5812 38.0328 50.4883C38.1401 50.4678 38.2559 50.4992 38.3669 50.4907C38.9277 50.4521 39.4861 50.3955 40.0469 50.3726C40.2591 50.3641 40.4762 50.4232 40.6873 50.4666C41.1021 50.5498 41.5146 50.6475 41.9283 50.7332C42.1104 50.7705 42.2949 50.7922 42.477 50.8224C42.664 50.8538 42.8509 50.8875 43.0378 50.9153C43.3369 50.9587 43.6396 50.984 43.9351 51.0431C44.5031 51.1577 45.0652 51.2952 45.6308 51.4134C46.2591 51.5436 46.8248 51.8475 47.4181 52.0694C47.6774 52.1659 47.8921 52.3806 48.1249 52.5434C48.2117 52.6037 48.2949 52.6664 48.3962 52.74C48.465 53.0126 48.3046 53.1898 48.073 53.3249ZM44.2945 56.9732C44.1703 57.072 44.0955 57.1323 44.0798 57.1456C44.0557 57.3398 44.0051 57.4845 44.0316 57.6136C44.0666 57.7836 44.1582 57.9404 43.9001 57.9476C43.9267 58.2347 43.9508 58.5096 43.9833 58.8714C43.7819 59.1018 43.9267 59.4322 44.0485 59.7663C43.7795 59.8785 43.507 59.9931 43.2175 60.1137C43.1741 60.0196 43.0993 59.9062 42.9232 60.0678C42.8798 60.1076 42.7568 60.0606 42.7025 60.0558C42.6097 59.7748 42.5253 59.5227 42.4457 59.2706C42.4372 59.2441 42.4565 59.2091 42.4601 59.1778C42.4903 58.8521 42.4035 58.5506 42.2611 58.2624C42.2491 58.2383 42.2334 58.1997 42.243 58.1828C42.5446 57.71 42.2443 57.253 42.2418 56.7802C42.9124 56.709 43.5998 56.6355 44.3222 56.5583C44.1691 56.6994 44.0654 56.7959 43.9158 56.9334C44.0798 56.9502 44.1558 56.9587 44.2945 56.9732ZM40.6523 57.8379C40.6571 57.8789 40.7331 57.9114 40.8368 57.9971C40.7838 58.0911 40.6318 58.254 40.6028 58.4349C40.5522 58.752 40.5739 59.0801 40.5787 59.4033C40.5787 59.4286 40.6837 59.4528 40.7705 59.4913C40.5425 59.6698 40.4979 59.8568 40.7066 60.0497C40.586 60.0956 40.4822 60.1354 40.3641 60.1812C40.3604 60.139 40.3556 60.0811 40.3448 59.9641C40.0372 60.1185 39.7514 60.2632 39.4788 60.3995C39.4197 60.2777 39.3413 60.1161 39.2424 59.911C39.1628 60.0111 39.1062 60.0835 39.0254 60.186C38.9602 60.1329 38.8855 60.0739 38.7842 59.9918C38.6913 60.0606 38.5924 60.1607 38.4718 60.2053C38.4392 60.2174 38.344 60.0594 38.2619 59.9617C38.0943 60.098 37.9013 60.2548 37.7072 60.4115C37.6879 60.3983 37.6698 60.385 37.6505 60.3705C37.7289 60.2415 37.8085 60.1124 37.8869 59.9834C37.8712 59.9593 37.8567 59.934 37.841 59.9098C37.6276 60.0968 37.4322 60.1836 37.3212 59.8302C37.1271 59.9014 36.9184 60.2487 36.7653 59.8423C36.5699 59.8724 36.3649 59.9038 36.1598 59.9352C36.1948 59.7084 35.6859 59.5408 36.1031 59.2731C36.026 59.1645 35.9536 59.062 35.874 58.951C35.95 58.7943 36.0501 58.6242 36.1104 58.4409C36.1321 58.3734 36.0597 58.2745 36.0115 58.1321C35.9271 58.3348 35.8752 58.4602 35.7944 58.6556C35.7594 58.2552 35.7305 57.9283 35.704 57.6268C35.9524 57.6111 35.9608 57.4459 36.0103 57.2783C35.9319 57.2783 35.8704 57.2783 35.8016 57.2783C35.8161 57.2192 35.8101 57.1155 35.8547 57.0865C35.956 57.019 36.0947 56.9297 36.196 56.9514C36.6459 57.0479 37.0861 57.0696 37.5323 56.9394C37.6071 56.9177 37.6999 56.9756 37.7807 56.9647C37.9387 56.9454 38.1474 57.0877 38.239 56.8091C38.2571 56.7549 38.4561 56.7609 38.5707 56.7392C38.672 56.9358 39.0109 57.0178 39.2521 56.9056C39.2907 56.8887 39.3269 56.8465 39.3643 56.8465C39.8563 56.8429 40.3484 56.8441 40.9116 56.8441C40.8079 57.1046 40.7198 57.2915 40.6632 57.4869C40.6306 57.5967 40.6378 57.7221 40.6523 57.8379ZM34.7114 57.8246C34.5667 58.1382 34.4231 58.4517 34.3025 58.7135C34.4617 58.9137 34.6004 59.0873 34.7391 59.2598C34.7247 59.2815 34.709 59.3032 34.6945 59.3249C34.6318 59.3129 34.5691 59.2936 34.5052 59.2887C34.3834 59.2803 34.2266 59.2284 34.1458 59.2839C33.9287 59.4335 33.8225 59.2996 33.6875 59.1754C33.6344 59.1271 33.5536 59.1078 33.4837 59.0789C33.3196 59.0101 33.1532 58.9438 32.988 58.8763C33.0229 58.857 33.0567 58.8377 33.0905 58.8184C33.0724 58.5229 33.0555 58.2274 33.0338 57.9332C33.0217 57.7667 33.0061 57.6003 32.9844 57.4351C32.9578 57.2361 32.8975 57.0371 32.8999 56.8381C32.9023 56.6777 32.9566 56.5088 33.0278 56.3629C33.0459 56.3279 33.228 56.3569 33.3281 56.3846C33.8141 56.5161 34.2989 56.6572 34.7838 56.7947C34.7114 56.9756 34.6463 57.1384 34.5811 57.3C34.7066 57.3289 34.7777 57.3446 34.8477 57.3603C34.8006 57.4025 34.7295 57.4375 34.715 57.4893C34.6824 57.5967 34.6812 57.7137 34.7114 57.8246ZM31.3429 58.0272C31.437 58.0948 31.5431 58.1442 31.63 58.1924C31.4901 58.5133 31.3249 58.6278 31.0234 58.5084C30.9534 58.4807 30.8099 58.6351 30.6712 58.7255C30.6941 58.6411 30.7122 58.5796 30.7267 58.5289C30.5578 58.4168 30.3866 58.3155 30.2286 58.1961C30.0682 58.0731 29.9633 58.0598 29.921 58.295C29.9114 58.348 29.8668 58.3939 29.8258 58.4662C29.8101 58.2986 29.7968 58.1695 29.7811 58.0031C29.827 57.9633 29.9162 57.8873 29.9572 57.8511C29.9235 57.6919 29.9005 57.5846 29.8776 57.4773C29.8149 57.177 29.7474 56.8791 29.6907 56.5788C29.6666 56.4449 29.6654 56.3062 29.6497 56.1699C29.6219 55.9468 29.5846 55.7249 29.5628 55.5018C29.5532 55.4065 29.5725 55.3088 29.5797 55.2051C29.5375 55.187 29.4845 55.1629 29.4362 55.1424C29.4905 55.0242 29.5363 54.9217 29.5894 54.8071C29.8764 54.9832 30.1598 55.175 30.4613 55.333C30.7737 55.4958 31.1017 55.6345 31.431 55.7635C31.595 55.8286 31.6408 55.8986 31.5878 56.0759C31.5058 56.3424 31.4599 56.621 31.3996 56.8875C31.5456 56.9575 31.6589 57.0117 31.7988 57.0781C31.7482 57.1263 31.6903 57.1939 31.6818 57.1878C31.3779 56.9852 31.4467 57.2542 31.4105 57.3965C31.3683 57.5617 31.3116 57.7233 31.2766 57.8885C31.2682 57.9295 31.3044 58.0007 31.3429 58.0272ZM56.9253 58.3541C56.9265 58.3529 56.9265 58.3529 56.9253 58.3541V58.3541ZM48.9558 21.0588C48.9305 21.0515 48.8931 21.0986 48.8581 21.1058C48.5916 21.1613 48.5072 21.4954 48.1454 21.4725C47.7594 21.4471 47.5435 21.903 47.1492 22.0176C46.8139 22.1141 46.5233 22.3782 46.2217 22.582C46.0613 22.6905 45.9226 22.8329 45.7671 22.9498C45.3835 23.2405 44.9711 23.4962 44.6153 23.817C44.0762 24.3054 43.56 24.8204 43.0644 25.3523C42.5241 25.9324 41.9898 26.5233 41.5062 27.1504C41.2469 27.4881 41.0768 27.9042 40.908 28.301C40.7295 28.7219 40.6897 29.1826 40.7367 29.6312C40.7645 29.9002 40.6571 30.2837 41.1673 30.3826C40.8923 30.4103 40.9176 30.502 40.9936 30.6636C41.0479 30.7782 41.0274 30.9386 41.0117 31.0761C40.9803 31.3426 40.9104 31.6031 41.0672 31.8612C41.2324 32.1326 41.3856 32.4124 41.5243 32.6982C41.7088 33.0781 41.8619 33.4737 42.0525 33.8511C42.149 34.0417 42.3154 34.1949 42.4155 34.3842C42.5759 34.6869 42.6989 35.0101 42.8545 35.3165C42.9293 35.4636 42.9823 35.6722 43.2404 35.5902C43.273 35.5794 43.3345 35.6638 43.355 35.6807C43.3212 35.8061 43.2428 35.9388 43.2802 35.9894C43.4406 36.2126 43.6179 36.4284 43.8193 36.6142C44.0388 36.818 44.3536 36.8855 44.5695 37.1123C44.6406 37.1858 44.7829 37.1918 44.8915 37.2292C44.9783 37.298 45.2497 37.3535 45.468 37.3185C45.5524 37.3052 45.6537 37.1002 45.7526 37.3028C45.8949 37.1533 46.2471 37.4198 46.2591 37.0821C46.4352 37.1352 46.6318 37.263 46.7729 37.2172C46.9273 37.1677 47.1805 37.4403 47.2324 37.0942C47.4905 37.216 47.722 37.2136 47.9247 37.0049C47.9512 37.0688 47.9765 37.134 47.991 37.1677C48.4939 37.0616 48.9775 36.9772 49.4491 36.8517C49.7289 36.7782 50.0762 36.8517 50.2439 36.5213C50.5779 36.7143 51.1411 36.5756 51.1725 36.2861C51.5271 36.5116 51.6947 36.2921 51.7948 35.9846C51.8672 36.0944 51.954 36.2306 51.9564 36.2282C52.1747 36.098 52.5377 36.2813 52.6294 35.9086C52.8971 36.0582 54.1815 35.4805 54.3842 35.1778C54.5482 35.1621 54.6712 35.1742 54.7713 35.1344C54.8629 35.0982 54.9196 34.9764 55.0101 34.9402C55.2404 34.8461 55.5106 34.8232 55.712 34.6893C55.9797 34.5133 56.2354 34.3287 56.5381 34.2166C57.0724 34.0176 57.4426 33.5183 58.0276 33.4073C58.0686 33.3989 58.0927 33.3193 58.1337 33.2831C58.1795 33.2445 58.2338 33.2156 58.2869 33.1866C58.5076 33.066 58.7319 32.9527 58.949 32.8272C59.2457 32.6572 59.4024 32.346 59.6388 32.1133C59.9572 31.8009 60.2563 31.4403 60.4625 31.0483C60.8895 30.2367 61.2477 29.39 61.6372 28.5579C61.6553 28.5193 61.6879 28.4831 61.7241 28.459C61.9508 28.3082 62.0545 28.0465 61.9773 27.7945C62.1269 27.7233 62.2125 27.6449 62.1727 27.4302C62.157 27.3494 62.2221 27.0479 62.4742 27.0166C62.4995 27.0142 62.5417 26.9249 62.5333 26.9141C62.4187 26.7838 62.5357 26.7368 62.6069 26.6572C62.7468 26.4992 62.6925 26.375 62.4899 26.3135C62.4248 26.293 62.3765 26.2134 62.3198 26.1615C62.5007 26.0192 62.3307 25.8624 62.2945 25.7527C62.2185 25.5247 62.5176 25.3824 62.3753 25.1521C62.3017 25.0339 62.3343 24.7673 62.2656 24.7456C62.0075 24.6684 62.0919 24.5056 62.1064 24.3874C62.0244 24.3344 61.9628 24.2934 61.8929 24.2475C62.1389 24.0316 62.1257 23.987 61.7216 23.6783C61.8266 23.6783 61.9001 23.6783 61.9556 23.6783C62.0183 23.2779 61.5492 23.577 61.5154 23.3032C61.56 23.2128 61.6047 23.1187 61.6529 23.0198C61.5793 23.0126 61.5214 23.0065 61.4684 23.0005C61.5046 22.9185 61.5347 22.8522 61.5407 22.8377C61.4346 22.6652 61.3466 22.535 61.2718 22.3963C61.1801 22.225 61.08 22.055 61.0197 21.8716C60.91 21.5315 60.6121 21.376 60.3504 21.5412C60.4191 21.4278 60.4879 21.3145 60.5361 21.2349C60.4384 21.0298 60.3492 20.8441 60.2382 20.6126C60.2455 20.5969 60.2768 20.5209 60.3214 20.416C60.0151 20.4654 59.9524 20.2447 59.8824 19.9975C59.8125 20.0903 59.7691 20.147 59.7727 20.1434C59.4049 19.9553 59.066 19.7816 58.7078 19.5983C58.7114 19.5862 58.7174 19.5561 58.7247 19.5211C58.6704 19.5259 58.6016 19.55 58.5848 19.5295C58.3532 19.2702 58.0939 19.4596 57.8455 19.4692C57.7779 19.4716 57.708 19.4005 57.6392 19.3643C57.5777 19.3957 57.4933 19.4391 57.3835 19.4958C57.3124 19.146 57.3124 19.146 56.6889 19.4548C56.6756 19.3788 56.6623 19.304 56.6527 19.2437C56.4549 19.3317 56.2776 19.4101 56.081 19.4982C56.0557 19.3691 56.04 19.2847 56.0268 19.2172C55.835 19.3233 55.6589 19.421 55.4648 19.5283C55.437 19.4005 55.425 19.3402 55.4093 19.2666C55.2742 19.421 54.9811 19.4729 54.869 19.3957C54.7894 19.3414 54.6832 19.2895 54.5928 19.2944C54.3287 19.3112 54.0549 19.3257 53.8053 19.4029C53.6642 19.4463 53.4712 19.3486 53.3602 19.5754C53.2975 19.7032 52.9779 19.6128 52.9188 19.4427C52.7017 19.6164 52.4955 19.7828 52.27 19.9637C52.2483 19.8118 52.2338 19.7032 52.2157 19.579C52.0107 19.6875 51.8262 19.7852 51.6115 19.8998C51.5078 19.8154 51.3691 19.79 51.2654 19.9914C51.2509 20.0192 51.2171 20.0469 51.187 20.0578C51.0157 20.1193 50.8348 20.1591 50.6744 20.2387C50.385 20.381 50.1196 20.5788 49.8205 20.6922C49.5275 20.8031 49.3478 21.1842 48.9558 21.0588ZM45.5741 35.2236C45.3124 35.062 45.0977 34.8365 44.9964 34.5181C45.0097 34.5133 44.9771 34.5253 44.9265 34.5434C44.9663 34.1732 44.7745 34.1104 44.5393 34.1925C44.514 34.061 44.5031 33.9307 44.4633 33.8089C44.4151 33.6654 44.3427 33.5291 44.2511 33.3205C44.2137 33.2988 44.1088 33.2385 44.0063 33.1794C44.1341 32.8417 44.1112 32.7814 43.8567 32.7633C43.8242 32.6367 43.9773 32.4136 43.6686 32.4075C43.6384 32.4063 43.6155 32.0976 43.6191 31.9155C43.9701 32.1374 44.3042 32.0011 44.6358 31.9661C44.9385 31.9348 44.9385 31.9372 44.9819 31.7973C45.1279 31.8359 45.2702 31.8793 45.4149 31.9118C45.5753 31.9468 45.6392 32.0132 45.5005 32.1482C45.4173 32.229 45.2955 32.2857 45.2485 32.381C45.1918 32.4968 45.152 32.6536 45.1821 32.7717C45.2123 32.8851 45.3498 32.9659 45.4258 33.0708C45.4511 33.1082 45.4354 33.1758 45.4366 33.2288C45.4414 33.4556 45.5717 33.5074 45.8165 33.4339C45.5476 34.1961 46.1228 34.5856 46.4521 35.1102C46.1699 35.1802 45.8913 35.4202 45.5741 35.2236ZM49.273 34.9233C49.2151 34.9426 49.15 34.9547 49.0993 34.9872C48.957 35.0789 48.8231 35.1838 48.6796 35.2731C48.6519 35.2899 48.5844 35.2755 48.5578 35.2501C48.5361 35.2308 48.5325 35.1645 48.5494 35.1344C48.6024 35.0318 48.6688 34.9354 48.7592 34.7894C48.5831 34.7677 48.4493 34.752 48.2925 34.7328C48.3263 34.6532 48.3769 34.5326 48.4372 34.3902C48.2696 34.3082 48.2865 33.9838 47.985 34.0489C47.9138 33.7378 47.5013 33.5617 47.5122 33.3181C47.5303 32.9418 47.2625 32.6849 47.2818 32.334C47.1407 32.3219 47.0153 32.311 46.8694 32.299C46.9321 32.176 46.9852 32.0698 47.0418 31.9553C46.9454 31.8793 46.8682 31.819 46.7801 31.7502C46.9309 31.7213 47.0684 31.7068 47.1962 31.6658C47.2818 31.6393 47.3687 31.5874 47.429 31.5235C47.5025 31.4451 47.5339 31.3559 47.6521 31.4873C47.6943 31.5332 47.8306 31.4946 47.9222 31.4946C48.0187 31.5717 48.1285 31.6586 48.2382 31.7466C48.2527 31.7285 48.2672 31.7104 48.2816 31.6924C48.3021 31.8672 48.3226 32.0409 48.3504 32.2797C48.3371 32.2905 48.2635 32.3533 48.2032 32.4051C48.395 32.6536 48.5868 32.8996 48.8147 33.1951C48.8135 33.2059 48.8063 33.3012 48.7978 33.3977C48.7532 33.3929 48.7098 33.3868 48.6652 33.382C48.6543 33.3989 48.6422 33.4158 48.6314 33.4327C48.7025 33.4857 48.7737 33.5376 48.8449 33.5906C48.9305 33.6534 49.0354 33.704 49.0897 33.7872C49.1078 33.8138 48.9956 33.9271 48.9293 34.02C48.9968 34.0357 49.0692 34.0526 49.0945 34.0574C49.1355 34.2214 49.1693 34.3565 49.203 34.4915C49.2621 34.4843 49.3224 34.4783 49.4648 34.4614C49.2513 34.6399 49.2175 34.7593 49.4732 34.8606C49.4069 34.8811 49.3393 34.9016 49.273 34.9233ZM56.151 32.4835C55.8808 32.6379 55.6131 32.7983 55.3357 32.9394C54.9691 33.1287 54.6085 33.3615 54.2165 33.458C53.9994 33.5122 53.9427 33.5424 53.9403 33.7426C53.9403 33.7703 53.7751 33.7969 53.6859 33.8234C53.6762 33.7691 53.6666 33.7161 53.6509 33.6244C53.5532 33.6751 53.4302 33.7378 53.3192 33.7945C53.2432 33.8174 53.1335 33.8198 53.1142 33.862C53.0467 34.0176 52.9369 33.9983 52.8006 34.0067C52.5413 34.0236 52.2543 34.0043 52.083 34.2733C51.7683 34.1792 51.5005 34.3444 51.2883 34.7955C51.3088 34.5603 51.3257 34.3685 51.3438 34.1647C51.3968 34.19 51.4535 34.2166 51.509 34.2419C51.5271 34.225 51.5464 34.2081 51.5657 34.1912C51.4499 34.0128 51.3474 33.8234 51.2171 33.657C51.0965 33.5026 50.9446 33.3711 50.8071 33.23C50.8469 33.1637 50.8951 33.0877 50.9711 32.9635C50.8541 32.9925 50.789 33.0093 50.7504 33.019C50.7118 32.8622 50.707 32.7042 50.631 32.5945C50.5948 32.5426 50.4235 32.586 50.3054 32.586C50.2824 32.3967 50.2644 32.1675 50.2149 31.9444C50.2089 31.9143 50.0521 31.9155 49.9448 31.8986C49.9496 31.8745 49.9701 31.7912 49.993 31.6924C49.9086 31.5428 49.7831 31.5633 49.6336 31.6333C49.5902 31.6526 49.5178 31.6091 49.472 31.5416C49.5661 31.5151 49.6601 31.4885 49.8217 31.4427C49.6782 31.3679 49.595 31.3257 49.437 31.2425C49.5829 31.2316 49.6457 31.2256 49.7084 31.2208C49.7241 30.9567 49.9713 30.6986 50.2258 30.5961C50.5393 30.4694 50.836 30.2994 51.1387 30.1462C51.3835 30.022 51.6236 29.8893 51.8708 29.7711C52.1952 29.6168 52.5353 29.4926 52.8477 29.3177C53.1552 29.1464 53.4266 28.9112 53.7317 28.7364C53.9536 28.6109 54.2045 28.5374 54.4059 28.4554C54.4806 28.6158 54.5663 28.7183 54.5711 28.8256C54.5771 28.974 54.5482 29.1066 54.8449 29.0668C54.7435 29.1416 54.7086 29.1681 54.6832 29.1862C54.787 29.431 54.8895 29.6747 54.992 29.9171C55.0053 29.9135 55.0173 29.911 55.0306 29.9086C55.0306 29.8495 55.0306 29.7904 55.0306 29.7096C55.0788 29.7277 55.1464 29.735 55.1524 29.7591C55.2043 29.9328 55.2453 30.1088 55.2839 30.2849C55.3466 30.5732 55.3634 30.8795 55.6252 31.0833C55.6529 31.1038 55.665 31.1581 55.6674 31.1979C55.6806 31.5271 55.9713 31.6839 56.1208 31.9287C56.1281 31.9408 56.2041 31.9118 56.2692 31.8974C56.2619 32.0988 56.2945 32.27 56.5864 32.2254C56.4416 32.311 56.2981 32.3991 56.151 32.4835ZM58.6149 25.1328C58.6981 25.1472 58.7801 25.1605 58.8839 25.1774C58.873 25.1279 58.8766 25.0797 58.8549 25.0556C58.6909 24.8795 58.6644 24.7167 58.8018 24.4911C58.9936 24.1776 59.1335 23.8314 59.3023 23.4817C59.3638 23.5263 59.4374 23.5529 59.4615 23.6023C59.71 24.1185 59.9717 24.631 60.1852 25.1617C60.284 25.4053 60.2744 25.6899 60.3299 25.9541C60.3709 26.1458 60.4264 26.3364 60.4975 26.5197C60.5349 26.6162 60.6205 26.6934 60.6977 26.7983C60.553 27.3506 60.7809 27.7643 61.2802 27.9705C61.0933 28.149 60.9124 28.3203 60.7218 28.5024C60.3347 28.3468 60.1791 28.0863 60.4022 27.6437C60.2732 27.669 60.2045 27.6823 60.161 27.6919C60.0959 27.5533 60.0404 27.4351 59.9717 27.2891C60.1044 27.0117 60.0453 26.826 59.7546 26.6379C59.7027 26.6041 59.6967 26.4992 59.6629 26.4087C59.6087 26.4184 59.5411 26.4304 59.4374 26.4485C59.476 26.3484 59.5062 26.2725 59.5435 26.1748C59.4398 26.1796 59.347 26.1844 59.2155 26.1904C59.2432 26.0132 59.312 25.8359 59.283 25.6755C59.2565 25.5259 59.1263 25.3945 59.0418 25.257C58.9478 25.2823 58.8633 25.3052 58.7934 25.3245C58.75 25.4451 58.7102 25.5597 58.6704 25.6731C58.6523 25.6694 58.633 25.6646 58.6149 25.661C58.6149 25.4934 58.6149 25.3245 58.6149 25.1328ZM58.2917 28.1768C58.3182 28.2298 58.2688 28.3191 58.2483 28.424C58.3809 28.3565 58.4931 28.2998 58.6089 28.2419C58.5365 28.4879 58.4485 28.6761 58.4424 28.8666C58.4412 28.939 58.627 29.0174 58.7307 29.0958C58.7452 29.1959 58.7126 29.3925 58.7934 29.4648C59.0153 29.6638 59.0081 29.899 58.9864 30.0871C59.1033 30.098 59.2047 30.1064 59.306 30.1161C59.3048 30.1486 59.3023 30.1824 59.3011 30.2162C59.2264 30.2222 59.1516 30.2282 59.0539 30.2355C59.1154 30.4236 59.1709 30.5925 59.2239 30.7553C59.0032 30.9193 58.7922 31.07 58.5896 31.2304C58.5365 31.2727 58.5064 31.3462 58.469 31.4077C58.4171 31.4934 58.3701 31.5814 58.3013 31.7044C58.276 31.6055 58.2652 31.5199 58.2338 31.4439C58.1747 31.2992 58.2398 31.0917 58.0107 31.0206C57.9649 31.0073 57.9516 30.8759 57.9263 30.7987C57.8961 30.7022 57.8684 30.6045 57.8394 30.508C57.7598 30.5478 57.6802 30.59 57.5994 30.6274C57.5874 30.6323 57.5657 30.619 57.5488 30.6142C57.5741 30.3175 57.5741 30.3175 57.2545 30.3102C57.2352 30.2089 57.2147 30.104 57.1954 29.9991C57.234 30.0413 57.2738 30.0823 57.3124 30.1233C57.3872 30.0377 57.4619 29.952 57.5367 29.8652C56.9096 29.548 57.0085 28.9161 56.6045 28.5929C56.6045 28.7026 56.6045 28.8051 56.6045 28.91C56.391 28.8823 56.3584 28.816 56.4453 28.6351C56.473 28.5772 56.4995 28.459 56.479 28.4469C56.2644 28.3179 56.2426 28.0984 56.1884 27.8922C56.1775 27.8511 56.1462 27.815 56.104 27.745C56.0244 27.8885 55.9592 28.0055 55.8953 28.1237C55.8627 28.1153 55.8314 28.1068 55.8 28.0984C55.8242 27.9199 55.8483 27.7426 55.8736 27.5484C55.882 27.5496 55.8362 27.5448 55.7904 27.5412C55.7928 27.5231 55.7868 27.4966 55.7964 27.4881C55.9761 27.3313 56.151 27.1685 56.3391 27.0226C56.4633 26.9249 56.6153 26.8622 56.7383 26.7633C56.8746 26.6524 56.9844 26.5112 57.1182 26.3979C57.1833 26.3424 57.2822 26.2797 57.3534 26.2917C57.4583 26.311 57.5536 26.3931 57.6887 26.4678C57.6838 26.4811 57.6573 26.5438 57.6416 26.6077C57.6296 26.6548 57.6151 26.744 57.6284 26.7488C57.8684 26.8453 57.7526 27.0226 57.7719 27.1927C57.7972 27.4182 57.948 27.6329 58.0613 27.8451C58.1241 27.9633 58.2338 28.0574 58.2917 28.1768ZM52.9707 21.8475C53.3096 21.8186 53.6437 21.7559 53.9813 21.7209C54.3323 21.6835 54.6845 21.6618 55.0354 21.6304C55.5142 21.5882 55.993 21.5243 56.473 21.5086C56.7697 21.5002 57.0688 21.5822 57.3679 21.5919C57.6706 21.6027 57.9214 21.6799 58.0529 21.9778C57.8575 22.0646 57.9697 22.2419 58.0034 22.3697C58.0348 22.4891 58.1048 22.5784 57.9914 22.6942C57.9612 22.7243 57.9962 22.8256 58.0131 22.8907C58.0662 23.0861 58.0469 23.2513 57.9009 23.4142C57.6742 23.6686 57.5126 23.9991 57.2497 24.1993C56.5719 24.7131 55.8567 25.1762 55.1512 25.6526C54.7243 25.9408 54.2853 26.2097 53.8583 26.4968C53.6135 26.662 53.3844 26.8489 53.1407 27.0166C53.1094 27.0383 53.037 27.0033 52.9285 26.9852C52.6077 27.148 52.2229 27.3289 51.8527 27.5352C51.6947 27.6232 51.5801 27.7921 51.4209 27.8753C51.275 27.9512 51.0772 27.9283 50.9337 28.0067C50.6937 28.137 50.4851 28.3227 50.2511 28.4662C50.163 28.5205 50.04 28.5169 49.9375 28.5531C49.3948 28.7388 48.8509 28.9221 48.3118 29.1199C48.1731 29.1705 48.0513 29.2706 47.9066 29.3563C47.9138 29.3285 47.9222 29.296 47.9307 29.2646C47.6931 29.232 47.4941 29.2658 47.4024 29.5324C47.3952 29.5492 47.1745 29.5215 47.1733 29.5082C47.1612 29.3153 47.0406 29.378 46.9381 29.3949C46.4002 29.4841 45.8648 29.5842 45.3257 29.6578C45.0242 29.6988 44.7154 29.6903 44.4115 29.7169C44.2909 29.7277 44.1739 29.7832 44.0521 29.8001C43.9737 29.8109 43.8869 29.7989 43.8085 29.7796C43.6903 29.7506 43.6047 29.5951 43.4443 29.7253C43.4117 29.7518 43.2296 29.6674 43.1825 29.5927C43.0861 29.4395 42.8871 29.3671 42.8859 29.1307C42.8847 28.787 42.8171 28.4445 42.799 28.0996C42.7846 27.8306 42.8991 27.6184 43.0993 27.4206C43.425 27.0974 43.6891 26.709 44.0231 26.3967C44.4332 26.0144 44.8903 25.6803 45.3269 25.3269C45.7104 25.0182 46.0843 24.6974 46.481 24.4079C46.8272 24.1547 47.2047 23.9436 47.5604 23.7024C47.7486 23.5758 47.9162 23.419 48.1019 23.2887C48.1888 23.2284 48.2949 23.1935 48.395 23.1573C48.6543 23.0632 48.9281 22.9993 49.1741 22.8787C50.3765 22.295 51.6428 21.9621 52.9707 21.8475ZM21.9359 71.466C21.6899 71.4564 21.5874 71.2381 21.4607 71.0934C21.2183 70.816 20.8505 70.9812 20.5586 70.7424C20.268 70.5036 19.7771 70.506 19.3695 70.4023C18.9799 70.4204 18.6362 70.5482 18.3757 70.8401C17.8209 71.4624 17.2625 72.0835 16.7343 72.7287C16.5124 72.9989 16.3954 73.3547 16.1711 73.6224C15.9214 73.9203 16.0505 74.2712 15.989 74.586C15.9432 74.8236 16.1253 75.1649 16.3062 75.3736C16.5799 75.6871 16.9261 75.944 17.2662 76.1924C17.6762 76.4915 18.114 76.7508 18.6555 76.7159C18.6796 76.7147 18.7098 76.7135 18.7267 76.7255C19.0933 76.9908 19.3912 77.0041 19.7494 76.7641C19.8471 76.699 19.952 76.6435 20.0376 76.5639C20.2752 76.3408 20.5466 76.137 20.7287 75.8728C21.0278 75.4399 21.2991 74.9816 21.5235 74.5064C21.8431 73.831 22.2133 73.1665 22.2242 72.3862C22.2266 72.2065 22.2217 72.0256 22.2362 71.8471C22.2531 71.6216 21.8696 71.7229 21.9359 71.466ZM20.4091 73.4282C20.3295 73.7587 20.2354 74.0855 20.1486 74.4148C20.1148 74.545 20.0847 74.6777 20.0521 74.8115C19.9001 74.8115 19.7868 74.8115 19.665 74.8115C19.6227 74.6343 18.8304 74.3122 18.5361 74.381C18.4336 73.9734 17.663 74.0722 17.88 73.4331C17.7606 73.468 17.6907 73.4885 17.6207 73.509C17.6063 73.4728 17.5894 73.4451 17.5954 73.4403C17.8282 73.222 18.0356 72.9603 18.3058 72.8035C18.5325 72.6732 18.8171 72.6045 19.109 72.742C19.2851 72.824 19.507 72.8071 19.6891 72.8819C19.9218 72.9784 20.1389 73.1159 20.3536 73.2497C20.3946 73.2751 20.4211 73.374 20.4091 73.4282Z" fill="white"/>
</g>
</svg>
